<?xml version="1.0" standalone="no"?>
<!DOCTYPE svg PUBLIC "-//W3C//DTD SVG 1.1//EN" "http://www.w3.org/Graphics/SVG/1.1/DTD/svg11.dtd" >
<svg xmlns="http://www.w3.org/2000/svg">
<metadata></metadata>
<defs>
<font id="dejavu_serifbook" horiz-adv-x="1716" >
<font-face units-per-em="2048" ascent="1556" descent="-492" />
<missing-glyph horiz-adv-x="651" />
<glyph unicode="&#xfb00;" horiz-adv-x="1455" d="M948 955l-514 1v-850h236v-106h-596v106h176v850h-176v107h176v133q0 178 92 269t272 91q66 0 133 -12t133 -37v-202h-96q-2 75 -43 114t-121 39q-102 0 -144 -56.5t-42 -201.5v-137h514v132q0 178 92 269t272 91q66 0 133 -12t133 -37v-202h-96q-2 75 -43 114t-121 39 q-102 0 -144 -56.5t-42 -201.5v-137h296v-107h-296v-850h236v-106h-596v106h176v850z" />
<glyph unicode="fi" horiz-adv-x="1366" d="M1071 1286l-94 1q-3 86 -64 128.5t-184 42.5q-153 0 -224 -71t-71 -224v-100h711v-957h174v-106h-535v106h177v850h-527v-850h174v-106h-534v106h176v850h-176v107h176v96q0 197 117 297t346 100q87 0 178 -13t180 -40v-217z" />
<glyph unicode="fl" horiz-adv-x="1366" d="M733 1556h397v-1450h175v-106h-535v106h176v1344h-215q-163 0 -230 -65t-67 -222v-100h295v-107h-295v-850h174v-106h-534v106h176v850h-176v107h176v96q0 201 119.5 299t363.5 98z" />
<glyph unicode="&#xfb03;" horiz-adv-x="2105" d="M989 956h-557v-850h236v-106h-596v106h176v850h-176v107h176v133q0 178 92.5 269t271.5 91q67 0 134 -12t133 -37v-202h-97q-1 75 -42.5 114t-120.5 39q-103 0 -145 -56.5t-42 -201.5v-137h557v96q0 197 117 297t346 100q87 0 178 -13t180 -40v-217l-94 1 q-3 86 -64 128.5t-184 42.5q-153 0 -224 -71t-71 -224v-100h711v-957h174v-106h-535v106h177v850h-527v-850h174v-106h-534v106h176v850z" />
<glyph unicode="&#xfb04;" horiz-adv-x="2110" d="M985 956h-555v-850h236v-106h-596v106h176v850h-176v107h176v133q0 178 92.5 269t271.5 91q67 0 134 -12t133 -37v-202h-97q-1 75 -42.5 114t-120.5 39q-103 0 -145 -56.5t-42 -201.5v-137h555v96q0 201 119.5 299t363.5 98h397v-1450h175v-106h-535v106h176v1344h-215 q-163 0 -230 -65t-67 -222v-100h295v-107h-295v-850h174v-106h-534v106h176v850z" />
<glyph unicode="&#xd;" horiz-adv-x="682" />
<glyph unicode=" "  horiz-adv-x="651" />
<glyph unicode="&#x09;" horiz-adv-x="651" />
<glyph unicode="&#xa0;" horiz-adv-x="651" />
<glyph unicode="!" horiz-adv-x="823" d="M279 104q0 56 38 95t95 39q55 0 94 -39t39 -95q0 -55 -39 -94t-94 -39q-57 0 -95 38.5t-38 94.5zM283 1493h258l-68 -821v-252h-123v252z" />
<glyph unicode="&#x22;" horiz-adv-x="942" d="M360 1493v-555h-159v555h159zM741 1493v-555h-159v555h159z" />
<glyph unicode="#" d="M1042 901h-282l-84 -334h285zM901 1470l-102 -415h282l103 415h172l-105 -415h308v-154h-347l-82 -334h314v-153h-352l-103 -414h-172l105 414h-283l-104 -414h-170l102 414h-309v153h348l82 334h-316v154h355l104 415h170z" />
<glyph unicode="$" horiz-adv-x="1303" d="M690 68q113 10 172.5 65t59.5 150q0 86 -59 146t-173 91v-452zM590 1187q-103 -7 -160 -59.5t-57 -140.5q0 -80 52.5 -133t164.5 -86v419zM176 72v276h108q4 -137 80 -207t226 -73v485q-230 64 -323 147.5t-93 221.5q0 160 110 257t306 109v268h100v-268 q101 -8 194.5 -32.5t182.5 -65.5v-262h-109q-12 116 -81 183t-187 76v-452q246 -67 344.5 -153.5t98.5 -231.5q0 -166 -116 -266t-327 -115v-270h-100v270q-96 2 -199 27.5t-215 75.5z" />
<glyph unicode="%" horiz-adv-x="1946" d="M459 1427q-88 0 -137.5 -83t-49.5 -232q0 -147 50.5 -231t136.5 -84q85 0 134.5 83.5t49.5 231.5t-49.5 231.5t-134.5 83.5zM1489 694q-87 0 -136.5 -84t-49.5 -233q0 -147 50 -230.5t136 -83.5t135 83.5t49 230.5q0 148 -49.5 232.5t-134.5 84.5zM1489 784 q158 0 251 -110t93 -297t-93.5 -296.5t-250.5 -109.5q-160 0 -253 109.5t-93 296.5q0 188 93.5 297.5t252.5 109.5zM1364 1520h152l-934 -1549h-152zM457 1520q158 0 252 -109.5t94 -296.5q0 -189 -93.5 -298t-252.5 -109t-251.5 109.5t-92.5 297.5q0 186 93 296t251 110z " />
<glyph unicode="&#x26;" horiz-adv-x="1823" d="M1106 231l-582 613q-87 -78 -130.5 -168.5t-43.5 -192.5q0 -166 115 -278.5t287 -112.5q102 0 192.5 35.5t161.5 103.5zM1726 0h-401l-137 145q-105 -88 -224 -131t-257 -43q-258 0 -409 132t-151 358q0 133 76.5 248.5t231.5 216.5q-51 61 -75 121.5t-24 126.5 q0 159 114.5 252.5t311.5 93.5q67 0 156.5 -17t204.5 -51v-258h-113q-14 107 -78 163t-174 56q-103 0 -167 -56.5t-64 -146.5q0 -61 34 -121.5t142 -173.5l516 -544q69 80 108.5 172.5t49.5 197.5h-180v107h473v-107h-172q-17 -130 -66.5 -243t-132.5 -209l172 -183h235 v-106z" />
<glyph unicode="'" horiz-adv-x="563" d="M360 1493v-555h-159v555h159z" />
<glyph unicode="(" horiz-adv-x="799" d="M653 -319q-243 109 -367 345.5t-124 591.5q0 356 124 592.5t367 345.5v-98q-154 -106 -221 -298.5t-67 -541.5q0 -348 67 -540.5t221 -298.5v-98z" />
<glyph unicode=")" horiz-adv-x="799" d="M145 -319v98q154 106 221.5 298.5t67.5 540.5q0 349 -67.5 541.5t-221.5 298.5v98q244 -109 368 -345.5t124 -592.5q0 -355 -124 -591.5t-368 -345.5z" />
<glyph unicode="*" horiz-adv-x="1024" d="M991 1237l-391 -182l391 -185l-76 -118l-348 217l13 -381h-136l13 381l-348 -217l-76 118l391 183l-391 184l76 119l348 -217l-13 381h136l-13 -381l348 217z" />
<glyph unicode="+" d="M938 1284v-561h561v-162h-561v-561h-160v561h-561v162h561v561h160z" />
<glyph unicode="," horiz-adv-x="651" d="M74 -199q94 69 138 162.5t44 226.5v37h197q-8 -171 -80.5 -293.5t-218.5 -212.5z" />
<glyph unicode="-" horiz-adv-x="692" d="M90 627h512v-156h-512v156z" />
<glyph unicode="." horiz-adv-x="651" d="M193 104q0 56 38 95t95 39q55 0 94 -39t39 -95q0 -55 -39 -94t-94 -39q-57 0 -95 38.5t-38 94.5z" />
<glyph unicode="/" horiz-adv-x="690" d="M530 1493h160l-530 -1683h-160z" />
<glyph unicode="0" horiz-adv-x="1303" d="M651 70q153 0 229 168t76 507q0 340 -76 508t-229 168t-229 -168t-76 -508q0 -339 76 -507t229 -168zM651 -29q-243 0 -379.5 204t-136.5 570q0 367 136.5 571t379.5 204q244 0 380 -204t136 -571q0 -366 -136 -570t-380 -204z" />
<glyph unicode="1" horiz-adv-x="1303" d="M291 0v106h260v1242l-301 -195v131l364 236h138v-1414h260v-106h-721z" />
<glyph unicode="2" horiz-adv-x="1303" d="M262 1137h-112v266q107 57 215.5 87t212.5 30q233 0 368 -113t135 -307q0 -219 -306 -524q-24 -23 -36 -35l-377 -377h623v184h117v-348h-963v109l453 452q150 150 214 275.5t64 263.5q0 151 -78.5 236t-216.5 85q-143 0 -221 -71t-92 -213z" />
<glyph unicode="3" horiz-adv-x="1303" d="M199 1430q117 44 224.5 67t201.5 23q219 0 342 -94.5t123 -262.5q0 -135 -85 -225.5t-241 -122.5q184 -26 285.5 -133.5t101.5 -278.5q0 -209 -140.5 -320.5t-404.5 -111.5q-117 0 -228.5 25t-221.5 76v290h112q10 -144 97 -218t245 -74q153 0 241.5 88.5t88.5 242.5 q0 176 -91 266.5t-267 90.5h-95v102h50q175 0 262.5 72.5t87.5 218.5q0 131 -72 200.5t-207 69.5t-209.5 -64t-87.5 -190h-112v263z" />
<glyph unicode="4" horiz-adv-x="1303" d="M715 506v794l-510 -794h510zM1155 0h-680v106h240v293h-652v109l654 1012h198v-1014h285v-107h-285v-293h240v-106z" />
<glyph unicode="5" horiz-adv-x="1303" d="M1030 1493v-164h-684v-428q52 36 121.5 54t155.5 18q242 0 382 -134t140 -366q0 -237 -141.5 -369.5t-397.5 -132.5q-103 0 -211 25t-221 76v290h113q9 -142 90.5 -217t228.5 -75q158 0 243 104t85 299q0 194 -84.5 297.5t-243.5 103.5q-90 0 -158.5 -32t-121.5 -99h-86 v750h790z" />
<glyph unicode="6" horiz-adv-x="1303" d="M670 70q141 0 217 103.5t76 297.5t-76 297.5t-217 103.5q-143 0 -218 -100t-75 -289q0 -199 76 -306t217 -107zM344 822q68 75 154 112t194 37q223 0 352.5 -134t129.5 -366q0 -227 -139.5 -363.5t-372.5 -136.5q-253 0 -389 188.5t-136 538.5q0 392 161 607t454 215 q79 0 166 -15t178 -45v-246h-113q-12 101 -77 154t-175 53q-194 0 -289 -147t-98 -452z" />
<glyph unicode="7" horiz-adv-x="1303" d="M1155 1391l-584 -1391h-149l557 1329h-690v-184h-117v348h983v-102z" />
<glyph unicode="8" horiz-adv-x="1303" d="M954 408q0 160 -79.5 248.5t-223.5 88.5t-223.5 -88.5t-79.5 -248.5q0 -161 79.5 -249.5t223.5 -88.5t223.5 88.5t79.5 249.5zM913 1133q0 136 -69 212t-193 76q-123 0 -192.5 -76t-69.5 -212q0 -137 69.5 -213t192.5 -76q124 0 193 76t69 213zM805 795 q170 -23 265 -125.5t95 -261.5q0 -210 -133 -323.5t-381 -113.5q-247 0 -380.5 113.5t-133.5 323.5q0 159 95 261.5t266 125.5q-151 27 -231.5 114.5t-80.5 223.5q0 180 124 283.5t341 103.5t341 -103.5t124 -283.5q0 -136 -80.5 -223.5t-230.5 -114.5z" />
<glyph unicode="9" horiz-adv-x="1303" d="M958 669q-67 -75 -154 -112t-196 -37q-222 0 -350.5 134t-128.5 366q0 227 139.5 363.5t372.5 136.5q253 0 388.5 -188.5t135.5 -538.5q0 -392 -161 -607t-453 -215q-79 0 -166 15t-178 45v248h112q13 -101 78 -155t174 -54q194 0 289 146.5t98 452.5zM633 1421 q-142 0 -217.5 -103.5t-75.5 -297.5t75.5 -298t217.5 -104t217.5 100.5t75.5 289.5q0 199 -76 306t-217 107z" />
<glyph unicode=":" horiz-adv-x="690" d="M213 104q0 56 38.5 95t94.5 39t94.5 -39t38.5 -95t-38 -94.5t-95 -38.5t-95 38.5t-38 94.5zM213 756q0 56 38.5 94.5t94.5 38.5q57 0 95 -38t38 -95t-38 -95t-95 -38q-56 0 -94.5 38.5t-38.5 94.5z" />
<glyph unicode=";" horiz-adv-x="690" d="M74 -199q94 69 138 162.5t44 226.5v37h197q-8 -171 -80.5 -293.5t-218.5 -212.5zM217 756q0 56 38.5 94.5t94.5 38.5t94.5 -39t38.5 -94q0 -56 -38.5 -94.5t-94.5 -38.5t-94.5 38.5t-38.5 94.5z" />
<glyph unicode="&#x3c;" d="M1499 1020l-1038 -379l1038 -377v-170l-1282 465v166l1282 465v-170z" />
<glyph unicode="=" d="M217 926h1282v-160h-1282v160zM217 518h1282v-160h-1282v160z" />
<glyph unicode="&#x3e;" d="M217 1020v170l1282 -465v-166l-1282 -465v170l1038 377z" />
<glyph unicode="?" horiz-adv-x="1098" d="M360 104q0 56 38.5 95t95.5 39q55 0 94 -39t39 -95q0 -55 -39 -94t-94 -39q-57 0 -95.5 38.5t-38.5 94.5zM139 1427q106 47 201.5 70t179.5 23q222 0 350.5 -107t128.5 -289q0 -186 -110.5 -304t-333.5 -169v-254h-123v328q177 43 266.5 144t89.5 257q0 137 -73 216 t-199 79q-114 0 -186.5 -65.5t-93.5 -188.5h-97v260z" />
<glyph unicode="@" horiz-adv-x="2048" d="M1294 248q-59 -82 -132.5 -122t-166.5 -40q-175 0 -284 125t-109 326t109 325.5t284 124.5q93 0 166.5 -40t132.5 -122v142h156v-772q170 37 264 162t94 313q0 111 -34 210t-101 183q-106 133 -258.5 203.5t-331.5 70.5q-90 0 -178 -19t-174 -58q-202 -93 -314 -281.5 t-112 -435.5q0 -167 50 -307.5t145 -243.5q109 -119 258.5 -181.5t322.5 -62.5q129 0 241 38t208 114l53 -70q-108 -93 -245 -139.5t-300 -46.5q-183 0 -349.5 66.5t-291.5 189.5q-129 127 -195.5 290.5t-66.5 352.5q0 184 67 347t195 290q127 126 299.5 194t366.5 68 q214 0 390.5 -83t295.5 -239q76 -98 115 -213t39 -239q0 -268 -163 -423.5t-445 -158.5zM1294 485v105q0 125 -71.5 202.5t-186.5 77.5q-121 0 -188.5 -87.5t-67.5 -245.5q0 -159 68 -246.5t190 -87.5q114 0 185 78.5t71 203.5z" />
<glyph unicode="A" horiz-adv-x="1479" d="M410 541h548l-274 710zM-12 0v106h131l532 1387h168l533 -1387h147v-106h-543v106h166l-125 328h-628l-125 -328h164v-106h-420z" />
<glyph unicode="B" horiz-adv-x="1505" d="M506 106h299q180 0 263 78t83 248q0 169 -82.5 246.5t-263.5 77.5h-299v-650zM506 862h254q164 0 239.5 63t75.5 199q0 137 -75.5 199.5t-239.5 62.5h-254v-524zM113 0v106h190v1280h-190v107h737q226 0 340.5 -92.5t114.5 -276.5q0 -133 -79.5 -212t-232.5 -97 q190 -24 288.5 -121.5t98.5 -261.5q0 -222 -140 -327t-437 -105h-690z" />
<glyph unicode="C" horiz-adv-x="1567" d="M1444 395q-66 -209 -221.5 -316.5t-393.5 -107.5q-146 0 -271 50t-222 147q-112 112 -166.5 254.5t-54.5 322.5q0 348 201 561.5t530 213.5q122 0 260 -32t297 -97v-344h-113q-37 188 -148.5 277t-312.5 89q-239 0 -362 -169.5t-123 -498.5q0 -328 123 -497.5t362 -169.5 q167 0 275 79.5t156 237.5h184z" />
<glyph unicode="D" horiz-adv-x="1642" d="M506 106h186q291 0 446.5 166t155.5 476t-155 474t-447 164h-186v-1280zM113 0v106h190v1280h-190v107h594q386 0 601.5 -197t215.5 -548q0 -352 -216 -550t-601 -198h-594z" />
<glyph unicode="E" horiz-adv-x="1495" d="M113 0v106h190v1280h-190v107h1202v-332h-123v209h-686v-500h489v187h123v-496h-123v187h-489v-625h702v209h123v-332h-1218z" />
<glyph unicode="F" horiz-adv-x="1421" d="M113 0v106h190v1280h-190v107h1222v-332h-123v209h-706v-500h510v187h123v-496h-123v187h-510v-642h239v-106h-632z" />
<glyph unicode="G" horiz-adv-x="1636" d="M1311 1047q-35 187 -146 276.5t-309 89.5q-258 0 -385 -166t-127 -502q0 -329 131 -498t385 -169q113 0 216 28t196 84v385h-281v107h484v-557q-133 -77 -286.5 -115.5t-328.5 -38.5q-338 0 -541.5 211.5t-203.5 562.5q0 354 204 564.5t549 210.5q128 0 264.5 -29.5 t290.5 -89.5v-354h-112z" />
<glyph unicode="H" horiz-adv-x="1786" d="M113 0v106h190v1280h-190v107h583v-107h-190v-516h774v516h-190v107h583v-107h-190v-1280h190v-106h-583v106h190v642h-774v-642h190v-106h-583z" />
<glyph unicode="I" horiz-adv-x="809" d="M506 106h190v-106h-583v106h190v1280h-190v107h583v-107h-190v-1280z" />
<glyph unicode="J" horiz-adv-x="821" d="M-172 -358v235h114q3 -99 47 -147.5t132 -48.5q119 0 166 75t47 293v1337h-232v107h625v-107h-190v-1345q0 -247 -99 -357t-319 -110q-71 0 -144.5 17t-146.5 51z" />
<glyph unicode="K" horiz-adv-x="1530" d="M113 0v106h190v1280h-190v107h583v-107h-190v-565l643 565h-162v107h496v-107h-168l-641 -563l717 -717h170v-106h-347l-708 709v-603h190v-106h-583z" />
<glyph unicode="L" horiz-adv-x="1360" d="M113 0v106h190v1280h-190v107h583v-107h-190v-1263h682v250h123v-373h-1198z" />
<glyph unicode="M" horiz-adv-x="2097" d="M113 0v106h190v1280h-201v107h435l524 -1063l524 1063h408v-107h-199v-1280h191v-106h-584v106h190v1154l-512 -1041h-141l-512 1041v-1154h190v-106h-503z" />
<glyph unicode="N" horiz-adv-x="1792" d="M100 0v106h201v1280h-201v107h383l895 -1178v1071h-200v107h524v-107h-201v-1415h-121l-956 1258v-1123h201v-106h-525z" />
<glyph unicode="O" horiz-adv-x="1679" d="M840 78q245 0 370 168.5t125 498.5q0 331 -125 499.5t-370 168.5q-246 0 -371 -168.5t-125 -499.5q0 -330 125 -498.5t371 -168.5zM840 -29q-152 0 -279.5 50t-224.5 147q-112 112 -166.5 254t-54.5 323t54.5 323.5t166.5 254.5q98 98 224 147.5t280 49.5q325 0 525 -213 t200 -562q0 -179 -55 -322.5t-167 -254.5q-98 -98 -224 -147.5t-279 -49.5z" />
<glyph unicode="P" horiz-adv-x="1378" d="M506 760h264q149 0 227 80.5t78 232.5q0 153 -78 233t-227 80h-264v-626zM113 0v106h190v1280h-190v107h706q224 0 355 -113.5t131 -306.5q0 -192 -131 -306t-355 -114h-313v-547h231v-106h-624z" />
<glyph unicode="Q" horiz-adv-x="1679" d="M864 -29q-343 0 -546 210.5t-203 563.5q0 181 54.5 323.5t166.5 254.5q98 98 224 147.5t280 49.5q325 0 525 -213t200 -562q0 -296 -150 -497.5t-414 -259.5q54 -67 131.5 -99t186.5 -32h31v-185q-169 8 -289.5 82.5t-196.5 216.5zM840 78q245 0 370 168.5t125 498.5 q0 331 -125 499.5t-370 168.5q-246 0 -371 -168.5t-125 -499.5q0 -330 125 -498.5t371 -168.5z" />
<glyph unicode="R" horiz-adv-x="1542" d="M981 741q70 -19 120.5 -64.5t90.5 -127.5l217 -443h182v-106h-352l-233 475q-67 138 -123 178.5t-154 40.5h-223v-588h211v-106h-604v106h190v1280h-190v107h757q218 0 336.5 -104t118.5 -295q0 -154 -86.5 -242.5t-257.5 -110.5zM506 801h295q151 0 223 71.5t72 221.5 t-72 221t-223 71h-295v-585z" />
<glyph unicode="S" horiz-adv-x="1403" d="M190 72v340l115 -1q5 -170 98.5 -251.5t284.5 -81.5q178 0 271.5 70.5t93.5 205.5q0 108 -56.5 166t-238.5 113l-197 59q-214 65 -301.5 162t-87.5 266q0 190 135 295t379 105q104 0 228 -22.5t264 -65.5v-318h-113q-17 158 -105.5 228.5t-269.5 70.5 q-158 0 -240.5 -64.5t-82.5 -187.5q0 -107 62 -168t263 -121l185 -55q203 -61 289.5 -155.5t86.5 -253.5q0 -217 -139 -327t-414 -110q-123 0 -250.5 25t-259.5 76z" />
<glyph unicode="T" horiz-adv-x="1366" d="M391 0v106h191v1268h-439v-233h-123v352h1326v-352h-123v233h-439v-1268h191v-106h-584z" />
<glyph unicode="U" horiz-adv-x="1726" d="M287 1386h-191v107h584v-107h-191v-772q0 -286 93.5 -399t322.5 -113t322.5 113t93.5 399v772h-191v107h504v-107h-190v-792q0 -341 -131 -482t-445 -141t-447.5 142t-133.5 481v792z" />
<glyph unicode="V" horiz-adv-x="1479" d="M358 1386l441 -1146l440 1146h-168v107h438v-107h-145l-533 -1386h-172l-530 1386h-149v107h544v-107h-166z" />
<glyph unicode="W" horiz-adv-x="2105" d="M1561 0h-164l-342 1214l-342 -1214h-164l-391 1386h-148v107h545v-107h-186l311 -1103l340 1210h162l346 -1223l313 1116h-172v107h430v-107h-147z" />
<glyph unicode="X" horiz-adv-x="1458" d="M678 639l-365 -533h193v-106h-494v106h172l430 627l-436 653h-160v107h592v-107h-176l320 -481l329 481h-192v107h489v-107h-168l-395 -575l471 -705h160v-106h-592v106h178z" />
<glyph unicode="Y" horiz-adv-x="1352" d="M387 0v106h191v537l-461 743h-140v107h555v-107h-174l373 -604l373 604h-168v107h434v-107h-141l-449 -724v-556h191v-106h-584z" />
<glyph unicode="Z" horiz-adv-x="1423" d="M92 0v72l930 1298h-772v-223h-123v346h1180v-72l-930 -1298h844v209h122v-332h-1251z" />
<glyph unicode="[" horiz-adv-x="799" d="M176 1556h465v-106h-274v-1614h274v-106h-465v1826z" />
<glyph unicode="\" horiz-adv-x="690" d="M160 1493l530 -1683h-160l-530 1683h160z" />
<glyph unicode="]" horiz-adv-x="799" d="M623 1556v-1826h-465v106h274v1614h-274v106h465z" />
<glyph unicode="^" d="M956 1493l543 -557h-153l-488 381l-487 -381h-154l543 557h196z" />
<glyph unicode="_" horiz-adv-x="1024" d="M1024 -403v-80h-1024v80h1024z" />
<glyph unicode="`" horiz-adv-x="1024" d="M367 1636l260 -376h-117l-340 376h197z" />
<glyph unicode="a" horiz-adv-x="1221" d="M815 334v225h-237q-137 0 -204 -59t-67 -181q0 -111 68 -176t184 -65q115 0 185.5 71t70.5 185zM999 664v-558h164v-106h-348v115q-61 -74 -141 -109t-187 -35q-177 0 -281 94t-104 254q0 165 119 256t336 91h258v73q0 121 -73.5 187.5t-206.5 66.5q-110 0 -175 -50 t-81 -148h-95v215q96 41 186.5 61.5t176.5 20.5q221 0 336.5 -109.5t115.5 -318.5z" />
<glyph unicode="b" horiz-adv-x="1311" d="M236 106v1344h-177v106h361v-659q54 100 137.5 147.5t206.5 47.5q196 0 320 -155t124 -405t-124 -405.5t-320 -155.5q-123 0 -206.5 47.5t-137.5 147.5v-166h-361v106h177zM420 479q0 -192 73.5 -292.5t213.5 -100.5q141 0 213.5 113t72.5 333q0 221 -72.5 333 t-213.5 112q-140 0 -213.5 -101t-73.5 -292v-105z" />
<glyph unicode="c" horiz-adv-x="1147" d="M1053 319q-39 -170 -150 -259t-287 -89q-232 0 -373 153.5t-141 407.5q0 255 141 407.5t373 152.5q101 0 201 -23.5t201 -71.5v-272h-107q-21 140 -91.5 204t-201.5 64q-149 0 -225 -115.5t-76 -345.5t75.5 -346t225.5 -116q119 0 190 62t97 187h148z" />
<glyph unicode="d" horiz-adv-x="1311" d="M1075 106h176v-106h-360v166q-54 -100 -137.5 -147.5t-206.5 -47.5q-196 0 -320.5 155.5t-124.5 405.5t124 405t321 155q123 0 206.5 -47.5t137.5 -147.5v553h-174v106h358v-1450zM891 479v105q0 191 -73.5 292t-213.5 101q-142 0 -214.5 -112t-72.5 -333 q0 -220 72.5 -333t214.5 -113q140 0 213.5 100.5t73.5 292.5z" />
<glyph unicode="e" horiz-adv-x="1212" d="M1110 512h-793v-8q0 -215 81 -324.5t239 -109.5q121 0 198.5 63.5t108.5 188.5h148q-44 -175 -162.5 -263t-311.5 -88q-233 0 -374.5 153.5t-141.5 407.5q0 252 139 406t365 154q241 0 370 -148.5t134 -431.5zM893 618q-6 186 -78.5 280.5t-208.5 94.5q-127 0 -200 -95 t-89 -280h576z" />
<glyph unicode="f" horiz-adv-x="758" d="M881 1305h-97q-1 75 -42.5 114t-120.5 39q-103 0 -145 -56.5t-42 -201.5v-137h297v-107h-297v-850h236v-106h-596v106h176v850h-176v107h176v133q0 178 92.5 269t271.5 91q67 0 134 -12t133 -37v-202z" />
<glyph unicode="g" horiz-adv-x="1311" d="M1075 956v-933q0 -229 -126 -353.5t-359 -124.5q-105 0 -201 19t-184 57v223h96q18 -104 85 -152t192 -48q162 0 237.5 91.5t75.5 287.5v143q-54 -100 -137.5 -147.5t-206.5 -47.5q-196 0 -320.5 155.5t-124.5 405.5t124 405t321 155q123 0 206.5 -47.5t137.5 -147.5v166 h360v-107h-176zM891 584q0 191 -73.5 292t-213.5 101q-142 0 -214.5 -112t-72.5 -333q0 -220 72.5 -333t214.5 -113q140 0 213.5 100.5t73.5 292.5v105z" />
<glyph unicode="h" horiz-adv-x="1319" d="M84 0v106h166v1344h-176v106h360v-682q51 108 132.5 163t189.5 55q176 0 259 -101t83 -315v-570h164v-106h-508v106h159v512q0 195 -47.5 266.5t-169.5 71.5q-128 0 -195 -93t-67 -271v-486h160v-106h-510z" />
<glyph unicode="i" horiz-adv-x="655" d="M199 1393q0 46 33.5 80t80.5 34q46 0 79.5 -34t33.5 -80q0 -47 -33 -80t-80 -33t-80.5 33t-33.5 80zM434 106h174v-106h-534v106h176v850h-176v107h360v-957z" />
<glyph unicode="j" horiz-adv-x="635" d="M205 1393q0 46 33.5 80t80.5 34q46 0 79.5 -34t33.5 -80q0 -47 -32.5 -80t-80.5 -33q-47 0 -80.5 33t-33.5 80zM250 956h-174v107h358v-1167q0 -164 -97.5 -257.5t-268.5 -93.5q-72 0 -137.5 16.5t-127.5 49.5v219h95q7 -96 49.5 -141t124.5 -45q91 0 134.5 61.5 t43.5 190.5v1060z" />
<glyph unicode="k" horiz-adv-x="1241" d="M586 0h-516v106h166v1344h-177v106h361v-1013l448 413h-153v107h481v-107h-182l-316 -292l404 -558h153v-106h-524v106h152l-318 437l-145 -135v-302h166v-106z" />
<glyph unicode="l" horiz-adv-x="655" d="M420 106h174v-106h-535v106h177v1344h-177v106h361v-1450z" />
<glyph unicode="m" horiz-adv-x="1942" d="M1061 856q53 117 135.5 176.5t192.5 59.5q167 0 249 -103.5t82 -312.5v-570h166v-106h-510v106h160v549q0 163 -48 232t-159 69q-123 0 -187.5 -93t-64.5 -271v-486h160v-106h-504v106h160v556q0 159 -48 226.5t-159 67.5q-123 0 -187.5 -93t-64.5 -271v-486h160v-106 h-510v106h166v852h-176v105h360v-189q51 106 130 162t179 56q124 0 207 -61.5t111 -174.5z" />
<glyph unicode="n" horiz-adv-x="1319" d="M84 0v106h166v850h-176v107h360v-189q51 108 132.5 163t189.5 55q176 0 259 -101t83 -315v-570h164v-106h-508v106h159v512q0 195 -48 267.5t-169 72.5q-128 0 -195 -93.5t-67 -272.5v-486h160v-106h-510z" />
<glyph unicode="o" horiz-adv-x="1233" d="M616 70q148 0 223.5 117t75.5 345t-75.5 344.5t-223.5 116.5t-223.5 -116.5t-75.5 -344.5t76 -345t223 -117zM616 -29q-232 0 -373 153.5t-141 407.5t140.5 407t373.5 153t373.5 -153t140.5 -407t-140.5 -407.5t-373.5 -153.5z" />
<glyph unicode="p" horiz-adv-x="1311" d="M420 584v-105q0 -192 73.5 -292.5t213.5 -100.5q141 0 213.5 113t72.5 333q0 221 -72.5 333t-213.5 112q-140 0 -213.5 -101t-73.5 -292zM236 956h-177v107h361v-166q54 100 137.5 147.5t206.5 47.5q196 0 320 -155t124 -405t-124 -405.5t-320 -155.5q-123 0 -206.5 47.5 t-137.5 147.5v-485h174v-107h-535v107h177v1275z" />
<glyph unicode="q" horiz-adv-x="1311" d="M1075 956v-1275h176v-107h-534v107h174v485q-54 -100 -137.5 -147.5t-206.5 -47.5q-196 0 -320.5 155.5t-124.5 405.5t124 405t321 155q123 0 206.5 -47.5t137.5 -147.5v166h360v-107h-176zM891 584q0 191 -73.5 292t-213.5 101q-142 0 -214.5 -112t-72.5 -333 q0 -220 72.5 -333t214.5 -113q140 0 213.5 100.5t73.5 292.5v105z" />
<glyph unicode="r" horiz-adv-x="979" d="M979 1065v-266h-106q-5 79 -44 118t-114 39q-136 0 -208.5 -94t-72.5 -270v-486h213v-106h-563v106h166v852h-176v105h360v-189q54 111 139 164.5t207 53.5q45 0 94.5 -7t104.5 -20z" />
<glyph unicode="s" horiz-adv-x="1051" d="M115 59v248h106q4 -119 74.5 -178t208.5 -59q124 0 189 46.5t65 135.5q0 70 -47.5 113t-200.5 92l-133 45q-137 44 -198.5 110t-61.5 168q0 146 107 229t296 83q84 0 177 -22t192 -64v-232h-106q-4 103 -72 161t-185 58q-116 0 -175.5 -41t-59.5 -123q0 -67 45 -107.5 t180 -82.5l146 -45q151 -47 217.5 -117.5t66.5 -181.5q0 -151 -115.5 -237.5t-318.5 -86.5q-103 0 -201 22t-196 66z" />
<glyph unicode="t" horiz-adv-x="823" d="M221 956h-162v107h162v330h185v-330h346v-107h-346v-675q0 -135 26 -173t96 -38q72 0 105 42.5t35 137.5h139q-8 -145 -79 -212t-216 -67q-159 0 -225 70.5t-66 239.5v675z" />
<glyph unicode="u" horiz-adv-x="1319" d="M725 1063h344v-957h174v-106h-358v188q-51 -106 -132 -161.5t-188 -55.5q-177 0 -260.5 100.5t-83.5 315.5v569h-166v107h351v-619q0 -194 47.5 -266t169.5 -72q128 0 195 94t67 273v483h-160v107z" />
<glyph unicode="v" horiz-adv-x="1157" d="M506 0l-391 956h-121v107h489v-107h-170l299 -731l299 731h-159v107h399v-107h-119l-391 -956h-135z" />
<glyph unicode="w" horiz-adv-x="1753" d="M983 1063l272 -830l240 723h-154v107h385v-107h-118l-316 -956h-153l-262 795l-263 -795h-147l-315 956h-119v107h481v-107h-172l238 -723l274 830h129z" />
<glyph unicode="x" horiz-adv-x="1155" d="M596 649l223 307h-143v107h409v-107h-141l-285 -393l332 -457h139v-106h-491v106h135l-231 318l-232 -318h138v-106h-404v106h141l293 404l-323 446h-131v107h475v-107h-127z" />
<glyph unicode="y" horiz-adv-x="1157" d="M442 -195l70 177l-397 974h-121v107h489v-107h-170l299 -731l299 731h-159v107h399v-107h-119l-487 -1196q-50 -124 -111 -169.5t-172 -45.5q-47 0 -96.5 8t-99.5 23v203h94q6 -68 34.5 -97.5t88.5 -29.5q55 0 88.5 30.5t70.5 122.5z" />
<glyph unicode="z" horiz-adv-x="1079" d="M82 0v86l666 870h-527v-184h-106v291h870v-86l-666 -871h578v193h107v-299h-922z" />
<glyph unicode="{" horiz-adv-x="1303" d="M1047 -229v-105h-62q-249 0 -333.5 74t-84.5 295v258q0 150 -54 208t-196 58h-61v105h61q142 0 196 58t54 208v258q0 221 84.5 294.5t333.5 73.5h62v-104h-68q-141 0 -184 -44t-43 -185v-287q0 -158 -50 -226t-180 -98q132 -34 181 -101t49 -224v-287q0 -141 43 -185 t184 -44h68z" />
<glyph unicode="|" horiz-adv-x="690" d="M426 1565v-2048h-162v2048h162z" />
<glyph unicode="}" horiz-adv-x="1303" d="M256 -229h70q140 0 182.5 43.5t42.5 185.5v287q0 157 49 224t180 101q-130 30 -179.5 98t-49.5 226v287q0 142 -42.5 185.5t-182.5 43.5h-70v104h63q249 0 332.5 -73.5t83.5 -294.5v-258q0 -150 54 -208t196 -58h62v-105h-62q-142 0 -196 -58t-54 -208v-258 q0 -221 -83.5 -295t-332.5 -74h-63v105z" />
<glyph unicode="~" d="M1499 807v-148q-100 -88 -190 -130t-183 -42q-96 0 -270 66l-10 4q-11 4 -33 13q-147 57 -242 57q-92 0 -178.5 -36.5t-175.5 -113.5v152q100 87 189.5 127.5t183.5 40.5q96 0 270 -66l10 -4q11 -4 31 -12q145 -58 242 -58q92 0 180 37t176 113z" />
<glyph unicode="&#xa1;" horiz-adv-x="823" d="M279 1389q0 56 38 94.5t95 38.5q55 0 94 -39t39 -94q0 -56 -39 -95t-94 -39q-57 0 -95 39t-38 95zM283 0l67 821v252h123v-252l68 -821h-258z" />
<glyph unicode="&#xa2;" horiz-adv-x="1303" d="M629 991q-129 -15 -193.5 -130t-64.5 -329q0 -215 64.5 -330t193.5 -130v919zM1104 319q-35 -154 -129 -240.5t-246 -105.5v-270h-100v270q-220 19 -347.5 169t-127.5 390q0 242 127.5 391.5t347.5 166.5v266h100v-266q92 -8 176 -31t164 -62v-272h-106 q-19 123 -76.5 188.5t-157.5 77.5v-919q90 12 148 75.5t79 171.5h148z" />
<glyph unicode="&#xa3;" horiz-adv-x="1303" d="M1102 1225h-105q-10 95 -66.5 145.5t-152.5 50.5q-127 0 -187.5 -77.5t-60.5 -241.5v-295h412v-107h-412v-579h478v227h116v-348h-987v106h193v594h-193v107h193v295q0 205 114.5 311.5t335.5 106.5q85 0 166 -12.5t156 -37.5v-245z" />
<glyph unicode="&#xa4;" horiz-adv-x="1303" d="M901 985l209 207l94 -94l-209 -209q43 -60 63.5 -121t20.5 -127q0 -69 -20.5 -128t-65.5 -116l207 -207l-96 -94l-207 205q-56 -44 -115.5 -65t-128.5 -21q-64 0 -126.5 20.5t-123.5 61.5l-204 -205l-95 94l205 207q-41 62 -61.5 123t-20.5 125q0 70 21 129.5t65 116.5 l-207 207l95 94l207 -207q56 44 116 65t129 21q66 0 127 -20t121 -62zM922 643q0 112 -77.5 189t-191.5 77q-112 0 -190 -77t-78 -189q0 -114 77.5 -192t190.5 -78t191 78.5t78 191.5z" />
<glyph unicode="&#xa5;" horiz-adv-x="1303" d="M360 0v106h191v367h-404v105h404v65l-82 141h-322v105h263l-287 497h-139v107h553v-107h-175l343 -604l339 604h-167v107h432v-107h-142l-284 -497h272v-105h-332l-71 -122v-84h403v-105h-403v-367h190v-106h-582z" />
<glyph unicode="&#xa6;" horiz-adv-x="690" d="M426 408v-758h-162v758h162zM426 1432v-758h-162v758h162z" />
<glyph unicode="&#xa7;" horiz-adv-x="1024" d="M379 936q-68 -46 -95.5 -87.5t-27.5 -94.5q0 -132 363 -335l32 -18q58 38 87.5 86t29.5 105q0 75 -69.5 142t-319.5 202zM829 1464v-202h-92q-2 72 -54 113.5t-140 41.5q-100 0 -157.5 -48.5t-57.5 -131.5q0 -97 246 -234q26 -15 38 -22q195 -109 257.5 -184t62.5 -174 q0 -95 -52.5 -158t-166.5 -107q78 -47 114.5 -110t36.5 -154q0 -131 -102 -210t-275 -79q-90 0 -170 13.5t-157 42.5v209l92 -1q2 -80 56 -120.5t161 -40.5q104 0 164.5 49t60.5 133q0 113 -228 240q-21 12 -32 18q-216 122 -279 197t-63 174q0 94 59 160.5t168 97.5 q-82 49 -121.5 112t-39.5 142q0 130 100 209.5t266 79.5q78 0 154 -14t151 -42z" />
<glyph unicode="&#xa8;" horiz-adv-x="1024" d="M317 1569q48 0 82.5 -34.5t34.5 -82.5q0 -51 -33 -84t-84 -33q-50 0 -83 33t-33 84q0 48 34.5 82.5t81.5 34.5zM707 1569q47 0 81.5 -34.5t34.5 -82.5q0 -51 -33 -84t-83 -33q-51 0 -84 33t-33 84q0 48 34.5 82.5t82.5 34.5z" />
<glyph unicode="&#xa9;" horiz-adv-x="2048" d="M1376 573q-27 -131 -117.5 -201.5t-232.5 -70.5q-187 0 -298.5 120t-111.5 320q0 201 112.5 322t297.5 121q80 0 157.5 -18.5t164.5 -57.5v-213h-84q-17 109 -74 160t-162 51q-119 0 -179.5 -91.5t-60.5 -273.5q0 -181 60 -271.5t178 -90.5q97 0 153.5 47.5t77.5 146.5 h119zM1024 1485q152 0 283.5 -55t240.5 -164t163 -240t54 -285q0 -152 -54 -282.5t-163 -239.5t-240.5 -164t-283.5 -55t-283.5 55t-240.5 164t-163 239.5t-54 282.5q0 154 54 285t163 240t240.5 164t283.5 55zM1024 1382q-131 0 -244 -47t-207 -141q-93 -93 -140.5 -207.5 t-47.5 -245.5q0 -130 47.5 -243t140.5 -207q94 -94 207 -141.5t244 -47.5q132 0 245.5 47.5t207.5 141.5q93 93 139.5 206t46.5 244q0 133 -47 246.5t-139 206.5q-94 94 -207.5 141t-245.5 47z" />
<glyph unicode="&#xaa;" horiz-adv-x="973" d="M838 1219v-379h80v-84h-228v80q-48 -51 -110.5 -75t-149.5 -24q-141 0 -223 65t-82 177q0 114 95 178t265 64h205v45q0 84 -58 131t-163 47q-87 0 -138 -35t-65 -104h-76v157q77 29 149 43.5t138 14.5q177 0 269 -77t92 -224zM690 997v148h-188q-105 0 -159 -40t-54 -118 q0 -81 50.5 -123.5t147.5 -42.5q92 0 147.5 48.5t55.5 127.5zM166 639h698v-104h-698v104z" />
<glyph unicode="&#xab;" horiz-adv-x="1253" d="M1061 1059v-115l-297 -344l297 -344v-115l-469 418v82zM627 1059v-115l-297 -344l297 -344v-115l-469 418v82z" />
<glyph unicode="&#xac;" d="M217 862h1282v-575h-160v413h-1122v162z" />
<glyph unicode="&#xad;" horiz-adv-x="692" d="M90 627h512v-156h-512v156z" />
<glyph unicode="&#xae;" horiz-adv-x="2048" d="M895 791h125q83 0 124.5 38t41.5 113q0 74 -42 112t-124 38h-125v-301zM1141 754q42 -14 71.5 -39.5t49.5 -65.5l116 -229h76v-68h-190l-131 254q-35 70 -66 93.5t-80 23.5h-92v-303h84v-68h-317v68h83v672h-83v67h415q128 0 193 -56t65 -165q0 -83 -48 -128.5 t-146 -55.5zM1024 1382q-131 0 -244 -47t-207 -141q-93 -93 -140.5 -207.5t-47.5 -245.5q0 -130 47.5 -243t140.5 -207q94 -94 207 -141.5t244 -47.5q132 0 245.5 47.5t207.5 141.5q93 93 139.5 206t46.5 244q0 133 -47 246.5t-139 206.5q-94 94 -207.5 141t-245.5 47z M1024 1485q152 0 283.5 -55t240.5 -164t163 -240t54 -285q0 -152 -54 -282.5t-163 -239.5t-240.5 -164t-283.5 -55t-283.5 55t-240.5 164t-163 239.5t-54 282.5q0 154 54 285t163 240t240.5 164t283.5 55z" />
<glyph unicode="&#xaf;" horiz-adv-x="1024" d="M213 1526h598v-148h-598v148z" />
<glyph unicode="&#xb0;" horiz-adv-x="1024" d="M512 1382q-76 0 -128 -52.5t-52 -129.5q0 -76 51.5 -127t128.5 -51q76 0 128 51.5t52 126.5t-53 128.5t-127 53.5zM512 1520q64 0 123 -24.5t102 -70.5q46 -45 69 -102t23 -123q0 -132 -92.5 -223.5t-226.5 -91.5q-135 0 -225 90t-90 225q0 134 92 227t225 93z" />
<glyph unicode="&#xb1;" d="M938 1284v-391h561v-162h-561v-391h-160v391h-561v162h561v391h160zM217 160h1282v-160h-1282v160z" />
<glyph unicode="&#xb2;" horiz-adv-x="821" d="M170 1296h-70v158q66 32 136 49t139 17q138 0 223.5 -66t85.5 -170q0 -122 -194 -296l-19 -17l-238 -215h385v108h74v-196h-602v75l285 254q86 77 123 138t37 127q0 85 -48.5 134.5t-132.5 49.5q-78 0 -125 -38t-59 -112z" />
<glyph unicode="&#xb3;" horiz-adv-x="821" d="M125 1468q73 26 140 39t126 13q138 0 212.5 -54t74.5 -153q0 -72 -53 -122t-148 -67q119 -16 179.5 -75.5t60.5 -159.5q0 -114 -87.5 -175t-250.5 -61q-72 0 -141.5 14t-137.5 42v170l70 -1q5 -74 54 -112.5t141 -38.5q94 0 145 44t51 126q0 93 -51 140.5t-152 47.5h-53 v74h27q97 0 146.5 37t49.5 111q0 67 -40.5 103t-116.5 36q-82 0 -125.5 -32t-50.5 -97h-70v151z" />
<glyph unicode="&#xb4;" horiz-adv-x="1024" d="M651 1638h199l-340 -376h-117z" />
<glyph unicode="&#xb5;" horiz-adv-x="1331" d="M739 1063h344v-959h174v-104h-358v188q-52 -106 -125.5 -161.5t-163.5 -55.5q-57 0 -104 18t-86 54v-362h174v-107h-535v107h177v1275h-166v107h350v-619q0 -194 48 -266t169 -72q128 0 195 94t67 273v483h-160v107z" />
<glyph unicode="&#xb6;" horiz-adv-x="1303" d="M633 1493h538v-107h-118v-1583h-107v1583h-231v-1583h-107v846q-215 17 -332.5 127.5t-117.5 294.5q0 190 130 306t345 116z" />
<glyph unicode="&#xb7;" horiz-adv-x="651" d="M190 711q0 56 38.5 94.5t95.5 38.5q55 0 94 -39t39 -94q0 -56 -39 -94.5t-94 -38.5q-57 0 -95.5 38t-38.5 95z" />
<glyph unicode="&#xb8;" horiz-adv-x="1024" d="M578 0q64 -64 95.5 -120t31.5 -105q0 -81 -63 -125.5t-175 -44.5q-42 0 -86 6t-90 18v131q41 -17 80.5 -25.5t74.5 -8.5q57 0 90 26.5t33 71.5q0 28 -22 72t-66 104h97z" />
<glyph unicode="&#xb9;" horiz-adv-x="821" d="M176 668v84h172v634l-201 -106v94l240 129h102v-751h173v-84h-486z" />
<glyph unicode="&#xba;" horiz-adv-x="963" d="M481 813q106 0 159.5 79.5t53.5 235.5t-54 236t-159 80q-104 0 -158.5 -81t-54.5 -235q0 -155 54 -235t159 -80zM481 737q-175 0 -281 107.5t-106 283.5q0 177 106 284.5t281 107.5t281 -107.5t106 -284.5t-105.5 -284t-281.5 -107zM137 639h688v-104h-688v104z" />
<glyph unicode="&#xbb;" horiz-adv-x="1253" d="M627 1059l469 -418v-82l-469 -418v115l297 344l-297 344v115zM193 1059l469 -418v-82l-469 -418v115l296 344l-296 344v115z" />
<glyph unicode="&#xbc;" horiz-adv-x="1985" d="M1614 303v407l-308 -407h308zM1902 0h-434v84h146v137h-398v84l400 530h141v-532h164v-82h-164v-137h145v-84zM176 668v84h172v634l-201 -106v94l240 129h102v-751h173v-84h-486zM1388 1520h150l-942 -1549h-150z" />
<glyph unicode="&#xbd;" horiz-adv-x="1985" d="M176 668v84h172v634l-201 -106v94l240 129h102v-751h173v-84h-486zM1388 1520h150l-942 -1549h-150zM1333 628h-70v158q66 32 136 49t139 17q138 0 223.5 -66t85.5 -170q0 -122 -194 -296l-19 -17l-238 -215h385v108h74v-196h-602v75l285 254q86 77 123 138t37 127 q0 85 -48.5 134.5t-132.5 49.5q-78 0 -125 -38t-59 -112z" />
<glyph unicode="&#xbe;" horiz-adv-x="1985" d="M1614 303v407l-308 -407h308zM1902 0h-434v84h146v137h-398v84l400 530h141v-532h164v-82h-164v-137h145v-84zM125 1468q73 26 140 39t126 13q138 0 212.5 -54t74.5 -153q0 -72 -53 -122t-148 -67q119 -16 179.5 -75.5t60.5 -159.5q0 -114 -87.5 -175t-250.5 -61 q-72 0 -141.5 14t-137.5 42v170l70 -1q5 -74 54 -112.5t141 -38.5q94 0 145 44t51 126q0 93 -51 140.5t-152 47.5h-53v74h27q97 0 146.5 37t49.5 111q0 67 -40.5 103t-116.5 36q-82 0 -125.5 -32t-50.5 -97h-70v151zM1388 1520h150l-942 -1549h-150z" />
<glyph unicode="&#xbf;" horiz-adv-x="1098" d="M778 1389q0 -56 -38.5 -95t-94.5 -39q-55 0 -94 39t-39 95q0 55 39 94t94 39q57 0 95 -38.5t38 -94.5zM999 66q-106 -47 -201 -70t-180 -23q-221 0 -350 107t-129 289q0 186 111 304t334 169v254h123v-328q-177 -43 -267 -144t-90 -257q0 -137 73.5 -216t199.5 -79 q113 0 186 65.5t94 188.5h96v-260z" />
<glyph unicode="&#xc0;" horiz-adv-x="1479" d="M410 541h548l-274 710zM-12 0v106h131l532 1387h168l533 -1387h147v-106h-543v106h166l-125 328h-628l-125 -328h164v-106h-420zM669 1899l183 -264h-117l-262 264h196z" />
<glyph unicode="&#xc1;" horiz-adv-x="1479" d="M410 541h548l-274 710zM-12 0v106h131l532 1387h168l533 -1387h147v-106h-543v106h166l-125 328h-628l-125 -328h164v-106h-420zM802 1899h197l-262 -264h-117z" />
<glyph unicode="&#xc2;" horiz-adv-x="1479" d="M410 541h548l-274 710zM-12 0v106h131l532 1387h168l533 -1387h147v-106h-543v106h166l-125 328h-628l-125 -328h164v-106h-420zM651 1899h176l231 -264h-116l-203 161l-203 -161h-116z" />
<glyph unicode="&#xc3;" horiz-adv-x="1479" d="M410 541h548l-274 710zM-12 0v106h131l532 1387h168l533 -1387h147v-106h-543v106h166l-125 328h-628l-125 -328h164v-106h-420zM726 1715l-48 28q-20 13 -40.5 20t-37.5 7q-39 0 -65 -28.5t-30 -74.5l-96 1q2 100 53 159t136 59q36 0 67 -9t86 -40l49 -26q23 -13 45 -20 t39 -7q41 0 64.5 27.5t23.5 74.5h97q-2 -105 -53.5 -162t-145.5 -57q-67 0 -139 45z" />
<glyph unicode="&#xc4;" horiz-adv-x="1479" d="M410 541h548l-274 710zM-12 0v106h131l532 1387h168l533 -1387h147v-106h-543v106h166l-125 328h-628l-125 -328h164v-106h-420zM544 1884q48 0 82.5 -35t34.5 -81q0 -50 -33.5 -83.5t-83.5 -33.5q-49 0 -82.5 33.5t-33.5 83.5q0 46 34.5 81t81.5 35zM934 1884 q47 0 81.5 -35t34.5 -81q0 -50 -33.5 -83.5t-82.5 -33.5q-50 0 -83.5 33.5t-33.5 83.5q0 46 34.5 81t82.5 35z" />
<glyph unicode="&#xc5;" horiz-adv-x="1479" d="M887 1626q0 63 -44.5 107.5t-107.5 44.5q-64 0 -107.5 -43.5t-43.5 -108.5q0 -63 43.5 -107t107.5 -44q63 0 107.5 44t44.5 107zM410 541h546l-272 710zM-12 0v106h131l489 1278q-72 37 -109.5 98t-37.5 144q0 114 80 194.5t194 80.5t194.5 -80.5t80.5 -194.5 q0 -80 -39 -143.5t-111 -98.5l492 -1278h147v-106h-543v106h166l-125 328h-628l-125 -328h164v-106h-420z" />
<glyph unicode="&#xc6;" horiz-adv-x="2050" d="M426 541h489v845h-100zM725 0v106h190v328h-538l-152 -328h164v-106h-424v106h131l590 1280h-215v107h1456v-332h-123v209h-688v-500h492v187h123v-496h-123v187h-492v-625h705v209h123v-332h-1219z" />
<glyph unicode="&#xc7;" horiz-adv-x="1567" d="M1444 395q-66 -209 -221.5 -316.5t-393.5 -107.5q-146 0 -271 50t-222 147q-112 112 -166.5 254.5t-54.5 322.5q0 348 201 561.5t530 213.5q122 0 260 -32t297 -97v-344h-113q-37 188 -148.5 277t-312.5 89q-239 0 -362 -169.5t-123 -498.5q0 -328 123 -497.5t362 -169.5 q167 0 275 79.5t156 237.5h184zM910 0q64 -64 95.5 -120t31.5 -105q0 -81 -63 -125.5t-175 -44.5q-42 0 -86 6t-90 18v131q41 -17 80.5 -25.5t74.5 -8.5q57 0 90 26.5t33 71.5q0 28 -22 72t-66 104h97z" />
<glyph unicode="&#xc8;" horiz-adv-x="1495" d="M113 0v106h190v1280h-190v107h1202v-332h-123v209h-686v-500h489v187h123v-496h-123v187h-489v-625h702v209h123v-332h-1218zM678 1899l183 -264h-117l-262 264h196z" />
<glyph unicode="&#xc9;" horiz-adv-x="1495" d="M113 0v106h190v1280h-190v107h1202v-332h-123v209h-686v-500h489v187h123v-496h-123v187h-489v-625h702v209h123v-332h-1218zM811 1899h197l-262 -264h-117z" />
<glyph unicode="&#xca;" horiz-adv-x="1495" d="M113 0v106h190v1280h-190v107h1202v-332h-123v209h-686v-500h489v187h123v-496h-123v187h-489v-625h702v209h123v-332h-1218zM660 1899h176l231 -264h-116l-203 161l-203 -161h-116z" />
<glyph unicode="&#xcb;" horiz-adv-x="1495" d="M113 0v106h190v1280h-190v107h1202v-332h-123v209h-686v-500h489v187h123v-496h-123v187h-489v-625h702v209h123v-332h-1218zM553 1884q48 0 82.5 -35t34.5 -81q0 -50 -33.5 -83.5t-83.5 -33.5q-49 0 -82.5 33.5t-33.5 83.5q0 46 34.5 81t81.5 35zM943 1884 q47 0 81.5 -35t34.5 -81q0 -50 -33.5 -83.5t-82.5 -33.5q-50 0 -83.5 33.5t-33.5 83.5q0 46 34.5 81t82.5 35z" />
<glyph unicode="&#xcc;" horiz-adv-x="809" d="M506 106h190v-106h-583v106h190v1280h-190v107h583v-107h-190v-1280zM336 1899l183 -264h-117l-262 264h196z" />
<glyph unicode="&#xcd;" horiz-adv-x="809" d="M506 106h190v-106h-583v106h190v1280h-190v107h583v-107h-190v-1280zM469 1899h197l-262 -264h-117z" />
<glyph unicode="&#xce;" horiz-adv-x="809" d="M506 106h190v-106h-583v106h190v1280h-190v107h583v-107h-190v-1280zM318 1899h176l231 -264h-116l-203 161l-203 -161h-116z" />
<glyph unicode="&#xcf;" horiz-adv-x="809" d="M506 106h190v-106h-583v106h190v1280h-190v107h583v-107h-190v-1280zM211 1884q48 0 82.5 -35t34.5 -81q0 -50 -33.5 -83.5t-83.5 -33.5q-49 0 -82.5 33.5t-33.5 83.5q0 46 34.5 81t81.5 35zM601 1884q47 0 81.5 -35t34.5 -81q0 -50 -33.5 -83.5t-82.5 -33.5 q-50 0 -83.5 33.5t-33.5 83.5q0 46 34.5 81t82.5 35z" />
<glyph unicode="&#xd0;" horiz-adv-x="1653" d="M514 106h188q291 0 447 166t156 476t-155.5 474t-447.5 164h-188v-542h336v-125h-336v-613zM123 0v106h190v613h-200v125h200v542h-190v107h594q386 0 601.5 -197t215.5 -548q0 -352 -216 -550t-601 -198h-594z" />
<glyph unicode="&#xd1;" horiz-adv-x="1792" d="M100 0v106h201v1280h-201v107h383l895 -1178v1071h-200v107h524v-107h-201v-1415h-121l-956 1258v-1123h201v-106h-525zM884 1715l-48 28q-20 13 -40.5 20t-37.5 7q-39 0 -65 -28.5t-30 -74.5l-96 1q2 100 53 159t136 59q36 0 67 -9t86 -40l49 -26q23 -13 45 -20t39 -7 q41 0 64.5 27.5t23.5 74.5h97q-2 -105 -53.5 -162t-145.5 -57q-67 0 -139 45z" />
<glyph unicode="&#xd2;" horiz-adv-x="1679" d="M840 78q245 0 370 168.5t125 498.5q0 331 -125 499.5t-370 168.5q-246 0 -371 -168.5t-125 -499.5q0 -330 125 -498.5t371 -168.5zM840 -29q-152 0 -279.5 50t-224.5 147q-112 112 -166.5 254t-54.5 323t54.5 323.5t166.5 254.5q98 98 224 147.5t280 49.5q325 0 525 -213 t200 -562q0 -179 -55 -322.5t-167 -254.5q-98 -98 -224 -147.5t-279 -49.5zM770 1899l183 -264h-117l-262 264h196z" />
<glyph unicode="&#xd3;" horiz-adv-x="1679" d="M840 78q245 0 370 168.5t125 498.5q0 331 -125 499.5t-370 168.5q-246 0 -371 -168.5t-125 -499.5q0 -330 125 -498.5t371 -168.5zM840 -29q-152 0 -279.5 50t-224.5 147q-112 112 -166.5 254t-54.5 323t54.5 323.5t166.5 254.5q98 98 224 147.5t280 49.5q325 0 525 -213 t200 -562q0 -179 -55 -322.5t-167 -254.5q-98 -98 -224 -147.5t-279 -49.5zM903 1899h197l-262 -264h-117z" />
<glyph unicode="&#xd4;" horiz-adv-x="1679" d="M840 78q245 0 370 168.5t125 498.5q0 331 -125 499.5t-370 168.5q-246 0 -371 -168.5t-125 -499.5q0 -330 125 -498.5t371 -168.5zM840 -29q-152 0 -279.5 50t-224.5 147q-112 112 -166.5 254t-54.5 323t54.5 323.5t166.5 254.5q98 98 224 147.5t280 49.5q325 0 525 -213 t200 -562q0 -179 -55 -322.5t-167 -254.5q-98 -98 -224 -147.5t-279 -49.5zM752 1899h176l231 -264h-116l-203 161l-203 -161h-116z" />
<glyph unicode="&#xd5;" horiz-adv-x="1679" d="M840 78q245 0 370 168.5t125 498.5q0 331 -125 499.5t-370 168.5q-246 0 -371 -168.5t-125 -499.5q0 -330 125 -498.5t371 -168.5zM840 -29q-152 0 -279.5 50t-224.5 147q-112 112 -166.5 254t-54.5 323t54.5 323.5t166.5 254.5q98 98 224 147.5t280 49.5q325 0 525 -213 t200 -562q0 -179 -55 -322.5t-167 -254.5q-98 -98 -224 -147.5t-279 -49.5zM827 1715l-48 28q-20 13 -40.5 20t-37.5 7q-39 0 -65 -28.5t-30 -74.5l-96 1q2 100 53 159t136 59q36 0 67 -9t86 -40l49 -26q23 -13 45 -20t39 -7q41 0 64.5 27.5t23.5 74.5h97 q-2 -105 -53.5 -162t-145.5 -57q-67 0 -139 45z" />
<glyph unicode="&#xd6;" horiz-adv-x="1679" d="M840 78q245 0 370 168.5t125 498.5q0 331 -125 499.5t-370 168.5q-246 0 -371 -168.5t-125 -499.5q0 -330 125 -498.5t371 -168.5zM840 -29q-152 0 -279.5 50t-224.5 147q-112 112 -166.5 254t-54.5 323t54.5 323.5t166.5 254.5q98 98 224 147.5t280 49.5q325 0 525 -213 t200 -562q0 -179 -55 -322.5t-167 -254.5q-98 -98 -224 -147.5t-279 -49.5zM645 1884q48 0 82.5 -35t34.5 -81q0 -50 -33.5 -83.5t-83.5 -33.5q-49 0 -82.5 33.5t-33.5 83.5q0 46 34.5 81t81.5 35zM1035 1884q47 0 81.5 -35t34.5 -81q0 -50 -33.5 -83.5t-82.5 -33.5 q-50 0 -83.5 33.5t-33.5 83.5q0 46 34.5 81t82.5 35z" />
<glyph unicode="&#xd7;" d="M1434 1104l-463 -463l463 -461l-115 -112l-461 460l-461 -460l-114 112l460 461l-460 463l114 113l461 -461l461 461z" />
<glyph unicode="&#xd8;" horiz-adv-x="1679" d="M1214 1239q-65 88 -157.5 131t-216.5 43q-246 0 -371 -168.5t-125 -499.5q0 -119 16 -215.5t50 -177.5zM463 256q64 -89 158 -133.5t219 -44.5q245 0 370 168.5t125 498.5q0 117 -16.5 215.5t-50.5 180.5zM1391 1276q87 -108 130.5 -239.5t43.5 -291.5 q0 -345 -200.5 -559.5t-524.5 -214.5q-141 0 -260 43t-220 129l-182 -200l-78 69l187 207q-87 105 -129.5 235.5t-42.5 290.5q0 346 201 560.5t524 214.5q141 0 261 -42.5t216 -125.5l178 198l80 -71z" />
<glyph unicode="&#xd9;" horiz-adv-x="1726" d="M287 1386h-191v107h584v-107h-191v-772q0 -286 93.5 -399t322.5 -113t322.5 113t93.5 399v772h-191v107h504v-107h-190v-792q0 -341 -131 -482t-445 -141t-447.5 142t-133.5 481v792zM833 1899l183 -264h-117l-262 264h196z" />
<glyph unicode="&#xda;" horiz-adv-x="1726" d="M287 1386h-191v107h584v-107h-191v-772q0 -286 93.5 -399t322.5 -113t322.5 113t93.5 399v772h-191v107h504v-107h-190v-792q0 -341 -131 -482t-445 -141t-447.5 142t-133.5 481v792zM966 1899h197l-262 -264h-117z" />
<glyph unicode="&#xdb;" horiz-adv-x="1726" d="M287 1386h-191v107h584v-107h-191v-772q0 -286 93.5 -399t322.5 -113t322.5 113t93.5 399v772h-191v107h504v-107h-190v-792q0 -341 -131 -482t-445 -141t-447.5 142t-133.5 481v792zM815 1899h176l231 -264h-116l-203 161l-203 -161h-116z" />
<glyph unicode="&#xdc;" horiz-adv-x="1726" d="M287 1386h-191v107h584v-107h-191v-772q0 -286 93.5 -399t322.5 -113t322.5 113t93.5 399v772h-191v107h504v-107h-190v-792q0 -341 -131 -482t-445 -141t-447.5 142t-133.5 481v792zM708 1884q48 0 82.5 -35t34.5 -81q0 -50 -33.5 -83.5t-83.5 -33.5q-49 0 -82.5 33.5 t-33.5 83.5q0 46 34.5 81t81.5 35zM1098 1884q47 0 81.5 -35t34.5 -81q0 -50 -33.5 -83.5t-82.5 -33.5q-50 0 -83.5 33.5t-33.5 83.5q0 46 34.5 81t82.5 35z" />
<glyph unicode="&#xdd;" horiz-adv-x="1352" d="M387 0v106h191v537l-461 743h-140v107h555v-107h-174l373 -604l373 604h-168v107h434v-107h-141l-449 -724v-556h191v-106h-584zM739 1899h197l-262 -264h-117z" />
<glyph unicode="&#xde;" horiz-adv-x="1384" d="M506 434h264q149 0 227 80.5t78 233.5q0 152 -78 232.5t-227 80.5h-264v-627zM113 0v106h190v1280h-190v107h624v-107h-231v-219h313q224 0 355 -113.5t131 -305.5q0 -194 -131.5 -308t-354.5 -114h-313v-220h231v-106h-624z" />
<glyph unicode="&#xdf;" horiz-adv-x="1368" d="M940 1210q-8 119 -77.5 183.5t-188.5 64.5q-132 0 -193 -64.5t-61 -203.5v-1190h-361v106h177v1080q0 176 114.5 273t323.5 97q213 0 324.5 -104t123.5 -315h-22q-145 0 -228.5 -54t-83.5 -147q0 -52 27 -90.5t100 -85.5l89 -55q155 -99 214.5 -184t59.5 -199 q0 -155 -115.5 -253t-300.5 -98q-85 0 -169 18.5t-163 53.5v233h109q4 -101 59.5 -153.5t157.5 -52.5q111 0 174.5 60.5t63.5 164.5q0 84 -40 142.5t-157 131.5l-86 54q-104 65 -148.5 129.5t-44.5 146.5q0 122 84.5 204t237.5 107z" />
<glyph unicode="&#xe0;" horiz-adv-x="1221" d="M815 334v225h-237q-137 0 -204 -59t-67 -181q0 -111 68 -176t184 -65q115 0 185.5 71t70.5 185zM999 664v-558h164v-106h-348v115q-61 -74 -141 -109t-187 -35q-177 0 -281 94t-104 254q0 165 119 256t336 91h258v73q0 121 -73.5 187.5t-206.5 66.5q-110 0 -175 -50 t-81 -148h-95v215q96 41 186.5 61.5t176.5 20.5q221 0 336.5 -109.5t115.5 -318.5zM424 1636l260 -376h-117l-340 376h197z" />
<glyph unicode="&#xe1;" horiz-adv-x="1221" d="M815 334v225h-237q-137 0 -204 -59t-67 -181q0 -111 68 -176t184 -65q115 0 185.5 71t70.5 185zM999 664v-558h164v-106h-348v115q-61 -74 -141 -109t-187 -35q-177 0 -281 94t-104 254q0 165 119 256t336 91h258v73q0 121 -73.5 187.5t-206.5 66.5q-110 0 -175 -50 t-81 -148h-95v215q96 41 186.5 61.5t176.5 20.5q221 0 336.5 -109.5t115.5 -318.5zM708 1638h199l-340 -376h-117z" />
<glyph unicode="&#xe2;" horiz-adv-x="1221" d="M815 334v225h-237q-137 0 -204 -59t-67 -181q0 -111 68 -176t184 -65q115 0 185.5 71t70.5 185zM999 664v-558h164v-106h-348v115q-61 -74 -141 -109t-187 -35q-177 0 -281 94t-104 254q0 165 119 256t336 91h258v73q0 121 -73.5 187.5t-206.5 66.5q-110 0 -175 -50 t-81 -148h-95v215q96 41 186.5 61.5t176.5 20.5q221 0 336.5 -109.5t115.5 -318.5zM485 1638h168l235 -376h-116l-203 260l-203 -260h-116z" />
<glyph unicode="&#xe3;" horiz-adv-x="1221" d="M815 334v225h-237q-137 0 -204 -59t-67 -181q0 -111 68 -176t184 -65q115 0 185.5 71t70.5 185zM999 664v-558h164v-106h-348v115q-61 -74 -141 -109t-187 -35q-177 0 -281 94t-104 254q0 165 119 256t336 91h258v73q0 121 -73.5 187.5t-206.5 66.5q-110 0 -175 -50 t-81 -148h-95v215q96 41 186.5 61.5t176.5 20.5q221 0 336.5 -109.5t115.5 -318.5zM565 1370l-57 55q-26 24 -42.5 31.5t-35.5 7.5q-42 0 -66 -39.5t-29 -115.5h-96q2 135 53 208.5t142 73.5q38 0 70 -14t69 -47l57 -55q23 -23 40 -31t38 -8q43 0 67 40t28 115h96 q-2 -135 -53 -208.5t-142 -73.5q-38 0 -70 14t-69 47z" />
<glyph unicode="&#xe4;" horiz-adv-x="1221" d="M815 334v225h-237q-137 0 -204 -59t-67 -181q0 -111 68 -176t184 -65q115 0 185.5 71t70.5 185zM999 664v-558h164v-106h-348v115q-61 -74 -141 -109t-187 -35q-177 0 -281 94t-104 254q0 165 119 256t336 91h258v73q0 121 -73.5 187.5t-206.5 66.5q-110 0 -175 -50 t-81 -148h-95v215q96 41 186.5 61.5t176.5 20.5q221 0 336.5 -109.5t115.5 -318.5zM374 1569q48 0 82.5 -34.5t34.5 -82.5q0 -51 -33 -84t-84 -33q-50 0 -83 33t-33 84q0 48 34.5 82.5t81.5 34.5zM764 1569q47 0 81.5 -34.5t34.5 -82.5q0 -51 -33 -84t-83 -33q-51 0 -84 33 t-33 84q0 48 34.5 82.5t82.5 34.5z" />
<glyph unicode="&#xe5;" horiz-adv-x="1221" d="M815 334v225h-237q-137 0 -204 -59t-67 -181q0 -111 68 -176t184 -65q115 0 185.5 71t70.5 185zM999 664v-558h164v-106h-348v115q-61 -74 -141 -109t-187 -35q-177 0 -281 94t-104 254q0 165 119 256t336 91h258v73q0 121 -73.5 187.5t-206.5 66.5q-110 0 -175 -50 t-81 -148h-95v215q96 41 186.5 61.5t176.5 20.5q221 0 336.5 -109.5t115.5 -318.5zM843 1524q0 -115 -79.5 -195t-194.5 -80t-194.5 80t-79.5 195t79.5 194.5t194.5 79.5t194.5 -79.5t79.5 -194.5zM721 1524q0 63 -44 107t-108 44q-65 0 -108.5 -43.5t-43.5 -107.5 q0 -65 43.5 -108.5t108.5 -43.5q64 0 108 44t44 108z" />
<glyph unicode="&#xe6;" horiz-adv-x="1925" d="M815 334v225h-237q-137 0 -204 -59t-67 -181q0 -111 68 -176t184 -65q115 0 185.5 71t70.5 185zM924 150q-83 -91 -184 -135t-226 -44q-197 0 -304.5 91t-107.5 257q0 165 119.5 256t335.5 91h258v73q0 120 -72 187t-200 67q-116 0 -182 -49.5t-82 -148.5h-95v215 q96 41 186.5 61.5t176.5 20.5q141 0 237.5 -43.5t151.5 -133.5q74 88 170 132.5t213 44.5q241 0 370 -149t133 -431h-792v-8q0 -215 80.5 -324.5t239.5 -109.5q121 0 198.5 63.5t108.5 188.5h147q-43 -175 -162 -263t-311 -88q-122 0 -225.5 45.5t-181.5 133.5zM1606 618 q-6 186 -78.5 280.5t-208.5 94.5q-127 0 -200.5 -95t-88.5 -280h576z" />
<glyph unicode="&#xe7;" horiz-adv-x="1147" d="M1053 319q-39 -170 -150 -259t-287 -89q-232 0 -373 153.5t-141 407.5q0 255 141 407.5t373 152.5q101 0 201 -23.5t201 -71.5v-272h-107q-21 140 -91.5 204t-201.5 64q-149 0 -225 -115.5t-76 -345.5t75.5 -346t225.5 -116q119 0 190 62t97 187h148zM678 0 q64 -64 95.5 -120t31.5 -105q0 -81 -63 -125.5t-175 -44.5q-42 0 -86 6t-90 18v131q41 -17 80.5 -25.5t74.5 -8.5q57 0 90 26.5t33 71.5q0 28 -22 72t-66 104h97z" />
<glyph unicode="&#xe8;" horiz-adv-x="1212" d="M1110 512h-793v-8q0 -215 81 -324.5t239 -109.5q121 0 198.5 63.5t108.5 188.5h148q-44 -175 -162.5 -263t-311.5 -88q-233 0 -374.5 153.5t-141.5 407.5q0 252 139 406t365 154q241 0 370 -148.5t134 -431.5zM893 618q-6 186 -78.5 280.5t-208.5 94.5q-127 0 -200 -95 t-89 -280h576zM461 1636l260 -376h-117l-340 376h197z" />
<glyph unicode="&#xe9;" horiz-adv-x="1212" d="M1110 512h-793v-8q0 -215 81 -324.5t239 -109.5q121 0 198.5 63.5t108.5 188.5h148q-44 -175 -162.5 -263t-311.5 -88q-233 0 -374.5 153.5t-141.5 407.5q0 252 139 406t365 154q241 0 370 -148.5t134 -431.5zM893 618q-6 186 -78.5 280.5t-208.5 94.5q-127 0 -200 -95 t-89 -280h576zM745 1638h199l-340 -376h-117z" />
<glyph unicode="&#xea;" horiz-adv-x="1212" d="M1110 512h-793v-8q0 -215 81 -324.5t239 -109.5q121 0 198.5 63.5t108.5 188.5h148q-44 -175 -162.5 -263t-311.5 -88q-233 0 -374.5 153.5t-141.5 407.5q0 252 139 406t365 154q241 0 370 -148.5t134 -431.5zM893 618q-6 186 -78.5 280.5t-208.5 94.5q-127 0 -200 -95 t-89 -280h576zM522 1638h168l235 -376h-116l-203 260l-203 -260h-116z" />
<glyph unicode="&#xeb;" horiz-adv-x="1212" d="M1110 512h-793v-8q0 -215 81 -324.5t239 -109.5q121 0 198.5 63.5t108.5 188.5h148q-44 -175 -162.5 -263t-311.5 -88q-233 0 -374.5 153.5t-141.5 407.5q0 252 139 406t365 154q241 0 370 -148.5t134 -431.5zM893 618q-6 186 -78.5 280.5t-208.5 94.5q-127 0 -200 -95 t-89 -280h576zM411 1569q48 0 82.5 -34.5t34.5 -82.5q0 -51 -33 -84t-84 -33q-50 0 -83 33t-33 84q0 48 34.5 82.5t81.5 34.5zM801 1569q47 0 81.5 -34.5t34.5 -82.5q0 -51 -33 -84t-83 -33q-51 0 -84 33t-33 84q0 48 34.5 82.5t82.5 34.5z" />
<glyph unicode="&#xec;" horiz-adv-x="655" d="M434 106h174v-106h-534v106h176v850h-176v107h360v-957zM183 1636l260 -376h-117l-340 376h197z" />
<glyph unicode="&#xed;" horiz-adv-x="655" d="M434 106h174v-106h-534v106h176v850h-176v107h360v-957zM467 1638h199l-340 -376h-117z" />
<glyph unicode="&#xee;" horiz-adv-x="655" d="M434 106h174v-106h-534v106h176v850h-176v107h360v-957zM244 1638h168l235 -376h-116l-203 260l-203 -260h-116z" />
<glyph unicode="&#xef;" horiz-adv-x="655" d="M434 106h174v-106h-534v106h176v850h-176v107h360v-957zM133 1569q48 0 82.5 -34.5t34.5 -82.5q0 -51 -33 -84t-84 -33q-50 0 -83 33t-33 84q0 48 34.5 82.5t81.5 34.5zM523 1569q47 0 81.5 -34.5t34.5 -82.5q0 -51 -33 -84t-83 -33q-51 0 -84 33t-33 84q0 48 34.5 82.5 t82.5 34.5z" />
<glyph unicode="&#xf0;" horiz-adv-x="1233" d="M821 928q-45 9 -85.5 13.5t-80.5 4.5q-173 0 -255.5 -107t-82.5 -331q0 -210 78.5 -324t220.5 -114q144 0 221.5 114.5t77.5 327.5q0 112 -23.5 217.5t-70.5 198.5zM760 1307q183 -167 276.5 -362.5t93.5 -412.5q0 -254 -140.5 -407.5t-373.5 -153.5q-229 0 -371.5 151.5 t-142.5 395.5q0 236 141 381t369 145q35 0 72.5 -3t89.5 -11q-22 53 -58.5 106.5t-86.5 108.5l-322 -149l-37 78l293 135q-61 58 -139.5 98.5t-173.5 62.5l18 86q119 -26 223.5 -73t196.5 -115l322 150l37 -78z" />
<glyph unicode="&#xf1;" horiz-adv-x="1319" d="M84 0v106h166v850h-176v107h360v-189q51 108 132.5 163t189.5 55q176 0 259 -101t83 -315v-570h164v-106h-508v106h159v512q0 195 -48 267.5t-169 72.5q-128 0 -195 -93.5t-67 -272.5v-486h160v-106h-510zM655 1370l-57 55q-26 24 -42.5 31.5t-35.5 7.5q-42 0 -66 -39.5 t-29 -115.5h-96q2 135 53 208.5t142 73.5q38 0 70 -14t69 -47l57 -55q23 -23 40 -31t38 -8q43 0 67 40t28 115h96q-2 -135 -53 -208.5t-142 -73.5q-38 0 -70 14t-69 47z" />
<glyph unicode="&#xf2;" horiz-adv-x="1233" d="M616 70q148 0 223.5 117t75.5 345t-75.5 344.5t-223.5 116.5t-223.5 -116.5t-75.5 -344.5t76 -345t223 -117zM616 -29q-232 0 -373 153.5t-141 407.5t140.5 407t373.5 153t373.5 -153t140.5 -407t-140.5 -407.5t-373.5 -153.5zM471 1636l260 -376h-117l-340 376h197z" />
<glyph unicode="&#xf3;" horiz-adv-x="1233" d="M616 70q148 0 223.5 117t75.5 345t-75.5 344.5t-223.5 116.5t-223.5 -116.5t-75.5 -344.5t76 -345t223 -117zM616 -29q-232 0 -373 153.5t-141 407.5t140.5 407t373.5 153t373.5 -153t140.5 -407t-140.5 -407.5t-373.5 -153.5zM755 1638h199l-340 -376h-117z" />
<glyph unicode="&#xf4;" horiz-adv-x="1233" d="M616 70q148 0 223.5 117t75.5 345t-75.5 344.5t-223.5 116.5t-223.5 -116.5t-75.5 -344.5t76 -345t223 -117zM616 -29q-232 0 -373 153.5t-141 407.5t140.5 407t373.5 153t373.5 -153t140.5 -407t-140.5 -407.5t-373.5 -153.5zM532 1638h168l235 -376h-116l-203 260 l-203 -260h-116z" />
<glyph unicode="&#xf5;" horiz-adv-x="1233" d="M616 70q148 0 223.5 117t75.5 345t-75.5 344.5t-223.5 116.5t-223.5 -116.5t-75.5 -344.5t76 -345t223 -117zM616 -29q-232 0 -373 153.5t-141 407.5t140.5 407t373.5 153t373.5 -153t140.5 -407t-140.5 -407.5t-373.5 -153.5zM612 1370l-57 55q-26 24 -42.5 31.5 t-35.5 7.5q-42 0 -66 -39.5t-29 -115.5h-96q2 135 53 208.5t142 73.5q38 0 70 -14t69 -47l57 -55q23 -23 40 -31t38 -8q43 0 67 40t28 115h96q-2 -135 -53 -208.5t-142 -73.5q-38 0 -70 14t-69 47z" />
<glyph unicode="&#xf6;" horiz-adv-x="1233" d="M616 70q148 0 223.5 117t75.5 345t-75.5 344.5t-223.5 116.5t-223.5 -116.5t-75.5 -344.5t76 -345t223 -117zM616 -29q-232 0 -373 153.5t-141 407.5t140.5 407t373.5 153t373.5 -153t140.5 -407t-140.5 -407.5t-373.5 -153.5zM421 1569q48 0 82.5 -34.5t34.5 -82.5 q0 -51 -33 -84t-84 -33q-50 0 -83 33t-33 84q0 48 34.5 82.5t81.5 34.5zM811 1569q47 0 81.5 -34.5t34.5 -82.5q0 -51 -33 -84t-83 -33q-51 0 -84 33t-33 84q0 48 34.5 82.5t82.5 34.5z" />
<glyph unicode="&#xf7;" d="M725 1012q0 56 38.5 94.5t94.5 38.5q55 0 94 -39t39 -94q0 -56 -39 -94.5t-94 -38.5q-57 0 -95 38t-38 95zM725 272q0 56 38.5 95t94.5 39q55 0 94 -39t39 -95q0 -55 -39 -94t-94 -39q-57 0 -95 38.5t-38 94.5zM217 723h1282v-162h-1282v162z" />
<glyph unicode="&#xf8;" horiz-adv-x="1233" d="M840 879q-38 57 -94 85.5t-130 28.5q-147 0 -223 -117t-76 -344q0 -72 7.5 -131t21.5 -108zM391 190q40 -61 95.5 -90.5t129.5 -29.5q147 0 223 117.5t76 344.5q0 76 -7.5 136.5t-22.5 111.5zM1004 922q62 -74 94 -173t32 -217q0 -254 -140.5 -407.5t-373.5 -153.5 q-94 0 -174 26.5t-147 80.5l-143 -172l-76 63l149 178q-61 77 -92 173.5t-31 211.5q0 254 140.5 407t373.5 153q94 0 174 -25.5t144 -75.5l139 166l76 -63z" />
<glyph unicode="&#xf9;" horiz-adv-x="1319" d="M725 1063h344v-957h174v-106h-358v188q-51 -106 -132 -161.5t-188 -55.5q-177 0 -260.5 100.5t-83.5 315.5v569h-166v107h351v-619q0 -194 47.5 -266t169.5 -72q128 0 195 94t67 273v483h-160v107zM439 1636l260 -376h-117l-340 376h197z" />
<glyph unicode="&#xfa;" horiz-adv-x="1319" d="M725 1063h344v-957h174v-106h-358v188q-51 -106 -132 -161.5t-188 -55.5q-177 0 -260.5 100.5t-83.5 315.5v569h-166v107h351v-619q0 -194 47.5 -266t169.5 -72q128 0 195 94t67 273v483h-160v107zM723 1638h199l-340 -376h-117z" />
<glyph unicode="&#xfb;" horiz-adv-x="1319" d="M725 1063h344v-957h174v-106h-358v188q-51 -106 -132 -161.5t-188 -55.5q-177 0 -260.5 100.5t-83.5 315.5v569h-166v107h351v-619q0 -194 47.5 -266t169.5 -72q128 0 195 94t67 273v483h-160v107zM500 1638h168l235 -376h-116l-203 260l-203 -260h-116z" />
<glyph unicode="&#xfc;" horiz-adv-x="1319" d="M725 1063h344v-957h174v-106h-358v188q-51 -106 -132 -161.5t-188 -55.5q-177 0 -260.5 100.5t-83.5 315.5v569h-166v107h351v-619q0 -194 47.5 -266t169.5 -72q128 0 195 94t67 273v483h-160v107zM389 1569q48 0 82.5 -34.5t34.5 -82.5q0 -51 -33 -84t-84 -33 q-50 0 -83 33t-33 84q0 48 34.5 82.5t81.5 34.5zM779 1569q47 0 81.5 -34.5t34.5 -82.5q0 -51 -33 -84t-83 -33q-51 0 -84 33t-33 84q0 48 34.5 82.5t82.5 34.5z" />
<glyph unicode="&#xfd;" horiz-adv-x="1157" d="M442 -195l70 177l-397 974h-121v107h489v-107h-170l299 -731l299 731h-159v107h399v-107h-119l-487 -1196q-50 -124 -111 -169.5t-172 -45.5q-47 0 -96.5 8t-99.5 23v203h94q6 -68 34.5 -97.5t88.5 -29.5q55 0 88.5 30.5t70.5 122.5zM719 1638h199l-340 -376h-117z" />
<glyph unicode="&#xfe;" horiz-adv-x="1311" d="M420 584v-105q0 -192 73.5 -292.5t213.5 -100.5q141 0 213.5 113t72.5 333q0 221 -72.5 333t-213.5 112q-140 0 -213.5 -101t-73.5 -292zM236 1450h-177v106h361v-659q54 100 137.5 147.5t206.5 47.5q196 0 320 -155t124 -405t-124 -405.5t-320 -155.5 q-123 0 -206.5 47.5t-137.5 147.5v-485h174v-107h-535v107h177v1769z" />
<glyph unicode="&#xff;" horiz-adv-x="1157" d="M442 -195l70 177l-397 974h-121v107h489v-107h-170l299 -731l299 731h-159v107h399v-107h-119l-487 -1196q-50 -124 -111 -169.5t-172 -45.5q-47 0 -96.5 8t-99.5 23v203h94q6 -68 34.5 -97.5t88.5 -29.5q55 0 88.5 30.5t70.5 122.5zM385 1569q48 0 82.5 -34.5 t34.5 -82.5q0 -51 -33 -84t-84 -33q-50 0 -83 33t-33 84q0 48 34.5 82.5t81.5 34.5zM775 1569q47 0 81.5 -34.5t34.5 -82.5q0 -51 -33 -84t-83 -33q-51 0 -84 33t-33 84q0 48 34.5 82.5t82.5 34.5z" />
<glyph unicode="&#x100;" horiz-adv-x="1479" d="M436 1841h598v-148h-598v148zM410 541h548l-274 710zM-12 0v106h131l532 1387h168l533 -1387h147v-106h-543v106h166l-125 328h-628l-125 -328h164v-106h-420z" />
<glyph unicode="&#x101;" horiz-adv-x="1221" d="M248 1526h598v-148h-598v148zM815 334v225h-237q-137 0 -204 -59t-67 -181q0 -111 68 -176t184 -65q115 0 185.5 71t70.5 185zM999 664v-558h164v-106h-348v115q-61 -74 -141 -109t-187 -35q-177 0 -281 94t-104 254q0 165 119 256t336 91h258v73q0 121 -73.5 187.5 t-206.5 66.5q-110 0 -175 -50t-81 -148h-95v215q96 41 186.5 61.5t176.5 20.5q221 0 336.5 -109.5t115.5 -318.5z" />
<glyph unicode="&#x102;" horiz-adv-x="1479" d="M435 1897h96q13 -79 65 -114.5t152 -35.5t152 35.5t65 114.5h96q-10 -143 -89 -215t-224 -72t-224 72t-89 215zM410 541h548l-274 710zM-12 0v106h131l532 1387h168l533 -1387h147v-106h-543v106h166l-125 328h-628l-125 -328h164v-106h-420z" />
<glyph unicode="&#x103;" horiz-adv-x="1221" d="M282 1581h96q13 -79 65 -114.5t152 -35.5t152 35.5t65 114.5h96q-10 -143 -89 -215t-224 -72t-224 72t-89 215zM815 334v225h-237q-137 0 -204 -59t-67 -181q0 -111 68 -176t184 -65q115 0 185.5 71t70.5 185zM999 664v-558h164v-106h-348v115q-61 -74 -141 -109 t-187 -35q-177 0 -281 94t-104 254q0 165 119 256t336 91h258v73q0 121 -73.5 187.5t-206.5 66.5q-110 0 -175 -50t-81 -148h-95v215q96 41 186.5 61.5t176.5 20.5q221 0 336.5 -109.5t115.5 -318.5z" />
<glyph unicode="&#x104;" horiz-adv-x="1479" d="M961 0h94l-1 -2q-87 -123 -87 -170q0 -46 33.5 -74t89.5 -28q27 0 56 6.5t59 19.5l-1 -127q-36 -9 -69.5 -13.5t-65.5 -4.5q-113 0 -175 44.5t-62 125.5q0 49 30 101.5t99 121.5zM410 541h548l-274 710zM-12 0v106h131l532 1387h168l533 -1387h147v-106h-543v106h166 l-125 328h-628l-125 -328h164v-106h-420z" />
<glyph unicode="&#x105;" horiz-adv-x="1221" d="M815 0h94l-1 -2q-87 -123 -87 -170q0 -46 33.5 -74t89.5 -28q27 0 56 6.5t59 19.5l-1 -127q-36 -9 -69.5 -13.5t-65.5 -4.5q-113 0 -175 44.5t-62 125.5q0 49 30 101.5t99 121.5zM815 334v225h-237q-137 0 -204 -59t-67 -181q0 -111 68 -176t184 -65q115 0 185.5 71 t70.5 185zM999 664v-558h164v-106h-348v115q-61 -74 -141 -109t-187 -35q-177 0 -281 94t-104 254q0 165 119 256t336 91h258v73q0 121 -73.5 187.5t-206.5 66.5q-110 0 -175 -50t-81 -148h-95v215q96 41 186.5 61.5t176.5 20.5q221 0 336.5 -109.5t115.5 -318.5z" />
<glyph unicode="&#x106;" horiz-adv-x="1567" d="M1444 395q-66 -209 -221.5 -316.5t-393.5 -107.5q-146 0 -271 50t-222 147q-112 112 -166.5 254.5t-54.5 322.5q0 348 201 561.5t530 213.5q122 0 260 -32t297 -97v-344h-113q-37 188 -148.5 277t-312.5 89q-239 0 -362 -169.5t-123 -498.5q0 -328 123 -497.5t362 -169.5 q167 0 275 79.5t156 237.5h184zM884 1899h197l-262 -264h-117z" />
<glyph unicode="&#x107;" horiz-adv-x="1147" d="M1053 319q-39 -170 -150 -259t-287 -89q-232 0 -373 153.5t-141 407.5q0 255 141 407.5t373 152.5q101 0 201 -23.5t201 -71.5v-272h-107q-21 140 -91.5 204t-201.5 64q-149 0 -225 -115.5t-76 -345.5t75.5 -346t225.5 -116q119 0 190 62t97 187h148zM745 1638h199 l-340 -376h-117z" />
<glyph unicode="&#x108;" horiz-adv-x="1567" d="M741 1899h176l231 -264h-116l-203 161l-203 -161h-116zM1444 395q-66 -209 -221.5 -316.5t-393.5 -107.5q-146 0 -271 50t-222 147q-112 112 -166.5 254.5t-54.5 322.5q0 348 201 561.5t530 213.5q122 0 260 -32t297 -97v-344h-113q-37 188 -148.5 277t-312.5 89 q-239 0 -362 -169.5t-123 -498.5q0 -328 123 -497.5t362 -169.5q167 0 275 79.5t156 237.5h184z" />
<glyph unicode="&#x109;" horiz-adv-x="1147" d="M532 1638h168l235 -376h-116l-203 260l-203 -260h-116zM1053 319q-39 -170 -150 -259t-287 -89q-232 0 -373 153.5t-141 407.5q0 255 141 407.5t373 152.5q101 0 201 -23.5t201 -71.5v-272h-107q-21 140 -91.5 204t-201.5 64q-149 0 -225 -115.5t-76 -345.5t75.5 -346 t225.5 -116q119 0 190 62t97 187h148z" />
<glyph unicode="&#x10a;" horiz-adv-x="1567" d="M829 1886q47 0 82 -35t35 -81q0 -50 -33.5 -83.5t-83.5 -33.5t-83.5 33.5t-33.5 83.5q0 46 35 81t82 35zM1444 395q-66 -209 -221.5 -316.5t-393.5 -107.5q-146 0 -271 50t-222 147q-112 112 -166.5 254.5t-54.5 322.5q0 348 201 561.5t530 213.5q122 0 260 -32t297 -97 v-344h-113q-37 188 -148.5 277t-312.5 89q-239 0 -362 -169.5t-123 -498.5q0 -328 123 -497.5t362 -169.5q167 0 275 79.5t156 237.5h184z" />
<glyph unicode="&#x10b;" horiz-adv-x="1147" d="M616 1569q48 0 82.5 -34.5t34.5 -82.5q0 -51 -33 -84t-84 -33t-84 33t-33 84q0 48 34.5 82.5t82.5 34.5zM1053 319q-39 -170 -150 -259t-287 -89q-232 0 -373 153.5t-141 407.5q0 255 141 407.5t373 152.5q101 0 201 -23.5t201 -71.5v-272h-107q-21 140 -91.5 204 t-201.5 64q-149 0 -225 -115.5t-76 -345.5t75.5 -346t225.5 -116q119 0 190 62t97 187h148z" />
<glyph unicode="&#x10c;" horiz-adv-x="1567" d="M1444 395q-66 -209 -221.5 -316.5t-393.5 -107.5q-146 0 -271 50t-222 147q-112 112 -166.5 254.5t-54.5 322.5q0 348 201 561.5t530 213.5q122 0 260 -32t297 -97v-344h-113q-37 188 -148.5 277t-312.5 89q-239 0 -362 -169.5t-123 -498.5q0 -328 123 -497.5t362 -169.5 q167 0 275 79.5t156 237.5h184zM733 1635l-231 264h116l203 -162l203 162h116l-231 -264h-176z" />
<glyph unicode="&#x10d;" horiz-adv-x="1147" d="M1053 319q-39 -170 -150 -259t-287 -89q-232 0 -373 153.5t-141 407.5q0 255 141 407.5t373 152.5q101 0 201 -23.5t201 -71.5v-272h-107q-21 140 -91.5 204t-201.5 64q-149 0 -225 -115.5t-76 -345.5t75.5 -346t225.5 -116q119 0 190 62t97 187h148zM522 1262l-235 376 h116l203 -260l203 260h116l-235 -376h-168z" />
<glyph unicode="&#x10e;" horiz-adv-x="1642" d="M506 106h186q291 0 446.5 166t155.5 476t-155 474t-447 164h-186v-1280zM113 0v106h190v1280h-190v107h594q386 0 601.5 -197t215.5 -548q0 -352 -216 -550t-601 -198h-594zM655 1635l-231 264h116l203 -162l203 162h116l-231 -264h-176z" />
<glyph unicode="&#x10f;" horiz-adv-x="1311" d="M1075 106h176v-106h-360v166q-54 -100 -137.5 -147.5t-206.5 -47.5q-196 0 -320.5 155.5t-124.5 405.5t124 405t321 155q123 0 206.5 -47.5t137.5 -147.5v553h-174v106h358v-1450zM891 479v105q0 191 -73.5 292t-213.5 101q-142 0 -214.5 -112t-72.5 -333 q0 -220 72.5 -333t214.5 -113q140 0 213.5 100.5t73.5 292.5zM1313 1554h199l-144 -376h-117z" />
<glyph unicode="&#x110;" horiz-adv-x="1653" d="M514 106h188q291 0 447 166t156 476t-155.5 474t-447.5 164h-188v-542h336v-125h-336v-613zM123 0v106h190v613h-200v125h200v542h-190v107h594q386 0 601.5 -197t215.5 -548q0 -352 -216 -550t-601 -198h-594z" />
<glyph unicode="&#x111;" horiz-adv-x="1311" d="M1075 106h176v-106h-360v166q-54 -100 -137.5 -147.5t-206.5 -47.5q-196 0 -320.5 155.5t-124.5 405.5t124 405t321 155q123 0 206.5 -47.5t137.5 -147.5v330h-326v106h326v117h-174v106h358v-223h176v-106h-176v-1121zM891 479v105q0 191 -73.5 292t-213.5 101 q-142 0 -214.5 -112t-72.5 -333q0 -220 72.5 -333t214.5 -113q140 0 213.5 100.5t73.5 292.5z" />
<glyph unicode="&#x112;" horiz-adv-x="1495" d="M415 1842h598v-148h-598v148zM113 0v106h190v1280h-190v107h1202v-332h-123v209h-686v-500h489v187h123v-496h-123v187h-489v-625h702v209h123v-332h-1218z" />
<glyph unicode="&#x113;" horiz-adv-x="1212" d="M307 1527h598v-148h-598v148zM1110 512h-793v-8q0 -215 81 -324.5t239 -109.5q121 0 198.5 63.5t108.5 188.5h148q-44 -175 -162.5 -263t-311.5 -88q-233 0 -374.5 153.5t-141.5 407.5q0 252 139 406t365 154q241 0 370 -148.5t134 -431.5zM893 618q-6 186 -78.5 280.5 t-208.5 94.5q-127 0 -200 -95t-89 -280h576z" />
<glyph unicode="&#x114;" horiz-adv-x="1495" d="M437 1901h94q18 -55 71.5 -82t145.5 -27t145.5 27t71.5 82h94q-20 -117 -100 -179.5t-211 -62.5q-132 0 -211.5 62t-99.5 180zM113 0v106h190v1280h-190v107h1202v-332h-123v209h-686v-500h489v187h123v-496h-123v187h-489v-625h702v209h123v-332h-1218z" />
<glyph unicode="&#x115;" horiz-adv-x="1212" d="M293 1608h96q13 -79 65 -114.5t152 -35.5t152 35.5t65 114.5h96q-10 -143 -89 -215t-224 -72t-224 72t-89 215zM1110 512h-793v-8q0 -215 81 -324.5t239 -109.5q121 0 198.5 63.5t108.5 188.5h148q-44 -175 -162.5 -263t-311.5 -88q-233 0 -374.5 153.5t-141.5 407.5 q0 252 139 406t365 154q241 0 370 -148.5t134 -431.5zM893 618q-6 186 -78.5 280.5t-208.5 94.5q-127 0 -200 -95t-89 -280h576z" />
<glyph unicode="&#x116;" horiz-adv-x="1495" d="M748 1886q47 0 82 -35t35 -81q0 -50 -33.5 -83.5t-83.5 -33.5t-83.5 33.5t-33.5 83.5q0 46 35 81t82 35zM113 0v106h190v1280h-190v107h1202v-332h-123v209h-686v-500h489v187h123v-496h-123v187h-489v-625h702v209h123v-332h-1218z" />
<glyph unicode="&#x117;" horiz-adv-x="1212" d="M606 1569q48 0 82.5 -34.5t34.5 -82.5q0 -51 -33 -84t-84 -33t-84 33t-33 84q0 48 34.5 82.5t82.5 34.5zM1110 512h-793v-8q0 -215 81 -324.5t239 -109.5q121 0 198.5 63.5t108.5 188.5h148q-44 -175 -162.5 -263t-311.5 -88q-233 0 -374.5 153.5t-141.5 407.5 q0 252 139 406t365 154q241 0 370 -148.5t134 -431.5zM893 618q-6 186 -78.5 280.5t-208.5 94.5q-127 0 -200 -95t-89 -280h576z" />
<glyph unicode="&#x118;" horiz-adv-x="1495" d="M1086 0h94l-1 -2q-87 -123 -87 -170q0 -46 33.5 -74t89.5 -28q27 0 56 6.5t59 19.5l-1 -127q-36 -9 -69.5 -13.5t-65.5 -4.5q-113 0 -175 44.5t-62 125.5q0 49 30 101.5t99 121.5zM113 0v106h190v1280h-190v107h1202v-332h-123v209h-686v-500h489v187h123v-496h-123v187 h-489v-625h702v209h123v-332h-1218z" />
<glyph unicode="&#x119;" horiz-adv-x="1212" d="M722 0h94l-1 -2q-87 -123 -87 -170q0 -46 33.5 -74t89.5 -28q27 0 56 6.5t59 19.5l-1 -127q-36 -9 -69.5 -13.5t-65.5 -4.5q-113 0 -175 44.5t-62 125.5q0 49 30 101.5t99 121.5zM1110 512h-793v-8q0 -215 81 -324.5t239 -109.5q121 0 198.5 63.5t108.5 188.5h148 q-44 -175 -162.5 -263t-311.5 -88q-233 0 -374.5 153.5t-141.5 407.5q0 252 139 406t365 154q241 0 370 -148.5t134 -431.5zM893 618q-6 186 -78.5 280.5t-208.5 94.5q-127 0 -200 -95t-89 -280h576z" />
<glyph unicode="&#x11a;" horiz-adv-x="1495" d="M113 0v106h190v1280h-190v107h1202v-332h-123v209h-686v-500h489v187h123v-496h-123v187h-489v-625h702v209h123v-332h-1218zM733 1635l-231 264h116l203 -162l203 162h116l-231 -264h-176z" />
<glyph unicode="&#x11b;" horiz-adv-x="1212" d="M1110 512h-793v-8q0 -215 81 -324.5t239 -109.5q121 0 198.5 63.5t108.5 188.5h148q-44 -175 -162.5 -263t-311.5 -88q-233 0 -374.5 153.5t-141.5 407.5q0 252 139 406t365 154q241 0 370 -148.5t134 -431.5zM893 618q-6 186 -78.5 280.5t-208.5 94.5q-127 0 -200 -95 t-89 -280h576zM522 1262l-235 376h116l203 -260l203 260h116l-235 -376h-168z" />
<glyph unicode="&#x11c;" horiz-adv-x="1636" d="M768 1899h176l231 -264h-116l-203 161l-203 -161h-116zM1311 1047q-35 187 -146 276.5t-309 89.5q-258 0 -385 -166t-127 -502q0 -329 131 -498t385 -169q113 0 216 28t196 84v385h-281v107h484v-557q-133 -77 -286.5 -115.5t-328.5 -38.5q-338 0 -541.5 211.5 t-203.5 562.5q0 354 204 564.5t549 210.5q128 0 264.5 -29.5t290.5 -89.5v-354h-112z" />
<glyph unicode="&#x11d;" horiz-adv-x="1311" d="M520 1638h168l235 -376h-116l-203 260l-203 -260h-116zM1075 956v-933q0 -229 -126 -353.5t-359 -124.5q-105 0 -201 19t-184 57v223h96q18 -104 85 -152t192 -48q162 0 237.5 91.5t75.5 287.5v143q-54 -100 -137.5 -147.5t-206.5 -47.5q-196 0 -320.5 155.5 t-124.5 405.5t124 405t321 155q123 0 206.5 -47.5t137.5 -147.5v166h360v-107h-176zM891 584q0 191 -73.5 292t-213.5 101q-142 0 -214.5 -112t-72.5 -333q0 -220 72.5 -333t214.5 -113q140 0 213.5 100.5t73.5 292.5v105z" />
<glyph unicode="&#x11e;" horiz-adv-x="1636" d="M1311 1047q-35 187 -146 276.5t-309 89.5q-258 0 -385 -166t-127 -502q0 -329 131 -498t385 -169q113 0 216 28t196 84v385h-281v107h484v-557q-133 -77 -286.5 -115.5t-328.5 -38.5q-338 0 -541.5 211.5t-203.5 562.5q0 354 204 564.5t549 210.5q128 0 264.5 -29.5 t290.5 -89.5v-354h-112zM508 1901h94q18 -55 71.5 -82t145.5 -27t145.5 27t71.5 82h94q-20 -117 -100 -179.5t-211 -62.5q-132 0 -211.5 62t-99.5 180z" />
<glyph unicode="&#x11f;" horiz-adv-x="1311" d="M1075 956v-933q0 -229 -126 -353.5t-359 -124.5q-105 0 -201 19t-184 57v223h96q18 -104 85 -152t192 -48q162 0 237.5 91.5t75.5 287.5v143q-54 -100 -137.5 -147.5t-206.5 -47.5q-196 0 -320.5 155.5t-124.5 405.5t124 405t321 155q123 0 206.5 -47.5t137.5 -147.5v166 h360v-107h-176zM891 584q0 191 -73.5 292t-213.5 101q-142 0 -214.5 -112t-72.5 -333q0 -220 72.5 -333t214.5 -113q140 0 213.5 100.5t73.5 292.5v105zM342 1608h96q13 -79 65 -114.5t152 -35.5t152 35.5t65 114.5h96q-10 -143 -89 -215t-224 -72t-224 72t-89 215z" />
<glyph unicode="&#x120;" horiz-adv-x="1636" d="M856 1886q47 0 82 -35t35 -81q0 -50 -33.5 -83.5t-83.5 -33.5t-83.5 33.5t-33.5 83.5q0 46 35 81t82 35zM1311 1047q-35 187 -146 276.5t-309 89.5q-258 0 -385 -166t-127 -502q0 -329 131 -498t385 -169q113 0 216 28t196 84v385h-281v107h484v-557 q-133 -77 -286.5 -115.5t-328.5 -38.5q-338 0 -541.5 211.5t-203.5 562.5q0 354 204 564.5t549 210.5q128 0 264.5 -29.5t290.5 -89.5v-354h-112z" />
<glyph unicode="&#x121;" horiz-adv-x="1311" d="M604 1569q48 0 82.5 -34.5t34.5 -82.5q0 -51 -33 -84t-84 -33t-84 33t-33 84q0 48 34.5 82.5t82.5 34.5zM1075 956v-933q0 -229 -126 -353.5t-359 -124.5q-105 0 -201 19t-184 57v223h96q18 -104 85 -152t192 -48q162 0 237.5 91.5t75.5 287.5v143 q-54 -100 -137.5 -147.5t-206.5 -47.5q-196 0 -320.5 155.5t-124.5 405.5t124 405t321 155q123 0 206.5 -47.5t137.5 -147.5v166h360v-107h-176zM891 584q0 191 -73.5 292t-213.5 101q-142 0 -214.5 -112t-72.5 -333q0 -220 72.5 -333t214.5 -113q140 0 213.5 100.5 t73.5 292.5v105z" />
<glyph unicode="&#x122;" horiz-adv-x="1636" d="M706 -410q76 42 111 98t35 136v22h158q-7 -103 -65 -176q-58 -74 -175 -128zM1311 1047q-35 187 -146 276.5t-309 89.5q-258 0 -385 -166t-127 -502q0 -329 131 -498t385 -169q113 0 216 28t196 84v385h-281v107h484v-557q-133 -77 -286.5 -115.5t-328.5 -38.5 q-338 0 -541.5 211.5t-203.5 562.5q0 354 204 564.5t549 210.5q128 0 264.5 -29.5t290.5 -89.5v-354h-112z" />
<glyph unicode="&#x123;" horiz-adv-x="1311" d="M840 1470q-76 -42 -111 -98t-35 -136v-22h-158q7 103 65 176q58 74 175 128zM1075 956v-933q0 -229 -126 -353.5t-359 -124.5q-105 0 -201 19t-184 57v223h96q18 -104 85 -152t192 -48q162 0 237.5 91.5t75.5 287.5v143q-54 -100 -137.5 -147.5t-206.5 -47.5 q-196 0 -320.5 155.5t-124.5 405.5t124 405t321 155q123 0 206.5 -47.5t137.5 -147.5v166h360v-107h-176zM891 584q0 191 -73.5 292t-213.5 101q-142 0 -214.5 -112t-72.5 -333q0 -220 72.5 -333t214.5 -113q140 0 213.5 100.5t73.5 292.5v105z" />
<glyph unicode="&#x124;" horiz-adv-x="1786" d="M805 1899h176l231 -264h-116l-203 161l-203 -161h-116zM113 0v106h190v1280h-190v107h583v-107h-190v-516h774v516h-190v107h583v-107h-190v-1280h190v-106h-583v106h190v642h-774v-642h190v-106h-583z" />
<glyph unicode="&#x125;" horiz-adv-x="1319" d="M170 1899h176l231 -264h-116l-203 161l-203 -161h-116zM84 0v106h166v1344h-176v106h360v-682q51 108 132.5 163t189.5 55q176 0 259 -101t83 -315v-570h164v-106h-508v106h159v512q0 195 -47.5 266.5t-169.5 71.5q-128 0 -195 -93t-67 -271v-486h160v-106h-510z" />
<glyph unicode="&#x126;" horiz-adv-x="1786" d="M506 870h774v197h-774v-197zM113 0v106h190v961h-190v122h190v197h-190v107h583v-107h-190v-197h774v197h-190v107h583v-107h-190v-197h190v-122h-190v-961h190v-106h-583v106h190v642h-774v-642h190v-106h-583z" />
<glyph unicode="&#x127;" horiz-adv-x="1319" d="M84 0v106h166v1104h-176v122h176v118h-176v106h360v-224h316v-122h-316v-336q51 108 132.5 163t189.5 55q176 0 259 -101t83 -315v-570h164v-106h-508v106h159v512q0 195 -47.5 266.5t-169.5 71.5q-128 0 -195 -93t-67 -271v-486h160v-106h-510z" />
<glyph unicode="&#x128;" horiz-adv-x="809" d="M391 1715l-48 28q-20 13 -40.5 20t-37.5 7q-39 0 -65 -28.5t-30 -74.5l-96 1q2 100 53 159t136 59q36 0 67 -9t86 -40l49 -26q23 -13 45 -20t39 -7q41 0 64.5 27.5t23.5 74.5h97q-2 -105 -53.5 -162t-145.5 -57q-67 0 -139 45zM506 106h190v-106h-583v106h190v1280h-190 v107h583v-107h-190v-1280z" />
<glyph unicode="&#x129;" horiz-adv-x="655" d="M323 1370l-57 55q-26 24 -42.5 31.5t-35.5 7.5q-42 0 -66 -39.5t-29 -115.5h-96q2 135 53 208.5t142 73.5q38 0 70 -14t69 -47l57 -55q23 -23 40 -31t38 -8q43 0 67 40t28 115h96q-2 -135 -53 -208.5t-142 -73.5q-38 0 -70 14t-69 47zM434 106h174v-106h-534v106h176v850 h-176v107h360v-957z" />
<glyph unicode="&#x12a;" horiz-adv-x="809" d="M105 1842h598v-148h-598v148zM506 106h190v-106h-583v106h190v1280h-190v107h583v-107h-190v-1280z" />
<glyph unicode="&#x12b;" horiz-adv-x="655" d="M-45 1526h598v-148h-598v148zM434 106h174v-106h-534v106h176v850h-176v107h360v-957z" />
<glyph unicode="&#x12c;" horiz-adv-x="809" d="M93 1901h94q18 -55 71.5 -82t145.5 -27t145.5 27t71.5 82h94q-20 -117 -100 -179.5t-211 -62.5q-132 0 -211.5 62t-99.5 180zM506 106h190v-106h-583v106h190v1280h-190v107h583v-107h-190v-1280z" />
<glyph unicode="&#x12d;" horiz-adv-x="655" d="M14 1608h96q13 -79 65 -114.5t152 -35.5t152 35.5t65 114.5h96q-10 -143 -89 -215t-224 -72t-224 72t-89 215zM434 106h174v-106h-534v106h176v850h-176v107h360v-957z" />
<glyph unicode="&#x12e;" horiz-adv-x="809" d="M506 106h190v-106h-583v106h190v1280h-190v107h583v-107h-190v-1280zM412 0h94l-1 -2q-87 -123 -87 -170q0 -46 33.5 -74t89.5 -28q27 0 56 6.5t59 19.5l-1 -127q-36 -9 -69.5 -13.5t-65.5 -4.5q-113 0 -175 44.5t-62 125.5q0 49 30 101.5t99 121.5z" />
<glyph unicode="&#x12f;" horiz-adv-x="655" d="M199 1393q0 46 33.5 80t80.5 34q46 0 79.5 -34t33.5 -80q0 -47 -33 -80t-80 -33t-80.5 33t-33.5 80zM434 106h174v-106h-534v106h176v850h-176v107h360v-957zM340 0h94l-1 -2q-87 -123 -87 -170q0 -46 33.5 -74t89.5 -28q27 0 56 6.5t59 19.5l-1 -127q-36 -9 -69.5 -13.5 t-65.5 -4.5q-113 0 -175 44.5t-62 125.5q0 49 30 101.5t99 121.5z" />
<glyph unicode="&#x130;" horiz-adv-x="809" d="M506 106h190v-106h-583v106h190v1280h-190v107h583v-107h-190v-1280zM406 1886q47 0 82 -35t35 -81q0 -50 -33.5 -83.5t-83.5 -33.5t-83.5 33.5t-33.5 83.5q0 46 35 81t82 35z" />
<glyph unicode="&#x131;" horiz-adv-x="655" d="M434 106h174v-106h-534v106h176v850h-176v107h360v-957z" />
<glyph unicode="&#x132;" horiz-adv-x="1641" d="M506 106h190v-106h-583v106h190v1280h-190v107h583v-107h-190v-1280zM648 -358v235h114q3 -99 47 -147.5t132 -48.5q119 0 166 75t47 293v1337h-232v107h625v-107h-190v-1345q0 -247 -99 -357t-319 -110q-71 0 -144.5 17t-146.5 51z" />
<glyph unicode="&#x133;" horiz-adv-x="1092" d="M199 1393q0 46 33.5 80t80.5 34q46 0 79.5 -34t33.5 -80q0 -47 -33 -80t-80 -33t-80.5 33t-33.5 80zM434 106h174v-106h-534v106h176v850h-176v107h360v-957zM789 1393q0 46 33.5 80t80.5 34q46 0 79.5 -34t33.5 -80q0 -47 -32.5 -80t-80.5 -33q-47 0 -80.5 33t-33.5 80z M834 956h-174v107h358v-1167q0 -164 -97.5 -257.5t-268.5 -93.5q-72 0 -137.5 16.5t-127.5 49.5v219h95q7 -96 49.5 -141t124.5 -45q91 0 134.5 61.5t43.5 190.5v1060z" />
<glyph unicode="&#x134;" horiz-adv-x="821" d="M326 1899h176l231 -264h-116l-203 161l-203 -161h-116zM-172 -358v235h114q3 -99 47 -147.5t132 -48.5q119 0 166 75t47 293v1337h-232v107h625v-107h-190v-1345q0 -247 -99 -357t-319 -110q-71 0 -144.5 17t-146.5 51z" />
<glyph unicode="&#x135;" horiz-adv-x="635" d="M178 1638h168l235 -376h-116l-203 260l-203 -260h-116zM250 956h-174v107h358v-1167q0 -164 -97.5 -257.5t-268.5 -93.5q-72 0 -137.5 16.5t-127.5 49.5v219h95q7 -96 49.5 -141t124.5 -45q91 0 134.5 61.5t43.5 190.5v1060z" />
<glyph unicode="&#x136;" horiz-adv-x="1530" d="M683 -381q76 42 111 98t35 136v22h158q-7 -103 -65 -176q-58 -74 -175 -128zM113 0v106h190v1280h-190v107h583v-107h-190v-565l643 565h-162v107h496v-107h-168l-641 -563l717 -717h170v-106h-347l-708 709v-603h190v-106h-583z" />
<glyph unicode="&#x137;" horiz-adv-x="1241" d="M509 -381q76 42 111 98t35 136v22h158q-7 -103 -65 -176q-58 -74 -175 -128zM586 0h-516v106h166v1344h-177v106h361v-1013l448 413h-153v107h481v-107h-182l-316 -292l404 -558h153v-106h-524v106h152l-318 437l-145 -135v-302h166v-106z" />
<glyph unicode="&#x138;" horiz-adv-x="1241" d="M586 0h-516v106h166v847h-177v107h361v-519l448 412h-153v107h481v-107h-182l-316 -291l404 -556h153v-106h-524v106h152l-318 435l-145 -135v-300h166v-106z" />
<glyph unicode="&#x139;" horiz-adv-x="1360" d="M421 1901h197l-262 -264h-117zM113 0v106h190v1280h-190v107h583v-107h-190v-1263h682v250h123v-373h-1198z" />
<glyph unicode="&#x13a;" horiz-adv-x="655" d="M322 1900h197l-262 -264h-117zM420 106h174v-106h-535v106h177v1344h-177v106h361v-1450z" />
<glyph unicode="&#x13b;" horiz-adv-x="1360" d="M558 -381q76 42 111 98t35 136v22h158q-7 -103 -65 -176q-58 -74 -175 -128zM113 0v106h190v1280h-190v107h583v-107h-190v-1263h682v250h123v-373h-1198z" />
<glyph unicode="&#x13c;" horiz-adv-x="655" d="M103 -376q76 42 111 98t35 136v22h158q-7 -103 -65 -176q-58 -74 -175 -128zM420 106h174v-106h-535v106h177v1344h-177v106h361v-1450z" />
<glyph unicode="&#x13d;" horiz-adv-x="1360" d="M922 1492h199l-144 -376h-117zM113 0v106h190v1280h-190v107h583v-107h-190v-1263h682v250h123v-373h-1198z" />
<glyph unicode="&#x13e;" horiz-adv-x="655" d="M657 1556h199l-144 -376h-117zM420 106h174v-106h-535v106h177v1344h-177v106h361v-1450z" />
<glyph unicode="&#x13f;" horiz-adv-x="1360" d="M998 845q0 56 38.5 94.5t95.5 38.5q55 0 94 -39t39 -94q0 -56 -39 -94.5t-94 -38.5q-57 0 -95.5 38t-38.5 95zM113 0v106h190v1280h-190v107h583v-107h-190v-1263h682v250h123v-373h-1198z" />
<glyph unicode="&#x140;" horiz-adv-x="655" d="M570 836q0 56 38.5 94.5t95.5 38.5q55 0 94 -39t39 -94q0 -56 -39 -94.5t-94 -38.5q-57 0 -95.5 38t-38.5 95zM420 106h174v-106h-535v106h177v1344h-177v106h361v-1450z" />
<glyph unicode="&#x141;" horiz-adv-x="1370" d="M123 0v106h190v480l-157 -113l-70 92l227 162v659h-190v107h582v-107h-191v-516l307 226l70 -92l-377 -275v-606h684v250h123v-373h-1198z" />
<glyph unicode="&#x142;" horiz-adv-x="664" d="M428 106h176v-106h-534v106h174v574l-138 -96l-61 86l199 141v639h-174v106h358v-616l147 98l60 -86l-207 -141v-705z" />
<glyph unicode="&#x143;" horiz-adv-x="1792" d="M937 1900h197l-262 -264h-117zM100 0v106h201v1280h-201v107h383l895 -1178v1071h-200v107h524v-107h-201v-1415h-121l-956 1258v-1123h201v-106h-525z" />
<glyph unicode="&#x144;" horiz-adv-x="1319" d="M726 1590h199l-340 -376h-117zM84 0v106h166v850h-176v107h360v-189q51 108 132.5 163t189.5 55q176 0 259 -101t83 -315v-570h164v-106h-508v106h159v512q0 195 -48 267.5t-169 72.5q-128 0 -195 -93.5t-67 -272.5v-486h160v-106h-510z" />
<glyph unicode="&#x145;" horiz-adv-x="1792" d="M701 -395q76 42 111 98t35 136v22h158q-7 -103 -65 -176q-58 -74 -175 -128zM100 0v106h201v1280h-201v107h383l895 -1178v1071h-200v107h524v-107h-201v-1415h-121l-956 1258v-1123h201v-106h-525z" />
<glyph unicode="&#x146;" horiz-adv-x="1319" d="M519 -381q76 42 111 98t35 136v22h158q-7 -103 -65 -176q-58 -74 -175 -128zM84 0v106h166v850h-176v107h360v-189q51 108 132.5 163t189.5 55q176 0 259 -101t83 -315v-570h164v-106h-508v106h159v512q0 195 -48 267.5t-169 72.5q-128 0 -195 -93.5t-67 -272.5v-486h160 v-106h-510z" />
<glyph unicode="&#x147;" horiz-adv-x="1792" d="M100 0v106h201v1280h-201v107h383l895 -1178v1071h-200v107h524v-107h-201v-1415h-121l-956 1258v-1123h201v-106h-525zM783 1645l-231 264h116l203 -162l203 162h116l-231 -264h-176z" />
<glyph unicode="&#x148;" horiz-adv-x="1319" d="M84 0v106h166v850h-176v107h360v-189q51 108 132.5 163t189.5 55q176 0 259 -101t83 -315v-570h164v-106h-508v106h159v512q0 195 -48 267.5t-169 72.5q-128 0 -195 -93.5t-67 -272.5v-486h160v-106h-510zM522 1262l-235 376h116l203 -260l203 260h116l-235 -376h-168z " />
<glyph unicode="&#x149;" horiz-adv-x="1774" d="M113 1094q77 64 111.5 149t34.5 214v63h194q-1 -174 -63.5 -294.5t-198.5 -211.5zM483 0v106h166v850h-176v107h360v-189q51 108 132.5 163t189.5 55q176 0 259 -101t83 -315v-570h164v-106h-508v106h159v512q0 195 -48 267.5t-169 72.5q-128 0 -195 -93.5t-67 -272.5 v-486h160v-106h-510z" />
<glyph unicode="&#x14a;" horiz-adv-x="1726" d="M96 0v107h191v1279h-176v107h379v-201q74 114 191 172t272 58q253 0 372 -145.5t119 -454.5v-881q0 -247 -99 -357t-319 -110q-71 0 -144.5 17t-146.5 51v235h112q0 -99 45.5 -147.5t133.5 -48.5q117 0 166 75q47 73 47 293v832q0 292 -75 401t-265 109 q-200 0 -304.5 -128.5t-104.5 -375.5v-780h190v-107h-584z" />
<glyph unicode="&#x14b;" horiz-adv-x="1319" d="M84 0v106h166v850h-176v107h360v-189q51 108 132.5 163t189.5 55q174 0 259 -101q83 -99 83 -315v-780q0 -164 -97.5 -257.5t-268.5 -93.5q-72 0 -137.5 16.5t-127.5 49.5v219h95q7 -96 49.5 -141t124.5 -45q91 0 134 62q43 60 43 190v722q0 195 -48 267.5t-169 72.5 q-128 0 -195 -93.5t-67 -272.5v-486h160v-106h-510z" />
<glyph unicode="&#x14c;" horiz-adv-x="1679" d="M541 1842h598v-148h-598v148zM840 78q245 0 370 168.5t125 498.5q0 331 -125 499.5t-370 168.5q-246 0 -371 -168.5t-125 -499.5q0 -330 125 -498.5t371 -168.5zM840 -29q-152 0 -279.5 50t-224.5 147q-112 112 -166.5 254t-54.5 323t54.5 323.5t166.5 254.5 q98 98 224 147.5t280 49.5q325 0 525 -213t200 -562q0 -179 -55 -322.5t-167 -254.5q-98 -98 -224 -147.5t-279 -49.5z" />
<glyph unicode="&#x14d;" horiz-adv-x="1233" d="M317 1526h598v-148h-598v148zM616 70q148 0 223.5 117t75.5 345t-75.5 344.5t-223.5 116.5t-223.5 -116.5t-75.5 -344.5t76 -345t223 -117zM616 -29q-232 0 -373 153.5t-141 407.5t140.5 407t373.5 153t373.5 -153t140.5 -407t-140.5 -407.5t-373.5 -153.5z" />
<glyph unicode="&#x14e;" horiz-adv-x="1679" d="M529 1901h94q18 -55 71.5 -82t145.5 -27t145.5 27t71.5 82h94q-20 -117 -100 -179.5t-211 -62.5q-132 0 -211.5 62t-99.5 180zM840 78q245 0 370 168.5t125 498.5q0 331 -125 499.5t-370 168.5q-246 0 -371 -168.5t-125 -499.5q0 -330 125 -498.5t371 -168.5zM840 -29 q-152 0 -279.5 50t-224.5 147q-112 112 -166.5 254t-54.5 323t54.5 323.5t166.5 254.5q98 98 224 147.5t280 49.5q325 0 525 -213t200 -562q0 -179 -55 -322.5t-167 -254.5q-98 -98 -224 -147.5t-279 -49.5z" />
<glyph unicode="&#x14f;" horiz-adv-x="1233" d="M303 1608h96q13 -79 65 -114.5t152 -35.5t152 35.5t65 114.5h96q-10 -143 -89 -215t-224 -72t-224 72t-89 215zM616 70q148 0 223.5 117t75.5 345t-75.5 344.5t-223.5 116.5t-223.5 -116.5t-75.5 -344.5t76 -345t223 -117zM616 -29q-232 0 -373 153.5t-141 407.5 t140.5 407t373.5 153t373.5 -153t140.5 -407t-140.5 -407.5t-373.5 -153.5z" />
<glyph unicode="&#x150;" horiz-adv-x="1679" d="M1071 1899h197l-262 -264h-117zM754 1899h197l-262 -264h-117zM840 78q245 0 370 168.5t125 498.5q0 331 -125 499.5t-370 168.5q-246 0 -371 -168.5t-125 -499.5q0 -330 125 -498.5t371 -168.5zM840 -29q-152 0 -279.5 50t-224.5 147q-112 112 -166.5 254t-54.5 323 t54.5 323.5t166.5 254.5q98 98 224 147.5t280 49.5q325 0 525 -213t200 -562q0 -179 -55 -322.5t-167 -254.5q-98 -98 -224 -147.5t-279 -49.5z" />
<glyph unicode="&#x151;" horiz-adv-x="1233" d="M600 1638h170l-244 -376h-114zM930 1638h178l-287 -376h-116zM616 70q148 0 223.5 117t75.5 345t-75.5 344.5t-223.5 116.5t-223.5 -116.5t-75.5 -344.5t76 -345t223 -117zM616 -29q-232 0 -373 153.5t-141 407.5t140.5 407t373.5 153t373.5 -153t140.5 -407 t-140.5 -407.5t-373.5 -153.5z" />
<glyph unicode="&#x152;" horiz-adv-x="2329" d="M1137 106v1280h-187q-292 0 -447 -164t-155 -472q0 -311 155.5 -477.5t446.5 -166.5h187zM2165 0h-1229q-385 0 -601 198t-216 552q0 351 215.5 547t601.5 196h1212v-332h-123v209h-686v-500h492v187h121v-496h-121v187h-492v-625h703v209h123v-332z" />
<glyph unicode="&#x153;" horiz-adv-x="2025" d="M616 70q148 0 223.5 117t75.5 345t-75.5 344.5t-223.5 116.5t-223.5 -116.5t-75.5 -344.5t76 -345t223 -117zM1923 512h-793v-8q0 -215 81 -324.5t239 -109.5q121 0 198.5 63.5t108.5 188.5h148q-44 -175 -162.5 -263t-310.5 -88q-130 0 -233.5 49t-176.5 146 q-69 -96 -172.5 -145.5t-233.5 -49.5q-232 0 -373 153.5t-141 407.5t140.5 407t373.5 153q132 0 235 -49.5t173 -145.5q73 96 173 145.5t222 49.5q242 0 370.5 -148.5t133.5 -431.5zM1706 618q-6 186 -78.5 280.5t-208.5 94.5q-127 0 -200 -95t-89 -280h576z" />
<glyph unicode="&#x154;" horiz-adv-x="1542" d="M832 1900h197l-262 -264h-117zM981 741q70 -19 120.5 -64.5t90.5 -127.5l217 -443h182v-106h-352l-233 475q-67 138 -123 178.5t-154 40.5h-223v-588h211v-106h-604v106h190v1280h-190v107h757q218 0 336.5 -104t118.5 -295q0 -154 -86.5 -242.5t-257.5 -110.5zM506 801 h295q151 0 223 71.5t72 221.5t-72 221t-223 71h-295v-585z" />
<glyph unicode="&#x155;" horiz-adv-x="979" d="M726 1590h199l-340 -376h-117zM979 1065v-266h-106q-5 79 -44 118t-114 39q-136 0 -208.5 -94t-72.5 -270v-486h213v-106h-563v106h166v852h-176v105h360v-189q54 111 139 164.5t207 53.5q45 0 94.5 -7t104.5 -20z" />
<glyph unicode="&#x156;" horiz-adv-x="1542" d="M698 -381q76 42 111 98t35 136v22h158q-7 -103 -65 -176q-58 -74 -175 -128zM981 741q70 -19 120.5 -64.5t90.5 -127.5l217 -443h182v-106h-352l-233 475q-67 138 -123 178.5t-154 40.5h-223v-588h211v-106h-604v106h190v1280h-190v107h757q218 0 336.5 -104t118.5 -295 q0 -154 -86.5 -242.5t-257.5 -110.5zM506 801h295q151 0 223 71.5t72 221.5t-72 221t-223 71h-295v-585z" />
<glyph unicode="&#x157;" horiz-adv-x="979" d="M107 -381q76 42 111 98t35 136v22h158q-7 -103 -65 -176q-58 -74 -175 -128zM979 1065v-266h-106q-5 79 -44 118t-114 39q-136 0 -208.5 -94t-72.5 -270v-486h213v-106h-563v106h166v852h-176v105h360v-189q54 111 139 164.5t207 53.5q45 0 94.5 -7t104.5 -20z" />
<glyph unicode="&#x158;" horiz-adv-x="1542" d="M981 741q70 -19 120.5 -64.5t90.5 -127.5l217 -443h182v-106h-352l-233 475q-67 138 -123 178.5t-154 40.5h-223v-588h211v-106h-604v106h190v1280h-190v107h757q218 0 336.5 -104t118.5 -295q0 -154 -86.5 -242.5t-257.5 -110.5zM506 801h295q151 0 223 71.5t72 221.5 t-72 221t-223 71h-295v-585zM643 1635l-231 264h116l203 -162l203 162h116l-231 -264h-176z" />
<glyph unicode="&#x159;" horiz-adv-x="979" d="M979 1065v-266h-106q-5 79 -44 118t-114 39q-136 0 -208.5 -94t-72.5 -270v-486h213v-106h-563v106h166v852h-176v105h360v-189q54 111 139 164.5t207 53.5q45 0 94.5 -7t104.5 -20zM480 1262l-235 376h116l203 -260l203 260h116l-235 -376h-168z" />
<glyph unicode="&#x15a;" horiz-adv-x="1403" d="M832 1900h197l-262 -264h-117zM190 72v340l115 -1q5 -170 98.5 -251.5t284.5 -81.5q178 0 271.5 70.5t93.5 205.5q0 108 -56.5 166t-238.5 113l-197 59q-214 65 -301.5 162t-87.5 266q0 190 135 295t379 105q104 0 228 -22.5t264 -65.5v-318h-113q-17 158 -105.5 228.5 t-269.5 70.5q-158 0 -240.5 -64.5t-82.5 -187.5q0 -107 62 -168t263 -121l185 -55q203 -61 289.5 -155.5t86.5 -253.5q0 -217 -139 -327t-414 -110q-123 0 -250.5 25t-259.5 76z" />
<glyph unicode="&#x15b;" horiz-adv-x="1051" d="M726 1590h199l-340 -376h-117zM115 59v248h106q4 -119 74.5 -178t208.5 -59q124 0 189 46.5t65 135.5q0 70 -47.5 113t-200.5 92l-133 45q-137 44 -198.5 110t-61.5 168q0 146 107 229t296 83q84 0 177 -22t192 -64v-232h-106q-4 103 -72 161t-185 58q-116 0 -175.5 -41 t-59.5 -123q0 -67 45 -107.5t180 -82.5l146 -45q151 -47 217.5 -117.5t66.5 -181.5q0 -151 -115.5 -237.5t-318.5 -86.5q-103 0 -201 22t-196 66z" />
<glyph unicode="&#x15c;" horiz-adv-x="1403" d="M614 1899h176l231 -264h-116l-203 161l-203 -161h-116zM190 72v340l115 -1q5 -170 98.5 -251.5t284.5 -81.5q178 0 271.5 70.5t93.5 205.5q0 108 -56.5 166t-238.5 113l-197 59q-214 65 -301.5 162t-87.5 266q0 190 135 295t379 105q104 0 228 -22.5t264 -65.5v-318h-113 q-17 158 -105.5 228.5t-269.5 70.5q-158 0 -240.5 -64.5t-82.5 -187.5q0 -107 62 -168t263 -121l185 -55q203 -61 289.5 -155.5t86.5 -253.5q0 -217 -139 -327t-414 -110q-123 0 -250.5 25t-259.5 76z" />
<glyph unicode="&#x15d;" horiz-adv-x="1051" d="M442 1638h168l235 -376h-116l-203 260l-203 -260h-116zM115 59v248h106q4 -119 74.5 -178t208.5 -59q124 0 189 46.5t65 135.5q0 70 -47.5 113t-200.5 92l-133 45q-137 44 -198.5 110t-61.5 168q0 146 107 229t296 83q84 0 177 -22t192 -64v-232h-106q-4 103 -72 161 t-185 58q-116 0 -175.5 -41t-59.5 -123q0 -67 45 -107.5t180 -82.5l146 -45q151 -47 217.5 -117.5t66.5 -181.5q0 -151 -115.5 -237.5t-318.5 -86.5q-103 0 -201 22t-196 66z" />
<glyph unicode="&#x15e;" horiz-adv-x="1403" d="M190 72v340l115 -1q5 -170 98.5 -251.5t284.5 -81.5q178 0 271.5 70.5t93.5 205.5q0 108 -56.5 166t-238.5 113l-197 59q-214 65 -301.5 162t-87.5 266q0 190 135 295t379 105q104 0 228 -22.5t264 -65.5v-318h-113q-17 158 -105.5 228.5t-269.5 70.5 q-158 0 -240.5 -64.5t-82.5 -187.5q0 -107 62 -168t263 -121l185 -55q203 -61 289.5 -155.5t86.5 -253.5q0 -217 -139 -327t-414 -110q-123 0 -250.5 25t-259.5 76zM768 0q64 -64 95.5 -120t31.5 -105q0 -81 -63 -125.5t-175 -44.5q-42 0 -86 6t-90 18v131 q41 -17 80.5 -25.5t74.5 -8.5q57 0 90 26.5t33 71.5q0 28 -22 72t-66 104h97z" />
<glyph unicode="&#x15f;" horiz-adv-x="1051" d="M115 59v248h106q4 -119 74.5 -178t208.5 -59q124 0 189 46.5t65 135.5q0 70 -47.5 113t-200.5 92l-133 45q-137 44 -198.5 110t-61.5 168q0 146 107 229t296 83q84 0 177 -22t192 -64v-232h-106q-4 103 -72 161t-185 58q-116 0 -175.5 -41t-59.5 -123q0 -67 45 -107.5 t180 -82.5l146 -45q151 -47 217.5 -117.5t66.5 -181.5q0 -151 -115.5 -237.5t-318.5 -86.5q-103 0 -201 22t-196 66zM592 0q64 -64 95.5 -120t31.5 -105q0 -81 -63 -125.5t-175 -44.5q-42 0 -86 6t-90 18v131q41 -17 80.5 -25.5t74.5 -8.5q57 0 90 26.5t33 71.5q0 28 -22 72 t-66 104h97z" />
<glyph unicode="&#x160;" horiz-adv-x="1403" d="M190 72v340l115 -1q5 -170 98.5 -251.5t284.5 -81.5q178 0 271.5 70.5t93.5 205.5q0 108 -56.5 166t-238.5 113l-197 59q-214 65 -301.5 162t-87.5 266q0 190 135 295t379 105q104 0 228 -22.5t264 -65.5v-318h-113q-17 158 -105.5 228.5t-269.5 70.5 q-158 0 -240.5 -64.5t-82.5 -187.5q0 -107 62 -168t263 -121l185 -55q203 -61 289.5 -155.5t86.5 -253.5q0 -217 -139 -327t-414 -110q-123 0 -250.5 25t-259.5 76zM614 1635l-231 264h116l203 -162l203 162h116l-231 -264h-176z" />
<glyph unicode="&#x161;" horiz-adv-x="1051" d="M115 59v248h106q4 -119 74.5 -178t208.5 -59q124 0 189 46.5t65 135.5q0 70 -47.5 113t-200.5 92l-133 45q-137 44 -198.5 110t-61.5 168q0 146 107 229t296 83q84 0 177 -22t192 -64v-232h-106q-4 103 -72 161t-185 58q-116 0 -175.5 -41t-59.5 -123q0 -67 45 -107.5 t180 -82.5l146 -45q151 -47 217.5 -117.5t66.5 -181.5q0 -151 -115.5 -237.5t-318.5 -86.5q-103 0 -201 22t-196 66zM442 1262l-235 376h116l203 -260l203 260h116l-235 -376h-168z" />
<glyph unicode="&#x162;" horiz-adv-x="1366" d="M725 0q64 -64 95.5 -120t31.5 -105q0 -81 -63 -125.5t-175 -44.5q-42 0 -86 6t-90 18v131q41 -17 80.5 -25.5t74.5 -8.5q57 0 90 26.5t33 71.5q0 28 -22 72t-66 104h97zM391 0v106h191v1268h-439v-233h-123v352h1326v-352h-123v233h-439v-1268h191v-106h-584z" />
<glyph unicode="&#x163;" horiz-adv-x="823" d="M548 0q64 -64 95.5 -120t31.5 -105q0 -81 -63 -125.5t-175 -44.5q-42 0 -86 6t-90 18v131q41 -17 80.5 -25.5t74.5 -8.5q57 0 90 26.5t33 71.5q0 28 -22 72t-66 104h97zM221 956h-162v107h162v330h185v-330h346v-107h-346v-675q0 -135 26 -173t96 -38q72 0 105 42.5 t35 137.5h139q-8 -145 -79 -212t-216 -67q-159 0 -225 70.5t-66 239.5v675z" />
<glyph unicode="&#x164;" horiz-adv-x="1366" d="M391 0v106h191v1268h-439v-233h-123v352h1326v-352h-123v233h-439v-1268h191v-106h-584zM589 1635l-231 264h116l203 -162l203 162h116l-231 -264h-176z" />
<glyph unicode="&#x165;" horiz-adv-x="823" d="M221 956h-162v107h162v330h185v-330h346v-107h-346v-675q0 -135 26 -173t96 -38q72 0 105 42.5t35 137.5h139q-8 -145 -79 -212t-216 -67q-159 0 -225 70.5t-66 239.5v675zM595 1613h199l-144 -376h-117z" />
<glyph unicode="&#x166;" horiz-adv-x="1366" d="M391 0v106h191v613h-336v125h336v530h-439v-233h-123v352h1326v-352h-123v233h-439v-530h336v-125h-336v-613h191v-106h-584z" />
<glyph unicode="&#x167;" horiz-adv-x="823" d="M221 281v335h-162v107h162v233h-162v107h162v330h185v-330h346v-107h-346v-233h346v-107h-346v-335q0 -135 26 -173t96 -38q72 0 105 42.5t35 137.5h139q-8 -145 -79 -212t-216 -67q-159 0 -225 70.5t-66 239.5z" />
<glyph unicode="&#x168;" horiz-adv-x="1726" d="M890 1715l-48 28q-20 13 -40.5 20t-37.5 7q-39 0 -65 -28.5t-30 -74.5l-96 1q2 100 53 159t136 59q36 0 67 -9t86 -40l49 -26q23 -13 45 -20t39 -7q41 0 64.5 27.5t23.5 74.5h97q-2 -105 -53.5 -162t-145.5 -57q-67 0 -139 45zM287 1386h-191v107h584v-107h-191v-772 q0 -286 93.5 -399t322.5 -113t322.5 113t93.5 399v772h-191v107h504v-107h-190v-792q0 -341 -131 -482t-445 -141t-447.5 142t-133.5 481v792z" />
<glyph unicode="&#x169;" horiz-adv-x="1319" d="M580 1370l-57 55q-26 24 -42.5 31.5t-35.5 7.5q-42 0 -66 -39.5t-29 -115.5h-96q2 135 53 208.5t142 73.5q38 0 70 -14t69 -47l57 -55q23 -23 40 -31t38 -8q43 0 67 40t28 115h96q-2 -135 -53 -208.5t-142 -73.5q-38 0 -70 14t-69 47zM725 1063h344v-957h174v-106h-358 v188q-51 -106 -132 -161.5t-188 -55.5q-177 0 -260.5 100.5t-83.5 315.5v569h-166v107h351v-619q0 -194 47.5 -266t169.5 -72q128 0 195 94t67 273v483h-160v107z" />
<glyph unicode="&#x16a;" horiz-adv-x="1726" d="M566 1842h598v-148h-598v148zM287 1386h-191v107h584v-107h-191v-772q0 -286 93.5 -399t322.5 -113t322.5 113t93.5 399v772h-191v107h504v-107h-190v-792q0 -341 -131 -482t-445 -141t-447.5 142t-133.5 481v792z" />
<glyph unicode="&#x16b;" horiz-adv-x="1319" d="M333 1526h598v-148h-598v148zM725 1063h344v-957h174v-106h-358v188q-51 -106 -132 -161.5t-188 -55.5q-177 0 -260.5 100.5t-83.5 315.5v569h-166v107h351v-619q0 -194 47.5 -266t169.5 -72q128 0 195 94t67 273v483h-160v107z" />
<glyph unicode="&#x16c;" horiz-adv-x="1726" d="M592 1901h94q18 -55 71.5 -82t145.5 -27t145.5 27t71.5 82h94q-20 -117 -100 -179.5t-211 -62.5q-132 0 -211.5 62t-99.5 180zM287 1386h-191v107h584v-107h-191v-772q0 -286 93.5 -399t322.5 -113t322.5 113t93.5 399v772h-191v107h504v-107h-190v-792q0 -341 -131 -482 t-445 -141t-447.5 142t-133.5 481v792z" />
<glyph unicode="&#x16d;" horiz-adv-x="1319" d="M271 1608h96q13 -79 65 -114.5t152 -35.5t152 35.5t65 114.5h96q-10 -143 -89 -215t-224 -72t-224 72t-89 215zM725 1063h344v-957h174v-106h-358v188q-51 -106 -132 -161.5t-188 -55.5q-177 0 -260.5 100.5t-83.5 315.5v569h-166v107h351v-619q0 -194 47.5 -266 t169.5 -72q128 0 195 94t67 273v483h-160v107z" />
<glyph unicode="&#x16e;" horiz-adv-x="1726" d="M287 1386h-191v107h584v-107h-191v-772q0 -286 93.5 -399t322.5 -113t322.5 113t93.5 399v772h-191v107h504v-107h-190v-792q0 -341 -131 -482t-445 -141t-447.5 142t-133.5 481v792zM1151 1879q0 -115 -79.5 -195t-194.5 -80t-194.5 80t-79.5 195t79.5 194.5t194.5 79.5 t194.5 -79.5t79.5 -194.5zM1029 1879q0 63 -44 107t-108 44q-65 0 -108.5 -43.5t-43.5 -107.5q0 -65 43.5 -108.5t108.5 -43.5q64 0 108 44t44 108z" />
<glyph unicode="&#x16f;" horiz-adv-x="1319" d="M725 1063h344v-957h174v-106h-358v188q-51 -106 -132 -161.5t-188 -55.5q-177 0 -260.5 100.5t-83.5 315.5v569h-166v107h351v-619q0 -194 47.5 -266t169.5 -72q128 0 195 94t67 273v483h-160v107zM871 1504q0 -115 -79.5 -195t-194.5 -80t-194.5 80t-79.5 195 t79.5 194.5t194.5 79.5t194.5 -79.5t79.5 -194.5zM749 1504q0 63 -44 107t-108 44q-65 0 -108.5 -43.5t-43.5 -107.5q0 -65 43.5 -108.5t108.5 -43.5q64 0 108 44t44 108z" />
<glyph unicode="&#x170;" horiz-adv-x="1726" d="M1134 1899h197l-262 -264h-117zM817 1899h197l-262 -264h-117zM287 1386h-191v107h584v-107h-191v-772q0 -286 93.5 -399t322.5 -113t322.5 113t93.5 399v772h-191v107h504v-107h-190v-792q0 -341 -131 -482t-445 -141t-447.5 142t-133.5 481v792z" />
<glyph unicode="&#x171;" horiz-adv-x="1319" d="M546 1638h170l-244 -376h-114zM876 1638h178l-287 -376h-116zM725 1063h344v-957h174v-106h-358v188q-51 -106 -132 -161.5t-188 -55.5q-177 0 -260.5 100.5t-83.5 315.5v569h-166v107h351v-619q0 -194 47.5 -266t169.5 -72q128 0 195 94t67 273v483h-160v107z" />
<glyph unicode="&#x172;" horiz-adv-x="1726" d="M287 1386h-191v107h584v-107h-191v-772q0 -286 93.5 -399t322.5 -113t322.5 113t93.5 399v772h-191v107h504v-107h-190v-792q0 -341 -131 -482t-445 -141t-447.5 142t-133.5 481v792zM821 -16h94l-1 -2q-87 -123 -87 -170q0 -46 33.5 -74t89.5 -28q27 0 56 6.5t59 19.5 l-1 -127q-36 -9 -69.5 -13.5t-65.5 -4.5q-113 0 -175 44.5t-62 125.5q0 49 30 101.5t99 121.5z" />
<glyph unicode="&#x173;" horiz-adv-x="1319" d="M725 1063h344v-957h174v-106h-358v188q-51 -106 -132 -161.5t-188 -55.5q-177 0 -260.5 100.5t-83.5 315.5v569h-166v107h351v-619q0 -194 47.5 -266t169.5 -72q128 0 195 94t67 273v483h-160v107zM1077 0h94l-1 -2q-87 -123 -87 -170q0 -46 33.5 -74t89.5 -28 q27 0 56 6.5t59 19.5l-1 -127q-36 -9 -69.5 -13.5t-65.5 -4.5q-113 0 -175 44.5t-62 125.5q0 49 30 101.5t99 121.5z" />
<glyph unicode="&#x174;" horiz-adv-x="2105" d="M966 1906h176l231 -264h-116l-203 161l-203 -161h-116zM1561 0h-164l-342 1214l-342 -1214h-164l-391 1386h-148v107h545v-107h-186l311 -1103l340 1210h162l346 -1223l313 1116h-172v107h430v-107h-147z" />
<glyph unicode="&#x175;" horiz-adv-x="1753" d="M796 1638h168l235 -376h-116l-203 260l-203 -260h-116zM983 1063l272 -830l240 723h-154v107h385v-107h-118l-316 -956h-153l-262 795l-263 -795h-147l-315 956h-119v107h481v-107h-172l238 -723l274 830h129z" />
<glyph unicode="&#x176;" horiz-adv-x="1352" d="M585 1906h176l231 -264h-116l-203 161l-203 -161h-116zM387 0v106h191v537l-461 743h-140v107h555v-107h-174l373 -604l373 604h-168v107h434v-107h-141l-449 -724v-556h191v-106h-584z" />
<glyph unicode="&#x177;" horiz-adv-x="1157" d="M488 1638h168l235 -376h-116l-203 260l-203 -260h-116zM442 -195l70 177l-397 974h-121v107h489v-107h-170l299 -731l299 731h-159v107h399v-107h-119l-487 -1196q-50 -124 -111 -169.5t-172 -45.5q-47 0 -96.5 8t-99.5 23v203h94q6 -68 34.5 -97.5t88.5 -29.5 q55 0 88.5 30.5t70.5 122.5z" />
<glyph unicode="&#x178;" horiz-adv-x="1352" d="M387 0v106h191v537l-461 743h-140v107h555v-107h-174l373 -604l373 604h-168v107h434v-107h-141l-449 -724v-556h191v-106h-584zM481 1884q48 0 82.5 -35t34.5 -81q0 -50 -33.5 -83.5t-83.5 -33.5q-49 0 -82.5 33.5t-33.5 83.5q0 46 34.5 81t81.5 35zM871 1884 q47 0 81.5 -35t34.5 -81q0 -50 -33.5 -83.5t-82.5 -33.5q-50 0 -83.5 33.5t-33.5 83.5q0 46 34.5 81t82.5 35z" />
<glyph unicode="&#x179;" horiz-adv-x="1423" d="M832 1900h197l-262 -264h-117zM92 0v72l930 1298h-772v-223h-123v346h1180v-72l-930 -1298h844v209h122v-332h-1251z" />
<glyph unicode="&#x17a;" horiz-adv-x="1079" d="M726 1590h199l-340 -376h-117zM82 0v86l666 870h-527v-184h-106v291h870v-86l-666 -871h578v193h107v-299h-922z" />
<glyph unicode="&#x17b;" horiz-adv-x="1423" d="M722 1904q47 0 82 -35t35 -81q0 -50 -33.5 -83.5t-83.5 -33.5t-83.5 33.5t-33.5 83.5q0 46 35 81t82 35zM92 0v72l930 1298h-772v-223h-123v346h1180v-72l-930 -1298h844v209h122v-332h-1251z" />
<glyph unicode="&#x17c;" horiz-adv-x="1079" d="M572 1503q48 0 82.5 -34.5t34.5 -82.5q0 -51 -33 -84t-84 -33t-84 33t-33 84q0 48 34.5 82.5t82.5 34.5zM82 0v86l666 870h-527v-184h-106v291h870v-86l-666 -871h578v193h107v-299h-922z" />
<glyph unicode="&#x17d;" horiz-adv-x="1423" d="M92 0v72l930 1298h-772v-223h-123v346h1180v-72l-930 -1298h844v209h122v-332h-1251zM625 1635l-231 264h116l203 -162l203 162h116l-231 -264h-176z" />
<glyph unicode="&#x17e;" horiz-adv-x="1079" d="M82 0v86l666 870h-527v-184h-106v291h870v-86l-666 -871h578v193h107v-299h-922zM457 1262l-235 376h116l203 -260l203 260h116l-235 -376h-168z" />
<glyph unicode="&#x17f;" horiz-adv-x="758" d="M434 106h236v-106h-596v106h176v850h-176v107h176v133q0 178 92.5 269t271.5 91q67 0 134 -12t133 -37v-202h-97q-1 75 -42.5 114t-120.5 39q-103 0 -145 -56q-42 -59 -42 -202v-1094z" />
<glyph unicode="&#x180;" horiz-adv-x="1311" d="M236 106v1104h-176v122h176v118h-176v106h360v-224h316v-122h-316v-313q54 100 137.5 147.5t206.5 47.5q196 0 320 -155t124 -405t-124 -405.5t-320 -155.5q-123 0 -206.5 47.5t-137.5 147.5v-166h-361v106h177zM420 479q0 -192 73.5 -292.5t213.5 -100.5 q141 0 213.5 113t72.5 333q0 221 -72.5 333t-213.5 112q-140 0 -213.5 -101t-73.5 -292v-105z" />
<glyph unicode="&#x181;" horiz-adv-x="1505" d="M303 1386q-227 0 -295 -89q-71 -91 -71 -277h-129v344q102 76 282 112q115 17 213 17h547q224 0 340 -93q115 -92 115 -276q0 -133 -79 -212q-80 -79 -233 -97q192 -24 289 -121q98 -98 98 -262q0 -222 -140 -327t-437 -105h-690v106h190v1280zM506 862h254q164 0 240 63 q75 63 75 199q0 157 -75 200q-107 62 -240 62h-254v-524zM506 106h299q180 0 263 78t83 248q0 167 -83 246q-82 78 -263 78h-299v-650z" />
<glyph unicode="&#x182;" horiz-adv-x="1505" d="M506 106h299q180 0 263 78t83 248q0 169 -82.5 246.5t-263.5 77.5h-299v-650zM113 1493h1201v-333h-123v210h-685v-508h254q380 0 500 -143t120 -287q0 -222 -140 -327t-437 -105h-690v106h190v1280h-190v107z" />
<glyph unicode="&#x183;" horiz-adv-x="1311" d="M420 479q0 -192 74 -293q73 -100 213 -100q141 0 213 113q73 113 73 333q0 221 -73 333q-72 112 -213 112q-140 0 -213 -101q-74 -101 -74 -292v-105zM1012 1556v-267h-105v144h-487v-536q54 100 138 147q83 48 206 48q196 0 320 -155t124 -405t-124 -406 q-124 -155 -320 -155q-123 0 -206 47q-84 48 -138 148v-166h-361v106h177v1344h-177v106h953z" />
<glyph unicode="&#x184;" horiz-adv-x="1505" d="M506 106h299q180 0 263 78t83 248q0 169 -82.5 246.5t-263.5 77.5h-299v-650zM113 1098l393 395v-631h254q380 0 522 -168q98 -118 98 -262q0 -222 -140 -327t-437 -105h-690v106h190v886h-190v106z" />
<glyph unicode="&#x185;" horiz-adv-x="1311" d="M420 479q0 -192 73.5 -292.5t213.5 -100.5q141 0 213.5 113t72.5 333q0 221 -72.5 333t-213.5 112q-140 0 -213.5 -101t-73.5 -292v-105zM420 1556v-659q54 100 137.5 147.5t206.5 47.5q196 0 320 -155t124 -405t-124 -405.5t-320 -155.5q-123 0 -206.5 47.5 t-137.5 147.5v-166h-361v106h177v1019h-177v126z" />
<glyph unicode="&#x186;" horiz-adv-x="1567" d="M115 1096q66 209 221.5 316.5t393.5 107.5q146 0 271 -50t222 -147q112 -112 166.5 -254.5t54.5 -322.5q0 -348 -201 -561.5t-530 -213.5q-122 0 -260 32t-297 97v344h113q37 -188 148.5 -277t312.5 -89q239 0 362 169.5t123 498.5q0 328 -123 497.5t-362 169.5 q-167 0 -275 -79.5t-156 -237.5h-184z" />
<glyph unicode="&#x187;" horiz-adv-x="1567" d="M1444 395q-66 -209 -222 -317q-155 -107 -393 -107q-146 0 -271 50t-222 147q-112 112 -166 254q-55 143 -55 323q0 348 201 561q201 214 530 214q122 0 260 -32q99 -23 208 -63q0 87 81 145q75 60 189 60q72 0 138 -16q65 -17 127 -50v-219h-95q0 96 -50 141 q-42 45 -124 45q-91 0 -134 -61t-43 -191v-232h-113q-37 188 -148 277q-112 89 -313 89q-239 0 -362 -169q-123 -170 -123 -499q0 -328 123 -497q123 -170 362 -170q167 0 275 80q108 79 156 237h184z" />
<glyph unicode="&#x188;" horiz-adv-x="1147" d="M1053 319q-39 -170 -150 -259t-287 -89q-232 0 -373 153q-141 154 -141 408q0 255 141 408q141 152 373 152q101 0 201 -24q49 -11 99 -29q17 144 99 216q60 53 184 53q72 0 137 -16q66 -17 128 -50v-219h-95q0 96 -49 141q-43 45 -125 45q-91 0 -135 -61 q-42 -61 -42 -191v-232h-107q-21 140 -91 204q-71 64 -202 64q-149 0 -225 -115q-76 -116 -76 -346t75 -346q76 -116 226 -116q119 0 190 62t97 187h148z" />
<glyph unicode="&#x189;" horiz-adv-x="1653" d="M514 106h188q291 0 447 166t156 476t-155.5 474t-447.5 164h-188v-542h336v-125h-336v-613zM123 0v106h190v613h-200v125h200v542h-190v107h594q386 0 601.5 -197t215.5 -548q0 -352 -216 -550t-601 -198h-594z" />
<glyph unicode="&#x18a;" horiz-adv-x="1642" d="M303 1386q-227 0 -295 -89q-71 -91 -71 -277h-129v344q138 103 282 112q94 17 213 17h404q386 0 601 -197q216 -197 216 -548q0 -352 -216 -550t-601 -198h-594v106h190v1280zM506 106h186q291 0 446 166q156 166 156 476t-155 474t-447 164h-186v-1280z" />
<glyph unicode="&#x18b;" horiz-adv-x="1505" d="M987 106v650h-299q-181 0 -264 -78q-82 -77 -82 -246q0 -170 83 -248t263 -78h299zM1380 1493v-107h-190v-1280h190v-106h-690q-297 0 -437 105t-140 327q0 144 98 262q142 168 522 168h254v508h-685v-209h-123v332h1201z" />
<glyph unicode="&#x18c;" horiz-adv-x="1311" d="M847 479v105q0 191 -73 292q-74 101 -214 101q-141 0 -214 -112q-72 -112 -72 -333q0 -220 72 -333q73 -113 214 -113q140 0 214 100q73 101 73 293zM255 1556h953v-106h-177v-1344h177v-106h-361v166q-54 -100 -137 -148q-84 -47 -207 -47q-196 0 -320 155 q-124 156 -124 406t124 405t320 155q123 0 207 -48q83 -47 137 -147v536h-487v-144h-105v267z" />
<glyph unicode="&#x18d;" horiz-adv-x="1233" d="M866 27q66 -25 99 -74q38 -56 38 -193q0 -129 -98 -197q-98 -67 -294 -67q-54 0 -158 16q-104 17 -216 48v197l108 25q12 -89 84 -135q72 -45 166 -45t163 49q73 52 70 118q0 95 -37 127q-77 75 -175 75q-233 0 -374 153q-140 153 -140 407t140 407q141 154 374 154 q232 0 373 -154q141 -153 141 -407t-140 -407q-63 -67 -124 -97zM616 993q-148 0 -224 -117q-75 -117 -75 -345t75 -345q76 -116 224 -116t224 116q75 117 75 345t-76 345t-223 117z" />
<glyph unicode="&#x18e;" horiz-adv-x="1495" d="M1331 0h-1218v332h123v-209h702v625h-489v-187h-123v496h123v-187h489v500h-686v-209h-123v332h1202v-107h-190v-1280h190v-106z" />
<glyph unicode="&#x18f;" horiz-adv-x="1679" d="M851 1413q-178 0 -286 -79q-108 -80 -156 -238h-184q66 209 221 316q156 108 394 108q325 0 525 -213t200 -562q0 -179 -55 -323q-55 -142 -167 -254q-99 -98 -224 -148q-126 -49 -279 -49q-152 0 -280 50q-127 50 -224 147q-112 112 -166 254q-55 142 -55 323v71h1218 q0 279 -123 428q-125 169 -359 169zM1334 694h-989q0 -292 124 -448q125 -168 371 -168q245 0 370 168q124 156 124 448z" />
<glyph unicode="&#x190;" horiz-adv-x="1276" d="M1147 1430v-263h-112q-13 126 -87.5 190t-244.5 64t-242 -69.5t-72 -207.5q0 -139 86.5 -210.5t304.5 -71.5h50v-106h-95q-219 0 -309 -89.5t-90 -254.5t88.5 -253.5t225.5 -88.5q136 0 230 69t101 126h184q-38 -105 -158.5 -199.5t-360.5 -94.5t-380.5 111.5 t-140.5 320.5q0 171 101.5 278.5t285.5 133.5q-156 32 -241 122.5t-85 225.5q0 168 123 262.5t392 94.5q207 0 446 -90z" />
<glyph unicode="&#x191;" horiz-adv-x="1421" d="M88 -426q-145 0 -291 68v235h114q0 -196 179 -196q119 0 166 75q48 77 47 293v1337h-190v107h1222v-332h-123v209h-706v-500h510v187h123v-496h-123v187h-510v-707q0 -313 -166 -412q-93 -55 -252 -55z" />
<glyph unicode="&#x192;" horiz-adv-x="758" d="M881 1305h-97q0 21 -4 40q-9 46 -38 74q-42 39 -121 39q-103 0 -145 -56q-42 -57 -42 -202v-137h297v-107h-297v-975q0 -178 -92 -269q-93 -91 -272 -91q-67 0 -134 12t-133 37v202h97q0 -21 4 -40q9 -46 38 -74q42 -39 121 -39q103 0 145 57q42 56 42 205v975h-176v107 h176v133q0 178 92 269q93 91 272 91q67 0 134 -12t133 -37v-202z" />
<glyph unicode="&#x193;" horiz-adv-x="1636" d="M1600 1531q-125 0 -161 -118q-16 -54 -16 -134v-232h-113v5q-52 267 -267 335q-81 26 -187 26q-258 0 -385 -166t-127 -502q0 -530 332 -640q83 -27 184 -27q226 0 412 112v385h-281v107h484v-557q-266 -154 -615 -154q-338 0 -542 211q-203 212 -203 563q0 354 204 565 q204 210 549 210q212 0 461 -84q25 77 86 134q64 60 189 60q141 0 265 -66v-219h-95q0 147 -110 177q-28 9 -64 9z" />
<glyph unicode="&#x194;" horiz-adv-x="1458" d="M614 733l-436 653h-160v107h592v-107h-176l320 -481l329 481h-192v107h489v-107h-168l-395 -575q555 -685 371 -855q-156 -144 -508 -144q-355 0 -416 200q-56 181 350 721zM680 636q-288 -378 -288 -580q0 -138 288 -138q272 0 272 138q0 212 -272 580z" />
<glyph unicode="&#x195;" horiz-adv-x="1909" d="M84 0v106h166v1344h-176v106h360v-682q51 108 132 163q82 55 190 55q178 0 259 -101q83 -103 83 -315v-325q0 -131 42 -191q43 -60 135 -61q125 0 237 130q91 107 91 297q0 154 -61 257q-61 102 -179 148v59h112q154 -64 243 -193q90 -130 90 -287q0 -111 -42 -207 q-43 -98 -124 -172q-72 -67 -166 -102q-95 -36 -201 -36q-164 0 -269 101q-93 83 -93 257v267q0 195 -47 266q-48 72 -170 72q-128 0 -195 -93t-67 -271v-486h160v-106h-510z" />
<glyph unicode="&#x196;" horiz-adv-x="809" d="M506 351q0 -131 42 -191q44 -61 135 -61h13v-99h-13q-201 0 -263 54q-117 101 -117 297v1035h-190v107h583v-107h-190v-1035z" />
<glyph unicode="&#x197;" horiz-adv-x="809" d="M506 106h190v-106h-583v106h190v613h-200v125h200v542h-190v107h583v-107h-190v-542h198v-125h-198v-613z" />
<glyph unicode="&#x198;" horiz-adv-x="1530" d="M1149 1386q149 131 273 131q67 0 132 -17q71 -18 128 -49v-219h-95q0 96 -49 141q-37 38 -98 43q-87 0 -162 -60l-604 -533l717 -717h170v-106h-347l-708 709v-603h190v-106h-583v106h190v1280h-190v107h583v-107h-190v-565z" />
<glyph unicode="&#x199;" horiz-adv-x="1241" d="M421 543l447 413h-153v107h481v-107h-182l-316 -292l404 -558h153v-106h-524v106h152l-318 437l-145 -135v-302h166v-106h-516v106h166v1099q0 162 98 257q97 94 268 94q77 0 138 -16q65 -17 127 -50v-219h-95q0 96 -50 141q-42 45 -124 45q-91 0 -134 -61 q-43 -59 -43 -191v-662z" />
<glyph unicode="&#x19a;" horiz-adv-x="655" d="M60 464v106h176v880h-177v106h361v-986h174v-106h-174v-358h174v-106h-535v106h177v358h-176z" />
<glyph unicode="&#x19b;" horiz-adv-x="1298" d="M532 1307q-37 92 -71 122q-35 31 -88 31q-60 0 -88 -29q-29 -30 -35 -98h-94v203q50 15 99 23q50 8 97 8q111 0 172 -46q61 -45 111 -169l147 98l60 -86l-167 -115l447 -1142h119v-107h-399v107h159l-283 734l-315 -734h170v-107h-489v107h121l413 977l-38 99l-267 -187 l-61 86l288 203z" />
<glyph unicode="&#x19c;" horiz-adv-x="1942" d="M899 207q-53 -117 -135.5 -176.5t-192.5 -59.5q-166 0 -249 103q-82 103 -82 313v1002h-166v106h510v-106h-160v-981q0 -163 48 -232t159 -69q123 0 187 93q65 94 65 271v918h-160v106h504v-106h-160v-988q0 -159 48 -226.5t159 -67.5q123 0 188 93q64 94 64 271v918 h-160v106h510v-106h-166v-1284h176v-105h-360v189q-51 -106 -130 -162t-179 -56q-124 0 -207 61.5t-111 174.5z" />
<glyph unicode="&#x19d;" horiz-adv-x="1792" d="M-205 -358v235h114q0 -99 47 -147q44 -49 132 -49q119 0 166 75t47 293v1337h-201v107h383l895 -1178v1071h-200v107h524v-107h-201v-1415h-121l-955 1257v-1187q0 -247 -99 -357t-291 -110q-20 0 -93 17q-74 17 -147 51z" />
<glyph unicode="&#x19e;" horiz-adv-x="1319" d="M84 0v106h166v850h-176v107h360v-189q51 108 132.5 163t189.5 55q176 0 259 -101t83 -315v-996h164v-106h-508v106h159v938q0 195 -48 267.5t-169 72.5q-128 0 -195 -93.5t-67 -272.5v-486h160v-106h-510z" />
<glyph unicode="&#x19f;" horiz-adv-x="1679" d="M840 -29q-152 0 -279.5 50t-224.5 147q-112 112 -166.5 254t-54.5 323t54.5 323.5t166.5 254.5q98 98 224 147.5t280 49.5q325 0 525 -213t200 -562q0 -179 -55 -323q-55 -142 -167 -254q-99 -98 -224 -148q-126 -49 -279 -49zM840 78q245 0 370 168q115 156 124 448 h-989q9 -292 124 -448q125 -168 371 -168zM1333 816q-12 279 -123 428q-125 169 -370 169q-246 0 -371 -169q-111 -149 -123 -428h987z" />
<glyph unicode="&#x1a0;" horiz-adv-x="1679" d="M835 78q245 0 370 168.5t125 498.5q0 331 -125 499.5t-370 168.5q-246 0 -371 -168.5t-125 -499.5q0 -330 125 -498.5t371 -168.5zM835 -29q-152 0 -279.5 50t-224.5 147q-112 112 -166.5 254t-54.5 323t54.5 323.5t166.5 254.5q98 98 224 147.5t280 49.5q325 0 525 -213 t200 -562q0 -179 -55 -322.5t-167 -254.5q-98 -98 -224 -147.5t-279 -49.5zM1222 1313v94l2 -1q122 -87 170 -87q46 0 74 33.5t28 89.5q0 27 -6 56t-20 59l128 -1q9 -36 13.5 -69.5t4.5 -65.5q0 -113 -45 -175t-125 -62q-49 0 -102 30t-122 99z" />
<glyph unicode="&#x1a1;" horiz-adv-x="1233" d="M613 70q148 0 223.5 117t75.5 345t-75.5 344.5t-223.5 116.5t-223.5 -116.5t-75.5 -344.5t76 -345t223 -117zM613 -29q-232 0 -373 153.5t-141 407.5t140.5 407t373.5 153t373.5 -153t140.5 -407t-140.5 -407.5t-373.5 -153.5zM929 845v94l2 -1q122 -87 170 -87 q46 0 74 33.5t28 89.5q0 27 -6 56t-20 59l128 -1q9 -36 13.5 -69.5t4.5 -65.5q0 -113 -45 -175t-125 -62q-49 0 -102 30t-122 99z" />
<glyph unicode="&#x1a2;" horiz-adv-x="2129" d="M840 -29q-152 0 -279.5 50t-224.5 147q-112 112 -166.5 254t-54.5 323t54.5 323.5t166.5 254.5q98 98 224 147.5t280 49.5q204 0 358 -84q61 26 122 40q73 17 144 17q220 0 319 -110t99 -357v-1240h190v-107h-625v107h232v1232q0 218 -47 293t-166 75q-88 0 -132 -48 q16 -15 31 -31q200 -213 200 -562q0 -179 -55 -323q-55 -142 -167 -254q-99 -98 -224 -148q-126 -49 -279 -49zM840 78q245 0 370 168.5t125 498.5q0 331 -125 499.5t-370 168.5q-246 0 -371 -168.5t-125 -499.5q0 -330 125 -498.5t371 -168.5z" />
<glyph unicode="&#x1a3;" horiz-adv-x="1653" d="M869 1033q0 2 45 13q65 17 137 17q171 0 268.5 -93.5t97.5 -257.5v-1031h176v-107h-534v107h174v1031q0 129 -43.5 190.5t-134.5 61.5q-65 0 -77 -13l12 -12q140 -153 140 -407t-140.5 -407.5t-373.5 -153.5q-232 0 -373 153.5t-141 407.5t140.5 407t373.5 153 q144 0 253 -59zM616 70q148 0 223.5 117t75.5 345t-75.5 344.5t-223.5 116.5t-223.5 -116.5t-75.5 -344.5t76 -345t223 -117z" />
<glyph unicode="&#x1a4;" horiz-adv-x="1378" d="M303 1493h516q224 0 355 -113q131 -114 131 -307q0 -192 -131 -306t-355 -114h-313v-547h231v-106h-624v106h190v1280q-227 0 -295 -89q-71 -91 -71 -277h-129v344q98 73 282 112q115 17 213 17zM506 760h264q149 0 227 80q78 81 78 233q0 153 -78 233t-227 80h-264v-626 z" />
<glyph unicode="&#x1a5;" horiz-adv-x="1311" d="M420 584v-105q0 -192 74 -293q73 -100 213 -100q141 0 213 113q73 113 73 333q0 221 -73 333q-72 112 -213 112q-140 0 -213 -101q-74 -101 -74 -292zM235 1115q0 166 97 258q98 93 269 93q67 0 137 -17q66 -16 128 -49v-219h-95q0 96 -49 141q-43 45 -125 45 q-91 0 -135 -62q-42 -60 -42 -190v-218q54 100 138 147q83 48 206 48q196 0 320 -155t124 -405t-124 -406q-124 -155 -320 -155q-123 0 -206 47q-84 48 -138 148v-485h174v-107h-535v107h176v1434z" />
<glyph unicode="&#x1a6;" horiz-adv-x="1542" d="M303 1386h-190v107h604v-107h-211v-218h364q218 0 336.5 -104t118.5 -295q0 -154 -86.5 -242.5t-257.5 -110.5q70 -19 121 -64q50 -46 90 -128l217 -443h182v-106h-352l-233 475q-68 139 -123 178q-56 41 -154 41h-223v-263h211v-106h-604v106h190v1280zM506 476h295 q151 0 223 71.5t72 221.5t-72 221t-223 71h-295v-585z" />
<glyph unicode="&#x1a7;" horiz-adv-x="1403" d="M1235 72q-132 -51 -259 -76q-128 -25 -251 -25q-275 0 -414 110t-139 327q0 159 86 254q87 94 290 155l185 55q201 60 263 121t62 168q0 123 -82 187q-83 65 -241 65q-181 0 -269 -71q-89 -70 -106 -228h-113v318q140 43 264 66q124 22 228 22q244 0 379 -105t135 -295 q0 -169 -87 -266q-88 -97 -302 -162l-197 -59q-182 -55 -239 -113q-56 -58 -56 -166q0 -135 94 -206q93 -70 271 -70q191 0 285 82q93 81 98 252h115v-340z" />
<glyph unicode="&#x1a8;" horiz-adv-x="1051" d="M946 59q-98 -44 -196 -66t-201 -22q-203 0 -319 87q-115 86 -115 237q0 111 67 181q66 71 217 118l146 45q135 42 180 83q45 40 45 107q0 82 -60 123q-59 41 -175 41q-117 0 -185 -58t-72 -161h-106v232q99 42 192 64t177 22q189 0 296 -83t107 -229q0 -102 -62 -168 q-61 -66 -198 -110l-133 -45q-153 -49 -201 -92q-47 -43 -47 -113q0 -89 65 -136q65 -46 189 -46q138 0 209 59q70 59 74 178h106v-248z" />
<glyph unicode="&#x1a9;" horiz-adv-x="1448" d="M960 814l-553 -626h780v144h123v-332h-1227l664 748l-664 745h1227v-332h-123v209h-695z" />
<glyph unicode="&#x1aa;" horiz-adv-x="664" d="M180 1459q-159 0 -159 -107q0 -123 311 -123q14 0 28 1q8 95 -45 167q-46 62 -135 62zM533 1333q31 61 31 156v64h100l-1 -64q-3 -220 -125 -306q-89 -540 -197 -1288q-16 -109 43 -190q43 -62 134 -62q82 0 125 46q42 44 49 140h95v-218q-62 -34 -127 -50 q-66 -16 -138 -16q-171 0 -268 93q-120 115 -98 257q-5 14 189 1234h-9q-538 0 -533 230q4 199 379 199q161 0 263 -93q65 -61 88 -132z" />
<glyph unicode="&#x1ab;" horiz-adv-x="823" d="M221 956h-162v107h162v330h185v-330h346v-107h-346v-675q0 -135 26 -173t96 -38q72 0 105 42.5t35 137.5h139v-354q0 -164 -97.5 -257.5t-268.5 -93.5q-72 0 -137.5 16.5t-127.5 49.5v219h95q7 -96 49.5 -141t124.5 -45q91 0 135 62q42 60 42 190v87q-48 -12 -110 -12 q-159 0 -225 70.5t-66 239.5v675z" />
<glyph unicode="&#x1ac;" horiz-adv-x="1366" d="M582 1493h764v-352h-123v233h-439v-1268h191v-106h-584v106h191v1268q-227 0 -296 -89q-70 -91 -70 -277h-129v356q102 76 282 112q120 17 213 17z" />
<glyph unicode="&#x1ad;" horiz-adv-x="823" d="M406 1063h346v-107h-346v-675q0 -135 26 -173t96 -38q72 0 105 42q33 43 35 138h139q0 -145 -79 -212q-71 -67 -216 -67q-159 0 -225 71q-66 70 -66 239v675h-162v107h162v142q0 162 98 257q97 94 268 94q77 0 138 -16q65 -17 127 -50v-219h-95q0 96 -50 141 q-42 45 -124 45q-91 0 -134 -61q-43 -59 -43 -191v-142z" />
<glyph unicode="&#x1ae;" horiz-adv-x="1366" d="M1290 -358q-73 -34 -146 -51q-74 -17 -145 -17q-220 0 -319 110t-98 357v1333h-439v-233h-123v352h1326v-352h-123v233h-439v-1325q0 -215 47 -293q45 -75 166 -75q88 0 132 49q44 48 47 147h114v-235z" />
<glyph unicode="&#x1af;" horiz-adv-x="1726" d="M281 1386h-191v107h584v-107h-191v-772q0 -286 93.5 -399t322.5 -113t322.5 113t93.5 399v772h-191v107h504v-107h-190v-792q0 -341 -131 -482t-445 -141t-447.5 142t-133.5 481v792zM1628 1399v94l2 -1q122 -87 170 -87q46 0 74 33.5t28 89.5q0 27 -6 56t-20 59l128 -1 q9 -36 13.5 -69.5t4.5 -65.5q0 -113 -45 -175t-125 -62q-49 0 -102 30t-122 99z" />
<glyph unicode="&#x1b0;" horiz-adv-x="1319" d="M714 1063h344v-957h174v-106h-358v188q-51 -106 -132 -161.5t-188 -55.5q-177 0 -260.5 100.5t-83.5 315.5v569h-166v107h351v-619q0 -194 47.5 -266t169.5 -72q128 0 195 94t67 273v483h-160v107zM1015 845v94l2 -1q122 -87 170 -87q46 0 74 33.5t28 89.5q0 27 -6 56 t-20 59l128 -1q9 -36 13.5 -69.5t4.5 -65.5q0 -113 -45 -175t-125 -62q-49 0 -102 30t-122 99z" />
<glyph unicode="&#x1b1;" horiz-adv-x="1698" d="M580 1356h-336v-137h-117v301h592v-182q-180 -70 -273 -226q-92 -155 -92 -387q0 -279 137 -449q137 -169 359 -169t359 169q137 170 137 449q0 233 -92 388t-271 225v182h590v-301h-117v137h-334q209 -87 331 -263t122 -390q0 -151 -57 -282q-58 -131 -168 -234 q-99 -91 -227 -139t-273 -48t-272 48q-127 47 -226 139q-111 103 -169 235q-58 131 -58 281q0 213 123 389q122 177 332 264z" />
<glyph unicode="&#x1b2;" horiz-adv-x="1556" d="M708 0q-213 -11 -288 54q-117 101 -117 297v1035h-190v107h583v-107h-190v-1035q0 -125 42 -191q30 -47 160 -53q214 -9 359 169q137 170 137 449q0 249 -92 388q-88 131 -240 159v114h108q222 -83 328 -258q125 -208 125 -425q0 -151 -57 -282q-59 -134 -168 -234 q-99 -91 -227 -139q-105 -39 -273 -48z" />
<glyph unicode="&#x1b3;" horiz-adv-x="1512" d="M780 106h191v-106h-584v106h191v537l-461 743h-140v107h555v-107h-174l373 -604l373 604q130 107 266 107q67 0 137 -17q66 -16 128 -49v-219h-95q-7 96 -49 141q-43 45 -125 45q-126 0 -177 -72l-409 -660v-556z" />
<glyph unicode="&#x1b4;" horiz-adv-x="1357" d="M981 825l-436 -1065q-50 -124 -111 -169.5t-172 -45.5q-47 0 -96.5 8t-99.5 23v203h94q6 -68 34.5 -97.5t88.5 -29.5q55 0 88.5 30.5t70.5 122.5l70 177l-397 974h-121v107h489v-107h-170l299 -731l266 645q50 124 111 169.5t172 45.5q47 0 96.5 -8t99.5 -23v-203h-94 q-6 68 -34.5 97.5t-88.5 29.5q-55 0 -88.5 -30.5t-70.5 -122.5z" />
<glyph unicode="&#x1b5;" horiz-adv-x="1423" d="M92 0v72l464 647h-306v125h395l377 526h-772v-223h-123v346h1180v-72l-413 -577h327v-125h-417l-427 -596h844v209h122v-332h-1251z" />
<glyph unicode="&#x1b6;" horiz-adv-x="1079" d="M82 0v86l289 378h-150v106h232l295 386h-527v-184h-106v291h870v-86l-311 -407h223v-106h-304l-274 -358h578v193h107v-299h-922z" />
<glyph unicode="&#x1b7;" horiz-adv-x="1156" d="M528 852h-95v102l344 416h-527v-223h-123v346h873v-125l-369 -445l79 -7q184 -29 286 -150q101 -120 101 -312q0 -234 -141 -359q-140 -124 -404 -124q-117 0 -228 28q-112 28 -222 85v324h112q10 -161 97 -244t245 -83q153 0 242 100q88 99 88 271q0 197 -91 299 q-91 101 -267 101z" />
<glyph unicode="&#x1b8;" horiz-adv-x="1156" d="M671 852q-176 0 -267 -101q-91 -102 -91 -299q0 -172 88 -271q89 -100 242 -100q158 0 245 83t97 244h112v-324q-110 -57 -222 -85q-111 -28 -228 -28q-264 0 -404 124q-141 125 -141 359q0 192 101 312q102 121 286 150l79 7l-369 445v125h873v-346h-123v223h-527 l344 -416v-102h-95z" />
<glyph unicode="&#x1b9;" horiz-adv-x="1156" d="M671 423q-176 0 -267 -101q-91 -102 -91 -299q0 -172 88 -271q89 -100 242 -100q158 0 245 83t97 244h112v-324q-110 -57 -222 -85q-111 -28 -228 -28q-264 0 -404 124q-141 125 -141 359q0 192 101 312q102 121 286 150l79 7l-369 483v86h870v-291h-106v184h-527 l330 -431v-102h-95z" />
<glyph unicode="&#x1ba;" horiz-adv-x="1156" d="M528 423h-95v102l330 431h-527v-184h-106v291h870v-86l-369 -483q439 -39 439 -212q0 -193 -376 -301.5t-376 -211.5q0 -117 279.5 -117t323.5 218h95v-154q-120 -174 -503 -174t-383 212q0 184 366 271t366 267q0 131 -334 131z" />
<glyph unicode="&#x1bb;" horiz-adv-x="1303" d="M262 1137h-112v266q107 57 215.5 87t212.5 30q233 0 368 -113t135 -307q0 -116 -86 -256h127v-125h-216q-56 -69 -131 -143l-36 -35l-377 -377h623v184h117v-348h-963v109l453 452q83 83 139 158h-469v125h548q60 122 60 256q0 151 -78.5 236t-216.5 85q-143 0 -221 -71 t-92 -213z" />
<glyph unicode="&#x1bc;" horiz-adv-x="1406" d="M867 840q184 -26 285.5 -133.5t101.5 -303.5q0 -209 -140.5 -320.5t-404.5 -111.5q-117 0 -228.5 25t-221.5 76v290h112q10 -144 97 -218t245 -74q153 0 241.5 88.5t88.5 242.5q0 176 -91 266.5t-267 90.5h-382v628h-190v107h1085v-332h-123v209h-569v-510h134 q85 0 227 -20z" />
<glyph unicode="&#x1bd;" horiz-adv-x="1156" d="M528 525l182 -21q184 -29 286 -150q101 -120 101 -329q0 -234 -141 -359q-140 -124 -404 -124q-117 0 -228 28q-112 28 -222 85v324h112q10 -161 97 -244t245 -83q153 0 242 100q88 99 88 271q0 197 -91 299q-91 101 -267 101h-312v535h-177v105h953v-267h-105v144h-487 v-415h128z" />
<glyph unicode="&#x1be;" horiz-adv-x="1098" d="M398 1393h184v-329h174v-106h-174v-171q114 -8 196 -85q98 -94 98 -322q0 -224 -98 -317q-97 -93 -268 -93q-72 0 -138 16q-65 16 -127 50v218h95q7 -96 50 -140q42 -46 124 -46q91 0 134 62q43 60 43 250q0 194 -43 254q-43 62 -134 62h-116v262h-176v106h176v329z" />
<glyph unicode="&#x1bf;" horiz-adv-x="1300" d="M420 950q155 197 428 197q184 0 261.5 -112.5t77.5 -265.5q0 -454 -767 -891v-197h174v-107h-535v107h177v1275h-177v107h361v-113zM420 -10q583 368 583 779q0 133 -60 208t-180 75q-170 0 -343 -239v-823z" />
<glyph unicode="&#x1c0;" horiz-adv-x="604" d="M383 1493v-1493h-162v1493h162z" />
<glyph unicode="&#x1c1;" horiz-adv-x="1008" d="M787 1493v-1493h-162v1493h162zM383 1493v-1493h-162v1493h162z" />
<glyph unicode="&#x1c2;" horiz-adv-x="940" d="M389 851h-371v162h371v480h162v-480h371v-162h-371v-209h371v-162h-371v-480h-162v480h-371v162h371v209z" />
<glyph unicode="&#x1c3;" horiz-adv-x="604" d="M383 156v-156h-162v156h162zM383 1493v-1181h-162v1181h162z" />
<glyph unicode="&#x1c4;" horiz-adv-x="3065" d="M1734 0v72l930 1298h-772v-223h-123v346h1180v-72l-930 -1298h844v209h122v-332h-1251zM2267 1635l-231 264h116l203 -162l203 162h116l-231 -264h-176zM506 106h186q291 0 446.5 166t155.5 476t-155 474t-447 164h-186v-1280zM113 0v106h190v1280h-190v107h594 q386 0 601.5 -197t215.5 -548q0 -352 -216 -550t-601 -198h-594z" />
<glyph unicode="&#x1c5;" horiz-adv-x="2721" d="M1724 0v86l666 870h-527v-184h-106v291h870v-86l-666 -871h578v193h107v-299h-922zM2099 1262l-235 376h116l203 -260l203 260h116l-235 -376h-168zM506 106h186q291 0 446.5 166t155.5 476t-155 474t-447 164h-186v-1280zM113 0v106h190v1280h-190v107h594 q386 0 601.5 -197t215.5 -548q0 -352 -216 -550t-601 -198h-594z" />
<glyph unicode="&#x1c6;" horiz-adv-x="2390" d="M1393 0v86l666 870h-527v-184h-106v291h870v-86l-666 -871h578v193h107v-299h-922zM1768 1262l-235 376h116l203 -260l203 260h116l-235 -376h-168zM1075 106h176v-106h-360v166q-54 -100 -137.5 -147.5t-206.5 -47.5q-196 0 -320.5 155.5t-124.5 405.5t124 405t321 155 q123 0 206.5 -47.5t137.5 -147.5v553h-174v106h358v-1450zM891 479v105q0 191 -73.5 292t-213.5 101q-142 0 -214.5 -112t-72.5 -333q0 -220 72.5 -333t214.5 -113q140 0 213.5 100.5t73.5 292.5z" />
<glyph unicode="&#x1c7;" horiz-adv-x="2181" d="M1188 -358v235h114q3 -99 47 -147.5t132 -48.5q119 0 166 75t47 293v1337h-232v107h625v-107h-190v-1345q0 -247 -99 -357t-319 -110q-71 0 -144.5 17t-146.5 51zM113 0v106h190v1280h-190v107h583v-107h-190v-1263h682v250h123v-373h-1198z" />
<glyph unicode="&#x1c8;" horiz-adv-x="1995" d="M1565 1393q0 46 33.5 80t80.5 34q46 0 79.5 -34t33.5 -80q0 -47 -32.5 -80t-80.5 -33q-47 0 -80.5 33t-33.5 80zM1610 956h-174v107h358v-1167q0 -164 -97.5 -257.5t-268.5 -93.5q-72 0 -137.5 16.5t-127.5 49.5v219h95q7 -96 49.5 -141t124.5 -45q91 0 134.5 61.5 t43.5 190.5v1060zM113 0v106h190v1280h-190v107h583v-107h-190v-1263h682v250h123v-373h-1198z" />
<glyph unicode="&#x1c9;" horiz-adv-x="1290" d="M860 1393q0 46 33.5 80t80.5 34q46 0 79.5 -34t33.5 -80q0 -47 -32.5 -80t-80.5 -33q-47 0 -80.5 33t-33.5 80zM905 956h-174v107h358v-1167q0 -164 -97.5 -257.5t-268.5 -93.5q-72 0 -137.5 16.5t-127.5 49.5v219h95q7 -96 49.5 -141t124.5 -45q91 0 134.5 61.5 t43.5 190.5v1060zM420 106h174v-106h-535v106h177v1344h-177v106h361v-1450z" />
<glyph unicode="&#x1ca;" horiz-adv-x="2613" d="M1620 -358v235h114q3 -99 47 -147.5t132 -48.5q119 0 166 75t47 293v1337h-232v107h625v-107h-190v-1345q0 -247 -99 -357t-319 -110q-71 0 -144.5 17t-146.5 51zM100 0v106h201v1280h-201v107h383l895 -1178v1071h-200v107h524v-107h-201v-1415h-121l-956 1258v-1123 h201v-106h-525z" />
<glyph unicode="&#x1cb;" horiz-adv-x="2427" d="M1997 1393q0 46 33.5 80t80.5 34q46 0 79.5 -34t33.5 -80q0 -47 -32.5 -80t-80.5 -33q-47 0 -80.5 33t-33.5 80zM2042 956h-174v107h358v-1167q0 -164 -97.5 -257.5t-268.5 -93.5q-72 0 -137.5 16.5t-127.5 49.5v219h95q7 -96 49.5 -141t124.5 -45q91 0 134.5 61.5 t43.5 190.5v1060zM100 0v106h201v1280h-201v107h383l895 -1178v1071h-200v107h524v-107h-201v-1415h-121l-956 1258v-1123h201v-106h-525z" />
<glyph unicode="&#x1cc;" horiz-adv-x="1954" d="M1524 1393q0 46 33.5 80t80.5 34q46 0 79.5 -34t33.5 -80q0 -47 -32.5 -80t-80.5 -33q-47 0 -80.5 33t-33.5 80zM1569 956h-174v107h358v-1167q0 -164 -97.5 -257.5t-268.5 -93.5q-72 0 -137.5 16.5t-127.5 49.5v219h95q7 -96 49.5 -141t124.5 -45q91 0 134.5 61.5 t43.5 190.5v1060zM84 0v106h166v850h-176v107h360v-189q51 108 132.5 163t189.5 55q176 0 259 -101t83 -315v-570h164v-106h-508v106h159v512q0 195 -48 267.5t-169 72.5q-128 0 -195 -93.5t-67 -272.5v-486h160v-106h-510z" />
<glyph unicode="&#x1cd;" horiz-adv-x="1479" d="M410 541h548l-274 710zM-12 0v106h131l532 1387h168l533 -1387h147v-106h-543v106h166l-125 328h-628l-125 -328h164v-106h-420zM649 1635l-231 264h116l203 -162l203 162h116l-231 -264h-176z" />
<glyph unicode="&#x1ce;" horiz-adv-x="1221" d="M815 334v225h-237q-137 0 -204 -59t-67 -181q0 -111 68 -176t184 -65q115 0 185.5 71t70.5 185zM999 664v-558h164v-106h-348v115q-61 -74 -141 -109t-187 -35q-177 0 -281 94t-104 254q0 165 119 256t336 91h258v73q0 121 -73.5 187.5t-206.5 66.5q-110 0 -175 -50 t-81 -148h-95v215q96 41 186.5 61.5t176.5 20.5q221 0 336.5 -109.5t115.5 -318.5zM484 1262l-235 376h116l203 -260l203 260h116l-235 -376h-168z" />
<glyph unicode="&#x1cf;" horiz-adv-x="809" d="M506 106h190v-106h-583v106h190v1280h-190v107h583v-107h-190v-1280zM317 1635l-231 264h116l203 -162l203 162h116l-231 -264h-176z" />
<glyph unicode="&#x1d0;" horiz-adv-x="655" d="M434 106h174v-106h-534v106h176v850h-176v107h360v-957zM243 1262l-235 376h116l203 -260l203 260h116l-235 -376h-168z" />
<glyph unicode="&#x1d1;" horiz-adv-x="1679" d="M840 78q245 0 370 168.5t125 498.5q0 331 -125 499.5t-370 168.5q-246 0 -371 -168.5t-125 -499.5q0 -330 125 -498.5t371 -168.5zM840 -29q-152 0 -279.5 50t-224.5 147q-112 112 -166.5 254t-54.5 323t54.5 323.5t166.5 254.5q98 98 224 147.5t280 49.5q325 0 525 -213 t200 -562q0 -179 -55 -322.5t-167 -254.5q-98 -98 -224 -147.5t-279 -49.5zM751 1635l-231 264h116l203 -162l203 162h116l-231 -264h-176z" />
<glyph unicode="&#x1d2;" horiz-adv-x="1233" d="M616 70q148 0 223.5 117t75.5 345t-75.5 344.5t-223.5 116.5t-223.5 -116.5t-75.5 -344.5t76 -345t223 -117zM616 -29q-232 0 -373 153.5t-141 407.5t140.5 407t373.5 153t373.5 -153t140.5 -407t-140.5 -407.5t-373.5 -153.5zM531 1262l-235 376h116l203 -260l203 260 h116l-235 -376h-168z" />
<glyph unicode="&#x1d3;" horiz-adv-x="1726" d="M287 1386h-191v107h584v-107h-191v-772q0 -286 93.5 -399t322.5 -113t322.5 113t93.5 399v772h-191v107h504v-107h-190v-792q0 -341 -131 -482t-445 -141t-447.5 142t-133.5 481v792zM815 1635l-231 264h116l203 -162l203 162h116l-231 -264h-176z" />
<glyph unicode="&#x1d4;" horiz-adv-x="1319" d="M725 1063h344v-957h174v-106h-358v188q-51 -106 -132 -161.5t-188 -55.5q-177 0 -260.5 100.5t-83.5 315.5v569h-166v107h351v-619q0 -194 47.5 -266t169.5 -72q128 0 195 94t67 273v483h-160v107zM499 1262l-235 376h116l203 -260l203 260h116l-235 -376h-168z" />
<glyph unicode="&#x1d5;" horiz-adv-x="1726" d="M708 1852q48 0 82.5 -35t34.5 -81q0 -50 -33.5 -83.5t-83.5 -33.5q-49 0 -82.5 33.5t-33.5 83.5q0 46 34.5 81t81.5 35zM1098 1852q47 0 81.5 -35t34.5 -81q0 -50 -33.5 -83.5t-82.5 -33.5q-50 0 -83.5 33.5t-33.5 83.5q0 46 34.5 81t82.5 35zM605 2099h598v-148h-598 v148zM287 1386h-191v107h584v-107h-191v-772q0 -286 93.5 -399t322.5 -113t322.5 113t93.5 399v772h-191v107h504v-107h-190v-792q0 -341 -131 -482t-445 -141t-447.5 142t-133.5 481v792z" />
<glyph unicode="&#x1d6;" horiz-adv-x="1319" d="M388 1568q48 0 82.5 -35t34.5 -81q0 -50 -33.5 -83.5t-83.5 -33.5q-49 0 -82.5 33.5t-33.5 83.5q0 46 34.5 81t81.5 35zM778 1568q47 0 81.5 -35t34.5 -81q0 -50 -33.5 -83.5t-82.5 -33.5q-50 0 -83.5 33.5t-33.5 83.5q0 46 34.5 81t82.5 35zM285 1815h598v-148h-598v148 zM725 1063h344v-957h174v-106h-358v188q-51 -106 -132 -161.5t-188 -55.5q-177 0 -260.5 100.5t-83.5 315.5v569h-166v107h351v-619q0 -194 47.5 -266t169.5 -72q128 0 195 94t67 273v483h-160v107z" />
<glyph unicode="&#x1d7;" horiz-adv-x="1726" d="M287 1386h-191v107h584v-107h-191v-772q0 -286 93.5 -399t322.5 -113t322.5 113t93.5 399v772h-191v107h504v-107h-190v-792q0 -341 -131 -482t-445 -141t-447.5 142t-133.5 481v792zM708 1852q48 0 82.5 -35t34.5 -81q0 -50 -33.5 -83.5t-83.5 -33.5q-49 0 -82.5 33.5 t-33.5 83.5q0 46 34.5 81t81.5 35zM1098 1852q47 0 81.5 -35t34.5 -81q0 -50 -33.5 -83.5t-82.5 -33.5q-50 0 -83.5 33.5t-33.5 83.5q0 46 34.5 81t82.5 35zM1018 2138h197l-262 -264h-117z" />
<glyph unicode="&#x1d8;" horiz-adv-x="1319" d="M389 1568q48 0 82.5 -35t34.5 -81q0 -50 -33.5 -83.5t-83.5 -33.5q-49 0 -82.5 33.5t-33.5 83.5q0 46 34.5 81t81.5 35zM779 1568q47 0 81.5 -35t34.5 -81q0 -50 -33.5 -83.5t-82.5 -33.5q-50 0 -83.5 33.5t-33.5 83.5q0 46 34.5 81t82.5 35zM699 1854h197l-262 -264 h-117zM725 1063h344v-957h174v-106h-358v188q-51 -106 -132 -161.5t-188 -55.5q-177 0 -260.5 100.5t-83.5 315.5v569h-166v107h351v-619q0 -194 47.5 -266t169.5 -72q128 0 195 94t67 273v483h-160v107z" />
<glyph unicode="&#x1d9;" horiz-adv-x="1726" d="M287 1386h-191v107h584v-107h-191v-772q0 -286 93.5 -399t322.5 -113t322.5 113t93.5 399v772h-191v107h504v-107h-190v-792q0 -341 -131 -482t-445 -141t-447.5 142t-133.5 481v792zM708 1852q48 0 82.5 -35t34.5 -81q0 -50 -33.5 -83.5t-83.5 -33.5q-49 0 -82.5 33.5 t-33.5 83.5q0 46 34.5 81t81.5 35zM1098 1852q47 0 81.5 -35t34.5 -81q0 -50 -33.5 -83.5t-82.5 -33.5q-50 0 -83.5 33.5t-33.5 83.5q0 46 34.5 81t82.5 35zM815 1872l-231 264h116l203 -162l203 162h116l-231 -264h-176z" />
<glyph unicode="&#x1da;" horiz-adv-x="1319" d="M389 1568q48 0 82.5 -35t34.5 -81q0 -50 -33.5 -83.5t-83.5 -33.5q-49 0 -82.5 33.5t-33.5 83.5q0 46 34.5 81t81.5 35zM779 1568q47 0 81.5 -35t34.5 -81q0 -50 -33.5 -83.5t-82.5 -33.5q-50 0 -83.5 33.5t-33.5 83.5q0 46 34.5 81t82.5 35zM496 1588l-231 264h116 l203 -162l203 162h116l-231 -264h-176zM725 1063h344v-957h174v-106h-358v188q-51 -106 -132 -161.5t-188 -55.5q-177 0 -260.5 100.5t-83.5 315.5v569h-166v107h351v-619q0 -194 47.5 -266t169.5 -72q128 0 195 94t67 273v483h-160v107z" />
<glyph unicode="&#x1db;" horiz-adv-x="1726" d="M708 1852q48 0 82.5 -35t34.5 -81q0 -50 -33.5 -83.5t-83.5 -33.5q-49 0 -82.5 33.5t-33.5 83.5q0 46 34.5 81t81.5 35zM1098 1852q47 0 81.5 -35t34.5 -81q0 -50 -33.5 -83.5t-82.5 -33.5q-50 0 -83.5 33.5t-33.5 83.5q0 46 34.5 81t82.5 35zM785 2138l183 -264h-117 l-262 264h196zM287 1386h-191v107h584v-107h-191v-772q0 -286 93.5 -399t322.5 -113t322.5 113t93.5 399v772h-191v107h504v-107h-190v-792q0 -341 -131 -482t-445 -141t-447.5 142t-133.5 481v792z" />
<glyph unicode="&#x1dc;" horiz-adv-x="1319" d="M389 1568q48 0 82.5 -35t34.5 -81q0 -50 -33.5 -83.5t-83.5 -33.5q-49 0 -82.5 33.5t-33.5 83.5q0 46 34.5 81t81.5 35zM779 1568q47 0 81.5 -35t34.5 -81q0 -50 -33.5 -83.5t-82.5 -33.5q-50 0 -83.5 33.5t-33.5 83.5q0 46 34.5 81t82.5 35zM466 1854l183 -264h-117 l-262 264h196zM725 1063h344v-957h174v-106h-358v188q-51 -106 -132 -161.5t-188 -55.5q-177 0 -260.5 100.5t-83.5 315.5v569h-166v107h351v-619q0 -194 47.5 -266t169.5 -72q128 0 195 94t67 273v483h-160v107z" />
<glyph unicode="&#x1dd;" horiz-adv-x="1212" d="M102 551h793v8q0 215 -81 325q-81 109 -239 109q-121 0 -199 -63q-77 -64 -108 -189h-148q44 175 162 263q119 88 312 88q233 0 374 -154q142 -153 142 -407q0 -252 -139 -406t-365 -154q-241 0 -370 149q-129 148 -134 431zM319 445q6 -186 79 -281q72 -94 208 -94 q127 0 200 95t89 280h-576z" />
<glyph unicode="&#x1de;" horiz-adv-x="1479" d="M544 1852q48 0 82.5 -35t34.5 -81q0 -50 -33.5 -83.5t-83.5 -33.5q-49 0 -82.5 33.5t-33.5 83.5q0 46 34.5 81t81.5 35zM934 1852q47 0 81.5 -35t34.5 -81q0 -50 -33.5 -83.5t-82.5 -33.5q-50 0 -83.5 33.5t-33.5 83.5q0 46 34.5 81t82.5 35zM441 2099h598v-148h-598v148 zM410 541h548l-274 710zM-12 0v106h131l532 1387h168l533 -1387h147v-106h-543v106h166l-125 328h-628l-125 -328h164v-106h-420z" />
<glyph unicode="&#x1df;" horiz-adv-x="1221" d="M374 1568q48 0 82.5 -35t34.5 -81q0 -50 -33.5 -83.5t-83.5 -33.5q-49 0 -82.5 33.5t-33.5 83.5q0 46 34.5 81t81.5 35zM764 1568q47 0 81.5 -35t34.5 -81q0 -50 -33.5 -83.5t-82.5 -33.5q-50 0 -83.5 33.5t-33.5 83.5q0 46 34.5 81t82.5 35zM271 1815h598v-148h-598v148 zM815 334v225h-237q-137 0 -204 -59t-67 -181q0 -111 68 -176t184 -65q115 0 185.5 71t70.5 185zM999 664v-558h164v-106h-348v115q-61 -74 -141 -109t-187 -35q-177 0 -281 94t-104 254q0 165 119 256t336 91h258v73q0 121 -73.5 187.5t-206.5 66.5q-110 0 -175 -50 t-81 -148h-95v215q96 41 186.5 61.5t176.5 20.5q221 0 336.5 -109.5t115.5 -318.5z" />
<glyph unicode="&#x1e0;" horiz-adv-x="1479" d="M440 2099h598v-148h-598v148zM738 1849q47 0 82 -35t35 -81q0 -50 -33.5 -83.5t-83.5 -33.5t-83.5 33.5t-33.5 83.5q0 46 35 81t82 35zM410 541h548l-274 710zM-12 0v106h131l532 1387h168l533 -1387h147v-106h-543v106h166l-125 328h-628l-125 -328h164v-106h-420z" />
<glyph unicode="&#x1e1;" horiz-adv-x="1221" d="M271 1818h598v-148h-598v148zM569 1568q47 0 82 -35t35 -81q0 -50 -33.5 -83.5t-83.5 -33.5t-83.5 33.5t-33.5 83.5q0 46 35 81t82 35zM815 334v225h-237q-137 0 -204 -59t-67 -181q0 -111 68 -176t184 -65q115 0 185.5 71t70.5 185zM999 664v-558h164v-106h-348v115 q-61 -74 -141 -109t-187 -35q-177 0 -281 94t-104 254q0 165 119 256t336 91h258v73q0 121 -73.5 187.5t-206.5 66.5q-110 0 -175 -50t-81 -148h-95v215q96 41 186.5 61.5t176.5 20.5q221 0 336.5 -109.5t115.5 -318.5z" />
<glyph unicode="&#x1e2;" horiz-adv-x="2050" d="M900 1841h598v-148h-598v148zM426 541h489v845h-100zM725 0v106h190v328h-538l-152 -328h164v-106h-424v106h131l590 1280h-215v107h1456v-332h-123v209h-688v-500h492v187h123v-496h-123v187h-492v-625h705v209h123v-332h-1219z" />
<glyph unicode="&#x1e3;" horiz-adv-x="1925" d="M634 1526h598v-148h-598v148zM815 334v225h-237q-137 0 -204 -59t-67 -181q0 -111 68 -176t184 -65q115 0 185.5 71t70.5 185zM924 150q-83 -91 -184 -135t-226 -44q-197 0 -304.5 91t-107.5 257q0 165 119.5 256t335.5 91h258v73q0 120 -72 187t-200 67 q-116 0 -182 -49.5t-82 -148.5h-95v215q96 41 186.5 61.5t176.5 20.5q141 0 237.5 -43.5t151.5 -133.5q74 88 170 132.5t213 44.5q241 0 370 -149t133 -431h-792v-8q0 -215 80.5 -324.5t239.5 -109.5q121 0 198.5 63.5t108.5 188.5h147q-43 -175 -162 -263t-311 -88 q-122 0 -225.5 45.5t-181.5 133.5zM1606 618q-6 186 -78.5 280.5t-208.5 94.5q-127 0 -200.5 -95t-88.5 -280h576z" />
<glyph unicode="&#x1e4;" horiz-adv-x="1736" d="M1311 1047q-35 187 -146 276.5t-309 89.5q-258 0 -385 -166t-127 -502q0 -329 131 -498t385 -169q113 0 216 28t196 84v130h-444v107h444v148h-281v107h484v-255h201v-107h-201v-195q-133 -77 -286.5 -115.5t-328.5 -38.5q-338 0 -541.5 211.5t-203.5 562.5 q0 354 204 564.5t549 210.5q128 0 264.5 -29.5t290.5 -89.5v-354h-112z" />
<glyph unicode="&#x1e5;" horiz-adv-x="1311" d="M891 479h-241v107h241q0 190 -73 290q-74 101 -214 101q-142 0 -214.5 -112t-72.5 -333q0 -220 72.5 -333t214.5 -113q140 0 213.5 100.5t73.5 292.5zM1075 479v-456q0 -229 -126 -353.5t-359 -124.5q-105 0 -201 19t-184 57v223h96q18 -104 85 -152t192 -48 q162 0 237.5 91.5t75.5 287.5v143q-54 -100 -137.5 -147.5t-206.5 -47.5q-196 0 -320.5 155.5t-124.5 405.5t124 405t321 155q123 0 206.5 -47.5t137.5 -147.5v166h360v-107h-176v-370h176v-107h-176z" />
<glyph unicode="&#x1e6;" horiz-adv-x="1636" d="M769 1635l-231 264h116l203 -162l203 162h116l-231 -264h-176zM1311 1047q-35 187 -146 276.5t-309 89.5q-258 0 -385 -166t-127 -502q0 -329 131 -498t385 -169q113 0 216 28t196 84v385h-281v107h484v-557q-133 -77 -286.5 -115.5t-328.5 -38.5q-338 0 -541.5 211.5 t-203.5 562.5q0 354 204 564.5t549 210.5q128 0 264.5 -29.5t290.5 -89.5v-354h-112z" />
<glyph unicode="&#x1e7;" horiz-adv-x="1311" d="M520 1262l-235 376h116l203 -260l203 260h116l-235 -376h-168zM1075 956v-933q0 -229 -126 -353.5t-359 -124.5q-105 0 -201 19t-184 57v223h96q18 -104 85 -152t192 -48q162 0 237.5 91.5t75.5 287.5v143q-54 -100 -137.5 -147.5t-206.5 -47.5q-196 0 -320.5 155.5 t-124.5 405.5t124 405t321 155q123 0 206.5 -47.5t137.5 -147.5v166h360v-107h-176zM891 584q0 191 -73.5 292t-213.5 101q-142 0 -214.5 -112t-72.5 -333q0 -220 72.5 -333t214.5 -113q140 0 213.5 100.5t73.5 292.5v105z" />
<glyph unicode="&#x1e8;" horiz-adv-x="1530" d="M751 1635l-231 264h116l203 -162l203 162h116l-231 -264h-176zM113 0v106h190v1280h-190v107h583v-107h-190v-565l643 565h-162v107h496v-107h-168l-641 -563l717 -717h170v-106h-347l-708 709v-603h190v-106h-583z" />
<glyph unicode="&#x1e9;" horiz-adv-x="1241" d="M243 1705l-231 264h116l203 -162l203 162h116l-231 -264h-176zM586 0h-516v106h166v1344h-177v106h361v-1013l448 413h-153v107h481v-107h-182l-316 -292l404 -558h153v-106h-524v106h152l-318 437l-145 -135v-302h166v-106z" />
<glyph unicode="&#x1ea;" horiz-adv-x="1679" d="M793 -16h94l-1 -2q-87 -123 -87 -170q0 -46 33.5 -74t89.5 -28q27 0 56 6.5t59 19.5l-1 -127q-36 -9 -69.5 -13.5t-65.5 -4.5q-113 0 -175 44.5t-62 125.5q0 49 30 101.5t99 121.5zM840 78q245 0 370 168.5t125 498.5q0 331 -125 499.5t-370 168.5q-246 0 -371 -168.5 t-125 -499.5q0 -330 125 -498.5t371 -168.5zM840 -29q-152 0 -279.5 50t-224.5 147q-112 112 -166.5 254t-54.5 323t54.5 323.5t166.5 254.5q98 98 224 147.5t280 49.5q325 0 525 -213t200 -562q0 -179 -55 -322.5t-167 -254.5q-98 -98 -224 -147.5t-279 -49.5z" />
<glyph unicode="&#x1eb;" horiz-adv-x="1233" d="M569 -16h94l-1 -2q-87 -123 -87 -170q0 -46 33.5 -74t89.5 -28q27 0 56 6.5t59 19.5l-1 -127q-36 -9 -69.5 -13.5t-65.5 -4.5q-113 0 -175 44.5t-62 125.5q0 49 30 101.5t99 121.5zM616 70q148 0 223.5 117t75.5 345t-75.5 344.5t-223.5 116.5t-223.5 -116.5 t-75.5 -344.5t76 -345t223 -117zM616 -29q-232 0 -373 153.5t-141 407.5t140.5 407t373.5 153t373.5 -153t140.5 -407t-140.5 -407.5t-373.5 -153.5z" />
<glyph unicode="&#x1ec;" horiz-adv-x="1679" d="M541 1842h598v-148h-598v148zM793 -16h94l-1 -2q-87 -123 -87 -170q0 -46 33.5 -74t89.5 -28q27 0 56 6.5t59 19.5l-1 -127q-36 -9 -69.5 -13.5t-65.5 -4.5q-113 0 -175 44.5t-62 125.5q0 49 30 101.5t99 121.5zM840 78q245 0 370 168.5t125 498.5q0 331 -125 499.5 t-370 168.5q-246 0 -371 -168.5t-125 -499.5q0 -330 125 -498.5t371 -168.5zM840 -29q-152 0 -279.5 50t-224.5 147q-112 112 -166.5 254t-54.5 323t54.5 323.5t166.5 254.5q98 98 224 147.5t280 49.5q325 0 525 -213t200 -562q0 -179 -55 -322.5t-167 -254.5 q-98 -98 -224 -147.5t-279 -49.5z" />
<glyph unicode="&#x1ed;" horiz-adv-x="1233" d="M317 1526h598v-148h-598v148zM569 -16h94l-1 -2q-87 -123 -87 -170q0 -46 33.5 -74t89.5 -28q27 0 56 6.5t59 19.5l-1 -127q-36 -9 -69.5 -13.5t-65.5 -4.5q-113 0 -175 44.5t-62 125.5q0 49 30 101.5t99 121.5zM616 70q148 0 223.5 117t75.5 345t-75.5 344.5 t-223.5 116.5t-223.5 -116.5t-75.5 -344.5t76 -345t223 -117zM616 -29q-232 0 -373 153.5t-141 407.5t140.5 407t373.5 153t373.5 -153t140.5 -407t-140.5 -407.5t-373.5 -153.5z" />
<glyph unicode="&#x1ee;" horiz-adv-x="1156" d="M499 1635l-231 264h116l203 -162l203 162h116l-231 -264h-176zM528 852h-95v102l344 416h-527v-223h-123v346h873v-125l-369 -445l79 -7q184 -29 286 -150q101 -120 101 -312q0 -234 -141 -359q-140 -124 -404 -124q-117 0 -228 28q-112 28 -222 85v324h112 q10 -161 97 -244t245 -83q153 0 242 100q88 99 88 271q0 197 -91 299q-91 101 -267 101z" />
<glyph unicode="&#x1ef;" horiz-adv-x="1156" d="M457 1262l-235 376h116l203 -260l203 260h116l-235 -376h-168zM528 423h-95v102l330 431h-527v-184h-106v291h870v-86l-369 -483l79 -7q184 -29 286 -150q101 -120 101 -312q0 -234 -141 -359q-140 -124 -404 -124q-117 0 -228 28q-112 28 -222 85v324h112 q10 -161 97 -244t245 -83q153 0 242 100q88 99 88 271q0 197 -91 299q-91 101 -267 101z" />
<glyph unicode="&#x1f0;" horiz-adv-x="655" d="M250 956h-174v107h358v-1167q0 -164 -97.5 -257.5t-268.5 -93.5q-72 0 -137.5 16.5t-127.5 49.5v219h95q7 -96 49.5 -141t124.5 -45q91 0 134.5 61.5t43.5 190.5v1060zM243 1262l-235 376h116l203 -260l203 260h116l-235 -376h-168z" />
<glyph unicode="&#x1f1;" horiz-adv-x="3065" d="M1734 0v72l930 1298h-772v-223h-123v346h1180v-72l-930 -1298h844v209h122v-332h-1251zM506 106h186q291 0 446.5 166t155.5 476t-155 474t-447 164h-186v-1280zM113 0v106h190v1280h-190v107h594q386 0 601.5 -197t215.5 -548q0 -352 -216 -550t-601 -198h-594z" />
<glyph unicode="&#x1f2;" horiz-adv-x="2721" d="M1724 0v86l666 870h-527v-184h-106v291h870v-86l-666 -871h578v193h107v-299h-922zM506 106h186q291 0 446.5 166t155.5 476t-155 474t-447 164h-186v-1280zM113 0v106h190v1280h-190v107h594q386 0 601.5 -197t215.5 -548q0 -352 -216 -550t-601 -198h-594z" />
<glyph unicode="&#x1f3;" horiz-adv-x="2390" d="M1393 0v86l666 870h-527v-184h-106v291h870v-86l-666 -871h578v193h107v-299h-922zM1075 106h176v-106h-360v166q-54 -100 -137.5 -147.5t-206.5 -47.5q-196 0 -320.5 155.5t-124.5 405.5t124 405t321 155q123 0 206.5 -47.5t137.5 -147.5v553h-174v106h358v-1450z M891 479v105q0 191 -73.5 292t-213.5 101q-142 0 -214.5 -112t-72.5 -333q0 -220 72.5 -333t214.5 -113q140 0 213.5 100.5t73.5 292.5z" />
<glyph unicode="&#x1f4;" horiz-adv-x="1636" d="M916 1899h197l-262 -264h-117zM1311 1047q-35 187 -146 276.5t-309 89.5q-258 0 -385 -166t-127 -502q0 -329 131 -498t385 -169q113 0 216 28t196 84v385h-281v107h484v-557q-133 -77 -286.5 -115.5t-328.5 -38.5q-338 0 -541.5 211.5t-203.5 562.5q0 354 204 564.5 t549 210.5q128 0 264.5 -29.5t290.5 -89.5v-354h-112z" />
<glyph unicode="&#x1f5;" horiz-adv-x="1311" d="M743 1638h199l-340 -376h-117zM1075 956v-933q0 -229 -126 -353.5t-359 -124.5q-105 0 -201 19t-184 57v223h96q18 -104 85 -152t192 -48q162 0 237.5 91.5t75.5 287.5v143q-54 -100 -137.5 -147.5t-206.5 -47.5q-196 0 -320.5 155.5t-124.5 405.5t124 405t321 155 q123 0 206.5 -47.5t137.5 -147.5v166h360v-107h-176zM891 584q0 191 -73.5 292t-213.5 101q-142 0 -214.5 -112t-72.5 -333q0 -220 72.5 -333t214.5 -113q140 0 213.5 100.5t73.5 292.5v105z" />
<glyph unicode="&#x1f6;" horiz-adv-x="2363" d="M1280 594v154h-774v-642h190v-106h-583v106h190v1280h-190v107h583v-107h-190v-516h774v516h-190v107h583v-107h-190v-772q0 -286 93 -399q94 -113 224 -113q144 0 214 113q74 118 74 399v341h-174v108h358v-469q0 -341 -132 -482q-130 -141 -330 -141q-261 0 -396 142 q-134 142 -134 481z" />
<glyph unicode="&#x1f7;" horiz-adv-x="1447" d="M506 281q623 430 623 833q0 143 -60.5 221t-189.5 78q-187 0 -373 -257v-875zM506 1308q165 212 464 212q198 0 281.5 -121t83.5 -285q0 -485 -829 -958v-476h231v-106h-624v106h190v1706h-190v107h393v-185z" />
<glyph unicode="&#x1f8;" horiz-adv-x="1792" d="M813 1899l183 -264h-117l-262 264h196zM100 0v106h201v1280h-201v107h383l895 -1178v1071h-200v107h524v-107h-201v-1415h-121l-956 1258v-1123h201v-106h-525z" />
<glyph unicode="&#x1f9;" horiz-adv-x="1319" d="M455 1636l260 -376h-117l-340 376h197zM84 0v106h166v850h-176v107h360v-189q51 108 132.5 163t189.5 55q176 0 259 -101t83 -315v-570h164v-106h-508v106h159v512q0 195 -48 267.5t-169 72.5q-128 0 -195 -93.5t-67 -272.5v-486h160v-106h-510z" />
<glyph unicode="&#x1fa;" horiz-adv-x="1479" d="M702 1206l-34 2l-258 -667h548zM887 1459q0 63 -44.5 107.5t-107.5 44.5q-64 0 -107.5 -43.5t-43.5 -108.5q0 -63 43.5 -107t107.5 -44q63 0 107.5 44t44.5 107zM828 1899h197l-210 -176q64 -19 115 -69q80 -81 80 -195q0 -80 -39 -143q-23 -38 -59 -66l440 -1144h147 v-106h-543v106h166l-125 328h-628l-125 -328h164v-106h-420v106h131l438 1143q-35 29 -59 66q-37 61 -37 144q0 114 80 195q63 63 147 76z" />
<glyph unicode="&#x1fb;" horiz-adv-x="1221" d="M815 334v225h-237q-137 0 -204 -59t-67 -181q0 -111 68 -176t184 -65q115 0 185.5 71t70.5 185zM999 664v-558h164v-106h-348v115q-61 -74 -141 -109t-187 -35q-177 0 -281 94t-104 254q0 165 119 256t336 91h258v73q0 121 -73.5 187.5t-206.5 66.5q-110 0 -175 -50 t-81 -148h-95v215q96 41 186.5 61.5t176.5 20.5q221 0 336.5 -109.5t115.5 -318.5zM661 1899h197l-184 -185q49 -20 90 -60q79 -80 79 -195t-79.5 -195t-194.5 -80t-194.5 80t-79.5 195t79 195q72 71 172 78zM721 1459q0 63 -44 107t-108 44q-65 0 -108.5 -43.5 t-43.5 -107.5q0 -65 43.5 -108.5t108.5 -43.5q64 0 108 44t44 108z" />
<glyph unicode="&#x1fc;" horiz-adv-x="2050" d="M1259 1899h197l-262 -264h-117zM426 541h489v845h-100zM725 0v106h190v328h-538l-152 -328h164v-106h-424v106h131l590 1280h-215v107h1456v-332h-123v209h-688v-500h492v187h123v-496h-123v187h-492v-625h705v209h123v-332h-1219z" />
<glyph unicode="&#x1fd;" horiz-adv-x="1925" d="M1065 1643h199l-340 -376h-117zM815 334v225h-237q-137 0 -204 -59t-67 -181q0 -111 68 -176t184 -65q115 0 185.5 71t70.5 185zM924 150q-83 -91 -184 -135t-226 -44q-197 0 -304.5 91t-107.5 257q0 165 119.5 256t335.5 91h258v73q0 120 -72 187t-200 67 q-116 0 -182 -49.5t-82 -148.5h-95v215q96 41 186.5 61.5t176.5 20.5q141 0 237.5 -43.5t151.5 -133.5q74 88 170 132.5t213 44.5q241 0 370 -149t133 -431h-792v-8q0 -215 80.5 -324.5t239.5 -109.5q121 0 198.5 63.5t108.5 188.5h147q-43 -175 -162 -263t-311 -88 q-122 0 -225.5 45.5t-181.5 133.5zM1606 618q-6 186 -78.5 280.5t-208.5 94.5q-127 0 -200.5 -95t-88.5 -280h576z" />
<glyph unicode="&#x1fe;" horiz-adv-x="1679" d="M904 1899h197l-262 -264h-117zM1214 1239q-65 88 -157.5 131t-216.5 43q-246 0 -371 -168.5t-125 -499.5q0 -119 16 -215.5t50 -177.5zM463 256q64 -89 158 -133.5t219 -44.5q245 0 370 168.5t125 498.5q0 117 -16.5 215.5t-50.5 180.5zM1391 1276q87 -108 130.5 -239.5 t43.5 -291.5q0 -345 -200.5 -559.5t-524.5 -214.5q-141 0 -260 43t-220 129l-182 -200l-78 69l187 207q-87 105 -129.5 235.5t-42.5 290.5q0 346 201 560.5t524 214.5q141 0 261 -42.5t216 -125.5l178 198l80 -71z" />
<glyph unicode="&#x1ff;" horiz-adv-x="1233" d="M860 1638h199l-340 -376h-117zM840 879q-38 57 -94 85.5t-130 28.5q-147 0 -223 -117t-76 -344q0 -72 7.5 -131t21.5 -108zM391 190q40 -61 95.5 -90.5t129.5 -29.5q147 0 223 117.5t76 344.5q0 76 -7.5 136.5t-22.5 111.5zM1004 922q62 -74 94 -173t32 -217 q0 -254 -140.5 -407.5t-373.5 -153.5q-94 0 -174 26.5t-147 80.5l-143 -172l-76 63l149 178q-61 77 -92 173.5t-31 211.5q0 254 140.5 407t373.5 153q94 0 174 -25.5t144 -75.5l139 166l76 -63z" />
<glyph unicode="&#x200;" horiz-adv-x="1479" d="M489 1899l182 -264h-117l-262 264h197zM806 1899l182 -264h-117l-262 264h197zM410 541h548l-274 710zM-12 0v106h131l532 1387h168l533 -1387h147v-106h-543v106h166l-125 328h-628l-125 -328h164v-106h-420z" />
<glyph unicode="&#x201;" horiz-adv-x="1221" d="M630 1638l188 -376h-114l-244 376h170zM300 1638l225 -376h-116l-287 376h178zM815 334v225h-237q-137 0 -204 -59t-67 -181q0 -111 68 -176t184 -65q115 0 185.5 71t70.5 185zM999 664v-558h164v-106h-348v115q-61 -74 -141 -109t-187 -35q-177 0 -281 94t-104 254 q0 165 119 256t336 91h258v73q0 121 -73.5 187.5t-206.5 66.5q-110 0 -175 -50t-81 -148h-95v215q96 41 186.5 61.5t176.5 20.5q221 0 336.5 -109.5t115.5 -318.5z" />
<glyph unicode="&#x202;" horiz-adv-x="1479" d="M1052 1694h-96q-13 79 -65 114.5t-152 35.5t-152 -35.5t-65 -114.5h-96q10 143 89 215t224 72t224 -72t89 -215zM410 541h548l-274 710zM-12 0v106h131l532 1387h168l533 -1387h147v-106h-543v106h166l-125 328h-628l-125 -328h164v-106h-420z" />
<glyph unicode="&#x203;" horiz-adv-x="1221" d="M882 1321h-96q-13 79 -65 114.5t-152 35.5t-152 -35.5t-65 -114.5h-96q10 143 89 215t224 72t224 -72t89 -215zM815 334v225h-237q-137 0 -204 -59t-67 -181q0 -111 68 -176t184 -65q115 0 185.5 71t70.5 185zM999 664v-558h164v-106h-348v115q-61 -74 -141 -109 t-187 -35q-177 0 -281 94t-104 254q0 165 119 256t336 91h258v73q0 121 -73.5 187.5t-206.5 66.5q-110 0 -175 -50t-81 -148h-95v215q96 41 186.5 61.5t176.5 20.5q221 0 336.5 -109.5t115.5 -318.5z" />
<glyph unicode="&#x204;" horiz-adv-x="1495" d="M519 1899l182 -264h-117l-262 264h197zM836 1899l182 -264h-117l-262 264h197zM113 0v106h190v1280h-190v107h1202v-332h-123v209h-686v-500h489v187h123v-496h-123v187h-489v-625h702v209h123v-332h-1218z" />
<glyph unicode="&#x205;" horiz-adv-x="1212" d="M667 1638l188 -376h-114l-244 376h170zM337 1638l225 -376h-116l-287 376h178zM1110 512h-793v-8q0 -215 81 -324.5t239 -109.5q121 0 198.5 63.5t108.5 188.5h148q-44 -175 -162.5 -263t-311.5 -88q-233 0 -374.5 153.5t-141.5 407.5q0 252 139 406t365 154 q241 0 370 -148.5t134 -431.5zM893 618q-6 186 -78.5 280.5t-208.5 94.5q-127 0 -200 -95t-89 -280h576z" />
<glyph unicode="&#x206;" horiz-adv-x="1495" d="M1061 1694h-96q-13 79 -65 114.5t-152 35.5t-152 -35.5t-65 -114.5h-96q10 143 89 215t224 72t224 -72t89 -215zM113 0v106h190v1280h-190v107h1202v-332h-123v209h-686v-500h489v187h123v-496h-123v187h-489v-625h702v209h123v-332h-1218z" />
<glyph unicode="&#x207;" horiz-adv-x="1212" d="M919 1321h-96q-13 79 -65 114.5t-152 35.5t-152 -35.5t-65 -114.5h-96q10 143 89 215t224 72t224 -72t89 -215zM1110 512h-793v-8q0 -215 81 -324.5t239 -109.5q121 0 198.5 63.5t108.5 188.5h148q-44 -175 -162.5 -263t-311.5 -88q-233 0 -374.5 153.5t-141.5 407.5 q0 252 139 406t365 154q241 0 370 -148.5t134 -431.5zM893 618q-6 186 -78.5 280.5t-208.5 94.5q-127 0 -200 -95t-89 -280h576z" />
<glyph unicode="&#x208;" horiz-adv-x="809" d="M159 1899l182 -264h-117l-262 264h197zM476 1899l182 -264h-117l-262 264h197zM506 106h190v-106h-583v106h190v1280h-190v107h583v-107h-190v-1280z" />
<glyph unicode="&#x209;" horiz-adv-x="655" d="M434 106h174v-106h-534v106h176v850h-176v107h360v-957zM386 1638l188 -376h-114l-244 376h170zM56 1638l225 -376h-116l-287 376h178z" />
<glyph unicode="&#x20a;" horiz-adv-x="809" d="M719 1694h-96q-13 79 -65 114.5t-152 35.5t-152 -35.5t-65 -114.5h-96q10 143 89 215t224 72t224 -72t89 -215zM506 106h190v-106h-583v106h190v1280h-190v107h583v-107h-190v-1280z" />
<glyph unicode="&#x20b;" horiz-adv-x="655" d="M641 1321h-96q-13 79 -65 114.5t-152 35.5t-152 -35.5t-65 -114.5h-96q10 143 89 215t224 72t224 -72t89 -215zM434 106h174v-106h-534v106h176v850h-176v107h360v-957z" />
<glyph unicode="&#x20c;" horiz-adv-x="1679" d="M591 1899l182 -264h-117l-262 264h197zM908 1899l182 -264h-117l-262 264h197zM840 78q245 0 370 168.5t125 498.5q0 331 -125 499.5t-370 168.5q-246 0 -371 -168.5t-125 -499.5q0 -330 125 -498.5t371 -168.5zM840 -29q-152 0 -279.5 50t-224.5 147 q-112 112 -166.5 254t-54.5 323t54.5 323.5t166.5 254.5q98 98 224 147.5t280 49.5q325 0 525 -213t200 -562q0 -179 -55 -322.5t-167 -254.5q-98 -98 -224 -147.5t-279 -49.5z" />
<glyph unicode="&#x20d;" horiz-adv-x="1233" d="M677 1638l188 -376h-114l-244 376h170zM347 1638l225 -376h-116l-287 376h178zM616 70q148 0 223.5 117t75.5 345t-75.5 344.5t-223.5 116.5t-223.5 -116.5t-75.5 -344.5t76 -345t223 -117zM616 -29q-232 0 -373 153.5t-141 407.5t140.5 407t373.5 153t373.5 -153 t140.5 -407t-140.5 -407.5t-373.5 -153.5z" />
<glyph unicode="&#x20e;" horiz-adv-x="1679" d="M1153 1694h-96q-13 79 -65 114.5t-152 35.5t-152 -35.5t-65 -114.5h-96q10 143 89 215t224 72t224 -72t89 -215zM840 78q245 0 370 168.5t125 498.5q0 331 -125 499.5t-370 168.5q-246 0 -371 -168.5t-125 -499.5q0 -330 125 -498.5t371 -168.5zM840 -29 q-152 0 -279.5 50t-224.5 147q-112 112 -166.5 254t-54.5 323t54.5 323.5t166.5 254.5q98 98 224 147.5t280 49.5q325 0 525 -213t200 -562q0 -179 -55 -322.5t-167 -254.5q-98 -98 -224 -147.5t-279 -49.5z" />
<glyph unicode="&#x20f;" horiz-adv-x="1233" d="M929 1321h-96q-13 79 -65 114.5t-152 35.5t-152 -35.5t-65 -114.5h-96q10 143 89 215t224 72t224 -72t89 -215zM616 70q148 0 223.5 117t75.5 345t-75.5 344.5t-223.5 116.5t-223.5 -116.5t-75.5 -344.5t76 -345t223 -117zM616 -29q-232 0 -373 153.5t-141 407.5 t140.5 407t373.5 153t373.5 -153t140.5 -407t-140.5 -407.5t-373.5 -153.5z" />
<glyph unicode="&#x210;" horiz-adv-x="1542" d="M483 1899l182 -264h-117l-262 264h197zM800 1899l182 -264h-117l-262 264h197zM981 741q70 -19 120.5 -64.5t90.5 -127.5l217 -443h182v-106h-352l-233 475q-67 138 -123 178.5t-154 40.5h-223v-588h211v-106h-604v106h190v1280h-190v107h757q218 0 336.5 -104 t118.5 -295q0 -154 -86.5 -242.5t-257.5 -110.5zM506 801h295q151 0 223 71.5t72 221.5t-72 221t-223 71h-295v-585z" />
<glyph unicode="&#x211;" horiz-adv-x="979" d="M613 1638l188 -376h-114l-244 376h170zM283 1638l225 -376h-116l-287 376h178zM979 1065v-266h-106q-5 79 -44 118t-114 39q-136 0 -208.5 -94t-72.5 -270v-486h213v-106h-563v106h166v852h-176v105h360v-189q54 111 139 164.5t207 53.5q45 0 94.5 -7t104.5 -20z" />
<glyph unicode="&#x212;" horiz-adv-x="1542" d="M1044 1694h-96q-13 79 -65 114.5t-152 35.5t-152 -35.5t-65 -114.5h-96q10 143 89 215t224 72t224 -72t89 -215zM981 741q70 -19 120.5 -64.5t90.5 -127.5l217 -443h182v-106h-352l-233 475q-67 138 -123 178.5t-154 40.5h-223v-588h211v-106h-604v106h190v1280h-190v107 h757q218 0 336.5 -104t118.5 -295q0 -154 -86.5 -242.5t-257.5 -110.5zM506 801h295q151 0 223 71.5t72 221.5t-72 221t-223 71h-295v-585z" />
<glyph unicode="&#x213;" horiz-adv-x="979" d="M865 1321h-96q-13 79 -65 114.5t-152 35.5t-152 -35.5t-65 -114.5h-96q10 143 89 215t224 72t224 -72t89 -215zM979 1065v-266h-106q-5 79 -44 118t-114 39q-136 0 -208.5 -94t-72.5 -270v-486h213v-106h-563v106h166v852h-176v105h360v-189q54 111 139 164.5t207 53.5 q45 0 94.5 -7t104.5 -20z" />
<glyph unicode="&#x214;" horiz-adv-x="1726" d="M653 1899l182 -264h-117l-262 264h197zM970 1899l182 -264h-117l-262 264h197zM287 1386h-191v107h584v-107h-191v-772q0 -286 93.5 -399t322.5 -113t322.5 113t93.5 399v772h-191v107h504v-107h-190v-792q0 -341 -131 -482t-445 -141t-447.5 142t-133.5 481v792z" />
<glyph unicode="&#x215;" horiz-adv-x="1319" d="M645 1638l188 -376h-114l-244 376h170zM315 1638l225 -376h-116l-287 376h178zM725 1063h344v-957h174v-106h-358v188q-51 -106 -132 -161.5t-188 -55.5q-177 0 -260.5 100.5t-83.5 315.5v569h-166v107h351v-619q0 -194 47.5 -266t169.5 -72q128 0 195 94t67 273v483 h-160v107z" />
<glyph unicode="&#x216;" horiz-adv-x="1726" d="M1216 1694h-96q-13 79 -65 114.5t-152 35.5t-152 -35.5t-65 -114.5h-96q10 143 89 215t224 72t224 -72t89 -215zM287 1386h-191v107h584v-107h-191v-772q0 -286 93.5 -399t322.5 -113t322.5 113t93.5 399v772h-191v107h504v-107h-190v-792q0 -341 -131 -482t-445 -141 t-447.5 142t-133.5 481v792z" />
<glyph unicode="&#x217;" horiz-adv-x="1319" d="M897 1321h-96q-13 79 -65 114.5t-152 35.5t-152 -35.5t-65 -114.5h-96q10 143 89 215t224 72t224 -72t89 -215zM725 1063h344v-957h174v-106h-358v188q-51 -106 -132 -161.5t-188 -55.5q-177 0 -260.5 100.5t-83.5 315.5v569h-166v107h351v-619q0 -194 47.5 -266 t169.5 -72q128 0 195 94t67 273v483h-160v107z" />
<glyph unicode="&#x218;" horiz-adv-x="1403" d="M190 72v340l115 -1q5 -170 98.5 -251.5t284.5 -81.5q178 0 271.5 70.5t93.5 205.5q0 108 -56.5 166t-238.5 113l-197 59q-214 65 -301.5 162t-87.5 266q0 190 135 295t379 105q104 0 228 -22.5t264 -65.5v-318h-113q-17 158 -105.5 228.5t-269.5 70.5 q-158 0 -240.5 -64.5t-82.5 -187.5q0 -107 62 -168t263 -121l185 -55q203 -61 289.5 -155.5t86.5 -253.5q0 -217 -139 -327t-414 -110q-123 0 -250.5 25t-259.5 76zM528 -412q76 42 111 98t35 136v22h158q-7 -103 -65 -176q-58 -74 -175 -128z" />
<glyph unicode="&#x219;" horiz-adv-x="1051" d="M115 59v248h106q4 -119 74.5 -178t208.5 -59q124 0 189 46.5t65 135.5q0 70 -47.5 113t-200.5 92l-133 45q-137 44 -198.5 110t-61.5 168q0 146 107 229t296 83q84 0 177 -22t192 -64v-232h-106q-4 103 -72 161t-185 58q-116 0 -175.5 -41t-59.5 -123q0 -67 45 -107.5 t180 -82.5l146 -45q151 -47 217.5 -117.5t66.5 -181.5q0 -151 -115.5 -237.5t-318.5 -86.5q-103 0 -201 22t-196 66zM311 -412q76 42 111 98t35 136v22h158q-7 -103 -65 -176q-58 -74 -175 -128z" />
<glyph unicode="&#x21a;" horiz-adv-x="1366" d="M391 0v106h191v1268h-439v-233h-123v352h1326v-352h-123v233h-439v-1268h191v-106h-584zM446 -412q76 42 111 98t35 136v22h158q-7 -103 -65 -176q-58 -74 -175 -128z" />
<glyph unicode="&#x21b;" horiz-adv-x="823" d="M221 956h-162v107h162v330h185v-330h346v-107h-346v-675q0 -135 26 -173t96 -38q72 0 105 42.5t35 137.5h139q-8 -145 -79 -212t-216 -67q-159 0 -225 70.5t-66 239.5v675zM262 -412q76 42 111 98t35 136v22h158q-7 -103 -65 -176q-58 -74 -175 -128z" />
<glyph unicode="&#x21c;" horiz-adv-x="1284" d="M156 1391q316 129 499 129t316 -104.5t133 -278.5t-76.5 -280t-196.5 -183q138 -19 223 -133t85 -227q0 -218 -140 -350.5t-380.5 -226.5t-462.5 -167v115q192 69 368 155.5t284 201t108 250t-70 206.5q-119 121 -287 39l-231 -113v108l234 123q138 73 239 209 q76 103 76 259t-84 223t-202.5 72t-213.5 -98q-81 -103 -108 -273h-113v344z" />
<glyph unicode="&#x21d;" horiz-adv-x="1068" d="M306 943q-103 -67 -128 -235h-107v272q90 43 217.5 76.5t265.5 29t254 -86.5t116 -207.5t-68.5 -211.5t-176.5 -149q124 -15 200.5 -102.5t76.5 -168.5q0 -177 -127.5 -285.5t-361 -191.5t-396.5 -116v100q157 43 321.5 112t273.5 172q84 80 84 182.5t-62 159.5 q-97 88 -256 26l-206 -80v100l206 86q116 48 202 151q77 94 77 198.5t-71.5 159t-159.5 54.5q-105 0 -174 -45z" />
<glyph unicode="&#x21e;" horiz-adv-x="1786" d="M810 1635l-231 264h116l203 -162l203 162h116l-231 -264h-176zM113 0v106h190v1280h-190v107h583v-107h-190v-516h774v516h-190v107h583v-107h-190v-1280h190v-106h-583v106h190v642h-774v-642h190v-106h-583z" />
<glyph unicode="&#x21f;" horiz-adv-x="1319" d="M243 1705l-231 264h116l203 -162l203 162h116l-231 -264h-176zM84 0v106h166v1344h-176v106h360v-682q51 108 132.5 163t189.5 55q176 0 259 -101t83 -315v-570h164v-106h-508v106h159v512q0 195 -47.5 266.5t-169.5 71.5q-128 0 -195 -93t-67 -271v-486h160v-106h-510z " />
<glyph unicode="&#x220;" horiz-adv-x="1726" d="M96 0v107h191v1279h-176v107h379v-201q74 114 191 172t272 58q253 0 372 -145.5t119 -454.5v-1241h190v-107h-586v107h191v1200q0 292 -75 401t-265 109q-200 0 -304.5 -128.5t-104.5 -375.5v-780h190v-107h-584z" />
<glyph unicode="&#x221;" horiz-adv-x="1667" d="M1255 -51q267 0 267 107q0 123 -419 123q-14 0 -28 -1q-8 -95 45 -167q46 -62 135 -62zM891 479v105q0 191 -73.5 292t-213.5 101q-142 0 -214.5 -112t-72.5 -333q0 -220 72.5 -333t214.5 -113q140 0 213.5 100.5t73.5 292.5zM1075 279h15h9q538 0 533 -230 q-4 -199 -379 -199q-161 0 -263 93q-65 61 -88 132q-31 -61 -31 -156v-64h-100l1 64q1 66 13 120q-15 -11 -31 -21q-84 -47 -207 -47q-196 0 -320.5 155.5t-124.5 405.5t124 405t321 155q123 0 206.5 -47.5t137.5 -147.5v553h-174v106h358v-1277z" />
<glyph unicode="&#x222;" horiz-adv-x="1171" d="M306 1156q0 -105 344 -274q221 116 221 312q0 229 -220 229v97q385 0 385 -350q0 -200 -279 -347q357 -212 357 -455q0 -397 -529 -397q-503 0 -503 397q0 235 324 404q-270 157 -270 338q0 274 353 272v-98q-183 0 -183 -128zM585 70q299 0 299 298q0 175 -370 347 q-265 -132 -265 -347q0 -298 336 -298z" />
<glyph unicode="&#x223;" horiz-adv-x="1131" d="M565 70q279 0 279 308q0 210 -344 379q-251 -128 -251 -379q0 -308 316 -308zM820 1252q0 96 -130 245l112 59q167 -156 167 -348q0 -219 -241 -348q300 -192 300 -482q0 -407 -463 -407t-463 407q0 271 295 436q-251 151 -251 375q0 150 178 367l83 -52 q-121 -157 -121 -266q0 -143 337 -318q197 108 197 332z" />
<glyph unicode="&#x224;" horiz-adv-x="1423" d="M92 0v72l930 1298h-772v-223h-123v346h1180v-72l-930 -1298h769h197q-8 -171 -80.5 -293.5t-218.5 -212.5l-80 80q94 69 138 163q29 61 39 140h-1049z" />
<glyph unicode="&#x225;" horiz-adv-x="1079" d="M82 0v86l666 870h-527v-184h-106v291h870v-86l-666 -871h488h197q-8 -171 -80.5 -293.5t-218.5 -212.5l-80 80q94 69 138 162q32 69 41 158h-722z" />
<glyph unicode="&#x226;" horiz-adv-x="1479" d="M739 1886q47 0 82 -35t35 -81q0 -50 -33.5 -83.5t-83.5 -33.5t-83.5 33.5t-33.5 83.5q0 46 35 81t82 35zM410 541h548l-274 710zM-12 0v106h131l532 1387h168l533 -1387h147v-106h-543v106h166l-125 328h-628l-125 -328h164v-106h-420z" />
<glyph unicode="&#x227;" horiz-adv-x="1221" d="M569 1569q48 0 82.5 -34.5t34.5 -82.5q0 -51 -33 -84t-84 -33t-84 33t-33 84q0 48 34.5 82.5t82.5 34.5zM815 334v225h-237q-137 0 -204 -59t-67 -181q0 -111 68 -176t184 -65q115 0 185.5 71t70.5 185zM999 664v-558h164v-106h-348v115q-61 -74 -141 -109t-187 -35 q-177 0 -281 94t-104 254q0 165 119 256t336 91h258v73q0 121 -73.5 187.5t-206.5 66.5q-110 0 -175 -50t-81 -148h-95v215q96 41 186.5 61.5t176.5 20.5q221 0 336.5 -109.5t115.5 -318.5z" />
<glyph unicode="&#x228;" horiz-adv-x="1495" d="M859 0q64 -64 95.5 -120t31.5 -105q0 -81 -63 -125.5t-175 -44.5q-42 0 -86 6t-90 18v131q41 -17 80.5 -25.5t74.5 -8.5q57 0 90 26.5t33 71.5q0 28 -22 72t-66 104h97zM113 0v106h190v1280h-190v107h1202v-332h-123v209h-686v-500h489v187h123v-496h-123v187h-489v-625 h702v209h123v-332h-1218z" />
<glyph unicode="&#x229;" horiz-adv-x="1212" d="M661 0q64 -64 95.5 -120t31.5 -105q0 -81 -63 -125.5t-175 -44.5q-42 0 -86 6t-90 18v131q41 -17 80.5 -25.5t74.5 -8.5q57 0 90 26.5t33 71.5q0 28 -22 72t-66 104h97zM1110 512h-793v-8q0 -215 81 -324.5t239 -109.5q121 0 198.5 63.5t108.5 188.5h148 q-44 -175 -162.5 -263t-311.5 -88q-233 0 -374.5 153.5t-141.5 407.5q0 252 139 406t365 154q241 0 370 -148.5t134 -431.5zM893 618q-6 186 -78.5 280.5t-208.5 94.5q-127 0 -200 -95t-89 -280h576z" />
<glyph unicode="&#x22a;" horiz-adv-x="1679" d="M645 1852q48 0 82.5 -35t34.5 -81q0 -50 -33.5 -83.5t-83.5 -33.5q-49 0 -82.5 33.5t-33.5 83.5q0 46 34.5 81t81.5 35zM1035 1852q47 0 81.5 -35t34.5 -81q0 -50 -33.5 -83.5t-82.5 -33.5q-50 0 -83.5 33.5t-33.5 83.5q0 46 34.5 81t82.5 35zM542 2099h598v-148h-598 v148zM840 78q245 0 370 168.5t125 498.5q0 331 -125 499.5t-370 168.5q-246 0 -371 -168.5t-125 -499.5q0 -330 125 -498.5t371 -168.5zM840 -29q-152 0 -279.5 50t-224.5 147q-112 112 -166.5 254t-54.5 323t54.5 323.5t166.5 254.5q98 98 224 147.5t280 49.5 q325 0 525 -213t200 -562q0 -179 -55 -322.5t-167 -254.5q-98 -98 -224 -147.5t-279 -49.5z" />
<glyph unicode="&#x22b;" horiz-adv-x="1233" d="M421 1568q48 0 82.5 -35t34.5 -81q0 -50 -33.5 -83.5t-83.5 -33.5q-49 0 -82.5 33.5t-33.5 83.5q0 46 34.5 81t81.5 35zM811 1568q47 0 81.5 -35t34.5 -81q0 -50 -33.5 -83.5t-82.5 -33.5q-50 0 -83.5 33.5t-33.5 83.5q0 46 34.5 81t82.5 35zM318 1815h598v-148h-598v148 zM616 70q148 0 223.5 117t75.5 345t-75.5 344.5t-223.5 116.5t-223.5 -116.5t-75.5 -344.5t76 -345t223 -117zM616 -29q-232 0 -373 153.5t-141 407.5t140.5 407t373.5 153t373.5 -153t140.5 -407t-140.5 -407.5t-373.5 -153.5z" />
<glyph unicode="&#x22c;" horiz-adv-x="1679" d="M538 2099h598v-148h-598v148zM827 1690l-48 28q-20 13 -40.5 20t-37.5 7q-39 0 -65 -28.5t-30 -74.5l-96 1q2 100 53 159t136 59q36 0 67 -9t86 -40l49 -26q23 -13 45 -20t39 -7q41 0 64.5 27.5t23.5 74.5h97q-2 -105 -53.5 -162t-145.5 -57q-67 0 -139 45zM840 78 q245 0 370 168.5t125 498.5q0 331 -125 499.5t-370 168.5q-246 0 -371 -168.5t-125 -499.5q0 -330 125 -498.5t371 -168.5zM840 -29q-152 0 -279.5 50t-224.5 147q-112 112 -166.5 254t-54.5 323t54.5 323.5t166.5 254.5q98 98 224 147.5t280 49.5q325 0 525 -213t200 -562 q0 -179 -55 -322.5t-167 -254.5q-98 -98 -224 -147.5t-279 -49.5z" />
<glyph unicode="&#x22d;" horiz-adv-x="1233" d="M314 1766h598v-148h-598v148zM603 1357l-48 28q-20 13 -40.5 20t-37.5 7q-39 0 -65 -28.5t-30 -74.5l-96 1q2 100 53 159t136 59q36 0 67 -9t86 -40l49 -26q23 -13 45 -20t39 -7q41 0 64.5 27.5t23.5 74.5h97q-2 -105 -53.5 -162t-145.5 -57q-67 0 -139 45zM616 70 q148 0 223.5 117t75.5 345t-75.5 344.5t-223.5 116.5t-223.5 -116.5t-75.5 -344.5t76 -345t223 -117zM616 -29q-232 0 -373 153.5t-141 407.5t140.5 407t373.5 153t373.5 -153t140.5 -407t-140.5 -407.5t-373.5 -153.5z" />
<glyph unicode="&#x22e;" horiz-adv-x="1679" d="M840 1884q47 0 82 -35t35 -81q0 -50 -33.5 -83.5t-83.5 -33.5t-83.5 33.5t-33.5 83.5q0 46 35 81t82 35zM840 78q245 0 370 168.5t125 498.5q0 331 -125 499.5t-370 168.5q-246 0 -371 -168.5t-125 -499.5q0 -330 125 -498.5t371 -168.5zM840 -29q-152 0 -279.5 50 t-224.5 147q-112 112 -166.5 254t-54.5 323t54.5 323.5t166.5 254.5q98 98 224 147.5t280 49.5q325 0 525 -213t200 -562q0 -179 -55 -322.5t-167 -254.5q-98 -98 -224 -147.5t-279 -49.5z" />
<glyph unicode="&#x22f;" horiz-adv-x="1233" d="M616 1568q48 0 82.5 -34.5t34.5 -82.5q0 -51 -33 -84t-84 -33t-84 33t-33 84q0 48 34.5 82.5t82.5 34.5zM616 70q148 0 223.5 117t75.5 345t-75.5 344.5t-223.5 116.5t-223.5 -116.5t-75.5 -344.5t76 -345t223 -117zM616 -29q-232 0 -373 153.5t-141 407.5t140.5 407 t373.5 153t373.5 -153t140.5 -407t-140.5 -407.5t-373.5 -153.5z" />
<glyph unicode="&#x230;" horiz-adv-x="1679" d="M542 2099h598v-148h-598v148zM840 1849q47 0 82 -35t35 -81q0 -50 -33.5 -83.5t-83.5 -33.5t-83.5 33.5t-33.5 83.5q0 46 35 81t82 35zM840 78q245 0 370 168.5t125 498.5q0 331 -125 499.5t-370 168.5q-246 0 -371 -168.5t-125 -499.5q0 -330 125 -498.5t371 -168.5z M840 -29q-152 0 -279.5 50t-224.5 147q-112 112 -166.5 254t-54.5 323t54.5 323.5t166.5 254.5q98 98 224 147.5t280 49.5q325 0 525 -213t200 -562q0 -179 -55 -322.5t-167 -254.5q-98 -98 -224 -147.5t-279 -49.5z" />
<glyph unicode="&#x231;" horiz-adv-x="1233" d="M318 1817h598v-148h-598v148zM616 1567q47 0 82 -35t35 -81q0 -50 -33.5 -83.5t-83.5 -33.5t-83.5 33.5t-33.5 83.5q0 46 35 81t82 35zM616 70q148 0 223.5 117t75.5 345t-75.5 344.5t-223.5 116.5t-223.5 -116.5t-75.5 -344.5t76 -345t223 -117zM616 -29 q-232 0 -373 153.5t-141 407.5t140.5 407t373.5 153t373.5 -153t140.5 -407t-140.5 -407.5t-373.5 -153.5z" />
<glyph unicode="&#x232;" horiz-adv-x="1352" d="M375 1842h598v-148h-598v148zM387 0v106h191v537l-461 743h-140v107h555v-107h-174l373 -604l373 604h-168v107h434v-107h-141l-449 -724v-556h191v-106h-584z" />
<glyph unicode="&#x233;" horiz-adv-x="1157" d="M273 1526h598v-148h-598v148zM442 -195l70 177l-397 974h-121v107h489v-107h-170l299 -731l299 731h-159v107h399v-107h-119l-487 -1196q-50 -124 -111 -169.5t-172 -45.5q-47 0 -96.5 8t-99.5 23v203h94q6 -68 34.5 -97.5t88.5 -29.5q55 0 88.5 30.5t70.5 122.5z" />
<glyph unicode="&#x234;" horiz-adv-x="1025" d="M515 164q68 -94 206 -94q159 -2 159 107q0 124 -111 123q-180 -2 -254 -136zM420 532q0 -159 36 -264q141 140 330 140q204 0 204 -238q0 -199 -271 -199q-153 0 -260 71q-9 -32 -8 -117v-144h-114l1 144q3 101 27 180l-19 19q-110 171 -110 408v918h-177v106h361v-1024z " />
<glyph unicode="&#x235;" horiz-adv-x="1703" d="M1193 164q68 -94 206 -94q159 -2 159 107q0 124 -111 123q-180 -2 -254 -136zM913 618q0 195 -48 267.5t-169 72.5q-128 0 -195 -93.5t-67 -272.5v-486h160v-106h-510v106h166v850h-176v107h360v-189q51 108 132.5 163t189.5 55q176 0 259 -101t83 -315v-144 q0 -177 36 -264q141 140 330 140q204 0 204 -238q0 -199 -271 -199q-153 0 -260 71q-9 -32 -8 -117v-144h-114l1 144q3 101 27 180l-19 19q-111 172 -111 408v86z" />
<glyph unicode="&#x236;" horiz-adv-x="1011" d="M501 164q68 -94 206 -94q159 -2 159 107q0 124 -111 123q-180 -2 -254 -136zM406 956v-424q0 -159 36 -264q141 140 330 140q204 0 204 -238q0 -199 -271 -199q-153 0 -260 71q-9 -32 -8 -117v-144h-114l1 144q3 101 27 180l-19 19q-111 172 -111 408v424h-162v107h162 v330h185v-330h346v-107h-346z" />
<glyph unicode="&#x237;" horiz-adv-x="635" d="M250 956h-174v107h358v-1167q0 -164 -97.5 -257.5t-268.5 -93.5q-72 0 -137.5 16.5t-127.5 49.5v219h95q7 -96 49.5 -141t124.5 -45q91 0 134.5 61.5t43.5 190.5v1060z" />
<glyph unicode="&#x238;" horiz-adv-x="1966" d="M891 479v105q0 191 -73.5 292t-213.5 101q-142 0 -214.5 -112t-72.5 -333q0 -220 72.5 -333t214.5 -113q140 0 213.5 100.5t73.5 292.5zM1075 479q0 -192 73.5 -292.5t213.5 -100.5q141 0 213.5 113t72.5 333q0 221 -72.5 333t-213.5 112q-140 0 -213.5 -101t-73.5 -292 v-105zM891 0v166q-54 -100 -137.5 -147.5t-206.5 -47.5q-196 0 -320.5 155.5t-124.5 405.5t124 405t321 155q123 0 206.5 -47.5t137.5 -147.5v553h-177v106h361v-659q54 100 137.5 147.5t206.5 47.5q196 0 320 -155t124 -405t-124 -405.5t-320 -155.5q-123 0 -206.5 47.5 t-137.5 147.5v-166h-184z" />
<glyph unicode="&#x239;" horiz-adv-x="1966" d="M891 584q0 191 -73.5 292t-213.5 101q-142 0 -214.5 -112t-72.5 -333q0 -220 72.5 -333t214.5 -113q140 0 213.5 100.5t73.5 292.5v105zM891 956v107h184v-107v-59q54 100 137.5 147.5t206.5 47.5q196 0 320 -155t124 -405t-124 -405.5t-320 -155.5q-123 0 -206.5 47.5 t-137.5 147.5v-485h174h2v-107h-2h-532v107h174v485q-54 -100 -137.5 -147.5t-206.5 -47.5q-196 0 -320.5 155.5t-124.5 405.5t124 405t321 155q123 0 206.5 -47.5t137.5 -147.5v59zM1075 584v-105q0 -192 73.5 -292.5t213.5 -100.5q141 0 213.5 113t72.5 333 q0 221 -72.5 333t-213.5 112q-140 0 -213.5 -101t-73.5 -292z" />
<glyph unicode="&#x23a;" horiz-adv-x="1479" d="M-12 0v106h99l55 61l509 1326h168l157 -408l421 465l80 -71l-459 -504l334 -869h147v-106h-543v106h166l-125 328h-470l-272 -298l-11 -30h164v-106h-276l-52 -57l-64 57h-28zM358 404l27 30h-16zM816 909l-132 342l-274 -710h72zM624 541h334l-100 258z" />
<glyph unicode="&#x23b;" horiz-adv-x="1567" d="M124 -57l-78 69l217 240q-58 79 -93 170q-55 143 -55 323q0 348 201 561.5t530 213.5q122 0 260 -32q103 -24 218 -66l117 128l80 -71l-118 -130v-302h-113q-15 74 -41 133l-809 -890q12 -22 27 -42q123 -170 362 -170q167 0 275 79.5t156 237.5h184 q-66 -209 -221.5 -316.5t-393.5 -107.5q-146 0 -271 50t-222 147l-4 4zM393 394l798 881q-22 27 -49 49q-112 89 -313 89q-239 0 -362 -169.5t-123 -498.5q0 -207 49 -351z" />
<glyph unicode="&#x23c;" horiz-adv-x="1147" d="M113 -94l-76 63l169 201q-104 144 -104 362q0 255 141 407.5t373 152.5q101 0 201 -24q57 -13 114 -34l103 123l76 -63l-92 -110v-259h-107q-9 57 -25 102l-512 -609q9 -17 18 -32q76 -116 226 -116q119 0 190 62t97 187h148q-39 -170 -150 -259t-287 -89 q-209 0 -344 124zM337 326l495 590q-6 7 -12 13q-71 64 -202 64q-149 0 -225 -115.5t-76 -345.5q0 -118 20 -206z" />
<glyph unicode="&#x23d;" horiz-adv-x="1360" d="M113 0v106h190v613h-200v125h200v542h-190v107h583v-107h-190v-542h336v-125h-336v-596h682v250h123v-373h-1198z" />
<glyph unicode="&#x23e;" horiz-adv-x="1366" d="M975 0h-584v106h191v451l-558 -614l-78 69l636 702v660h-439v-233h-123v352h1269l51 57l80 -71l-74 -82v-256h-123v121l-439 -483v-673h191v-106zM1181 1374h-397v-438z" />
<glyph unicode="&#x23f;" horiz-adv-x="1051" d="M408 -33l74 -162q42 -93 70 -123q29 -30 109 -30q43 0 71.5 29.5t34.5 97.5h94v-203q-50 -15 -99.5 -23t-110.5 -8q-142 0 -204 40q-93 60 -143 175l-79 183q-29 67 -61 96q-25 9 -49 20v248h106q4 -119 74.5 -178t208.5 -59q124 0 189 46.5t65 135.5q0 70 -47.5 113 t-200.5 92l-133 45q-137 44 -198.5 110t-61.5 168q0 146 107 229t296 83q84 0 177 -22t192 -64v-232h-106q-4 103 -72 161t-185 58q-116 0 -175.5 -41t-59.5 -123q0 -67 45 -107.5t180 -82.5l146 -45q151 -47 217.5 -117.5t66.5 -181.5q0 -151 -115.5 -237.5t-318.5 -86.5 q-55 0 -109 6z" />
<glyph unicode="&#x240;" horiz-adv-x="1079" d="M296 0h-214v86l666 870h-527v-184h-106v291h870v-86l-666 -871h48q228 0 337 -228l35 -73q47 -97 71 -123q28 -30 69 -30q43 0 71.5 29.5t34.5 97.5h94v-203q-50 -15 -99.5 -23t-110.5 -8q-103 0 -165 40q-94 60 -143 175l-40 94q-62 146 -225 146z" />
<glyph unicode="&#x241;" horiz-adv-x="1195" d="M342 1387q-85 0 -121 -38q-43 -44 -49 -140h-96v218q62 34 128 50t138 16h294q224 0 355 -113.5t131 -305.5q0 -194 -131.5 -308t-354.5 -114h-48v-546h231v-106h-624v106h190v654h202q149 0 227 80.5t78 233.5q0 152 -78 232.5t-227 80.5h-245z" />
<glyph unicode="&#x242;" horiz-adv-x="950" d="M342 359q149 0 227 81q78 80 78 233q0 152 -78 233q-78 80 -227 80q-85 0 -121 -38q-43 -44 -49 -140h-96v218q62 34 128 50t138 16h49q224 0 355 -114q131 -113 131 -305q0 -194 -131 -308q-90 -77 -221 -102v-157h232v-106h-605v106h190v253z" />
<glyph unicode="&#x243;" horiz-adv-x="1505" d="M113 0v106h190v263h-200v125h200v892h-190v107h737q226 0 340.5 -92.5t114.5 -276.5q0 -133 -79.5 -212t-232.5 -97q190 -24 288.5 -121.5t98.5 -261.5q0 -222 -140 -327t-437 -105h-690zM506 862h254q164 0 239.5 63t75.5 199q0 137 -75.5 199.5t-239.5 62.5h-254v-524z M506 106h299q180 0 263 78t83 248q0 169 -82.5 246.5t-263.5 77.5h-299v-262h334v-125h-334v-263z" />
<glyph unicode="&#x244;" horiz-adv-x="1726" d="M287 1386h-191v107h584v-107h-191v-542h832v542h-191v107h504v-107h-190v-542h200v-125h-200v-125q0 -341 -131 -482t-445 -141t-447.5 142t-133.5 481v125h-201v125h201v542zM1321 719h-832v-105q0 -286 93.5 -399t322.5 -113t322.5 113t93.5 399v105z" />
<glyph unicode="&#x245;" horiz-adv-x="1479" d="M1122 106l-438 1145l-440 -1145h164v-106h-420v106h131l532 1387h168l533 -1387h147v-106h-543v106h166z" />
<glyph unicode="&#x246;" horiz-adv-x="1495" d="M972 1604l101 -32l-25 -79h267v-332h-123v209h-183l-157 -500h143v187h123v-496h-123v187h-181l-197 -625h591v209h123v-332h-753l-35 -111l-101 32l25 79h-354v106h190v1280h-190v107h824zM506 124l196 624h-196v-624zM741 870l157 500h-392v-500h235z" />
<glyph unicode="&#x247;" horiz-adv-x="1212" d="M893 618q-7 186 -79 280q-19 25 -43 44l-99 -324h221zM478 -13l-29 -98l-95 28l31 102q-79 37 -141 105q-142 154 -142 408q0 252 139 406t365 154q55 0 105 -8l31 101l95 -28l-30 -97q100 -36 169 -116q129 -148 134 -432h-471l-128 -420q55 -22 126 -22 q121 0 198.5 63.5t108.5 188.5h148q-44 -175 -162.5 -263t-311.5 -88q-75 0 -140 16zM680 985q-35 8 -74 8q-127 0 -200 -95t-89 -280h251zM536 512h-219v-8q0 -214 81 -324q12 -17 27 -31z" />
<glyph unicode="&#x248;" horiz-adv-x="821" d="M-172 -358v235h114q3 -99 47 -147.5t132 -48.5q119 0 166 75t47 293v670h-242v125h242v542h-232v107h625v-107h-190v-542h200v-125h-200v-678q0 -247 -99 -357t-319 -110q-71 0 -144.5 17t-146.5 51z" />
<glyph unicode="&#x249;" horiz-adv-x="645" d="M199 1393q0 46 33 80q34 34 81 34q46 0 79 -34q34 -34 34 -80q0 -47 -33 -80t-80 -33t-81 33q-33 33 -33 80zM250 956h-174v107h358v-493h174v-106h-174v-568q0 -164 -97.5 -257.5t-268.5 -93.5q-72 0 -137.5 16.5t-127.5 49.5v219h95q7 -96 49.5 -141t124.5 -45 q91 0 134.5 61.5t43.5 190.5v568h-176v106h176v386z" />
<glyph unicode="&#x24a;" horiz-adv-x="1602" d="M718 78q108 0 186.5 45.5t124.5 129t67.5 190t21.5 239.5v128q0 132 -21.5 238t-67.5 190t-125 129.5t-186 45.5q-91 0 -161 -33.5t-114.5 -91.5t-72.5 -144t-39.5 -182.5t-11.5 -215.5q0 -102 8.5 -188t23 -149.5t36.5 -114.5t45.5 -85t53.5 -59t57 -38.5t60.5 -21.5 t58.5 -10t56 -2zM681 1520q163 0 266.5 -58t170.5 -174v205h379v-107h-176v-1337q0 -218 47 -293t166 -75q88 0 132 48.5t47 147.5h114v-235q-73 -34 -146.5 -51t-144.5 -17q-220 0 -319 110t-99 357v161q-27 -47 -59.5 -83.5t-83.5 -72.5t-125.5 -55.5t-168.5 -19.5 q-249 0 -408 215q-158 213 -158 560q0 228 70 403.5t199 273t297 97.5z" />
<glyph unicode="&#x24b;" horiz-adv-x="1311" d="M891 479v105q0 191 -73.5 292t-213.5 101q-142 0 -214.5 -112t-72.5 -333q0 -220 72.5 -333t214.5 -113q140 0 213.5 100.5t73.5 292.5zM891 166q-54 -100 -137.5 -147.5t-206.5 -47.5q-196 0 -320.5 155.5t-124.5 405.5t124 405t321 155q123 0 206.5 -47.5t137.5 -147.5 v166h360v-107h-176l1 -1060q0 -131 43 -191.5t134 -60.5q82 0 124.5 45t49.5 141h95v-219q-57 -31 -125 -48.5t-140 -17.5q-173 0 -269.5 93.5t-96.5 257.5v270z" />
<glyph unicode="&#x24c;" horiz-adv-x="1542" d="M506 801h295q151 0 223 71.5t72 221.5t-72 221t-223 71h-295v-585zM981 741q71 -19 121 -65q50 -45 90 -127l217 -443h182v-106h-352l-233 475q-68 139 -123 179q-56 40 -154 40h-223v-588h211v-106h-604v106h190v588h-200v107h200v585h-190v107h757q218 0 336.5 -104 t118.5 -295q0 -154 -86.5 -242.5t-257.5 -110.5z" />
<glyph unicode="&#x24d;" horiz-adv-x="979" d="M979 1065v-266h-106q-5 79 -44 118t-114 39q-136 0 -208.5 -94t-72.5 -270v-22h291v-106h-291v-358h213v-106h-563v106h166v358h-176v106h176v388h-176v105h360v-189q54 111 139 164.5t207 53.5q45 0 94.5 -7t104.5 -20z" />
<glyph unicode="&#x24e;" horiz-adv-x="1352" d="M387 0v106h191v537l-263 424h-338v122h262l-122 197h-140v107h555v-107h-174l122 -197h502l122 197h-168v107h434v-107h-141l-122 -197h263v-122h-339l-251 -405v-556h191v-106h-584zM907 1067h-352l176 -285z" />
<glyph unicode="&#x24f;" horiz-adv-x="1157" d="M442 -195l70 177l-266 652h-252v106h209l-88 216h-121v107h489v-107h-170l88 -216h422l88 216h-159v107h399v-107h-119l-88 -216h207v-106h-250l-356 -874q-51 -126 -111 -170q-61 -46 -172 -45q-47 0 -96.5 8t-99.5 23v203h94q6 -68 34.5 -97.5t88.5 -29.5 q55 0 88.5 30.5t70.5 122.5zM779 634h-334l167 -409z" />
<glyph unicode="&#x250;" horiz-adv-x="1221" d="M450 729v-225h237q137 0 204 59t67 181q0 111 -68 176t-184 65q-115 0 -186 -71q-70 -71 -70 -185zM266 399v558h-164v106h348v-115q61 74 141 109t187 35q177 0 281 -94t104 -254q0 -165 -119 -256t-336 -91h-258v-73q0 -121 74 -188q73 -66 206 -66q110 0 175 50 t81 148h95v-215q-96 -41 -187 -61q-90 -21 -176 -21q-221 0 -336 109q-116 110 -116 319z" />
<glyph unicode="&#x251;" horiz-adv-x="1311" d="M1075 107h176v-107h-360v166q-54 -100 -137.5 -147.5t-206.5 -47.5q-196 0 -320.5 155.5t-124.5 405.5t124 405t321 155q123 0 206.5 -47.5t137.5 -147.5v166h360v-107h-176v-849zM891 479v105q0 191 -73.5 292t-213.5 101q-142 0 -214.5 -112t-72.5 -333 q0 -220 72.5 -333t214.5 -113q140 0 213.5 100.5t73.5 292.5z" />
<glyph unicode="&#x252;" horiz-adv-x="1311" d="M462 166v-166h-360v107h176v850h-176v106h360v-166q54 100 138 147q83 48 206 48q196 0 320 -156q125 -155 125 -405t-124 -405t-321 -155q-123 0 -206 47q-84 48 -138 148zM462 584v-105q0 -191 74 -292q73 -101 213 -101q142 0 215 112q72 112 72 333q0 220 -72 333 q-73 113 -215 113q-140 0 -213 -101q-74 -100 -74 -292z" />
<glyph unicode="&#x253;" horiz-adv-x="1311" d="M421 966l-1 -69q54 100 138 147q83 48 206 48q196 0 320 -155t124 -405t-124 -406q-124 -155 -320 -155q-123 0 -206 47q-84 48 -138 148v-166h-361v106h177v867v232q0 164 98 257q97 94 268 94q72 0 138 -16q65 -17 127 -50v-219h-95q-7 96 -50 141q-42 45 -124 45 q-91 0 -134 -61q-43 -59 -43 -191v-239zM420 479q0 -192 74 -293q73 -100 213 -100q141 0 213 113q73 113 73 333q0 221 -73 333q-72 112 -213 112q-140 0 -213 -101q-74 -101 -74 -292v-105z" />
<glyph unicode="&#x254;" horiz-adv-x="1147" d="M102 744q39 170 150 259t287 89q232 0 373 -153q141 -154 141 -408q0 -255 -141 -408q-141 -152 -373 -152q-101 0 -201 24q-100 23 -201 71v272h107q21 -140 92 -204q70 -64 201 -64q149 0 225 115q76 116 76 346t-76 346q-75 116 -225 116q-119 0 -190 -62t-97 -187 h-148z" />
<glyph unicode="&#x255;" horiz-adv-x="1147" d="M412 164q67 -92 206 -94q266 -2 266 107q0 125 -218 123q-180 -2 -254 -136zM353 268q125 132 382 132q265 0 260 -230q-4 -199 -379 -199q-153 0 -260 71q-9 -32 -8 -117v-144h-114l1 144q3 101 27 180l-19 19q-141 154 -141 408q0 255 141 408q141 152 373 152 q101 0 201 -24q100 -23 201 -71v-272h-107q-21 140 -91 204q-71 64 -202 64q-149 0 -225 -115q-76 -116 -76 -346q0 -159 36 -264z" />
<glyph unicode="&#x256;" horiz-adv-x="1325" d="M1076 -104q0 -130 42 -190q44 -62 135 -62q82 0 125 45q42 45 49 141h95v-219q-62 -33 -128 -49q-65 -17 -137 -17q-171 0 -269 93q-97 94 -97 258v232v38q-54 -100 -137 -148q-84 -47 -207 -47q-196 0 -321 155q-124 156 -124 406t124 405t321 155q123 0 207 -48 q83 -47 137 -147v553h-174v106h358q1 -830 1 -1660zM891 479v105q0 191 -73 292q-74 101 -214 101q-142 0 -214 -112q-73 -112 -73 -333q0 -220 73 -333q72 -113 214 -113q140 0 214 100q73 101 73 293z" />
<glyph unicode="&#x257;" horiz-adv-x="1398" d="M890 897v308q0 164 98 257q97 94 268 94q72 0 138 -16q65 -17 127 -50v-219h-95q-7 96 -50 141q-42 45 -124 45q-91 0 -134 -61q-43 -59 -43 -191v-1099h176v-106h-360v166q-54 -100 -137 -148q-84 -47 -207 -47q-196 0 -321 155q-124 156 -124 406t124 405t321 155 q123 0 207 -48q82 -47 136 -147zM891 479v105q0 191 -73 292q-74 101 -214 101q-142 0 -214 -112q-73 -112 -73 -333q0 -220 73 -333q72 -113 214 -113q140 0 214 100q73 101 73 293z" />
<glyph unicode="&#x258;" horiz-adv-x="1212" d="M102 512q5 283 134 432q129 148 370 148q226 0 365 -154t139 -406q0 -254 -142 -408q-141 -153 -374 -153q-193 0 -312 88q-118 88 -162 263h148q31 -125 108 -188q78 -64 199 -64q158 0 239 110q81 109 81 324v8h-793zM319 618h576q-16 185 -89 280t-200 95 q-136 0 -208 -95q-73 -94 -79 -280z" />
<glyph unicode="&#x259;" horiz-adv-x="1212" d="M102 551h793v8q0 215 -81 325q-81 109 -239 109q-121 0 -199 -63q-77 -64 -108 -189h-148q44 175 162 263q119 88 312 88q233 0 374 -154q142 -153 142 -407q0 -252 -139 -406t-365 -154q-241 0 -370 149q-129 148 -134 431zM319 445q6 -186 79 -281q72 -94 208 -94 q127 0 200 95t89 280h-576z" />
<glyph unicode="&#x25a;" horiz-adv-x="1727" d="M1775 757l75 -78q-77 -48 -80 -49q-47 -17 -142 -17q-113 0 -209 93q-84 81 -95 213l-255 -146q41 -107 41 -242q0 -252 -139 -406t-365 -154q-242 0 -370 149q-101 118 -114 230l744 428q-19 62 -52 106q-81 109 -239 109q-121 0 -199 -63q-76 -62 -108 -189h-148 q44 175 162 263q119 88 312 88q233 0 374 -154q30 -33 54 -70l273 157h114v-61q0 -131 65 -190q69 -62 151 -62q138 0 150 45zM889 669l-557 -319q2 -101 66 -186q72 -94 208 -94q134 0 200 95q65 92 89 366v28q0 59 -6 110z" />
<glyph unicode="&#x25b;" horiz-adv-x="1061" d="M159 810q0 129 98 197q98 67 294 67q54 0 158 -16q104 -17 216 -48v-221h-108q-12 89 -84 134t-166 45q-233 0 -233 -167q0 -191 257 -191h93v-105h-92q-158 0 -235 -62q-74 -60 -74 -176q0 -79 53 -129q87 -82 229 -82q116 0 200 53t94 155h108v-231q-106 -36 -214 -54 q-104 -18 -184 -18q-224 0 -347 79q-122 79 -121 229q0 135 105 213q71 54 191 80q-82 19 -136 54q-102 67 -102 194z" />
<glyph unicode="&#x25c;" horiz-adv-x="1042" d="M501 968q-94 0 -166 -45q-72 -46 -84 -135h-108v222q112 31 216 48q104 16 158 16q196 0 294 -67q98 -68 98 -197q0 -127 -102 -194q-54 -35 -136 -54q120 -26 191 -80q103 -78 105 -213q0 -150 -121 -229q-125 -80 -347 -79q-80 0 -184 18q-108 18 -211 54v231h105 q0 -102 94 -155q84 -53 200 -53q142 0 229 82q53 50 53 129q0 116 -74 176q-77 62 -235 62h-92v105h93q257 0 257 191q0 167 -233 167z" />
<glyph unicode="&#x25d;" horiz-adv-x="1583" d="M501 968q-94 0 -166 -45q-72 -46 -84 -135l-108 1v221q112 31 216 48q104 16 158 16q196 0 294 -67q91 -63 98 -180l241 213h114v-61q0 -131 66 -190q68 -62 150 -62q106 0 151 45l74 -78q-45 -38 -80 -49q-54 -17 -141 -17q-115 1 -210 93q-83 81 -95 213l-324 -277 q-20 -23 -48 -41q-54 -35 -136 -54q120 -26 191 -80q103 -78 105 -213q1 -150 -121 -229q-125 -80 -347 -79q-79 0 -184 18q-108 18 -214 54v231h108q10 -102 94 -155t200 -53q142 0 229 82q53 50 53 129q0 116 -74 176q-77 62 -235 62h-92v105h93q257 0 257 191 q0 167 -233 167z" />
<glyph unicode="&#x25e;" horiz-adv-x="1256" d="M726 987q-12 0 -100 -18q-41 -9 -112 -46q-240 -123 -240 -398q0 -259 240 -398q16 -16 112 -46q38 -11 100 -11q108 0 166 51q57 51 57 147q0 105 -70 158q-71 52 -209 52h-38v100h38q138 0 209 53q70 52 70 158q0 95 -57 146q-58 52 -166 52zM443 38q-341 151 -341 490 q0 308 341 490q58 31 159 56q78 18 152 18q196 0 303 -77q106 -77 106 -218q0 -102 -75 -173q-76 -72 -211 -96q135 -24 211 -95q75 -71 75 -174q0 -141 -106 -218t-303 -77q-40 0 -152 19q-55 5 -159 55z" />
<glyph unicode="&#x25f;" horiz-adv-x="645" d="M250 956h-174v107h358v-493h174v-106h-174v-568q0 -164 -97.5 -257.5t-268.5 -93.5q-72 0 -137.5 16.5t-127.5 49.5v219h95q7 -96 49.5 -141t124.5 -45q91 0 134.5 61.5t43.5 190.5v568h-176v106h176v386z" />
<glyph unicode="&#x260;" horiz-adv-x="1399" d="M891 584l1 372h-288q-142 0 -214.5 -112t-72.5 -312q0 -220 72.5 -333t214.5 -113q140 0 213.5 100.5t73.5 292.5v105zM1075 1191v-1168q0 -229 -126 -353q-126 -125 -359 -125q-105 0 -201 19t-184 57v223h96q18 -104 85 -152t192 -48q162 0 237.5 91.5t75.5 287.5v143 q-54 -100 -137.5 -147.5t-206.5 -47.5q-196 0 -320.5 155.5t-124.5 405.5q0 221 124 376t321 155h344v142q0 164 97 257q98 94 269 94q72 0 137 -16q66 -17 128 -50v-219h-95q-7 96 -49 141q-43 45 -125 45q-91 0 -135 -61q-42 -60 -42 -191z" />
<glyph unicode="&#x261;" horiz-adv-x="1311" d="M547 1063h704v-107h-176v-933q0 -229 -126 -353.5t-359 -124.5q-105 0 -201 19t-184 57v223h96q18 -104 85 -152t192 -48q162 0 237.5 91.5t75.5 287.5v143q-54 -100 -137.5 -147.5t-206.5 -47.5q-196 0 -320.5 155.5t-124.5 405.5q0 221 124 376t321 155zM891 584l1 372 h-288q-142 0 -214.5 -112t-72.5 -312q0 -220 72.5 -333t214.5 -113q140 0 213.5 100.5t73.5 292.5v105z" />
<glyph unicode="&#x262;" horiz-adv-x="1114" d="M618 -33zM629 57zM911 725q-29 157 -91 204q-82 64 -202 64q-130 0 -221 -121q-89 -119 -89 -360q0 -242 92 -358q79 -100 317 -100q61 0 132 30q53 22 65 30l-2 286h-197v77h339v-402q-93 -56 -201 -84q-107 -28 -229 -28q-237 0 -380 153q-142 153 -142 407 q0 255 143 408q143 152 384 152q84 0 185 -22q96 -21 204 -64v-272h-107z" />
<glyph unicode="&#x263;" horiz-adv-x="1458" d="M614 465l-360 495h-160v107h592v-107h-176l244 -323l220 319h-192v107h489v-107h-168l-286 -413q151 -211 234 -375q97 -195 97 -325q0 -150 -116 -225q-115 -74 -344 -74q-210 0 -292 103q-52 65 -52 172q0 121 97 329q65 139 173 317zM459 -208q0 -54 33 -88 q53 -54 191 -54q131 0 185 47q39 34 39 91q0 147 -66 304q-56 134 -161 276q-85 -145 -137 -264q-84 -190 -84 -312z" />
<glyph unicode="&#x264;" horiz-adv-x="1155" d="M144 1020q88 69 200 69t258 -206q147 203 349 203h3q48 0 78 -57v-75h-105v19q0 47 -47 47h-1q-68 0 -214 -223q95 -154 154 -278q97 -204 97 -324q0 -78 -42 -121q-106 -107 -334 -107q-146 0 -258 107q-49 46 -49 126q0 102 79 259q64 125 177 285q-153 273 -202 273 q-41 0 -41 -87v-18h-102v108zM363 185q0 -59 51 -87q45 -24 128 -24q90 0 148 65q37 42 37 80q0 64 -56 195q-44 102 -122 244q-89 -127 -136 -241q-50 -124 -50 -232z" />
<glyph unicode="&#x265;" horiz-adv-x="1319" d="M711 -320h174v508q-51 -106 -132 -162q-81 -55 -188 -55q-177 0 -261 101q-83 100 -83 315v569h-166v107h351v-619q0 -194 48 -266q47 -72 169 -72q128 0 195 94t67 273v483h-160v107h344v-1383h174v-106h-358l-174 2v104z" />
<glyph unicode="&#x266;" horiz-adv-x="1319" d="M435 874q51 108 131 163q82 55 190 55q176 0 259 -101t83 -315v-570h164v-106h-508v106h159v512q0 195 -47 266q-48 72 -170 72q-128 0 -195 -93t-67 -271v-486h160v-106h-510v106h166v867v232q0 164 98 257q97 94 268 94q72 0 138 -16q65 -17 127 -50v-219h-95 q-7 96 -50 141q-42 45 -124 45q-91 0 -134 -61q-43 -57 -43 -191v-331z" />
<glyph unicode="&#x267;" horiz-adv-x="1319" d="M435 874q51 108 131 163q82 55 190 55q176 0 259 -101t83 -315v-548v-232q0 -164 -98 -258q-97 -93 -268 -93q-72 0 -138 17q-65 16 -127 49v219h95q7 -96 50 -141q42 -45 124 -45q91 0 134 62q43 60 43 190v232v490q0 195 -47 266q-48 72 -170 72q-128 0 -195 -93 t-67 -271v-486h160v-106h-510v106h166v867v232q0 164 98 257q97 94 268 94q72 0 138 -16q65 -17 127 -50v-219h-95q-7 96 -50 141q-42 45 -124 45q-91 0 -134 -61q-43 -59 -43 -191v-239v-92z" />
<glyph unicode="&#x268;" horiz-adv-x="655" d="M199 1393q0 46 33 80q34 34 81 34q46 0 79 -34q34 -34 34 -80q0 -47 -33 -80t-80 -33t-81 33q-33 33 -33 80zM434 106h174v-106h-534v106h176v358h-176v106h176v386h-176v107h360v-493h174v-106h-174v-358z" />
<glyph unicode="&#x269;" horiz-adv-x="803" d="M249 351l1 605h-176v107h360v-712q0 -131 42 -191q44 -61 135 -61v-99q-171 0 -269 94q-93 89 -93 257z" />
<glyph unicode="&#x26a;" horiz-adv-x="655" d="M434 106h174v-106h-534v106h176v850h-176v107h534v-103h-174v-854z" />
<glyph unicode="&#x26b;" horiz-adv-x="779" d="M491 106h174v-106h-535v106h177v638q-4 2 -7 4q-17 8 -36 8q-42 0 -66 -40q-24 -39 -29 -115h-96q2 135 53 209q51 73 142 73q20 0 39 -4v571h-177v106h361v-812q7 -5 13 -8q17 -8 38 -8q43 0 67 40t28 115h96q-2 -135 -53 -209q-51 -73 -142 -73q-25 0 -47 6v-501z" />
<glyph unicode="&#x26c;" horiz-adv-x="930" d="M639 106h174v-106h-535v106h176v362q-379 1 -380 196q-1 229 235 230q87 0 146 -56v612h-177v106h361v-992h244v-99h-244v-359zM444 564q-21 223 -93 222q-59 -1 -59 -115q0 -105 152 -107z" />
<glyph unicode="&#x26d;" horiz-adv-x="743" d="M236 1450h-177v106h361v-1660q0 -130 42 -190q44 -62 135 -62q82 0 125 45q42 45 49 141h95v-219q-62 -33 -128 -49q-65 -17 -137 -17q-171 0 -269 93q-97 94 -97 258q0 777 1 1554z" />
<glyph unicode="&#x26e;" horiz-adv-x="1442" d="M814 423h-95v102l330 431h-527l-102 -184v-666h174v-106h-535v106h177v1344h-177v106h361v-493h866v-86l-369 -483l79 -7q172 -15 286 -150q101 -120 101 -312q0 -234 -141 -359q-140 -124 -404 -124q-117 0 -228 28q-112 28 -222 85v324h112q10 -161 97 -244t245 -83 q153 0 242 100q88 99 88 271q0 197 -91 299q-91 101 -267 101z" />
<glyph unicode="&#x26f;" horiz-adv-x="1942" d="M899 236q-53 -117 -135 -176q-83 -60 -193 -60q-167 0 -249 104q-82 103 -82 312v570h-166v106h350v-655q0 -163 48 -232t159 -69q123 0 187 93q65 93 65 271v486h-160v106h344v-662q0 -159 48 -226q48 -68 159 -68q123 0 188 93q64 93 64 271v486h-160v106h344v-958h176 v-105h-360v189q-51 -106 -130 -162t-179 -56q-124 0 -207 62q-83 61 -111 174z" />
<glyph unicode="&#x270;" horiz-adv-x="1942" d="M1710 -319h176v-107h-534v107h174v537q-51 -106 -130 -162t-179 -56q-124 0 -207 62q-83 61 -111 174q-53 -117 -135 -176q-83 -60 -193 -60q-167 0 -249 104q-82 103 -82 312v570h-166v106h350v-655q0 -163 48 -232t159 -69q123 0 187 93q65 93 65 271v486h-160v106h344 v-662q0 -159 48 -226q48 -68 159 -68q123 0 188 93q64 93 64 271v486h-160v106h344v-1411z" />
<glyph unicode="&#x271;" horiz-adv-x="1942" d="M1721 -104q0 -164 -97 -258q-98 -93 -269 -93q-72 0 -137 17q-66 16 -128 49v219h95q7 -96 49 -141q43 -45 125 -45q91 0 135 62q42 60 42 190v759q0 163 -48 232t-159 69q-123 0 -187 -93q-65 -93 -65 -271v-486h160v-106h-504v106h160v556q0 159 -48 226 q-48 68 -159 68q-123 0 -188 -93q-64 -93 -64 -271v-486h160v-106h-510v106h166v852h-176v105h360v-189q51 106 130 162t179 56q124 0 207 -62q83 -61 111 -174q53 117 135 176q83 60 193 60q167 0 249 -104q82 -103 82 -312q1 -393 1 -780z" />
<glyph unicode="&#x272;" horiz-adv-x="1318" d="M434 -104q0 -164 -98 -258q-97 -93 -268 -93q-72 0 -138 17q-65 16 -127 49v219h95q7 -96 50 -141q42 -45 124 -45q91 0 134 62q43 60 43 190v1060h-176v107h360v-189q51 108 133 163q81 55 189 55q176 0 259 -101t83 -315v-570h164v-106h-508v106h159v512q0 195 -48 268 q-48 72 -169 72q-128 0 -195 -94q-67 -93 -67 -272q1 -350 1 -696z" />
<glyph unicode="&#x273;" horiz-adv-x="1421" d="M913 618q0 195 -48 268q-48 72 -169 72q-128 0 -195 -94q-67 -93 -67 -272v-486h160v-106h-510v106h166v850h-176v107h360v-189q51 108 132 163q82 55 190 55q174 0 259 -101q83 -99 83 -315v-780q0 -130 42 -190q44 -62 135 -62q82 0 125 45q42 45 49 141h95v-219 q-62 -33 -128 -49q-65 -17 -137 -17q-171 0 -269 93q-97 94 -97 258v722z" />
<glyph unicode="&#x274;" horiz-adv-x="1323" d="M69 0v106h166v850h-166v107h349l570 -785v678h-166v107h455v-107h-166v-985h-122l-631 858v-723h166v-106h-455z" />
<glyph unicode="&#x275;" horiz-adv-x="1233" d="M616 70q148 0 224 117q63 99 73 277h-594q10 -178 74 -277q76 -117 223 -117zM318 570h596q-5 200 -74 306q-76 117 -224 117t-224 -117q-69 -106 -74 -306zM616 -29q-232 0 -373 153q-141 154 -141 408t140 407q141 153 374 153t374 -153q140 -153 140 -407t-140 -408 q-141 -153 -374 -153z" />
<glyph unicode="&#x276;" horiz-adv-x="1618" d="M714 948q-182 6 -291 -111q-104 -112 -104 -312q0 -202 104 -314q102 -111 291 -113l28 -1l44 9v850l-46 -9zM1559 0h-875q-274 0 -428 141t-154 393q0 249 153 389q154 140 429 140h863v-237h-97l1 130h-480v-328h342l-1 124h95v-353h-95l1 123h-342v-416h491v130h97 v-236z" />
<glyph unicode="&#x277;" horiz-adv-x="1326" d="M775 529v-40q0 -120 34 -226q62 -197 123 -197q89 0 89 364q-1 173 -56 342q-92 197 -299 201q-200 4 -296 -201q-55 -169 -56 -342q0 -364 89 -364q61 0 123 197q34 106 34 226v40h215zM666 272q-24 -142 -95 -222q-71 -79 -174 -79q-141 0 -218 112q-77 111 -77 317 q0 79 19 160q24 106 55 167q182 358 490 358q311 0 493 -358q31 -61 55 -167q19 -81 19 -160q0 -206 -77 -317q-77 -112 -218 -112q-103 0 -174 79q-71 80 -98 222z" />
<glyph unicode="&#x278;" horiz-adv-x="1233" d="M710 -320h174v-106h-534v106h176v297q-170 25 -283 147q-141 154 -141 408t140 407q113 122 284 147v363h-176v107h534v-103h-174v-368q169 -25 280 -146q140 -153 140 -407t-140 -408q-111 -121 -280 -146v-298zM526 83v897q-83 -26 -134 -104q-75 -116 -75 -344 t76 -345q51 -78 133 -104zM710 979v-895q80 27 130 103q75 117 75 345t-75 344q-50 76 -130 103z" />
<glyph unicode="&#x279;" horiz-adv-x="1026" d="M74 -2v266h106q5 -79 44 -118t114 -39q136 0 208 94q73 94 73 270v486h-213v106h563v-106h-166v-852h176v-105h-360v189q-54 -111 -139 -165q-85 -53 -207 -53q-45 0 -95 7q-49 7 -104 20z" />
<glyph unicode="&#x27a;" horiz-adv-x="1026" d="M74 -2v266h106q5 -79 44 -118t114 -39q133 0 208 94q73 91 73 270v978h-213v106h563v-106h-166v-1344h176v-105h-360v189q-54 -111 -139 -165q-85 -53 -207 -53q-45 0 -95 7q-49 7 -104 20z" />
<glyph unicode="&#x27b;" horiz-adv-x="1129" d="M619 0v189q-54 -111 -139 -165q-85 -53 -207 -53q-45 0 -95 7q-49 7 -104 20v266h106q5 -79 44 -118t114 -39q136 0 208 94q73 94 73 270v486h-213v106h563v-106h-163v-829v-232q0 -130 43 -190q43 -62 135 -62q82 0 124 45t50 141h94v-219q-62 -33 -127 -49 q-65 -17 -137 -17q-172 0 -269 93q-93 90 -97 258z" />
<glyph unicode="&#x27c;" horiz-adv-x="979" d="M979 1065v-266h-106q-5 79 -44 118t-114 39q-136 0 -209 -94q-72 -94 -72 -270v-910h213v-106h-563v106h166v1276h-176v105h360v-189q54 111 139 164q85 54 207 54q45 0 94 -7q50 -7 105 -20z" />
<glyph unicode="&#x27d;" horiz-adv-x="979" d="M979 1065v-266h-106q-5 79 -44 118t-114 39q-136 0 -209 -94q-72 -94 -72 -270q1 -348 -2 -696q0 -130 42 -190q44 -62 135 -62q82 0 125 45q42 45 49 141h95v-219q-62 -33 -128 -49q-65 -17 -137 -17q-171 0 -269 93q-97 94 -97 258v104q1 472 0 958h-173v105h360v-189 q54 111 139 164q85 54 207 54q45 0 94 -7q50 -7 105 -20z" />
<glyph unicode="&#x27e;" horiz-adv-x="927" d="M434 106h213v-106h-563v106h165v522v106q0 164 97 258q98 93 269 93q72 0 137 -17q66 -16 128 -49v-219h-95q-7 96 -49 141q-43 45 -125 45q-91 0 -135 -62q-42 -60 -42 -190v-106v-522z" />
<glyph unicode="&#x27f;" horiz-adv-x="927" d="M530 106v522v106q0 130 -42 190q-44 62 -135 62q-82 0 -125 -45q-42 -45 -49 -141h-95v219q62 33 128 49q65 17 137 17q171 0 269 -93q97 -94 97 -258v-106v-522h165v-106h-563v106h213z" />
<glyph unicode="&#x280;" horiz-adv-x="1216" d="M756 536q50 -14 86 -46q28 -26 64 -99l141 -288h145l-2 -103h-285l-166 338q-48 98 -88 127t-109 29h-122v-391h132l-2 -103h-479l2 103h167l-2 857h-167v103h606q155 0 240 -74q84 -74 84 -210q0 -102 -62 -165q-61 -63 -183 -78zM420 597h173q109 0 159 51 q51 51 51 131t-51 130q-52 51 -159 51h-173v-363z" />
<glyph unicode="&#x281;" horiz-adv-x="1216" d="M756 527q122 -15 183 -78q62 -63 62 -165q0 -136 -84 -210q-85 -74 -240 -74h-606v103h167l2 857h-167l-2 103h479l2 -103h-132v-391h122q69 0 109 29t88 127l166 338h285l2 -103h-145l-141 -288q-36 -73 -64 -99q-36 -32 -86 -46zM420 466v-363h173q107 0 159 51 q51 50 51 130t-51 131q-50 51 -159 51h-173z" />
<glyph unicode="&#x282;" horiz-adv-x="1051" d="M115 307h106q4 -119 74.5 -178t208.5 -59q124 0 189 46.5t65 135.5q0 70 -47.5 113t-200.5 92l-133 45q-137 44 -198.5 110t-61.5 168q0 146 107 229t296 83q84 0 177 -22t192 -64v-232h-106q-4 103 -72 161t-185 58q-116 0 -175.5 -41t-59.5 -123q0 -67 45 -107 q46 -41 180 -83l146 -45q150 -46 218 -118q66 -70 66 -181q0 -151 -115.5 -237.5t-318.5 -86.5q-103 0 -201 22l-12 3v-100q0 -129 43.5 -190.5t134.5 -61.5q82 0 124.5 45t49.5 141h95v-219q-62 -33 -127.5 -49.5t-137.5 -16.5q-171 0 -268.5 93.5t-97.5 257.5v411z" />
<glyph unicode="&#x283;" horiz-adv-x="556" d="M434 -104q23 -142 -98 -258q-97 -93 -268 -93q-72 0 -138 17q-65 16 -127 49v219h95q7 -96 50 -141q42 -45 124 -45q89 0 134 62q60 80 43 190q-106 650 -201 1312q-21 143 98 257q97 93 268 93q72 0 138 -16q65 -16 127 -50v-218h-95q-7 96 -50 140q-42 46 -124 46 q-91 0 -134 -62q-59 -81 -43 -190q94 -663 201 -1312z" />
<glyph unicode="&#x284;" horiz-adv-x="758" d="M434 956v-386h174v-106h-174v-568q0 -164 -97.5 -257.5t-268.5 -93.5q-72 0 -137.5 16.5t-127.5 49.5v219h95q7 -96 49.5 -141t124.5 -45q91 0 134.5 61.5t43.5 190.5v568h-176v106h176v386h-174h-2v107h2h174v133q0 178 92.5 269t271.5 91q67 0 134 -12t133 -37v-202 h-97q-1 75 -42.5 114t-120.5 39q-103 0 -145 -56q-42 -59 -42 -202v-137v-107z" />
<glyph unicode="&#x285;" horiz-adv-x="997" d="M319 -104l201 839q16 110 -43 191q-43 61 -134 61q-82 0 -124 -45q-43 -45 -50 -141h-95v219q62 33 127 50q66 16 138 16q171 0 268 -94q130 -124 98 -257l-201 -839q-17 -110 43 -190q45 -62 134 -62q82 0 124 45q43 45 50 141h95v-219q-62 -33 -127 -49 q-66 -17 -138 -17q-171 0 -268 93q-130 125 -98 258z" />
<glyph unicode="&#x286;" horiz-adv-x="664" d="M180 -356q89 0 135 62q53 72 45 167q-14 1 -28 1q-311 0 -311 -123q0 -107 159 -107zM533 -230q-23 -71 -88 -132q-102 -93 -263 -93q-375 0 -379 199q-5 230 533 230h9q-194 1220 -189 1234q-22 142 98 257q97 93 268 93q72 0 138 -16q65 -16 127 -50v-218h-95 q-7 96 -49 140q-43 46 -125 46q-91 0 -134 -62q-59 -81 -43 -190q108 -748 197 -1288q122 -86 125 -306l1 -64h-100v64q0 95 -31 156z" />
<glyph unicode="&#x287;" horiz-adv-x="823" d="M645 107h162v-107h-162v-330h-185v330h-346v107h346v675q0 135 -26 173t-96 38q-72 0 -105 -43q-33 -42 -35 -137h-139q8 145 79 212t216 67q159 0 225 -70q66 -71 66 -240v-675z" />
<glyph unicode="&#x288;" horiz-adv-x="823" d="M221 956h-162v107h162v330h185v-330h346v-107h-346v-1072q0 -135 26 -173t96 -38q72 0 105 43q33 42 35 137h139q-8 -145 -79 -212t-216 -67q-159 0 -225 70q-66 71 -66 240v1072z" />
<glyph unicode="&#x289;" horiz-adv-x="1319" d="M725 1063h344v-493h174v-106h-174v-358h174v-106h-358v188q-51 -106 -132 -162q-81 -55 -188 -55q-177 0 -261 101q-83 100 -83 315v77h-166v106h166v386h-166v107h351v-493h479v386h-160v107zM885 464h-479v-20q0 -194 48 -266q47 -72 169 -72q128 0 195 94 q65 92 67 264z" />
<glyph unicode="&#x28a;" horiz-adv-x="1270" d="M1080 990h-245q153 -64 243 -193q90 -130 90 -287q0 -111 -43 -207q-43 -99 -123 -172q-72 -67 -166 -102q-95 -36 -201 -36q-107 0 -200 35t-166 103q-82 75 -124 172q-43 97 -43 207q0 157 90 286q90 130 244 194h-333v106h445v-165q-119 -46 -180 -149t-61 -256 q0 -185 90 -297q91 -112 238 -112t237 112q91 112 91 297q0 154 -61 257q-61 102 -179 148v165h357v-106z" />
<glyph unicode="&#x28b;" horiz-adv-x="1245" d="M699 990h112q154 -64 243 -193q90 -130 90 -287q0 -111 -42 -207q-44 -99 -124 -172q-72 -67 -166 -102q-94 -36 -201 -36q-164 7 -269 101q-93 83 -93 257l1 605h-176v107h360v-712q0 -131 42 -191q43 -60 135 -61q125 -2 237 130q91 107 91 297q0 154 -61 257 q-61 102 -179 148v59z" />
<glyph unicode="&#x28c;" horiz-adv-x="1157" d="M639 1063l391 -956h121v-107h-489v107h170l-299 731l-299 -731h159v-107h-399v107h119l391 956h135z" />
<glyph unicode="&#x28d;" horiz-adv-x="1753" d="M776 0l-272 830l-240 -723h154v-107h-385v107h118l316 956h153l262 -795l263 795h147l315 -956h119v-107h-481v107h172l-238 723l-274 -830h-129z" />
<glyph unicode="&#x28e;" horiz-adv-x="1157" d="M703 1258l-70 -177l397 -974h121v-107h-489v107h170l-299 731l-299 -731h159v-107h-399v107h119l487 1196q50 124 111 169q61 46 172 46q47 0 97 -8q49 -8 99 -23v-203h-94q-6 68 -35 98q-28 29 -88 29q-55 0 -88 -31q-34 -30 -71 -122z" />
<glyph unicode="&#x28f;" horiz-adv-x="1342" d="M416 0v106h177v305l-336 541h-173v111h551v-111h-186l262 -424l262 424h-178v111h474v-111h-165l-327 -527v-319h174v-106h-535z" />
<glyph unicode="&#x290;" horiz-adv-x="1223" d="M82 0v86l666 870h-527v-184h-106v291h870v-86l-666 -871h685v-210q0 -131 42 -190q44 -62 135 -62q82 0 124 45q43 45 50 141h95v-219q-62 -33 -128 -49q-65 -17 -137 -17q-169 0 -269 93q-97 92 -97 258v104h-737z" />
<glyph unicode="&#x291;" horiz-adv-x="1147" d="M680 108q219 0 219 99q0 121 -63 121q-156 0 -156 -220zM546 0h-464v86l666 870h-527v-184h-106v291h870v-86l-666 -871l227 -1q2 325 304 325q160 0 159 -230q0 -200 -330 -200v-190h-133v190z" />
<glyph unicode="&#x292;" horiz-adv-x="1156" d="M528 423h-95v102l330 431h-527v-184h-106v291h870v-86l-369 -483l79 -7q184 -29 286 -150q101 -120 101 -312q0 -234 -141 -359q-140 -124 -404 -124q-117 0 -228 28q-112 28 -222 85v324h112q10 -161 97 -244t245 -83q153 0 242 100q88 99 88 271q0 197 -91 299 q-91 101 -267 101z" />
<glyph unicode="&#x293;" horiz-adv-x="1147" d="M552 -458q-375 0 -379 199q-5 232 260 230q303 -3 408 -157q45 86 45 209q0 197 -91 299q-91 101 -267 101h-95v102l330 431h-527v-184h-106v291h870v-86l-369 -483l79 -7q184 -29 286 -150q101 -120 101 -312q0 -234 -141 -359q-17 -15 -37 -29q15 -75 14 -94h-113 l-9 53q-161 -54 -259 -54zM768 -268q-76 140 -266 139q-111 0 -111 -123q0 -95 165 -96q136 0 212 80z" />
<glyph unicode="&#x294;" horiz-adv-x="1098" d="M410 106v726h116q90 0 134 62q42 60 42 254q0 190 -42 250q-44 62 -134 62q-82 0 -125 -46q-43 -44 -49 -140h-96v218q62 34 128 50t138 16q170 0 268 -93t98 -317q0 -228 -98 -322q-82 -77 -196 -85v-635h174v-106h-174h-184h-176v106h176z" />
<glyph unicode="&#x295;" horiz-adv-x="1098" d="M712 0h-184h-174v106h174v635q-114 8 -196 85q-98 94 -98 322q0 224 98 317q97 93 268 93q72 0 138 -16q65 -16 127 -50v-218h-95q-7 96 -50 140q-42 46 -124 46q-91 0 -134 -62q-43 -60 -43 -250q0 -194 43 -254q43 -62 134 -62h116v-726h176v-106h-176z" />
<glyph unicode="&#x296;" horiz-adv-x="1098" d="M410 1558h184h174v-106h-174v-634q114 -9 196 -86q98 -94 98 -322q0 -223 -98 -316q-98 -94 -268 -94q-72 0 -138 16q-66 17 -128 50v219h96q6 -96 49 -141t125 -45q90 0 134 61q42 60 42 250q0 195 -42 255q-44 61 -134 61h-116v726h-176v106h176z" />
<glyph unicode="&#x297;" horiz-adv-x="1051" d="M114 125v1079q0 164 98 258q97 93 268 93q72 0 138 -17q65 -16 127 -49v-219h-95q-7 96 -50 141q-42 45 -124 45q-91 0 -134 -62q-43 -59 -43 -190v-1076v-232q0 -130 43 -190q43 -62 134 -62q82 0 124 45q43 45 50 141h95v-219q-62 -33 -127 -49q-66 -17 -138 -17 q-171 0 -268 93q-98 94 -98 258v229z" />
<glyph unicode="&#x298;" horiz-adv-x="1679" d="M726 745q0 46 34 80q32 34 80 34q46 0 80 -34q32 -34 32 -80q0 -47 -33 -80t-80 -33t-79 33q-34 33 -34 80zM840 78q245 0 370 168.5t125 498.5q0 331 -125 499.5t-370 168.5q-246 0 -371 -168.5t-125 -499.5q0 -330 125 -498.5t371 -168.5zM840 -29q-152 0 -279.5 50 t-224.5 147q-112 112 -166.5 254t-54.5 323t54.5 323.5t166.5 254.5q98 98 224 147.5t280 49.5q325 0 525 -213t200 -562q0 -179 -55 -322.5t-167 -254.5q-98 -98 -224 -147.5t-279 -49.5z" />
<glyph unicode="&#x299;" horiz-adv-x="1153" d="M662 1063q348 0 348 -263q0 -94 -61 -150.5t-178 -69.5q296 -35 296 -272q0 -158 -107 -233t-334 -75h-553v106h167v851h-167v106h589zM424 642h169q106 0 163.5 44.5t57.5 112.5t-58 113t-163 45h-169v-315zM424 106h204q117 0 180.5 56t63.5 147t-63 146t-181 55h-204 v-404z" />
<glyph unicode="&#x29a;" horiz-adv-x="1256" d="M539 70q12 0 100 18q41 8 112 45q240 124 240 399q0 259 -240 398q-16 15 -112 45q-38 12 -100 12q-108 0 -166 -51q-57 -52 -57 -147q0 -105 70 -158q71 -53 209 -53h38v-99h-38q-138 0 -209 -53q-70 -53 -70 -158q0 -96 57 -147q58 -51 166 -51zM822 1018 q341 -150 341 -490q0 -308 -341 -490q-58 -31 -159 -55q-78 -19 -152 -19q-196 1 -303 77q-106 77 -106 218q0 103 75 174q76 71 211 95q-135 25 -211 96q-75 71 -75 174q0 141 106 217q106 77 303 77q40 0 152 -18q55 -6 159 -56z" />
<glyph unicode="&#x29b;" horiz-adv-x="1339" d="M1018 725h-107q-29 157 -91 204q-82 64 -202 64q-130 0 -221 -121q-89 -119 -89 -360q0 -236 92 -358q79 -100 317 -100q61 0 132 30q53 22 65 30l-2 286h-197v77h339v-402q-93 -56 -201 -84q-107 -28 -229 -28q-237 0 -380 153q-142 153 -142 407q0 255 143 408 q143 152 384 152q90 0 185 -22l18 -4v148q0 164 97 257q97 94 269 94q72 0 137 -16q65 -17 127 -50v-219h-94q-8 96 -50 141t-124 45q-92 0 -135 -61q-43 -59 -43 -191v-207l2 -1v-272z" />
<glyph unicode="&#x29c;" horiz-adv-x="1365" d="M1091 957v-851h166v-106h-516v106h166v410h-487v-410h166v-106h-516v106h166v851h-166v106h516v-106h-166v-317h487v317h-166v106h516v-106h-166z" />
<glyph unicode="&#x29d;" horiz-adv-x="749" d="M319 1393q0 46 33 80q34 34 81 34q46 0 79 -34q34 -34 34 -80q0 -47 -33 -80t-80 -33t-81 33q-33 33 -33 80zM514 -290q43 -98 49 -164h-113l-17 75q-100 -76 -251 -76q-379 0 -379 199q0 230 260 230q190 0 301 -60v1042h-174v107h358v-1167q0 -113 -34 -186zM350 -216 q-56 90 -218 90q-111 0 -111 -123q0 -95 165 -95q126 0 164 128z" />
<glyph unicode="&#x29e;" horiz-adv-x="1241" d="M749 520l145 135v408h350v-106h-166l2 -1279h177v-106h-538v106h177l-2 842l-448 -413h153v-107h-481v107h182l316 292l-404 558h-153v106h524v-106h-152z" />
<glyph unicode="&#x29f;" horiz-adv-x="1112" d="M84 0v106h190v850h-190v107h583v-107h-190v-833h460v250h123v-373h-976z" />
<glyph unicode="&#x2a0;" horiz-adv-x="1399" d="M1076 -319h175v-107h-534v107h174v485q-54 -100 -137 -148q-84 -47 -207 -47q-196 0 -321 155q-124 156 -124 406t124 405t321 155q123 0 207 -48q83 -47 137 -147v76v232q0 164 97 257q98 94 269 94q72 0 137 -16q66 -17 128 -50v-219h-95q-7 96 -49 141q-43 45 -125 45 q-91 0 -135 -61q-42 -59 -42 -191v-1524zM891 584q0 191 -73 292q-74 101 -214 101q-142 0 -214 -112q-73 -112 -73 -333q0 -220 73 -333q72 -113 214 -113q140 0 214 100q73 101 73 293v105z" />
<glyph unicode="&#x2a1;" horiz-adv-x="1098" d="M594 106h174v-106h-174h-184h-176v106h176v358h-176v106h176v262h116q90 0 134 62q42 60 42 254q0 190 -42 250q-44 62 -134 62q-82 0 -125 -46q-43 -44 -49 -140h-96v218q62 34 128 50t138 16q170 0 268 -93t98 -317q0 -228 -98 -322q-82 -77 -196 -85v-171h174v-106 h-174v-358z" />
<glyph unicode="&#x2a2;" horiz-adv-x="1098" d="M712 0h-184h-174v106h174v358h-174v106h174v171q-114 8 -196 85q-98 94 -98 322q0 224 98 317q97 93 268 93q72 0 138 -16q65 -16 127 -50v-218h-95q-7 96 -50 140q-42 46 -124 46q-91 0 -134 -62q-43 -60 -43 -250q0 -194 43 -254q43 -62 134 -62h116v-262h176v-106 h-176v-358h176v-106h-176z" />
<glyph unicode="&#x2a3;" horiz-adv-x="2040" d="M891 479v105q0 191 -73.5 292t-213.5 101q-142 0 -214.5 -112t-72.5 -333q0 -220 72.5 -333t214.5 -113q140 0 213.5 100.5t73.5 292.5zM1075 1063h870v-86l-666 -871h578v193h107v-299h-1073v166q-54 -100 -137.5 -147.5t-206.5 -47.5q-196 0 -320.5 155.5t-124.5 405.5 t124 405t321 155q123 0 206.5 -47.5t137.5 -147.5v553h-174v106h358v-493zM1075 772v-643l633 827h-527z" />
<glyph unicode="&#x2a4;" horiz-adv-x="2116" d="M1472 423h-95v102l330 431h-527l-105 -184v-666h176v-106h-360v166q-54 -100 -137.5 -147.5t-206.5 -47.5q-196 0 -320.5 155.5t-124.5 405.5t124 405t321 155q123 0 206.5 -47.5t137.5 -147.5v553h-174v106h358v-493h869v-86l-369 -483l79 -7q184 -29 286 -150 q101 -120 101 -312q0 -234 -141 -359q-140 -124 -404 -124q-117 0 -228 28q-112 28 -222 85v324h112q10 -161 97 -244t245 -83q153 0 242 100q88 99 88 271q0 197 -91 299q-91 101 -267 101zM891 479v105q0 191 -73.5 292t-213.5 101q-142 0 -214.5 -112t-72.5 -333 q0 -220 72.5 -333t214.5 -113q140 0 213.5 100.5t73.5 292.5z" />
<glyph unicode="&#x2a5;" horiz-adv-x="2044" d="M891 479v105q0 191 -73.5 292t-213.5 101q-142 0 -214.5 -112t-72.5 -333q0 -220 72.5 -333t214.5 -113q140 0 213.5 100.5t73.5 292.5zM1638 108q219 0 219 99q0 121 -63 121q-156 0 -156 -220zM1075 1063h868v-86l-666 -871h229q0 324 302 324q160 0 159 -230 q0 -200 -330 -200v-190h-131v190h-615v166q-54 -100 -137 -148q-84 -47 -207 -47q-196 0 -321 155q-124 156 -124 406t124 405t321 155q123 0 207 -48q83 -47 137 -147v553h-174v106h358v-493zM1075 772v-640l631 824h-527z" />
</font>
</defs>
</svg>
