<?xml version="1.0" standalone="no"?>
<!DOCTYPE svg PUBLIC "-//W3C//DTD SVG 1.1//EN" "http://www.w3.org/Graphics/SVG/1.1/DTD/svg11.dtd" >
<svg xmlns="http://www.w3.org/2000/svg">
<metadata></metadata>
<defs>
<font id="dejavu_serifitalic" horiz-adv-x="1716" >
<font-face units-per-em="2048" ascent="1556" descent="-492" />
<missing-glyph horiz-adv-x="651" />
<glyph unicode="&#xfb00;" horiz-adv-x="1451" d="M-127 -426l12 98q105 0 156 56q53 60 82 206l198 1022h-176l21 107h176l26 133q35 179 145 269q110 91 289 91q67 0 131.5 -12t126.5 -37l-40 -202h-97q4 21 4 40q0 46 -24 74q-34 39 -113 39q-103 0 -156 -56.5t-81 -201.5l-27 -137h500l26 133q35 179 145 269 q110 91 289 91q67 0 131.5 -12t125.5 -37l-39 -202h-97q4 21 4 40q0 46 -24 74q-34 39 -113 39q-103 0 -156 -56.5t-81 -201.5l-27 -137h297l-21 -107h-297l-198 -1022q-35 -178 -145 -269t-289 -91l12 98q105 0 156 56q53 60 82 206l198 1022h-500l-198 -1022 q-35 -178 -145 -269t-289 -91z" />
<glyph unicode="fi" horiz-adv-x="1366" d="M-127 -426l12 98q105 0 156 56q53 60 82 206l198 1022h-176l21 107h176l19 96q38 197 174.5 297t365.5 100q87 0 175.5 -13t172.5 -40l-42 -217l-94 1q3 18 3 34q0 61 -42 95q-53 42 -176 42q-153 0 -238 -71t-114 -224l-20 -100h711l-186 -957h174l-20 -106h-358 l185 956h-527l-198 -1022q-35 -178 -145 -269t-289 -91z" />
<glyph unicode="fl" horiz-adv-x="1366" d="M-127 -426l12 98q105 0 156 56q53 60 82 206l198 1022h-176l21 107h176l19 96q39 201 177.5 299t382.5 98h397l-282 -1450h175l-20 -106h-359l281 1450h-215q-163 0 -242.5 -65t-109.5 -222l-20 -100h295l-21 -107h-295l-198 -1022q-35 -178 -145 -269t-289 -91z" />
<glyph unicode="&#xfb03;" horiz-adv-x="1928" d="M-127 -426l12 98q105 0 156 56q53 60 82 206l198 1022h-176l21 107h176l26 133q35 179 145 269q110 91 289 91q67 0 131.5 -12t126.5 -37l-40 -202h-97q4 21 4 40q0 46 -24 74q-34 39 -113 39q-103 0 -156 -56.5t-81 -201.5l-27 -137h489l19 96q38 197 174.5 297 t365.5 100q87 0 175.5 -13t172.5 -40l-43 -217l-93 1q2 18 2 34q0 61 -41 95q-53 42 -176 42q-153 0 -238 -71t-115 -224l-19 -100h711l-186 -957h174l-21 -106h-358l186 956h-527l-199 -1022q-34 -178 -144.5 -269t-289.5 -91l12 98q105 0 156 56q54 60 82 206l199 1022 h-489l-198 -1022q-35 -178 -145 -269t-289 -91z" />
<glyph unicode="&#xfb04;" horiz-adv-x="2019" d="M-127 -426l12 98q105 0 156 56q53 60 82 206l198 1022h-176l21 107h176l26 133q35 179 145 269q110 91 289 91q67 0 131.5 -12t126.5 -37l-40 -202h-97q4 21 4 40q0 46 -24 74q-34 39 -113 39q-103 0 -156 -56.5t-81 -201.5l-27 -137h514l19 96q39 201 177.5 299 t382.5 98h397l-282 -1450h175l-20 -106h-359l281 1450h-215q-163 0 -242.5 -65t-109.5 -222l-20 -100h295l-21 -107h-295l-198 -1022q-35 -178 -145 -269t-289 -91l12 98q105 0 156 56q53 60 82 206l198 1022h-514l-198 -1022q-35 -178 -145 -269t-289 -91z" />
<glyph unicode="&#x192;&#x192;" horiz-adv-x="1451" d="M-385 -377l40 202h97q-4 -21 -4 -40q0 -46 24 -74q34 -39 113 -39q105 0 156 56q53 60 82 206l198 1022h-176l21 107h176l26 133q35 179 145 269q110 91 289 91q67 0 131.5 -12t126.5 -37l-40 -202h-97q4 21 4 40q0 46 -24 74q-34 39 -113 39q-103 0 -156 -56.5 t-81 -201.5l-27 -137h500l26 133q35 179 145 269q110 91 289 91q67 0 131.5 -12t125.5 -37l-39 -202h-97q4 21 4 40q0 46 -24 74q-34 39 -113 39q-103 0 -156 -56.5t-81 -201.5l-27 -137h297l-21 -107h-297l-198 -1022q-35 -178 -145 -269t-289 -91q-67 0 -132 12t-126 37 l39 202h97q-4 -21 -4 -40q0 -46 25 -74q34 -39 113 -39q105 0 156 56q53 60 82 206l198 1022h-500l-198 -1022q-35 -178 -145 -269t-289 -91q-67 0 -132 12t-126 37z" />
<glyph unicode="&#x192;i" horiz-adv-x="1366" d="M-376 -330l40 202h97q-4 -21 -4 -40q0 -46 24 -74q34 -39 113 -39q103 0 156 56.5t82 205.5l189 975h-176l21 107h176l19 96q38 197 174.5 297t365.5 100q87 0 175.5 -13t172.5 -40l-42 -217l-94 1q3 18 3 34q0 61 -42 95q-53 42 -176 42q-153 0 -238 -71t-114 -224 l-20 -100h711l-186 -957h174l-20 -106h-358l185 956h-527l-189 -975q-35 -178 -145 -269t-289 -91q-67 0 -131.5 12t-126.5 37z" />
<glyph unicode="&#x192;l" horiz-adv-x="1366" d="M-376 -330l40 202h97q-4 -21 -4 -40q0 -46 24 -74q34 -39 113 -39q103 0 156 56.5t82 205.5l189 975h-176l21 107h176l19 96q39 201 177.5 299t382.5 98h397l-282 -1450h175l-20 -106h-359l281 1450h-215q-163 0 -242.5 -65t-109.5 -222l-20 -100h295l-21 -107h-295 l-189 -975q-35 -178 -145 -269t-289 -91q-67 0 -131.5 12t-126.5 37z" />
<glyph unicode="&#x192;&#x192;i" horiz-adv-x="1928" d="M-385 -330l40 202h97q-4 -21 -4 -40q0 -46 24 -74q34 -39 113 -39q105 0 156 57q52 57 82 205l198 975h-176l21 107h176l26 133q35 179 145 269q110 91 289 91q67 0 131.5 -12t126.5 -37l-40 -202h-97q4 21 4 40q0 46 -24 74q-34 39 -113 39q-103 0 -156 -56.5 t-81 -201.5l-27 -137h489l19 96q38 197 174.5 297t365.5 100q87 0 175.5 -13t172.5 -40l-43 -217l-93 1q2 18 2 34q0 61 -41 95q-53 42 -176 42q-153 0 -238 -71t-115 -224l-19 -100h711l-186 -957h174l-21 -106h-358l186 956h-527l-189 -975q-35 -178 -145 -269t-289 -91 q-67 0 -132 12t-126 37l39 202h97q-3 -21 -3 -40q0 -46 24 -74q34 -39 113 -39q103 0 156 56.5t82 205.5l189 975h-489l-198 -975q-37 -180 -145 -269q-110 -91 -289 -91q-67 0 -132 12t-126 37z" />
<glyph unicode="&#x192;&#x192;l" horiz-adv-x="2019" d="M-385 -330l40 202h97q-4 -21 -4 -40q0 -46 24 -74q34 -39 113 -39q103 0 156 57q51 54 82 205l198 975h-176l21 107h176l26 133q35 179 145 269q110 91 289 91q67 0 131.5 -12t126.5 -37l-40 -202h-97q4 21 4 40q0 46 -24 74q-34 39 -113 39q-103 0 -156 -56.5 t-81 -201.5l-27 -137h514l19 96q39 201 177.5 299t382.5 98h397l-282 -1450h175l-20 -106h-359l281 1450h-215q-163 0 -242.5 -65t-109.5 -222l-20 -100h295l-21 -107h-295l-189 -975q-35 -178 -145 -269t-289 -91q-67 0 -131.5 12t-126.5 37l40 202h97q-4 -21 -4 -40 q0 -46 24 -74q34 -39 113 -39q103 0 156 56.5t82 205.5l189 975h-514l-198 -975q-37 -180 -145 -269q-110 -91 -289 -91q-67 0 -132 12t-126 37z" />
<glyph unicode="&#xd;" horiz-adv-x="682" />
<glyph unicode=" "  horiz-adv-x="651" />
<glyph unicode="&#x09;" horiz-adv-x="651" />
<glyph unicode="&#xa0;" horiz-adv-x="651" />
<glyph unicode="!" horiz-adv-x="823" d="M157 104q11 56 56.5 95t102.5 39q55 0 86.5 -39t20.5 -95q-11 -55 -57.5 -94t-101.5 -39q-57 0 -87.5 38.5t-19.5 94.5zM289 420l49 252l93 821h258l-228 -821l-49 -252h-123z" />
<glyph unicode="&#x22;" horiz-adv-x="942" d="M201 938v555h159v-555h-159zM582 938v555h159v-555h-159z" />
<glyph unicode="#" d="M158 414v153h348l82 334h-316v154h355l104 415h170l-102 -415h282l103 415h172l-105 -415h308v-154h-347l-82 -334h314v-153h-352l-103 -414h-172l105 414h-283l-104 -414h-170l102 414h-309zM676 567h285l81 334h-282z" />
<glyph unicode="$" horiz-adv-x="1303" d="M68 72l54 276h108q-23 -137 39.5 -207t211.5 -73l95 485q-218 64 -295 147.5t-50 221.5q31 160 160 257t327 109l52 268h100l-52 -268q100 -8 188.5 -32.5t169.5 -65.5l-51 -262h-109q11 116 -45 183t-172 76l-88 -452q233 -67 314.5 -153.5t53.5 -231.5 q-32 -166 -167.5 -266t-349.5 -115l-52 -270h-100l52 270q-96 2 -194 27.5t-200 75.5zM443 987q-16 -80 26.5 -133t147.5 -86l82 419q-105 -7 -172 -59.5t-84 -140.5zM581 68q115 10 185.5 65t88.5 150q17 86 -30.5 146t-155.5 91z" />
<glyph unicode="%" horiz-adv-x="1946" d="M185 1114q36 186 150.5 296t272.5 110t230.5 -109.5t36.5 -296.5q-37 -189 -151.5 -298t-273.5 -109t-230.5 109.5t-34.5 297.5zM279 -29l1236 1549h152l-1236 -1549h-152zM343 1112q-28 -147 6 -231t120 -84q85 0 150.5 83.5t94.5 231.5t-4.5 231.5t-118.5 83.5 q-88 0 -153.5 -83t-94.5 -232zM1071 377q37 188 151.5 297.5t273.5 109.5q158 0 230 -110t35.5 -297t-151.5 -296.5t-272 -109.5q-160 0 -231.5 109.5t-35.5 296.5zM1231 377q-28 -147 5.5 -230.5t119.5 -83.5t151.5 83.5t93.5 230.5q29 148 -4 232.5t-118 84.5 q-87 0 -153 -84t-95 -233z" />
<glyph unicode="&#x26;" horiz-adv-x="1823" d="M80 350q0 52 12 111q26 133 124.5 248.5t273.5 216.5q-39 61 -51 122q-6 29 -6 60q0 32 6 66q31 159 164 252.5t330 93.5q67 0 153 -17t194 -51l-50 -258h-113q1 12 1 24q0 89 -47 139q-53 56 -163 56q-103 0 -178 -56.5t-93 -146.5q-4 -21 -4 -42q0 -40 15 -80 q21 -58 108 -173l410 -544q85 80 142.5 172.5t87.5 197.5l21 107h293l-21 -107h-172q-42 -130 -113.5 -243t-173.5 -209l137 -183h235l-21 -106h-401l-109 145q-122 -88 -249.5 -131t-265.5 -43q-258 0 -383 132q-93 98 -93 247zM291 401q0 -113 69 -197q93 -112 265 -112 q102 0 199.5 35.5t181.5 103.5l-463 613q-102 -78 -163 -168.5t-81 -192.5q-8 -43 -8 -82z" />
<glyph unicode="'" horiz-adv-x="563" d="M201 938v555h159v-555h-159z" />
<glyph unicode="(" horiz-adv-x="799" d="M162 618q69 356 239 592.5t434 345.5l-19 -98q-174 -106 -278.5 -298.5t-172.5 -541.5q-68 -348 -38.5 -540.5t163.5 -298.5l-19 -98q-222 109 -300 345.5t-9 591.5z" />
<glyph unicode=")" horiz-adv-x="799" d="M-37 -319l19 98q174 106 279 298.5t173 540.5q68 349 38 541.5t-164 298.5l19 98q223 -109 301 -345.5t9 -592.5q-69 -355 -239 -591.5t-435 -345.5z" />
<glyph unicode="*" horiz-adv-x="1024" d="M33 870l391 183l-391 184l76 119l348 -217l-13 381h136l-13 -381l348 217l76 -119l-391 -182l391 -185l-76 -118l-348 217l13 -381h-136l13 381l-348 -217z" />
<glyph unicode="+" d="M217 561v162h561v561h160v-561h561v-162h-561v-561h-160v561h-561z" />
<glyph unicode="," horiz-adv-x="651" d="M40 -199q108 69 170 162.5t88 226.5l7 37h197q-41 -171 -137.5 -293.5t-259.5 -212.5z" />
<glyph unicode="-" horiz-adv-x="692" d="M75 471l30 156h512l-30 -156h-512z" />
<glyph unicode="." horiz-adv-x="651" d="M193 104q11 56 56.5 95t102.5 39q55 0 86.5 -39t20.5 -95q-11 -55 -57.5 -94t-101.5 -39q-57 0 -87.5 38.5t-19.5 94.5z" />
<glyph unicode="/" horiz-adv-x="690" d="M-164 -190l858 1683h160l-858 -1683h-160z" />
<glyph unicode="0" horiz-adv-x="1303" d="M135 745q71 367 247.5 571t419.5 204q244 0 340 -204t25 -571q-71 -366 -247 -570t-420 -204q-243 0 -339.5 204t-25.5 570zM323.5 238q43.5 -168 196.5 -168t261.5 168t174.5 507q66 340 22.5 508t-196.5 168t-261.5 -168t-174.5 -508q-66 -339 -22.5 -507z" />
<glyph unicode="1" horiz-adv-x="1303" d="M143 0l21 106h260l241 1242l-339 -195l26 131l410 236h138l-275 -1414h260l-21 -106h-721z" />
<glyph unicode="2" horiz-adv-x="1303" d="M-9 0l21 109l541 452q179 150 267.5 275.5t115.5 263.5q29 151 -33 236t-200 85q-143 0 -234.5 -71t-133.5 -213h-112l52 266q118 57 232.5 87t218.5 30q233 0 346 -113t75 -307q-42 -219 -408 -524q-28 -23 -43 -35l-450 -377h623l36 184h117l-68 -348h-963z" />
<glyph unicode="3" horiz-adv-x="1303" d="M25 72l56 290h112q-18 -144 55 -218t231 -74q153 0 258.5 88.5t135.5 242.5q34 176 -39.5 266.5t-249.5 90.5h-95l20 102h50q175 0 276.5 72.5t130.5 218.5q25 131 -33.5 200.5t-193.5 69.5t-222 -64t-124 -190h-112l51 263q126 44 238 67t206 23q219 0 323.5 -94.5 t71.5 -262.5q-26 -135 -128.5 -225.5t-264.5 -122.5q178 -26 259 -133.5t47 -278.5q-40 -209 -202.5 -320.5t-426.5 -111.5q-117 0 -223.5 25t-206.5 76z" />
<glyph unicode="4" horiz-adv-x="1303" d="M-7 399l21 109l851 1012h198l-197 -1014h285l-21 -107h-285l-57 -293h240l-21 -106h-680l21 106h240l57 293h-652zM156 506h510l154 794z" />
<glyph unicode="5" horiz-adv-x="1303" d="M46 72l56 290h113q-19 -142 48 -217t214 -75q158 0 263.5 104t143.5 299q37 194 -27 297.5t-223 103.5q-90 0 -165 -32t-141 -99h-86l146 750h790l-32 -164h-684l-83 -428q59 36 132 54t159 18q242 0 356 -134t69 -366q-46 -237 -213.5 -369.5t-423.5 -132.5 q-103 0 -206 25t-206 76z" />
<glyph unicode="6" horiz-adv-x="1303" d="M128 698q76 392 279 607t496 215q79 0 163 -15t169 -45l-48 -246h-113q8 101 -47 154t-165 53q-194 0 -317.5 -147t-185.5 -452q82 75 175.5 112t201.5 37q223 0 326.5 -134t58.5 -366q-44 -227 -210.5 -363.5t-399.5 -136.5q-253 0 -352 188.5t-31 538.5zM326 483 q-39 -199 16.5 -306t196.5 -107t237 103.5t133.5 297.5t-18 297.5t-196.5 103.5q-143 0 -237.5 -100t-131.5 -289z" />
<glyph unicode="7" horiz-adv-x="1303" d="M249 1145l68 348h983l-20 -102l-854 -1391h-149l815 1329h-690l-36 -184h-117z" />
<glyph unicode="8" horiz-adv-x="1303" d="M71 408q31 159 146 261.5t291 125.5q-146 27 -209.5 114.5t-37.5 223.5q35 180 179.5 283.5t361.5 103.5t320.5 -103.5t68.5 -283.5q-26 -136 -123.5 -223.5t-252.5 -114.5q165 -23 240 -125.5t44 -261.5q-40 -210 -195.5 -323.5t-403.5 -113.5q-247 0 -358 113.5 t-71 323.5zM282 408q-31 -161 31.5 -249.5t206.5 -88.5t240.5 88.5t127.5 249.5q31 160 -31 248.5t-206 88.5t-241 -88.5t-128 -248.5zM464 1133q-26 -137 28.5 -213t177.5 -76q124 0 208 76t110 213q27 136 -27.5 212t-178.5 76q-123 0 -207 -76t-111 -212z" />
<glyph unicode="9" horiz-adv-x="1303" d="M68 31l48 248h112q-6 -101 48.5 -155t163.5 -54q194 0 317.5 146.5t185.5 452.5q-81 -75 -175.5 -112t-203.5 -37q-222 0 -324.5 134t-57.5 366q44 227 210.5 363.5t399.5 136.5q253 0 351.5 -188.5t30.5 -538.5q-76 -392 -279 -607t-495 -215q-79 0 -163 15t-169 45z M393.5 1020q-37.5 -194 17.5 -298t197 -104t237 100.5t132 289.5q39 199 -16.5 306t-196.5 107q-142 0 -237.5 -103.5t-133 -297.5z" />
<glyph unicode=":" horiz-adv-x="690" d="M150 104q11 56 57 95t102 39t87 -39t20 -95t-56.5 -94.5t-102.5 -38.5t-87.5 38.5t-19.5 94.5zM276 756q11 56 57 94.5t102 38.5q57 0 87.5 -38t19.5 -95t-56 -95t-102 -38q-56 0 -87.5 38.5t-20.5 94.5z" />
<glyph unicode=";" horiz-adv-x="690" d="M-24 -199q107 69 169.5 162.5t88.5 226.5l7 37h197q-41 -171 -137.5 -293.5t-260.5 -212.5zM305 756q11 56 57 94.5t102 38.5t86.5 -39t20.5 -94q-11 -56 -57 -94.5t-102 -38.5t-87 38.5t-20 94.5z" />
<glyph unicode="&#x3c;" d="M217 559v166l1282 465v-170l-1038 -379l1038 -377v-170z" />
<glyph unicode="=" d="M217 358v160h1282v-160h-1282zM217 766v160h1282v-160h-1282z" />
<glyph unicode="&#x3e;" d="M217 94v170l1038 377l-1038 379v170l1282 -465v-166z" />
<glyph unicode="?" horiz-adv-x="1098" d="M221 1167l50 260q116 47 216 70t184 23q222 0 329.5 -107t72.5 -289q-37 -186 -170 -304t-366 -169l-50 -254h-123l64 328q185 43 294.5 144t139.5 257q27 137 -31 216t-184 79q-114 0 -199 -65.5t-130 -188.5h-97zM235 104q11 56 57 95t103 39q55 0 86.5 -39t20.5 -95 q-10 -55 -57 -94t-102 -39q-57 0 -88 38.5t-20 94.5z" />
<glyph unicode="@" horiz-adv-x="2048" d="M133 190.5q-35 163.5 2 352.5q36 184 134.5 347t251.5 290q151 126 337 194t380 68q214 0 374 -83t249 -239q57 -98 73.5 -213t-7.5 -239q-52 -268 -245 -423.5t-476 -158.5l31 162q-75 -82 -156.5 -122t-174.5 -40q-175 0 -259.5 125t-45.5 326t172 325.5t308 124.5 q93 0 159 -40t109 -122l27 142h156l-150 -772q178 37 296 162t155 313q21 111 6.5 210t-65.5 183q-80 133 -219 203.5t-318 70.5q-90 0 -181.5 -19t-185.5 -58q-220 -93 -368.5 -281.5t-196.5 -435.5q-32 -167 -9.5 -307.5t97.5 -243.5q86 -119 223 -181.5t310 -62.5 q129 0 248.5 38t230.5 114l39 -70q-126 -93 -272 -139.5t-309 -46.5q-183 0 -336.5 66.5t-254.5 189.5q-104 127 -139 290.5zM779 537q-31 -159 20 -246.5t173 -87.5q114 0 200 78.5t111 203.5l20 105q24 125 -32 202.5t-171 77.5q-121 0 -205.5 -87.5t-115.5 -245.5z" />
<glyph unicode="A" horiz-adv-x="1479" d="M-157 0l20 106h131l802 1387h168l264 -1387h146l-20 -106h-543l20 106h166l-61 328h-628l-189 -328h164l-20 -106h-420zM370 541h548l-136 710z" />
<glyph unicode="B" horiz-adv-x="1505" d="M-32 0l20 106h190l249 1280h-190l21 107h737q227 -1 323 -93q70 -67 70 -183q0 -43 -10 -93q-25 -133 -120 -212t-252 -97q186 -23 266 -121q57 -70 56 -173q0 -42 -9 -89q-43 -222 -203.5 -327t-457.5 -105h-690zM381 106h299q180 0 278.5 78t131.5 248q11 55 11 101 q1 93 -45 145q-68 78 -249 78h-299zM528 862h254q164 0 252 63t114 199q8 41 8 75q0 81 -44 125q-64 62 -228 62h-254z" />
<glyph unicode="C" horiz-adv-x="1567" d="M107 422q-12 62 -12 132q0 90 20 191q68 348 310.5 561.5t571.5 213.5q122 0 253.5 -32t277.5 -97l-66 -344h-113q-1 188 -95 277t-295 89q-239 0 -395 -169.5t-220 -498.5q-27 -136 -27 -245q0 -152 53 -252q90 -170 329 -170q167 0 290.5 79.5t202.5 237.5h184 q-107 -209 -283.5 -316.5t-414.5 -107.5q-146 0 -261 50t-193 147q-90 112 -117 254z" />
<glyph unicode="D" horiz-adv-x="1642" d="M-32 0l20 106h190l249 1280h-190l21 107h594q386 0 564 -197q128 -142 127 -364q0 -86 -19 -184q-68 -352 -322.5 -550t-639.5 -198h-594zM381 106h186q291 0 479 166t248 476q20 102 20 188q0 176 -82 286q-124 164 -416 164h-186z" />
<glyph unicode="E" horiz-adv-x="1495" d="M-32 0l20 106h190l249 1280h-190l21 107h1202l-64 -332h-123l40 209h-686l-97 -500h489l36 187h123l-96 -496h-123l36 187h-489l-121 -625h702l40 209h123l-64 -332h-1218z" />
<glyph unicode="F" horiz-adv-x="1421" d="M-32 0l20 106h190l249 1280h-190l21 107h1222l-64 -332h-123l40 209h-706l-97 -500h510l36 187h123l-96 -496h-123l36 187h-510l-125 -642h239l-20 -106h-632z" />
<glyph unicode="G" horiz-adv-x="1636" d="M115 745q69 354 314 564.5t590 210.5q128 0 258.5 -29.5t272.5 -89.5l-68 -354h-112q1 187 -92.5 276.5t-291.5 89.5q-258 0 -417.5 -166t-224.5 -502q-25 -130 -25 -235q0 -161 59 -263q98 -169 352 -169q113 0 221.5 28t212.5 84l75 385h-281l21 107h484l-109 -557 q-148 -77 -309 -115.5t-336 -38.5q-338 0 -500 211q-114 149 -114 368q0 91 20 195z" />
<glyph unicode="H" horiz-adv-x="1786" d="M-32 0l20 106h190l249 1280h-190l21 107h583l-21 -107h-190l-100 -516h774l100 516h-190l21 107h583l-21 -107h-190l-249 -1280h190l-20 -106h-583l20 106h191l124 642h-774l-125 -642h190l-20 -106h-583z" />
<glyph unicode="I" horiz-adv-x="809" d="M-32 0l20 106h190l249 1280h-190l21 107h583l-21 -107h-190l-249 -1280h190l-20 -106h-583z" />
<glyph unicode="J" horiz-adv-x="821" d="M-345 -358l45 235h114q-5 -31 -5 -58q0 -56 23 -89q35 -49 123 -49q119 0 180.5 75t104.5 293l260 1337h-232l21 107h625l-21 -107h-190l-262 -1345q-48 -247 -168.5 -357t-340.5 -110q-71 0 -141 17t-136 51z" />
<glyph unicode="K" horiz-adv-x="1530" d="M-32 0l20 106h190l249 1280h-190l21 107h583l-21 -107h-190l-110 -565l753 565h-162l21 107h496l-21 -107h-168l-750 -563l577 -717h170l-20 -106h-347l-570 709l-118 -603h190l-20 -106h-583z" />
<glyph unicode="L" horiz-adv-x="1360" d="M-32 0l20 106h190l249 1280h-190l21 107h583l-21 -107h-190l-245 -1263h682l48 250h123l-72 -373h-1198z" />
<glyph unicode="M" horiz-adv-x="2097" d="M-32 0l20 106h190l249 1280h-201l21 107h435l317 -1063l731 1063h408l-21 -107h-199l-248 -1280h190l-20 -106h-584l20 106h190l225 1154l-715 -1041h-141l-309 1041l-225 -1154h190l-20 -106h-503z" />
<glyph unicode="N" horiz-adv-x="1792" d="M-42 0l20 106h201l249 1280h-201l21 107h383l666 -1178l208 1071h-200l21 107h524l-21 -107h-201l-275 -1415h-121l-711 1258l-219 -1123h201l-20 -106h-525z" />
<glyph unicode="O" horiz-adv-x="1679" d="M107 422q-12 62 -12 131q0 90 20 192q35 181 117 323.5t216 254.5q117 98 253 147.5t290 49.5q325 0 483 -213q111 -149 111 -365q0 -93 -20 -197q-35 -179 -118 -322.5t-216 -254.5q-117 -98 -253 -147.5t-289 -49.5q-152 0 -269.5 50t-195.5 147q-90 112 -117 254z M344 745q-26 -135 -26 -244q0 -157 54 -255q92 -168 338 -168q245 0 403 168.5t222 498.5q26 136 26 244q0 155 -54 255q-92 168 -337 169q-246 0 -404 -168.5t-222 -499.5z" />
<glyph unicode="P" horiz-adv-x="1378" d="M-32 0l20 106h190l249 1280h-190l21 107h706q224 1 333 -113q81 -84 81 -213q0 -45 -10 -94q-37 -192 -190 -306t-377 -114h-313l-107 -547h231l-20 -106h-624zM509 760h264q149 0 242.5 80.5t122.5 232.5q10 50 10 92q0 87 -42 141q-62 80 -212 80h-264z" />
<glyph unicode="Q" horiz-adv-x="1679" d="M124 548q0 92 20 197q35 181 117.5 323.5t215.5 254.5q117 98 253 147.5t290 49.5q325 0 483 -213q111 -149 111 -365q0 -92 -20 -197q-58 -296 -247 -497.5t-464 -259.5q41 -67 112 -99t180 -32h250l-36 -185h-117q-265 0 -375 82q-108 82 -154 217q-343 0 -506 211 q-113 147 -113 366zM347 501q0 -155 54 -255q92 -168 338 -168q245 0 403 168.5t222 498.5q26 136 26 245q0 155 -54 254q-92 169 -337 169q-246 0 -404 -168.5t-222 -499.5q-26 -135 -26 -244z" />
<glyph unicode="R" horiz-adv-x="1542" d="M-32 0l20 106h190l249 1280h-190l21 107h757q219 0 317 -104q72 -76 71 -197q0 -46 -10 -98q-30 -154 -134 -242.5t-279 -110.5q66 -19 108 -64.5t66 -127.5l130 -443h182l-20 -106h-352l-141 475q-40 138 -88 178.5t-146 40.5h-223l-115 -588h211l-20 -106h-604z M517 801h295q151 0 236.5 71.5t115.5 221.5q10 50 9 92q-1 82 -39 129q-58 71 -209 71h-295z" />
<glyph unicode="S" horiz-adv-x="1403" d="M59 72l66 340l115 -1q-7 -45 -7 -84q1 -107 57 -167q78 -82 268 -82q178 0 285.5 70.5t133.5 205.5q7 34 7 63q0 63 -32 103q-46 58 -216 113l-185 59q-203 65 -271 162q-46 65 -46 164q0 47 11 102q37 190 192.5 295t399.5 105q104 0 223.5 -22.5t250.5 -65.5l-61 -318 h-113q2 23 2 45q1 123 -63 183q-74 70 -256 71q-158 0 -253 -64.5t-119 -187.5q-6 -32 -6 -59q0 -66 35 -109q50 -61 240 -121l174 -55q191 -61 259 -155q47 -65 47 -161q0 -43 -10 -93q-42 -217 -202.5 -327t-435.5 -110q-123 0 -245.5 25t-244.5 76z" />
<glyph unicode="T" horiz-adv-x="1366" d="M97 1141l68 352h1326l-68 -352h-123l45 233h-439l-247 -1268h191l-20 -106h-584l20 106h191l247 1268h-439l-45 -233h-123z" />
<glyph unicode="U" horiz-adv-x="1726" d="M223 1386l21 107h584l-21 -107h-191l-150 -772q-24 -125 -24 -217q0 -118 40 -182q72 -113 301 -113t344 113t171 399l150 772h-191l21 107h504l-21 -107h-190l-154 -792q-66 -341 -224.5 -482t-472.5 -141t-420 142q-65 88 -65 250q0 101 25 231l154 792h-191z" />
<glyph unicode="V" horiz-adv-x="1479" d="M104 1386l21 107h544l-21 -107h-166l219 -1146l662 1146h-168l21 107h438l-21 -107h-145l-802 -1386h-172l-261 1386h-149z" />
<glyph unicode="W" horiz-adv-x="2105" d="M134 1386l21 107h545l-21 -107h-186l97 -1103l575 1210h162l108 -1223l530 1116h-172l21 107h430l-21 -107h-147l-660 -1386h-164l-106 1214l-578 -1214h-164l-122 1386h-148z" />
<glyph unicode="X" horiz-adv-x="1458" d="M-133 0l20 106h172l552 627l-309 653h-160l21 107h592l-21 -107h-176l227 -481l422 481h-192l21 107h489l-21 -107h-168l-506 -575l334 -705h160l-21 -106h-592l20 106h178l-252 533l-469 -533h193l-20 -106h-494z" />
<glyph unicode="Y" horiz-adv-x="1352" d="M101 1386l21 107h555l-21 -107h-174l256 -604l490 604h-168l21 107h434l-21 -107h-141l-589 -724l-109 -556h191l-20 -106h-584l20 106h191l105 537l-317 743h-140z" />
<glyph unicode="Z" horiz-adv-x="1423" d="M-53 0l14 72l1182 1298h-772l-43 -223h-123l67 346h1180l-14 -72l-1182 -1298h844l40 209h122l-64 -332h-1251z" />
<glyph unicode="[" horiz-adv-x="799" d="M-1 -270l354 1826h465l-20 -106h-274l-314 -1614h274l-20 -106h-465z" />
<glyph unicode="\" horiz-adv-x="690" d="M164 1493h160l202 -1683h-160z" />
<glyph unicode="]" horiz-adv-x="799" d="M-19 -270l20 106h274l314 1614h-274l20 106h465l-354 -1826h-465z" />
<glyph unicode="^" d="M217 936l543 557h196l543 -557h-153l-488 381l-487 -381h-154z" />
<glyph unicode="_" horiz-adv-x="1024" d="M0 -403h1024v-80h-1024v80z" />
<glyph unicode="`" horiz-adv-x="1024" d="M367 1636h197l186 -376h-117z" />
<glyph unicode="a" horiz-adv-x="1221" d="M69 294q0 51 11 108q68 353 314 535q209 155 462 155q170 0 228 -29l-186 -957h158l-20 -106h-324l32 166q-133 -195 -348 -195q-176 0 -265 119q-62 84 -62 204zM263 300q0 -214 207 -214q126 0 211.5 100.5t123.5 292.5l93 482q0 29 -80 29q-192 0 -341 -150 q-148 -151 -201 -425q-13 -64 -13 -115z" />
<glyph unicode="b" horiz-adv-x="1311" d="M88 0l281 1450h-177l21 106h361l-128 -659q73 100 166 147.5t216 47.5q196 0 290 -155q62 -102 62 -245q0 -75 -17 -160q-49 -250 -203 -405.5t-350 -155.5q-123 0 -197.5 47.5t-108.5 147.5l-32 -166h-184zM349 337q0 -91 32 -151q54 -100 194 -100q141 0 235.5 113 t137.5 333q20 101 20 180q0 92 -28 153q-50 112 -192 112q-140 0 -233 -101t-130 -292l-20 -105q-16 -79 -16 -142z" />
<glyph unicode="c" horiz-adv-x="1147" d="M87 385q0 69 15 147q50 255 220.5 407.5t402.5 152.5q101 0 196.5 -23.5t186.5 -71.5l-52 -272h-107v26q0 120 -52 178q-58 64 -189 64q-149 0 -247.5 -115.5t-143.5 -345.5q-20 -105 -20 -187q0 -96 28 -159q53 -116 203 -116q119 0 202 62t134 187h148 q-72 -170 -200.5 -259t-304.5 -89q-232 0 -343 153q-77 107 -77 261z" />
<glyph unicode="d" horiz-adv-x="1311" d="M40 373q0 74 17 159q49 250 203 405t351 155q123 0 197 -47.5t109 -147.5l107 553h-174l21 106h358l-302 -1556h-184l32 166q-74 -100 -166.5 -147.5t-215.5 -47.5q-196 0 -290 155q-63 103 -63 247zM252 353q0 -93 28 -154q50 -113 192 -113q140 0 233 100.5t131 292.5 l20 105q15 78 15 141q0 91 -32 151q-53 101 -193 101q-142 0 -236.5 -112t-137.5 -333q-20 -101 -20 -179z" />
<glyph unicode="e" horiz-adv-x="1212" d="M87 386q0 68 15 145q49 253 218 407t409 154q391 0 391 -277q0 -203 -205 -302q-209 -101 -615 -105q-4 -38 -4 -72q0 -94 34 -156q59 -110 217 -110q116 0 173 35q102 63 126 144h135q-40 -127 -189 -216q-104 -62 -310 -62t-317 153q-78 107 -78 262zM321 514 q321 15 492 118q112 66 112 190q0 171 -227 171q-134 0 -227 -102t-150 -377z" />
<glyph unicode="f" horiz-adv-x="758" d="M-127 -426l12 98q105 0 156 56q53 60 82 206l198 1022h-176l21 107h176l26 133q35 179 145 269q110 91 289 91q67 0 131.5 -12t126.5 -37l-40 -202h-97q4 21 4 40q0 46 -24 74q-34 39 -113 39q-103 0 -156 -56.5t-81 -201.5l-27 -137h297l-21 -107h-297l-198 -1022 q-35 -178 -145 -269t-289 -91z" />
<glyph unicode="g" horiz-adv-x="1311" d="M72 -379l44 223h96v-10q0 -96 55 -142q58 -48 183 -48q162 0 255 92q93 90 131 287l28 143q-73 -100 -166 -147.5t-210 -47.5q-176 0 -265 119q-56 75 -62 179q-1 14 -1 28q0 49 11 105q69 353 314 535q209 154 453 155h14q212 0 271 -29l-203 -1040q-46 -238 -194 -353 q-161 -125 -384 -125q-105 0 -197 19t-173 57zM356 273q4 -62 29 -104q49 -83 177 -83q140 0 233 100.5t130 292.5l20 105l74 372q-1 34 -109 34q-195 0 -342 -150q-147 -151 -201 -425q-12 -64 -12 -115q0 -14 1 -27z" />
<glyph unicode="h" horiz-adv-x="1319" d="M99 0l282 1450h-176l20 106h360l-132 -682q72 108 164 163t200 55q176 0 239 -101q39 -61 39 -163q0 -67 -17 -152l-111 -570h164l-20 -106h-349l120 618q20 103 20 172q0 61 -16 94q-33 72 -155 72q-128 0 -213.5 -93t-119.5 -271l-115 -592h-184z" />
<glyph unicode="i" horiz-adv-x="655" d="M104 0l185 956h-176l21 107h360l-186 -957h174l-20 -106h-358zM321 1370q0 11 2 23q9 46 49 80t87 34q46 0 73 -34q21 -26 21 -58q0 -11 -3 -22q-9 -47 -48.5 -80t-86.5 -33t-74 33q-20 25 -20 57z" />
<glyph unicode="j" horiz-adv-x="635" d="M-375 -389l43 219h95q-3 -25 -3 -46q0 -62 25 -95q34 -45 116 -45q91 0 146 61.5t81 190.5l206 1060h-174l20 107h358l-226 -1167q-32 -164 -148 -257.5t-287 -93.5q-72 0 -134 16.5t-118 49.5zM371 1370q0 11 3 23q8 46 48.5 80t87.5 34q46 0 73 -34q20 -26 20 -58 q0 -11 -2 -22q-10 -47 -48.5 -80t-86.5 -33q-47 0 -75 33q-20 25 -20 57z" />
<glyph unicode="k" horiz-adv-x="1241" d="M85 0l282 1450h-177l20 106h361l-197 -1013l529 413h-153l20 107h299l-20 -107l-373 -292l295 -558h153l-20 -106h-295l-290 543l-171 -135l-79 -408h-184z" />
<glyph unicode="l" horiz-adv-x="655" d="M85 0l282 1450h-177l20 106h361l-282 -1450h174l-20 -106h-358z" />
<glyph unicode="m" horiz-adv-x="1942" d="M144 0l186 958h-176l20 105h360l-36 -189q71 106 161 162t190 56q124 0 195 -61.5t77 -174.5q76 117 170 176.5t204 59.5q167 0 229 -104q37 -62 37 -163q0 -66 -16 -149l-111 -570h166l-20 -106h-350l127 655q15 78 15 134q0 62 -18 98q-34 69 -145 69 q-123 0 -205.5 -93t-117.5 -271l-115 -592h-184l129 662q14 75 14 129q0 62 -18 97q-35 68 -146 68q-123 0 -205.5 -93t-117.5 -271l-115 -592h-184z" />
<glyph unicode="n" horiz-adv-x="1319" d="M144 0l186 956h-176l20 107h360l-36 -189q72 108 164 163t200 55q176 0 240 -101q38 -61 38 -163q0 -67 -17 -152l-111 -570h164l-20 -106h-349l120 618q20 103 20 172q0 61 -16 96q-34 72 -155 72q-128 0 -213 -93.5t-120 -272.5l-115 -592h-184z" />
<glyph unicode="o" horiz-adv-x="1233" d="M87 385q0 69 15 147q49 254 219.5 407t403.5 153t344 -153q76 -106 76 -260q0 -69 -15 -147q-49 -254 -219.5 -407.5t-403.5 -153.5q-232 0 -343 153q-77 107 -77 261zM297 348q0 -97 29 -161q53 -117 200 -117q148 0 246.5 117t142.5 345q20 104 20 185q0 96 -28 159 q-53 117 -201 117t-246.5 -116.5t-142.5 -344.5q-20 -104 -20 -184z" />
<glyph unicode="p" horiz-adv-x="1311" d="M88 -426l269 1382h-177l21 107h361l-32 -166q73 100 166 147.5t216 47.5q196 0 289 -155q62 -102 62 -245q0 -75 -16 -160q-49 -250 -203 -405.5t-350 -155.5q-123 0 -197.5 47.5t-108.5 147.5l-116 -592h-184zM433 337q0 -91 32 -151q54 -100 194 -100q141 0 235.5 113 t137.5 333q19 101 19 180q0 92 -27 153q-51 112 -192 112q-140 0 -233 -101t-130 -292l-21 -105q-15 -79 -15 -142z" />
<glyph unicode="q" horiz-adv-x="1311" d="M184 269q-1 14 -1 28q0 49 11 105q69 353 314 535q209 154 454 155h12q184 0 243 -29l-269 -1383h177l-21 -106h-361l116 592q-69 -100 -153 -148q-84 -47 -195 -47q-176 0 -265 119q-56 75 -62 179zM379 273q4 -62 29 -104q49 -83 177 -83q126 0 211.5 100.5 t122.5 292.5l94 482q1 29 -80 29q-192 0 -341 -150q-148 -151 -202 -425q-12 -64 -12 -115q0 -14 1 -27z" />
<glyph unicode="r" horiz-adv-x="979" d="M144 0l186 958h-176l20 105h360l-36 -189q75 111 170.5 164.5t217.5 53.5q45 0 93 -7t101 -20l-52 -266h-106q3 20 3 37q0 52 -24 81q-31 39 -106 39q-136 0 -227 -94t-125 -270l-115 -592h-184z" />
<glyph unicode="s" horiz-adv-x="1051" d="M23 59l48 248h106q-4 -29 -4 -55q0 -182 247 -182q248 0 284 182q3 18 3 50q0 31 -34 68.5t-177 86.5l-125 45q-128 44 -169.5 100.5t-41.5 121.5q0 26 5 56q29 146 152 229t301 83q177 0 363 -86l-45 -232h-106q4 23 4 43q0 73 -50.5 124.5t-167.5 51.5 q-235 0 -267 -164q-4 -17 -4 -47q0 -31 32.5 -66t159.5 -77l137 -45q142 -47 195 -118q37 -50 37 -99q0 -210 -168 -319q-132 -87 -334 -87t-381 88z" />
<glyph unicode="t" horiz-adv-x="823" d="M112 956l21 107h162l64 330h185l-64 -330h346l-21 -107h-346l-131 -675q-15 -79 -15 -125q0 -32 7 -48q19 -38 89 -38q72 0 113.5 42.5t61.5 137.5h139q-36 -145 -120 -212t-229 -67q-159 0 -212 71q-32 43 -32 123q0 51 13 116l131 675h-162z" />
<glyph unicode="u" horiz-adv-x="1319" d="M140 956l21 107h351l-120 -619q-20 -103 -20 -171q0 -61 16 -95q33 -72 155 -72q128 0 213.5 94t119.5 273l115 590h184l-186 -957h174l-20 -106h-358l36 188q-72 -106 -163.5 -161.5t-198.5 -55.5q-177 0 -241 101q-39 60 -39 163q0 67 17 152l110 569h-166z" />
<glyph unicode="v" horiz-adv-x="1157" d="M77 956l20 107h275l180 -838q115 100 192 227q160 264 217 504h-122l21 107h275q-109 -412 -247 -643q-120 -200 -350 -420h-135l-205 956h-121z" />
<glyph unicode="w" horiz-adv-x="1753" d="M115 954l21 109h274l112 -830l435 830h129l111 -830q133 144 163 197q110 200 218 526l-155 -1l21 108h267l-21 -108h-1q-102 -371 -199 -550q-143 -255 -300 -405h-153l-109 795l-417 -795h-147l-129 956z" />
<glyph unicode="x" horiz-adv-x="1155" d="M6 0l469 510l-236 446h-131l20 107h270l221 -414l381 414h125l-460 -500l243 -457h139l-20 -106h-279l-226 424l-391 -424h-125z" />
<glyph unicode="y" horiz-adv-x="1157" d="M-76 -424l40 203h94q-2 -16 -2 -31q0 -42 18 -66q25 -34 90 -34q176 0 329 153l-251 1155h-121l21 107h275l236 -1055q161 241 200 340q126 311 151 599h-121l21 107h274q-99 -572 -273 -874q-255 -443 -460 -576q-91 -59 -331 -59q-47 0 -94.5 8t-95.5 23z" />
<glyph unicode="z" horiz-adv-x="1079" d="M-21 0l16 86l728 757q-11 4 -40 13q-34 11 -68 33l-49 30q-94 57 -162 57q-131 0 -285 -150l24 121q171 168 301 168q79 -2 190 -71t181 -69q108 0 213 88h60l-16 -86l-727 -758q10 -3 39 -12q34 -11 68 -33l49 -30q94 -57 162 -57q131 0 285 150l-24 -121 q-171 -168 -301 -168q-79 2 -190 71t-181 69q-108 0 -213 -88h-60z" />
<glyph unicode="{" horiz-adv-x="1303" d="M246 559l20 105h61q142 0 207.5 58t94.5 208l50 258q43 221 142 294.5t348 73.5h62l-21 -104h-68q-141 0 -192.5 -44t-78.5 -185l-56 -287q-31 -158 -94 -226t-199 -98q126 -34 162 -101t5 -224l-56 -287q-27 -141 7.5 -185t175.5 -44h68l-21 -105h-62q-249 0 -319 74 t-27 295l50 258q29 150 -13.5 208t-184.5 58h-61z" />
<glyph unicode="|" horiz-adv-x="690" d="M264 -483v2048h162v-2048h-162z" />
<glyph unicode="}" horiz-adv-x="1303" d="M72 -334l21 105h70q140 0 191 43.5t78 185.5l56 287q31 157 93 224t199 101q-124 30 -160.5 98t-5.5 226l56 287q28 142 -6.5 185.5t-174.5 43.5h-70l21 104h63q249 0 318 -73.5t26 -294.5l-50 -258q-29 -150 13.5 -208t184.5 -58h62l-20 -105h-62q-142 0 -207.5 -58 t-94.5 -208l-50 -258q-43 -221 -141 -295t-347 -74h-63z" />
<glyph unicode="~" d="M217 477v152q100 87 189.5 127.5t183.5 40.5q96 0 270 -66l10 -4q11 -4 31 -12q145 -58 242 -58q92 0 180 37t176 113v-148q-100 -88 -190 -130t-183 -42q-96 0 -270 66l-10 4q-11 4 -33 13q-147 57 -242 57q-92 0 -178.5 -36.5t-175.5 -113.5z" />
<glyph unicode="&#xa1;" horiz-adv-x="823" d="M135 0l227 821l49 252h123l-49 -252l-92 -821h-258zM401 1389q11 56 56.5 94.5t102.5 38.5q55 0 86.5 -39t20.5 -94q-11 -56 -57.5 -95t-101.5 -39q-57 0 -87.5 39t-19.5 95z" />
<glyph unicode="&#xa2;" horiz-adv-x="1303" d="M154 532q48 242 204.5 391.5t379.5 166.5l52 266h100l-52 -266q90 -8 169.5 -31t152.5 -62l-53 -272h-106q5 123 -40 188.5t-142 77.5l-179 -919q92 12 162.5 75.5t112.5 171.5h148q-65 -154 -175.5 -240.5t-266.5 -105.5l-53 -270h-100l53 270q-216 19 -314.5 169 t-52.5 390zM371 532q-41 -215 1 -330t168 -130l179 919q-132 -15 -219 -130t-129 -329z" />
<glyph unicode="&#xa3;" horiz-adv-x="1303" d="M-11 0l21 106h193l115 594h-193l21 107h193l57 295q40 205 175.5 311.5t356.5 106.5q85 0 163.5 -12.5t148.5 -37.5l-48 -245h-105q9 95 -38 145.5t-143 50.5q-127 0 -202.5 -77.5t-107.5 -241.5l-57 -295h412l-21 -107h-412l-112 -579h478l44 227h116l-68 -348h-987z " />
<glyph unicode="&#xa4;" horiz-adv-x="1303" d="M104 186l205 207q-41 62 -61.5 123t-20.5 125q0 70 21 129.5t65 116.5l-207 207l95 94l207 -207q56 44 116 65t129 21q66 0 127 -20t121 -62l209 207l94 -94l-209 -209q43 -60 63.5 -121t20.5 -127q0 -69 -20.5 -128t-65.5 -116l207 -207l-96 -94l-207 205 q-56 -44 -115.5 -65t-128.5 -21q-64 0 -126.5 20.5t-123.5 61.5l-204 -205zM385 643q0 -114 77.5 -192t190.5 -78t191 78.5t78 191.5q0 112 -77.5 189t-191.5 77q-112 0 -190 -77t-78 -189z" />
<glyph unicode="&#xa5;" horiz-adv-x="1303" d="M94 473l20 105h404l13 65l-55 141h-322l21 105h263l-191 497h-139l21 107h553l-21 -107h-175l226 -604l456 604h-167l21 107h432l-21 -107h-142l-380 -497h272l-21 -105h-332l-94 -122l-17 -84h403l-20 -105h-403l-72 -367h190l-20 -106h-582l20 106h191l72 367h-404z " />
<glyph unicode="&#xa6;" horiz-adv-x="690" d="M264 -350v758h162v-758h-162zM264 674v758h162v-758h-162z" />
<glyph unicode="&#xa7;" horiz-adv-x="1024" d="M4 -139l41 209l92 -1q-14 -80 32 -120.5t153 -40.5q104 0 174 49t87 133q22 113 -182 240q-18 12 -28 18q-192 122 -240.5 197t-29.5 174q18 94 90 160.5t187 97.5q-72 49 -99.5 112t-11.5 142q25 130 140.5 209.5t281.5 79.5q78 0 151 -14t143 -42l-39 -202h-92 q12 72 -32 113.5t-132 41.5q-100 0 -167 -48.5t-83 -131.5q-19 -97 200 -234q23 -15 34 -22q174 -109 222 -184t28 -174q-18 -95 -83 -158t-187 -107q69 -47 93 -110t6 -154q-25 -131 -142.5 -210t-290.5 -79q-90 0 -167 13.5t-149 42.5zM274 754q-26 -132 298 -335l28 -18 q66 38 104.5 86t49.5 105q15 75 -41.5 142t-280.5 202q-77 -46 -112.5 -87.5t-45.5 -94.5z" />
<glyph unicode="&#xa8;" horiz-adv-x="1024" d="M395 1452q9 48 51 82q41 35 88 35q48 0 76 -35q27 -34 18 -82q-10 -51 -49 -84q-40 -33 -91 -33q-50 0 -76 33q-27 33 -17 84zM784 1452q9 48 51 82q41 35 89 35q47 0 75 -35q27 -34 18 -82q-10 -51 -49 -84q-40 -33 -90 -33q-51 0 -77 33q-27 33 -17 84z" />
<glyph unicode="&#xa9;" horiz-adv-x="2048" d="M283 741q0 154 54 285t163 240t240.5 164t283.5 55t283.5 -55t240.5 -164t163 -240t54 -285q0 -152 -54 -282.5t-163 -239.5t-240.5 -164t-283.5 -55t-283.5 55t-240.5 164t-163 239.5t-54 282.5zM385 741q0 -130 47.5 -243t140.5 -207q94 -94 207 -141.5t244 -47.5 q132 0 245.5 47.5t207.5 141.5q93 93 139.5 206t46.5 244q0 133 -47 246.5t-139 206.5q-94 94 -207.5 141t-245.5 47q-131 0 -244 -47t-207 -141q-93 -93 -140.5 -207.5t-47.5 -245.5zM616 741q0 201 112.5 322t297.5 121q80 0 157.5 -18.5t164.5 -57.5v-213h-84 q-17 109 -74 160t-162 51q-119 0 -179.5 -91.5t-60.5 -273.5q0 -181 60 -271.5t178 -90.5q97 0 153.5 47.5t77.5 146.5h119q-27 -131 -117.5 -201.5t-232.5 -70.5q-187 0 -298.5 120t-111.5 320z" />
<glyph unicode="&#xaa;" horiz-adv-x="973" d="M72 535l20 104h698l-20 -104h-698zM133 969q0 46 10 100q33 166 139 285q107 118 246 145q29 5 54 5q40 0 72 -13q53 -22 87 -81l15 84h126l-126 -650h128l-17 -88h-254l34 178q-60 -77 -124 -121q-66 -43 -139 -57q-33 -6 -61 -6q-94 0 -145 67q-45 58 -45 152z M275 1004q0 -64 24 -102q31 -48 96 -48q19 0 41 4q91 17 160 93t89 179l17 86q6 32 6 59q0 61 -31 97q-33 41 -93 41q-20 0 -42 -4q-97 -18 -164 -100q-68 -83 -93 -213q-10 -51 -10 -92z" />
<glyph unicode="&#xab;" horiz-adv-x="1253" d="M150 559l16 82l550 418l-22 -115l-364 -344l230 -344l-22 -115zM584 559l16 82l550 418l-22 -115l-364 -344l230 -344l-22 -115z" />
<glyph unicode="&#xac;" d="M217 700v162h1282v-575h-160v413h-1122z" />
<glyph unicode="&#xad;" horiz-adv-x="692" d="M75 471l30 156h512l-30 -156h-512z" />
<glyph unicode="&#xae;" horiz-adv-x="2048" d="M283 741q0 154 54 285t163 240t240.5 164t283.5 55t283.5 -55t240.5 -164t163 -240t54 -285q0 -152 -54 -282.5t-163 -239.5t-240.5 -164t-283.5 -55t-283.5 55t-240.5 164t-163 239.5t-54 282.5zM385 741q0 -130 47.5 -243t140.5 -207q94 -94 207 -141.5t244 -47.5 q132 0 245.5 47.5t207.5 141.5q93 93 139.5 206t46.5 244q0 133 -47 246.5t-139 206.5q-94 94 -207.5 141t-245.5 47q-131 0 -244 -47t-207 -141q-93 -93 -140.5 -207.5t-47.5 -245.5zM662 352v68h83v672h-83v67h415q128 0 193 -56t65 -165q0 -83 -48 -128.5t-146 -55.5 q42 -14 71.5 -39.5t49.5 -65.5l116 -229h76v-68h-190l-131 254q-35 70 -66 93.5t-80 23.5h-92v-303h84v-68h-317zM895 791h125q83 0 124.5 38t41.5 113q0 74 -42 112t-124 38h-125v-301z" />
<glyph unicode="&#xaf;" horiz-adv-x="1024" d="M368 1378l28 148h598l-28 -148h-598z" />
<glyph unicode="&#xb0;" horiz-adv-x="1024" d="M195 1200q0 134 92 227t225 93q64 0 123 -24.5t102 -70.5q46 -45 69 -102t23 -123q0 -132 -92.5 -223.5t-226.5 -91.5q-135 0 -225 90t-90 225zM332 1200q0 -76 51.5 -127t128.5 -51q76 0 128 51.5t52 126.5t-53 128.5t-127 53.5q-76 0 -128 -52.5t-52 -129.5z" />
<glyph unicode="&#xb1;" d="M217 0v160h1282v-160h-1282zM217 731v162h561v391h160v-391h561v-162h-561v-391h-160v391h-561z" />
<glyph unicode="&#xb2;" horiz-adv-x="821" d="M7 668l15 75l334 254q101 77 150 138t62 127q16 85 -23 134.5t-123 49.5q-78 0 -132 -38t-81 -112h-70l31 158q72 32 145.5 49t142.5 17q138 0 210.5 -66t52.5 -170q-24 -122 -252 -296l-22 -17l-280 -215h385l21 108h74l-38 -196h-602z" />
<glyph unicode="&#xb3;" horiz-adv-x="821" d="M27 709l33 170l69 -1q-9 -74 32.5 -112.5t133.5 -38.5q94 0 153.5 44t75.5 126q18 93 -23.5 140.5t-142.5 47.5h-53l14 74h27q97 0 153.5 37t71.5 111q13 67 -20.5 103t-109.5 36q-82 0 -132 -32t-69 -97h-70l29 151q78 26 147.5 39t128.5 13q138 0 202 -54t45 -153 q-14 -72 -76.5 -122t-161.5 -67q116 -16 165 -75.5t30 -159.5q-23 -114 -122 -175t-262 -61q-72 0 -139 14t-129 42z" />
<glyph unicode="&#xb4;" horiz-adv-x="1024" d="M526 1262l332 376h199l-414 -376h-117z" />
<glyph unicode="&#xb5;" horiz-adv-x="1331" d="M91 -426l269 1382h-166l21 107h350l-121 -619q-19 -102 -19 -170q0 -62 16 -96q34 -72 155 -72q128 0 213 94t120 273l115 590h184l-187 -959h174l-20 -104h-358l37 188q-73 -106 -157.5 -161.5t-174.5 -55.5q-57 0 -100.5 18t-75.5 54l-91 -469h-184z" />
<glyph unicode="&#xb6;" horiz-adv-x="1303" d="M240 1071q37 190 189.5 306t367.5 116h538l-21 -107h-118l-307 -1583h-107l307 1583h-231l-307 -1583h-107l164 846q-212 17 -308 127.5t-60 294.5z" />
<glyph unicode="&#xb7;" horiz-adv-x="651" d="M190 711q11 56 57 94.5t103 38.5q55 0 86.5 -39t20.5 -94q-11 -56 -57.5 -94.5t-101.5 -38.5q-57 0 -88 38t-20 95z" />
<glyph unicode="&#xb8;" horiz-adv-x="1024" d="M257 -371l26 131q37 -17 75 -25.5t73 -8.5q57 0 95 26.5t47 71.5q6 28 -7.5 72t-46.5 104h97q52 -64 72.5 -120t11.5 -105q-16 -81 -87.5 -125.5t-183.5 -44.5q-42 0 -85 6t-87 18z" />
<glyph unicode="&#xb9;" horiz-adv-x="821" d="M95 668l16 84h172l123 634l-221 -106l18 94l265 129h102l-146 -751h173l-16 -84h-486z" />
<glyph unicode="&#xba;" horiz-adv-x="963" d="M41 535l20 104h688l-20 -104h-688zM114 1128q34 177 161 284.5t302 107.5t260 -107.5t50.5 -284.5t-160.5 -284t-302 -107q-175 0 -260.5 107.5t-50.5 283.5zM288 1128q-31 -155 7.5 -235t143.5 -80q106 0 175 79.5t99.5 235.5t-8 236t-143.5 80q-104 0 -174.5 -81 t-99.5 -235z" />
<glyph unicode="&#xbb;" horiz-adv-x="1253" d="M104 141l22 115l363 344l-229 344l22 115l388 -418l-16 -82zM538 141l22 115l364 344l-230 344l22 115l388 -418l-16 -82z" />
<glyph unicode="&#xbc;" horiz-adv-x="1985" d="M95 668l16 84h172l123 634l-221 -106l18 94l265 129h102l-146 -751h173l-16 -84h-486zM295 -29l1244 1549h150l-1244 -1549h-150zM1048 221l16 84l503 530h141l-103 -532h164l-16 -82h-164l-27 -137h145l-16 -84h-434l16 84h146l27 137h-398zM1154 303h308l79 407z" />
<glyph unicode="&#xbd;" horiz-adv-x="1985" d="M95 668l16 84h172l123 634l-221 -106l18 94l265 129h102l-146 -751h173l-16 -84h-486zM295 -29l1244 1549h150l-1244 -1549h-150zM1040 0l15 75l334 254q101 77 150 138t62 127q16 85 -23 134.5t-123 49.5q-78 0 -132 -38t-81 -112h-70l31 158q72 32 145.5 49t142.5 17 q138 0 210.5 -66t52.5 -170q-24 -122 -252 -296l-22 -17l-280 -215h385l21 108h74l-38 -196h-602z" />
<glyph unicode="&#xbe;" horiz-adv-x="1985" d="M27 709l33 170l69 -1q-9 -74 32.5 -112.5t133.5 -38.5q94 0 153.5 44t75.5 126q18 93 -23.5 140.5t-142.5 47.5h-53l14 74h27q97 0 153.5 37t71.5 111q13 67 -20.5 103t-109.5 36q-82 0 -132 -32t-69 -97h-70l29 151q78 26 147.5 39t128.5 13q138 0 202 -54t45 -153 q-14 -72 -76.5 -122t-161.5 -67q116 -16 165 -75.5t30 -159.5q-23 -114 -122 -175t-262 -61q-72 0 -139 14t-129 42zM295 -29l1244 1549h150l-1244 -1549h-150zM1048 221l16 84l503 530h141l-103 -532h164l-16 -82h-164l-27 -137h145l-16 -84h-434l16 84h146l27 137h-398z M1154 303h308l79 407z" />
<glyph unicode="&#xbf;" horiz-adv-x="1098" d="M65 369q37 186 170.5 304t366.5 169l50 254h123l-64 -328q-185 -43 -295 -144t-140 -257q-27 -137 31.5 -216t184.5 -79q113 0 198.5 65.5t130.5 188.5h96l-50 -260q-116 -47 -215.5 -70t-184.5 -23q-221 0 -329 107t-73 289zM637 1389q10 55 57 94t102 39 q57 0 87.5 -38.5t19.5 -94.5t-57 -95t-102 -39q-55 0 -86.5 39t-20.5 95z" />
<glyph unicode="&#xc0;" horiz-adv-x="1479" d="M-157 0l20 106h131l802 1387h168l264 -1387h146l-20 -106h-543l20 106h166l-61 328h-628l-189 -328h164l-20 -106h-420zM370 541h548l-136 710zM670 1899h196l131 -264h-117z" />
<glyph unicode="&#xc1;" horiz-adv-x="1479" d="M-157 0l20 106h131l802 1387h168l264 -1387h146l-20 -106h-543l20 106h166l-61 328h-628l-189 -328h164l-20 -106h-420zM370 541h548l-136 710zM817 1635l234 264h197l-314 -264h-117z" />
<glyph unicode="&#xc2;" horiz-adv-x="1479" d="M-157 0l20 106h131l802 1387h168l264 -1387h146l-20 -106h-543l20 106h166l-61 328h-628l-189 -328h164l-20 -106h-420zM370 541h548l-136 710zM569 1635l283 264h176l179 -264h-116l-171 161l-235 -161h-116z" />
<glyph unicode="&#xc3;" horiz-adv-x="1479" d="M-157 0l20 106h131l802 1387h168l264 -1387h146l-20 -106h-543l20 106h166l-61 328h-628l-189 -328h164l-20 -106h-420zM370 541h548l-136 710zM587 1668q21 100 84 159q62 59 147 59q36 0 66 -9q29 -9 78 -40l44 -26q20 -13 41 -20q20 -7 37 -7q41 0 70 27q29 28 38 75 h97q-22 -105 -85 -162q-62 -57 -156 -57q-67 0 -131 45l-4 3l-43 28q-17 13 -36 20t-36 7q-39 0 -71 -29q-31 -28 -44 -74z" />
<glyph unicode="&#xc4;" horiz-adv-x="1479" d="M-157 0l20 106h131l802 1387h168l264 -1387h146l-20 -106h-543l20 106h166l-61 328h-628l-189 -328h164l-20 -106h-420zM370 541h548l-136 710zM611 1768q9 46 50 81q42 35 89 35q48 0 75 -35q28 -35 19 -81q-10 -50 -50 -83q-40 -34 -90 -34q-49 0 -76 34q-27 33 -17 83 zM1000 1768q9 46 50 81q42 35 90 35q47 0 74 -35q28 -35 19 -81q-10 -50 -50 -83q-40 -34 -89 -34q-50 0 -77 34q-27 33 -17 83z" />
<glyph unicode="&#xc5;" horiz-adv-x="1479" d="M-197 0l21 106h131l737 1278q-65 37 -90.5 98t-9.5 144q22 114 118 194.5t210 80.5t178.5 -80.5t42.5 -194.5q-15 -80 -66.5 -143.5t-130.5 -98.5l244 -1278h147l-21 -106h-543l21 106h166l-61 328h-628l-189 -328h164l-21 -106h-420zM330 541h546l-134 710zM715 1626 q-12 -63 23 -107t99 -44q63 0 116 44t65.5 107t-23.5 107.5t-99 44.5q-64 0 -116 -43.5t-65 -108.5z" />
<glyph unicode="&#xc6;" horiz-adv-x="2050" d="M-180 0l20 106h131l839 1280h-215l21 107h1456l-64 -332h-123l40 209h-688l-97 -500h492l36 187h123l-96 -496h-123l36 187h-492l-121 -625h705l40 209h123l-64 -332h-1219l20 106h190l64 328h-538l-216 -328h164l-20 -106h-424zM386 541h489l164 845h-100z" />
<glyph unicode="&#xc7;" horiz-adv-x="1567" d="M107 422.5q-27 142.5 8 322.5q68 348 310.5 561.5t571.5 213.5q122 0 253.5 -32t277.5 -97l-66 -344h-113q-1 188 -95 277t-295 89q-239 0 -395 -169.5t-220 -498.5q-64 -328 26 -497.5t329 -169.5q167 0 290.5 79.5t202.5 237.5h184q-107 -209 -283.5 -316.5 t-414.5 -107.5q-146 0 -261 50t-193 147q-90 112 -117 254.5zM379 -371l26 131q37 -17 75 -25.5t73 -8.5q57 0 95 26.5t47 71.5q6 28 -7.5 72t-46.5 104h97q52 -64 72.5 -120t11.5 -105q-16 -81 -87.5 -125.5t-183.5 -44.5q-42 0 -85 6t-87 18z" />
<glyph unicode="&#xc8;" horiz-adv-x="1495" d="M-32 0l20 106h190l249 1280h-190l21 107h1202l-64 -332h-123l40 209h-686l-97 -500h489l36 187h123l-96 -496h-123l36 187h-489l-121 -625h702l40 209h123l-64 -332h-1218zM750 1899h196l131 -264h-117z" />
<glyph unicode="&#xc9;" horiz-adv-x="1495" d="M-32 0l20 106h190l249 1280h-190l21 107h1202l-64 -332h-123l40 209h-686l-97 -500h489l36 187h123l-96 -496h-123l36 187h-489l-121 -625h702l40 209h123l-64 -332h-1218zM825 1635l234 264h197l-314 -264h-117z" />
<glyph unicode="&#xca;" horiz-adv-x="1495" d="M-32 0l20 106h190l249 1280h-190l21 107h1202l-64 -332h-123l40 209h-686l-97 -500h489l36 187h123l-96 -496h-123l36 187h-489l-121 -625h702l40 209h123l-64 -332h-1218zM625 1635l283 264h176l179 -264h-116l-171 161l-235 -161h-116z" />
<glyph unicode="&#xcb;" horiz-adv-x="1495" d="M-32 0l20 106h190l249 1280h-190l21 107h1202l-64 -332h-123l40 209h-686l-97 -500h489l36 187h123l-96 -496h-123l36 187h-489l-121 -625h702l40 209h123l-64 -332h-1218zM673 1768q9 46 50 81q42 35 89 35q48 0 75 -35q28 -35 19 -81q-10 -50 -50 -83q-40 -34 -90 -34 q-49 0 -76 34q-27 33 -17 83zM1062 1768q9 46 50 81q42 35 90 35q47 0 74 -35q28 -35 19 -81q-10 -50 -50 -83q-40 -34 -89 -34q-50 0 -77 34q-27 33 -17 83z" />
<glyph unicode="&#xcc;" horiz-adv-x="809" d="M-32 0l20 106h190l249 1280h-190l21 107h583l-21 -107h-190l-249 -1280h190l-20 -106h-583zM373 1899h196l131 -264h-117z" />
<glyph unicode="&#xcd;" horiz-adv-x="809" d="M-32 0l20 106h190l249 1280h-190l21 107h583l-21 -107h-190l-249 -1280h190l-20 -106h-583zM484 1635l234 264h197l-314 -264h-117z" />
<glyph unicode="&#xce;" horiz-adv-x="809" d="M-32 0l20 106h190l249 1280h-190l21 107h583l-21 -107h-190l-249 -1280h190l-20 -106h-583zM284 1635l283 264h176l179 -264h-116l-171 161l-235 -161h-116z" />
<glyph unicode="&#xcf;" horiz-adv-x="809" d="M-32 0l20 106h190l249 1280h-190l21 107h583l-21 -107h-190l-249 -1280h190l-20 -106h-583zM296 1768q9 46 50 81q42 35 89 35q48 0 75 -35q28 -35 19 -81q-10 -50 -50 -83q-40 -34 -90 -34q-49 0 -76 34q-27 33 -17 83zM685 1768q9 46 50 81q42 35 90 35q47 0 74 -35 q28 -35 19 -81q-10 -50 -50 -83q-40 -34 -89 -34q-50 0 -77 34q-27 33 -17 83z" />
<glyph unicode="&#xd0;" horiz-adv-x="1653" d="M-22 0l20 106h190l120 613h-200l24 125h200l105 542h-190l21 107h594q386 0 563.5 -197t108.5 -548q-68 -352 -322.5 -550t-639.5 -198h-594zM389 106h188q291 0 479.5 166t249 476t-63.5 474t-416 164h-188l-105 -542h336l-24 -125h-336z" />
<glyph unicode="&#xd1;" horiz-adv-x="1792" d="M-42 0l20 106h201l249 1280h-201l21 107h383l666 -1178l208 1071h-200l21 107h524l-21 -107h-201l-275 -1415h-121l-711 1258l-219 -1123h201l-20 -106h-525zM781 1668q21 100 84 159q62 59 147 59q36 0 66 -9q29 -9 78 -40l44 -26q20 -13 41 -20q20 -7 37 -7q41 0 70 27 q29 28 38 75h97q-22 -105 -85 -162q-62 -57 -156 -57q-67 0 -131 45l-4 3l-43 28q-17 13 -36 20t-36 7q-39 0 -71 -29q-31 -28 -44 -74z" />
<glyph unicode="&#xd2;" horiz-adv-x="1679" d="M107 422q-27 142 8 323t117 323.5t216 254.5q117 98 253 147.5t290 49.5q325 0 483.5 -213t90.5 -562q-35 -179 -118 -322.5t-216 -254.5q-117 -98 -253 -147.5t-289 -49.5q-152 0 -269.5 50t-195.5 147q-90 112 -117 254zM344 745q-64 -330 28 -498.5t338 -168.5 q245 0 403 168.5t222 498.5q64 331 -28 499.5t-337 168.5q-246 0 -404 -168.5t-222 -499.5zM842 1899h196l131 -264h-117z" />
<glyph unicode="&#xd3;" horiz-adv-x="1679" d="M107 422q-27 142 8 323t117 323.5t216 254.5q117 98 253 147.5t290 49.5q325 0 483.5 -213t90.5 -562q-35 -179 -118 -322.5t-216 -254.5q-117 -98 -253 -147.5t-289 -49.5q-152 0 -269.5 50t-195.5 147q-90 112 -117 254zM344 745q-64 -330 28 -498.5t338 -168.5 q245 0 403 168.5t222 498.5q64 331 -28 499.5t-337 168.5q-246 0 -404 -168.5t-222 -499.5zM917 1635l234 264h197l-314 -264h-117z" />
<glyph unicode="&#xd4;" horiz-adv-x="1679" d="M107 422q-27 142 8 323t117 323.5t216 254.5q117 98 253 147.5t290 49.5q325 0 483.5 -213t90.5 -562q-35 -179 -118 -322.5t-216 -254.5q-117 -98 -253 -147.5t-289 -49.5q-152 0 -269.5 50t-195.5 147q-90 112 -117 254zM344 745q-64 -330 28 -498.5t338 -168.5 q245 0 403 168.5t222 498.5q64 331 -28 499.5t-337 168.5q-246 0 -404 -168.5t-222 -499.5zM717 1635l283 264h176l179 -264h-116l-171 161l-235 -161h-116z" />
<glyph unicode="&#xd5;" horiz-adv-x="1679" d="M107 422q-27 142 8 323t117 323.5t216 254.5q117 98 253 147.5t290 49.5q325 0 483.5 -213t90.5 -562q-35 -179 -118 -322.5t-216 -254.5q-117 -98 -253 -147.5t-289 -49.5q-152 0 -269.5 50t-195.5 147q-90 112 -117 254zM344 745q-64 -330 28 -498.5t338 -168.5 q245 0 403 168.5t222 498.5q64 331 -28 499.5t-337 168.5q-246 0 -404 -168.5t-222 -499.5zM723 1668q21 100 84 159q62 59 147 59q36 0 66 -9q29 -9 78 -40l44 -26q20 -13 41 -20q20 -7 37 -7q41 0 70 27q29 28 38 75h97q-22 -105 -85 -162q-62 -57 -156 -57q-67 0 -131 45 l-4 3l-43 28q-17 13 -36 20t-36 7q-39 0 -71 -29q-31 -28 -44 -74z" />
<glyph unicode="&#xd6;" horiz-adv-x="1679" d="M107 422q-27 142 8 323t117 323.5t216 254.5q117 98 253 147.5t290 49.5q325 0 483.5 -213t90.5 -562q-35 -179 -118 -322.5t-216 -254.5q-117 -98 -253 -147.5t-289 -49.5q-152 0 -269.5 50t-195.5 147q-90 112 -117 254zM344 745q-64 -330 28 -498.5t338 -168.5 q245 0 403 168.5t222 498.5q64 331 -28 499.5t-337 168.5q-246 0 -404 -168.5t-222 -499.5zM765 1768q9 46 50 81q42 35 89 35q48 0 75 -35q28 -35 19 -81q-10 -50 -50 -83q-40 -34 -90 -34q-49 0 -76 34q-27 33 -17 83zM1154 1768q9 46 50 81q42 35 90 35q47 0 74 -35 q28 -35 19 -81q-10 -50 -50 -83q-40 -34 -89 -34q-50 0 -77 34q-27 33 -17 83z" />
<glyph unicode="&#xd7;" d="M283 180l460 461l-460 463l114 113l461 -461l461 461l115 -113l-463 -463l463 -461l-115 -112l-461 460l-461 -460z" />
<glyph unicode="&#xd8;" horiz-adv-x="1679" d="M-43 12l227 207q-66 105 -83 235.5t14 290.5q67 346 309.5 560.5t565.5 214.5q141 0 253 -42.5t192 -125.5l216 198l66 -71l-223 -203q66 -108 84 -239.5t-13 -291.5q-67 -345 -309.5 -559.5t-566.5 -214.5q-141 0 -251.5 43t-194.5 129l-221 -200zM318 529.5 q-3 -96.5 15 -177.5l977 887q-48 88 -132 131t-208 43q-246 0 -404 -168.5t-222 -499.5q-23 -119 -26 -215.5zM368 256q46 -89 131.5 -133.5t210.5 -44.5q245 0 403 168.5t222 498.5q22 117 25 215.5t-15 180.5z" />
<glyph unicode="&#xd9;" horiz-adv-x="1726" d="M223 1386l21 107h584l-21 -107h-191l-150 -772q-56 -286 16 -399t301 -113t344 113t171 399l150 772h-191l21 107h504l-21 -107h-190l-154 -792q-66 -341 -224.5 -482t-472.5 -141t-420 142t-40 481l154 792h-191zM906 1899h196l131 -264h-117z" />
<glyph unicode="&#xda;" horiz-adv-x="1726" d="M223 1386l21 107h584l-21 -107h-191l-150 -772q-56 -286 16 -399t301 -113t344 113t171 399l150 772h-191l21 107h504l-21 -107h-190l-154 -792q-66 -341 -224.5 -482t-472.5 -141t-420 142t-40 481l154 792h-191zM981 1635l234 264h197l-314 -264h-117z" />
<glyph unicode="&#xdb;" horiz-adv-x="1726" d="M223 1386l21 107h584l-21 -107h-191l-150 -772q-56 -286 16 -399t301 -113t344 113t171 399l150 772h-191l21 107h504l-21 -107h-190l-154 -792q-66 -341 -224.5 -482t-472.5 -141t-420 142t-40 481l154 792h-191zM781 1635l283 264h176l179 -264h-116l-171 161 l-235 -161h-116z" />
<glyph unicode="&#xdc;" horiz-adv-x="1726" d="M223 1386l21 107h584l-21 -107h-191l-150 -772q-56 -286 16 -399t301 -113t344 113t171 399l150 772h-191l21 107h504l-21 -107h-190l-154 -792q-66 -341 -224.5 -482t-472.5 -141t-420 142t-40 481l154 792h-191zM829 1768q9 46 50 81q42 35 89 35q48 0 75 -35 q28 -35 19 -81q-10 -50 -50 -83q-40 -34 -90 -34q-49 0 -76 34q-27 33 -17 83zM1218 1768q9 46 50 81q42 35 90 35q47 0 74 -35q28 -35 19 -81q-10 -50 -50 -83q-40 -34 -89 -34q-50 0 -77 34q-27 33 -17 83z" />
<glyph unicode="&#xdd;" horiz-adv-x="1352" d="M101 1386l21 107h555l-21 -107h-174l256 -604l490 604h-168l21 107h434l-21 -107h-141l-589 -724l-109 -556h191l-20 -106h-584l20 106h191l105 537l-317 743h-140zM753 1635l234 264h197l-314 -264h-117z" />
<glyph unicode="&#xde;" horiz-adv-x="1384" d="M-32 0l20 106h190l249 1280h-190l21 107h624l-21 -107h-231l-42 -219h313q224 0 333 -113.5t71 -305.5q-37 -194 -191 -308t-377 -114h-313l-43 -220h231l-20 -106h-624zM445 434h264q149 0 243 80.5t123 233.5q30 152 -32.5 232.5t-211.5 80.5h-264z" />
<glyph unicode="&#xdf;" horiz-adv-x="1368" d="M-175 -426l12 98q105 0 156 56q53 60 82 206l243 1252q34 176 167.5 273t342.5 97q213 0 304.5 -104t62.5 -315h-22q-145 0 -239 -54t-112 -147q-11 -52 8.5 -90.5t83.5 -85.5l79 -55q135 -99 178 -184t21 -199q-30 -155 -164.5 -253t-319.5 -98q-85 0 -165.5 18.5 t-152.5 53.5l45 233h109q-15 -101 30 -153.5t147 -52.5q111 0 186.5 60.5t95.5 164.5q16 84 -12 143q-29 57 -132 131l-75 54q-92 66 -124 129q-32 65 -16 147q24 122 124.5 204t258.5 107q15 119 -42 183.5t-176 64.5q-132 0 -205.5 -64.5t-100.5 -203.5l-244 -1256 q-35 -178 -145 -269t-289 -91z" />
<glyph unicode="&#xe0;" horiz-adv-x="1221" d="M69 294q0 51 11 108q68 353 314 535q209 155 462 155q170 0 228 -29l-186 -957h158l-20 -106h-324l32 166q-133 -195 -348 -195q-176 0 -265 119q-62 84 -62 204zM263 300q0 -214 207 -214q126 0 211.5 100.5t123.5 292.5l93 482q0 29 -80 29q-192 0 -341 -150 q-148 -151 -201 -425q-13 -64 -13 -115zM424 1636h197l186 -376h-117z" />
<glyph unicode="&#xe1;" horiz-adv-x="1221" d="M69 294q0 51 11 108q68 353 314 535q209 155 462 155q170 0 228 -29l-186 -957h158l-20 -106h-324l32 166q-133 -195 -348 -195q-176 0 -265 119q-62 84 -62 204zM263 300q0 -214 207 -214q126 0 211.5 100.5t123.5 292.5l93 482q0 29 -80 29q-192 0 -341 -150 q-148 -151 -201 -425q-13 -64 -13 -115zM583 1262l332 376h199l-414 -376h-117z" />
<glyph unicode="&#xe2;" horiz-adv-x="1221" d="M69 294q0 51 11 108q68 353 314 535q209 155 462 155q170 0 228 -29l-186 -957h158l-20 -106h-324l32 166q-133 -195 -348 -195q-176 0 -265 119q-62 84 -62 204zM263 300q0 -214 207 -214q126 0 211.5 100.5t123.5 292.5l93 482q0 29 -80 29q-192 0 -341 -150 q-148 -151 -201 -425q-13 -64 -13 -115zM405 1262l309 376h168l161 -376h-116l-152 260l-254 -260h-116z" />
<glyph unicode="&#xe3;" horiz-adv-x="1221" d="M69 294q0 51 11 108q68 353 314 535q209 155 462 155q170 0 228 -29l-186 -957h158l-20 -106h-324l32 166q-133 -195 -348 -195q-176 0 -265 119q-62 84 -62 204zM263 300q0 -214 207 -214q126 0 211.5 100.5t123.5 292.5l93 482q0 29 -80 29q-192 0 -341 -150 q-148 -151 -201 -425q-13 -64 -13 -115zM423 1309q28 135 93 209q65 73 156 73q38 0 68 -14q29 -14 60 -47l46 -55q18 -23 34 -31q15 -8 36 -8q43 0 75 40t50 115h96q-28 -135 -93 -209q-65 -73 -156 -73q-38 0 -68 14q-29 14 -60 47l-46 55q-21 24 -36 31q-15 8 -34 8 q-42 0 -74 -40q-32 -39 -51 -115h-96z" />
<glyph unicode="&#xe4;" horiz-adv-x="1221" d="M69 294q0 51 11 108q68 353 314 535q209 155 462 155q170 0 228 -29l-186 -957h158l-20 -106h-324l32 166q-133 -195 -348 -195q-176 0 -265 119q-62 84 -62 204zM263 300q0 -214 207 -214q126 0 211.5 100.5t123.5 292.5l93 482q0 29 -80 29q-192 0 -341 -150 q-148 -151 -201 -425q-13 -64 -13 -115zM452 1452q9 48 51 82q41 35 88 35q48 0 76 -35q27 -34 18 -82q-10 -51 -49 -84q-40 -33 -91 -33q-50 0 -76 33q-27 33 -17 84zM841 1452q9 48 51 82q41 35 89 35q47 0 75 -35q27 -34 18 -82q-10 -51 -49 -84q-40 -33 -90 -33 q-51 0 -77 33q-27 33 -17 84z" />
<glyph unicode="&#xe5;" horiz-adv-x="1221" d="M69 294q0 51 11 108q68 353 314 535q209 155 462 155q170 0 228 -29l-186 -957h158l-20 -106h-324l32 166q-133 -195 -348 -195q-176 0 -265 119q-62 84 -62 204zM263 300q0 -214 207 -214q126 0 211.5 100.5t123.5 292.5l93 482q0 29 -80 29q-192 0 -341 -150 q-148 -151 -201 -425q-13 -64 -13 -115zM485 1524q22 115 117 194q95 80 210 80t179 -80q64 -79 42 -194t-117 -195t-210 -80t-179 80t-42 195zM607 1524q-13 -65 23 -108q35 -44 100 -44q64 0 116 44q53 44 65 108q12 63 -23 107q-36 44 -100 44q-65 0 -117 -43 q-51 -44 -64 -108z" />
<glyph unicode="&#xe6;" horiz-adv-x="1925" d="M69 294q0 51 11 108q68 353 314 535q209 155 462 155q170 0 228 -29l-19 -97q159 126 377 126q391 0 391 -277q0 -399 -820 -407q-4 -38 -4 -72q0 -94 34 -156q59 -110 217 -110q116 0 173 35q102 63 126 144h135q-40 -127 -189 -216q-104 -62 -310 -62q-238 0 -344 196 q-144 -196 -441 -196h-14q-176 0 -265 119q-62 84 -62 204zM263 297q0 -211 207 -211q126 0 211.5 100.5t123.5 292.5l93 482q0 29 -80 29q-192 0 -341 -150q-148 -151 -201 -425q-13 -65 -13 -118zM1034 514q317 14 492 118q112 66 112 190q0 171 -227 171 q-134 0 -227 -102t-150 -377z" />
<glyph unicode="&#xe7;" horiz-adv-x="1147" d="M87 385q0 69 15 147q50 255 220.5 407.5t402.5 152.5q101 0 196.5 -23.5t186.5 -71.5l-52 -272h-107v26q0 120 -52 178q-58 64 -189 64q-149 0 -247.5 -115.5t-143.5 -345.5q-20 -105 -20 -187q0 -96 28 -159q53 -116 203 -116q119 0 202 62t134 187h148 q-72 -170 -200.5 -259t-304.5 -89q-232 0 -343 153q-77 107 -77 261zM197 -371l26 131q37 -17 75 -25.5t73 -8.5q57 0 95 26.5t47 71.5q6 28 -7.5 72t-46.5 104h97q52 -64 72.5 -120t11.5 -105q-16 -81 -87.5 -125.5t-183.5 -44.5q-42 0 -85 6t-87 18z" />
<glyph unicode="&#xe8;" horiz-adv-x="1212" d="M87 386q0 68 15 145q49 253 218 407t409 154q391 0 391 -277q0 -203 -205 -302q-209 -101 -615 -105q-4 -38 -4 -72q0 -94 34 -156q59 -110 217 -110q116 0 173 35q102 63 126 144h135q-40 -127 -189 -216q-104 -62 -310 -62t-317 153q-78 107 -78 262zM321 514 q321 15 492 118q112 66 112 190q0 171 -227 171q-134 0 -227 -102t-150 -377zM461 1636h197l186 -376h-117z" />
<glyph unicode="&#xe9;" horiz-adv-x="1212" d="M87 386q0 68 15 145q49 253 218 407t409 154q391 0 391 -277q0 -203 -205 -302q-209 -101 -615 -105q-4 -38 -4 -72q0 -94 34 -156q59 -110 217 -110q116 0 173 35q102 63 126 144h135q-40 -127 -189 -216q-104 -62 -310 -62t-317 153q-78 107 -78 262zM321 514 q321 15 492 118q112 66 112 190q0 171 -227 171q-134 0 -227 -102t-150 -377zM620 1262l332 376h199l-414 -376h-117z" />
<glyph unicode="&#xea;" horiz-adv-x="1212" d="M87 386q0 68 15 145q49 253 218 407t409 154q391 0 391 -277q0 -203 -205 -302q-209 -101 -615 -105q-4 -38 -4 -72q0 -94 34 -156q59 -110 217 -110q116 0 173 35q102 63 126 144h135q-40 -127 -189 -216q-104 -62 -310 -62t-317 153q-78 107 -78 262zM321 514 q321 15 492 118q112 66 112 190q0 171 -227 171q-134 0 -227 -102t-150 -377zM442 1262l309 376h168l161 -376h-116l-152 260l-254 -260h-116z" />
<glyph unicode="&#xeb;" horiz-adv-x="1212" d="M87 386q0 68 15 145q49 253 218 407t409 154q391 0 391 -277q0 -203 -205 -302q-209 -101 -615 -105q-4 -38 -4 -72q0 -94 34 -156q59 -110 217 -110q116 0 173 35q102 63 126 144h135q-40 -127 -189 -216q-104 -62 -310 -62t-317 153q-78 107 -78 262zM321 514 q321 15 492 118q112 66 112 190q0 171 -227 171q-134 0 -227 -102t-150 -377zM489 1452q9 48 51 82q41 35 88 35q48 0 76 -35q27 -34 18 -82q-10 -51 -49 -84q-40 -33 -91 -33q-50 0 -76 33q-27 33 -17 84zM878 1452q9 48 51 82q41 35 89 35q47 0 75 -35q27 -34 18 -82 q-10 -51 -49 -84q-40 -33 -90 -33q-51 0 -77 33q-27 33 -17 84z" />
<glyph unicode="&#xec;" horiz-adv-x="655" d="M147 0l186 956h-176l20 107h360l-186 -957h174l-20 -106h-358zM183 1636h197l186 -376h-117z" />
<glyph unicode="&#xed;" horiz-adv-x="655" d="M147 0l186 956h-176l20 107h360l-186 -957h174l-20 -106h-358zM342 1262l332 376h199l-414 -376h-117z" />
<glyph unicode="&#xee;" horiz-adv-x="655" d="M147 0l186 956h-176l20 107h360l-186 -957h174l-20 -106h-358zM164 1262l309 376h168l161 -376h-116l-152 260l-254 -260h-116z" />
<glyph unicode="&#xef;" horiz-adv-x="655" d="M147 0l186 956h-176l20 107h360l-186 -957h174l-20 -106h-358zM211 1452q9 48 51 82q41 35 88 35q48 0 76 -35q27 -34 18 -82q-10 -51 -49 -84q-40 -33 -91 -33q-50 0 -76 33q-27 33 -17 84zM600 1452q9 48 51 82q41 35 89 35q47 0 75 -35q27 -34 18 -82q-10 -51 -49 -84 q-40 -33 -90 -33q-51 0 -77 33q-27 33 -17 84z" />
<glyph unicode="&#xf0;" horiz-adv-x="1233" d="M54 518q46 236 215.5 381t397.5 145q35 0 71.5 -3t87.5 -11q-12 53 -38 106.5t-65 108.5l-351 -149l-22 78l319 135q-50 58 -120.5 98.5t-161.5 62.5l35 86q114 -26 209.5 -73t174.5 -115l351 150l21 -78l-312 -133q150 -167 205.5 -362.5t13.5 -412.5 q-49 -254 -219.5 -407.5t-403.5 -153.5q-229 0 -342 151.5t-66 395.5zM267 508q-40 -210 16 -324t198 -114q144 0 244 114.5t141 327.5q22 112 19 217.5t-32 198.5q-43 9 -83 13.5t-80 4.5q-173 0 -276 -107t-147 -331z" />
<glyph unicode="&#xf1;" horiz-adv-x="1319" d="M144 0l186 956h-176l20 107h360l-36 -189q72 108 164 163t200 55q176 0 240 -101q38 -61 38 -163q0 -67 -17 -152l-111 -570h164l-20 -106h-349l120 618q20 103 20 172q0 61 -16 96q-34 72 -155 72q-128 0 -213 -93.5t-120 -272.5l-115 -592h-184zM453 1309 q28 135 93 209q65 73 156 73q38 0 68 -14q29 -14 60 -47l46 -55q18 -23 34 -31q15 -8 36 -8q43 0 75 40t50 115h96q-28 -135 -93 -209q-65 -73 -156 -73q-38 0 -68 14q-29 14 -60 47l-46 55q-21 24 -36 31q-15 8 -34 8q-42 0 -74 -40q-32 -39 -51 -115h-96z" />
<glyph unicode="&#xf2;" horiz-adv-x="1233" d="M87 385q0 69 15 147q49 254 219.5 407t403.5 153t344 -153q76 -106 76 -260q0 -69 -15 -147q-49 -254 -219.5 -407.5t-403.5 -153.5q-232 0 -343 153q-77 107 -77 261zM297 348q0 -97 29 -161q53 -117 200 -117q148 0 246.5 117t142.5 345q20 104 20 185q0 96 -28 159 q-53 117 -201 117t-246.5 -116.5t-142.5 -344.5q-20 -104 -20 -184zM471 1636h197l186 -376h-117z" />
<glyph unicode="&#xf3;" horiz-adv-x="1233" d="M87 385q0 69 15 147q49 254 219.5 407t403.5 153t344 -153q76 -106 76 -260q0 -69 -15 -147q-49 -254 -219.5 -407.5t-403.5 -153.5q-232 0 -343 153q-77 107 -77 261zM297 348q0 -97 29 -161q53 -117 200 -117q148 0 246.5 117t142.5 345q20 104 20 185q0 96 -28 159 q-53 117 -201 117t-246.5 -116.5t-142.5 -344.5q-20 -104 -20 -184zM630 1262l332 376h199l-414 -376h-117z" />
<glyph unicode="&#xf4;" horiz-adv-x="1233" d="M87 385q0 69 15 147q49 254 219.5 407t403.5 153t344 -153q76 -106 76 -260q0 -69 -15 -147q-49 -254 -219.5 -407.5t-403.5 -153.5q-232 0 -343 153q-77 107 -77 261zM297 348q0 -97 29 -161q53 -117 200 -117q148 0 246.5 117t142.5 345q20 104 20 185q0 96 -28 159 q-53 117 -201 117t-246.5 -116.5t-142.5 -344.5q-20 -104 -20 -184zM452 1262l309 376h168l161 -376h-116l-152 260l-254 -260h-116z" />
<glyph unicode="&#xf5;" horiz-adv-x="1233" d="M87 385q0 69 15 147q49 254 219.5 407t403.5 153t344 -153q76 -106 76 -260q0 -69 -15 -147q-49 -254 -219.5 -407.5t-403.5 -153.5q-232 0 -343 153q-77 107 -77 261zM297 348q0 -97 29 -161q53 -117 200 -117q148 0 246.5 117t142.5 345q20 104 20 185q0 96 -28 159 q-53 117 -201 117t-246.5 -116.5t-142.5 -344.5q-20 -104 -20 -184zM470 1309q28 135 93 209q65 73 156 73q38 0 68 -14q29 -14 60 -47l46 -55q18 -23 34 -31q15 -8 36 -8q43 0 75 40t50 115h96q-28 -135 -93 -209q-65 -73 -156 -73q-38 0 -68 14q-29 14 -60 47l-46 55 q-21 24 -36 31q-15 8 -34 8q-42 0 -74 -40q-32 -39 -51 -115h-96z" />
<glyph unicode="&#xf6;" horiz-adv-x="1233" d="M87 385q0 69 15 147q49 254 219.5 407t403.5 153t344 -153q76 -106 76 -260q0 -69 -15 -147q-49 -254 -219.5 -407.5t-403.5 -153.5q-232 0 -343 153q-77 107 -77 261zM297 348q0 -97 29 -161q53 -117 200 -117q148 0 246.5 117t142.5 345q20 104 20 185q0 96 -28 159 q-53 117 -201 117t-246.5 -116.5t-142.5 -344.5q-20 -104 -20 -184zM499 1452q9 48 51 82q41 35 88 35q48 0 76 -35q27 -34 18 -82q-10 -51 -49 -84q-40 -33 -91 -33q-50 0 -76 33q-27 33 -17 84zM888 1452q9 48 51 82q41 35 89 35q47 0 75 -35q27 -34 18 -82 q-10 -51 -49 -84q-40 -33 -90 -33q-51 0 -77 33q-27 33 -17 84z" />
<glyph unicode="&#xf7;" d="M217 561v162h1282v-162h-1282zM725 272q0 56 38.5 95t94.5 39q55 0 94 -39t39 -95q0 -55 -39 -94t-94 -39q-57 0 -95 38.5t-38 94.5zM725 1012q0 56 38.5 94.5t94.5 38.5q55 0 94 -39t39 -94q0 -56 -39 -94.5t-94 -38.5q-57 0 -95 38t-38 95z" />
<glyph unicode="&#xf8;" horiz-adv-x="1233" d="M-33 -31l183 178q-46 77 -58 173.5t10 211.5q49 254 219.5 407t403.5 153q94 0 169 -25.5t129 -75.5l172 166l63 -63l-178 -172q48 -74 60.5 -173t-10.5 -217q-49 -254 -219.5 -407.5t-403.5 -153.5q-94 0 -169 26.5t-131 80.5l-177 -172zM299 401q-4 -59 1 -108l608 586 q-27 57 -77.5 85.5t-124.5 28.5q-147 0 -246 -117t-143 -344q-14 -72 -18 -131zM325 190q28 -61 77.5 -90.5t123.5 -29.5q147 0 246 117.5t143 344.5q15 76 19 136.5t-1 111.5z" />
<glyph unicode="&#xf9;" horiz-adv-x="1319" d="M140 956l21 107h351l-120 -619q-20 -103 -20 -171q0 -61 16 -95q33 -72 155 -72q128 0 213.5 94t119.5 273l115 590h184l-186 -957h174l-20 -106h-358l36 188q-72 -106 -163.5 -161.5t-198.5 -55.5q-177 0 -241 101q-39 60 -39 163q0 67 17 152l110 569h-166zM439 1636 h197l186 -376h-117z" />
<glyph unicode="&#xfa;" horiz-adv-x="1319" d="M140 956l21 107h351l-120 -619q-20 -103 -20 -171q0 -61 16 -95q33 -72 155 -72q128 0 213.5 94t119.5 273l115 590h184l-186 -957h174l-20 -106h-358l36 188q-72 -106 -163.5 -161.5t-198.5 -55.5q-177 0 -241 101q-39 60 -39 163q0 67 17 152l110 569h-166zM598 1262 l332 376h199l-414 -376h-117z" />
<glyph unicode="&#xfb;" horiz-adv-x="1319" d="M140 956l21 107h351l-120 -619q-20 -103 -20 -171q0 -61 16 -95q33 -72 155 -72q128 0 213.5 94t119.5 273l115 590h184l-186 -957h174l-20 -106h-358l36 188q-72 -106 -163.5 -161.5t-198.5 -55.5q-177 0 -241 101q-39 60 -39 163q0 67 17 152l110 569h-166zM420 1262 l309 376h168l161 -376h-116l-152 260l-254 -260h-116z" />
<glyph unicode="&#xfc;" horiz-adv-x="1319" d="M140 956l21 107h351l-120 -619q-20 -103 -20 -171q0 -61 16 -95q33 -72 155 -72q128 0 213.5 94t119.5 273l115 590h184l-186 -957h174l-20 -106h-358l36 188q-72 -106 -163.5 -161.5t-198.5 -55.5q-177 0 -241 101q-39 60 -39 163q0 67 17 152l110 569h-166zM467 1452 q9 48 51 82q41 35 88 35q48 0 76 -35q27 -34 18 -82q-10 -51 -49 -84q-40 -33 -91 -33q-50 0 -76 33q-27 33 -17 84zM856 1452q9 48 51 82q41 35 89 35q47 0 75 -35q27 -34 18 -82q-10 -51 -49 -84q-40 -33 -90 -33q-51 0 -77 33q-27 33 -17 84z" />
<glyph unicode="&#xfd;" horiz-adv-x="1157" d="M-76 -424l40 203h94q-2 -16 -2 -31q0 -42 18 -66q25 -34 90 -34q176 0 329 153l-251 1155h-121l21 107h275l236 -1055q161 241 200 340q126 311 151 599h-121l21 107h274q-99 -572 -273 -874q-255 -443 -460 -576q-91 -59 -331 -59q-47 0 -94.5 8t-95.5 23zM594 1262 l332 376h199l-414 -376h-117z" />
<glyph unicode="&#xfe;" horiz-adv-x="1311" d="M43 -426l365 1876h-177l21 106h361l-128 -659q73 100 165.5 147.5t215.5 47.5q196 0 290 -155q62 -102 62 -245q0 -75 -16 -160q-49 -250 -203 -405.5t-350 -155.5q-123 0 -197.5 47.5t-109.5 147.5l-115 -592h-184zM388 337q0 -91 32 -151q54 -100 194 -100 q141 0 235.5 113t137.5 333q19 101 19 180q0 92 -27 153q-51 112 -192 112q-140 0 -233 -101t-130 -292l-21 -105q-15 -79 -15 -142z" />
<glyph unicode="&#xff;" horiz-adv-x="1157" d="M-76 -424l40 203h94q-2 -16 -2 -31q0 -42 18 -66q25 -34 90 -34q176 0 329 153l-251 1155h-121l21 107h275l236 -1055q161 241 200 340q126 311 151 599h-121l21 107h274q-99 -572 -273 -874q-255 -443 -460 -576q-91 -59 -331 -59q-47 0 -94.5 8t-95.5 23zM463 1452 q9 48 51 82q41 35 88 35q48 0 76 -35q27 -34 18 -82q-10 -51 -49 -84q-40 -33 -91 -33q-50 0 -76 33q-27 33 -17 84zM852 1452q9 48 51 82q41 35 89 35q47 0 75 -35q27 -34 18 -82q-10 -51 -49 -84q-40 -33 -90 -33q-51 0 -77 33q-27 33 -17 84z" />
<glyph unicode="&#x100;" horiz-adv-x="1479" d="M-157 0l20 106h131l802 1387h168l264 -1387h146l-20 -106h-543l20 106h166l-61 328h-628l-189 -328h164l-20 -106h-420zM370 541h548l-136 710zM592 1693l28 148h598l-28 -148h-598z" />
<glyph unicode="&#x101;" horiz-adv-x="1221" d="M69 294q0 51 11 108q68 353 314 535q209 155 462 155q170 0 228 -29l-186 -957h158l-20 -106h-324l32 166q-133 -195 -348 -195q-176 0 -265 119q-62 84 -62 204zM263 300q0 -214 207 -214q126 0 211.5 100.5t123.5 292.5l93 482q0 29 -80 29q-192 0 -341 -150 q-148 -151 -201 -425q-13 -64 -13 -115zM403 1378l28 148h598l-28 -148h-598z" />
<glyph unicode="&#x102;" horiz-adv-x="1479" d="M-157 0l20 106h131l802 1387h168l264 -1387h146l-20 -106h-543l20 106h166l-61 328h-628l-189 -328h164l-20 -106h-420zM370 541h548l-136 710zM623 1897h96q-2 -79 43 -114q45 -36 145 -36t159 36q59 35 87 114h96q-38 -143 -131 -215t-238 -72t-210 72t-47 215z" />
<glyph unicode="&#x103;" horiz-adv-x="1221" d="M69 294q0 51 11 108q68 353 314 535q209 155 462 155q170 0 228 -29l-186 -957h158l-20 -106h-324l32 166q-133 -195 -348 -195q-176 0 -265 119q-62 84 -62 204zM263 300q0 -214 207 -214q126 0 211.5 100.5t123.5 292.5l93 482q0 29 -80 29q-192 0 -341 -150 q-148 -151 -201 -425q-13 -64 -13 -115zM447 1581h96q-2 -79 43 -114q45 -36 145 -36t159 36q59 35 87 114h96q-38 -143 -131 -215t-238 -72t-210 72t-47 215z" />
<glyph unicode="&#x104;" horiz-adv-x="1479" d="M-157 0l20 106h131l802 1387h168l264 -1387h146l-20 -106h-543l20 106h166l-61 328h-628l-189 -328h164l-20 -106h-420zM370 541h548l-136 710zM642 -223q9 49 49.5 101.5t122.5 121.5h94l-1 -2q-111 -123 -120 -170q-9 -46 19 -74t84 -28q27 0 57 6.5t63 19.5l-26 -127 q-37 -9 -71.5 -13.5t-66.5 -4.5q-113 0 -166.5 44.5t-37.5 125.5z" />
<glyph unicode="&#x105;" horiz-adv-x="1221" d="M69 294q0 51 11 108q68 353 314 535q209 155 462 155q170 0 228 -29l-186 -957h158l-20 -106h-324l32 166q-133 -195 -348 -195q-176 0 -265 119q-62 84 -62 204zM263 300q0 -214 207 -214q126 0 211.5 100.5t123.5 292.5l93 482q0 29 -80 29q-192 0 -341 -150 q-148 -151 -201 -425q-13 -64 -13 -115zM537 -223q9 49 49.5 101.5t122.5 121.5h94l-1 -2q-111 -123 -120 -170q-9 -46 19 -74t84 -28q27 0 57 6.5t63 19.5l-26 -127q-37 -9 -71.5 -13.5t-66.5 -4.5q-113 0 -166.5 44.5t-37.5 125.5z" />
<glyph unicode="&#x106;" horiz-adv-x="1567" d="M107 422.5q-27 142.5 8 322.5q68 348 310.5 561.5t571.5 213.5q122 0 253.5 -32t277.5 -97l-66 -344h-113q-1 188 -95 277t-295 89q-239 0 -395 -169.5t-220 -498.5q-64 -328 26 -497.5t329 -169.5q167 0 290.5 79.5t202.5 237.5h184q-107 -209 -283.5 -316.5 t-414.5 -107.5q-146 0 -261 50t-193 147q-90 112 -117 254.5zM899 1635l234 264h197l-314 -264h-117z" />
<glyph unicode="&#x107;" horiz-adv-x="1147" d="M87 385q0 69 15 147q50 255 220.5 407.5t402.5 152.5q101 0 196.5 -23.5t186.5 -71.5l-52 -272h-107v26q0 120 -52 178q-58 64 -189 64q-149 0 -247.5 -115.5t-143.5 -345.5q-20 -105 -20 -187q0 -96 28 -159q53 -116 203 -116q119 0 202 62t134 187h148 q-72 -170 -200.5 -259t-304.5 -89q-232 0 -343 153q-77 107 -77 261zM620 1262l332 376h199l-414 -376h-117z" />
<glyph unicode="&#x108;" horiz-adv-x="1567" d="M107 422.5q-27 142.5 8 322.5q68 348 310.5 561.5t571.5 213.5q122 0 253.5 -32t277.5 -97l-66 -344h-113q-1 188 -95 277t-295 89q-239 0 -395 -169.5t-220 -498.5q-64 -328 26 -497.5t329 -169.5q167 0 290.5 79.5t202.5 237.5h184q-107 -209 -283.5 -316.5 t-414.5 -107.5q-146 0 -261 50t-193 147q-90 112 -117 254.5zM707 1635l283 264h176l179 -264h-116l-171 161l-235 -161h-116z" />
<glyph unicode="&#x109;" horiz-adv-x="1147" d="M87 385q0 69 15 147q50 255 220.5 407.5t402.5 152.5q101 0 196.5 -23.5t186.5 -71.5l-52 -272h-107v26q0 120 -52 178q-58 64 -189 64q-149 0 -247.5 -115.5t-143.5 -345.5q-20 -105 -20 -187q0 -96 28 -159q53 -116 203 -116q119 0 202 62t134 187h148 q-72 -170 -200.5 -259t-304.5 -89q-232 0 -343 153q-77 107 -77 261zM452 1262l309 376h168l161 -376h-116l-152 260l-254 -260h-116z" />
<glyph unicode="&#x10a;" horiz-adv-x="1567" d="M107 422.5q-27 142.5 8 322.5q68 348 310.5 561.5t571.5 213.5q122 0 253.5 -32t277.5 -97l-66 -344h-113q-1 188 -95 277t-295 89q-239 0 -395 -169.5t-220 -498.5q-64 -328 26 -497.5t329 -169.5q167 0 290.5 79.5t202.5 237.5h184q-107 -209 -283.5 -316.5 t-414.5 -107.5q-146 0 -261 50t-193 147q-90 112 -117 254.5zM970 1770q9 46 51 81t89 35t75 -35t19 -81q-10 -50 -50 -83q-40 -34 -90 -34t-77 34q-27 33 -17 83z" />
<glyph unicode="&#x10b;" horiz-adv-x="1147" d="M87 385q0 69 15 147q50 255 220.5 407.5t402.5 152.5q101 0 196.5 -23.5t186.5 -71.5l-52 -272h-107v26q0 120 -52 178q-58 64 -189 64q-149 0 -247.5 -115.5t-143.5 -345.5q-20 -105 -20 -187q0 -96 28 -159q53 -116 203 -116q119 0 202 62t134 187h148 q-72 -170 -200.5 -259t-304.5 -89q-232 0 -343 153q-77 107 -77 261zM689 1452q9 48 51 82q41 35 89 35t76 -35q27 -34 18 -82q-10 -51 -49 -84q-40 -33 -91 -33t-77 33q-27 33 -17 84z" />
<glyph unicode="&#x10c;" horiz-adv-x="1567" d="M107 422.5q-27 142.5 8 322.5q68 348 310.5 561.5t571.5 213.5q122 0 253.5 -32t277.5 -97l-66 -344h-113q-1 188 -95 277t-295 89q-239 0 -395 -169.5t-220 -498.5q-64 -328 26 -497.5t329 -169.5q167 0 290.5 79.5t202.5 237.5h184q-107 -209 -283.5 -316.5 t-414.5 -107.5q-146 0 -261 50t-193 147q-90 112 -117 254.5zM760 1899h116l171 -162l235 162h116l-283 -264h-176z" />
<glyph unicode="&#x10d;" horiz-adv-x="1147" d="M87 385q0 69 15 147q50 255 220.5 407.5t402.5 152.5q101 0 196.5 -23.5t186.5 -71.5l-52 -272h-107v26q0 120 -52 178q-58 64 -189 64q-149 0 -247.5 -115.5t-143.5 -345.5q-20 -105 -20 -187q0 -96 28 -159q53 -116 203 -116q119 0 202 62t134 187h148 q-72 -170 -200.5 -259t-304.5 -89q-232 0 -343 153q-77 107 -77 261zM514 1638h116l152 -260l254 260h116l-309 -376h-168z" />
<glyph unicode="&#x10e;" horiz-adv-x="1642" d="M-32 0l20 106h190l249 1280h-190l21 107h594q386 0 563.5 -197t108.5 -548q-68 -352 -322.5 -550t-639.5 -198h-594zM381 106h186q291 0 479 166t248.5 476t-63 474t-415.5 164h-186zM682 1899h116l171 -162l235 162h116l-283 -264h-176z" />
<glyph unicode="&#x10f;" horiz-adv-x="1311" d="M40 373q0 74 17 159q49 250 203 405t351 155q123 0 197 -47.5t109 -147.5l107 553h-174l21 106h358l-302 -1556h-184l32 166q-74 -100 -166.5 -147.5t-215.5 -47.5q-196 0 -290 155q-63 103 -63 247zM252 353q0 -93 28 -154q50 -113 192 -113q140 0 233 100.5t131 292.5 l20 105q15 78 15 141q0 91 -32 151q-53 101 -193 101q-142 0 -236.5 -112t-137.5 -333q-20 -101 -20 -179zM1332 1178l136 376h199l-218 -376h-117z" />
<glyph unicode="&#x110;" horiz-adv-x="1653" d="M-22 0l20 106h190l120 613h-200l24 125h200l105 542h-190l21 107h594q386 0 563.5 -197t108.5 -548q-68 -352 -322.5 -550t-639.5 -198h-594zM389 106h188q291 0 479.5 166t249 476t-63.5 474t-416 164h-188l-105 -542h336l-24 -125h-336z" />
<glyph unicode="&#x111;" horiz-adv-x="1311" d="M40 373q0 74 17 159q49 250 203 405t351 155q123 0 197 -47.5t109 -147.5l64 330h-326l21 106h326l22 117h-174l21 106h358l-43 -223h176l-21 -106h-176l-238 -1227h-184l32 166q-74 -100 -166.5 -147.5t-215.5 -47.5q-196 0 -290 155q-63 103 -63 247zM252 353 q0 -93 28 -154q50 -113 192 -113q140 0 233 100.5t131 292.5l20 105q15 78 15 141q0 91 -32 151q-53 101 -193 101q-142 0 -236.5 -112t-137.5 -333q-20 -101 -20 -179z" />
<glyph unicode="&#x112;" horiz-adv-x="1495" d="M-32 0l20 106h190l249 1280h-190l21 107h1202l-64 -332h-123l40 209h-686l-97 -500h489l36 187h123l-96 -496h-123l36 187h-489l-121 -625h702l40 209h123l-64 -332h-1218zM631 1694l28 148h598l-28 -148h-598z" />
<glyph unicode="&#x113;" horiz-adv-x="1212" d="M87 386q0 68 15 145q49 253 218 407t409 154q391 0 391 -277q0 -203 -205 -302q-209 -101 -615 -105q-4 -38 -4 -72q0 -94 34 -156q59 -110 217 -110q116 0 173 35q102 63 126 144h135q-40 -127 -189 -216q-104 -62 -310 -62t-317 153q-78 107 -78 262zM321 514 q321 15 492 118q112 66 112 190q0 171 -227 171q-134 0 -227 -102t-150 -377zM462 1379l28 148h598l-28 -148h-598z" />
<glyph unicode="&#x114;" horiz-adv-x="1495" d="M-32 0l20 106h190l249 1280h-190l21 107h1202l-64 -332h-123l40 209h-686l-97 -500h489l36 187h123l-96 -496h-123l36 187h-489l-121 -625h702l40 209h123l-64 -332h-1218zM683 1901h94q7 -55 55 -82t140 -27t151 27t88 82h94q-43 -117 -135 -180q-93 -62 -224 -62 q-132 0 -199 62t-64 180z" />
<glyph unicode="&#x115;" horiz-adv-x="1212" d="M87 386q0 68 15 145q49 253 218 407t409 154q391 0 391 -277q0 -203 -205 -302q-209 -101 -615 -105q-4 -38 -4 -72q0 -94 34 -156q59 -110 217 -110q116 0 173 35q102 63 126 144h135q-40 -127 -189 -216q-104 -62 -310 -62t-317 153q-78 107 -78 262zM321 514 q321 15 492 118q112 66 112 190q0 171 -227 171q-134 0 -227 -102t-150 -377zM503 1608h96q-2 -79 43 -114q45 -36 145 -36t159 36q59 35 87 114h96q-38 -143 -131 -215t-238 -72t-210 72t-47 215z" />
<glyph unicode="&#x116;" horiz-adv-x="1495" d="M-32 0l20 106h190l249 1280h-190l21 107h1202l-64 -332h-123l40 209h-686l-97 -500h489l36 187h123l-96 -496h-123l36 187h-489l-121 -625h702l40 209h123l-64 -332h-1218zM888 1770q9 46 51 81t89 35t75 -35t19 -81q-10 -50 -50 -83q-40 -34 -90 -34t-77 34 q-27 33 -17 83z" />
<glyph unicode="&#x117;" horiz-adv-x="1212" d="M87 386q0 68 15 145q49 253 218 407t409 154q391 0 391 -277q0 -203 -205 -302q-209 -101 -615 -105q-4 -38 -4 -72q0 -94 34 -156q59 -110 217 -110q116 0 173 35q102 63 126 144h135q-40 -127 -189 -216q-104 -62 -310 -62t-317 153q-78 107 -78 262zM321 514 q321 15 492 118q112 66 112 190q0 171 -227 171q-134 0 -227 -102t-150 -377zM679 1452q9 48 51 82q41 35 89 35t76 -35q27 -34 18 -82q-10 -51 -49 -84q-40 -33 -91 -33t-77 33q-27 33 -17 84z" />
<glyph unicode="&#x118;" horiz-adv-x="1495" d="M-32 0l20 106h190l249 1280h-190l21 107h1202l-64 -332h-123l40 209h-686l-97 -500h489l36 187h123l-96 -496h-123l36 187h-489l-121 -625h702l40 209h123l-64 -332h-1218zM772 -223q9 49 49.5 101.5t122.5 121.5h94l-1 -2q-111 -123 -120 -170q-9 -46 19 -74t84 -28 q27 0 57 6.5t63 19.5l-26 -127q-37 -9 -71.5 -13.5t-66.5 -4.5q-113 0 -166.5 44.5t-37.5 125.5z" />
<glyph unicode="&#x119;" horiz-adv-x="1212" d="M87 386q0 68 15 145q49 253 218 407t409 154q391 0 391 -277q0 -203 -205 -302q-209 -101 -615 -105q-4 -38 -4 -72q0 -94 34 -156q59 -110 217 -110q116 0 173 35q102 63 126 144h135q-40 -127 -189 -216q-104 -62 -310 -62t-317 153q-78 107 -78 262zM321 514 q321 15 492 118q112 66 112 190q0 171 -227 171q-134 0 -227 -102t-150 -377zM444 -223q9 49 49.5 101.5t122.5 121.5h94l-1 -2q-111 -123 -120 -170q-9 -46 19 -74t84 -28q27 0 57 6.5t63 19.5l-26 -127q-37 -9 -71.5 -13.5t-66.5 -4.5q-113 0 -166.5 44.5t-37.5 125.5z " />
<glyph unicode="&#x11a;" horiz-adv-x="1495" d="M-32 0l20 106h190l249 1280h-190l21 107h1202l-64 -332h-123l40 209h-686l-97 -500h489l36 187h123l-96 -496h-123l36 187h-489l-121 -625h702l40 209h123l-64 -332h-1218zM760 1899h116l171 -162l235 162h116l-283 -264h-176z" />
<glyph unicode="&#x11b;" horiz-adv-x="1212" d="M87 386q0 68 15 145q49 253 218 407t409 154q391 0 391 -277q0 -203 -205 -302q-209 -101 -615 -105q-4 -38 -4 -72q0 -94 34 -156q59 -110 217 -110q116 0 173 35q102 63 126 144h135q-40 -127 -189 -216q-104 -62 -310 -62t-317 153q-78 107 -78 262zM321 514 q321 15 492 118q112 66 112 190q0 171 -227 171q-134 0 -227 -102t-150 -377zM514 1638h116l152 -260l254 260h116l-309 -376h-168z" />
<glyph unicode="&#x11c;" horiz-adv-x="1636" d="M115 745q69 354 314 564.5t590 210.5q128 0 258.5 -29.5t272.5 -89.5l-68 -354h-112q1 187 -92.5 276.5t-291.5 89.5q-258 0 -417.5 -166t-224.5 -502q-64 -329 34 -498t352 -169q113 0 221.5 28t212.5 84l75 385h-281l21 107h484l-109 -557q-148 -77 -309 -115.5 t-336 -38.5q-338 0 -500 211.5t-94 562.5zM733 1635l283 264h176l179 -264h-116l-171 161l-235 -161h-116z" />
<glyph unicode="&#x11d;" horiz-adv-x="1311" d="M72 -379l44 223h96q-3 -104 55 -152t183 -48q162 0 255 92q93 90 131 287l28 143q-73 -100 -166 -147.5t-210 -47.5q-176 0 -265 119q-56 75 -62 179q-4 61 10 133q69 353 314 535q209 154 453 155q224 1 285 -29l-203 -1040q-46 -238 -194 -353q-161 -125 -384 -125 q-105 0 -197 19t-173 57zM356 273q4 -62 29 -104q49 -83 177 -83q140 0 233 100.5t130 292.5l20 105l74 372q-1 34 -109 34q-195 0 -342 -150q-147 -151 -201 -425q-15 -81 -11 -142zM440 1262l309 376h168l161 -376h-116l-152 260l-254 -260h-116z" />
<glyph unicode="&#x11e;" horiz-adv-x="1636" d="M115 745q69 354 314 564.5t590 210.5q128 0 258.5 -29.5t272.5 -89.5l-68 -354h-112q1 187 -92.5 276.5t-291.5 89.5q-258 0 -417.5 -166t-224.5 -502q-64 -329 34 -498t352 -169q113 0 221.5 28t212.5 84l75 385h-281l21 107h484l-109 -557q-148 -77 -309 -115.5 t-336 -38.5q-338 0 -500 211.5t-94 562.5zM785 1901h94q7 -55 55 -82t140 -27t151 27t88 82h94q-43 -117 -135 -180q-93 -62 -224 -62q-132 0 -199 62t-64 180z" />
<glyph unicode="&#x11f;" horiz-adv-x="1311" d="M72 -379l44 223h96q-3 -104 55 -152t183 -48q162 0 255 92q93 90 131 287l28 143q-73 -100 -166 -147.5t-210 -47.5q-176 0 -265 119q-56 75 -62 179q-4 61 10 133q69 353 314 535q209 154 453 155q224 1 285 -29l-203 -1040q-46 -238 -194 -353q-161 -125 -384 -125 q-105 0 -197 19t-173 57zM356 273q4 -62 29 -104q49 -83 177 -83q140 0 233 100.5t130 292.5l20 105l74 372q-1 34 -109 34q-195 0 -342 -150q-147 -151 -201 -425q-15 -81 -11 -142zM552 1608h96q-2 -79 43 -114q45 -36 145 -36t159 36q59 35 87 114h96q-38 -143 -131 -215 t-238 -72t-210 72t-47 215z" />
<glyph unicode="&#x120;" horiz-adv-x="1636" d="M115 745q69 354 314 564.5t590 210.5q128 0 258.5 -29.5t272.5 -89.5l-68 -354h-112q1 187 -92.5 276.5t-291.5 89.5q-258 0 -417.5 -166t-224.5 -502q-64 -329 34 -498t352 -169q113 0 221.5 28t212.5 84l75 385h-281l21 107h484l-109 -557q-148 -77 -309 -115.5 t-336 -38.5q-338 0 -500 211.5t-94 562.5zM996 1770q9 46 51 81t89 35t75 -35t19 -81q-10 -50 -50 -83q-40 -34 -90 -34t-77 34q-27 33 -17 83z" />
<glyph unicode="&#x121;" horiz-adv-x="1311" d="M72 -379l44 223h96q-3 -104 55 -152t183 -48q162 0 255 92q93 90 131 287l28 143q-73 -100 -166 -147.5t-210 -47.5q-176 0 -265 119q-56 75 -62 179q-4 61 10 133q69 353 314 535q209 154 453 155q224 1 285 -29l-203 -1040q-46 -238 -194 -353q-161 -125 -384 -125 q-105 0 -197 19t-173 57zM356 273q4 -62 29 -104q49 -83 177 -83q140 0 233 100.5t130 292.5l20 105l74 372q-1 34 -109 34q-195 0 -342 -150q-147 -151 -201 -425q-15 -81 -11 -142zM677 1452q9 48 51 82q41 35 89 35t76 -35q27 -34 18 -82q-10 -51 -49 -84 q-40 -33 -91 -33t-77 33q-27 33 -17 84z" />
<glyph unicode="&#x122;" horiz-adv-x="1636" d="M115 745q69 354 314 564.5t590 210.5q128 0 258.5 -29.5t272.5 -89.5l-68 -354h-112q1 187 -92.5 276.5t-291.5 89.5q-258 0 -417.5 -166t-224.5 -502q-64 -329 34 -498t352 -169q113 0 221.5 28t212.5 84l75 385h-281l21 107h484l-109 -557q-148 -77 -309 -115.5 t-336 -38.5q-338 0 -500 211.5t-94 562.5zM674 -410q76 42 111 98t35 136v22h158q-7 -103 -65 -176q-58 -74 -175 -128z" />
<glyph unicode="&#x123;" horiz-adv-x="1311" d="M72 -379l44 223h96q-3 -104 55 -152t183 -48q162 0 255 92q93 90 131 287l28 143q-73 -100 -166 -147.5t-210 -47.5q-176 0 -265 119q-56 75 -62 179q-4 61 10 133q69 353 314 535q209 154 453 155q224 1 285 -29l-203 -1040q-46 -238 -194 -353q-161 -125 -384 -125 q-105 0 -197 19t-173 57zM356 273q4 -62 29 -104q49 -83 177 -83q140 0 233 100.5t130 292.5l20 105l74 372q-1 34 -109 34q-195 0 -342 -150q-147 -151 -201 -425q-15 -81 -11 -142zM696 1214q27 103 100 176q72 74 200 128l54 -48q-84 -42 -130 -98t-61 -136l-5 -22h-158z " />
<glyph unicode="&#x124;" horiz-adv-x="1786" d="M-32 0l20 106h190l249 1280h-190l21 107h583l-21 -107h-190l-100 -516h774l100 516h-190l21 107h583l-21 -107h-190l-249 -1280h190l-20 -106h-583l20 106h191l124 642h-774l-125 -642h190l-20 -106h-583zM771 1635l283 264h176l179 -264h-116l-171 161l-235 -161h-116z " />
<glyph unicode="&#x125;" horiz-adv-x="1319" d="M99 0l282 1450h-176l20 106h360l-132 -682q72 108 164 163t200 55q176 0 239 -101q39 -61 39 -163q0 -67 -17 -152l-111 -570h164l-20 -106h-349l120 618q20 103 20 172q0 61 -16 94q-33 72 -155 72q-128 0 -213.5 -93t-119.5 -271l-115 -592h-184zM112 1635l283 264h176 l179 -264h-116l-171 161l-235 -161h-116z" />
<glyph unicode="&#x126;" horiz-adv-x="1786" d="M-32 0l20 106h190l187 961h-190l24 122h190l38 197h-190l21 107h583l-21 -107h-190l-38 -197h774l38 197h-190l21 107h583l-21 -107h-190l-38 -197h190l-24 -122h-190l-187 -961h190l-20 -106h-583l20 106h190l125 642h-774l-125 -642h190l-20 -106h-583zM530 870h774 l38 197h-774z" />
<glyph unicode="&#x127;" horiz-adv-x="1319" d="M99 0l235 1210h-176l24 122h176l23 118h-176l20 106h360l-43 -224h316l-24 -122h-316l-65 -336q72 108 164 163t200 55q176 0 239 -101q39 -61 39 -163q0 -67 -17 -152l-111 -570h164l-20 -106h-349l120 618q20 103 20 172q0 61 -16 94q-33 72 -155 72q-128 0 -213.5 -93 t-119.5 -271l-115 -592h-184z" />
<glyph unicode="&#x128;" horiz-adv-x="809" d="M-32 0l20 106h190l249 1280h-190l21 107h583l-21 -107h-190l-249 -1280h190l-20 -106h-583zM246 1668q21 100 84 159q62 59 147 59q36 0 66 -9q29 -9 78 -40l44 -26q20 -13 41 -20q20 -7 37 -7q41 0 70 27q29 28 38 75h97q-22 -105 -85 -162q-62 -57 -156 -57 q-67 0 -131 45l-4 3l-43 28q-17 13 -36 20t-36 7q-39 0 -71 -29q-31 -28 -44 -74z" />
<glyph unicode="&#x129;" horiz-adv-x="655" d="M109 1309q28 135 93 209q65 73 156 73q38 0 68 -14q29 -14 60 -47l46 -55q18 -23 34 -31q15 -8 36 -8q43 0 75 40t50 115h96q-28 -135 -93 -209q-65 -73 -156 -73q-38 0 -68 14q-29 14 -60 47l-46 55q-21 24 -36 31q-15 8 -34 8q-42 0 -74 -40q-32 -39 -51 -115h-96z M147 0l186 956h-176l20 107h360l-186 -957h174l-20 -106h-358z" />
<glyph unicode="&#x12a;" horiz-adv-x="809" d="M-32 0l20 106h190l249 1280h-190l21 107h583l-21 -107h-190l-249 -1280h190l-20 -106h-583zM298 1694l28 148h598l-28 -148h-598z" />
<glyph unicode="&#x12b;" horiz-adv-x="655" d="M110 1378l28 148h598l-28 -148h-598zM147 0l186 956h-176l20 107h360l-186 -957h174l-20 -106h-358z" />
<glyph unicode="&#x12c;" horiz-adv-x="809" d="M-32 0l20 106h190l249 1280h-190l21 107h583l-21 -107h-190l-249 -1280h190l-20 -106h-583zM322 1901h94q7 -55 55 -82t140 -27t151 27t88 82h94q-43 -117 -135 -180q-93 -62 -224 -62q-132 0 -199 62t-64 180z" />
<glyph unicode="&#x12d;" horiz-adv-x="655" d="M147 0l186 956h-176l20 107h360l-186 -957h174l-20 -106h-358zM206 1608h96q-2 -79 43 -114q45 -36 145 -36t159 36q59 35 87 114h96q-38 -143 -131 -215t-238 -72t-210 72t-47 215z" />
<glyph unicode="&#x12e;" horiz-adv-x="809" d="M6 0l20 106h190l249 1280h-190l21 107h583l-21 -107h-190l-249 -1280h190l-20 -106h-583zM133 -223q9 49 49.5 101.5t122.5 121.5h94l-1 -2q-111 -123 -120 -170q-9 -46 19 -74t84 -28q27 0 57 6.5t63 19.5l-26 -127q-37 -9 -71.5 -13.5t-66.5 -4.5q-113 0 -166.5 44.5 t-37.5 125.5z" />
<glyph unicode="&#x12f;" horiz-adv-x="655" d="M60 -223q9 49 49.5 101.5t122.5 121.5h94l-1 -2q-111 -123 -120 -170q-9 -46 19 -74t84 -28q27 0 57 6.5t63 19.5l-26 -127q-37 -9 -71.5 -13.5t-66.5 -4.5q-113 0 -166.5 44.5t-37.5 125.5zM142 0l185 956h-176l21 107h360l-186 -957h174l-20 -106h-358zM359 1370 q0 11 2 23q9 46 49 80t87 34q46 0 73 -34q21 -26 21 -58q0 -11 -3 -22q-9 -47 -48.5 -80t-86.5 -33t-74 33q-20 25 -20 57z" />
<glyph unicode="&#x130;" horiz-adv-x="809" d="M-32 0l20 106h190l249 1280h-190l21 107h583l-21 -107h-190l-249 -1280h190l-20 -106h-583zM487 1770q9 46 51 81t89 35t75 -35t19 -81q-10 -50 -50 -83q-40 -34 -90 -34t-77 34q-27 33 -17 83z" />
<glyph unicode="&#x131;" horiz-adv-x="655" d="M147 0l186 956h-176l20 107h360l-186 -957h174l-20 -106h-358z" />
<glyph unicode="&#x132;" horiz-adv-x="1641" d="M-32 0l20 106h190l249 1280h-190l21 107h583l-21 -107h-190l-249 -1280h190l-20 -106h-583zM475 -358l45 235h114q-16 -99 18.5 -147.5t122.5 -48.5q119 0 180.5 75t104.5 293l260 1337h-232l21 107h625l-21 -107h-190l-262 -1345q-48 -247 -168.5 -357t-340.5 -110 q-71 0 -141 17t-136 51z" />
<glyph unicode="&#x133;" horiz-adv-x="1092" d="M104 0l185 956h-176l21 107h360l-186 -957h174l-20 -106h-358zM209 -389l43 219h95q-3 -25 -3 -46q0 -62 25 -95q34 -45 116 -45q91 0 146 61.5t81 190.5l206 1060h-174l20 107h358l-226 -1167q-32 -164 -148 -257.5t-287 -93.5q-72 0 -134 16.5t-118 49.5zM321 1370 q0 11 2 23q9 46 49 80t87 34q46 0 73 -34q21 -26 21 -58q0 -11 -3 -22q-9 -47 -48.5 -80t-86.5 -33t-74 33q-20 25 -20 57zM955 1370q0 11 3 23q8 46 48.5 80t87.5 34q46 0 73 -34q20 -26 20 -58q0 -11 -2 -22q-10 -47 -48.5 -80t-86.5 -33q-47 0 -75 33q-20 25 -20 57z" />
<glyph unicode="&#x134;" horiz-adv-x="821" d="M-345 -358l45 235h114q-16 -99 18.5 -147.5t122.5 -48.5q119 0 180.5 75t104.5 293l260 1337h-232l21 107h625l-21 -107h-190l-262 -1345q-48 -247 -168.5 -357t-340.5 -110q-71 0 -141 17t-136 51zM292 1635l283 264h176l179 -264h-116l-171 161l-235 -161h-116z" />
<glyph unicode="&#x135;" horiz-adv-x="635" d="M-332 -389l43 219h95q-12 -96 22 -141t116 -45q91 0 146.5 61.5t80.5 190.5l206 1060h-174l21 107h358l-227 -1167q-32 -164 -148 -257.5t-287 -93.5q-72 0 -134 16.5t-118 49.5zM98 1262l309 376h168l161 -376h-116l-152 260l-254 -260h-116z" />
<glyph unicode="&#x136;" horiz-adv-x="1530" d="M-32 0l20 106h190l249 1280h-190l21 107h583l-21 -107h-190l-110 -565l753 565h-162l21 107h496l-21 -107h-168l-750 -563l577 -717h170l-20 -106h-347l-570 709l-118 -603h190l-20 -106h-583zM657 -381q76 42 111 98t35 136v22h158q-7 -103 -65 -176q-58 -74 -175 -128z " />
<glyph unicode="&#x137;" horiz-adv-x="1241" d="M85 0l282 1450h-177l20 106h361l-197 -1013l529 413h-153l20 107h299l-20 -107l-373 -292l295 -558h153l-20 -106h-295l-290 543l-171 -135l-79 -408h-184zM476 -381q76 42 111 98t35 136v22h158q-7 -103 -65 -176q-58 -74 -175 -128z" />
<glyph unicode="&#x138;" horiz-adv-x="1241" d="M133 0l185 953h-177l21 107h361l-101 -519l528 412h-153l21 107h299l-21 -107l-372 -291l296 -556h153l-21 -106h-295l-290 541l-171 -135l-79 -406h-184z" />
<glyph unicode="&#x139;" horiz-adv-x="1360" d="M-32 0l20 106h190l249 1280h-190l21 107h583l-21 -107h-190l-245 -1263h682l48 250h123l-72 -373h-1198zM436 1637l234 264h197l-314 -264h-117z" />
<glyph unicode="&#x13a;" horiz-adv-x="655" d="M85 0l282 1450h-177l20 106h361l-282 -1450h174l-20 -106h-358zM337 1636l234 264h197l-314 -264h-117z" />
<glyph unicode="&#x13b;" horiz-adv-x="1360" d="M-32 0l20 106h190l249 1280h-190l21 107h583l-21 -107h-190l-245 -1263h682l48 250h123l-72 -373h-1198zM531 -381q76 42 111 98t35 136v22h158q-7 -103 -65 -176q-58 -74 -175 -128z" />
<glyph unicode="&#x13c;" horiz-adv-x="655" d="M85 0l282 1450h-177l20 106h361l-282 -1450h174l-20 -106h-358zM140 -381q76 42 111 98t35 136v22h158q-7 -103 -65 -176q-58 -74 -175 -128z" />
<glyph unicode="&#x13d;" horiz-adv-x="1360" d="M-32 0l20 106h190l249 1280h-190l21 107h583l-21 -107h-190l-245 -1263h682l48 250h123l-72 -373h-1198zM795 1116l136 376h199l-218 -376h-117z" />
<glyph unicode="&#x13e;" horiz-adv-x="820" d="M85 0l282 1450h-177l20 106h361l-282 -1450h174l-20 -106h-358zM673 1180l136 376h199l-218 -376h-117z" />
<glyph unicode="&#x13f;" horiz-adv-x="1375" d="M-32 0l20 106h190l249 1280h-190l21 107h583l-21 -107h-190l-245 -1263h682l48 250h123l-72 -373h-1198zM1025 845q11 56 57 94.5t103 38.5q55 0 86.5 -39t20.5 -94q-11 -56 -57.5 -94.5t-101.5 -38.5q-57 0 -88 38t-20 95z" />
<glyph unicode="&#x140;" horiz-adv-x="952" d="M85 0l282 1450h-177l20 106h361l-282 -1450h174l-20 -106h-358zM594 836q11 56 57 94.5t103 38.5q55 0 86.5 -39t20.5 -94q-11 -56 -57.5 -94.5t-101.5 -38.5q-57 0 -88 38t-20 95z" />
<glyph unicode="&#x141;" horiz-adv-x="1370" d="M-22 0l20 106h190l94 480l-179 -113l-52 92l258 162l128 659h-190l21 107h582l-21 -107h-191l-100 -516l351 226l52 -92l-430 -275l-118 -606h684l48 250h123l-72 -373h-1198z" />
<glyph unicode="&#x142;" horiz-adv-x="664" d="M24 670l226 141l125 639h-174l20 106h358l-120 -616l167 98l43 -86l-235 -141l-137 -705h176l-20 -106h-360l132 680l-157 -96z" />
<glyph unicode="&#x143;" horiz-adv-x="1792" d="M-42 0l20 106h201l249 1280h-201l21 107h383l666 -1178l208 1071h-200l21 107h524l-21 -107h-201l-275 -1415h-121l-711 1258l-219 -1123h201l-20 -106h-525zM952 1636l234 264h197l-314 -264h-117z" />
<glyph unicode="&#x144;" horiz-adv-x="1319" d="M144 0l186 956h-176l20 107h360l-36 -189q72 108 164 163t200 55q176 0 240 -101q38 -61 38 -163q0 -67 -17 -152l-111 -570h164l-20 -106h-349l120 618q20 103 20 172q0 61 -16 96q-34 72 -155 72q-128 0 -213 -93.5t-120 -272.5l-115 -592h-184zM592 1214l332 376h199 l-414 -376h-117z" />
<glyph unicode="&#x145;" horiz-adv-x="1792" d="M-42 0l20 106h201l249 1280h-201l21 107h383l666 -1178l208 1071h-200l21 107h524l-21 -107h-201l-275 -1415h-121l-711 1258l-219 -1123h201l-20 -106h-525zM717 -410q76 42 111 98t35 136v22h158q-7 -103 -65 -176q-58 -74 -175 -128z" />
<glyph unicode="&#x146;" horiz-adv-x="1319" d="M144 0l186 956h-176l20 107h360l-36 -189q72 108 164 163t200 55q176 0 240 -101q38 -61 38 -163q0 -67 -17 -152l-111 -570h164l-20 -106h-349l120 618q20 103 20 172q0 61 -16 96q-34 72 -155 72q-128 0 -213 -93.5t-120 -272.5l-115 -592h-184zM531 -381q76 42 111 98 t35 136v22h158q-7 -103 -65 -176q-58 -74 -175 -128z" />
<glyph unicode="&#x147;" horiz-adv-x="1792" d="M-42 0l20 106h201l249 1280h-201l21 107h383l666 -1178l208 1071h-200l21 107h524l-21 -107h-201l-275 -1415h-121l-711 1258l-219 -1123h201l-20 -106h-525zM811 1909h116l171 -162l235 162h116l-283 -264h-176z" />
<glyph unicode="&#x148;" horiz-adv-x="1319" d="M144 0l186 956h-176l20 107h360l-36 -189q72 108 164 163t200 55q176 0 240 -101q38 -61 38 -163q0 -67 -17 -152l-111 -570h164l-20 -106h-349l120 618q20 103 20 172q0 61 -16 96q-34 72 -155 72q-128 0 -213 -93.5t-120 -272.5l-115 -592h-184zM514 1638h116l152 -260 l254 260h116l-309 -376h-168z" />
<glyph unicode="&#x149;" horiz-adv-x="1774" d="M79 1094q90 64 141 149t76 214l12 63h194q-35 -174 -121 -294q-85 -121 -239 -212zM543 0l186 956h-176l20 107h360l-36 -189q72 108 164 163t200 55q176 0 240 -101q38 -61 38 -163q0 -67 -17 -152l-111 -570h164l-20 -106h-349l120 618q20 103 20 172q0 61 -16 96 q-34 72 -155 72q-128 0 -213 -93.5t-120 -272.5l-115 -592h-184z" />
<glyph unicode="&#x14a;" horiz-adv-x="1726" d="M96 0l21 107h191l248 1279h-176l21 107h379l-39 -201q194 230 508 230q253 0 344 -146q54 -87 54 -209t-24 -245l-171 -881q-48 -247 -168.5 -357t-340.5 -110q-145 0 -278 68l46 235h112q-5 -32 -5 -58q0 -138 146 -138q119 0 180.5 74t104.5 294l161 832q30 150 30 249 t-26 152q-54 109 -249 109t-325 -128.5t-178 -375.5l-151 -780h190l-21 -107h-584z" />
<glyph unicode="&#x14b;" horiz-adv-x="1319" d="M188 0l186 956h-176l21 107h360l-37 -189q72 108 164 163t200 55q174 0 240 -101q38 -59 38 -162q0 -67 -17 -153l-151 -780q-32 -164 -147.5 -257.5t-286.5 -93.5q-72 0 -134.5 16.5t-118.5 49.5l43 219h95q-3 -25 -3 -46q0 -62 25 -95q34 -45 116 -45q91 0 146 62 q55 60 80 190l140 722q20 103 20 172q0 61 -16 96q-34 72 -155 72q-128 0 -213 -93.5t-120 -272.5l-115 -592h-184z" />
<glyph unicode="&#x14c;" horiz-adv-x="1679" d="M107 422q-27 142 8 323t117 323.5t216 254.5q117 98 253 147.5t290 49.5q325 0 483.5 -213t90.5 -562q-35 -179 -118 -322.5t-216 -254.5q-117 -98 -253 -147.5t-289 -49.5q-152 0 -269.5 50t-195.5 147q-90 112 -117 254zM344 745q-64 -330 28 -498.5t338 -168.5 q245 0 403 168.5t222 498.5q64 331 -28 499.5t-337 168.5q-246 0 -404 -168.5t-222 -499.5zM757 1694l28 148h598l-28 -148h-598z" />
<glyph unicode="&#x14d;" horiz-adv-x="1233" d="M87 385q0 69 15 147q49 254 219.5 407t403.5 153t344 -153q76 -106 76 -260q0 -69 -15 -147q-49 -254 -219.5 -407.5t-403.5 -153.5q-232 0 -343 153q-77 107 -77 261zM297 348q0 -97 29 -161q53 -117 200 -117q148 0 246.5 117t142.5 345q20 104 20 185q0 96 -28 159 q-53 117 -201 117t-246.5 -116.5t-142.5 -344.5q-20 -104 -20 -184zM472 1378l28 148h598l-28 -148h-598z" />
<glyph unicode="&#x14e;" horiz-adv-x="1679" d="M107 422q-27 142 8 323t117 323.5t216 254.5q117 98 253 147.5t290 49.5q325 0 483.5 -213t90.5 -562q-35 -179 -118 -322.5t-216 -254.5q-117 -98 -253 -147.5t-289 -49.5q-152 0 -269.5 50t-195.5 147q-90 112 -117 254zM344 745q-64 -330 28 -498.5t338 -168.5 q245 0 403 168.5t222 498.5q64 331 -28 499.5t-337 168.5q-246 0 -404 -168.5t-222 -499.5zM805 1901h94q7 -55 55 -82t140 -27t151 27t88 82h94q-43 -117 -135 -180q-93 -62 -224 -62q-132 0 -199 62t-64 180z" />
<glyph unicode="&#x14f;" horiz-adv-x="1233" d="M87 385q0 69 15 147q49 254 219.5 407t403.5 153t344 -153q76 -106 76 -260q0 -69 -15 -147q-49 -254 -219.5 -407.5t-403.5 -153.5q-232 0 -343 153q-77 107 -77 261zM297 348q0 -97 29 -161q53 -117 200 -117q148 0 246.5 117t142.5 345q20 104 20 185q0 96 -28 159 q-53 117 -201 117t-246.5 -116.5t-142.5 -344.5q-20 -104 -20 -184zM513 1608h96q-2 -79 43 -114q45 -36 145 -36t159 36q59 35 87 114h96q-38 -143 -131 -215t-238 -72t-210 72t-47 215z" />
<glyph unicode="&#x150;" horiz-adv-x="1679" d="M107 422q-27 142 8 323t117 323.5t216 254.5q117 98 253 147.5t290 49.5q325 0 483.5 -213t90.5 -562q-35 -179 -118 -322.5t-216 -254.5q-117 -98 -253 -147.5t-289 -49.5q-152 0 -269.5 50t-195.5 147q-90 112 -117 254zM344 745q-64 -330 28 -498.5t338 -168.5 q245 0 403 168.5t222 498.5q64 331 -28 499.5t-337 168.5q-246 0 -404 -168.5t-222 -499.5zM863 1635l234 264h197l-314 -264h-117zM1180 1635l234 264h197l-314 -264h-117z" />
<glyph unicode="&#x151;" horiz-adv-x="1233" d="M87 385q0 69 15 147q49 254 219.5 407t403.5 153t344 -153q76 -106 76 -260q0 -69 -15 -147q-49 -254 -219.5 -407.5t-403.5 -153.5q-232 0 -343 153q-77 107 -77 261zM297 348q0 -97 29 -161q53 -117 200 -117q148 0 246.5 117t142.5 345q20 104 20 185q0 96 -28 159 q-53 117 -201 117t-246.5 -116.5t-142.5 -344.5q-20 -104 -20 -184zM555 1262l262 376h170l-318 -376h-114zM848 1262l299 376h178l-361 -376h-116z" />
<glyph unicode="&#x152;" horiz-adv-x="2329" d="M120 750q68 351 321.5 547t639.5 196h1212l-64 -332h-123l40 209h-686l-97 -500h492l36 187h121l-96 -496h-121l36 187h-492l-121 -625h703l40 209h123l-64 -332h-1229q-385 0 -562.5 198t-108.5 552zM349 750q-61 -311 62 -477.5t414 -166.5h187l249 1280h-187 q-292 0 -478.5 -164t-246.5 -472z" />
<glyph unicode="&#x153;" horiz-adv-x="2025" d="M87 385q0 69 15 147q49 254 219.5 407t403.5 153t344 -153q14 -19 25 -40q19 20 39 39q169 154 409 154q391 0 391 -277q0 -203 -205 -302q-209 -101 -615 -105q-4 -38 -4 -72q0 -94 34 -156q59 -110 217 -110q116 0 173 35q102 63 126 144h135q-40 -127 -189 -216 q-104 -62 -310 -62t-317 153q-15 20 -26 41q-20 -21 -42 -41q-170 -153 -403 -153q-232 0 -343 153q-77 107 -77 261zM317 532q-44 -228 9 -345t200 -117q148 0 246.5 117t142.5 345t-8.5 344.5t-200.5 116.5t-246.5 -116.5t-142.5 -344.5zM1134 514q319 15 492 118 q112 66 112 190q0 171 -227 171q-134 0 -227 -102t-150 -377z" />
<glyph unicode="&#x154;" horiz-adv-x="1542" d="M-32 0l20 106h190l249 1280h-190l21 107h757q218 0 316.5 -104t61.5 -295q-30 -154 -134 -242.5t-279 -110.5q66 -19 108 -64.5t66 -127.5l130 -443h182l-20 -106h-352l-141 475q-40 138 -88 178.5t-146 40.5h-223l-115 -588h211l-20 -106h-604zM517 801h295 q151 0 236.5 71.5t115 221.5t-29 221t-209.5 71h-295zM847 1636l234 264h197l-314 -264h-117z" />
<glyph unicode="&#x155;" horiz-adv-x="979" d="M144 0l186 958h-176l20 105h360l-36 -189q75 111 170.5 164.5t217.5 53.5q45 0 93 -7t101 -20l-52 -266h-106q3 20 3 37q0 52 -24 81q-31 39 -106 39q-136 0 -227 -94t-125 -270l-115 -592h-184zM592 1214l332 376h199l-414 -376h-117z" />
<glyph unicode="&#x156;" horiz-adv-x="1542" d="M-32 0l20 106h190l249 1280h-190l21 107h757q218 0 316.5 -104t61.5 -295q-30 -154 -134 -242.5t-279 -110.5q66 -19 108 -64.5t66 -127.5l130 -443h182l-20 -106h-352l-141 475q-40 138 -88 178.5t-146 40.5h-223l-115 -588h211l-20 -106h-604zM517 801h295 q151 0 236.5 71.5t115 221.5t-29 221t-209.5 71h-295zM671 -381q76 42 111 98t35 136v22h158q-7 -103 -65 -176q-58 -74 -175 -128z" />
<glyph unicode="&#x157;" horiz-adv-x="979" d="M144 0l186 958h-176l20 105h360l-36 -189q75 111 170.5 164.5t217.5 53.5q45 0 93 -7t101 -20l-52 -266h-106q3 20 3 37q0 52 -24 81q-31 39 -106 39q-136 0 -227 -94t-125 -270l-115 -592h-184zM224 -381q76 42 111 98t35 136v22h158q-7 -103 -65 -176 q-58 -74 -175 -128z" />
<glyph unicode="&#x158;" horiz-adv-x="1542" d="M-32 0l20 106h190l249 1280h-190l21 107h757q218 0 316.5 -104t61.5 -295q-30 -154 -134 -242.5t-279 -110.5q66 -19 108 -64.5t66 -127.5l130 -443h182l-20 -106h-352l-141 475q-40 138 -88 178.5t-146 40.5h-223l-115 -588h211l-20 -106h-604zM517 801h295 q151 0 236.5 71.5t115 221.5t-29 221t-209.5 71h-295zM670 1899h116l171 -162l235 162h116l-283 -264h-176z" />
<glyph unicode="&#x159;" horiz-adv-x="979" d="M144 0l186 958h-176l20 105h360l-36 -189q75 111 170.5 164.5t217.5 53.5q45 0 93 -7t101 -20l-52 -266h-106q3 20 3 37q0 52 -24 81q-31 39 -106 39q-136 0 -227 -94t-125 -270l-115 -592h-184zM472 1638h116l152 -260l254 260h116l-309 -376h-168z" />
<glyph unicode="&#x15a;" horiz-adv-x="1403" d="M59 72l66 340l115 -1q-28 -170 49.5 -251.5t268.5 -81.5q178 0 285.5 70.5t133.5 205.5q21 108 -24.5 166t-216.5 113l-185 59q-202 65 -270.5 162t-35.5 266q37 190 192.5 295t399.5 105q104 0 223.5 -22.5t250.5 -65.5l-61 -318h-113q13 158 -61.5 228.5t-255.5 70.5 q-158 0 -253 -64.5t-119 -187.5q-21 -107 29 -168t240 -121l174 -55q191 -61 259 -155.5t37 -253.5q-42 -217 -202.5 -327t-435.5 -110q-123 0 -245.5 25t-244.5 76zM847 1636l234 264h197l-314 -264h-117z" />
<glyph unicode="&#x15b;" horiz-adv-x="1051" d="M23 59l48 248h106q-4 -29 -4 -55q0 -182 247 -182q248 0 284 182q3 18 3 50q0 31 -34 68.5t-177 86.5l-125 45q-128 44 -169.5 100.5t-41.5 121.5q0 26 5 56q29 146 152 229t301 83q177 0 363 -86l-45 -232h-106q4 23 4 43q0 73 -50.5 124.5t-167.5 51.5 q-235 0 -267 -164q-4 -17 -4 -47q0 -31 32.5 -66t159.5 -77l137 -45q142 -47 195 -118q37 -50 37 -99q0 -210 -168 -319q-132 -87 -334 -87t-381 88zM592 1214l332 376h199l-414 -376h-117z" />
<glyph unicode="&#x15c;" horiz-adv-x="1403" d="M59 72l66 340l115 -1q-28 -170 49.5 -251.5t268.5 -81.5q178 0 285.5 70.5t133.5 205.5q21 108 -24.5 166t-216.5 113l-185 59q-202 65 -270.5 162t-35.5 266q37 190 192.5 295t399.5 105q104 0 223.5 -22.5t250.5 -65.5l-61 -318h-113q13 158 -61.5 228.5t-255.5 70.5 q-158 0 -253 -64.5t-119 -187.5q-21 -107 29 -168t240 -121l174 -55q191 -61 259 -155.5t37 -253.5q-42 -217 -202.5 -327t-435.5 -110q-123 0 -245.5 25t-244.5 76zM579 1635l283 264h176l179 -264h-116l-171 161l-235 -161h-116z" />
<glyph unicode="&#x15d;" horiz-adv-x="1051" d="M23 59l48 248h106q-4 -29 -4 -55q0 -182 247 -182q248 0 284 182q3 18 3 50q0 31 -34 68.5t-177 86.5l-125 45q-128 44 -169.5 100.5t-41.5 121.5q0 26 5 56q29 146 152 229t301 83q177 0 363 -86l-45 -232h-106q4 23 4 43q0 73 -50.5 124.5t-167.5 51.5 q-235 0 -267 -164q-4 -17 -4 -47q0 -31 32.5 -66t159.5 -77l137 -45q142 -47 195 -118q37 -50 37 -99q0 -210 -168 -319q-132 -87 -334 -87t-381 88zM362 1262l309 376h168l161 -376h-116l-152 260l-254 -260h-116z" />
<glyph unicode="&#x15e;" horiz-adv-x="1403" d="M59 72l66 340l115 -1q-28 -170 49.5 -251.5t268.5 -81.5q178 0 285.5 70.5t133.5 205.5q21 108 -24.5 166t-216.5 113l-185 59q-202 65 -270.5 162t-35.5 266q37 190 192.5 295t399.5 105q104 0 223.5 -22.5t250.5 -65.5l-61 -318h-113q13 158 -61.5 228.5t-255.5 70.5 q-158 0 -253 -64.5t-119 -187.5q-21 -107 29 -168t240 -121l174 -55q191 -61 259 -155.5t37 -253.5q-42 -217 -202.5 -327t-435.5 -110q-123 0 -245.5 25t-244.5 76zM237 -371l26 131q37 -17 75 -25.5t73 -8.5q57 0 95 26.5t47 71.5q6 28 -7.5 72t-46.5 104h97 q52 -64 72.5 -120t11.5 -105q-16 -81 -87.5 -125.5t-183.5 -44.5q-42 0 -85 6t-87 18z" />
<glyph unicode="&#x15f;" horiz-adv-x="1051" d="M23 59l48 248h106q-4 -29 -4 -55q0 -182 247 -182q248 0 284 182q3 18 3 50q0 31 -34 68.5t-177 86.5l-125 45q-128 44 -169.5 100.5t-41.5 121.5q0 26 5 56q29 146 152 229t301 83q177 0 363 -86l-45 -232h-106q4 23 4 43q0 73 -50.5 124.5t-167.5 51.5 q-235 0 -267 -164q-4 -17 -4 -47q0 -31 32.5 -66t159.5 -77l137 -45q142 -47 195 -118q37 -50 37 -99q0 -210 -168 -319q-132 -87 -334 -87t-381 88zM99 -371l26 131q37 -17 75 -25.5t73 -8.5q57 0 95 26.5t47 71.5q6 28 -7.5 72t-46.5 104h97q52 -64 72.5 -120t11.5 -105 q-16 -81 -87.5 -125.5t-183.5 -44.5q-42 0 -85 6t-87 18z" />
<glyph unicode="&#x160;" horiz-adv-x="1403" d="M59 72l66 340l115 -1q-28 -170 49.5 -251.5t268.5 -81.5q178 0 285.5 70.5t133.5 205.5q21 108 -24.5 166t-216.5 113l-185 59q-202 65 -270.5 162t-35.5 266q37 190 192.5 295t399.5 105q104 0 223.5 -22.5t250.5 -65.5l-61 -318h-113q13 158 -61.5 228.5t-255.5 70.5 q-158 0 -253 -64.5t-119 -187.5q-21 -107 29 -168t240 -121l174 -55q191 -61 259 -155.5t37 -253.5q-42 -217 -202.5 -327t-435.5 -110q-123 0 -245.5 25t-244.5 76zM640 1899h116l171 -162l235 162h116l-283 -264h-176z" />
<glyph unicode="&#x161;" horiz-adv-x="1051" d="M23 59l48 248h106q-4 -29 -4 -55q0 -182 247 -182q248 0 284 182q3 18 3 50q0 31 -34 68.5t-177 86.5l-125 45q-128 44 -169.5 100.5t-41.5 121.5q0 26 5 56q29 146 152 229t301 83q177 0 363 -86l-45 -232h-106q4 23 4 43q0 73 -50.5 124.5t-167.5 51.5 q-235 0 -267 -164q-4 -17 -4 -47q0 -31 32.5 -66t159.5 -77l137 -45q142 -47 195 -118q37 -50 37 -99q0 -210 -168 -319q-132 -87 -334 -87t-381 88zM434 1638h116l152 -260l254 260h116l-309 -376h-168z" />
<glyph unicode="&#x162;" horiz-adv-x="1366" d="M97 1141l68 352h1326l-68 -352h-123l45 233h-439l-247 -1268h191l-20 -106h-584l20 106h191l247 1268h-439l-45 -233h-123zM219 -371l26 131q37 -17 75 -25.5t73 -8.5q57 0 95 26.5t47 71.5q6 28 -7.5 72t-46.5 104h97q52 -64 72.5 -120t11.5 -105q-16 -81 -87.5 -125.5 t-183.5 -44.5q-42 0 -85 6t-87 18z" />
<glyph unicode="&#x163;" horiz-adv-x="823" d="M77 -371l26 131q37 -17 75 -25.5t73 -8.5q57 0 95 26.5t47 71.5q6 28 -7.5 72t-46.5 104h97q52 -64 72.5 -120t11.5 -105q-16 -81 -87.5 -125.5t-183.5 -44.5q-42 0 -85 6t-87 18zM112 956l21 107h162l64 330h185l-64 -330h346l-21 -107h-346l-131 -675q-15 -79 -15 -125 q0 -32 7 -48q19 -38 89 -38q72 0 113.5 42.5t61.5 137.5h139q-36 -145 -120 -212t-229 -67q-159 0 -212 71q-32 43 -32 123q0 51 13 116l131 675h-162z" />
<glyph unicode="&#x164;" horiz-adv-x="1366" d="M97 1141l68 352h1326l-68 -352h-123l45 233h-439l-247 -1268h191l-20 -106h-584l20 106h191l247 1268h-439l-45 -233h-123zM616 1899h116l171 -162l235 162h116l-283 -264h-176z" />
<glyph unicode="&#x165;" horiz-adv-x="823" d="M112 956l21 107h162l64 330h185l-64 -330h346l-21 -107h-346l-131 -675q-15 -79 -15 -125q0 -32 7 -48q19 -38 89 -38q72 0 113.5 42.5t61.5 137.5h139q-36 -145 -120 -212t-229 -67q-159 0 -212 71q-32 43 -32 123q0 51 13 116l131 675h-162zM639 1237l136 376h199 l-218 -376h-117z" />
<glyph unicode="&#x166;" horiz-adv-x="1366" d="M97 1141l68 352h1326l-68 -352h-123l45 233h-439l-103 -530h336l-24 -125h-336l-120 -613h191l-20 -106h-584l20 106h191l120 613h-336l24 125h336l103 530h-439l-45 -233h-123z" />
<glyph unicode="&#x167;" horiz-adv-x="823" d="M46 616l21 107h162l45 233h-162l21 107h162l64 330h185l-64 -330h346l-21 -107h-346l-45 -233h346l-21 -107h-346l-65 -335q-26 -135 -7.5 -173t88.5 -38q72 0 113.5 42.5t61.5 137.5h139q-36 -145 -120 -212t-229 -67q-159 0 -211.5 70.5t-19.5 239.5l65 335h-162z" />
<glyph unicode="&#x168;" horiz-adv-x="1726" d="M223 1386l21 107h584l-21 -107h-191l-150 -772q-56 -286 16 -399t301 -113t344 113t171 399l150 772h-191l21 107h504l-21 -107h-190l-154 -792q-66 -341 -224.5 -482t-472.5 -141t-420 142t-40 481l154 792h-191zM787 1668q21 100 84 159q62 59 147 59q36 0 66 -9 q29 -9 78 -40l44 -26q20 -13 41 -20q20 -7 37 -7q41 0 70 27q29 28 38 75h97q-22 -105 -85 -162q-62 -57 -156 -57q-67 0 -131 45l-4 3l-43 28q-17 13 -36 20t-36 7q-39 0 -71 -29q-31 -28 -44 -74z" />
<glyph unicode="&#x169;" horiz-adv-x="1319" d="M140 956l21 107h351l-120 -619q-20 -103 -20 -171q0 -61 16 -95q33 -72 155 -72q128 0 213.5 94t119.5 273l115 590h184l-186 -957h174l-20 -106h-358l36 188q-72 -106 -163.5 -161.5t-198.5 -55.5q-177 0 -241 101q-39 60 -39 163q0 67 17 152l110 569h-166zM438 1309 q28 135 93 209q65 73 156 73q38 0 68 -14q29 -14 60 -47l46 -55q18 -23 34 -31q15 -8 36 -8q43 0 75 40t50 115h96q-28 -135 -93 -209q-65 -73 -156 -73q-38 0 -68 14q-29 14 -60 47l-46 55q-21 24 -36 31q-15 8 -34 8q-42 0 -74 -40q-32 -39 -51 -115h-96z" />
<glyph unicode="&#x16a;" horiz-adv-x="1726" d="M223 1386l21 107h584l-21 -107h-191l-150 -772q-56 -286 16 -399t301 -113t344 113t171 399l150 772h-191l21 107h504l-21 -107h-190l-154 -792q-66 -341 -224.5 -482t-472.5 -141t-420 142t-40 481l154 792h-191zM782 1694l28 148h598l-28 -148h-598z" />
<glyph unicode="&#x16b;" horiz-adv-x="1319" d="M140 956l21 107h351l-120 -619q-20 -103 -20 -171q0 -61 16 -95q33 -72 155 -72q128 0 213.5 94t119.5 273l115 590h184l-186 -957h174l-20 -106h-358l36 188q-72 -106 -163.5 -161.5t-198.5 -55.5q-177 0 -241 101q-39 60 -39 163q0 67 17 152l110 569h-166zM488 1378 l28 148h598l-28 -148h-598z" />
<glyph unicode="&#x16c;" horiz-adv-x="1726" d="M223 1386l21 107h584l-21 -107h-191l-150 -772q-56 -286 16 -399t301 -113t344 113t171 399l150 772h-191l21 107h504l-21 -107h-190l-154 -792q-66 -341 -224.5 -482t-472.5 -141t-420 142t-40 481l154 792h-191zM869 1901h94q7 -55 55 -82t140 -27t151 27t88 82h94 q-43 -117 -135 -180q-93 -62 -224 -62q-132 0 -199 62t-64 180z" />
<glyph unicode="&#x16d;" horiz-adv-x="1319" d="M140 956l21 107h351l-120 -619q-20 -103 -20 -171q0 -61 16 -95q33 -72 155 -72q128 0 213.5 94t119.5 273l115 590h184l-186 -957h174l-20 -106h-358l36 188q-72 -106 -163.5 -161.5t-198.5 -55.5q-177 0 -241 101q-39 60 -39 163q0 67 17 152l110 569h-166zM481 1608 h96q-2 -79 43 -114q45 -36 145 -36t159 36q59 35 87 114h96q-38 -143 -131 -215t-238 -72t-210 72t-47 215z" />
<glyph unicode="&#x16e;" horiz-adv-x="1726" d="M223 1386l21 107h584l-21 -107h-191l-150 -772q-56 -286 16 -399t301 -113t344 113t171 399l150 772h-191l21 107h504l-21 -107h-190l-154 -792q-66 -341 -224.5 -482t-472.5 -141t-420 142t-40 481l154 792h-191zM862 1879q22 115 117 194q95 80 210 80t179 -80 q64 -79 42 -194t-117 -195t-210 -80t-179 80t-42 195zM984 1879q-13 -65 23 -108q35 -44 100 -44q64 0 116 44q53 44 65 108q12 63 -23 107q-36 44 -100 44q-65 0 -117 -43q-51 -44 -64 -108z" />
<glyph unicode="&#x16f;" horiz-adv-x="1319" d="M140 956l21 107h351l-120 -619q-20 -103 -20 -171q0 -61 16 -95q33 -72 155 -72q128 0 213.5 94t119.5 273l115 590h184l-186 -957h174l-20 -106h-358l36 188q-72 -106 -163.5 -161.5t-198.5 -55.5q-177 0 -241 101q-39 60 -39 163q0 67 17 152l110 569h-166zM509 1504 q22 115 117 194q95 80 210 80t179 -80q64 -79 42 -194t-117 -195t-210 -80t-179 80t-42 195zM631 1504q-13 -65 23 -108q35 -44 100 -44q64 0 116 44q53 44 65 108q12 63 -23 107q-36 44 -100 44q-65 0 -117 -43q-51 -44 -64 -108z" />
<glyph unicode="&#x170;" horiz-adv-x="1726" d="M223 1386l21 107h584l-21 -107h-191l-150 -772q-56 -286 16 -399t301 -113t344 113t171 399l150 772h-191l21 107h504l-21 -107h-190l-154 -792q-66 -341 -224.5 -482t-472.5 -141t-420 142t-40 481l154 792h-191zM927 1635l234 264h197l-314 -264h-117zM1244 1635 l234 264h197l-314 -264h-117z" />
<glyph unicode="&#x171;" horiz-adv-x="1319" d="M140 956l21 107h351l-120 -619q-20 -103 -20 -171q0 -61 16 -95q33 -72 155 -72q128 0 213.5 94t119.5 273l115 590h184l-186 -957h174l-20 -106h-358l36 188q-72 -106 -163.5 -161.5t-198.5 -55.5q-177 0 -241 101q-39 60 -39 163q0 67 17 152l110 569h-166zM501 1262 l262 376h170l-318 -376h-114zM794 1262l299 376h178l-361 -376h-116z" />
<glyph unicode="&#x172;" horiz-adv-x="1726" d="M223 1386l21 107h584l-21 -107h-191l-150 -772q-56 -286 16 -399t301 -113t344 113t171 399l150 772h-191l21 107h504l-21 -107h-190l-154 -792q-66 -341 -224.5 -482t-472.5 -141t-420 142t-40 481l154 792h-191zM504 -239q9 49 49.5 101.5t122.5 121.5h94l-1 -2 q-111 -123 -120 -170q-9 -46 19 -74t84 -28q27 0 57 6.5t63 19.5l-26 -127q-37 -9 -71.5 -13.5t-66.5 -4.5q-113 0 -166.5 44.5t-37.5 125.5z" />
<glyph unicode="&#x173;" horiz-adv-x="1319" d="M140 956l21 107h351l-120 -619q-20 -103 -20 -171q0 -61 16 -95q33 -72 155 -72q128 0 213.5 94t119.5 273l115 590h184l-186 -957h174l-20 -106h-358l36 188q-72 -106 -163.5 -161.5t-198.5 -55.5q-177 0 -241 101q-39 60 -39 163q0 67 17 152l110 569h-166zM805 -223 q9 49 49.5 101.5t122.5 121.5h94l-1 -2q-111 -123 -120 -170q-9 -46 19 -74t84 -28q27 0 57 6.5t63 19.5l-26 -127q-37 -9 -71.5 -13.5t-66.5 -4.5q-113 0 -166.5 44.5t-37.5 125.5z" />
<glyph unicode="&#x174;" horiz-adv-x="2105" d="M134 1386l21 107h545l-21 -107h-186l97 -1103l575 1210h162l108 -1223l530 1116h-172l21 107h430l-21 -107h-147l-660 -1386h-164l-106 1214l-578 -1214h-164l-122 1386h-148zM909 1642l283 264h176l179 -264h-116l-171 161l-235 -161h-116z" />
<glyph unicode="&#x175;" horiz-adv-x="1753" d="M115 954l21 109h274l112 -830l435 830h129l111 -830q133 144 163 197q110 200 218 526l-155 -1l21 108h267l-21 -108h-1q-102 -371 -199 -550q-143 -255 -300 -405h-153l-109 795l-417 -795h-147l-129 956zM706 1262l309 376h168l161 -376h-116l-152 260l-254 -260h-116z " />
<glyph unicode="&#x176;" horiz-adv-x="1352" d="M101 1386l21 107h555l-21 -107h-174l256 -604l490 604h-168l21 107h434l-21 -107h-141l-589 -724l-109 -556h191l-20 -106h-584l20 106h191l105 537l-317 743h-140zM526 1642l283 264h176l179 -264h-116l-171 161l-235 -161h-116z" />
<glyph unicode="&#x177;" horiz-adv-x="1157" d="M-76 -424l40 203h94q-2 -16 -2 -31q0 -42 18 -66q25 -34 90 -34q176 0 329 153l-251 1155h-121l21 107h275l236 -1055q161 241 200 340q126 311 151 599h-121l21 107h274q-99 -572 -273 -874q-255 -443 -460 -576q-91 -59 -331 -59q-47 0 -94.5 8t-95.5 23zM399 1262 l309 376h168l161 -376h-116l-152 260l-254 -260h-116z" />
<glyph unicode="&#x178;" horiz-adv-x="1352" d="M101 1386l21 107h555l-21 -107h-174l256 -604l490 604h-168l21 107h434l-21 -107h-141l-589 -724l-109 -556h191l-20 -106h-584l20 106h191l105 537l-317 743h-140zM601 1768q9 46 50 81q42 35 89 35q48 0 75 -35q28 -35 19 -81q-10 -50 -50 -83q-40 -34 -90 -34 q-49 0 -76 34q-27 33 -17 83zM990 1768q9 46 50 81q42 35 90 35q47 0 74 -35q28 -35 19 -81q-10 -50 -50 -83q-40 -34 -89 -34q-50 0 -77 34q-27 33 -17 83z" />
<glyph unicode="&#x179;" horiz-adv-x="1423" d="M-53 0l14 72l1182 1298h-772l-43 -223h-123l67 346h1180l-14 -72l-1182 -1298h844l40 209h122l-64 -332h-1251zM847 1636l234 264h197l-314 -264h-117z" />
<glyph unicode="&#x17a;" horiz-adv-x="1079" d="M-21 0l16 86l728 757q-11 4 -40 13q-34 11 -68 33l-49 30q-94 57 -162 57q-131 0 -285 -150l24 121q171 168 301 168q79 -2 190 -71t181 -69q108 0 213 88h60l-16 -86l-727 -758q10 -3 39 -12q34 -11 68 -33l49 -30q94 -57 162 -57q131 0 285 150l-24 -121 q-171 -168 -301 -168q-79 2 -190 71t-181 69q-108 0 -213 -88h-60zM592 1214l332 376h199l-414 -376h-117z" />
<glyph unicode="&#x17b;" horiz-adv-x="1423" d="M-53 0l14 72l1182 1298h-772l-43 -223h-123l67 346h1180l-14 -72l-1182 -1298h844l40 209h122l-64 -332h-1251zM806 1788q9 46 51 81t89 35t75 -35t19 -81q-10 -50 -50 -83q-40 -34 -90 -34t-77 34q-27 33 -17 83z" />
<glyph unicode="&#x17c;" horiz-adv-x="1079" d="M-21 0l16 86l728 757q-11 4 -40 13q-34 11 -68 33l-49 30q-94 57 -162 57q-131 0 -285 -150l24 121q171 168 301 168q79 -2 190 -71t181 -69q108 0 213 88h60l-16 -86l-727 -758q10 -3 39 -12q34 -11 68 -33l49 -30q94 -57 162 -57q131 0 285 150l-24 -121 q-171 -168 -301 -168q-79 2 -190 71t-181 69q-108 0 -213 -88h-60zM632 1386q9 48 51 82q41 35 89 35t76 -35q27 -34 18 -82q-10 -51 -49 -84q-40 -33 -91 -33t-77 33q-27 33 -17 84z" />
<glyph unicode="&#x17d;" horiz-adv-x="1423" d="M-53 0l14 72l1182 1298h-772l-43 -223h-123l67 346h1180l-14 -72l-1182 -1298h844l40 209h122l-64 -332h-1251zM652 1899h116l171 -162l235 162h116l-283 -264h-176z" />
<glyph unicode="&#x17e;" horiz-adv-x="1079" d="M-21 0l16 86l728 757q-11 4 -40 13q-34 11 -68 33l-49 30q-94 57 -162 57q-131 0 -285 -150l24 121q171 168 301 168q79 -2 190 -71t181 -69q108 0 213 88h60l-16 -86l-727 -758q10 -3 39 -12q34 -11 68 -33l49 -30q94 -57 162 -57q131 0 285 150l-24 -121 q-171 -168 -301 -168q-79 2 -190 71t-181 69q-108 0 -213 -88h-60zM449 1638h116l152 -260l254 260h116l-309 -376h-168z" />
<glyph unicode="&#x17f;" horiz-adv-x="758" d="M-127 -426l12 98q105 0 156 56q53 60 82 206l198 1022h-176l21 107h176l26 133q35 178 145 269t289 91q67 0 131.5 -12t126.5 -37l-40 -202h-97q4 21 4 40q0 46 -24 74q-34 39 -113 39q-103 0 -156 -56.5t-81 -201.5l-246 -1266q-35 -178 -145 -269t-289 -91z" />
<glyph unicode="&#x180;" horiz-adv-x="1311" d="M88 0l235 1210h-176l24 122h176l22 118h-176l21 106h360l-43 -224h316l-24 -122h-316l-61 -313q73 100 166 147.5t216 47.5q196 0 290 -155q62 -102 62 -245q0 -75 -17 -160q-49 -250 -203 -405.5t-350 -155.5q-123 0 -197.5 47.5t-108.5 147.5l-32 -166h-184zM349 337 q0 -91 32 -151q54 -100 194 -100q141 0 235.5 113t137.5 333q20 101 20 180q0 92 -28 153q-50 112 -192 112q-140 0 -233 -101t-130 -292l-20 -105q-16 -79 -16 -142z" />
<glyph unicode="&#x181;" horiz-adv-x="1505" d="M-139 1020l67 344q117 76 304 112q118 17 216 17h547q224 0 322 -93q97 -92 61 -276q-25 -133 -120 -212t-252 -97q188 -24 266 -121q79 -98 47 -262q-43 -222 -203.5 -327t-457.5 -105h-690l20 106h190l249 1280q-227 0 -312 -89q-89 -91 -125 -277h-129zM381 106h299 q180 0 278.5 78t131.5 248q32 167 -35 246q-67 78 -248 78h-299zM528 862h254q164 0 253 63q87 63 113 199q31 157 -36 200q-95 62 -228 62h-254z" />
<glyph unicode="&#x182;" horiz-adv-x="1505" d="M-32 0l20 106h190l249 1280h-190l21 107h1201l-65 -333h-123l41 210h-685l-99 -508h254q380 0 490 -168q55 -86 55 -186q0 -37 -8 -76q-43 -222 -203.5 -327t-457.5 -105h-690zM381 106h299q180 0 278.5 78t131.5 248q11 55 11 101q0 93 -45 145q-68 78 -249 78h-299z " />
<glyph unicode="&#x183;" horiz-adv-x="1311" d="M-89 0l20 106h177l261 1344h-177l21 106h953l-52 -267h-105l28 144h-487l-104 -536q73 100 167 147q92 48 215 48q196 0 290 -155t45 -405t-203 -406q-154 -155 -350 -155q-123 0 -197 47q-75 48 -109 148l-32 -166h-361zM365 479q-38 -192 17 -293q53 -100 193 -100 q141 0 235 113q95 113 138 333q43 221 -8 333q-50 112 -192 112q-140 0 -232 -101q-94 -101 -131 -292z" />
<glyph unicode="&#x184;" horiz-adv-x="1505" d="M-32 0l20 106h190l173 886h-190l20 106l470 395l-123 -631h254q380 0 490 -168q75 -118 47 -262q-43 -222 -203.5 -327t-457.5 -105h-690zM381 106h299q180 0 278.5 78t131.5 248q33 169 -34.5 246.5t-248.5 77.5h-299z" />
<glyph unicode="&#x185;" horiz-adv-x="1311" d="M-89 0l20 106h177l198 1019h-177l25 126l420 305l-128 -659q73 100 166 147.5t216 47.5q196 0 290 -155t45 -405t-203 -405.5t-350 -155.5q-123 0 -197.5 47.5t-108.5 147.5l-32 -166h-361zM365 479q-38 -192 16 -292.5t194 -100.5q141 0 235.5 113t137.5 333 q43 221 -7.5 333t-192.5 112q-140 0 -233 -101t-130 -292z" />
<glyph unicode="&#x186;" horiz-adv-x="1567" d="M31 100l66 344h113q1 -188 95 -277t295 -89q239 0 395 169.5t220 498.5q64 328 -26 497.5t-329 169.5q-167 0 -290.5 -79.5t-202.5 -237.5h-184q107 209 283.5 316.5t414.5 107.5q146 0 261 -50t193 -147q90 -112 117 -254.5t-8 -322.5q-68 -348 -310.5 -561.5 t-571.5 -213.5q-122 0 -253.5 32t-277.5 97z" />
<glyph unicode="&#x187;" horiz-adv-x="1567" d="M96 422q-27 143 8 323q68 348 310 561q243 214 572 214q122 0 254 -32q94 -23 195 -63q17 87 110 145q86 60 200 60q72 0 135 -16q62 -17 117 -50l-42 -219h-95q18 96 -23 141q-33 45 -115 45q-91 0 -146 -61t-80 -191l-45 -232h-113q-1 188 -94 277q-95 89 -296 89 q-239 0 -395 -169q-156 -170 -220 -499q-64 -328 27 -497q90 -170 329 -170q167 0 290 80q123 79 202 237h184q-106 -209 -283 -317q-176 -107 -414 -107q-146 0 -261.5 50t-193.5 147q-90 112 -117 254z" />
<glyph unicode="&#x188;" horiz-adv-x="1147" d="M81 532q50 255 220 408q171 152 403 152q101 0 196 -24q47 -11 94 -29q45 144 141 216q70 53 194 53q72 0 134 -16q63 -17 118 -50l-42 -219h-95q18 96 -22 141q-34 45 -116 45q-91 0 -147 -61q-54 -61 -79 -191l-45 -232h-107q6 140 -52 204t-189 64q-149 0 -248 -115 q-98 -116 -143 -346t8 -346t203 -116q119 0 202 62t134 187h148q-72 -170 -200.5 -259t-304.5 -89q-232 0 -343 153q-111 154 -62 408z" />
<glyph unicode="&#x189;" horiz-adv-x="1653" d="M-22 0l20 106h190l120 613h-200l24 125h200l105 542h-190l21 107h594q386 0 563.5 -197t108.5 -548q-68 -352 -322.5 -550t-639.5 -198h-594zM389 106h188q291 0 479.5 166t249 476t-63.5 474t-416 164h-188l-105 -542h336l-24 -125h-336z" />
<glyph unicode="&#x18a;" horiz-adv-x="1642" d="M-139 1020l67 344q158 103 304 112q97 17 216 17h404q386 0 563 -197q178 -197 109 -548q-68 -352 -322.5 -550t-639.5 -198h-594l20 106h190l249 1280q-227 0 -312 -89q-89 -91 -125 -277h-129zM381 106h186q291 0 479 166t248.5 476t-63 474t-415.5 164h-186z" />
<glyph unicode="&#x18b;" horiz-adv-x="1505" d="M52 432q28 144 149 262q174 168 554 168h254l99 508h-685l-40 -209h-123l64 332h1201l-21 -107h-190l-248 -1280h190l-21 -106h-690q-297 0 -416.5 105t-76.5 327zM281 432q-33 -170 34.5 -248t247.5 -78h299l127 650h-299q-181 0 -279 -78q-97 -77 -130 -246z" />
<glyph unicode="&#x18c;" horiz-adv-x="1311" d="M14 532q49 250 203 405t350 155q123 0 198 -48q73 -47 108 -147l104 536h-487l-28 -144h-105l52 267h953l-21 -106h-177l-261 -1344h177l-20 -106h-361l32 166q-74 -100 -166 -148q-93 -47 -216 -47q-196 0 -290 155q-94 156 -45 406zM229 532q-43 -220 7 -333 q51 -113 192 -113q140 0 234 100q92 101 130 293l20 105q37 191 -16 292q-54 101 -194 101q-142 0 -236 -112t-137 -333z" />
<glyph unicode="&#x18d;" horiz-adv-x="1233" d="M94 -440l39 197l112 25q-5 -89 58 -135q63 -45 157 -45t173 49q83 52 93 118q18 95 -12 127q-63 75 -161 75q-233 0 -344 153q-110 153 -61 407t219 407q171 154 404 154q232 0 343 -154q111 -153 62 -407t-219 -407q-76 -67 -143 -97q61 -25 85 -74q27 -56 0 -193 q-25 -129 -136 -197q-111 -67 -307 -67q-54 0 -155 16q-101 17 -207 48zM363 531q-44 -228 8 -345q53 -116 201 -116t247 116q98 117 142 345t-9 345t-200 117q-148 0 -247 -117q-98 -117 -142 -345z" />
<glyph unicode="&#x18e;" horiz-adv-x="1495" d="M-32 0l64 332h123l-40 -209h702l121 625h-489l-36 -187h-123l96 496h123l-36 -187h489l97 500h-686l-40 -209h-123l64 332h1202l-21 -107h-190l-249 -1280h190l-20 -106h-1218z" />
<glyph unicode="&#x18f;" horiz-adv-x="1679" d="M107 422q-27 142 8 323l14 71h1218q54 279 -40 428q-92 169 -326 169q-178 0 -302 -79q-123 -80 -202 -238h-184q107 209 283 316q177 108 415 108q325 0 483.5 -213t90.5 -562q-35 -179 -118 -323q-82 -142 -216 -254q-118 -98 -253 -148q-136 -49 -289 -49 q-152 0 -270 50q-117 50 -195 147q-90 112 -117 254zM335 694q-57 -292 37 -448q92 -168 338 -168q245 0 403 168q154 156 211 448h-989z" />
<glyph unicode="&#x190;" horiz-adv-x="1276" d="M193 303q0 47 10 100q34 171 156 278.5t311 133.5q-149 32 -217 123q-48 65 -48 153q0 34 7 72q33 168 174 262.5t379 94.5t460 -90l-51 -263h-112q2 20 2 38q0 98 -57.5 157t-227.5 59t-255.5 -69.5t-112.5 -207.5q-7 -38 -7 -71q0 -87 53 -139q72 -72 291 -72h50 l-21 -106h-95q-219 0 -326.5 -89.5t-139.5 -254.5q-10 -51 -10 -95q0 -97 49 -159q72 -88 208.5 -88t243.5 69t126 126h184q-58 -105 -197 -199.5t-379.5 -94.5t-358.5 111q-89 84 -89 221z" />
<glyph unicode="&#x191;" horiz-adv-x="1421" d="M-376 -358l45 235h114q-38 -196 141 -196q119 0 181 75q63 77 104 293l260 1337h-190l21 107h1222l-65 -332h-123l41 209h-706l-98 -500h510l37 187h123l-97 -496h-123l37 187h-510l-138 -707q-61 -313 -246 -412q-104 -55 -263 -55q-145 0 -277 68z" />
<glyph unicode="&#x192;" horiz-adv-x="758" d="M-376 -330l40 202h97q-4 -21 -4 -40q0 -46 24 -74q34 -39 113 -39q103 0 156 56.5t82 205.5l189 975h-176l21 107h176l26 133q35 178 145 269t289 91q67 0 131.5 -12t126.5 -37l-40 -202h-97q4 21 4 40q0 46 -24 74q-34 39 -113 39q-103 0 -156 -56.5t-81 -201.5 l-27 -137h297l-21 -107h-297l-189 -975q-35 -178 -145 -269t-289 -91q-67 0 -131.5 12t-126.5 37z" />
<glyph unicode="&#x193;" horiz-adv-x="1636" d="M104 745q69 354 314 565q245 210 590 210q212 0 445 -84q39 77 112 134q75 60 200 60q141 0 252 -66l-42 -219h-95q28 147 -76 177q-26 9 -62 9q-125 0 -184 -118q-26 -54 -42 -134l-45 -232h-113l1 5q0 267 -202 335q-76 26 -182 26q-258 0 -417 -166t-225 -502 q-103 -530 208 -640q78 -27 179 -27q226 0 433 112l75 385h-281l21 107h484l-108 -557q-296 -154 -645 -154q-338 0 -501 211q-162 212 -94 563z" />
<glyph unicode="&#x194;" horiz-adv-x="1458" d="M139 12q-20 181 491 721l-309 653h-160l20 107h592l-20 -107h-176l226 -481l423 481h-192l20 107h489l-20 -107h-168l-507 -575q422 -685 205 -855q-184 -144 -536 -144q-355 0 -378 200zM276 56q-27 -138 261 -138q272 0 299 138q41 212 -159 580q-362 -378 -401 -580z " />
<glyph unicode="&#x195;" horiz-adv-x="1909" d="M99 0l282 1450h-176l21 106h360l-133 -682q72 108 164 163q93 55 201 55q178 0 239 -101q63 -103 22 -315l-63 -325q-26 -131 5 -191t123 -61q125 0 262 130q112 107 149 297q30 154 -11 257q-42 102 -151 148l12 59h112q141 -64 205 -193q65 -130 35 -287 q-22 -111 -83 -207q-62 -98 -157 -172q-85 -67 -186 -102q-102 -36 -208 -36q-160 0 -249 101q-76 86 -43 257l52 267q37 195 4 266q-34 72 -156 72q-128 0 -213 -93t-119 -271l-116 -592h-184z" />
<glyph unicode="&#x196;" horiz-adv-x="809" d="M226 351l201 1035h-190l21 107h583l-21 -107h-190l-201 -1035q-25 -131 5 -191q32 -61 123 -61h13l-19 -99h-13q-201 0 -253 54q-97 101 -59 297z" />
<glyph unicode="&#x197;" horiz-adv-x="809" d="M-32 0l20 106h190l120 613h-200l24 125h200l105 542h-190l21 107h583l-21 -107h-190l-105 -542h198l-24 -125h-198l-120 -613h190l-20 -106h-583z" />
<glyph unicode="&#x198;" horiz-adv-x="1530" d="M-34 0l20 106h190l249 1280h-190l21 107h583l-21 -107h-190l-110 -565l753 565q174 131 298 131q67 0 129 -17q68 -18 119 -49l-43 -219h-95q19 96 -22 141q-29 38 -89 43q-87 0 -174 -60l-707 -533l577 -717h170l-20 -106h-347l-571 709l-117 -603h190l-20 -106h-583z " />
<glyph unicode="&#x199;" horiz-adv-x="1241" d="M85 0l234 1205q32 162 148 257q115 94 286 94q77 0 135 -16q62 -17 117 -50l-42 -219h-95q18 92 -23 141q-37 45 -115 45q-91 0 -146 -61q-54 -59 -80 -191l-130 -662l529 413h-153l20 107h299l-20 -107l-373 -292l295 -558h153l-20 -106h-295l-290 543l-171 -135 l-79 -408h-184z" />
<glyph unicode="&#x19a;" horiz-adv-x="655" d="M-1 464l21 106h176l171 880h-177l20 106h361l-191 -986h174l-21 -106h-174l-70 -358h174l-20 -106h-358l90 464h-176z" />
<glyph unicode="&#x19b;" horiz-adv-x="1298" d="M-68 0l21 107h121l602 977l-18 99l-304 -187l-44 86l327 203l-3 22q-19 92 -48 122q-29 31 -82 31q-60 0 -93 -29q-35 -30 -54 -98h-94l39 203q53 15 104 23t98 8q111 0 163 -46q53 -45 79 -169l166 98l43 -86l-190 -115l226 -1142h119l-21 -107h-399l21 107h159 l-141 734l-457 -734h170l-21 -107h-489z" />
<glyph unicode="&#x19c;" horiz-adv-x="1942" d="M173 387l195 1002h-166l20 106h510l-20 -106h-160l-191 -981q-32 -163 2.5 -232t145.5 -69q124 0 206 93q83 94 117 271l179 918h-160l20 106h504l-20 -106h-160l-193 -988q-30 -159 4.5 -226.5t145.5 -67.5q124 0 206 93q83 94 117 271l179 918h-160l20 106h510 l-20 -106h-166l-250 -1284h176l-20 -105h-360l36 189q-71 -106 -161 -162t-190 -56q-124 0 -195 61.5t-77 174.5q-76 -117 -170 -176.5t-204 -59.5q-166 0 -229 103q-62 103 -21 313z" />
<glyph unicode="&#x19d;" horiz-adv-x="1792" d="M-378 -358l45 235h114q-19 -99 19 -147q34 -49 122 -49q119 0 180.5 75t104.5 293l260 1337h-201l21 107h383l666 -1178l208 1071h-200l21 107h524l-21 -107h-201l-275 -1415h-121l-711 1257l-231 -1187q-48 -247 -168.5 -357t-312.5 -110q-20 0 -89 17q-71 17 -137 51z " />
<glyph unicode="&#x19e;" horiz-adv-x="1319" d="M185 0l186 956h-176l21 107h360l-37 -189q72 108 164 163q93 55 201 55q176 0 239 -101t22 -315l-194 -995h164l-21 -107h-349l203 1044q38 195 4 268q-34 72 -155 72q-128 0 -213 -94q-85 -93 -120 -272l-115 -592h-184z" />
<glyph unicode="&#x19f;" horiz-adv-x="1679" d="M107 422q-27 142 8 323t117 323.5t216 254.5q117 98 253 147.5t290 49.5q325 0 483.5 -213t90.5 -562q-35 -179 -118 -323q-82 -142 -216 -254q-118 -98 -253 -148q-136 -49 -289 -49q-152 0 -269.5 50t-195.5 147q-90 112 -117 254zM335 694q-48 -292 37 -448 q92 -168 338 -168q245 0 403 168q145 156 211 448h-989zM359 816h988q42 279 -40 428q-92 169 -337 169q-246 0 -404 -169q-140 -149 -207 -428z" />
<glyph unicode="&#x1a0;" horiz-adv-x="1679" d="M102 422q-27 142 8 323t117 323.5t216 254.5q117 98 253 147.5t290 49.5q325 0 483.5 -213t90.5 -562q-35 -179 -118 -322.5t-216 -254.5q-117 -98 -253 -147.5t-289 -49.5q-152 0 -269.5 50t-195.5 147q-90 112 -117 254zM339 745q-64 -330 28 -498.5t338 -168.5 q245 0 403 168.5t222 498.5q64 331 -28 499.5t-337 168.5q-246 0 -404 -168.5t-222 -499.5zM1339 1313l19 94l1 -1q106 -87 153 -87q46 0 81 33.5t45 89.5q5 27 4.5 56t-7.5 59l127 -1q2 -36 0 -69.5t-9 -65.5q-22 -113 -78.5 -175t-137.5 -62q-49 0 -95.5 30t-102.5 99z " />
<glyph unicode="&#x1a1;" horiz-adv-x="1233" d="M84 385q0 69 15 147q49 254 219.5 407t403.5 153t344 -153q76 -106 76 -260q0 -69 -15 -147q-49 -254 -219.5 -407.5t-403.5 -153.5q-232 0 -343 153q-77 107 -77 261zM294 348q0 -97 29 -161q53 -117 200 -117q148 0 246.5 117t142.5 345q20 104 20 185q0 96 -28 159 q-53 117 -201 117t-246.5 -116.5t-142.5 -344.5q-20 -104 -20 -184zM978 845l19 94l1 -1q106 -87 153 -87q46 0 81 33.5t45 89.5q5 27 4.5 56t-7.5 59l127 -1q2 -36 0 -69.5t-9 -65.5q-22 -113 -78.5 -175t-137.5 -62q-49 0 -95.5 30t-102.5 99z" />
<glyph unicode="&#x1a2;" horiz-adv-x="2129" d="M135 422q-27 142 8 323t117.5 323.5t216.5 254.5q117 98 252.5 147.5t289.5 49.5q204 0 342 -84q65 26 129 40q77 17 148 17q220 0 297.5 -110t29.5 -357l-241 -1240h190l-21 -107h-625l21 107h232l239 1232q43 218 10.5 293t-151.5 75q-88 0 -141 -48q13 -15 25 -31 q158 -213 90 -562q-35 -179 -117 -323q-83 -142 -217 -254q-118 -98 -253 -148q-135 -49 -288 -49q-152 0 -270 50t-196 147q-90 112 -117 254zM372 745q-64 -330 28.5 -498.5t338.5 -168.5q245 0 402.5 168.5t221.5 498.5q65 331 -27.5 499.5t-337.5 168.5 q-246 0 -403.5 -168.5t-222.5 -499.5z" />
<glyph unicode="&#x1a3;" horiz-adv-x="1653" d="M140.5 532q49.5 254 220 407t403.5 153q144 0 241 -59q1 2 47 13q69 17 141 17q171 0 250.5 -93.5t47.5 -257.5l-201 -1031h176l-21 -107h-360l222 1138q25 129 -6.5 190.5t-122.5 61.5q-65 0 -80 -13l9 -12q111 -153 61.5 -407t-219.5 -407.5t-403 -153.5 q-232 0 -343.5 153.5t-62 407.5zM355.5 532q-44.5 -228 9 -345t200.5 -117q148 0 246 117t142.5 345t-8.5 344.5t-201 116.5t-246 -116.5t-142.5 -344.5z" />
<glyph unicode="&#x1a4;" horiz-adv-x="1378" d="M-139 1020l67 344q112 73 304 112q118 17 216 17h516q224 0 333 -113q109 -114 71 -307q-37 -192 -190 -306t-377 -114h-313l-107 -547h231l-20 -106h-624l20 106h190l249 1280q-227 0 -312 -89q-89 -91 -125 -277h-129zM509 760h264q149 0 242 80q94 81 123 233 q30 153 -32.5 233t-211.5 80h-264z" />
<glyph unicode="&#x1a5;" horiz-adv-x="1311" d="M51 -426l300 1541q32 166 147 258q116 93 287 93q67 0 134 -17q62 -16 118 -49l-43 -219h-95q19 93 -21 141q-37 45 -116 45q-91 0 -147 -62q-54 -60 -79 -190l-43 -218q72 98 167 147q92 48 215 48q196 0 290 -155t45.5 -405t-203.5 -406q-154 -155 -350 -155 q-123 0 -197 47q-74 48 -109 148l-115 -592h-185zM412 479q-37 -192 17 -293q54 -100 194 -100q141 0 235 113q95 113 137 333q43 221 -8 333q-50 112 -191 112q-140 0 -233 -101t-131 -292z" />
<glyph unicode="&#x1a6;" horiz-adv-x="1542" d="M-1 0l21 106h190l249 1280h-190l21 107h604l-21 -107h-211l-42 -218h364q218 0 316 -104q71 -75 71 -197q0 -46 -10 -98q-60 -309 -413 -353q67 -19 108.5 -64.5t65.5 -127.5l131 -443h182l-21 -106h-352l-140 475q-41 139 -89 179t-146 40h-223l-51 -263h211l-21 -106 h-604zM485 476h295q151 0 237 71.5t115 221.5q10 50 10 112t-39 109q-58 71 -209 71h-295z" />
<glyph unicode="&#x1a7;" horiz-adv-x="1403" d="M106 408q31 159 136 254q105 94 320 155l196 55q212 60 286 121t95 168q24 123 -46 187q-70 65 -228 65q-181 0 -283 -71q-103 -70 -150 -228h-113l61 318q149 43 277 66q129 22 233 22q244 0 358.5 -105t77.5 -295q-33 -169 -139 -266q-107 -97 -333 -162l-209 -59 q-193 -55 -261 -113q-67 -58 -88 -166q-26 -135 54 -206q79 -70 257 -70q191 0 301 82q109 81 147 252h115l-66 -340q-142 -51 -274 -76q-133 -25 -256 -25q-275 0 -392.5 110t-75.5 327z" />
<glyph unicode="&#x1a8;" horiz-adv-x="1051" d="M69 295q22 111 102 181q80 71 240 118l155 45q143 42 196 83q53 40 66 107q16 82 -36 123q-51 41 -167 41q-117 0 -196.5 -58t-103.5 -161h-106l45 232q107 42 204.5 64t181.5 22q189 0 280 -83t62 -229q-20 -102 -94 -168t-220 -110l-141 -45q-163 -49 -219 -92 t-69 -113q-18 -89 38 -136q56 -46 180 -46q138 0 221 59q81 59 108 178h106l-48 -248q-106 -44 -208.5 -66t-205.5 -22q-203 0 -302 87q-98 86 -69 237z" />
<glyph unicode="&#x1a9;" horiz-adv-x="1448" d="M-62 0l809 748l-519 745h1227l-64 -332h-123l40 209h-695l360 -556l-675 -626h780l28 144h123l-64 -332h-1227z" />
<glyph unicode="&#x1aa;" horiz-adv-x="664" d="M-40 1359q43 199 418 199q161 0 245 -93q53 -61 62 -132q43 61 61 156l13 64h100l-14 -64q-45 -220 -184 -306q-194 -540 -448 -1288q-37 -109 7 -190q30 -62 121 -62q82 0 134 46q51 44 77 140h95l-43 -218q-68 -34 -136 -50q-70 -16 -142 -16q-171 0 -250 93 q-97 115 -48 257q-2 14 429 1234h-9q-538 0 -488 230zM177 1352q-24 -123 287 -123q14 0 28 1q26 95 -13 167q-34 62 -123 62q-159 0 -179 -107z" />
<glyph unicode="&#x1ab;" horiz-adv-x="823" d="M100 -389l43 219h95q-12 -96 22 -141t116 -45q91 0 146 62q54 60 80 190l17 87q-51 -12 -113 -12q-159 0 -211 70.5t-19 239.5l131 675h-162l21 107h162l64 330h185l-64 -330h346l-21 -107h-346l-131 -675q-27 -135 -8 -173t89 -38q72 0 113 42.5t62 137.5h139l-69 -354 q-32 -164 -147.5 -257.5t-286.5 -93.5q-72 0 -134.5 16.5t-118.5 49.5z" />
<glyph unicode="&#x1ac;" horiz-adv-x="1366" d="M138 1008l69 356q117 76 304 112q123 17 216 17h764l-68 -352h-123l45 233h-439l-247 -1268h191l-20 -106h-584l20 106h191l247 1268q-227 0 -313 -89q-88 -91 -124 -277h-129z" />
<glyph unicode="&#x1ad;" horiz-adv-x="823" d="M96 956l21 107h162l28 142q31 162 148 257q115 94 286 94q77 0 135 -16q62 -17 117 -50l-42 -219h-95q18 96 -23 141q-33 45 -115 45q-91 0 -146 -61q-55 -59 -80 -191l-28 -142h346l-21 -107h-346l-131 -675q-26 -135 -7.5 -173t88.5 -38q72 0 113 42q42 43 62 138h139 q-28 -145 -120 -212q-84 -67 -229 -67q-159 0 -211 71q-53 70 -20 239l131 675h-162z" />
<glyph unicode="&#x1ae;" horiz-adv-x="1366" d="M138 1141l69 352h1326l-69 -352h-123l45 233h-439l-257 -1325q-42 -215 -10 -293q30 -75 151 -75q88 0 142 49q53 48 75 147h114l-45 -235q-80 -34 -156 -51q-78 -17 -149 -17q-220 0 -297.5 110t-28.5 357l259 1333h-439l-45 -233h-123z" />
<glyph unicode="&#x1af;" horiz-adv-x="1726" d="M217 1386l21 107h584l-21 -107h-191l-150 -772q-56 -286 16 -399t301 -113t344 113t171 399l150 772h-191l21 107h504l-21 -107h-190l-154 -792q-66 -341 -224.5 -482t-472.5 -141t-420 142t-40 481l154 792h-191zM1756 1398l19 94l1 -1q106 -87 153 -87q46 0 81 33.5 t45 89.5q5 27 4.5 56t-7.5 59l127 -1q2 -36 0 -69.5t-9 -65.5q-22 -113 -78.5 -175t-137.5 -62q-49 0 -95.5 30t-102.5 99z" />
<glyph unicode="&#x1b0;" horiz-adv-x="1319" d="M129 956l21 107h351l-120 -619q-20 -103 -20 -171q0 -61 16 -95q33 -72 155 -72q128 0 213.5 94t119.5 273l115 590h184l-186 -957h174l-20 -106h-358l36 188q-72 -106 -163.5 -161.5t-198.5 -55.5q-177 0 -241 101q-39 60 -39 163q0 67 17 152l110 569h-166zM1064 845 l19 94l1 -1q106 -87 153 -87q46 0 81 33.5t45 89.5q5 27 4.5 56t-7.5 59l127 -1q2 -36 0 -69.5t-9 -65.5q-22 -113 -78.5 -175t-137.5 -62q-49 0 -95.5 30t-102.5 99z" />
<glyph unicode="&#x1b1;" horiz-adv-x="1698" d="M114 703q41 213 199 389q156 177 383 264h-336l-27 -137h-117l59 301h592l-36 -182q-193 -70 -317 -226q-122 -155 -167 -387q-54 -279 50 -449q104 -169 326 -169t392 169q170 170 224 449q45 233 -16.5 388t-227.5 225l36 182h590l-59 -301h-117l27 137h-334 q192 -87 280 -263t46 -390q-29 -151 -112 -282t-213 -234q-117 -91 -254.5 -139t-282.5 -48t-262 48q-118 47 -199 139q-91 103 -124 235q-32 131 -3 281z" />
<glyph unicode="&#x1b2;" horiz-adv-x="1556" d="M226 351l201 1035h-190l21 107h583l-21 -107h-190l-201 -1035q-24 -125 5 -191q21 -47 150 -53q212 -9 392 169q170 170 224 449q48 249 -17 388q-62 131 -209 159l22 114h108q206 -83 278 -258q85 -208 43 -425q-30 -151 -113 -282q-85 -134 -213 -234 q-116 -91 -254 -139q-112 -39 -282 -48q-215 -11 -277 54q-98 101 -60 297z" />
<glyph unicode="&#x1b3;" horiz-adv-x="1512" d="M101 1386l21 107h555l-21 -107h-174l256 -604l490 604q151 107 287 107q67 0 134 -17q63 -16 118 -49l-42 -219h-95q11 96 -22 141q-34 45 -116 45q-126 0 -191 -72l-537 -660l-109 -556h191l-20 -106h-584l20 106h191l105 537l-317 743h-140z" />
<glyph unicode="&#x1b4;" horiz-adv-x="1525" d="M-78 -424l40 203h94q-7 -68 15.5 -97.5t82.5 -29.5q55 0 94.5 30.5t94.5 122.5l104 177l-207 974h-121l20 107h489l-20 -107h-170l157 -731l388 639q135 222 380 221q93 0 133 -17q114 -46 119 -49l-43 -219h-95q12 96 -21 141q-35 45 -117 45q-165 0 -253 -146 l-649 -1080q-74 -124 -144 -169.5t-181 -45.5q-47 0 -95 8t-95 23z" />
<glyph unicode="&#x1b5;" horiz-adv-x="1423" d="M-53 0l14 72l590 647h-306l24 125h395l479 526h-772l-43 -223h-123l67 346h1180l-14 -72l-525 -577h327l-24 -125h-417l-543 -596h844l40 209h122l-64 -332h-1251z" />
<glyph unicode="&#x1b6;" horiz-adv-x="1079" d="M-21 0l16 86l363 378h-199l20 106h281l263 273q-11 4 -40 13q-30 10 -68 33l-49 30q-93 57 -162 57q-131 0 -285 -150l24 121q172 169 301 168q77 -1 190 -71q111 -69 181 -69q108 0 213 88h60l-16 -86l-391 -407h232l-20 -106h-313l-235 -245q10 -3 39 -12 q30 -10 68 -33l49 -30q93 -57 162 -57q131 0 285 150l-24 -121q-172 -169 -301 -168q-77 1 -190 71q-111 69 -181 69q-108 0 -213 -88h-60z" />
<glyph unicode="&#x1b7;" horiz-adv-x="1156" d="M-24 84l63 324h112q-21 -161 49.5 -244t228.5 -83q153 0 262 100q107 99 141 271q38 197 -33 299q-72 101 -248 101h-95l20 102l425 416h-527l-43 -223h-123l67 346h873l-24 -125l-456 -445l78 -7q178 -29 257 -150q77 -120 40 -312q-46 -234 -211 -359 q-164 -124 -428 -124q-117 0 -222 28q-107 28 -206 85z" />
<glyph unicode="&#x1b8;" horiz-adv-x="1156" d="M48 454q37 192 162 312q125 121 315 150l80 7l-282 445l24 125h873l-67 -346h-123l43 223h-527l263 -416l-20 -102h-95q-176 0 -286 -101q-111 -102 -149 -299q-34 -172 35 -271q69 -100 222 -100q158 0 261.5 83t144.5 244h112l-63 -324q-121 -57 -238 -85t-234 -28 q-264 0 -380 124q-117 125 -71 359z" />
<glyph unicode="&#x1b9;" horiz-adv-x="1156" d="M48 25q37 192 162 312q125 121 315 150l80 7l-275 483l17 86h870l-57 -291h-106l36 184h-527l246 -431l-20 -102h-95q-176 0 -286 -101q-111 -102 -149 -299q-34 -172 35 -271q70 -100 223 -100q158 0 261 83t144 244h112l-63 -324q-121 -57 -238 -85t-234 -28 q-264 0 -380 124q-116 125 -71 359z" />
<glyph unicode="&#x1ba;" horiz-adv-x="1156" d="M19 -285q0 19 4 39q36 184 419 271t418 267q25 131 -309 131h-95l20 102l414 431h-527l-36 -184h-106l57 291h870l-17 -86l-463 -483q432 -39 398 -212q-37 -193 -434.5 -301.5t-417.5 -211.5q-2 -9 -2 -16q1 -101 260 -101q280 0 365 218h95l-30 -154 q-154 -174 -537 -174q-346 0 -346 173z" />
<glyph unicode="&#x1bb;" horiz-adv-x="1303" d="M-9 0l21 109l541 452q99 83 170 158h-469l24 125h548q84 122 110 256q29 151 -33 236t-200 85q-143 0 -234.5 -71t-133.5 -213h-112l52 266q118 57 232.5 87t218.5 30q233 0 346 -113t75 -307q-23 -116 -136 -256h127l-24 -125h-216q-69 -69 -159 -143l-43 -35l-450 -377 h623l36 184h117l-68 -348h-963z" />
<glyph unicode="&#x1bc;" horiz-adv-x="1406" d="M131 72l56 290h112q-18 -144 54.5 -218t230.5 -74q153 0 259 88.5t136 242.5q34 176 -39.5 266.5t-249.5 90.5h-382l122 628h-190l21 107h1085l-65 -332h-123l41 209h-569l-99 -510h134q85 0 223 -20q179 -26 259.5 -133.5t42.5 -303.5q-41 -209 -203 -320.5t-426 -111.5 q-117 0 -223.5 25t-206.5 76z" />
<glyph unicode="&#x1bd;" horiz-adv-x="1156" d="M-24 -345l63 324h112q-21 -161 50 -244t229 -83q153 0 261 100q107 99 141 271q38 197 -33 299q-72 101 -248 101h-312l104 535h-177l21 105h953l-52 -267h-105l28 144h-487l-81 -415h128l178 -21q179 -29 257 -150q78 -120 37 -329q-45 -234 -211 -359 q-164 -124 -428 -124q-116 0 -222 28q-107 28 -206 85z" />
<glyph unicode="&#x1be;" horiz-adv-x="1098" d="M120 36l42 218h95q-12 -96 23 -140q33 -46 115 -46q91 0 146 62q54 60 91 250q38 194 7 254q-31 62 -122 62h-116l51 262h-176l20 106h176l64 329h184l-64 -329h174l-20 -106h-174l-33 -171q112 -8 179 -85q80 -94 35 -322q-43 -224 -159 -317q-115 -93 -286 -93 q-72 0 -135 16q-62 16 -117 50z" />
<glyph unicode="&#x1bf;" horiz-adv-x="1300" d="M83 -426l269 1382h-177l21 107h361l-22 -113q193 197 466 197q184 0 239.5 -112.5t25.5 -265.5q-88 -454 -940 -891l-59 -304h-184zM348 -10q655 368 734 779q26 133 -19.5 208t-165.5 75q-170 0 -389 -239z" />
<glyph unicode="&#x1c0;" horiz-adv-x="604" d="M76 0l290 1493h162l-290 -1493h-162z" />
<glyph unicode="&#x1c1;" horiz-adv-x="1008" d="M76 0l290 1493h162l-290 -1493h-162zM480 0l290 1493h162l-290 -1493h-162z" />
<glyph unicode="&#x1c2;" horiz-adv-x="940" d="M-34 480l32 162h371l40 209h-371l32 162h371l93 480h162l-93 -480h371l-32 -162h-371l-40 -209h371l-32 -162h-371l-93 -480h-162l93 480h-371z" />
<glyph unicode="&#x1c3;" horiz-adv-x="604" d="M76 0l30 156h162l-30 -156h-162zM137 312l229 1181h162l-229 -1181h-162z" />
<glyph unicode="&#x1c4;" horiz-adv-x="3065" d="M-32 0l20 106h190l249 1280h-190l21 107h594q386 0 563.5 -197t108.5 -548q-68 -352 -322.5 -550t-639.5 -198h-594zM381 106h186q291 0 479 166t248.5 476t-63 474t-415.5 164h-186zM1589 0l14 72l1182 1298h-772l-43 -223h-123l67 346h1180l-14 -72l-1182 -1298h844 l40 209h122l-64 -332h-1251zM2294 1899h116l171 -162l235 162h116l-283 -264h-176z" />
<glyph unicode="&#x1c5;" horiz-adv-x="2721" d="M-32 0l20 106h190l249 1280h-190l21 107h594q386 0 563.5 -197t108.5 -548q-68 -352 -322.5 -550t-639.5 -198h-594zM381 106h186q291 0 479 166t248.5 476t-63 474t-415.5 164h-186zM1621 0l16 86l728 757q-11 4 -40 13q-34 11 -68 33l-49 30q-94 57 -162 57 q-131 0 -285 -150l24 121q171 168 301 168q79 -2 190 -71t181 -69q108 0 213 88h60l-16 -86l-727 -758q10 -3 39 -12q34 -11 68 -33l49 -30q94 -57 162 -57q131 0 285 150l-24 -121q-171 -168 -301 -168q-79 2 -190 71t-181 69q-108 0 -213 -88h-60zM2091 1638h116l152 -260 l254 260h116l-309 -376h-168z" />
<glyph unicode="&#x1c6;" horiz-adv-x="2390" d="M40 373q0 74 17 159q49 250 203 405t351 155q123 0 197 -47.5t109 -147.5l107 553h-174l21 106h358l-302 -1556h-184l32 166q-74 -100 -166.5 -147.5t-215.5 -47.5q-196 0 -290 155q-63 103 -63 247zM252 353q0 -93 28 -154q50 -113 192 -113q140 0 233 100.5t131 292.5 l20 105q15 78 15 141q0 91 -32 151q-53 101 -193 101q-142 0 -236.5 -112t-137.5 -333q-20 -101 -20 -179zM1290 0l16 86l728 757q-11 4 -40 13q-34 11 -68 33l-49 30q-94 57 -162 57q-131 0 -285 -150l24 121q171 168 301 168q79 -2 190 -71t181 -69q108 0 213 88h60 l-16 -86l-727 -758q10 -3 39 -12q34 -11 68 -33l49 -30q94 -57 162 -57q131 0 285 150l-24 -121q-171 -168 -301 -168q-79 2 -190 71t-181 69q-108 0 -213 -88h-60zM1760 1638h116l152 -260l254 260h116l-309 -376h-168z" />
<glyph unicode="&#x1c7;" horiz-adv-x="2181" d="M-32 0l20 106h190l249 1280h-190l21 107h583l-21 -107h-190l-245 -1263h682l48 250h123l-72 -373h-1198zM1015 -358l45 235h114q-16 -99 18.5 -147.5t122.5 -48.5q119 0 180.5 75t104.5 293l260 1337h-232l21 107h625l-21 -107h-190l-262 -1345q-48 -247 -168.5 -357 t-340.5 -110q-71 0 -141 17t-136 51z" />
<glyph unicode="&#x1c8;" horiz-adv-x="1995" d="M-32 0l20 106h190l249 1280h-190l21 107h583l-21 -107h-190l-245 -1263h682l48 250h123l-72 -373h-1198zM985 -389l43 219h95q-3 -25 -3 -46q0 -62 25 -95q34 -45 116 -45q91 0 146 61.5t81 190.5l206 1060h-174l20 107h358l-226 -1167q-32 -164 -148 -257.5t-287 -93.5 q-72 0 -134 16.5t-118 49.5zM1731 1370q0 11 3 23q8 46 48.5 80t87.5 34q46 0 73 -34q20 -26 20 -58q0 -11 -2 -22q-10 -47 -48.5 -80t-86.5 -33q-47 0 -75 33q-20 25 -20 57z" />
<glyph unicode="&#x1c9;" horiz-adv-x="1290" d="M85 0l282 1450h-177l20 106h361l-282 -1450h174l-20 -106h-358zM280 -389l43 219h95q-3 -25 -3 -46q0 -62 25 -95q34 -45 116 -45q91 0 146 61.5t81 190.5l206 1060h-174l20 107h358l-226 -1167q-32 -164 -148 -257.5t-287 -93.5q-72 0 -134 16.5t-118 49.5zM1026 1370 q0 11 3 23q8 46 48.5 80t87.5 34q46 0 73 -34q20 -26 20 -58q0 -11 -2 -22q-10 -47 -48.5 -80t-86.5 -33q-47 0 -75 33q-20 25 -20 57z" />
<glyph unicode="&#x1ca;" horiz-adv-x="2613" d="M-42 0l20 106h201l249 1280h-201l21 107h383l666 -1178l208 1071h-200l21 107h524l-21 -107h-201l-275 -1415h-121l-711 1258l-219 -1123h201l-20 -106h-525zM1447 -358l45 235h114q-16 -99 18.5 -147.5t122.5 -48.5q119 0 180.5 75t104.5 293l260 1337h-232l21 107h625 l-21 -107h-190l-262 -1345q-48 -247 -168.5 -357t-340.5 -110q-71 0 -141 17t-136 51z" />
<glyph unicode="&#x1cb;" horiz-adv-x="2427" d="M-42 0l20 106h201l249 1280h-201l21 107h383l666 -1178l208 1071h-200l21 107h524l-21 -107h-201l-275 -1415h-121l-711 1258l-219 -1123h201l-20 -106h-525zM1417 -389l43 219h95q-3 -25 -3 -46q0 -62 25 -95q34 -45 116 -45q91 0 146 61.5t81 190.5l206 1060h-174 l20 107h358l-226 -1167q-32 -164 -148 -257.5t-287 -93.5q-72 0 -134 16.5t-118 49.5zM2163 1370q0 11 3 23q8 46 48.5 80t87.5 34q46 0 73 -34q20 -26 20 -58q0 -11 -2 -22q-10 -47 -48.5 -80t-86.5 -33q-47 0 -75 33q-20 25 -20 57z" />
<glyph unicode="&#x1cc;" horiz-adv-x="1954" d="M144 0l186 956h-176l20 107h360l-36 -189q72 108 164 163t200 55q176 0 240 -101q38 -61 38 -163q0 -67 -17 -152l-111 -570h164l-20 -106h-349l120 618q20 103 20 172q0 61 -16 96q-34 72 -155 72q-128 0 -213 -93.5t-120 -272.5l-115 -592h-184zM944 -389l43 219h95 q-3 -25 -3 -46q0 -62 25 -95q34 -45 116 -45q91 0 146 61.5t81 190.5l206 1060h-174l20 107h358l-226 -1167q-32 -164 -148 -257.5t-287 -93.5q-72 0 -134 16.5t-118 49.5zM1690 1370q0 11 3 23q8 46 48.5 80t87.5 34q46 0 73 -34q20 -26 20 -58q0 -11 -2 -22 q-10 -47 -48.5 -80t-86.5 -33q-47 0 -75 33q-20 25 -20 57z" />
<glyph unicode="&#x1cd;" horiz-adv-x="1479" d="M-157 0l20 106h131l802 1387h168l264 -1387h146l-20 -106h-543l20 106h166l-61 328h-628l-189 -328h164l-20 -106h-420zM370 541h548l-136 710zM588 1899h116l171 -162l235 162h116l-283 -264h-176z" />
<glyph unicode="&#x1ce;" horiz-adv-x="1221" d="M69 294q0 51 11 108q68 353 314 535q209 155 462 155q170 0 228 -29l-186 -957h158l-20 -106h-324l32 166q-133 -195 -348 -195q-176 0 -265 119q-62 84 -62 204zM263 300q0 -214 207 -214q126 0 211.5 100.5t123.5 292.5l93 482q0 29 -80 29q-192 0 -341 -150 q-148 -151 -201 -425q-13 -64 -13 -115zM449 1638h116l152 -260l254 260h116l-309 -376h-168z" />
<glyph unicode="&#x1cf;" horiz-adv-x="809" d="M-32 0l20 106h190l249 1280h-190l21 107h583l-21 -107h-190l-249 -1280h190l-20 -106h-583zM316 1899h116l171 -162l235 162h116l-283 -264h-176z" />
<glyph unicode="&#x1d0;" horiz-adv-x="655" d="M147 0l186 956h-176l20 107h360l-186 -957h174l-20 -106h-358zM224 1638h116l152 -260l254 260h116l-309 -376h-168z" />
<glyph unicode="&#x1d1;" horiz-adv-x="1679" d="M107 422q-27 142 8 323t117 323.5t216 254.5q117 98 253 147.5t290 49.5q325 0 483.5 -213t90.5 -562q-35 -179 -118 -322.5t-216 -254.5q-117 -98 -253 -147.5t-289 -49.5q-152 0 -269.5 50t-195.5 147q-90 112 -117 254zM344 745q-64 -330 28 -498.5t338 -168.5 q245 0 403 168.5t222 498.5q64 331 -28 499.5t-337 168.5q-246 0 -404 -168.5t-222 -499.5zM764 1899h116l171 -162l235 162h116l-283 -264h-176z" />
<glyph unicode="&#x1d2;" horiz-adv-x="1233" d="M87 385q0 69 15 147q49 254 219.5 407t403.5 153t344 -153q76 -106 76 -260q0 -69 -15 -147q-49 -254 -219.5 -407.5t-403.5 -153.5q-232 0 -343 153q-77 107 -77 261zM297 348q0 -97 29 -161q53 -117 200 -117q148 0 246.5 117t142.5 345q20 104 20 185q0 96 -28 159 q-53 117 -201 117t-246.5 -116.5t-142.5 -344.5q-20 -104 -20 -184zM519 1638h116l152 -260l254 260h116l-309 -376h-168z" />
<glyph unicode="&#x1d3;" horiz-adv-x="1726" d="M223 1386l21 107h584l-21 -107h-191l-150 -772q-56 -286 16 -399t301 -113t344 113t171 399l150 772h-191l21 107h504l-21 -107h-190l-154 -792q-66 -341 -224.5 -482t-472.5 -141t-420 142t-40 481l154 792h-191zM820 1899h116l171 -162l235 162h116l-283 -264h-176z " />
<glyph unicode="&#x1d4;" horiz-adv-x="1319" d="M140 956l21 107h351l-120 -619q-20 -103 -20 -171q0 -61 16 -95q33 -72 155 -72q128 0 213.5 94t119.5 273l115 590h184l-186 -957h174l-20 -106h-358l36 188q-72 -106 -163.5 -161.5t-198.5 -55.5q-177 0 -241 101q-39 60 -39 163q0 67 17 152l110 569h-166zM494 1638 h116l152 -260l254 260h116l-309 -376h-168z" />
<glyph unicode="&#x1d5;" horiz-adv-x="1726" d="M223 1386l21 107h584l-21 -107h-191l-150 -772q-56 -286 16 -399t301 -113t344 113t171 399l150 772h-191l21 107h504l-21 -107h-190l-154 -792q-66 -341 -224.5 -482t-472.5 -141t-420 142t-40 481l154 792h-191zM787 1736q9 46 50 81q42 35 89 35q48 0 75 -35 q28 -35 19 -81q-10 -50 -50 -83q-40 -34 -90 -34q-49 0 -76 34q-27 33 -17 83zM836 1951l28 148h598l-28 -148h-598zM1176 1736q9 46 50 81q42 35 90 35q47 0 74 -35q28 -35 19 -81q-10 -50 -50 -83q-40 -34 -89 -34q-50 0 -77 34q-27 33 -17 83z" />
<glyph unicode="&#x1d6;" horiz-adv-x="1319" d="M140 956l21 107h351l-120 -619q-20 -103 -20 -171q0 -61 16 -95q33 -72 155 -72q128 0 213.5 94t119.5 273l115 590h184l-186 -957h174l-20 -106h-358l36 188q-72 -106 -163.5 -161.5t-198.5 -55.5q-177 0 -241 101q-39 60 -39 163q0 67 17 152l110 569h-166zM454 1452 q9 46 50 81q42 35 89 35q48 0 75 -35q28 -35 19 -81q-10 -50 -50 -83q-40 -34 -90 -34q-49 0 -76 34q-27 33 -17 83zM503 1667l28 148h598l-28 -148h-598zM843 1452q9 46 50 81q42 35 90 35q47 0 74 -35q28 -35 19 -81q-10 -50 -50 -83q-40 -34 -89 -34q-50 0 -77 34 q-27 33 -17 83z" />
<glyph unicode="&#x1d7;" horiz-adv-x="1726" d="M223 1386l21 107h584l-21 -107h-191l-150 -772q-56 -286 16 -399t301 -113t344 113t171 399l150 772h-191l21 107h504l-21 -107h-190l-154 -792q-66 -341 -224.5 -482t-472.5 -141t-420 142t-40 481l154 792h-191zM787 1736q9 46 50 81q42 35 89 35q48 0 75 -35 q28 -35 19 -81q-10 -50 -50 -83q-40 -34 -90 -34q-49 0 -76 34q-27 33 -17 83zM1057 1874l234 264h197l-314 -264h-117zM1176 1736q9 46 50 81q42 35 90 35q47 0 74 -35q28 -35 19 -81q-10 -50 -50 -83q-40 -34 -89 -34q-50 0 -77 34q-27 33 -17 83z" />
<glyph unicode="&#x1d8;" horiz-adv-x="1319" d="M140 956l21 107h351l-120 -619q-20 -103 -20 -171q0 -61 16 -95q33 -72 155 -72q128 0 213.5 94t119.5 273l115 590h184l-186 -957h174l-20 -106h-358l36 188q-72 -106 -163.5 -161.5t-198.5 -55.5q-177 0 -241 101q-39 60 -39 163q0 67 17 152l110 569h-166zM454 1452 q9 46 50 81q42 35 89 35q48 0 75 -35q28 -35 19 -81q-10 -50 -50 -83q-40 -34 -90 -34q-49 0 -76 34q-27 33 -17 83zM724 1590l234 264h197l-314 -264h-117zM843 1452q9 46 50 81q42 35 90 35q47 0 74 -35q28 -35 19 -81q-10 -50 -50 -83q-40 -34 -89 -34q-50 0 -77 34 q-27 33 -17 83z" />
<glyph unicode="&#x1d9;" horiz-adv-x="1726" d="M223 1386l21 107h584l-21 -107h-191l-150 -772q-56 -286 16 -399t301 -113t344 113t171 399l150 772h-191l21 107h504l-21 -107h-190l-154 -792q-66 -341 -224.5 -482t-472.5 -141t-420 142t-40 481l154 792h-191zM787 1736q9 46 50 81q42 35 89 35q48 0 75 -35 q28 -35 19 -81q-10 -50 -50 -83q-40 -34 -90 -34q-49 0 -76 34q-27 33 -17 83zM848 2136h116l171 -162l235 162h116l-283 -264h-176zM1176 1736q9 46 50 81q42 35 90 35q47 0 74 -35q28 -35 19 -81q-10 -50 -50 -83q-40 -34 -89 -34q-50 0 -77 34q-27 33 -17 83z" />
<glyph unicode="&#x1da;" horiz-adv-x="1319" d="M140 956l21 107h351l-120 -619q-20 -103 -20 -171q0 -61 16 -95q33 -72 155 -72q128 0 213.5 94t119.5 273l115 590h184l-186 -957h174l-20 -106h-358l36 188q-72 -106 -163.5 -161.5t-198.5 -55.5q-177 0 -241 101q-39 60 -39 163q0 67 17 152l110 569h-166zM454 1452 q9 46 50 81q42 35 89 35q48 0 75 -35q28 -35 19 -81q-10 -50 -50 -83q-40 -34 -90 -34q-49 0 -76 34q-27 33 -17 83zM515 1852h116l171 -162l235 162h116l-283 -264h-176zM843 1452q9 46 50 81q42 35 90 35q47 0 74 -35q28 -35 19 -81q-10 -50 -50 -83q-40 -34 -89 -34 q-50 0 -77 34q-27 33 -17 83z" />
<glyph unicode="&#x1db;" horiz-adv-x="1726" d="M223 1386l21 107h584l-21 -107h-191l-150 -772q-56 -286 16 -399t301 -113t344 113t171 399l150 772h-191l21 107h504l-21 -107h-190l-154 -792q-66 -341 -224.5 -482t-472.5 -141t-420 142t-40 481l154 792h-191zM787 1736q9 46 50 81q42 35 89 35q48 0 75 -35 q28 -35 19 -81q-10 -50 -50 -83q-40 -34 -90 -34q-49 0 -76 34q-27 33 -17 83zM864 2138h196l131 -264h-117zM1176 1736q9 46 50 81q42 35 90 35q47 0 74 -35q28 -35 19 -81q-10 -50 -50 -83q-40 -34 -89 -34q-50 0 -77 34q-27 33 -17 83z" />
<glyph unicode="&#x1dc;" horiz-adv-x="1319" d="M140 956l21 107h351l-120 -619q-20 -103 -20 -171q0 -61 16 -95q33 -72 155 -72q128 0 213.5 94t119.5 273l115 590h184l-186 -957h174l-20 -106h-358l36 188q-72 -106 -163.5 -161.5t-198.5 -55.5q-177 0 -241 101q-39 60 -39 163q0 67 17 152l110 569h-166zM454 1452 q9 46 50 81q42 35 89 35q48 0 75 -35q28 -35 19 -81q-10 -50 -50 -83q-40 -34 -90 -34q-49 0 -76 34q-27 33 -17 83zM531 1854h196l131 -264h-117zM843 1452q9 46 50 81q42 35 90 35q47 0 74 -35q28 -35 19 -81q-10 -50 -50 -83q-40 -34 -89 -34q-50 0 -77 34q-27 33 -17 83 z" />
<glyph unicode="&#x1dd;" horiz-adv-x="1212" d="M106 551h793l1 8q42 215 -17 325q-60 109 -218 109q-121 0 -212 -63q-89 -64 -144 -189h-148q78 175 213 263q136 88 329 88q233 0 344 -154q112 -153 63 -407q-49 -252 -218 -406t-395 -154q-241 0 -341 149q-100 148 -50 431zM302 445q-30 -186 25 -281q53 -94 189 -94 q127 0 218.5 95t143.5 280h-576z" />
<glyph unicode="&#x1de;" horiz-adv-x="1479" d="M-157 0l20 106h131l802 1387h168l264 -1387h146l-20 -106h-543l20 106h166l-61 328h-628l-189 -328h164l-20 -106h-420zM370 541h548l-136 710zM620 1736q9 46 50 81q42 35 89 35q48 0 75 -35q28 -35 19 -81q-10 -50 -50 -83q-40 -34 -90 -34q-49 0 -76 34q-27 33 -17 83 zM669 1951l28 148h598l-28 -148h-598zM1009 1736q9 46 50 81q42 35 90 35q47 0 74 -35q28 -35 19 -81q-10 -50 -50 -83q-40 -34 -89 -34q-50 0 -77 34q-27 33 -17 83z" />
<glyph unicode="&#x1df;" horiz-adv-x="1221" d="M69 294q0 51 11 108q68 353 314 535q209 155 462 155q170 0 228 -29l-186 -957h158l-20 -106h-324l32 166q-133 -195 -348 -195q-176 0 -265 119q-62 84 -62 204zM263 300q0 -214 207 -214q126 0 211.5 100.5t123.5 292.5l93 482q0 29 -80 29q-192 0 -341 -150 q-148 -151 -201 -425q-13 -64 -13 -115zM437 1452q9 46 50 81q42 35 89 35q48 0 75 -35q28 -35 19 -81q-10 -50 -50 -83q-40 -34 -90 -34q-49 0 -76 34q-27 33 -17 83zM486 1667l28 148h598l-28 -148h-598zM826 1452q9 46 50 81q42 35 90 35q47 0 74 -35q28 -35 19 -81 q-10 -50 -50 -83q-40 -34 -89 -34q-50 0 -77 34q-27 33 -17 83z" />
<glyph unicode="&#x1e0;" horiz-adv-x="1479" d="M-157 0l20 106h131l802 1387h168l264 -1387h146l-20 -106h-543l20 106h166l-61 328h-628l-189 -328h164l-20 -106h-420zM370 541h548l-136 710zM650 1951l28 148h598l-28 -148h-598zM813 1733q9 46 51 81t89 35t75 -35t19 -81q-10 -50 -50 -83q-40 -34 -90 -34t-77 34 q-27 33 -17 83z" />
<glyph unicode="&#x1e1;" horiz-adv-x="1221" d="M69 294q0 51 11 108q68 353 314 535q209 155 462 155q170 0 228 -29l-186 -957h158l-20 -106h-324l32 166q-133 -195 -348 -195q-176 0 -265 119q-62 84 -62 204zM263 300q0 -214 207 -214q126 0 211.5 100.5t123.5 292.5l93 482q0 29 -80 29q-192 0 -341 -150 q-148 -151 -201 -425q-13 -64 -13 -115zM467 1670l28 148h598l-28 -148h-598zM630 1452q9 46 51 81t89 35t75 -35t19 -81q-10 -50 -50 -83q-40 -34 -90 -34t-77 34q-27 33 -17 83z" />
<glyph unicode="&#x1e2;" horiz-adv-x="2050" d="M-180 0l20 106h131l839 1280h-215l21 107h1456l-64 -332h-123l40 209h-688l-97 -500h492l36 187h123l-96 -496h-123l36 187h-492l-121 -625h705l40 209h123l-64 -332h-1219l20 106h190l64 328h-538l-216 -328h164l-20 -106h-424zM386 541h489l164 845h-100zM1116 1693 l28 148h598l-28 -148h-598z" />
<glyph unicode="&#x1e3;" horiz-adv-x="1925" d="M69 294q0 51 11 108q68 353 314 535q209 155 462 155q170 0 228 -29l-19 -97q159 126 377 126q391 0 391 -277q0 -399 -820 -407q-4 -38 -4 -72q0 -94 34 -156q59 -110 217 -110q116 0 173 35q102 63 126 144h135q-40 -127 -189 -216q-104 -62 -310 -62q-238 0 -344 196 q-144 -196 -441 -196h-14q-176 0 -265 119q-62 84 -62 204zM263 297q0 -211 207 -211q126 0 211.5 100.5t123.5 292.5l93 482q0 29 -80 29q-192 0 -341 -150q-148 -151 -201 -425q-13 -65 -13 -118zM789 1378l28 148h598l-28 -148h-598zM1034 514q317 14 492 118 q112 66 112 190q0 171 -227 171q-134 0 -227 -102t-150 -377z" />
<glyph unicode="&#x1e4;" horiz-adv-x="1736" d="M95 550q0 91 20 195q69 354 314 564.5t590 210.5q128 0 258.5 -29.5t272.5 -89.5l-68 -354h-112q1 187 -92.5 276.5t-291.5 89.5q-258 0 -417.5 -166t-224.5 -502q-25 -130 -25 -235q0 -161 59 -263q98 -169 352 -169q113 0 221.5 28t212.5 84l25 130h-444l21 107h444 l29 148h-281l21 107h484l-50 -255h201l-21 -107h-201l-38 -195q-148 -77 -309 -115.5t-336 -38.5q-338 0 -500 211q-114 149 -114 368z" />
<glyph unicode="&#x1e5;" horiz-adv-x="1311" d="M72 -379l44 223h96q-3 -104 55 -152t183 -48q161 0 255 92q93 91 131 287l28 143q-73 -100 -166 -147.5t-210 -47.5q-176 0 -265 119q-56 75 -62 179q-4 61 10 133q69 353 314 535q209 154 453 155q224 1 285 -29l-93 -477h173l-21 -107h-173l-89 -456 q-46 -238 -194 -353q-161 -125 -384 -125q-105 0 -197 19t-173 57zM356 273q4 -62 29 -104q49 -83 177 -83q140 0 233 100.5t130 292.5h-244l21 107h244l73 370q-1 34 -109 34q-195 0 -342 -150q-147 -151 -201 -425q-15 -81 -11 -142z" />
<glyph unicode="&#x1e6;" horiz-adv-x="1636" d="M115 745q69 354 314 564.5t590 210.5q128 0 258.5 -29.5t272.5 -89.5l-68 -354h-112q1 187 -92.5 276.5t-291.5 89.5q-258 0 -417.5 -166t-224.5 -502q-64 -329 34 -498t352 -169q113 0 221.5 28t212.5 84l75 385h-281l21 107h484l-109 -557q-148 -77 -309 -115.5 t-336 -38.5q-338 0 -500 211.5t-94 562.5zM760 1899h116l171 -162l235 162h116l-283 -264h-176z" />
<glyph unicode="&#x1e7;" horiz-adv-x="1311" d="M72 -379l44 223h96q-3 -104 55 -152t183 -48q162 0 255 92q93 90 131 287l28 143q-73 -100 -166 -147.5t-210 -47.5q-176 0 -265 119q-56 75 -62 179q-4 61 10 133q69 353 314 535q209 154 453 155q224 1 285 -29l-203 -1040q-46 -238 -194 -353q-161 -125 -384 -125 q-105 0 -197 19t-173 57zM356 273q4 -62 29 -104q49 -83 177 -83q140 0 233 100.5t130 292.5l20 105l74 372q-1 34 -109 34q-195 0 -342 -150q-147 -151 -201 -425q-15 -81 -11 -142zM545 1638h116l152 -260l254 260h116l-309 -376h-168z" />
<glyph unicode="&#x1e8;" horiz-adv-x="1530" d="M-32 0l20 106h190l249 1280h-190l21 107h583l-21 -107h-190l-110 -565l753 565h-162l21 107h496l-21 -107h-168l-750 -563l577 -717h170l-20 -106h-347l-570 709l-118 -603h190l-20 -106h-583zM736 1899h116l171 -162l235 162h116l-283 -264h-176z" />
<glyph unicode="&#x1e9;" horiz-adv-x="1241" d="M85 0l282 1450h-177l20 106h361l-197 -1013l529 413h-153l20 107h299l-20 -107l-373 -292l295 -558h153l-20 -106h-295l-290 543l-171 -135l-79 -408h-184zM240 1975h116l171 -162l235 162h116l-283 -264h-176z" />
<glyph unicode="&#x1ea;" horiz-adv-x="1679" d="M107 422q-27 142 8 323t117 323.5t216 254.5q117 98 253 147.5t290 49.5q325 0 483.5 -213t90.5 -562q-35 -179 -118 -322.5t-216 -254.5q-117 -98 -253 -147.5t-289 -49.5q-152 0 -269.5 50t-195.5 147q-90 112 -117 254zM344 745q-64 -330 28 -498.5t338 -168.5 q245 0 403 168.5t222 498.5q64 331 -28 499.5t-337 168.5q-246 0 -404 -168.5t-222 -499.5zM484 -239q9 49 49.5 101.5t122.5 121.5h94l-1 -2q-111 -123 -120 -170q-9 -46 19 -74t84 -28q27 0 57 6.5t63 19.5l-26 -127q-37 -9 -71.5 -13.5t-66.5 -4.5q-113 0 -166.5 44.5 t-37.5 125.5z" />
<glyph unicode="&#x1eb;" horiz-adv-x="1233" d="M87 385q0 69 15 147q49 254 219.5 407t403.5 153t344 -153q76 -106 76 -260q0 -69 -15 -147q-49 -254 -219.5 -407.5t-403.5 -153.5q-232 0 -343 153q-77 107 -77 261zM295 -239q9 49 49.5 101.5t122.5 121.5h94l-1 -2q-111 -123 -120 -170q-9 -46 19 -74t84 -28 q27 0 57 6.5t63 19.5l-26 -127q-37 -9 -71.5 -13.5t-66.5 -4.5q-113 0 -166.5 44.5t-37.5 125.5zM297 348q0 -97 29 -161q53 -117 200 -117q148 0 246.5 117t142.5 345q20 104 20 185q0 96 -28 159q-53 117 -201 117t-246.5 -116.5t-142.5 -344.5q-20 -104 -20 -184z" />
<glyph unicode="&#x1ec;" horiz-adv-x="1679" d="M107 422q-27 142 8 323t117 323.5t216 254.5q117 98 253 147.5t290 49.5q325 0 483.5 -213t90.5 -562q-35 -179 -118 -322.5t-216 -254.5q-117 -98 -253 -147.5t-289 -49.5q-152 0 -269.5 50t-195.5 147q-90 112 -117 254zM344 745q-64 -330 28 -498.5t338 -168.5 q245 0 403 168.5t222 498.5q64 331 -28 499.5t-337 168.5q-246 0 -404 -168.5t-222 -499.5zM484 -239q9 49 49.5 101.5t122.5 121.5h94l-1 -2q-111 -123 -120 -170q-9 -46 19 -74t84 -28q27 0 57 6.5t63 19.5l-26 -127q-37 -9 -71.5 -13.5t-66.5 -4.5q-113 0 -166.5 44.5 t-37.5 125.5zM696 1694l28 148h598l-28 -148h-598z" />
<glyph unicode="&#x1ed;" horiz-adv-x="1233" d="M87 385q0 69 15 147q49 254 219.5 407t403.5 153t344 -153q76 -106 76 -260q0 -69 -15 -147q-49 -254 -219.5 -407.5t-403.5 -153.5q-232 0 -343 153q-77 107 -77 261zM295 -239q9 49 49.5 101.5t122.5 121.5h94l-1 -2q-111 -123 -120 -170q-9 -46 19 -74t84 -28 q27 0 57 6.5t63 19.5l-26 -127q-37 -9 -71.5 -13.5t-66.5 -4.5q-113 0 -166.5 44.5t-37.5 125.5zM297 348q0 -97 29 -161q53 -117 200 -117q148 0 246.5 117t142.5 345q20 104 20 185q0 96 -28 159q-53 117 -201 117t-246.5 -116.5t-142.5 -344.5q-20 -104 -20 -184z M472 1378l28 148h598l-28 -148h-598z" />
<glyph unicode="&#x1ee;" horiz-adv-x="1156" d="M-24 84l63 324h112q-21 -161 49.5 -244t228.5 -83q153 0 262 100q107 99 141 271q38 197 -33 299q-72 101 -248 101h-95l20 102l425 416h-527l-43 -223h-123l67 346h873l-24 -125l-456 -445l78 -7q178 -29 257 -150q77 -120 40 -312q-46 -234 -211 -359 q-164 -124 -428 -124q-117 0 -222 28q-107 28 -206 85zM514 1899h116l171 -162l235 162h116l-283 -264h-176z" />
<glyph unicode="&#x1ef;" horiz-adv-x="1156" d="M-24 -345l63 324h112q-21 -161 50 -244t229 -83q153 0 261 100q107 99 141 271q38 197 -33 299q-72 101 -248 101h-95l20 102l414 431h-527l-36 -184h-106l57 291h870l-17 -86l-463 -483l78 -7q178 -29 257 -150q77 -120 40 -312q-45 -234 -211 -359q-164 -124 -428 -124 q-117 0 -222 28q-107 28 -206 85zM449 1638h116l152 -260l254 260h116l-309 -376h-168z" />
<glyph unicode="&#x1f0;" horiz-adv-x="655" d="M-332 -389l43 219h95q-12 -96 22 -141t116 -45q91 0 146.5 61.5t80.5 190.5l206 1060h-174l21 107h358l-227 -1167q-32 -164 -148 -257.5t-287 -93.5q-72 0 -134 16.5t-118 49.5zM266 1638h116l152 -260l254 260h116l-309 -376h-168z" />
<glyph unicode="&#x1f1;" horiz-adv-x="3065" d="M-32 0l20 106h190l249 1280h-190l21 107h594q386 0 563.5 -197t108.5 -548q-68 -352 -322.5 -550t-639.5 -198h-594zM381 106h186q291 0 479 166t248.5 476t-63 474t-415.5 164h-186zM1589 0l14 72l1182 1298h-772l-43 -223h-123l67 346h1180l-14 -72l-1182 -1298h844 l40 209h122l-64 -332h-1251z" />
<glyph unicode="&#x1f2;" horiz-adv-x="2721" d="M-32 0l20 106h190l249 1280h-190l21 107h594q386 0 563.5 -197t108.5 -548q-68 -352 -322.5 -550t-639.5 -198h-594zM381 106h186q291 0 479 166t248.5 476t-63 474t-415.5 164h-186zM1621 0l16 86l728 757q-11 4 -40 13q-34 11 -68 33l-49 30q-94 57 -162 57 q-131 0 -285 -150l24 121q171 168 301 168q79 -2 190 -71t181 -69q108 0 213 88h60l-16 -86l-727 -758q10 -3 39 -12q34 -11 68 -33l49 -30q94 -57 162 -57q131 0 285 150l-24 -121q-171 -168 -301 -168q-79 2 -190 71t-181 69q-108 0 -213 -88h-60z" />
<glyph unicode="&#x1f3;" horiz-adv-x="2390" d="M40 373q0 74 17 159q49 250 203 405t351 155q123 0 197 -47.5t109 -147.5l107 553h-174l21 106h358l-302 -1556h-184l32 166q-74 -100 -166.5 -147.5t-215.5 -47.5q-196 0 -290 155q-63 103 -63 247zM252 353q0 -93 28 -154q50 -113 192 -113q140 0 233 100.5t131 292.5 l20 105q15 78 15 141q0 91 -32 151q-53 101 -193 101q-142 0 -236.5 -112t-137.5 -333q-20 -101 -20 -179zM1290 0l16 86l728 757q-11 4 -40 13q-34 11 -68 33l-49 30q-94 57 -162 57q-131 0 -285 -150l24 121q171 168 301 168q79 -2 190 -71t181 -69q108 0 213 88h60 l-16 -86l-727 -758q10 -3 39 -12q34 -11 68 -33l49 -30q94 -57 162 -57q131 0 285 150l-24 -121q-171 -168 -301 -168q-79 2 -190 71t-181 69q-108 0 -213 -88h-60z" />
<glyph unicode="&#x1f4;" horiz-adv-x="1636" d="M115 745q69 354 314 564.5t590 210.5q128 0 258.5 -29.5t272.5 -89.5l-68 -354h-112q1 187 -92.5 276.5t-291.5 89.5q-258 0 -417.5 -166t-224.5 -502q-64 -329 34 -498t352 -169q113 0 221.5 28t212.5 84l75 385h-281l21 107h484l-109 -557q-148 -77 -309 -115.5 t-336 -38.5q-338 0 -500 211.5t-94 562.5zM911 1636l234 264h197l-314 -264h-117z" />
<glyph unicode="&#x1f5;" horiz-adv-x="1311" d="M72 -379l44 223h96q-3 -104 55 -152t183 -48q162 0 255 92q93 90 131 287l28 143q-73 -100 -166 -147.5t-210 -47.5q-176 0 -265 119q-56 75 -62 179q-4 61 10 133q69 353 314 535q209 154 453 155q224 1 285 -29l-203 -1040q-46 -238 -194 -353q-161 -125 -384 -125 q-105 0 -197 19t-173 57zM356 273q4 -62 29 -104q49 -83 177 -83q140 0 233 100.5t130 292.5l20 105l74 372q-1 34 -109 34q-195 0 -342 -150q-147 -151 -201 -425q-15 -81 -11 -142zM618 1262l332 376h199l-414 -376h-117z" />
<glyph unicode="&#x1f6;" horiz-adv-x="2363" d="M-29 0l20 106h190l249 1280h-190l21 107h583l-21 -107h-190l-100 -516h774l100 516h-190l21 107h583l-21 -107h-190l-150 -772q-56 -286 16 -399t202 -113q144 0 236 113q96 118 151 399l66 341h-174l21 108h358l-91 -469q-66 -341 -226 -482q-157 -141 -357 -141 q-261 0 -368 142t-41 481l30 154h-774l-125 -642h190l-20 -106h-583z" />
<glyph unicode="&#x1f7;" horiz-adv-x="1447" d="M-76 -426l20 106h190l332 1706h-190l21 107h393l-36 -185q206 212 505 212q198 0 258 -121t28 -285q-94 -485 -1015 -958l-93 -476h231l-20 -106h-624zM454 281q707 430 785 833q28 143 -17.5 221t-174.5 78q-187 0 -423 -257z" />
<glyph unicode="&#x1f8;" horiz-adv-x="1792" d="M-42 0l20 106h201l249 1280h-201l21 107h383l666 -1178l208 1071h-200l21 107h524l-21 -107h-201l-275 -1415h-121l-711 1258l-219 -1123h201l-20 -106h-525zM830 1899h196l131 -264h-117z" />
<glyph unicode="&#x1f9;" horiz-adv-x="1319" d="M143 0l186 956h-176l20 107h360l-36 -189q72 108 164 163t200 55q176 0 240 -101q38 -61 38 -163q0 -67 -17 -152l-111 -570h164l-20 -106h-349l120 618q20 103 20 172q0 61 -16 96q-34 72 -155 72q-128 0 -213 -93.5t-120 -272.5l-115 -592h-184zM461 1636h197l186 -376 h-117z" />
<glyph unicode="&#x1fa;" horiz-adv-x="1479" d="M-197 0l21 106h131l661 1143q-31 29 -46 66q-26 61 -10 144q22 114 118 195q75 63 162 76l173 169h197l-245 -176q60 -19 101 -69q65 -81 43 -195q-16 -80 -67 -143q-31 -38 -71 -66l217 -1144h147l-21 -106h-543l21 106h166l-61 328h-628l-189 -328h164l-21 -106h-420z M331 541h548l-127 665l-34 2zM683 1459q-12 -63 23 -107t99 -44q63 0 116 44t65 107t-23.5 107.5t-98.5 44.5q-64 0 -116 -43.5t-65 -108.5z" />
<glyph unicode="&#x1fb;" horiz-adv-x="1221" d="M68 269q-3 61 11 133q68 353 314 535q209 154 453 155q177 1 237 -29l-186 -957h158l-20 -106h-324l32 166q-68 -100 -152 -148q-85 -47 -196 -47q-176 0 -265 119q-56 75 -62 179zM263 273q5 -62 29 -104q49 -83 177 -83q126 0 211.5 100.5t123.5 292.5l93 482 q1 29 -80 29q-192 0 -341 -150q-148 -151 -201 -425q-16 -81 -12 -142zM500 1459q22 115 117 195q86 71 187 78l148 167h197l-221 -185q46 -20 78 -60q64 -80 42 -195t-117 -195t-210 -80t-179 80t-42 195zM622 1459q-13 -65 22 -108.5t100 -43.5q64 0 117 44t65 108 q12 63 -23.5 107t-99.5 44q-65 0 -117 -43.5t-64 -107.5zM711 0z" />
<glyph unicode="&#x1fc;" horiz-adv-x="2050" d="M-180 0l20 106h131l839 1280h-215l21 107h1456l-64 -332h-123l40 209h-688l-97 -500h492l36 187h123l-96 -496h-123l36 187h-492l-121 -625h705l40 209h123l-64 -332h-1219l20 106h190l64 328h-538l-216 -328h164l-20 -106h-424zM386 541h489l164 845h-100zM1247 1636 l234 264h197l-314 -264h-117z" />
<glyph unicode="&#x1fd;" horiz-adv-x="1925" d="M69 294q0 51 11 108q68 353 314 535q209 155 462 155q170 0 228 -29l-19 -97q159 126 377 126q391 0 391 -277q0 -399 -820 -407q-4 -38 -4 -72q0 -94 34 -156q59 -110 217 -110q116 0 173 35q102 63 126 144h135q-40 -127 -189 -216q-104 -62 -310 -62q-238 0 -344 196 q-144 -196 -441 -196h-14q-176 0 -265 119q-62 84 -62 204zM263 297q0 -211 207 -211q126 0 211.5 100.5t123.5 292.5l93 482q0 29 -80 29q-192 0 -341 -150q-148 -151 -201 -425q-13 -65 -13 -118zM941 1267l332 376h199l-414 -376h-117zM1034 514q317 14 492 118 q112 66 112 190q0 171 -227 171q-134 0 -227 -102t-150 -377z" />
<glyph unicode="&#x1fe;" horiz-adv-x="1679" d="M-42 12l227 207q-66 105 -83 235.5t14 290.5q67 346 309.5 560.5t565.5 214.5q141 0 253 -42.5t192 -125.5l216 198l66 -71l-223 -203q66 -108 84 -239.5t-13 -291.5q-67 -345 -309.5 -559.5t-566.5 -214.5q-141 0 -251.5 43t-194.5 129l-221 -200zM319 529.5 q-3 -96.5 15 -177.5l977 887q-48 88 -132 131t-208 43q-246 0 -404 -168.5t-222 -499.5q-23 -119 -26 -215.5zM369 256q46 -89 131.5 -133.5t210.5 -44.5q245 0 403 168.5t222 498.5q22 117 25 215.5t-15 180.5zM883 1636l234 264h197l-314 -264h-117z" />
<glyph unicode="&#x1ff;" horiz-adv-x="1233" d="M-33 -31l183 178q-46 77 -58 173.5t10 211.5q49 254 219.5 407t403.5 153q94 0 169 -25.5t129 -75.5l172 166l63 -63l-178 -172q48 -74 60.5 -173t-10.5 -217q-49 -254 -219.5 -407.5t-403.5 -153.5q-94 0 -169 26.5t-131 80.5l-177 -172zM299 401q-4 -59 1 -108l608 586 q-27 57 -77.5 85.5t-124.5 28.5q-147 0 -246 -117t-143 -344q-14 -72 -18 -131zM325 190q28 -61 77.5 -90.5t123.5 -29.5q147 0 246 117.5t143 344.5q15 76 19 136.5t-1 111.5zM630 1262l332 376h199l-414 -376h-117z" />
<glyph unicode="&#x200;" horiz-adv-x="1479" d="M-157 0l20 106h131l802 1387h168l264 -1387h146l-20 -106h-543l20 106h166l-61 328h-628l-189 -328h164l-20 -106h-420zM370 541h548l-136 710zM540 1899h197l130 -264h-117zM857 1899h197l130 -264h-117z" />
<glyph unicode="&#x201;" horiz-adv-x="1221" d="M68 294q0 51 11 108q68 353 314 535q209 155 462 155q170 0 228 -29l-186 -957h158l-20 -106h-324l32 166q-133 -195 -348 -195q-176 0 -265 119q-62 84 -62 204zM262 300q0 -214 207 -214q126 0 211.5 100.5t123.5 292.5l93 482q0 29 -80 29q-192 0 -341 -150 q-148 -151 -201 -425q-13 -64 -13 -115zM314 1638h178l226 -376h-116zM652 1638h170l189 -376h-114z" />
<glyph unicode="&#x202;" horiz-adv-x="1479" d="M-157 0l20 106h131l802 1387h168l264 -1387h146l-20 -106h-543l20 106h166l-61 328h-628l-189 -328h164l-20 -106h-420zM370 541h548l-136 710zM618 1694q38 143 131 215t238 72t210 -72t47 -215h-96q2 79 -43 114q-45 36 -145 36t-159 -36q-59 -35 -87 -114h-96z" />
<glyph unicode="&#x203;" horiz-adv-x="1221" d="M68 294q0 51 11 108q68 353 314 535q209 155 462 155q170 0 228 -29l-186 -957h158l-20 -106h-324l32 166q-133 -195 -348 -195q-176 0 -265 119q-62 84 -62 204zM262 300q0 -214 207 -214q126 0 211.5 100.5t123.5 292.5l93 482q0 29 -80 29q-192 0 -341 -150 q-148 -151 -201 -425q-13 -64 -13 -115zM417 1321q38 143 131 215t238 72t210 -72t47 -215h-96q2 79 -43 114q-45 36 -145 36t-159 -36q-59 -35 -87 -114h-96z" />
<glyph unicode="&#x204;" horiz-adv-x="1495" d="M-32 0l20 106h190l249 1280h-190l21 107h1202l-64 -332h-123l40 209h-686l-97 -500h489l36 187h123l-96 -496h-123l36 187h-489l-121 -625h702l40 209h123l-64 -332h-1218zM546 1899h197l130 -264h-117zM863 1899h197l130 -264h-117z" />
<glyph unicode="&#x205;" horiz-adv-x="1212" d="M86 386q0 68 15 145q49 253 218 407t409 154q391 0 391 -277q0 -203 -205 -302q-209 -101 -615 -105q-4 -38 -4 -72q0 -94 34 -156q59 -110 217 -110q116 0 173 35q102 63 126 144h135q-40 -127 -189 -216q-104 -62 -310 -62t-317 153q-78 107 -78 262zM320 514 q321 15 492 118q112 66 112 190q0 171 -227 171q-134 0 -227 -102t-150 -377zM351 1638h178l226 -376h-116zM689 1638h170l189 -376h-114z" />
<glyph unicode="&#x206;" horiz-adv-x="1495" d="M-32 0l20 106h190l249 1280h-190l21 107h1202l-64 -332h-123l40 209h-686l-97 -500h489l36 187h123l-96 -496h-123l36 187h-489l-121 -625h702l40 209h123l-64 -332h-1218zM627 1694q38 143 131 215t238 72t210 -72t47 -215h-96q2 79 -43 114q-45 36 -145 36t-159 -36 q-59 -35 -87 -114h-96z" />
<glyph unicode="&#x207;" horiz-adv-x="1212" d="M86 386q0 68 15 145q49 253 218 407t409 154q391 0 391 -277q0 -203 -205 -302q-209 -101 -615 -105q-4 -38 -4 -72q0 -94 34 -156q59 -110 217 -110q116 0 173 35q102 63 126 144h135q-40 -127 -189 -216q-104 -62 -310 -62t-317 153q-78 107 -78 262zM320 514 q321 15 492 118q112 66 112 190q0 171 -227 171q-134 0 -227 -102t-150 -377zM454 1321q38 143 131 215t238 72t210 -72t47 -215h-96q2 79 -43 114q-45 36 -145 36t-159 -36q-59 -35 -87 -114h-96z" />
<glyph unicode="&#x208;" horiz-adv-x="809" d="M-32 0l20 106h190l249 1280h-190l21 107h583l-21 -107h-190l-249 -1280h190l-20 -106h-583zM225 1899h197l130 -264h-117zM542 1899h197l130 -264h-117z" />
<glyph unicode="&#x209;" horiz-adv-x="655" d="M30 1636h178l226 -376h-116zM98 0l186 956h-176l20 107h360l-186 -957h174l-20 -106h-358zM368 1636h170l189 -376h-114z" />
<glyph unicode="&#x20a;" horiz-adv-x="809" d="M-32 0l20 106h190l249 1280h-190l21 107h583l-21 -107h-190l-249 -1280h190l-20 -106h-583zM291 1694q38 143 131 215t238 72t210 -72t47 -215h-96q2 79 -43 114q-45 36 -145 36t-159 -36q-59 -35 -87 -114h-96z" />
<glyph unicode="&#x20b;" horiz-adv-x="655" d="M98 0l186 956h-176l20 107h360l-186 -957h174l-20 -106h-358zM122 1263q38 143 131 215t238 72t210 -72t47 -215h-96q2 79 -43 114q-45 36 -145 36t-159 -36q-59 -35 -87 -114h-96z" />
<glyph unicode="&#x20c;" horiz-adv-x="1679" d="M106 422q-27 142 8 323t117 323.5t216 254.5q117 98 253 147.5t290 49.5q325 0 483.5 -213t90.5 -562q-35 -179 -118 -322.5t-216 -254.5q-117 -98 -253 -147.5t-289 -49.5q-152 0 -269.5 50t-195.5 147q-90 112 -117 254zM343 745q-64 -330 28 -498.5t338 -168.5 q245 0 403 168.5t222 498.5q64 331 -28 499.5t-337 168.5q-246 0 -404 -168.5t-222 -499.5zM645 1899h197l130 -264h-117zM962 1899h197l130 -264h-117z" />
<glyph unicode="&#x20d;" horiz-adv-x="1233" d="M86 385q0 69 15 147q49 254 219.5 407t403.5 153t344 -153q76 -106 76 -260q0 -69 -15 -147q-49 -254 -219.5 -407.5t-403.5 -153.5q-232 0 -343 153q-77 107 -77 261zM296 348q0 -97 29 -161q53 -117 200 -117q148 0 246.5 117t142.5 345q20 104 20 185q0 96 -28 159 q-53 117 -201 117t-246.5 -116.5t-142.5 -344.5q-20 -104 -20 -184zM361 1638h178l226 -376h-116zM699 1638h170l189 -376h-114z" />
<glyph unicode="&#x20e;" horiz-adv-x="1679" d="M106 422q-27 142 8 323t117 323.5t216 254.5q117 98 253 147.5t290 49.5q325 0 483.5 -213t90.5 -562q-35 -179 -118 -322.5t-216 -254.5q-117 -98 -253 -147.5t-289 -49.5q-152 0 -269.5 50t-195.5 147q-90 112 -117 254zM343 745q-64 -330 28 -498.5t338 -168.5 q245 0 403 168.5t222 498.5q64 331 -28 499.5t-337 168.5q-246 0 -404 -168.5t-222 -499.5zM719 1694q38 143 131 215t238 72t210 -72t47 -215h-96q2 79 -43 114q-45 36 -145 36t-159 -36q-59 -35 -87 -114h-96z" />
<glyph unicode="&#x20f;" horiz-adv-x="1233" d="M86 385q0 69 15 147q49 254 219.5 407t403.5 153t344 -153q76 -106 76 -260q0 -69 -15 -147q-49 -254 -219.5 -407.5t-403.5 -153.5q-232 0 -343 153q-77 107 -77 261zM296 348q0 -97 29 -161q53 -117 200 -117q148 0 246.5 117t142.5 345q20 104 20 185q0 96 -28 159 q-53 117 -201 117t-246.5 -116.5t-142.5 -344.5q-20 -104 -20 -184zM464 1321q38 143 131 215t238 72t210 -72t47 -215h-96q2 79 -43 114q-45 36 -145 36t-159 -36q-59 -35 -87 -114h-96z" />
<glyph unicode="&#x210;" horiz-adv-x="1542" d="M-32 0l20 106h190l249 1280h-190l21 107h757q218 0 316.5 -104t61.5 -295q-30 -154 -134 -242.5t-279 -110.5q66 -19 108 -64.5t66 -127.5l130 -443h182l-20 -106h-352l-141 475q-40 138 -88 178.5t-146 40.5h-223l-115 -588h211l-20 -106h-604zM517 801h295 q151 0 236.5 71.5t115 221.5t-29 221t-209.5 71h-295zM540 1899h197l130 -264h-117zM857 1899h197l130 -264h-117z" />
<glyph unicode="&#x211;" horiz-adv-x="979" d="M143 0l186 958h-176l20 105h360l-36 -189q75 111 170.5 164.5t217.5 53.5q45 0 93 -7t101 -20l-52 -266h-106q3 20 3 37q0 52 -24 81q-31 39 -106 39q-136 0 -227 -94t-125 -270l-115 -592h-184zM309 1638h178l226 -376h-116zM647 1638h170l189 -376h-114z" />
<glyph unicode="&#x212;" horiz-adv-x="1542" d="M-32 0l20 106h190l249 1280h-190l21 107h757q218 0 316.5 -104t61.5 -295q-30 -154 -134 -242.5t-279 -110.5q66 -19 108 -64.5t66 -127.5l130 -443h182l-20 -106h-352l-141 475q-40 138 -88 178.5t-146 40.5h-223l-115 -588h211l-20 -106h-604zM517 801h295 q151 0 236.5 71.5t115 221.5t-29 221t-209.5 71h-295zM616 1694q38 143 131 215t238 72t210 -72t47 -215h-96q2 79 -43 114q-45 36 -145 36t-159 -36q-59 -35 -87 -114h-96z" />
<glyph unicode="&#x213;" horiz-adv-x="979" d="M143 0l186 958h-176l20 105h360l-36 -189q75 111 170.5 164.5t217.5 53.5q45 0 93 -7t101 -20l-52 -266h-106q3 20 3 37q0 52 -24 81q-31 39 -106 39q-136 0 -227 -94t-125 -270l-115 -592h-184zM412 1321q38 143 131 215t238 72t210 -72t47 -215h-96q2 79 -43 114 q-45 36 -145 36t-159 -36q-59 -35 -87 -114h-96z" />
<glyph unicode="&#x214;" horiz-adv-x="1726" d="M223 1386l21 107h584l-21 -107h-191l-150 -772q-56 -286 16 -399t301 -113t344 113t171 399l150 772h-191l21 107h504l-21 -107h-190l-154 -792q-66 -341 -224.5 -482t-472.5 -141t-420 142t-40 481l154 792h-191zM720 1899h197l130 -264h-117zM1037 1899h197l130 -264 h-117z" />
<glyph unicode="&#x215;" horiz-adv-x="1319" d="M140 956l21 107h351l-120 -619q-20 -103 -20 -171q0 -61 16 -95q33 -72 155 -72q128 0 213.5 94t119.5 273l115 590h184l-186 -957h174l-20 -106h-358l36 188q-72 -106 -163.5 -161.5t-198.5 -55.5q-177 0 -241 101q-39 60 -39 163q0 67 17 152l110 569h-166zM329 1638 h178l226 -376h-116zM667 1638h170l189 -376h-114z" />
<glyph unicode="&#x216;" horiz-adv-x="1726" d="M223 1386l21 107h584l-21 -107h-191l-150 -772q-56 -286 16 -399t301 -113t344 113t171 399l150 772h-191l21 107h504l-21 -107h-190l-154 -792q-66 -341 -224.5 -482t-472.5 -141t-420 142t-40 481l154 792h-191zM788 1694q38 143 131 215t238 72t210 -72t47 -215h-96 q2 79 -43 114q-45 36 -145 36t-159 -36q-59 -35 -87 -114h-96z" />
<glyph unicode="&#x217;" horiz-adv-x="1319" d="M140 956l21 107h351l-120 -619q-20 -103 -20 -171q0 -61 16 -95q33 -72 155 -72q128 0 213.5 94t119.5 273l115 590h184l-186 -957h174l-20 -106h-358l36 188q-72 -106 -163.5 -161.5t-198.5 -55.5q-177 0 -241 101q-39 60 -39 163q0 67 17 152l110 569h-166zM432 1321 q38 143 131 215t238 72t210 -72t47 -215h-96q2 79 -43 114q-45 36 -145 36t-159 -36q-59 -35 -87 -114h-96z" />
<glyph unicode="&#x218;" horiz-adv-x="1403" d="M59 72l66 340l115 -1q-28 -170 49.5 -251.5t268.5 -81.5q178 0 285.5 70.5t133.5 205.5q21 108 -24.5 166t-216.5 113l-185 59q-202 65 -270.5 162t-35.5 266q37 190 192.5 295t399.5 105q104 0 223.5 -22.5t250.5 -65.5l-61 -318h-113q13 158 -61.5 228.5t-255.5 70.5 q-158 0 -253 -64.5t-119 -187.5q-21 -107 29 -168t240 -121l174 -55q191 -61 259 -155.5t37 -253.5q-42 -217 -202.5 -327t-435.5 -110q-123 0 -245.5 25t-244.5 76zM528 -412q76 42 111 98t35 136v22h158q-7 -103 -65 -176q-58 -74 -175 -128z" />
<glyph unicode="&#x219;" horiz-adv-x="1051" d="M23 59l48 248h106q-4 -29 -4 -55q0 -182 247 -182q248 0 284 182q3 18 3 50q0 31 -34 68.5t-177 86.5l-125 45q-128 44 -169.5 100.5t-41.5 121.5q0 26 5 56q29 146 152 229t301 83q177 0 363 -86l-45 -232h-106q4 23 4 43q0 73 -50.5 124.5t-167.5 51.5 q-235 0 -267 -164q-4 -17 -4 -47q0 -31 32.5 -66t159.5 -77l137 -45q142 -47 195 -118q37 -50 37 -99q0 -210 -168 -319q-132 -87 -334 -87t-381 88zM311 -412q76 42 111 98t35 136v22h158q-7 -103 -65 -176q-58 -74 -175 -128z" />
<glyph unicode="&#x21a;" horiz-adv-x="1366" d="M97 1141l68 352h1326l-68 -352h-123l45 233h-439l-247 -1268h191l-20 -106h-584l20 106h191l247 1268h-439l-45 -233h-123zM446 -412q76 42 111 98t35 136v22h158q-7 -103 -65 -176q-58 -74 -175 -128z" />
<glyph unicode="&#x21b;" horiz-adv-x="823" d="M112 956l21 107h162l64 330h185l-64 -330h346l-21 -107h-346l-131 -675q-15 -79 -15 -125q0 -32 7 -48q19 -38 89 -38q72 0 113.5 42.5t61.5 137.5h139q-36 -145 -120 -212t-229 -67q-159 0 -212 71q-32 43 -32 123q0 51 13 116l131 675h-162zM262 -412q76 42 111 98 t35 136v22h158q-7 -103 -65 -176q-58 -74 -175 -128z" />
<glyph unicode="&#x21c;" horiz-adv-x="1284" d="M-34 -430l23 115q205 69 398 155.5t323 201t156.5 250t-29.5 206.5q-96 121 -280 39l-253 -113l21 108l258 123q153 73 280 209q96 103 126.5 259t-40.5 223t-188.5 72t-232.5 -98q-101 -103 -161 -273h-113l66 344q342 129 525 129t295.5 -104.5t78.5 -278.5t-131 -280 t-232 -183q134 -19 197 -133t41 -227q-42 -218 -208 -350.5t-424.5 -226.5t-495.5 -167z" />
<glyph unicode="&#x21d;" horiz-adv-x="1068" d="M-77 -433l20 100q165 43 343 112t307 172q100 80 119.5 182.5t-31.5 159.5q-79 88 -250 26l-222 -80l19 100l223 86q126 48 231 151q96 94 116 198.5t-40.5 159t-148.5 54.5q-105 0 -183 -45q-116 -67 -174 -235h-107l53 272q98 43 232 76.5t271.5 29t237.5 -86.5 t75.5 -207.5t-109.5 -211.5t-206 -149q121 -15 180.5 -102.5t44.5 -168.5q-35 -177 -183.5 -285.5t-398 -191.5t-419.5 -116z" />
<glyph unicode="&#x21e;" horiz-adv-x="1786" d="M-32 0l20 106h190l249 1280h-190l21 107h583l-21 -107h-190l-100 -516h774l100 516h-190l21 107h583l-21 -107h-190l-249 -1280h190l-20 -106h-583l20 106h191l124 642h-774l-125 -642h190l-20 -106h-583zM810 1899h116l171 -162l235 162h116l-283 -264h-176z" />
<glyph unicode="&#x21f;" horiz-adv-x="1319" d="M98 0l282 1450h-176l20 106h360l-132 -682q72 108 164 163t200 55q176 0 239 -101q39 -61 39 -163q0 -67 -17 -152l-111 -570h164l-20 -106h-349l120 618q20 103 20 172q0 61 -16 94q-33 72 -155 72q-128 0 -213.5 -93t-119.5 -271l-115 -592h-184zM240 1975h116 l171 -162l235 162h116l-283 -264h-176z" />
<glyph unicode="&#x220;" horiz-adv-x="1726" d="M96 0l21 107h191l248 1279h-176l21 107h379l-39 -201q194 230 508 230q253 0 344 -146q54 -87 54 -209t-24 -245l-241 -1241h190l-21 -107h-585l20 107h191l233 1200q30 150 30 249t-26 152q-54 109 -249 109t-325 -128.5t-178 -375.5l-151 -780h190l-21 -107h-584z" />
<glyph unicode="&#x221;" horiz-adv-x="1667" d="M68.5 532q48.5 250 203 405t351.5 155q123 0 197 -47.5t109 -147.5l107 553h-174l21 106h358l-248 -1277h15h9q537 0 488 -230q-43 -199 -418 -199q-161 0 -245 93q-53 61 -62 132q-43 -61 -61 -156l-13 -64h-100l14 64q13 66 36 120q-18 -11 -36 -21q-92 -47 -215 -47 q-196 0 -290.5 155.5t-46 405.5zM284 532q-43 -220 7.5 -333t192.5 -113q140 0 233 100.5t130 292.5l21 105q37 191 -17 292t-194 101q-142 0 -236 -112t-137 -333zM973 178q-27 -95 12 -167q34 -62 123 -62q267 0 288 107q24 123 -395 123q-14 0 -28 -1z" />
<glyph unicode="&#x222;" horiz-adv-x="1171" d="M9 368q46 235 402 404q-239 157 -204 338q53 274 406 272l-19 -98q-183 0 -208 -128q-20 -105 291 -274q244 116 281 312q45 229 -175 229l19 97q385 0 317 -350q-39 -200 -347 -347q316 -212 269 -455q-77 -397 -607 -397q-503 0 -425 397zM176 368q-58 -298 278 -298 q299 0 357 298q34 175 -303 347q-291 -132 -332 -347z" />
<glyph unicode="&#x223;" horiz-adv-x="1131" d="M27 378q53 271 380 436q-222 151 -178 375q29 150 249 367l73 -52q-152 -157 -173 -266q-28 -143 275 -318q218 108 262 332q19 96 -82 245l123 59q137 -156 99 -348q-43 -219 -308 -348q263 -192 206 -482q-79 -407 -542 -407t-384 407zM174 378q-60 -308 256 -308 q279 0 339 308q41 210 -270 379q-276 -128 -325 -379z" />
<glyph unicode="&#x224;" horiz-adv-x="1423" d="M-16 0l14 72l1182 1298h-772l-43 -223h-123l67 346h1180l-14 -72l-1182 -1298h769h197q-41 -171 -137.5 -293.5t-259.5 -212.5l-65 80q108 69 170 163q41 61 66 140h-1049z" />
<glyph unicode="&#x225;" horiz-adv-x="1079" d="M18 0l16 86l835 870h-527l-35 -184h-106l56 291h870l-17 -86l-835 -871h488h197q-41 -171 -137.5 -293.5t-259.5 -212.5l-65 80q108 69 170 162q45 69 71 158h-721z" />
<glyph unicode="&#x226;" horiz-adv-x="1479" d="M-157 0l20 106h131l802 1387h168l264 -1387h146l-20 -106h-543l20 106h166l-61 328h-628l-189 -328h164l-20 -106h-420zM370 541h548l-136 710zM849 1770q9 46 51 81t89 35t75 -35t19 -81q-10 -50 -50 -83q-40 -34 -90 -34t-77 34q-27 33 -17 83z" />
<glyph unicode="&#x227;" horiz-adv-x="1221" d="M68 294q0 51 11 108q68 353 314 535q209 155 462 155q170 0 228 -29l-186 -957h158l-20 -106h-324l32 166q-133 -195 -348 -195q-176 0 -265 119q-62 84 -62 204zM262 300q0 -214 207 -214q126 0 211.5 100.5t123.5 292.5l93 482q0 29 -80 29q-192 0 -341 -150 q-148 -151 -201 -425q-13 -64 -13 -115zM642 1452q9 48 51 82q41 35 89 35t76 -35q27 -34 18 -82q-10 -51 -49 -84q-40 -33 -91 -33t-77 33q-27 33 -17 84z" />
<glyph unicode="&#x228;" horiz-adv-x="1495" d="M-32 0l20 106h190l249 1280h-190l21 107h1202l-64 -332h-123l40 209h-686l-97 -500h489l36 187h123l-96 -496h-123l36 187h-489l-121 -625h702l40 209h123l-64 -332h-1218zM294 -371l26 131q37 -17 75 -25.5t73 -8.5q57 0 95 26.5t47 71.5q6 28 -7.5 72t-46.5 104h97 q52 -64 72.5 -120t11.5 -105q-16 -81 -87.5 -125.5t-183.5 -44.5q-42 0 -85 6t-87 18z" />
<glyph unicode="&#x229;" horiz-adv-x="1212" d="M86 386q0 68 15 145q49 253 218 407t409 154q391 0 391 -277q0 -203 -205 -302q-209 -101 -615 -105q-4 -38 -4 -72q0 -94 34 -156q59 -110 217 -110q116 0 173 35q102 63 126 144h135q-40 -127 -189 -216q-104 -62 -310 -62t-317 153q-78 107 -78 262zM190 -371l26 131 q37 -17 75 -25.5t73 -8.5q57 0 95 26.5t47 71.5q6 28 -7.5 72t-46.5 104h97q52 -64 72.5 -120t11.5 -105q-16 -81 -87.5 -125.5t-183.5 -44.5q-42 0 -85 6t-87 18zM320 514q321 15 492 118q112 66 112 190q0 171 -227 171q-134 0 -227 -102t-150 -377z" />
<glyph unicode="&#x22a;" horiz-adv-x="1679" d="M107 422q-27 142 8 323t117 323.5t216 254.5q117 98 253 147.5t290 49.5q325 0 483.5 -213t90.5 -562q-35 -179 -118 -322.5t-216 -254.5q-117 -98 -253 -147.5t-289 -49.5q-152 0 -269.5 50t-195.5 147q-90 112 -117 254zM344 745q-64 -330 28 -498.5t338 -168.5 q245 0 403 168.5t222 498.5q64 331 -28 499.5t-337 168.5q-246 0 -404 -168.5t-222 -499.5zM721 1736q9 46 50 81q42 35 89 35q48 0 75 -35q28 -35 19 -81q-10 -50 -50 -83q-40 -34 -90 -34q-49 0 -76 34q-27 33 -17 83zM770 1951l28 148h598l-28 -148h-598zM1110 1736 q9 46 50 81q42 35 90 35q47 0 74 -35q28 -35 19 -81q-10 -50 -50 -83q-40 -34 -89 -34q-50 0 -77 34q-27 33 -17 83z" />
<glyph unicode="&#x22b;" horiz-adv-x="1233" d="M87 385q0 69 15 147q49 254 219.5 407t403.5 153t344 -153q76 -106 76 -260q0 -69 -15 -147q-49 -254 -219.5 -407.5t-403.5 -153.5q-232 0 -343 153q-77 107 -77 261zM297 348q0 -97 29 -161q53 -117 200 -117q148 0 246.5 117t142.5 345q20 104 20 185q0 96 -28 159 q-53 117 -201 117t-246.5 -116.5t-142.5 -344.5q-20 -104 -20 -184zM484 1452q9 46 50 81q42 35 89 35q48 0 75 -35q28 -35 19 -81q-10 -50 -50 -83q-40 -34 -90 -34q-49 0 -76 34q-27 33 -17 83zM533 1667l28 148h598l-28 -148h-598zM873 1452q9 46 50 81q42 35 90 35 q47 0 74 -35q28 -35 19 -81q-10 -50 -50 -83q-40 -34 -89 -34q-50 0 -77 34q-27 33 -17 83z" />
<glyph unicode="&#x22c;" horiz-adv-x="1679" d="M107 422q-27 142 8 323t117 323.5t216 254.5q117 98 253 147.5t290 49.5q325 0 483.5 -213t90.5 -562q-35 -179 -118 -322.5t-216 -254.5q-117 -98 -253 -147.5t-289 -49.5q-152 0 -269.5 50t-195.5 147q-90 112 -117 254zM344 745q-64 -330 28 -498.5t338 -168.5 q245 0 403 168.5t222 498.5q64 331 -28 499.5t-337 168.5q-246 0 -404 -168.5t-222 -499.5zM684 1643q21 100 84 159q62 59 147 59q36 0 66 -9q29 -9 78 -40l44 -26q20 -13 41 -20q20 -7 37 -7q41 0 70 27q29 28 38 75h97q-22 -105 -85 -162q-62 -57 -156 -57q-67 0 -131 45 l-4 3l-43 28q-17 13 -36 20t-36 7q-39 0 -71 -29q-31 -28 -44 -74zM780 1951l28 148h598l-28 -148h-598z" />
<glyph unicode="&#x22d;" horiz-adv-x="1233" d="M87 385q0 69 15 147q49 254 219.5 407t403.5 153t344 -153q76 -106 76 -260q0 -69 -15 -147q-49 -254 -219.5 -407.5t-403.5 -153.5q-232 0 -343 153q-77 107 -77 261zM297 348q0 -97 29 -161q53 -117 200 -117q148 0 246.5 117t142.5 345q20 104 20 185q0 96 -28 159 q-53 117 -201 117t-246.5 -116.5t-142.5 -344.5q-20 -104 -20 -184zM437 1310q21 100 84 159q62 59 147 59q36 0 66 -9q29 -9 78 -40l44 -26q20 -13 41 -20q20 -7 37 -7q41 0 70 27q29 28 38 75h97q-22 -105 -85 -162q-62 -57 -156 -57q-67 0 -131 45l-4 3l-43 28 q-17 13 -36 20t-36 7q-39 0 -71 -29q-31 -28 -44 -74zM533 1618l28 148h598l-28 -148h-598z" />
<glyph unicode="&#x22e;" horiz-adv-x="1679" d="M107 422q-27 142 8 323t117 323.5t216 254.5q117 98 253 147.5t290 49.5q325 0 483.5 -213t90.5 -562q-35 -179 -118 -322.5t-216 -254.5q-117 -98 -253 -147.5t-289 -49.5q-152 0 -269.5 50t-195.5 147q-90 112 -117 254zM344 745q-64 -330 28 -498.5t338 -168.5 q245 0 403 168.5t222 498.5q64 331 -28 499.5t-337 168.5q-246 0 -404 -168.5t-222 -499.5zM950 1770q9 46 51 81t89 35t75 -35t19 -81q-10 -50 -50 -83q-40 -34 -90 -34t-77 34q-27 33 -17 83z" />
<glyph unicode="&#x22f;" horiz-adv-x="1233" d="M87 385q0 69 15 147q49 254 219.5 407t403.5 153t344 -153q76 -106 76 -260q0 -69 -15 -147q-49 -254 -219.5 -407.5t-403.5 -153.5q-232 0 -343 153q-77 107 -77 261zM297 348q0 -97 29 -161q53 -117 200 -117q148 0 246.5 117t142.5 345q20 104 20 185q0 96 -28 159 q-53 117 -201 117t-246.5 -116.5t-142.5 -344.5q-20 -104 -20 -184zM689 1451q9 48 51 82q41 35 89 35t76 -35q27 -34 18 -82q-10 -51 -49 -84q-40 -33 -91 -33t-77 33q-27 33 -17 84z" />
<glyph unicode="&#x230;" horiz-adv-x="1679" d="M107 422q-27 142 8 323t117 323.5t216 254.5q117 98 253 147.5t290 49.5q325 0 483.5 -213t90.5 -562q-35 -179 -118 -322.5t-216 -254.5q-117 -98 -253 -147.5t-289 -49.5q-152 0 -269.5 50t-195.5 147q-90 112 -117 254zM344 745q-64 -330 28 -498.5t338 -168.5 q245 0 403 168.5t222 498.5q64 331 -28 499.5t-337 168.5q-246 0 -404 -168.5t-222 -499.5zM752 1951l28 148h598l-28 -148h-598zM915 1733q9 46 51 81t89 35t75 -35t19 -81q-10 -50 -50 -83q-40 -34 -90 -34t-77 34q-27 33 -17 83z" />
<glyph unicode="&#x231;" horiz-adv-x="1233" d="M87 385q0 69 15 147q49 254 219.5 407t403.5 153t344 -153q76 -106 76 -260q0 -69 -15 -147q-49 -254 -219.5 -407.5t-403.5 -153.5q-232 0 -343 153q-77 107 -77 261zM297 348q0 -97 29 -161q53 -117 200 -117q148 0 246.5 117t142.5 345q20 104 20 185q0 96 -28 159 q-53 117 -201 117t-246.5 -116.5t-142.5 -344.5q-20 -104 -20 -184zM514 1669l28 148h598l-28 -148h-598zM677 1451q9 46 51 81t89 35t75 -35t19 -81q-10 -50 -50 -83q-40 -34 -90 -34t-77 34q-27 33 -17 83z" />
<glyph unicode="&#x232;" horiz-adv-x="1352" d="M101 1386l21 107h555l-21 -107h-174l256 -604l490 604h-168l21 107h434l-21 -107h-141l-589 -724l-109 -556h191l-20 -106h-584l20 106h191l105 537l-317 743h-140zM591 1694l28 148h598l-28 -148h-598z" />
<glyph unicode="&#x233;" horiz-adv-x="1157" d="M-76 -424l40 203h94q-2 -16 -2 -31q0 -42 18 -66q25 -34 90 -34q176 0 329 153l-251 1155h-121l21 107h275l236 -1055q161 241 200 340q126 311 151 599h-121l21 107h274q-99 -572 -273 -874q-255 -443 -460 -576q-91 -59 -331 -59q-47 0 -94.5 8t-95.5 23zM428 1378 l28 148h598l-28 -148h-598z" />
<glyph unicode="&#x234;" horiz-adv-x="1025" d="M164 -219l29 144q23 101 62 180l-15 19q-77 171 -31 408l179 918h-177l21 106h361l-200 -1024q-30 -159 -15 -264q168 140 357 140q204 0 158 -238q-39 -199 -310 -199q-153 0 -246 71q-15 -32 -31 -117l-28 -144h-114zM417 164q50 -94 188 -94q158 -2 179 107 q25 124 -87 123q-180 -2 -280 -136z" />
<glyph unicode="&#x235;" horiz-adv-x="1703" d="M165 0l186 956h-176l21 107h360l-37 -189q72 108 164 163t200 55q176 0 239.5 -101t22.5 -315l-28 -144q-35 -177 -16 -264q168 140 357 140q204 0 158 -238q-38 -199 -309 -199q-154 0 -247 71q-15 -32 -30 -117l-28 -144h-114l29 144q22 101 62 180l-16 19 q-77 172 -31 408l16 86q38 195 4 267.5t-155 72.5q-128 0 -213 -93.5t-120 -272.5l-115 -592h-184zM1140 164q50 -94 188 -94q158 -2 180 107q24 124 -88 123q-180 -2 -280 -136z" />
<glyph unicode="&#x236;" horiz-adv-x="1011" d="M131 956l21 107h162l64 330h185l-64 -330h346l-21 -107h-346l-83 -424q-31 -159 -15 -264q168 140 357 140q204 0 158 -238q-39 -199 -310 -199q-153 0 -246 71q-15 -32 -31 -117l-28 -144h-114l29 144q23 101 62 180l-15 19q-78 172 -32 408l83 424h-162zM419 164 q50 -94 188 -94q158 -2 179 107q24 124 -87 123q-180 -2 -280 -136z" />
<glyph unicode="&#x237;" horiz-adv-x="635" d="M-332 -389l43 219h95q-12 -96 22 -141t116 -45q91 0 146.5 61.5t80.5 190.5l206 1060h-174l21 107h358l-227 -1167q-32 -164 -148 -257.5t-287 -93.5q-72 0 -134 16.5t-118 49.5z" />
<glyph unicode="&#x238;" horiz-adv-x="1966" d="M57 532q49 250 203 405t351 155q123 0 197 -47.5t109 -147.5l107 553h-177l21 106h361l-128 -659q73 100 166 147.5t216 47.5q196 0 290 -155t45 -405t-203 -405.5t-350 -155.5q-123 0 -197.5 47.5t-108.5 147.5l-32 -166h-184l32 166q-74 -100 -166.5 -147.5 t-215.5 -47.5q-196 0 -290.5 155.5t-45.5 405.5zM272 532q-43 -220 7.5 -333t192.5 -113q140 0 233 100.5t131 292.5l20 105q37 191 -16.5 292t-193.5 101q-142 0 -236.5 -112t-137.5 -333zM1020 479q-38 -192 16 -292.5t194 -100.5q141 0 235.5 113t137.5 333 q43 221 -8 333t-191 112t-233.5 -101t-130.5 -292z" />
<glyph unicode="&#x239;" horiz-adv-x="1966" d="M140.5 532q48.5 250 203 405t351.5 155q123 0 197 -47.5t109 -147.5l32 166h184l-32 -166q73 100 166 147.5t216 47.5q196 0 289.5 -155t45 -405t-202.5 -405.5t-350 -155.5q-123 0 -197.5 47.5t-108.5 147.5l-95 -485h174h2l-21 -107h-2h-358l116 592 q-74 -100 -166.5 -147.5t-215.5 -47.5q-196 0 -290.5 155.5t-46 405.5zM356 532q-43 -220 7.5 -333t192.5 -113q140 0 233 100.5t130 292.5l21 105q37 191 -17 292t-194 101q-142 0 -236 -112t-137 -333zM1103 479q-37 -192 17 -292.5t194 -100.5q141 0 235.5 113t137.5 333 q43 221 -8 333t-192 112q-140 0 -233 -101t-130 -292z" />
<glyph unicode="&#x23a;" horiz-adv-x="1479" d="M-157 0l20 106h100l67 61l766 1326h168l78 -408l511 465l66 -71l-556 -504l165 -869h146l-20 -106h-543l20 106h166l-61 328h-470l-329 -298l-18 -30h164l-20 -106h-276l-63 -57l-54 57h-27zM291 404l33 30h-16zM370 541h72l406 368l-66 342zM584 541h334l-49 258z" />
<glyph unicode="&#x23b;" horiz-adv-x="1567" d="M-97 12l264 240q-43 79 -60 170q-27 143 8 323q67 348 309.5 561.5t571.5 213.5q122 0 254 -32q99 -24 206 -66l141 128l66 -71l-143 -130l-59 -302h-113q0 74 -15 133l-982 -890q8 -22 19 -42q90 -170 329 -170q167 0 290.5 79.5t202.5 237.5h184 q-107 -209 -283.5 -316.5t-414.5 -107.5q-146 0 -261 50t-193 147l-4 4l-252 -229zM324 394l970 881q-17 27 -40 49q-94 89 -295 89q-239 0 -395 -169.5t-220 -498.5q-40 -207 -20 -351z" />
<glyph unicode="&#x23c;" horiz-adv-x="1147" d="M-72 -31l208 201q-76 144 -34 362q50 255 220.5 407.5t402.5 152.5q101 0 196 -24q55 -13 107 -34l128 123l63 -63l-113 -110l-50 -259h-107q2 57 -6 102l-630 -609q6 -17 12 -32q53 -116 203 -116q119 0 202 62t134 187h148q-72 -170 -200.5 -259t-304.5 -89 q-209 0 -320 124l-196 -189zM297 326l610 590q-5 7 -10 13q-58 64 -189 64q-149 0 -247.5 -115.5t-143.5 -345.5q-23 -118 -20 -206z" />
<glyph unicode="&#x23d;" horiz-adv-x="1360" d="M-32 0l20 106h190l120 613h-200l24 125h200l105 542h-190l21 107h583l-21 -107h-190l-105 -542h336l-24 -125h-336l-116 -596h682l48 250h123l-72 -373h-1198z" />
<glyph unicode="&#x23e;" horiz-adv-x="1366" d="M-197 12l773 702l128 660h-439l-45 -233h-123l68 352h1269l63 57l66 -71l-91 -82l-49 -256h-123l23 121l-533 -483l-131 -673h191l-20 -106h-584l20 106h191l88 451l-678 -614zM821 936l482 438h-397z" />
<glyph unicode="&#x23f;" horiz-adv-x="1051" d="M65 59l48 248h106q-19 -119 40 -178t197 -59q124 0 198 46.5t91 135.5q14 70 -25.5 113t-182.5 92l-124 45q-129 44 -177.5 110t-28.5 168q28 146 151 229t312 83q84 0 173 -22t180 -64l-45 -232h-106q16 103 -41 161t-174 58q-116 0 -183.5 -41t-83.5 -123 q-13 -67 24 -107.5t164 -82.5l138 -45q141 -47 194 -117.5t31 -181.5q-29 -151 -161.5 -237.5t-335.5 -86.5q-55 0 -107 6l3 -10l42 -162q25 -93 47 -123q23 -30 102 -30q43 0 77.5 29.5t53.5 97.5h94l-39 -203q-53 -15 -104 -23t-112 -8q-142 0 -197 40q-81 60 -109 175 l-43 183q-16 67 -43 96q-22 9 -44 20z" />
<glyph unicode="&#x240;" horiz-adv-x="1079" d="M23 0l17 86l835 870h-527l-36 -184h-106l57 291h870l-17 -86l-835 -871h48q227 0 292 -228l21 -73q28 -97 47 -123q23 -30 63 -30q43 0 77.5 29.5t53.5 97.5h94l-40 -203q-52 -15 -103.5 -23t-112.5 -8q-102 0 -157 40q-82 60 -109 175l-21 94q-34 146 -197 146h-214z " />
<glyph unicode="&#x241;" horiz-adv-x="1195" d="M50 0l20 106h190l128 654h202q149 0 242.5 80.5t123.5 233.5q29 152 -33 232.5t-211 80.5h-245q-86 0 -129 -38q-51 -44 -76 -140h-96l42 218q69 34 138 50t141 16h294q224 0 333 -113.5t72 -305.5q-38 -194 -191.5 -308t-376.5 -114h-48l-107 -546h231l-20 -106h-624z " />
<glyph unicode="&#x242;" horiz-adv-x="950" d="M127 808l42 218q69 34 138 50t141 16h49q224 0 333 -114q109 -113 72 -305q-38 -196 -191 -308q-105 -77 -241 -102l-51 -263h-183l70 359q147 0 242 81q94 80 124 233q29 152 -33 233q-62 80 -211 80q-85 0 -129 -38q-51 -44 -76 -140h-96z" />
<glyph unicode="&#x243;" horiz-adv-x="1505" d="M-32 0l20 106h190l52 263h-200l24 125h200l173 892h-190l21 107h737q226 0 322.5 -92.5t60.5 -276.5q-26 -133 -120.5 -212t-251.5 -97q185 -24 265 -121.5t48 -261.5q-43 -222 -203.5 -327t-457.5 -105h-690zM381 106h299q180 0 278.5 78t131.5 248q33 169 -34.5 246.5 t-248.5 77.5h-299l-51 -262h334l-24 -125h-334zM528 862h254q164 0 252 63t114 199q27 137 -36.5 199.5t-227.5 62.5h-254z" />
<glyph unicode="&#x244;" horiz-adv-x="1726" d="M84 719l25 125h1556l-25 -125h-1556zM223 1386l21 107h584l-21 -107h-191l-150 -772q-56 -286 16 -399t301 -113t344 113t171 399l150 772h-191l21 107h504l-21 -107h-190l-154 -792q-66 -341 -224.5 -482t-472.5 -141t-420 142t-40 481l154 792h-191z" />
<glyph unicode="&#x245;" horiz-adv-x="1479" d="M-157 0l20 106h131l802 1387h168l264 -1387h146l-20 -106h-543l20 106h166l-215 1145l-663 -1145h164l-20 -106h-420z" />
<glyph unicode="&#x246;" horiz-adv-x="1495" d="M-32 0l20 106h190l249 1280h-190l21 107h824l57 111l94 -32l-40 -79h267l-64 -332h-123l40 209h-183l-254 -500h143l36 187h123l-96 -496h-123l36 187h-181l-318 -625h591l40 209h123l-64 -332h-753l-57 -111l-94 32l40 79h-354zM385 124l317 624h-196zM530 870h235 l254 500h-392z" />
<glyph unicode="&#x247;" horiz-adv-x="1212" d="M87 386q0 68 15 145q49 253 218 407t409 154q48 0 90 -4l49 97l89 -28l-43 -86q206 -55 206 -256q0 -203 -205 -302q-126 -61 -323 -86l-167 -335q51 -22 122 -22q116 0 173 35q102 63 126 144h135q-40 -127 -189 -216q-104 -62 -310 -62q-60 0 -112 13l-47 -95l-90 28 l50 101q-69 38 -118 106q-78 107 -78 262zM296 336q0 -93 34 -156q9 -16 20 -30l133 265q-86 -6 -183 -7q-4 -38 -4 -72zM321 514q122 5 223 24l225 450q-32 5 -71 5q-134 0 -227 -102t-150 -377zM662 567q86 26 151 65q112 67 112 190q0 93 -68 136z" />
<glyph unicode="&#x248;" horiz-adv-x="821" d="M-345 -358l45 235h114q-16 -99 18.5 -147.5t122.5 -48.5q119 0 180.5 75t104.5 293l130 670h-242l24 125h242l106 542h-232l21 107h625l-21 -107h-190l-106 -542h200l-24 -125h-200l-132 -678q-48 -247 -168.5 -357t-340.5 -110q-71 0 -141 17t-136 51z" />
<glyph unicode="&#x249;" horiz-adv-x="645" d="M-332 -389l43 219h95q-12 -96 22 -141t116 -45q91 0 146.5 61.5t80.5 190.5l110 568h-176l21 106h176l75 386h-174l21 107h358l-96 -493h174l-21 -106h-174l-110 -568q-32 -164 -148 -257.5t-287 -93.5q-72 0 -134 16.5t-118 49.5zM414 1383.5q0 45.5 45.5 84.5t92 39 t70.5 -30t24 -51q0 -71 -45.5 -108.5t-92.5 -37.5t-70.5 29t-23.5 74.5z" />
<glyph unicode="&#x24a;" horiz-adv-x="1602" d="M154 746q44 228 148 403.5t252 273t316 97.5q163 0 255.5 -58t136.5 -174l40 205h379l-21 -107h-176l-260 -1337q-42 -218 -9.5 -293t151.5 -75q88 0 141.5 48.5t75.5 147.5h114l-46 -235q-80 -34 -156.5 -51t-147.5 -17q-220 0 -297.5 110t-29.5 357l31 161 q-36 -47 -75.5 -83.5t-97.5 -72.5t-136.5 -55.5t-172.5 -19.5q-249 0 -366 215q-117 213 -49 560zM323.5 408.5q2.5 -63.5 14.5 -114.5t29 -85t42 -59t49.5 -38.5t56.5 -21.5t56.5 -10t55.5 -2q108 0 195.5 45.5t149.5 129t104 190t68 239.5l25 128q26 132 25 238t-30.5 190 t-100 129.5t-177.5 45.5q-91 0 -167.5 -33.5t-132 -91.5t-100.5 -144t-75 -182.5t-53 -215.5q-20 -102 -28.5 -188t-6 -149.5z" />
<glyph unicode="&#x24b;" horiz-adv-x="1311" d="M184 269q-4 62 10 133q69 353 314 535q209 154 454 155q194 1 255 -29l-225 -1167q-25 -131 6 -191.5t122 -60.5q82 0 133 45t77 141h95l-43 -219q-63 -31 -134 -48.5t-143 -17.5q-173 0 -251.5 93.5t-46.5 257.5l52 270q-69 -100 -153 -148q-84 -47 -195 -47 q-176 0 -265 119q-56 74 -62 179zM379 273q4 -62 29 -104q49 -83 177 -83q126 0 211 100t123 293l94 482q1 29 -80 29q-192 0 -341 -150q-148 -151 -202 -425q-15 -81 -11 -142z" />
<glyph unicode="&#x24c;" horiz-adv-x="1542" d="M-32 0l20 106h190l115 588h-200l21 107h200l113 585h-190l21 107h757q218 0 316.5 -104t61.5 -295q-30 -154 -134 -242.5t-279 -110.5q67 -19 108 -65q41 -45 66 -127l130 -443h182l-20 -106h-352l-141 475q-41 139 -88 179q-48 40 -146 40h-223l-115 -588h211l-20 -106 h-604zM517 801h295q151 0 236.5 71.5t115 221.5t-29 221t-209.5 71h-295z" />
<glyph unicode="&#x24d;" horiz-adv-x="979" d="M58 464l21 106h176l75 388h-176l20 105h360l-36 -189q76 111 171 164.5t217 53.5q45 0 93.5 -7t100.5 -20l-52 -266h-106q10 79 -21 118t-106 39q-136 0 -227 -94q-93 -97 -125 -270l-4 -22h291l-21 -106h-291l-90 -464h-184l90 464h-176z" />
<glyph unicode="&#x24e;" horiz-adv-x="1352" d="M39 1067l24 122h262l-84 197h-140l21 107h555l-21 -107h-174l84 -197h502l160 197h-168l21 107h434l-21 -107h-141l-160 -197h263l-24 -122h-339l-329 -405l-109 -556h191l-20 -106h-584l20 106h191l105 537l-181 424h-338zM617 1067l121 -285l231 285h-352z" />
<glyph unicode="&#x24f;" horiz-adv-x="1157" d="M-76 -424l40 203h94q-2 -16 -2 -31q0 -42 18 -66q25 -34 90 -34q176 0 329 153l-155 711h-240l21 106h196l-73 338h-121l21 107h275l100 -445h427q46 170 60 329h-121l21 107h274q-42 -242 -97 -436h185l-21 -106h-197q-64 -194 -143 -332q-255 -443 -460 -576 q-91 -59 -331 -59q-47 0 -94.5 8t-95.5 23zM540 512l113 -504q160 239 200 340q33 83 59 164h-372z" />
<glyph unicode="&#x250;" horiz-adv-x="1221" d="M137 0l186 957h-158l20 106h324l-32 -166q134 195 348 195q176 0 265 -119q63 -84 62 -204q0 -50 -11 -108q-69 -354 -314 -535q-209 -155 -462 -155q-170 0 -228 29zM323 102q0 -29 80 -29q192 0 341 150q148 151 202 425q12 64 12 115q0 214 -207 214 q-126 0 -211.5 -100.5t-123.5 -292.5z" />
<glyph unicode="&#x251;" horiz-adv-x="1383" d="M86 376q0 75 17 160q48 245 202 405q145 150 390 150q173 0 246 -67q65 -60 69 -188l1 -37l60 111q57 105 170 157h101l-12 -59q-102 -30 -154 -124l-159 -284l11 -306q5 -157 40 -174q12 -6 31 -6q54 0 158 56l-23 -121q-111 -57 -196 -57q-89 0 -149 62q-54 56 -56 137 l-2 71l-61 -111q-47 -85 -154 -141q-66 -35 -172 -35h-6q-197 1 -290 155q-62 103 -62 246zM297 353q0 -93 28 -154q51 -114 171 -114q132 0 267 255l63 118l-5 294q-5 234 -143 235q-114 0 -224 -122q-92 -101 -137 -333q-20 -101 -20 -179z" />
<glyph unicode="&#x252;" horiz-adv-x="1383" d="M58 -1l11 59q102 30 154 124l159 284l-10 306q-5 157 -40 174q-50 25 -190 -50l24 121q226 117 345 -5q54 -56 56 -137l2 -71l61 111q47 85 154 141q68 36 178 35q197 -1 290 -155q94 -156 45 -406q-48 -245 -203 -405q-146 -151 -393 -150q-170 1 -243 67 q-65 60 -68 188l-1 37l-61 -111q-57 -105 -170 -157h-100zM573 608l6 -294q5 -234 140 -235q115 -1 226 122q92 101 138 333q43 220 -8 333q-55 123 -192 113q-117 -9 -247 -254z" />
<glyph unicode="&#x253;" horiz-adv-x="1311" d="M88 0l189 973l45 232q32 164 148 257q115 94 286 94q77 0 135 -16q62 -17 117 -50l-42 -219h-95q11 96 -23 141q-33 45 -115 45q-91 0 -146 -61q-55 -59 -80 -191l-61 -308q72 98 167 147q92 48 215 48q196 0 290 -155t45 -405t-203 -406q-154 -155 -350 -155 q-123 0 -197 47q-75 48 -109 148l-32 -166h-184zM365 479q-38 -192 17 -293q53 -100 193 -100q141 0 235 113q95 113 138 333q43 221 -8 333q-50 112 -192 112q-140 0 -232 -101q-94 -101 -131 -292z" />
<glyph unicode="&#x254;" horiz-adv-x="1147" d="M47 66l52 272h107q-6 -140 53 -204q57 -64 188 -64q149 0 248 115q98 116 143 346t-9 346q-52 116 -202 116q-119 0 -202 -62t-134 -187h-148q72 170 200.5 259t304.5 89q232 0 343 -153q111 -154 62 -408q-50 -255 -220 -408q-171 -152 -403 -152q-101 0 -196 24 q-96 23 -187 71z" />
<glyph unicode="&#x255;" horiz-adv-x="1147" d="M107 -219l29 144q22 101 62 180q-8 10 -16 19q-111 154 -61 408q49 255 220 408q170 152 402 152q101 0 197 -24q95 -23 187 -71l-53 -272h-107q6 140 -51 204q-59 64 -190 64q-149 0 -247 -115q-99 -116 -143 -346q-31 -159 -16 -264q151 132 408 132q265 0 215 -230 q-42 -199 -417 -199q-153 0 -247 71q-15 -32 -30 -117l-28 -144h-114zM359 164q49 -92 188 -94q265 -2 287 107q24 125 -195 123q-180 -2 -280 -136z" />
<glyph unicode="&#x256;" horiz-adv-x="1325" d="M98.5 532q48.5 250 202.5 405t351 155q123 0 198 -48q74 -47 108 -147l108 553h-174l20 106h358q-160 -830 -321 -1660q-25 -130 5 -190q32 -62 123 -62q82 0 134 45q50 45 76 141h95l-43 -219q-68 -33 -137 -49q-68 -17 -140 -17q-171 0 -251 93q-79 94 -47 258l45 232 l7 38q-73 -100 -166 -148q-93 -47 -216 -47q-196 0 -291 155q-93 156 -44.5 406zM313 532q-42 -220 9 -333q50 -113 192 -113q140 0 233 100q93 101 130 293l21 105q37 191 -17 292t-194 101q-142 0 -236 -112q-95 -112 -138 -333z" />
<glyph unicode="&#x257;" horiz-adv-x="1398" d="M57 532q49 250 203 405t351 155q123 0 198 -48q72 -47 107 -147l60 308q32 164 148 257q115 94 286 94q77 0 135 -16q62 -17 117 -50l-42 -219h-95q11 96 -23 141q-33 45 -115 45q-91 0 -146 -61q-55 -59 -80 -191l-234 -1205h-184l32 166q-75 -102 -166 -148 q-93 -47 -216 -47q-198 0 -291 155q-94 156 -45 406zM272 532q-43 -220 8 -333q50 -113 192 -113q140 0 234 100q92 101 130 293l20 105q37 191 -16 292q-54 101 -194 101q-142 0 -236 -112q-95 -112 -138 -333z" />
<glyph unicode="&#x258;" horiz-adv-x="1212" d="M79 322h148q7 -125 72 -188q65 -64 186 -64q158 0 261 110q102 109 144 324l1 8h-793q60 283 218 432q158 148 399 148q226 0 335 -154t60 -406q-49 -254 -221 -408q-171 -153 -404 -153q-193 0 -295 88q-101 88 -111 263zM336 618h576q20 185 -34.5 280t-181.5 95 q-136 0 -227 -95q-91 -94 -133 -280z" />
<glyph unicode="&#x259;" horiz-adv-x="1212" d="M106 551h793l1 8q42 215 -17 325q-60 109 -218 109q-121 0 -212 -63q-89 -64 -144 -189h-148q78 175 213 263q136 88 329 88q233 0 344 -154q112 -153 63 -407q-49 -252 -218 -406t-395 -154q-241 0 -341 149q-100 148 -50 431zM302 445q-30 -186 25 -281q53 -94 189 -94 q127 0 218.5 95t143.5 280h-576z" />
<glyph unicode="&#x25a;" horiz-adv-x="1727" d="M86 350l828 428q-7 62 -31 106q-60 109 -218 109q-121 0 -212 -63q-88 -62 -144 -189h-148q78 175 213 263q136 88 329 88q233 0 344 -154q24 -33 40 -70l304 157h114l-12 -61q-26 -131 28 -190q57 -62 139 -62q138 0 159 45l60 -78q-87 -48 -90 -49q-50 -17 -145 -17 q-114 0 -191 93q-68 81 -54 213l-283 -146q20 -107 -6 -242q-49 -252 -218 -406t-395 -154q-242 0 -341 149q-78 118 -70 230zM297 350q-18 -101 30 -186q53 -94 189 -94q134 0 219 95q82 92 160 366l5 28q12 59 16 110z" />
<glyph unicode="&#x25b;" horiz-adv-x="1099" d="M53 269q26 135 146 213q82 54 207 80q-79 19 -126 54q-89 67 -64 194q25 129 136 197q111 67 307 67q54 0 155 -16q101 -17 207 -48l-43 -221h-108q5 89 -58 134t-157 45q-233 0 -266 -167q-37 -191 220 -191h93l-20 -105h-92q-158 0 -247 -62q-86 -60 -109 -176 q-15 -79 28 -129q71 -82 213 -82q116 0 210.5 53t124.5 155h108l-45 -231q-113 -36 -225 -54q-107 -18 -187 -18q-224 0 -332 79q-106 79 -76 229z" />
<glyph unicode="&#x25c;" horiz-adv-x="1042" d="M10 33l45 231h105q-20 -102 64 -155q73 -53 189 -53q142 0 245 82q63 50 78 129q23 116 -39 176q-65 62 -223 62h-92l20 105h93q257 0 294 191q33 167 -200 167q-94 0 -175 -45q-81 -46 -110 -135h-108l43 222q118 31 225 48q107 16 161 16q196 0 281 -67q85 -68 60 -197 q-25 -127 -140 -194q-61 -35 -146 -54q115 -26 175 -80q88 -78 64 -213q-29 -150 -166 -229q-140 -80 -362 -79q-80 0 -181 18q-104 18 -200 54z" />
<glyph unicode="&#x25d;" horiz-adv-x="1583" d="M7 33l45 231h108q-10 -102 63.5 -155t189.5 -53q142 0 245 82q63 50 78 129q23 116 -39 176q-66 62 -223 62h-92l20 105h93q257 0 294 191q33 167 -200 167q-94 0 -175 -45q-81 -46 -110 -135l-108 1l43 221q118 31 225 48q107 16 161 16q196 0 281 -67q79 -63 63 -180 l283 213h114l-12 -61q-26 -131 28 -190q57 -62 139 -62q106 0 159 45l60 -78q-53 -38 -90 -49q-58 -17 -145 -17q-115 1 -191 93q-68 81 -54 213l-377 -277q-25 -23 -57 -41q-61 -35 -146 -54q114 -26 175 -80q88 -78 64 -213q-28 -150 -166 -229q-140 -80 -362 -79 q-79 0 -181 18q-105 18 -203 54z" />
<glyph unicode="&#x25e;" horiz-adv-x="1256" d="M102 528q60 308 436 490q64 31 170 56q82 18 156 18q196 0 288 -77q91 -77 63 -218q-20 -102 -108 -173q-90 -72 -230 -96q130 -24 193 -95q61 -71 41 -174q-28 -141 -149 -218t-318 -77q-40 0 -148 19q-54 5 -148 55q-312 151 -246 490zM273 525q-50 -259 163 -398 q13 -16 103 -46q36 -11 98 -11q108 0 176 51q67 51 85 147q21 105 -39 158q-61 52 -199 52h-38l20 100h38q138 0 219 53q80 52 101 158q18 95 -29 146q-48 52 -156 52q-12 0 -103 -18q-43 -9 -121 -46q-264 -123 -318 -398z" />
<glyph unicode="&#x25f;" horiz-adv-x="645" d="M-332 -389l43 219h95q-12 -96 22 -141t116 -45q91 0 146.5 61.5t80.5 190.5l110 568h-176l21 106h176l75 386h-174l21 107h358l-96 -493h174l-21 -106h-174l-110 -568q-32 -164 -148 -257.5t-287 -93.5q-72 0 -134 16.5t-118 49.5z" />
<glyph unicode="&#x260;" horiz-adv-x="1399" d="M24 -379l44 223h96q-3 -104 55 -152t183 -48q162 0 255 91.5t131 287.5l28 143q-73 -100 -166 -147.5t-216 -47.5q-196 0 -290 155.5t-46 405.5q43 221 197.5 376t351.5 155h344l27 142q32 164 147 257q116 94 287 94q72 0 134 -16q63 -17 119 -50l-43 -219h-95 q12 96 -22 141t-116 45q-91 0 -147 -61q-53 -60 -79 -191l-3 -14l-228 -1168q-44 -229 -194 -353q-150 -125 -383 -125q-105 0 -197.5 19t-173.5 57zM313 532q-42 -220 8.5 -333t192.5 -113q140 0 233 100.5t130 292.5l21 105l73 372h-288q-142 0 -236.5 -112t-133.5 -312z " />
<glyph unicode="&#x261;" horiz-adv-x="1311" d="M72 -379l44 223h96q-3 -104 55 -152t183 -48q162 0 255 91.5t131 287.5l28 143q-73 -100 -166 -147.5t-216 -47.5q-196 0 -290 155.5t-46 405.5q43 221 197.5 376t351.5 155h704l-21 -107h-176l-182 -933q-44 -229 -194.5 -353.5t-383.5 -124.5q-105 0 -197 19t-173 57z M361 532q-42 -220 8.5 -333t192.5 -113q140 0 233 100.5t130 292.5l20 105l74 372h-288q-142 0 -236.5 -112t-133.5 -312z" />
<glyph unicode="&#x262;" horiz-adv-x="1114" d="M102 523q50 255 222 408q173 152 414 152q84 0 181 -22q91 -21 191 -64l-53 -272h-107q2 157 -51 204q-70 64 -190 64q-130 0 -244 -121q-112 -119 -159 -360q-47 -242 22 -358q60 -100 298 -100q61 0 138 30q57 22 70 30l54 286h-197l15 77h339l-78 -402 q-104 -56 -217 -84t-235 -28q-237 0 -350 153q-112 153 -63 407zM510 -33zM538 57z" />
<glyph unicode="&#x263;" horiz-adv-x="1458" d="M221 960l21 107h335l241 -430l282 319h-192l22 111h398l-465 -524q338 -643 113 -855q-153 -144 -435 -144q-270 0 -294 200q-23 196 398 721l-264 495h-160zM358 -212q-25 -138 204 -138q217 0 244 138q53 273 -114 580q-298 -382 -334 -580z" />
</font>
</defs>
</svg>
