<?xml version="1.0" standalone="no"?>
<!DOCTYPE svg PUBLIC "-//W3C//DTD SVG 1.1//EN" "http://www.w3.org/Graphics/SVG/1.1/DTD/svg11.dtd" >
<svg xmlns="http://www.w3.org/2000/svg">
<metadata></metadata>
<defs>
<font id="dejavu_sans_monobold" horiz-adv-x="1233" >
<font-face units-per-em="2048" ascent="1556" descent="-492" />
<missing-glyph horiz-adv-x="500" />
<glyph unicode="&#xfedf;&#xfe82;" arabic-form="isolated" d="M-138 1488v200l192 113q62 -61 186 -99q42 -13 96 -13q51 0 100 16q132 41 210 117v-200q-58 -48 -196 -93q-66 -22 -120 -22q-16 0 -110 17q-102 17 -160 82zM108 1410h284l379 -837q47 103 47 297v686h289v-722q0 -314 -128 -518q-59 -95 -140 -172 q-174 -164 -419 -164q-106 0 -181 32v243q96 -32 181 -32q114 0 186 80z" />
<glyph unicode="&#xfee0;&#xfe82;" arabic-form="final" d="M-148 1488v200l192 113q62 -61 186 -99q42 -13 96 -13q51 0 100 16q132 41 210 117v-200q-58 -48 -196 -93q-66 -22 -120 -22q-16 0 -110 17q-102 17 -160 82zM108 1410h284l379 -837q47 103 47 297v686h289v-722q0 -274 -97 -464q61 -145 138 -145h105v-225h-129 q-171 0 -252 177q-175 -192 -452 -197q-106 0 -181 32v243q96 -32 181 -32q114 0 186 80z" />
<glyph unicode="&#xfedf;&#xfe84;" arabic-form="isolated" d="M-17 1777q0 68 20 104q29 55 65 70q67 28 120 28q72 0 136 -31v-121q-60 29 -130 29q-27 0 -43 -14q-23 -21 -23 -63q0 -60 90 -107l126 31v-129l-351 -100v124l84 28q-32 17 -60 53q-34 47 -34 98zM108 1410h284l379 -837q47 103 47 297v686h289v-722q0 -314 -128 -518 q-59 -95 -140 -172q-174 -164 -419 -164q-106 0 -181 32v243q96 -32 181 -32q114 0 186 80z" />
<glyph unicode="&#xfee0;&#xfe84;" arabic-form="final" d="M-44 1777q0 68 20 104q29 55 65 70q67 28 120 28q72 0 136 -31v-121q-60 29 -130 29q-27 0 -43 -14q-23 -21 -23 -63q0 -60 90 -107l126 31v-129l-351 -100v124l84 28q-32 17 -60 53q-34 47 -34 98zM108 1410h284l379 -837q47 103 47 297v686h289v-722q0 -274 -97 -464 q61 -145 138 -145h105v-225h-129q-171 0 -252 177q-175 -192 -452 -197q-106 0 -181 32v243q96 -32 181 -32q114 0 186 80z" />
<glyph unicode="&#xfedf;&#xfe88;" arabic-form="isolated" d="M108 1410h284l379 -837q47 103 47 297v686h289v-722q0 -314 -128 -518q-59 -95 -140 -172q-174 -164 -419 -164q-106 0 -181 32v243q96 -32 181 -32q114 0 186 80zM121 -353q0 68 20 104q29 55 65 70q67 28 120 28q72 0 136 -31v-121q-60 29 -130 29q-27 0 -43 -14 q-23 -21 -23 -63q0 -60 90 -107l126 31v-129l-351 -100v124l84 28q-32 17 -60 53q-34 47 -34 98z" />
<glyph unicode="&#xfee0;&#xfe88;" arabic-form="final" d="M108 1410h284l379 -837q47 103 47 297v686h289v-722q0 -274 -97 -464q61 -145 138 -145h105v-225h-129q-171 0 -252 177q-175 -192 -452 -197q-106 0 -181 32v243q96 -32 181 -32q114 0 186 80zM121 -380q0 68 20 104q29 55 65 70q67 28 120 28q72 0 136 -31v-121 q-60 29 -130 29q-27 0 -43 -14q-23 -21 -23 -63q0 -60 90 -107l126 31v-129l-351 -100v124l84 28q-32 17 -60 53q-34 47 -34 98z" />
<glyph unicode="&#xfedf;&#xfe8e;" arabic-form="isolated" d="M108 1410h284l379 -837q47 103 47 297v686h289v-722q0 -314 -128 -518q-59 -95 -140 -172q-174 -164 -419 -164q-106 0 -181 32v243q96 -32 181 -32q114 0 186 80z" />
<glyph unicode="&#xfee0;&#xfe8e;" arabic-form="final" d="M108 1410h284l379 -837q47 103 47 297v686h289v-722q0 -274 -97 -464q61 -145 138 -145h105v-225h-129q-171 0 -252 177q-175 -192 -452 -197q-106 0 -181 32v243q96 -32 181 -32q114 0 186 80z" />
<glyph unicode="&#x67b;" arabic-form="isolated" d="M27 320q0 84 25 186h276q-27 -110 -27 -186q0 -72 103 -120q51 -24 194 -24q124 0 234 68q117 73 117 160t-17 135h276q14 -90 14 -203q0 -141 -182 -284q-112 -88 -437 -88q-243 0 -399 52q-177 59 -177 304zM498 -117h225v-225h-225v225zM498 -467h225v-225h-225v225z " />
<glyph unicode="&#x67b;" arabic-form="final" d="M69 320q0 100 29 186h282q-28 -80 -28 -166q0 -64 103 -109q38 -16 138 -16q50 0 127 23q85 24 122 62q42 42 42 123q0 86 -16 117h266q19 -75 19 -165q0 -59 24 -110q19 -40 43 -40h33v-225h-75q-65 0 -100 27q-55 46 -62 78q-36 -39 -153 -82t-260 -43q-216 0 -333 41 q-201 70 -201 299zM452 -117h225v-225h-225v225zM452 -467h225v-225h-225v225z" />
<glyph unicode="&#x67b;" arabic-form="initial" d="M-36 0v225h174q235 0 279 44q49 49 49 155v176h284v-176q0 -228 -92 -338q-72 -86 -465 -86h-229zM472 -89h225v-225h-225v225zM472 -439h225v-225h-225v225z" />
<glyph unicode="&#x67b;" arabic-form="medial" d="M-32 0v225h240q161 0 205 44q49 49 49 155v217h290v-217q0 -106 49 -155q44 -44 207 -44h257v-225h-365q-227 0 -294 72q-64 -72 -291 -72h-347zM484 -61h225v-225h-225v225zM484 -411h225v-225h-225v225z" />
<glyph unicode="&#x67e;" arabic-form="isolated" d="M27 320q0 84 25 186h276q-27 -110 -27 -186q0 -72 103 -120q51 -24 194 -24q124 0 234 68q117 73 117 160t-17 135h276q14 -90 14 -203q0 -141 -182 -284q-112 -88 -437 -88q-243 0 -399 52q-177 59 -177 304zM353 -117h225v-225h-225v225zM528 -467h225v-225h-225v225z M703 -117h225v-225h-225v225z" />
<glyph unicode="&#x67e;" arabic-form="final" d="M69 320q0 100 29 186h282q-28 -80 -28 -166q0 -64 103 -109q38 -16 138 -16q50 0 127 23q85 24 122 62q42 42 42 123q0 86 -16 117h266q19 -75 19 -165q0 -59 24 -110q19 -40 43 -40h33v-225h-75q-65 0 -100 27q-55 46 -62 78q-36 -39 -153 -82t-260 -43q-216 0 -333 41 q-201 70 -201 299zM324 -117h225v-225h-225v225zM499 -467h225v-225h-225v225zM674 -117h225v-225h-225v225z" />
<glyph unicode="&#x67e;" arabic-form="initial" d="M-36 0v225h174q235 0 279 44q49 49 49 155v176h284v-176q0 -228 -92 -338q-72 -86 -465 -86h-229zM320 -85h225v-225h-225v225zM495 -435h225v-225h-225v225zM670 -85h225v-225h-225v225z" />
<glyph unicode="&#x67e;" arabic-form="medial" d="M-32 0v225h240q161 0 205 44q49 49 49 155v217h290v-217q0 -106 49 -155q44 -44 207 -44h257v-225h-365q-227 0 -294 72q-64 -72 -291 -72h-347zM312 -85h225v-225h-225v225zM487 -435h225v-225h-225v225zM662 -85h225v-225h-225v225z" />
<glyph unicode="&#x680;" arabic-form="isolated" d="M27 320q0 84 25 186h276q-27 -110 -27 -186q0 -72 103 -120q51 -24 194 -24q124 0 234 68q117 73 117 160t-17 135h276q14 -90 14 -203q0 -141 -182 -284q-112 -88 -437 -88q-243 0 -399 52q-177 59 -177 304zM339 -145h225v-225h-225v225zM339 -495h225v-225h-225v225z M689 -145h225v-225h-225v225zM689 -495h225v-225h-225v225z" />
<glyph unicode="&#x680;" arabic-form="final" d="M69 320q0 100 29 186h282q-28 -80 -28 -166q0 -64 103 -109q38 -16 138 -16q50 0 127 23q85 24 122 62q42 42 42 123q0 86 -16 117h266q19 -75 19 -165q0 -59 24 -110q19 -40 43 -40h33v-225h-75q-65 0 -100 27q-55 46 -62 78q-36 -39 -153 -82t-260 -43q-216 0 -333 41 q-201 70 -201 299zM302 -97h225v-225h-225v225zM302 -447h225v-225h-225v225zM652 -97h225v-225h-225v225zM652 -447h225v-225h-225v225z" />
<glyph unicode="&#x680;" arabic-form="initial" d="M-36 0v225h174q235 0 279 44q49 49 49 155v176h284v-176q0 -228 -92 -338q-72 -86 -465 -86h-229zM286 -93h225v-225h-225v225zM286 -443h225v-225h-225v225zM636 -93h225v-225h-225v225zM636 -443h225v-225h-225v225z" />
<glyph unicode="&#x680;" arabic-form="medial" d="M-32 0v225h240q161 0 205 44q49 49 49 155v217h290v-217q0 -106 49 -155q44 -44 207 -44h257v-225h-365q-227 0 -294 72q-64 -72 -291 -72h-347zM324 -97h225v-225h-225v225zM324 -447h225v-225h-225v225zM674 -97h225v-225h-225v225zM674 -447h225v-225h-225v225z" />
<glyph unicode="&#x67a;" arabic-form="isolated" d="M27 320q0 84 25 186h276q-27 -110 -27 -186q0 -72 103 -120q51 -24 194 -24q124 0 234 68q117 73 117 160t-17 135h276q14 -90 14 -203q0 -141 -182 -284q-112 -88 -437 -88q-243 0 -399 52q-177 59 -177 304zM491 601v225h225v-225h-225zM491 951v225h225v-225h-225z " />
<glyph unicode="&#x67a;" arabic-form="final" d="M69 320q0 100 29 186h282q-28 -80 -28 -166q0 -64 103 -109q38 -16 138 -16q50 0 127 23q85 24 122 62q42 42 42 123q0 86 -16 117h266q19 -75 19 -165q0 -59 24 -110q19 -40 43 -40h33v-225h-75q-65 0 -100 27q-55 46 -62 78q-36 -39 -153 -82t-260 -43q-216 0 -333 41 q-201 70 -201 299zM501 583v225h225v-225h-225zM501 933v225h225v-225h-225z" />
<glyph unicode="&#x67a;" arabic-form="initial" d="M-36 0v225h174q235 0 279 44q49 49 49 155v176h284v-176q0 -228 -92 -338q-72 -86 -465 -86h-229zM500 724v225h225v-225h-225zM500 1074v225h225v-225h-225z" />
<glyph unicode="&#x67a;" arabic-form="medial" d="M-32 0v225h240q161 0 205 44q49 49 49 155v217h290v-217q0 -106 49 -155q44 -44 207 -44h257v-225h-365q-227 0 -294 72q-64 -72 -291 -72h-347zM495 757v225h225v-225h-225zM495 1107v225h225v-225h-225z" />
<glyph unicode="&#x67f;" arabic-form="isolated" d="M27 320q0 84 25 186h276q-27 -110 -27 -186q0 -72 103 -120q51 -24 194 -24q124 0 234 68q117 73 117 160t-17 135h276q14 -90 14 -203q0 -141 -182 -284q-112 -88 -437 -88q-243 0 -399 52q-177 59 -177 304zM327 654v225h225v-225h-225zM327 1004v225h225v-225h-225z M677 654v225h225v-225h-225zM677 1004v225h225v-225h-225z" />
<glyph unicode="&#x67f;" arabic-form="final" d="M69 320q0 100 29 186h282q-28 -80 -28 -166q0 -64 103 -109q38 -16 138 -16q50 0 127 23q85 24 122 62q42 42 42 123q0 86 -16 117h266q19 -75 19 -165q0 -59 24 -110q19 -40 43 -40h33v-225h-75q-65 0 -100 27q-55 46 -62 78q-36 -39 -153 -82t-260 -43q-216 0 -333 41 q-201 70 -201 299zM309 662v225h225v-225h-225zM309 1012v225h225v-225h-225zM659 662v225h225v-225h-225zM659 1012v225h225v-225h-225z" />
<glyph unicode="&#x67f;" arabic-form="initial" d="M-36 0v225h174q235 0 279 44q49 49 49 155v176h284v-176q0 -228 -92 -338q-72 -86 -465 -86h-229zM315 765v225h225v-225h-225zM315 1115v225h225v-225h-225zM665 765v225h225v-225h-225zM665 1115v225h225v-225h-225z" />
<glyph unicode="&#x67f;" arabic-form="medial" d="M-32 0v225h240q161 0 205 44q49 49 49 155v217h290v-217q0 -106 49 -155q44 -44 207 -44h257v-225h-365q-227 0 -294 72q-64 -72 -291 -72h-347zM320 800v225h225v-225h-225zM320 1150v225h225v-225h-225zM670 800v225h225v-225h-225zM670 1150v225h225v-225h-225z" />
<glyph unicode="&#x679;" arabic-form="isolated" d="M27 320q0 84 25 186h276q-27 -110 -27 -186q0 -72 103 -120q51 -24 194 -24q124 0 234 68q117 73 117 160t-17 135h276q14 -90 14 -203q0 -141 -182 -284q-112 -88 -437 -88q-243 0 -399 52q-177 59 -177 304zM381 686v100h96v460h128v-344q56 76 135 76q83 0 128 -46 q38 -40 38 -92q0 -72 -81 -120q-55 -34 -111 -34h-237h-96zM641 786h56q34 0 54 12q27 20 27 40q0 14 -9 26t-32 12q-34 0 -61 -38q-31 -46 -35 -52z" />
<glyph unicode="&#x679;" arabic-form="final" d="M69 320q0 100 29 186h282q-28 -80 -28 -166q0 -64 103 -109q38 -16 138 -16q50 0 127 23q85 24 122 62q42 42 42 123q0 86 -16 117h266q19 -75 19 -165q0 -59 24 -110q19 -40 43 -40h33v-225h-75q-65 0 -100 27q-55 46 -62 78q-36 -39 -153 -82t-260 -43q-216 0 -333 41 q-201 70 -201 299zM377 727v100h96v460h128v-344q56 76 135 76q83 0 128 -46q38 -40 38 -92q0 -72 -81 -120q-55 -34 -111 -34h-237h-96zM637 827h56q34 0 54 12q27 20 27 40q0 14 -9 26t-32 12q-34 0 -61 -38q-31 -46 -35 -52z" />
<glyph unicode="&#x679;" arabic-form="initial" d="M-36 0v225h174q235 0 279 44q49 49 49 155v176h284v-176q0 -228 -92 -338q-72 -86 -465 -86h-229zM352 788v100h96v460h128v-344q56 76 135 76q83 0 128 -46q38 -40 38 -92q0 -72 -81 -120q-55 -34 -111 -34h-237h-96zM612 888h56q34 0 54 12q27 20 27 40q0 14 -9 26 t-32 12q-34 0 -61 -38q-31 -46 -35 -52z" />
<glyph unicode="&#x679;" arabic-form="medial" d="M-32 0v225h240q161 0 205 44q49 49 49 155v217h290v-217q0 -106 49 -155q44 -44 207 -44h257v-225h-365q-227 0 -294 72q-64 -72 -291 -72h-347zM362 783v100h96v460h128v-344q56 76 135 76q83 0 128 -46q38 -40 38 -92q0 -72 -81 -120q-55 -34 -111 -34h-237h-96z M622 883h56q34 0 54 12q27 20 27 40q0 14 -9 26t-32 12q-34 0 -61 -38q-31 -46 -35 -52z" />
<glyph unicode="&#x6a4;" arabic-form="isolated" d="M-106 314q-1 138 34 230h288q-36 -94 -36 -230q0 -127 120 -172q90 -34 149 -34q129 0 243 24q101 21 156 60q51 41 64 60q-31 -16 -98 -16q-146 0 -238 72q-124 97 -124 232q0 99 16 140q45 115 164 168q113 50 211 50q96 0 185 -40q77 -35 170 -171q35 -52 35 -191 q0 -286 -125 -440q-77 -94 -316 -148q-178 -40 -343 -40q-154 0 -277 41q-275 91 -278 405zM560 994v225h225v-225h-225zM735 1344v225h225v-225h-225zM738 560q0 -66 37 -91q38 -25 82 -25q63 0 95 48q20 30 20 68q0 45 -44 80q-31 25 -75 24q-59 -1 -92 -43 q-23 -30 -23 -61zM910 994v225h225v-225h-225z" />
<glyph unicode="&#x6a4;" arabic-form="final" d="M-178 314q0 136 31 231h266q-33 -129 -33 -231q0 -106 116 -152q71 -30 202 -30q85 0 240 60q-47 25 -114 110q-85 106 -85 192q0 111 20 154q43 92 162 147q101 47 219 47q151 0 234 -50q109 -67 128 -100q40 -70 40 -218q0 -128 -90 -248h16h79v-226h-154 q-135 0 -215 26q-29 -23 -156 -60q-216 -62 -330 -62q-196 0 -328 54q-248 102 -248 356zM564 962v225h225v-225h-225zM730 488q0 -42 21 -76q49 -78 132 -115q87 65 87 163q0 34 -5 62q-5 36 -39 60q-34 25 -74 25q-24 0 -46 -10q-55 -28 -70 -71q-6 -20 -6 -38zM739 1312 v225h225v-225h-225zM914 962v225h225v-225h-225z" />
<glyph unicode="&#x6a4;" arabic-form="initial" d="M-20 0v225h241q237 0 291 31q69 40 83 56q38 44 21 76q-24 -35 -135 -35q-173 0 -257 67q-98 81 -98 216q0 45 8 96q23 148 173 217q78 36 203 36q132 0 210 -50q59 -38 112 -123q49 -79 49 -192q0 -256 -69 -400q-49 -107 -257 -181q-109 -39 -254 -39h-321zM200 1130 v225h225v-225h-225zM375 1480v225h225v-225h-225zM420 654q0 -48 33 -70q24 -15 49 -15q43 0 58 14q24 26 24 72q0 37 -39 66q-20 14 -45 14q-30 0 -56 -25q-24 -27 -24 -56zM550 1130v225h225v-225h-225z" />
<glyph unicode="&#x6a4;" arabic-form="medial" d="M-20 0v225h226q119 0 154 15q-61 25 -102 119q-20 46 -20 122q0 127 43 199q63 104 151 132q84 25 186 25q110 0 170 -21q148 -52 184 -140q27 -61 24 -195q-1 -58 -22 -122q-14 -43 -102 -115q42 -19 156 -19h225v-225h-315q-136 0 -322 57q-184 -57 -320 -57h-316z M342 984v225h225v-225h-225zM512 488q0 -35 24 -63q43 -50 80 -69q34 23 72 69q24 29 24 63q0 36 -13 67q-12 25 -43 45q-15 10 -40 10q-31 0 -47 -13q-25 -20 -37 -43q-20 -39 -20 -66zM517 1334v225h225v-225h-225zM692 984v225h225v-225h-225z" />
<glyph unicode="&#x6a6;" arabic-form="isolated" d="M-106 314q-1 138 34 230h288q-36 -94 -36 -230q0 -127 120 -172q90 -34 149 -34q129 0 243 24q101 21 156 60q51 41 64 60q-31 -16 -98 -16q-146 0 -238 72q-124 97 -124 232q0 99 16 140q45 115 164 168q113 50 211 50q96 0 185 -40q77 -35 170 -171q35 -52 35 -191 q0 -286 -125 -440q-77 -94 -316 -148q-178 -40 -343 -40q-154 0 -277 41q-275 91 -278 405zM568 1010v225h225v-225h-225zM568 1360v225h225v-225h-225zM738 560q0 -66 37 -91q38 -25 82 -25q63 0 95 48q20 30 20 68q0 45 -44 80q-31 25 -75 24q-59 -1 -92 -43 q-23 -30 -23 -61zM918 1010v225h225v-225h-225zM918 1360v225h225v-225h-225z" />
<glyph unicode="&#x6a6;" arabic-form="final" d="M-178 314q0 136 31 231h266q-33 -129 -33 -231q0 -106 116 -152q71 -30 202 -30q85 0 240 60q-47 25 -114 110q-85 106 -85 192q0 111 20 154q43 92 162 147q101 47 219 47q151 0 234 -50q109 -67 128 -100q40 -70 40 -218q0 -128 -90 -248h16h79v-226h-154 q-135 0 -215 26q-29 -23 -156 -60q-216 -62 -330 -62q-196 0 -328 54q-248 102 -248 356zM556 970v225h225v-225h-225zM556 1320v225h225v-225h-225zM730 488q0 -42 21 -76q49 -78 132 -115q87 65 87 163q0 34 -5 62q-5 36 -39 60q-34 25 -74 25q-24 0 -46 -10 q-55 -28 -70 -71q-6 -20 -6 -38zM906 970v225h225v-225h-225zM906 1320v225h225v-225h-225z" />
<glyph unicode="&#x6a6;" arabic-form="initial" d="M-20 0v225h241q237 0 291 31q69 40 83 56q38 44 21 76q-24 -35 -135 -35q-173 0 -257 67q-98 81 -98 216q0 45 8 96q23 148 173 217q78 36 203 36q132 0 210 -50q59 -38 112 -123q49 -79 49 -192q0 -256 -69 -400q-49 -107 -257 -181q-109 -39 -254 -39h-321zM220 1110 v225h225v-225h-225zM220 1460v225h225v-225h-225zM420 654q0 -48 33 -70q24 -15 49 -15q43 0 58 14q24 26 24 72q0 37 -39 66q-20 14 -45 14q-30 0 -56 -25q-24 -27 -24 -56zM570 1110v225h225v-225h-225zM570 1460v225h225v-225h-225z" />
<glyph unicode="&#x6a6;" arabic-form="medial" d="M-20 0v225h226q119 0 154 15q-61 25 -102 119q-20 46 -20 122q0 127 43 199q63 104 151 132q84 25 186 25q110 0 170 -21q148 -52 184 -140q27 -61 24 -195q-1 -58 -22 -122q-14 -43 -102 -115q42 -19 156 -19h225v-225h-315q-136 0 -322 57q-184 -57 -320 -57h-316z M322 964v225h225v-225h-225zM322 1314v225h225v-225h-225zM512 488q0 -35 24 -63q43 -50 80 -69q34 23 72 69q24 29 24 63q0 36 -13 67q-12 25 -43 45q-15 10 -40 10q-31 0 -47 -13q-25 -20 -37 -43q-20 -39 -20 -66zM672 964v225h225v-225h-225zM672 1314v225h225v-225 h-225z" />
<glyph unicode="&#x684;" arabic-form="isolated" d="M88 623v224q276 64 471 63q292 -1 488 -54v-194q-267 13 -451 -142q-220 -186 -220 -460q0 -171 124 -265q105 -79 292 -79q204 0 405 112v-229q-150 -98 -400 -99q-389 -2 -558 194q-131 152 -131 374q0 251 144 452q49 68 184 172q-39 3 -118 -9q-135 -19 -230 -60z M691 102h225v-225h-225v225zM691 227v225h225v-225h-225z" />
<glyph unicode="&#x684;" arabic-form="final" d="M1 407v224q276 64 471 63q292 -1 488 -54v-194l-32 6q-1 -62 17 -84q50 -66 147 -113q64 -30 141 -30h40v-225h-49q-132 0 -274 55q-108 42 -200 180q-62 95 -62 203q-109 -72 -179 -134q-220 -195 -220 -460q0 -171 124 -265q105 -79 292 -79q204 0 405 112v-229 q-150 -98 -400 -99q-389 -2 -558 194q-131 152 -131 374q0 251 144 452q49 68 184 172q-39 3 -118 -9q-140 -21 -230 -60zM499 -33v225h225v-225h-225zM499 -158h225v-225h-225v225z" />
<glyph unicode="&#x684;" arabic-form="initial" d="M-20 0v225h100q119 0 320 79q125 49 216 112q59 41 223 125q-43 13 -174 43q-57 13 -265 31q-82 7 -243 1v243q72 7 147 8q169 0 334 -35q241 -52 478 -154v-242q-48 -31 -176 -84q-55 -23 -200 -140q-104 -84 -280 -152q-159 -60 -352 -60h-128zM281 -67h225v-225h-225 v225zM281 -417h225v-225h-225v225z" />
<glyph unicode="&#x684;" arabic-form="medial" d="M-20 0v225h100q119 0 320 79q125 49 216 112q59 41 223 125q-43 13 -174 43q-57 13 -265 31q-82 7 -243 1v243q72 7 147 8q159 2 334 -35q241 -52 478 -154v-242q-38 -21 -93 -44q23 -41 55 -76q81 -91 138 -91h60v-225h-80q-160 0 -281 163q-60 82 -80 122 q-27 -24 -95 -73q-127 -93 -280 -152q-155 -60 -352 -60h-128zM525 25h225v-225h-225v225zM525 -325h225v-225h-225v225z" />
<glyph unicode="&#x683;" arabic-form="isolated" d="M88 623v224q276 64 471 63q292 -1 488 -54v-194q-267 13 -451 -142q-220 -186 -220 -460q0 -171 124 -265q105 -79 292 -79q204 0 405 112v-229q-150 -98 -400 -99q-389 -2 -558 194q-131 152 -131 374q0 251 144 452q49 68 184 172q-39 3 -118 -9q-135 -19 -230 -60z M518 25v225h225v-225h-225zM868 25v225h225v-225h-225z" />
<glyph unicode="&#x683;" arabic-form="final" d="M1 407v224q276 64 471 63q292 -1 488 -54v-194l-32 6q-1 -62 17 -84q50 -66 147 -113q64 -30 141 -30h40v-225h-49q-132 0 -274 55q-108 42 -200 180q-62 95 -62 203q-109 -72 -179 -134q-220 -195 -220 -460q0 -171 124 -265q105 -79 292 -79q204 0 405 112v-229 q-150 -98 -400 -99q-389 -2 -558 194q-131 152 -131 374q0 251 144 452q49 68 184 172q-39 3 -118 -9q-140 -21 -230 -60zM426 -62h225v-225h-225v225zM776 -62h225v-225h-225v225z" />
<glyph unicode="&#x683;" arabic-form="initial" d="M-20 0v225h100q119 0 320 79q125 49 216 112q59 41 223 125q-43 13 -174 43q-57 13 -265 31q-82 7 -243 1v243q72 7 147 8q169 0 334 -35q241 -52 478 -154v-242q-48 -31 -176 -84q-55 -23 -200 -140q-104 -84 -280 -152q-159 -60 -352 -60h-128zM108 -87h225v-225h-225 v225zM458 -87h225v-225h-225v225z" />
<glyph unicode="&#x683;" arabic-form="medial" d="M-20 0v225h100q119 0 320 79q125 49 216 112q59 41 223 125q-43 13 -174 43q-57 13 -265 31q-82 7 -243 1v243q72 7 147 8q159 2 334 -35q241 -52 478 -154v-242q-38 -21 -93 -44q23 -41 55 -76q81 -91 138 -91h60v-225h-80q-160 0 -281 163q-60 82 -80 122 q-27 -24 -95 -73q-127 -93 -280 -152q-155 -60 -352 -60h-128zM320 -47h225v-225h-225v225zM670 -47h225v-225h-225v225z" />
<glyph unicode="&#x686;" arabic-form="isolated" d="M88 623v224q276 64 471 63q292 -1 488 -54v-194q-267 13 -451 -142q-220 -186 -220 -460q0 -171 124 -265q105 -79 292 -79q204 0 405 112v-229q-150 -98 -400 -99q-389 -2 -558 194q-131 152 -131 374q0 251 144 452q49 68 184 172q-39 3 -118 -9q-135 -19 -230 -60z M514 162v225h225v-225h-225zM689 37h225v-225h-225v225zM864 162v225h225v-225h-225z" />
<glyph unicode="&#x686;" arabic-form="final" d="M1 407v224q274 64 471 63q294 -1 488 -54v-194l-32 6q-1 -62 17 -84q50 -66 147 -113q64 -30 141 -30h40v-225h-49q-132 0 -274 55q-17 6 -33 15v-202h-225v225h189q-69 49 -131 142q-62 95 -62 203q-109 -72 -179 -134q-220 -195 -220 -460q0 -171 124 -265 q105 -79 292 -79q204 0 405 112v-229q-150 -98 -400 -99q-389 -2 -558 194q-131 152 -131 374q0 251 144 452q49 68 184 172q-39 3 -118 -9q-140 -21 -230 -60zM390 93h225v-225h-225v225zM541 -209h225v-225h-225v225z" />
<glyph unicode="&#x686;" arabic-form="initial" d="M-20 0v225h100q119 0 320 79q125 49 216 112q59 41 223 125q-43 13 -174 43q-57 13 -265 31q-82 7 -243 1v243q72 7 147 8q169 0 334 -35q241 -52 478 -154v-242q-48 -31 -176 -84q-55 -23 -200 -140q-104 -84 -280 -152q-159 -60 -352 -60h-128zM168 -83h225v-225h-225 v225zM343 -433h225v-225h-225v225zM518 -83h225v-225h-225v225z" />
<glyph unicode="&#x686;" arabic-form="medial" d="M-20 0v225h100q119 0 320 79q125 49 216 112q59 41 223 125q-43 13 -174 43q-57 13 -265 31q-82 7 -243 1v243q72 7 147 8q159 2 334 -35q241 -52 478 -154v-242q-38 -21 -93 -44q23 -41 55 -76q81 -91 138 -91h60v-225h-80q-160 0 -281 163q-60 82 -80 122 q-27 -24 -95 -73q-127 -93 -280 -152q-155 -60 -352 -60h-128zM320 -63h225v-225h-225v225zM495 -413h225v-225h-225v225zM670 -63h225v-225h-225v225z" />
<glyph unicode="&#x687;" arabic-form="isolated" d="M88 623v224q276 64 471 63q292 -1 488 -54v-194q-267 13 -451 -142q-220 -186 -220 -460q0 -171 124 -265q105 -79 292 -79q204 0 405 112v-229q-150 -98 -400 -99q-389 -2 -558 194q-131 152 -131 374q0 251 144 452q49 68 184 172q-39 3 -118 -9q-135 -19 -230 -60z M550 62h225v-225h-225v225zM550 187v225h225v-225h-225zM900 62h225v-225h-225v225zM900 187v225h225v-225h-225z" />
<glyph unicode="&#x687;" arabic-form="final" d="M1 407v224q274 64 471 63q294 -1 488 -54v-194l-32 6q-1 -62 17 -84q50 -66 147 -113q64 -30 141 -30h40v-225q-169 -7 -325 56v-127h-225v225h90q-32 35 -63 81q-62 95 -62 203q-109 -72 -179 -134q-220 -195 -220 -460q0 -171 124 -265q105 -79 292 -79q204 0 405 112 v-229q-150 -98 -400 -99q-389 -2 -558 194q-131 152 -131 374q0 251 144 452q49 68 184 172q-39 3 -118 -9q-140 -21 -230 -60zM421 -71v225h225v-225h-225zM421 -148h225v-225h-225v225zM723 -148h225v-225h-225v225z" />
<glyph unicode="&#x687;" arabic-form="initial" d="M-20 0v225h100q119 0 320 79q125 49 216 112q59 41 223 125q-43 13 -174 43q-57 13 -265 31q-82 7 -243 1v243q72 7 147 8q169 0 334 -35q241 -52 478 -154v-242q-48 -31 -176 -84q-55 -23 -200 -140q-104 -84 -280 -152q-159 -60 -352 -60h-128zM252 -55h225v-225h-225 v225zM252 -405h225v-225h-225v225zM602 -55h225v-225h-225v225zM602 -405h225v-225h-225v225z" />
<glyph unicode="&#x687;" arabic-form="medial" d="M-20 0v225h100q119 0 320 79q125 49 216 112q59 41 223 125q-43 13 -174 43q-57 13 -265 31q-82 7 -243 1v243q72 7 147 8q159 2 334 -35q241 -52 478 -154v-242q-38 -21 -93 -44q23 -41 55 -76q81 -91 138 -91h60v-225h-80q-160 0 -281 163q-60 82 -80 122 q-27 -24 -95 -73q-127 -93 -280 -152q-155 -60 -352 -60h-128zM340 -63h225v-225h-225v225zM340 -413h225v-225h-225v225zM690 -63h225v-225h-225v225zM690 -413h225v-225h-225v225z" />
<glyph unicode="&#x698;" arabic-form="isolated" d="M-52 -259q453 0 664 128q230 139 255 285q10 58 10 130q0 126 -53 262h284q50 -118 50 -250q0 -72 -8 -144q-36 -310 -422 -512q-257 -143 -780 -144v245zM659 710v225h225v-225h-225zM834 1060v225h225v-225h-225zM1009 710v225h225v-225h-225z" />
<glyph unicode="&#x698;" arabic-form="final" d="M-160 -256q453 0 664 128q230 139 255 286q10 58 10 130q0 126 -53 262h284q25 -50 33 -102q19 -118 57 -178q30 -45 103 -45h60v-225h-115q-112 0 -130 22q-88 -219 -388 -378q-269 -143 -780 -144v244zM539 710v225h225v-225h-225zM714 1060v225h225v-225h-225z M889 710v225h225v-225h-225z" />
<glyph unicode="&#x691;" arabic-form="isolated" d="M-52 -259q453 0 664 128q230 139 255 285q10 58 10 130q0 126 -53 262h284q50 -118 50 -250q0 -72 -8 -144q-36 -310 -422 -512q-257 -143 -780 -144v245zM686 694v100h96v460h128v-344q56 76 135 76q83 0 128 -46q38 -40 38 -92q0 -72 -81 -120q-55 -34 -111 -34h-237 h-96zM946 794h56q34 0 54 12q27 20 27 40q0 14 -9 26t-32 12q-34 0 -61 -38q-31 -46 -35 -52z" />
<glyph unicode="&#x691;" arabic-form="final" d="M-160 -256q453 0 664 128q230 139 255 286q10 58 10 130q0 126 -53 262h284q25 -50 33 -102q19 -118 57 -178q30 -45 103 -45h60v-225h-115q-112 0 -130 22q-88 -219 -388 -378q-269 -143 -780 -144v244zM578 723v100h96v460h128v-344q56 76 135 76q83 0 128 -46 q38 -40 38 -92q0 -72 -81 -120q-55 -34 -111 -34h-237h-96zM838 823h56q34 0 54 12q27 20 27 40q0 14 -9 26t-32 12q-34 0 -61 -38q-31 -46 -35 -52z" />
<glyph unicode="&#x6a9;" arabic-form="isolated" d="M10 308q0 166 44 230h273q-38 -94 -38 -230q0 -110 121 -174q49 -26 140 -26q120 0 192 34q94 46 133 112q52 88 52 142q0 93 -53 162l-156 202q-33 43 -52 90q-18 47 -18 96q0 57 34 108q49 74 124 134l567 456v-324l-378 -318q-57 -48 -57 -74q0 -49 32 -90l126 -160 q120 -152 120 -276q0 -222 -104 -332q-87 -93 -198 -144q-104 -48 -354 -48q-112 0 -220 32q-330 98 -330 398z" />
<glyph unicode="&#x6a9;" arabic-form="final" d="M-146 308q0 166 44 230h273q-38 -94 -38 -230q0 -110 121 -174q49 -26 140 -26q120 0 192 34q93 44 133 112q52 88 52 142q0 44 -53 162l-91 202q-30 66 -39 100q-18 67 -18 96q0 64 34 108q71 92 111 124l567 456v-298l-378 -318q-57 -48 -57 -100q0 -19 32 -90 l247 -550q28 -63 73 -63h82v-225h-84q-225 0 -255 33l-35 39q-10 -76 -149 -146q-96 -48 -354 -48q-112 0 -220 32q-330 98 -330 398z" />
<glyph unicode="&#x6a9;" arabic-form="initial" d="M-20 0v225h402q152 0 193 92q16 36 16 72q0 40 -54 106l-257 315q-114 139 -114 210q0 30 10 68q29 109 146 158l745 310v-268l-506 -204q-94 -37 -89 -79q4 -37 78 -125l222 -265q102 -121 102 -246q0 -113 -62 -214q-94 -155 -410 -155h-422z" />
<glyph unicode="&#x6a9;" arabic-form="medial" d="M-30 0v225h430q152 0 193 92q16 36 16 72q0 40 -54 106l-257 315q-114 139 -114 210q0 30 10 68q29 109 146 158l745 310v-268l-506 -204q-94 -37 -89 -79q4 -36 78 -125l496 -598q21 -26 60 -40q44 -16 100 -16h46v-226h-82q-225 0 -305 89l-67 75l-24 -34 q-86 -130 -372 -130h-450z" />
<glyph unicode="&#x6af;" arabic-form="isolated" d="M10 308q0 166 44 230h273q-38 -94 -38 -230q0 -110 121 -174q49 -26 140 -26q120 0 192 34q94 46 133 112q52 88 52 142q0 93 -53 162l-156 202q-33 43 -52 90q-18 47 -18 96q0 57 34 108q49 74 124 134l567 456v-324l-378 -318q-57 -48 -57 -74q0 -49 32 -90l126 -160 q120 -152 120 -276q0 -222 -104 -332q-87 -93 -198 -144q-104 -48 -354 -48q-112 0 -220 32q-330 98 -330 398zM684 1224v261l695 557v-260z" />
<glyph unicode="&#x6af;" arabic-form="final" d="M-146 308q0 166 44 230h273q-38 -94 -38 -230q0 -110 121 -174q49 -26 140 -26q120 0 192 34q93 44 133 112q52 88 52 142q0 44 -53 162l-91 202q-30 66 -39 100q-18 67 -18 96q0 64 34 108q71 92 111 124l567 456v-298l-378 -318q-57 -48 -57 -100q0 -19 32 -90 l247 -550q28 -63 73 -63h82v-225h-84q-225 0 -255 33l-35 39q-10 -76 -149 -146q-96 -48 -354 -48q-112 0 -220 32q-330 98 -330 398zM596 1228v261l695 557v-260z" />
<glyph unicode="&#x6af;" arabic-form="initial" d="M-20 0v225h402q152 0 193 92q16 36 16 72q0 40 -54 106l-257 315q-114 139 -114 210q0 30 10 68q29 109 146 158l745 310v-268l-506 -204q-94 -37 -89 -79q4 -37 78 -125l222 -265q102 -121 102 -246q0 -113 -62 -214q-94 -155 -410 -155h-422zM143 1312v254l924 404 v-254z" />
<glyph unicode="&#x6af;" arabic-form="medial" d="M-30 0v225h430q152 0 193 92q16 36 16 72q0 40 -54 106l-257 315q-114 139 -114 210q0 30 10 68q29 109 146 158l745 310v-268l-506 -204q-94 -37 -89 -79q4 -36 78 -125l496 -598q21 -26 60 -40q44 -16 100 -16h46v-226h-82q-225 0 -305 89l-67 75l-24 -34 q-86 -130 -372 -130h-450zM156 1312v254l924 404v-254z" />
<glyph unicode="&#x6ba;" arabic-form="isolated" d="M19 126q0 172 49 354h288q-38 -141 -40 -316q-2 -131 124 -204q76 -44 143 -44q105 0 147 20q114 54 150 157q34 98 34 194q0 301 -46 401h292q40 -159 40 -433q0 -214 -84 -363q-60 -106 -212 -176q-102 -47 -321 -47q-164 0 -295 63q-269 128 -269 394z" />
<glyph unicode="&#x6ba;" arabic-form="final" d="M-85 -38q0 172 49 354h288q-38 -141 -40 -316q-2 -131 124 -204q76 -44 143 -44q105 0 147 20q114 54 150 157q34 98 34 194q0 301 -46 401h292q10 -32 23 -148q7 -56 53 -120q22 -31 70 -31h52v-225h-94q-62 0 -67 16q-12 -166 -81 -288q-60 -106 -212 -176 q-102 -47 -321 -47q-164 0 -295 63q-269 130 -269 394z" />
<glyph unicode="&#x6be;" arabic-form="isolated" d="M-95 244q0 35 10 68h273q-8 -30 -8 -42q0 -25 39 -39q25 -9 64 -6q57 4 79 4q-34 67 -50 140q-18 81 -18 142q0 69 42 151q37 72 105 111q-40 12 -61 15v232q307 -59 540 -262q236 -206 299 -439q14 -52 14 -109q0 -114 -61 -184q-98 -113 -308 -113q-102 0 -196 35 q-69 26 -130 69q-83 -17 -225 -17q-227 0 -287 34q-121 68 -121 210zM544 505q0 -30 7 -67q10 -53 50 -114q17 17 29 36q39 60 39 133q0 28 -15 75q-12 38 -40 38q-32 0 -48 -31q-22 -43 -22 -70zM776 148q32 -16 80 -17q109 0 125 67q7 30 7 63q0 30 -33 108q-16 39 -50 84 q2 -95 -30 -169q-35 -80 -99 -136z" />
<glyph unicode="&#x6be;" arabic-form="final" d="M-95 244q0 35 10 68h273q-8 -30 -8 -42q0 -25 39 -39q29 -10 64 -6q37 4 105 4q-56 47 -76 140q-18 81 -18 142q0 69 42 151q37 72 105 111q-40 12 -61 15v232q325 -62 540 -262q256 -237 299 -425q15 -66 14 -108h107v-225h-1027q-227 0 -287 34q-121 68 -121 210z M544 505q1 -2 7 -67q5 -53 65 -92q24 27 28 37q25 55 25 110q0 28 -15 75q-12 38 -40 38q-32 0 -48 -31q-29 -57 -22 -70zM852 235q54 -17 80 -17q49 -1 53 14q7 30 0 63q-1 4 -30 74q-16 39 -50 84q2 -112 -30 -169q-23 -41 -23 -49z" />
<glyph unicode="&#x6be;" arabic-form="initial" d="M-20 0v225h145q42 0 79 4q-34 67 -50 140q-18 81 -18 142q0 69 42 151q37 72 105 111q-40 12 -61 15v232q307 -59 540 -262q237 -209 299 -439q14 -52 14 -109q0 -114 -61 -184q-101 -113 -308 -113q-102 0 -196 35q-69 26 -130 69q-83 -17 -225 -17h-175zM386 505 q0 -30 7 -67q10 -53 50 -114q17 17 29 36q39 60 39 133q0 28 -15 75q-12 38 -40 38q-32 0 -48 -31q-22 -43 -22 -70zM618 148q32 -16 80 -17q109 0 125 67q7 30 7 63q0 30 -33 108q-16 39 -50 84q2 -95 -30 -169q-35 -80 -99 -136z" />
<glyph unicode="&#x6be;" arabic-form="medial" d="M-38 0v225h430q-60 51 -80 144q-18 81 -18 142q0 69 42 151q37 72 105 111q-40 12 -61 15v232q325 -62 540 -262q256 -237 299 -425q15 -66 14 -108h107v-225h-1378zM544 505q1 -2 7 -67q5 -53 65 -92q24 27 28 37q25 55 25 110q0 28 -15 75q-12 38 -40 38q-32 0 -48 -31 q-29 -57 -22 -70zM852 235q54 -17 80 -17q49 -1 53 14q7 30 0 63q-1 4 -30 74q-16 39 -50 84q2 -112 -30 -169q-23 -41 -23 -49z" />
<glyph unicode="&#x649;" arabic-form="initial" d="M-36 0v225h174q235 0 279 44q49 49 49 155v176h284v-176q0 -228 -92 -338q-72 -86 -465 -86h-229z" />
<glyph unicode="&#x649;" arabic-form="medial" d="M-32 0v225h240q161 0 205 44q49 49 49 155v217h290v-217q0 -106 49 -155q44 -44 207 -44h257v-225h-365q-227 0 -294 72q-64 -72 -291 -72h-347z" />
<glyph unicode="&#x6cc;" arabic-form="isolated" d="M0 122q0 117 63 230h283q-66 -131 -64 -230q2 -159 91 -182q75 -20 158 -20q139 0 228 35q86 34 130 91q52 66 53 117q0 47 -16 73q-34 54 -142 70q-228 32 -226 273q2 176 123 246q104 60 219 60q227 0 279 -99q54 -105 54 -222h-269q0 60 -14 74q-37 35 -71 34 q-25 -1 -51 -26q-28 -30 -28 -60q0 -75 125 -100q194 -39 276 -179q32 -55 32 -152q0 -126 -53 -204q-104 -151 -208 -209q-164 -92 -453 -92q-198 0 -319 60q-200 99 -200 412z" />
<glyph unicode="&#x6cc;" arabic-form="final" d="M-79 18q-6 92 30 230h280q-26 -80 -26 -196q1 -110 110 -132q60 -12 112 -13q57 0 159 22q44 10 103 47q54 35 54 60t-17 40q-20 17 -55 53q-47 48 -47 146q0 106 49 173q47 65 125 92q44 15 140 14q86 0 150 -50q73 -58 95 -148q30 -131 58 -131h12v-225h-35 q-172 0 -216 172q-43 170 -94 165q-13 -1 -24 -15q-14 -18 -14 -36q0 -12 42 -54q76 -76 76 -184q0 -146 -62 -206q-75 -72 -186 -123q-154 -71 -311 -71q-122 0 -268 36q-223 56 -240 334z" />
<glyph unicode="&#x6cc;" arabic-form="initial" d="M-36 0v225h174q235 0 279 44q49 49 49 155v176h284v-176q0 -228 -92 -338q-72 -86 -465 -86h-229zM307 -75h225v-225h-225v225zM657 -75h225v-225h-225v225z" />
<glyph unicode="&#x6cc;" arabic-form="medial" d="M-32 0v225h240q161 0 205 44q49 49 49 155v217h290v-217q0 -106 49 -155q44 -44 207 -44h257v-225h-365q-227 0 -294 72q-64 -72 -291 -72h-347zM319 -75h225v-225h-225v225zM669 -75h225v-225h-225v225z" />
<glyph unicode="&#xfe70;" arabic-form="isolated" d="M304 1152v170l624 172v-170zM304 1406v170l624 172v-170z" />
<glyph unicode="&#xfe71;" arabic-form="medial" d="M-32 0v225h1297v-225h-1297zM304 1152v170l624 172v-170zM304 1406v170l624 172v-170z" />
<glyph unicode="&#xfe72;" arabic-form="isolated" d="M228 1513h160q-3 -98 20 -153q36 -83 112 -83q58 0 106 58q32 40 52 100q-88 18 -140 75q-48 52 -48 120q0 92 63 140q52 40 129 40q94 0 142 -39q63 -51 63 -154q0 -39 -5 -58q18 -1 52 -1v-160l-97 2q-41 -109 -90 -165q-90 -104 -230 -104q-93 0 -155 34 q-71 40 -111 157q-22 65 -23 191zM653 1629q0 -35 68 -49q6 20 6 42q0 42 -38 42q-36 0 -36 -35z" />
<glyph unicode="&#xfe74;" arabic-form="isolated" d="M304 -180l624 172v-170l-624 -172v170zM304 -434l624 172v-170l-624 -172v170z" />
<glyph unicode="&#xfe76;" arabic-form="isolated" d="M304 1152v170l624 172v-170z" />
<glyph unicode="&#xfe77;" arabic-form="medial" d="M-32 0v225h1297v-225h-1297zM304 1152v170l624 172v-170z" />
<glyph unicode="&#xfe78;" arabic-form="isolated" d="M298 1188v151q116 18 202 50q70 26 121 63q-53 25 -83 58q-48 52 -48 120q0 92 63 140q52 40 129 40q95 -2 142 -39q63 -51 63 -154q0 -27 -8 -58q18 -1 55 -1v-160q-15 0 -92 2q-20 1 -39 3q-40 -49 -101 -92q-148 -107 -404 -123zM653 1629q0 -36 65 -49q9 20 9 42 q0 42 -38 42q-36 0 -36 -35z" />
<glyph unicode="&#xfe79;" arabic-form="medial" d="M-32 0v225h1297v-225h-1297zM298 1188v151q116 18 202 50q70 26 121 63q-53 25 -83 58q-48 52 -48 120q0 92 63 140q52 40 129 40q95 -2 142 -39q63 -51 63 -154q0 -27 -8 -58q18 -1 55 -1v-160q-15 0 -92 2q-20 1 -39 3q-40 -49 -101 -92q-148 -107 -404 -123zM653 1629 q0 -36 65 -49q9 20 9 42q0 42 -38 42q-36 0 -36 -35z" />
<glyph unicode="&#xfe7a;" arabic-form="isolated" d="M304 -180l624 172v-170l-624 -172v170z" />
<glyph unicode="&#xfe7b;" arabic-form="medial" d="M-32 0v225h1297v-225h-1297zM304 -180l624 172v-170l-624 -172v170z" />
<glyph unicode="&#xfe7c;" arabic-form="isolated" d="M254 1451q0 109 16 207h147q-12 -125 -11 -181q2 -62 25 -97q25 -38 69 -5q36 26 40 173q2 82 2 171h147q-1 -36 3 -90q11 -182 63 -180q71 1 71 159q0 128 -10 172h154q12 -73 9 -189q-4 -134 -27 -187q-43 -92 -179 -110q-64 -8 -102 24q-35 29 -39 56q-16 -50 -44 -86 q-61 -78 -130 -78q-115 -1 -170 80q-34 50 -34 161z" />
<glyph unicode="&#xfe7d;" arabic-form="medial" d="M-32 0v225h1297v-225h-1297zM254 1451q0 109 16 207h147q-12 -125 -11 -181q2 -62 25 -97q25 -38 69 -5q36 26 40 173q2 82 2 171h147q-1 -36 3 -90q11 -182 63 -180q71 1 71 159q0 128 -10 172h154q12 -73 9 -189q-4 -134 -27 -187q-43 -92 -179 -110q-64 -8 -102 24 q-35 29 -39 56q-16 -50 -44 -86q-61 -78 -130 -78q-115 -1 -170 80q-34 50 -34 161z" />
<glyph unicode="&#xfe7e;" arabic-form="isolated" d="M315 1524.5q0 126.5 88 213.5t214.5 87t213 -87t86.5 -213.5t-86.5 -214.5t-213 -88t-214.5 88t-88 214.5zM495 1524q0 -52 34.5 -87t86.5 -35t87 35.5t35 86.5q0 50 -35 85.5t-87 35.5t-86.5 -35t-34.5 -86z" />
<glyph unicode="&#xfe7f;" arabic-form="medial" d="M-32 0v225h1297v-225h-1297zM315 1524.5q0 126.5 88 213.5t214.5 87t213 -87t86.5 -213.5t-86.5 -214.5t-213 -88t-214.5 88t-88 214.5zM495 1524q0 -52 34.5 -87t86.5 -35t87 35.5t35 86.5q0 50 -35 85.5t-87 35.5t-86.5 -35t-34.5 -86z" />
<glyph unicode="&#x621;" arabic-form="isolated" d="M416 608q0 75 20 172q15 75 140 156q83 54 213 54q110 0 200 -22v-232q-100 31 -170 29q-71 -2 -100 -27q-43 -38 -43 -126q0 -115 148 -152q57 -14 115 1q72 19 130 54v-243q-90 -60 -295 -140q-231 -90 -340 -105v234l206 63q-104 24 -160 100q-64 87 -64 184z" />
<glyph unicode="&#x622;" arabic-form="isolated" d="M224 1638v200l192 113q62 -61 186 -99q42 -13 96 -13q51 0 100 16q132 41 210 117v-200q-58 -48 -196 -93q-66 -22 -120 -22q-16 0 -110 17q-102 17 -160 82zM470 0v1556h292v-1556h-292z" />
<glyph unicode="&#x622;" arabic-form="final" d="M224 1638v200l192 113q62 -61 186 -99q42 -13 96 -13q51 0 100 16q132 41 210 117v-200q-58 -48 -196 -93q-66 -22 -120 -22q-16 0 -110 17q-102 17 -160 82zM539 412v1144h286v-1132q0 -106 49 -154q44 -44 224 -44h156v-226h-264q-284 0 -364 92q-87 101 -87 320z" />
<glyph unicode="&#x623;" arabic-form="isolated" d="M423 1927q0 68 20 104q29 55 65 70q67 28 120 28q72 0 136 -31v-121q-60 29 -130 29q-27 0 -43 -14q-23 -21 -23 -63q0 -60 90 -107l126 31v-129l-351 -100v124l84 28q-32 17 -60 53q-34 47 -34 98zM470 0v1556h292v-1556h-292z" />
<glyph unicode="&#x623;" arabic-form="final" d="M472 1927q0 68 20 104q29 55 65 70q67 28 120 28q72 0 136 -31v-121q-60 29 -130 29q-27 0 -43 -14q-23 -21 -23 -63q0 -60 90 -107l126 31v-129l-351 -100v124l84 28q-32 17 -60 53q-34 47 -34 98zM539 412v1144h286v-1132q0 -106 49 -154q44 -44 224 -44h156v-226h-264 q-284 0 -364 92q-87 101 -87 320z" />
<glyph unicode="&#x624;" arabic-form="isolated" d="M76 -256q465 0 576 60q188 102 229 199q-51 0 -163 10q-146 13 -236 67q-116 72 -116 235q0 247 211 337q57 24 165 24q185 0 257 -51q126 -91 155 -263q17 -102 17 -178q0 -285 -172 -468q-79 -84 -179 -130q-188 -86 -744 -86v244zM529 1067q0 68 20 104q29 55 65 70 q67 28 120 28q72 0 136 -31v-121q-60 29 -130 29q-27 0 -43 -14q-23 -21 -23 -63q0 -60 90 -107l126 31v-129l-351 -100v124l84 28q-32 17 -60 53q-34 47 -34 98zM660 318q0 -42 76 -70q60 -23 160 -23q0 131 -60 172q-37 25 -73 25q-54 0 -79 -35q-24 -33 -24 -69z" />
<glyph unicode="&#x624;" arabic-form="final" d="M0 -256q465 0 576 60q188 102 229 199q-51 0 -163 10q-146 13 -236 67q-116 70 -116 235q0 247 211 337q57 24 165 24q185 0 257 -51q126 -89 155 -263q13 -75 16 -137h159v-225h-178q-39 -164 -152 -284q-79 -84 -179 -130q-188 -86 -744 -86v244zM429 1063q0 68 20 104 q29 55 65 70q67 28 120 28q72 0 136 -31v-121q-60 29 -130 29q-27 0 -43 -14q-23 -21 -23 -63q0 -60 90 -107l126 31v-129l-351 -100v124l84 28q-32 17 -60 53q-34 47 -34 98zM584 318q0 -42 76 -70q60 -23 160 -23q0 131 -60 172q-37 25 -73 25q-54 0 -79 -35 q-24 -33 -24 -69z" />
<glyph unicode="&#x625;" arabic-form="isolated" d="M426 -298q0 68 20 104q29 55 65 70q67 28 120 28q72 0 136 -31v-121q-60 29 -130 29q-27 0 -43 -14q-23 -21 -23 -63q0 -60 90 -107l126 31v-129l-351 -100v124l84 28q-32 17 -60 53q-34 47 -34 98zM470 0v1556h292v-1556h-292z" />
<glyph unicode="&#x625;" arabic-form="final" d="M519 -298q0 68 20 104q29 55 65 70q67 28 120 28q72 0 136 -31v-121q-60 29 -130 29q-27 0 -43 -14q-23 -21 -23 -63q0 -60 90 -107l126 31v-129l-351 -100v124l84 28q-32 17 -60 53q-34 47 -34 98zM539 412v1144h286v-1132q0 -106 49 -154q44 -44 224 -44h156v-226h-264 q-284 0 -364 92q-87 101 -87 320z" />
<glyph unicode="&#x626;" arabic-form="isolated" d="M0 122q0 117 63 230h283q-66 -131 -64 -230q2 -159 91 -182q75 -20 158 -20q139 0 228 35q86 34 130 91q52 66 53 117q0 47 -16 73q-34 54 -142 70q-228 32 -226 273q2 176 123 246q104 60 219 60q227 0 279 -99q54 -105 54 -222h-269q0 60 -14 74q-37 35 -71 34 q-25 -1 -51 -26q-28 -30 -28 -60q0 -75 125 -100q194 -39 276 -179q32 -55 32 -152q0 -126 -53 -204q-104 -151 -208 -209q-164 -92 -453 -92q-198 0 -319 60q-200 99 -200 412zM162 1024q0 68 20 104q29 55 65 70q67 28 120 28q72 0 136 -31v-121q-60 29 -130 29 q-27 0 -43 -14q-23 -21 -23 -63q0 -60 90 -107l126 31v-129l-351 -100v124l84 28q-32 17 -60 53q-34 47 -34 98z" />
<glyph unicode="&#x626;" arabic-form="final" d="M-79 18q-6 92 30 230h280q-26 -80 -26 -196q1 -110 110 -132q60 -12 112 -13q57 0 159 22q44 10 103 47q54 35 54 60t-17 40q-20 17 -55 53q-47 48 -47 146q0 106 49 173q47 65 125 92q44 15 140 14q86 0 150 -50q73 -58 95 -148q30 -131 58 -131h12v-225h-35 q-172 0 -216 172q-43 170 -94 165q-13 -1 -24 -15q-14 -18 -14 -36q0 -12 42 -54q76 -76 76 -184q0 -146 -62 -206q-75 -72 -186 -123q-154 -71 -311 -71q-122 0 -268 36q-223 56 -240 334zM149 685q0 68 20 104q29 55 65 70q67 28 120 28q72 0 136 -31v-121q-60 29 -130 29 q-27 0 -43 -14q-23 -21 -23 -63q0 -60 90 -107l126 31v-129l-351 -100v124l84 28q-32 17 -60 53q-34 47 -34 98z" />
<glyph unicode="&#x626;" arabic-form="initial" d="M-36 0v225h174q235 0 279 44q49 49 49 155v176h284v-176q0 -228 -92 -338q-72 -86 -465 -86h-229zM411 1077q0 68 20 104q29 55 65 70q67 28 120 28q72 0 136 -31v-121q-60 29 -130 29q-27 0 -43 -14q-23 -21 -23 -63q0 -60 90 -107l126 31v-129l-351 -100v124l84 28 q-32 17 -60 53q-34 47 -34 98z" />
<glyph unicode="&#x626;" arabic-form="medial" d="M-32 0v225h240q161 0 205 44q49 49 49 155v217h290v-217q0 -106 49 -155q44 -44 207 -44h257v-225h-365q-227 0 -294 72q-64 -72 -291 -72h-347zM433 1077q0 68 20 104q29 55 65 70q67 28 120 28q72 0 136 -31v-121q-60 29 -130 29q-27 0 -43 -14q-23 -21 -23 -63 q0 -60 90 -107l126 31v-129l-351 -100v124l84 28q-32 17 -60 53q-34 47 -34 98z" />
<glyph unicode="&#x627;" arabic-form="isolated" d="M470 0v1556h292v-1556h-292z" />
<glyph unicode="&#x627;" arabic-form="final" d="M539 412v1144h286v-1132q0 -106 49 -154q44 -44 224 -44h156v-226h-264q-284 0 -364 92q-87 101 -87 320z" />
<glyph unicode="&#x628;" arabic-form="isolated" d="M27 320q0 84 25 186h276q-27 -110 -27 -186q0 -72 103 -120q51 -24 194 -24q124 0 234 68q117 73 117 160t-17 135h276q14 -90 14 -203q0 -141 -182 -284q-112 -88 -437 -88q-243 0 -399 52q-177 59 -177 304zM539 -125h225v-225h-225v225z" />
<glyph unicode="&#x628;" arabic-form="final" d="M69 320q0 100 29 186h282q-28 -80 -28 -166q0 -64 103 -109q38 -16 138 -16q50 0 127 23q85 24 122 62q42 42 42 123q0 86 -16 117h266q19 -75 19 -165q0 -59 24 -110q19 -40 43 -40h33v-225h-75q-65 0 -100 27q-55 46 -62 78q-36 -39 -153 -82t-260 -43q-216 0 -333 41 q-201 70 -201 299zM465 -125h225v-225h-225v225z" />
<glyph unicode="&#x628;" arabic-form="initial" d="M-36 0v225h174q235 0 279 44q49 49 49 155v176h284v-176q0 -228 -92 -338q-72 -86 -465 -86h-229zM484 -155h225v-225h-225v225z" />
<glyph unicode="&#x628;" arabic-form="medial" d="M-32 0v225h240q161 0 205 44q49 49 49 155v217h290v-217q0 -106 49 -155q44 -44 207 -44h257v-225h-365q-227 0 -294 72q-64 -72 -291 -72h-347zM504 -175h225v-225h-225v225z" />
<glyph unicode="&#x629;" arabic-form="isolated" d="M176 290q0 178 37 259q84 185 277 185q248 0 430 -160q141 -124 141 -272q-1 -200 -148 -280q-148 -81 -347 -80q-142 0 -223 35q-167 74 -167 313zM230 904v225h225v-225h-225zM466 291q1 -57 40 -88t79 -31q64 0 129 40q53 32 53 92q0 54 -47 99q-86 84 -167 84 q-46 0 -69 -61q-18 -49 -18 -135zM580 904v225h225v-225h-225z" />
<glyph unicode="&#x629;" arabic-form="final" d="M86 363q0 209 249 364q109 68 260 83q-4 39 -7 82h280q2 -205 34 -365q26 -124 82 -203q70 -99 156 -99h113v-225h-232q-110 0 -149 52l-76 102q-138 -73 -294 -73q-24 0 -114 15q-302 50 -302 267zM270 1048v225h225v-225h-225zM344 397q3 -82 124 -83q92 0 197 46 q-15 42 -28 91q-13 50 -25 151q-102 -13 -162 -63q-107 -92 -106 -142zM620 1048v225h225v-225h-225z" />
<glyph unicode="&#x62a;" arabic-form="isolated" d="M27 320q0 84 25 186h276q-27 -110 -27 -186q0 -72 103 -120q51 -24 194 -24q124 0 234 68q117 73 117 160t-17 135h276q14 -90 14 -203q0 -141 -182 -284q-112 -88 -437 -88q-243 0 -399 52q-177 59 -177 304zM323 650v225h225v-225h-225zM673 650v225h225v-225h-225z " />
<glyph unicode="&#x62a;" arabic-form="final" d="M69 320q0 100 29 186h282q-28 -80 -28 -166q0 -64 103 -109q38 -16 138 -16q50 0 127 23q85 24 122 62q42 42 42 123q0 86 -16 117h266q19 -75 19 -165q0 -59 24 -110q19 -40 43 -40h33v-225h-75q-65 0 -100 27q-55 46 -62 78q-36 -39 -153 -82t-260 -43q-216 0 -333 41 q-201 70 -201 299zM332 650v225h225v-225h-225zM682 650v225h225v-225h-225z" />
<glyph unicode="&#x62a;" arabic-form="initial" d="M-36 0v225h174q235 0 279 44q49 49 49 155v176h284v-176q0 -228 -92 -338q-72 -86 -465 -86h-229zM308 850v225h225v-225h-225zM658 850v225h225v-225h-225z" />
<glyph unicode="&#x62a;" arabic-form="medial" d="M-32 0v225h240q161 0 205 44q49 49 49 155v217h290v-217q0 -106 49 -155q44 -44 207 -44h257v-225h-365q-227 0 -294 72q-64 -72 -291 -72h-347zM318 850v225h225v-225h-225zM668 850v225h225v-225h-225z" />
<glyph unicode="&#x62b;" arabic-form="isolated" d="M27 320q0 84 25 186h276q-27 -110 -27 -186q0 -72 103 -120q51 -24 194 -24q124 0 234 68q117 73 117 160t-17 135h276q14 -90 14 -203q0 -141 -182 -284q-112 -88 -437 -88q-243 0 -399 52q-177 59 -177 304zM318 650v225h225v-225h-225zM493 1000v225h225v-225h-225z M668 650v225h225v-225h-225z" />
<glyph unicode="&#x62b;" arabic-form="final" d="M69 320q0 100 29 186h282q-28 -80 -28 -166q0 -64 103 -109q38 -16 138 -16q50 0 127 23q85 24 122 62q42 42 42 123q0 86 -16 117h266q19 -75 19 -165q0 -59 24 -110q19 -40 43 -40h33v-225h-75q-65 0 -100 27q-55 46 -62 78q-36 -39 -153 -82t-260 -43q-216 0 -333 41 q-201 70 -201 299zM304 650v225h225v-225h-225zM479 1000v225h225v-225h-225zM654 650v225h225v-225h-225z" />
<glyph unicode="&#x62b;" arabic-form="initial" d="M-36 0v225h174q235 0 279 44q49 49 49 155v176h284v-176q0 -228 -92 -338q-72 -86 -465 -86h-229zM306 850v225h225v-225h-225zM481 1200v225h225v-225h-225zM656 850v225h225v-225h-225z" />
<glyph unicode="&#x62b;" arabic-form="medial" d="M-32 0v225h240q161 0 205 44q49 49 49 155v217h290v-217q0 -106 49 -155q44 -44 207 -44h257v-225h-365q-227 0 -294 72q-64 -72 -291 -72h-347zM311 812v225h225v-225h-225zM486 1162v225h225v-225h-225zM661 812v225h225v-225h-225z" />
<glyph unicode="&#x62c;" arabic-form="isolated" d="M88 623v224q276 64 471 63q292 -1 488 -54v-194q-267 13 -451 -142q-220 -186 -220 -460q0 -171 124 -265q105 -79 292 -79q204 0 405 112v-229q-150 -98 -400 -99q-389 -2 -558 194q-131 152 -131 374q0 251 144 452q49 68 184 172q-39 3 -118 -9q-135 -19 -230 -60z M671 25v225h225v-225h-225z" />
<glyph unicode="&#x62c;" arabic-form="final" d="M88 623v224q276 64 471 63q292 -1 488 -54v-194q-66 7 -107 -2q-10 -40 -10 -85q0 -115 110 -240q97 -110 193 -110h40v-225h-49q-164 0 -302 125q-108 99 -167 235q-41 96 -47 232q-39 -4 -112 -72q-220 -205 -220 -460q0 -171 124 -265q105 -79 292 -79q204 0 405 112 v-229q-150 -98 -400 -99q-389 -2 -558 194q-131 152 -131 374q0 251 144 452q49 68 184 172q-39 3 -118 -9q-140 -21 -230 -60zM552 -50v225h225v-225h-225z" />
<glyph unicode="&#x62c;" arabic-form="initial" d="M-20 0v225h100q119 0 320 79q125 49 216 112q59 41 223 125q-43 13 -174 43q-57 13 -265 31q-82 7 -243 1v243q72 7 147 8q169 0 334 -35q241 -52 478 -154v-242q-48 -31 -176 -84q-55 -23 -200 -140q-104 -84 -280 -152q-159 -60 -352 -60h-128zM525 -75h225v-225h-225 v225z" />
<glyph unicode="&#x62c;" arabic-form="medial" d="M-20 0v225h100q119 0 320 79q125 49 216 112q59 41 223 125q-43 13 -174 43q-57 13 -265 31q-82 7 -243 1v243q72 7 147 8q159 2 334 -35q241 -52 478 -154v-242q-38 -21 -93 -44q23 -41 55 -76q81 -91 138 -91h60v-225h-80q-160 0 -281 163q-60 82 -80 122 q-27 -24 -95 -73q-127 -93 -280 -152q-155 -60 -352 -60h-128zM525 -75h225v-225h-225v225z" />
<glyph unicode="&#x62d;" arabic-form="isolated" d="M88 623v224q276 64 471 63q292 -1 488 -54v-194q-267 13 -451 -142q-220 -186 -220 -460q0 -171 124 -265q105 -79 292 -79q204 0 405 112v-229q-150 -98 -400 -99q-389 -2 -558 194q-131 152 -131 374q0 251 144 452q49 68 184 172q-39 3 -118 -9q-135 -19 -230 -60z " />
<glyph unicode="&#x62d;" arabic-form="final" d="M88 623v224q276 64 471 63q292 -1 488 -54v-194q-66 7 -107 -2q-10 -40 -10 -85q0 -115 110 -240q97 -110 193 -110h40v-225h-49q-164 0 -302 125q-108 99 -167 235q-41 96 -47 232q-39 -4 -112 -72q-220 -205 -220 -460q0 -171 124 -265q105 -79 292 -79q204 0 405 112 v-229q-150 -98 -400 -99q-389 -2 -558 194q-131 152 -131 374q0 251 144 452q49 68 184 172q-39 3 -118 -9q-140 -21 -230 -60z" />
<glyph unicode="&#x62d;" arabic-form="initial" d="M-20 0v225h100q119 0 320 79q125 49 216 112q59 41 223 125q-43 13 -174 43q-57 13 -265 31q-82 7 -243 1v243q72 7 147 8q169 0 334 -35q241 -52 478 -154v-242q-48 -31 -176 -84q-55 -23 -200 -140q-104 -84 -280 -152q-159 -60 -352 -60h-128z" />
<glyph unicode="&#x62d;" arabic-form="medial" d="M-20 0v225h100q119 0 320 79q125 49 216 112q59 41 223 125q-43 13 -174 43q-57 13 -265 31q-82 7 -243 1v243q72 7 147 8q159 2 334 -35q241 -52 478 -154v-242q-38 -21 -93 -44q23 -41 55 -76q81 -91 138 -91h60v-225h-80q-160 0 -281 163q-60 82 -80 122 q-27 -24 -95 -73q-127 -93 -280 -152q-155 -60 -352 -60h-128z" />
<glyph unicode="&#x62e;" arabic-form="isolated" d="M88 623v224q276 64 471 63q292 -1 488 -54v-194q-267 13 -451 -142q-220 -186 -220 -460q0 -171 124 -265q105 -79 292 -79q204 0 405 112v-229q-150 -98 -400 -99q-389 -2 -558 194q-131 152 -131 374q0 251 144 452q49 68 184 172q-39 3 -118 -9q-135 -19 -230 -60z M476 1050v225h225v-225h-225z" />
<glyph unicode="&#x62e;" arabic-form="final" d="M88 623v224q276 64 471 63q292 -1 488 -54v-194q-66 7 -107 -2q-10 -40 -10 -85q0 -115 110 -240q97 -110 193 -110h40v-225h-49q-164 0 -302 125q-108 99 -167 235q-41 96 -47 232q-39 -4 -112 -72q-220 -205 -220 -460q0 -171 124 -265q105 -79 292 -79q204 0 405 112 v-229q-150 -98 -400 -99q-389 -2 -558 194q-131 152 -131 374q0 251 144 452q49 68 184 172q-39 3 -118 -9q-140 -21 -230 -60zM472 1050v225h225v-225h-225z" />
<glyph unicode="&#x62e;" arabic-form="initial" d="M-20 0v225h100q119 0 320 79q125 49 216 112q59 41 223 125q-43 13 -174 43q-57 13 -265 31q-82 7 -243 1v243q72 7 147 8q169 0 334 -35q241 -52 478 -154v-242q-48 -31 -176 -84q-55 -23 -200 -140q-104 -84 -280 -152q-159 -60 -352 -60h-128zM412 1022v225h225v-225 h-225z" />
<glyph unicode="&#x62e;" arabic-form="medial" d="M-20 0v225h100q119 0 320 79q125 49 216 112q59 41 223 125q-43 13 -174 43q-57 13 -265 31q-82 7 -243 1v243q72 7 147 8q159 2 334 -35q241 -52 478 -154v-242q-38 -21 -93 -44q23 -41 55 -76q81 -91 138 -91h60v-225h-80q-160 0 -281 163q-60 82 -80 122 q-27 -24 -95 -73q-127 -93 -280 -152q-155 -60 -352 -60h-128zM525 950v225h225v-225h-225z" />
<glyph unicode="&#x62f;" arabic-form="isolated" d="M232 0v244q115 -42 248 -42q82 0 116 9q174 50 207 161q8 27 8 69q0 93 -60 194q-69 115 -239 299h327q107 -108 179 -239q82 -152 82 -257q0 -194 -96 -316q-93 -119 -378 -153q-58 -7 -140 -7q-151 0 -254 38z" />
<glyph unicode="&#x62f;" arabic-form="final" d="M232 0v244q115 -42 248 -42q82 0 116 9q173 46 207 161q8 27 8 69q0 93 -60 194q-69 115 -239 299h327q107 -108 179 -239q77 -140 82 -257q4 -61 0 -104q-4 -47 66 -92q28 -17 59 -17h28v-225h-83q-75 0 -166 122q-93 -119 -378 -153q-58 -7 -140 -7q-151 0 -254 38z " />
<glyph unicode="&#x630;" arabic-form="isolated" d="M232 0v244q115 -42 248 -42q82 0 116 9q174 50 207 161q8 27 8 69q0 93 -60 194q-69 115 -239 299h327q107 -108 179 -239q82 -152 82 -257q0 -194 -96 -316q-93 -119 -378 -153q-58 -7 -140 -7q-151 0 -254 38zM556 1102v225h225v-225h-225z" />
<glyph unicode="&#x630;" arabic-form="final" d="M232 0v244q115 -42 248 -42q82 0 116 9q173 46 207 161q8 27 8 69q0 93 -60 194q-69 115 -239 299h327q107 -108 179 -239q77 -140 82 -257q4 -61 0 -104q-4 -47 66 -92q28 -17 59 -17h28v-225h-83q-75 0 -166 122q-93 -119 -378 -153q-58 -7 -140 -7q-151 0 -254 38z M561 1126v225h225v-225h-225z" />
<glyph unicode="&#x631;" arabic-form="isolated" d="M-52 -259q453 0 664 128q230 139 255 285q10 58 10 130q0 126 -53 262h284q50 -118 50 -250q0 -72 -8 -144q-36 -310 -422 -512q-257 -143 -780 -144v245z" />
<glyph unicode="&#x631;" arabic-form="final" d="M-160 -256q453 0 664 128q230 139 255 286q10 58 10 130q0 126 -53 262h284q25 -50 33 -102q19 -118 57 -178q30 -45 103 -45h60v-225h-115q-112 0 -130 22q-88 -219 -388 -378q-269 -143 -780 -144v244z" />
<glyph unicode="&#x632;" arabic-form="isolated" d="M-52 -259q453 0 664 128q230 139 255 285q10 58 10 130q0 126 -53 262h284q50 -118 50 -250q0 -72 -8 -144q-36 -310 -422 -512q-257 -143 -780 -144v245zM845 780v225h225v-225h-225z" />
<glyph unicode="&#x632;" arabic-form="final" d="M-160 -256q453 0 664 128q230 139 255 286q10 58 10 130q0 126 -53 262h284q25 -50 33 -102q19 -118 57 -178q30 -45 103 -45h60v-225h-115q-112 0 -130 22q-88 -219 -388 -378q-269 -143 -780 -144v244zM728 796v225h225v-225h-225z" />
<glyph unicode="&#x633;" arabic-form="isolated" d="M-196 -64q0 217 53 362h227q-48 -214 -42 -362q4 -119 40 -179q22 -36 54 -36q30 0 71 54q28 35 41 129q15 108 16 276q0 87 -17 186l-41 234h235l18 -156q10 -88 38 -180q21 -69 57 -69q35 0 57 108q15 72 15 297h234q0 -207 32 -339q20 -77 53 -77q47 0 47 272v294h241 v-342q0 -230 -67 -336q-32 -50 -86 -72q-71 -29 -135 -29q-74 0 -121 51q-66 72 -77 131q-3 -47 -48 -117q-37 -57 -147 -54q-51 2 -79 45q-3 -89 -31 -229q-25 -123 -85 -198q-71 -92 -222 -92q-131 0 -232 100q-99 97 -99 328z" />
<glyph unicode="&#x633;" arabic-form="final" d="M-264 -64q0 217 53 362h227q-48 -214 -42 -362q4 -119 40 -179q22 -36 54 -36q29 0 71 54q28 35 41 129q15 108 16 276q0 87 -17 186l-41 234h235l18 -156q10 -88 38 -180q21 -69 57 -69q35 0 57 108q15 72 15 297h234q0 -207 32 -339q20 -77 53 -77q47 0 47 272v294h241 v-301q0 -164 43 -207q17 -17 41 -17h8v-225h-63q-52 0 -96 72q-32 -50 -86 -72q-71 -29 -135 -29q-74 0 -121 51q-66 72 -77 131q-3 -47 -48 -117q-37 -57 -147 -54q-51 2 -79 45q-3 -89 -31 -229q-25 -123 -85 -198q-71 -92 -222 -92q-131 0 -232 100q-99 97 -99 328z" />
<glyph unicode="&#x633;" arabic-form="initial" d="M-20 0v225h42q64 0 100 35q70 71 70 148v192h240v-156q0 -90 20 -165q21 -84 102 -84q35 0 57 108q15 72 15 297h234q0 -207 32 -339q20 -77 53 -77q47 0 47 272v294h241v-342q0 -230 -67 -336q-32 -50 -86 -72q-71 -29 -135 -29q-74 0 -121 51q-66 72 -77 131 q-3 -47 -48 -117q-37 -57 -147 -54q-123 3 -168 42q-77 66 -84 109q-17 -50 -90 -96q-59 -37 -160 -37h-70z" />
<glyph unicode="&#x633;" arabic-form="medial" d="M-20 0v225h27q27 0 63 35q38 39 38 148v192h240v-156q0 -90 20 -165q21 -84 102 -84q35 0 57 108q15 69 15 297h234q0 -207 32 -339q20 -77 53 -77q47 0 47 272v294h241v-301q0 -164 43 -207q17 -17 41 -17h23v-225h-78q-52 0 -96 72q-32 -50 -86 -72q-71 -29 -135 -29 q-74 0 -121 51q-66 72 -77 131q-3 -47 -48 -117q-37 -57 -147 -54q-123 3 -168 42q-77 66 -84 109q-35 -76 -58 -96q-44 -37 -124 -37h-54z" />
<glyph unicode="&#x634;" arabic-form="isolated" d="M-196 -64q0 217 53 362h227q-48 -214 -42 -362q4 -119 40 -179q22 -36 54 -36q30 0 71 54q28 35 41 129q15 108 16 276q0 87 -17 186l-41 234h235l18 -156q10 -88 38 -180q21 -69 57 -69q35 0 57 108q15 72 15 297h234q0 -207 32 -339q20 -77 53 -77q47 0 47 272v294h241 v-342q0 -230 -67 -336q-32 -50 -86 -72q-71 -29 -135 -29q-74 0 -121 51q-66 72 -77 131q-3 -47 -48 -117q-37 -57 -147 -54q-51 2 -79 45q-3 -89 -31 -229q-25 -123 -85 -198q-71 -92 -222 -92q-131 0 -232 100q-99 97 -99 328zM310 800v225h225v-225h-225zM485 1150v225 h225v-225h-225zM660 800v225h225v-225h-225z" />
<glyph unicode="&#x634;" arabic-form="final" d="M-264 -64q0 217 53 362h227q-48 -214 -42 -362q4 -119 40 -179q22 -36 54 -36q29 0 71 54q28 35 41 129q15 108 16 276q0 87 -17 186l-41 234h235l18 -156q10 -88 38 -180q21 -69 57 -69q35 0 57 108q15 72 15 297h234q0 -207 32 -339q20 -77 53 -77q47 0 47 272v294h241 v-301q0 -164 43 -207q17 -17 41 -17h8v-225h-63q-52 0 -96 72q-32 -50 -86 -72q-71 -29 -135 -29q-74 0 -121 51q-66 72 -77 131q-3 -47 -48 -117q-37 -57 -147 -54q-51 2 -79 45q-3 -89 -31 -229q-25 -123 -85 -198q-71 -92 -222 -92q-131 0 -232 100q-99 97 -99 328z M236 800v225h225v-225h-225zM411 1150v225h225v-225h-225zM586 800v225h225v-225h-225z" />
<glyph unicode="&#x634;" arabic-form="initial" d="M-20 0v225h42q64 0 100 35q70 71 70 148v192h240v-156q0 -90 20 -165q21 -84 102 -84q35 0 57 108q15 72 15 297h234q0 -207 32 -339q20 -77 53 -77q47 0 47 272v294h241v-342q0 -230 -67 -336q-32 -50 -86 -72q-71 -29 -135 -29q-74 0 -121 51q-66 72 -77 131 q-3 -47 -48 -117q-37 -57 -147 -54q-123 3 -168 42q-77 66 -84 109q-17 -50 -90 -96q-59 -37 -160 -37h-70zM282 800v225h225v-225h-225zM457 1150v225h225v-225h-225zM632 800v225h225v-225h-225z" />
<glyph unicode="&#x634;" arabic-form="medial" d="M-20 0v225h27q27 0 63 35q38 39 38 148v192h240v-156q0 -90 20 -165q21 -84 102 -84q35 0 57 108q15 69 15 297h234q0 -207 32 -339q20 -77 53 -77q47 0 47 272v294h241v-301q0 -164 43 -207q17 -17 41 -17h23v-225h-78q-52 0 -96 72q-32 -50 -86 -72q-71 -29 -135 -29 q-74 0 -121 51q-66 72 -77 131q-3 -47 -48 -117q-37 -57 -147 -54q-123 3 -168 42q-77 66 -84 109q-35 -76 -58 -96q-44 -37 -124 -37h-54zM198 800v225h225v-225h-225zM373 1150v225h225v-225h-225zM548 800v225h225v-225h-225z" />
<glyph unicode="&#x635;" arabic-form="isolated" d="M-285 -64q0 217 53 362h227q-48 -214 -42 -362q4 -119 40 -179q22 -36 54 -36q36 0 78 54q27 33 48 129q31 141 14 276q-12 93 -26 186l-11 84h234q17 -39 30 -90q67 87 132 156q131 139 290 137q210 -2 292 -104q88 -110 88 -212q0 -196 -163 -292q-76 -45 -275 -45 h-218q-37 0 -90 30q-44 26 -44 42q-4 -83 -32 -228q-21 -109 -126 -244q-71 -92 -222 -92q-131 0 -232 100q-99 97 -99 328zM612 225h128q93 0 122 20q62 44 62 80q0 32 -22 62q-20 27 -72 27q-70 0 -138 -81q-55 -66 -80 -108z" />
<glyph unicode="&#x635;" arabic-form="final" d="M-339 -64q0 217 53 362h227q-48 -214 -42 -362q4 -119 40 -179q22 -36 54 -36q36 0 78 54q27 33 48 129q31 141 14 276q-12 93 -26 186l-11 84h234q17 -39 30 -90q67 87 132 156q131 139 290 137q210 -2 292 -104q88 -110 88 -212q0 -39 -7 -57q16 -22 31 -35 q26 -19 42 -20h32v-225h-51q-51 0 -128 56l-33 24q-10 -15 -49 -35q-95 -45 -275 -45h-218q-37 0 -90 30q-44 26 -44 42q-4 -83 -32 -228q-21 -109 -126 -244q-71 -92 -222 -92q-131 0 -232 100q-99 97 -99 328zM558 225h128q93 0 122 20q62 44 62 80q0 32 -22 62 q-20 27 -72 27q-70 0 -138 -81q-55 -66 -80 -108z" />
<glyph unicode="&#x635;" arabic-form="initial" d="M-32 0v225h42q40 0 80 40q48 47 48 143v114h239v-78q0 -78 19 -98q72 96 150 170q147 139 290 137q210 -2 292 -104q88 -110 88 -212q0 -196 -163 -292q-76 -45 -275 -45h-218q-175 0 -218 15q-60 21 -97 57q-25 -27 -63 -44q-58 -28 -145 -28h-69zM612 225h128 q93 0 122 20q62 44 62 80q0 32 -22 62q-20 27 -72 27q-70 0 -138 -81q-55 -66 -80 -108z" />
<glyph unicode="&#x635;" arabic-form="medial" d="M-32 0v225h42q40 0 62 36q28 47 28 147v114h240v-78q0 -78 20 -98q70 96 149 170q147 139 291 137q209 -2 290 -104q88 -110 88 -212q0 -39 -6 -57q12 -27 26 -37q25 -18 31 -18h36v-225h-51q-72 0 -123 53l-26 27q-11 -17 -49 -35q-95 -45 -274 -45h-218q-162 0 -218 15 q-81 21 -98 42q-20 -24 -48 -38q-37 -19 -123 -19h-69zM574 225h130q92 0 120 20q63 44 63 80q0 32 -22 62q-19 27 -73 27q-69 0 -136 -81q-56 -66 -82 -108z" />
<glyph unicode="&#x636;" arabic-form="isolated" d="M-285 -64q0 217 53 362h227q-48 -214 -42 -362q4 -119 40 -179q22 -36 54 -36q36 0 78 54q27 33 48 129q31 141 14 276q-12 93 -26 186l-11 84h234q17 -39 30 -90q67 87 132 156q131 139 290 137q210 -2 292 -104q88 -110 88 -212q0 -196 -163 -292q-76 -45 -275 -45 h-218q-37 0 -90 30q-44 26 -44 42q-4 -83 -32 -228q-21 -109 -126 -244q-71 -92 -222 -92q-131 0 -232 100q-99 97 -99 328zM335 670v225h225v-225h-225zM612 225h128q93 0 122 20q62 44 62 80q0 32 -22 62q-20 27 -72 27q-70 0 -138 -81q-55 -66 -80 -108z" />
<glyph unicode="&#x636;" arabic-form="final" d="M-339 -64q0 217 53 362h227q-48 -214 -42 -362q4 -119 40 -179q22 -36 54 -36q36 0 78 54q27 33 48 129q31 141 14 276q-12 93 -26 186l-11 84h234q17 -39 30 -90q67 87 132 156q131 139 290 137q210 -2 292 -104q88 -110 88 -212q0 -39 -7 -57q16 -22 31 -35 q26 -19 42 -20h32v-225h-51q-51 0 -128 56l-33 24q-10 -15 -49 -35q-95 -45 -275 -45h-218q-37 0 -90 30q-44 26 -44 42q-4 -83 -32 -228q-21 -109 -126 -244q-71 -92 -222 -92q-131 0 -232 100q-99 97 -99 328zM260 670v225h225v-225h-225zM558 225h128q93 0 122 20 q62 44 62 80q0 32 -22 62q-20 27 -72 27q-70 0 -138 -81q-55 -66 -80 -108z" />
<glyph unicode="&#x636;" arabic-form="initial" d="M-32 0v225h42q40 0 80 40q48 47 48 143v114h239v-78q0 -78 19 -98q72 96 150 170q147 139 290 137q210 -2 292 -104q88 -110 88 -212q0 -196 -163 -292q-76 -45 -275 -45h-218q-175 0 -218 15q-60 21 -97 57q-25 -27 -63 -44q-58 -28 -145 -28h-69zM287 736v225h225v-225 h-225zM612 225h128q93 0 122 20q62 44 62 80q0 32 -22 62q-20 27 -72 27q-70 0 -138 -81q-55 -66 -80 -108z" />
<glyph unicode="&#x636;" arabic-form="medial" d="M-32 0v225h42q40 0 62 36q28 47 28 147v114h240v-78q0 -78 20 -98q70 96 149 170q147 139 291 137q209 -2 290 -104q88 -110 88 -212q0 -39 -6 -57q12 -27 26 -37q25 -18 31 -18h36v-225h-51q-72 0 -123 53l-26 27q-11 -17 -49 -35q-95 -45 -274 -45h-218q-162 0 -218 15 q-81 21 -98 42q-20 -24 -48 -38q-37 -19 -123 -19h-69zM232 722v225h225v-225h-225zM574 225h130q92 0 120 20q63 44 63 80q0 32 -22 62q-19 27 -73 27q-69 0 -136 -81q-56 -66 -82 -108z" />
<glyph unicode="&#x637;" arabic-form="isolated" d="M10 0v225h218v1331h291v-1064q128 172 307 172q190 0 291 -104q88 -91 88 -212q0 -164 -184 -273q-126 -75 -253 -75h-540h-218zM601 225h129q77 0 121 31q62 44 62 88q0 32 -21 62q-20 28 -73 28q-77 0 -137 -90q-71 -106 -81 -119z" />
<glyph unicode="&#x637;" arabic-form="final" d="M0 0v225h164v1331h291v-1064q128 172 307 172q187 0 291 -104q88 -88 88 -212q1 -60 -7 -76q30 -48 74 -48h46v-224h-108q-73 0 -140 79l-16 19q-117 -98 -286 -98h-540h-164zM537 225h129q77 0 121 31q62 44 62 88q0 32 -21 62q-20 28 -73 28q-77 0 -137 -90 q-71 -106 -81 -119z" />
<glyph unicode="&#x637;" arabic-form="initial" d="M-48 0v225h276v1331h291v-1064q128 172 307 172q190 0 291 -104q88 -91 88 -212q0 -164 -184 -273q-126 -75 -253 -75h-540h-276zM601 225h129q77 0 121 31q62 44 62 88q0 32 -21 62q-20 28 -73 28q-77 0 -137 -90q-71 -106 -81 -119z" />
<glyph unicode="&#x637;" arabic-form="medial" d="M-36 0v225h200v1331h291v-1064q128 172 307 172q196 0 291 -104q88 -96 88 -212q1 -68 -7 -76q30 -48 74 -48h46v-224h-108q-73 0 -140 79l-16 19q-117 -98 -286 -98h-540h-200zM537 225h129q77 0 121 31q62 44 62 88q0 32 -21 62q-20 28 -73 28q-77 0 -137 -90 q-71 -106 -81 -119z" />
<glyph unicode="&#x638;" arabic-form="isolated" d="M10 0v225h218v1331h291v-1064q128 172 307 172q190 0 291 -104q88 -91 88 -212q0 -164 -184 -273q-126 -75 -253 -75h-540h-218zM601 225h129q77 0 121 31q62 44 62 88q0 32 -21 62q-20 28 -73 28q-77 0 -137 -90q-71 -106 -81 -119zM634 812v225h225v-225h-225z" />
<glyph unicode="&#x638;" arabic-form="final" d="M0 0v225h164v1331h291v-1064q128 172 307 172q187 0 291 -104q88 -88 88 -212q1 -60 -7 -76q30 -48 74 -48h46v-224h-108q-73 0 -140 79l-16 19q-117 -98 -286 -98h-540h-164zM537 225h129q77 0 121 31q62 44 62 88q0 32 -21 62q-20 28 -73 28q-77 0 -137 -90 q-71 -106 -81 -119zM579 817v225h225v-225h-225z" />
<glyph unicode="&#x638;" arabic-form="initial" d="M-48 0v225h276v1331h291v-1064q128 172 307 172q190 0 291 -104q88 -91 88 -212q0 -164 -184 -273q-126 -75 -253 -75h-540h-276zM601 225h129q77 0 121 31q62 44 62 88q0 32 -21 62q-20 28 -73 28q-77 0 -137 -90q-71 -106 -81 -119zM645 822v225h225v-225h-225z" />
<glyph unicode="&#x638;" arabic-form="medial" d="M-36 0v225h200v1331h291v-1064q128 172 307 172q196 0 291 -104q88 -96 88 -212q1 -68 -7 -76q30 -48 74 -48h46v-224h-108q-73 0 -140 79l-16 19q-117 -98 -286 -98h-540h-200zM537 225h129q77 0 121 31q62 44 62 88q0 32 -21 62q-20 28 -73 28q-77 0 -137 -90 q-71 -106 -81 -119zM579 812v225h225v-225h-225z" />
<glyph unicode="&#x639;" arabic-form="isolated" d="M72 0q0 207 87 308l121 140q-36 0 -96 72t-60 160q0 163 132 265q207 159 537 180v-217q-201 -21 -311 -105q-70 -54 -70 -103q0 -73 28 -89q38 -22 88 -22q46 0 81 18q139 69 412 91v-221q-293 -28 -509 -175q-160 -109 -160 -302q0 -57 41 -110q130 -165 341 -165 q261 0 473 118v-244q-150 -99 -469 -99q-402 0 -568 188q-98 111 -98 312z" />
<glyph unicode="&#x639;" arabic-form="final" d="M84 0q0 93 76 203q27 38 156 128q-39 29 -93 98q-58 74 -58 129q0 42 21 99q21 59 132 111q94 44 229 44q158 0 247 -44q101 -51 120 -108q14 -38 14 -102q0 -48 -70 -118q-50 -51 -156 -117q81 -54 147 -77q59 -20 195 -20h224v-226h-208q-339 0 -578 186 q-112 -78 -112 -186q0 -77 47 -144q85 -121 411 -121q193 0 405 118v-254q-150 -98 -400 -99q-460 -2 -629 197q-122 144 -120 303zM473 538q0 -16 34 -66l17 -17l55 31q55 35 51 60q-2 16 -47 27q-17 4 -36 4q-22 1 -35 -4q-39 -15 -39 -35z" />
<glyph unicode="&#x639;" arabic-form="initial" d="M-20 0v225h81q151 0 331 83q-65 13 -146 87q-110 101 -110 246q0 271 228 379q160 76 425 97v-239q-198 -23 -311 -90q-74 -45 -74 -114q0 -75 88 -158q56 -53 183 -53q51 0 129 33l213 90v-266l-420 -197q-262 -123 -528 -123h-89z" />
<glyph unicode="&#x639;" arabic-form="medial" d="M-20 0v225h218q139 6 232 73q-86 86 -155 176q-30 39 -30 84q0 72 36 118q42 54 127 91q106 45 208 45q105 0 208 -45q97 -43 129 -88q36 -50 34 -121q-1 -51 -30 -84q-83 -94 -159 -171q87 -72 236 -78h219v-225h-369q-104 0 -270 132q-162 -132 -266 -132h-368z M535 537q0 -16 81 -94q81 78 81 94q0 24 -25 33q-20 7 -56 7q-40 0 -56 -7q-25 -11 -25 -33z" />
<glyph unicode="&#x63a;" arabic-form="isolated" d="M72 0q0 207 87 308l121 140q-36 0 -96 72t-60 160q0 163 132 265q207 159 537 180v-217q-201 -21 -311 -105q-70 -54 -70 -103q0 -73 28 -89q38 -22 88 -22q46 0 81 18q139 69 412 91v-221q-293 -28 -509 -175q-160 -109 -160 -302q0 -57 41 -110q130 -165 341 -165 q261 0 473 118v-244q-150 -99 -469 -99q-402 0 -568 188q-98 111 -98 312zM310 1230v225h225v-225h-225z" />
<glyph unicode="&#x63a;" arabic-form="final" d="M84 0q0 93 76 203q27 38 156 128q-39 29 -93 98q-58 74 -58 129q0 42 21 99q21 59 132 111q94 44 229 44q158 0 247 -44q101 -51 120 -108q14 -38 14 -102q0 -48 -70 -118q-50 -51 -156 -117q81 -54 147 -77q59 -20 195 -20h224v-226h-208q-339 0 -578 186 q-112 -78 -112 -186q0 -77 47 -144q85 -121 411 -121q193 0 405 118v-254q-150 -98 -400 -99q-460 -2 -629 197q-122 144 -120 303zM425 950v225h225v-225h-225zM473 538q0 -16 34 -66l17 -17l55 31q55 35 51 60q-2 16 -47 27q-17 4 -36 4q-22 1 -35 -4q-39 -15 -39 -35z " />
<glyph unicode="&#x63a;" arabic-form="initial" d="M-20 0v225h81q151 0 331 83q-65 13 -146 87q-110 101 -110 246q0 271 228 379q160 76 425 97v-239q-198 -23 -311 -90q-74 -45 -74 -114q0 -75 88 -158q56 -53 183 -53q51 0 129 33l213 90v-266l-420 -197q-262 -123 -528 -123h-89zM375 1200v225h225v-225h-225z" />
<glyph unicode="&#x63a;" arabic-form="medial" d="M-20 0v225h218q139 6 232 73q-86 86 -155 176q-30 39 -30 84q0 72 36 118q42 54 127 91q106 45 208 45q105 0 208 -45q97 -43 129 -88q36 -50 34 -121q-1 -51 -30 -84q-83 -94 -159 -171q87 -72 236 -78h219v-225h-369q-104 0 -270 132q-162 -132 -266 -132h-368z M508 950v225h225v-225h-225zM535 537q0 -16 81 -94q81 78 81 94q0 24 -25 33q-20 7 -56 7q-40 0 -56 -7q-25 -11 -25 -33z" />
<glyph unicode="&#x641;" arabic-form="isolated" d="M-106 314q-1 138 34 230h288q-36 -94 -36 -230q0 -127 120 -172q90 -34 149 -34q129 0 243 24q101 21 156 60q51 41 64 60q-31 -16 -98 -16q-146 0 -238 72q-124 97 -124 232q0 99 16 140q45 115 164 168q113 50 211 50q96 0 185 -40q77 -35 170 -171q35 -52 35 -191 q0 -286 -125 -440q-77 -94 -316 -148q-178 -40 -343 -40q-154 0 -277 41q-275 91 -278 405zM732 1066v225h225v-225h-225zM738 560q0 -66 37 -91q38 -25 82 -25q63 0 95 48q20 30 20 68q0 45 -44 80q-31 25 -75 24q-59 -1 -92 -43q-23 -30 -23 -61z" />
<glyph unicode="&#x641;" arabic-form="final" d="M-178 314q0 136 31 231h266q-33 -129 -33 -231q0 -106 116 -152q71 -30 202 -30q85 0 240 60q-47 25 -114 110q-85 106 -85 192q0 111 20 154q43 92 162 147q101 47 219 47q151 0 234 -50q109 -67 128 -100q40 -70 40 -218q0 -128 -90 -248h16h79v-226h-154 q-135 0 -215 26q-29 -23 -156 -60q-216 -62 -330 -62q-196 0 -328 54q-248 102 -248 356zM730 488q0 -42 21 -76q49 -78 132 -115q87 65 87 163q0 34 -5 62q-5 36 -39 60q-34 25 -74 25q-24 0 -46 -10q-55 -28 -70 -71q-6 -20 -6 -38zM736 959v225h225v-225h-225z" />
<glyph unicode="&#x641;" arabic-form="initial" d="M-20 0v225h241q237 0 291 31q69 40 83 56q38 44 21 76q-24 -35 -135 -35q-173 0 -257 67q-98 81 -98 216q0 45 8 96q23 148 173 217q78 36 203 36q132 0 210 -50q59 -38 112 -123q49 -79 49 -192q0 -256 -69 -400q-49 -107 -257 -181q-109 -39 -254 -39h-321zM375 1170 v225h225v-225h-225zM420 654q0 -48 33 -70q24 -15 49 -15q43 0 58 14q24 26 24 72q0 37 -39 66q-20 14 -45 14q-30 0 -56 -25q-24 -27 -24 -56z" />
<glyph unicode="&#x641;" arabic-form="medial" d="M-20 0v225h226q119 0 154 15q-61 25 -102 119q-20 46 -20 122q0 127 43 199q63 104 151 132q84 25 186 25q110 0 170 -21q148 -52 184 -140q27 -61 24 -195q-1 -58 -22 -122q-14 -43 -102 -115q42 -19 156 -19h225v-225h-315q-136 0 -322 57q-184 -57 -320 -57h-316z M492 1000v225h225v-225h-225zM512 488q0 -35 24 -63q43 -50 80 -69q34 23 72 69q24 29 24 63q0 36 -13 67q-12 25 -43 45q-15 10 -40 10q-31 0 -47 -13q-25 -20 -37 -43q-20 -39 -20 -66z" />
<glyph unicode="&#x642;" arabic-form="isolated" d="M0 36q0 214 48 340h284q-53 -191 -54 -284q-1 -122 54 -196q68 -92 190 -92q202 0 308 154q140 204 140 354q-36 -34 -190 -34q-131 0 -236 70q-148 99 -148 288q0 56 8 96q43 206 222 288q84 38 183 38q162 0 243 -72q95 -84 138 -186t43 -336q0 -241 -46 -394 q-78 -255 -222 -395q-151 -147 -420 -147q-221 1 -383 116q-162 117 -162 392zM515 1200v225h225v-225h-225zM690 656q0 -61 26 -86q44 -42 85 -42q39 0 72 24q41 30 41 105q0 35 -32 74t-85 39q-44 -1 -73 -32q-33 -36 -34 -82zM865 1200v225h225v-225h-225z" />
<glyph unicode="&#x642;" arabic-form="final" d="M-19 -37q0 122 35 262h276q-42 -170 -42 -270q0 -81 50 -157q45 -70 190 -70q126 0 220 60q120 76 198 222q-86 8 -148 18q-168 31 -263 136q-106 117 -106 236q0 94 50 198q26 54 120 110q107 64 239 64q144 0 180 -17q108 -54 142 -150q36 -97 43 -380q27 -1 30 -1 l58 1v-225l-63 -1h-48q-14 -122 -64 -204q-92 -148 -246 -223q-132 -64 -387 -64q-322 0 -413 192q-51 109 -51 263zM482 906v225h225v-225h-225zM677 393q0 -41 47 -80q29 -26 100 -51q66 -23 108 -22q3 107 -12 180q-11 53 -47 79q-33 25 -69 24q-35 0 -55 -10 q-49 -23 -57 -45q-15 -38 -15 -75zM832 906v225h225v-225h-225z" />
<glyph unicode="&#x642;" arabic-form="initial" d="M-20 0v225h241q237 0 291 31q69 40 83 56q38 44 21 76q-24 -35 -135 -35q-173 0 -257 67q-98 81 -98 216q0 45 8 96q23 148 173 217q78 36 203 36q132 0 210 -50q59 -38 112 -123q49 -79 49 -192q0 -256 -69 -400q-49 -107 -257 -181q-109 -39 -254 -39h-321zM210 1150 v225h225v-225h-225zM420 654q0 -48 33 -70q24 -15 49 -15q43 0 58 14q24 26 24 72q0 37 -39 66q-20 14 -45 14q-30 0 -56 -25q-24 -27 -24 -56zM560 1150v225h225v-225h-225z" />
<glyph unicode="&#x642;" arabic-form="medial" d="M-20 0v225h226q119 0 154 15q-61 25 -102 119q-20 46 -20 122q0 127 43 199q63 104 151 132q84 25 186 25q110 0 170 -21q148 -52 184 -140q27 -61 24 -195q-1 -58 -22 -122q-14 -43 -102 -115q42 -19 156 -19h225v-225h-315q-136 0 -322 57q-184 -57 -320 -57h-316z M326 1000v225h225v-225h-225zM512 488q0 -35 24 -63q43 -50 80 -69q34 23 72 69q24 29 24 63q0 36 -13 67q-12 25 -43 45q-15 10 -40 10q-31 0 -47 -13q-25 -20 -37 -43q-20 -39 -20 -66zM676 1000v225h225v-225h-225z" />
<glyph unicode="&#x643;" arabic-form="isolated" d="M8 260q0 75 16 128h273q-15 -62 -14 -102q2 -78 135 -129q70 -27 138 -27q136 0 218 54q80 53 110 97q52 75 52 330v945h279v-945q0 -400 -86 -489q-132 -138 -197 -162q-152 -53 -371 -54q-176 -1 -336 54q-217 76 -217 300zM269 542v128q68 -10 113 -10q69 0 117 26 q32 17 32 42q0 34 -47 42q-89 15 -124 49q-58 56 -58 125q0 102 94 148q83 38 239 46v-120q-80 -4 -112 -18q-69 -28 -69 -63q0 -13 28 -37q16 -14 58 -18q144 -15 144 -148q0 -113 -106 -162q-88 -41 -187 -41q-66 0 -122 11z" />
<glyph unicode="&#x643;" arabic-form="final" d="M-100 260q0 75 16 128h273q-15 -62 -14 -102q2 -78 135 -129q70 -27 138 -27q136 0 218 54q80 53 110 97q52 75 52 330v945h279v-1173q0 -65 49 -113q44 -44 57 -44h59v-226h-114q-87 0 -164 84q-76 -84 -170 -124q-128 -53 -371 -54q-176 -1 -336 54q-217 76 -217 300z M161 542v128q68 -10 113 -10q69 0 117 26q32 17 32 42q0 34 -47 42q-89 15 -124 49q-58 56 -58 125q0 102 94 148q83 38 239 46v-120q-80 -4 -112 -18q-69 -28 -69 -63q0 -13 28 -37q16 -14 58 -18q144 -15 144 -148q0 -113 -106 -162q-88 -41 -187 -41q-66 0 -122 11z" />
<glyph unicode="&#x643;" arabic-form="initial" d="M-20 0v225h402q152 0 193 92q16 36 16 72q0 40 -54 106l-257 315q-114 139 -114 210q0 30 10 68q29 109 146 158l745 310v-268l-506 -204q-94 -37 -89 -79q4 -37 78 -125l222 -265q102 -121 102 -246q0 -113 -62 -214q-94 -155 -410 -155h-422z" />
<glyph unicode="&#x643;" arabic-form="medial" d="M-30 0v225h430q152 0 193 92q16 36 16 72q0 40 -54 106l-257 315q-114 139 -114 210q0 30 10 68q29 109 146 158l745 310v-268l-506 -204q-94 -37 -89 -79q4 -36 78 -125l496 -598q21 -26 60 -40q44 -16 100 -16h46v-226h-82q-225 0 -305 89l-67 75l-24 -34 q-86 -130 -372 -130h-450z" />
<glyph unicode="&#x644;" arabic-form="isolated" d="M0 75q-1 138 35 230h302q-48 -115 -48 -230q0 -106 96 -155q85 -43 175 -43q107 0 177 45q79 51 108 151q30 105 30 353v1130h288v-1130q0 -273 -50 -456q-48 -175 -202 -267q-121 -72 -351 -73q-252 0 -360 75q-197 137 -200 370z" />
<glyph unicode="&#x644;" arabic-form="final" d="M-75 75q-1 138 35 230h302q-48 -115 -48 -230q0 -106 96 -155q85 -43 175 -43q107 0 177 45q79 51 108 151q30 105 30 353v1130h288v-1173q0 -75 51 -114q57 -44 87 -44h48v-225h-103q-76 0 -116 55q-14 -98 -45 -165q-53 -115 -174 -187t-351 -73q-250 -1 -360 75 q-198 138 -200 370z" />
<glyph unicode="&#x644;" arabic-form="initial" d="M-20 0v225h474q218 0 262 44q48 49 48 155v1132h286v-1144q0 -219 -86 -320q-80 -92 -402 -92h-582z" />
<glyph unicode="&#x644;" arabic-form="medial" d="M-20 0v225h228q161 0 205 44q49 50 49 155v1132h290v-1132q0 -106 49 -155q44 -44 207 -44h245v-225h-353q-227 0 -294 72q-64 -72 -291 -72h-335z" />
<glyph unicode="&#x645;" arabic-form="isolated" d="M60 0q0 199 120 301q65 55 184 55q-2 42 -2 58q0 151 126 254q77 63 246 63q96 0 194 -39q186 -72 216 -247q8 -45 8 -101q0 -172 -124 -260q-95 -68 -226 -69q-137 -2 -322 78q-89 38 -114 12t-25 -105v-492h-281v492zM642 364q0 -16 10 -69l112 -27q49 0 65 22 q38 55 35 76q-5 38 -6 44q-4 25 -34 50q-32 27 -80 27q-52 0 -72 -39q-30 -58 -30 -84z" />
<glyph unicode="&#x645;" arabic-form="final" d="M0 -55q0 199 120 301q65 55 184 55q-2 42 -2 58q0 151 126 254q77 63 246 63q96 0 194 -39q186 -74 216 -247q1 -10 8 -101q3 -43 56 -55q40 -9 74 -9h31v-225h-86q-139 0 -171 51q-15 -14 -28 -22q-110 -68 -226 -69q-137 -2 -322 78q-89 38 -114 12t-25 -105v-437h-281 v437zM582 309q0 -16 10 -69l112 -27q49 0 65 22q38 55 35 76q-5 38 -6 44q-4 25 -34 50q-32 27 -80 27q-52 0 -72 -39q-30 -58 -30 -84z" />
<glyph unicode="&#x645;" arabic-form="initial" d="M-30 0v225h90q168 -14 213 125q29 158 126 254q65 64 246 64q96 0 194 -40q186 -72 216 -246q8 -46 8 -102q0 -172 -124 -260q-97 -68 -226 -68q-218 0 -323 108q-34 -23 -108 -42q-64 -18 -222 -18h-90zM553 300q0 -16 10 -68q49 -21 112 -28q49 0 65 22q38 55 35 76 q-5 38 -6 44q-4 25 -34 50q-32 28 -80 28q-52 -1 -72 -40q-30 -57 -30 -84z" />
<glyph unicode="&#x645;" arabic-form="medial" d="M-30 0v225h90q131 0 162 125q43 174 126 254q65 64 246 64q96 0 194 -40q186 -74 216 -246q12 -71 56 -126q25 -31 93 -31h100v-225h-155q-166 0 -186 32q-133 -80 -250 -80q-218 0 -323 108q-34 -23 -107 -42q-65 -18 -172 -18h-90zM502 300q0 -16 10 -68 q49 -21 112 -28q49 0 65 22q38 55 35 76q-5 38 -6 44q-4 25 -34 50q-32 28 -80 28q-52 -1 -72 -40q-30 -57 -30 -84z" />
<glyph unicode="&#x646;" arabic-form="isolated" d="M19 126q0 172 49 354h288q-38 -141 -40 -316q-2 -131 124 -204q76 -44 143 -44q105 0 147 20q114 54 150 157q34 98 34 194q0 301 -46 401h292q40 -159 40 -433q0 -214 -84 -363q-60 -106 -212 -176q-102 -47 -321 -47q-164 0 -295 63q-269 128 -269 394zM439 758v225 h225v-225h-225z" />
<glyph unicode="&#x646;" arabic-form="final" d="M-85 -38q0 172 49 354h288q-38 -141 -40 -316q-2 -131 124 -204q76 -44 143 -44q105 0 147 20q114 54 150 157q34 98 34 194q0 301 -46 401h292q10 -32 23 -148q7 -56 53 -120q22 -31 70 -31h52v-225h-94q-62 0 -67 16q-12 -166 -81 -288q-60 -106 -212 -176 q-102 -47 -321 -47q-164 0 -295 63q-269 130 -269 394zM335 557v225h225v-225h-225z" />
<glyph unicode="&#x646;" arabic-form="initial" d="M-36 0v225h174q235 0 279 44q49 49 49 155v176h284v-176q0 -228 -92 -338q-72 -86 -465 -86h-229zM488 850v225h225v-225h-225z" />
<glyph unicode="&#x646;" arabic-form="medial" d="M-32 0v225h240q161 0 205 44q49 49 49 155v217h290v-217q0 -106 49 -155q44 -44 207 -44h257v-225h-365q-227 0 -294 72q-64 -72 -291 -72h-347zM497 850v225h225v-225h-225z" />
<glyph unicode="&#x647;" arabic-form="isolated" d="M176 290q0 178 37 259q84 185 277 185q248 0 430 -160q141 -124 141 -272q-1 -200 -148 -280q-148 -81 -347 -80q-142 0 -223 35q-167 74 -167 313zM466 291q1 -57 40 -88t79 -31q64 0 129 40q53 32 53 92q0 54 -47 99q-86 84 -167 84q-46 0 -69 -61q-18 -49 -18 -135z " />
<glyph unicode="&#x647;" arabic-form="final" d="M86 363q0 209 249 364q109 68 260 83q-4 39 -7 82h280q2 -205 34 -365q26 -124 82 -203q70 -99 156 -99h113v-225h-232q-110 0 -149 52l-76 102q-138 -73 -294 -73q-24 0 -114 15q-302 50 -302 267zM344 397q3 -82 124 -83q92 0 197 46q-15 42 -28 91q-13 50 -25 151 q-102 -13 -162 -63q-107 -92 -106 -142z" />
<glyph unicode="&#x647;" arabic-form="initial" d="M-20 0v225h145q42 0 79 4q-34 67 -50 140q-18 81 -18 142q0 69 42 151q37 72 105 111q-40 12 -61 15v232q307 -59 540 -262q237 -209 299 -439q14 -52 14 -109q0 -114 -61 -184q-101 -113 -308 -113q-102 0 -196 35q-69 26 -130 69q-83 -17 -225 -17h-175zM386 505 q0 -30 7 -67q10 -53 50 -114q17 17 29 36q39 60 39 133q0 28 -15 75q-12 38 -40 38q-32 0 -48 -31q-22 -43 -22 -70zM618 148q32 -16 80 -17q109 0 125 67q7 30 7 63q0 30 -33 108q-16 39 -50 84q2 -95 -30 -169q-35 -80 -99 -136z" />
<glyph unicode="&#x647;" arabic-form="medial" d="M-20 0v225h260q6 120 56 239q40 96 116 188q96 112 263 112q180 0 257 -96q68 -85 68 -224q0 -102 -92 -219h345v-225h-345q92 -117 92 -219q0 -139 -68 -224q-77 -96 -257 -96q-167 0 -263 112q-76 92 -116 188q-50 119 -56 239h-260zM508 0q0 -117 38 -189 q69 -132 125 -132q58 0 58 103q0 62 -69 139q-71 79 -133 79h-19zM508 225h19q62 0 133 79q69 77 69 139q0 103 -58 103q-56 0 -125 -132q-38 -72 -38 -189z" />
<glyph unicode="&#x648;" arabic-form="isolated" d="M76 -256q465 0 576 60q188 102 229 199q-51 0 -163 10q-146 13 -236 67q-116 72 -116 235q0 247 211 337q57 24 165 24q185 0 257 -51q126 -91 155 -263q17 -102 17 -178q0 -285 -172 -468q-79 -84 -179 -130q-188 -86 -744 -86v244zM660 318q0 -42 76 -70 q60 -23 160 -23q0 131 -60 172q-37 25 -73 25q-54 0 -79 -35q-24 -33 -24 -69z" />
<glyph unicode="&#x648;" arabic-form="final" d="M0 -256q465 0 576 60q188 102 229 199q-51 0 -163 10q-146 13 -236 67q-116 70 -116 235q0 247 211 337q57 24 165 24q185 0 257 -51q126 -89 155 -263q13 -75 16 -137h159v-225h-178q-39 -164 -152 -284q-79 -84 -179 -130q-188 -86 -744 -86v244zM584 318q0 -42 76 -70 q60 -23 160 -23q0 131 -60 172q-37 25 -73 25q-54 0 -79 -35q-24 -33 -24 -69z" />
<glyph unicode="&#x649;" arabic-form="isolated" d="M0 122q0 117 63 230h283q-66 -131 -64 -230q2 -159 91 -182q75 -20 158 -20q139 0 228 35q86 34 130 91q52 66 53 117q0 47 -16 73q-34 54 -142 70q-228 32 -226 273q2 176 123 246q104 60 219 60q227 0 279 -99q54 -105 54 -222h-269q0 60 -14 74q-37 35 -71 34 q-25 -1 -51 -26q-28 -30 -28 -60q0 -75 125 -100q194 -39 276 -179q32 -55 32 -152q0 -126 -53 -204q-104 -151 -208 -209q-164 -92 -453 -92q-198 0 -319 60q-200 99 -200 412z" />
<glyph unicode="&#x649;" arabic-form="final" d="M-79 18q-6 92 30 230h280q-26 -80 -26 -196q1 -110 110 -132q60 -12 112 -13q57 0 159 22q44 10 103 47q54 35 54 60t-17 40q-20 17 -55 53q-47 48 -47 146q0 106 49 173q47 65 125 92q44 15 140 14q86 0 150 -50q73 -58 95 -148q30 -131 58 -131h12v-225h-35 q-172 0 -216 172q-43 170 -94 165q-13 -1 -24 -15q-14 -18 -14 -36q0 -12 42 -54q76 -76 76 -184q0 -146 -62 -206q-75 -72 -186 -123q-154 -71 -311 -71q-122 0 -268 36q-223 56 -240 334z" />
<glyph unicode="&#x64a;" arabic-form="isolated" d="M0 122q0 117 63 230h283q-66 -131 -64 -230q2 -159 91 -182q75 -20 158 -20q139 0 228 35q86 34 130 91q52 66 53 117q0 47 -16 73q-34 54 -142 70q-228 32 -226 273q2 176 123 246q104 60 219 60q227 0 279 -99q54 -105 54 -222h-269q0 60 -14 74q-37 35 -71 34 q-25 -1 -51 -26q-28 -30 -28 -60q0 -75 125 -100q194 -39 276 -179q32 -55 32 -152q0 -126 -53 -204q-104 -151 -208 -209q-164 -92 -453 -92q-198 0 -319 60q-200 99 -200 412zM279 -436h225v-225h-225v225zM629 -436h225v-225h-225v225z" />
<glyph unicode="&#x64a;" arabic-form="final" d="M-79 18q-6 92 30 230h280q-26 -80 -26 -196q1 -110 110 -132q60 -12 112 -13q57 0 159 22q44 10 103 47q54 35 54 60t-17 40q-20 17 -55 53q-47 48 -47 146q0 106 49 173q47 65 125 92q44 15 140 14q86 0 150 -50q73 -58 95 -148q30 -131 58 -131h12v-225h-35 q-172 0 -216 172q-43 170 -94 165q-13 -1 -24 -15q-14 -18 -14 -36q0 -12 42 -54q76 -76 76 -184q0 -146 -62 -206q-75 -72 -186 -123q-154 -71 -311 -71q-122 0 -268 36q-223 56 -240 334zM172 -443h225v-225h-225v225zM522 -443h225v-225h-225v225z" />
<glyph unicode="&#x64a;" arabic-form="initial" d="M-36 0v225h174q235 0 279 44q49 49 49 155v176h284v-176q0 -228 -92 -338q-72 -86 -465 -86h-229zM306 -135h225v-225h-225v225zM656 -135h225v-225h-225v225z" />
<glyph unicode="&#x64a;" arabic-form="medial" d="M-32 0v225h240q161 0 205 44q49 49 49 155v217h290v-217q0 -106 49 -155q44 -44 207 -44h257v-225h-365q-227 0 -294 72q-64 -72 -291 -72h-347zM319 -139h225v-225h-225v225zM669 -139h225v-225h-225v225z" />
<glyph unicode="&#xd;" />
<glyph unicode=" " />
<glyph unicode="!" d="M483 0v283h267v-283h-267zM483 838v655h267v-655l-33 -357h-199z" />
<glyph unicode="&#x22;" d="M231 938v555h256v-555h-256zM743 938v555h256v-555h-256z" />
<glyph unicode="#" d="M2 373v215h260l74 293h-219v215h274l94 374h222l-95 -374h203l94 374h224l-97 -374h193v-215h-246l-74 -293h205v-215h-258l-94 -373h-221l94 373h-205l-94 -373h-221l94 373h-207zM483 588h205l74 293h-205z" />
<glyph unicode="$" d="M164 942q0 167 102 266t287 111v237h141l1 -237q71 -4 147.5 -18t156.5 -39v-256q-62 40 -138 64t-167 30v-307q197 -31 297.5 -134.5t100.5 -275.5q0 -164 -108.5 -269t-288.5 -114l-1 -301h-141l-1 301q-87 3 -182 26t-198 66v262q103 -61 199.5 -94t181.5 -34v329 q-197 39 -293 134.5t-96 252.5zM428 967q0 -57 31.5 -95t93.5 -55v283q-62 -8 -93.5 -41.5t-31.5 -91.5zM694 226q63 9 98 48.5t35 100.5q0 62 -34.5 101.5t-98.5 51.5v-302z" />
<glyph unicode="%" d="M33 1112q0 134 93 227t226 93t226.5 -93.5t93.5 -226.5t-93.5 -226t-226.5 -93t-226 92.5t-93 226.5zM86 561l1042 418l41 -96l-1048 -418zM215 1112q0 -58 40 -97.5t97 -39.5q58 0 97.5 39.5t39.5 97.5q0 57 -40 97t-97 40t-97 -39.5t-40 -97.5zM580 319q0 134 92.5 227 t226.5 93q132 0 226 -93.5t94 -226.5q0 -132 -94 -225.5t-226 -93.5q-134 0 -226.5 92.5t-92.5 226.5zM762 319q0 -58 39 -97.5t96 -39.5q58 0 98.5 40t40.5 97t-41 97.5t-98 40.5q-56 0 -95.5 -40t-39.5 -98z" />
<glyph unicode="&#x26;" d="M37 442q0 145 70.5 264t209.5 207q-50 78 -74 144.5t-24 126.5q0 162 109 249t315 87q73 0 143 -11t138 -32v-256q-64 36 -129.5 54.5t-130.5 18.5q-80 0 -121 -28t-41 -82q0 -36 30.5 -99t98.5 -165l313 -480q21 38 32 87t11 106q0 30 -2 58.5t-6 53.5h235v-51 q0 -145 -34 -253.5t-107 -194.5l162 -246h-317l-48 72q-75 -50 -159.5 -75.5t-171.5 -25.5q-224 0 -363 131t-139 340zM307 496q0 -122 78.5 -205.5t192.5 -83.5q28 0 57.5 6.5t57.5 18.5l8 4q29 14 47 26l-308 469q-66 -43 -99.5 -102.5t-33.5 -132.5z" />
<glyph unicode="'" d="M487 938v555h256v-555h-256z" />
<glyph unicode="(" d="M383 643q0 232 77.5 457.5t235.5 453.5h228q-132 -239 -196 -463t-64 -448q0 -222 64 -447.5t196 -465.5h-228q-159 231 -236 455.5t-77 457.5z" />
<glyph unicode=")" d="M309 -270q132 240 196 465.5t64 447.5q0 224 -64 448t-196 463h228q158 -228 235.5 -453.5t77.5 -457.5q0 -233 -77 -457.5t-236 -455.5h-228z" />
<glyph unicode="*" d="M121 870l332 174l-332 173l76 141l331 -182v344h172v-344l332 182l76 -141l-330 -173l330 -174l-76 -141l-332 184v-344h-172v344l-331 -184z" />
<glyph unicode="+" d="M66 524v238h432v430h237v-430h430v-238h-430v-432h-237v432h-432z" />
<glyph unicode="," d="M362 -287l99 383v271h313v-271l-196 -383h-216z" />
<glyph unicode="-" d="M301 444v291h631v-291h-631z" />
<glyph unicode="." d="M449 0v367h333v-367h-333z" />
<glyph unicode="/" d="M113 -190l786 1683h221l-786 -1683h-221z" />
<glyph unicode="0" d="M123 745q0 388 123 581.5t370 193.5q248 0 371 -193t123 -582q0 -388 -123 -581t-371 -193q-247 0 -370 193.5t-123 580.5zM420 745q0 -274 47 -399t149 -125q103 0 150 125t47 399q0 275 -47 400t-150 125q-102 0 -149 -125t-47 -400zM492 745q0 53 36 89t88 36 q53 0 89 -36t36 -89q0 -52 -36 -88t-89 -36q-52 0 -88 35.5t-36 88.5z" />
<glyph unicode="1" d="M188 0v260h330v969l-307 -76v266l309 74h285v-1233h330v-260h-947z" />
<glyph unicode="2" d="M115 0v252l160 170q285 303 346 373q75 86 108 152.5t33 131.5q0 100 -60.5 154.5t-171.5 54.5q-79 0 -177.5 -31.5t-205.5 -91.5v275q107 39 209.5 59.5t196.5 20.5q237 0 372.5 -110.5t135.5 -301.5q0 -88 -29.5 -165t-101.5 -171q-53 -68 -291 -306 q-129 -129 -205 -206h629v-260h-948z" />
<glyph unicode="3" d="M125 45v274q94 -47 203 -71.5t229 -24.5t190 55.5t70 149.5q0 115 -70 177.5t-198 62.5h-158v260h158q110 0 170.5 43.5t60.5 122.5q0 83 -60.5 129.5t-170.5 46.5q-84 0 -180 -21t-199 -61v268q103 31 203 47.5t192 16.5q236 0 368 -103t132 -284q0 -133 -76 -217.5 t-217 -110.5q160 -28 244 -127.5t84 -261.5q0 -217 -139 -331t-404 -114q-113 0 -222.5 19t-209.5 55z" />
<glyph unicode="4" d="M102 322v286l566 885h309v-918h164v-253h-164v-322h-283v322h-592zM317 575h377v590z" />
<glyph unicode="5" d="M143 35v266q83 -41 170.5 -61.5t175.5 -20.5q156 0 237 66.5t81 193.5q0 117 -80.5 187.5t-214.5 70.5q-79 0 -158.5 -19.5t-160.5 -58.5v834h811v-260h-572v-277q36 14 77 20.5t87 6.5q222 0 360 -140t138 -364q0 -235 -149.5 -371.5t-407.5 -136.5q-96 0 -194 16 t-200 48z" />
<glyph unicode="6" d="M131 743q0 388 151 581.5t453 193.5q70 0 144.5 -15t150.5 -45v-268q-79 45 -151.5 67.5t-139.5 22.5q-160 0 -243.5 -107.5t-87.5 -317.5q47 65 120 97.5t172 32.5q202 0 312 -127.5t110 -361.5q0 -251 -123.5 -389t-347.5 -138q-273 0 -396.5 183t-123.5 591zM446 477 q0 -131 50.5 -200.5t146.5 -69.5t147.5 69.5t51.5 200.5t-51.5 201t-147.5 70t-146.5 -69.5t-50.5 -201.5z" />
<glyph unicode="7" d="M135 1233v260h944v-209l-506 -1284h-301l486 1233h-623z" />
<glyph unicode="8" d="M129 420q0 138 71 236t197 135q-113 39 -172 122.5t-59 204.5q0 186 121 294t329 108q209 0 330 -108t121 -294q0 -120 -58 -203.5t-169 -123.5q124 -38 194 -136t70 -235q0 -215 -127 -332t-361 -117q-233 0 -360 117t-127 332zM395 438q0 -103 61 -166t160 -63 t160.5 64t61.5 165q0 103 -61 165.5t-161 62.5q-99 0 -160 -62.5t-61 -165.5zM428 1094q0 -88 50.5 -139.5t137.5 -51.5q88 0 138.5 51.5t50.5 139.5q0 87 -50.5 137.5t-138.5 50.5q-86 0 -137 -51t-51 -137z" />
<glyph unicode="9" d="M111 983q0 250 123 387t348 137q273 0 396.5 -182.5t123.5 -589.5q0 -387 -151 -580.5t-453 -193.5q-70 0 -144.5 15t-150.5 44v269q79 -46 151.5 -68t139.5 -22q159 0 242.5 106.5t88.5 318.5q-47 -65 -120 -97.5t-173 -32.5q-201 0 -311 127.5t-110 361.5zM391 1012 q0 -131 51.5 -201t147.5 -70q95 0 145.5 69.5t50.5 201.5q0 131 -50.5 200.5t-145.5 69.5q-96 0 -147.5 -69.5t-51.5 -200.5z" />
<glyph unicode=":" d="M449 0v367h333v-367h-333zM449 698v365h333v-365h-333z" />
<glyph unicode=";" d="M371 -287l78 383v271h333v-271l-196 -383h-215zM449 698v365h333v-365h-333z" />
<glyph unicode="&#x3c;" d="M88 524v236l1057 416v-250l-795 -285l795 -283v-249z" />
<glyph unicode="=" d="M88 295v237h1057v-237h-1057zM88 752v235h1057v-235h-1057z" />
<glyph unicode="&#x3e;" d="M88 109v249l795 283l-795 285v250l1057 -416v-236z" />
<glyph unicode="?" d="M233 1139v268q98 56 198.5 84.5t201.5 28.5q202 0 317 -94t115 -259q0 -76 -34 -141.5t-128 -157.5l-88 -86q-68 -66 -87 -108t-19 -103q0 -9 -0.5 -21t-1.5 -26v-123h-267v154q0 99 31 169t111 148l90 89q63 61 85.5 101t22.5 83q0 67 -46 101t-138 34 q-84 0 -175.5 -35.5t-187.5 -105.5zM440 0v283h267v-283h-267z" />
<glyph unicode="@" d="M6 543q0 387 187 619.5t495 232.5q218 0 344.5 -131.5t126.5 -358.5v-770h-196v82q-38 -53 -89.5 -77.5t-123.5 -24.5q-164 0 -264.5 118t-100.5 312q0 193 100 310.5t265 117.5q71 0 125 -24.5t88 -71.5v41q0 136 -74.5 210t-212.5 74q-208 0 -339.5 -183t-131.5 -476 q0 -307 152 -488.5t405 -181.5q80 0 155 23.5t144 70.5l92 -176q-81 -55 -176.5 -82.5t-204.5 -27.5q-350 0 -558 233t-208 629zM592 545q0 -114 50.5 -178t139.5 -64t140 64t51 178q0 113 -51 177t-140 64t-139.5 -64t-50.5 -177z" />
<glyph unicode="A" d="M33 0l403 1493h361l403 -1493h-295l-92 369h-395l-90 -369h-295zM477 612h279l-140 611z" />
<glyph unicode="B" d="M125 0v1495h481q249 0 374.5 -94.5t125.5 -282.5q0 -144 -74 -225t-217 -94q171 -17 257.5 -115t86.5 -274q0 -216 -130 -313t-423 -97h-481zM410 236h196q141 0 197.5 48t56.5 167q0 121 -59 174t-195 53h-196v-442zM410 913h196q112 0 159.5 40t47.5 132t-48.5 133.5 t-158.5 41.5h-196v-347z" />
<glyph unicode="C" d="M152 745q0 377 159 576t461 199q85 0 163 -18t146 -54v-328q-76 70 -147.5 102.5t-147.5 32.5q-162 0 -244.5 -128.5t-82.5 -381.5q0 -252 82.5 -380.5t244.5 -128.5q76 0 147.5 32.5t147.5 102.5v-328q-70 -36 -147 -54t-162 -18q-302 0 -461 199t-159 575z" />
<glyph unicode="D" d="M137 0v1493h316q366 0 527 -174.5t161 -570.5q0 -397 -161 -572.5t-527 -175.5h-316zM432 266h80q174 0 248 109.5t74 372.5q0 261 -74 370t-248 109h-80v-961z" />
<glyph unicode="E" d="M168 0v1493h930v-260h-635v-322h575v-260h-575v-391h635v-260h-930z" />
<glyph unicode="F" d="M182 0v1493h930v-260h-635v-322h578v-260h-578v-651h-295z" />
<glyph unicode="G" d="M117 745q0 377 159.5 576t460.5 199q90 0 177 -25.5t163 -73.5v-327q-62 80 -142.5 120.5t-176.5 40.5q-168 0 -251 -126.5t-83 -383.5q0 -249 80 -379t233 -130q46 0 80 8.5t55 25.5v285h-202v248h460v-684q-85 -73 -187.5 -110.5t-219.5 -37.5q-290 0 -448 201.5 t-158 572.5z" />
<glyph unicode="H" d="M137 0v1493h295v-569h369v569h295v-1493h-295v664h-369v-664h-295z" />
<glyph unicode="I" d="M172 0v260h297v973h-297v260h889v-260h-297v-973h297v-260h-889z" />
<glyph unicode="J" d="M109 74v342q86 -88 183.5 -134t196.5 -46q116 0 170 58t54 185v754h-361v260h656v-1014q0 -273 -114.5 -390.5t-377.5 -117.5q-95 0 -198.5 26t-208.5 77z" />
<glyph unicode="K" d="M117 0v1493h295v-590l462 590h334l-471 -588l488 -905h-328l-354 672l-131 -166v-506h-295z" />
<glyph unicode="L" d="M225 0v1493h295v-1233h631v-260h-926z" />
<glyph unicode="M" d="M86 0v1493h352l178 -655l177 655h354v-1493h-254v1196l-158 -653h-235l-160 653v-1196h-254z" />
<glyph unicode="N" d="M119 0v1493h317l416 -1085v1085h260v-1493h-315l-418 1085v-1085h-260z" />
<glyph unicode="O" d="M92 745q0 383 132.5 579t391.5 196q260 0 392.5 -196t132.5 -579q0 -382 -132.5 -578t-392.5 -196q-259 0 -391.5 196t-132.5 578zM399 745q0 -268 52 -388.5t165 -120.5q114 0 166 120.5t52 388.5q0 269 -52 389.5t-166 120.5q-113 0 -165 -120.5t-52 -389.5z" />
<glyph unicode="P" d="M162 0v1493h405q309 0 444.5 -110t135.5 -357t-135.5 -357t-444.5 -110h-110v-559h-295zM457 807h121q145 0 203.5 49t58.5 170t-58.5 170t-203.5 49h-121v-438z" />
<glyph unicode="Q" d="M92 745q0 383 132.5 579t391.5 196q260 0 392.5 -196t132.5 -579q0 -263 -63 -440.5t-183 -253.5l186 -182l-202 -150l-223 258q-14 -3 -23.5 -4.5t-18.5 -1.5q-257 0 -389.5 196t-132.5 578zM399 745q0 -268 52 -388.5t165 -120.5q114 0 166 120.5t52 388.5 q0 269 -52 389.5t-166 120.5q-113 0 -165 -120.5t-52 -389.5z" />
<glyph unicode="R" d="M133 0v1493h426q288 0 413.5 -102t125.5 -332q0 -154 -75 -245t-216 -109q44 -9 76.5 -41.5t79.5 -126.5l270 -537h-324l-180 377q-8 16 -21 44q-79 169 -186 169h-94v-590h-295zM428 838h139q121 0 173.5 47.5t52.5 156.5t-52 156t-174 47h-139v-407z" />
<glyph unicode="S" d="M129 1085q0 203 130 319t357 116q103 0 206 -23.5t204 -69.5v-288q-95 67 -193 102t-194 35q-107 0 -164 -43t-57 -123q0 -62 41.5 -102.5t173.5 -89.5l127 -48q180 -66 265 -175t85 -275q0 -226 -133.5 -337.5t-403.5 -111.5q-111 0 -222.5 26.5t-215.5 78.5v305 q118 -84 228.5 -125t218.5 -41q109 0 169 49.5t60 138.5q0 67 -40 117.5t-116 79.5l-145 55q-223 85 -302 178.5t-79 251.5z" />
<glyph unicode="T" d="M90 1235v258h1053v-258h-379v-1235h-295v1235h-379z" />
<glyph unicode="U" d="M106 551v942h295v-1016q0 -112 57 -175.5t158 -63.5t158 63.5t57 175.5v1016h295v-942q0 -304 -121 -442t-389 -138q-267 0 -388.5 138t-121.5 442z" />
<glyph unicode="V" d="M57 1493h297l262 -1247l263 1247h297l-355 -1493h-409z" />
<glyph unicode="W" d="M0 1493h258l107 -1096l129 709h245l150 -709l84 1096h260l-172 -1493h-275l-170 784l-159 -784h-273z" />
<glyph unicode="X" d="M27 0l438 758l-426 735h305l272 -475l273 475h305l-424 -735l436 -758h-305l-285 494l-284 -494h-305z" />
<glyph unicode="Y" d="M8 1493h318l290 -600l291 600h318l-461 -905v-588h-295v588z" />
<glyph unicode="Z" d="M115 0v244l671 989h-649v260h1010v-244l-692 -989h706v-260h-1046z" />
<glyph unicode="[" d="M422 -270v1826h508v-190h-242v-1446h242v-190h-508z" />
<glyph unicode="\" d="M111 1493h223l786 -1683h-223z" />
<glyph unicode="]" d="M303 -80h242v1446h-242v190h508v-1826h-508v190z" />
<glyph unicode="^" d="M57 936l437 557h245l437 -557h-242l-318 301l-317 -301h-242z" />
<glyph unicode="_" d="M0 -293h1233v-190h-1233v190z" />
<glyph unicode="`" d="M199 1638h282l283 -376h-197z" />
<glyph unicode="a" d="M94 354q0 196 127 289.5t393 93.5h203v49q0 71 -51.5 107.5t-151.5 36.5q-105 0 -203.5 -26.5t-205.5 -84.5v250q97 40 197 59t212 19q273 0 383.5 -111t110.5 -397v-639h-291v125q-53 -74 -136 -114t-183 -40q-191 0 -297.5 101t-106.5 282zM406 340q0 -76 45 -121 t122 -45q116 0 180 87.5t64 244.5v20h-117q-164 0 -229 -42t-65 -144z" />
<glyph unicode="b" d="M150 0v1556h292v-595q54 93 125.5 139.5t161.5 46.5q199 0 306.5 -152t107.5 -436q0 -280 -106 -434t-298 -154q-101 0 -176 49t-121 146v-166h-292zM442 557q0 -162 55 -254t150 -92t149 92t54 254t-54 254t-149 92t-150 -92t-55 -254z" />
<glyph unicode="c" d="M168 559q0 277 147 433.5t406 156.5q90 0 173.5 -21t166.5 -65v-268q-64 55 -140.5 84.5t-158.5 29.5q-143 0 -220 -91t-77 -259t77 -258t220 -90q85 0 159 28.5t140 86.5v-269q-74 -43 -159 -64.5t-183 -21.5q-259 0 -405 156t-146 432z" />
<glyph unicode="d" d="M90 559q0 284 107.5 436t306.5 152q90 0 161.5 -46.5t125.5 -139.5v595h292v-1556h-292v166q-47 -97 -121.5 -146t-175.5 -49q-192 0 -298 154t-106 434zM383 557q0 -162 54 -254t149 -92t150 92t55 254t-55 254t-150 92t-149 -92t-54 -254z" />
<glyph unicode="e" d="M92 555q0 274 143 433t390 159q249 0 386.5 -147.5t137.5 -415.5v-119h-759q1 -132 78 -197t230 -65q101 0 199 29t205 92v-269q-102 -42 -208 -63t-224 -21q-281 0 -429.5 150.5t-148.5 433.5zM393 684l461 1q-2 116 -59.5 175.5t-169.5 59.5q-101 0 -161 -61.5 t-71 -174.5z" />
<glyph unicode="f" d="M174 895v225h272v78q0 202 84 280t312 78h241v-225h-229q-66 0 -89.5 -24t-25.5 -89v-98h344v-225h-344v-895h-293v895h-272z" />
<glyph unicode="g" d="M98 571q0 266 113 422t303 156q96 0 171 -45t118 -127v143h293v-1036q0 -269 -121.5 -388.5t-394.5 -119.5q-92 0 -182 13.5t-183 41.5v269q83 -46 169 -68t177 -22q124 0 183 58.5t59 182.5v121q-43 -80 -114 -119t-173 -39q-192 0 -305 150t-113 407zM391 578 q0 -152 56.5 -242t148.5 -90q93 0 150 90.5t57 241.5q0 150 -57 240.5t-150 90.5q-92 0 -148.5 -90t-56.5 -241z" />
<glyph unicode="h" d="M172 0v1556h291v-604q31 93 106 144t181 51q159 0 240 -105.5t81 -314.5v-727h-291v682q0 121 -34.5 173t-112.5 52q-80 0 -125 -70.5t-45 -195.5v-641h-291z" />
<glyph unicode="i" d="M143 0v225h365v670h-287v225h580v-895h364v-225h-1022zM508 1323v342h293v-342h-293z" />
<glyph unicode="j" d="M143 -199h234q98 0 139 55t41 187v852h-297v225h590v-1077q0 -252 -90.5 -359.5t-300.5 -107.5h-316v225zM557 1323v342h293v-342h-293z" />
<glyph unicode="k" d="M174 0v1556h293v-817l352 381h355l-424 -418l448 -702h-324l-307 524l-100 -96v-428h-293z" />
<glyph unicode="l" d="M90 1331v225h590v-1089q0 -132 41 -187t139 -55h234v-225h-316q-209 0 -300 108t-91 359v864h-297z" />
<glyph unicode="m" d="M82 0v1120h213v-116q25 66 80 104.5t123 38.5t124 -40.5t68 -98.5q33 71 84 105t125 34q145 0 200.5 -100t55.5 -416v-631h-240v719q0 125 -19 167t-69 42t-70 -43t-20 -166v-719h-237v719q0 123 -20 166t-70 43t-69 -42t-19 -167v-719h-240z" />
<glyph unicode="n" d="M172 0v1120h291v-168q31 93 106 144t181 51q159 0 240 -105.5t81 -314.5v-727h-291v682q0 122 -34.5 174.5t-112.5 52.5q-79 0 -124.5 -71t-45.5 -197v-641h-291z" />
<glyph unicode="o" d="M98 559q0 271 140.5 429.5t377.5 158.5q238 0 378.5 -158.5t140.5 -429.5t-140.5 -429.5t-378.5 -158.5q-237 0 -377.5 158.5t-140.5 429.5zM391 559q0 -165 60 -257.5t165 -92.5q106 0 166 92.5t60 257.5t-60 257.5t-166 92.5q-105 0 -165 -92.5t-60 -257.5z" />
<glyph unicode="p" d="M150 -426v1546h292v-168q46 97 121 146t176 49q192 0 298 -154t106 -434q0 -284 -107.5 -436t-306.5 -152q-90 0 -161.5 46.5t-125.5 140.5v-584h-292zM442 561q0 -162 55 -254t150 -92t149 92t54 254t-54 254t-149 92t-150 -92t-55 -254z" />
<glyph unicode="q" d="M90 559q0 280 106 434t298 154q101 0 175.5 -49t121.5 -146v168h292v-1546h-292v584q-54 -94 -125.5 -140.5t-161.5 -46.5q-199 0 -306.5 152t-107.5 436zM383 561q0 -162 54 -254t149 -92t150 92t55 254t-55 254t-150 92t-149 -92t-54 -254z" />
<glyph unicode="r" d="M291 0v1120h293v-174q43 96 132 148.5t208 52.5q60 0 117.5 -14.5t109.5 -42.5v-279q-48 44 -112.5 66t-141.5 22q-93 0 -162.5 -32.5t-107.5 -94.5q-24 -38 -33.5 -92t-9.5 -164v-516h-293z" />
<glyph unicode="s" d="M172 805q0 162 117 252t329 90q95 0 189.5 -15.5t183.5 -46.5v-256q-81 52 -168.5 78.5t-175.5 26.5q-98 0 -148 -28.5t-50 -84.5q0 -80 214 -130l11 -3l84 -20q160 -38 234.5 -122.5t74.5 -228.5q0 -173 -113.5 -259.5t-341.5 -86.5q-101 0 -207 17.5t-215 52.5v256 q97 -55 197.5 -84t194.5 -29q103 0 156 30t53 87q0 56 -37.5 86t-178.5 64l-81 18q-168 38 -245 119t-77 217z" />
<glyph unicode="t" d="M111 895v225h286v318h293v-318h383v-225h-383v-530q0 -75 36.5 -107.5t121.5 -32.5h225v-225h-246q-252 0 -341 80.5t-89 298.5v516h-286z" />
<glyph unicode="u" d="M160 391v729h293v-684q0 -121 34 -173t113 -52t123.5 70t44.5 196v643h293v-1120h-293v166q-31 -93 -105.5 -144t-179.5 -51q-160 0 -241.5 106t-81.5 314z" />
<glyph unicode="v" d="M80 1120h297l239 -874l240 874h297l-356 -1120h-361z" />
<glyph unicode="w" d="M0 1120h244l133 -858l121 565h237l119 -565l135 858h244l-203 -1120h-278l-136 582l-135 -582h-278z" />
<glyph unicode="x" d="M55 0l414 584l-381 536h342l186 -334l187 334h342l-377 -536l410 -584h-342l-220 377l-219 -377h-342z" />
<glyph unicode="y" d="M59 1120h308l256 -727l245 727h308l-465 -1241q-59 -158 -141.5 -230.5t-200.5 -72.5h-242v223h119q90 0 132 30.5t85 141.5l22 60z" />
<glyph unicode="z" d="M162 0v229l590 672h-566v219h895v-229l-589 -672h589v-219h-919z" />
<glyph unicode="{" d="M176 516v191h62q140 0 193.5 57t53.5 209v215q0 221 84.5 294.5t333.5 73.5h150v-190h-123q-104 0 -139 -42t-35 -185v-209q0 -165 -49 -232t-175 -86q126 -21 175 -89t49 -232v-205q0 -144 35 -186.5t139 -42.5h123v-191h-150q-249 0 -333.5 74t-84.5 295v215 q0 151 -53.5 208.5t-193.5 57.5h-62z" />
<glyph unicode="|" d="M502 -483v2048h227v-2048h-227z" />
<glyph unicode="}" d="M180 -143h121q104 0 140 43t36 186v205q0 164 49 232t174 89q-126 19 -174.5 86t-48.5 232v209q0 141 -35.5 184t-140.5 43h-121v190h150q248 0 331.5 -73.5t83.5 -294.5v-215q0 -151 54.5 -208.5t195.5 -57.5h62v-191h-62q-141 0 -195.5 -58t-54.5 -208v-215 q0 -221 -83.5 -295t-331.5 -74h-150v191z" />
<glyph unicode="~" d="M88 465v229q78 61 151 88t156 27q53 0 103 -11t124 -42l33 -15q116 -55 209 -55q70 0 139 30.5t142 94.5v-233q-75 -60 -146.5 -87.5t-150.5 -27.5q-90 0 -203 51q-22 10 -33 14q-77 34 -128.5 46t-102.5 12q-78 0 -148.5 -29t-144.5 -92z" />
<glyph unicode="&#xa0;" />
<glyph unicode="&#xa1;" d="M483 0v655l33 357h199l35 -357v-655h-267zM483 1210v283h267v-283h-267z" />
<glyph unicode="&#xa2;" d="M147 561q0 255 136.5 411.5t371.5 172.5v287h142v-287q61 -5 119.5 -21.5t119.5 -46.5v-268q-56 42 -116 66.5t-123 31.5v-692q64 5 123.5 29t115.5 67v-268q-52 -29 -112 -46t-127 -22v-288h-142v288q-235 22 -371.5 179t-136.5 407zM418 561q0 -155 63 -247.5 t174 -98.5v692q-114 -14 -175.5 -103.5t-61.5 -242.5z" />
<glyph unicode="&#xa3;" d="M119 0v260h235v334h-198v225h198v197q0 256 112.5 380t344.5 124q83 0 154 -14.5t137 -43.5v-274q-57 41 -122 62.5t-134 21.5q-106 0 -155.5 -66.5t-49.5 -210.5v-176h336v-225h-336v-334h481v-260h-1003z" />
<glyph unicode="&#xa4;" d="M186 305l170 170q-22 42 -33.5 83.5t-11.5 82.5q0 47 11.5 87.5t35.5 78.5l-172 170l131 131l166 -172q41 24 82.5 35.5t87.5 11.5q39 0 79.5 -11t86.5 -34l172 170l127 -129l-170 -170q23 -41 34 -82.5t11 -85.5q0 -47 -11.5 -87.5t-35.5 -76.5l172 -170l-131 -131 l-170 172q-36 -24 -76 -35.5t-88 -11.5q-39 0 -81 10.5t-87 32.5l-170 -168zM479 643q0 -74 50.5 -125t123.5 -51q74 0 124 51t50 125q0 73 -50 122.5t-124 49.5q-73 0 -123.5 -49.5t-50.5 -122.5z" />
<glyph unicode="&#xa5;" d="M8 1493h318l290 -600l291 600h318l-273 -528h224v-187h-322l-86 -151h408v-189h-412v-438h-295v438h-412v189h408l-86 151h-322v187h224z" />
<glyph unicode="&#xa6;" d="M502 -350v758h227v-758h-227zM502 674v758h227v-758h-227z" />
<glyph unicode="&#xa7;" d="M170 688q0 94 52 163.5t149 102.5q-71 50 -103 110t-32 142q0 142 104 228t276 86q74 0 152.5 -15t161.5 -45v-225q-85 30 -151 44.5t-120 14.5q-76 0 -118.5 -29t-42.5 -81q0 -75 203 -180q19 -10 28 -15q214 -110 273 -180.5t59 -171.5q0 -89 -47.5 -153t-149.5 -111 q70 -50 102.5 -111.5t32.5 -142.5q0 -147 -104.5 -230.5t-290.5 -83.5q-89 0 -175 14.5t-171 43.5v229q85 -30 166 -45.5t154 -15.5q77 0 118 28.5t41 81.5q0 70 -214 185l-11 6l-26 14q-316 170 -316 342zM414 711q0 -54 48.5 -98t248.5 -140q55 36 79.5 70.5t24.5 77.5 q0 81 -265 219l-32 16q-55 -36 -79.5 -70.5t-24.5 -74.5z" />
<glyph unicode="&#xa8;" d="M301 1339v246h236v-246h-236zM696 1339v246h236v-246h-236z" />
<glyph unicode="&#xa9;" d="M0 741q0 126 46 236t136 201q90 90 199 135t235 45q127 0 236 -45t199 -135q90 -91 136 -201t46 -236q0 -125 -45.5 -234t-136.5 -200t-200 -136.5t-235 -45.5q-125 0 -234 45.5t-200 136.5t-136.5 200t-45.5 234zM131 741q0 -98 36 -183t107 -157t157 -108.5t185 -36.5 q100 0 186 36.5t156 108.5q72 72 108 157t36 183q0 101 -36 187t-108 157q-72 73 -156.5 108.5t-185.5 35.5q-99 0 -184 -35.5t-158 -108.5q-71 -71 -107 -157t-36 -187zM266 741q0 156 101 249t270 93q55 0 107.5 -8.5t103.5 -25.5v-168q-52 31 -97.5 45t-93.5 14 q-97 0 -150.5 -52t-53.5 -147t53 -146.5t151 -51.5q53 0 101 14.5t90 44.5v-168q-55 -17 -108 -26t-103 -9q-169 0 -270 93.5t-101 248.5z" />
<glyph unicode="&#xaa;" d="M256 952q0 134 92.5 200.5t280.5 66.5h157v26q0 49 -45.5 73.5t-136.5 24.5q-82 0 -153.5 -16.5t-135.5 -50.5v188q73 28 147 42t150 14q189 0 278 -86t89 -269v-448h-193v92q-50 -57 -110.5 -84t-138.5 -27q-130 0 -205.5 68.5t-75.5 185.5zM293 428v170h688v-170h-688z M475 971q0 -49 30.5 -77t84.5 -28q86 0 141 51.5t55 131.5v30h-102q-109 0 -159 -26t-50 -82z" />
<glyph unicode="&#xab;" d="M119 535v131l469 393v-238l-277 -221l277 -221v-238zM573 535v131l469 393v-238l-276 -221l276 -221v-238z" />
<glyph unicode="&#xac;" d="M88 662v237h1057v-537h-238v300h-819z" />
<glyph unicode="&#xad;" d="M301 444v291h631v-291h-631z" />
<glyph unicode="&#xae;" d="M0 741q0 126 46 236t136 201q90 90 199 135t235 45q127 0 236 -45t199 -135q90 -91 136 -201t46 -236q0 -125 -45.5 -234t-136.5 -200t-200 -136.5t-235 -45.5q-125 0 -234 45.5t-200 136.5t-136.5 200t-45.5 234zM131 741q0 -98 36 -183t107 -159q72 -71 157.5 -107 t184.5 -36t185 36t157 107q72 74 108 159t36 183q0 101 -36 187t-108 157q-72 73 -156.5 108.5t-185.5 35.5q-99 0 -184 -35.5t-158 -108.5q-71 -71 -107 -157t-36 -187zM360 430v625h246q133 0 197.5 -44t64.5 -134q0 -65 -39 -107.5t-110 -54.5q38 -14 65.5 -42t51.5 -77 l79 -166h-172l-63 133q-27 58 -55.5 81.5t-69.5 25.5h-31v-240h-164zM524 780h64q57 0 85.5 20t28.5 60q0 43 -28 63.5t-86 20.5h-64v-164z" />
<glyph unicode="&#xaf;" d="M301 1368v188h631v-188h-631z" />
<glyph unicode="&#xb0;" d="M283 1186q0 141 96 237.5t237 96.5q67 0 128 -25.5t108 -73.5q47 -47 71.5 -107t24.5 -128q0 -66 -25 -127t-71 -107q-48 -47 -109 -72.5t-129 -25.5q-141 0 -236 95t-95 237zM444 1186q0 -72 49 -121t121 -49t122 49.5t50 120.5q0 72 -49.5 122t-120.5 50 q-72 0 -122 -50t-50 -122z" />
<glyph unicode="&#xb1;" d="M88 0v238h1057v-238h-1057zM88 694v236h410v354h237v-354h410v-236h-410v-354h-237v354h-410z" />
<glyph unicode="&#xb2;" d="M274 668v141q51 43 141 118q314 262 314 341q0 52 -43.5 82t-118.5 30q-56 0 -123.5 -17.5t-144.5 -51.5v164q75 22 146 33.5t137 11.5q169 0 262.5 -62.5t93.5 -173.5q0 -126 -355 -406q-54 -42 -83 -65h440v-145h-666z" />
<glyph unicode="&#xb3;" d="M287 694v154q67 -27 143 -41t156 -14q85 0 132.5 32t47.5 88q0 61 -49 95t-135 34h-111v146h111q74 0 116.5 25t42.5 69q0 45 -39.5 70.5t-109.5 25.5q-69 0 -138 -11t-137 -34v152q69 17 138.5 26t136.5 9q162 0 254 -58t92 -159q0 -73 -52.5 -120t-150.5 -63 q111 -15 169.5 -71t58.5 -148q0 -121 -96.5 -184.5t-280.5 -63.5q-75 0 -150 10.5t-149 30.5z" />
<glyph unicode="&#xb4;" d="M469 1262l283 376h282l-368 -376h-197z" />
<glyph unicode="&#xb5;" d="M174 -428v1548h287v-680q0 -114 41 -171.5t123 -57.5q81 0 121 57t40 172v680h289v-776q0 -71 13.5 -102t44.5 -31q14 0 27 5.5t28 16.5v-217q-43 -23 -80 -34t-72 -11q-72 0 -117.5 37.5t-72.5 120.5q-37 -78 -92 -118t-125 -40q-59 0 -100.5 23.5t-67.5 71.5l2 -494 h-289z" />
<glyph unicode="&#xb6;" d="M70 1071q0 190 130 306t345 116h520v-1690h-191v1543h-190v-1543h-188v846q-205 25 -315.5 134.5t-110.5 287.5z" />
<glyph unicode="&#xb7;" d="M449 530v365h333v-365h-333z" />
<glyph unicode="&#xb8;" d="M367 -219q45 -17 87 -26t78 -9q58 0 90.5 23t32.5 63q0 26 -21 67t-67 101h140q57 -62 84.5 -115t27.5 -100q0 -95 -61.5 -140.5t-188.5 -45.5q-48 0 -98.5 6.5t-103.5 19.5v156z" />
<glyph unicode="&#xb9;" d="M313 668v145h226v543l-220 -43v149l222 41h194v-690h226v-145h-648z" />
<glyph unicode="&#xba;" d="M274 1108q0 189 98.5 300.5t264.5 111.5t264 -111t98 -301q0 -189 -97.5 -299.5t-264.5 -110.5q-166 0 -264.5 110.5t-98.5 299.5zM293 428v170h688v-170h-688zM479 1108q0 -109 42.5 -171.5t115.5 -62.5t115.5 62.5t42.5 171.5t-42.5 172t-115.5 63t-115.5 -63 t-42.5 -172z" />
<glyph unicode="&#xbb;" d="M193 141v238l276 221l-276 221v238l469 -393v-131zM647 141v238l277 221l-277 221v238l469 -393v-131z" />
<glyph unicode="&#xbc;" d="M47 618l1059 263l37 -119l-1059 -262zM55 824v145h226v543l-220 -43v149l222 41h194v-690h226v-145h-648zM430 72l375 493h204v-512h109v-143h-109v-180h-186v180h-393v162zM573 53h250v330z" />
<glyph unicode="&#xbd;" d="M47 618l1059 263l37 -119l-1059 -262zM55 824v145h226v543l-220 -43v149l222 41h194v-690h226v-145h-648zM475 -129q51 43 141 118q314 262 314 341q0 52 -43.5 82t-118.5 30q-56 0 -123.5 -17.5t-144.5 -51.5v164q75 22 146 33.5t137 11.5q169 0 262.5 -62.5 t93.5 -173.5q0 -126 -355 -406q-54 -42 -83 -65h440v-145h-666v141z" />
<glyph unicode="&#xbe;" d="M47 618l1059 263l37 -119l-1059 -262zM60 850v154q67 -27 143 -41t156 -14q85 0 132.5 32t47.5 88q0 61 -49 95t-135 34h-111v146h111q74 0 116.5 25t42.5 69q0 45 -39.5 70.5t-109.5 25.5q-69 0 -138 -11t-137 -34v152q69 17 138.5 26t136.5 9q162 0 254 -58t92 -159 q0 -73 -52.5 -120t-150.5 -63q111 -15 169.5 -71t58.5 -148q0 -121 -96.5 -184.5t-280.5 -63.5q-75 0 -150 10.5t-149 30.5zM430 72l375 493h204v-512h109v-143h-109v-180h-186v180h-393v162zM573 53h250v330z" />
<glyph unicode="&#xbf;" d="M176 326q0 76 34 141.5t128 157.5l88 86q66 64 85 106t19 105q0 1 1 6q1 21 1 41v123h267v-154q0 -99 -31 -169.5t-111 -147.5l-90 -89q-61 -59 -83.5 -99.5t-22.5 -84.5q0 -67 46 -101t138 -34q83 0 173.5 35.5t187.5 105.5v-268q-98 -56 -198.5 -84.5t-201.5 -28.5 q-201 0 -315.5 94t-114.5 259zM532 1210v283h267v-283h-267z" />
<glyph unicode="&#xc0;" d="M33 0l403 1493h361l403 -1493h-295l-92 369h-395l-90 -369h-295zM283 1899h284l199 -264h-197zM477 612h279l-140 611z" />
<glyph unicode="&#xc1;" d="M33 0l403 1493h361l403 -1493h-295l-92 369h-395l-90 -369h-295zM469 1635l199 264h284l-286 -264h-197zM477 612h279l-140 611z" />
<glyph unicode="&#xc2;" d="M33 0l403 1493h361l403 -1493h-295l-92 369h-395l-90 -369h-295zM240 1635l221 264h309l223 -264h-178l-199 161l-198 -161h-178zM477 612h279l-140 611z" />
<glyph unicode="&#xc3;" d="M33 0l403 1493h361l403 -1493h-295l-92 369h-395l-90 -369h-295zM268 1635v30q0 106 54.5 171t142.5 65q36 0 73.5 -12.5t75.5 -36.5l60 -39q21 -14 40.5 -21.5t35.5 -7.5q36 0 55.5 30t19.5 87h140q0 -5 -1 -15t-1 -16q0 -106 -53.5 -170.5t-141.5 -64.5q-37 0 -72.5 11 t-77.5 38l-54 34q-5 3 -12 7q-45 26 -73 26q-31 0 -51 -30t-20 -80v-6h-140zM477 612h279l-140 611z" />
<glyph unicode="&#xc4;" d="M33 0l403 1493h361l403 -1493h-295l-92 369h-395l-90 -369h-295zM301 1653v246h236v-246h-236zM477 612h279l-140 611zM696 1653v246h236v-246h-236z" />
<glyph unicode="&#xc5;" d="M33 0l385 1421q-44 37 -65 85.5t-21 109.5q0 117 83.5 201t200.5 84q118 0 201.5 -84t83.5 -201q0 -62 -21 -109.5t-65 -85.5l385 -1421h-295l-92 369h-395l-90 -369h-295zM477 612h279l-140 611zM485 1616q0 -54 39 -92.5t92 -38.5q55 0 93.5 38.5t38.5 92.5t-39 92.5 t-93 38.5q-53 0 -92 -38.5t-39 -92.5z" />
<glyph unicode="&#xc6;" d="M0 0l358 1493h803v-260h-291v-311h260v-260h-260v-402h310v-260h-564v362h-282l-86 -362h-248zM389 598h227v635h-79z" />
<glyph unicode="&#xc7;" d="M152 745q0 377 159 576t461 199q85 0 163 -18t146 -54v-328q-76 70 -147.5 102.5t-147.5 32.5q-162 0 -244.5 -128.5t-82.5 -381.5q0 -252 82.5 -380.5t244.5 -128.5q76 0 147.5 32.5t147.5 102.5v-328q-70 -36 -147 -54t-162 -18q-302 0 -461 199t-159 575zM484 -219 q45 -17 87 -26t78 -9q58 0 90.5 23t32.5 63q0 26 -21 67t-67 101h140q57 -62 84.5 -115t27.5 -100q0 -95 -61.5 -140.5t-188.5 -45.5q-48 0 -98.5 6.5t-103.5 19.5v156z" />
<glyph unicode="&#xc8;" d="M168 0v1493h930v-260h-635v-322h575v-260h-575v-391h635v-260h-930zM314 1899h284l199 -264h-197z" />
<glyph unicode="&#xc9;" d="M168 0v1493h930v-260h-635v-322h575v-260h-575v-391h635v-260h-930zM500 1635l199 264h284l-286 -264h-197z" />
<glyph unicode="&#xca;" d="M168 0v1493h930v-260h-635v-322h575v-260h-575v-391h635v-260h-930zM271 1635l221 264h309l223 -264h-178l-199 161l-198 -161h-178z" />
<glyph unicode="&#xcb;" d="M168 0v1493h930v-260h-635v-322h575v-260h-575v-391h635v-260h-930zM332 1653v246h236v-246h-236zM727 1653v246h236v-246h-236z" />
<glyph unicode="&#xcc;" d="M172 0v260h297v973h-297v260h889v-260h-297v-973h297v-260h-889zM283 1899h284l199 -264h-197z" />
<glyph unicode="&#xcd;" d="M172 0v260h297v973h-297v260h889v-260h-297v-973h297v-260h-889zM469 1635l199 264h284l-286 -264h-197z" />
<glyph unicode="&#xce;" d="M172 0v260h297v973h-297v260h889v-260h-297v-973h297v-260h-889zM240 1635l221 264h309l223 -264h-178l-199 161l-198 -161h-178z" />
<glyph unicode="&#xcf;" d="M172 0v260h297v973h-297v260h889v-260h-297v-973h297v-260h-889zM301 1653v246h236v-246h-236zM696 1653v246h236v-246h-236z" />
<glyph unicode="&#xd0;" d="M0 664v237h137v592h316q366 0 527 -174.5t161 -570.5q0 -397 -161 -572.5t-527 -175.5h-316v664h-137zM432 266h80q174 0 248 109.5t74 372.5q0 261 -74 370t-248 109h-80v-326h211v-237h-211v-398z" />
<glyph unicode="&#xd1;" d="M119 0v1493h317l416 -1085v1085h260v-1493h-315l-418 1085v-1085h-260zM268 1635v30q0 106 54.5 171t142.5 65q36 0 73.5 -12.5t75.5 -36.5l60 -39q21 -14 40.5 -21.5t35.5 -7.5q36 0 55.5 30t19.5 87h140q0 -5 -1 -15t-1 -16q0 -106 -53.5 -170.5t-141.5 -64.5 q-37 0 -72.5 11t-77.5 38l-54 34q-5 3 -12 7q-45 26 -73 26q-31 0 -51 -30t-20 -80v-6h-140z" />
<glyph unicode="&#xd2;" d="M92 745q0 383 132.5 579t391.5 196q260 0 392.5 -196t132.5 -579q0 -382 -132.5 -578t-392.5 -196q-259 0 -391.5 196t-132.5 578zM283 1899h284l199 -264h-197zM399 745q0 -268 52 -388.5t165 -120.5q114 0 166 120.5t52 388.5q0 269 -52 389.5t-166 120.5 q-113 0 -165 -120.5t-52 -389.5z" />
<glyph unicode="&#xd3;" d="M92 745q0 383 132.5 579t391.5 196q260 0 392.5 -196t132.5 -579q0 -382 -132.5 -578t-392.5 -196q-259 0 -391.5 196t-132.5 578zM399 745q0 -268 52 -388.5t165 -120.5q114 0 166 120.5t52 388.5q0 269 -52 389.5t-166 120.5q-113 0 -165 -120.5t-52 -389.5zM469 1635 l199 264h284l-286 -264h-197z" />
<glyph unicode="&#xd4;" d="M92 745q0 383 132.5 579t391.5 196q260 0 392.5 -196t132.5 -579q0 -382 -132.5 -578t-392.5 -196q-259 0 -391.5 196t-132.5 578zM240 1635l221 264h309l223 -264h-178l-199 161l-198 -161h-178zM399 745q0 -268 52 -388.5t165 -120.5q114 0 166 120.5t52 388.5 q0 269 -52 389.5t-166 120.5q-113 0 -165 -120.5t-52 -389.5z" />
<glyph unicode="&#xd5;" d="M92 745q0 383 132.5 579t391.5 196q260 0 392.5 -196t132.5 -579q0 -382 -132.5 -578t-392.5 -196q-259 0 -391.5 196t-132.5 578zM268 1635v30q0 106 54.5 171t142.5 65q36 0 73.5 -12.5t75.5 -36.5l60 -39q21 -14 40.5 -21.5t35.5 -7.5q36 0 55.5 30t19.5 87h140 q0 -5 -1 -15t-1 -16q0 -106 -53.5 -170.5t-141.5 -64.5q-37 0 -72.5 11t-77.5 38l-54 34q-5 3 -12 7q-45 26 -73 26q-31 0 -51 -30t-20 -80v-6h-140zM399 745q0 -268 52 -388.5t165 -120.5q114 0 166 120.5t52 388.5q0 269 -52 389.5t-166 120.5q-113 0 -165 -120.5 t-52 -389.5z" />
<glyph unicode="&#xd6;" d="M92 745q0 383 132.5 579t391.5 196q260 0 392.5 -196t132.5 -579q0 -382 -132.5 -578t-392.5 -196q-259 0 -391.5 196t-132.5 578zM301 1653v246h236v-246h-236zM399 745q0 -268 52 -388.5t165 -120.5q114 0 166 120.5t52 388.5q0 269 -52 389.5t-166 120.5 q-113 0 -165 -120.5t-52 -389.5zM696 1653v246h236v-246h-236z" />
<glyph unicode="&#xd7;" d="M119 313l330 330l-330 328l168 168l327 -328l330 328l168 -168l-330 -328l330 -330l-168 -166l-330 328l-327 -328z" />
<glyph unicode="&#xd8;" d="M-6 51l168 238q-35 88 -52.5 201.5t-17.5 254.5q0 383 132.5 579t391.5 196q103 0 186 -31t144 -92l113 162l162 -115l-158 -223q39 -94 58.5 -213.5t19.5 -262.5q0 -382 -132.5 -578t-392.5 -196q-106 0 -191 33.5t-149 99.5l-120 -167zM399 629l373 524 q-26 51 -65 76.5t-91 25.5q-112 0 -164.5 -120t-52.5 -379v-127zM451 354q24 -57 66.5 -87.5t98.5 -30.5q114 0 166 120.5t52 388.5q0 28 -1 59t-4 84z" />
<glyph unicode="&#xd9;" d="M106 551v942h295v-1016q0 -112 57 -175.5t158 -63.5t158 63.5t57 175.5v1016h295v-942q0 -304 -121 -442t-389 -138q-267 0 -388.5 138t-121.5 442zM283 1899h284l199 -264h-197z" />
<glyph unicode="&#xda;" d="M106 551v942h295v-1016q0 -112 57 -175.5t158 -63.5t158 63.5t57 175.5v1016h295v-942q0 -304 -121 -442t-389 -138q-267 0 -388.5 138t-121.5 442zM469 1635l199 264h284l-286 -264h-197z" />
<glyph unicode="&#xdb;" d="M106 551v942h295v-1016q0 -112 57 -175.5t158 -63.5t158 63.5t57 175.5v1016h295v-942q0 -304 -121 -442t-389 -138q-267 0 -388.5 138t-121.5 442zM240 1635l221 264h309l223 -264h-178l-199 161l-198 -161h-178z" />
<glyph unicode="&#xdc;" d="M106 551v942h295v-1016q0 -112 57 -175.5t158 -63.5t158 63.5t57 175.5v1016h295v-942q0 -304 -121 -442t-389 -138q-267 0 -388.5 138t-121.5 442zM301 1653v246h236v-246h-236zM696 1653v246h236v-246h-236z" />
<glyph unicode="&#xdd;" d="M8 1493h318l290 -600l291 600h318l-461 -905v-588h-295v588zM469 1635l199 264h284l-286 -264h-197z" />
<glyph unicode="&#xde;" d="M162 0v1493h295v-238h110q309 0 444.5 -109.5t135.5 -357.5q0 -239 -137 -347.5t-443 -108.5h-110v-332h-295zM457 575h121q146 0 204 49t58 169q0 121 -58.5 171t-203.5 50h-121v-439z" />
<glyph unicode="&#xdf;" d="M127 0v1126q0 211 120.5 320.5t350.5 109.5q223 0 329.5 -118.5t106.5 -364.5v-14q-125 -6 -189.5 -51.5t-64.5 -126.5q0 -64 116 -153q13 -10 19 -15l97 -74q82 -62 122 -138.5t40 -170.5q0 -167 -112 -263t-306 -96q-61 0 -123 12.5t-129 36.5v250q58 -31 115.5 -47 t111.5 -16q73 0 115.5 33.5t42.5 91.5q0 72 -115 160q-29 22 -45 34l-86 68q-59 48 -89 111.5t-30 140.5q0 126 74 211.5t211 116.5q-9 74 -58 110.5t-141 36.5q-94 0 -142 -50.5t-48 -148.5v-1122h-293z" />
<glyph unicode="&#xe0;" d="M94 354q0 196 127 289.5t393 93.5h203v49q0 71 -51.5 107.5t-151.5 36.5q-105 0 -203.5 -26.5t-205.5 -84.5v250q97 40 197 59t212 19q273 0 383.5 -111t110.5 -397v-639h-291v125q-53 -74 -136 -114t-183 -40q-191 0 -297.5 101t-106.5 282zM199 1638h282l283 -376h-197 zM406 340q0 -76 45 -121t122 -45q116 0 180 87.5t64 244.5v20h-117q-164 0 -229 -42t-65 -144z" />
<glyph unicode="&#xe1;" d="M94 354q0 196 127 289.5t393 93.5h203v49q0 71 -51.5 107.5t-151.5 36.5q-105 0 -203.5 -26.5t-205.5 -84.5v250q97 40 197 59t212 19q273 0 383.5 -111t110.5 -397v-639h-291v125q-53 -74 -136 -114t-183 -40q-191 0 -297.5 101t-106.5 282zM406 340q0 -76 45 -121 t122 -45q116 0 180 87.5t64 244.5v20h-117q-164 0 -229 -42t-65 -144zM469 1262l283 376h282l-368 -376h-197z" />
<glyph unicode="&#xe2;" d="M94 354q0 196 127 289.5t393 93.5h203v49q0 71 -51.5 107.5t-151.5 36.5q-105 0 -203.5 -26.5t-205.5 -84.5v250q97 40 197 59t212 19q273 0 383.5 -111t110.5 -397v-639h-291v125q-53 -74 -136 -114t-183 -40q-191 0 -297.5 101t-106.5 282zM240 1262l256 376h241 l256 -376h-178l-199 225l-198 -225h-178zM406 340q0 -76 45 -121t122 -45q116 0 180 87.5t64 244.5v20h-117q-164 0 -229 -42t-65 -144z" />
<glyph unicode="&#xe3;" d="M94 354q0 196 127 289.5t393 93.5h203v49q0 71 -51.5 107.5t-151.5 36.5q-105 0 -203.5 -26.5t-205.5 -84.5v250q97 40 197 59t212 19q273 0 383.5 -111t110.5 -397v-639h-291v125q-53 -74 -136 -114t-183 -40q-191 0 -297.5 101t-106.5 282zM268 1309q0 136 51.5 210 t145.5 74q36 0 72 -13.5t77 -43.5l62 -43q21 -15 39.5 -23t34.5 -8q36 0 55.5 31.5t19.5 89.5v8h140q0 -136 -51.5 -210t-145.5 -74q-36 0 -69 12t-81 45l-55 37l-12 8q-43 29 -70 29q-36 0 -54.5 -31t-18.5 -90v-8h-140zM406 340q0 -76 45 -121t122 -45q116 0 180 87.5 t64 244.5v20h-117q-164 0 -229 -42t-65 -144z" />
<glyph unicode="&#xe4;" d="M94 354q0 196 127 289.5t393 93.5h203v49q0 71 -51.5 107.5t-151.5 36.5q-105 0 -203.5 -26.5t-205.5 -84.5v250q97 40 197 59t212 19q273 0 383.5 -111t110.5 -397v-639h-291v125q-53 -74 -136 -114t-183 -40q-191 0 -297.5 101t-106.5 282zM301 1339v246h236v-246h-236 zM406 340q0 -76 45 -121t122 -45q116 0 180 87.5t64 244.5v20h-117q-164 0 -229 -42t-65 -144zM696 1339v246h236v-246h-236z" />
<glyph unicode="&#xe5;" d="M94 354q0 196 127 289.5t393 93.5h203v49q0 71 -51.5 107.5t-151.5 36.5q-105 0 -203.5 -26.5t-205.5 -84.5v250q97 40 197 59t212 19q273 0 383.5 -111t110.5 -397v-639h-291v125q-53 -74 -136 -114t-183 -40q-191 0 -297.5 101t-106.5 282zM332 1534q0 118 83 201.5 t201 83.5q119 0 202 -83.5t83 -201.5t-83 -201.5t-202 -83.5q-118 0 -201 83.5t-83 201.5zM406 340q0 -76 45 -121t122 -45q116 0 180 87.5t64 244.5v20h-117q-164 0 -229 -42t-65 -144zM485 1534q0 -55 38.5 -93t92.5 -38q55 0 93.5 38.5t38.5 92.5t-39 92.5t-93 38.5 t-92.5 -38.5t-38.5 -92.5z" />
<glyph unicode="&#xe6;" d="M14 326q0 185 101 276.5t305 91.5h76v51q0 93 -39 140t-115 47q-57 0 -124.5 -27.5t-141.5 -81.5v246q74 39 144 58.5t134 19.5q98 0 160.5 -31t97.5 -96q29 61 94.5 94t157.5 33q177 0 250.5 -119t73.5 -422v-127h-451q0 -144 50 -219.5t145 -75.5q60 0 120 29.5 t119 87.5v-244q-50 -44 -112.5 -65t-145.5 -21q-103 0 -178 42t-117 122q-41 -84 -106.5 -124t-163.5 -40q-160 0 -247 92.5t-87 262.5zM240 330q0 -71 32 -108.5t93 -37.5q63 0 93.5 43t30.5 131v43v82h-73q-87 0 -131.5 -39t-44.5 -114zM737 690h226v23q0 125 -25 172 t-88 47t-88 -47t-25 -172v-23z" />
<glyph unicode="&#xe7;" d="M168 559q0 277 147 433.5t406 156.5q90 0 173.5 -21t166.5 -65v-268q-64 55 -140.5 84.5t-158.5 29.5q-143 0 -220 -91t-77 -259t77 -258t220 -90q85 0 159 28.5t140 86.5v-269q-74 -43 -159 -64.5t-183 -21.5q-259 0 -405 156t-146 432zM439 -219q45 -17 87 -26t78 -9 q58 0 90.5 23t32.5 63q0 26 -21 67t-67 101h140q57 -62 84.5 -115t27.5 -100q0 -95 -61.5 -140.5t-188.5 -45.5q-48 0 -98.5 6.5t-103.5 19.5v156z" />
<glyph unicode="&#xe8;" d="M92 555q0 274 143 433t390 159q249 0 386.5 -147.5t137.5 -415.5v-119h-759q1 -132 78 -197t230 -65q101 0 199 29t205 92v-269q-102 -42 -208 -63t-224 -21q-281 0 -429.5 150.5t-148.5 433.5zM238 1638h282l283 -376h-197zM393 684l461 1q-2 116 -59.5 175.5 t-169.5 59.5q-101 0 -161 -61.5t-71 -174.5z" />
<glyph unicode="&#xe9;" d="M92 555q0 274 143 433t390 159q249 0 386.5 -147.5t137.5 -415.5v-119h-759q1 -132 78 -197t230 -65q101 0 199 29t205 92v-269q-102 -42 -208 -63t-224 -21q-281 0 -429.5 150.5t-148.5 433.5zM393 684l461 1q-2 116 -59.5 175.5t-169.5 59.5q-101 0 -161 -61.5 t-71 -174.5zM508 1262l283 376h282l-368 -376h-197z" />
<glyph unicode="&#xea;" d="M92 555q0 274 143 433t390 159q249 0 386.5 -147.5t137.5 -415.5v-119h-759q1 -132 78 -197t230 -65q101 0 199 29t205 92v-269q-102 -42 -208 -63t-224 -21q-281 0 -429.5 150.5t-148.5 433.5zM279 1262l256 376h241l256 -376h-178l-199 225l-198 -225h-178zM393 684 l461 1q-2 116 -59.5 175.5t-169.5 59.5q-101 0 -161 -61.5t-71 -174.5z" />
<glyph unicode="&#xeb;" d="M92 555q0 274 143 433t390 159q249 0 386.5 -147.5t137.5 -415.5v-119h-759q1 -132 78 -197t230 -65q101 0 199 29t205 92v-269q-102 -42 -208 -63t-224 -21q-281 0 -429.5 150.5t-148.5 433.5zM340 1339v246h236v-246h-236zM393 684l461 1q-2 116 -59.5 175.5 t-169.5 59.5q-101 0 -161 -61.5t-71 -174.5zM735 1339v246h236v-246h-236z" />
<glyph unicode="&#xec;" d="M143 0v225h365v670h-287v225h580v-895h364v-225h-1022zM199 1638h282l283 -376h-197z" />
<glyph unicode="&#xed;" d="M143 0v225h365v670h-287v225h580v-895h364v-225h-1022zM469 1262l283 376h282l-368 -376h-197z" />
<glyph unicode="&#xee;" d="M143 0v225h365v670h-287v225h580v-895h364v-225h-1022zM240 1262l256 376h241l256 -376h-178l-199 225l-198 -225h-178z" />
<glyph unicode="&#xef;" d="M143 0v225h365v670h-287v225h580v-895h364v-225h-1022zM301 1339v246h236v-246h-236zM696 1339v246h236v-246h-236z" />
<glyph unicode="&#xf0;" d="M98 537q0 236 130 376t347 140q40 0 71.5 -6t58.5 -19l-160 219l-312 -119l-55 117l283 109l-158 202h293l92 -116l297 127l66 -123l-277 -117l166 -227q100 -137 143 -263.5t43 -277.5q0 -276 -136 -432t-378 -156q-236 0 -375 153t-139 413zM389 545q0 -158 59.5 -247 t163.5 -89q109 0 166.5 90.5t57.5 263.5q0 45 -6.5 94t-18.5 103q-49 27 -98 41t-97 14q-105 0 -166 -72.5t-61 -197.5z" />
<glyph unicode="&#xf1;" d="M172 0v1120h291v-168q31 93 106 144t181 51q159 0 240 -105.5t81 -314.5v-727h-291v682q0 122 -34.5 174.5t-112.5 52.5q-79 0 -124.5 -71t-45.5 -197v-641h-291zM268 1309q0 136 51.5 210t145.5 74q36 0 72 -13.5t77 -43.5l62 -43q21 -15 39.5 -23t34.5 -8 q36 0 55.5 31.5t19.5 89.5v8h140q0 -136 -51.5 -210t-145.5 -74q-36 0 -69 12t-81 45l-55 37l-12 8q-43 29 -70 29q-36 0 -54.5 -31t-18.5 -90v-8h-140z" />
<glyph unicode="&#xf2;" d="M98 559q0 271 140.5 429.5t377.5 158.5q238 0 378.5 -158.5t140.5 -429.5t-140.5 -429.5t-378.5 -158.5q-237 0 -377.5 158.5t-140.5 429.5zM195 1640h282l283 -376h-197zM391 559q0 -165 60 -257.5t165 -92.5q106 0 166 92.5t60 257.5t-60 257.5t-166 92.5 q-105 0 -165 -92.5t-60 -257.5z" />
<glyph unicode="&#xf3;" d="M98 559q0 271 140.5 429.5t377.5 158.5q238 0 378.5 -158.5t140.5 -429.5t-140.5 -429.5t-378.5 -158.5q-237 0 -377.5 158.5t-140.5 429.5zM391 559q0 -165 60 -257.5t165 -92.5q106 0 166 92.5t60 257.5t-60 257.5t-166 92.5q-105 0 -165 -92.5t-60 -257.5zM471 1263 l283 376h282l-368 -376h-197z" />
<glyph unicode="&#xf4;" d="M98 559q0 271 140.5 429.5t377.5 158.5q238 0 378.5 -158.5t140.5 -429.5t-140.5 -429.5t-378.5 -158.5q-237 0 -377.5 158.5t-140.5 429.5zM240 1263l256 376h241l256 -376h-178l-199 225l-198 -225h-178zM391 559q0 -165 60 -257.5t165 -92.5q106 0 166 92.5t60 257.5 t-60 257.5t-166 92.5q-105 0 -165 -92.5t-60 -257.5z" />
<glyph unicode="&#xf5;" d="M98 559q0 271 140.5 429.5t377.5 158.5q238 0 378.5 -158.5t140.5 -429.5t-140.5 -429.5t-378.5 -158.5q-237 0 -377.5 158.5t-140.5 429.5zM268 1276q0 136 51.5 210t145.5 74q36 0 72 -13.5t77 -43.5l62 -43q21 -15 39.5 -23t34.5 -8q36 0 55.5 31.5t19.5 89.5v8h140 q0 -136 -51.5 -210t-145.5 -74q-36 0 -69 12t-81 45l-55 37l-12 8q-43 29 -70 29q-36 0 -54.5 -31t-18.5 -90v-8h-140zM391 559q0 -165 60 -257.5t165 -92.5q106 0 166 92.5t60 257.5t-60 257.5t-166 92.5q-105 0 -165 -92.5t-60 -257.5z" />
<glyph unicode="&#xf6;" d="M98 559q0 271 140.5 429.5t377.5 158.5q238 0 378.5 -158.5t140.5 -429.5t-140.5 -429.5t-378.5 -158.5q-237 0 -377.5 158.5t-140.5 429.5zM301 1315v246h236v-246h-236zM391 559q0 -165 60 -257.5t165 -92.5q106 0 166 92.5t60 257.5t-60 257.5t-166 92.5 q-105 0 -165 -92.5t-60 -257.5zM696 1315v246h236v-246h-236z" />
<glyph unicode="&#xf7;" d="M66 524v238h1099v-238h-1099zM461 86v309h309v-309h-309zM461 889v309h309v-309h-309z" />
<glyph unicode="&#xf8;" d="M25 2l163 197q-45 73 -67.5 162t-22.5 198q0 271 140.5 429.5t377.5 158.5q85 0 158.5 -21.5t140.5 -66.5l148 176l139 -121l-160 -188q46 -76 69.5 -168t23.5 -199q0 -271 -140.5 -429.5t-378.5 -158.5q-83 0 -158.5 22.5t-142.5 67.5l-151 -178zM391 559q0 -34 2 -60 t6 -50l346 411q-26 25 -57 37t-70 12q-106 0 -166.5 -92.5t-60.5 -257.5zM483 262q31 -27 64 -40t71 -13q104 0 164 93.5t60 256.5q0 29 -2.5 58t-8.5 58z" />
<glyph unicode="&#xf9;" d="M160 391v729h293v-684q0 -121 34 -173t113 -52t123.5 70t44.5 196v643h293v-1120h-293v166q-31 -93 -105.5 -144t-179.5 -51q-160 0 -241.5 106t-81.5 314zM199 1638h282l283 -376h-197z" />
<glyph unicode="&#xfa;" d="M160 391v729h293v-684q0 -121 34 -173t113 -52t123.5 70t44.5 196v643h293v-1120h-293v166q-31 -93 -105.5 -144t-179.5 -51q-160 0 -241.5 106t-81.5 314zM469 1262l283 376h282l-368 -376h-197z" />
<glyph unicode="&#xfb;" d="M160 391v729h293v-684q0 -121 34 -173t113 -52t123.5 70t44.5 196v643h293v-1120h-293v166q-31 -93 -105.5 -144t-179.5 -51q-160 0 -241.5 106t-81.5 314zM240 1262l256 376h241l256 -376h-178l-199 225l-198 -225h-178z" />
<glyph unicode="&#xfc;" d="M160 391v729h293v-684q0 -121 34 -173t113 -52t123.5 70t44.5 196v643h293v-1120h-293v166q-31 -93 -105.5 -144t-179.5 -51q-160 0 -241.5 106t-81.5 314zM301 1339v246h236v-246h-236zM696 1339v246h236v-246h-236z" />
<glyph unicode="&#xfd;" d="M59 1120h308l256 -727l245 727h308l-465 -1241q-59 -158 -141.5 -230.5t-200.5 -72.5h-242v223h119q90 0 132 30.5t85 141.5l22 60zM469 1262l283 376h282l-368 -376h-197z" />
<glyph unicode="&#xfe;" d="M150 -426v1982h292v-604q46 97 121 146t176 49q192 0 298 -154t106 -434q0 -284 -107.5 -436t-306.5 -152q-90 0 -161.5 46.5t-125.5 140.5v-584h-292zM442 561q0 -162 55 -254t150 -92t149 92t54 254t-54 254t-149 92t-150 -92t-55 -254z" />
<glyph unicode="&#xff;" d="M59 1120h308l256 -727l245 727h308l-465 -1241q-59 -158 -141.5 -230.5t-200.5 -72.5h-242v223h119q90 0 132 30.5t85 141.5l22 60zM301 1339v246h236v-246h-236zM696 1339v246h236v-246h-236z" />
<glyph unicode="&#x100;" d="M33 0l403 1493h361l403 -1493h-295l-92 369h-395l-90 -369h-295zM301 1682v188h631v-188h-631zM477 612h279l-140 611z" />
<glyph unicode="&#x101;" d="M94 354q0 196 127 289.5t393 93.5h203v49q0 71 -51.5 107.5t-151.5 36.5q-105 0 -203.5 -26.5t-205.5 -84.5v250q97 40 197 59t212 19q273 0 383.5 -111t110.5 -397v-639h-291v125q-53 -74 -136 -114t-183 -40q-191 0 -297.5 101t-106.5 282zM301 1368v188h631v-188h-631 zM406 340q0 -76 45 -121t122 -45q116 0 180 87.5t64 244.5v20h-117q-164 0 -229 -42t-65 -144z" />
<glyph unicode="&#x102;" d="M33 0l403 1493h361l403 -1493h-295l-92 369h-395l-90 -369h-295zM281 1899h141q20 -60 69 -90.5t125 -30.5q77 0 125 30t68 91h143q-15 -129 -101.5 -196.5t-234.5 -67.5q-147 0 -233.5 67.5t-101.5 196.5zM477 612h279l-140 611z" />
<glyph unicode="&#x103;" d="M94 354q0 196 127 289.5t393 93.5h203v49q0 71 -51.5 107.5t-151.5 36.5q-105 0 -203.5 -26.5t-205.5 -84.5v250q97 40 197 59t212 19q273 0 383.5 -111t110.5 -397v-639h-291v125q-53 -74 -136 -114t-183 -40q-191 0 -297.5 101t-106.5 282zM281 1606h141 q11 -69 61 -106.5t133 -37.5t132.5 37t60.5 107h143q-6 -144 -92.5 -220.5t-243.5 -76.5q-156 0 -242.5 76.5t-92.5 220.5zM406 340q0 -76 45 -121t122 -45q116 0 180 87.5t64 244.5v20h-117q-164 0 -229 -42t-65 -144z" />
<glyph unicode="&#x104;" d="M33 0l403 1493h361l403 -1493h-295l-92 369h-395l-90 -369h-295zM477 612h279l-140 611zM801 -223q0 53 27.5 107.5t83.5 115.5h141q-53 -71 -71.5 -106t-18.5 -60q0 -39 30.5 -63.5t80.5 -24.5q38 0 76.5 7.5t78.5 23.5v-156q-54 -11 -101.5 -16.5t-88.5 -5.5 q-114 0 -176 46t-62 132z" />
<glyph unicode="&#x105;" d="M94 354q0 196 127 289.5t393 93.5h203v49q0 71 -51.5 107.5t-151.5 36.5q-105 0 -203.5 -26.5t-205.5 -84.5v250q97 40 197 59t212 19q273 0 383.5 -111t110.5 -397v-639h-291v125q-53 -74 -136 -114t-183 -40q-191 0 -297.5 101t-106.5 282zM406 340q0 -76 45 -121 t122 -45q116 0 180 87.5t64 244.5v20h-117q-164 0 -229 -42t-65 -144zM704 -223q0 53 27.5 107.5t83.5 115.5h141q-53 -71 -71.5 -106t-18.5 -60q0 -39 30.5 -63.5t80.5 -24.5q38 0 76.5 7.5t78.5 23.5v-156q-54 -11 -101.5 -16.5t-88.5 -5.5q-114 0 -176 46t-62 132z" />
<glyph unicode="&#x106;" d="M152 745q0 377 159 576t461 199q85 0 163 -18t146 -54v-328q-76 70 -147.5 102.5t-147.5 32.5q-162 0 -244.5 -128.5t-82.5 -381.5q0 -252 82.5 -380.5t244.5 -128.5q76 0 147.5 32.5t147.5 102.5v-328q-70 -36 -147 -54t-162 -18q-302 0 -461 199t-159 575zM606 1635 l199 264h284l-286 -264h-197z" />
<glyph unicode="&#x107;" d="M168 559q0 277 147 433.5t406 156.5q90 0 173.5 -21t166.5 -65v-268q-64 55 -140.5 84.5t-158.5 29.5q-143 0 -220 -91t-77 -259t77 -258t220 -90q85 0 159 28.5t140 86.5v-269q-74 -43 -159 -64.5t-183 -21.5q-259 0 -405 156t-146 432zM571 1262l283 376h282l-368 -376 h-197z" />
<glyph unicode="&#x108;" d="M152 745q0 377 159 576t461 199q85 0 163 -18t146 -54v-328q-76 70 -147.5 102.5t-147.5 32.5q-162 0 -244.5 -128.5t-82.5 -381.5q0 -252 82.5 -380.5t244.5 -128.5q76 0 147.5 32.5t147.5 102.5v-328q-70 -36 -147 -54t-162 -18q-302 0 -461 199t-159 575zM396 1635 l221 264h309l223 -264h-178l-199 161l-198 -161h-178z" />
<glyph unicode="&#x109;" d="M168 559q0 277 147 433.5t406 156.5q90 0 173.5 -21t166.5 -65v-268q-64 55 -140.5 84.5t-158.5 29.5q-143 0 -220 -91t-77 -259t77 -258t220 -90q85 0 159 28.5t140 86.5v-269q-74 -43 -159 -64.5t-183 -21.5q-259 0 -405 156t-146 432zM345 1262l256 376h241l256 -376 h-178l-199 225l-198 -225h-178z" />
<glyph unicode="&#x10a;" d="M152 745q0 377 159 576t461 199q85 0 163 -18t146 -54v-328q-76 70 -147.5 102.5t-147.5 32.5q-162 0 -244.5 -128.5t-82.5 -381.5q0 -252 82.5 -380.5t244.5 -128.5q76 0 147.5 32.5t147.5 102.5v-328q-70 -36 -147 -54t-162 -18q-302 0 -461 199t-159 575zM579 1653 v246h275v-246h-275z" />
<glyph unicode="&#x10b;" d="M168 559q0 277 147 433.5t406 156.5q90 0 173.5 -21t166.5 -65v-268q-64 55 -140.5 84.5t-158.5 29.5q-143 0 -220 -91t-77 -259t77 -258t220 -90q85 0 159 28.5t140 86.5v-269q-74 -43 -159 -64.5t-183 -21.5q-259 0 -405 156t-146 432zM554 1339v246h275v-246h-275z " />
<glyph unicode="&#x10c;" d="M152 745q0 377 159 576t461 199q85 0 163 -18t146 -54v-328q-76 70 -147.5 102.5t-147.5 32.5q-162 0 -244.5 -128.5t-82.5 -381.5q0 -252 82.5 -380.5t244.5 -128.5q76 0 147.5 32.5t147.5 102.5v-328q-70 -36 -147 -54t-162 -18q-302 0 -461 199t-159 575zM377 1899 h178l198 -162l199 162h178l-223 -264h-309z" />
<glyph unicode="&#x10d;" d="M168 559q0 277 147 433.5t406 156.5q90 0 173.5 -21t166.5 -65v-268q-64 55 -140.5 84.5t-158.5 29.5q-143 0 -220 -91t-77 -259t77 -258t220 -90q85 0 159 28.5t140 86.5v-269q-74 -43 -159 -64.5t-183 -21.5q-259 0 -405 156t-146 432zM342 1638h178l198 -227l199 227 h178l-256 -376h-241z" />
<glyph unicode="&#x10e;" d="M137 0v1493h316q366 0 527 -174.5t161 -570.5q0 -397 -161 -572.5t-527 -175.5h-316zM227 1917h178l198 -162l199 162h178l-223 -264h-309zM432 266h80q174 0 248 109.5t74 372.5q0 261 -74 370t-248 109h-80v-961z" />
<glyph unicode="&#x10f;" d="M90 559q0 284 107.5 436t306.5 152q90 0 161.5 -46.5t125.5 -139.5v595h292v-1556h-292v166q-47 -97 -121.5 -146t-175.5 -49q-192 0 -298 154t-106 434zM383 557q0 -162 54 -254t149 -92t150 92t55 254t-55 254t-150 92t-149 -92t-54 -254zM1090 1172l78 383h288 l-164 -383h-202z" />
<glyph unicode="&#x110;" d="M0 664v237h137v592h316q366 0 527 -174.5t161 -570.5q0 -397 -161 -572.5t-527 -175.5h-316v664h-137zM432 266h80q174 0 248 109.5t74 372.5q0 261 -74 370t-248 109h-80v-326h211v-237h-211v-398z" />
<glyph unicode="&#x111;" d="M90 559q0 284 107.5 436t306.5 152q90 0 161.5 -46.5t125.5 -139.5v290h-306v189h306v116h292v-116h146v-189h-146v-1251h-292v166q-47 -97 -121.5 -146t-175.5 -49q-192 0 -298 154t-106 434zM383 557q0 -162 54 -254t149 -92t150 92t55 254t-55 254t-150 92t-149 -92 t-54 -254z" />
<glyph unicode="&#x112;" d="M168 0v1493h930v-260h-635v-322h575v-260h-575v-391h635v-260h-930zM332 1682v188h631v-188h-631z" />
<glyph unicode="&#x113;" d="M92 555q0 274 143 433t390 159q249 0 386.5 -147.5t137.5 -415.5v-119h-759q1 -132 78 -197t230 -65q101 0 199 29t205 92v-269q-102 -42 -208 -63t-224 -21q-281 0 -429.5 150.5t-148.5 433.5zM340 1368v188h631v-188h-631zM393 684l461 1q-2 116 -59.5 175.5 t-169.5 59.5q-101 0 -161 -61.5t-71 -174.5z" />
<glyph unicode="&#x114;" d="M168 0v1493h930v-260h-635v-322h575v-260h-575v-391h635v-260h-930zM312 1899h141q20 -60 69 -90.5t125 -30.5q77 0 125 30t68 91h143q-15 -129 -101.5 -196.5t-234.5 -67.5q-147 0 -233.5 67.5t-101.5 196.5z" />
<glyph unicode="&#x115;" d="M92 555q0 274 143 433t390 159q249 0 386.5 -147.5t137.5 -415.5v-119h-759q1 -132 78 -197t230 -65q101 0 199 29t205 92v-269q-102 -42 -208 -63t-224 -21q-281 0 -429.5 150.5t-148.5 433.5zM320 1606h141q11 -69 61 -106.5t133 -37.5t132.5 37t60.5 107h143 q-6 -144 -92.5 -220.5t-243.5 -76.5q-156 0 -242.5 76.5t-92.5 220.5zM393 684l461 1q-2 116 -59.5 175.5t-169.5 59.5q-101 0 -161 -61.5t-71 -174.5z" />
<glyph unicode="&#x116;" d="M168 0v1493h930v-260h-635v-322h575v-260h-575v-391h635v-260h-930zM510 1653v246h275v-246h-275z" />
<glyph unicode="&#x117;" d="M92 555q0 274 143 433t390 159q249 0 386.5 -147.5t137.5 -415.5v-119h-759q1 -132 78 -197t230 -65q101 0 199 29t205 92v-269q-102 -42 -208 -63t-224 -21q-281 0 -429.5 150.5t-148.5 433.5zM393 684l461 1q-2 116 -59.5 175.5t-169.5 59.5q-101 0 -161 -61.5 t-71 -174.5zM518 1339v246h275v-246h-275z" />
<glyph unicode="&#x118;" d="M168 0v1493h930v-260h-635v-322h575v-260h-575v-391h635v-260h-930zM671 -223q0 53 27.5 107.5t83.5 115.5h141q-53 -71 -71.5 -106t-18.5 -60q0 -39 30.5 -63.5t80.5 -24.5q38 0 76.5 7.5t78.5 23.5v-156q-54 -11 -101.5 -16.5t-88.5 -5.5q-114 0 -176 46t-62 132z" />
<glyph unicode="&#x119;" d="M92 555q0 274 143 433t390 159q249 0 386.5 -147.5t137.5 -415.5v-119h-759q1 -132 78 -197t230 -65q101 0 199 29t205 92v-269q-102 -42 -208 -63t-224 -21q-281 0 -429.5 150.5t-148.5 433.5zM393 684l461 1q-2 116 -59.5 175.5t-169.5 59.5q-101 0 -161 -61.5 t-71 -174.5zM677 -223q0 53 27.5 107.5t83.5 115.5h141q-53 -71 -71.5 -106t-18.5 -60q0 -39 30.5 -63.5t80.5 -24.5q38 0 76.5 7.5t78.5 23.5v-156q-54 -11 -101.5 -16.5t-88.5 -5.5q-114 0 -176 46t-62 132z" />
<glyph unicode="&#x11a;" d="M168 0v1493h930v-260h-635v-322h575v-260h-575v-391h635v-260h-930zM293 1899h178l198 -162l199 162h178l-223 -264h-309z" />
<glyph unicode="&#x11b;" d="M92 555q0 274 143 433t390 159q249 0 386.5 -147.5t137.5 -415.5v-119h-759q1 -132 78 -197t230 -65q101 0 199 29t205 92v-269q-102 -42 -208 -63t-224 -21q-281 0 -429.5 150.5t-148.5 433.5zM257 1643h178l198 -227l199 227h178l-256 -376h-241zM393 684l461 1 q-2 116 -59.5 175.5t-169.5 59.5q-101 0 -161 -61.5t-71 -174.5z" />
<glyph unicode="&#x11c;" d="M117 745q0 377 159.5 576t460.5 199q90 0 177 -25.5t163 -73.5v-327q-62 80 -142.5 120.5t-176.5 40.5q-168 0 -251 -126.5t-83 -383.5q0 -249 80 -379t233 -130q46 0 80 8.5t55 25.5v285h-202v248h460v-684q-85 -73 -187.5 -110.5t-219.5 -37.5q-290 0 -448 201.5 t-158 572.5zM361 1635l221 264h309l223 -264h-178l-199 161l-198 -161h-178z" />
<glyph unicode="&#x11d;" d="M98 571q0 266 113 422t303 156q96 0 171 -45t118 -127v143h293v-1036q0 -269 -121.5 -388.5t-394.5 -119.5q-92 0 -182 13.5t-183 41.5v269q83 -46 169 -68t177 -22q124 0 183 58.5t59 182.5v121q-43 -80 -114 -119t-173 -39q-192 0 -305 150t-113 407zM220 1262l256 376 h241l256 -376h-178l-199 225l-198 -225h-178zM391 578q0 -152 56.5 -242t148.5 -90q93 0 150 90.5t57 241.5q0 150 -57 240.5t-150 90.5q-92 0 -148.5 -90t-56.5 -241z" />
<glyph unicode="&#x11e;" d="M117 745q0 377 159.5 576t460.5 199q90 0 177 -25.5t163 -73.5v-327q-62 80 -142.5 120.5t-176.5 40.5q-168 0 -251 -126.5t-83 -383.5q0 -249 80 -379t233 -130q46 0 80 8.5t55 25.5v285h-202v248h460v-684q-85 -73 -187.5 -110.5t-219.5 -37.5q-290 0 -448 201.5 t-158 572.5zM331 1899h141q20 -60 69 -90.5t125 -30.5q77 0 125 30t68 91h143q-15 -129 -101.5 -196.5t-234.5 -67.5q-147 0 -233.5 67.5t-101.5 196.5z" />
<glyph unicode="&#x11f;" d="M98 571q0 266 113 422t303 156q96 0 171 -45t118 -127v143h293v-1036q0 -269 -121.5 -388.5t-394.5 -119.5q-92 0 -182 13.5t-183 41.5v269q83 -46 169 -68t177 -22q124 0 183 58.5t59 182.5v121q-43 -80 -114 -119t-173 -39q-192 0 -305 150t-113 407zM281 1606h141 q11 -69 61 -106.5t133 -37.5t132.5 37t60.5 107h143q-6 -144 -92.5 -220.5t-243.5 -76.5q-156 0 -242.5 76.5t-92.5 220.5zM391 578q0 -152 56.5 -242t148.5 -90q93 0 150 90.5t57 241.5q0 150 -57 240.5t-150 90.5q-92 0 -148.5 -90t-56.5 -241z" />
<glyph unicode="&#x120;" d="M117 745q0 377 159.5 576t460.5 199q90 0 177 -25.5t163 -73.5v-327q-62 80 -142.5 120.5t-176.5 40.5q-168 0 -251 -126.5t-83 -383.5q0 -249 80 -379t233 -130q46 0 80 8.5t55 25.5v285h-202v248h460v-684q-85 -73 -187.5 -110.5t-219.5 -37.5q-290 0 -448 201.5 t-158 572.5zM529 1653v246h275v-246h-275z" />
<glyph unicode="&#x121;" d="M98 571q0 266 113 422t303 156q96 0 171 -45t118 -127v143h293v-1036q0 -269 -121.5 -388.5t-394.5 -119.5q-92 0 -182 13.5t-183 41.5v269q83 -46 169 -68t177 -22q124 0 183 58.5t59 182.5v121q-43 -80 -114 -119t-173 -39q-192 0 -305 150t-113 407zM391 578 q0 -152 56.5 -242t148.5 -90q93 0 150 90.5t57 241.5q0 150 -57 240.5t-150 90.5q-92 0 -148.5 -90t-56.5 -241zM479 1339v246h275v-246h-275z" />
<glyph unicode="&#x122;" d="M117 745q0 377 159.5 576t460.5 199q90 0 177 -25.5t163 -73.5v-327q-62 80 -142.5 120.5t-176.5 40.5q-168 0 -251 -126.5t-83 -383.5q0 -249 80 -379t233 -130q46 0 80 8.5t55 25.5v285h-202v248h460v-684q-85 -73 -187.5 -110.5t-219.5 -37.5q-290 0 -448 201.5 t-158 572.5zM538 -493l89 306h282l-177 -306h-194z" />
<glyph unicode="&#x123;" d="M98 571q0 266 113 422t303 156q96 0 171 -45t118 -127v143h293v-1036q0 -269 -121.5 -388.5t-394.5 -119.5q-92 0 -182 13.5t-183 41.5v269q83 -46 169 -68t177 -22q124 0 183 58.5t59 182.5v121q-43 -80 -114 -119t-173 -39q-192 0 -305 150t-113 407zM391 578 q0 -152 56.5 -242t148.5 -90q93 0 150 90.5t57 241.5q0 150 -57 240.5t-150 90.5q-92 0 -148.5 -90t-56.5 -241zM455 1259l177 306h194l-89 -306h-282z" />
<glyph unicode="&#x124;" d="M137 0v1493h295v-569h369v569h295v-1493h-295v664h-369v-664h-295zM240 1635l221 264h309l223 -264h-178l-199 161l-198 -161h-178z" />
<glyph unicode="&#x125;" d="M-61 1635l221 264h309l223 -264h-178l-199 161l-198 -161h-178zM172 0v1556h291v-604q31 93 106 144t181 51q159 0 240 -105.5t81 -314.5v-727h-291v682q0 121 -34.5 173t-112.5 52q-80 0 -125 -70.5t-45 -195.5v-641h-291z" />
<glyph unicode="&#x126;" d="M3 1105v164h134v224h295v-224h369v224h294v-224h135v-164h-135v-1105h-294v664h-369v-664h-295v1105h-134zM432 924h369v181h-369v-181z" />
<glyph unicode="&#x127;" d="M12 1270v164h160v122h291v-122h277v-164h-277v-318q31 93 106 144t181 51q159 0 240 -105q81 -106 81 -315v-727h-291v682q0 121 -34.5 173t-112.5 52q-80 0 -125 -71q-45 -70 -45 -195v-641h-291v1270h-160z" />
<glyph unicode="&#x128;" d="M172 0v260h297v973h-297v260h889v-260h-297v-973h297v-260h-889zM268 1635v30q0 106 54.5 171t142.5 65q36 0 73.5 -12.5t75.5 -36.5l60 -39q21 -14 40.5 -21.5t35.5 -7.5q36 0 55.5 30t19.5 87h140q0 -5 -1 -15t-1 -16q0 -106 -53.5 -170.5t-141.5 -64.5q-37 0 -72.5 11 t-77.5 38l-54 34q-5 3 -12 7q-45 26 -73 26q-31 0 -51 -30t-20 -80v-6h-140z" />
<glyph unicode="&#x129;" d="M143 0v225h365v670h-287v225h580v-895h364v-225h-1022zM268 1309q0 136 51.5 210t145.5 74q36 0 72 -13.5t77 -43.5l62 -43q21 -15 39.5 -23t34.5 -8q36 0 55.5 31.5t19.5 89.5v8h140q0 -136 -51.5 -210t-145.5 -74q-36 0 -69 12t-81 45l-55 37l-12 8q-43 29 -70 29 q-36 0 -54.5 -31t-18.5 -90v-8h-140z" />
<glyph unicode="&#x12a;" d="M172 0v260h297v973h-297v260h889v-260h-297v-973h297v-260h-889zM301 1682v188h631v-188h-631z" />
<glyph unicode="&#x12b;" d="M143 0v225h365v670h-287v225h580v-895h364v-225h-1022zM301 1368v188h631v-188h-631z" />
<glyph unicode="&#x12c;" d="M172 0v260h297v973h-297v260h889v-260h-297v-973h297v-260h-889zM281 1899h141q20 -60 69 -90.5t125 -30.5q77 0 125 30t68 91h143q-15 -129 -101.5 -196.5t-234.5 -67.5q-147 0 -233.5 67.5t-101.5 196.5z" />
<glyph unicode="&#x12d;" d="M143 0v225h365v670h-287v225h580v-895h364v-225h-1022zM281 1606h141q11 -69 61 -106.5t133 -37.5t132.5 37t60.5 107h143q-6 -144 -92.5 -220.5t-243.5 -76.5q-156 0 -242.5 76.5t-92.5 220.5z" />
<glyph unicode="&#x12e;" d="M172 0v260h297v973h-297v260h889v-260h-297v-973h297v-260h-889zM512 -223q0 53 27.5 107.5t83.5 115.5h141q-53 -71 -71.5 -106t-18.5 -60q0 -39 30.5 -63.5t80.5 -24.5q38 0 76.5 7.5t78.5 23.5v-156q-54 -11 -101.5 -16.5t-88.5 -5.5q-114 0 -176 46t-62 132z" />
<glyph unicode="&#x12f;" d="M143 0v225h365v670h-287v225h580v-895h364v-225h-1022zM508 1323v342h293v-342h-293zM549 -223q0 53 27.5 107.5t83.5 115.5h141q-53 -71 -71.5 -106t-18.5 -60q0 -39 30.5 -63.5t80.5 -24.5q38 0 76.5 7.5t78.5 23.5v-156q-54 -11 -101.5 -16.5t-88.5 -5.5 q-114 0 -176 46t-62 132z" />
<glyph unicode="&#x130;" d="M172 0v260h297v973h-297v260h889v-260h-297v-973h297v-260h-889zM479 1653v246h275v-246h-275z" />
<glyph unicode="&#x131;" d="M143 0v225h365v670h-287v225h580v-895h364v-225h-1022z" />
<glyph unicode="&#x132;" d="M-9 0v260h190v973h-190v260h569v-260h-190v-973h190v-260h-569zM574 77v342q63 -88 134 -134t143 -46q85 0 124 58q40 58 40 185v754h-264v260h479v-1014q0 -273 -83 -390q-84 -118 -276 -118q-69 0 -144.5 26t-152.5 77z" />
<glyph unicode="&#x133;" d="M10 0v225h255v670h-201v225h405v-895h255v-225h-714zM265 1323v342h204v-342h-204zM526 -209h234q98 0 139 55t41 187v852h-297v225h590v-1077q0 -252 -90.5 -359.5t-300.5 -107.5h-316v225zM940 1313v342h293v-342h-293z" />
<glyph unicode="&#x134;" d="M109 74v342q86 -88 183.5 -134t196.5 -46q116 0 170 58t54 185v754h-361v260h656v-1014q0 -273 -114.5 -390.5t-377.5 -117.5q-95 0 -198.5 26t-208.5 77zM304 1635l221 264h309l223 -264h-178l-199 161l-198 -161h-178z" />
<glyph unicode="&#x135;" d="M143 -199h234q98 0 139 55t41 187v852h-297v225h590v-1077q0 -252 -90.5 -359.5t-300.5 -107.5h-316v225zM240 1262l256 376h241l256 -376h-178l-199 225l-198 -225h-178z" />
<glyph unicode="&#x136;" d="M117 0v1493h295v-590l462 590h334l-471 -588l488 -905h-328l-354 672l-131 -166v-506h-295zM486 -464l89 306h282l-177 -306h-194z" />
<glyph unicode="&#x137;" d="M174 0v1556h293v-817l352 381h355l-424 -418l448 -702h-324l-307 524l-100 -96v-428h-293zM500 -464l89 306h282l-177 -306h-194z" />
<glyph unicode="&#x138;" d="M174 0v1120h293v-381l352 381h355l-424 -418l448 -702h-324l-307 524l-100 -96v-428h-293z" />
<glyph unicode="&#x139;" d="M225 0v1493h295v-1233h631v-260h-926zM470 1636l199 264h284l-286 -264h-197z" />
<glyph unicode="&#x13a;" d="M90 1331v225h590v-1089q0 -132 41 -187t139 -55h234v-225h-316q-209 0 -300 108t-91 359v864h-297zM470 1636l199 264h284l-286 -264h-197z" />
<glyph unicode="&#x13b;" d="M225 0v1493h295v-1233h631v-260h-926zM502 -464l89 306h282l-177 -306h-194z" />
<glyph unicode="&#x13c;" d="M90 1331v225h590v-1089q0 -132 41 -187t139 -55h234v-225h-316q-209 0 -300 108t-91 359v864h-297zM376 -464l89 306h282l-177 -306h-194z" />
<glyph unicode="&#x13d;" d="M225 0v1493h295v-1233h631v-260h-926zM793 1117l76 376h282l-161 -376h-197z" />
<glyph unicode="&#x13e;" d="M90 1331v225h590v-1089q0 -132 41 -187t139 -55h234v-225h-316q-209 0 -300 108t-91 359v864h-297zM832 1180l76 376h282l-161 -376h-197z" />
<glyph unicode="&#x13f;" d="M225 0v1493h295v-1233h631v-260h-926zM837 702v365h333v-365h-333z" />
<glyph unicode="&#x140;" d="M90 1331v225h590v-1089q0 -132 41 -187t139 -55h234v-225h-316q-209 0 -300 108t-91 359v864h-297zM890 702v365h333v-365h-333z" />
<glyph unicode="&#x141;" d="M-39 580l264 188v725h295v-520l275 194l112 -153l-387 -273v-481h631v-260h-926v537l-151 -111z" />
<glyph unicode="&#x142;" d="M37 600l373 264v467h-295v225h587v-485l295 209l103 -160l-398 -280v-373q0 -132 41.5 -187t139.5 -55h233v-225h-315q-209 0 -300 108t-91 359v166l-273 -195z" />
<glyph unicode="&#x143;" d="M119 0v1493h317l416 -1085v1085h260v-1493h-315l-418 1085v-1085h-260zM500 1636l199 264h284l-286 -264h-197z" />
<glyph unicode="&#x144;" d="M172 0v1120h291v-168q31 93 106 144t181 51q159 0 240 -105.5t81 -314.5v-727h-291v682q0 122 -34.5 174.5t-112.5 52.5q-79 0 -124.5 -71t-45.5 -197v-641h-291zM467 1269l283 376h282l-368 -376h-197z" />
<glyph unicode="&#x145;" d="M119 0v1493h317l416 -1085v1085h260v-1493h-315l-418 1085v-1085h-260zM430 -464l89 306h282l-177 -306h-194z" />
<glyph unicode="&#x146;" d="M172 0v1120h291v-168q31 93 106 144t181 51q159 0 240 -105.5t81 -314.5v-727h-291v682q0 122 -34.5 174.5t-112.5 52.5q-79 0 -124.5 -71t-45.5 -197v-641h-291zM436 -464l89 306h282l-177 -306h-194z" />
<glyph unicode="&#x147;" d="M119 0v1493h317l416 -1085v1085h260v-1493h-315l-418 1085v-1085h-260zM281 1899h178l198 -162l199 162h178l-223 -264h-309z" />
<glyph unicode="&#x148;" d="M172 0v1120h291v-168q31 93 106 144t181 51q159 0 240 -105.5t81 -314.5v-727h-291v682q0 122 -34.5 174.5t-112.5 52.5q-79 0 -124.5 -71t-45.5 -197v-641h-291zM276 1638h178l198 -227l199 227h178l-256 -376h-241z" />
<glyph unicode="&#x149;" d="M-110 903l98 383v270h314v-270l-197 -383h-215zM331 0v1120h291v-168q31 93 106 144t181 51q159 0 240 -105.5t81 -314.5v-727h-291v682q0 122 -34.5 174.5t-112.5 52.5q-79 0 -124.5 -71t-45.5 -197v-641h-291z" />
<glyph unicode="&#x14a;" d="M106 0v1493h295v-240q37 128 126.5 198.5t215.5 70.5q189 0 285.5 -145.5t96.5 -434.5v-884q0 -266 -92 -376q-92 -108 -300 -108h-121v227h37q100 0 141 55t41 188v971q0 129 -47 184.5t-153 55.5q-109 0 -168 -75q-62 -78 -62 -208v-972h-295z" />
<glyph unicode="&#x14b;" d="M172 0v1120h291v-168q31 93 106 144t181 51q159 0 240 -105q81 -106 81 -315v-684q0 -252 -91 -359q-90 -108 -300 -108h-121v225h39q100 0 141 55t41 187v639q0 122 -34 174q-35 53 -113 53q-79 0 -125 -71q-45 -71 -45 -197v-641h-291z" />
<glyph unicode="&#x14c;" d="M92 745q0 383 132.5 579t391.5 196q260 0 392.5 -196t132.5 -579q0 -382 -132.5 -578t-392.5 -196q-259 0 -391.5 196t-132.5 578zM301 1682v188h631v-188h-631zM399 745q0 -268 52 -388.5t165 -120.5q114 0 166 120.5t52 388.5q0 269 -52 389.5t-166 120.5 q-113 0 -165 -120.5t-52 -389.5z" />
<glyph unicode="&#x14d;" d="M98 559q0 271 140.5 429.5t377.5 158.5q238 0 378.5 -158.5t140.5 -429.5t-140.5 -429.5t-378.5 -158.5q-237 0 -377.5 158.5t-140.5 429.5zM301 1368v188h631v-188h-631zM391 559q0 -165 60 -257.5t165 -92.5q106 0 166 92.5t60 257.5t-60 257.5t-166 92.5 q-105 0 -165 -92.5t-60 -257.5z" />
<glyph unicode="&#x14e;" d="M92 745q0 383 132.5 579t391.5 196q260 0 392.5 -196t132.5 -579q0 -382 -132.5 -578t-392.5 -196q-259 0 -391.5 196t-132.5 578zM281 1899h141q20 -60 69 -90.5t125 -30.5q77 0 125 30t68 91h143q-15 -129 -101.5 -196.5t-234.5 -67.5q-147 0 -233.5 67.5t-101.5 196.5 zM399 745q0 -268 52 -388.5t165 -120.5q114 0 166 120.5t52 388.5q0 269 -52 389.5t-166 120.5q-113 0 -165 -120.5t-52 -389.5z" />
<glyph unicode="&#x14f;" d="M98 559q0 271 140.5 429.5t377.5 158.5q238 0 378.5 -158.5t140.5 -429.5t-140.5 -429.5t-378.5 -158.5q-237 0 -377.5 158.5t-140.5 429.5zM281 1606h141q11 -69 61 -106.5t133 -37.5t132.5 37t60.5 107h143q-6 -144 -92.5 -220.5t-243.5 -76.5q-156 0 -242.5 76.5 t-92.5 220.5zM391 559q0 -165 60 -257.5t165 -92.5q106 0 166 92.5t60 257.5t-60 257.5t-166 92.5q-105 0 -165 -92.5t-60 -257.5z" />
<glyph unicode="&#x150;" d="M92 745q0 383 132.5 579t391.5 196q260 0 392.5 -196t132.5 -579q0 -382 -132.5 -578t-392.5 -196q-259 0 -391.5 196t-132.5 578zM264 1635l199 264h284l-286 -264h-197zM399 745q0 -268 52 -388.5t165 -120.5q114 0 166 120.5t52 388.5q0 269 -52 389.5t-166 120.5 q-113 0 -165 -120.5t-52 -389.5zM639 1635l199 264h284l-286 -264h-197z" />
<glyph unicode="&#x151;" d="M98 559q0 271 140.5 429.5t377.5 158.5q238 0 378.5 -158.5t140.5 -429.5t-140.5 -429.5t-378.5 -158.5q-237 0 -377.5 158.5t-140.5 429.5zM297 1262l195 376h217l-248 -376h-164zM391 559q0 -165 60 -257.5t165 -92.5q106 0 166 92.5t60 257.5t-60 257.5t-166 92.5 q-105 0 -165 -92.5t-60 -257.5zM639 1262l215 376h231l-272 -376h-174z" />
<glyph unicode="&#x152;" d="M68 745q0 436 121 592t444 156h573v-260h-332v-311h302v-260h-302v-402h343v-260h-584q-324 0 -444.5 155.5t-120.5 589.5zM354 745q0 -311 45.5 -398t169.5 -87h52v973h-52q-123 0 -169 -89t-46 -399z" />
<glyph unicode="&#x153;" d="M14 559q0 315 84.5 451.5t274.5 136.5q99 0 161 -29.5t103 -95.5q28 60 93 92.5t157 32.5q177 0 250 -119t73 -422v-127h-450q0 -144 49.5 -219.5t144.5 -75.5q60 0 120 29.5t120 87.5v-244q-49 -44 -111 -65t-147 -21q-98 0 -169 37t-118 111q-43 -77 -109.5 -112.5 t-166.5 -35.5q-190 0 -274.5 138t-84.5 450zM248 559q0 -242 29.5 -308.5t107.5 -66.5q77 0 106 67t29 308q0 242 -29 308.5t-106 66.5q-78 0 -107.5 -66.5t-29.5 -308.5zM760 690h225v35q0 116 -25.5 162.5t-87.5 46.5t-87 -47.5t-25 -173.5v-23z" />
<glyph unicode="&#x154;" d="M133 0v1493h426q288 0 413.5 -102t125.5 -332q0 -154 -75 -245t-216 -109q44 -9 76.5 -41.5t79.5 -126.5l270 -537h-324l-180 377q-8 16 -21 44q-79 169 -186 169h-94v-590h-295zM428 838h139q121 0 173.5 47.5t52.5 156.5t-52 156t-174 47h-139v-407zM470 1636l199 264 h284l-286 -264h-197z" />
<glyph unicode="&#x155;" d="M291 0v1120h293v-174q43 96 132 148.5t208 52.5q60 0 117.5 -14.5t109.5 -42.5v-279q-48 44 -112.5 66t-141.5 22q-93 0 -162.5 -32.5t-107.5 -94.5q-24 -38 -33.5 -92t-9.5 -164v-516h-293zM623 1269l283 376h282l-368 -376h-197z" />
<glyph unicode="&#x156;" d="M133 0v1493h426q288 0 413.5 -102t125.5 -332q0 -154 -75 -245t-216 -109q44 -9 76.5 -41.5t79.5 -126.5l270 -537h-324l-180 377q-8 16 -21 44q-79 169 -186 169h-94v-590h-295zM428 838h139q121 0 173.5 47.5t52.5 156.5t-52 156t-174 47h-139v-407zM498 -464l89 306 h282l-177 -306h-194z" />
<glyph unicode="&#x157;" d="M252 -464l89 306h282l-177 -306h-194zM291 0v1120h293v-174q43 96 132 148.5t208 52.5q60 0 117.5 -14.5t109.5 -42.5v-279q-48 44 -112.5 66t-141.5 22q-93 0 -162.5 -32.5t-107.5 -94.5q-24 -38 -33.5 -92t-9.5 -164v-516h-293z" />
<glyph unicode="&#x158;" d="M133 0v1493h426q288 0 413.5 -102t125.5 -332q0 -154 -75 -245t-216 -109q44 -9 76.5 -41.5t79.5 -126.5l270 -537h-324l-180 377q-8 16 -21 44q-79 169 -186 169h-94v-590h-295zM209 1899h178l198 -162l199 162h178l-223 -264h-309zM428 838h139q121 0 173.5 47.5 t52.5 156.5t-52 156t-174 47h-139v-407z" />
<glyph unicode="&#x159;" d="M291 0v1120h293v-174q43 96 132 148.5t208 52.5q60 0 117.5 -14.5t109.5 -42.5v-279q-48 44 -112.5 66t-141.5 22q-93 0 -162.5 -32.5t-107.5 -94.5q-24 -38 -33.5 -92t-9.5 -164v-516h-293zM342 1638h178l198 -227l199 227h178l-256 -376h-241z" />
<glyph unicode="&#x15a;" d="M129 1085q0 203 130 319t357 116q103 0 206 -23.5t204 -69.5v-288q-95 67 -193 102t-194 35q-107 0 -164 -43t-57 -123q0 -62 41.5 -102.5t173.5 -89.5l127 -48q180 -66 265 -175t85 -275q0 -226 -133.5 -337.5t-403.5 -111.5q-111 0 -222.5 26.5t-215.5 78.5v305 q118 -84 228.5 -125t218.5 -41q109 0 169 49.5t60 138.5q0 67 -40 117.5t-116 79.5l-145 55q-223 85 -302 178.5t-79 251.5zM500 1636l199 264h284l-286 -264h-197z" />
<glyph unicode="&#x15b;" d="M172 805q0 162 117 252t329 90q95 0 189.5 -15.5t183.5 -46.5v-256q-81 52 -168.5 78.5t-175.5 26.5q-98 0 -148 -28.5t-50 -84.5q0 -80 214 -130l11 -3l84 -20q160 -38 234.5 -122.5t74.5 -228.5q0 -173 -113.5 -259.5t-341.5 -86.5q-101 0 -207 17.5t-215 52.5v256 q97 -55 197.5 -84t194.5 -29q103 0 156 30t53 87q0 56 -37.5 86t-178.5 64l-81 18q-168 38 -245 119t-77 217zM467 1269l283 376h282l-368 -376h-197z" />
<glyph unicode="&#x15c;" d="M129 1085q0 203 130 319t357 116q103 0 206 -23.5t204 -69.5v-288q-95 67 -193 102t-194 35q-107 0 -164 -43t-57 -123q0 -62 41.5 -102.5t173.5 -89.5l127 -48q180 -66 265 -175t85 -275q0 -226 -133.5 -337.5t-403.5 -111.5q-111 0 -222.5 26.5t-215.5 78.5v305 q118 -84 228.5 -125t218.5 -41q109 0 169 49.5t60 138.5q0 67 -40 117.5t-116 79.5l-145 55q-223 85 -302 178.5t-79 251.5zM240 1635l221 264h309l223 -264h-178l-199 161l-198 -161h-178z" />
<glyph unicode="&#x15d;" d="M172 805q0 162 117 252t329 90q95 0 189.5 -15.5t183.5 -46.5v-256q-81 52 -168.5 78.5t-175.5 26.5q-98 0 -148 -28.5t-50 -84.5q0 -80 214 -130l11 -3l84 -20q160 -38 234.5 -122.5t74.5 -228.5q0 -173 -113.5 -259.5t-341.5 -86.5q-101 0 -207 17.5t-215 52.5v256 q97 -55 197.5 -84t194.5 -29q103 0 156 30t53 87q0 56 -37.5 86t-178.5 64l-81 18q-168 38 -245 119t-77 217zM240 1262l256 376h241l256 -376h-178l-199 225l-198 -225h-178z" />
<glyph unicode="&#x15e;" d="M129 1085q0 203 130 319t357 116q103 0 206 -23.5t204 -69.5v-288q-95 67 -193 102t-194 35q-107 0 -164 -43t-57 -123q0 -62 41.5 -102.5t173.5 -89.5l127 -48q180 -66 265 -175t85 -275q0 -226 -133.5 -337.5t-403.5 -111.5q-111 0 -222.5 26.5t-215.5 78.5v305 q118 -84 228.5 -125t218.5 -41q109 0 169 49.5t60 138.5q0 67 -40 117.5t-116 79.5l-145 55q-223 85 -302 178.5t-79 251.5zM367 -219q45 -17 87 -26t78 -9q58 0 90.5 23t32.5 63q0 26 -21 67t-67 101h140q57 -62 84.5 -115t27.5 -100q0 -95 -61.5 -140.5t-188.5 -45.5 q-48 0 -98.5 6.5t-103.5 19.5v156z" />
<glyph unicode="&#x15f;" d="M172 805q0 162 117 252t329 90q95 0 189.5 -15.5t183.5 -46.5v-256q-81 52 -168.5 78.5t-175.5 26.5q-98 0 -148 -28.5t-50 -84.5q0 -80 214 -130l11 -3l84 -20q160 -38 234.5 -122.5t74.5 -228.5q0 -173 -113.5 -259.5t-341.5 -86.5q-101 0 -207 17.5t-215 52.5v256 q97 -55 197.5 -84t194.5 -29q103 0 156 30t53 87q0 56 -37.5 86t-178.5 64l-81 18q-168 38 -245 119t-77 217zM367 -219q45 -17 87 -26t78 -9q58 0 90.5 23t32.5 63q0 26 -21 67t-67 101h140q57 -62 84.5 -115t27.5 -100q0 -95 -61.5 -140.5t-188.5 -45.5q-48 0 -98.5 6.5 t-103.5 19.5v156z" />
<glyph unicode="&#x160;" d="M129 1085q0 203 130 319t357 116q103 0 206 -23.5t204 -69.5v-288q-95 67 -193 102t-194 35q-107 0 -164 -43t-57 -123q0 -62 41.5 -102.5t173.5 -89.5l127 -48q180 -66 265 -175t85 -275q0 -226 -133.5 -337.5t-403.5 -111.5q-111 0 -222.5 26.5t-215.5 78.5v305 q118 -84 228.5 -125t218.5 -41q109 0 169 49.5t60 138.5q0 67 -40 117.5t-116 79.5l-145 55q-223 85 -302 178.5t-79 251.5zM240 1899h178l198 -162l199 162h178l-223 -264h-309z" />
<glyph unicode="&#x161;" d="M172 805q0 162 117 252t329 90q95 0 189.5 -15.5t183.5 -46.5v-256q-81 52 -168.5 78.5t-175.5 26.5q-98 0 -148 -28.5t-50 -84.5q0 -80 214 -130l11 -3l84 -20q160 -38 234.5 -122.5t74.5 -228.5q0 -173 -113.5 -259.5t-341.5 -86.5q-101 0 -207 17.5t-215 52.5v256 q97 -55 197.5 -84t194.5 -29q103 0 156 30t53 87q0 56 -37.5 86t-178.5 64l-81 18q-168 38 -245 119t-77 217zM240 1638h178l198 -227l199 227h178l-256 -376h-241z" />
<glyph unicode="&#x162;" d="M90 1235v258h1053v-258h-379v-1235h-295v1235h-379zM367 -219q45 -17 87 -26t78 -9q58 0 90.5 23t32.5 63q0 26 -21 67t-67 101h140q57 -62 84.5 -115t27.5 -100q0 -95 -61.5 -140.5t-188.5 -45.5q-48 0 -98.5 6.5t-103.5 19.5v156z" />
<glyph unicode="&#x163;" d="M111 895v225h286v318h293v-318h383v-225h-383v-530q0 -75 36.5 -107.5t121.5 -32.5h225v-225h-246q-252 0 -341 80.5t-89 298.5v516h-286zM548 -219q45 -17 87 -26t78 -9q58 0 90.5 23t32.5 63q0 26 -21 67t-67 101h140q57 -62 84.5 -115t27.5 -100q0 -95 -61.5 -140.5 t-188.5 -45.5q-48 0 -98.5 6.5t-103.5 19.5v156z" />
<glyph unicode="&#x164;" d="M90 1235v258h1053v-258h-379v-1235h-295v1235h-379zM233 1911h178l198 -162l199 162h178l-223 -264h-309z" />
<glyph unicode="&#x165;" d="M111 895v225h286v318h293v-318h383v-225h-383v-530q0 -75 36.5 -107.5t121.5 -32.5h225v-225h-246q-252 0 -341 80.5t-89 298.5v516h-286zM833 1311l76 376h282l-161 -376h-197z" />
<glyph unicode="&#x166;" d="M90 1235v258h1053v-258h-379v-505h247v-192h-247v-538h-295v538h-247v192h247v505h-379z" />
<glyph unicode="&#x167;" d="M111 895v225h286v318h293v-318h383v-225h-383v-142h184v-192h-184v-196q0 -75 36 -107q37 -33 122 -33h225v-225h-246q-252 0 -341 80q-89 81 -89 299v182h-178v192h178v142h-286z" />
<glyph unicode="&#x168;" d="M106 551v942h295v-1016q0 -112 57 -175.5t158 -63.5t158 63.5t57 175.5v1016h295v-942q0 -304 -121 -442t-389 -138q-267 0 -388.5 138t-121.5 442zM268 1635v30q0 106 54.5 171t142.5 65q36 0 73.5 -12.5t75.5 -36.5l60 -39q21 -14 40.5 -21.5t35.5 -7.5q36 0 55.5 30 t19.5 87h140q0 -5 -1 -15t-1 -16q0 -106 -53.5 -170.5t-141.5 -64.5q-37 0 -72.5 11t-77.5 38l-54 34q-5 3 -12 7q-45 26 -73 26q-31 0 -51 -30t-20 -80v-6h-140z" />
<glyph unicode="&#x169;" d="M160 391v729h293v-684q0 -121 34 -173t113 -52t123.5 70t44.5 196v643h293v-1120h-293v166q-31 -93 -105.5 -144t-179.5 -51q-160 0 -241.5 106t-81.5 314zM268 1309q0 136 51.5 210t145.5 74q36 0 72 -13.5t77 -43.5l62 -43q21 -15 39.5 -23t34.5 -8q36 0 55.5 31.5 t19.5 89.5v8h140q0 -136 -51.5 -210t-145.5 -74q-36 0 -69 12t-81 45l-55 37l-12 8q-43 29 -70 29q-36 0 -54.5 -31t-18.5 -90v-8h-140z" />
<glyph unicode="&#x16a;" d="M106 551v942h295v-1016q0 -112 57 -175.5t158 -63.5t158 63.5t57 175.5v1016h295v-942q0 -304 -121 -442t-389 -138q-267 0 -388.5 138t-121.5 442zM301 1682v188h631v-188h-631z" />
<glyph unicode="&#x16b;" d="M160 391v729h293v-684q0 -121 34 -173t113 -52t123.5 70t44.5 196v643h293v-1120h-293v166q-31 -93 -105.5 -144t-179.5 -51q-160 0 -241.5 106t-81.5 314zM301 1368v188h631v-188h-631z" />
<glyph unicode="&#x16c;" d="M106 551v942h295v-1016q0 -112 57 -175.5t158 -63.5t158 63.5t57 175.5v1016h295v-942q0 -304 -121 -442t-389 -138q-267 0 -388.5 138t-121.5 442zM281 1899h141q20 -60 69 -90.5t125 -30.5q77 0 125 30t68 91h143q-15 -129 -101.5 -196.5t-234.5 -67.5 q-147 0 -233.5 67.5t-101.5 196.5z" />
<glyph unicode="&#x16d;" d="M160 391v729h293v-684q0 -121 34 -173t113 -52t123.5 70t44.5 196v643h293v-1120h-293v166q-31 -93 -105.5 -144t-179.5 -51q-160 0 -241.5 106t-81.5 314zM281 1606h141q11 -69 61 -106.5t133 -37.5t132.5 37t60.5 107h143q-6 -144 -92.5 -220.5t-243.5 -76.5 q-156 0 -242.5 76.5t-92.5 220.5z" />
<glyph unicode="&#x16e;" d="M106 551v942h295v-1016q0 -112 57 -175.5t158 -63.5t158 63.5t57 175.5v1016h295v-942q0 -304 -121 -442t-389 -138q-267 0 -388.5 138t-121.5 442zM337 1869q0 118 83 201.5t201 83.5q119 0 202 -83.5t83 -201.5t-83 -201.5t-202 -83.5q-118 0 -201 83.5t-83 201.5z M490 1869q0 -55 38.5 -93t92.5 -38q55 0 93.5 38.5t38.5 92.5t-39 92.5t-93 38.5t-92.5 -38.5t-38.5 -92.5z" />
<glyph unicode="&#x16f;" d="M160 391v729h293v-684q0 -121 34 -173t113 -52t123.5 70t44.5 196v643h293v-1120h-293v166q-31 -93 -105.5 -144t-179.5 -51q-160 0 -241.5 106t-81.5 314zM332 1534q0 118 83 201.5t201 83.5q119 0 202 -83.5t83 -201.5t-83 -201.5t-202 -83.5q-118 0 -201 83.5 t-83 201.5zM485 1534q0 -55 38.5 -93t92.5 -38q55 0 93.5 38.5t38.5 92.5t-39 92.5t-93 38.5t-92.5 -38.5t-38.5 -92.5z" />
<glyph unicode="&#x170;" d="M106 551v942h295v-1016q0 -112 57 -175.5t158 -63.5t158 63.5t57 175.5v1016h295v-942q0 -304 -121 -442t-389 -138q-267 0 -388.5 138t-121.5 442zM264 1635l199 264h284l-286 -264h-197zM639 1635l199 264h284l-286 -264h-197z" />
<glyph unicode="&#x171;" d="M160 391v729h293v-684q0 -121 34 -173t113 -52t123.5 70t44.5 196v643h293v-1120h-293v166q-31 -93 -105.5 -144t-179.5 -51q-160 0 -241.5 106t-81.5 314zM297 1262l195 376h217l-248 -376h-164zM639 1262l215 376h231l-272 -376h-174z" />
<glyph unicode="&#x172;" d="M106 551v942h295v-1016q0 -112 57 -175.5t158 -63.5t158 63.5t57 175.5v1016h295v-942q0 -304 -121 -442t-389 -138q-267 0 -388.5 138t-121.5 442zM434 -239q0 53 27.5 107.5t83.5 115.5h141q-53 -71 -71.5 -106t-18.5 -60q0 -39 30.5 -63.5t80.5 -24.5q38 0 76.5 7.5 t78.5 23.5v-156q-54 -11 -101.5 -16.5t-88.5 -5.5q-114 0 -176 46t-62 132z" />
<glyph unicode="&#x173;" d="M160 391v729h293v-684q0 -121 34 -173t113 -52t123.5 70t44.5 196v643h293v-1120h-293v166q-31 -93 -105.5 -144t-179.5 -51q-160 0 -241.5 106t-81.5 314zM800 -223q0 53 27.5 107.5t83.5 115.5h141q-53 -71 -71.5 -106t-18.5 -60q0 -39 30.5 -63.5t80.5 -24.5 q38 0 76.5 7.5t78.5 23.5v-156q-54 -11 -101.5 -16.5t-88.5 -5.5q-114 0 -176 46t-62 132z" />
<glyph unicode="&#x174;" d="M0 1493h258l107 -1096l129 709h245l150 -709l84 1096h260l-172 -1493h-275l-170 784l-159 -784h-273zM240 1642l221 264h309l223 -264h-178l-199 161l-198 -161h-178z" />
<glyph unicode="&#x175;" d="M0 1120h244l133 -858l121 565h237l119 -565l135 858h244l-203 -1120h-278l-136 582l-135 -582h-278zM240 1269l256 376h241l256 -376h-178l-199 225l-198 -225h-178z" />
<glyph unicode="&#x176;" d="M8 1493h318l290 -600l291 600h318l-461 -905v-588h-295v588zM240 1642l221 264h309l223 -264h-178l-199 161l-198 -161h-178z" />
<glyph unicode="&#x177;" d="M59 1120h308l256 -727l245 727h308l-465 -1241q-59 -158 -141.5 -230.5t-200.5 -72.5h-242v223h119q90 0 132 30.5t85 141.5l22 60zM241 1269l256 376h241l256 -376h-178l-199 225l-198 -225h-178z" />
<glyph unicode="&#x178;" d="M8 1493h318l290 -600l291 600h318l-461 -905v-588h-295v588zM301 1653v246h236v-246h-236zM696 1653v246h236v-246h-236z" />
<glyph unicode="&#x179;" d="M115 0v244l671 989h-649v260h1010v-244l-692 -989h706v-260h-1046zM500 1636l199 264h284l-286 -264h-197z" />
<glyph unicode="&#x17a;" d="M162 0v229l590 672h-566v219h895v-229l-589 -672h589v-219h-919zM467 1269l283 376h282l-368 -376h-197z" />
<glyph unicode="&#x17b;" d="M115 0v244l671 989h-649v260h1010v-244l-692 -989h706v-260h-1046zM529 1653v246h275v-246h-275z" />
<glyph unicode="&#x17c;" d="M162 0v229l590 672h-566v219h895v-229l-589 -672h589v-219h-919zM479 1339v246h275v-246h-275z" />
<glyph unicode="&#x17d;" d="M115 0v244l671 989h-649v260h1010v-244l-692 -989h706v-260h-1046zM240 1899h178l198 -162l199 162h178l-223 -264h-309z" />
<glyph unicode="&#x17e;" d="M162 0v229l590 672h-566v219h895v-229l-589 -672h589v-219h-919zM240 1638h178l198 -227l199 227h178l-256 -376h-241z" />
<glyph unicode="&#x17f;" d="M174 895v225h272v78q0 202 84 280t312 78h241v-225h-229q-66 0 -89.5 -24t-25.5 -89v-1218h-293v895h-272z" />
<glyph unicode="&#x180;" d="M12 1270v164h138v122h292v-122h298v-164h-298v-309q54 93 125.5 139.5t161.5 46.5q199 0 306.5 -152t107.5 -436q0 -280 -106 -434t-298 -154q-101 0 -176 49t-121 146v-166h-292v1270h-138zM442 557q0 -162 55 -254t150 -92t149 92t54 254t-54 254t-149 92t-150 -92 t-55 -254z" />
<glyph unicode="&#x181;" d="M0 1078v59q0 202 84 280t312 78h275q249 0 374.5 -94.5t125.5 -282.5q0 -144 -74 -225t-217 -94q171 -17 257.5 -115t86.5 -274q0 -216 -130 -313t-423 -97h-330v1216q-66 0 -90.5 -23.5t-24.5 -89.5v-25h-226zM626 236h45q141 0 197.5 48t56.5 167q0 121 -59 174 t-195 53h-45v-442zM626 913h45q112 0 159.5 40t47.5 132t-48.5 133.5t-158.5 41.5h-45v-347z" />
<glyph unicode="&#x182;" d="M162 0v1493h930v-260h-635v-299h110q309 0 444.5 -110t135.5 -357t-135.5 -357t-444.5 -110h-405zM457 248h121q145 0 203.5 49t58.5 170t-58.5 170t-203.5 49h-121v-438z" />
<glyph unicode="&#x183;" d="M150 0v1556h799v-209h-507v-386q108 186 287 186q202 0 310 -156q104 -150 104 -432q0 -280 -106 -434t-298 -154q-205 0 -297 195v-166h-292zM442 557q0 -162 55 -254t150 -92t149 92t54 254t-54 254t-149 92t-150 -92t-55 -254z" />
<glyph unicode="&#x184;" d="M43 1068l457 425v-559h110q309 0 444.5 -110t135.5 -357t-135.5 -357t-444.5 -110h-405v934zM500 248h121q145 0 203.5 49t58.5 170t-58.5 170t-203.5 49h-121v-438z" />
<glyph unicode="&#x185;" d="M45 1068l442 488v-595q54 93 125.5 139.5t161.5 46.5q199 0 306.5 -152t107.5 -436q0 -280 -106 -434t-298 -154q-101 0 -176 49t-121 146v-166h-292v934zM487 557q0 -162 55 -254t150 -92t149 92t54 254t-54 254t-149 92t-150 -92t-55 -254z" />
<glyph unicode="&#x186;" d="M152 43v328q76 -70 147.5 -102.5t147.5 -32.5q162 0 244.5 128.5t82.5 380.5q0 253 -82.5 381.5t-244.5 128.5q-76 0 -147.5 -32.5t-147.5 -102.5v328q68 36 146 54t163 18q302 0 461 -199t159 -576q0 -376 -159 -575t-461 -199q-85 0 -162 18t-147 54z" />
<glyph unicode="&#x187;" d="M152 745q0 547 325 711q127 64 295 64q48 0 93 -6q88 129 316 129h97v-225h-15q-92 0 -141 -55q-41 -46 -41 -187v-56q-146 135 -295 135q-162 0 -244.5 -128.5t-82.5 -381.5q0 -478 289 -507q19 -2 38 -2q148 0 295 135v-328q-140 -72 -309 -72q-302 0 -461 199 t-159 575z" />
<glyph unicode="&#x188;" d="M168 559q0 277 147 433.5t406 156.5q27 0 53 -2q16 215 88 301q90 108 300 108h121v-225h-39q-95 0 -141 -55q-35 -43 -41 -187l-1 -26v-268q-133 114 -299 114q-171 0 -246 -127q-51 -85 -51 -223q0 -268 186 -331q51 -17 111 -17q168 0 299 115v-269q-148 -86 -342 -86 q-259 0 -405 156t-146 432z" />
<glyph unicode="&#x189;" d="M0 664v237h137v592h316q366 0 527 -174.5t161 -570.5q0 -397 -161 -572.5t-527 -175.5h-316v664h-137zM432 266h80q174 0 248 109.5t74 372.5q0 261 -74 370t-248 109h-80v-326h211v-237h-211v-398z" />
<glyph unicode="&#x18a;" d="M-28 1064v77q0 150 48 220q75 109 211 128q25 4 51 4h236q366 0 527 -174.5t161 -570.5q0 -397 -161 -572.5t-527 -175.5h-236v1206q-29 0 -40 -38q-15 -52 -15 -80v-24h-255zM577 266q174 0 248 109.5t74 372.5q0 261 -74 370t-248 109v-961z" />
<glyph unicode="&#x18b;" d="M125 410v19q3 174 75 255q6 7 23 29l43 50q140 147 412 150h196v347h-667v234l952 -1v-1493h-481q-293 0 -423 97t-130 313zM424 451q0 -119 56.5 -167t197.5 -48h196v442h-196q-136 0 -195 -53t-59 -174z" />
<glyph unicode="&#x18c;" d="M150 559q0 282 104 432q108 156 310 156q179 0 287 -186v386h-507v209h799v-1556h-292v166q-92 -195 -297 -195q-192 0 -298 154t-106 434zM443 557q0 -162 54 -254t149 -92t150 92t55 254t-55 254t-150 92t-149 -92t-54 -254z" />
<glyph unicode="&#x18d;" d="M97 559q0 271 140.5 429.5t378.5 158.5q237 0 377.5 -158.5t140.5 -429.5q0 -263 -140 -429q-63 -75 -89 -77q145 -63 145 -214q0 -135 -126 -213q-125 -77 -349 -77q-99 0 -183 12l-10 2q-31 4 -152 34v215q12 -4 25 -8q96 -31 134 -38q90 -15 171 -15q104 0 162 34 l22 15q35 25 35 69q0 102 -163 102q-238 0 -378.5 158.5t-140.5 429.5zM390 559q0 -165 60 -257.5t166 -92.5q105 0 165 92.5t60 257.5t-60 257.5t-165 92.5q-106 0 -166 -92.5t-60 -257.5z" />
<glyph unicode="&#x18e;" d="M168 0v260h635v391h-575v260h575v322h-635v260h930v-1493h-930z" />
<glyph unicode="&#x18f;" d="M92 745v95h740v5q0 190 -55 300t-175 110q-76 0 -147.5 -32.5t-147.5 -102.5v328q70 36 147 54t162 18q260 0 392.5 -196t132.5 -579q0 -382 -132.5 -578t-392.5 -196q-259 0 -391.5 196t-132.5 578zM405 580q11 -175 63.5 -259.5t149.5 -84.5q100 0 147.5 88t62.5 256 h-423z" />
<glyph unicode="&#x190;" d="M125 416q0 162 84 261.5t244 127.5q-141 26 -217 110.5t-76 217.5q0 181 132 284t368 103q92 0 192 -16.5t203 -47.5v-268q-103 40 -199 61t-180 21q-110 0 -170.5 -46.5t-60.5 -129.5q0 -79 60.5 -122.5t170.5 -43.5h158v-260h-158q-128 0 -198 -62.5t-70 -177.5 q0 -94 70 -149.5t190 -55.5t229 24.5t203 71.5v-274q-100 -36 -209.5 -55t-222.5 -19q-265 0 -404 114t-139 331z" />
<glyph unicode="&#x191;" d="M108 -199q104 0 145 55q37 50 37 187v125v1325h835v-260h-540v-322h483v-260h-483v-483v-125v-43q-8 -216 -91 -316q-90 -108 -300 -108h-86v225z" />
<glyph unicode="&#x192;" d="M91 -199h234q99 0 139 55q41 56 41 187v852h-272v225h272v78q0 202 84 280t312 78h241v-225h-229q-111 1 -115 -113v-98h344v-225h-344v-895q-6 -217 -90 -316q-92 -108 -301 -108h-316v225z" />
<glyph unicode="&#x193;" d="M38 745q0 542 320 708q129 67 300 67q60 0 120 -12q10 15 20 27q90 108 300 108h97v-225h-15q-92 0 -141 -55q-41 -46 -41 -187v-82l-3 4q-125 157 -316 157q-315 0 -333 -454q-1 -27 -1 -56q0 -412 212 -491q46 -18 101 -18q93 0 135 34v285h-202v248h460v-684 q-172 -148 -407 -148q-290 0 -448 201.5t-158 572.5z" />
<glyph unicode="&#x194;" d="M33 1493h321l262 -481l261 481h323l-398 -731q208 -382 210 -776q2 -271 -402 -276t-406 276q-2 349 227 776zM474 126q1 -126 137 -126q139 0 139 130q0 149 -134 380q-144 -267 -142 -384zM616 510z" />
<glyph unicode="&#x195;" d="M12 0v1556h232v-604q25 93 85 144t145 51q127 0 192 -105q65 -106 65 -315l1 -267q2 -171 7 -181q28 -52 57 -48l13 2q88 13 131 97q49 94 49 230v376h232v-367q4 -253 -100 -411q-98 -154 -258 -158l-89 -2q-136 -3 -204 118q-71 125 -72 344l-1 267q-4 86 -27 128 q-27 52 -90 52q-64 0 -100 -71q-36 -70 -36 -195v-641h-232z" />
<glyph unicode="&#x196;" d="M172 1233v260h889v-260h-297v-738q0 -142 38 -188q38 -45 140 -46l186 -1v-260h-234q-206 0 -314 118q-110 120 -110 344l-1 771h-297z" />
<glyph unicode="&#x197;" d="M172 0v260h297v278h-247v192h247v503h-297v260h889v-260h-297v-503h247v-192h-247v-278h297v-260h-889z" />
<glyph unicode="&#x198;" d="M20 0v1493h295v-590l256 327q173 221 307 249q130 26 271 -87l64 -51l-140 -176q-77 61 -145 45q-54 -13 -164 -150l-124 -155l488 -905h-328l-354 672l-131 -166v-506h-295z" />
<glyph unicode="&#x199;" d="M174 0v964v125q0 250 91 359q90 108 300 108h121v-225h-39q-98 0 -141 -55q-41 -53 -41 -187h2v-350l352 381h355l-424 -418l448 -702h-324l-307 524l-100 -96v-428h-293z" />
<glyph unicode="&#x19a;" d="M90 1331v225h590v-803h10h184v-192h-184h-10v-94q0 -132 41 -187t139 -55h234v-225h-316q-209 0 -300 108t-91 359v94h-168v192h168v578h-297z" />
<glyph unicode="&#x19b;" d="M80 0l363 965l-30 69l-210 -149l-100 162l234 166l-147 343h297l78 -182l203 144l103 -160l-230 -163l512 -1195h-297l-255 596l-224 -596h-297z" />
<glyph unicode="&#x19c;" d="M82 489v1004h240v-1092q0 -125 19 -167t69 -42t70 43t20 166v1092h237v-1092q0 -123 20 -166t70 -43t69 42t19 167v1092h240v-1493h-213v116q-25 -66 -80 -104.5t-123 -38.5t-124 40.5t-68 98.5q-33 -71 -84 -105t-125 -34q-145 0 -200.5 100t-55.5 416z" />
<glyph unicode="&#x19d;" d="M30 -201h60q59 0 102 75q18 29 18 167v1452h316l416 -1085v1085h260v-1493h-314l-418 1085v-1085h-1q-9 -284 -157 -374q-84 -52 -234 -52h-48v225z" />
<glyph unicode="&#x19e;" d="M172 0v1120h291v-168q31 93 106 144t181 51q159 0 240 -105.5t81 -314.5v-1153h-291v1108q0 122 -34.5 174.5t-112.5 52.5q-79 0 -124.5 -71t-45.5 -197v-641h-291z" />
<glyph unicode="&#x19f;" d="M92 745q0 628 349 748q79 27 175 27q260 0 392.5 -196t132.5 -579q0 -640 -364 -752q-73 -22 -161 -22q-369 0 -479 391q-45 160 -45 383zM401 651q9 -200 50 -295q52 -120 165 -120q114 0 166 120q40 93 50 295h-431zM405 911h423q-18 197 -76 276q-51 68 -136 68 q-148 0 -193 -214q-10 -50 -18 -130z" />
<glyph unicode="&#x1a0;" d="M4 745q0 383 132.5 579t391.5 196q260 0 392.5 -196t132.5 -579q0 -382 -132.5 -578t-392.5 -196q-259 0 -391.5 196t-132.5 578zM311 745q0 -268 52 -388.5t165 -120.5q114 0 166 120.5t52 388.5q0 269 -52 389.5t-166 120.5q-113 0 -165 -120.5t-52 -389.5zM828 1238 v141q67 -50 103.5 -69t62.5 -19q39 0 63.5 29.5t24.5 78.5q0 39 -7.5 77.5t-23.5 78.5h156q11 -55 16.5 -102t5.5 -88q0 -115 -46 -176.5t-132 -61.5q-53 0 -107.5 27t-115.5 84z" />
<glyph unicode="&#x1a1;" d="M9 559q0 271 140.5 429.5t377.5 158.5q238 0 378.5 -158.5t140.5 -429.5t-140.5 -429.5t-378.5 -158.5q-237 0 -377.5 158.5t-140.5 429.5zM302 559q0 -165 60 -257.5t165 -92.5q106 0 166 92.5t60 257.5t-60 257.5t-166 92.5q-105 0 -165 -92.5t-60 -257.5zM823 850v141 q67 -50 103.5 -69t62.5 -19q39 0 63.5 29.5t24.5 78.5q0 39 -7.5 77.5t-23.5 78.5h156q11 -55 16.5 -102t5.5 -88q0 -115 -46 -176.5t-132 -61.5q-53 0 -107.5 27t-115.5 84z" />
<glyph unicode="&#x1a2;" d="M30 745q0 639 325 752q67 23 146 23q209 0 326 -155l93 128h283v-1493h-234v1136l-114 -160v-809q-120 -196 -354 -196q-331 0 -431 391q-40 160 -40 383zM306 745q0 -351 85 -456q43 -53 110 -53q103 0 150 120v778q-47 121 -150 121q-141 0 -179 -244 q-16 -104 -16 -266z" />
<glyph unicode="&#x1a3;" d="M18 559q0 271 140.5 429.5t377.5 158.5q155 0 283 -124l131 101h283v-1550h-234v1230l-147 -114v-560q-140 -159 -316 -159q-237 0 -377.5 158.5t-140.5 429.5zM311 559q0 -165 60 -257.5t165 -92.5q44 0 104 93v514q-60 93 -104 93q-105 0 -165 -92.5t-60 -257.5z" />
<glyph unicode="&#x1a4;" d="M20 1064v77q0 150 48 220q75 109 211 128q25 4 51 4h303q309 0 444.5 -110t135.5 -357t-135.5 -357t-444.5 -110h-8v-559h-295v1206q-29 0 -40 -38q-15 -52 -15 -80v-24h-255zM625 807h19q145 0 203.5 49t58.5 170t-58.5 170t-203.5 49h-19v-438z" />
<glyph unicode="&#x1a5;" d="M150 -426l1 1489h-1l1 26q10 262 91 359q90 108 300 108h121v-225h-39q-95 0 -141 -55q-35 -43 -41 -187h1l-1 -137q92 195 297 195q192 0 298 -154t106 -434q0 -425 -231 -546q-81 -42 -183 -42q-180 0 -287 187v-584h-292zM442 561q0 -162 55 -254t150 -92t149 92 t54 254t-54 254t-149 92t-150 -92t-55 -254z" />
<glyph unicode="&#x1a6;" d="M133 0v1493h295v-238h131q288 0 413.5 -102t125.5 -332q0 -154 -75 -245t-216 -109q44 -9 77 -41q31 -32 79 -127l270 -537h-324l-180 377q-21 43 -21 44q-79 169 -186 169h-94v-352h-295zM428 600h139q121 0 173.5 47.5t52.5 156.5t-52 156t-174 47h-139v-407z" />
<glyph unicode="&#x1a7;" d="M129 420q0 166 85 275t265 175l127 48q132 49 173.5 89.5t41.5 102.5q0 80 -57 123t-164 43q-96 0 -194 -35t-193 -102v288q101 46 204 69.5t206 23.5q227 0 357 -116t130 -319q0 -158 -79 -251.5t-302 -178.5l-145 -55q-76 -29 -116 -79.5t-40 -117.5q0 -89 60 -138.5 t169 -49.5q108 0 218.5 41t228.5 125v-305q-104 -52 -215.5 -78.5t-222.5 -26.5q-270 0 -403.5 111.5t-133.5 337.5z" />
<glyph unicode="&#x1a8;" d="M172 317q0 144 74.5 228.5t234.5 122.5l84 20l11 3q214 50 214 130q0 56 -50 84.5t-148 28.5q-88 0 -175.5 -26.5t-168.5 -78.5v256q89 31 183.5 46.5t189.5 15.5q212 0 329 -90t117 -252q0 -136 -77 -217t-245 -119l-81 -18q-141 -34 -178.5 -64t-37.5 -86q0 -57 53 -87 t156 -30q94 0 194.5 29t197.5 84v-256q-109 -35 -215 -52.5t-207 -17.5q-228 0 -341.5 86.5t-113.5 259.5z" />
<glyph unicode="&#x1a9;" d="M98 0v260l401 487l-401 487v259h1046v-260h-706l402 -486l-402 -487h706v-260h-1046z" />
<glyph unicode="&#x1aa;" d="M59 1263q-4 282 298 292v1h50q209 0 301 -108q75 -89 88 -250h137q116 0 172 -1v-210h-168h-139v-1073q0 -64 26 -89q25 -24 89 -24h229v-225h-241q-228 0 -312 78t-84 280v1053h-135q-308 0 -311 276zM265 1273q1 -76 106 -76h125q-11 50 -32 79q-40 54 -136 55 q-64 -5 -63 -58zM328 1331h29h-29z" />
<glyph unicode="&#x1ab;" d="M111 895v225h286v318h293v-318h383v-225h-383v-530q0 -75 36.5 -107.5t121.5 -32.5h225v-182v-43h-1q-7 -214 -92 -316q-90 -108 -300 -108h-121v225h39q98 0 141 55q34 44 40 145q-213 7 -293 79q-89 81 -89 299v516h-286z" />
<glyph unicode="&#x1ac;" d="M21 1064v77q0 155 48 220q18 25 51 53q90 77 213 76q105 0 57 5l753 -2v-258h-379v-1235h-295v1235l-79 2q-19 0 -20 -1q-44 -1 -60 -20q-27 -33 -33 -105q-1 -13 -1 -47h-255z" />
<glyph unicode="&#x1ad;" d="M111 895v225h288q0 219 91 328q82 98 258 107q20 1 42 1h121v-225h-39q-98 0 -141 -55q-41 -53 -41 -156h383v-225h-383v-530q0 -75 36.5 -107.5t121.5 -32.5h225v-225h-246q-252 0 -341 80.5t-89 298.5v516h-286z" />
<glyph unicode="&#x1ae;" d="M90 1235v258h1053v-258h-379v-1194q0 -134 42 -188t140 -54h39v-225h-126q-210 0 -296.5 104t-93.5 322v1235h-379z" />
<glyph unicode="&#x1af;" d="M5 551v942h295v-1016q0 -112 57 -175.5t158 -63.5t158 63.5t57 175.5v1016h295v-942q0 -304 -121 -442t-389 -138q-267 0 -388.5 138t-121.5 442zM827 1238v141q67 -50 103.5 -69t62.5 -19q39 0 63.5 29.5t24.5 78.5q0 39 -7.5 77.5t-23.5 78.5h156q11 -55 16.5 -102 t5.5 -88q0 -115 -46 -176.5t-132 -61.5q-53 0 -107.5 27t-115.5 84z" />
<glyph unicode="&#x1b0;" d="M8 391v729h293v-684q0 -121 34 -173t113 -52t123.5 70t44.5 196v643h293v-1120h-293v166q-31 -93 -105.5 -144t-179.5 -51q-160 0 -241.5 106t-81.5 314zM824 850v141q67 -50 103.5 -69t62.5 -19q39 0 63.5 29.5t24.5 78.5q0 39 -7.5 77.5t-23.5 78.5h156 q11 -55 16.5 -102t5.5 -88q0 -115 -46 -176.5t-132 -61.5q-53 0 -107.5 27t-115.5 84z" />
<glyph unicode="&#x1b1;" d="M90 1249v211h471v-268q-81 -79 -120 -196t-39 -284q0 -214 56 -330t159 -116q102 0 158.5 116t56.5 330q0 166 -40 284.5t-122 195.5v268h473v-211h-238q120 -109 174 -244.5t54 -326.5q0 -312 -139.5 -495t-374.5 -183q-237 0 -378 183t-141 495q0 191 54 326.5 t174 244.5h-238z" />
<glyph unicode="&#x1b2;" d="M117 1233v260h295v-998q0 -142 38 -188q38 -45 140 -46q154 0 199 248q16 88 16 198q0 328 -162 480v57h235q120 -109 174 -244.5t54 -326.5q0 -312 -140 -495q-135 -178 -424 -178q-253 0 -358 176q-66 110 -66 286z" />
<glyph unicode="&#x1b3;" d="M3 1493h302l276 -600l97 211q147 320 188 348q134 92 303 15l61 -28l-63 -215q-31 19 -84 17q-49 -2 -150 -215l-206 -438v-588h-295v588z" />
<glyph unicode="&#x1b4;" d="M29 1120h293l243 -727l112 351q91 281 173 340q83 59 302 21l52 -9l-59 -216q-94 35 -142 -44q-34 -57 -75 -172l-278 -785q-107 -303 -342 -303h-242v223h119q90 0 132 30.5t85 141.5l22 60z" />
<glyph unicode="&#x1b5;" d="M115 0v244l199 294h-92v192h223l341 503h-649v260h1010v-244l-363 -519h227v-192h-361l-195 -278h706v-260h-1046z" />
<glyph unicode="&#x1b6;" d="M157 0v229l183 209h-110v194h281l236 269h-566v219h895v-229l-227 -259h155v-194h-325l-192 -219h589v-219h-919z" />
<glyph unicode="&#x1b7;" d="M10 439h318q0 -107 97 -164q69 -41 167 -41q235 0 276 146q8 28 8 59q0 179 -224 203q-34 4 -73 4h-255v218l372 369h-566v260h1010v-244l-401 -401q145 -9 223 -32q107 -31 180 -131q81 -110 81 -260q0 -281 -241 -390q-141 -63 -359 -63q-338 0 -469 116 q-144 128 -144 351z" />
<glyph unicode="&#x1b8;" d="M10 425q0 143 71 245q79 113 190 146q78 23 223 32l-401 401v244h1010v-260h-566l372 -369v-218h-255q-297 0 -297 -207q0 -139 138 -185q60 -20 146 -20q141 0 215 78q49 53 49 127h318q0 -223 -144 -351q-131 -116 -469 -116q-458 0 -568 274q-32 80 -32 179z" />
<glyph unicode="&#x1b9;" d="M110 13q0 143 71 245q77 113 190 146q78 23 223 32l-391 455v229h895v-219h-566l390 -449v-218h-168q-147 0 -222 -52q-75 -53 -75 -155q0 -99 73 -152t211 -53q93 0 189 28q96 27 193 81v-297q-102 -37 -206 -56q-104 -18 -207 -18q-294 0 -447 116q-153 115 -153 337z " />
<glyph unicode="&#x1ba;" d="M131 -127q0 141 91 208q78 58 351 94l60 8q101 13 127 27q36 18 36 56q0 45 -47 65q-50 21 -298 21h-212l486 549h-594v219h966v-219l-305 -355q111 -17 189 -65q116 -72 116 -220q0 -138 -92 -205q-89 -65 -318 -92l-60 -7q-106 -12 -138 -30q-35 -19 -35 -59 q0 -48 51 -72q50 -24 150 -24q110 0 217 22q107 21 208 64v-226q-127 -31 -230 -44q-113 -14 -219 -14q-246 0 -374 75q-126 74 -126 224z" />
<glyph unicode="&#x1bb;" d="M115 0v252l160 170l109 116h-162v192h340l59 65q75 86 108 152.5t33 131.5q0 100 -60.5 154.5t-171.5 54.5q-79 0 -177.5 -31.5t-205.5 -91.5v275q107 39 209.5 59.5t196.5 20.5q237 0 372.5 -110.5t135.5 -301.5q0 -88 -29.5 -165t-101.5 -171q-13 -16 -36 -42h117v-192 h-247h-53l-72 -72l-205 -206h629v-260h-948z" />
<glyph unicode="&#x1bc;" d="M10 439h318q0 -95 79 -152q74 -53 185 -53q138 0 211 53t73 152q0 102 -75 155q-75 52 -222 52h-102h-153h-142v847h930v-260h-635v-353h262q116 0 257 -64q75 -30 156 -146q71 -102 71 -245q0 -222 -153 -337q-154 -116 -447 -116q-338 0 -469 116q-144 128 -144 351z " />
<glyph unicode="&#x1bd;" d="M110 -69q95 -53 193 -81t189 -28q138 0 211 53t73 152q0 102 -75 155q-75 52 -222 52h-168h-89v886h799v-209h-508v-459h107q136 0 256 -48q105 -44 176 -146q71 -103 71 -245q0 -222 -153 -337q-154 -116 -447 -116q-103 0 -207 18q-104 19 -206 56v297z" />
<glyph unicode="&#x1be;" d="M146 1078v194h214h4v166h322v-166h233v-194h-233v-49q170 -31 261 -125q140 -145 140 -376q0 -215 -119 -348q-188 -210 -405 -210q-163 0 -236 18q-73 17 -141 52v298q70 -43 140 -64q72 -22 144 -22q161 0 250 114q52 66 52 162q0 71 -51 147q-78 114 -273 114h-84v289 h-218z" />
<glyph unicode="&#x1bf;" d="M81 -426v1546h315v-165q76 111 152 148q92 44 262 44q180 0 248 -112q80 -127 80 -266q0 -420 -742 -901v-294h-315zM396 145q417 334 417 498q0 113 -50 179q-50 65 -160 65q-78 0 -207 -203v-539z" />
<glyph unicode="&#x1c0;" d="M483 0v1493h267v-1493h-267z" />
<glyph unicode="&#x1c1;" d="M254 0v1493h267v-1493h-267zM712 0v1493h267v-1493h-267z" />
<glyph unicode="&#x1c2;" d="M73 454v237h410v220h-410v235h410v347h267v-347h410v-235h-410v-220h410v-237h-410v-454h-267v454h-410z" />
<glyph unicode="&#x1c3;" d="M483 0v283h267v-283h-267zM483 838v655h267v-655l-33 -357h-199z" />
<glyph unicode="&#x1cd;" d="M33 0l403 1493h361l403 -1493h-295l-92 369h-395l-90 -369h-295zM240 1899h178l198 -162l199 162h178l-223 -264h-309zM477 612h279l-140 611z" />
<glyph unicode="&#x1ce;" d="M94 354q0 196 127 289.5t393 93.5h203v49q0 71 -51.5 107.5t-151.5 36.5q-105 0 -203.5 -26.5t-205.5 -84.5v250q97 40 197 59t212 19q273 0 383.5 -111t110.5 -397v-639h-291v125q-53 -74 -136 -114t-183 -40q-191 0 -297.5 101t-106.5 282zM240 1638h178l198 -227 l199 227h178l-256 -376h-241zM406 340q0 -76 45 -121t122 -45q116 0 180 87.5t64 244.5v20h-117q-164 0 -229 -42t-65 -144z" />
<glyph unicode="&#x1cf;" d="M172 0v260h297v973h-297v260h889v-260h-297v-973h297v-260h-889zM240 1899h178l198 -162l199 162h178l-223 -264h-309z" />
<glyph unicode="&#x1d0;" d="M143 0v225h365v670h-287v225h580v-895h364v-225h-1022zM240 1638h178l198 -227l199 227h178l-256 -376h-241z" />
<glyph unicode="&#x1d1;" d="M92 745q0 383 132.5 579t391.5 196q260 0 392.5 -196t132.5 -579q0 -382 -132.5 -578t-392.5 -196q-259 0 -391.5 196t-132.5 578zM240 1899h178l198 -162l199 162h178l-223 -264h-309zM399 745q0 -268 52 -388.5t165 -120.5q114 0 166 120.5t52 388.5q0 269 -52 389.5 t-166 120.5q-113 0 -165 -120.5t-52 -389.5z" />
<glyph unicode="&#x1d2;" d="M98 559q0 271 140.5 429.5t377.5 158.5q238 0 378.5 -158.5t140.5 -429.5t-140.5 -429.5t-378.5 -158.5q-237 0 -377.5 158.5t-140.5 429.5zM240 1638h178l198 -227l199 227h178l-256 -376h-241zM391 559q0 -165 60 -257.5t165 -92.5q106 0 166 92.5t60 257.5t-60 257.5 t-166 92.5q-105 0 -165 -92.5t-60 -257.5z" />
<glyph unicode="&#x1d3;" d="M106 551v942h295v-1016q0 -112 57 -175.5t158 -63.5t158 63.5t57 175.5v1016h295v-942q0 -304 -121 -442t-389 -138q-267 0 -388.5 138t-121.5 442zM240 1899h178l198 -162l199 162h178l-223 -264h-309z" />
<glyph unicode="&#x1d4;" d="M160 391v729h293v-684q0 -121 34 -173t113 -52t123.5 70t44.5 196v643h293v-1120h-293v166q-31 -93 -105.5 -144t-179.5 -51q-160 0 -241.5 106t-81.5 314zM240 1638h178l198 -227l199 227h178l-256 -376h-241z" />
<glyph unicode="&#x1d5;" d="M106 551v942h295v-1016q0 -112 57 -175.5t158 -63.5t158 63.5t57 175.5v1016h295v-942q0 -304 -121 -442t-389 -138q-267 0 -388.5 138t-121.5 442zM301 1525v246h236v-246h-236zM301 1829v188h631v-188h-631zM696 1525v246h236v-246h-236z" />
<glyph unicode="&#x1d6;" d="M160 391v729h293v-684q0 -121 34 -173t113 -52t123.5 70t44.5 196v643h293v-1120h-293v166q-31 -93 -105.5 -144t-179.5 -51q-160 0 -241.5 106t-81.5 314zM301 1339v246h236v-246h-236zM301 1683v188h631v-188h-631zM696 1339v246h236v-246h-236z" />
<glyph unicode="&#x1d7;" d="M106 551v942h295v-1016q0 -112 57 -175.5t158 -63.5t158 63.5t57 175.5v1016h295v-942q0 -304 -121 -442t-389 -138q-267 0 -388.5 138t-121.5 442zM301 1525v246h236v-246h-236zM469 1800l199 264h284l-286 -264h-197zM696 1525v246h236v-246h-236z" />
<glyph unicode="&#x1d8;" d="M160 391v729h293v-684q0 -121 34 -173t113 -52t123.5 70t44.5 196v643h293v-1120h-293v166q-31 -93 -105.5 -144t-179.5 -51q-160 0 -241.5 106t-81.5 314zM301 1339v246h236v-246h-236zM469 1677l283 376h282l-368 -376h-197zM696 1339v246h236v-246h-236z" />
<glyph unicode="&#x1d9;" d="M106 551v942h295v-1016q0 -112 57 -175.5t158 -63.5t158 63.5t57 175.5v1016h295v-942q0 -304 -121 -442t-389 -138q-267 0 -388.5 138t-121.5 442zM240 2064h178l198 -162l199 162h178l-223 -264h-309zM301 1525v246h236v-246h-236zM696 1525v246h236v-246h-236z" />
<glyph unicode="&#x1da;" d="M160 391v729h293v-684q0 -121 34 -173t113 -52t123.5 70t44.5 196v643h293v-1120h-293v166q-31 -93 -105.5 -144t-179.5 -51q-160 0 -241.5 106t-81.5 314zM240 2053h178l198 -227l199 227h178l-256 -376h-241zM301 1339v246h236v-246h-236zM696 1339v246h236v-246h-236z " />
<glyph unicode="&#x1db;" d="M106 551v942h295v-1016q0 -112 57 -175.5t158 -63.5t158 63.5t57 175.5v1016h295v-942q0 -304 -121 -442t-389 -138q-267 0 -388.5 138t-121.5 442zM283 2064h284l199 -264h-197zM301 1525v246h236v-246h-236zM696 1525v246h236v-246h-236z" />
<glyph unicode="&#x1dc;" d="M160 391v729h293v-684q0 -121 34 -173t113 -52t123.5 70t44.5 196v643h293v-1120h-293v166q-31 -93 -105.5 -144t-179.5 -51q-160 0 -241.5 106t-81.5 314zM199 2053h282l283 -376h-197zM301 1339v246h236v-246h-236zM696 1339v246h236v-246h-236z" />
<glyph unicode="&#x1dd;" d="M92 534v119h759v10q-1 132 -78 192t-230 60q-101 0 -199 -29t-205 -92v269q102 42 208 63t224 21q281 0 429.5 -150.5t148.5 -433.5q0 -274 -143 -433t-390 -159q-249 0 -386.5 147.5t-137.5 415.5zM387 433q2 -116 59.5 -175.5t169.5 -59.5q101 0 161 61t71 174h-461z " />
<glyph unicode="&#x1de;" d="M33 0l403 1493h361l403 -1493h-295l-92 369h-395l-90 -369h-295zM301 1557v246h236v-246h-236zM301 1829v188h631v-188h-631zM477 612h279l-140 611zM696 1557v246h236v-246h-236z" />
<glyph unicode="&#x1df;" d="M94 354q0 196 127 289.5t393 93.5h203v49q0 71 -51.5 107.5t-151.5 36.5q-105 0 -203.5 -26.5t-205.5 -84.5v250q97 40 197 59t212 19q273 0 383.5 -111t110.5 -397v-639h-291v125q-53 -74 -136 -114t-183 -40q-191 0 -297.5 101t-106.5 282zM301 1339v246h236v-246h-236 zM301 1683v188h631v-188h-631zM406 340q0 -76 45 -121t122 -45q116 0 180 87.5t64 244.5v20h-117q-164 0 -229 -42t-65 -144zM696 1339v246h236v-246h-236z" />
<glyph unicode="&#x1e0;" d="M33 0l403 1493h361l403 -1493h-295l-92 369h-395l-90 -369h-295zM301 1829v188h631v-188h-631zM477 612h279l-140 611zM479 1557v246h275v-246h-275z" />
<glyph unicode="&#x1e1;" d="M94 354q0 196 127 289.5t393 93.5h203v49q0 71 -51.5 107.5t-151.5 36.5q-105 0 -203.5 -26.5t-205.5 -84.5v250q97 40 197 59t212 19q273 0 383.5 -111t110.5 -397v-639h-291v125q-53 -74 -136 -114t-183 -40q-191 0 -297.5 101t-106.5 282zM301 1683v188h631v-188h-631 zM406 340q0 -76 45 -121t122 -45q116 0 180 87.5t64 244.5v20h-117q-164 0 -229 -42t-65 -144zM479 1339v246h275v-246h-275z" />
<glyph unicode="&#x1e2;" d="M0 0l358 1493h803v-260h-291v-311h260v-260h-260v-402h310v-260h-564v362h-282l-86 -362h-248zM389 598h227v635h-79zM444 1682v188h631v-188h-631z" />
<glyph unicode="&#x1e3;" d="M14 326q0 185 101 276.5t305 91.5h76v51q0 93 -39 140t-115 47q-57 0 -124.5 -27.5t-141.5 -81.5v246q74 39 144 58.5t134 19.5q98 0 160.5 -31t97.5 -96q29 61 94.5 94t157.5 33q177 0 250.5 -119t73.5 -422v-127h-451q0 -144 50 -219.5t145 -75.5q60 0 120 29.5 t119 87.5v-244q-50 -44 -112.5 -65t-145.5 -21q-103 0 -178 42t-117 122q-41 -84 -106.5 -124t-163.5 -40q-160 0 -247 92.5t-87 262.5zM240 330q0 -71 32 -108.5t93 -37.5q63 0 93.5 43t30.5 131v43v82h-73q-87 0 -131.5 -39t-44.5 -114zM301 1368v188h631v-188h-631z M737 690h226v23q0 125 -25 172t-88 47t-88 -47t-25 -172v-23z" />
<glyph unicode="&#x1e6;" d="M117 745q0 377 159.5 576t460.5 199q90 0 177 -25.5t163 -73.5v-327q-62 80 -142.5 120.5t-176.5 40.5q-168 0 -251 -126.5t-83 -383.5q0 -249 80 -379t233 -130q46 0 80 8.5t55 25.5v285h-202v248h460v-684q-85 -73 -187.5 -110.5t-219.5 -37.5q-290 0 -448 201.5 t-158 572.5zM361 1899h178l198 -162l199 162h178l-223 -264h-309z" />
<glyph unicode="&#x1e7;" d="M98 571q0 266 113 422t303 156q96 0 171 -45t118 -127v143h293v-1036q0 -269 -121.5 -388.5t-394.5 -119.5q-92 0 -182 13.5t-183 41.5v269q83 -46 169 -68t177 -22q124 0 183 58.5t59 182.5v121q-43 -80 -114 -119t-173 -39q-192 0 -305 150t-113 407zM220 1638h178 l198 -227l199 227h178l-256 -376h-241zM391 578q0 -152 56.5 -242t148.5 -90q93 0 150 90.5t57 241.5q0 150 -57 240.5t-150 90.5q-92 0 -148.5 -90t-56.5 -241z" />
<glyph unicode="&#x1e8;" d="M117 0v1493h295v-590l462 590h334l-471 -588l488 -905h-328l-354 672l-131 -166v-506h-295zM240 1899h178l198 -162l199 162h178l-223 -264h-309z" />
<glyph unicode="&#x1e9;" d="M174 0v1556h293v-817l352 381h355l-424 -418l448 -702h-324l-307 524l-100 -96v-428h-293zM240 1899h178l198 -162l199 162h178l-223 -264h-309z" />
<glyph unicode="&#x1ea;" d="M92 745q0 383 132.5 579t391.5 196q260 0 392.5 -196t132.5 -579q0 -382 -132.5 -578t-392.5 -196q-259 0 -391.5 196t-132.5 578zM399 745q0 -268 52 -388.5t165 -120.5q114 0 166 120.5t52 388.5q0 269 -52 389.5t-166 120.5q-113 0 -165 -120.5t-52 -389.5zM434 -239 q0 53 27.5 107.5t83.5 115.5h141q-53 -71 -71.5 -106t-18.5 -60q0 -39 30.5 -63.5t80.5 -24.5q38 0 76.5 7.5t78.5 23.5v-156q-54 -11 -101.5 -16.5t-88.5 -5.5q-114 0 -176 46t-62 132z" />
<glyph unicode="&#x1eb;" d="M98 559q0 271 140.5 429.5t377.5 158.5q238 0 378.5 -158.5t140.5 -429.5t-140.5 -429.5t-378.5 -158.5q-237 0 -377.5 158.5t-140.5 429.5zM391 559q0 -165 60 -257.5t165 -92.5q106 0 166 92.5t60 257.5t-60 257.5t-166 92.5q-105 0 -165 -92.5t-60 -257.5zM434 -239 q0 53 27.5 107.5t83.5 115.5h141q-53 -71 -71.5 -106t-18.5 -60q0 -39 30.5 -63.5t80.5 -24.5q38 0 76.5 7.5t78.5 23.5v-156q-54 -11 -101.5 -16.5t-88.5 -5.5q-114 0 -176 46t-62 132z" />
<glyph unicode="&#x1ec;" d="M92 745q0 383 132.5 579t391.5 196q260 0 392.5 -196t132.5 -579q0 -382 -132.5 -578t-392.5 -196q-259 0 -391.5 196t-132.5 578zM301 1682v188h631v-188h-631zM399 745q0 -268 52 -388.5t165 -120.5q114 0 166 120.5t52 388.5q0 269 -52 389.5t-166 120.5 q-113 0 -165 -120.5t-52 -389.5zM434 -239q0 53 27.5 107.5t83.5 115.5h141q-53 -71 -71.5 -106t-18.5 -60q0 -39 30.5 -63.5t80.5 -24.5q38 0 76.5 7.5t78.5 23.5v-156q-54 -11 -101.5 -16.5t-88.5 -5.5q-114 0 -176 46t-62 132z" />
<glyph unicode="&#x1ed;" d="M98 559q0 271 140.5 429.5t377.5 158.5q238 0 378.5 -158.5t140.5 -429.5t-140.5 -429.5t-378.5 -158.5q-237 0 -377.5 158.5t-140.5 429.5zM301 1368v188h631v-188h-631zM391 559q0 -165 60 -257.5t165 -92.5q106 0 166 92.5t60 257.5t-60 257.5t-166 92.5 q-105 0 -165 -92.5t-60 -257.5zM434 -239q0 53 27.5 107.5t83.5 115.5h141q-53 -71 -71.5 -106t-18.5 -60q0 -39 30.5 -63.5t80.5 -24.5q38 0 76.5 7.5t78.5 23.5v-156q-54 -11 -101.5 -16.5t-88.5 -5.5q-114 0 -176 46t-62 132z" />
<glyph unicode="&#x1ee;" d="M10 439h318q0 -107 97 -164q69 -41 167 -41q235 0 276 146q8 28 8 59q0 179 -224 203q-34 4 -73 4h-255v218l372 369h-566v260h1010v-244l-401 -401q145 -9 223 -32q107 -31 180 -131q81 -110 81 -260q0 -281 -241 -390q-141 -63 -359 -63q-338 0 -469 116 q-144 128 -144 351zM240 1899h178l198 -162l199 162h178l-223 -264h-309z" />
<glyph unicode="&#x1ef;" d="M110 -69q97 -54 193 -81q96 -28 189 -28q138 0 211 53t73 152q0 102 -75 155q-75 52 -222 52h-168v218l390 449h-566v219h895v-229l-391 -455q145 -9 223 -32q113 -33 190 -146q71 -102 71 -245q0 -222 -153 -337q-153 -116 -447 -116q-103 0 -207 18q-104 19 -206 56 v297zM240 1638h178l198 -227l199 227h178l-256 -376h-241z" />
<glyph unicode="&#x1f0;" d="M143 -199h234q98 0 139 55t41 187v852h-297v225h590v-1077q0 -252 -90.5 -359.5t-300.5 -107.5h-316v225zM257 1643h178l198 -227l199 227h178l-256 -376h-241z" />
<glyph unicode="&#x1f4;" d="M117 745q0 377 159.5 576t460.5 199q90 0 177 -25.5t163 -73.5v-327q-62 80 -142.5 120.5t-176.5 40.5q-168 0 -251 -126.5t-83 -383.5q0 -249 80 -379t233 -130q46 0 80 8.5t55 25.5v285h-202v248h460v-684q-85 -73 -187.5 -110.5t-219.5 -37.5q-290 0 -448 201.5 t-158 572.5zM590 1635l199 264h284l-286 -264h-197z" />
<glyph unicode="&#x1f5;" d="M98 571q0 266 113 422t303 156q96 0 171 -45t118 -127v143h293v-1036q0 -269 -121.5 -388.5t-394.5 -119.5q-92 0 -182 13.5t-183 41.5v269q83 -46 169 -68t177 -22q124 0 183 58.5t59 182.5v121q-43 -80 -114 -119t-173 -39q-192 0 -305 150t-113 407zM391 578 q0 -152 56.5 -242t148.5 -90q93 0 150 90.5t57 241.5q0 150 -57 240.5t-150 90.5q-92 0 -148.5 -90t-56.5 -241zM449 1262l283 376h282l-368 -376h-197z" />
<glyph unicode="&#x1f6;" d="M25 0v1493h251v-569h222v569h251v-942v-74q0 -152 17 -189q23 -50 79 -50q69 0 91 58q21 56 21 181v447h251v-373q0 -304 -103 -442t-260 -138q-141 0 -244 138t-103 442v113h-222v-664h-251z" />
<glyph unicode="&#x1f8;" d="M119 0v1493h317l416 -1085v1085h260v-1493h-315l-418 1085v-1085h-260zM283 1899h284l199 -264h-197z" />
<glyph unicode="&#x1f9;" d="M172 0v1120h291v-168q31 93 106 144t181 51q159 0 240 -105.5t81 -314.5v-727h-291v682q0 122 -34.5 174.5t-112.5 52.5q-79 0 -124.5 -71t-45.5 -197v-641h-291zM195 1640h282l283 -376h-197z" />
<glyph unicode="&#x1fc;" d="M0 0l358 1493h803v-260h-291v-311h260v-260h-260v-402h310v-260h-564v362h-282l-86 -362h-248zM389 598h227v635h-79zM689 1635l199 264h284l-286 -264h-197z" />
<glyph unicode="&#x1fd;" d="M14 326q0 185 101 276.5t305 91.5h76v51q0 93 -39 140t-115 47q-57 0 -124.5 -27.5t-141.5 -81.5v246q74 39 144 58.5t134 19.5q98 0 160.5 -31t97.5 -96q29 61 94.5 94t157.5 33q177 0 250.5 -119t73.5 -422v-127h-451q0 -144 50 -219.5t145 -75.5q60 0 120 29.5 t119 87.5v-244q-50 -44 -112.5 -65t-145.5 -21q-103 0 -178 42t-117 122q-41 -84 -106.5 -124t-163.5 -40q-160 0 -247 92.5t-87 262.5zM240 330q0 -71 32 -108.5t93 -37.5q63 0 93.5 43t30.5 131v43v82h-73q-87 0 -131.5 -39t-44.5 -114zM469 1262l283 376h282l-368 -376 h-197zM737 690h226v23q0 125 -25 172t-88 47t-88 -47t-25 -172v-23z" />
<glyph unicode="&#x1fe;" d="M-6 51l168 238q-35 88 -52.5 201.5t-17.5 254.5q0 383 132.5 579t391.5 196q103 0 186 -31t144 -92l113 162l162 -115l-158 -223q39 -94 58.5 -213.5t19.5 -262.5q0 -382 -132.5 -578t-392.5 -196q-106 0 -191 33.5t-149 99.5l-120 -167zM399 629l373 524 q-26 51 -65 76.5t-91 25.5q-112 0 -164.5 -120t-52.5 -379v-127zM451 354q24 -57 66.5 -87.5t98.5 -30.5q114 0 166 120.5t52 388.5q0 28 -1 59t-4 84zM469 1635l199 264h284l-286 -264h-197z" />
<glyph unicode="&#x1ff;" d="M25 2l163 197q-45 73 -67.5 162t-22.5 198q0 271 140.5 429.5t377.5 158.5q85 0 158.5 -21.5t140.5 -66.5l148 176l139 -121l-160 -188q46 -76 69.5 -168t23.5 -199q0 -271 -140.5 -429.5t-378.5 -158.5q-83 0 -158.5 22.5t-142.5 67.5l-151 -178zM391 559q0 -34 2 -60 t6 -50l346 411q-26 25 -57 37t-70 12q-106 0 -166.5 -92.5t-60.5 -257.5zM471 1263l283 376h282l-368 -376h-197zM483 262q31 -27 64 -40t71 -13q104 0 164 93.5t60 256.5q0 29 -2.5 58t-8.5 58z" />
<glyph unicode="&#x200;" d="M33 0l403 1493h361l403 -1493h-295l-92 369h-395l-90 -369h-295zM111 1899h284l199 -264h-197zM477 612h279l-140 611zM486 1899h284l199 -264h-197z" />
<glyph unicode="&#x201;" d="M94 354q0 196 127 289.5t393 93.5h203v49q0 71 -51.5 107.5t-151.5 36.5q-105 0 -203.5 -26.5t-205.5 -84.5v250q97 40 197 59t212 19q273 0 383.5 -111t110.5 -397v-639h-291v125q-53 -74 -136 -114t-183 -40q-191 0 -297.5 101t-106.5 282zM142 1638h231l215 -376h-174 zM406 340q0 -76 45 -121t122 -45q116 0 180 87.5t64 244.5v20h-117q-164 0 -229 -42t-65 -144zM519 1638h217l194 -376h-163z" />
<glyph unicode="&#x202;" d="M33 0l403 1493h361l403 -1493h-295l-92 369h-395l-90 -369h-295zM281 1635h141q20 60 69 90.5t125 30.5q77 0 125 -30t68 -91h143q-15 129 -101.5 196.5t-234.5 67.5q-147 0 -233.5 -67.5t-101.5 -196.5zM477 612h279l-140 611z" />
<glyph unicode="&#x203;" d="M94 354q0 196 127 289.5t393 93.5h203v49q0 71 -51.5 107.5t-151.5 36.5q-105 0 -203.5 -26.5t-205.5 -84.5v250q97 40 197 59t212 19q273 0 383.5 -111t110.5 -397v-639h-291v125q-53 -74 -136 -114t-183 -40q-191 0 -297.5 101t-106.5 282zM281 1309q6 144 92.5 220.5 t242.5 76.5q157 0 243.5 -76.5t92.5 -220.5h-143q-11 70 -60.5 107t-132.5 37t-133 -37.5t-61 -106.5h-141zM406 340q0 -76 45 -121t122 -45q116 0 180 87.5t64 244.5v20h-117q-164 0 -229 -42t-65 -144z" />
<glyph unicode="&#x204;" d="M111 1899h284l199 -264h-197zM168 0v1493h930v-260h-635v-322h575v-260h-575v-391h635v-260h-930zM486 1899h284l199 -264h-197z" />
<glyph unicode="&#x205;" d="M92 555q0 274 143 433t390 159q249 0 386.5 -147.5t137.5 -415.5v-119h-759q1 -132 78 -197t230 -65q101 0 199 29t205 92v-269q-102 -42 -208 -63t-224 -21q-281 0 -429.5 150.5t-148.5 433.5zM181 1638h231l215 -376h-174zM393 684l461 1q-2 116 -59.5 175.5 t-169.5 59.5q-101 0 -161 -61.5t-71 -174.5zM558 1638h217l194 -376h-163z" />
<glyph unicode="&#x206;" d="M168 0v1493h930v-260h-635v-322h575v-260h-575v-391h635v-260h-930zM281 1635h141q20 60 69 90.5t125 30.5q77 0 125 -30t68 -91h143q-15 129 -101.5 196.5t-234.5 67.5q-147 0 -233.5 -67.5t-101.5 -196.5z" />
<glyph unicode="&#x207;" d="M92 555q0 274 143 433t390 159q249 0 386.5 -147.5t137.5 -415.5v-119h-759q1 -132 78 -197t230 -65q101 0 199 29t205 92v-269q-102 -42 -208 -63t-224 -21q-281 0 -429.5 150.5t-148.5 433.5zM320 1309q6 144 92.5 220.5t242.5 76.5q157 0 243.5 -76.5t92.5 -220.5 h-143q-11 70 -60.5 107t-132.5 37t-133 -37.5t-61 -106.5h-141zM393 684l461 1q-2 116 -59.5 175.5t-169.5 59.5q-101 0 -161 -61.5t-71 -174.5z" />
<glyph unicode="&#x208;" d="M111 1899h284l199 -264h-197zM172 0v260h297v973h-297v260h889v-260h-297v-973h297v-260h-889zM486 1899h284l199 -264h-197z" />
<glyph unicode="&#x209;" d="M142 1638h231l215 -376h-174zM143 0v225h365v670h-287v225h580v-895h364v-225h-1022zM519 1638h217l194 -376h-163z" />
<glyph unicode="&#x20a;" d="M172 0v260h297v973h-297v260h889v-260h-297v-973h297v-260h-889zM281 1635h141q20 60 69 90.5t125 30.5q77 0 125 -30t68 -91h143q-15 129 -101.5 196.5t-234.5 67.5q-147 0 -233.5 -67.5t-101.5 -196.5z" />
<glyph unicode="&#x20b;" d="M143 0v225h365v670h-287v225h580v-895h364v-225h-1022zM281 1309q6 144 92.5 220.5t242.5 76.5q157 0 243.5 -76.5t92.5 -220.5h-143q-11 70 -60.5 107t-132.5 37t-133 -37.5t-61 -106.5h-141z" />
<glyph unicode="&#x20c;" d="M92 745q0 383 132.5 579t391.5 196q260 0 392.5 -196t132.5 -579q0 -382 -132.5 -578t-392.5 -196q-259 0 -391.5 196t-132.5 578zM111 1899h284l199 -264h-197zM399 745q0 -268 52 -388.5t165 -120.5q114 0 166 120.5t52 388.5q0 269 -52 389.5t-166 120.5 q-113 0 -165 -120.5t-52 -389.5zM486 1899h284l199 -264h-197z" />
<glyph unicode="&#x20d;" d="M98 559q0 271 140.5 429.5t377.5 158.5q238 0 378.5 -158.5t140.5 -429.5t-140.5 -429.5t-378.5 -158.5q-237 0 -377.5 158.5t-140.5 429.5zM142 1638h231l215 -376h-174zM391 559q0 -165 60 -257.5t165 -92.5q106 0 166 92.5t60 257.5t-60 257.5t-166 92.5 q-105 0 -165 -92.5t-60 -257.5zM519 1638h217l194 -376h-163z" />
<glyph unicode="&#x20e;" d="M92 745q0 383 132.5 579t391.5 196q260 0 392.5 -196t132.5 -579q0 -382 -132.5 -578t-392.5 -196q-259 0 -391.5 196t-132.5 578zM281 1635h141q20 60 69 90.5t125 30.5q77 0 125 -30t68 -91h143q-15 129 -101.5 196.5t-234.5 67.5q-147 0 -233.5 -67.5t-101.5 -196.5z M399 745q0 -268 52 -388.5t165 -120.5q114 0 166 120.5t52 388.5q0 269 -52 389.5t-166 120.5q-113 0 -165 -120.5t-52 -389.5z" />
<glyph unicode="&#x20f;" d="M98 559q0 271 140.5 429.5t377.5 158.5q238 0 378.5 -158.5t140.5 -429.5t-140.5 -429.5t-378.5 -158.5q-237 0 -377.5 158.5t-140.5 429.5zM281 1309q6 144 92.5 220.5t242.5 76.5q157 0 243.5 -76.5t92.5 -220.5h-143q-11 70 -60.5 107t-132.5 37t-133 -37.5 t-61 -106.5h-141zM391 559q0 -165 60 -257.5t165 -92.5q106 0 166 92.5t60 257.5t-60 257.5t-166 92.5q-105 0 -165 -92.5t-60 -257.5z" />
<glyph unicode="&#x210;" d="M61 1899h284l199 -264h-197zM133 0v1493h426q288 0 413.5 -102t125.5 -332q0 -154 -75 -245t-216 -109q44 -9 76.5 -41.5t79.5 -126.5l270 -537h-324l-180 377q-8 16 -21 44q-79 169 -186 169h-94v-590h-295zM428 838h139q121 0 173.5 47.5t52.5 156.5t-52 156t-174 47 h-139v-407zM436 1899h284l199 -264h-197z" />
<glyph unicode="&#x211;" d="M242 1638h231l215 -376h-174zM291 0v1120h293v-174q43 96 132 148.5t208 52.5q60 0 117.5 -14.5t109.5 -42.5v-279q-48 44 -112.5 66t-141.5 22q-93 0 -162.5 -32.5t-107.5 -94.5q-24 -38 -33.5 -92t-9.5 -164v-516h-293zM619 1638h217l194 -376h-163z" />
<glyph unicode="&#x212;" d="M133 0v1493h426q288 0 413.5 -102t125.5 -332q0 -154 -75 -245t-216 -109q44 -9 76.5 -41.5t79.5 -126.5l270 -537h-324l-180 377q-8 16 -21 44q-79 169 -186 169h-94v-590h-295zM231 1635h141q20 60 69 90.5t125 30.5q77 0 125 -30t68 -91h143q-15 129 -101.5 196.5 t-234.5 67.5q-147 0 -233.5 -67.5t-101.5 -196.5zM428 838h139q121 0 173.5 47.5t52.5 156.5t-52 156t-174 47h-139v-407z" />
<glyph unicode="&#x213;" d="M291 0v1120h293v-174q43 96 132 148.5t208 52.5q60 0 117.5 -14.5t109.5 -42.5v-279q-48 44 -112.5 66t-141.5 22q-93 0 -162.5 -32.5t-107.5 -94.5q-24 -38 -33.5 -92t-9.5 -164v-516h-293zM381 1309q6 144 92.5 220.5t242.5 76.5q157 0 243.5 -76.5t92.5 -220.5h-143 q-11 70 -60.5 107t-132.5 37t-133 -37.5t-61 -106.5h-141z" />
<glyph unicode="&#x214;" d="M106 551v942h295v-1016q0 -112 57 -175.5t158 -63.5t158 63.5t57 175.5v1016h295v-942q0 -304 -121 -442t-389 -138q-267 0 -388.5 138t-121.5 442zM111 1899h284l199 -264h-197zM486 1899h284l199 -264h-197z" />
<glyph unicode="&#x215;" d="M142 1638h231l215 -376h-174zM160 391v729h293v-684q0 -121 34 -173t113 -52t123.5 70t44.5 196v643h293v-1120h-293v166q-31 -93 -105.5 -144t-179.5 -51q-160 0 -241.5 106t-81.5 314zM519 1638h217l194 -376h-163z" />
<glyph unicode="&#x216;" d="M106 551v942h295v-1016q0 -112 57 -175.5t158 -63.5t158 63.5t57 175.5v1016h295v-942q0 -304 -121 -442t-389 -138q-267 0 -388.5 138t-121.5 442zM281 1635h141q20 60 69 90.5t125 30.5q77 0 125 -30t68 -91h143q-15 129 -101.5 196.5t-234.5 67.5q-147 0 -233.5 -67.5 t-101.5 -196.5z" />
<glyph unicode="&#x217;" d="M160 391v729h293v-684q0 -121 34 -173t113 -52t123.5 70t44.5 196v643h293v-1120h-293v166q-31 -93 -105.5 -144t-179.5 -51q-160 0 -241.5 106t-81.5 314zM281 1309q6 144 92.5 220.5t242.5 76.5q157 0 243.5 -76.5t92.5 -220.5h-143q-11 70 -60.5 107t-132.5 37 t-133 -37.5t-61 -106.5h-141z" />
<glyph unicode="&#x218;" d="M129 1085q0 203 130 319t357 116q103 0 206 -23.5t204 -69.5v-288q-95 67 -193 102t-194 35q-107 0 -164 -43t-57 -123q0 -62 41.5 -102.5t173.5 -89.5l127 -48q180 -66 265 -175t85 -275q0 -226 -133.5 -337.5t-403.5 -111.5q-111 0 -222.5 26.5t-215.5 78.5v305 q118 -84 228.5 -125t218.5 -41q109 0 169 49.5t60 138.5q0 67 -40 117.5t-116 79.5l-145 55q-223 85 -302 178.5t-79 251.5zM372 -504l89 306h282l-177 -306h-194z" />
<glyph unicode="&#x219;" d="M172 805q0 162 117 252t329 90q95 0 189.5 -15.5t183.5 -46.5v-256q-81 52 -168.5 78.5t-175.5 26.5q-98 0 -148 -28.5t-50 -84.5q0 -80 214 -130l11 -3l84 -20q160 -38 234.5 -122.5t74.5 -228.5q0 -173 -113.5 -259.5t-341.5 -86.5q-101 0 -207 17.5t-215 52.5v256 q97 -55 197.5 -84t194.5 -29q103 0 156 30t53 87q0 56 -37.5 86t-178.5 64l-81 18q-168 38 -245 119t-77 217zM372 -504l89 306h282l-177 -306h-194z" />
<glyph unicode="&#x21a;" d="M90 1235v258h1053v-258h-379v-1235h-295v1235h-379zM372 -504l89 306h282l-177 -306h-194z" />
<glyph unicode="&#x21b;" d="M111 895v225h286v318h293v-318h383v-225h-383v-530q0 -75 36.5 -107.5t121.5 -32.5h225v-225h-246q-252 0 -341 80.5t-89 298.5v516h-286zM475 -504l89 306h282l-177 -306h-194z" />
<glyph unicode="&#x21c;" d="M54 -147q24 5 62 15t110 33t141.5 49.5t146.5 65.5t133.5 80.5t94 95t37.5 108.5q0 64 -35 110.5t-82.5 67t-98.5 20.5q-56 0 -120 -25l-216 -85v254l234 95q81 33 140 72.5t88.5 72.5t46 72t19.5 61.5t3 50.5q0 54 -25 93.5t-65.5 59t-80.5 28.5t-80 9q-155 0 -389 -156 v256q240 164 475 164q118 0 215 -28t158 -72t102.5 -100.5t58.5 -109.5t17 -102q0 -287 -283 -434q149 -36 233.5 -139t84.5 -224q0 -104 -44 -191t-128 -160t-223.5 -140.5t-314 -126.5t-415.5 -123v283z" />
<glyph unicode="&#x21d;" d="M110 -204q22 5 56.5 13t100 26.5t127.5 40t131 53t120 65.5t84.5 77t33.5 88q0 74 -60 117t-135 43q-52 0 -108 -20l-194 -69v206l211 77q75 27 128 60t79.5 59.5t41 58.5t16.5 48.5t2 39.5q0 44 -23 76t-59.5 48t-72 23t-71.5 7q-139 0 -350 -126v207q205 133 452 133 q103 0 185.5 -21t134.5 -54.5t87 -78.5t49.5 -91t14.5 -94q0 -113 -73 -204t-181 -143q85 -22 145 -58.5t88.5 -79.5t40.5 -80.5t12 -75.5q0 -408 -1013 -600v229z" />
<glyph unicode="&#x21e;" d="M137 0v1493h295v-569h369v569h295v-1493h-295v664h-369v-664h-295zM240 1899h178l198 -162l199 162h178l-223 -264h-309z" />
<glyph unicode="&#x21f;" d="M172 0v1556h291v-604q31 93 106 144t181 51q159 0 240 -105.5t81 -314.5v-727h-291v682q0 121 -34.5 173t-112.5 52q-80 0 -125 -70.5t-45 -195.5v-641h-291zM240 1899h178l198 -162l199 162h178l-223 -264h-309z" />
<glyph unicode="&#x220;" d="M106 0v1493h295v-240q37 128 126.5 198.5t215.5 70.5q189 0 285.5 -145.5t96.5 -434.5v-1368h-294v1441q0 129 -47 184.5t-153 55.5q-109 0 -168 -75q-62 -78 -62 -208v-972h-295z" />
<glyph unicode="&#x221;" d="M8 559q0 284 107.5 436t288.5 152q60 0 108 -47q29 -27 54 -72v528h292v-1202q88 234 212 234q154 0 155 -240q2 -377 -243 -377q-117 0 -120 10l-43 -121h-143q31 97 54 168q-68 28 -129 149q-30 -108 -66 -144q-62 -62 -138 -62q-177 0 -283 154t-106 434zM301 557 q0 -162 34 -254t94 -92t94.5 92t34.5 254t-34.5 254t-94.5 92t-94 -92t-34 -254zM958 216q4 -6 49 -5q104 0 104 66.5t-42 66.5q-52 0 -111 -128z" />
<glyph unicode="&#x224;" d="M115 0v244l671 989h-649v260h1010v-244l-692 -989h706v-260h-1q-7 -216 -90 -316q-90 -108 -300 -108h-121v225h39q98 0 141 55q34 44 40 144h-754z" />
<glyph unicode="&#x225;" d="M162 0v229l590 672h-566v219h895v-229l-589 -672h589v-219h-1q-7 -216 -90 -316q-90 -108 -300 -108h-121v225h39q98 0 141 55q34 44 40 144h-627z" />
<glyph unicode="&#x226;" d="M33 0l403 1493h361l403 -1493h-295l-92 369h-395l-90 -369h-295zM477 612h279l-140 611zM479 1653v246h275v-246h-275z" />
<glyph unicode="&#x227;" d="M94 354q0 196 127 289.5t393 93.5h203v49q0 71 -51.5 107.5t-151.5 36.5q-105 0 -203.5 -26.5t-205.5 -84.5v250q97 40 197 59t212 19q273 0 383.5 -111t110.5 -397v-639h-291v125q-53 -74 -136 -114t-183 -40q-191 0 -297.5 101t-106.5 282zM406 340q0 -76 45 -121 t122 -45q116 0 180 87.5t64 244.5v20h-117q-164 0 -229 -42t-65 -144zM479 1339v246h275v-246h-275z" />
<glyph unicode="&#x228;" d="M168 0v1493h930v-260h-635v-322h575v-260h-575v-391h635v-260h-930zM417 -219q45 -17 87 -26t78 -9q58 0 90.5 23t32.5 63q0 26 -21 67t-67 101h140q57 -62 84.5 -115t27.5 -100q0 -95 -61.5 -140.5t-188.5 -45.5q-48 0 -98.5 6.5t-103.5 19.5v156z" />
<glyph unicode="&#x229;" d="M92 555q0 274 143 433t390 159q249 0 386.5 -147.5t137.5 -415.5v-119h-759q1 -132 78 -197t230 -65q101 0 199 29t205 92v-269q-102 -42 -208 -63t-224 -21q-281 0 -429.5 150.5t-148.5 433.5zM393 684l461 1q-2 116 -59.5 175.5t-169.5 59.5q-101 0 -161 -61.5 t-71 -174.5zM417 -219q45 -17 87 -26t78 -9q58 0 90.5 23t32.5 63q0 26 -21 67t-67 101h140q57 -62 84.5 -115t27.5 -100q0 -95 -61.5 -140.5t-188.5 -45.5q-48 0 -98.5 6.5t-103.5 19.5v156z" />
<glyph unicode="&#x22a;" d="M92 745q0 383 132.5 579t391.5 196q260 0 392.5 -196t132.5 -579q0 -382 -132.5 -578t-392.5 -196q-259 0 -391.5 196t-132.5 578zM301 1557v246h236v-246h-236zM301 1829v188h631v-188h-631zM399 745q0 -268 52 -388.5t165 -120.5q114 0 166 120.5t52 388.5 q0 269 -52 389.5t-166 120.5q-113 0 -165 -120.5t-52 -389.5zM696 1557v246h236v-246h-236z" />
<glyph unicode="&#x22b;" d="M98 559q0 271 140.5 429.5t377.5 158.5q238 0 378.5 -158.5t140.5 -429.5t-140.5 -429.5t-378.5 -158.5q-237 0 -377.5 158.5t-140.5 429.5zM301 1315v246h236v-246h-236zM301 1683v188h631v-188h-631zM391 559q0 -165 60 -257.5t165 -92.5q106 0 166 92.5t60 257.5 t-60 257.5t-166 92.5q-105 0 -165 -92.5t-60 -257.5zM696 1315v246h236v-246h-236z" />
<glyph unicode="&#x22c;" d="M92 745q0 383 132.5 579t391.5 196q260 0 392.5 -196t132.5 -579q0 -382 -132.5 -578t-392.5 -196q-259 0 -391.5 196t-132.5 578zM268 1539v30q0 106 54.5 171t142.5 65q36 0 73.5 -12.5t75.5 -36.5l60 -39q21 -14 40.5 -21.5t35.5 -7.5q36 0 55.5 30t19.5 87h140 q0 -5 -1 -15t-1 -16q0 -106 -53.5 -170.5t-141.5 -64.5q-37 0 -72.5 11t-77.5 38l-54 34q-5 3 -12 7q-45 26 -73 26q-31 0 -51 -30t-20 -80v-6h-140zM301 1829v188h631v-188h-631zM399 745q0 -268 52 -388.5t165 -120.5q114 0 166 120.5t52 388.5q0 269 -52 389.5 t-166 120.5q-113 0 -165 -120.5t-52 -389.5z" />
<glyph unicode="&#x22d;" d="M98 559q0 271 140.5 429.5t377.5 158.5q238 0 378.5 -158.5t140.5 -429.5t-140.5 -429.5t-378.5 -158.5q-237 0 -377.5 158.5t-140.5 429.5zM268 1276q0 136 51.5 210t145.5 74q36 0 72 -13.5t77 -43.5l62 -43q21 -15 39.5 -23t34.5 -8q36 0 55.5 31.5t19.5 89.5v8h140 q0 -136 -51.5 -210t-145.5 -74q-36 0 -69 12t-81 45l-55 37l-12 8q-43 29 -70 29q-36 0 -54.5 -31t-18.5 -90v-8h-140zM301 1683v188h631v-188h-631zM391 559q0 -165 60 -257.5t165 -92.5q106 0 166 92.5t60 257.5t-60 257.5t-166 92.5q-105 0 -165 -92.5t-60 -257.5z" />
<glyph unicode="&#x22e;" d="M92 745q0 383 132.5 579t391.5 196q260 0 392.5 -196t132.5 -579q0 -382 -132.5 -578t-392.5 -196q-259 0 -391.5 196t-132.5 578zM399 745q0 -268 52 -388.5t165 -120.5q114 0 166 120.5t52 388.5q0 269 -52 389.5t-166 120.5q-113 0 -165 -120.5t-52 -389.5zM479 1653 v246h275v-246h-275z" />
<glyph unicode="&#x22f;" d="M98 559q0 271 140.5 429.5t377.5 158.5q238 0 378.5 -158.5t140.5 -429.5t-140.5 -429.5t-378.5 -158.5q-237 0 -377.5 158.5t-140.5 429.5zM391 559q0 -165 60 -257.5t165 -92.5q106 0 166 92.5t60 257.5t-60 257.5t-166 92.5q-105 0 -165 -92.5t-60 -257.5zM479 1339 v246h275v-246h-275z" />
<glyph unicode="&#x230;" d="M92 745q0 383 132.5 579t391.5 196q260 0 392.5 -196t132.5 -579q0 -382 -132.5 -578t-392.5 -196q-259 0 -391.5 196t-132.5 578zM301 1829v188h631v-188h-631zM399 745q0 -268 52 -388.5t165 -120.5q114 0 166 120.5t52 388.5q0 269 -52 389.5t-166 120.5 q-113 0 -165 -120.5t-52 -389.5zM479 1557v246h275v-246h-275z" />
</font>
</defs>
</svg>
