<?xml version="1.0" standalone="no"?>
<!DOCTYPE svg PUBLIC "-//W3C//DTD SVG 1.1//EN" "http://www.w3.org/Graphics/SVG/1.1/DTD/svg11.dtd" >
<svg xmlns="http://www.w3.org/2000/svg">
<metadata></metadata>
<defs>
<font id="dejavu_sans_monobook" horiz-adv-x="1233" >
<font-face units-per-em="2048" ascent="1556" descent="-492" />
<missing-glyph horiz-adv-x="500" />
<glyph unicode="&#xfedf;&#xfe82;" arabic-form="isolated" d="M-106 1509v125l160 123q103 -83 170 -104q42 -13 96 -13q58 0 100 16q107 41 194 117v-125q-90 -64 -180 -93q-66 -22 -120 -22q-34 0 -110 17t-144 87zM179 1410h179l426 -959q29 43 49 98q37 137 37 321v686h184v-722q0 -300 -139 -518q-55 -85 -132 -156 q-205 -180 -363 -180q-106 0 -181 32v184q96 -32 181 -32q113 0 249 152z" />
<glyph unicode="&#xfee0;&#xfe82;" arabic-form="final" d="M-192 1509v125l160 123q103 -83 170 -104q42 -13 96 -13q58 0 100 16q107 41 194 117v-125q-90 -64 -180 -93q-66 -22 -120 -22q-34 0 -110 17t-144 87zM95 1410h179l426 -959q29 43 49 98q37 137 37 321v686h184v-956q0 -174 34 -258q64 -158 144 -158h105v-184h-129 q-175 0 -277 243q-17 41 -16 73q-59 -91 -132 -156q-202 -180 -363 -180q-106 0 -181 32v184q96 -32 181 -32q113 0 249 152z" />
<glyph unicode="&#xfedf;&#xfe84;" arabic-form="isolated" d="M83 1515v100l78 18q-44 20 -60 56q-17 37 -16 82q2 95 56 139q56 46 150 45q61 -1 114 -33v-100q-51 33 -114 33q-66 0 -83 -18q-29 -32 -29 -58q0 -77 94 -104q33 -10 153 19v-102zM179 1410h179l426 -959q29 43 49 98q37 137 37 321v686h184v-722q0 -300 -139 -518 q-55 -85 -132 -156q-205 -180 -363 -180q-106 0 -181 32v184q96 -32 181 -32q113 0 249 152z" />
<glyph unicode="&#xfee0;&#xfe84;" arabic-form="final" d="M-32 1515v100l78 18q-44 20 -60 56q-17 37 -16 82q2 95 56 139q56 46 150 45q61 -1 114 -33v-100q-51 33 -114 33q-66 0 -83 -18q-29 -32 -29 -58q0 -77 94 -104q33 -10 153 19v-102zM95 1410h179l426 -959q29 43 49 98q37 137 37 321v686h184v-956q0 -174 34 -258 q64 -158 144 -158h105v-184h-129q-175 0 -277 243q-17 41 -16 73q-59 -91 -132 -156q-202 -180 -363 -180q-106 0 -181 32v184q96 -32 181 -32q113 0 249 152z" />
<glyph unicode="&#xfedf;&#xfe88;" arabic-form="isolated" d="M133 -400l78 18q-44 20 -60 56q-17 37 -16 82q2 95 56 139q56 46 150 45q61 -1 114 -33v-100q-51 33 -114 33q-66 0 -83 -18q-29 -32 -29 -58q0 -77 94 -104q33 -10 153 19v-102l-343 -77v100zM179 1410h179l426 -959q29 43 49 98q37 137 37 321v686h184v-722 q0 -300 -139 -518q-55 -85 -132 -156q-205 -180 -363 -180q-106 0 -181 32v184q96 -32 181 -32q113 0 249 152z" />
<glyph unicode="&#xfee0;&#xfe88;" arabic-form="final" d="M95 1410h179l426 -959q29 43 49 98q37 137 37 321v686h184v-956q0 -174 34 -258q64 -158 144 -158h105v-184h-129q-175 0 -277 243q-17 41 -16 73q-59 -91 -132 -156q-202 -180 -363 -180q-106 0 -181 32v184q96 -32 181 -32q113 0 249 152zM133 -400l78 18 q-44 20 -60 56q-17 37 -16 82q2 95 56 139q56 46 150 45q61 -1 114 -33v-100q-51 33 -114 33q-66 0 -83 -18q-29 -32 -29 -58q0 -77 94 -104q33 -10 153 19v-102l-343 -77v100z" />
<glyph unicode="&#xfedf;&#xfe8e;" arabic-form="isolated" d="M179 1410h179l426 -959q29 43 49 98q37 137 37 321v686h184v-722q0 -300 -139 -518q-55 -85 -132 -156q-205 -180 -363 -180q-106 0 -181 32v184q96 -32 181 -32q113 0 249 152z" />
<glyph unicode="&#xfee0;&#xfe8e;" arabic-form="final" d="M95 1410h179l426 -959q29 43 49 98q37 137 37 321v686h184v-956q0 -174 34 -258q64 -158 144 -158h105v-184h-129q-175 0 -277 243q-17 41 -16 73q-59 -91 -132 -156q-202 -180 -363 -180q-106 0 -181 32v184q96 -32 181 -32q113 0 249 152z" />
<glyph unicode="&#x67b;" arabic-form="isolated" d="M69 320q0 62 41 186h184q-43 -138 -43 -186q0 -108 117 -138q98 -25 230 -25q188 0 294 65q123 76 123 182q0 64 -25 135h184q26 -71 26 -203q0 -123 -166 -244q-152 -111 -431 -112q-223 -1 -377 56q-157 59 -157 284zM542 -100h150v-150h-150v150zM542 -350h150v-150 h-150v150z" />
<glyph unicode="&#x67b;" arabic-form="final" d="M69 320q0 62 41 186h184q-43 -138 -43 -186q0 -108 117 -138q98 -25 225 -25q69 0 199 55q87 37 132 90q55 65 55 121q0 62 -29 117h184q19 -75 19 -165q0 -100 24 -151q19 -40 43 -40h33v-184h-75q-52 0 -99 44q-43 42 -63 121q-88 -81 -184 -128q-116 -57 -289 -57 q-186 0 -317 56q-157 65 -157 284zM508 -100h150v-150h-150v150zM508 -350h150v-150h-150v150z" />
<glyph unicode="&#x67b;" arabic-form="initial" d="M-20 0v184h158q285 0 329 44q49 49 49 155v217h184v-217q0 -187 -92 -297q-72 -86 -415 -86h-213zM524 -100h150v-150h-150v150zM524 -350h150v-150h-150v150z" />
<glyph unicode="&#x67b;" arabic-form="medial" d="M-20 0v184h280q162 0 206 44q48 49 48 155v217h184v-217q0 -106 50 -155q44 -44 207 -44h298v-184h-353q-214 0 -294 86q-76 -86 -291 -86h-335zM524 -100h150v-150h-150v150zM524 -350h150v-150h-150v150z" />
<glyph unicode="&#x67e;" arabic-form="isolated" d="M69 320q0 62 41 186h184q-43 -138 -43 -186q0 -108 117 -138q98 -25 230 -25q188 0 294 65q123 76 123 182q0 64 -25 135h184q26 -71 26 -203q0 -123 -166 -244q-152 -111 -431 -112q-223 -1 -377 56q-157 59 -157 284zM445 -100h150v-150h-150v150zM570 -350h150v-150 h-150v150zM695 -100h150v-150h-150v150z" />
<glyph unicode="&#x67e;" arabic-form="final" d="M69 320q0 62 41 186h184q-43 -138 -43 -186q0 -108 117 -138q98 -25 225 -25q69 0 199 55q87 37 132 90q55 65 55 121q0 62 -29 117h184q19 -75 19 -165q0 -100 24 -151q19 -40 43 -40h33v-184h-75q-52 0 -99 44q-43 42 -63 121q-88 -81 -184 -128q-116 -57 -289 -57 q-186 0 -317 56q-157 65 -157 284zM376 -100h150v-150h-150v150zM501 -350h150v-150h-150v150zM626 -100h150v-150h-150v150z" />
<glyph unicode="&#x67e;" arabic-form="initial" d="M-20 0v184h158q285 0 329 44q49 49 49 155v217h184v-217q0 -187 -92 -297q-72 -86 -415 -86h-213zM396 -100h150v-150h-150v150zM521 -350h150v-150h-150v150zM646 -100h150v-150h-150v150z" />
<glyph unicode="&#x67e;" arabic-form="medial" d="M-20 0v184h280q162 0 206 44q48 49 48 155v217h184v-217q0 -106 50 -155q44 -44 207 -44h298v-184h-353q-214 0 -294 86q-76 -86 -291 -86h-335zM396 -100h150v-150h-150v150zM521 -350h150v-150h-150v150zM646 -100h150v-150h-150v150z" />
<glyph unicode="&#x680;" arabic-form="isolated" d="M69 320q0 62 41 186h184q-43 -138 -43 -186q0 -108 117 -138q98 -25 230 -25q188 0 294 65q123 76 123 182q0 64 -25 135h184q26 -71 26 -203q0 -123 -166 -244q-152 -111 -431 -112q-223 -1 -377 56q-157 59 -157 284zM403 -100h150v-150h-150v150zM403 -350h150v-150 h-150v150zM653 -100h150v-150h-150v150zM653 -350h150v-150h-150v150z" />
<glyph unicode="&#x680;" arabic-form="final" d="M69 320q0 62 41 186h184q-43 -138 -43 -186q0 -108 117 -138q98 -25 225 -25q69 0 199 55q87 37 132 90q55 65 55 121q0 62 -29 117h184q19 -75 19 -165q0 -100 24 -151q19 -40 43 -40h33v-184h-75q-52 0 -99 44q-43 42 -63 121q-88 -81 -184 -128q-116 -57 -289 -57 q-186 0 -317 56q-157 65 -157 284zM370 -100h150v-150h-150v150zM370 -350h150v-150h-150v150zM620 -100h150v-150h-150v150zM620 -350h150v-150h-150v150z" />
<glyph unicode="&#x680;" arabic-form="initial" d="M-20 0v184h158q285 0 329 44q49 49 49 155v217h184v-217q0 -187 -92 -297q-72 -86 -415 -86h-213zM378 -100h150v-150h-150v150zM378 -350h150v-150h-150v150zM628 -100h150v-150h-150v150zM628 -350h150v-150h-150v150z" />
<glyph unicode="&#x680;" arabic-form="medial" d="M-20 0v184h280q162 0 206 44q48 49 48 155v217h184v-217q0 -106 50 -155q44 -44 207 -44h298v-184h-353q-214 0 -294 86q-76 -86 -291 -86h-335zM408 -100h150v-150h-150v150zM408 -350h150v-150h-150v150zM658 -100h150v-150h-150v150zM658 -350h150v-150h-150v150z" />
<glyph unicode="&#x67a;" arabic-form="isolated" d="M69 320q0 62 41 186h184q-43 -138 -43 -186q0 -108 117 -138q98 -25 230 -25q188 0 294 65q123 76 123 182q0 64 -25 135h184q26 -71 26 -203q0 -123 -166 -244q-152 -111 -431 -112q-223 -1 -377 56q-157 59 -157 284zM567 557v150h150v-150h-150zM567 807v150h150v-150 h-150z" />
<glyph unicode="&#x67a;" arabic-form="final" d="M69 320q0 62 41 186h184q-43 -138 -43 -186q0 -108 117 -138q98 -25 225 -25q69 0 199 55q87 37 132 90q55 65 55 121q0 62 -29 117h184q19 -75 19 -165q0 -100 24 -151q19 -40 43 -40h33v-184h-75q-52 0 -99 44q-43 42 -63 121q-88 -81 -184 -128q-116 -57 -289 -57 q-186 0 -317 56q-157 65 -157 284zM513 563v150h150v-150h-150zM513 813v150h150v-150h-150z" />
<glyph unicode="&#x67a;" arabic-form="initial" d="M-20 0v184h158q285 0 329 44q49 49 49 155v217h184v-217q0 -187 -92 -297q-72 -86 -415 -86h-213zM528 744v150h150v-150h-150zM528 994v150h150v-150h-150z" />
<glyph unicode="&#x67a;" arabic-form="medial" d="M-20 0v184h280q162 0 206 44q48 49 48 155v217h184v-217q0 -106 50 -155q44 -44 207 -44h298v-184h-353q-214 0 -294 86q-76 -86 -291 -86h-335zM527 733v150h150v-150h-150zM527 983v150h150v-150h-150z" />
<glyph unicode="&#x67f;" arabic-form="isolated" d="M69 320q0 62 41 186h184q-43 -138 -43 -186q0 -108 117 -138q98 -25 230 -25q188 0 294 65q123 76 123 182q0 64 -25 135h184q26 -71 26 -203q0 -123 -166 -244q-152 -111 -431 -112q-223 -1 -377 56q-157 59 -157 284zM403 650v150h150v-150h-150zM403 900v150h150v-150 h-150zM653 650v150h150v-150h-150zM653 900v150h150v-150h-150z" />
<glyph unicode="&#x67f;" arabic-form="final" d="M69 320q0 62 41 186h184q-43 -138 -43 -186q0 -108 117 -138q98 -25 225 -25q69 0 199 55q87 37 132 90q55 65 55 121q0 62 -29 117h184q19 -75 19 -165q0 -100 24 -151q19 -40 43 -40h33v-184h-75q-52 0 -99 44q-43 42 -63 121q-88 -81 -184 -128q-116 -57 -289 -57 q-186 0 -317 56q-157 65 -157 284zM385 650v150h150v-150h-150zM385 900v150h150v-150h-150zM635 650v150h150v-150h-150zM635 900v150h150v-150h-150z" />
<glyph unicode="&#x67f;" arabic-form="initial" d="M-20 0v184h158q285 0 329 44q49 49 49 155v217h184v-217q0 -187 -92 -297q-72 -86 -415 -86h-213zM399 745v150h150v-150h-150zM399 995v150h150v-150h-150zM649 745v150h150v-150h-150zM649 995v150h150v-150h-150z" />
<glyph unicode="&#x67f;" arabic-form="medial" d="M-20 0v184h280q162 0 206 44q48 49 48 155v217h184v-217q0 -106 50 -155q44 -44 207 -44h298v-184h-353q-214 0 -294 86q-76 -86 -291 -86h-335zM396 748v150h150v-150h-150zM396 998v150h150v-150h-150zM646 748v150h150v-150h-150zM646 998v150h150v-150h-150z" />
<glyph unicode="&#x679;" arabic-form="isolated" d="M69 320q0 62 41 186h184q-43 -138 -43 -186q0 -108 117 -138q98 -25 230 -25q188 0 294 65q123 76 123 182q0 64 -25 135h184q26 -71 26 -203q0 -123 -166 -244q-152 -111 -431 -112q-223 -1 -377 56q-157 59 -157 284zM432 611v101h81v399h102v-321q36 73 140 113 q63 24 133 -2q65 -25 65 -107q0 -91 -64 -141q-54 -42 -170 -42h-175h-112zM641 712h55q77 0 100 13q53 33 53 54q0 31 -30 47q-15 -4 -72 -26q-51 -20 -106 -88z" />
<glyph unicode="&#x679;" arabic-form="final" d="M69 320q0 62 41 186h184q-43 -138 -43 -186q0 -108 117 -138q98 -25 225 -25q69 0 199 55q87 37 132 90q55 65 55 121q0 62 -29 117h184q19 -75 19 -165q0 -100 24 -151q19 -40 43 -40h33v-184h-75q-52 0 -99 44q-43 42 -63 121q-88 -81 -184 -128q-116 -57 -289 -57 q-186 0 -317 56q-157 65 -157 284zM408 596v101h81v399h102v-321q36 73 140 113q63 24 133 -2q65 -25 65 -107q0 -91 -64 -141q-54 -42 -170 -42h-175h-112zM617 697h55q77 0 100 13q53 33 53 54q0 31 -30 47q-15 -4 -72 -26q-51 -20 -106 -88z" />
<glyph unicode="&#x679;" arabic-form="initial" d="M-20 0v184h158q285 0 329 44q49 49 49 155v217h184v-217q0 -187 -92 -297q-72 -86 -415 -86h-213zM431 769v101h81v399h102v-321q36 73 140 113q63 24 133 -2q65 -25 65 -107q0 -91 -64 -141q-54 -42 -170 -42h-175h-112zM640 870h55q77 0 100 13q53 33 53 54 q0 31 -30 47q-15 -4 -72 -26q-51 -20 -106 -88z" />
<glyph unicode="&#x679;" arabic-form="medial" d="M-20 0v184h280q162 0 206 44q48 49 48 155v217h184v-217q0 -106 50 -155q44 -44 207 -44h298v-184h-353q-214 0 -294 86q-76 -86 -291 -86h-335zM449 784v101h81v399h102v-321q36 73 140 113q63 24 133 -2q65 -25 65 -107q0 -91 -64 -141q-54 -42 -170 -42h-175h-112z M658 885h55q77 0 100 13q53 33 53 54q0 31 -30 47q-15 -4 -72 -26q-51 -20 -106 -88z" />
<glyph unicode="&#x6a4;" arabic-form="isolated" d="M-74 314q-2 138 34 230h184q-36 -94 -36 -230q0 -147 120 -192q90 -34 221 -34q127 0 211 22q188 50 236 78q65 40 103 144q-63 -76 -185 -76q-133 0 -208 68q-98 86 -98 216q0 44 8 96q23 148 173 216q78 36 154 36q90 0 156 -50q96 -72 142 -174q23 -51 23 -190 q0 -325 -100 -404q-105 -84 -272 -122q-178 -40 -343 -40q-163 0 -277 41q-244 88 -246 365zM628 994v150h150v-150h-150zM698 560q0 -82 55 -118q38 -26 82 -26q72 0 96 24q41 44 41 120q0 57 -66 110q-31 26 -75 24q-52 0 -92 -42t-41 -92zM753 1244v150h150v-150h-150z M878 994v150h150v-150h-150z" />
<glyph unicode="&#x6a4;" arabic-form="final" d="M-150 314q0 138 64 230h184q-66 -94 -66 -230q0 -125 170 -194q71 -29 202 -29q112 0 263 58q-34 27 -63 71q-82 124 -82 232q0 39 4 67q22 155 210 230q58 23 110 23q82 0 163 -50q139 -84 155 -233q4 -37 4 -67q0 -131 -80 -237q9 -1 16 -1h149v-184h-154 q-105 0 -216 36q-61 -33 -179 -69q-182 -56 -306 -58q-139 -2 -252 38q-294 103 -296 367zM644 886v150h150v-150h-150zM710 447q0 -43 41 -109q49 -78 132 -115q104 65 104 174q0 20 -5 47q-14 71 -66 110q-34 25 -74 25q-24 0 -46 -10q-61 -25 -80 -85q-6 -19 -6 -37z M769 1136v150h150v-150h-150zM894 886v150h150v-150h-150z" />
<glyph unicode="&#x6a4;" arabic-form="initial" d="M-20 0v184h241q84 0 235 23q79 12 139 105q31 48 46 98q-63 -55 -160 -57q-130 -2 -208 67q-98 87 -98 216q0 52 8 96q23 148 173 217q78 36 154 36q90 0 156 -50q96 -72 142 -174q23 -51 23 -191q0 -208 -78 -351q-74 -136 -198 -180q-109 -39 -254 -39h-321zM300 1150 v150h150v-150h-150zM365 656q0 -80 55 -118q40 -25 82 -25q72 0 96 24q41 43 41 120q0 59 -66 110q-31 25 -75 24q-52 -1 -92 -43q-40 -41 -41 -92zM425 1400v150h150v-150h-150zM550 1150v150h150v-150h-150z" />
<glyph unicode="&#x6a4;" arabic-form="medial" d="M-20 0v184h226q146 0 186 17q-30 40 -66 117q-20 46 -20 122q0 44 8 92q23 143 208 230q30 14 94 14t96 -14q183 -80 208 -230q8 -50 8 -92q0 -73 -22 -122q-28 -67 -64 -117q38 -17 186 -17h225v-184h-315q-136 0 -322 57q-184 -57 -320 -57h-316zM406 896v150h150v-150 h-150zM494 447q0 -43 24 -96q30 -68 98 -90q64 21 100 90q24 50 24 96q0 24 -10 50q-24 52 -80 85q-20 10 -34 10t-32 -10q-56 -32 -80 -85q-10 -21 -10 -50zM531 1146v150h150v-150h-150zM656 896v150h150v-150h-150z" />
<glyph unicode="&#x6a6;" arabic-form="isolated" d="M-74 314q-2 138 34 230h184q-36 -94 -36 -230q0 -147 120 -192q90 -34 221 -34q127 0 211 22q188 50 236 78q65 40 103 144q-63 -76 -185 -76q-133 0 -208 68q-98 86 -98 216q0 44 8 96q23 148 173 216q78 36 154 36q90 0 156 -50q96 -72 142 -174q23 -51 23 -190 q0 -325 -100 -404q-105 -84 -272 -122q-178 -40 -343 -40q-163 0 -277 41q-244 88 -246 365zM648 1006v150h150v-150h-150zM648 1256v150h150v-150h-150zM698 560q0 -82 55 -118q38 -26 82 -26q72 0 96 24q41 44 41 120q0 57 -66 110q-31 26 -75 24q-52 0 -92 -42t-41 -92z M898 1006v150h150v-150h-150zM898 1256v150h150v-150h-150z" />
<glyph unicode="&#x6a6;" arabic-form="final" d="M-150 314q0 138 64 230h184q-66 -94 -66 -230q0 -125 170 -194q71 -29 202 -29q112 0 263 58q-34 27 -63 71q-82 124 -82 232q0 39 4 67q22 155 210 230q58 23 110 23q82 0 163 -50q139 -84 155 -233q4 -37 4 -67q0 -131 -80 -237q9 -1 16 -1h149v-184h-154 q-105 0 -216 36q-61 -33 -179 -69q-182 -56 -306 -58q-139 -2 -252 38q-294 103 -296 367zM652 890v150h150v-150h-150zM652 1140v150h150v-150h-150zM710 447q0 -43 41 -109q49 -78 132 -115q104 65 104 174q0 20 -5 47q-14 71 -66 110q-34 25 -74 25q-24 0 -46 -10 q-61 -25 -80 -85q-6 -19 -6 -37zM902 890v150h150v-150h-150zM902 1140v150h150v-150h-150z" />
<glyph unicode="&#x6a6;" arabic-form="initial" d="M-20 0v184h241q84 0 235 23q79 12 139 105q31 48 46 98q-63 -55 -160 -57q-130 -2 -208 67q-98 87 -98 216q0 52 8 96q23 148 173 217q78 36 154 36q90 0 156 -50q96 -72 142 -174q23 -51 23 -191q0 -208 -78 -351q-74 -136 -198 -180q-109 -39 -254 -39h-321zM300 1150 v150h150v-150h-150zM300 1400v150h150v-150h-150zM365 656q0 -80 55 -118q40 -25 82 -25q72 0 96 24q41 43 41 120q0 59 -66 110q-31 25 -75 24q-52 -1 -92 -43q-40 -41 -41 -92zM550 1150v150h150v-150h-150zM550 1400v150h150v-150h-150z" />
<glyph unicode="&#x6a6;" arabic-form="medial" d="M-20 0v184h226q146 0 186 17q-30 40 -66 117q-20 46 -20 122q0 44 8 92q23 143 208 230q30 14 94 14t96 -14q183 -80 208 -230q8 -50 8 -92q0 -73 -22 -122q-28 -67 -64 -117q38 -17 186 -17h225v-184h-315q-136 0 -322 57q-184 -57 -320 -57h-316zM410 912v150h150v-150 h-150zM410 1162v150h150v-150h-150zM494 447q0 -43 24 -96q30 -68 98 -90q64 21 100 90q24 50 24 96q0 24 -10 50q-24 52 -80 85q-20 10 -34 10t-32 -10q-56 -32 -80 -85q-10 -21 -10 -50zM660 912v150h150v-150h-150zM660 1162v150h150v-150h-150z" />
<glyph unicode="&#x684;" arabic-form="isolated" d="M88 623v184q276 64 471 63q292 -1 488 -54v-154q-294 13 -509 -167q-224 -188 -224 -435q0 -137 74 -231q129 -163 404 -164q193 0 405 118v-184q-150 -98 -400 -99q-364 -2 -533 194q-131 152 -131 374q0 258 212 481q96 101 233 153q-101 3 -260 -19q-135 -19 -230 -60 zM635 75h150v-150h-150v150zM635 175v150h150v-150h-150z" />
<glyph unicode="&#x684;" arabic-form="final" d="M88 623v184q276 64 471 63q292 -1 488 -54v-154q-109 -3 -140 -13l29 -91q51 -160 123 -255q90 -119 174 -119h40v-184h-49q-129 0 -252 150q-82 100 -143 256q-6 15 -79 193q-114 -24 -212 -104q-224 -183 -224 -435q0 -138 74 -231q129 -163 404 -164q193 0 405 118 v-184q-150 -98 -400 -99q-364 -2 -533 194q-131 152 -131 374q0 258 212 481q96 101 233 153q-101 3 -260 -19q-135 -19 -230 -60zM559 25h150v-150h-150v150zM559 125v150h150v-150h-150z" />
<glyph unicode="&#x684;" arabic-form="initial" d="M-20 0v184h100q227 0 356 72q104 58 220 164q94 86 195 121q-83 23 -186 46q-85 19 -265 35q-82 7 -243 1v184q72 7 147 8q162 0 334 -35q258 -52 478 -150v-154q-76 -24 -164 -76q-166 -98 -240 -164q-145 -129 -220 -156q-221 -80 -384 -80h-128zM353 -50h150v-150 h-150v150zM353 -300h150v-150h-150v150z" />
<glyph unicode="&#x684;" arabic-form="medial" d="M-20 0v184h100q227 0 356 72q104 58 220 164q94 86 195 121q-83 23 -186 46q-85 19 -265 35q-82 7 -243 1v184q72 7 147 8q162 0 334 -35q258 -52 478 -150v-154q-65 -20 -138 -61q50 -78 80 -112q104 -119 158 -119h60v-184h-80q-151 0 -275 168q-40 54 -99 151 q-69 -46 -110 -83q-145 -129 -220 -156q-221 -80 -384 -80h-128zM525 -50h150v-150h-150v150zM525 -300h150v-150h-150v150z" />
<glyph unicode="&#x683;" arabic-form="isolated" d="M88 623v184q276 64 471 63q292 -1 488 -54v-154q-294 13 -509 -167q-224 -188 -224 -435q0 -137 74 -231q129 -163 404 -164q193 0 405 118v-184q-150 -98 -400 -99q-364 -2 -533 194q-131 152 -131 374q0 258 212 481q96 101 233 153q-101 3 -260 -19q-135 -19 -230 -60 zM650 25v150h150v-150h-150zM900 25v150h150v-150h-150z" />
<glyph unicode="&#x683;" arabic-form="final" d="M88 623v184q276 64 471 63q292 -1 488 -54v-154q-109 -3 -140 -13l29 -91q51 -160 123 -255q90 -119 174 -119h40v-184h-49q-129 0 -252 150q-82 100 -143 256q-6 15 -79 193q-114 -24 -212 -104q-224 -183 -224 -435q0 -138 74 -231q129 -163 404 -164q193 0 405 118 v-184q-150 -98 -400 -99q-364 -2 -533 194q-131 152 -131 374q0 258 212 481q96 101 233 153q-101 3 -260 -19q-135 -19 -230 -60zM550 -25v150h150v-150h-150zM800 -25v150h150v-150h-150z" />
<glyph unicode="&#x683;" arabic-form="initial" d="M-20 0v184h100q227 0 356 72q104 58 220 164q94 86 195 121q-83 23 -186 46q-85 19 -265 35q-82 7 -243 1v184q72 7 147 8q162 0 334 -35q258 -52 478 -150v-154q-76 -24 -164 -76q-166 -98 -240 -164q-145 -129 -220 -156q-221 -80 -384 -80h-128zM188 -50h150v-150 h-150v150zM438 -50h150v-150h-150v150z" />
<glyph unicode="&#x683;" arabic-form="medial" d="M-20 0v184h100q227 0 356 72q104 58 220 164q94 86 195 121q-83 23 -186 46q-85 19 -265 35q-82 7 -243 1v184q72 7 147 8q162 0 334 -35q258 -52 478 -150v-154q-65 -20 -138 -61q50 -78 80 -112q104 -119 158 -119h60v-184h-80q-151 0 -275 168q-40 54 -99 151 q-69 -46 -110 -83q-145 -129 -220 -156q-221 -80 -384 -80h-128zM400 -50h150v-150h-150v150zM650 -50h150v-150h-150v150z" />
<glyph unicode="&#x686;" arabic-form="isolated" d="M88 623v184q276 64 471 63q292 -1 488 -54v-154q-294 13 -509 -167q-224 -188 -224 -435q0 -137 74 -231q129 -163 404 -164q193 0 405 118v-184q-150 -98 -400 -99q-364 -2 -533 194q-131 152 -131 374q0 258 212 481q96 101 233 153q-101 3 -260 -19q-135 -19 -230 -60 zM554 150v150h150v-150h-150zM679 50h150v-150h-150v150zM804 150v150h150v-150h-150z" />
<glyph unicode="&#x686;" arabic-form="final" d="M88 623v184q276 64 471 63q292 -1 488 -54v-154q-109 -3 -140 -13l29 -91q51 -160 123 -255q90 -119 174 -119h40v-184h-49q-129 0 -252 150q-82 100 -143 256q-6 15 -79 193q-114 -24 -212 -104q-224 -183 -224 -435q0 -138 74 -231q129 -163 404 -164q193 0 405 118 v-184q-150 -98 -400 -99q-364 -2 -533 194q-131 152 -131 374q0 258 212 481q96 101 233 153q-101 3 -260 -19q-135 -19 -230 -60zM453 66v150h150v-150h-150zM578 -34h150v-150h-150v150zM703 66v150h150v-150h-150z" />
<glyph unicode="&#x686;" arabic-form="initial" d="M-20 0v184h100q227 0 356 72q104 58 220 164q94 86 195 121q-83 23 -186 46q-85 19 -265 35q-82 7 -243 1v184q72 7 147 8q162 0 334 -35q258 -52 478 -150v-154q-76 -24 -164 -76q-166 -98 -240 -164q-145 -129 -220 -156q-221 -80 -384 -80h-128zM240 -90h150v-150 h-150v150zM365 -340h150v-150h-150v150zM490 -90h150v-150h-150v150z" />
<glyph unicode="&#x686;" arabic-form="medial" d="M-20 0v184h100q227 0 356 72q104 58 220 164q94 86 195 121q-83 23 -186 46q-85 19 -265 35q-82 7 -243 1v184q72 7 147 8q162 0 334 -35q258 -52 478 -150v-154q-65 -20 -138 -61q50 -78 80 -112q104 -119 158 -119h60v-184h-80q-151 0 -275 168q-40 54 -99 151 q-69 -46 -110 -83q-145 -129 -220 -156q-221 -80 -384 -80h-128zM400 -50h150v-150h-150v150zM525 -300h150v-150h-150v150zM650 -50h150v-150h-150v150z" />
<glyph unicode="&#x687;" arabic-form="isolated" d="M88 623v184q276 64 471 63q292 -1 488 -54v-154q-294 13 -509 -167q-224 -188 -224 -435q0 -137 74 -231q129 -163 404 -164q193 0 405 118v-184q-150 -98 -400 -99q-364 -2 -533 194q-131 152 -131 374q0 258 212 481q96 101 233 153q-101 3 -260 -19q-135 -19 -230 -60 zM562 75h150v-150h-150v150zM562 175v150h150v-150h-150zM812 75h150v-150h-150v150zM812 175v150h150v-150h-150z" />
<glyph unicode="&#x687;" arabic-form="final" d="M88 623v184q276 64 471 63q292 -1 488 -54v-154q-109 -3 -140 -13l29 -91q51 -160 123 -255q90 -119 174 -119h40v-184h-49q-129 0 -252 150q-82 100 -143 256q-6 15 -79 193q-114 -24 -212 -104q-224 -183 -224 -435q0 -138 74 -231q129 -163 404 -164q193 0 405 118 v-184q-150 -98 -400 -99q-364 -2 -533 194q-131 152 -131 374q0 258 212 481q96 101 233 153q-101 3 -260 -19q-135 -19 -230 -60zM453 -6h150v-150h-150v150zM453 94v150h150v-150h-150zM703 -6h150v-150h-150v150zM703 94v150h150v-150h-150z" />
<glyph unicode="&#x687;" arabic-form="initial" d="M-20 0v184h100q227 0 356 72q104 58 220 164q94 86 195 121q-83 23 -186 46q-85 19 -265 35q-82 7 -243 1v184q72 7 147 8q162 0 334 -35q258 -52 478 -150v-154q-76 -24 -164 -76q-166 -98 -240 -164q-145 -129 -220 -156q-221 -80 -384 -80h-128zM252 -90h150v-150 h-150v150zM252 -340h150v-150h-150v150zM502 -90h150v-150h-150v150zM502 -340h150v-150h-150v150z" />
<glyph unicode="&#x687;" arabic-form="medial" d="M-20 0v184h100q227 0 356 72q104 58 220 164q94 86 195 121q-83 23 -186 46q-85 19 -265 35q-82 7 -243 1v184q72 7 147 8q162 0 334 -35q258 -52 478 -150v-154q-65 -20 -138 -61q50 -78 80 -112q104 -119 158 -119h60v-184h-80q-151 0 -275 168q-40 54 -99 151 q-69 -46 -110 -83q-145 -129 -220 -156q-221 -80 -384 -80h-128zM400 -50h150v-150h-150v150zM400 -300h150v-150h-150v150zM650 -50h150v-150h-150v150zM650 -300h150v-150h-150v150z" />
<glyph unicode="&#x698;" arabic-form="isolated" d="M-52 -320q444 0 664 128q255 146 289 346q10 58 10 130q0 126 -53 262h184q50 -118 50 -250q0 -82 -8 -144q-41 -331 -372 -504q-273 -143 -764 -152v184zM720 678v150h150v-150h-150zM845 928v150h150v-150h-150zM970 678v150h150v-150h-150z" />
<glyph unicode="&#x698;" arabic-form="final" d="M-160 -316q445 0 664 128q255 149 289 346q10 58 10 130q0 126 -53 262h184q30 -112 33 -142q10 -103 83 -180q42 -44 143 -44h60v-184h-115q-130 0 -180 62q-57 -253 -354 -411q-284 -151 -764 -151v184zM604 692v150h150v-150h-150zM729 942v150h150v-150h-150z M854 692v150h150v-150h-150z" />
<glyph unicode="&#x691;" arabic-form="isolated" d="M-52 -320q444 0 664 128q255 146 289 346q10 58 10 130q0 126 -53 262h184q50 -118 50 -250q0 -82 -8 -144q-41 -331 -372 -504q-273 -143 -764 -152v184zM697 679v101h81v399h102v-321q36 73 140 113q63 24 133 -2q65 -25 65 -107q0 -91 -64 -141q-54 -42 -170 -42h-175 h-112zM906 780h55q77 0 100 13q53 33 53 54q0 31 -30 47q-15 -4 -72 -26q-51 -20 -106 -88z" />
<glyph unicode="&#x691;" arabic-form="final" d="M-160 -316q445 0 664 128q255 149 289 346q10 58 10 130q0 126 -53 262h184q30 -112 33 -142q10 -103 83 -180q42 -44 143 -44h60v-184h-115q-130 0 -180 62q-57 -253 -354 -411q-284 -151 -764 -151v184zM589 656v101h81v399h102v-321q36 73 140 113q63 24 133 -2 q65 -25 65 -107q0 -91 -64 -141q-54 -42 -170 -42h-175h-112zM798 757h55q77 0 100 13q53 33 53 54q0 31 -30 47q-15 -4 -72 -26q-51 -20 -106 -88z" />
<glyph unicode="&#x6a9;" arabic-form="isolated" d="M10 308q0 138 63 230h184q-65 -94 -65 -230q0 -120 203 -192q79 -28 155 -28q162 0 271 53t163 113q52 57 52 142q0 57 -95 162l-183 202q-62 68 -62 139q0 84 18 115q46 79 132 144l527 398v-209l-408 -318q-71 -55 -71 -101q0 -63 32 -98l148 -162q142 -155 142 -266 q0 -157 -104 -274q-82 -92 -246 -170q-99 -47 -306 -47q-112 0 -220 32q-330 98 -330 365z" />
<glyph unicode="&#x6a9;" arabic-form="final" d="M-125 308q0 138 63 230h184q-65 -94 -65 -230q0 -120 203 -192q79 -28 155 -28q162 0 271 53t163 113q52 57 52 91q0 49 -41 115l-182 300q-62 102 -62 139q0 84 18 115q46 79 132 144l526 398v-209l-408 -318q-70 -55 -70 -101q0 -78 18 -107l356 -574q40 -63 80 -63h38 v-184h-42q-61 0 -96 18q-62 30 -82 60l-73 104q-25 -50 -73 -90q-81 -73 -209 -134q-99 -47 -306 -47q-112 0 -220 32q-330 98 -330 365z" />
<glyph unicode="&#x6a9;" arabic-form="initial" d="M-20 0v184h402q147 0 193 104q16 36 16 72q0 69 -54 135l-310 380q-50 61 -50 142q0 30 10 68q31 118 135 161l745 310v-186l-595 -250q-71 -30 -92 -70q-6 -11 -6 -36q0 -32 31 -69l275 -330q102 -122 102 -246q0 -113 -62 -214q-95 -155 -318 -155h-422z" />
<glyph unicode="&#x6a9;" arabic-form="medial" d="M-20 0v184h412q147 0 194 104q16 36 16 72q0 69 -54 135l-310 380q-50 61 -50 142q0 30 10 68q30 118 134 161l746 310v-186l-596 -250q-70 -30 -92 -70q-6 -11 -6 -36q0 -32 32 -69l582 -705q22 -26 60 -40q44 -16 108 -16h88v-184h-132q-66 0 -124 24q-102 43 -136 84 l-96 120q-22 -46 -38 -73q-96 -155 -316 -155h-432z" />
<glyph unicode="&#x6af;" arabic-form="isolated" d="M10 308q0 138 63 230h184q-65 -94 -65 -230q0 -120 203 -192q79 -28 155 -28q162 0 271 53t163 113q52 57 52 142q0 57 -95 162l-183 202q-62 68 -62 139q0 84 18 115q46 79 132 144l527 398v-209l-408 -318q-71 -55 -71 -101q0 -63 32 -98l148 -162q142 -155 142 -266 q0 -157 -104 -274q-82 -92 -246 -170q-99 -47 -306 -47q-112 0 -220 32q-330 98 -330 365zM684 1154v178l695 530v-178z" />
<glyph unicode="&#x6af;" arabic-form="final" d="M-125 308q0 138 63 230h184q-65 -94 -65 -230q0 -120 203 -192q79 -28 155 -28q162 0 271 53t163 113q52 57 52 91q0 49 -41 115l-182 300q-62 102 -62 139q0 84 18 115q46 79 132 144l526 398v-209l-408 -318q-70 -55 -70 -101q0 -78 18 -107l356 -574q40 -63 80 -63h38 v-184h-42q-61 0 -96 18q-62 30 -82 60l-73 104q-25 -50 -73 -90q-81 -73 -209 -134q-99 -47 -306 -47q-112 0 -220 32q-330 98 -330 365zM596 1158v178l695 530v-178z" />
<glyph unicode="&#x6af;" arabic-form="initial" d="M-20 0v184h402q147 0 193 104q16 36 16 72q0 69 -54 135l-310 380q-50 61 -50 142q0 30 10 68q31 118 135 161l745 310v-186l-595 -250q-71 -30 -92 -70q-6 -11 -6 -36q0 -32 31 -69l275 -330q102 -122 102 -246q0 -113 -62 -214q-95 -155 -318 -155h-422zM143 1268v178 l924 403v-178z" />
<glyph unicode="&#x6af;" arabic-form="medial" d="M-20 0v184h412q147 0 194 104q16 36 16 72q0 69 -54 135l-310 380q-50 61 -50 142q0 30 10 68q30 118 134 161l746 310v-186l-596 -250q-70 -30 -92 -70q-6 -11 -6 -36q0 -32 32 -69l582 -705q22 -26 60 -40q44 -16 108 -16h88v-184h-132q-66 0 -124 24q-102 43 -136 84 l-96 120q-22 -46 -38 -73q-96 -155 -316 -155h-432zM156 1268v178l924 403v-178z" />
<glyph unicode="&#x6ba;" arabic-form="isolated" d="M54 126q0 174 53 316h184q-55 -174 -55 -316q0 -180 161 -247q57 -24 186 -24q84 0 147 20q157 51 215 218q34 98 34 194q0 249 -70 401h184q72 -159 72 -433q0 -187 -100 -351q-71 -116 -213 -176q-140 -59 -269 -59q-172 0 -295 63q-234 120 -234 394z" />
<glyph unicode="&#x6ba;" arabic-form="final" d="M-43 -43q0 174 53 316h184q-55 -174 -55 -316q0 -180 161 -247q57 -24 186 -24q84 0 147 20q157 51 215 218q33 94 33 213q0 184 -101 387h184q17 -51 52 -136q34 -84 65 -140q35 -64 121 -64h52v-184h-94q-87 0 -101 48q-6 -173 -91 -313q-71 -116 -213 -176 q-140 -59 -269 -59q-172 0 -295 63q-234 120 -234 394z" />
<glyph unicode="&#x6be;" arabic-form="isolated" d="M0 228q0 75 16 128h184q-14 -58 -14 -102q0 -43 30 -54q45 -16 85 -16q59 0 130 11q-45 105 -60 174q-18 78 -18 142q0 84 45 167q48 90 125 81q-44 39 -125 53v185q219 -67 439 -247q261 -214 320 -431q14 -52 14 -109q0 -103 -40 -164q-74 -113 -249 -113 q-131 0 -285 108q-120 -41 -266 -41t-213 36q-118 64 -118 192zM522 505q0 -30 7 -67q21 -118 89 -169q36 27 70 91q39 72 39 133q0 46 -15 83q-22 52 -80 52q-65 0 -88 -45q-22 -43 -22 -78zM756 147q52 -46 101 -46q126 0 142 67q7 30 7 63q0 60 -33 138q-29 69 -96 139 q6 -37 6 -76q0 -138 -98 -252q-12 -14 -29 -33z" />
<glyph unicode="&#x6be;" arabic-form="final" d="M0 228q0 75 16 128h184q-14 -58 -14 -102q0 -43 30 -54q45 -16 85 -16q48 0 151 16q-58 67 -81 169q-18 78 -18 142q0 84 45 167q48 90 125 81q-44 39 -125 53v185q212 -65 439 -247q249 -200 320 -431q24 -79 11 -135h98v-184h-376q-190 0 -264 52q-131 -51 -295 -52 q-145 -1 -213 36q-118 64 -118 192zM522 505q0 -30 7 -67q21 -118 89 -169q36 27 70 91q39 72 39 133q0 46 -15 83q-22 52 -80 52q-65 0 -88 -45q-22 -43 -22 -78zM790 188q28 -21 67 -21q129 0 142 67q5 31 0 63q-6 34 -26 72q-51 95 -96 139q13 -95 -9 -180 q-25 -91 -78 -140z" />
<glyph unicode="&#x6be;" arabic-form="initial" d="M-20 0v184h145q52 0 130 11q-45 105 -60 174q-18 78 -18 142q0 84 45 167q48 90 125 81q-44 39 -125 53v185q219 -67 439 -247q261 -214 320 -431q14 -52 14 -109q0 -103 -40 -164q-74 -113 -249 -113q-131 0 -285 108q-120 -41 -266 -41h-175zM346 505q0 -30 7 -67 q21 -118 89 -169q36 27 70 91q39 72 39 133q0 46 -15 83q-22 52 -80 52q-65 0 -88 -45q-22 -43 -22 -78zM580 147q52 -46 101 -46q126 0 142 67q7 30 7 63q0 60 -33 138q-29 69 -96 139q6 -37 6 -76q0 -138 -98 -252q-12 -14 -29 -33z" />
<glyph unicode="&#x6be;" arabic-form="medial" d="M-20 0v184h238q70 0 130 16q-58 67 -81 169q-18 78 -18 142q0 84 45 167q48 90 125 81q-44 39 -125 53v185q212 -65 439 -247q249 -200 320 -431q24 -79 11 -135h202v-184h-480q-190 0 -264 52q-134 -52 -295 -52h-247zM418 505q0 -30 7 -67q21 -118 89 -169q36 27 70 91 q39 72 39 133q0 46 -15 83q-22 52 -80 52q-65 0 -88 -45q-22 -43 -22 -78zM686 188q28 -21 67 -21q129 0 142 67q5 31 0 63q-6 34 -26 72q-51 95 -96 139q13 -95 -9 -180q-25 -91 -78 -140z" />
<glyph unicode="&#x649;" arabic-form="initial" d="M-20 0v184h158q285 0 329 44q49 49 49 155v217h184v-217q0 -187 -92 -297q-72 -86 -415 -86h-213z" />
<glyph unicode="&#x649;" arabic-form="medial" d="M-20 0v184h280q162 0 206 44q48 49 48 155v217h184v-217q0 -106 50 -155q44 -44 207 -44h298v-184h-353q-214 0 -294 86q-76 -86 -291 -86h-335z" />
<glyph unicode="&#x6cc;" arabic-form="isolated" d="M25 122q0 117 63 230h184q-66 -131 -65 -230q2 -147 166 -192q75 -20 158 -20q120 0 228 35q107 35 172 113q59 71 59 105q0 46 -27 88q-34 51 -166 109q-98 44 -97 175q1 150 95 211q77 50 173 50q143 0 198 -73q50 -66 67 -203h-184q0 61 -19 86q-27 34 -66 30 q-20 -2 -44 -22q-35 -30 -35 -87q0 -41 125 -85q91 -32 146 -135q31 -58 32 -152q1 -77 -43 -143q-132 -195 -356 -243q-177 -38 -270 -38q-129 0 -201 26q-293 104 -293 365z" />
<glyph unicode="&#x6cc;" arabic-form="final" d="M-132 18q-6 92 30 230h178q-26 -80 -26 -196q1 -106 142 -132q69 -13 182 -13q130 0 188 17q128 37 148 52q60 46 59 75q-2 44 -11 56q-24 36 -48 61q-44 46 -44 107q0 78 41 125q77 91 164 108q29 6 73 6q130 0 176 -138q64 -192 98 -192h35v-184h-35q-127 0 -194 172 q-64 165 -94 165q-34 -1 -50 -17q-20 -18 -20 -50q0 -3 42 -72q53 -87 53 -147q0 -83 -78 -166q-104 -111 -285 -137q-140 -20 -216 -20q-121 0 -268 36q-228 56 -240 254z" />
<glyph unicode="&#x6cc;" arabic-form="initial" d="M-20 0v184h158q285 0 329 44q49 49 49 155v217h184v-217q0 -187 -92 -297q-72 -86 -415 -86h-213zM391 -150h150v-150h-150v150zM641 -150h150v-150h-150v150z" />
<glyph unicode="&#x6cc;" arabic-form="medial" d="M-20 0v184h280q162 0 206 44q48 49 48 155v217h184v-217q0 -106 50 -155q44 -44 207 -44h298v-184h-353q-214 0 -294 86q-76 -86 -291 -86h-335zM403 -150h150v-150h-150v150zM653 -150h150v-150h-150v150z" />
<glyph unicode="&#xfe70;" arabic-form="isolated" d="M324 1210v110l584 130v-110zM324 1450v110l584 130v-110z" />
<glyph unicode="&#xfe71;" arabic-form="medial" d="M-20 0v184h1273v-184h-1273zM324 1210v110l584 130v-110zM324 1450v110l584 130v-110z" />
<glyph unicode="&#xfe72;" arabic-form="isolated" d="M324 1518h90q0 -97 12 -123q36 -75 84 -75q56 0 118 60q36 36 58 78q-33 7 -56 20q-108 57 -108 151q0 87 68 139q29 21 92 21q73 0 112 -39q56 -54 56 -133q0 -39 -13 -77q19 -1 33 -1q19 -1 38 -1v-110q-46 0 -66 2l-52 5q-26 -61 -102 -139q-84 -86 -178 -86 q-115 0 -170 154q-16 41 -16 154zM634 1629q0 -37 44 -55q20 -8 46 -16q4 7 6 14q10 21 10 45q0 34 -17 48t-37 14q-24 0 -34 -9q-18 -13 -18 -41z" />
<glyph unicode="&#xfe74;" arabic-form="isolated" d="M324 -140l584 130v-110l-584 -130v110zM324 -380l584 130v-110l-584 -130v110z" />
<glyph unicode="&#xfe76;" arabic-form="isolated" d="M324 1210v110l584 130v-110z" />
<glyph unicode="&#xfe77;" arabic-form="medial" d="M-20 0v184h1273v-184h-1273zM324 1210v110l584 130v-110z" />
<glyph unicode="&#xfe78;" arabic-form="isolated" d="M324 1209v110q153 0 292 109q22 18 42 38q-9 2 -28 12q-108 56 -108 151q0 87 68 139q29 21 92 21q73 0 112 -39q56 -54 56 -133q0 -32 -15 -77q17 -1 35 -1q19 -1 38 -1v-110q-34 0 -66 2q-31 2 -58 5q-43 -61 -112 -103q-201 -123 -348 -123zM634 1629q0 -37 44 -55 q20 -8 46 -16q4 7 6 14q10 21 10 45q0 34 -18 48q-16 14 -36 14q-24 0 -34 -9q-18 -13 -18 -41z" />
<glyph unicode="&#xfe79;" arabic-form="medial" d="M-20 0v184h1273v-184h-1273zM324 1209v110q153 0 292 109q22 18 42 38q-9 2 -28 12q-108 56 -108 151q0 87 68 139q29 21 92 21q73 0 112 -39q56 -54 56 -133q0 -32 -15 -77q17 -1 35 -1q19 -1 38 -1v-110q-34 0 -66 2q-31 2 -58 5q-43 -61 -112 -103 q-201 -123 -348 -123zM634 1629q0 -37 44 -55q20 -8 46 -16q4 7 6 14q10 21 10 45q0 34 -18 48q-16 14 -36 14q-24 0 -34 -9q-18 -13 -18 -41z" />
<glyph unicode="&#xfe7a;" arabic-form="isolated" d="M324 -170l584 130v-110l-584 -130v110z" />
<glyph unicode="&#xfe7b;" arabic-form="medial" d="M-20 0v184h1273v-184h-1273zM324 -170l584 130v-110l-584 -130v110z" />
<glyph unicode="&#xfe7c;" arabic-form="isolated" d="M304 1451q0 109 16 207h97q-12 -125 -11 -181q3 -84 25 -118q19 -28 69 -5q61 26 65 194q2 82 2 171h96q0 -36 3 -90q14 -197 89 -195q71 1 71 174q0 115 -13 172h103q15 -73 12 -189q-3 -133 -27 -187q-38 -88 -128 -99q-71 -9 -102 24q-27 30 -39 83q-15 -77 -48 -116 q-57 -68 -126 -69q-79 -2 -120 63q-34 50 -34 161z" />
<glyph unicode="&#xfe7d;" arabic-form="medial" d="M-20 0v184h1273v-184h-1273zM304 1451q0 109 16 207h97q-12 -125 -11 -181q3 -84 25 -118q19 -28 69 -5q61 26 65 194q2 82 2 171h96q0 -36 3 -90q14 -197 89 -195q71 1 71 174q0 115 -13 172h103q15 -73 12 -189q-3 -133 -27 -187q-38 -88 -128 -99q-71 -9 -102 24 q-27 30 -39 83q-15 -77 -48 -116q-57 -68 -126 -69q-79 -2 -120 63q-34 50 -34 161z" />
<glyph unicode="&#xfe7e;" arabic-form="isolated" d="M342 1524q0 115 80 194.5t194 79.5q116 0 195 -79.5t79 -194.5t-79 -195t-195 -80q-114 0 -194 80t-80 195zM464 1524q0 -65 44 -108.5t108 -43.5t108 44t44 108q0 63 -44 107t-108 44t-108 -43.5t-44 -107.5z" />
<glyph unicode="&#xfe7f;" arabic-form="medial" d="M-20 0v184h1273v-184h-1273zM342 1524q0 115 80 194.5t194 79.5q116 0 195 -79.5t79 -194.5t-79 -195t-195 -80q-114 0 -194 80t-80 195zM464 1524q0 -65 44 -108.5t108 -43.5t108 44t44 108q0 63 -44 107t-108 44t-108 -43.5t-44 -107.5z" />
<glyph unicode="&#x621;" arabic-form="isolated" d="M434 85v176q47 6 130 31q68 20 120 53q-142 24 -193 100q-53 79 -53 163q0 65 21 140q30 118 133 181q99 61 197 61q110 0 200 -22v-185q-100 31 -170 29q-51 -1 -100 -27q-96 -48 -95 -160q0 -115 200 -165q57 -14 115 1q72 19 130 54v-185q-90 -60 -295 -140 q-231 -90 -340 -105z" />
<glyph unicode="&#x622;" arabic-form="isolated" d="M256 1659v125l160 123q103 -83 170 -104q42 -13 96 -13q58 0 100 16q107 41 194 117v-125q-90 -64 -180 -93q-66 -22 -120 -22q-34 0 -110 17t-144 87zM524 0v1556h184v-1556h-184z" />
<glyph unicode="&#x622;" arabic-form="final" d="M256 1659v125l160 123q103 -83 170 -104q42 -13 96 -13q58 0 100 16q107 41 194 117v-125q-90 -64 -180 -93q-66 -22 -120 -22q-34 0 -110 17t-144 87zM588 371v1185h184v-1173q0 -106 50 -155q44 -44 224 -44h208v-184h-264q-234 0 -314 92q-88 101 -88 279z" />
<glyph unicode="&#x623;" arabic-form="isolated" d="M435 1665v100l78 18q-44 20 -60 56q-17 37 -16 82q2 95 56 139q56 46 150 45q61 -1 114 -33v-100q-51 33 -114 33q-66 0 -83 -18q-29 -32 -29 -58q0 -77 94 -104q33 -10 153 19v-102zM524 0v1556h184v-1556h-184z" />
<glyph unicode="&#x623;" arabic-form="final" d="M484 1665v100l78 18q-44 20 -60 56q-17 37 -16 82q2 95 56 139q56 46 150 45q61 -1 114 -33v-100q-51 33 -114 33q-66 0 -83 -18q-29 -32 -29 -58q0 -77 94 -104q33 -10 153 19v-102zM588 371v1185h184v-1173q0 -106 50 -155q44 -44 224 -44h208v-184h-264 q-234 0 -314 92q-88 101 -88 279z" />
<glyph unicode="&#x624;" arabic-form="isolated" d="M76 -316q371 0 532 76q224 104 273 243q-118 3 -163 10q-139 24 -190 67q-116 98 -116 235q0 217 211 307q57 24 119 24q89 0 161 -51q131 -91 155 -233q17 -102 17 -178q0 -294 -172 -468q-45 -46 -231 -130q-190 -86 -596 -86v184zM541 765v100l78 18q-44 20 -60 56 q-17 37 -16 82q2 95 56 139q56 46 150 45q61 -1 114 -33v-100q-51 33 -114 33q-66 0 -83 -18q-29 -32 -29 -58q0 -77 94 -104q33 -10 153 19v-102zM606 326q0 -55 51 -98q47 -40 239 -44q0 184 -86 243q-37 25 -73 25q-63 0 -107 -57q-24 -33 -24 -69z" />
<glyph unicode="&#x624;" arabic-form="final" d="M90 -316q361 0 493 76q168 95 230 243q-118 3 -163 10q-139 24 -190 67q-106 89 -116 224q-2 31 8 88q27 155 203 230q59 25 124 24q87 -2 156 -51q133 -92 155 -233q13 -83 17 -178h246v-184h-194l-70 1q-25 -156 -154 -285q-83 -83 -188 -130q-192 -86 -557 -86v184z M495 765v100l78 18q-44 20 -60 56q-17 37 -16 82q2 95 56 139q56 46 150 45q61 -1 114 -33v-100q-51 33 -114 33q-66 0 -83 -18q-29 -32 -29 -58q0 -77 94 -104q33 -10 153 19v-102zM542 357q-17 -75 47 -129q47 -40 239 -44q0 76 -16 133q-24 80 -70 110q-60 41 -120 15 q-67 -29 -80 -85z" />
<glyph unicode="&#x625;" arabic-form="isolated" d="M438 -400l78 18q-44 20 -60 56q-17 37 -16 82q2 95 56 139q56 46 150 45q61 -1 114 -33v-100q-51 33 -114 33q-66 0 -83 -18q-29 -32 -29 -58q0 -77 94 -104q33 -10 153 19v-102l-343 -77v100zM524 0v1556h184v-1556h-184z" />
<glyph unicode="&#x625;" arabic-form="final" d="M531 -400l78 18q-44 20 -60 56q-17 37 -16 82q2 95 56 139q56 46 150 45q61 -1 114 -33v-100q-51 33 -114 33q-66 0 -83 -18q-29 -32 -29 -58q0 -77 94 -104q33 -10 153 19v-102l-343 -77v100zM588 371v1185h184v-1173q0 -106 50 -155q44 -44 224 -44h208v-184h-264 q-234 0 -314 92q-88 101 -88 279z" />
<glyph unicode="&#x626;" arabic-form="isolated" d="M25 122q0 117 63 230h184q-66 -131 -65 -230q2 -147 166 -192q75 -20 158 -20q120 0 228 35q107 35 172 113q59 71 59 105q0 46 -27 88q-34 51 -166 109q-98 44 -97 175q1 150 95 211q77 50 173 50q143 0 198 -73q50 -66 67 -203h-184q0 61 -19 86q-27 34 -66 30 q-20 -2 -44 -22q-35 -30 -35 -87q0 -41 125 -85q91 -32 146 -135q31 -58 32 -152q1 -77 -43 -143q-132 -195 -356 -243q-177 -38 -270 -38q-129 0 -201 26q-293 104 -293 365zM278 670v100l78 18q-44 20 -60 56q-17 37 -16 82q2 95 56 139q56 46 150 45q61 -1 114 -33v-100 q-51 33 -114 33q-66 0 -83 -18q-29 -32 -29 -58q0 -77 94 -104q33 -10 153 19v-102z" />
<glyph unicode="&#x626;" arabic-form="final" d="M-132 18q-6 92 30 230h178q-26 -80 -26 -196q1 -106 142 -132q69 -13 182 -13q130 0 188 17q128 37 148 52q60 46 59 75q-2 44 -11 56q-24 36 -48 61q-44 46 -44 107q0 78 41 125q77 91 164 108q29 6 73 6q130 0 176 -138q64 -192 98 -192h35v-184h-35q-127 0 -194 172 q-64 165 -94 165q-34 -1 -50 -17q-20 -18 -20 -50q0 -3 42 -72q53 -87 53 -147q0 -83 -78 -166q-104 -111 -285 -137q-140 -20 -216 -20q-121 0 -268 36q-228 56 -240 254zM161 423v100l78 18q-44 20 -60 56q-17 37 -16 82q2 95 56 139q56 46 150 45q61 -1 114 -33v-100 q-51 33 -114 33q-66 0 -83 -18q-29 -32 -29 -58q0 -77 94 -104q33 -10 153 19v-102z" />
<glyph unicode="&#x626;" arabic-form="initial" d="M-20 0v184h158q285 0 329 44q49 49 49 155v217h184v-217q0 -187 -92 -297q-72 -86 -415 -86h-213zM423 815v100l78 18q-44 20 -60 56q-17 37 -16 82q2 95 56 139q56 46 150 45q61 -1 114 -33v-100q-51 33 -114 33q-66 0 -83 -18q-29 -32 -29 -58q0 -77 94 -104 q33 -10 153 19v-102z" />
<glyph unicode="&#x626;" arabic-form="medial" d="M-20 0v184h280q162 0 206 44q48 49 48 155v217h184v-217q0 -106 50 -155q44 -44 207 -44h298v-184h-353q-214 0 -294 86q-76 -86 -291 -86h-335zM445 815v100l78 18q-44 20 -60 56q-17 37 -16 82q2 95 56 139q56 46 150 45q61 -1 114 -33v-100q-51 33 -114 33 q-66 0 -83 -18q-29 -32 -29 -58q0 -77 94 -104q33 -10 153 19v-102z" />
<glyph unicode="&#x627;" arabic-form="isolated" d="M524 0v1556h184v-1556h-184z" />
<glyph unicode="&#x627;" arabic-form="final" d="M588 371v1185h184v-1173q0 -106 50 -155q44 -44 224 -44h208v-184h-264q-234 0 -314 92q-88 101 -88 279z" />
<glyph unicode="&#x628;" arabic-form="isolated" d="M69 320q0 62 41 186h184q-43 -138 -43 -186q0 -108 117 -138q98 -25 230 -25q188 0 294 65q123 76 123 182q0 64 -25 135h184q26 -71 26 -203q0 -123 -166 -244q-152 -111 -431 -112q-223 -1 -377 56q-157 59 -157 284zM539 -200h150v-150h-150v150z" />
<glyph unicode="&#x628;" arabic-form="final" d="M69 320q0 62 41 186h184q-43 -138 -43 -186q0 -108 117 -138q98 -25 225 -25q69 0 199 55q87 37 132 90q55 65 55 121q0 62 -29 117h184q19 -75 19 -165q0 -100 24 -151q19 -40 43 -40h33v-184h-75q-52 0 -99 44q-43 42 -63 121q-88 -81 -184 -128q-116 -57 -289 -57 q-186 0 -317 56q-157 65 -157 284zM465 -200h150v-150h-150v150z" />
<glyph unicode="&#x628;" arabic-form="initial" d="M-20 0v184h158q285 0 329 44q49 49 49 155v217h184v-217q0 -187 -92 -297q-72 -86 -415 -86h-213zM504 -150h150v-150h-150v150z" />
<glyph unicode="&#x628;" arabic-form="medial" d="M-20 0v184h280q162 0 206 44q48 49 48 155v217h184v-217q0 -106 50 -155q44 -44 207 -44h298v-184h-353q-214 0 -294 86q-76 -86 -291 -86h-335zM532 -150h150v-150h-150v150z" />
<glyph unicode="&#x629;" arabic-form="isolated" d="M222 290q0 181 37 259q84 185 231 185q198 0 380 -160q141 -124 141 -272q-1 -200 -148 -275q-165 -85 -297 -85q-96 0 -177 35q-167 74 -167 313zM362 900v150h150v-150h-150zM402 275q1 -82 56 -126q57 -44 114 -44q91 0 184 57q75 46 75 131q0 77 -66 142 q-123 120 -239 119q-66 0 -99 -87q-26 -69 -25 -192zM612 900v150h150v-150h-150z" />
<glyph unicode="&#x629;" arabic-form="final" d="M242 285q0 173 204 300q109 68 260 83q-4 39 -7 82h184q1 -168 37 -342q21 -101 77 -180q31 -44 143 -44h113v-184h-168q-90 0 -163 51q-45 31 -83 90q-138 -73 -294 -73q-56 0 -114 15q-189 48 -189 202zM409 294q1 -41 91 -66t273 54q-15 42 -28 91q-13 50 -25 151 q-120 -12 -202 -79q-111 -89 -109 -151zM454 900v150h150v-150h-150zM704 900v150h150v-150h-150z" />
<glyph unicode="&#x62a;" arabic-form="isolated" d="M69 320q0 62 41 186h184q-43 -138 -43 -186q0 -108 117 -138q98 -25 230 -25q188 0 294 65q123 76 123 182q0 64 -25 135h184q26 -71 26 -203q0 -123 -166 -244q-152 -111 -431 -112q-223 -1 -377 56q-157 59 -157 284zM447 650v150h150v-150h-150zM697 650v150h150v-150 h-150z" />
<glyph unicode="&#x62a;" arabic-form="final" d="M69 320q0 62 41 186h184q-43 -138 -43 -186q0 -108 117 -138q98 -25 225 -25q69 0 199 55q87 37 132 90q55 65 55 121q0 62 -29 117h184q19 -75 19 -165q0 -100 24 -151q19 -40 43 -40h33v-184h-75q-52 0 -99 44q-43 42 -63 121q-88 -81 -184 -128q-116 -57 -289 -57 q-186 0 -317 56q-157 65 -157 284zM412 650v150h150v-150h-150zM662 650v150h150v-150h-150z" />
<glyph unicode="&#x62a;" arabic-form="initial" d="M-20 0v184h158q285 0 329 44q49 49 49 155v217h184v-217q0 -187 -92 -297q-72 -86 -415 -86h-213zM403 850v150h150v-150h-150zM653 850v150h150v-150h-150z" />
<glyph unicode="&#x62a;" arabic-form="medial" d="M-20 0v184h280q162 0 206 44q48 49 48 155v217h184v-217q0 -106 50 -155q44 -44 207 -44h298v-184h-353q-214 0 -294 86q-76 -86 -291 -86h-335zM403 850v150h150v-150h-150zM653 850v150h150v-150h-150z" />
<glyph unicode="&#x62b;" arabic-form="isolated" d="M69 320q0 62 41 186h184q-43 -138 -43 -186q0 -108 117 -138q98 -25 230 -25q188 0 294 65q123 76 123 182q0 64 -25 135h184q26 -71 26 -203q0 -123 -166 -244q-152 -111 -431 -112q-223 -1 -377 56q-157 59 -157 284zM442 650v150h150v-150h-150zM567 900v150h150v-150 h-150zM692 650v150h150v-150h-150z" />
<glyph unicode="&#x62b;" arabic-form="final" d="M69 320q0 62 41 186h184q-43 -138 -43 -186q0 -108 117 -138q98 -25 225 -25q69 0 199 55q87 37 132 90q55 65 55 121q0 62 -29 117h184q19 -75 19 -165q0 -100 24 -151q19 -40 43 -40h33v-184h-75q-52 0 -99 44q-43 42 -63 121q-88 -81 -184 -128q-116 -57 -289 -57 q-186 0 -317 56q-157 65 -157 284zM424 650v150h150v-150h-150zM549 900v150h150v-150h-150zM674 650v150h150v-150h-150z" />
<glyph unicode="&#x62b;" arabic-form="initial" d="M-20 0v184h158q285 0 329 44q49 49 49 155v217h184v-217q0 -187 -92 -297q-72 -86 -415 -86h-213zM412 850v150h150v-150h-150zM537 1100v150h150v-150h-150zM662 850v150h150v-150h-150z" />
<glyph unicode="&#x62b;" arabic-form="medial" d="M-20 0v184h280q162 0 206 44q48 49 48 155v217h184v-217q0 -106 50 -155q44 -44 207 -44h298v-184h-353q-214 0 -294 86q-76 -86 -291 -86h-335zM411 812v150h150v-150h-150zM536 1062v150h150v-150h-150zM661 812v150h150v-150h-150z" />
<glyph unicode="&#x62c;" arabic-form="isolated" d="M88 623v184q276 64 471 63q292 -1 488 -54v-154q-294 13 -509 -167q-224 -188 -224 -435q0 -137 74 -231q129 -163 404 -164q193 0 405 118v-184q-150 -98 -400 -99q-364 -2 -533 194q-131 152 -131 374q0 258 212 481q96 101 233 153q-101 3 -260 -19q-135 -19 -230 -60 zM671 25v150h150v-150h-150z" />
<glyph unicode="&#x62c;" arabic-form="final" d="M88 623v184q276 64 471 63q292 -1 488 -54v-154q-109 -3 -140 -13l29 -91q51 -160 123 -255q90 -119 174 -119h40v-184h-49q-129 0 -252 150q-82 100 -143 256q-6 15 -79 193q-114 -24 -212 -104q-224 -183 -224 -435q0 -138 74 -231q129 -163 404 -164q193 0 405 118 v-184q-150 -98 -400 -99q-364 -2 -533 194q-131 152 -131 374q0 258 212 481q96 101 233 153q-101 3 -260 -19q-135 -19 -230 -60zM624 -50v150h150v-150h-150z" />
<glyph unicode="&#x62c;" arabic-form="initial" d="M-20 0v184h100q227 0 356 72q104 58 220 164q94 86 195 121q-83 23 -186 46q-85 19 -265 35q-82 7 -243 1v184q72 7 147 8q162 0 334 -35q258 -52 478 -150v-154q-76 -24 -164 -76q-166 -98 -240 -164q-145 -129 -220 -156q-221 -80 -384 -80h-128zM525 -150h150v-150 h-150v150z" />
<glyph unicode="&#x62c;" arabic-form="medial" d="M-20 0v184h100q227 0 356 72q104 58 220 164q94 86 195 121q-83 23 -186 46q-85 19 -265 35q-82 7 -243 1v184q72 7 147 8q162 0 334 -35q258 -52 478 -150v-154q-65 -20 -138 -61q50 -78 80 -112q104 -119 158 -119h60v-184h-80q-151 0 -275 168q-40 54 -99 151 q-69 -46 -110 -83q-145 -129 -220 -156q-221 -80 -384 -80h-128zM525 -150h150v-150h-150v150z" />
<glyph unicode="&#x62d;" arabic-form="isolated" d="M88 623v184q276 64 471 63q292 -1 488 -54v-154q-294 13 -509 -167q-224 -188 -224 -435q0 -137 74 -231q129 -163 404 -164q193 0 405 118v-184q-150 -98 -400 -99q-364 -2 -533 194q-131 152 -131 374q0 258 212 481q96 101 233 153q-101 3 -260 -19q-135 -19 -230 -60 z" />
<glyph unicode="&#x62d;" arabic-form="final" d="M88 623v184q276 64 471 63q292 -1 488 -54v-154q-109 -3 -140 -13l29 -91q51 -160 123 -255q90 -119 174 -119h40v-184h-49q-129 0 -252 150q-82 100 -143 256q-6 15 -79 193q-114 -24 -212 -104q-224 -183 -224 -435q0 -138 74 -231q129 -163 404 -164q193 0 405 118 v-184q-150 -98 -400 -99q-364 -2 -533 194q-131 152 -131 374q0 258 212 481q96 101 233 153q-101 3 -260 -19q-135 -19 -230 -60z" />
<glyph unicode="&#x62d;" arabic-form="initial" d="M-20 0v184h100q227 0 356 72q104 58 220 164q94 86 195 121q-83 23 -186 46q-85 19 -265 35q-82 7 -243 1v184q72 7 147 8q162 0 334 -35q258 -52 478 -150v-154q-76 -24 -164 -76q-166 -98 -240 -164q-145 -129 -220 -156q-221 -80 -384 -80h-128z" />
<glyph unicode="&#x62d;" arabic-form="medial" d="M-20 0v184h100q227 0 356 72q104 58 220 164q94 86 195 121q-83 23 -186 46q-85 19 -265 35q-82 7 -243 1v184q72 7 147 8q162 0 334 -35q258 -52 478 -150v-154q-65 -20 -138 -61q50 -78 80 -112q104 -119 158 -119h60v-184h-80q-151 0 -275 168q-40 54 -99 151 q-69 -46 -110 -83q-145 -129 -220 -156q-221 -80 -384 -80h-128z" />
<glyph unicode="&#x62e;" arabic-form="isolated" d="M88 623v184q276 64 471 63q292 -1 488 -54v-154q-294 13 -509 -167q-224 -188 -224 -435q0 -137 74 -231q129 -163 404 -164q193 0 405 118v-184q-150 -98 -400 -99q-364 -2 -533 194q-131 152 -131 374q0 258 212 481q96 101 233 153q-101 3 -260 -19q-135 -19 -230 -60 zM476 1050v150h150v-150h-150z" />
<glyph unicode="&#x62e;" arabic-form="final" d="M88 623v184q276 64 471 63q292 -1 488 -54v-154q-109 -3 -140 -13l29 -91q51 -160 123 -255q90 -119 174 -119h40v-184h-49q-129 0 -252 150q-82 100 -143 256q-6 15 -79 193q-114 -24 -212 -104q-224 -183 -224 -435q0 -138 74 -231q129 -163 404 -164q193 0 405 118 v-184q-150 -98 -400 -99q-364 -2 -533 194q-131 152 -131 374q0 258 212 481q96 101 233 153q-101 3 -260 -19q-135 -19 -230 -60zM472 1050v150h150v-150h-150z" />
<glyph unicode="&#x62e;" arabic-form="initial" d="M-20 0v184h100q227 0 356 72q104 58 220 164q94 86 195 121q-83 23 -186 46q-85 19 -265 35q-82 7 -243 1v184q72 7 147 8q162 0 334 -35q258 -52 478 -150v-154q-76 -24 -164 -76q-166 -98 -240 -164q-145 -129 -220 -156q-221 -80 -384 -80h-128zM525 950v150h150v-150 h-150z" />
<glyph unicode="&#x62e;" arabic-form="medial" d="M-20 0v184h100q227 0 356 72q104 58 220 164q94 86 195 121q-83 23 -186 46q-85 19 -265 35q-82 7 -243 1v184q72 7 147 8q162 0 334 -35q258 -52 478 -150v-154q-65 -20 -138 -61q50 -78 80 -112q104 -119 158 -119h60v-184h-80q-151 0 -275 168q-40 54 -99 151 q-69 -46 -110 -83q-145 -129 -220 -156q-221 -80 -384 -80h-128zM525 950v150h150v-150h-150z" />
<glyph unicode="&#x62f;" arabic-form="isolated" d="M232 0v184q115 -42 248 -42q82 0 116 9q174 50 207 161q8 27 8 69q0 91 -60 194q-73 120 -239 299h227q107 -108 179 -239q82 -152 82 -257q0 -99 -32 -174q-80 -195 -342 -235q-46 -7 -140 -7q-151 0 -254 38z" />
<glyph unicode="&#x62f;" arabic-form="final" d="M232 0v184q115 -42 248 -42q82 0 116 9q173 46 207 161q8 27 8 69q0 93 -60 194q-69 115 -239 299h227q107 -108 179 -239q82 -149 82 -257q0 -68 82 -150q44 -44 143 -44h28v-184h-83q-147 0 -244 130q-94 -130 -300 -161q-46 -7 -140 -7q-151 0 -254 38z" />
<glyph unicode="&#x630;" arabic-form="isolated" d="M232 0v184q115 -42 248 -42q82 0 116 9q174 50 207 161q8 27 8 69q0 91 -60 194q-73 120 -239 299h227q107 -108 179 -239q82 -152 82 -257q0 -99 -32 -174q-80 -195 -342 -235q-46 -7 -140 -7q-151 0 -254 38zM524 1050v150h150v-150h-150z" />
<glyph unicode="&#x630;" arabic-form="final" d="M232 0v184q115 -42 248 -42q82 0 116 9q173 46 207 161q8 27 8 69q0 93 -60 194q-69 115 -239 299h227q107 -108 179 -239q82 -149 82 -257q0 -68 82 -150q44 -44 143 -44h28v-184h-83q-147 0 -244 130q-94 -130 -300 -161q-46 -7 -140 -7q-151 0 -254 38zM533 1050v150 h150v-150h-150z" />
<glyph unicode="&#x631;" arabic-form="isolated" d="M-52 -320q444 0 664 128q255 146 289 346q10 58 10 130q0 126 -53 262h184q50 -118 50 -250q0 -82 -8 -144q-41 -331 -372 -504q-273 -143 -764 -152v184z" />
<glyph unicode="&#x631;" arabic-form="final" d="M-160 -316q445 0 664 128q255 149 289 346q10 58 10 130q0 126 -53 262h184q30 -112 33 -142q10 -103 83 -180q42 -44 143 -44h60v-184h-115q-130 0 -180 62q-57 -253 -354 -411q-284 -151 -764 -151v184z" />
<glyph unicode="&#x632;" arabic-form="isolated" d="M-52 -320q444 0 664 128q255 146 289 346q10 58 10 130q0 126 -53 262h184q50 -118 50 -250q0 -82 -8 -144q-41 -331 -372 -504q-273 -143 -764 -152v184zM861 800v150h150v-150h-150z" />
<glyph unicode="&#x632;" arabic-form="final" d="M-160 -316q445 0 664 128q255 149 289 346q10 58 10 130q0 126 -53 262h184q30 -112 33 -142q10 -103 83 -180q42 -44 143 -44h60v-184h-115q-130 0 -180 62q-57 -253 -354 -411q-284 -151 -764 -151v184zM751 800v150h150v-150h-150z" />
<glyph unicode="&#x633;" arabic-form="isolated" d="M-220 -64q19 232 80 362h164q-88 -225 -82 -362q7 -172 40 -215q47 -59 94 -59q54 0 104 72q34 50 60 172q24 109 22 274q0 94 -16 186l-42 234h160l18 -156q16 -145 38 -180q48 -80 88 -83q46 -3 92 122q36 103 36 297h164q-4 -163 34 -304q31 -120 74 -120 q104 0 104 280v294h164v-342q0 -159 -62 -312q-33 -82 -118 -116q-22 -9 -100 -9q-66 0 -90 25q-65 67 -90 193q-31 -109 -100 -165q-51 -40 -124 -42q-48 -2 -96 78q-9 -168 -38 -262q-38 -121 -98 -198q-71 -92 -185 -92q-95 0 -196 100q-117 115 -99 328z" />
<glyph unicode="&#x633;" arabic-form="final" d="M-296 -64q20 232 80 362h164q-87 -225 -82 -362q8 -172 41 -215q46 -59 94 -59q53 0 103 72q35 50 61 172q24 109 22 274q-1 94 -17 186l-41 234h159l18 -156q17 -145 38 -180q49 -80 88 -83q47 -3 92 122q37 103 37 297h164q-4 -163 33 -304q32 -120 74 -120 q105 0 105 280v294h164v-342q0 -139 41 -180q44 -44 103 -44h8v-184h-63q-100 0 -160 96q-31 -97 -102 -116q-33 -9 -108 -9q-65 0 -90 25q-64 67 -90 193q-31 -109 -100 -165q-50 -40 -124 -42q-47 -2 -96 78q-8 -168 -38 -262q-37 -121 -98 -198q-71 -92 -184 -92 q-95 0 -196 100q-118 115 -100 328z" />
<glyph unicode="&#x633;" arabic-form="initial" d="M-20 0v184h42q76 0 112 35q70 71 70 189v192h164v-156q0 -79 26 -179q21 -84 92 -84q67 0 109 116q37 103 37 297h165q-5 -163 33 -304q31 -120 74 -120q104 0 104 280v294h164v-342q0 -159 -62 -312q-33 -82 -118 -116q-22 -9 -100 -9q-66 0 -90 25q-65 67 -90 193 q-31 -109 -101 -165q-51 -42 -124 -42q-50 0 -131 64q-44 35 -56 98q-21 -57 -90 -101q-59 -37 -160 -37h-70z" />
<glyph unicode="&#x633;" arabic-form="medial" d="M-20 0v184h42q55 0 86 35q64 71 64 189v192h162v-156q0 -79 26 -179q22 -84 70 -84t90 116q37 103 37 297h164q0 -166 33 -304q29 -120 82 -120q100 0 100 280v294h164v-342q0 -139 42 -180q44 -44 78 -44h34v-184h-64q-101 0 -160 96q-54 -88 -112 -115q-22 -10 -94 -10 q-79 0 -134 73q-42 54 -54 145q-30 -109 -100 -165q-51 -42 -104 -42q-67 0 -104 54q-38 55 -62 108q-20 -57 -90 -101q-58 -37 -126 -37h-70z" />
<glyph unicode="&#x634;" arabic-form="isolated" d="M-220 -64q19 232 80 362h164q-88 -225 -82 -362q7 -172 40 -215q47 -59 94 -59q54 0 104 72q34 50 60 172q24 109 22 274q0 94 -16 186l-42 234h160l18 -156q16 -145 38 -180q48 -80 88 -83q46 -3 92 122q36 103 36 297h164q-4 -163 34 -304q31 -120 74 -120 q104 0 104 280v294h164v-342q0 -159 -62 -312q-33 -82 -118 -116q-22 -9 -100 -9q-66 0 -90 25q-65 67 -90 193q-31 -109 -100 -165q-51 -40 -124 -42q-48 -2 -96 78q-9 -168 -38 -262q-38 -121 -98 -198q-71 -92 -185 -92q-95 0 -196 100q-117 115 -99 328zM310 800v150 h150v-150h-150zM435 1050v150h150v-150h-150zM560 800v150h150v-150h-150z" />
<glyph unicode="&#x634;" arabic-form="final" d="M-296 -64q20 232 80 362h164q-87 -225 -82 -362q8 -172 41 -215q46 -59 94 -59q53 0 103 72q35 50 61 172q24 109 22 274q-1 94 -17 186l-41 234h159l18 -156q17 -145 38 -180q49 -80 88 -83q47 -3 92 122q37 103 37 297h164q-4 -163 33 -304q32 -120 74 -120 q105 0 105 280v294h164v-342q0 -139 41 -180q44 -44 103 -44h8v-184h-63q-100 0 -160 96q-31 -97 -102 -116q-33 -9 -108 -9q-65 0 -90 25q-64 67 -90 193q-31 -109 -100 -165q-50 -40 -124 -42q-47 -2 -96 78q-8 -168 -38 -262q-37 -121 -98 -198q-71 -92 -184 -92 q-95 0 -196 100q-118 115 -100 328zM236 800v150h150v-150h-150zM361 1050v150h150v-150h-150zM486 800v150h150v-150h-150z" />
<glyph unicode="&#x634;" arabic-form="initial" d="M-20 0v184h42q76 0 112 35q70 71 70 189v192h164v-156q0 -79 26 -179q21 -84 92 -84q67 0 109 116q37 103 37 297h165q-5 -163 33 -304q31 -120 74 -120q104 0 104 280v294h164v-342q0 -159 -62 -312q-33 -82 -118 -116q-22 -9 -100 -9q-66 0 -90 25q-65 67 -90 193 q-31 -109 -101 -165q-51 -42 -124 -42q-50 0 -131 64q-44 35 -56 98q-21 -57 -90 -101q-59 -37 -160 -37h-70zM406 800v150h150v-150h-150zM531 1050v150h150v-150h-150zM656 800v150h150v-150h-150z" />
<glyph unicode="&#x634;" arabic-form="medial" d="M-20 0v184h42q55 0 86 35q64 71 64 189v192h162v-156q0 -79 26 -179q22 -84 70 -84t90 116q37 103 37 297h164q0 -166 33 -304q29 -120 82 -120q100 0 100 280v294h164v-342q0 -139 42 -180q44 -44 78 -44h34v-184h-64q-101 0 -160 96q-54 -88 -112 -115q-22 -10 -94 -10 q-79 0 -134 73q-42 54 -54 145q-30 -109 -100 -165q-51 -42 -104 -42q-67 0 -104 54q-38 55 -62 108q-20 -57 -90 -101q-58 -37 -126 -37h-70zM338 800v150h150v-150h-150zM463 1050v150h150v-150h-150zM588 800v150h150v-150h-150z" />
<glyph unicode="&#x635;" arabic-form="isolated" d="M-240 -72q0 188 100 360h172q-104 -204 -104 -360q0 -145 60 -195q50 -41 111 -38q66 4 103 63q65 106 65 242q0 104 -9 166q-33 212 -46 284h170q0 -15 14 -70q10 -40 50 -90q75 128 124 188q142 177 296 177q172 0 262 -82q88 -78 88 -199q0 -190 -184 -299 q-127 -75 -254 -75h-218q-37 0 -90 30q-44 26 -44 42q0 -175 -48 -306q-46 -129 -97 -172q-99 -86 -176 -86q-130 0 -221 90q-124 127 -124 330zM584 184h128q141 0 214 46q106 68 106 138q0 45 -40 82q-36 33 -100 33q-71 0 -174 -109q-76 -78 -134 -190z" />
<glyph unicode="&#x635;" arabic-form="final" d="M-315 -72q0 188 101 360h172q-104 -204 -104 -360q0 -145 60 -195q50 -41 110 -38q67 4 104 63q64 103 64 242q0 104 -9 166q-33 212 -46 284h171q-1 -15 13 -70q10 -40 50 -90q76 128 125 188q146 177 296 177q171 0 262 -82q87 -78 87 -199q0 -52 -31 -123 q16 -10 30 -23q46 -44 74 -44h39v-184h-59q-52 0 -154 94l-28 26q-172 -120 -308 -120h-218q-38 0 -90 30q-45 26 -45 42q0 -175 -47 -306q-47 -129 -98 -172q-102 -86 -176 -86q-130 0 -220 90q-125 125 -125 330zM509 184h129q140 0 213 46q106 68 106 138q0 45 -40 82 q-36 33 -99 33q-71 0 -175 -109q-75 -78 -134 -190z" />
<glyph unicode="&#x635;" arabic-form="initial" d="M-20 0v184h75q43 0 80 44q65 80 65 180v114h184v-78q0 -24 9 -64t54 -90q76 128 125 188q146 177 296 177q171 0 262 -82q87 -78 87 -199q0 -190 -184 -299q-126 -75 -253 -75h-218q-74 0 -152 42q-65 35 -104 96q-102 -138 -196 -138h-130zM585 184h129q140 0 213 46 q106 68 106 138q0 45 -40 82q-36 33 -99 33q-71 0 -175 -109q-75 -78 -134 -190z" />
<glyph unicode="&#x635;" arabic-form="medial" d="M-20 0v184h26q31 0 73 46q45 50 45 178v114h184v-78q0 -24 9 -64t54 -90q76 128 125 188q146 177 296 177q171 0 262 -82q87 -78 87 -199q0 -52 -31 -123q16 -10 30 -23q46 -44 74 -44h39v-184h-59q-52 0 -154 94l-28 26q-172 -120 -308 -120h-218q-74 0 -152 42 q-65 35 -104 96q-102 -138 -170 -138h-80zM509 184h129q140 0 213 46q106 68 106 138q0 45 -40 82q-36 33 -99 33q-71 0 -175 -109q-75 -78 -134 -190z" />
<glyph unicode="&#x636;" arabic-form="isolated" d="M-240 -72q0 188 100 360h172q-104 -204 -104 -360q0 -145 60 -195q50 -41 111 -38q66 4 103 63q65 106 65 242q0 104 -9 166q-33 212 -46 284h170q0 -15 14 -70q10 -40 50 -90q75 128 124 188q142 177 296 177q172 0 262 -82q88 -78 88 -199q0 -190 -184 -299 q-127 -75 -254 -75h-218q-37 0 -90 30q-44 26 -44 42q0 -175 -48 -306q-46 -129 -97 -172q-99 -86 -176 -86q-130 0 -221 90q-124 127 -124 330zM335 670v150h150v-150h-150zM584 184h128q141 0 214 46q106 68 106 138q0 45 -40 82q-36 33 -100 33q-71 0 -174 -109 q-76 -78 -134 -190z" />
<glyph unicode="&#x636;" arabic-form="final" d="M-315 -72q0 188 101 360h172q-104 -204 -104 -360q0 -145 60 -195q50 -41 110 -38q67 4 104 63q64 103 64 242q0 104 -9 166q-33 212 -46 284h171q-1 -15 13 -70q10 -40 50 -90q76 128 125 188q146 177 296 177q171 0 262 -82q87 -78 87 -199q0 -52 -31 -123 q16 -10 30 -23q46 -44 74 -44h39v-184h-59q-52 0 -154 94l-28 26q-172 -120 -308 -120h-218q-38 0 -90 30q-45 26 -45 42q0 -175 -47 -306q-47 -129 -98 -172q-102 -86 -176 -86q-130 0 -220 90q-125 125 -125 330zM260 670v150h150v-150h-150zM509 184h129q140 0 213 46 q106 68 106 138q0 45 -40 82q-36 33 -99 33q-71 0 -175 -109q-75 -78 -134 -190z" />
<glyph unicode="&#x636;" arabic-form="initial" d="M-20 0v184h75q43 0 80 44q65 80 65 180v114h184v-78q0 -24 9 -64t54 -90q76 128 125 188q146 177 296 177q171 0 262 -82q87 -78 87 -199q0 -190 -184 -299q-126 -75 -253 -75h-218q-74 0 -152 42q-65 35 -104 96q-102 -138 -196 -138h-130zM343 736v150h150v-150h-150z M585 184h129q140 0 213 46q106 68 106 138q0 45 -40 82q-36 33 -99 33q-71 0 -175 -109q-75 -78 -134 -190z" />
<glyph unicode="&#x636;" arabic-form="medial" d="M-20 0v184h26q31 0 73 46q45 50 45 178v114h184v-78q0 -24 9 -64t54 -90q76 128 125 188q146 177 296 177q171 0 262 -82q87 -78 87 -199q0 -52 -31 -123q16 -10 30 -23q46 -44 74 -44h39v-184h-59q-52 0 -154 94l-28 26q-172 -120 -308 -120h-218q-74 0 -152 42 q-65 35 -104 96q-102 -138 -170 -138h-80zM308 722v150h150v-150h-150zM509 184h129q140 0 213 46q106 68 106 138q0 45 -40 82q-36 33 -99 33q-71 0 -175 -109q-75 -78 -134 -190z" />
<glyph unicode="&#x637;" arabic-form="isolated" d="M10 0v184h224v1372h184v-1266q76 128 125 188q142 177 296 177q171 0 262 -82q87 -78 87 -199q0 -190 -184 -299q-126 -75 -253 -75h-517h-224zM556 184h129q140 0 213 46q106 68 106 138q0 45 -40 82q-36 33 -99 33q-71 0 -175 -109q-75 -78 -134 -190z" />
<glyph unicode="&#x637;" arabic-form="final" d="M20 0v184h178v1372h184v-1266q76 128 125 188q146 177 296 177q171 0 262 -82q87 -78 87 -199q0 -53 -42 -123q61 -67 98 -67h45v-184h-58q-93 0 -178 79l-28 26q-125 -105 -274 -105h-517h-178zM520 184h129q140 0 213 46q106 68 106 138q0 45 -40 82q-36 33 -99 33 q-71 0 -175 -109q-75 -78 -134 -190z" />
<glyph unicode="&#x637;" arabic-form="initial" d="M-20 0v184h254v1372h184v-1266q76 128 125 188q142 177 296 177q171 0 262 -82q87 -78 87 -199q0 -190 -184 -299q-126 -75 -253 -75h-517h-254zM556 184h129q140 0 213 46q106 68 106 138q0 45 -40 82q-36 33 -99 33q-71 0 -175 -109q-75 -78 -134 -190z" />
<glyph unicode="&#x637;" arabic-form="medial" d="M-20 0v184h218v1372h184v-1266q76 128 125 188q146 177 296 177q171 0 262 -82q87 -78 87 -199q0 -53 -42 -123q61 -67 98 -67h45v-184h-58q-93 0 -178 79l-28 26q-125 -105 -274 -105h-517h-218zM520 184h129q140 0 213 46q106 68 106 138q0 45 -40 82q-36 33 -99 33 q-71 0 -175 -109q-75 -78 -134 -190z" />
<glyph unicode="&#x638;" arabic-form="isolated" d="M10 0v184h224v1372h184v-1266q76 128 125 188q142 177 296 177q171 0 262 -82q87 -78 87 -199q0 -190 -184 -299q-126 -75 -253 -75h-517h-224zM556 184h129q140 0 213 46q106 68 106 138q0 45 -40 82q-36 33 -99 33q-71 0 -175 -109q-75 -78 -134 -190zM579 768v150h150 v-150h-150z" />
<glyph unicode="&#x638;" arabic-form="final" d="M20 0v184h178v1372h184v-1266q76 128 125 188q146 177 296 177q171 0 262 -82q87 -78 87 -199q0 -53 -42 -123q61 -67 98 -67h45v-184h-58q-93 0 -178 79l-28 26q-125 -105 -274 -105h-517h-178zM520 184h129q140 0 213 46q106 68 106 138q0 45 -40 82q-36 33 -99 33 q-71 0 -175 -109q-75 -78 -134 -190zM579 768v150h150v-150h-150z" />
<glyph unicode="&#x638;" arabic-form="initial" d="M-20 0v184h254v1372h184v-1266q76 128 125 188q142 177 296 177q171 0 262 -82q87 -78 87 -199q0 -190 -184 -299q-126 -75 -253 -75h-517h-254zM556 184h129q140 0 213 46q106 68 106 138q0 45 -40 82q-36 33 -99 33q-71 0 -175 -109q-75 -78 -134 -190zM579 768v150 h150v-150h-150z" />
<glyph unicode="&#x638;" arabic-form="medial" d="M-20 0v184h218v1372h184v-1266q76 128 125 188q146 177 296 177q171 0 262 -82q87 -78 87 -199q0 -53 -42 -123q61 -67 98 -67h45v-184h-58q-93 0 -178 79l-28 26q-125 -105 -274 -105h-517h-218zM520 184h129q140 0 213 46q106 68 106 138q0 45 -40 82q-36 33 -99 33 q-71 0 -175 -109q-75 -78 -134 -190zM579 768v150h150v-150h-150z" />
<glyph unicode="&#x639;" arabic-form="isolated" d="M122 0q0 177 87 278q113 131 190 156q-51 4 -98 34q-88 56 -88 186q0 208 204 335q124 77 376 77v-169q-195 0 -311 -65q-93 -52 -93 -156q0 -75 48 -100q45 -24 91 -24q40 0 81 18q158 69 412 98v-184q-273 -26 -509 -175q-209 -131 -209 -316q0 -117 41 -170 q119 -158 458 -158q193 0 405 118v-184q-150 -99 -400 -99q-421 0 -587 188q-98 111 -98 312z" />
<glyph unicode="&#x639;" arabic-form="final" d="M148 0q0 212 187 352q-61 50 -99 122q-30 57 -30 84q0 31 13 72q16 55 120 107q89 45 208 45t208 -45q101 -51 120 -107q13 -38 13 -72q0 -62 -69 -118q-118 -96 -173 -115q68 -64 155 -101q95 -40 243 -40h224v-184h-208q-329 0 -577 228q-154 -129 -154 -235 q0 -109 41 -170q107 -158 458 -158q193 0 405 118v-184q-150 -98 -400 -99q-430 -2 -587 188q-98 119 -98 312zM444 546q0 -36 70 -101q134 55 136 101q1 32 -47 44q-30 7 -56 7t-56 -7q-47 -12 -47 -44z" />
<glyph unicode="&#x639;" arabic-form="initial" d="M-20 0v184h81q161 0 363 93q-75 24 -127 83q-88 100 -88 240q0 264 204 389q125 77 376 77v-169q-218 0 -311 -68.5t-93 -196t62 -179.5q83 -70 153 -70q56 0 129 33l288 129v-184l-420 -197q-350 -164 -528 -164h-89z" />
<glyph unicode="&#x639;" arabic-form="medial" d="M-20 0v184h218q107 0 173 40q59 36 99 75q-97 85 -165 175q-30 39 -30 84q0 31 13 72q16 55 120 107q89 45 208 45t208 -45q102 -51 120 -107q13 -41 13 -72q0 -45 -30 -84q-77 -98 -165 -175q31 -31 99 -75q61 -40 173 -40h219v-184h-241q-202 0 -396 185 q-194 -185 -396 -185h-240zM513 546q0 -29 103 -124q103 95 103 124q0 32 -47 44q-30 7 -56 7t-56 -7q-47 -12 -47 -44z" />
<glyph unicode="&#x63a;" arabic-form="isolated" d="M122 0q0 177 87 278q113 131 190 156q-51 4 -98 34q-88 56 -88 186q0 208 204 335q124 77 376 77v-169q-195 0 -311 -65q-93 -52 -93 -156q0 -75 48 -100q45 -24 91 -24q40 0 81 18q158 69 412 98v-184q-273 -26 -509 -175q-209 -131 -209 -316q0 -117 41 -170 q119 -158 458 -158q193 0 405 118v-184q-150 -99 -400 -99q-421 0 -587 188q-98 111 -98 312zM375 1200v150h150v-150h-150z" />
<glyph unicode="&#x63a;" arabic-form="final" d="M148 0q0 212 187 352q-61 50 -99 122q-30 57 -30 84q0 31 13 72q16 55 120 107q89 45 208 45t208 -45q101 -51 120 -107q13 -38 13 -72q0 -62 -69 -118q-118 -96 -173 -115q68 -64 155 -101q95 -40 243 -40h224v-184h-208q-329 0 -577 228q-154 -129 -154 -235 q0 -109 41 -170q107 -158 458 -158q193 0 405 118v-184q-150 -98 -400 -99q-430 -2 -587 188q-98 119 -98 312zM444 546q0 -36 70 -101q134 55 136 101q1 32 -47 44q-30 7 -56 7t-56 -7q-47 -12 -47 -44zM470 950v150h150v-150h-150z" />
<glyph unicode="&#x63a;" arabic-form="initial" d="M-20 0v184h81q161 0 363 93q-75 24 -127 83q-88 100 -88 240q0 264 204 389q125 77 376 77v-169q-218 0 -311 -68.5t-93 -196t62 -179.5q83 -70 153 -70q56 0 129 33l288 129v-184l-420 -197q-350 -164 -528 -164h-89zM375 1200v150h150v-150h-150z" />
<glyph unicode="&#x63a;" arabic-form="medial" d="M-20 0v184h218q107 0 173 40q59 36 99 75q-97 85 -165 175q-30 39 -30 84q0 31 13 72q16 55 120 107q89 45 208 45t208 -45q102 -51 120 -107q13 -41 13 -72q0 -45 -30 -84q-77 -98 -165 -175q31 -31 99 -75q61 -40 173 -40h219v-184h-241q-202 0 -396 185 q-194 -185 -396 -185h-240zM513 546q0 -29 103 -124q103 95 103 124q0 32 -47 44q-30 7 -56 7t-56 -7q-47 -12 -47 -44zM539 950v150h150v-150h-150z" />
<glyph unicode="&#x641;" arabic-form="isolated" d="M-74 314q-2 138 34 230h184q-36 -94 -36 -230q0 -147 120 -192q90 -34 221 -34q127 0 211 22q188 50 236 78q65 40 103 144q-63 -76 -185 -76q-133 0 -208 68q-98 86 -98 216q0 44 8 96q23 148 173 216q78 36 154 36q90 0 156 -50q96 -72 142 -174q23 -51 23 -190 q0 -325 -100 -404q-105 -84 -272 -122q-178 -40 -343 -40q-163 0 -277 41q-244 88 -246 365zM698 560q0 -82 55 -118q38 -26 82 -26q72 0 96 24q41 44 41 120q0 57 -66 110q-31 26 -75 24q-52 0 -92 -42t-41 -92zM752 1066v150h150v-150h-150z" />
<glyph unicode="&#x641;" arabic-form="final" d="M-150 314q0 138 64 230h184q-66 -94 -66 -230q0 -125 170 -194q71 -29 202 -29q112 0 263 58q-34 27 -63 71q-82 124 -82 232q0 39 4 67q22 155 210 230q58 23 110 23q82 0 163 -50q139 -84 155 -233q4 -37 4 -67q0 -131 -80 -237q9 -1 16 -1h149v-184h-154 q-105 0 -216 36q-61 -33 -179 -69q-182 -56 -306 -58q-139 -2 -252 38q-294 103 -296 367zM710 447q0 -43 41 -109q49 -78 132 -115q104 65 104 174q0 20 -5 47q-14 71 -66 110q-34 25 -74 25q-24 0 -46 -10q-61 -25 -80 -85q-6 -19 -6 -37zM758 950v150h150v-150h-150z" />
<glyph unicode="&#x641;" arabic-form="initial" d="M-20 0v184h241q84 0 235 23q79 12 139 105q31 48 46 98q-63 -55 -160 -57q-130 -2 -208 67q-98 87 -98 216q0 52 8 96q23 148 173 217q78 36 154 36q90 0 156 -50q96 -72 142 -174q23 -51 23 -191q0 -208 -78 -351q-74 -136 -198 -180q-109 -39 -254 -39h-321zM365 656 q0 -80 55 -118q40 -25 82 -25q72 0 96 24q41 43 41 120q0 59 -66 110q-31 25 -75 24q-52 -1 -92 -43q-40 -41 -41 -92zM425 1150v150h150v-150h-150z" />
<glyph unicode="&#x641;" arabic-form="medial" d="M-20 0v184h226q146 0 186 17q-30 40 -66 117q-20 46 -20 122q0 44 8 92q23 143 208 230q30 14 94 14t96 -14q183 -80 208 -230q8 -50 8 -92q0 -73 -22 -122q-28 -67 -64 -117q38 -17 186 -17h225v-184h-315q-136 0 -322 57q-184 -57 -320 -57h-316zM494 447q0 -43 24 -96 q30 -68 98 -90q64 21 100 90q24 50 24 96q0 24 -10 50q-24 52 -80 85q-20 10 -34 10t-32 -10q-56 -32 -80 -85q-10 -21 -10 -50zM546 1000v150h150v-150h-150z" />
<glyph unicode="&#x642;" arabic-form="isolated" d="M31 36q0 180 82 396h183q-86 -187 -88 -340q0 -72 18 -112q86 -176 226 -176q212 2 310 104q203 212 203 520q-63 -75 -185 -75q-133 0 -208 67q-98 87 -98 216q0 45 8 96q23 148 173 217q78 36 154 36q99 0 156 -50q103 -90 142 -209q33 -102 33 -262q0 -252 -46 -394 q-57 -179 -222 -310q-187 -148 -420 -147q-206 1 -344 192q-77 106 -77 231zM605 1150v150h150v-150h-150zM664 656q0 -80 55 -118q40 -25 82 -25q72 0 96 24q41 43 41 120q0 59 -66 110q-31 25 -75 24q-52 -1 -92 -43q-40 -41 -41 -92zM855 1150v150h150v-150h-150z" />
<glyph unicode="&#x642;" arabic-form="final" d="M-19 -37q0 166 62 262h184q-62 -107 -62 -262q0 -73 27 -134q58 -130 253 -130q108 0 225 60q158 81 238 251q-66 5 -112 18q-121 35 -178 78q-147 109 -147 294q0 61 6 87q40 165 187 234q41 19 128 19q112 0 168 -50q99 -88 149 -233q20 -58 26 -272q26 -1 30 -1h88 v-184h-93h-48q-30 -83 -106 -192q-104 -149 -246 -223q-151 -78 -315 -77q-301 2 -395 192q-69 138 -69 263zM590 875v150h150v-150h-150zM657 397q0 -60 57 -104q76 -59 176 -79q47 -9 61 -11q4 122 -18 209q-19 75 -66 110q-34 25 -73 25q-34 0 -55 -10q-53 -28 -72 -85 q-10 -30 -10 -55zM840 875v150h150v-150h-150z" />
<glyph unicode="&#x642;" arabic-form="initial" d="M-20 0v184h241q84 0 235 23q79 12 139 105q31 48 46 98q-63 -55 -160 -57q-130 -2 -208 67q-98 87 -98 216q0 52 8 96q23 148 173 217q78 36 154 36q90 0 156 -50q96 -72 142 -174q23 -51 23 -191q0 -208 -78 -351q-74 -136 -198 -180q-109 -39 -254 -39h-321zM300 1150 v150h150v-150h-150zM365 656q0 -80 55 -118q40 -25 82 -25q72 0 96 24q41 43 41 120q0 59 -66 110q-31 25 -75 24q-52 -1 -92 -43q-40 -41 -41 -92zM550 1150v150h150v-150h-150z" />
<glyph unicode="&#x642;" arabic-form="medial" d="M-20 0v184h226q146 0 186 17q-30 40 -66 117q-20 46 -20 122q0 44 8 92q23 143 208 230q30 14 94 14t96 -14q183 -80 208 -230q8 -50 8 -92q0 -73 -22 -122q-28 -67 -64 -117q38 -17 186 -17h225v-184h-315q-136 0 -322 57q-184 -57 -320 -57h-316zM406 1000v150h150 v-150h-150zM494 447q0 -43 24 -96q30 -68 98 -90q64 21 100 90q24 50 24 96q0 24 -10 50q-24 52 -80 85q-20 10 -34 10t-32 -10q-56 -32 -80 -85q-10 -21 -10 -50zM656 1000v150h150v-150h-150z" />
<glyph unicode="&#x643;" arabic-form="isolated" d="M8 260q0 75 16 128h184q-14 -58 -14 -102q2 -93 154 -138q121 -35 208 -35q127 0 189 27q119 52 202 141q52 56 52 330v945h184v-945q0 -358 -86 -450q-130 -136 -197 -161q-155 -55 -339 -55q-173 -2 -336 55q-217 76 -217 260zM269 582v88q68 -10 113 -10q60 0 117 26 q60 26 60 56q0 38 -78 55q-74 16 -92 44q-32 47 -31 93q2 81 77 119q85 43 200 47v-82q-74 -4 -112 -18q-80 -30 -80 -63q0 -28 14 -46q12 -16 80 -26q102 -15 102 -103q0 -110 -88 -152q-82 -39 -160 -39q-66 0 -122 11z" />
<glyph unicode="&#x643;" arabic-form="final" d="M-95 260q0 75 16 128h184q-14 -58 -14 -102q0 -93 154 -138q121 -35 208 -35q117 0 215 38q81 35 155 130q52 67 52 330v945h184v-1173q0 -106 49 -155q44 -44 70 -44h75v-184h-130q-80 0 -193 123q-91 -78 -170 -123q-103 -53 -302 -55q-173 -2 -336 55 q-217 76 -217 260zM166 582v88q68 -10 113 -10q60 0 117 26q60 26 60 56q0 38 -78 55q-74 16 -92 44q-32 47 -31 93q2 81 77 119q85 43 200 47v-82q-74 -4 -112 -18q-80 -30 -80 -63q0 -28 14 -46q12 -16 80 -26q102 -15 102 -103q0 -110 -88 -152q-82 -39 -160 -39 q-66 0 -122 11z" />
<glyph unicode="&#x643;" arabic-form="initial" d="M-20 0v184h402q147 0 193 104q16 36 16 72q0 69 -54 135l-310 380q-50 61 -50 142q0 30 10 68q31 118 135 161l745 310v-186l-595 -250q-71 -30 -92 -70q-6 -11 -6 -36q0 -32 31 -69l275 -330q102 -122 102 -246q0 -113 -62 -214q-95 -155 -318 -155h-422z" />
<glyph unicode="&#x643;" arabic-form="medial" d="M-20 0v184h412q147 0 194 104q16 36 16 72q0 69 -54 135l-310 380q-50 61 -50 142q0 30 10 68q30 118 134 161l746 310v-186l-596 -250q-70 -30 -92 -70q-6 -11 -6 -36q0 -32 32 -69l582 -705q22 -26 60 -40q44 -16 108 -16h88v-184h-132q-66 0 -124 24q-102 43 -136 84 l-96 120q-22 -46 -38 -73q-96 -155 -316 -155h-432z" />
<glyph unicode="&#x644;" arabic-form="isolated" d="M67 75q-1 138 63 230h184q-65 -115 -65 -230q0 -126 166 -192q40 -16 113 -16q105 0 189 34q99 41 168 172q30 57 30 353v1130h184v-1130q0 -390 -50 -461q-108 -156 -209 -205q-150 -72 -312 -72q-99 0 -218 42q-242 86 -243 345z" />
<glyph unicode="&#x644;" arabic-form="final" d="M10 75q-1 138 63 230h184q-65 -115 -65 -230q0 -126 166 -192q40 -16 113 -16q105 0 189 34q99 41 168 172q30 57 30 353v1130h184v-1173q0 -106 49 -155q44 -44 87 -44h75v-184h-130q-56 0 -134 51q-15 -93 -66 -156q-104 -126 -233 -173q-94 -34 -219 -34 q-99 0 -218 42q-242 86 -243 345z" />
<glyph unicode="&#x644;" arabic-form="initial" d="M-20 0v184h526q218 0 262 44q49 49 49 155v1173h184v-1185q0 -178 -87 -279q-80 -92 -352 -92h-582z" />
<glyph unicode="&#x644;" arabic-form="medial" d="M-20 0v184h234q218 0 262 44q48 49 48 155v1173h184v-1173q0 -106 50 -155q44 -44 262 -44h233v-184h-289q-268 0 -348 86q-76 -86 -348 -86h-288z" />
<glyph unicode="&#x645;" arabic-form="isolated" d="M130 0q0 173 120 275q65 55 155 55q-2 42 -2 82q0 148 162 280q77 63 169 63q77 0 156 -36q182 -83 210 -250q8 -45 8 -101q0 -146 -98 -211q-120 -80 -208 -80q-178 -2 -322 78q-50 28 -125 -50q-25 -26 -25 -105v-492h-200v492zM590 388q0 -40 10 -93q122 -42 198 -42 q44 0 65 22q53 57 53 115q0 24 -6 44q-21 88 -80 105q-40 12 -86 12q-59 0 -86 -27q-68 -68 -68 -136z" />
<glyph unicode="&#x645;" arabic-form="final" d="M71 -127q0 173 120 275q65 55 138 55q-2 42 -2 82q0 148 162 280q77 63 169 63q72 0 156 -36q170 -71 210 -250q14 -64 55 -111t143 -47h31v-184h-86q-173 0 -205 52q-15 -14 -28 -22q-133 -80 -208 -80q-210 0 -322 78q-35 25 -108 -50q-25 -26 -25 -105v-365h-200v365z M514 261q0 -40 10 -93q122 -42 198 -42q44 0 65 22q53 57 53 115q0 24 -6 44q-21 88 -80 105q-40 12 -86 12q-59 0 -86 -27q-68 -68 -68 -136z" />
<glyph unicode="&#x645;" arabic-form="initial" d="M-20 0v184h116q52 0 96 36q43 35 48 84q20 181 155 261q94 56 187 56q69 0 138 -29q189 -79 210 -250q4 -36 4 -78q0 -142 -66 -212q-96 -101 -236 -102q-212 -2 -324 98q-64 -48 -168 -48h-160zM406 199q62 -69 221 -69q47 0 66 18q52 53 52 122q0 19 -5 37 q-22 88 -80 105q-39 12 -78 12q-53 0 -94 -27q-50 -33 -65 -130q-7 -37 -17 -68z" />
<glyph unicode="&#x645;" arabic-form="medial" d="M-20 0v184h140q52 0 96 36q43 35 48 84q20 181 155 261q94 56 187 56q72 0 138 -29q193 -83 210 -250q5 -49 56 -111q38 -47 143 -47h100v-184h-155q-174 0 -206 52q-97 -102 -236 -102q-214 0 -324 98q-64 -48 -168 -48h-184zM430 199q62 -69 221 -69q47 0 66 18 q52 53 52 122q0 19 -5 37q-22 88 -80 105q-39 12 -78 12q-53 0 -94 -27q-46 -30 -65 -130q-7 -37 -17 -68z" />
<glyph unicode="&#x646;" arabic-form="isolated" d="M54 126q0 174 53 316h184q-55 -174 -55 -316q0 -180 161 -247q57 -24 186 -24q84 0 147 20q157 51 215 218q34 98 34 194q0 249 -70 401h184q72 -159 72 -433q0 -187 -100 -351q-71 -116 -213 -176q-140 -59 -269 -59q-172 0 -295 63q-234 120 -234 394zM467 750v150h150 v-150h-150z" />
<glyph unicode="&#x646;" arabic-form="final" d="M-43 -43q0 174 53 316h184q-55 -174 -55 -316q0 -180 161 -247q57 -24 186 -24q84 0 147 20q157 51 215 218q33 94 33 213q0 184 -101 387h184q17 -51 52 -136q34 -84 65 -140q35 -64 121 -64h52v-184h-94q-87 0 -101 48q-6 -173 -91 -313q-71 -116 -213 -176 q-140 -59 -269 -59q-172 0 -295 63q-234 120 -234 394zM375 537v150h150v-150h-150z" />
<glyph unicode="&#x646;" arabic-form="initial" d="M-20 0v184h158q285 0 329 44q49 49 49 155v217h184v-217q0 -187 -92 -297q-72 -86 -415 -86h-213zM528 850v150h150v-150h-150z" />
<glyph unicode="&#x646;" arabic-form="medial" d="M-20 0v184h280q162 0 206 44q48 49 48 155v217h184v-217q0 -106 50 -155q44 -44 207 -44h298v-184h-353q-214 0 -294 86q-76 -86 -291 -86h-335zM533 850v150h150v-150h-150z" />
<glyph unicode="&#x647;" arabic-form="isolated" d="M222 290q0 181 37 259q84 185 231 185q198 0 380 -160q141 -124 141 -272q-1 -200 -148 -275q-165 -85 -297 -85q-96 0 -177 35q-167 74 -167 313zM402 275q1 -82 56 -126q57 -44 114 -44q91 0 184 57q75 46 75 131q0 77 -66 142q-123 120 -239 119q-66 0 -99 -87 q-26 -69 -25 -192z" />
<glyph unicode="&#x647;" arabic-form="final" d="M242 285q0 173 204 300q109 68 260 83q-4 39 -7 82h184q1 -168 37 -342q21 -101 77 -180q31 -44 143 -44h113v-184h-168q-90 0 -163 51q-45 31 -83 90q-138 -73 -294 -73q-56 0 -114 15q-189 48 -189 202zM409 294q1 -41 91 -66t273 54q-15 42 -28 91q-13 50 -25 151 q-120 -12 -202 -79q-111 -89 -109 -151z" />
<glyph unicode="&#x647;" arabic-form="initial" d="M-20 0v184h145q52 0 130 11q-45 105 -60 174q-18 78 -18 142q0 84 45 167q48 90 125 81q-44 39 -125 53v185q219 -67 439 -247q261 -214 320 -431q14 -52 14 -109q0 -103 -40 -164q-74 -113 -249 -113q-131 0 -285 108q-120 -41 -266 -41h-175zM346 505q0 -30 7 -67 q21 -118 89 -169q36 27 70 91q39 72 39 133q0 46 -15 83q-22 52 -80 52q-65 0 -88 -45q-22 -43 -22 -78zM580 147q52 -46 101 -46q126 0 142 67q7 30 7 63q0 60 -33 138q-29 69 -96 139q6 -37 6 -76q0 -138 -98 -252q-12 -14 -29 -33z" />
<glyph unicode="&#x647;" arabic-form="medial" d="M-20 0v184h320q9 266 138 392q108 107 237 107q138 0 207 -99q46 -67 46 -181q0 -111 -163 -219h488v-184h-488q163 -108 163 -219q0 -114 -46 -181q-69 -99 -207 -99q-129 0 -237 107q-129 128 -138 392h-320zM484 0q0 -117 38 -189q74 -141 149 -141q84 0 84 112 q0 52 -114 142q-96 76 -138 76h-19zM484 184h19q42 0 138 76q114 90 114 142q0 112 -84 112q-75 0 -149 -141q-38 -72 -38 -189z" />
<glyph unicode="&#x648;" arabic-form="isolated" d="M76 -316q371 0 532 76q224 104 273 243q-118 3 -163 10q-139 24 -190 67q-116 98 -116 235q0 217 211 307q57 24 119 24q89 0 161 -51q131 -91 155 -233q17 -102 17 -178q0 -294 -172 -468q-45 -46 -231 -130q-190 -86 -596 -86v184zM606 326q0 -55 51 -98 q47 -40 239 -44q0 184 -86 243q-37 25 -73 25q-63 0 -107 -57q-24 -33 -24 -69z" />
<glyph unicode="&#x648;" arabic-form="final" d="M90 -316q361 0 493 76q168 95 230 243q-118 3 -163 10q-139 24 -190 67q-106 89 -116 224q-2 31 8 88q27 155 203 230q59 25 124 24q87 -2 156 -51q133 -92 155 -233q13 -83 17 -178h246v-184h-194l-70 1q-25 -156 -154 -285q-83 -83 -188 -130q-192 -86 -557 -86v184z M542 357q-17 -75 47 -129q47 -40 239 -44q0 76 -16 133q-24 80 -70 110q-60 41 -120 15q-67 -29 -80 -85z" />
<glyph unicode="&#x649;" arabic-form="isolated" d="M25 122q0 117 63 230h184q-66 -131 -65 -230q2 -147 166 -192q75 -20 158 -20q120 0 228 35q107 35 172 113q59 71 59 105q0 46 -27 88q-34 51 -166 109q-98 44 -97 175q1 150 95 211q77 50 173 50q143 0 198 -73q50 -66 67 -203h-184q0 61 -19 86q-27 34 -66 30 q-20 -2 -44 -22q-35 -30 -35 -87q0 -41 125 -85q91 -32 146 -135q31 -58 32 -152q1 -77 -43 -143q-132 -195 -356 -243q-177 -38 -270 -38q-129 0 -201 26q-293 104 -293 365z" />
<glyph unicode="&#x649;" arabic-form="final" d="M-132 18q-6 92 30 230h178q-26 -80 -26 -196q1 -106 142 -132q69 -13 182 -13q130 0 188 17q128 37 148 52q60 46 59 75q-2 44 -11 56q-24 36 -48 61q-44 46 -44 107q0 78 41 125q77 91 164 108q29 6 73 6q130 0 176 -138q64 -192 98 -192h35v-184h-35q-127 0 -194 172 q-64 165 -94 165q-34 -1 -50 -17q-20 -18 -20 -50q0 -3 42 -72q53 -87 53 -147q0 -83 -78 -166q-104 -111 -285 -137q-140 -20 -216 -20q-121 0 -268 36q-228 56 -240 254z" />
<glyph unicode="&#x64a;" arabic-form="isolated" d="M25 122q0 117 63 230h184q-66 -131 -65 -230q2 -147 166 -192q75 -20 158 -20q120 0 228 35q107 35 172 113q59 71 59 105q0 46 -27 88q-34 51 -166 109q-98 44 -97 175q1 150 95 211q77 50 173 50q143 0 198 -73q50 -66 67 -203h-184q0 61 -19 86q-27 34 -66 30 q-20 -2 -44 -22q-35 -30 -35 -87q0 -41 125 -85q91 -32 146 -135q31 -58 32 -152q1 -77 -43 -143q-132 -195 -356 -243q-177 -38 -270 -38q-129 0 -201 26q-293 104 -293 365zM345 -350h150v-150h-150v150zM595 -350h150v-150h-150v150z" />
<glyph unicode="&#x64a;" arabic-form="final" d="M-132 18q-6 92 30 230h178q-26 -80 -26 -196q1 -106 142 -132q69 -13 182 -13q130 0 188 17q128 37 148 52q60 46 59 75q-2 44 -11 56q-24 36 -48 61q-44 46 -44 107q0 78 41 125q77 91 164 108q29 6 73 6q130 0 176 -138q64 -192 98 -192h35v-184h-35q-127 0 -194 172 q-64 165 -94 165q-34 -1 -50 -17q-20 -18 -20 -50q0 -3 42 -72q53 -87 53 -147q0 -83 -78 -166q-104 -111 -285 -137q-140 -20 -216 -20q-121 0 -268 36q-228 56 -240 254zM192 -350h150v-150h-150v150zM442 -350h150v-150h-150v150z" />
<glyph unicode="&#x64a;" arabic-form="initial" d="M-20 0v184h158q285 0 329 44q49 49 49 155v217h184v-217q0 -187 -92 -297q-72 -86 -415 -86h-213zM386 -150h150v-150h-150v150zM636 -150h150v-150h-150v150z" />
<glyph unicode="&#x64a;" arabic-form="medial" d="M-20 0v184h280q162 0 206 44q48 49 48 155v217h184v-217q0 -106 50 -155q44 -44 207 -44h298v-184h-353q-214 0 -294 86q-76 -86 -291 -86h-335zM403 -150h150v-150h-150v150zM653 -150h150v-150h-150v150z" />
<glyph unicode="&#xd;" />
<glyph unicode=" " />
<glyph unicode="!" d="M516 0v254h203v-254h-203zM516 838v655h203v-655l-21 -357h-161z" />
<glyph unicode="&#x22;" d="M338 938v555h174v-555h-174zM721 938v555h174v-555h-174z" />
<glyph unicode="#" d="M2 414v153h297l84 334h-266v154h303l104 415h160l-104 -415h245l105 415h160l-105 -415h244v-154h-281l-84 -334h250v-153h-289l-104 -414h-160l105 414h-246l-105 -414h-159l104 414h-258zM459 567h246l83 334h-245z" />
<glyph unicode="$" d="M190 92v180q100 -62 201.5 -95t200.5 -35v458q-200 31 -301 122t-101 241q0 157 105.5 250.5t296.5 107.5v235h100l1 -235q79 -5 160 -20t165 -41v-173q-85 43 -165.5 66.5t-160.5 27.5v-431q206 -31 314 -128t108 -251t-116.5 -257t-304.5 -112l-1 -303h-100l-1 301 q-102 5 -202.5 28t-198.5 64zM371 973q0 -86 54.5 -136t166.5 -67v413q-104 -4 -162.5 -60t-58.5 -150zM692 146q110 3 172 61t62 158q0 93 -56 144.5t-178 70.5v-434z" />
<glyph unicode="%" d="M33 1112q0 135 92 227.5t227 92.5q64 0 122.5 -24t103.5 -69t69.5 -103.5t24.5 -123.5q0 -134 -93 -226.5t-227 -92.5q-135 0 -227 92t-92 227zM86 561l1042 418l41 -96l-1048 -418zM168 1112q0 -79 52.5 -131.5t131.5 -52.5q77 0 131 53.5t54 130.5t-54 130.5t-131 53.5 t-130.5 -53t-53.5 -131zM561 319q0 135 92 227.5t226 92.5q64 0 121.5 -24t103.5 -70q46 -47 71 -105t25 -121q0 -133 -93 -226t-228 -93q-136 0 -227 91.5t-91 227.5zM696 319q0 -78 52.5 -131t130.5 -53q77 0 130.5 53.5t53.5 130.5t-54 131t-130 54q-78 0 -130.5 -53 t-52.5 -132z" />
<glyph unicode="&#x26;" d="M57 444q0 137 69 254t208 217q-50 72 -74 141t-24 140q0 150 99.5 237t272.5 87q65 0 130.5 -12t135.5 -35v-183q-59 39 -121.5 57.5t-131.5 18.5q-97 0 -153 -45.5t-56 -122.5q0 -59 29 -123.5t106 -167.5l416 -559q39 49 58 124t19 179q0 32 -3 102l-1 7h164v-39 q0 -161 -37 -282.5t-112 -209.5l170 -229h-213l-78 109q-83 -70 -176 -104t-199 -34q-216 0 -357 134.5t-141 338.5zM233 475q0 -151 100 -250.5t255 -99.5q42 0 88 12t90 35q27 15 44.5 26.5t33.5 24.5l-428 580q-92 -73 -137.5 -154.5t-45.5 -173.5z" />
<glyph unicode="'" d="M528 938v555h174v-555h-174z" />
<glyph unicode="(" d="M426 643q0 223 74 449t225 462h160q-133 -228 -198.5 -454.5t-65.5 -456.5q0 -229 65.5 -456t198.5 -457h-160q-151 238 -225 463.5t-74 449.5z" />
<glyph unicode=")" d="M348 -270q133 232 198.5 459t65.5 454q0 228 -65.5 455t-198.5 456h160q151 -236 225 -462t74 -449q0 -225 -74 -451t-225 -462h-160z" />
<glyph unicode="*" d="M166 858l358 195l-358 194l57 99l336 -203v377h115v-377l336 203l57 -99l-358 -194l358 -195l-57 -98l-336 203v-377h-115v377l-336 -203z" />
<glyph unicode="+" d="M88 557v170h444v444h168v-444h445v-170h-445v-444h-168v444h-444z" />
<glyph unicode="," d="M403 -287l99 383v207h252v-207l-197 -383h-154z" />
<glyph unicode="-" d="M356 479v164h521v-164h-521z" />
<glyph unicode="." d="M489 0v305h252v-305h-252z" />
<glyph unicode="/" d="M102 -190l787 1683h190l-786 -1683h-191z" />
<glyph unicode="0" d="M133 745q0 383 122 579t361 196t361.5 -196t122.5 -579q0 -382 -122.5 -578t-361.5 -196t-361 196t-122 578zM336 745q0 -310 69.5 -462t210.5 -152q142 0 211.5 152t69.5 462q0 311 -69.5 463t-211.5 152q-141 0 -210.5 -152t-69.5 -463zM483 750q0 55 38.5 95t92.5 40 q56 0 96 -40t40 -95q0 -56 -39.5 -95t-96.5 -39q-56 0 -93.5 38t-37.5 96z" />
<glyph unicode="1" d="M246 1235v184l336 74h202v-1323h310v-170h-824v170h314v1141z" />
<glyph unicode="2" d="M152 0v170q187 197 327 348t193 213q100 122 135 197.5t35 154.5q0 125 -73.5 196t-201.5 71q-91 0 -191 -33t-212 -100v204q103 49 202.5 74t196.5 25q219 0 352.5 -116.5t133.5 -305.5q0 -96 -44.5 -192t-144.5 -212q-56 -65 -162.5 -180t-324.5 -344h686v-170h-907z " />
<glyph unicode="3" d="M137 45v201q102 -53 201 -79t197 -26q166 0 255 75t89 216q0 130 -89 206.5t-241 76.5h-154v166h154q139 0 217 61t78 170q0 115 -72.5 176.5t-206.5 61.5q-89 0 -184 -20t-199 -60v186q121 32 215.5 48t167.5 16q218 0 348.5 -109.5t130.5 -290.5q0 -123 -68.5 -205 t-199.5 -116q147 -39 225 -138.5t78 -248.5q0 -206 -138.5 -323.5t-383.5 -117.5q-103 0 -210 19t-210 55z" />
<glyph unicode="4" d="M102 356v191l600 946h234v-973h199v-164h-199v-356h-201v356h-633zM264 520h471v789z" />
<glyph unicode="5" d="M143 35v205q92 -50 185 -74.5t190 -24.5q167 0 257.5 88t90.5 250q0 160 -93.5 249t-260.5 89q-81 0 -158 -18.5t-147 -55.5v750h756v-170h-572v-367q43 16 86.5 23.5t87.5 7.5q232 0 368 -137t136 -371q0 -236 -142.5 -372t-389.5 -136q-119 0 -217.5 16t-176.5 48z" />
<glyph unicode="6" d="M133 745q0 378 145.5 576.5t421.5 198.5q74 0 148 -15.5t143 -44.5v-186q-63 37 -134 56.5t-148 19.5q-192 0 -291 -144.5t-99 -425.5q48 100 133 153.5t195 53.5q216 0 334.5 -132.5t118.5 -375.5q0 -242 -122 -375t-343 -133q-260 0 -381 186.5t-121 587.5zM354 479 q0 -164 74 -257t203 -93q134 0 202 88.5t68 261.5q0 174 -68 262t-202 88q-129 0 -203 -93t-74 -257z" />
<glyph unicode="7" d="M139 1323v170h940v-86l-534 -1407h-211l520 1323h-715z" />
<glyph unicode="8" d="M131 399q0 160 79.5 260.5t229.5 133.5q-129 33 -201.5 123t-72.5 217q0 178 121 282.5t329 104.5q209 0 330 -104.5t121 -282.5q0 -127 -72.5 -217t-201.5 -123q150 -33 229.5 -133t79.5 -259q0 -202 -129 -316t-357 -114t-356.5 113.5t-128.5 314.5zM334 420 q0 -138 74.5 -214.5t207.5 -76.5q136 0 209.5 75.5t73.5 215.5q0 137 -74.5 213t-208.5 76q-135 0 -208.5 -75.5t-73.5 -213.5zM367 1114q0 -120 64 -183t185 -63q122 0 186 63t64 183q0 122 -63.5 186t-186.5 64q-121 0 -185 -64.5t-64 -185.5z" />
<glyph unicode="9" d="M127 1014q0 241 121.5 373.5t343.5 132.5q260 0 381 -187t121 -588q0 -377 -145.5 -575.5t-422.5 -198.5q-73 0 -147 15.5t-143 44.5v186q63 -37 134 -56.5t148 -19.5q192 0 290.5 144.5t98.5 425.5q-47 -100 -132 -153.5t-195 -53.5q-216 0 -334.5 133t-118.5 377z M326 1012q0 -174 67.5 -262t202.5 -88q129 0 202.5 93t73.5 257t-73.5 257t-202.5 93q-134 0 -202 -88.5t-68 -261.5z" />
<glyph unicode=":" d="M489 0v305h252v-305h-252zM489 760v303h252v-303h-252z" />
<glyph unicode=";" d="M403 -287l99 383v207h252v-207l-197 -383h-154zM489 760v303h252v-303h-252z" />
<glyph unicode="&#x3c;" d="M88 559v166l1057 418v-182l-850 -320l850 -317v-183z" />
<glyph unicode="=" d="M88 352v172h1057v-172h-1057zM88 760v170h1057v-170h-1057z" />
<glyph unicode="&#x3e;" d="M88 141v183l850 317l-850 320v182l1057 -418v-166z" />
<glyph unicode="?" d="M244 1219v188q94 57 189.5 85t199.5 28q186 0 296.5 -96t110.5 -257q0 -76 -33.5 -141.5t-127.5 -157.5l-88 -86q-69 -66 -88 -108t-19 -103v-47v-123h-190v154q0 98 30.5 166.5t114.5 150.5l90 89q62 59 85.5 103t23.5 93q0 89 -65.5 144t-174.5 55q-78 0 -167 -34.5 t-187 -102.5zM487 0v254h203v-254h-203z" />
<glyph unicode="@" d="M27 543q0 390 188 621t504 231q209 0 334 -133t125 -357v-770h-144v111q-37 -63 -102.5 -97t-147.5 -34q-161 0 -266.5 121t-105.5 309t105.5 309t266.5 121q80 0 147 -35t103 -96v63q0 156 -88 251t-233 95q-246 0 -391.5 -191.5t-145.5 -518.5q0 -329 165 -524 t439 -195q54 0 108 10t111 31l48 -135q-63 -25 -124.5 -37t-119.5 -12q-357 0 -566.5 233t-209.5 629zM567 545q0 -130 64.5 -207.5t171.5 -77.5t171 77.5t64 207.5q0 129 -64 206.5t-171 77.5t-171.5 -77.5t-64.5 -206.5z" />
<glyph unicode="A" d="M37 0l457 1493h245l457 -1493h-209l-110 389h-523l-108 -389h-209zM403 551h426l-213 764z" />
<glyph unicode="B" d="M166 0v1493h442q229 0 353 -99t124 -280q0 -137 -65.5 -216t-196.5 -99q147 -22 230.5 -125.5t83.5 -263.5q0 -203 -133 -306.5t-396 -103.5h-442zM369 166h239q176 0 251 61.5t75 202.5q0 146 -79 214.5t-247 68.5h-239v-547zM369 877h235q146 0 211.5 56t65.5 181 q0 113 -64.5 163t-212.5 50h-235v-450z" />
<glyph unicode="C" d="M139 745q0 366 159.5 570.5t444.5 204.5q91 0 172 -20.5t158 -61.5v-207q-74 61 -159 93t-171 32q-197 0 -295 -152t-98 -459q0 -306 98 -458t295 -152q88 0 172.5 32t157.5 93v-207q-77 -41 -158 -61.5t-172 -20.5q-287 0 -445.5 203t-158.5 571z" />
<glyph unicode="D" d="M137 0v1493h303q342 0 504 -182t162 -566q0 -382 -162 -563.5t-504 -181.5h-303zM340 166h96q255 0 356 125.5t101 453.5q0 331 -100.5 456.5t-356.5 125.5h-96v-1161z" />
<glyph unicode="E" d="M197 0v1493h886v-170h-684v-442h654v-170h-654v-541h703v-170h-905z" />
<glyph unicode="F" d="M233 0v1493h879v-170h-676v-440h613v-170h-613v-713h-203z" />
<glyph unicode="G" d="M102 745q0 366 160 570.5t445 204.5q94 0 180 -26.5t166 -80.5v-207q-81 77 -166 113.5t-180 36.5q-197 0 -295.5 -152.5t-98.5 -458.5q0 -311 95.5 -460.5t293.5 -149.5q67 0 117.5 15.5t91.5 48.5v401h-217v166h410v-643q-81 -75 -182.5 -113.5t-219.5 -38.5 q-284 0 -442 203.5t-158 570.5z" />
<glyph unicode="H" d="M137 0v1493h203v-612h553v612h203v-1493h-203v711h-553v-711h-203z" />
<glyph unicode="I" d="M201 0v170h313v1153h-313v170h829v-170h-313v-1153h313v-170h-829z" />
<glyph unicode="J" d="M109 61v236q91 -81 188 -121.5t201 -40.5q143 0 199.5 74.5t56.5 277.5v836h-381v170h583v-1006q0 -282 -105.5 -399t-352.5 -117q-96 0 -191 22t-198 68z" />
<glyph unicode="K" d="M137 0v1493h203v-664l631 664h237l-581 -610l598 -883h-244l-487 748l-154 -164v-584h-203z" />
<glyph unicode="L" d="M215 0v1493h203v-1323h721v-170h-924z" />
<glyph unicode="M" d="M86 0v1493h270l258 -760l260 760h271v-1493h-187v1319l-266 -787h-153l-267 787v-1319h-186z" />
<glyph unicode="N" d="M139 0v1493h256l504 -1229v1229h195v-1493h-256l-504 1229v-1229h-195z" />
<glyph unicode="O" d="M117 745q0 391 123.5 583t375.5 192q253 0 376.5 -192t123.5 -583q0 -390 -123.5 -582t-376.5 -192t-376 191t-123 583zM328 745q0 -328 67.5 -469t220.5 -141q154 0 221.5 140.5t67.5 469.5t-67.5 470t-221.5 141q-153 0 -220.5 -141t-67.5 -470z" />
<glyph unicode="P" d="M197 0v1493h436q250 0 379 -113.5t129 -332.5q0 -221 -128.5 -334t-379.5 -113h-234v-600h-202zM399 766h234q140 0 218.5 74t78.5 207t-78 206.5t-219 73.5h-234v-561z" />
<glyph unicode="Q" d="M117 745q0 391 123.5 583t375.5 192q253 0 376.5 -192t123.5 -583q0 -294 -68.5 -473.5t-207.5 -251.5l200 -190l-151 -100l-234 243q-7 0 -20 -1t-21 -1q-250 0 -373.5 192t-123.5 582zM328 745q0 -328 67.5 -469t220.5 -141q154 0 221.5 140.5t67.5 469.5t-67.5 470 t-221.5 141q-153 0 -220.5 -141t-67.5 -470z" />
<glyph unicode="R" d="M143 0v1493h416q246 0 377 -111t131 -321q0 -148 -80.5 -241.5t-226.5 -114.5q78 -20 133 -75.5t137 -221.5l203 -408h-217l-178 377q-77 161 -138.5 207.5t-160.5 46.5h-193v-631h-203zM346 797h221q145 0 216 65t71 199q0 129 -75.5 197.5t-219.5 68.5h-213v-530z" />
<glyph unicode="S" d="M139 1079q0 200 134.5 320.5t357.5 120.5q86 0 181 -19.5t200 -58.5v-205q-92 59 -184.5 89t-186.5 30q-143 0 -226 -66.5t-83 -179.5q0 -99 54.5 -151t203.5 -87l106 -24q210 -49 306 -154t96 -286q0 -213 -132 -325t-384 -112q-105 0 -211 22.5t-213 67.5v215 q115 -73 217.5 -107t206.5 -34q153 0 238 68.5t85 191.5q0 112 -58.5 171t-203.5 91l-108 25q-208 47 -302 142t-94 255z" />
<glyph unicode="T" d="M47 1323v170h1139v-170h-467v-1323h-203v1323h-469z" />
<glyph unicode="U" d="M147 573v920h203v-1012q0 -109 6 -155.5t21 -71.5q32 -59 92.5 -89t146.5 -30q87 0 147 30t93 89q15 25 21 71t6 154v1014h202v-920q0 -229 -28.5 -325.5t-98.5 -159.5q-66 -59 -151 -88t-191 -29q-105 0 -190 29t-152 88q-69 62 -98 160.5t-29 324.5z" />
<glyph unicode="V" d="M57 1493h209l350 -1323l351 1323h209l-437 -1493h-245z" />
<glyph unicode="W" d="M0 1493h197l143 -1212l170 802h211l172 -804l143 1214h197l-223 -1493h-191l-203 887l-202 -887h-191z" />
<glyph unicode="X" d="M18 0l500 791l-432 702h217l328 -563l334 563h217l-447 -702l479 -791h-217l-366 643l-395 -643h-218z" />
<glyph unicode="Y" d="M37 1493h215l364 -659l363 659h217l-479 -823v-670h-203v670z" />
<glyph unicode="Z" d="M156 0v154l759 1169h-737v170h969v-154l-780 -1169h802v-170h-1013z" />
<glyph unicode="[" d="M463 -270v1826h424v-143h-240v-1540h240v-143h-424z" />
<glyph unicode="\" d="M102 1493h191l786 -1683h-190z" />
<glyph unicode="]" d="M346 -127h240v1540h-240v143h424v-1826h-424v143z" />
<glyph unicode="^" d="M72 936l456 557h177l456 -557h-178l-367 395l-366 -395h-178z" />
<glyph unicode="_" d="M0 -403h1233v-80h-1233v80z" />
<glyph unicode="`" d="M279 1638h198l281 -376h-154z" />
<glyph unicode="a" d="M133 326q0 187 125.5 284t368.5 97h247v29q-1 134 -68 194.5t-214 60.5q-94 0 -190 -27t-187 -79v184q102 39 195.5 58.5t181.5 19.5q139 0 237.5 -41t159.5 -123q38 -50 54 -123.5t16 -220.5v-639h-185v166q-59 -100 -148.5 -147.5t-217.5 -47.5q-171 0 -273 96.5 t-102 258.5zM317 338q0 -101 61 -157t169 -56q152 0 239 105.5t88 291.5v41h-172h-61q-161 0 -242.5 -56.5t-81.5 -168.5z" />
<glyph unicode="b" d="M193 0v1556h184v-579q44 82 121.5 126t179.5 44q202 0 318 -155.5t116 -428.5q0 -277 -116.5 -434.5t-319.5 -157.5q-100 0 -176.5 43.5t-122.5 126.5v-141h-184zM377 559q0 -212 69 -322t203 -110q133 0 201 109t68 323t-68 323t-201 109q-134 0 -203 -109.5t-69 -322.5 z" />
<glyph unicode="c" d="M195 559q0 276 146.5 432t406.5 156q81 0 158 -21t155 -65v-193q-73 65 -146.5 94t-166.5 29q-173 0 -266 -112t-93 -320q0 -207 93.5 -319.5t265.5 -112.5q96 0 172 29.5t141 91.5v-191q-74 -43 -152.5 -64.5t-160.5 -21.5q-260 0 -406.5 156t-146.5 432z" />
<glyph unicode="d" d="M123 563q0 273 117 428.5t319 155.5q101 0 178 -43.5t121 -126.5v579h184v-1556h-184v141q-46 -83 -122.5 -126.5t-176.5 -43.5q-203 0 -319.5 157.5t-116.5 434.5zM317 559q0 -214 68 -323t201 -109t202.5 110t69.5 322q0 213 -69.5 322.5t-202.5 109.5t-201 -109 t-68 -323z" />
<glyph unicode="e" d="M123 559q0 268 144 428t384 160q214 0 337.5 -145t123.5 -396v-90h-797v-6q0 -183 95.5 -283t269.5 -100q88 0 184 28t205 85v-183q-105 -43 -202.5 -64.5t-188.5 -21.5q-261 0 -408 156.5t-147 431.5zM322 659l606 1q-4 162 -76.5 246.5t-208.5 84.5q-133 0 -219 -88 t-102 -244z" />
<glyph unicode="f" d="M195 977v143h299v78q0 184 84.5 271t263.5 87h221v-153h-209q-99 0 -137.5 -40.5t-38.5 -143.5v-99h385v-143h-385v-977h-184v977h-299z" />
<glyph unicode="g" d="M123 569q0 264 117 421t313 157q108 0 183 -43t122 -133v145h184v-1044q0 -252 -119 -382t-350 -130q-76 0 -159 14t-166 41v182q98 -46 178 -68t147 -22q149 0 217 81t68 257v8v125q-44 -94 -120 -140t-185 -46q-196 0 -313 157t-117 420zM317 569q0 -207 71.5 -315.5 t207.5 -108.5q127 0 194.5 109t67.5 315q0 207 -67.5 314.5t-196.5 107.5q-135 0 -206 -107.5t-71 -314.5z" />
<glyph unicode="h" d="M195 0v1556h184v-604q49 96 133 145.5t199 49.5q171 0 255.5 -112.5t84.5 -340.5v-694h-185v694q0 151 -53 222t-166 71q-129 0 -198.5 -91.5t-69.5 -262.5v-633h-184z" />
<glyph unicode="i" d="M178 0v143h365v834h-287v143h471v-977h365v-143h-914zM543 1323v233h184v-233h-184z" />
<glyph unicode="j" d="M186 -270h234q90 0 135 62.5t45 187.5v997h-317v143h501v-1140q0 -195 -89.5 -300.5t-254.5 -105.5h-254v156zM600 1323v233h184v-233h-184z" />
<glyph unicode="k" d="M236 0v1556h190v-901l483 465h224l-441 -422l510 -698h-225l-414 578l-137 -129v-449h-190z" />
<glyph unicode="l" d="M160 1423v144h479v-1161q0 -124 45.5 -187t134.5 -63h215v-156h-233q-165 0 -255.5 106t-90.5 300v1017h-295z" />
<glyph unicode="m" d="M109 0v1120h167v-96q33 60 82.5 91.5t112.5 31.5q76 0 126.5 -35t78.5 -106q34 72 86.5 106.5t126.5 34.5q135 0 190.5 -104.5t55.5 -393.5v-649h-168v641q0 237 -26.5 294.5t-96.5 57.5q-80 0 -109.5 -61.5t-29.5 -290.5v-641h-168v641q0 240 -28.5 296t-102.5 56 q-73 0 -101.5 -61.5t-28.5 -290.5v-641h-167z" />
<glyph unicode="n" d="M195 0v1120h184v-168q49 96 133 145.5t199 49.5q171 0 255.5 -112.5t84.5 -340.5v-694h-185v694q0 151 -53 222t-166 71q-129 0 -198.5 -91.5t-69.5 -262.5v-633h-184z" />
<glyph unicode="o" d="M137 559q0 286 123 437t356 151t356.5 -151t123.5 -437q0 -287 -123 -437.5t-357 -150.5q-233 0 -356 150.5t-123 437.5zM332 559q0 -213 72 -322.5t212 -109.5q141 0 213 109.5t72 322.5q0 214 -72 323t-213 109q-140 0 -212 -109t-72 -323z" />
<glyph unicode="p" d="M190 -426v1546h185v-143q46 83 122.5 126.5t176.5 43.5q203 0 318.5 -157t115.5 -435q0 -273 -116 -428.5t-318 -155.5q-102 0 -178.5 43.5t-120.5 126.5v-567h-185zM375 559q0 -212 69 -322t203 -110q133 0 200.5 109t67.5 323t-67.5 323t-200.5 109q-134 0 -203 -109.5 t-69 -322.5z" />
<glyph unicode="q" d="M137 551q0 278 116 435t318 157q100 0 176.5 -43.5t122.5 -126.5v143h185v-1546h-185v569q-45 -83 -121.5 -127.5t-177.5 -44.5q-201 0 -317.5 155.5t-116.5 428.5zM332 555q0 -214 67.5 -323t200.5 -109t201.5 109.5t68.5 322.5t-68.5 322.5t-201.5 109.5t-200.5 -109 t-67.5 -323z" />
<glyph unicode="r" d="M362 0v1120h185v-219q46 119 141.5 182.5t226.5 63.5q68 0 127 -17t113 -53v-188q-59 46 -120 67t-134 21q-172 0 -263 -108t-91 -312v-557h-185z" />
<glyph unicode="s" d="M213 41v190q103 -53 197 -79.5t178 -26.5q122 0 189 49.5t67 138.5q0 128 -245 177l-8 2l-69 14q-159 31 -232 104.5t-73 200.5q0 161 109 248.5t311 87.5q90 0 173 -16.5t163 -49.5v-180q-79 46 -159 69t-163 23q-125 0 -186.5 -40.5t-61.5 -123.5q0 -75 46 -112 t229 -72l74 -14q137 -26 207.5 -104t70.5 -203q0 -166 -118 -259.5t-328 -93.5q-83 0 -174 17.5t-197 52.5z" />
<glyph unicode="t" d="M131 977v143h299v318h184v-318h418v-143h-418v-608q0 -124 47 -173t164 -49h207v-147h-225q-207 0 -292 83t-85 286v608h-299z" />
<glyph unicode="u" d="M195 424v694h184v-694q0 -151 53.5 -222t165.5 -71q130 0 199 91.5t69 262.5v633h185v-1118h-185v168q-49 -97 -133.5 -147t-197.5 -50q-172 0 -256 112.5t-84 340.5z" />
<glyph unicode="v" d="M100 1120h191l325 -940l326 940h191l-398 -1120h-237z" />
<glyph unicode="w" d="M0 1120h182l195 -905l160 578h157l162 -578l195 905h182l-262 -1120h-176l-179 614l-178 -614h-176z" />
<glyph unicode="x" d="M76 0l440 584l-401 536h204l297 -405l295 405h207l-401 -536l440 -584h-213l-328 449l-327 -449h-213z" />
<glyph unicode="y" d="M104 1120h195l332 -876l327 876h195l-295 -760q-46 -117 -117 -308q-99 -264 -133 -322q-46 -78 -115 -117t-161 -39h-148v154h109q81 0 127 47t117 243z" />
<glyph unicode="z" d="M203 0v170l643 805h-619v147h813v-168l-643 -804h643v-150h-837z" />
<glyph unicode="{" d="M221 541v143h62q141 0 194 57t53 207v240q0 221 84.5 294.5t333.5 73.5h64v-143h-70q-140 0 -182.5 -43.5t-42.5 -185.5v-248q0 -157 -45.5 -228t-155.5 -96q111 -27 156 -98t45 -227v-248q0 -143 42.5 -186t182.5 -43h70v-144h-64q-249 0 -333.5 74t-84.5 295v239 q0 151 -53.5 209t-193.5 58h-62z" />
<glyph unicode="|" d="M530 -483v2048h172v-2048h-172z" />
<glyph unicode="}" d="M221 -190h68q141 0 184 44t43 185v248q0 156 45 227t156 98q-110 25 -155.5 96t-45.5 228v248q0 141 -43 185t-184 44h-68v143h62q249 0 333 -73.5t84 -294.5v-240q0 -150 53.5 -207t194.5 -57h64v-143h-64q-141 0 -194.5 -58t-53.5 -209v-239q0 -221 -84 -295t-333 -74 h-62v144z" />
<glyph unicode="~" d="M88 492v174q78 60 151 87t156 27q53 0 103 -11t124 -42q12 -5 33 -15q116 -55 209 -55q70 0 138.5 30.5t142.5 92.5v-174q-75 -59 -146.5 -86.5t-150.5 -27.5q-90 0 -203 51q-22 10 -33 14q-77 33 -128.5 45t-102.5 12q-79 0 -149.5 -29.5t-143.5 -92.5z" />
<glyph unicode="&#xa0;" />
<glyph unicode="&#xa1;" d="M516 0v655l21 357h161l21 -357v-655h-203zM516 1239v254h203v-254h-203z" />
<glyph unicode="&#xa2;" d="M213 559q0 250 131.5 408.5t353.5 177.5v287h103v-287q57 -3 122 -20t138 -48v-172q-67 40 -132 62t-128 26v-870q63 5 128.5 27.5t131.5 62.5v-172q-73 -31 -138 -48t-122 -20v-286h-103v286q-225 22 -355 178.5t-130 407.5zM406 559q0 -184 80 -301.5t212 -130.5v864 q-132 -12 -212 -130t-80 -302z" />
<glyph unicode="&#xa3;" d="M139 0v170h236v465h-199v143h199v238q0 254 109.5 379t332.5 125q65 0 133.5 -14.5t141.5 -43.5v-184q-62 44 -125.5 66t-130.5 22q-134 0 -197.5 -89.5t-63.5 -281.5v-217h371v-143h-371v-465h537v-170h-973z" />
<glyph unicode="&#xa4;" d="M205 285l166 166q-31 51 -45.5 97.5t-14.5 92.5q0 50 15.5 96.5t46.5 91.5l-168 166l94 95l166 -168q46 31 91.5 46t96.5 15q46 0 93 -14.5t98 -44.5l166 166l90 -93l-166 -166q30 -49 44.5 -95.5t14.5 -94.5q0 -50 -15 -95.5t-46 -90.5l168 -166l-94 -94l-166 167 q-46 -31 -91.5 -46t-95.5 -15q-48 0 -96 14.5t-96 42.5l-164 -163zM438 643q0 -92 62.5 -154.5t152.5 -62.5q91 0 153 63t62 154q0 90 -62 151.5t-153 61.5q-90 0 -152.5 -61.5t-62.5 -151.5z" />
<glyph unicode="&#xa5;" d="M37 1493h215l364 -659l363 659h217l-330 -561h252v-111h-315l-86 -151v-35h401v-111h-401v-524h-203v524h-399v111h399v35l-90 151h-309v111h243z" />
<glyph unicode="&#xa6;" d="M530 -350v758h172v-758h-172zM530 674v758h172v-758h-172z" />
<glyph unicode="&#xa7;" d="M199 723q0 91 46.5 162.5t137.5 120.5q-60 44 -89.5 100t-29.5 125q0 130 100 209.5t267 79.5q72 0 148.5 -14.5t156.5 -43.5v-164q-83 39 -154.5 58.5t-128.5 19.5q-97 0 -150.5 -40t-53.5 -111q0 -90 205 -205q26 -15 40 -23q212 -119 277 -196t65 -178 q0 -90 -45.5 -160t-138.5 -123q61 -52 90 -106.5t29 -118.5q0 -142 -102 -226t-275 -84q-73 0 -150.5 14.5t-164.5 43.5v164q87 -39 161 -58.5t131 -19.5q102 0 158.5 42t56.5 118q0 102 -221 225l-24 14q-214 120 -278 196.5t-64 178.5zM362 754q0 -76 70.5 -143.5 t317.5 -200.5q62 45 92 90t30 92q0 76 -71.5 144t-315.5 200q-62 -45 -92.5 -90t-30.5 -92z" />
<glyph unicode="&#xa8;" d="M319 1350v202h203v-202h-203zM711 1350v202h202v-202h-202z" />
<glyph unicode="&#xa9;" d="M0 741q0 126 46 236t136 201q90 90 199 135t235 45q127 0 236 -45t199 -135q90 -91 136 -201t46 -236q0 -125 -45.5 -234t-136.5 -200t-200 -136.5t-235 -45.5q-125 0 -234 45.5t-200 136.5t-136.5 200t-45.5 234zM102 741q0 -104 38.5 -195.5t113.5 -166.5 q76 -76 166.5 -114t195.5 -38q106 0 196.5 38t166.5 114t113.5 166.5t37.5 195.5q0 106 -38 198t-113 167t-165.5 112t-197.5 37q-106 0 -196.5 -37t-165.5 -112t-113.5 -167t-38.5 -198zM250 741q0 173 104 274t283 101q61 0 118 -11t109 -34v-108q-58 28 -113.5 41.5 t-113.5 13.5q-117 0 -184.5 -74.5t-67.5 -202.5q0 -132 70 -203t200 -71q56 0 107.5 12.5t101.5 38.5v-104q-52 -23 -109 -34t-118 -11q-180 0 -283.5 100t-103.5 272z" />
<glyph unicode="&#xaa;" d="M270 950q0 129 93.5 199t265.5 70h182v4q0 90 -59.5 136t-176.5 46q-51 0 -113.5 -17.5t-129.5 -50.5v127q68 28 135.5 42t130.5 14q184 0 270 -86t86 -269v-448h-143v112q-49 -65 -114.5 -98t-147.5 -33q-129 0 -204 68t-75 184zM293 469v123h668v-123h-668zM416 958 q0 -64 43.5 -102.5t115.5 -38.5q105 0 170.5 71.5t65.5 186.5v29h-127q-144 0 -206 -34t-62 -112z" />
<glyph unicode="&#xab;" d="M119 559v82l469 418v-191l-301 -268l301 -268v-191zM573 559v82l469 418v-191l-301 -268l301 -268v-191z" />
<glyph unicode="&#xac;" d="M88 690v172h1057v-491h-168v319h-889z" />
<glyph unicode="&#xad;" d="M356 479v164h521v-164h-521z" />
<glyph unicode="&#xae;" d="M0 741q0 126 46 236t136 201q90 90 199 135t235 45q127 0 236 -45t199 -135q90 -91 136 -201t46 -236q0 -125 -45.5 -234t-136.5 -200t-200 -136.5t-235 -45.5q-125 0 -234 45.5t-200 136.5t-136.5 200t-45.5 234zM102 741q0 -104 38.5 -195.5t113.5 -166.5 q76 -76 166.5 -114t195.5 -38q106 0 196.5 38t166.5 114t113.5 166.5t37.5 195.5q0 106 -38 198t-113 167t-165.5 112t-197.5 37q-106 0 -196.5 -37t-165.5 -112t-113.5 -167t-38.5 -198zM362 406v694h238q147 0 219 -49t72 -150q0 -71 -44 -117.5t-124 -60.5 q19 -5 48 -38.5t67 -92.5l114 -186h-143l-107 174q-49 80 -79.5 101t-75.5 21h-55v-296h-130zM492 784h102q90 0 127 27t37 90q0 62 -37 88.5t-127 26.5h-102v-232z" />
<glyph unicode="&#xaf;" d="M317 1378v148h598v-148h-598z" />
<glyph unicode="&#xb0;" d="M299 1200q0 134 92 227t225 93q65 0 123.5 -24.5t102.5 -70.5q45 -45 68.5 -102t23.5 -123q0 -132 -93 -223.5t-227 -91.5q-135 0 -225 90t-90 225zM426 1200q0 -80 54.5 -134t133.5 -54q80 0 136.5 55t56.5 133q0 79 -56 135t-135 56t-134.5 -55.5t-55.5 -135.5z" />
<glyph unicode="&#xb1;" d="M88 0v170h1057v-170h-1057zM88 672v170h444v329h168v-329h445v-170h-445v-332h-168v332h-444z" />
<glyph unicode="&#xb2;" d="M322 668v110l231 226q101 97 141.5 158t40.5 112q0 61 -50 99t-132 38q-49 0 -105.5 -18t-119.5 -54v125q65 28 125.5 42t119.5 14q142 0 228 -66.5t86 -173.5q0 -57 -37 -116.5t-156 -176.5l-211 -205h410v-114h-571z" />
<glyph unicode="&#xb3;" d="M326 694v121q69 -27 125.5 -40t101.5 -13q101 0 160 40.5t59 108.5q0 74 -55 112t-164 38h-66v108h74q93 0 142 31.5t49 91.5q0 56 -48 87.5t-135 31.5q-44 0 -100 -12t-115 -35v121q69 17 127.5 26t108.5 9q145 0 229 -59t84 -158q0 -71 -44 -117.5t-128 -65.5 q94 -21 143.5 -75t49.5 -134q0 -124 -95 -191t-272 -67q-58 0 -115 10.5t-116 30.5z" />
<glyph unicode="&#xb4;" d="M475 1262l281 376h198l-325 -376h-154z" />
<glyph unicode="&#xb5;" d="M195 -428v1548h184v-696q0 -142 60 -217.5t171 -75.5q127 0 191.5 85t64.5 251v653h185v-864q0 -59 16 -87t49 -28q9 0 23.5 5t42.5 18v-148q-38 -23 -72 -34t-68 -11q-62 0 -99.5 39.5t-49.5 118.5q-46 -80 -112.5 -119t-155.5 -39q-92 0 -155.5 38t-107.5 118v-555 h-167z" />
<glyph unicode="&#xb6;" d="M106 1071q0 190 130.5 306t345.5 116h448v-1690h-141v1567h-191v-1567h-141v846q-215 17 -333 127.5t-118 294.5z" />
<glyph unicode="&#xb7;" d="M489 559v305h252v-305h-252z" />
<glyph unicode="&#xb8;" d="M395 -240q34 -17 71.5 -24.5t84.5 -7.5q58 0 88.5 24t30.5 70q0 30 -22 73.5t-66 104.5h118q56 -62 82.5 -114.5t26.5 -100.5q0 -89 -60 -134.5t-178 -45.5q-45 0 -88.5 6t-87.5 18v131z" />
<glyph unicode="&#xb9;" d="M344 1348v116l229 39h138v-725h204v-110h-553v110h205v611z" />
<glyph unicode="&#xba;" d="M244 1108q0 188 101.5 300t270.5 112q170 0 271.5 -112t101.5 -300q0 -187 -101 -298.5t-272 -111.5q-170 0 -271 111.5t-101 298.5zM276 469v123h676v-123h-676zM399 1108q0 -139 57.5 -216t159.5 -77q101 0 159.5 78.5t58.5 214.5q0 139 -57.5 217t-160.5 78 q-102 0 -159.5 -78t-57.5 -217z" />
<glyph unicode="&#xbb;" d="M193 141v191l301 268l-301 268v191l469 -418v-82zM647 141v191l301 268l-301 268v191l469 -418v-82z" />
<glyph unicode="&#xbc;" d="M27 612l1060 262l27 -108l-1063 -262zM86 1504v116l229 39h138v-725h204v-110h-553v110h205v611zM452 37l363 528h162v-538h116v-111h-116v-186h-138v186h-387v121zM565 27h274v413z" />
<glyph unicode="&#xbd;" d="M27 612l1060 262l27 -108l-1063 -262zM86 1504v116l229 39h138v-725h204v-110h-553v110h205v611zM523 -160l231 226q101 97 141.5 158t40.5 112q0 61 -50 99t-132 38q-49 0 -105.5 -18t-119.5 -54v125q65 28 125.5 42t119.5 14q142 0 228 -66.5t86 -173.5 q0 -57 -37 -116.5t-156 -176.5l-211 -205h410v-114h-571v110z" />
<glyph unicode="&#xbe;" d="M27 612l1060 262l27 -108l-1063 -262zM99 850v121q69 -27 125.5 -40t101.5 -13q101 0 160 40.5t59 108.5q0 74 -55 112t-164 38h-66v108h74q93 0 142 31.5t49 91.5q0 56 -48 87.5t-135 31.5q-44 0 -100 -12t-115 -35v121q69 17 127.5 26t108.5 9q145 0 229 -59t84 -158 q0 -71 -44 -117.5t-128 -65.5q94 -21 143.5 -75t49.5 -134q0 -124 -95 -191t-272 -67q-58 0 -115 10.5t-116 30.5zM452 37l363 528h162v-538h116v-111h-116v-186h-138v186h-387v121zM565 27h274v413z" />
<glyph unicode="&#xbf;" d="M193 326q0 76 33.5 141.5t127.5 157.5l88 86q67 64 86 106t19 105v5q2 23 2 42v123h190v-154q0 -98 -30.5 -166.5t-114.5 -150.5l-90 -89q-62 -59 -85.5 -103t-23.5 -93q0 -89 65.5 -144t174.5 -55q78 0 167 34.5t187 102.5v-188q-94 -57 -189.5 -85t-199.5 -28 q-186 0 -296.5 96t-110.5 257zM543 1239v254h202v-254h-202z" />
<glyph unicode="&#xc0;" d="M37 0l457 1493h245l457 -1493h-209l-110 389h-523l-108 -389h-209zM377 1899h184l197 -264h-154zM403 551h426l-213 764z" />
<glyph unicode="&#xc1;" d="M37 0l457 1493h245l457 -1493h-209l-110 389h-523l-108 -389h-209zM403 551h426l-213 764zM475 1635l197 264h186l-229 -264h-154z" />
<glyph unicode="&#xc2;" d="M37 0l457 1493h245l457 -1493h-209l-110 389h-523l-108 -389h-209zM311 1635l211 266h189l211 -266h-140l-166 178l-165 -178h-140zM403 551h426l-213 764z" />
<glyph unicode="&#xc3;" d="M37 0l457 1493h245l457 -1493h-209l-110 389h-523l-108 -389h-209zM287 1667q0 101 51.5 160t136.5 59q36 0 66.5 -8t79.5 -35l57 -30q22 -13 39.5 -19t32.5 -6q31 0 51 25.5t20 66.5v6h125q-2 -100 -53 -159.5t-135 -59.5q-34 0 -64 8t-82 35l-57 33q-25 14 -40.5 19.5 t-27.5 5.5q-35 0 -55 -25t-20 -70v-6h-125zM403 551h426l-213 764z" />
<glyph unicode="&#xc4;" d="M37 0l457 1493h245l457 -1493h-209l-110 389h-523l-108 -389h-209zM319 1667v203h203v-203h-203zM403 551h426l-213 764zM711 1667v203h202v-203h-202z" />
<glyph unicode="&#xc5;" d="M37 0l428 1399q-58 33 -90.5 93.5t-32.5 133.5q0 114 80 194.5t194 80.5t194.5 -80.5t80.5 -194.5q0 -73 -32 -132t-91 -95l428 -1399h-209l-110 389h-523l-108 -389h-209zM403 551h426l-213 760zM465 1626q0 -63 44 -107t107 -44t107.5 44t44.5 107t-44.5 107.5 t-107.5 44.5q-64 0 -107.5 -43.5t-43.5 -108.5z" />
<glyph unicode="&#xc6;" d="M0 0l410 1493h751v-170h-338v-442h307v-170h-307v-541h357v-170h-543v383h-352l-101 -383h-184zM328 551h309v772h-107z" />
<glyph unicode="&#xc7;" d="M139 745q0 366 159.5 570.5t444.5 204.5q91 0 172 -20.5t158 -61.5v-207q-74 61 -159 93t-171 32q-197 0 -295 -152t-98 -459q0 -306 98 -458t295 -152q88 0 172.5 32t157.5 93v-207q-77 -41 -158 -61.5t-172 -20.5q-287 0 -445.5 203t-158.5 571zM495 -240 q34 -17 71.5 -24.5t84.5 -7.5q58 0 88.5 24t30.5 70q0 30 -22 73.5t-66 104.5h118q56 -62 82.5 -114.5t26.5 -100.5q0 -89 -60 -134.5t-178 -45.5q-45 0 -88.5 6t-87.5 18v131z" />
<glyph unicode="&#xc8;" d="M197 0v1493h886v-170h-684v-442h654v-170h-654v-541h703v-170h-905zM395 1899h184l197 -264h-154z" />
<glyph unicode="&#xc9;" d="M197 0v1493h886v-170h-684v-442h654v-170h-654v-541h703v-170h-905zM493 1635l197 264h186l-229 -264h-154z" />
<glyph unicode="&#xca;" d="M197 0v1493h886v-170h-684v-442h654v-170h-654v-541h703v-170h-905zM329 1635l211 266h189l211 -266h-140l-166 178l-165 -178h-140z" />
<glyph unicode="&#xcb;" d="M197 0v1493h886v-170h-684v-442h654v-170h-654v-541h703v-170h-905zM337 1667v203h203v-203h-203zM729 1667v203h202v-203h-202z" />
<glyph unicode="&#xcc;" d="M201 0v170h313v1153h-313v170h829v-170h-313v-1153h313v-170h-829zM377 1899h184l197 -264h-154z" />
<glyph unicode="&#xcd;" d="M201 0v170h313v1153h-313v170h829v-170h-313v-1153h313v-170h-829zM475 1635l197 264h186l-229 -264h-154z" />
<glyph unicode="&#xce;" d="M201 0v170h313v1153h-313v170h829v-170h-313v-1153h313v-170h-829zM311 1635l211 266h189l211 -266h-140l-166 178l-165 -178h-140z" />
<glyph unicode="&#xcf;" d="M201 0v170h313v1153h-313v170h829v-170h-313v-1153h313v-170h-829zM319 1667v203h203v-203h-203zM711 1667v203h202v-203h-202z" />
<glyph unicode="&#xd0;" d="M8 709v149h125v635h303q342 0 504 -182t162 -566q0 -382 -162.5 -563.5t-503.5 -181.5h-303v709h-125zM340 166h96q255 0 356 125.5t101 453.5q0 331 -100.5 456.5t-356.5 125.5h-96v-469h264v-149h-264v-543z" />
<glyph unicode="&#xd1;" d="M139 0v1493h256l504 -1229v1229h195v-1493h-256l-504 1229v-1229h-195zM287 1671q0 101 51.5 160t136.5 59q36 0 66.5 -8t79.5 -35l57 -30q22 -13 39.5 -19t32.5 -6q31 0 51 25.5t20 66.5v6h125q-2 -100 -53 -159.5t-135 -59.5q-34 0 -64 8t-82 35l-57 33 q-25 14 -40.5 19.5t-27.5 5.5q-35 0 -55 -25t-20 -70v-6h-125z" />
<glyph unicode="&#xd2;" d="M117 745q0 391 123.5 583t375.5 192q253 0 376.5 -192t123.5 -583q0 -390 -123.5 -582t-376.5 -192t-376 191t-123 583zM328 745q0 -328 67.5 -469t220.5 -141q154 0 221.5 140.5t67.5 469.5t-67.5 470t-221.5 141q-153 0 -220.5 -141t-67.5 -470zM377 1899h184l197 -264 h-154z" />
<glyph unicode="&#xd3;" d="M117 745q0 391 123.5 583t375.5 192q253 0 376.5 -192t123.5 -583q0 -390 -123.5 -582t-376.5 -192t-376 191t-123 583zM328 745q0 -328 67.5 -469t220.5 -141q154 0 221.5 140.5t67.5 469.5t-67.5 470t-221.5 141q-153 0 -220.5 -141t-67.5 -470zM475 1635l197 264h186 l-229 -264h-154z" />
<glyph unicode="&#xd4;" d="M117 745q0 391 123.5 583t375.5 192q253 0 376.5 -192t123.5 -583q0 -390 -123.5 -582t-376.5 -192t-376 191t-123 583zM311 1635l211 266h189l211 -266h-140l-166 178l-165 -178h-140zM328 745q0 -328 67.5 -469t220.5 -141q154 0 221.5 140.5t67.5 469.5t-67.5 470 t-221.5 141q-153 0 -220.5 -141t-67.5 -470z" />
<glyph unicode="&#xd5;" d="M117 745q0 391 123.5 583t375.5 192q253 0 376.5 -192t123.5 -583q0 -390 -123.5 -582t-376.5 -192t-376 191t-123 583zM287 1667q0 101 51.5 160t136.5 59q36 0 66.5 -8t79.5 -35l57 -30q22 -13 39.5 -19t32.5 -6q31 0 51 25.5t20 66.5v6h125q-2 -100 -53 -159.5 t-135 -59.5q-34 0 -64 8t-82 35l-57 33q-25 14 -40.5 19.5t-27.5 5.5q-35 0 -55 -25t-20 -70v-6h-125zM328 745q0 -328 67.5 -469t220.5 -141q154 0 221.5 140.5t67.5 469.5t-67.5 470t-221.5 141q-153 0 -220.5 -141t-67.5 -470z" />
<glyph unicode="&#xd6;" d="M117 745q0 391 123.5 583t375.5 192q253 0 376.5 -192t123.5 -583q0 -390 -123.5 -582t-376.5 -192t-376 191t-123 583zM319 1667v203h203v-203h-203zM328 745q0 -328 67.5 -469t220.5 -141q154 0 221.5 140.5t67.5 469.5t-67.5 470t-221.5 141q-153 0 -220.5 -141 t-67.5 -470zM711 1667v203h202v-203h-202z" />
<glyph unicode="&#xd7;" d="M150 293l350 348l-350 350l116 117l350 -350l351 350l116 -117l-350 -350l348 -348l-116 -119l-349 350l-348 -350z" />
<glyph unicode="&#xd8;" d="M8 0l178 252q-32 73 -50.5 204t-18.5 289q0 391 123.5 583t375.5 192q115 0 201.5 -41t143.5 -121l139 201l100 -74l-168 -238q41 -81 62.5 -210t21.5 -292q0 -390 -123.5 -582t-376.5 -192q-121 0 -211 40.5t-151 121.5l-143 -203zM328 686q0 -80 2.5 -130.5t7.5 -84.5 l504 719q-25 81 -82.5 123.5t-143.5 42.5q-157 0 -222.5 -146t-65.5 -524zM371 303q30 -78 95.5 -123t149.5 -45q154 0 221.5 140.5t67.5 469.5q0 110 -5 178t-15 113z" />
<glyph unicode="&#xd9;" d="M147 573v920h203v-1012q0 -109 6 -155.5t21 -71.5q32 -59 92.5 -89t146.5 -30q87 0 147 30t93 89q15 25 21 71t6 154v1014h202v-920q0 -229 -28.5 -325.5t-98.5 -159.5q-66 -59 -151 -88t-191 -29q-105 0 -190 29t-152 88q-69 62 -98 160.5t-29 324.5zM377 1899h184 l197 -264h-154z" />
<glyph unicode="&#xda;" d="M147 573v920h203v-1012q0 -109 6 -155.5t21 -71.5q32 -59 92.5 -89t146.5 -30q87 0 147 30t93 89q15 25 21 71t6 154v1014h202v-920q0 -229 -28.5 -325.5t-98.5 -159.5q-66 -59 -151 -88t-191 -29q-105 0 -190 29t-152 88q-69 62 -98 160.5t-29 324.5zM475 1635l197 264 h186l-229 -264h-154z" />
<glyph unicode="&#xdb;" d="M147 573v920h203v-1012q0 -109 6 -155.5t21 -71.5q32 -59 92.5 -89t146.5 -30q87 0 147 30t93 89q15 25 21 71t6 154v1014h202v-920q0 -229 -28.5 -325.5t-98.5 -159.5q-66 -59 -151 -88t-191 -29q-105 0 -190 29t-152 88q-69 62 -98 160.5t-29 324.5zM311 1635l211 266 h189l211 -266h-140l-166 178l-165 -178h-140z" />
<glyph unicode="&#xdc;" d="M147 573v920h203v-1012q0 -109 6 -155.5t21 -71.5q32 -59 92.5 -89t146.5 -30q87 0 147 30t93 89q15 25 21 71t6 154v1014h202v-920q0 -229 -28.5 -325.5t-98.5 -159.5q-66 -59 -151 -88t-191 -29q-105 0 -190 29t-152 88q-69 62 -98 160.5t-29 324.5zM319 1667v203h203 v-203h-203zM711 1667v203h202v-203h-202z" />
<glyph unicode="&#xdd;" d="M37 1493h215l364 -659l363 659h217l-479 -823v-670h-203v670zM475 1635l197 264h186l-229 -264h-154z" />
<glyph unicode="&#xde;" d="M201 0v1493h202v-270h254q260 0 384 -105t124 -323q0 -219 -124 -323.5t-384 -104.5h-254v-367h-202zM403 532h234q158 0 236.5 66t78.5 197t-78.5 196.5t-236.5 65.5h-234v-525z" />
<glyph unicode="&#xdf;" d="M188 0v1137q0 213 105 316t321 103q204 0 309 -110.5t107 -326.5q-155 -14 -239 -76t-84 -162q0 -49 27.5 -87.5t94.5 -80.5l58 -37q151 -93 206.5 -175t55.5 -198q0 -154 -112 -243t-308 -89q-69 0 -136.5 12.5t-133.5 36.5v164q76 -31 142.5 -46t125.5 -15 q108 0 172 48.5t64 129.5q0 71 -32.5 118.5t-152.5 121.5l-67 39q-92 56 -137.5 122.5t-45.5 145.5q0 128 81 213.5t237 120.5q-2 107 -62.5 164t-173.5 57q-121 0 -178 -65.5t-57 -204.5v-1133h-187z" />
<glyph unicode="&#xe0;" d="M133 326q0 187 125.5 284t368.5 97h247v29q-1 134 -68 194.5t-214 60.5q-94 0 -190 -27t-187 -79v184q102 39 195.5 58.5t181.5 19.5q139 0 237.5 -41t159.5 -123q38 -50 54 -123.5t16 -220.5v-639h-185v166q-59 -100 -148.5 -147.5t-217.5 -47.5q-171 0 -273 96.5 t-102 258.5zM279 1638h198l281 -376h-154zM317 338q0 -101 61 -157t169 -56q152 0 239 105.5t88 291.5v41h-172h-61q-161 0 -242.5 -56.5t-81.5 -168.5z" />
<glyph unicode="&#xe1;" d="M133 326q0 187 125.5 284t368.5 97h247v29q-1 134 -68 194.5t-214 60.5q-94 0 -190 -27t-187 -79v184q102 39 195.5 58.5t181.5 19.5q139 0 237.5 -41t159.5 -123q38 -50 54 -123.5t16 -220.5v-639h-185v166q-59 -100 -148.5 -147.5t-217.5 -47.5q-171 0 -273 96.5 t-102 258.5zM317 338q0 -101 61 -157t169 -56q152 0 239 105.5t88 291.5v41h-172h-61q-161 0 -242.5 -56.5t-81.5 -168.5zM475 1262l281 376h198l-325 -376h-154z" />
<glyph unicode="&#xe2;" d="M133 326q0 187 125.5 284t368.5 97h247v29q-1 134 -68 194.5t-214 60.5q-94 0 -190 -27t-187 -79v184q102 39 195.5 58.5t181.5 19.5q139 0 237.5 -41t159.5 -123q38 -50 54 -123.5t16 -220.5v-639h-185v166q-59 -100 -148.5 -147.5t-217.5 -47.5q-171 0 -273 96.5 t-102 258.5zM297 1262l246 376h147l246 -376h-139l-181 245l-180 -245h-139zM317 338q0 -101 61 -157t169 -56q152 0 239 105.5t88 291.5v41h-172h-61q-161 0 -242.5 -56.5t-81.5 -168.5z" />
<glyph unicode="&#xe3;" d="M133 326q0 187 125.5 284t368.5 97h247v29q-1 134 -68 194.5t-214 60.5q-94 0 -190 -27t-187 -79v184q102 39 195.5 58.5t181.5 19.5q139 0 237.5 -41t159.5 -123q38 -50 54 -123.5t16 -220.5v-639h-185v166q-59 -100 -148.5 -147.5t-217.5 -47.5q-171 0 -273 96.5 t-102 258.5zM287 1309q1 134 52 208t142 74q39 0 71 -14t69 -47l57 -55q21 -20 37.5 -29.5t29.5 -9.5q39 0 57 37t19 118h125q-1 -134 -52 -208t-142 -74q-39 0 -71 14t-69 47l-57 55q-21 20 -37.5 29.5t-30.5 9.5q-38 0 -56 -37t-20 -118h-124zM317 338q0 -101 61 -157 t169 -56q152 0 239 105.5t88 291.5v41h-172h-61q-161 0 -242.5 -56.5t-81.5 -168.5z" />
<glyph unicode="&#xe4;" d="M133 326q0 187 125.5 284t368.5 97h247v29q-1 134 -68 194.5t-214 60.5q-94 0 -190 -27t-187 -79v184q102 39 195.5 58.5t181.5 19.5q139 0 237.5 -41t159.5 -123q38 -50 54 -123.5t16 -220.5v-639h-185v166q-59 -100 -148.5 -147.5t-217.5 -47.5q-171 0 -273 96.5 t-102 258.5zM317 338q0 -101 61 -157t169 -56q152 0 239 105.5t88 291.5v41h-172h-61q-161 0 -242.5 -56.5t-81.5 -168.5zM319 1350v202h203v-202h-203zM711 1350v202h202v-202h-202z" />
<glyph unicode="&#xe5;" d="M133 326q0 187 125.5 284t368.5 97h247v29q-1 134 -68 194.5t-214 60.5q-94 0 -190 -27t-187 -79v184q102 39 195.5 58.5t181.5 19.5q139 0 237.5 -41t159.5 -123q38 -50 54 -123.5t16 -220.5v-639h-185v166q-59 -100 -148.5 -147.5t-217.5 -47.5q-171 0 -273 96.5 t-102 258.5zM317 338q0 -101 61 -157t169 -56q152 0 239 105.5t88 291.5v41h-172h-61q-161 0 -242.5 -56.5t-81.5 -168.5zM342 1524q0 115 79.5 194.5t194.5 79.5q116 0 195.5 -79.5t79.5 -194.5t-79.5 -195t-195.5 -80q-115 0 -194.5 80t-79.5 195zM465 1524 q0 -65 43.5 -108.5t107.5 -43.5t108 44t44 108q0 63 -44 107t-108 44t-107.5 -43.5t-43.5 -107.5z" />
<glyph unicode="&#xe6;" d="M41 307q0 171 100 260.5t291 89.5h117v88q0 120 -49.5 184t-143.5 64q-56 0 -122 -21.5t-128 -60.5v168q77 35 143 51.5t126 16.5q91 0 153 -31.5t99 -95.5q33 61 99 94t155 33q174 0 246.5 -118.5t72.5 -424.5v-90h-491q-1 -15 -1.5 -32.5t-0.5 -51.5q0 -161 50.5 -233 t162.5 -72q79 0 143.5 25.5t114.5 76.5v-172q-55 -41 -121 -62.5t-137 -21.5q-110 0 -184.5 41t-106.5 119q-39 -80 -105.5 -120t-163.5 -40q-156 0 -237.5 86t-81.5 250zM205 311q0 -89 44.5 -137.5t127.5 -48.5q92 0 129 66.5t37 250.5v72h-49q-169 0 -229 -45t-60 -158z M709 657h327v52q0 151 -38.5 217.5t-125.5 66.5t-125 -68t-38 -225v-43z" />
<glyph unicode="&#xe7;" d="M195 559q0 276 146.5 432t406.5 156q81 0 158 -21t155 -65v-193q-73 65 -146.5 94t-166.5 29q-173 0 -266 -112t-93 -320q0 -207 93.5 -319.5t265.5 -112.5q96 0 172 29.5t141 91.5v-191q-74 -43 -152.5 -64.5t-160.5 -21.5q-260 0 -406.5 156t-146.5 432zM499 -240 q34 -17 71.5 -24.5t84.5 -7.5q58 0 88.5 24t30.5 70q0 30 -22 73.5t-66 104.5h118q56 -62 82.5 -114.5t26.5 -100.5q0 -89 -60 -134.5t-178 -45.5q-45 0 -88.5 6t-87.5 18v131z" />
<glyph unicode="&#xe8;" d="M123 559q0 268 144 428t384 160q214 0 337.5 -145t123.5 -396v-90h-797v-6q0 -183 95.5 -283t269.5 -100q88 0 184 28t205 85v-183q-105 -43 -202.5 -64.5t-188.5 -21.5q-261 0 -408 156.5t-147 431.5zM293 1638h198l281 -376h-154zM322 659l606 1q-4 162 -76.5 246.5 t-208.5 84.5q-133 0 -219 -88t-102 -244z" />
<glyph unicode="&#xe9;" d="M123 559q0 268 144 428t384 160q214 0 337.5 -145t123.5 -396v-90h-797v-6q0 -183 95.5 -283t269.5 -100q88 0 184 28t205 85v-183q-105 -43 -202.5 -64.5t-188.5 -21.5q-261 0 -408 156.5t-147 431.5zM322 659l606 1q-4 162 -76.5 246.5t-208.5 84.5q-133 0 -219 -88 t-102 -244zM489 1262l281 376h198l-325 -376h-154z" />
<glyph unicode="&#xea;" d="M123 559q0 268 144 428t384 160q214 0 337.5 -145t123.5 -396v-90h-797v-6q0 -183 95.5 -283t269.5 -100q88 0 184 28t205 85v-183q-105 -43 -202.5 -64.5t-188.5 -21.5q-261 0 -408 156.5t-147 431.5zM311 1262l246 376h147l246 -376h-139l-181 245l-180 -245h-139z M322 659l606 1q-4 162 -76.5 246.5t-208.5 84.5q-133 0 -219 -88t-102 -244z" />
<glyph unicode="&#xeb;" d="M123 559q0 268 144 428t384 160q214 0 337.5 -145t123.5 -396v-90h-797v-6q0 -183 95.5 -283t269.5 -100q88 0 184 28t205 85v-183q-105 -43 -202.5 -64.5t-188.5 -21.5q-261 0 -408 156.5t-147 431.5zM322 659l606 1q-4 162 -76.5 246.5t-208.5 84.5q-133 0 -219 -88 t-102 -244zM333 1350v202h203v-202h-203zM725 1350v202h202v-202h-202z" />
<glyph unicode="&#xec;" d="M178 0v143h365v834h-287v143h471v-977h365v-143h-914zM279 1638h198l281 -376h-154z" />
<glyph unicode="&#xed;" d="M178 0v143h365v834h-287v143h471v-977h365v-143h-914zM475 1262l281 376h198l-325 -376h-154z" />
<glyph unicode="&#xee;" d="M178 0v143h365v834h-287v143h471v-977h365v-143h-914zM297 1262l246 376h147l246 -376h-139l-181 245l-180 -245h-139z" />
<glyph unicode="&#xef;" d="M178 0v143h365v834h-287v143h471v-977h365v-143h-914zM343 1350v202h203v-202h-203zM735 1350v202h202v-202h-202z" />
<glyph unicode="&#xf0;" d="M137 535q0 265 125.5 413t349.5 148q34 0 51.5 -1t32.5 -3q-33 45 -69 89.5t-74 88.5l-279 -92l-30 98l237 80l-182 200h219l127 -145l289 94l33 -98l-250 -80q197 -212 288 -402t91 -390q0 -268 -125.5 -416t-354.5 -148q-228 0 -353.5 148t-125.5 416zM332 535 q0 -196 74 -302t210 -106q137 0 211 106t74 302q0 110 -29 211.5t-79 171.5q-35 13 -76 19.5t-86 6.5q-146 0 -222.5 -105t-76.5 -304z" />
<glyph unicode="&#xf1;" d="M195 0v1120h184v-168q49 96 133 145.5t199 49.5q171 0 255.5 -112.5t84.5 -340.5v-694h-185v694q0 151 -53 222t-166 71q-129 0 -198.5 -91.5t-69.5 -262.5v-633h-184zM287 1309q1 134 52 208t142 74q39 0 71 -14t69 -47l57 -55q21 -20 37.5 -29.5t29.5 -9.5q39 0 57 37 t19 118h125q-1 -134 -52 -208t-142 -74q-39 0 -71 14t-69 47l-57 55q-21 20 -37.5 29.5t-30.5 9.5q-38 0 -56 -37t-20 -118h-124z" />
<glyph unicode="&#xf2;" d="M137 559q0 286 123 437t356 151t356.5 -151t123.5 -437q0 -287 -123 -437.5t-357 -150.5q-233 0 -356 150.5t-123 437.5zM279 1638h198l281 -376h-154zM332 559q0 -213 72 -322.5t212 -109.5q141 0 213 109.5t72 322.5q0 214 -72 323t-213 109q-140 0 -212 -109t-72 -323 z" />
<glyph unicode="&#xf3;" d="M137 559q0 286 123 437t356 151t356.5 -151t123.5 -437q0 -287 -123 -437.5t-357 -150.5q-233 0 -356 150.5t-123 437.5zM332 559q0 -213 72 -322.5t212 -109.5q141 0 213 109.5t72 322.5q0 214 -72 323t-213 109q-140 0 -212 -109t-72 -323zM475 1262l281 376h198 l-325 -376h-154z" />
<glyph unicode="&#xf4;" d="M137 559q0 286 123 437t356 151t356.5 -151t123.5 -437q0 -287 -123 -437.5t-357 -150.5q-233 0 -356 150.5t-123 437.5zM297 1262l246 376h147l246 -376h-139l-181 245l-180 -245h-139zM332 559q0 -213 72 -322.5t212 -109.5q141 0 213 109.5t72 322.5q0 214 -72 323 t-213 109q-140 0 -212 -109t-72 -323z" />
<glyph unicode="&#xf5;" d="M137 559q0 286 123 437t356 151t356.5 -151t123.5 -437q0 -287 -123 -437.5t-357 -150.5q-233 0 -356 150.5t-123 437.5zM287 1309q1 134 52 208t142 74q39 0 71 -14t69 -47l57 -55q21 -20 37.5 -29.5t29.5 -9.5q39 0 57 37t19 118h125q-1 -134 -52 -208t-142 -74 q-39 0 -71 14t-69 47l-57 55q-21 20 -37.5 29.5t-30.5 9.5q-38 0 -56 -37t-20 -118h-124zM332 559q0 -213 72 -322.5t212 -109.5q141 0 213 109.5t72 322.5q0 214 -72 323t-213 109q-140 0 -212 -109t-72 -323z" />
<glyph unicode="&#xf6;" d="M137 559q0 286 123 437t356 151t356.5 -151t123.5 -437q0 -287 -123 -437.5t-357 -150.5q-233 0 -356 150.5t-123 437.5zM319 1350v202h203v-202h-203zM332 559q0 -213 72 -322.5t212 -109.5q141 0 213 109.5t72 322.5q0 214 -72 323t-213 109q-140 0 -212 -109t-72 -323 zM711 1350v202h202v-202h-202z" />
<glyph unicode="&#xf7;" d="M88 557v170h1057v-170h-1057zM494 150v245h245v-245h-245zM494 889v246h245v-246h-245z" />
<glyph unicode="&#xf8;" d="M47 -20l170 200q-39 71 -59.5 168.5t-20.5 210.5q0 286 123 437t356 151q100 0 179 -27.5t139 -83.5l147 176l93 -77l-164 -195q42 -66 64 -162.5t22 -218.5q0 -287 -123 -437.5t-357 -150.5q-103 0 -181.5 29.5t-135.5 89.5l-160 -186zM328 575q0 -48 7 -106t21 -129 l461 557q-35 48 -84.5 71t-116.5 23q-139 0 -213.5 -107t-74.5 -309zM414 221q36 -47 86.5 -70.5t115.5 -23.5q141 0 213 109.5t72 322.5q0 52 -6 107.5t-18 113.5z" />
<glyph unicode="&#xf9;" d="M195 424v694h184v-694q0 -151 53.5 -222t165.5 -71q130 0 199 91.5t69 262.5v633h185v-1118h-185v168q-49 -97 -133.5 -147t-197.5 -50q-172 0 -256 112.5t-84 340.5zM279 1638h198l281 -376h-154z" />
<glyph unicode="&#xfa;" d="M195 424v694h184v-694q0 -151 53.5 -222t165.5 -71q130 0 199 91.5t69 262.5v633h185v-1118h-185v168q-49 -97 -133.5 -147t-197.5 -50q-172 0 -256 112.5t-84 340.5zM475 1262l281 376h198l-325 -376h-154z" />
<glyph unicode="&#xfb;" d="M195 424v694h184v-694q0 -151 53.5 -222t165.5 -71q130 0 199 91.5t69 262.5v633h185v-1118h-185v168q-49 -97 -133.5 -147t-197.5 -50q-172 0 -256 112.5t-84 340.5zM297 1262l246 376h147l246 -376h-139l-181 245l-180 -245h-139z" />
<glyph unicode="&#xfc;" d="M195 424v694h184v-694q0 -151 53.5 -222t165.5 -71q130 0 199 91.5t69 262.5v633h185v-1118h-185v168q-49 -97 -133.5 -147t-197.5 -50q-172 0 -256 112.5t-84 340.5zM319 1350v202h203v-202h-203zM711 1350v202h202v-202h-202z" />
<glyph unicode="&#xfd;" d="M104 1120h195l332 -876l327 876h195l-295 -760q-46 -117 -117 -308q-99 -264 -133 -322q-46 -78 -115 -117t-161 -39h-148v154h109q81 0 127 47t117 243zM475 1262l281 376h198l-325 -376h-154z" />
<glyph unicode="&#xfe;" d="M190 -426v1993h185v-590q46 83 122.5 126.5t176.5 43.5q203 0 318.5 -157t115.5 -435q0 -273 -116 -428.5t-318 -155.5q-102 0 -178.5 43.5t-120.5 126.5v-567h-185zM375 559q0 -212 69 -322t203 -110q133 0 200.5 109t67.5 323t-67.5 323t-200.5 109q-134 0 -203 -109.5 t-69 -322.5z" />
<glyph unicode="&#xff;" d="M104 1120h195l332 -876l327 876h195l-295 -760q-46 -117 -117 -308q-99 -264 -133 -322q-46 -78 -115 -117t-161 -39h-148v154h109q81 0 127 47t117 243zM319 1350v202h203v-202h-203zM711 1350v202h202v-202h-202z" />
<glyph unicode="&#x100;" d="M37 0l457 1493h245l457 -1493h-209l-110 389h-523l-108 -389h-209zM317 1692v148h598v-148h-598zM403 551h426l-213 764z" />
<glyph unicode="&#x101;" d="M133 326q0 187 125.5 284t368.5 97h247v29q-1 134 -68 194.5t-214 60.5q-94 0 -190 -27t-187 -79v184q102 39 195.5 58.5t181.5 19.5q139 0 237.5 -41t159.5 -123q38 -50 54 -123.5t16 -220.5v-639h-185v166q-59 -100 -148.5 -147.5t-217.5 -47.5q-171 0 -273 96.5 t-102 258.5zM317 338q0 -101 61 -157t169 -56q152 0 239 105.5t88 291.5v41h-172h-61q-161 0 -242.5 -56.5t-81.5 -168.5zM317 1378v148h598v-148h-598z" />
<glyph unicode="&#x102;" d="M37 0l457 1493h245l457 -1493h-209l-110 389h-523l-108 -389h-209zM303 1901h119q12 -54 62 -82.5t132 -28.5q83 0 131.5 27.5t63.5 83.5h119q-11 -119 -90.5 -180.5t-223.5 -61.5t-223 61t-90 181zM403 551h426l-213 764z" />
<glyph unicode="&#x103;" d="M133 326q0 187 125.5 284t368.5 97h247v29q-1 134 -68 194.5t-214 60.5q-94 0 -190 -27t-187 -79v184q102 39 195.5 58.5t181.5 19.5q139 0 237.5 -41t159.5 -123q38 -50 54 -123.5t16 -220.5v-639h-185v166q-59 -100 -148.5 -147.5t-217.5 -47.5q-171 0 -273 96.5 t-102 258.5zM303 1608h119q11 -76 59 -113t135 -37q85 0 133 37t62 113h119q-11 -143 -90 -215t-224 -72q-144 0 -223 72t-90 215zM317 338q0 -101 61 -157t169 -56q152 0 239 105.5t88 291.5v41h-172h-61q-161 0 -242.5 -56.5t-81.5 -168.5z" />
<glyph unicode="&#x104;" d="M37 0l457 1493h245l457 -1493h-209l-110 389h-523l-108 -389h-209zM403 551h426l-213 764zM875 -215q0 48 26.5 100.5t81.5 114.5h119q-45 -61 -66.5 -105t-21.5 -75q0 -46 27.5 -69t81.5 -23q32 0 63 7.5t62 22.5v-133q-38 -10 -72 -15t-64 -5q-122 0 -179.5 43.5 t-57.5 136.5z" />
<glyph unicode="&#x105;" d="M133 326q0 187 125.5 284t368.5 97h247v29q-1 134 -68 194.5t-214 60.5q-94 0 -190 -27t-187 -79v184q102 39 195.5 58.5t181.5 19.5q139 0 237.5 -41t159.5 -123q38 -50 54 -123.5t16 -220.5v-639h-185v166q-59 -100 -148.5 -147.5t-217.5 -47.5q-171 0 -273 96.5 t-102 258.5zM317 338q0 -101 61 -157t169 -56q152 0 239 105.5t88 291.5v41h-172h-61q-161 0 -242.5 -56.5t-81.5 -168.5zM765 -215q0 48 26.5 100.5t81.5 114.5h119q-45 -61 -66.5 -105t-21.5 -75q0 -46 27.5 -69t81.5 -23q32 0 63 7.5t62 22.5v-133q-38 -10 -72 -15 t-64 -5q-122 0 -179.5 43.5t-57.5 136.5z" />
<glyph unicode="&#x106;" d="M139 745q0 366 159.5 570.5t444.5 204.5q91 0 172 -20.5t158 -61.5v-207q-74 61 -159 93t-171 32q-197 0 -295 -152t-98 -459q0 -306 98 -458t295 -152q88 0 172.5 32t157.5 93v-207q-77 -41 -158 -61.5t-172 -20.5q-287 0 -445.5 203t-158.5 571zM565 1635l197 264h186 l-229 -264h-154z" />
<glyph unicode="&#x107;" d="M195 559q0 276 146.5 432t406.5 156q81 0 158 -21t155 -65v-193q-73 65 -146.5 94t-166.5 29q-173 0 -266 -112t-93 -320q0 -207 93.5 -319.5t265.5 -112.5q96 0 172 29.5t141 91.5v-191q-74 -43 -152.5 -64.5t-160.5 -21.5q-260 0 -406.5 156t-146.5 432zM565 1262 l281 376h198l-325 -376h-154z" />
<glyph unicode="&#x108;" d="M139 745q0 366 159.5 570.5t444.5 204.5q91 0 172 -20.5t158 -61.5v-207q-74 61 -159 93t-171 32q-197 0 -295 -152t-98 -459q0 -306 98 -458t295 -152q88 0 172.5 32t157.5 93v-207q-77 -41 -158 -61.5t-172 -20.5q-287 0 -445.5 203t-158.5 571zM437 1642l211 266h189 l211 -266h-140l-166 178l-165 -178h-140z" />
<glyph unicode="&#x109;" d="M195 559q0 276 146.5 432t406.5 156q81 0 158 -21t155 -65v-193q-73 65 -146.5 94t-166.5 29q-173 0 -266 -112t-93 -320q0 -207 93.5 -319.5t265.5 -112.5q96 0 172 29.5t141 91.5v-191q-74 -43 -152.5 -64.5t-160.5 -21.5q-260 0 -406.5 156t-146.5 432zM387 1262 l246 376h147l246 -376h-139l-181 245l-180 -245h-139z" />
<glyph unicode="&#x10a;" d="M139 745q0 366 159.5 570.5t444.5 204.5q91 0 172 -20.5t158 -61.5v-207q-74 61 -159 93t-171 32q-197 0 -295 -152t-98 -459q0 -306 98 -458t295 -152q88 0 172.5 32t157.5 93v-207q-77 -41 -158 -61.5t-172 -20.5q-287 0 -445.5 203t-158.5 571zM588 1667v205h205v-205 h-205z" />
<glyph unicode="&#x10b;" d="M195 559q0 276 146.5 432t406.5 156q81 0 158 -21t155 -65v-193q-73 65 -146.5 94t-166.5 29q-173 0 -266 -112t-93 -320q0 -207 93.5 -319.5t265.5 -112.5q96 0 172 29.5t141 91.5v-191q-74 -43 -152.5 -64.5t-160.5 -21.5q-260 0 -406.5 156t-146.5 432zM588 1348v204 h205v-204h-205z" />
<glyph unicode="&#x10c;" d="M139 745q0 366 159.5 570.5t444.5 204.5q91 0 172 -20.5t158 -61.5v-207q-74 61 -159 93t-171 32q-197 0 -295 -152t-98 -459q0 -306 98 -458t295 -152q88 0 172.5 32t157.5 93v-207q-77 -41 -158 -61.5t-172 -20.5q-287 0 -445.5 203t-158.5 571zM401 1901h140l165 -178 l166 178h140l-211 -266h-189z" />
<glyph unicode="&#x10d;" d="M195 559q0 276 146.5 432t406.5 156q81 0 158 -21t155 -65v-193q-73 65 -146.5 94t-166.5 29q-173 0 -266 -112t-93 -320q0 -207 93.5 -319.5t265.5 -112.5q96 0 172 29.5t141 91.5v-191q-74 -43 -152.5 -64.5t-160.5 -21.5q-260 0 -406.5 156t-146.5 432zM387 1638h139 l180 -245l181 245h139l-246 -376h-147z" />
<glyph unicode="&#x10e;" d="M137 0v1493h303q342 0 504 -182t162 -566q0 -382 -162 -563.5t-504 -181.5h-303zM233 1895h140l165 -178l166 178h140l-211 -266h-189zM340 166h96q255 0 356 125.5t101 453.5q0 331 -100.5 456.5t-356.5 125.5h-96v-1161z" />
<glyph unicode="&#x10f;" d="M123 563q0 273 117 428.5t319 155.5q101 0 178 -43.5t121 -126.5v579h184v-1556h-184v141q-46 -83 -122.5 -126.5t-176.5 -43.5q-203 0 -319.5 157.5t-116.5 434.5zM317 559q0 -214 68 -323t201 -109t202.5 110t69.5 322q0 213 -69.5 322.5t-202.5 109.5t-201 -109 t-68 -323zM1045 1181l69 376h198l-113 -376h-154z" />
<glyph unicode="&#x110;" d="M8 709v149h125v635h303q342 0 504 -182t162 -566q0 -382 -162.5 -563.5t-503.5 -181.5h-303v709h-125zM340 166h96q255 0 356 125.5t101 453.5q0 331 -100.5 456.5t-356.5 125.5h-96v-469h264v-149h-264v-543z" />
<glyph unicode="&#x111;" d="M123 563q0 273 117 428.5t319 155.5q101 0 178 -43.5t121 -126.5v309h-305v121h305v149h184v-149h191v-121h-191v-1286h-184v141q-46 -83 -122.5 -126.5t-176.5 -43.5q-203 0 -319.5 157.5t-116.5 434.5zM317 559q0 -214 68 -323t201 -109t202.5 110t69.5 322 q0 213 -69.5 322.5t-202.5 109.5t-201 -109t-68 -323z" />
<glyph unicode="&#x112;" d="M197 0v1493h886v-170h-684v-442h654v-170h-654v-541h703v-170h-905zM335 1692v148h598v-148h-598z" />
<glyph unicode="&#x113;" d="M123 559q0 268 144 428t384 160q214 0 337.5 -145t123.5 -396v-90h-797v-6q0 -183 95.5 -283t269.5 -100q88 0 184 28t205 85v-183q-105 -43 -202.5 -64.5t-188.5 -21.5q-261 0 -408 156.5t-147 431.5zM322 659l606 1q-4 162 -76.5 246.5t-208.5 84.5q-133 0 -219 -88 t-102 -244zM352 1378v148h598v-148h-598z" />
<glyph unicode="&#x114;" d="M197 0v1493h886v-170h-684v-442h654v-170h-654v-541h703v-170h-905zM321 1901h119q12 -54 62 -82.5t132 -28.5q83 0 131.5 27.5t63.5 83.5h119q-11 -119 -90.5 -180.5t-223.5 -61.5t-223 61t-90 181z" />
<glyph unicode="&#x115;" d="M123 559q0 268 144 428t384 160q214 0 337.5 -145t123.5 -396v-90h-797v-6q0 -183 95.5 -283t269.5 -100q88 0 184 28t205 85v-183q-105 -43 -202.5 -64.5t-188.5 -21.5q-261 0 -408 156.5t-147 431.5zM317 1608h119q11 -76 59 -113t135 -37q85 0 133 37t62 113h119 q-11 -143 -90 -215t-224 -72q-144 0 -223 72t-90 215zM322 659l606 1q-4 162 -76.5 246.5t-208.5 84.5q-133 0 -219 -88t-102 -244z" />
<glyph unicode="&#x116;" d="M197 0v1493h886v-170h-684v-442h654v-170h-654v-541h703v-170h-905zM531 1667v205h205v-205h-205z" />
<glyph unicode="&#x117;" d="M123 559q0 268 144 428t384 160q214 0 337.5 -145t123.5 -396v-90h-797v-6q0 -183 95.5 -283t269.5 -100q88 0 184 28t205 85v-183q-105 -43 -202.5 -64.5t-188.5 -21.5q-261 0 -408 156.5t-147 431.5zM322 659l606 1q-4 162 -76.5 246.5t-208.5 84.5q-133 0 -219 -88 t-102 -244zM527 1348v204h205v-204h-205z" />
<glyph unicode="&#x118;" d="M197 0v1493h886v-170h-684v-442h654v-170h-654v-541h703v-170h-905zM725 -215q0 48 26.5 100.5t81.5 114.5h119q-45 -61 -66.5 -105t-21.5 -75q0 -46 27.5 -69t81.5 -23q32 0 63 7.5t62 22.5v-133q-38 -10 -72 -15t-64 -5q-122 0 -179.5 43.5t-57.5 136.5z" />
<glyph unicode="&#x119;" d="M123 559q0 268 144 428t384 160q214 0 337.5 -145t123.5 -396v-90h-797v-6q0 -183 95.5 -283t269.5 -100q88 0 184 28t205 85v-183q-105 -43 -202.5 -64.5t-188.5 -21.5q-261 0 -408 156.5t-147 431.5zM322 659l606 1q-4 162 -76.5 246.5t-208.5 84.5q-133 0 -219 -88 t-102 -244zM666 -215q0 48 26.5 100.5t81.5 114.5h119q-45 -61 -66.5 -105t-21.5 -75q0 -46 27.5 -69t81.5 -23q32 0 63 7.5t62 22.5v-133q-38 -10 -72 -15t-64 -5q-122 0 -179.5 43.5t-57.5 136.5z" />
<glyph unicode="&#x11a;" d="M197 0v1493h886v-170h-684v-442h654v-170h-654v-541h703v-170h-905zM347 1895h140l165 -178l166 178h140l-211 -266h-189z" />
<glyph unicode="&#x11b;" d="M123 559q0 268 144 428t384 160q214 0 337.5 -145t123.5 -396v-90h-797v-6q0 -183 95.5 -283t269.5 -100q88 0 184 28t205 85v-183q-105 -43 -202.5 -64.5t-188.5 -21.5q-261 0 -408 156.5t-147 431.5zM322 659l606 1q-4 162 -76.5 246.5t-208.5 84.5q-133 0 -219 -88 t-102 -244zM332 1633h139l180 -245l181 245h139l-246 -376h-147z" />
<glyph unicode="&#x11c;" d="M102 745q0 366 160 570.5t445 204.5q94 0 180 -26.5t166 -80.5v-207q-81 77 -166 113.5t-180 36.5q-197 0 -295.5 -152.5t-98.5 -458.5q0 -311 95.5 -460.5t293.5 -149.5q67 0 117.5 15.5t91.5 48.5v401h-217v166h410v-643q-81 -75 -182.5 -113.5t-219.5 -38.5 q-284 0 -442 203.5t-158 570.5zM311 1635l211 266h189l211 -266h-140l-166 178l-165 -178h-140z" />
<glyph unicode="&#x11d;" d="M123 569q0 264 117 421t313 157q108 0 183 -43t122 -133v145h184v-1044q0 -252 -119 -382t-350 -130q-76 0 -159 14t-166 41v182q98 -46 178 -68t147 -22q149 0 217 81t68 257v8v125q-44 -94 -120 -140t-185 -46q-196 0 -313 157t-117 420zM297 1262l246 376h147 l246 -376h-139l-181 245l-180 -245h-139zM317 569q0 -207 71.5 -315.5t207.5 -108.5q127 0 194.5 109t67.5 315q0 207 -67.5 314.5t-196.5 107.5q-135 0 -206 -107.5t-71 -314.5z" />
<glyph unicode="&#x11e;" d="M102 745q0 366 160 570.5t445 204.5q94 0 180 -26.5t166 -80.5v-207q-81 77 -166 113.5t-180 36.5q-197 0 -295.5 -152.5t-98.5 -458.5q0 -311 95.5 -460.5t293.5 -149.5q67 0 117.5 15.5t91.5 48.5v401h-217v166h410v-643q-81 -75 -182.5 -113.5t-219.5 -38.5 q-284 0 -442 203.5t-158 570.5zM353 1901h119q12 -54 62 -82.5t132 -28.5q83 0 131.5 27.5t63.5 83.5h119q-11 -119 -90.5 -180.5t-223.5 -61.5t-223 61t-90 181z" />
<glyph unicode="&#x11f;" d="M123 569q0 264 117 421t313 157q108 0 183 -43t122 -133v145h184v-1044q0 -252 -119 -382t-350 -130q-76 0 -159 14t-166 41v182q98 -46 178 -68t147 -22q149 0 217 81t68 257v8v125q-44 -94 -120 -140t-185 -46q-196 0 -313 157t-117 420zM303 1608h119q11 -76 59 -113 t135 -37q85 0 133 37t62 113h119q-11 -143 -90 -215t-224 -72q-144 0 -223 72t-90 215zM317 569q0 -207 71.5 -315.5t207.5 -108.5q127 0 194.5 109t67.5 315q0 207 -67.5 314.5t-196.5 107.5q-135 0 -206 -107.5t-71 -314.5z" />
<glyph unicode="&#x120;" d="M102 745q0 366 160 570.5t445 204.5q94 0 180 -26.5t166 -80.5v-207q-81 77 -166 113.5t-180 36.5q-197 0 -295.5 -152.5t-98.5 -458.5q0 -311 95.5 -460.5t293.5 -149.5q67 0 117.5 15.5t91.5 48.5v401h-217v166h410v-643q-81 -75 -182.5 -113.5t-219.5 -38.5 q-284 0 -442 203.5t-158 570.5zM563 1667v205h205v-205h-205z" />
<glyph unicode="&#x121;" d="M123 569q0 264 117 421t313 157q108 0 183 -43t122 -133v145h184v-1044q0 -252 -119 -382t-350 -130q-76 0 -159 14t-166 41v182q98 -46 178 -68t147 -22q149 0 217 81t68 257v8v125q-44 -94 -120 -140t-185 -46q-196 0 -313 157t-117 420zM317 569q0 -207 71.5 -315.5 t207.5 -108.5q127 0 194.5 109t67.5 315q0 207 -67.5 314.5t-196.5 107.5q-135 0 -206 -107.5t-71 -314.5zM513 1348v204h205v-204h-205z" />
<glyph unicode="&#x122;" d="M102 745q0 366 160 570.5t445 204.5q94 0 180 -26.5t166 -80.5v-207q-81 77 -166 113.5t-180 36.5q-197 0 -295.5 -152.5t-98.5 -458.5q0 -311 95.5 -460.5t293.5 -149.5q67 0 117.5 15.5t91.5 48.5v401h-217v166h410v-643q-81 -75 -182.5 -113.5t-219.5 -38.5 q-284 0 -442 203.5t-158 570.5zM536 -573l94 345h239l-187 -345h-146z" />
<glyph unicode="&#x123;" d="M123 569q0 264 117 421t313 157q108 0 183 -43t122 -133v145h184v-1044q0 -252 -119 -382t-350 -130q-76 0 -159 14t-166 41v182q98 -46 178 -68t147 -22q149 0 217 81t68 257v8v125q-44 -94 -120 -140t-185 -46q-196 0 -313 157t-117 420zM317 569q0 -207 71.5 -315.5 t207.5 -108.5q127 0 194.5 109t67.5 315q0 207 -67.5 314.5t-196.5 107.5q-135 0 -206 -107.5t-71 -314.5zM486 1269l187 345h146l-94 -345h-239z" />
<glyph unicode="&#x124;" d="M137 0v1493h203v-612h553v612h203v-1493h-203v711h-553v-711h-203zM311 1635l211 266h189l211 -266h-140l-166 178l-165 -178h-140z" />
<glyph unicode="&#x125;" d="M195 0v1556h184v-604q49 96 133 145.5t199 49.5q171 0 255.5 -112.5t84.5 -340.5v-694h-185v694q0 151 -53 222t-166 71q-129 0 -198.5 -91.5t-69.5 -262.5v-633h-184zM311 1635l211 266h189l211 -266h-140l-166 178l-165 -178h-140z" />
<glyph unicode="&#x126;" d="M3 1105v164h134v224h202v-224h554v224h202v-224h135v-164h-135v-1105h-202v711h-554v-711h-202v1105h-134zM339 881h554v224h-554v-224z" />
<glyph unicode="&#x127;" d="M70 1270v164h125v122h184v-122h353v-164h-353v-318q49 96 133 145.5t199 49.5q171 0 255.5 -112.5t84.5 -340.5v-694h-185v694q0 151 -53 222t-166 71q-129 0 -198.5 -91.5t-69.5 -262.5v-633h-184v1270h-125z" />
<glyph unicode="&#x128;" d="M201 0v170h313v1153h-313v170h829v-170h-313v-1153h313v-170h-829zM287 1667q0 101 51.5 160t136.5 59q36 0 66.5 -8t79.5 -35l57 -30q22 -13 39.5 -19t32.5 -6q31 0 51 25.5t20 66.5v6h125q-2 -100 -53 -159.5t-135 -59.5q-34 0 -64 8t-82 35l-57 33q-25 14 -40.5 19.5 t-27.5 5.5q-35 0 -55 -25t-20 -70v-6h-125z" />
<glyph unicode="&#x129;" d="M178 0v143h365v834h-287v143h471v-977h365v-143h-914zM287 1309q1 134 52 208t142 74q39 0 71 -14t69 -47l57 -55q21 -20 37.5 -29.5t29.5 -9.5q39 0 57 37t19 118h125q-1 -134 -52 -208t-142 -74q-39 0 -71 14t-69 47l-57 55q-21 20 -37.5 29.5t-30.5 9.5q-38 0 -56 -37 t-20 -118h-124z" />
<glyph unicode="&#x12a;" d="M201 0v170h313v1153h-313v170h829v-170h-313v-1153h313v-170h-829zM317 1692v148h598v-148h-598z" />
<glyph unicode="&#x12b;" d="M178 0v143h365v834h-287v143h471v-977h365v-143h-914zM317 1378v148h598v-148h-598z" />
<glyph unicode="&#x12c;" d="M201 0v170h313v1153h-313v170h829v-170h-313v-1153h313v-170h-829zM303 1901h119q12 -54 62 -82.5t132 -28.5q83 0 131.5 27.5t63.5 83.5h119q-11 -119 -90.5 -180.5t-223.5 -61.5t-223 61t-90 181z" />
<glyph unicode="&#x12d;" d="M178 0v143h365v834h-287v143h471v-977h365v-143h-914zM303 1608h119q11 -76 59 -113t135 -37q85 0 133 37t62 113h119q-11 -143 -90 -215t-224 -72q-144 0 -223 72t-90 215z" />
<glyph unicode="&#x12e;" d="M201 0v170h313v1153h-313v170h829v-170h-313v-1153h313v-170h-829zM490 -215q0 48 26.5 100.5t81.5 114.5h119q-45 -61 -66.5 -105t-21.5 -75q0 -46 27.5 -69t81.5 -23q32 0 63 7.5t62 22.5v-133q-38 -10 -72 -15t-64 -5q-122 0 -179.5 43.5t-57.5 136.5z" />
<glyph unicode="&#x12f;" d="M178 0v143h365v834h-287v143h471v-977h365v-143h-914zM500 -215q0 48 26.5 100.5t81.5 114.5h119q-45 -61 -66.5 -105t-21.5 -75q0 -46 27.5 -69t81.5 -23q32 0 63 7.5t62 22.5v-133q-38 -10 -72 -15t-64 -5q-122 0 -179.5 43.5t-57.5 136.5zM543 1323v233h184v-233h-184 z" />
<glyph unicode="&#x130;" d="M201 0v170h313v1153h-313v170h829v-170h-313v-1153h313v-170h-829zM513 1667v205h205v-205h-205z" />
<glyph unicode="&#x131;" d="M178 0v143h365v834h-287v143h471v-977h365v-143h-914z" />
<glyph unicode="&#x132;" d="M-1 0v170h228v1153h-228v170h605v-170h-228v-1153h228v-170h-605zM652 64v236q61 -81 127 -121.5t137 -40.5q97 0 136 74q38 75 38 278v836h-259v170h397v-1006q0 -282 -72 -399t-240 -117q-65 0 -130 22q-64 22 -134 68z" />
<glyph unicode="&#x133;" d="M-5 0v143h299v834h-235v143h386v-977h300v-143h-750zM294 1323v233h151v-233h-151zM564 -281h234q90 0 135 62.5t45 187.5v997h-317v143h501v-1140q0 -195 -89.5 -300.5t-254.5 -105.5h-254v156zM978 1312v233h184v-233h-184z" />
<glyph unicode="&#x134;" d="M109 61v236q91 -81 188 -121.5t201 -40.5q143 0 199.5 74.5t56.5 277.5v836h-381v170h583v-1006q0 -282 -105.5 -399t-352.5 -117q-96 0 -191 22t-198 68zM359 1635l211 266h189l211 -266h-140l-166 178l-165 -178h-140z" />
<glyph unicode="&#x135;" d="M186 -270h234q90 0 135 62.5t45 187.5v997h-317v143h501v-1140q0 -195 -89.5 -300.5t-254.5 -105.5h-254v156zM297 1262l246 376h147l246 -376h-139l-181 245l-180 -245h-139z" />
<glyph unicode="&#x136;" d="M137 0v1493h203v-664l631 664h237l-581 -610l598 -883h-244l-487 748l-154 -164v-584h-203zM514 -544l94 345h239l-187 -345h-146z" />
<glyph unicode="&#x137;" d="M236 0v1556h190v-901l483 465h224l-441 -422l510 -698h-225l-414 578l-137 -129v-449h-190zM552 -544l94 345h239l-187 -345h-146z" />
<glyph unicode="&#x138;" d="M236 0v1120h190v-465l483 465h224l-441 -422l510 -698h-225l-414 578l-137 -129v-449h-190z" />
<glyph unicode="&#x139;" d="M200 1636l197 264h186l-229 -264h-154zM215 0v1493h203v-1323h721v-170h-924z" />
<glyph unicode="&#x13a;" d="M160 1423v144h479v-1161q0 -124 45.5 -187t134.5 -63h215v-156h-233q-165 0 -255.5 106t-90.5 300v1017h-295zM380 1636l197 264h186l-229 -264h-154z" />
<glyph unicode="&#x13b;" d="M215 0v1493h203v-1323h721v-170h-924zM510 -544l94 345h239l-187 -345h-146z" />
<glyph unicode="&#x13c;" d="M160 1423v144h479v-1161q0 -124 45.5 -187t134.5 -63h215v-156h-233q-165 0 -255.5 106t-90.5 300v1017h-295zM403 -544l94 345h239l-187 -345h-146z" />
<glyph unicode="&#x13d;" d="M215 0v1493h203v-1323h721v-170h-924zM649 1115l69 376h198l-113 -376h-154z" />
<glyph unicode="&#x13e;" d="M160 1423v144h479v-1161q0 -124 45.5 -187t134.5 -63h215v-156h-233q-165 0 -255.5 106t-90.5 300v1017h-295zM891 1191l69 376h198l-113 -376h-154z" />
<glyph unicode="&#x13f;" d="M215 0v1493h203v-1323h721v-170h-924zM841 693v305h252v-305h-252z" />
<glyph unicode="&#x140;" d="M160 1423v144h479v-1161q0 -124 45.5 -187t134.5 -63h215v-156h-233q-165 0 -255.5 106t-90.5 300v1017h-295zM960 703v305h252v-305h-252z" />
<glyph unicode="&#x141;" d="M-10 575l225 158v760h203v-616l315 219l78 -111l-393 -274v-541h721v-170h-924v571l-145 -106z" />
<glyph unicode="&#x142;" d="M76 600l379 264v559h-295v144h479v-578l315 219l80 -110l-395 -275v-417q0 -124 45.5 -187t134.5 -63h215v-156h-233q-165 0 -255.5 106t-90.5 300v292l-299 -209z" />
<glyph unicode="&#x143;" d="M139 0v1493h256l504 -1229v1229h195v-1493h-256l-504 1229v-1229h-195zM508 1635l197 264h186l-229 -264h-154z" />
<glyph unicode="&#x144;" d="M195 0v1120h184v-168q49 96 133 145.5t199 49.5q171 0 255.5 -112.5t84.5 -340.5v-694h-185v694q0 151 -53 222t-166 71q-129 0 -198.5 -91.5t-69.5 -262.5v-633h-184zM495 1269l281 376h198l-325 -376h-154z" />
<glyph unicode="&#x145;" d="M139 0v1493h256l504 -1229v1229h195v-1493h-256l-504 1229v-1229h-195zM450 -544l94 345h239l-187 -345h-146z" />
<glyph unicode="&#x146;" d="M195 0v1120h184v-168q49 96 133 145.5t199 49.5q171 0 255.5 -112.5t84.5 -340.5v-694h-185v694q0 151 -53 222t-166 71q-129 0 -198.5 -91.5t-69.5 -262.5v-633h-184zM456 -544l94 345h239l-187 -345h-146z" />
<glyph unicode="&#x147;" d="M139 0v1493h256l504 -1229v1229h195v-1493h-256l-504 1229v-1229h-195zM353 1901h140l165 -178l166 178h140l-211 -266h-189z" />
<glyph unicode="&#x148;" d="M195 0v1120h184v-168q49 96 133 145.5t199 49.5q171 0 255.5 -112.5t84.5 -340.5v-694h-185v694q0 151 -53 222t-166 71q-129 0 -198.5 -91.5t-69.5 -262.5v-633h-184zM285 1638h139l180 -245l181 245h139l-246 -376h-147z" />
<glyph unicode="&#x149;" d="M24 967l98 383v206h252v-206l-197 -383h-153zM318 0v1120h184v-168q49 96 133 145.5t199 49.5q171 0 255.5 -112.5t84.5 -340.5v-694h-185v694q0 151 -53 222t-166 71q-129 0 -198.5 -91.5t-69.5 -262.5v-633h-184z" />
<glyph unicode="&#x14a;" d="M147 0v1493h202v-198q54 111 146 169t218 58q187 0 279.5 -130.5t92.5 -392.5v-1019q0 -195 -89 -300q-90 -106 -255 -106h-205v156h167q90 0 135 62q44 62 44 208v1009q0 180 -58 264.5t-182 84.5q-141 0 -217 -109t-76 -312v-937h-202z" />
<glyph unicode="&#x14b;" d="M195 0v1120h184v-168q49 96 133 146q84 49 199 49q171 0 255 -113q85 -112 85 -340v-714q0 -195 -89 -300q-90 -106 -255 -106h-205v156h185q90 0 135 62q44 62 44 188v714q0 151 -53 222t-166 71q-129 0 -199 -91q-69 -92 -69 -263v-633h-184z" />
<glyph unicode="&#x14c;" d="M117 745q0 391 123.5 583t375.5 192q253 0 376.5 -192t123.5 -583q0 -390 -123.5 -582t-376.5 -192t-376 191t-123 583zM317 1692v148h598v-148h-598zM328 745q0 -328 67.5 -469t220.5 -141q154 0 221.5 140.5t67.5 469.5t-67.5 470t-221.5 141q-153 0 -220.5 -141 t-67.5 -470z" />
<glyph unicode="&#x14d;" d="M137 559q0 286 123 437t356 151t356.5 -151t123.5 -437q0 -287 -123 -437.5t-357 -150.5q-233 0 -356 150.5t-123 437.5zM317 1378v148h598v-148h-598zM332 559q0 -213 72 -322.5t212 -109.5q141 0 213 109.5t72 322.5q0 214 -72 323t-213 109q-140 0 -212 -109t-72 -323 z" />
<glyph unicode="&#x14e;" d="M117 745q0 391 123.5 583t375.5 192q253 0 376.5 -192t123.5 -583q0 -390 -123.5 -582t-376.5 -192t-376 191t-123 583zM303 1901h119q12 -54 62 -82.5t132 -28.5q83 0 131.5 27.5t63.5 83.5h119q-11 -119 -90.5 -180.5t-223.5 -61.5t-223 61t-90 181zM328 745 q0 -328 67.5 -469t220.5 -141q154 0 221.5 140.5t67.5 469.5t-67.5 470t-221.5 141q-153 0 -220.5 -141t-67.5 -470z" />
<glyph unicode="&#x14f;" d="M137 559q0 286 123 437t356 151t356.5 -151t123.5 -437q0 -287 -123 -437.5t-357 -150.5q-233 0 -356 150.5t-123 437.5zM303 1608h119q11 -76 59 -113t135 -37q85 0 133 37t62 113h119q-11 -143 -90 -215t-224 -72q-144 0 -223 72t-90 215zM332 559q0 -213 72 -322.5 t212 -109.5q141 0 213 109.5t72 322.5q0 214 -72 323t-213 109q-140 0 -212 -109t-72 -323z" />
<glyph unicode="&#x150;" d="M117 745q0 391 123.5 583t375.5 192q253 0 376.5 -192t123.5 -583q0 -390 -123.5 -582t-376.5 -192t-376 191t-123 583zM328 745q0 -328 67.5 -469t220.5 -141q154 0 221.5 140.5t67.5 469.5t-67.5 470t-221.5 141q-153 0 -220.5 -141t-67.5 -470zM344 1635l197 264h186 l-229 -264h-154zM663 1635l197 264h186l-229 -264h-154z" />
<glyph unicode="&#x151;" d="M137 559q0 286 123 437t356 151t356.5 -151t123.5 -437q0 -287 -123 -437.5t-357 -150.5q-233 0 -356 150.5t-123 437.5zM332 559q0 -213 72 -322.5t212 -109.5q141 0 213 109.5t72 322.5q0 214 -72 323t-213 109q-140 0 -212 -109t-72 -323zM344 1262l191 376h170 l-224 -376h-137zM664 1262l204 376h179l-248 -376h-135z" />
<glyph unicode="&#x152;" d="M72 745q0 417 122 582.5t418 165.5h594v-170h-358v-442h328v-170h-328v-541h369v-170h-605q-295 0 -417.5 166.5t-122.5 578.5zM274 745q0 -346 69.5 -460.5t246.5 -114.5h61v1153h-61q-177 0 -246.5 -115t-69.5 -463z" />
<glyph unicode="&#x153;" d="M14 559q0 312 85 450t274 138q89 0 153 -31t111 -96q37 62 102 94.5t152 32.5q175 0 247 -118.5t72 -424.5v-90h-491v-84q0 -163 49.5 -235t161.5 -72q80 0 145.5 26.5t112.5 77.5v-172q-59 -43 -121.5 -63.5t-136.5 -20.5q-98 0 -171.5 33.5t-121.5 99.5 q-52 -68 -116 -100.5t-148 -32.5q-189 0 -274 138t-85 450zM190 559q0 -269 40 -352.5t143 -83.5q102 0 143 84t41 323q0 291 -40 378t-144 87q-103 0 -143 -83.5t-40 -352.5zM719 657h328q0 11 1 30t1 28q0 145 -40 212.5t-126 67.5q-87 0 -125.5 -68.5t-38.5 -226.5v-43z " />
<glyph unicode="&#x154;" d="M143 0v1493h416q246 0 377 -111t131 -321q0 -148 -80.5 -241.5t-226.5 -114.5q78 -20 133 -75.5t137 -221.5l203 -408h-217l-178 377q-77 161 -138.5 207.5t-160.5 46.5h-193v-631h-203zM346 797h221q145 0 216 65t71 199q0 129 -75.5 197.5t-219.5 68.5h-213v-530z M400 1635l197 264h186l-229 -264h-154z" />
<glyph unicode="&#x155;" d="M362 0v1120h185v-219q46 119 141.5 182.5t226.5 63.5q68 0 127 -17t113 -53v-188q-59 46 -120 67t-134 21q-172 0 -263 -108t-91 -312v-557h-185zM681 1269l281 376h198l-325 -376h-154z" />
<glyph unicode="&#x156;" d="M143 0v1493h416q246 0 377 -111t131 -321q0 -148 -80.5 -241.5t-226.5 -114.5q78 -20 133 -75.5t137 -221.5l203 -408h-217l-178 377q-77 161 -138.5 207.5t-160.5 46.5h-193v-631h-203zM346 797h221q145 0 216 65t71 199q0 129 -75.5 197.5t-219.5 68.5h-213v-530z M522 -544l94 345h239l-187 -345h-146z" />
<glyph unicode="&#x157;" d="M288 -544l94 345h239l-187 -345h-146zM362 0v1120h185v-219q46 119 141.5 182.5t226.5 63.5q68 0 127 -17t113 -53v-188q-59 46 -120 67t-134 21q-172 0 -263 -108t-91 -312v-557h-185z" />
<glyph unicode="&#x158;" d="M143 0v1493h416q246 0 377 -111t131 -321q0 -148 -80.5 -241.5t-226.5 -114.5q78 -20 133 -75.5t137 -221.5l203 -408h-217l-178 377q-77 161 -138.5 207.5t-160.5 46.5h-193v-631h-203zM251 1895h140l165 -178l166 178h140l-211 -266h-189zM346 797h221q145 0 216 65 t71 199q0 129 -75.5 197.5t-219.5 68.5h-213v-530z" />
<glyph unicode="&#x159;" d="M362 0v1120h185v-219q46 119 141.5 182.5t226.5 63.5q68 0 127 -17t113 -53v-188q-59 46 -120 67t-134 21q-172 0 -263 -108t-91 -312v-557h-185zM387 1638h139l180 -245l181 245h139l-246 -376h-147z" />
<glyph unicode="&#x15a;" d="M139 1079q0 200 134.5 320.5t357.5 120.5q86 0 181 -19.5t200 -58.5v-205q-92 59 -184.5 89t-186.5 30q-143 0 -226 -66.5t-83 -179.5q0 -99 54.5 -151t203.5 -87l106 -24q210 -49 306 -154t96 -286q0 -213 -132 -325t-384 -112q-105 0 -211 22.5t-213 67.5v215 q115 -73 217.5 -107t206.5 -34q153 0 238 68.5t85 191.5q0 112 -58.5 171t-203.5 91l-108 25q-208 47 -302 142t-94 255zM500 1635l197 264h186l-229 -264h-154z" />
<glyph unicode="&#x15b;" d="M213 41v190q103 -53 197 -79.5t178 -26.5q122 0 189 49.5t67 138.5q0 128 -245 177l-8 2l-69 14q-159 31 -232 104.5t-73 200.5q0 161 109 248.5t311 87.5q90 0 173 -16.5t163 -49.5v-180q-79 46 -159 69t-163 23q-125 0 -186.5 -40.5t-61.5 -123.5q0 -75 46 -112 t229 -72l74 -14q137 -26 207.5 -104t70.5 -203q0 -166 -118 -259.5t-328 -93.5q-83 0 -174 17.5t-197 52.5zM501 1269l281 376h198l-325 -376h-154z" />
<glyph unicode="&#x15c;" d="M139 1079q0 200 134.5 320.5t357.5 120.5q86 0 181 -19.5t200 -58.5v-205q-92 59 -184.5 89t-186.5 30q-143 0 -226 -66.5t-83 -179.5q0 -99 54.5 -151t203.5 -87l106 -24q210 -49 306 -154t96 -286q0 -213 -132 -325t-384 -112q-105 0 -211 22.5t-213 67.5v215 q115 -73 217.5 -107t206.5 -34q153 0 238 68.5t85 191.5q0 112 -58.5 171t-203.5 91l-108 25q-208 47 -302 142t-94 255zM311 1635l211 266h189l211 -266h-140l-166 178l-165 -178h-140z" />
<glyph unicode="&#x15d;" d="M213 41v190q103 -53 197 -79.5t178 -26.5q122 0 189 49.5t67 138.5q0 128 -245 177l-8 2l-69 14q-159 31 -232 104.5t-73 200.5q0 161 109 248.5t311 87.5q90 0 173 -16.5t163 -49.5v-180q-79 46 -159 69t-163 23q-125 0 -186.5 -40.5t-61.5 -123.5q0 -75 46 -112 t229 -72l74 -14q137 -26 207.5 -104t70.5 -203q0 -166 -118 -259.5t-328 -93.5q-83 0 -174 17.5t-197 52.5zM297 1262l246 376h147l246 -376h-139l-181 245l-180 -245h-139z" />
<glyph unicode="&#x15e;" d="M139 1079q0 200 134.5 320.5t357.5 120.5q86 0 181 -19.5t200 -58.5v-205q-92 59 -184.5 89t-186.5 30q-143 0 -226 -66.5t-83 -179.5q0 -99 54.5 -151t203.5 -87l106 -24q210 -49 306 -154t96 -286q0 -213 -132 -325t-384 -112q-105 0 -211 22.5t-213 67.5v215 q115 -73 217.5 -107t206.5 -34q153 0 238 68.5t85 191.5q0 112 -58.5 171t-203.5 91l-108 25q-208 47 -302 142t-94 255zM395 -240q34 -17 71.5 -24.5t84.5 -7.5q58 0 88.5 24t30.5 70q0 30 -22 73.5t-66 104.5h118q56 -62 82.5 -114.5t26.5 -100.5q0 -89 -60 -134.5 t-178 -45.5q-45 0 -88.5 6t-87.5 18v131z" />
<glyph unicode="&#x15f;" d="M213 41v190q103 -53 197 -79.5t178 -26.5q122 0 189 49.5t67 138.5q0 128 -245 177l-8 2l-69 14q-159 31 -232 104.5t-73 200.5q0 161 109 248.5t311 87.5q90 0 173 -16.5t163 -49.5v-180q-79 46 -159 69t-163 23q-125 0 -186.5 -40.5t-61.5 -123.5q0 -75 46 -112 t229 -72l74 -14q137 -26 207.5 -104t70.5 -203q0 -166 -118 -259.5t-328 -93.5q-83 0 -174 17.5t-197 52.5zM395 -240q34 -17 71.5 -24.5t84.5 -7.5q58 0 88.5 24t30.5 70q0 30 -22 73.5t-66 104.5h118q56 -62 82.5 -114.5t26.5 -100.5q0 -89 -60 -134.5t-178 -45.5 q-45 0 -88.5 6t-87.5 18v131z" />
<glyph unicode="&#x160;" d="M139 1079q0 200 134.5 320.5t357.5 120.5q86 0 181 -19.5t200 -58.5v-205q-92 59 -184.5 89t-186.5 30q-143 0 -226 -66.5t-83 -179.5q0 -99 54.5 -151t203.5 -87l106 -24q210 -49 306 -154t96 -286q0 -213 -132 -325t-384 -112q-105 0 -211 22.5t-213 67.5v215 q115 -73 217.5 -107t206.5 -34q153 0 238 68.5t85 191.5q0 112 -58.5 171t-203.5 91l-108 25q-208 47 -302 142t-94 255zM311 1901h140l165 -178l166 178h140l-211 -266h-189z" />
<glyph unicode="&#x161;" d="M213 41v190q103 -53 197 -79.5t178 -26.5q122 0 189 49.5t67 138.5q0 128 -245 177l-8 2l-69 14q-159 31 -232 104.5t-73 200.5q0 161 109 248.5t311 87.5q90 0 173 -16.5t163 -49.5v-180q-79 46 -159 69t-163 23q-125 0 -186.5 -40.5t-61.5 -123.5q0 -75 46 -112 t229 -72l74 -14q137 -26 207.5 -104t70.5 -203q0 -166 -118 -259.5t-328 -93.5q-83 0 -174 17.5t-197 52.5zM297 1638h139l180 -245l181 245h139l-246 -376h-147z" />
<glyph unicode="&#x162;" d="M47 1323v170h1139v-170h-467v-1323h-203v1323h-469zM395 -240q34 -17 71.5 -24.5t84.5 -7.5q58 0 88.5 24t30.5 70q0 30 -22 73.5t-66 104.5h118q56 -62 82.5 -114.5t26.5 -100.5q0 -89 -60 -134.5t-178 -45.5q-45 0 -88.5 6t-87.5 18v131z" />
<glyph unicode="&#x163;" d="M131 977v143h299v318h184v-318h418v-143h-418v-608q0 -124 47 -173t164 -49h207v-147h-225q-207 0 -292 83t-85 286v608h-299zM516 -240q34 -17 71.5 -24.5t84.5 -7.5q58 0 88.5 24t30.5 70q0 30 -22 73.5t-66 104.5h118q56 -62 82.5 -114.5t26.5 -100.5 q0 -89 -60 -134.5t-178 -45.5q-45 0 -88.5 6t-87.5 18v131z" />
<glyph unicode="&#x164;" d="M47 1323v170h1139v-170h-467v-1323h-203v1323h-469zM317 1901h140l165 -178l166 178h140l-211 -266h-189z" />
<glyph unicode="&#x165;" d="M131 977v143h299v318h184v-318h418v-143h-418v-608q0 -124 47 -173t164 -49h207v-147h-225q-207 0 -292 83t-85 286v608h-299zM751 1286l69 376h198l-113 -376h-154z" />
<glyph unicode="&#x166;" d="M47 1323v170h1139v-170h-467v-576h265v-170h-265v-577h-203v577h-265v170h265v576h-469z" />
<glyph unicode="&#x167;" d="M131 977v143h299v318h184v-318h418v-143h-418v-233h229v-142h-229v-233q0 -124 47 -173t164 -49h207v-147h-225q-207 0 -292 83t-85 286v233h-229v142h229v233h-299z" />
<glyph unicode="&#x168;" d="M147 573v920h203v-1012q0 -109 6 -155.5t21 -71.5q32 -59 92.5 -89t146.5 -30q87 0 147 30t93 89q15 25 21 71t6 154v1014h202v-920q0 -229 -28.5 -325.5t-98.5 -159.5q-66 -59 -151 -88t-191 -29q-105 0 -190 29t-152 88q-69 62 -98 160.5t-29 324.5zM287 1667 q0 101 51.5 160t136.5 59q36 0 66.5 -8t79.5 -35l57 -30q22 -13 39.5 -19t32.5 -6q31 0 51 25.5t20 66.5v6h125q-2 -100 -53 -159.5t-135 -59.5q-34 0 -64 8t-82 35l-57 33q-25 14 -40.5 19.5t-27.5 5.5q-35 0 -55 -25t-20 -70v-6h-125z" />
<glyph unicode="&#x169;" d="M195 424v694h184v-694q0 -151 53.5 -222t165.5 -71q130 0 199 91.5t69 262.5v633h185v-1118h-185v168q-49 -97 -133.5 -147t-197.5 -50q-172 0 -256 112.5t-84 340.5zM287 1309q1 134 52 208t142 74q39 0 71 -14t69 -47l57 -55q21 -20 37.5 -29.5t29.5 -9.5q39 0 57 37 t19 118h125q-1 -134 -52 -208t-142 -74q-39 0 -71 14t-69 47l-57 55q-21 20 -37.5 29.5t-30.5 9.5q-38 0 -56 -37t-20 -118h-124z" />
<glyph unicode="&#x16a;" d="M147 573v920h203v-1012q0 -109 6 -155.5t21 -71.5q32 -59 92.5 -89t146.5 -30q87 0 147 30t93 89q15 25 21 71t6 154v1014h202v-920q0 -229 -28.5 -325.5t-98.5 -159.5q-66 -59 -151 -88t-191 -29q-105 0 -190 29t-152 88q-69 62 -98 160.5t-29 324.5zM317 1692v148h598 v-148h-598z" />
<glyph unicode="&#x16b;" d="M195 424v694h184v-694q0 -151 53.5 -222t165.5 -71q130 0 199 91.5t69 262.5v633h185v-1118h-185v168q-49 -97 -133.5 -147t-197.5 -50q-172 0 -256 112.5t-84 340.5zM317 1378v148h598v-148h-598z" />
<glyph unicode="&#x16c;" d="M147 573v920h203v-1012q0 -109 6 -155.5t21 -71.5q32 -59 92.5 -89t146.5 -30q87 0 147 30t93 89q15 25 21 71t6 154v1014h202v-920q0 -229 -28.5 -325.5t-98.5 -159.5q-66 -59 -151 -88t-191 -29q-105 0 -190 29t-152 88q-69 62 -98 160.5t-29 324.5zM303 1901h119 q12 -54 62 -82.5t132 -28.5q83 0 131.5 27.5t63.5 83.5h119q-11 -119 -90.5 -180.5t-223.5 -61.5t-223 61t-90 181z" />
<glyph unicode="&#x16d;" d="M195 424v694h184v-694q0 -151 53.5 -222t165.5 -71q130 0 199 91.5t69 262.5v633h185v-1118h-185v168q-49 -97 -133.5 -147t-197.5 -50q-172 0 -256 112.5t-84 340.5zM303 1608h119q11 -76 59 -113t135 -37q85 0 133 37t62 113h119q-11 -143 -90 -215t-224 -72 q-144 0 -223 72t-90 215z" />
<glyph unicode="&#x16e;" d="M147 573v920h203v-1012q0 -109 6 -155.5t21 -71.5q32 -59 92.5 -89t146.5 -30q87 0 147 30t93 89q15 25 21 71t6 154v1014h202v-920q0 -229 -28.5 -325.5t-98.5 -159.5q-66 -59 -151 -88t-191 -29q-105 0 -190 29t-152 88q-69 62 -98 160.5t-29 324.5zM352 1859 q0 115 79.5 194.5t194.5 79.5q116 0 195.5 -79.5t79.5 -194.5t-79.5 -195t-195.5 -80q-115 0 -194.5 80t-79.5 195zM475 1859q0 -65 43.5 -108.5t107.5 -43.5t108 44t44 108q0 63 -44 107t-108 44t-107.5 -43.5t-43.5 -107.5z" />
<glyph unicode="&#x16f;" d="M195 424v694h184v-694q0 -151 53.5 -222t165.5 -71q130 0 199 91.5t69 262.5v633h185v-1118h-185v168q-49 -97 -133.5 -147t-197.5 -50q-172 0 -256 112.5t-84 340.5zM357 1479q0 115 79.5 194.5t194.5 79.5q116 0 195.5 -79.5t79.5 -194.5t-79.5 -195t-195.5 -80 q-115 0 -194.5 80t-79.5 195zM480 1479q0 -65 43.5 -108.5t107.5 -43.5t108 44t44 108q0 63 -44 107t-108 44t-107.5 -43.5t-43.5 -107.5z" />
<glyph unicode="&#x170;" d="M147 573v920h203v-1012q0 -109 6 -155.5t21 -71.5q32 -59 92.5 -89t146.5 -30q87 0 147 30t93 89q15 25 21 71t6 154v1014h202v-920q0 -229 -28.5 -325.5t-98.5 -159.5q-66 -59 -151 -88t-191 -29q-105 0 -190 29t-152 88q-69 62 -98 160.5t-29 324.5zM344 1635l197 264 h186l-229 -264h-154zM663 1635l197 264h186l-229 -264h-154z" />
<glyph unicode="&#x171;" d="M195 424v694h184v-694q0 -151 53.5 -222t165.5 -71q130 0 199 91.5t69 262.5v633h185v-1118h-185v168q-49 -97 -133.5 -147t-197.5 -50q-172 0 -256 112.5t-84 340.5zM344 1262l191 376h170l-224 -376h-137zM664 1262l204 376h179l-248 -376h-135z" />
<glyph unicode="&#x172;" d="M147 573v920h203v-1012q0 -109 6 -155.5t21 -71.5q32 -59 92.5 -89t146.5 -30q87 0 147 30t93 89q15 25 21 71t6 154v1014h202v-920q0 -229 -28.5 -325.5t-98.5 -159.5q-66 -59 -151 -88t-191 -29q-105 0 -190 29t-152 88q-69 62 -98 160.5t-29 324.5zM448 -231 q0 48 26.5 100.5t81.5 114.5h119q-45 -61 -66.5 -105t-21.5 -75q0 -46 27.5 -69t81.5 -23q32 0 63 7.5t62 22.5v-133q-38 -10 -72 -15t-64 -5q-122 0 -179.5 43.5t-57.5 136.5z" />
<glyph unicode="&#x173;" d="M195 424v694h184v-694q0 -151 53.5 -222t165.5 -71q130 0 199 91.5t69 262.5v633h185v-1118h-185v168q-49 -97 -133.5 -147t-197.5 -50q-172 0 -256 112.5t-84 340.5zM827 -215q0 48 26.5 100.5t81.5 114.5h119q-45 -61 -66.5 -105t-21.5 -75q0 -46 27.5 -69t81.5 -23 q32 0 63 7.5t62 22.5v-133q-38 -10 -72 -15t-64 -5q-122 0 -179.5 43.5t-57.5 136.5z" />
<glyph unicode="&#x174;" d="M0 1493h197l143 -1212l170 802h211l172 -804l143 1214h197l-223 -1493h-191l-203 887l-202 -887h-191zM311 1642l211 266h189l211 -266h-140l-166 178l-165 -178h-140z" />
<glyph unicode="&#x175;" d="M0 1120h182l195 -905l160 578h157l162 -578l195 905h182l-262 -1120h-176l-179 614l-178 -614h-176zM297 1269l246 376h147l246 -376h-139l-181 245l-180 -245h-139z" />
<glyph unicode="&#x176;" d="M37 1493h215l364 -659l363 659h217l-479 -823v-670h-203v670zM311 1642l211 266h189l211 -266h-140l-166 178l-165 -178h-140z" />
<glyph unicode="&#x177;" d="M104 1120h195l332 -876l327 876h195l-295 -760q-46 -117 -117 -308q-99 -264 -133 -322q-46 -78 -115 -117t-161 -39h-148v154h109q81 0 127 47t117 243zM309 1269l246 376h147l246 -376h-139l-181 245l-180 -245h-139z" />
<glyph unicode="&#x178;" d="M37 1493h215l364 -659l363 659h217l-479 -823v-670h-203v670zM319 1667v203h203v-203h-203zM711 1667v203h202v-203h-202z" />
<glyph unicode="&#x179;" d="M156 0v154l759 1169h-737v170h969v-154l-780 -1169h802v-170h-1013zM502 1635l197 264h186l-229 -264h-154z" />
<glyph unicode="&#x17a;" d="M203 0v170l643 805h-619v147h813v-168l-643 -804h643v-150h-837zM561 1269l281 376h198l-325 -376h-154z" />
<glyph unicode="&#x17b;" d="M156 0v154l759 1169h-737v170h969v-154l-780 -1169h802v-170h-1013zM563 1667v205h205v-205h-205z" />
<glyph unicode="&#x17c;" d="M203 0v170l643 805h-619v147h813v-168l-643 -804h643v-150h-837zM513 1348v204h205v-204h-205z" />
<glyph unicode="&#x17d;" d="M156 0v154l759 1169h-737v170h969v-154l-780 -1169h802v-170h-1013zM311 1901h140l165 -178l166 178h140l-211 -266h-189z" />
<glyph unicode="&#x17e;" d="M203 0v170l643 805h-619v147h813v-168l-643 -804h643v-150h-837zM297 1638h139l180 -245l181 245h139l-246 -376h-147z" />
<glyph unicode="&#x17f;" d="M195 977v143h299v78q0 184 84.5 271t263.5 87h221v-153h-209q-99 0 -137.5 -40.5t-38.5 -143.5v-1219h-184v977h-299z" />
<glyph unicode="&#x180;" d="M70 1270v164h123v122h184v-122h2h353v-164h-353h-2v-293q44 82 121.5 126t179.5 44q202 0 318 -155.5t116 -428.5q0 -277 -116.5 -434.5t-319.5 -157.5q-100 0 -176.5 43.5t-122.5 126.5v-141h-184v1270h-123zM377 559q0 -212 69 -322t203 -110q133 0 201 109t68 323 t-68 323t-201 109q-134 0 -203 -109.5t-69 -322.5z" />
<glyph unicode="&#x181;" d="M20 1079v70q0 159 84.5 251.5t233.5 92.5h322q229 0 353 -99t124 -280q0 -137 -65.5 -216t-196.5 -99q147 -22 230.5 -125.5t83.5 -263.5q0 -203 -133 -306.5t-396 -103.5h-322v1327q-62 0 -112 -43.5t-50 -155.5v-49h-156zM540 166h120q176 0 251 61.5t75 202.5 q0 146 -79 214.5t-247 68.5h-120v-547zM540 877h116q146 0 211.5 56t65.5 181q0 113 -64.5 163t-212.5 50h-116v-450z" />
<glyph unicode="&#x182;" d="M166 0v1493h902v-166h-699v-450h235q379 -15 480 -206q53 -100 53 -261q0 -203 -133 -306q-133 -104 -396 -104h-442zM369 166h239q176 0 251 61.5t75 202.5q0 146 -79 214.5t-247 68.5h-239v-547z" />
<glyph unicode="&#x183;" d="M193 0v1556h752v-184h-568v-395q44 82 121.5 126t179.5 44q202 0 318 -155.5t116 -428.5q0 -277 -116.5 -434.5t-319.5 -157.5q-100 0 -176.5 43.5t-122.5 126.5v-141h-184zM377 559q0 -212 69 -322t203 -110q133 0 201 109t68 323t-68 323t-201 109q-134 0 -203 -109.5 t-69 -322.5z" />
<glyph unicode="&#x184;" d="M48 1176l369 317v-616h235q379 -15 480 -206q53 -100 53 -261q0 -203 -133 -306q-133 -104 -396 -104h-442v948zM417 166h239q176 0 251 62q75 61 75 202q0 146 -79 214q-79 69 -247 69h-239v-547z" />
<glyph unicode="&#x185;" d="M60 1176l378 380v-579q44 82 121 126t179 44q202 0 318 -155q116 -156 116 -429q0 -277 -116 -435q-116 -157 -320 -157q-100 0 -176 43q-76 44 -122 127v-141h-184v948zM438 559q0 -212 68 -322q70 -110 204 -110q132 0 200 109t68 323t-68 323t-200 109 q-134 0 -204 -109q-68 -110 -68 -323z" />
<glyph unicode="&#x186;" d="M139 53v207q73 -61 157.5 -93t172.5 -32q197 0 295 152t98 458q0 307 -98 459t-295 152q-86 0 -171 -32t-159 -93v207q77 41 158 61.5t172 20.5q285 0 444.5 -204.5t159.5 -570.5q0 -368 -158.5 -571t-445.5 -203q-91 0 -172 20.5t-158 61.5z" />
<glyph unicode="&#x187;" d="M60 745q0 298 159.5 502.5t444.5 204.5q90 0 169 -20q23 51 65 101q90 106 255 106h20v-156q-84 0 -135 -62q-44 -53 -44 -188v-70q-74 61 -159 93t-171 32q-197 0 -295 -152t-98 -391q0 -306 98 -458t295 -152q88 0 172.5 32t157.5 93v-207q-77 -41 -158 -61.5 t-172 -20.5q-287 0 -445.5 203t-158.5 571z" />
<glyph unicode="&#x188;" d="M94 559q0 276 146.5 432t406.5 156q70 0 137 -16q19 114 80 185q90 106 255 106h20v-156q-90 0 -135 -62q-44 -62 -44 -188v-148q-73 65 -146.5 94t-166.5 29q-173 0 -266 -112t-93 -320q0 -207 93.5 -319.5t265.5 -112.5q96 0 172 29.5t141 91.5v-191 q-74 -43 -152.5 -64.5t-160.5 -21.5q-260 0 -406.5 156t-146.5 432z" />
<glyph unicode="&#x189;" d="M8 709v149h125v635h303q342 0 504 -182t162 -566q0 -382 -162.5 -563.5t-503.5 -181.5h-303v709h-125zM340 166h96q255 0 356 125.5t101 453.5q0 331 -100.5 456.5t-356.5 125.5h-96v-469h264v-149h-264v-543z" />
<glyph unicode="&#x18a;" d="M8 1079v70q0 181 96 262.5t222 81.5h233q342 0 504 -182t162 -566q0 -382 -162 -563.5t-504 -181.5h-233v1327q-54 0 -114 -47q-48 -38 -48 -152v-49h-156zM529 166h26q255 0 356 125.5t101 453.5q0 331 -100.5 456.5t-356.5 125.5h-26v-1161z" />
<glyph unicode="&#x18b;" d="M131 410q0 161 53 261q101 191 480 206h235v450h-699v166h902v-1493h-442q-263 0 -396 103.5t-133 306.5zM334 430q0 -141 75 -202.5t251 -61.5h239v547h-239q-168 0 -247 -68.5t-79 -214.5z" />
<glyph unicode="&#x18c;" d="M157 563q0 273 116 428.5t318 155.5q102 0 179.5 -44t121.5 -126v395h-568v184h752v-1556h-184v141q-46 -83 -122.5 -126.5t-176.5 -43.5q-203 0 -319.5 157.5t-116.5 434.5zM351 559q0 -214 68 -323t201 -109q134 0 203 110t69 322q0 213 -69 322.5t-203 109.5 q-133 0 -201 -109t-68 -323z" />
<glyph unicode="&#x18d;" d="M136 559q0 287 123 437.5t357 150.5q233 0 356 -150.5t123 -437.5q0 -286 -123 -437q-31 -38 -74 -71q19 -9 59 -49q62 -61 62 -153q0 -136 -118 -218q-119 -82 -316 -82q-102 0 -152 12l-151 36v173q66 -24 136 -39q75 -15 148 -15h19l32 1q73 2 133 45l39 28 q27 24 27 70q0 33 -13 52q-17 24 -58 45q-24 13 -129 14q-235 3 -356 151q-124 151 -124 437zM331 559q0 -214 72 -323t213 -109q140 0 212 109t72 323q0 213 -72 322.5t-212 109.5q-141 0 -213 -109.5t-72 -322.5z" />
<glyph unicode="&#x18e;" d="M197 0v170h703v541h-654v170h654v442h-684v170h886v-1493h-905z" />
<glyph unicode="&#x18f;" d="M117 745v83h787v8q0 241 -69 380.5t-219 139.5q-86 0 -171 -32t-159 -93v207q77 41 158 61.5t172 20.5q253 0 376.5 -192t123.5 -583q0 -390 -123.5 -582t-376.5 -192t-376 191t-123 583zM332 644q0 -248 70 -378.5t218 -130.5t211 127.5t72 381.5h-571z" />
<glyph unicode="&#x190;" d="M137 412q0 149 78 248.5t225 138.5q-131 34 -199.5 115t-68.5 204q0 181 130.5 291.5t348.5 110.5q73 0 167.5 -16t215.5 -48v-186q-104 40 -199 60t-184 20q-134 0 -206.5 -61.5t-72.5 -176.5q0 -109 78 -170t217 -61h154v-166h-154q-152 0 -241 -76.5t-89 -206.5 q0 -141 89 -216t255 -75q98 0 197 26t201 79v-201q-103 -36 -210 -55t-210 -19q-245 0 -383.5 117.5t-138.5 323.5z" />
<glyph unicode="&#x191;" d="M63 -270h138q90 0 135 62q44 62 44 188v1513h790v-170h-587v-440h524v-170h-524v-733q0 -195 -89 -300q-90 -106 -255 -106h-176v156z" />
<glyph unicode="&#x192;" d="M195 977v143h296v78q0 180 87 272q37 39 97 60q70 26 167 26h9h3h209v-153h-209h-2q-97 0 -136 -41q-38 -40 -38 -143v-99h385v-143h-385v-997q0 -214 -81 -310q-82 -96 -263 -96h-70v156h49q105 0 143 48q38 49 38 202l-2 997h-297z" />
<glyph unicode="&#x193;" d="M52 745q0 366 160 570.5t444 204.5q94 0 180 -26l34 -12q15 26 36 51q90 106 256 106h19v-156q-84 0 -135 -62q-43 -54 -44 -188v-27q-80 77 -165 113.5t-181 36.5q-196 0 -295 -152.5t-99 -458.5q0 -311 96 -460.5t294 -149.5q66 0 117 15.5t91 48.5v401h-216v166h410 v-643q-82 -75 -183 -113.5t-219 -38.5q-284 0 -442 203.5t-158 570.5z" />
<glyph unicode="&#x194;" d="M28 1353h216l372 -555l372 555h218l-476 -703q324 -449 324 -844q0 -236 -416 -236q-440 0 -440 236q0 367 294 851zM402 -130q0 -138 216 -138q204 0 204 138q0 325 -222 625q-198 -301 -198 -625z" />
<glyph unicode="&#x195;" d="M65 0v1556h166v-604q77 134 94 146q75 49 160 49q118 0 194 -112.5t76 -340.5v-288h-1q0 -153 34 -202q38 -52 93 -48q19 2 73 75q47 66 47 222v411h167v-411q0 -228 -76 -340.5t-230 -112.5q-127 0 -201 96q-73 96 -73 310v288q0 151 -47.5 222t-113.5 71 q-71 0 -133.5 -91.5t-62.5 -262.5v-633h-166z" />
<glyph unicode="&#x196;" d="M201 1323v170h829v-170h-313v-902q0 -127 44 -188q45 -62 135 -62h185l1 -171h-217q-170 0 -262 106q-89 102 -89 300v917h-313z" />
<glyph unicode="&#x197;" d="M201 0v170h313v407h-263v170h263v576h-313v170h829v-170h-313v-576h2h265v-170h-265h-2v-407h313v-170h-829z" />
<glyph unicode="&#x198;" d="M110 0v1493h203v-664l334 351q161 170 266 182q21 3 41 3q126 0 218 -99l47 -51l-106 -114l-33 37q-45 51 -105 51q-17 0 -36 -4q-66 -15 -175 -130l-164 -172l598 -883h-244l-487 748l-154 -164v-584h-203z" />
<glyph unicode="&#x199;" d="M236 0v1002v148q0 195 89 300q90 106 255 106h205v-156h-185q-90 0 -135 -62q-44 -62 -44 -188h5v-495l483 465h224l-441 -422l510 -698h-225l-414 578l-137 -129v-449h-190z" />
<glyph unicode="&#x19a;" d="M160 1423v144h479v-823h9h221v-142h-221h-9v-196q0 -124 45.5 -187t134.5 -63h215v-156h-233q-165 0 -255.5 106t-90.5 300v196h-228v142h228v679h-295z" />
<glyph unicode="&#x19b;" d="M49 847l385 266l-174 380h191l128 -280l348 242l80 -110l-371 -258l497 -1087h-191l-321 704l-330 -704h-191l425 913l-34 74l-362 -251z" />
<glyph unicode="&#x19c;" d="M109 471v1022h168v-1014q0 -237 26.5 -294.5t96.5 -57.5q80 0 109.5 61.5t29.5 290.5v1014h168v-1014q0 -240 28.5 -296t102.5 -56q73 0 101.5 61.5t28.5 290.5v1014h167v-1493h-167v96q-33 -60 -82.5 -91.5t-112.5 -31.5q-76 0 -126.5 35t-78.5 106 q-34 -72 -86.5 -106.5t-126.5 -34.5q-135 0 -190.5 104.5t-55.5 393.5z" />
<glyph unicode="&#x19d;" d="M29 -270q81 0 121 62q40 61 40 188v1513h230l454 -1229v1229h175v-1493h-230l-453 1229v-1249q0 -195 -81 -300q-81 -106 -229 -106h-27v156z" />
<glyph unicode="&#x19e;" d="M195 0v1120h184v-168q49 96 133 145.5t199 49.5q171 0 255.5 -112.5t84.5 -340.5v-1124h-185v1124q0 151 -53 222t-166 71q-129 0 -198.5 -91.5t-69.5 -262.5v-633h-184z" />
<glyph unicode="&#x19f;" d="M117 745q0 391 123.5 583t375.5 192q253 0 376.5 -192t123.5 -583q0 -390 -123.5 -582t-376.5 -192t-376 191t-123 583zM329 828h575q-8 264 -66 387q-68 141 -222 141q-153 0 -220 -141q-59 -123 -67 -387zM330 644q9 -250 66 -368q67 -141 220 -141q154 0 222 141 q56 117 65 368h-573z" />
<glyph unicode="&#x1a0;" d="M6 745q0 391 123.5 583t375.5 192q253 0 376.5 -192t123.5 -583q0 -390 -123.5 -582t-376.5 -192t-376 191t-123 583zM217 745q0 -328 67.5 -469t220.5 -141q154 0 221.5 140.5t67.5 469.5t-67.5 470t-221.5 141q-153 0 -220.5 -141t-67.5 -470zM796 1292v119 q61 -45 105 -66.5t75 -21.5q46 0 69 27.5t23 81.5q0 32 -7.5 63t-22.5 62h133q10 -38 15 -72t5 -64q0 -122 -43.5 -179.5t-136.5 -57.5q-48 0 -100.5 26.5t-114.5 81.5z" />
<glyph unicode="&#x1a1;" d="M32 559q0 286 123 437t356 151t356.5 -151t123.5 -437q0 -287 -123 -437.5t-357 -150.5q-233 0 -356 150.5t-123 437.5zM227 559q0 -213 72 -322.5t212 -109.5q141 0 213 109.5t72 322.5q0 214 -72 323t-213 109q-140 0 -212 -109t-72 -323zM807 872v119 q61 -45 105 -66.5t75 -21.5q46 0 69 27.5t23 81.5q0 32 -7.5 63t-22.5 62h133q10 -38 15 -72t5 -64q0 -122 -43.5 -179.5t-136.5 -57.5q-48 0 -100.5 26.5t-114.5 81.5z" />
<glyph unicode="&#x1a2;" d="M45 745q0 672 334 761q53 14 115 14q206 0 317 -158l147 131h230v-1493h-175v1229l-180 -160v-906q-111 -192 -339 -192t-338.5 191t-110.5 583zM235 745q0 -328 60.5 -469t198.5 -141t199 141v939q-61 141 -199 141t-198.5 -141t-60.5 -470z" />
<glyph unicode="&#x1a3;" d="M86 559q0 436 250 551q80 37 181 37q210 0 321 -151v-43l126 110h231v-1493h-176v1229l-181 -157v-520q-110 -151 -321 -151q-234 0 -345 188q-86 146 -86 400zM262 559q0 -395 215 -429q19 -3 40 -3q127 0 192 109v646q-65 109 -192 109q-206 0 -246 -286 q-9 -66 -9 -146z" />
<glyph unicode="&#x1a4;" d="M56 1079v70q0 181 96 263q96 81 222 81h295q407 0 489 -292q19 -69 19 -154q0 -348 -312 -425q-86 -22 -196 -22h-93v-600h-202v1327q-54 0 -114 -47q-48 -38 -48 -152v-49h-156zM576 766h93q211 0 275 157q22 56 22 124q0 133 -78 206.5t-219 73.5h-93v-561z" />
<glyph unicode="&#x1a5;" d="M190 -426v1452q0 302 203 381q63 25 141 25h205v-156h-185q-169 0 -178 -221q-1 -14 -1 -29v-49q91 164 285 170h14q203 0 318.5 -157t115.5 -435q0 -273 -116 -428.5t-318 -155.5q-102 0 -178.5 43.5t-120.5 126.5v-567h-185zM375 559q0 -375 209 -425q29 -7 63 -7 q133 0 200.5 109t67.5 323q0 418 -251 432h-17q-214 0 -260 -273q-12 -70 -12 -159z" />
<glyph unicode="&#x1a6;" d="M143 0v1493h203v-264h213q246 0 377 -111t131 -321q0 -148 -80.5 -241.5t-226.5 -114.5q78 -20 133 -75q54 -55 137 -222l203 -408h-217l-178 377q-77 161 -138.5 207.5t-160.5 46.5h-193v-367h-203zM346 533h221q145 0 216 65t71 199q0 129 -75.5 197.5t-219.5 68.5 h-213v-530z" />
<glyph unicode="&#x1a7;" d="M139 408q0 181 96 286t306 154l106 24q149 35 203.5 87t54.5 151q0 113 -83 179.5t-226 66.5q-94 0 -186.5 -30t-184.5 -89v205q105 39 200 58.5t181 19.5q223 0 357.5 -120.5t134.5 -320.5q0 -160 -94 -255t-302 -142l-108 -25q-145 -32 -203.5 -91t-58.5 -171 q0 -123 85 -191.5t238 -68.5q104 0 206.5 34t217.5 107v-215q-107 -45 -213 -67.5t-211 -22.5q-252 0 -384 112t-132 325z" />
<glyph unicode="&#x1a8;" d="M213 324q0 125 70.5 203t207.5 104l74 14q183 35 229 72t46 112q0 83 -61.5 123.5t-186.5 40.5q-83 0 -163 -23t-159 -69v180q80 33 163 49.5t173 16.5q202 0 311 -87.5t109 -248.5q0 -127 -73 -200.5t-232 -104.5l-69 -14l-8 -2q-245 -49 -245 -177q0 -89 67 -138.5 t189 -49.5q84 0 178 26.5t197 79.5v-190q-106 -35 -197 -52.5t-174 -17.5q-210 0 -328 93.5t-118 259.5z" />
<glyph unicode="&#x1a9;" d="M120 0v170l454 577l-454 576v170h1013v-170h-802l455 -576l-455 -577h802v-170h-1013z" />
<glyph unicode="&#x1aa;" d="M118 1340q0 216 303 216q181 0 263 -96q53 -64 71 -175h191v-155h-181l-2 -1219q0 -103 39 -144q37 -40 137 -40h176v-153h-174q-195 0 -276 86q-87 92 -87 272v1198h-190q-270 0 -270 210zM273 1335q-3 -51 116 -51h179q-7 45 -25 68q-33 48 -143 48q-124 0 -127 -65z " />
<glyph unicode="&#x1ab;" d="M131 977v143h299v318h184v-318h418v-143h-418v-608q0 -124 47 -173t164 -49h207v-147v-20q0 -195 -89 -300q-90 -106 -255 -106h-205v156h185q90 0 135 62q44 62 44 188v20h-40q-207 0 -292 83t-85 286v608h-299z" />
<glyph unicode="&#x1ac;" d="M47 1079v70q0 181 96 262.5t310 81.5h733v-170h-467v-1323h-203v1323l-63 4q-131 8 -201 -47q-49 -38 -49 -152v-49h-156z" />
<glyph unicode="&#x1ad;" d="M131 977v143h298v30q0 195 89 300q90 106 255 106h205v-156h-185q-90 0 -135 -62q-44 -62 -44 -188v-30h418v-143h-418v-608q0 -124 47 -173t164 -49h207v-147h-225q-207 0 -292 83t-85 286v608h-299z" />
<glyph unicode="&#x1ae;" d="M47 1323v170h1139v-170h-467v-1343q0 -126 44 -188q45 -62 135 -62h185v-156h-223q-165 0 -255 106q-89 105 -89 300v1343h-469z" />
<glyph unicode="&#x1af;" d="M9 573v920h203v-1012q0 -109 6 -155.5t21 -71.5q32 -59 92.5 -89t146.5 -30q87 0 147 30t93 89q15 25 21 71t6 154v1014h202v-920q0 -229 -28.5 -325.5t-98.5 -159.5q-66 -59 -151 -88t-191 -29q-105 0 -190 29t-152 88q-69 62 -98 160.5t-29 324.5zM829 1296v119 q61 -45 105 -66.5t75 -21.5q46 0 69 27.5t23 81.5q0 32 -7.5 63t-22.5 62h133q10 -38 15 -72t5 -64q0 -122 -43.5 -179.5t-136.5 -57.5q-48 0 -100.5 26.5t-114.5 81.5z" />
<glyph unicode="&#x1b0;" d="M39 424v694h184v-694q0 -151 53.5 -222t165.5 -71q130 0 199 91.5t69 262.5v633h185v-1118h-185v168q-49 -97 -133.5 -147t-197.5 -50q-172 0 -256 112.5t-84 340.5zM799 872v119q61 -45 105 -66.5t75 -21.5q46 0 69 27.5t23 81.5q0 32 -7.5 63t-22.5 62h133 q10 -38 15 -72t5 -64q0 -122 -43.5 -179.5t-136.5 -57.5q-48 0 -100.5 26.5t-114.5 81.5z" />
<glyph unicode="&#x1b1;" d="M74 1288v172h463v-172q-120 -76 -187 -240.5t-67 -386.5q0 -230 90 -362.5t244 -132.5t243.5 132.5t89.5 362.5q0 222 -67 386.5t-187 240.5v172h463v-172h-245q123 -134 178 -278t55 -332q0 -311 -144 -494.5t-384 -183.5q-242 0 -386.5 183t-144.5 495 q0 188 55.5 332.5t178.5 277.5h-248z" />
<glyph unicode="&#x1b2;" d="M154 406v1087h204v-1072q0 -126 44 -188t134 -62q154 0 244 132.5t90 362.5q0 222 -67 386.5t-187 240.5h218q122 -134 177 -278t55 -332q0 -311 -144 -495q-147 -188 -416 -188q-170 0 -262 106q-90 102 -90 300z" />
<glyph unicode="&#x1b3;" d="M17 1493h193l328 -659l199 401q99 200 208 242q46 18 91 18q80 0 155 -57l25 -19l-71 -134l-10 9q-34 31 -74 31q-28 0 -59 -16q-51 -24 -127 -169l-246 -470v-670h-183v670z" />
<glyph unicode="&#x1b4;" d="M24 1120h195l350 -876l279 699q50 126 131 167q43 22 94 22q49 0 104 -20l48 -17l-53 -147l-28 10q-28 11 -50 11q-43 0 -59 -41l-413 -1032q-81 -203 -152 -261q-74 -61 -198 -61h-147v154h108q76 0 118 36t93 170l33 84z" />
<glyph unicode="&#x1b5;" d="M156 0v154l275 423h-180v170h290l374 576h-737v170h969v-154l-395 -592h232v-170h-265h-80l-272 -407h802v-170h-1013z" />
<glyph unicode="&#x1b6;" d="M156 452v164h398l287 359h-619v147h813v-168l-270 -338h312v-164h-354h-89l-242 -302h643v-150h-837v170l225 282h-267z" />
<glyph unicode="&#x1b7;" d="M26 435h202q0 -143 100 -218q99 -75 288.5 -75t289.5 75t100 218q0 134 -92 207q-94 74 -258 74h-174v166l370 441h-738v170h970v-168l-376 -441q104 0 234 -56q98 -43 184 -151q80 -104 80 -242q0 -221 -152 -342t-432 -121q-292 0 -444 121t-152 342z" />
<glyph unicode="&#x1b8;" d="M26 435q0 138 82 242q85 108 184 151q129 56 234 56l-376 441v168h968v-170h-736l370 -441v-166h-174q-166 0 -258 -74q-92 -73 -92 -207q0 -143 100 -218q99 -75 288.5 -75t289.5 75t100 218h200q0 -221 -152 -342t-444 -121q-280 0 -432 121t-152 342z" />
<glyph unicode="&#x1b9;" d="M125 27q0 138 81 242q86 109 184 151q128 56 234 56l-411 476v168h874v-147h-667l430 -499v-166h-174q-165 0 -258 -74q-92 -75 -92 -207q0 -143 100 -218q99 -75 289 -75q109 0 209 25t184 74v-195q-106 -37 -206 -56q-99 -18 -193 -18q-280 0 -432 121t-152 342z" />
<glyph unicode="&#x1ba;" d="M173 973v147h874v-168l-354 -412q367 0 367 -229q0 -276 -464 -325q-226 -24 -226 -121q0 -139 329 -139q84 0 161 21q79 21 160 65v-179q-87 -32 -167 -45q-86 -14 -183 -14q-480 0 -480 281q0 238 406 291q284 37 284 135q0 124 -235 124h-290l485 568h-667z" />
<glyph unicode="&#x1bb;" d="M152 0v170l382 407h-283v170h434q105 130 135 214q22 60 22 122q0 185 -150 245q-57 22 -125 22q-181 0 -403 -133v204q208 99 399 99q219 0 352.5 -116.5t133.5 -305.5q0 -96 -45 -192q-34 -74 -100 -159h80v-170h-230l-56 -63l-325 -344h686v-170h-907z" />
<glyph unicode="&#x1bc;" d="M26 435h202q0 -181 158 -252q91 -41 230 -41q316 0 377 199q13 43 13 94q0 134 -92 207q-94 74 -258 74h-441v777h924v-170h-721v-439h290q105 0 234 -56q99 -43 184 -151q80 -101 80 -242q0 -221 -152 -342t-432 -121q-430 0 -552 256q-44 91 -44 207z" />
<glyph unicode="&#x1bd;" d="M125 -167q170 -99 393 -99q311 0 374 195q15 45 15 98q0 134 -92 207q-93 74 -258 74h-300v812h752v-184h-568v-461l168 1q103 1 234 -56q99 -43 184 -151q81 -104 81 -242q0 -221 -152 -342t-432 -121q-187 0 -399 74v195z" />
<glyph unicode="&#x1be;" d="M194 41v172q156 -86 315 -86q179 0 278 114q57 65 58 198q0 114 -74 193q-89 95 -262 95h-62v271h-229v164h229v276h202v-276h231v-164h-231v-125q165 -29 273 -139q117 -119 117 -295q0 -185 -110 -311q-138 -157 -412 -157q-171 0 -323 70z" />
<glyph unicode="&#x1bf;" d="M125 -426v1546h185v-170q52 66 187 148q81 49 291 49q184 0 261 -112q78 -113 78 -266q0 -425 -817 -891v-304h-185zM310 60q626 400 626 649q0 133 -57 199q-56 65 -176 65q-220 0 -393 -239v-674z" />
<glyph unicode="&#x1c0;" d="M516 0v1493h202v-1493h-202z" />
<glyph unicode="&#x1c1;" d="M314 0v1493h202v-1493h-202zM718 0v1493h202v-1493h-202z" />
<glyph unicode="&#x1c2;" d="M164 511v170h352v240h-352v168h352v404h202v-404h350v-168h-350v-240h350v-170h-350v-511h-202v511h-352z" />
<glyph unicode="&#x1c3;" d="M515 0v254h203v-254h-203zM515 838v655h203v-655l-21 -357h-161z" />
<glyph unicode="&#x1cd;" d="M37 0l457 1493h245l457 -1493h-209l-110 389h-523l-108 -389h-209zM311 1901h140l165 -178l166 178h140l-211 -266h-189zM403 551h426l-213 764z" />
<glyph unicode="&#x1ce;" d="M133 326q0 187 125.5 284t368.5 97h247v29q-1 134 -68 194.5t-214 60.5q-94 0 -190 -27t-187 -79v184q102 39 195.5 58.5t181.5 19.5q139 0 237.5 -41t159.5 -123q38 -50 54 -123.5t16 -220.5v-639h-185v166q-59 -100 -148.5 -147.5t-217.5 -47.5q-171 0 -273 96.5 t-102 258.5zM297 1638h139l180 -245l181 245h139l-246 -376h-147zM317 338q0 -101 61 -157t169 -56q152 0 239 105.5t88 291.5v41h-172h-61q-161 0 -242.5 -56.5t-81.5 -168.5z" />
<glyph unicode="&#x1cf;" d="M201 0v170h313v1153h-313v170h829v-170h-313v-1153h313v-170h-829zM311 1901h140l165 -178l166 178h140l-211 -266h-189z" />
<glyph unicode="&#x1d0;" d="M178 0v143h365v834h-287v143h471v-977h365v-143h-914zM297 1638h139l180 -245l181 245h139l-246 -376h-147z" />
<glyph unicode="&#x1d1;" d="M117 745q0 391 123.5 583t375.5 192q253 0 376.5 -192t123.5 -583q0 -390 -123.5 -582t-376.5 -192t-376 191t-123 583zM311 1901h140l165 -178l166 178h140l-211 -266h-189zM328 745q0 -328 67.5 -469t220.5 -141q154 0 221.5 140.5t67.5 469.5t-67.5 470t-221.5 141 q-153 0 -220.5 -141t-67.5 -470z" />
<glyph unicode="&#x1d2;" d="M137 559q0 286 123 437t356 151t356.5 -151t123.5 -437q0 -287 -123 -437.5t-357 -150.5q-233 0 -356 150.5t-123 437.5zM297 1638h139l180 -245l181 245h139l-246 -376h-147zM332 559q0 -213 72 -322.5t212 -109.5q141 0 213 109.5t72 322.5q0 214 -72 323t-213 109 q-140 0 -212 -109t-72 -323z" />
<glyph unicode="&#x1d3;" d="M147 573v920h203v-1012q0 -109 6 -155.5t21 -71.5q32 -59 92.5 -89t146.5 -30q87 0 147 30t93 89q15 25 21 71t6 154v1014h202v-920q0 -229 -28.5 -325.5t-98.5 -159.5q-66 -59 -151 -88t-191 -29q-105 0 -190 29t-152 88q-69 62 -98 160.5t-29 324.5zM311 1901h140 l165 -178l166 178h140l-211 -266h-189z" />
<glyph unicode="&#x1d4;" d="M195 424v694h184v-694q0 -151 53.5 -222t165.5 -71q130 0 199 91.5t69 262.5v633h185v-1118h-185v168q-49 -97 -133.5 -147t-197.5 -50q-172 0 -256 112.5t-84 340.5zM297 1638h139l180 -245l181 245h139l-246 -376h-147z" />
<glyph unicode="&#x1d5;" d="M147 573v920h203v-1012q0 -109 6 -155.5t21 -71.5q32 -59 92.5 -89t146.5 -30q87 0 147 30t93 89q15 25 21 71t6 154v1014h202v-920q0 -229 -28.5 -325.5t-98.5 -159.5q-66 -59 -151 -88t-191 -29q-105 0 -190 29t-152 88q-69 62 -98 160.5t-29 324.5zM317 1804v148h598 v-148h-598zM319 1543v203h203v-203h-203zM711 1543v203h202v-203h-202z" />
<glyph unicode="&#x1d6;" d="M195 424v694h184v-694q0 -151 53.5 -222t165.5 -71q130 0 199 91.5t69 262.5v633h185v-1118h-185v168q-49 -97 -133.5 -147t-197.5 -50q-172 0 -256 112.5t-84 340.5zM317 1694v148h598v-148h-598zM319 1350v202h203v-202h-203zM711 1350v202h202v-202h-202z" />
<glyph unicode="&#x1d7;" d="M147 573v920h203v-1012q0 -109 6 -155.5t21 -71.5q32 -59 92.5 -89t146.5 -30q87 0 147 30t93 89q15 25 21 71t6 154v1014h202v-920q0 -229 -28.5 -325.5t-98.5 -159.5q-66 -59 -151 -88t-191 -29q-105 0 -190 29t-152 88q-69 62 -98 160.5t-29 324.5zM319 1543v203h203 v-203h-203zM475 1777l197 264h186l-229 -264h-154zM711 1543v203h202v-203h-202z" />
<glyph unicode="&#x1d8;" d="M195 424v694h184v-694q0 -151 53.5 -222t165.5 -71q130 0 199 91.5t69 262.5v633h185v-1118h-185v168q-49 -97 -133.5 -147t-197.5 -50q-172 0 -256 112.5t-84 340.5zM319 1350v202h203v-202h-203zM475 1578l281 376h198l-325 -376h-154zM711 1350v202h202v-202h-202z " />
<glyph unicode="&#x1d9;" d="M147 573v920h203v-1012q0 -109 6 -155.5t21 -71.5q32 -59 92.5 -89t146.5 -30q87 0 147 30t93 89q15 25 21 71t6 154v1014h202v-920q0 -229 -28.5 -325.5t-98.5 -159.5q-66 -59 -151 -88t-191 -29q-105 0 -190 29t-152 88q-69 62 -98 160.5t-29 324.5zM311 2043h140 l165 -178l166 178h140l-211 -266h-189zM319 1543v203h203v-203h-203zM711 1543v203h202v-203h-202z" />
<glyph unicode="&#x1da;" d="M195 424v694h184v-694q0 -151 53.5 -222t165.5 -71q130 0 199 91.5t69 262.5v633h185v-1118h-185v168q-49 -97 -133.5 -147t-197.5 -50q-172 0 -256 112.5t-84 340.5zM297 1954h139l180 -245l181 245h139l-246 -376h-147zM319 1350v202h203v-202h-203zM711 1350v202h202 v-202h-202z" />
<glyph unicode="&#x1db;" d="M147 573v920h203v-1012q0 -109 6 -155.5t21 -71.5q32 -59 92.5 -89t146.5 -30q87 0 147 30t93 89q15 25 21 71t6 154v1014h202v-920q0 -229 -28.5 -325.5t-98.5 -159.5q-66 -59 -151 -88t-191 -29q-105 0 -190 29t-152 88q-69 62 -98 160.5t-29 324.5zM319 1543v203h203 v-203h-203zM377 2041h184l197 -264h-154zM711 1543v203h202v-203h-202z" />
<glyph unicode="&#x1dc;" d="M195 424v694h184v-694q0 -151 53.5 -222t165.5 -71q130 0 199 91.5t69 262.5v633h185v-1118h-185v168q-49 -97 -133.5 -147t-197.5 -50q-172 0 -256 112.5t-84 340.5zM279 1954h198l281 -376h-154zM319 1350v202h203v-202h-203zM711 1350v202h202v-202h-202z" />
<glyph unicode="&#x1dd;" d="M122 512v90h797v6q0 183 -95.5 283t-269.5 100q-88 0 -184 -28t-205 -85v183q105 43 202.5 64.5t188.5 21.5q261 0 408 -156.5t147 -431.5q0 -268 -144 -428t-384 -160q-214 0 -337.5 145t-123.5 396zM306 459q0 -162 74.5 -247t210.5 -85q133 0 219 88t102 244h-606z " />
<glyph unicode="&#x1de;" d="M37 0l457 1493h245l457 -1493h-209l-110 389h-523l-108 -389h-209zM317 1804v148h598v-148h-598zM319 1543v203h203v-203h-203zM403 551h426l-213 764zM711 1543v203h202v-203h-202z" />
<glyph unicode="&#x1df;" d="M133 326q0 187 125.5 284t368.5 97h247v29q-1 134 -68 194.5t-214 60.5q-94 0 -190 -27t-187 -79v184q102 39 195.5 58.5t181.5 19.5q139 0 237.5 -41t159.5 -123q38 -50 54 -123.5t16 -220.5v-639h-185v166q-59 -100 -148.5 -147.5t-217.5 -47.5q-171 0 -273 96.5 t-102 258.5zM317 338q0 -101 61 -157t169 -56q152 0 239 105.5t88 291.5v41h-172h-61q-161 0 -242.5 -56.5t-81.5 -168.5zM317 1694v148h598v-148h-598zM319 1350v202h203v-202h-203zM711 1350v202h202v-202h-202z" />
<glyph unicode="&#x1e0;" d="M37 0l457 1493h245l457 -1493h-209l-110 389h-523l-108 -389h-209zM317 1804v148h598v-148h-598zM403 551h426l-213 764zM513 1543v205h205v-205h-205z" />
<glyph unicode="&#x1e1;" d="M133 326q0 187 125.5 284t368.5 97h247v29q-1 134 -68 194.5t-214 60.5q-94 0 -190 -27t-187 -79v184q102 39 195.5 58.5t181.5 19.5q139 0 237.5 -41t159.5 -123q38 -50 54 -123.5t16 -220.5v-639h-185v166q-59 -100 -148.5 -147.5t-217.5 -47.5q-171 0 -273 96.5 t-102 258.5zM317 338q0 -101 61 -157t169 -56q152 0 239 105.5t88 291.5v41h-172h-61q-161 0 -242.5 -56.5t-81.5 -168.5zM317 1694v148h598v-148h-598zM513 1348v204h205v-204h-205z" />
<glyph unicode="&#x1e2;" d="M0 0l410 1493h751v-170h-338v-442h307v-170h-307v-541h357v-170h-543v383h-352l-101 -383h-184zM328 551h309v772h-107zM487 1692v148h598v-148h-598z" />
<glyph unicode="&#x1e3;" d="M41 307q0 171 100 260.5t291 89.5h117v88q0 120 -49.5 184t-143.5 64q-56 0 -122 -21.5t-128 -60.5v168q77 35 143 51.5t126 16.5q91 0 153 -31.5t99 -95.5q33 61 99 94t155 33q174 0 246.5 -118.5t72.5 -424.5v-90h-491q-1 -15 -1.5 -32.5t-0.5 -51.5q0 -161 50.5 -233 t162.5 -72q79 0 143.5 25.5t114.5 76.5v-172q-55 -41 -121 -62.5t-137 -21.5q-110 0 -184.5 41t-106.5 119q-39 -80 -105.5 -120t-163.5 -40q-156 0 -237.5 86t-81.5 250zM205 311q0 -89 44.5 -137.5t127.5 -48.5q92 0 129 66.5t37 250.5v72h-49q-169 0 -229 -45t-60 -158z M317 1378v148h598v-148h-598zM709 657h327v52q0 151 -38.5 217.5t-125.5 66.5t-125 -68t-38 -225v-43z" />
<glyph unicode="&#x1e6;" d="M102 745q0 366 160 570.5t445 204.5q94 0 180 -26.5t166 -80.5v-207q-81 77 -166 113.5t-180 36.5q-197 0 -295.5 -152.5t-98.5 -458.5q0 -311 95.5 -460.5t293.5 -149.5q67 0 117.5 15.5t91.5 48.5v401h-217v166h410v-643q-81 -75 -182.5 -113.5t-219.5 -38.5 q-284 0 -442 203.5t-158 570.5zM311 1901h140l165 -178l166 178h140l-211 -266h-189z" />
<glyph unicode="&#x1e7;" d="M123 569q0 264 117 421t313 157q108 0 183 -43t122 -133v145h184v-1044q0 -252 -119 -382t-350 -130q-76 0 -159 14t-166 41v182q98 -46 178 -68t147 -22q149 0 217 81t68 257v8v125q-44 -94 -120 -140t-185 -46q-196 0 -313 157t-117 420zM297 1638h139l180 -245 l181 245h139l-246 -376h-147zM317 569q0 -207 71.5 -315.5t207.5 -108.5q127 0 194.5 109t67.5 315q0 207 -67.5 314.5t-196.5 107.5q-135 0 -206 -107.5t-71 -314.5z" />
<glyph unicode="&#x1e8;" d="M137 0v1493h203v-664l631 664h237l-581 -610l598 -883h-244l-487 748l-154 -164v-584h-203zM311 1901h140l165 -178l166 178h140l-211 -266h-189z" />
<glyph unicode="&#x1e9;" d="M236 0v1556h190v-901l483 465h224l-441 -422l510 -698h-225l-414 578l-137 -129v-449h-190zM311 1901h140l165 -178l166 178h140l-211 -266h-189z" />
<glyph unicode="&#x1ea;" d="M117 745q0 391 123.5 583t375.5 192q253 0 376.5 -192t123.5 -583q0 -390 -123.5 -582t-376.5 -192t-376 191t-123 583zM328 745q0 -328 67.5 -469t220.5 -141q154 0 221.5 140.5t67.5 469.5t-67.5 470t-221.5 141q-153 0 -220.5 -141t-67.5 -470zM448 -231 q0 48 26.5 100.5t81.5 114.5h119q-45 -61 -66.5 -105t-21.5 -75q0 -46 27.5 -69t81.5 -23q32 0 63 7.5t62 22.5v-133q-38 -10 -72 -15t-64 -5q-122 0 -179.5 43.5t-57.5 136.5z" />
<glyph unicode="&#x1eb;" d="M137 559q0 286 123 437t356 151t356.5 -151t123.5 -437q0 -287 -123 -437.5t-357 -150.5q-233 0 -356 150.5t-123 437.5zM332 559q0 -213 72 -322.5t212 -109.5q141 0 213 109.5t72 322.5q0 214 -72 323t-213 109q-140 0 -212 -109t-72 -323zM448 -231q0 48 26.5 100.5 t81.5 114.5h119q-45 -61 -66.5 -105t-21.5 -75q0 -46 27.5 -69t81.5 -23q32 0 63 7.5t62 22.5v-133q-38 -10 -72 -15t-64 -5q-122 0 -179.5 43.5t-57.5 136.5z" />
<glyph unicode="&#x1ec;" d="M117 745q0 391 123.5 583t375.5 192q253 0 376.5 -192t123.5 -583q0 -390 -123.5 -582t-376.5 -192t-376 191t-123 583zM317 1692v148h598v-148h-598zM328 745q0 -328 67.5 -469t220.5 -141q154 0 221.5 140.5t67.5 469.5t-67.5 470t-221.5 141q-153 0 -220.5 -141 t-67.5 -470zM448 -231q0 48 26.5 100.5t81.5 114.5h119q-45 -61 -66.5 -105t-21.5 -75q0 -46 27.5 -69t81.5 -23q32 0 63 7.5t62 22.5v-133q-38 -10 -72 -15t-64 -5q-122 0 -179.5 43.5t-57.5 136.5z" />
<glyph unicode="&#x1ed;" d="M137 559q0 286 123 437t356 151t356.5 -151t123.5 -437q0 -287 -123 -437.5t-357 -150.5q-233 0 -356 150.5t-123 437.5zM317 1378v148h598v-148h-598zM332 559q0 -213 72 -322.5t212 -109.5q141 0 213 109.5t72 322.5q0 214 -72 323t-213 109q-140 0 -212 -109t-72 -323 zM448 -231q0 48 26.5 100.5t81.5 114.5h119q-45 -61 -66.5 -105t-21.5 -75q0 -46 27.5 -69t81.5 -23q32 0 63 7.5t62 22.5v-133q-38 -10 -72 -15t-64 -5q-122 0 -179.5 43.5t-57.5 136.5z" />
<glyph unicode="&#x1ee;" d="M26 435h202q0 -143 100 -218q99 -75 288.5 -75t289.5 75t100 218q0 134 -92 207q-94 74 -258 74h-174v166l370 441h-738v170h970v-168l-376 -441q104 0 234 -56q98 -43 184 -151q80 -104 80 -242q0 -221 -152 -342t-432 -121q-292 0 -444 121t-152 342zM311 1901h140 l165 -178l166 178h140l-211 -266h-189z" />
<glyph unicode="&#x1ef;" d="M125 -167q84 -49 184 -74t209 -25q190 0 289 75q100 75 100 218q0 132 -92 207q-93 74 -258 74h-174v166l430 499h-667v147h874v-168l-411 -476q106 0 234 -56q98 -42 184 -151q81 -104 81 -242q0 -221 -152 -342t-432 -121q-94 0 -193 18q-100 19 -206 56v195zM297 1638 h139l180 -245l181 245h139l-246 -376h-147z" />
<glyph unicode="&#x1f0;" d="M186 -270h234q90 0 135 62.5t45 187.5v997h-317v143h501v-1140q0 -195 -89.5 -300.5t-254.5 -105.5h-254v156zM332 1633h139l180 -245l181 245h139l-246 -376h-147z" />
<glyph unicode="&#x1f4;" d="M102 745q0 366 160 570.5t445 204.5q94 0 180 -26.5t166 -80.5v-207q-81 77 -166 113.5t-180 36.5q-197 0 -295.5 -152.5t-98.5 -458.5q0 -311 95.5 -460.5t293.5 -149.5q67 0 117.5 15.5t91.5 48.5v401h-217v166h410v-643q-81 -75 -182.5 -113.5t-219.5 -38.5 q-284 0 -442 203.5t-158 570.5zM565 1635l197 264h186l-229 -264h-154z" />
<glyph unicode="&#x1f5;" d="M123 569q0 264 117 421t313 157q108 0 183 -43t122 -133v145h184v-1044q0 -252 -119 -382t-350 -130q-76 0 -159 14t-166 41v182q98 -46 178 -68t147 -22q149 0 217 81t68 257v8v125q-44 -94 -120 -140t-185 -46q-196 0 -313 157t-117 420zM317 569q0 -207 71.5 -315.5 t207.5 -108.5q127 0 194.5 109t67.5 315q0 207 -67.5 314.5t-196.5 107.5q-135 0 -206 -107.5t-71 -314.5zM475 1262l281 376h198l-325 -376h-154z" />
<glyph unicode="&#x1f6;" d="M62 0v1493h182v-612h299v612h183v-907q0 -273 82 -412q23 -39 69 -39q54 0 79 79q33 102 33 372v295h182v-320q0 -373 -104 -513q-57 -77 -190 -77q-128 0 -200 83q-134 153 -134 507v150h-299v-711h-182z" />
<glyph unicode="&#x1f8;" d="M139 0v1493h256l504 -1229v1229h195v-1493h-256l-504 1229v-1229h-195zM377 1899h184l197 -264h-154z" />
<glyph unicode="&#x1f9;" d="M195 0v1120h184v-168q49 96 133 145.5t199 49.5q171 0 255.5 -112.5t84.5 -340.5v-694h-185v694q0 151 -53 222t-166 71q-129 0 -198.5 -91.5t-69.5 -262.5v-633h-184zM279 1638h198l281 -376h-154z" />
<glyph unicode="&#x1fc;" d="M0 0l410 1493h751v-170h-338v-442h307v-170h-307v-541h357v-170h-543v383h-352l-101 -383h-184zM328 551h309v772h-107zM715 1635l197 264h186l-229 -264h-154z" />
<glyph unicode="&#x1fd;" d="M41 307q0 171 100 260.5t291 89.5h117v88q0 120 -49.5 184t-143.5 64q-56 0 -122 -21.5t-128 -60.5v168q77 35 143 51.5t126 16.5q91 0 153 -31.5t99 -95.5q33 61 99 94t155 33q174 0 246.5 -118.5t72.5 -424.5v-90h-491q-1 -15 -1.5 -32.5t-0.5 -51.5q0 -161 50.5 -233 t162.5 -72q79 0 143.5 25.5t114.5 76.5v-172q-55 -41 -121 -62.5t-137 -21.5q-110 0 -184.5 41t-106.5 119q-39 -80 -105.5 -120t-163.5 -40q-156 0 -237.5 86t-81.5 250zM205 311q0 -89 44.5 -137.5t127.5 -48.5q92 0 129 66.5t37 250.5v72h-49q-169 0 -229 -45t-60 -158z M475 1262l281 376h198l-325 -376h-154zM709 657h327v52q0 151 -38.5 217.5t-125.5 66.5t-125 -68t-38 -225v-43z" />
<glyph unicode="&#x1fe;" d="M8 0l178 252q-32 73 -50.5 204t-18.5 289q0 391 123.5 583t375.5 192q115 0 201.5 -41t143.5 -121l139 201l100 -74l-168 -238q41 -81 62.5 -210t21.5 -292q0 -390 -123.5 -582t-376.5 -192q-121 0 -211 40.5t-151 121.5l-143 -203zM328 686q0 -80 2.5 -130.5t7.5 -84.5 l504 719q-25 81 -82.5 123.5t-143.5 42.5q-157 0 -222.5 -146t-65.5 -524zM371 303q30 -78 95.5 -123t149.5 -45q154 0 221.5 140.5t67.5 469.5q0 110 -5 178t-15 113zM475 1635l197 264h186l-229 -264h-154z" />
<glyph unicode="&#x1ff;" d="M47 -20l170 200q-39 71 -59.5 168.5t-20.5 210.5q0 286 123 437t356 151q100 0 179 -27.5t139 -83.5l147 176l93 -77l-164 -195q42 -66 64 -162.5t22 -218.5q0 -287 -123 -437.5t-357 -150.5q-103 0 -181.5 29.5t-135.5 89.5l-160 -186zM328 575q0 -48 7 -106t21 -129 l461 557q-35 48 -84.5 71t-116.5 23q-139 0 -213.5 -107t-74.5 -309zM414 221q36 -47 86.5 -70.5t115.5 -23.5q141 0 213 109.5t72 322.5q0 52 -6 107.5t-18 113.5zM475 1262l281 376h198l-325 -376h-154z" />
<glyph unicode="&#x200;" d="M37 0l457 1493h245l457 -1493h-209l-110 389h-523l-108 -389h-209zM187 1899h186l197 -264h-154zM403 551h426l-213 764zM506 1899h186l197 -264h-154z" />
<glyph unicode="&#x201;" d="M133 326q0 187 125.5 284t368.5 97h247v29q-1 134 -68 194.5t-214 60.5q-94 0 -190 -27t-187 -79v184q102 39 195.5 58.5t181.5 19.5q139 0 237.5 -41t159.5 -123q38 -50 54 -123.5t16 -220.5v-639h-185v166q-59 -100 -148.5 -147.5t-217.5 -47.5q-171 0 -273 96.5 t-102 258.5zM210 1638h178l205 -376h-135zM317 338q0 -101 61 -157t169 -56q152 0 239 105.5t88 291.5v41h-172h-61q-161 0 -242.5 -56.5t-81.5 -168.5zM552 1638h170l190 -376h-137z" />
<glyph unicode="&#x202;" d="M37 0l457 1493h245l457 -1493h-209l-110 389h-523l-108 -389h-209zM303 1659q11 120 90 181t223 61t223.5 -61.5t90.5 -180.5h-119q-15 56 -63.5 83.5t-131.5 27.5q-82 0 -132 -28.5t-62 -82.5h-119zM403 551h426l-213 764z" />
<glyph unicode="&#x203;" d="M133 326q0 187 125.5 284t368.5 97h247v29q-1 134 -68 194.5t-214 60.5q-94 0 -190 -27t-187 -79v184q102 39 195.5 58.5t181.5 19.5q139 0 237.5 -41t159.5 -123q38 -50 54 -123.5t16 -220.5v-639h-185v166q-59 -100 -148.5 -147.5t-217.5 -47.5q-171 0 -273 96.5 t-102 258.5zM303 1321q11 143 90 215t223 72q145 0 224 -72t90 -215h-119q-14 76 -62 113t-133 37q-87 0 -135 -37t-59 -113h-119zM317 338q0 -101 61 -157t169 -56q152 0 239 105.5t88 291.5v41h-172h-61q-161 0 -242.5 -56.5t-81.5 -168.5z" />
<glyph unicode="&#x204;" d="M187 1899h186l197 -264h-154zM197 0v1493h886v-170h-684v-442h654v-170h-654v-541h703v-170h-905zM506 1899h186l197 -264h-154z" />
<glyph unicode="&#x205;" d="M123 559q0 268 144 428t384 160q214 0 337.5 -145t123.5 -396v-90h-797v-6q0 -183 95.5 -283t269.5 -100q88 0 184 28t205 85v-183q-105 -43 -202.5 -64.5t-188.5 -21.5q-261 0 -408 156.5t-147 431.5zM224 1638h178l205 -376h-135zM322 659l606 1q-4 162 -76.5 246.5 t-208.5 84.5q-133 0 -219 -88t-102 -244zM566 1638h170l190 -376h-137z" />
<glyph unicode="&#x206;" d="M197 0v1493h886v-170h-684v-442h654v-170h-654v-541h703v-170h-905zM303 1659q11 120 90 181t223 61t223.5 -61.5t90.5 -180.5h-119q-15 56 -63.5 83.5t-131.5 27.5q-82 0 -132 -28.5t-62 -82.5h-119z" />
<glyph unicode="&#x207;" d="M123 559q0 268 144 428t384 160q214 0 337.5 -145t123.5 -396v-90h-797v-6q0 -183 95.5 -283t269.5 -100q88 0 184 28t205 85v-183q-105 -43 -202.5 -64.5t-188.5 -21.5q-261 0 -408 156.5t-147 431.5zM317 1321q11 143 90 215t223 72q145 0 224 -72t90 -215h-119 q-14 76 -62 113t-133 37q-87 0 -135 -37t-59 -113h-119zM322 659l606 1q-4 162 -76.5 246.5t-208.5 84.5q-133 0 -219 -88t-102 -244z" />
<glyph unicode="&#x208;" d="M187 1899h186l197 -264h-154zM201 0v170h313v1153h-313v170h829v-170h-313v-1153h313v-170h-829zM506 1899h186l197 -264h-154z" />
<glyph unicode="&#x209;" d="M178 0v143h365v834h-287v143h471v-977h365v-143h-914zM210 1638h178l205 -376h-135zM552 1638h170l190 -376h-137z" />
<glyph unicode="&#x20a;" d="M201 0v170h313v1153h-313v170h829v-170h-313v-1153h313v-170h-829zM303 1659q11 120 90 181t223 61t223.5 -61.5t90.5 -180.5h-119q-15 56 -63.5 83.5t-131.5 27.5q-82 0 -132 -28.5t-62 -82.5h-119z" />
<glyph unicode="&#x20b;" d="M178 0v143h365v834h-287v143h471v-977h365v-143h-914zM303 1321q11 143 90 215t223 72q145 0 224 -72t90 -215h-119q-14 76 -62 113t-133 37q-87 0 -135 -37t-59 -113h-119z" />
<glyph unicode="&#x20c;" d="M117 745q0 391 123.5 583t375.5 192q253 0 376.5 -192t123.5 -583q0 -390 -123.5 -582t-376.5 -192t-376 191t-123 583zM187 1899h186l197 -264h-154zM328 745q0 -328 67.5 -469t220.5 -141q154 0 221.5 140.5t67.5 469.5t-67.5 470t-221.5 141q-153 0 -220.5 -141 t-67.5 -470zM506 1899h186l197 -264h-154z" />
<glyph unicode="&#x20d;" d="M137 559q0 286 123 437t356 151t356.5 -151t123.5 -437q0 -287 -123 -437.5t-357 -150.5q-233 0 -356 150.5t-123 437.5zM210 1638h178l205 -376h-135zM332 559q0 -213 72 -322.5t212 -109.5q141 0 213 109.5t72 322.5q0 214 -72 323t-213 109q-140 0 -212 -109t-72 -323 zM552 1638h170l190 -376h-137z" />
<glyph unicode="&#x20e;" d="M117 745q0 391 123.5 583t375.5 192q253 0 376.5 -192t123.5 -583q0 -390 -123.5 -582t-376.5 -192t-376 191t-123 583zM303 1659q11 120 90 181t223 61t223.5 -61.5t90.5 -180.5h-119q-15 56 -63.5 83.5t-131.5 27.5q-82 0 -132 -28.5t-62 -82.5h-119zM328 745 q0 -328 67.5 -469t220.5 -141q154 0 221.5 140.5t67.5 469.5t-67.5 470t-221.5 141q-153 0 -220.5 -141t-67.5 -470z" />
<glyph unicode="&#x20f;" d="M137 559q0 286 123 437t356 151t356.5 -151t123.5 -437q0 -287 -123 -437.5t-357 -150.5q-233 0 -356 150.5t-123 437.5zM303 1321q11 143 90 215t223 72q145 0 224 -72t90 -215h-119q-14 76 -62 113t-133 37q-87 0 -135 -37t-59 -113h-119zM332 559q0 -213 72 -322.5 t212 -109.5q141 0 213 109.5t72 322.5q0 214 -72 323t-213 109q-140 0 -212 -109t-72 -323z" />
<glyph unicode="&#x210;" d="M137 1899h186l197 -264h-154zM143 0v1493h416q246 0 377 -111t131 -321q0 -148 -80.5 -241.5t-226.5 -114.5q78 -20 133 -75.5t137 -221.5l203 -408h-217l-178 377q-77 161 -138.5 207.5t-160.5 46.5h-193v-631h-203zM346 797h221q145 0 216 65t71 199q0 129 -75.5 197.5 t-219.5 68.5h-213v-530zM456 1899h186l197 -264h-154z" />
<glyph unicode="&#x211;" d="M360 1638h178l205 -376h-135zM362 0v1120h185v-219q46 119 141.5 182.5t226.5 63.5q68 0 127 -17t113 -53v-188q-59 46 -120 67t-134 21q-172 0 -263 -108t-91 -312v-557h-185zM702 1638h170l190 -376h-137z" />
<glyph unicode="&#x212;" d="M143 0v1493h416q246 0 377 -111t131 -321q0 -148 -80.5 -241.5t-226.5 -114.5q78 -20 133 -75.5t137 -221.5l203 -408h-217l-178 377q-77 161 -138.5 207.5t-160.5 46.5h-193v-631h-203zM253 1659q11 120 90 181t223 61t223.5 -61.5t90.5 -180.5h-119q-15 56 -63.5 83.5 t-131.5 27.5q-82 0 -132 -28.5t-62 -82.5h-119zM346 797h221q145 0 216 65t71 199q0 129 -75.5 197.5t-219.5 68.5h-213v-530z" />
<glyph unicode="&#x213;" d="M362 0v1120h185v-219q46 119 141.5 182.5t226.5 63.5q68 0 127 -17t113 -53v-188q-59 46 -120 67t-134 21q-172 0 -263 -108t-91 -312v-557h-185zM453 1321q11 143 90 215t223 72q145 0 224 -72t90 -215h-119q-14 76 -62 113t-133 37q-87 0 -135 -37t-59 -113h-119z" />
<glyph unicode="&#x214;" d="M147 573v920h203v-1012q0 -109 6 -155.5t21 -71.5q32 -59 92.5 -89t146.5 -30q87 0 147 30t93 89q15 25 21 71t6 154v1014h202v-920q0 -229 -28.5 -325.5t-98.5 -159.5q-66 -59 -151 -88t-191 -29q-105 0 -190 29t-152 88q-69 62 -98 160.5t-29 324.5zM187 1899h186 l197 -264h-154zM506 1899h186l197 -264h-154z" />
<glyph unicode="&#x215;" d="M195 424v694h184v-694q0 -151 53.5 -222t165.5 -71q130 0 199 91.5t69 262.5v633h185v-1118h-185v168q-49 -97 -133.5 -147t-197.5 -50q-172 0 -256 112.5t-84 340.5zM210 1638h178l205 -376h-135zM552 1638h170l190 -376h-137z" />
<glyph unicode="&#x216;" d="M147 573v920h203v-1012q0 -109 6 -155.5t21 -71.5q32 -59 92.5 -89t146.5 -30q87 0 147 30t93 89q15 25 21 71t6 154v1014h202v-920q0 -229 -28.5 -325.5t-98.5 -159.5q-66 -59 -151 -88t-191 -29q-105 0 -190 29t-152 88q-69 62 -98 160.5t-29 324.5zM303 1659 q11 120 90 181t223 61t223.5 -61.5t90.5 -180.5h-119q-15 56 -63.5 83.5t-131.5 27.5q-82 0 -132 -28.5t-62 -82.5h-119z" />
<glyph unicode="&#x217;" d="M195 424v694h184v-694q0 -151 53.5 -222t165.5 -71q130 0 199 91.5t69 262.5v633h185v-1118h-185v168q-49 -97 -133.5 -147t-197.5 -50q-172 0 -256 112.5t-84 340.5zM303 1321q11 143 90 215t223 72q145 0 224 -72t90 -215h-119q-14 76 -62 113t-133 37q-87 0 -135 -37 t-59 -113h-119z" />
<glyph unicode="&#x218;" d="M139 1079q0 200 134.5 320.5t357.5 120.5q86 0 181 -19.5t200 -58.5v-205q-92 59 -184.5 89t-186.5 30q-143 0 -226 -66.5t-83 -179.5q0 -99 54.5 -151t203.5 -87l106 -24q210 -49 306 -154t96 -286q0 -213 -132 -325t-384 -112q-105 0 -211 22.5t-213 67.5v215 q115 -73 217.5 -107t206.5 -34q153 0 238 68.5t85 191.5q0 112 -58.5 171t-203.5 91l-108 25q-208 47 -302 142t-94 255zM408 -542l94 345h239l-187 -345h-146z" />
<glyph unicode="&#x219;" d="M213 41v190q103 -53 197 -79.5t178 -26.5q122 0 189 49.5t67 138.5q0 128 -245 177l-8 2l-69 14q-159 31 -232 104.5t-73 200.5q0 161 109 248.5t311 87.5q90 0 173 -16.5t163 -49.5v-180q-79 46 -159 69t-163 23q-125 0 -186.5 -40.5t-61.5 -123.5q0 -75 46 -112 t229 -72l74 -14q137 -26 207.5 -104t70.5 -203q0 -166 -118 -259.5t-328 -93.5q-83 0 -174 17.5t-197 52.5zM408 -542l94 345h239l-187 -345h-146z" />
<glyph unicode="&#x21a;" d="M47 1323v170h1139v-170h-467v-1323h-203v1323h-469zM408 -542l94 345h239l-187 -345h-146z" />
<glyph unicode="&#x21b;" d="M131 977v143h299v318h184v-318h418v-143h-418v-608q0 -124 47 -173t164 -49h207v-147h-225q-207 0 -292 83t-85 286v608h-299zM497 -542l94 345h239l-187 -345h-146z" />
<glyph unicode="&#x21c;" d="M125 -270q200 55 352.5 125t245 146.5t138.5 155t46 157.5q0 101 -62.5 167t-174.5 66q-95 0 -210 -51l-163 -72v171l248 106q60 26 111 58.5t103 82t82.5 119t30.5 151.5q0 55 -17.5 98t-45 68.5t-65 42.5t-73.5 23t-74 6q-184 0 -427 -184v190q239 164 445 164 q131 0 232.5 -43t163.5 -134t62 -219q0 -60 -11.5 -111t-40.5 -107.5t-84 -114.5t-137 -117q308 -67 308 -360q0 -112 -55.5 -215t-148 -183t-220.5 -148t-267 -116t-292 -82v160z" />
<glyph unicode="&#x21d;" d="M174 -303q162 46 284.5 94t201.5 93.5t128.5 94.5t69.5 94.5t20 96.5q0 88 -59 144t-152 56q-59 0 -122 -25l-216 -86v139l223 85q34 13 66.5 29t76 46t75 64.5t54 85.5t22.5 108q0 44 -15.5 79t-40 56t-58 34.5t-66 18.5t-67.5 5q-69 0 -153 -29.5t-231 -119.5v154 q266 133 400 133q112 0 204 -35.5t150 -108.5t58 -170q0 -110 -51.5 -186.5t-193.5 -185.5q70 -8 126 -42t87 -79t47.5 -89t16.5 -81q0 -75 -33 -144t-87 -123t-130 -102.5t-154.5 -83.5t-168 -65.5t-164 -50t-148.5 -34.5v130z" />
<glyph unicode="&#x21e;" d="M137 0v1493h203v-612h553v612h203v-1493h-203v711h-553v-711h-203zM311 1901h140l165 -178l166 178h140l-211 -266h-189z" />
<glyph unicode="&#x21f;" d="M195 0v1556h184v-604q49 96 133 145.5t199 49.5q171 0 255.5 -112.5t84.5 -340.5v-694h-185v694q0 151 -53 222t-166 71q-129 0 -198.5 -91.5t-69.5 -262.5v-633h-184zM311 1901h140l165 -178l166 178h140l-211 -266h-189z" />
<glyph unicode="&#x220;" d="M147 0v1493h202v-198q54 111 146 169t218 58q187 0 279.5 -130.5t92.5 -392.5v-1429h-203v1439q0 180 -58 264.5t-182 84.5q-141 0 -217 -109t-76 -312v-937h-202z" />
<glyph unicode="&#x221;" d="M18 563q0 273 93.5 428.5t254.5 155.5q80 0 141.5 -43.5t96.5 -126.5v579h184v-1150q0 -116 13 -151q114 244 218 245q164 2 164 -216q0 -313 -250 -313q-71 0 -119 17q-30 -79 -50 -136h-119l68 194q-32 13 -70 102l-16 37q-28 -90 -84 -143q-77 -72 -177 -71 q-163 2 -255 157q-93 158 -93 435zM173 559q0 -214 54 -323t160 -109t161.5 110t55.5 322q0 213 -55.5 322.5t-161.5 109.5t-160 -109t-54 -323zM877 144q12 -18 78 -17q123 0 126 155q4 62 -60 62t-144 -200z" />
<glyph unicode="&#x224;" d="M156 0v154l759 1169h-737v170h969v-154l-780 -1169h802v-42h1v-148q0 -195 -89 -300q-90 -106 -255 -106h-205v156h185q90 0 135 62q44 62 44 188v20h-829z" />
<glyph unicode="&#x225;" d="M203 0v170l643 805h-619v147h813v-168l-643 -804h643v-150h-8v-20q0 -195 -89 -300q-90 -106 -255 -106h-205v156h185q90 0 135 62q44 62 44 188v20h-644z" />
<glyph unicode="&#x226;" d="M37 0l457 1493h245l457 -1493h-209l-110 389h-523l-108 -389h-209zM403 551h426l-213 764zM513 1667v205h205v-205h-205z" />
</font>
</defs>
</svg>
