<?xml version="1.0" standalone="no"?>
<!DOCTYPE svg PUBLIC "-//W3C//DTD SVG 1.1//EN" "http://www.w3.org/Graphics/SVG/1.1/DTD/svg11.dtd" >
<svg xmlns="http://www.w3.org/2000/svg">
<metadata></metadata>
<defs>
<font id="stixregular" horiz-adv-x="1402" >
<font-face units-per-em="2048" ascent="1536" descent="-512" />
<missing-glyph horiz-adv-x="512" />
<glyph unicode="IJ" horiz-adv-x="1529" d="M37 0v39q69 2 104.5 9t59 29t29.5 55.5t6 96.5v899q0 64 -5.5 97t-29.5 54t-58.5 27.5t-105.5 10.5v39h608v-39q-130 -6 -165.5 -39t-35.5 -150v-899q0 -48 5 -78.5t17 -53t36 -34t57 -17t86 -7.5v-39h-608zM754 119q0 41 30 73.5t70 32.5q65 0 100 -86q4 -10 10 -28 t9.5 -26t9.5 -18t14.5 -14t20.5 -4q45 0 60.5 32t15.5 112v933q0 44 -2 71t-11 49t-19.5 33t-35.5 19t-50.5 11.5t-72.5 7.5v39h588v-39q-53 -4 -83.5 -10t-53.5 -17t-33 -34t-14 -52t-4 -80v-745q0 -408 -342 -408q-94 0 -150.5 38.5t-56.5 109.5z" />
<glyph unicode="ij" horiz-adv-x="1101" d="M33 0v31q57 3 85.5 9t48 27t24 52.5t4.5 93.5v465q0 72 -15 100.5t-53 28.5q-49 0 -86 -10v32l317 113l9 -8v-719q0 -115 25 -146t126 -38v-31h-485zM160 1294q0 43 30.5 74t73.5 31q44 0 74.5 -31t30.5 -74q0 -44 -30.5 -74t-76.5 -30q-43 0 -72.5 30t-29.5 74z M389 -334q0 34 24.5 57t59.5 23q47 0 98 -65q27 -33 45 -45.5t41 -12.5q21 0 41 11t29 26q17 31 23 81t6 167v776q0 66 -15.5 94.5t-50.5 28.5q-49 0 -82 -6l-10 -2v32q161 49 320 111l10 -6v-936q0 -218 -89 -332t-259 -114q-84 0 -137.5 31.5t-53.5 80.5zM721 1294 q0 43 30.5 74t73.5 31t74 -31t31 -74q0 -44 -30.5 -74t-76.5 -30q-43 0 -72.5 30t-29.5 74z" />
<glyph unicode="ff" horiz-adv-x="1239" d="M41 0v31q58 3 89 10t50.5 28t25 52.5t5.5 91.5v643h-168v66h168q1 122 16.5 190.5t55.5 138.5q40 69 116 108.5t172 39.5q91 0 145 -35.5t54 -91.5q0 -35 -24.5 -59.5t-61.5 -24.5q-24 0 -37 13.5t-41 60.5q-28 45 -51.5 62t-56.5 17q-115 0 -115 -182v-237h387 q2 124 16 192t54 137t116 108.5t172 39.5q92 0 152.5 -36t60.5 -91q0 -35 -24.5 -59.5t-61.5 -24.5q-26 0 -46.5 16.5t-45.5 57.5q-28 45 -51.5 62t-56.5 17q-115 0 -115 -182v-237h236v-66h-236v-645q0 -50 4 -78t14 -49.5t33.5 -31t54 -14.5t84.5 -7v-31h-501v31 q89 6 114 38.5t25 143.5v643h-385v-643q0 -116 22 -145.5t117 -36.5v-31h-481z" />
<glyph unicode="fi" horiz-adv-x="1142" d="M66 0v31q86 3 112.5 35t26.5 131v657h-137v68h139q9 72 13.5 106t15 81t24.5 74t37 58.5t57 61.5q113 96 301 96q122 0 189 -36.5t67 -102.5q0 -84 -71 -84q-28 0 -57.5 27t-52 59t-59.5 59t-79 27q-91 0 -154 -66q-42 -42 -51.5 -96.5t-9.5 -171.5v-92h315q96 0 234 22 l10 -8q-4 -109 -4 -203v-530q0 -96 29.5 -130t109.5 -42v-31h-450v31q94 7 116.5 36.5t22.5 135.5v534q0 41 -5 61t-28 34.5t-62 18t-116 3.5h-172v-670q0 -86 27 -116.5t112 -36.5v-31h-450z" />
<glyph unicode="fl" horiz-adv-x="1138" d="M63 0v31q65 5 92.5 18.5t39.5 50.5t12 119v637h-144v66h148q0 161 25 242.5t108 154.5q90 80 205 80q43 0 119.5 -25.5t107.5 -25.5q11 0 68 25.5t82 25.5l10 -4v-1225q0 -83 26 -107t107 -32v-31h-440v31q80 8 107.5 35.5t27.5 109.5v680h-385v-690q0 -76 28.5 -101.5 t114.5 -33.5v-31h-459zM379 922h385v290q-13 -16 -37 -16q-37 0 -55.5 15.5t-46.5 60.5q-25 41 -49.5 56t-59.5 15q-69 0 -103 -76t-34 -243v-102z" />
<glyph unicode="ffi" horiz-adv-x="1703" d="M41 0v31q111 6 140.5 37t29.5 143v645h-168v66h168q1 122 16.5 189.5t55.5 137.5q40 69 116 108.5t172 39.5q91 0 146 -35.5t55 -91.5q0 -35 -24.5 -59.5t-61.5 -24.5q-25 0 -39 14t-41 60q-30 48 -49 64.5t-51 16.5q-59 0 -91 -47t-32 -137v-235h385q9 72 13.5 106 t15 81t24.5 74t37 58.5t57 61.5q113 96 302 96q122 0 189 -36.5t67 -102.5q0 -84 -72 -84q-28 0 -57.5 26t-52 56.5t-59.5 56.5t-79 26q-98 0 -154 -59q-42 -42 -51.5 -96.5t-9.5 -171.5v-92h315q96 0 234 22l10 -8q-4 -109 -4 -203v-530q0 -96 29.5 -130t109.5 -42v-31 h-450v31q94 7 116.5 36.5t22.5 135.5v534q0 54 -12.5 76.5t-55.5 32.5t-143 10h-172v-672q0 -86 27 -116.5t112 -36.5v-31h-450v31q50 4 76.5 11t41.5 27.5t18 47t3 80.5v659h-383v-645q0 -61 4 -92t21 -51t40.5 -26t73.5 -11v-31h-481z" />
<glyph unicode="ffl" horiz-adv-x="1699" d="M41 0v31q58 3 89 10t50.5 28t25 52.5t5.5 91.5v643h-168v66h168q1 122 16.5 190.5t55.5 138.5q40 69 116 108.5t172 39.5q92 0 152.5 -36t60.5 -91q0 -35 -24.5 -59.5t-61.5 -24.5q-26 0 -46.5 16.5t-45.5 57.5q-28 45 -51.5 62t-56.5 17q-115 0 -115 -182v-237h389 q0 161 25 242.5t108 154.5q90 80 205 80q43 0 119.5 -25.5t107.5 -25.5q11 0 68 25.5t82 25.5l10 -4v-1225q0 -83 26 -107t107 -32v-31h-440v31q80 8 107.5 35.5t27.5 109.5v680h-385v-690q0 -76 28.5 -101.5t114.5 -33.5v-31h-458v31q50 4 74.5 10.5t42 27.5t22 54t4.5 96 v637h-385v-643q0 -50 4 -78t14 -50t33 -32t54 -15t85 -7v-31h-532zM940 922h385v290q-13 -16 -37 -16q-37 0 -55.5 15.5t-46.5 60.5q-25 41 -49 55t-60 14q-69 0 -103 -75t-34 -242v-102z" />
<glyph unicode="fj" horiz-adv-x="1107" d="M66 0v31q89 3 114 37.5t25 128.5v657h-137v68h139q17 147 31 196q31 109 116 185q109 96 301 96q40 0 78 -5t81.5 -18.5t70 -43t26.5 -72.5q0 -84 -71 -84q-28 0 -57.5 27t-52 59t-59.5 59t-79 27q-91 0 -154 -66q-37 -39 -49 -91t-12 -124v-53v-92h315q91 0 234 22 l10 -8q-4 -136 -4 -203v-733q0 -73 -10 -136t-35.5 -121.5t-64 -99t-99.5 -65t-139 -24.5q-40 0 -80.5 9t-75.5 35.5t-35 67.5q0 35 24.5 57.5t59.5 22.5q24 0 44.5 -12.5t35.5 -31t29.5 -36.5t34 -30.5t41.5 -12.5q43 0 69 37q6 9 10.5 23t7.5 28t5.5 35t3.5 35t1.5 37.5 t0.5 33.5v32v24v829q0 58 -12 78q-28 39 -160 39h-39h-172v-670q0 -86 27 -116.5t112 -36.5v-31h-450z" />
<glyph unicode=" "  horiz-adv-x="512" />
<glyph unicode="&#x09;" horiz-adv-x="512" />
<glyph unicode="&#xa0;" horiz-adv-x="512" />
<glyph unicode="!" horiz-adv-x="681" d="M266 88q0 46 31.5 78.5t77.5 32.5q44 0 76 -33.5t32 -79.5q0 -44 -31.5 -74t-78.5 -30q-46 0 -76.5 30t-30.5 76zM266 1229q0 70 26.5 112.5t82.5 42.5q52 0 80 -44.5t28 -120.5q0 -32 -4 -78l-92 -781h-29l-86 781q-6 61 -6 88z" />
<glyph unicode="&#x22;" horiz-adv-x="835" d="M158 1296q0 39 24.5 63.5t63.5 24.5q37 0 61.5 -23.5t24.5 -60.5q0 -100 -66 -417h-43q-65 353 -65 413zM504 1296q0 38 25 63t63 25q37 0 61.5 -24.5t24.5 -59.5q0 -27 -9 -83.5t-27 -156.5t-30 -177h-43q-65 353 -65 413z" />
<glyph unicode="#" horiz-adv-x="1024" d="M12 442v113h236l43 274h-223v113h239l64 414h118l-63 -414h272l62 414h119l-62 -414h197v-113h-213l-41 -274h203v-113h-222l-63 -442h-119l64 442h-275l-67 -442h-119l67 442h-217zM367 555h274l41 274h-272z" />
<glyph unicode="$" horiz-adv-x="1024" d="M90 104v267h31q32 -153 123 -233.5t227 -80.5v578q-216 122 -290.5 205.5t-74.5 210.5q0 74 30 132.5t82 95t115.5 56.5t137.5 25v129h70v-129q234 -14 329 -109v-227h-30q-31 128 -104 197t-195 84v-504q175 -94 242 -147t112 -122q43 -64 43 -184q0 -87 -28 -149.5 t-83 -101.5t-123 -61.5t-163 -35.5v-178h-70v178q-131 0 -212.5 23t-168.5 81zM258 1090q0 -67 42 -117.5t171 -138.5v471q-106 -21 -159.5 -77.5t-53.5 -137.5zM541 57q126 27 179.5 81.5t53.5 162.5q0 94 -47 155t-186 144v-543z" />
<glyph unicode="%" horiz-adv-x="1529" d="M125 948q0 113 54.5 214t146 161.5t194.5 60.5q32 0 57 -11.5t66 -45.5q55 -45 98 -62.5t99 -17.5q67 0 107 13.5t87 50.5t148 135h90l-881 -1483h-96l807 1348q-57 -66 -111.5 -91.5t-136.5 -25.5q-73 0 -156 29q9 -53 9 -90q0 -107 -45 -214t-119 -176 q-78 -75 -176 -75q-103 0 -172.5 80t-69.5 200zM270 866q0 -64 32 -103.5t85 -39.5q71 0 133.5 61t99.5 163t37 218q0 44 -9.5 62t-41.5 33q-46 22 -90 69q-63 -31 -89.5 -54.5t-57.5 -74.5q-99 -157 -99 -334zM821 244q0 107 55 207.5t145.5 162.5t186.5 62q94 0 145.5 -63 t51.5 -177q0 -122 -47 -232t-125 -176.5t-164 -66.5q-104 0 -176 81.5t-72 201.5zM969 156q0 -60 32.5 -100t81.5 -40q69 0 133 60t103 159t39 205q0 80 -35.5 129t-93.5 49q-26 0 -54.5 -13t-46.5 -34q-68 -72 -113.5 -191.5t-45.5 -223.5z" />
<glyph unicode="&#x26;" horiz-adv-x="1593" d="M86 281q0 125 83 240.5t239 205.5l77 45q-41 101 -56 167t-15 138q0 136 89 221.5t222 85.5q125 0 203 -67.5t78 -186.5q0 -112 -70.5 -190.5t-247.5 -153.5q63 -136 123.5 -230.5t146.5 -190.5q103 137 146 218.5t43 149.5q0 46 -28.5 67.5t-104.5 28.5v43h442v-43 q-72 0 -111.5 -27t-80.5 -93q-27 -43 -77.5 -127.5t-90 -145.5t-90.5 -129q74 -97 147 -142.5t164 -45.5q59 0 98.5 23t89.5 85l31 -22q-44 -112 -125 -172t-184 -60q-89 0 -170 43.5t-178 143.5q-116 -101 -217.5 -144t-225.5 -43q-167 0 -258.5 78t-91.5 230zM274 356 q0 -127 71 -200.5t183 -73.5q68 0 138.5 30.5t160.5 100.5q-94 109 -162.5 215.5t-148.5 273.5q-134 -86 -188 -163.5t-54 -182.5zM575 1149q0 -82 16.5 -144.5t65.5 -152.5q130 59 185 126.5t55 160.5q0 76 -45 128t-115 52q-72 0 -117 -47t-45 -123z" />
<glyph unicode="'" horiz-adv-x="368" d="M98 1298q0 38 25.5 62t62.5 24q40 0 63 -22.5t23 -58.5q0 -95 -65 -420h-43q-66 359 -66 415z" />
<glyph unicode="(" horiz-adv-x="681" d="M98 516q0 282 129 501.5t377 366.5l19 -32q-143 -122 -218 -239t-103 -250.5t-28 -340.5q0 -151 14.5 -261.5t52.5 -216t106.5 -195.5t175.5 -179l-25 -32q-159 90 -273 231t-170.5 306.5t-56.5 340.5z" />
<glyph unicode=")" horiz-adv-x="681" d="M59 -330q88 73 148 141.5t100 139t62 156t30.5 176.5t8.5 217q0 123 -8 214t-29.5 183t-60.5 166t-101 147t-150 142l25 32q233 -140 366.5 -377.5t133.5 -500.5q0 -559 -506 -868z" />
<glyph unicode="*" horiz-adv-x="1024" d="M139 791q0 39 29.5 59.5t99.5 32.5q70 13 109 28.5t102 53.5q-88 53 -198 75q-76 15 -107 36t-31 59q0 33 19 54t49 21q24 0 44.5 -13.5t55.5 -51.5q50 -56 87.5 -87t95.5 -63v27q0 81 -31 186q-23 71 -23 107q0 29 21.5 49t52.5 20t53.5 -21.5t22.5 -51.5t-23 -97 q-35 -92 -35 -170v-49q73 42 119 86q11 11 38 40t43.5 46t38.5 32t38 15q34 0 55 -21t21 -56q0 -40 -23.5 -59.5t-83.5 -28.5q-69 -11 -112 -26.5t-117 -57.5l18 -13q74 -50 197 -69q68 -11 95.5 -30t27.5 -58q0 -34 -21 -57t-53 -23q-29 0 -56.5 20.5t-66.5 69.5 q-13 16 -27 30.5t-24 24t-25 20.5t-21.5 15.5t-23 15t-20.5 13.5l-17 10v-19q0 -116 41 -225q19 -55 19 -67q0 -31 -25.5 -55.5t-56.5 -24.5q-29 0 -51.5 22t-22.5 51q0 27 25 97q33 87 33 202v19q-81 -51 -107 -74q-32 -32 -84 -92q-26 -29 -44.5 -40t-43.5 -11 q-35 0 -55.5 20.5t-20.5 53.5z" />
<glyph unicode="+" d="M98 451v135h535v534h135v-534h535v-135h-535v-535h-135v535h-535z" />
<glyph unicode="," horiz-adv-x="512" d="M113 92q0 53 34 85t89 32q70 0 116.5 -49.5t46.5 -128.5q0 -93 -62 -181.5t-167 -138.5l-20 39q169 114 169 219q0 11 -8 19t-20 8q-7 0 -27.5 -4t-32.5 -4q-118 0 -118 104z" />
<glyph unicode="-" horiz-adv-x="681" d="M80 397v129h504v-129h-504z" />
<glyph unicode="." horiz-adv-x="512" d="M143 90q0 47 34 81t81 34q44 0 78.5 -35.5t34.5 -81.5q0 -44 -34.5 -77.5t-80.5 -33.5q-47 0 -80 33t-33 80z" />
<glyph unicode="/" horiz-adv-x="569" d="M-18 -29l469 1413h137l-467 -1413h-139z" />
<glyph unicode="0" horiz-adv-x="1024" d="M49 688q0 111 17 211.5t54 189.5t91 154t133.5 103t175.5 38q201 0 328 -197t127 -511q0 -109 -15.5 -209t-51.5 -191t-88.5 -158t-131.5 -107t-176 -40q-101 0 -182 42.5t-132.5 112.5t-86 165t-48.5 193t-14 204zM246 674q0 -315 67.5 -482t198.5 -167q129 0 197.5 167 t68.5 474q0 323 -68 494t-202 171q-127 0 -194.5 -171.5t-67.5 -485.5z" />
<glyph unicode="1" horiz-adv-x="1024" d="M227 1169v29l367 186l18 -6v-1222q0 -68 41.5 -96.5t153.5 -28.5v-31h-565v31q112 6 153 42t41 122v919q0 53 -14.5 76.5t-46.5 23.5q-29 0 -92 -24z" />
<glyph unicode="2" horiz-adv-x="1024" d="M59 0v25l365 387q143 150 204.5 275t61.5 257q0 138 -76 213.5t-208 75.5q-110 0 -175 -57.5t-127 -208.5l-43 10q34 190 139.5 298.5t286.5 108.5q170 0 274.5 -102.5t104.5 -257.5q0 -121 -62.5 -242t-199.5 -266l-338 -360h479q67 0 107.5 26.5t89.5 110.5l29 -12 l-111 -281h-801z" />
<glyph unicode="3" horiz-adv-x="1024" d="M84 88q0 32 24 53t60 21q51 0 125 -53q54 -38 92.5 -51t83.5 -13q113 0 189.5 91t76.5 222q0 235 -213 297q-68 21 -209 21v29q121 42 172 73q166 95 166 275q0 102 -59 155.5t-162 53.5q-96 0 -169 -52t-136 -166l-33 9q47 154 147.5 242.5t254.5 88.5q143 0 231 -77 t88 -203q0 -169 -190 -283q67 -29 102.5 -51.5t67.5 -56.5q90 -99 90 -264q0 -161 -95 -287q-70 -94 -200 -142.5t-275 -48.5q-112 0 -170.5 30.5t-58.5 86.5z" />
<glyph unicode="4" horiz-adv-x="1024" d="M25 342v131l643 911h90v-911h211v-131h-211v-342h-160v342h-573zM106 473h492v703z" />
<glyph unicode="5" horiz-adv-x="1024" d="M63 98q0 38 25 58t68 20q38 0 71 -13t80 -50q80 -66 146 -66q70 0 134 49.5t103 130t39 166.5q0 197 -137 307q-177 144 -436 144q-25 0 -25 16l2 10l223 486h424q35 0 54.5 10.5t44.5 42.5l18 -14l-74 -174q-12 -27 -55 -27h-397l-82 -174q225 -42 325.5 -92.5 t186.5 -169.5q71 -99 71 -260q0 -147 -47.5 -248t-152.5 -178q-139 -101 -348 -101q-117 0 -189 34.5t-72 92.5z" />
<glyph unicode="6" horiz-adv-x="1024" d="M70 571q0 335 223 566q126 132 260 185.5t360 78.5l5 -33q-241 -40 -403.5 -196t-203.5 -388q71 55 128.5 74t131.5 19q180 0 283.5 -115t103.5 -313q0 -203 -104 -328q-58 -71 -142 -110.5t-184 -39.5q-121 0 -214.5 54t-147.5 153q-44 80 -70 184t-26 209zM260 545 q0 -239 74.5 -377.5t216.5 -138.5q107 0 165 97t58 259q0 199 -67.5 298t-208.5 99q-47 0 -87 -11t-75.5 -36.5t-55.5 -74t-20 -115.5z" />
<glyph unicode="7" horiz-adv-x="1024" d="M41 1055l123 301h756v-33l-435 -1339h-133l406 1220h-441q-88 0 -130.5 -31t-108.5 -137z" />
<glyph unicode="8" horiz-adv-x="1024" d="M115 305q0 109 53 185.5t213 189.5q-155 127 -204.5 205t-49.5 180q0 145 111.5 232t285.5 87q150 0 247 -85t97 -207q0 -112 -58 -179.5t-216 -152.5q184 -122 250.5 -219t66.5 -224q0 -158 -109.5 -252t-293.5 -94q-173 0 -283 94.5t-110 239.5zM270 324 q0 -139 70.5 -217t189.5 -78q100 0 163 62.5t63 162.5q0 93 -47 162t-154 141l-121 82q-91 -73 -127.5 -144t-36.5 -171zM279 1124q0 -95 60 -171t196 -156q103 61 147.5 130t44.5 165q0 107 -60 171t-163 64t-164 -54t-61 -149z" />
<glyph unicode="9" horiz-adv-x="1024" d="M61 901q0 207 121.5 345t304.5 138q195 0 322 -155q131 -163 131 -422q0 -181 -62.5 -339.5t-183.5 -268.5q-127 -116 -247.5 -165.5t-325.5 -78.5l-6 41q235 42 398 199t224 407q-120 -117 -307 -117q-166 0 -267.5 114.5t-101.5 301.5zM250 971q0 -183 68 -290.5 t184 -107.5q36 0 75.5 9t77 26.5t62 48.5t24.5 70v80q0 258 -68 389t-202 131q-95 0 -149 -70q-31 -42 -51.5 -122.5t-20.5 -163.5z" />
<glyph unicode=":" horiz-adv-x="569" d="M166 90q0 50 33 82.5t82 32.5q45 0 78.5 -34.5t33.5 -80.5t-33 -79.5t-79 -33.5t-80.5 33.5t-34.5 79.5zM166 825q0 49 33 82t82 33q45 0 78.5 -34.5t33.5 -80.5t-33 -79t-79 -33t-80.5 33.5t-34.5 78.5z" />
<glyph unicode=";" horiz-adv-x="569" d="M164 94q0 50 34.5 82.5t86.5 32.5q70 0 117 -50t47 -132q0 -97 -61.5 -181t-168.5 -135l-20 39q170 111 170 217q0 11 -8.5 20t-20.5 9q-5 0 -26 -4t-31 -4q-57 0 -88 27.5t-31 78.5zM164 825q0 49 33 82t82 33q45 0 78.5 -34.5t33.5 -80.5t-33 -79t-79 -33t-80.5 33.5 t-34.5 78.5z" />
<glyph unicode="&#x3c;" d="M115 510v20l1157 564v-133l-885 -441l885 -440v-129z" />
<glyph unicode="=" d="M98 246v135h1207v-135h-1207zM98 655v136h1207v-136h-1207z" />
<glyph unicode="&#x3e;" d="M115 -49v129l884 440l-884 441v133l1157 -564v-20z" />
<glyph unicode="?" horiz-adv-x="909" d="M139 1092q0 128 94 210t242 82q100 0 184.5 -38.5t136.5 -113.5t52 -171q0 -93 -41 -169.5t-174 -234.5q-54 -65 -84.5 -139.5t-48.5 -181.5h-35q4 148 90 362q34 84 52 133.5t35 120.5t17 129q0 105 -64 173.5t-159 68.5q-74 0 -133 -39t-59 -88q0 -25 12 -46t27 -33 t27 -31t12 -42q0 -39 -23 -63.5t-61 -24.5q-44 0 -71.5 37t-27.5 99zM377 92q0 46 31.5 77.5t78.5 31.5q43 0 75 -33t32 -76q0 -45 -31 -76.5t-76 -31.5q-50 0 -80 31.5t-30 76.5z" />
<glyph unicode="@" horiz-adv-x="1886" d="M238 670q0 171 78 322.5t210 250.5q190 141 459 141q187 0 341 -79t242.5 -216.5t88.5 -304.5q0 -130 -51.5 -243.5t-138.5 -180.5t-187 -67q-69 0 -122 41.5t-60 107.5h-4q-47 -69 -115.5 -108t-140.5 -39q-77 0 -129 63t-52 166q0 97 37 194.5t99 178.5 q110 143 262 143q109 0 149 -106h4l19 78h141l-133 -520q-4 -20 -4 -35q0 -51 21 -74t65 -23q66 0 126 57.5t96 151t36 195.5q0 112 -47 215t-126 178t-187.5 119.5t-227.5 44.5q-286 0 -450 -236q-60 -86 -93.5 -199t-33.5 -227q0 -268 163 -438t424 -170q210 0 412 99 l25 -62q-140 -66 -239 -91.5t-208 -25.5q-210 0 -381.5 90t-269.5 250.5t-98 358.5zM803 561q0 -83 33 -130.5t90 -47.5q41 0 82.5 32t72.5 87q40 75 65 165.5t25 159.5q0 59 -24.5 91t-69.5 32q-46 0 -100 -37.5t-100 -105.5q-74 -112 -74 -246z" />
<glyph unicode="A" horiz-adv-x="1478" d="M31 0v39q71 7 106 42q39 38 99 175q15 36 53 125l422 999h41l503 -1153q45 -105 81 -142t112 -46v-39h-522v39q53 0 72.5 3.5t39.5 14.5q12 6 20.5 20.5t8.5 28.5q0 55 -39 144l-84 192h-536l-95 -233q-18 -49 -18 -86q0 -46 34 -65t109 -19v-39h-407zM442 526h473 l-237 564z" />
<glyph unicode="B" horiz-adv-x="1366" d="M35 0v39q122 3 159 39t37 153v895q0 42 -2.5 69.5t-11.5 49.5t-21 33.5t-36.5 20t-52 12t-72.5 6.5v39h573q263 0 400 -89t137 -253q0 -63 -23 -121t-61 -92q-36 -31 -75.5 -48t-121.5 -38v-2q94 -16 147 -42t103 -71q100 -89 100 -235q0 -169 -132.5 -267t-356.5 -98 h-690zM440 168q0 -52 28 -72t99 -20q139 0 204.5 15.5t129.5 72.5q78 69 78 203q0 155 -96 219q-23 15 -45.5 26.5t-40 19.5t-46 14t-44 9t-55 5.5t-57.5 3t-73 2t-82 2.5v-500zM440 750h189q307 0 307 254q0 132 -91.5 204t-271.5 72h-84q-26 0 -37.5 -15.5t-11.5 -50.5 v-464z" />
<glyph unicode="C" horiz-adv-x="1366" d="M57 666q0 298 185 505q192 213 497 213q137 0 244 -30q12 -3 45 -14t56.5 -17t39.5 -6q30 0 53.5 17.5t32.5 49.5h41l19 -464h-47q-32 147 -107 227q-146 156 -330 156q-228 0 -359.5 -167.5t-131.5 -437.5q0 -330 147 -489q67 -71 162.5 -109.5t202.5 -38.5 q134 0 232 47t218 160l39 -37q-89 -127 -233 -193.5t-326 -66.5q-140 0 -267 48t-216 135q-94 92 -145.5 226t-51.5 286z" />
<glyph unicode="D" horiz-adv-x="1478" d="M33 0v39q63 4 96 12t53.5 31t25.5 56.5t5 97.5v890q0 43 -2 70t-10 49t-19 33.5t-33.5 20t-48 12t-67.5 6.5v39h553q399 0 614 -187q203 -176 203 -485q0 -183 -71 -324t-208 -229q-203 -131 -516 -131h-575zM422 172q0 -55 19.5 -75.5t78.5 -20.5q161 0 258.5 22.5 t188.5 83.5q213 143 213 490q0 157 -48 268.5t-147 198.5q-89 78 -193.5 109.5t-261.5 31.5q-60 0 -84 -18t-24 -68v-1022z" />
<glyph unicode="E" horiz-adv-x="1251" d="M25 0v39q63 4 95 11.5t52.5 30.5t25.5 55.5t5 96.5v893q0 80 -13 117t-49 53.5t-116 20.5v39h1085l8 -293h-51q-12 73 -28 112t-52.5 64t-88.5 32t-146 7h-269q-44 0 -57.5 -13t-13.5 -61v-450h309q90 0 134 16.5t64 55t33 124.5h47v-479h-47q-10 69 -21.5 104.5t-38 59 t-64 29.5t-107.5 6h-309v-498q0 -61 42.5 -78.5t163.5 -17.5h74q150 0 234.5 23t137.5 79t101 168h58l-95 -346h-1103z" />
<glyph unicode="F" horiz-adv-x="1138" d="M23 0v39q63 4 95 12t53 32t26.5 61t5.5 108v876q0 60 -5 91.5t-25 54t-53 30.5t-95 13v39h1083l10 -293h-51q-13 74 -27 111.5t-49.5 63.5t-88.5 33t-150 7h-271q-43 0 -56 -16t-13 -64v-444h290q129 0 174 37t58 157h47v-477h-47q-12 125 -55.5 162t-176.5 37h-290v-441 q0 -116 33.5 -150t152.5 -40v-39h-575z" />
<glyph unicode="G" horiz-adv-x="1478" d="M66 670q0 166 57.5 304.5t161.5 233.5q192 176 489 176q134 0 273 -47q56 -20 90 -20q32 0 57.5 19t34.5 48h45l16 -432h-47q-38 94 -68.5 144t-76.5 94q-119 113 -299 113q-203 0 -342 -142q-79 -79 -118.5 -209t-39.5 -288q0 -283 147.5 -447t391.5 -164 q117 0 194.5 36.5t77.5 88.5v322q0 43 -2 69t-9.5 48t-18 33t-33.5 19.5t-49 12t-70 6.5v37h524v-37q-48 -4 -73 -11t-42.5 -25.5t-22.5 -47t-5 -80.5v-409q-84 -68 -222.5 -106t-298.5 -38q-159 0 -305.5 57.5t-246.5 161.5q-170 179 -170 480z" />
<glyph unicode="H" horiz-adv-x="1478" d="M37 0v39q43 3 69.5 7t48.5 13.5t33 22.5t19 37.5t10 54t2 76.5v872q0 84 -13.5 121t-49.5 52.5t-119 21.5v39h573v-39q-115 -9 -148.5 -43t-33.5 -152v-387h621v387q0 51 -4.5 81.5t-14.5 53t-33 33.5t-51.5 17t-79.5 10v39h574v-39q-116 -9 -149.5 -43.5t-33.5 -151.5 v-895q0 -109 34 -144t149 -44v-39h-572v39q63 4 96.5 13t53.5 34.5t25.5 62t5.5 105.5v391h-621v-414q0 -114 32.5 -150t145.5 -42l2 -39h-571z" />
<glyph unicode="I" horiz-adv-x="681" d="M37 0v39q69 2 104.5 9t59 29t29.5 55.5t6 96.5v899q0 64 -5.5 97t-29.5 54t-58.5 27.5t-105.5 10.5v39h608v-39q-130 -6 -165.5 -39t-35.5 -150v-899q0 -48 5 -78.5t17 -53t36 -34t57 -17t86 -7.5v-39h-608z" />
<glyph unicode="J" horiz-adv-x="763" d="M-12 119q0 41 30 73.5t70 32.5q65 0 100 -86q4 -10 10 -28t9.5 -26t9.5 -18t14.5 -14t20.5 -4q45 0 60.5 32t15.5 112v933q0 44 -2 71t-11 49t-19.5 33t-35.5 19t-50.5 11.5t-72.5 7.5v39h588v-39q-53 -4 -83.5 -10t-53.5 -17t-33 -34t-14 -52t-4 -80v-745 q0 -408 -342 -408q-94 0 -150.5 38.5t-56.5 109.5z" />
<glyph unicode="K" horiz-adv-x="1478" d="M68 0v39q64 3 98 11.5t55.5 34t27 63t5.5 108.5v868q0 61 -5.5 93.5t-26 55.5t-55 31.5t-97.5 12.5v39h577v-39q-45 -3 -73 -7t-50 -14t-33 -21.5t-18 -35t-8.5 -48.5t-1.5 -69v-409l364 336q60 57 87.5 84.5t50 60.5t22.5 57q0 33 -17.5 48t-66.5 16l-51 2v39h530v-39 q-104 -7 -158.5 -35.5t-160.5 -130.5l-381 -365l479 -524q126 -138 187.5 -180.5t132.5 -42.5v-39h-621v39l55 2q86 3 86 49q0 37 -66.5 116.5t-213.5 231.5l-205 211l-53 -43v-379q0 -61 6.5 -94.5t29 -54t53.5 -27.5t93 -12v-39h-577z" />
<glyph unicode="L" horiz-adv-x="1251" d="M25 0v39q113 6 145.5 42.5t32.5 154.5v882q0 64 -5 97t-24.5 56.5t-52.5 32t-96 13.5v39h579v-39q-44 -3 -72.5 -7t-51.5 -13.5t-35 -21.5t-20 -34.5t-10.5 -49.5t-2.5 -69v-950q0 -58 35 -75t149 -17h143q247 0 346 125q41 54 86 151h54l-99 -356h-1101z" />
<glyph unicode="M" horiz-adv-x="1820" d="M25 0v39q55 4 86.5 11.5t56 22.5t35 46.5t15.5 74.5t5 115v815q0 117 -34 151.5t-160 41.5v39h405l473 -1028l453 1028h407v-39q-110 -1 -144 -38t-34 -153v-897q0 -109 34 -146t146 -44v-39h-573v39q64 4 98 13t54.5 34.5t26 61.5t5.5 104v919l-522 -1171h-29l-516 1124 v-815q0 -59 3 -98t11.5 -70t21.5 -48.5t35.5 -29.5t50 -17t69.5 -7v-39h-479z" />
<glyph unicode="N" horiz-adv-x="1478" d="M25 0v39q54 6 85.5 14.5t56 24t35.5 46t16 72.5t5 111v901q-54 67 -90 88t-108 21v39h348l790 -989v696q0 157 -39 201q-24 27 -54 35.5t-107 17.5v39h485v-39q-61 -6 -88.5 -13t-46.5 -24q-32 -29 -46 -78.5t-14 -163.5v-1061h-36l-904 1125v-795q0 -66 5 -107t16 -71 t35 -47t54 -26.5t81 -16.5v-39h-479z" />
<glyph unicode="O" horiz-adv-x="1478" d="M70 684q0 312 185 506t484 194q148 0 273.5 -53.5t212.5 -147t135.5 -224t48.5 -281.5q0 -315 -187 -511t-483 -196q-298 0 -483.5 197t-185.5 516zM303 680q0 -374 184 -543q102 -92 254 -92q161 0 265 98q170 164 170 547q0 174 -49.5 312t-137.5 212q-118 97 -252 97 q-174 0 -293 -137q-65 -74 -103 -209.5t-38 -284.5z" />
<glyph unicode="P" horiz-adv-x="1140" d="M33 0v39q43 3 68.5 7t47 14.5t31 22t16 37.5t8 53.5t1.5 76.5v878q0 115 -29.5 147.5t-142.5 41.5v39h530q293 0 445 -129q102 -85 102 -244q0 -163 -117 -268q-86 -77 -176 -101t-262 -24q-59 0 -141 6v-367q0 -62 6 -95t28.5 -55t57 -29.5t100.5 -10.5v-39h-573z M414 678q70 -6 125 -6q167 0 257.5 80.5t90.5 220.5q0 166 -95 236.5t-307 70.5q-43 0 -57 -15.5t-14 -58.5v-528z" />
<glyph unicode="Q" horiz-adv-x="1478" d="M70 680q0 160 51 292.5t140 222.5t212 139.5t266 49.5q194 0 346.5 -86.5t238 -246.5t85.5 -369q0 -181 -53.5 -311.5t-167.5 -239.5q-64 -63 -134 -93t-182 -52q109 -155 246 -228t318 -84v-36h-99q-510 0 -710 253l-84 107q-123 42 -192 86.5t-126 120.5 q-155 207 -155 475zM303 686q0 -149 30.5 -274.5t88.5 -206.5q50 -72 139 -116t178 -44q177 0 305 148q61 70 96.5 206.5t35.5 292.5q0 176 -49.5 314.5t-137.5 212.5q-112 92 -256 92q-83 0 -160.5 -38.5t-134.5 -107.5q-62 -72 -98.5 -202.5t-36.5 -276.5z" />
<glyph unicode="R" horiz-adv-x="1366" d="M35 0v39q62 5 93 12.5t51 32.5t25 61.5t5 108.5v874q0 50 -3.5 77.5t-12 50.5t-29.5 33.5t-50 17t-79 10.5v39h557q280 0 428 -121q49 -39 74.5 -106.5t25.5 -139.5q0 -280 -370 -336l409 -518q42 -54 81 -72t112 -24v-39h-332l-488 631l-114 -4v-398q0 -50 4 -79.5 t14 -51.5t32 -33t51.5 -17t80.5 -9v-39h-565zM418 702q146 3 218.5 17t143.5 53q55 30 86 93.5t31 140.5q0 138 -92.5 206t-282.5 68q-56 0 -80 -17.5t-24 -68.5v-492z" />
<glyph unicode="S" horiz-adv-x="1138" d="M88 408h45q71 -186 173.5 -274.5t248.5 -88.5q107 0 175.5 64t68.5 165q0 96 -60 162q-99 107 -344 238q-250 133 -250 352q0 164 100.5 261t256.5 97q109 0 215 -45q56 -24 90 -24q53 0 65 69h43l46 -436h-52q-36 129 -84 193q-124 159 -297 159q-94 0 -150 -54 t-56 -140q0 -50 21.5 -91.5t83.5 -90t103 -74.5t150 -89q5 -3 8 -5q165 -97 241.5 -192t76.5 -210q0 -170 -118.5 -276.5t-299.5 -106.5q-134 0 -242 47q-56 23 -96 23q-24 0 -40.5 -18.5t-16.5 -49.5h-46z" />
<glyph unicode="T" horiz-adv-x="1251" d="M35 1008l14 348h1151l14 -348h-49q-18 88 -37 136.5t-56.5 78.5t-86.5 38.5t-135 8.5h-121v-1043q0 -116 35 -149t162 -39v-39h-598v39q46 3 73.5 6.5t51.5 13.5t35.5 22.5t19.5 37.5t10 55t2 78v1018h-123q-57 0 -95.5 -3.5t-72.5 -14.5t-55 -28.5t-38.5 -48t-29 -70 t-22.5 -97.5h-49z" />
<glyph unicode="U" horiz-adv-x="1478" d="M29 1317v39h579v-39q-65 -6 -99 -14t-55 -30.5t-26.5 -54.5t-5.5 -94v-639q0 -134 16.5 -204.5t73.5 -126.5q96 -93 262 -93q98 0 179.5 32t131.5 89q48 58 62 126.5t14 203.5v539q0 84 -6 130t-28 77.5t-57.5 43t-100.5 15.5v39h475v-39q-66 -6 -103 -19t-58 -45 t-26.5 -74.5t-5.5 -121.5v-522q0 -159 -22 -249.5t-88 -164.5q-132 -150 -414 -150q-221 0 -348 95q-166 123 -166 444v635q0 55 -5.5 83.5t-26.5 49t-54.5 27.5t-97.5 12z" />
<glyph unicode="V" horiz-adv-x="1478" d="M33 1317v39h542v-39l-57 -4q-49 -3 -70.5 -18t-21.5 -46q0 -24 16.5 -68.5t63.5 -150.5l311 -700l301 755q39 95 39 148q0 15 -3.5 26.5t-7.5 19.5t-14.5 14t-16.5 9t-23 6t-24 4t-28.5 2.5t-29.5 2.5v39h417v-39q-65 -2 -105 -39.5t-83 -147.5l-455 -1153h-30l-500 1115 q-34 78 -57 119.5t-48.5 66.5t-50 31.5t-65.5 7.5z" />
<glyph unicode="W" horiz-adv-x="1933" d="M10 1317v39h500v-39q-76 -1 -103.5 -16t-27.5 -48q0 -35 22 -96l295 -770l213 580l-57 153q-27 71 -44.5 107t-42 57.5t-49.5 26.5t-73 6v39h543v-39q-76 -1 -117 -20t-41 -52q0 -24 35 -119l293 -745l258 694q35 96 35 158q0 42 -33.5 62.5t-110.5 21.5v39h404v-39 q-82 -15 -111.5 -39.5t-58.5 -103.5q-167 -452 -227.5 -624t-190.5 -573h-31q-120 337 -327 867l-316 -867h-31q-70 208 -209 587.5t-184 506.5q-51 147 -93 196t-120 50z" />
<glyph unicode="X" horiz-adv-x="1478" d="M20 0v39q56 5 91.5 22.5t79 62t126.5 148.5l320 400l-217 317q-76 112 -122 171.5t-89.5 95t-75.5 45.5t-88 16v39h617v-39l-60 -2q-47 -2 -70.5 -14.5t-23.5 -45.5q0 -12 3 -25.5t12 -32t17 -33t26 -42t30 -45t39 -56.5t43 -63l90 -131l229 287q48 60 65 87.5t17 49.5 q0 36 -28.5 49.5t-110.5 16.5v39h485v-39q-98 -6 -156 -44t-155 -159l-293 -362l393 -562q60 -86 103 -114t125 -37v-39h-606v39l53 4q102 6 102 59q0 46 -104 201l-195 289l-243 -305q-109 -135 -109 -183q0 -30 34 -44.5t122 -20.5v-39h-476z" />
<glyph unicode="Y" horiz-adv-x="1478" d="M45 1317v39h571v-39l-49 -2q-96 -3 -96 -53q0 -44 37 -97l299 -452l297 454q29 45 29 86q-2 34 -32 48.5t-108 15.5v39h447v-39q-89 -7 -142 -51t-141 -179l-303 -466v-394q0 -41 3.5 -69t13.5 -49t23.5 -33t39.5 -20t55 -11.5t76 -5.5v-39h-627v39q50 3 79 7t55 13.5 t38 22t21 37.5t11.5 55t2.5 78v350l-268 393q-97 143 -150 207.5t-91.5 88.5t-90.5 26z" />
<glyph unicode="Z" horiz-adv-x="1253" d="M20 0v31l895 1247h-438q-202 0 -274 -72q-38 -39 -53.5 -76.5t-30.5 -123.5h-53l43 350h1075v-31l-885 -1247h516q161 0 240 57q47 32 69 76.5t54 148.5h47l-51 -360h-1154z" />
<glyph unicode="[" horiz-adv-x="681" d="M180 -319v1675h432v-51h-170q-54 0 -80 -22.5t-26 -76.5v-1364q0 -59 26.5 -84.5t79.5 -25.5h170v-51h-432z" />
<glyph unicode="\" horiz-adv-x="569" d="M-18 1384h137l469 -1413h-139z" />
<glyph unicode="]" horiz-adv-x="681" d="M70 -268h180q53 0 74.5 22.5t21.5 71.5v1368q0 56 -23.5 83.5t-80.5 27.5h-172v51h432v-1675h-432v51z" />
<glyph unicode="^" horiz-adv-x="960" d="M49 608l371 748h123l370 -748h-139l-293 592l-293 -592h-139z" />
<glyph unicode="_" horiz-adv-x="1024" d="M0 -154h1024v-102h-1024v102z" />
<glyph unicode="`" horiz-adv-x="681" d="M37 1323q0 32 20 49t54 17q43 0 88 -48l297 -303h-82l-316 197q-61 39 -61 88z" />
<glyph unicode="a" horiz-adv-x="909" d="M76 193q0 144 143 239q95 64 369 166v111q0 92 -43.5 138t-116.5 46q-61 0 -102 -29t-41 -71q0 -18 6 -41t6 -45q0 -31 -28 -57.5t-66 -26.5q-34 0 -61 27t-27 67q0 43 26.5 87.5t77.5 76.5q94 61 236 61q165 0 241 -92q36 -44 47 -88t11 -139v-392q0 -135 63 -135 q41 0 88 39v-57q-44 -56 -86 -77t-98 -21q-59 0 -91.5 35t-39.5 114h-2q-132 -149 -297 -149q-97 0 -156 56.5t-59 156.5zM256 256q0 -78 39 -118t102 -40q69 0 119 33q43 30 57.5 57t14.5 72v289q-188 -66 -262 -135q-70 -64 -70 -158z" />
<glyph unicode="b" horiz-adv-x="1024" d="M6 1274v35l62 18q32 10 80 23.5t82 24t73 24.5l10 -4v-625q32 78 107.5 125t169.5 47q162 0 265 -128.5t103 -321.5q0 -225 -137 -368.5t-342 -143.5q-126 0 -232 41.5t-106 93.5v1044q0 76 -18.5 97.5t-81.5 21.5q-15 0 -35 -4zM313 152q0 -48 58 -77.5t141 -29.5 q121 0 190 88q76 95 76 270q0 93 -21 177t-59 137q-68 96 -182 96q-82 0 -142.5 -48.5t-60.5 -113.5v-499z" />
<glyph unicode="c" horiz-adv-x="909" d="M51 434q0 261 172 404q125 104 277 104q129 0 222 -62.5t93 -148.5q0 -35 -28 -60.5t-68 -25.5q-34 0 -60 25t-38 69l-13 45q-15 57 -40.5 78t-80.5 21q-124 0 -201 -98.5t-77 -258.5q0 -177 88 -288t229 -111q88 0 152 42.5t137 149.5l29 -18q-50 -96 -86.5 -147.5 t-81.5 -87.5q-106 -86 -236 -86q-170 0 -279.5 128t-109.5 326z" />
<glyph unicode="d" horiz-adv-x="1024" d="M55 420q0 218 124.5 370t301.5 152q62 0 109.5 -19.5t105.5 -68.5v320q0 63 -18.5 83.5t-75.5 20.5q-29 0 -45 -2v33q195 52 301 90l10 -4v-1162q0 -71 17.5 -93.5t72.5 -22.5q13 0 48 2v-33l-301 -106l-9 6v131q-53 -72 -114.5 -104.5t-147.5 -32.5q-170 0 -274.5 121.5 t-104.5 318.5zM231 502q0 -189 77 -302.5t206 -113.5q95 0 152 66q30 33 30 57v471q0 82 -63 143.5t-146 61.5q-117 0 -186.5 -104.5t-69.5 -278.5z" />
<glyph unicode="e" horiz-adv-x="909" d="M51 444q0 219 116.5 358.5t307.5 139.5q184 0 285 -141q58 -81 69 -234h-630q8 -130 25 -198t69 -136q84 -112 227 -112q100 0 169.5 49t146.5 166l32 -14q-123 -342 -428 -342q-181 0 -285 125.5t-104 338.5zM203 633h418q-18 129 -60.5 182t-140.5 53q-87 0 -143.5 -60 t-73.5 -175z" />
<glyph unicode="f" horiz-adv-x="681" d="M41 0v31q58 3 89 10t50.5 28t25 52.5t5.5 91.5v643h-168v66h168q1 122 16.5 190.5t55.5 138.5q40 69 116 108.5t172 39.5q92 0 152.5 -36t60.5 -91q0 -35 -24.5 -59.5t-61.5 -24.5q-26 0 -46.5 16.5t-45.5 57.5q-28 45 -51.5 62t-56.5 17q-115 0 -115 -182v-237h250v-66 h-250v-643q0 -50 4 -78t14 -50t33 -32t54 -15t85 -7v-31h-532z" />
<glyph unicode="g" horiz-adv-x="1024" d="M57 -248q0 57 45.5 114t155.5 136q-64 31 -86 53t-22 56q0 59 94 141q47 40 88 82q-103 51 -147 114t-44 160q0 139 99.5 236.5t242.5 97.5q79 0 164 -31l45 -16q61 -21 113 -21h158v-79h-170q38 -86 38 -172q0 -159 -106 -238q-108 -80 -213 -80q-22 0 -78 6l-39 4 q-41 -12 -82 -55t-41 -74q0 -25 38 -37.5t122 -17.5l264 -12q114 -4 181 -64t67 -155q0 -118 -123 -215q-79 -61 -188.5 -96t-220.5 -35q-147 0 -251 58t-104 140zM201 -180q0 -68 81 -109t216 -41q175 0 282 55t107 144q0 56 -56.5 78t-197.5 22q-75 0 -177.5 8.5 t-154.5 18.5q-62 -74 -81 -107.5t-19 -68.5zM311 686q0 -148 58 -239t153 -91q69 0 110.5 50t41.5 135q0 133 -62 247q-52 97 -149 97q-71 0 -111.5 -51.5t-40.5 -141.5v-6z" />
<glyph unicode="h" horiz-adv-x="1024" d="M18 0v31q89 12 110.5 41t21.5 137v965q0 66 -19.5 85t-85.5 19q-19 0 -25 -2v33l56 16q158 47 235 74l11 -6v-623q70 92 140 132t161 40q251 0 251 -326v-407q0 -46 2.5 -71.5t8.5 -46t21.5 -30.5t35 -16.5t55.5 -13.5v-31h-434v31q89 9 114 40.5t25 137.5v405 q0 217 -151 217q-61 0 -112.5 -29t-116.5 -100v-493q0 -106 25 -137.5t114 -40.5v-31h-443z" />
<glyph unicode="i" horiz-adv-x="569" d="M33 0v31q57 3 85.5 9t48 27t24 52.5t4.5 93.5v465q0 72 -15 100.5t-53 28.5q-49 0 -86 -10v32l317 113l9 -8v-719q0 -115 25 -146t126 -38v-31h-485zM160 1294q0 43 30.5 74t73.5 31q44 0 74.5 -31t30.5 -74q0 -44 -30.5 -74t-76.5 -30q-43 0 -72.5 30t-29.5 74z" />
<glyph unicode="j" horiz-adv-x="569" d="M-143 -334q0 34 24.5 57t59.5 23q47 0 98 -65q27 -33 45 -45.5t41 -12.5q21 0 41 11t29 26q17 30 22.5 80t5.5 168v776q0 66 -15 94.5t-50 28.5q-49 0 -82 -6l-10 -2v32q156 48 319 111l10 -6v-936q0 -218 -89 -332t-259 -114q-83 0 -136.5 31.5t-53.5 80.5zM188 1294 q0 43 31 74t74 31t73.5 -31t30.5 -74q0 -44 -30 -74t-76 -30q-43 0 -73 30t-30 74z" />
<glyph unicode="k" horiz-adv-x="1024" d="M14 0v31q42 7 63 11t41.5 12t28 14.5t14 22.5t7 31.5t0.5 45.5v987q0 74 -18 99.5t-70 25.5q-12 0 -66 -4v33l62 16q136 36 256 74l8 -4v-860l281 249q47 44 47 72q0 20 -21.5 27.5t-81.5 9.5v29h418v-31q-71 0 -120 -16.5t-121.5 -70t-200.5 -171.5l-60 -55l314 -398 q62 -78 116 -111t123 -38v-31h-446v31h39q19 0 31 8.5t12 21.5q0 19 -23 48l-307 405v-377q0 -54 25.5 -77.5t87.5 -26.5l41 -2v-31h-480z" />
<glyph unicode="l" horiz-adv-x="569" d="M39 1276v33q203 50 323 90l11 -8v-1213q0 -86 28 -113.5t125 -33.5v-31h-483v31q96 7 127 39t31 118v961q0 74 -18.5 102.5t-67.5 28.5q-43 0 -76 -4z" />
<glyph unicode="m" horiz-adv-x="1593" d="M33 0v31q86 2 114.5 31t28.5 118v508q0 75 -16 105t-56 30q-29 0 -65 -8v35q148 41 285 92l16 -6v-152h4q93 96 163 127t150 31q163 0 217 -172q160 172 334 172q123 0 180.5 -92.5t57.5 -276.5v-415q0 -67 20.5 -93.5t67.5 -29.5l53 -4v-31h-446v31q86 9 109.5 36 t23.5 117v422q0 123 -35.5 176.5t-122.5 53.5q-71 0 -122 -29t-97 -96v-516q0 -99 29 -130.5t118 -33.5v-31h-458v31q48 3 71.5 8t41 21t22 41.5t4.5 74.5v432q0 108 -34 168t-99 60q-58 0 -122.5 -26t-94.5 -62q-27 -31 -27 -35v-570q0 -65 28 -87t111 -25v-31h-454z" />
<glyph unicode="n" horiz-adv-x="1024" d="M33 815v35q149 43 280 92l17 -6v-160h2q145 166 295 166q117 0 179 -81.5t62 -233.5v-453q0 -82 24.5 -108.5t100.5 -34.5v-31h-426l2 31q76 6 101.5 44t25.5 140v408q0 107 -36.5 156.5t-112.5 49.5q-52 0 -97 -24t-114 -92v-566q0 -61 28 -85.5t105 -30.5v-31h-432v31 q77 6 102 38t25 124v497q0 76 -15 104.5t-57 28.5q-40 0 -59 -8z" />
<glyph unicode="o" horiz-adv-x="1024" d="M59 467q0 214 127 344.5t334 130.5q191 0 317 -130t126 -339q0 -216 -128 -354.5t-333 -138.5q-188 0 -315.5 137.5t-127.5 349.5zM244 559q0 -262 108 -420q70 -102 185 -102q114 0 177.5 101t63.5 280q0 107 -26.5 204.5t-75.5 159.5q-83 103 -195 103q-107 0 -172 -87 t-65 -239z" />
<glyph unicode="p" horiz-adv-x="1024" d="M10 -410q90 9 117 35.5t27 106.5v958q0 72 -16 94.5t-68 22.5q-34 0 -52 -2v33q146 45 295 104l13 -4v-158q67 85 138 123.5t157 38.5q149 0 245.5 -123t96.5 -313q0 -146 -56.5 -267t-155.5 -190t-219 -69q-64 0 -107 18.5t-99 69.5v-322q0 -97 32.5 -125t147.5 -29v-36 h-496v34zM326 180q0 -46 70.5 -90.5t142.5 -44.5q110 0 178.5 105t68.5 274q0 180 -68.5 287.5t-182.5 107.5q-71 0 -140 -44.5t-69 -90.5v-504z" />
<glyph unicode="q" horiz-adv-x="1024" d="M49 420q0 145 59.5 265t163 188.5t228.5 68.5q63 0 115.5 -15.5t121.5 -56.5l111 66h22v-1225q0 -65 24 -88.5t105 -32.5v-34h-483v34q109 8 145.5 39t36.5 117v385q-139 -151 -321 -151q-145 0 -236.5 123t-91.5 317zM225 494q0 -106 31.5 -198t83.5 -136 q62 -56 154 -56q50 0 98 17.5t82 48.5q24 21 24 90v422q0 201 -190 201q-131 0 -207 -104t-76 -285z" />
<glyph unicode="r" horiz-adv-x="681" d="M10 0v31q98 19 122 42t24 99v512q0 67 -16 95t-54 28q-33 0 -72 -8v32q118 38 303 111l11 -4v-188q77 110 129 151t116 41q53 0 83 -28.5t30 -79.5q0 -43 -21.5 -68t-58.5 -25q-38 0 -82 41q-36 31 -53 31q-43 0 -93 -59t-50 -109v-461q0 -88 35 -118t139 -35v-31h-492z " />
<glyph unicode="s" horiz-adv-x="796" d="M104 688q0 119 77 185.5t206 66.5q90 0 137 -22q39 -17 58 -17q13 0 32 21h23l10 -279h-31q-35 138 -87 195t-144 57q-70 0 -112 -35t-42 -104q0 -36 23.5 -75.5t64.5 -64.5l213 -129q102 -63 141.5 -114.5t39.5 -136.5q0 -103 -85 -179.5t-202 -76.5q-97 0 -150 18 q-55 18 -94 18q-35 0 -49 -24h-27v321h33q33 -150 94 -219t166 -69q76 0 123 43t47 108q0 95 -108 154l-111 61q-246 136 -246 297z" />
<glyph unicode="t" horiz-adv-x="569" d="M27 870q0 18 34 39q80 47 199 219q4 7 19 27t22 31q14 0 14 -27v-237h207v-66h-207v-586q0 -98 25 -141t82 -43q34 0 61.5 16t61.5 56l26 -23q-99 -155 -247 -155q-181 0 -181 260v616h-108q-8 5 -8 14z" />
<glyph unicode="u" horiz-adv-x="1024" d="M18 893v29h299v-662q0 -70 42.5 -116t103.5 -46q99 0 172 64q27 24 37 46t10 73v473q0 80 -28.5 103.5t-123.5 29.5v35h324v-703q0 -71 23 -94t94 -23h12v-28q-170 -47 -281 -92l-10 6v168h-4q-47 -64 -103.5 -105.5t-102 -56t-87.5 -14.5q-117 0 -183.5 71t-66.5 191 v514q0 76 -26.5 104t-100.5 33z" />
<glyph unicode="v" horiz-adv-x="1024" d="M39 891v31h401v-31q-53 -5 -73.5 -17t-20.5 -38q0 -29 19 -78l208 -525l203 531q12 30 12 61q0 57 -96 66v31h285v-31q-33 -3 -50.5 -15t-36 -43t-46.5 -102l-262 -657q-42 -103 -58 -103q-17 0 -37 54q-3 5 -7.5 19.5t-8.5 23.5l-246 587q-46 110 -72 156t-49 62t-65 18 z" />
<glyph unicode="w" horiz-adv-x="1478" d="M43 891v31h369v-31q-54 -6 -74.5 -21t-20.5 -47q0 -29 13 -61l202 -535l187 408l-41 115q-29 82 -56 108.5t-85 32.5v31h415v-31q-71 -10 -94.5 -24.5t-23.5 -47.5q0 -37 34 -123l172 -458l185 454q35 84 35 137q0 25 -19.5 38.5t-71.5 23.5v31h252v-31 q-30 -10 -44.5 -29.5t-39.5 -81.5l-282 -708q-25 -61 -36 -81t-22 -20q-10 0 -17.5 13.5t-31.5 74.5l-186 484l-230 -492q-38 -80 -51 -80q-17 0 -53 90l-276 701q-31 80 -51.5 103t-57.5 26z" />
<glyph unicode="x" horiz-adv-x="1024" d="M35 0v31q52 5 79.5 23.5t69.5 80.5l234 338l-193 295q-48 72 -80 97.5t-77 25.5h-19v31h424v-31q-46 -2 -67 -12t-21 -33q0 -42 94 -182q28 -39 29 -41q23 31 61 90q13 20 30.5 46.5t25.5 38.5t14 25.5t6 22.5q0 22 -18 32t-64 13v31h324v-31q-104 -3 -166 -90l-170 -246 l262 -401q43 -66 82 -94.5t86 -28.5v-31h-412v31q51 3 66.5 12t15.5 37q0 19 -12 37l-186 286l-162 -251q-41 -64 -41 -84t19 -28.5t63 -8.5v-31h-297z" />
<glyph unicode="y" horiz-adv-x="1024" d="M29 893v29h420v-31q-66 -3 -91.5 -15t-25.5 -40q0 -21 26 -84l230 -512l198 565q9 21 9 37q0 49 -95 49v31h273v-31q-37 -5 -59.5 -27t-43.5 -78l-307 -837q-79 -218 -160 -306.5t-198 -88.5q-65 0 -104.5 33t-39.5 85q0 38 26 66.5t63 28.5q56 0 106 -27q27 -14 53 -14 q42 0 103 90q29 41 55.5 117t26.5 104q0 6 -2.5 16t-8 25t-10.5 27t-15 34t-15.5 33t-18 37t-16.5 35l-271 577q-27 60 -108 72z" />
<glyph unicode="z" horiz-adv-x="909" d="M55 0v31l545 829h-276q-97 0 -131.5 -34t-47.5 -146h-36l8 242h708v-31l-551 -830h273q171 0 217 56q20 24 29 54t26 116l37 -8l-31 -279h-770z" />
<glyph unicode="{" horiz-adv-x="983" d="M205 512q103 31 138.5 77.5t35.5 153.5v365q0 177 90 233q45 28 96.5 39.5t151.5 12.5v-23q-106 -28 -146.5 -82.5t-40.5 -169.5v-344q0 -128 -38.5 -180.5t-153.5 -83.5q115 -29 153.5 -81.5t38.5 -180.5v-344q0 -115 40.5 -169.5t146.5 -82.5v-23q-101 1 -152.5 12.5 t-95.5 39.5q-90 58 -90 235v363q0 106 -35.5 153.5t-138.5 79.5z" />
<glyph unicode="|" horiz-adv-x="409" d="M137 -29v1413h135v-1413h-135z" />
<glyph unicode="}" horiz-adv-x="983" d="M266 -348q106 28 146.5 82.5t40.5 169.5v344q0 128 38.5 180.5t153.5 83.5q-116 29 -154 81t-38 181v344q0 115 -40.5 169.5t-146.5 82.5v23q101 -1 152.5 -12.5t95.5 -39.5q90 -58 90 -235v-363q0 -107 35.5 -153.5t138.5 -77.5q-103 -32 -138.5 -79t-35.5 -154v-365 q0 -177 -90 -233q-45 -28 -96.5 -39.5t-151.5 -12.5v23z" />
<glyph unicode="~" horiz-adv-x="1107" d="M82 477q91 178 256 178q51 0 94 -12.5t146 -56.5q7 -3 36 -17t52 -24.5t54 -19.5t54 -9q62 0 100.5 37t79.5 113l74 -105q-65 -96 -124.5 -136t-131.5 -40q-20 0 -36 1t-33.5 6l-28 8t-32 13t-31.5 15.5t-40 21t-45 23.5q-105 51 -198 51q-54 0 -100 -39.5t-72 -109.5z " />
<glyph unicode="&#xa1;" horiz-adv-x="675" d="M197 -285q0 28 4 78l92 785h26l91 -781q4 -37 4 -80q0 -71 -30 -117t-79 -46q-52 0 -80 41.5t-28 119.5zM197 854q0 46 30.5 75t77.5 29q46 0 77.5 -30t31.5 -74q0 -47 -32.5 -80t-78.5 -33q-45 0 -75.5 32.5t-30.5 80.5z" />
<glyph unicode="&#xa2;" horiz-adv-x="1024" d="M109 449q0 207 130 350t320 143q44 0 105 -10l90 254h71l-96 -277q74 -29 114 -73.5t40 -98.5q0 -41 -24.5 -66.5t-63.5 -25.5q-38 0 -64.5 23.5t-54.5 83.5l-207 -596q65 -25 121 -25q91 0 156 44.5t145 160.5l27 -17q-52 -107 -89.5 -160.5t-91.5 -99.5 q-90 -77 -209 -77q-53 0 -116 18l-101 -283h-69l104 308q-59 33 -90 60.5t-61 70.5q-86 125 -86 293zM266 532q0 -110 32.5 -186t107.5 -145l235 661q-50 19 -96 19q-126 0 -202.5 -96t-76.5 -253z" />
<glyph unicode="&#xa3;" horiz-adv-x="1024" d="M25 111q0 71 50.5 113t135.5 42q45 0 94 -10q6 24 6 43q0 106 -32 305l-11 68h-221v92h219q-14 74 -14 141q0 220 108 349.5t291 129.5q115 0 191 -54t76 -136q0 -47 -29.5 -78t-73.5 -31q-46 0 -62.5 28t-17.5 110q-3 106 -114 106q-92 0 -143.5 -74t-51.5 -206 q0 -82 23 -285h256v-92h-248q2 -41 2 -125q0 -45 -7.5 -91.5t-43.5 -228.5q99 -41 164 -56t141 -15q141 0 231 100q29 33 47 33q13 0 13 -10q0 -28 -30.5 -87t-62.5 -94q-106 -112 -249 -112q-67 0 -129.5 26.5t-167.5 98.5q-61 -73 -104 -100t-97 -27q-64 0 -101.5 34 t-37.5 93zM78 117q0 -34 24 -55t62 -21q56 0 96 51q31 39 31 64q0 13 -36 25t-75 12q-102 0 -102 -76z" />
<glyph unicode="&#xa4;" horiz-adv-x="1024" d="M-45 82l201 197q-84 122 -84 258q0 141 84 258l-201 200l102 99l197 -197q68 43 127.5 61.5t132.5 18.5q140 0 256 -80l201 197l98 -99l-197 -200q44 -66 62 -123.5t18 -132.5q0 -74 -18 -132.5t-62 -127.5l197 -197l-98 -102l-201 200q-121 -84 -256 -84q-138 0 -260 84 l-197 -200zM211 539q0 -129 88.5 -220.5t214.5 -91.5t212.5 91t86.5 223q0 128 -88 216.5t-215 88.5q-123 0 -211 -90.5t-88 -216.5z" />
<glyph unicode="&#xa5;" horiz-adv-x="1024" d="M-109 1317v39h498v-39q-73 -2 -103 -14.5t-30 -42.5q0 -39 27 -95l241 -452l230 450q28 54 28 92q0 26 -29.5 44t-74.5 18h-29v39h400v-39q-80 -18 -134.5 -66t-107.5 -153l-189 -377h300v-82h-340l-15 -29v-155h355v-82h-355v-150q0 -107 33 -144t131 -40v-39h-500v39 q54 2 83.5 10.5t48.5 32t24.5 60.5t5.5 104v127h-356v82h356v155l-14 29h-342v82h295l-195 354q-59 105 -94 153t-67 67t-81 22z" />
<glyph unicode="&#xa6;" horiz-adv-x="409" d="M137 -29v566h135v-566h-135zM137 819v565h135v-565h-135z" />
<glyph unicode="&#xa7;" horiz-adv-x="1024" d="M143 586q0 104 67 173.5t167 69.5q33 0 53 -2q-123 101 -164 163t-41 145q0 112 78.5 180.5t206.5 68.5q113 0 187.5 -57t74.5 -143q0 -51 -27.5 -80t-76.5 -29q-43 0 -70 25t-27 63q0 52 54 90q16 13 16 23q0 28 -36.5 46.5t-90.5 18.5q-78 0 -126 -40t-48 -105 q0 -39 19.5 -78.5t50.5 -66.5l280 -232q182 -150 182 -317q0 -113 -67.5 -179.5t-181.5 -66.5h-25q116 -100 154.5 -160t38.5 -139q0 -117 -81 -188.5t-214 -71.5q-120 0 -201.5 59.5t-81.5 145.5q0 47 32 78.5t79 31.5q41 0 69.5 -24.5t28.5 -61.5q0 -46 -47 -84 q-23 -20 -23 -30q0 -28 44.5 -50t101.5 -22q82 0 130 43t48 115q0 60 -41.5 114t-140.5 121q-188 129 -269.5 234t-81.5 219zM252 649q0 -49 20.5 -88t73.5 -92q94 -93 157.5 -131.5t121.5 -38.5q56 0 98.5 40.5t42.5 92.5q0 84 -109 193q-74 73 -146.5 116t-121.5 43 q-59 0 -98 -38.5t-39 -96.5z" />
<glyph unicode="&#xa8;" horiz-adv-x="681" d="M37 1174q0 41 29.5 70.5t70.5 29.5t72 -31t31 -72t-31 -70.5t-74 -29.5q-41 0 -69.5 30t-28.5 73zM444 1174q0 41 30 70.5t71 29.5t71.5 -31t30.5 -72t-30.5 -70.5t-73.5 -29.5q-41 0 -70 30t-29 73z" />
<glyph unicode="&#xa9;" horiz-adv-x="1556" d="M78 676q0 147 55.5 278.5t150.5 225.5t227 149t280 55q140 0 267 -56t219.5 -151t147 -226t54.5 -275q0 -146 -54.5 -276.5t-148 -224.5t-223 -149t-273.5 -55q-145 0 -275 55.5t-223.5 149.5t-148.5 224.5t-55 275.5zM190 678q0 -167 80 -310.5t216 -227t294 -83.5 t293.5 84.5t214 229t78.5 313.5q0 166 -80 307.5t-217 224t-297 82.5q-115 0 -222.5 -50.5t-186 -134t-126 -198t-47.5 -237.5zM389 674q0 188 125 302t328 114q112 0 219 -46q26 -13 26 -34v-146h-34q-12 90 -69 137.5t-144 47.5q-134 0 -213.5 -100t-79.5 -259 q0 -168 83 -264t220 -96q85 0 140.5 41.5t96.5 136.5h33l-35 -156q-4 -20 -107.5 -41.5t-195.5 -21.5q-180 0 -286.5 105.5t-106.5 279.5z" />
<glyph unicode="&#xaa;" horiz-adv-x="565" d="M8 946q0 66 45 105q40 35 83 55t186 74v61q0 41 -19.5 63.5t-54.5 22.5q-34 0 -63 -14.5t-29 -32.5q0 -5 4 -29q2 -6 2 -16q0 -20 -19 -35.5t-45 -15.5q-28 0 -46.5 17.5t-18.5 45.5q0 60 62 98.5t159 38.5q215 0 215 -196v-236q0 -44 5 -57.5t22 -13.5q30 0 57 24v-37 q-37 -36 -61.5 -48.5t-59.5 -12.5q-41 0 -62 20.5t-30 69.5q-97 -90 -186 -90q-63 0 -104.5 39t-41.5 100zM137 993q0 -37 23 -63.5t55 -26.5q36 0 86 23q23 20 23 45v157q-108 -38 -147.5 -66.5t-39.5 -68.5z" />
<glyph unicode="&#xab;" horiz-adv-x="1024" d="M86 465l166 149q25 23 97.5 91.5t116.5 107.5t52 39q23 0 23 -23q0 -5 -4 -13.5t-14.5 -22.5t-20.5 -27.5t-29.5 -38.5t-34.5 -45l-172 -217q41 -47 172 -219q103 -134 103 -156q0 -9 -8 -15.5t-17 -6.5q-8 0 -54 43.5t-112.5 109.5t-97.5 94zM479 465l166 149 q25 23 97.5 91.5t116.5 107.5t52 39q23 0 23 -23q0 -5 -4 -13.5t-14.5 -22.5t-20.5 -27.5t-29.5 -38.5t-34.5 -45l-172 -217q41 -47 172 -219q103 -134 103 -156q0 -9 -8 -15.5t-17 -6.5q-8 0 -54 43.5t-112.5 109.5t-97.5 94z" />
<glyph unicode="&#xac;" horiz-adv-x="1228" d="M98 670v135h1032v-569h-135v434h-897z" />
<glyph unicode="&#xad;" horiz-adv-x="681" d="M80 397v129h504v-129h-504z" />
<glyph unicode="&#xae;" horiz-adv-x="1556" d="M78 680q0 146 55.5 276.5t150 224t226.5 148.5t278 55q187 0 346.5 -95t252 -258.5t92.5 -356.5q0 -145 -54.5 -275.5t-148 -224t-223 -148.5t-273.5 -55q-194 0 -355.5 94t-254 256.5t-92.5 358.5zM190 678q0 -167 80 -310.5t216 -227t294 -83.5q157 0 292 84t214.5 227 t79.5 308q0 127 -46.5 242.5t-126 198.5t-189 132t-230.5 49q-116 0 -224 -50.5t-186.5 -134t-126 -198t-47.5 -237.5zM449 311l2 31q23 2 37 4.5t26 4.5t18 10t10 12t5 20.5t1.5 25.5t0.5 36v471q0 67 -14.5 84.5t-81.5 23.5v31h352q114 0 178 -54t64 -147 q0 -65 -41.5 -120t-120.5 -80l116 -162q77 -104 160 -174v-17h-131q-27 0 -65 42t-80 120q-32 57 -107 170h-98v-188q0 -71 14.5 -90t81.5 -23v-31h-327zM680 682h88q66 0 103.5 49t37.5 125q0 77 -36.5 123.5t-114.5 46.5h-78v-344z" />
<glyph unicode="&#xaf;" horiz-adv-x="681" d="M23 1120v111h636v-111h-636z" />
<glyph unicode="&#xb0;" horiz-adv-x="819" d="M117 1094q0 123 85.5 206.5t211.5 83.5q120 0 204 -85t84 -207q0 -123 -84.5 -208t-207.5 -85q-124 0 -208.5 85t-84.5 210zM197 1092q0 -92 62.5 -158t150.5 -66t150.5 67t62.5 159q0 91 -64 156t-153 65q-85 0 -147 -66t-62 -157z" />
<glyph unicode="&#xb1;" d="M98 -43h1207v-135h-1207v135zM98 496v135h535v397h135v-397h537v-135h-537v-428h-135v428h-535z" />
<glyph unicode="&#xb2;" horiz-adv-x="614" d="M2 1141q44 130 112 186.5t195 56.5q118 0 188 -62.5t70 -160.5q0 -76 -38.5 -144.5t-137.5 -164.5l-172 -166h232q43 0 69.5 11.5t48.5 43.5l37 -14l-80 -174h-514v49l207 221q75 82 117.5 158.5t42.5 124.5q0 65 -42.5 110.5t-103.5 45.5q-110 0 -180 -152z" />
<glyph unicode="&#xb3;" horiz-adv-x="614" d="M27 651q0 31 21 47.5t54 16.5q32 0 84 -39q33 -24 55 -32.5t50 -8.5q62 0 100.5 40.5t38.5 104.5q0 79 -48.5 123.5t-133.5 44.5q-9 0 -58 -6v59q106 36 150.5 76.5t44.5 96.5q0 46 -30.5 71t-84.5 25q-56 0 -95.5 -26t-80.5 -93l-51 39q56 104 119.5 149t156.5 45 q94 0 158 -49t64 -121q0 -106 -123 -167v-5q88 -22 133 -84t45 -141q0 -122 -107 -201t-276 -79q-82 0 -134 32t-52 82z" />
<glyph unicode="&#xb4;" horiz-adv-x="681" d="M190 1038l302 303q28 28 45.5 38t40.5 10q34 0 52.5 -17.5t18.5 -48.5q0 -48 -61 -86l-316 -199h-82z" />
<glyph unicode="&#xb5;" horiz-adv-x="1024" d="M74 -289q0 58 24.5 219t24.5 181v811h180v-605q0 -104 45.5 -157.5t126.5 -53.5q78 0 136 33.5t89 96.5v686h181v-725q0 -73 14.5 -107.5t48.5 -34.5q23 0 45.5 13t59.5 47v-19q-52 -68 -89 -92t-94 -24q-61 0 -106.5 49t-48.5 135h-4q-100 -184 -269 -184 q-88 0 -146 35.5t-106 115.5q2 -49 39 -206t37 -214q0 -157 -98 -157q-43 0 -66.5 43.5t-23.5 113.5z" />
<glyph unicode="&#xb6;" horiz-adv-x="1212" d="M123 965q0 201 102 296t326 95h539v-39q-61 -5 -95.5 -16t-54 -36.5t-25.5 -59.5t-6 -95v-1194q0 -76 13.5 -111.5t50 -52t117.5 -22.5v-45h-316v1626h-119v-1626h-317v45q63 4 96.5 12.5t54 33t26 60.5t5.5 105v618q-100 8 -171.5 32t-123.5 70.5t-77 122t-25 181.5z M279 969q0 -179 55.5 -265.5t185.5 -99.5v707q-142 -13 -191.5 -88.5t-49.5 -253.5z" />
<glyph unicode="&#xb7;" horiz-adv-x="512" d="M143 520q0 47 34 81t81 34q44 0 78.5 -35.5t34.5 -81.5q0 -44 -34.5 -77t-80.5 -33q-47 0 -80 32.5t-33 79.5z" />
<glyph unicode="&#xb8;" horiz-adv-x="681" d="M106 -408l29 64q76 -25 133 -25q52 0 82.5 24.5t30.5 65.5q0 40 -25 57t-84 17q-36 0 -57 -8l-14 10l84 203h71l-51 -133q30 6 53 6q84 0 130.5 -37t46.5 -104q0 -80 -69 -126t-187 -46q-97 0 -173 32z" />
<glyph unicode="&#xb9;" horiz-adv-x="614" d="M117 553v49q65 4 86.5 18t21.5 50v520q0 61 -18 61q-27 0 -86 -28v49l241 112l29 -8v-694q0 -41 26.5 -60.5t90.5 -19.5v-49h-391z" />
<glyph unicode="&#xba;" horiz-adv-x="634" d="M12 1092q0 132 86.5 212t227.5 80q131 0 214 -76.5t83 -197.5q0 -129 -89.5 -216t-224.5 -87q-129 0 -213 80.5t-84 204.5zM162 1165q0 -130 51 -221q39 -70 115 -70q71 0 108 47t37 136q0 115 -47.5 187.5t-122.5 72.5q-63 0 -102 -42t-39 -110z" />
<glyph unicode="&#xbb;" horiz-adv-x="1024" d="M88 90q0 5 4 13t14.5 23.5t19.5 27.5t29.5 39t34.5 45l172 217q-41 47 -172 219q-102 133 -102 155q0 9 8 16t17 7q8 0 54 -44t112 -109.5t98 -94.5l166 -149l-166 -150q-23 -21 -97 -90.5t-117.5 -108t-51.5 -38.5q-23 0 -23 22zM483 90q0 5 4 13.5t14.5 23t20.5 27.5 t29.5 38.5t34.5 45.5l172 217q-41 47 -172 219q-103 134 -103 155q0 9 8 16t17 7q8 0 54 -44t112 -109.5t98 -94.5l166 -149l-166 -150q-23 -21 -97 -90.5t-117.5 -108t-51.5 -38.5q-23 0 -23 22z" />
<glyph unicode="&#xbc;" horiz-adv-x="1536" d="M86 553v49q65 4 87 18t22 50v520q0 61 -19 61q-27 0 -86 -28v49l221 112l29 -8v-694q0 -41 26.5 -60.5t90.5 -19.5v-49h-371zM272 -29l928 1413h94l-921 -1413h-101zM836 184v101l415 544h97v-528h112v-117h-112v-184h-144v184h-368zM928 301h276v367z" />
<glyph unicode="&#xbd;" horiz-adv-x="1536" d="M74 553v49q65 4 86.5 18t21.5 50v520q0 61 -18 61q-27 0 -86 -28v49l221 112l29 -8v-694q0 -41 26 -60.5t90 -19.5v-49h-370zM197 -29l927 1413h95l-922 -1413h-100zM913 588q44 130 112.5 186.5t195.5 56.5q118 0 188 -62.5t70 -160.5q0 -76 -38.5 -144.5t-137.5 -164.5 l-173 -166h232q44 0 70.5 11.5t48.5 43.5l37 -14l-80 -174h-514v49l206 221q75 82 117.5 158.5t42.5 124.5q0 65 -42 110.5t-103 45.5q-110 0 -180 -152z" />
<glyph unicode="&#xbe;" horiz-adv-x="1536" d="M27 651q0 31 21 47.5t54 16.5q32 0 84 -39q33 -24 55 -32.5t50 -8.5q62 0 100.5 40.5t38.5 104.5q0 79 -48.5 123.5t-133.5 44.5q-9 0 -58 -6v59q106 36 150.5 76.5t44.5 96.5q0 46 -30.5 71t-84.5 25q-56 0 -95.5 -26t-80.5 -93l-51 39q56 104 119.5 149t156.5 45 q94 0 158 -49t64 -121q0 -106 -123 -167v-5q88 -22 133 -84t45 -141q0 -122 -107 -201t-276 -79q-82 0 -134 32t-52 82zM283 -29l927 1413h95l-922 -1413h-100zM846 184v101l416 544h96v-528h112v-117h-112v-184h-144v184h-368zM938 301h276v367z" />
<glyph unicode="&#xbf;" horiz-adv-x="909" d="M61 -129q0 91 42 170.5t173 245.5q58 72 86.5 140.5t47.5 174.5h34q-1 -56 -7 -98.5t-33 -127.5t-78 -196q-76 -165 -76 -321q0 -102 65 -173t158 -71q74 0 133.5 39t59.5 88q0 22 -35 63q-43 49 -43 89q0 38 23 60.5t61 22.5q98 0 98 -127t-95.5 -211.5t-236.5 -84.5 q-85 0 -167 32t-136 86q-74 74 -74 199zM315 852q0 46 31 75t78 29q46 0 77 -30t31 -74q0 -47 -32 -80t-78 -33t-76.5 33t-30.5 80z" />
<glyph unicode="&#xc0;" horiz-adv-x="1478" d="M31 0v39q71 7 106 42q39 38 99 175q15 36 53 125l422 999h41l503 -1153q45 -105 81 -142t112 -46v-39h-522v39q53 0 72.5 3.5t39.5 14.5q12 6 20.5 20.5t8.5 28.5q0 55 -39 144l-84 192h-536l-95 -233q-18 -49 -18 -86q0 -46 34 -65t109 -19v-39h-407zM442 526h473 l-237 564zM465 1835q0 32 20 49t54 17q43 0 88 -48l297 -303h-82l-316 197q-61 39 -61 88z" />
<glyph unicode="&#xc1;" horiz-adv-x="1478" d="M31 0v39q71 7 106 42q39 38 99 175q15 36 53 125l422 999h41l503 -1153q45 -105 81 -142t112 -46v-39h-522v39q53 0 72.5 3.5t39.5 14.5q12 6 20.5 20.5t8.5 28.5q0 55 -39 144l-84 192h-536l-95 -233q-18 -49 -18 -86q0 -46 34 -65t109 -19v-39h-407zM442 526h473 l-237 564zM565 1550l301 303q28 28 45.5 38t40.5 10q34 0 53 -17.5t19 -48.5q0 -48 -61 -86l-316 -199h-82z" />
<glyph unicode="&#xc2;" horiz-adv-x="1478" d="M31 0v39q71 7 106 42q39 38 99 175q15 36 53 125l422 999h41l503 -1153q45 -105 81 -142t112 -46v-39h-522v39q53 0 72.5 3.5t39.5 14.5q12 6 20.5 20.5t8.5 28.5q0 55 -39 144l-84 192h-536l-95 -233q-18 -49 -18 -86q0 -46 34 -65t109 -19v-39h-407zM414 1550l254 342 h127l256 -342h-70l-250 211l-248 -211h-69zM442 526h473l-237 564z" />
<glyph unicode="&#xc3;" horiz-adv-x="1478" d="M31 0v39q71 7 106 42q39 38 99 175q15 36 53 125l422 999h41l503 -1153q45 -105 81 -142t112 -46v-39h-522v39q53 0 72.5 3.5t39.5 14.5q12 6 20.5 20.5t8.5 28.5q0 55 -39 144l-84 192h-536l-95 -233q-18 -49 -18 -86q0 -46 34 -65t109 -19v-39h-407zM397 1602 q23 100 76.5 153t130.5 53q73 0 144 -36l49 -25q60 -31 108 -31q35 0 59 22.5t50 80.5h59q-32 -117 -81.5 -167t-133.5 -50q-39 0 -71.5 9.5t-94.5 39.5l-47 22q-51 23 -84 23q-70 0 -104 -94h-60zM442 526h473l-237 564z" />
<glyph unicode="&#xc4;" horiz-adv-x="1478" d="M31 0v39q71 7 106 42q39 38 99 175q15 36 53 125l422 999h41l503 -1153q45 -105 81 -142t112 -46v-39h-522v39q53 0 72.5 3.5t39.5 14.5q12 6 20.5 20.5t8.5 28.5q0 55 -39 144l-84 192h-536l-95 -233q-18 -49 -18 -86q0 -46 34 -65t109 -19v-39h-407zM430 1686 q0 41 29.5 70.5t70.5 29.5t72 -31t31 -72t-31 -70.5t-74 -29.5q-41 0 -69.5 30t-28.5 73zM442 526h473l-237 564zM838 1686q0 41 29.5 70.5t70.5 29.5t71.5 -31t30.5 -72t-30.5 -70.5t-73.5 -29.5q-41 0 -69.5 30t-28.5 73z" />
<glyph unicode="&#xc5;" horiz-adv-x="1478" d="M31 0v39q71 7 106 42q39 38 99 175q15 36 53 125l422 999h41l503 -1153q45 -105 81 -142t112 -46v-39h-522v39q53 0 72.5 3.5t39.5 14.5q12 6 20.5 20.5t8.5 28.5q0 55 -39 144l-84 192h-536l-95 -233q-18 -49 -18 -86q0 -46 34 -65t109 -19v-39h-407zM442 526h473 l-237 564zM532 1765q0 85 60.5 144t146.5 59q82 0 141.5 -61t59.5 -144q0 -85 -60.5 -143.5t-146.5 -58.5q-85 0 -143 59t-58 145zM602 1765q0 -57 38.5 -96t92.5 -39q58 0 97.5 39t39.5 96q0 55 -40 94t-97 39q-53 0 -92 -39.5t-39 -93.5z" />
<glyph unicode="&#xc6;" horiz-adv-x="1820" d="M0 0v39q66 9 100 39t80 121l502 991q18 34 18 57q0 68 -184 68v41h1155v-289h-47q-7 49 -16 80.5t-27.5 57.5t-42.5 39.5t-67 23t-94 12t-130 2.5h-172q-57 0 -57 -76v-456h213q157 0 219.5 40t65.5 160h43v-481h-43q-13 120 -57.5 162.5t-151.5 42.5h-289v-481 q0 -28 1.5 -44t7 -30.5t13.5 -21.5t25.5 -12t39 -6t56.5 -1h150q120 0 186 20.5t115.5 75t105.5 170.5h49l-90 -344h-1042v39l35 4q93 10 119 46t26 140v303h-360q-189 -359 -189 -434q0 -22 35.5 -37.5t101.5 -21.5h3v-39h-406zM492 612h323v654z" />
<glyph unicode="&#xc7;" horiz-adv-x="1366" d="M57 674q0 191 73 340t212 248q174 122 399 122q161 0 301 -49q59 -18 82 -18q30 0 52.5 17.5t31.5 49.5h43l19 -462h-47q-23 160 -151.5 270.5t-289.5 110.5q-222 0 -354.5 -163t-132.5 -431q0 -151 35 -279.5t102 -208.5q66 -78 163 -119t208 -41q127 0 233 49t221 158 l39 -37q-88 -126 -235.5 -193t-323.5 -67q-31 0 -49 2l-41 -106q30 6 53 6q84 0 130.5 -37t46.5 -104q0 -80 -69 -126t-187 -46q-96 0 -172 32l28 64q76 -25 133 -25q52 0 82.5 24.5t30.5 65.5q0 40 -25 57t-84 17q-36 0 -57 -8l-14 10l75 183q-230 30 -380 186 q-181 190 -181 508z" />
<glyph unicode="&#xc8;" horiz-adv-x="1251" d="M25 0v39q63 4 95 11.5t52.5 30.5t25.5 55.5t5 96.5v893q0 80 -13 117t-49 53.5t-116 20.5v39h1085l8 -293h-51q-12 73 -28 112t-52.5 64t-88.5 32t-146 7h-269q-44 0 -57.5 -13t-13.5 -61v-450h309q90 0 134 16.5t64 55t33 124.5h47v-479h-47q-10 69 -21.5 104.5t-38 59 t-64 29.5t-107.5 6h-309v-498q0 -61 42.5 -78.5t163.5 -17.5h74q150 0 234.5 23t137.5 79t101 168h58l-95 -346h-1103zM365 1835q0 32 19.5 49t53.5 17q43 0 88 -48l297 -303h-82l-315 197q-61 39 -61 88z" />
<glyph unicode="&#xc9;" horiz-adv-x="1251" d="M25 0v39q63 4 95 11.5t52.5 30.5t25.5 55.5t5 96.5v893q0 80 -13 117t-49 53.5t-116 20.5v39h1085l8 -293h-51q-12 73 -28 112t-52.5 64t-88.5 32t-146 7h-269q-44 0 -57.5 -13t-13.5 -61v-450h309q90 0 134 16.5t64 55t33 124.5h47v-479h-47q-10 69 -21.5 104.5t-38 59 t-64 29.5t-107.5 6h-309v-498q0 -61 42.5 -78.5t163.5 -17.5h74q150 0 234.5 23t137.5 79t101 168h58l-95 -346h-1103zM502 1550l301 303q28 28 45.5 38t40.5 10q34 0 53 -17.5t19 -48.5q0 -47 -62 -86l-315 -199h-82z" />
<glyph unicode="&#xca;" horiz-adv-x="1251" d="M25 0v39q63 4 95 11.5t52.5 30.5t25.5 55.5t5 96.5v893q0 80 -13 117t-49 53.5t-116 20.5v39h1085l8 -293h-51q-12 73 -28 112t-52.5 64t-88.5 32t-146 7h-269q-44 0 -57.5 -13t-13.5 -61v-450h309q90 0 134 16.5t64 55t33 124.5h47v-479h-47q-10 69 -21.5 104.5t-38 59 t-64 29.5t-107.5 6h-309v-498q0 -61 42.5 -78.5t163.5 -17.5h74q150 0 234.5 23t137.5 79t101 168h58l-95 -346h-1103zM352 1550l254 342h127l256 -342h-69l-250 211l-248 -211h-70z" />
<glyph unicode="&#xcb;" horiz-adv-x="1251" d="M25 0v39q63 4 95 11.5t52.5 30.5t25.5 55.5t5 96.5v893q0 80 -13 117t-49 53.5t-116 20.5v39h1085l8 -293h-51q-12 73 -28 112t-52.5 64t-88.5 32t-146 7h-269q-44 0 -57.5 -13t-13.5 -61v-450h309q90 0 134 16.5t64 55t33 124.5h47v-479h-47q-10 69 -21.5 104.5t-38 59 t-64 29.5t-107.5 6h-309v-498q0 -61 42.5 -78.5t163.5 -17.5h74q150 0 234.5 23t137.5 79t101 168h58l-95 -346h-1103zM362 1686q0 41 30 70.5t71 29.5t71.5 -31t30.5 -72t-30.5 -70.5t-73.5 -29.5q-41 0 -70 30t-29 73zM770 1686q0 41 29.5 70.5t70.5 29.5t72 -31t31 -72 t-31 -70.5t-74 -29.5q-41 0 -69.5 30t-28.5 73z" />
<glyph unicode="&#xcc;" horiz-adv-x="681" d="M37 0v39q69 2 104.5 9t59 29t29.5 55.5t6 96.5v899q0 64 -5.5 97t-29.5 54t-58.5 27.5t-105.5 10.5v39h608v-39q-130 -6 -165.5 -39t-35.5 -150v-899q0 -48 5 -78.5t17 -53t36 -34t57 -17t86 -7.5v-39h-608zM92 1835q0 32 20 49t54 17q43 0 88 -48l297 -303h-82l-315 197 q-62 40 -62 88z" />
<glyph unicode="&#xcd;" horiz-adv-x="681" d="M37 0v39q69 2 104.5 9t59 29t29.5 55.5t6 96.5v899q0 64 -5.5 97t-29.5 54t-58.5 27.5t-105.5 10.5v39h608v-39q-130 -6 -165.5 -39t-35.5 -150v-899q0 -48 5 -78.5t17 -53t36 -34t57 -17t86 -7.5v-39h-608zM131 1550l301 303q28 28 45.5 38t40.5 10q34 0 53 -17.5 t19 -48.5q0 -47 -62 -86l-315 -199h-82z" />
<glyph unicode="&#xce;" horiz-adv-x="681" d="M20 0v39q69 2 104.5 9t59 29t29.5 55.5t6 96.5v899q0 64 -5.5 97t-29.5 54t-58.5 27.5t-105.5 10.5v39h609v-39q-130 -6 -165.5 -39t-35.5 -150v-899q0 -48 5 -78.5t17 -53t36 -34t57 -17t86 -7.5v-39h-609zM20 1550l254 342h127l256 -342h-69l-250 211l-248 -211h-70z " />
<glyph unicode="&#xcf;" horiz-adv-x="681" d="M35 0v39q69 2 104.5 9t58.5 29t29 55t6 97v899q0 65 -5.5 97.5t-29 53.5t-58 27.5t-105.5 10.5v39h608v-39q-130 -6 -165.5 -39t-35.5 -150v-899q0 -48 5 -78.5t17 -53t36 -34t57 -17t86 -7.5v-39h-608zM35 1686q0 41 29.5 70.5t70.5 29.5t72 -31t31 -72t-31 -70.5 t-74 -29.5q-41 0 -69.5 30t-28.5 73zM442 1686q0 41 30 70.5t71 29.5t71.5 -31t30.5 -72t-30.5 -70.5t-73.5 -29.5q-41 0 -70 30t-29 73z" />
<glyph unicode="&#xd0;" horiz-adv-x="1478" d="M33 0v39q116 7 148 40t32 144v422h-170v90h170v398q0 41 -1.5 65.5t-9.5 46t-18 32.5t-32.5 19.5t-48.5 12.5t-70 8v39h553q386 0 601.5 -177t215.5 -495q0 -156 -59 -291.5t-166 -224.5q-96 -78 -245.5 -123t-318.5 -45h-581zM422 160q0 -49 22 -66.5t82 -17.5 q256 0 404 84q250 145 250 510q0 167 -64 298.5t-186 213.5q-141 98 -408 98q-60 0 -80 -16.5t-20 -63.5v-465h299v-90h-299v-485z" />
<glyph unicode="&#xd1;" horiz-adv-x="1478" d="M25 0v39q54 6 85.5 14.5t56 24t35.5 46t16 72.5t5 111v901q-54 67 -90 88t-108 21v39h348l790 -989v696q0 157 -39 201q-24 27 -54 35.5t-107 17.5v39h485v-39q-61 -6 -88.5 -13t-46.5 -24q-32 -29 -46 -78.5t-14 -163.5v-1061h-36l-904 1125v-795q0 -66 5 -107t16 -71 t35 -47t54 -26.5t81 -16.5v-39h-479zM385 1602q23 100 76.5 153t130.5 53q72 0 143 -36l49 -25q60 -31 109 -31q35 0 58 22.5t50 80.5h60q-32 -117 -81.5 -167t-133.5 -50q-39 0 -71.5 9.5t-94.5 39.5l-47 22q-51 23 -84 23q-71 0 -105 -94h-59z" />
<glyph unicode="&#xd2;" horiz-adv-x="1478" d="M70 684q0 312 185 506t484 194q148 0 273.5 -53.5t212.5 -147t135.5 -224t48.5 -281.5q0 -315 -187 -511t-483 -196q-298 0 -483.5 197t-185.5 516zM303 680q0 -374 184 -543q102 -92 254 -92q161 0 265 98q170 164 170 547q0 174 -49.5 312t-137.5 212q-118 97 -252 97 q-174 0 -293 -137q-65 -74 -103 -209.5t-38 -284.5zM463 1835q0 32 20 49t54 17q43 0 88 -48l297 -303h-82l-316 197q-61 39 -61 88z" />
<glyph unicode="&#xd3;" horiz-adv-x="1478" d="M70 684q0 312 185 506t484 194q148 0 273.5 -53.5t212.5 -147t135.5 -224t48.5 -281.5q0 -315 -187 -511t-483 -196q-298 0 -483.5 197t-185.5 516zM303 680q0 -374 184 -543q102 -92 254 -92q161 0 265 98q170 164 170 547q0 174 -49.5 312t-137.5 212q-118 97 -252 97 q-174 0 -293 -137q-65 -74 -103 -209.5t-38 -284.5zM530 1550l301 303q28 28 46 38t41 10q34 0 52.5 -17.5t18.5 -48.5q0 -48 -61 -86l-316 -199h-82z" />
<glyph unicode="&#xd4;" horiz-adv-x="1478" d="M70 684q0 312 185 506t484 194q148 0 273.5 -53.5t212.5 -147t135.5 -224t48.5 -281.5q0 -315 -187 -511t-483 -196q-298 0 -483.5 197t-185.5 516zM303 680q0 -374 184 -543q102 -92 254 -92q161 0 265 98q170 164 170 547q0 174 -49.5 312t-137.5 212q-118 97 -252 97 q-174 0 -293 -137q-65 -74 -103 -209.5t-38 -284.5zM408 1550l254 342h126l256 -342h-69l-250 211l-248 -211h-69z" />
<glyph unicode="&#xd5;" horiz-adv-x="1478" d="M70 684q0 312 185 506t484 194q148 0 273.5 -53.5t212.5 -147t135.5 -224t48.5 -281.5q0 -315 -187 -511t-483 -196q-298 0 -483.5 197t-185.5 516zM303 680q0 -374 184 -543q102 -92 254 -92q161 0 265 98q170 164 170 547q0 174 -49.5 312t-137.5 212q-118 97 -252 97 q-174 0 -293 -137q-65 -74 -103 -209.5t-38 -284.5zM385 1602q23 100 76.5 153t130.5 53q72 0 143 -36l49 -25q60 -31 109 -31q35 0 58 22.5t50 80.5h60q-32 -117 -81.5 -167t-133.5 -50q-39 0 -71.5 9.5t-94.5 39.5l-47 22q-51 23 -84 23q-71 0 -105 -94h-59z" />
<glyph unicode="&#xd6;" horiz-adv-x="1478" d="M70 684q0 312 185 506t484 194q148 0 273.5 -53.5t212.5 -147t135.5 -224t48.5 -281.5q0 -315 -187 -511t-483 -196q-298 0 -483.5 197t-185.5 516zM303 680q0 -374 184 -543q102 -92 254 -92q161 0 265 98q170 164 170 547q0 174 -49.5 312t-137.5 212q-118 97 -252 97 q-174 0 -293 -137q-65 -74 -103 -209.5t-38 -284.5zM420 1686q0 41 29.5 70.5t70.5 29.5t72 -31t31 -72t-31 -70.5t-74 -29.5q-41 0 -69.5 30t-28.5 73zM827 1686q0 41 30 70.5t71 29.5t71.5 -31t30.5 -72t-30.5 -70.5t-73.5 -29.5q-41 0 -70 30t-29 73z" />
<glyph unicode="&#xd7;" horiz-adv-x="1310" d="M88 43l471 473l-471 473l96 94l471 -471l473 471l95 -92l-471 -475l471 -471l-95 -96l-473 471l-473 -471z" />
<glyph unicode="&#xd8;" horiz-adv-x="1478" d="M70 676q0 206 85 367.5t238 251t348 89.5q101 0 181 -22t178 -78l147 219h101l-181 -266q68 -64 101.5 -105t60.5 -98q80 -167 80 -354q0 -315 -187.5 -512t-486.5 -197q-103 0 -183 23t-175 80l-162 -238h-100l194 285q-68 62 -101 103.5t-61 99.5q-77 157 -77 352z M303 676q0 -136 21 -231t73 -193l631 926q-68 71 -135.5 102t-153.5 31q-201 0 -318.5 -171t-117.5 -464zM449 180q66 -72 133.5 -103.5t156.5 -31.5q203 0 320 169t117 462q0 136 -22 233t-75 197z" />
<glyph unicode="&#xd9;" horiz-adv-x="1478" d="M29 1317v39h579v-39q-65 -6 -99 -14t-55 -30.5t-26.5 -54.5t-5.5 -94v-639q0 -134 16.5 -204.5t73.5 -126.5q96 -93 262 -93q98 0 179.5 32t131.5 89q48 58 62 126.5t14 203.5v539q0 84 -6 130t-28 77.5t-57.5 43t-100.5 15.5v39h475v-39q-66 -6 -103 -19t-58 -45 t-26.5 -74.5t-5.5 -121.5v-522q0 -159 -22 -249.5t-88 -164.5q-132 -150 -414 -150q-221 0 -348 95q-166 123 -166 444v635q0 55 -5.5 83.5t-26.5 49t-54.5 27.5t-97.5 12zM469 1835q0 32 20 49t54 17q43 0 88 -48l297 -303h-82l-316 197q-61 39 -61 88z" />
<glyph unicode="&#xda;" horiz-adv-x="1478" d="M29 1317v39h579v-39q-65 -6 -99 -14t-55 -30.5t-26.5 -54.5t-5.5 -94v-639q0 -134 16.5 -204.5t73.5 -126.5q96 -93 262 -93q98 0 179.5 32t131.5 89q48 58 62 126.5t14 203.5v539q0 84 -6 130t-28 77.5t-57.5 43t-100.5 15.5v39h475v-39q-66 -6 -103 -19t-58 -45 t-26.5 -74.5t-5.5 -121.5v-522q0 -159 -22 -249.5t-88 -164.5q-132 -150 -414 -150q-221 0 -348 95q-166 123 -166 444v635q0 55 -5.5 83.5t-26.5 49t-54.5 27.5t-97.5 12zM541 1550l301 303q28 28 45.5 38t40.5 10q34 0 52.5 -17.5t18.5 -48.5q0 -48 -61 -86l-315 -199h-82 z" />
<glyph unicode="&#xdb;" horiz-adv-x="1478" d="M29 1317v39h579v-39q-65 -6 -99 -14t-55 -30.5t-26.5 -54.5t-5.5 -94v-639q0 -134 16.5 -204.5t73.5 -126.5q96 -93 262 -93q98 0 179.5 32t131.5 89q48 58 62 126.5t14 203.5v539q0 84 -6 130t-28 77.5t-57.5 43t-100.5 15.5v39h475v-39q-66 -6 -103 -19t-58 -45 t-26.5 -74.5t-5.5 -121.5v-522q0 -159 -22 -249.5t-88 -164.5q-132 -150 -414 -150q-221 0 -348 95q-166 123 -166 444v635q0 55 -5.5 83.5t-26.5 49t-54.5 27.5t-97.5 12zM410 1550l254 342h127l256 -342h-70l-250 211l-248 -211h-69z" />
<glyph unicode="&#xdc;" horiz-adv-x="1478" d="M29 1317v39h579v-39q-65 -6 -99 -14t-55 -30.5t-26.5 -54.5t-5.5 -94v-639q0 -134 16.5 -204.5t73.5 -126.5q96 -93 262 -93q98 0 179.5 32t131.5 89q48 58 62 126.5t14 203.5v539q0 84 -6 130t-28 77.5t-57.5 43t-100.5 15.5v39h475v-39q-66 -6 -103 -19t-58 -45 t-26.5 -74.5t-5.5 -121.5v-522q0 -159 -22 -249.5t-88 -164.5q-132 -150 -414 -150q-221 0 -348 95q-166 123 -166 444v635q0 55 -5.5 83.5t-26.5 49t-54.5 27.5t-97.5 12zM420 1686q0 41 29.5 70.5t70.5 29.5t72 -31t31 -72t-31 -70.5t-74 -29.5q-41 0 -69.5 30t-28.5 73z M827 1686q0 41 30 70.5t71 29.5t71.5 -31t30.5 -72t-30.5 -70.5t-73.5 -29.5q-41 0 -70 30t-29 73z" />
<glyph unicode="&#xdd;" horiz-adv-x="1478" d="M45 1317v39h571v-39l-49 -2q-96 -3 -96 -53q0 -44 37 -97l299 -452l297 454q29 45 29 86q-2 34 -32 48.5t-108 15.5v39h447v-39q-89 -7 -142 -51t-141 -179l-303 -466v-394q0 -41 3.5 -69t13.5 -49t23.5 -33t39.5 -20t55 -11.5t76 -5.5v-39h-627v39q50 3 79 7t55 13.5 t38 22t21 37.5t11.5 55t2.5 78v350l-268 393q-97 143 -150 207.5t-91.5 88.5t-90.5 26zM545 1550l301 303q28 28 45.5 38t40.5 10q34 0 53 -17.5t19 -48.5q0 -47 -62 -86l-315 -199h-82z" />
<glyph unicode="&#xde;" horiz-adv-x="1138" d="M33 0v39q63 6 93.5 13.5t50.5 31.5t24 58t4 104v887q0 110 -29 141t-143 43v39h567v-39q-67 -6 -101 -14.5t-55 -35t-26 -64.5t-4 -113h164q246 0 389 -100t143 -271q0 -101 -53 -188.5t-144 -137.5q-124 -69 -358 -69q-59 0 -141 6v-107q0 -59 6.5 -91.5t29 -54 t57.5 -29t99 -9.5v-39h-573zM414 412q68 -6 116 -6q357 0 357 301q0 159 -97.5 232t-310.5 73q-39 0 -52 -14t-13 -54v-532z" />
<glyph unicode="&#xdf;" horiz-adv-x="1024" d="M25 0v31q78 6 101.5 32.5t23.5 108.5v758q0 238 89 353.5t275 115.5q160 0 254 -84.5t94 -227.5q0 -110 -58 -175t-222 -140q96 -19 148 -40.5t101 -63.5q127 -108 127 -287q0 -169 -105.5 -284t-260.5 -115q-88 0 -143.5 41.5t-55.5 107.5q0 42 26 70t66 28 q34 0 58.5 -23.5t27.5 -58.5l4 -45q3 -33 17 -47t43 -14q57 0 82 37q20 28 34.5 94t14.5 135q0 415 -270 424q-66 3 -66 35q0 26 59 31q100 10 147.5 74t47.5 186q0 135 -49 210.5t-137 75.5q-82 0 -129 -59t-47 -160v-1124h-297z" />
<glyph unicode="&#xe0;" horiz-adv-x="909" d="M76 193q0 144 143 239q95 64 369 166v111q0 92 -43.5 138t-116.5 46q-61 0 -102 -29t-41 -71q0 -18 6 -41t6 -45q0 -31 -28 -57.5t-66 -26.5q-34 0 -61 27t-27 67q0 43 26.5 87.5t77.5 76.5q94 61 236 61q165 0 241 -92q36 -44 47 -88t11 -139v-392q0 -135 63 -135 q41 0 88 39v-57q-44 -56 -86 -77t-98 -21q-59 0 -91.5 35t-39.5 114h-2q-132 -149 -297 -149q-97 0 -156 56.5t-59 156.5zM190 1323q0 32 20 49t54 17q43 0 88 -48l297 -303h-82l-315 197q-62 40 -62 88zM256 256q0 -78 39 -118t102 -40q69 0 119 33q43 30 57.5 57t14.5 72 v289q-188 -66 -262 -135q-70 -64 -70 -158z" />
<glyph unicode="&#xe1;" horiz-adv-x="909" d="M76 193q0 144 143 239q95 64 369 166v111q0 92 -43.5 138t-116.5 46q-61 0 -102 -29t-41 -71q0 -18 6 -41t6 -45q0 -31 -28 -57.5t-66 -26.5q-34 0 -61 27t-27 67q0 43 26.5 87.5t77.5 76.5q94 61 236 61q165 0 241 -92q36 -44 47 -88t11 -139v-392q0 -135 63 -135 q41 0 88 39v-57q-44 -56 -86 -77t-98 -21q-59 0 -91.5 35t-39.5 114h-2q-132 -149 -297 -149q-97 0 -156 56.5t-59 156.5zM244 1038l301 303q28 28 45.5 38t40.5 10q34 0 52.5 -17.5t18.5 -48.5q0 -48 -61 -86l-315 -199h-82zM256 256q0 -78 39 -118t102 -40q69 0 119 33 q43 30 57.5 57t14.5 72v289q-188 -66 -262 -135q-70 -64 -70 -158z" />
<glyph unicode="&#xe2;" horiz-adv-x="909" d="M76 193q0 144 143 239q95 64 369 166v111q0 92 -43.5 138t-116.5 46q-61 0 -102 -29t-41 -71q0 -18 6 -41t6 -45q0 -31 -28 -57.5t-66 -26.5q-34 0 -61 27t-27 67q0 43 26.5 87.5t77.5 76.5q94 61 236 61q165 0 241 -92q36 -44 47 -88t11 -139v-392q0 -135 63 -135 q41 0 88 39v-57q-44 -56 -86 -77t-98 -21q-59 0 -91.5 35t-39.5 114h-2q-132 -149 -297 -149q-97 0 -156 56.5t-59 156.5zM143 1038l254 342h127l256 -342h-69l-250 211l-248 -211h-70zM256 256q0 -78 39 -118t102 -40q69 0 119 33q43 30 57.5 57t14.5 72v289 q-188 -66 -262 -135q-70 -64 -70 -158z" />
<glyph unicode="&#xe3;" horiz-adv-x="909" d="M76 193q0 144 143 239q95 64 369 166v111q0 92 -43.5 138t-116.5 46q-61 0 -102 -29t-41 -71q0 -18 6 -41t6 -45q0 -31 -28 -57.5t-66 -26.5q-34 0 -61 27t-27 67q0 43 26.5 87.5t77.5 76.5q94 61 236 61q165 0 241 -92q36 -44 47 -88t11 -139v-392q0 -135 63 -135 q41 0 88 39v-57q-44 -56 -86 -77t-98 -21q-59 0 -91.5 35t-39.5 114h-2q-132 -149 -297 -149q-97 0 -156 56.5t-59 156.5zM121 1090q23 100 76.5 153t130.5 53q72 0 143 -36l49 -25q60 -31 109 -31q35 0 58 22.5t50 80.5h60q-32 -117 -81.5 -167t-133.5 -50q-39 0 -71.5 9.5 t-94.5 39.5l-47 22q-51 23 -84 23q-71 0 -105 -94h-59zM256 256q0 -78 39 -118t102 -40q69 0 119 33q43 30 57.5 57t14.5 72v289q-188 -66 -262 -135q-70 -64 -70 -158z" />
<glyph unicode="&#xe4;" horiz-adv-x="909" d="M76 193q0 144 143 239q95 64 369 166v111q0 92 -43.5 138t-116.5 46q-61 0 -102 -29t-41 -71q0 -18 6 -41t6 -45q0 -31 -28 -57.5t-66 -26.5q-34 0 -61 27t-27 67q0 43 26.5 87.5t77.5 76.5q94 61 236 61q165 0 241 -92q36 -44 47 -88t11 -139v-392q0 -135 63 -135 q41 0 88 39v-57q-44 -56 -86 -77t-98 -21q-59 0 -91.5 35t-39.5 114h-2q-132 -149 -297 -149q-97 0 -156 56.5t-59 156.5zM154 1174q0 41 29.5 70.5t70.5 29.5t71.5 -31t30.5 -72t-30.5 -70.5t-73.5 -29.5q-41 0 -69.5 30t-28.5 73zM256 256q0 -78 39 -118t102 -40 q69 0 119 33q43 30 57.5 57t14.5 72v289q-188 -66 -262 -135q-70 -64 -70 -158zM561 1174q0 41 30 70.5t71 29.5t71.5 -31t30.5 -72t-31 -70.5t-74 -29.5q-41 0 -69.5 30t-28.5 73z" />
<glyph unicode="&#xe5;" horiz-adv-x="909" d="M76 193q0 144 143 239q95 64 369 166v111q0 92 -43.5 138t-116.5 46q-61 0 -102 -29t-41 -71q0 -18 6 -41t6 -45q0 -31 -28 -57.5t-66 -26.5q-34 0 -61 27t-27 67q0 43 26.5 87.5t77.5 76.5q94 61 236 61q165 0 241 -92q36 -44 47 -88t11 -139v-392q0 -135 63 -135 q41 0 88 39v-57q-44 -56 -86 -77t-98 -21q-59 0 -91.5 35t-39.5 114h-2q-132 -149 -297 -149q-97 0 -156 56.5t-59 156.5zM256 256q0 -78 39 -118t102 -40q69 0 119 33q43 30 57.5 57t14.5 72v289q-188 -66 -262 -135q-70 -64 -70 -158zM256 1257q0 85 60.5 144t146.5 59 q82 0 141.5 -61t59.5 -144q0 -85 -60.5 -143.5t-146.5 -58.5q-85 0 -143 59t-58 145zM326 1257q0 -57 38.5 -96t92.5 -39q58 0 97.5 39t39.5 96q0 56 -40 95t-97 39q-53 0 -92 -40t-39 -94z" />
<glyph unicode="&#xe6;" horiz-adv-x="1366" d="M78 205q0 43 3 73t15.5 67.5t35.5 63.5t64.5 51t100.5 42l264 73v130q0 100 -27.5 142t-97.5 42q-58 0 -98.5 -25.5t-40.5 -60.5q0 -15 3 -40t3 -46q0 -43 -24.5 -68.5t-65.5 -25.5t-65.5 26t-24.5 72q0 94 94 157.5t232 63.5q76 0 129 -21.5t112 -74.5q70 55 121.5 75.5 t122.5 20.5q157 0 234 -88.5t94 -286.5h-537q1 -154 12 -221t43 -127q26 -46 79 -74t116 -28q88 0 155 44.5t140 153.5l24 -10q-45 -96 -79.5 -147.5t-81.5 -89.5q-100 -82 -242 -82q-89 0 -150.5 32.5t-113.5 110.5q-101 -85 -166.5 -114t-145.5 -29q-105 0 -171 60 t-66 159zM256 256q0 -77 34 -127.5t101 -50.5q57 0 133 37t76 65q0 1 -1 3t-1 3q-37 118 -37 226v106q-186 -67 -245.5 -118.5t-59.5 -143.5zM727 629h340q-3 134 -40.5 192t-121.5 58q-88 0 -129.5 -57.5t-48.5 -192.5z" />
<glyph unicode="&#xe7;" horiz-adv-x="909" d="M51 434q0 264 172 404q125 104 277 104q129 0 222 -62.5t93 -148.5q0 -35 -28 -60.5t-68 -25.5q-34 0 -60 25t-38 69l-13 45q-15 57 -40.5 78t-80.5 21q-124 0 -201 -98.5t-77 -258.5q0 -177 88 -288t229 -111q88 0 152 42.5t137 149.5l29 -18q-80 -161 -168.5 -236 t-212.5 -85l-43 -113q30 6 53 6q83 0 129.5 -37t46.5 -104q0 -80 -69 -126t-187 -46q-96 0 -172 32l29 64q76 -25 133 -25q52 0 82.5 24.5t30.5 65.5q0 40 -25 57t-84 17q-36 0 -57 -8l-15 10l78 187q-155 20 -248.5 143.5t-93.5 306.5z" />
<glyph unicode="&#xe8;" horiz-adv-x="909" d="M51 444q0 219 116.5 358.5t307.5 139.5q184 0 285 -141q58 -81 69 -234h-630q8 -130 25 -198t69 -136q84 -112 227 -112q100 0 169.5 49t146.5 166l32 -14q-123 -342 -428 -342q-181 0 -285 125.5t-104 338.5zM176 1323q0 32 20 49t54 17q43 0 88 -48l297 -303h-82 l-315 197q-62 40 -62 88zM203 633h418q-18 129 -60.5 182t-140.5 53q-87 0 -143.5 -60t-73.5 -175z" />
<glyph unicode="&#xe9;" horiz-adv-x="909" d="M51 444q0 219 116.5 358.5t307.5 139.5q184 0 285 -141q58 -81 69 -234h-630q8 -130 25 -198t69 -136q84 -112 227 -112q100 0 169.5 49t146.5 166l32 -14q-123 -342 -428 -342q-181 0 -285 125.5t-104 338.5zM203 633h418q-18 129 -60.5 182t-140.5 53q-87 0 -143.5 -60 t-73.5 -175zM238 1038l301 303q28 28 45.5 38t40.5 10q34 0 52.5 -17.5t18.5 -48.5q0 -48 -61 -86l-316 -199h-81z" />
<glyph unicode="&#xea;" horiz-adv-x="909" d="M51 444q0 219 116.5 358.5t307.5 139.5q184 0 285 -141q58 -81 69 -234h-630q8 -130 25 -198t69 -136q84 -112 227 -112q100 0 169.5 49t146.5 166l32 -14q-123 -342 -428 -342q-181 0 -285 125.5t-104 338.5zM141 1038l254 342h127l256 -342h-69l-250 211l-248 -211h-70 zM203 633h418q-18 129 -60.5 182t-140.5 53q-87 0 -143.5 -60t-73.5 -175z" />
<glyph unicode="&#xeb;" horiz-adv-x="909" d="M51 444q0 219 116.5 358.5t307.5 139.5q184 0 285 -141q58 -81 69 -234h-630q8 -130 25 -198t69 -136q84 -112 227 -112q100 0 169.5 49t146.5 166l32 -14q-123 -342 -428 -342q-181 0 -285 125.5t-104 338.5zM152 1174q0 41 29.5 70.5t70.5 29.5t71.5 -31t30.5 -72 t-30.5 -70.5t-73.5 -29.5q-41 0 -69.5 30t-28.5 73zM203 633h418q-18 129 -60.5 182t-140.5 53q-87 0 -143.5 -60t-73.5 -175zM559 1174q0 41 29.5 70.5t70.5 29.5t72 -31t31 -72t-31 -70.5t-74 -29.5q-41 0 -69.5 30t-28.5 73z" />
<glyph unicode="&#xec;" horiz-adv-x="569" d="M12 0v31q57 3 85.5 9t48 27t24 52.5t4.5 93.5v465q0 72 -15 100.5t-53 28.5q-49 0 -86 -10v32l316 113l10 -8v-719q0 -114 25.5 -145.5t126.5 -38.5v-31h-486zM12 1323q0 32 20 49t54 17q43 0 88 -48l297 -303h-82l-315 197q-62 40 -62 88z" />
<glyph unicode="&#xed;" horiz-adv-x="569" d="M33 0v31q57 3 85.5 9t48 27t24 52.5t4.5 93.5v465q0 72 -15 100.5t-53 28.5q-49 0 -86 -10v32l315 113l11 -8v-719q0 -115 25 -146t126 -38v-31h-485zM100 1038l301 303q28 28 45.5 38t40.5 10q34 0 53 -17.5t19 -48.5q0 -48 -61 -86l-316 -199h-82z" />
<glyph unicode="&#xee;" horiz-adv-x="569" d="M-35 0v31q57 3 85.5 9t48 27t24 52.5t4.5 93.5v465q0 72 -15 100.5t-53 28.5q-49 0 -86 -10v32l316 113l10 -8v-719q0 -114 25.5 -145.5t126.5 -38.5v-31h-486zM-35 1038l254 342h127l256 -342h-70l-249 211l-248 -211h-70z" />
<glyph unicode="&#xef;" horiz-adv-x="569" d="M-20 0v31q57 3 85 9t47.5 27t24 52.5t4.5 93.5v465q0 72 -14.5 100.5t-52.5 28.5q-49 0 -86 -10v32l315 113l10 -8v-719q0 -114 25.5 -145.5t126.5 -38.5v-31h-485zM-20 1174q0 41 29.5 70.5t70.5 29.5t71.5 -31t30.5 -72t-30.5 -70.5t-73.5 -29.5q-41 0 -69.5 30 t-28.5 73zM387 1174q0 41 29.5 70.5t70.5 29.5t72 -31t31 -72t-31 -70.5t-74 -29.5q-41 0 -69.5 30t-28.5 73z" />
<glyph unicode="&#xf0;" horiz-adv-x="1024" d="M59 444q0 142 60 257t161.5 178t223.5 63q74 0 124.5 -25t123.5 -98q-22 114 -66.5 195.5t-132.5 163.5l-252 -134l-68 62l248 131q-61 51 -121.5 74.5t-152.5 38.5l86 49q103 -6 177 -28.5t136 -67.5l195 102l67 -62l-186 -98q143 -121 213 -291t70 -370 q0 -231 -109 -406q-63 -99 -148.5 -148.5t-205.5 -49.5q-195 0 -319 126t-124 338zM244 575q0 -65 9.5 -135t32 -143t55 -130t84 -93.5t114.5 -36.5q108 0 174.5 101.5t66.5 275.5q0 211 -82.5 341t-216.5 130q-103 0 -170 -89.5t-67 -220.5z" />
<glyph unicode="&#xf1;" horiz-adv-x="1024" d="M33 815v35q149 43 280 92l17 -6v-160h2q145 166 295 166q117 0 179 -81.5t62 -233.5v-453q0 -82 24.5 -108.5t100.5 -34.5v-31h-426l2 31q76 6 101.5 44t25.5 140v408q0 107 -36.5 156.5t-112.5 49.5q-52 0 -97 -24t-114 -92v-566q0 -61 28 -85.5t105 -30.5v-31h-432v31 q77 6 102 38t25 124v497q0 76 -15 104.5t-57 28.5q-40 0 -59 -8zM186 1090q23 100 76.5 153t130.5 53q73 0 144 -36l49 -25q60 -31 108 -31q35 0 59 22.5t50 80.5h59q-32 -117 -81.5 -167t-133.5 -50q-39 0 -71.5 9.5t-94.5 39.5l-47 22q-51 23 -84 23q-70 0 -104 -94h-60z " />
<glyph unicode="&#xf2;" horiz-adv-x="1024" d="M59 467q0 214 127 344.5t334 130.5q191 0 317 -130t126 -339q0 -216 -128 -354.5t-333 -138.5q-188 0 -315.5 137.5t-127.5 349.5zM221 1323q0 32 20 49t54 17q43 0 88 -48l297 -303h-82l-315 197q-62 40 -62 88zM244 559q0 -262 108 -420q70 -102 185 -102 q114 0 177.5 101t63.5 280q0 107 -26.5 204.5t-75.5 159.5q-83 103 -195 103q-107 0 -172 -87t-65 -239z" />
<glyph unicode="&#xf3;" horiz-adv-x="1024" d="M59 467q0 214 127 344.5t334 130.5q191 0 317 -130t126 -339q0 -216 -128 -354.5t-333 -138.5q-188 0 -315.5 137.5t-127.5 349.5zM244 559q0 -262 108 -420q70 -102 185 -102q114 0 177.5 101t63.5 280q0 107 -26.5 204.5t-75.5 159.5q-83 103 -195 103q-107 0 -172 -87 t-65 -239zM315 1038l301 303q28 28 45.5 38t40.5 10q34 0 53 -17.5t19 -48.5q0 -48 -61 -86l-316 -199h-82z" />
<glyph unicode="&#xf4;" horiz-adv-x="1024" d="M59 467q0 214 127 344.5t334 130.5q191 0 317 -130t126 -339q0 -216 -128 -354.5t-333 -138.5q-188 0 -315.5 137.5t-127.5 349.5zM184 1038l254 342h127l256 -342h-69l-250 211l-248 -211h-70zM244 559q0 -262 108 -420q70 -102 185 -102q114 0 177.5 101t63.5 280 q0 107 -26.5 204.5t-75.5 159.5q-83 103 -195 103q-107 0 -172 -87t-65 -239z" />
<glyph unicode="&#xf5;" horiz-adv-x="1024" d="M59 467q0 214 127 344.5t334 130.5q191 0 317 -130t126 -339q0 -216 -128 -354.5t-333 -138.5q-188 0 -315.5 137.5t-127.5 349.5zM164 1090q23 100 76.5 153t130.5 53q72 0 143 -36l49 -25q60 -31 109 -31q35 0 58 22.5t50 80.5h60q-32 -117 -81.5 -167t-133.5 -50 q-39 0 -71.5 9.5t-94.5 39.5l-47 22q-51 23 -84 23q-71 0 -105 -94h-59zM244 559q0 -262 108 -420q70 -102 185 -102q114 0 177.5 101t63.5 280q0 107 -26.5 204.5t-75.5 159.5q-83 103 -195 103q-107 0 -172 -87t-65 -239z" />
<glyph unicode="&#xf6;" horiz-adv-x="1024" d="M59 467q0 214 127 344.5t334 130.5q191 0 317 -130t126 -339q0 -216 -128 -354.5t-333 -138.5q-188 0 -315.5 137.5t-127.5 349.5zM197 1174q0 41 29.5 70.5t70.5 29.5t71.5 -31t30.5 -72t-30.5 -70.5t-73.5 -29.5q-41 0 -69.5 30t-28.5 73zM244 559q0 -262 108 -420 q70 -102 185 -102q114 0 177.5 101t63.5 280q0 107 -26.5 204.5t-75.5 159.5q-83 103 -195 103q-107 0 -172 -87t-65 -239zM604 1174q0 41 30 70.5t71 29.5t71.5 -31t30.5 -72t-31 -70.5t-74 -29.5q-41 0 -69.5 30t-28.5 73z" />
<glyph unicode="&#xf7;" horiz-adv-x="1155" d="M61 451v135h1033v-135h-1033zM465 92q0 47 34 81t81 34q44 0 78 -35.5t34 -81.5q0 -44 -34 -77t-80 -33q-47 0 -80 32.5t-33 79.5zM465 942q0 47 34 81t81 34q44 0 78 -35.5t34 -81.5q0 -44 -34 -77.5t-80 -33.5q-47 0 -80 33t-33 80z" />
<glyph unicode="&#xf8;" horiz-adv-x="1024" d="M59 465q0 209 126.5 343t324.5 134q89 0 188 -37l117 223h80l-133 -256q201 -138 201 -393q0 -214 -131 -356.5t-326 -142.5q-97 0 -191 43l-133 -252h-76l150 286q-54 43 -80.5 73.5t-52.5 76.5q-64 119 -64 258zM244 567q0 -206 80 -379l325 623q-41 40 -79 57t-85 17 q-109 0 -175 -87.5t-66 -230.5zM367 123q39 -46 77.5 -66t90.5 -20q115 0 179 99.5t64 279.5q0 98 -18.5 173.5t-63.5 160.5z" />
<glyph unicode="&#xf9;" horiz-adv-x="1024" d="M18 893v29h299v-662q0 -70 42.5 -116t103.5 -46q99 0 172 64q27 24 37 46t10 73v473q0 80 -28.5 103.5t-123.5 29.5v35h324v-703q0 -71 23 -94t94 -23h12v-28q-170 -47 -281 -92l-10 6v168h-4q-47 -64 -103.5 -105.5t-102 -56t-87.5 -14.5q-117 0 -183.5 71t-66.5 191 v514q0 76 -26.5 104t-100.5 33zM236 1323q0 32 19.5 49t53.5 17q43 0 88 -48l297 -303h-82l-315 197q-61 39 -61 88z" />
<glyph unicode="&#xfa;" horiz-adv-x="1024" d="M18 893v29h299v-662q0 -70 42.5 -116t103.5 -46q99 0 172 64q27 24 37 46t10 73v473q0 80 -28.5 103.5t-123.5 29.5v35h324v-703q0 -71 23 -94t94 -23h12v-28q-170 -47 -281 -92l-10 6v168h-4q-47 -64 -103.5 -105.5t-102 -56t-87.5 -14.5q-117 0 -183.5 71t-66.5 191 v514q0 76 -26.5 104t-100.5 33zM319 1038l302 303q28 28 45.5 38t40.5 10q34 0 52.5 -17.5t18.5 -48.5q0 -48 -61 -86l-316 -199h-82z" />
<glyph unicode="&#xfb;" horiz-adv-x="1024" d="M18 893v29h299v-662q0 -70 42.5 -116t103.5 -46q99 0 172 64q27 24 37 46t10 73v473q0 80 -28.5 103.5t-123.5 29.5v35h324v-703q0 -71 23 -94t94 -23h12v-28q-170 -47 -281 -92l-10 6v168h-4q-47 -64 -103.5 -105.5t-102 -56t-87.5 -14.5q-117 0 -183.5 71t-66.5 191 v514q0 76 -26.5 104t-100.5 33zM184 1038l254 342h127l256 -342h-69l-250 211l-248 -211h-70z" />
<glyph unicode="&#xfc;" horiz-adv-x="1024" d="M18 893v29h299v-662q0 -70 42.5 -116t103.5 -46q99 0 172 64q27 24 37 46t10 73v473q0 80 -28.5 103.5t-123.5 29.5v35h324v-703q0 -71 23 -94t94 -23h12v-28q-170 -47 -281 -92l-10 6v168h-4q-47 -64 -103.5 -105.5t-102 -56t-87.5 -14.5q-117 0 -183.5 71t-66.5 191 v514q0 76 -26.5 104t-100.5 33zM195 1174q0 41 29.5 70.5t70.5 29.5t71.5 -31t30.5 -72t-30.5 -70.5t-73.5 -29.5q-41 0 -69.5 30t-28.5 73zM602 1174q0 41 29.5 70.5t70.5 29.5t72 -31t31 -72t-31 -70.5t-74 -29.5q-41 0 -69.5 30t-28.5 73z" />
<glyph unicode="&#xfd;" horiz-adv-x="1024" d="M29 893v29h420v-31q-66 -3 -91.5 -15t-25.5 -40q0 -21 26 -84l230 -512l198 565q9 21 9 37q0 49 -95 49v31h273v-31q-37 -5 -59.5 -27t-43.5 -78l-307 -837q-79 -218 -160 -306.5t-198 -88.5q-65 0 -104.5 33t-39.5 85q0 38 26 66.5t63 28.5q56 0 106 -27q27 -14 53 -14 q42 0 103 90q29 41 55.5 117t26.5 104q0 6 -2.5 16t-8 25t-10.5 27t-15 34t-15.5 33t-18 37t-16.5 35l-271 577q-27 60 -108 72zM293 1038l301 303q28 28 45.5 38t40.5 10q34 0 53 -17.5t19 -48.5q0 -47 -62 -86l-315 -199h-82z" />
<glyph unicode="&#xfe;" horiz-adv-x="1024" d="M10 -408q89 7 116.5 36t27.5 110v1425q0 67 -20 91t-81 24q-15 0 -35 -4v35q191 53 295 90l13 -8v-613q121 164 295 164q161 0 251.5 -116.5t90.5 -319.5q0 -146 -56.5 -267t-155.5 -190t-219 -69q-64 0 -107 18.5t-99 69.5v-316q0 -52 5.5 -80t25 -47.5t52.5 -25.5 t93 -7v-36h-492v36zM326 184q0 -46 70 -92.5t141 -46.5q115 0 182 109.5t67 281.5q0 383 -251 383q-65 0 -137 -47t-72 -92v-496z" />
<glyph unicode="&#xff;" horiz-adv-x="1024" d="M29 893v29h420v-31q-66 -3 -91.5 -15t-25.5 -40q0 -21 26 -84l230 -512l198 565q9 21 9 37q0 49 -95 49v31h273v-31q-37 -5 -59.5 -27t-43.5 -78l-307 -837q-79 -218 -160 -306.5t-198 -88.5q-65 0 -104.5 33t-39.5 85q0 38 26 66.5t63 28.5q56 0 106 -27q27 -14 53 -14 q42 0 103 90q29 41 55.5 117t26.5 104q0 6 -2.5 16t-8 25t-10.5 27t-15 34t-15.5 33t-18 37t-16.5 35l-271 577q-27 60 -108 72zM201 1174q0 41 29.5 70.5t70.5 29.5t71.5 -31t30.5 -72t-30.5 -70.5t-73.5 -29.5q-41 0 -69.5 30t-28.5 73zM608 1174q0 41 30 70.5t71 29.5 t71.5 -31t30.5 -72t-30.5 -70.5t-73.5 -29.5q-41 0 -70 30t-29 73z" />
<glyph unicode="&#x100;" horiz-adv-x="1478" d="M31 0v39q71 7 106 42q39 38 99 175q15 36 53 125l422 999h41l503 -1153q45 -105 81 -142t112 -46v-39h-522v39q53 0 72.5 3.5t39.5 14.5q12 6 20.5 20.5t8.5 28.5q0 55 -39 144l-84 192h-536l-95 -233q-18 -49 -18 -86q0 -46 34 -65t109 -19v-39h-407zM410 1473v110h637 v-110h-637zM442 526h473l-237 564z" />
<glyph unicode="&#x101;" horiz-adv-x="909" d="M76 193q0 144 143 239q95 64 369 166v111q0 92 -43.5 138t-116.5 46q-61 0 -102 -29t-41 -71q0 -18 6 -41t6 -45q0 -31 -28 -57.5t-66 -26.5q-34 0 -61 27t-27 67q0 43 26.5 87.5t77.5 76.5q94 61 236 61q165 0 241 -92q36 -44 47 -88t11 -139v-392q0 -135 63 -135 q41 0 88 39v-57q-44 -56 -86 -77t-98 -21q-59 0 -91.5 35t-39.5 114h-2q-132 -149 -297 -149q-97 0 -156 56.5t-59 156.5zM141 1038v111h637v-111h-637zM256 256q0 -78 39 -118t102 -40q69 0 119 33q43 30 57.5 57t14.5 72v289q-188 -66 -262 -135q-70 -64 -70 -158z" />
<glyph unicode="&#x102;" horiz-adv-x="1478" d="M31 0v39q71 7 106 42q39 38 99 175q15 36 53 125l422 999h41l503 -1153q45 -105 81 -142t112 -46v-39h-522v39q53 0 72.5 3.5t39.5 14.5q12 6 20.5 20.5t8.5 28.5q0 55 -39 144l-84 192h-536l-95 -233q-18 -49 -18 -86q0 -46 34 -65t109 -19v-39h-407zM442 526h473 l-237 564zM446 1794h60q42 -199 229 -199q82 0 132.5 44.5t95.5 154.5h59q-37 -321 -291 -321q-142 0 -213.5 84t-71.5 237z" />
<glyph unicode="&#x103;" horiz-adv-x="909" d="M76 193q0 144 143 239q95 64 369 166v111q0 92 -43.5 138t-116.5 46q-61 0 -102 -29t-41 -71q0 -18 6 -41t6 -45q0 -31 -28 -57.5t-66 -26.5q-34 0 -61 27t-27 67q0 43 26.5 87.5t77.5 76.5q94 61 236 61q165 0 241 -92q36 -44 47 -88t11 -139v-392q0 -135 63 -135 q41 0 88 39v-57q-44 -56 -86 -77t-98 -21q-59 0 -91.5 35t-39.5 114h-2q-132 -149 -297 -149q-97 0 -156 56.5t-59 156.5zM186 1360h60q42 -199 229 -199q82 0 132 44.5t95 154.5h60q-37 -322 -291 -322q-142 0 -213.5 84.5t-71.5 237.5zM256 256q0 -78 39 -118t102 -40 q69 0 119 33q43 30 57.5 57t14.5 72v289q-188 -66 -262 -135q-70 -64 -70 -158z" />
<glyph unicode="&#x104;" horiz-adv-x="1478" d="M31 0v39q71 7 106 42q39 38 99 175q15 36 53 125l422 999h41l503 -1153q45 -105 81 -142t112 -46v-39h-205q-90 -73 -90 -143q0 -80 78 -80q67 0 145 73l41 -32q-57 -85 -107.5 -120.5t-119.5 -35.5q-67 0 -109.5 40.5t-42.5 111.5q0 108 111 186h-223v39q53 0 72.5 3.5 t39.5 14.5q12 6 20.5 20.5t8.5 28.5q0 55 -39 144l-84 192h-536l-95 -233q-18 -49 -18 -86q0 -46 34 -65t109 -19v-39h-407zM442 526h473l-237 564z" />
<glyph unicode="&#x105;" horiz-adv-x="909" d="M76 193q0 144 143 239q95 64 369 166v111q0 92 -43.5 138t-116.5 46q-61 0 -102 -29t-41 -71q0 -18 6 -41t6 -45q0 -31 -28 -57.5t-66 -26.5q-34 0 -61 27t-27 67q0 43 26.5 87.5t77.5 76.5q94 61 236 61q165 0 241 -92q36 -44 47 -88t11 -139v-392q0 -135 63 -135 q41 0 88 39v-57q-60 -76 -131 -92q-72 -66 -72 -129q0 -80 78 -80q68 0 146 73l41 -32q-56 -85 -107.5 -120.5t-120.5 -35.5q-67 0 -109 40.5t-42 111.5q0 99 90 172q-77 22 -88 143h-2q-132 -149 -297 -149q-97 0 -156 56.5t-59 156.5zM256 256q0 -78 39 -118t102 -40 q69 0 119 33q43 30 57.5 57t14.5 72v289q-188 -66 -262 -135q-70 -64 -70 -158z" />
<glyph unicode="&#x106;" horiz-adv-x="1366" d="M57 666q0 298 185 505q192 213 497 213q137 0 244 -30q12 -3 45 -14t56.5 -17t39.5 -6q30 0 53.5 17.5t32.5 49.5h41l19 -464h-47q-32 147 -107 227q-146 156 -330 156q-228 0 -359.5 -167.5t-131.5 -437.5q0 -330 147 -489q67 -71 162.5 -109.5t202.5 -38.5 q134 0 232 47t218 160l39 -37q-89 -127 -233 -193.5t-326 -66.5q-140 0 -267 48t-216 135q-94 92 -145.5 226t-51.5 286zM600 1473l301 303q28 28 45.5 37.5t40.5 9.5q34 0 53 -17.5t19 -48.5q0 -47 -62 -86l-315 -198h-82z" />
<glyph unicode="&#x107;" horiz-adv-x="909" d="M51 434q0 261 172 404q125 104 277 104q129 0 222 -62.5t93 -148.5q0 -35 -28 -60.5t-68 -25.5q-34 0 -60 25t-38 69l-13 45q-15 57 -40.5 78t-80.5 21q-124 0 -201 -98.5t-77 -258.5q0 -177 88 -288t229 -111q88 0 152 42.5t137 149.5l29 -18q-50 -96 -86.5 -147.5 t-81.5 -87.5q-106 -86 -236 -86q-170 0 -279.5 128t-109.5 326zM362 1038l302 303q28 28 45.5 38t40.5 10q34 0 52.5 -17.5t18.5 -48.5q0 -48 -61 -86l-316 -199h-82z" />
<glyph unicode="&#x108;" horiz-adv-x="1366" d="M57 666q0 298 185 505q192 213 497 213q137 0 244 -30q12 -3 45 -14t56.5 -17t39.5 -6q30 0 53.5 17.5t32.5 49.5h41l19 -464h-47q-32 147 -107 227q-146 156 -330 156q-228 0 -359.5 -167.5t-131.5 -437.5q0 -330 147 -489q67 -71 162.5 -109.5t202.5 -38.5 q134 0 232 47t218 160l39 -37q-89 -127 -233 -193.5t-326 -66.5q-140 0 -267 48t-216 135q-94 92 -145.5 226t-51.5 286zM408 1473l254 342h126l256 -342h-69l-250 210l-248 -210h-69z" />
<glyph unicode="&#x109;" horiz-adv-x="909" d="M51 434q0 261 172 404q125 104 277 104q129 0 222 -62.5t93 -148.5q0 -35 -28 -60.5t-68 -25.5q-34 0 -60 25t-38 69l-13 45q-15 57 -40.5 78t-80.5 21q-124 0 -201 -98.5t-77 -258.5q0 -177 88 -288t229 -111q88 0 152 42.5t137 149.5l29 -18q-50 -96 -86.5 -147.5 t-81.5 -87.5q-106 -86 -236 -86q-170 0 -279.5 128t-109.5 326zM133 1038l254 342h127l256 -342h-70l-249 211l-248 -211h-70z" />
<glyph unicode="&#x10a;" horiz-adv-x="1366" d="M57 666q0 298 185 505q192 213 497 213q137 0 244 -30q12 -3 45 -14t56.5 -17t39.5 -6q30 0 53.5 17.5t32.5 49.5h41l19 -464h-47q-32 147 -107 227q-146 156 -330 156q-228 0 -359.5 -167.5t-131.5 -437.5q0 -330 147 -489q67 -71 162.5 -109.5t202.5 -38.5 q134 0 232 47t218 160l39 -37q-89 -127 -233 -193.5t-326 -66.5q-140 0 -267 48t-216 135q-94 92 -145.5 226t-51.5 286zM719 1606q0 43 27.5 72.5t72.5 29.5q46 0 74.5 -29t28.5 -73q0 -43 -30.5 -72t-72.5 -29q-41 0 -70.5 30t-29.5 71z" />
<glyph unicode="&#x10b;" horiz-adv-x="909" d="M51 434q0 261 172 404q125 104 277 104q129 0 222 -62.5t93 -148.5q0 -35 -28 -60.5t-68 -25.5q-34 0 -60 25t-38 69l-13 45q-15 57 -40.5 78t-80.5 21q-124 0 -201 -98.5t-77 -258.5q0 -177 88 -288t229 -111q88 0 152 42.5t137 149.5l29 -18q-50 -96 -86.5 -147.5 t-81.5 -87.5q-106 -86 -236 -86q-170 0 -279.5 128t-109.5 326zM414 1171q0 43 28 73t72 30q46 0 74 -29.5t28 -73.5q0 -43 -30 -71.5t-72 -28.5q-41 0 -70.5 29.5t-29.5 70.5z" />
<glyph unicode="&#x10c;" horiz-adv-x="1366" d="M57 666q0 298 185 505q192 213 497 213q137 0 244 -30q12 -3 45 -14t56.5 -17t39.5 -6q30 0 53.5 17.5t32.5 49.5h41l19 -464h-47q-32 147 -107 227q-146 156 -330 156q-228 0 -359.5 -167.5t-131.5 -437.5q0 -330 147 -489q67 -71 162.5 -109.5t202.5 -38.5 q134 0 232 47t218 160l39 -37q-89 -127 -233 -193.5t-326 -66.5q-140 0 -267 48t-216 135q-94 92 -145.5 226t-51.5 286zM475 1815h72l246 -211l247 211h72l-254 -342h-131z" />
<glyph unicode="&#x10d;" horiz-adv-x="909" d="M51 434q0 261 172 404q125 104 277 104q129 0 222 -62.5t93 -148.5q0 -35 -28 -60.5t-68 -25.5q-34 0 -60 25t-38 69l-13 45q-15 57 -40.5 78t-80.5 21q-124 0 -201 -98.5t-77 -258.5q0 -177 88 -288t229 -111q88 0 152 42.5t137 149.5l29 -18q-50 -96 -86.5 -147.5 t-81.5 -87.5q-106 -86 -236 -86q-170 0 -279.5 128t-109.5 326zM174 1380h72l246 -211l247 211h72l-254 -342h-131z" />
<glyph unicode="&#x10e;" horiz-adv-x="1478" d="M33 0v39q63 4 96 12t53.5 31t25.5 56.5t5 97.5v890q0 43 -2 70t-10 49t-19 33.5t-33.5 20t-48 12t-67.5 6.5v39h553q399 0 614 -187q203 -176 203 -485q0 -183 -71 -324t-208 -229q-203 -131 -516 -131h-575zM379 1815h72l245 -211l248 211h72l-254 -342h-131zM422 172 q0 -55 19.5 -75.5t78.5 -20.5q161 0 258.5 22.5t188.5 83.5q213 143 213 490q0 157 -48 268.5t-147 198.5q-89 78 -193.5 109.5t-261.5 31.5q-60 0 -84 -18t-24 -68v-1022z" />
<glyph unicode="&#x10f;" horiz-adv-x="1200" d="M55 420q0 218 124.5 370t301.5 152q62 0 109.5 -19.5t105.5 -68.5v320q0 63 -18.5 83.5t-75.5 20.5q-29 0 -45 -2v33q195 52 301 90l10 -4v-1162q0 -71 17.5 -93.5t72.5 -22.5q13 0 48 2v-33l-301 -106l-9 6v131q-53 -72 -114.5 -104.5t-147.5 -32.5q-170 0 -274.5 121.5 t-104.5 318.5zM231 502q0 -189 77 -302.5t206 -113.5q95 0 152 66q30 33 30 57v471q0 82 -63 143.5t-146 61.5q-117 0 -186.5 -104.5t-69.5 -278.5zM952 1319q0 52 33.5 84.5t87.5 32.5q69 0 116.5 -53t47.5 -130q0 -92 -63 -178t-166 -137l-19 39q168 115 168 219 q0 11 -8.5 19t-20.5 8q-4 0 -14 -4q-30 -5 -41 -5q-57 0 -89 28t-32 77z" />
<glyph unicode="&#x110;" horiz-adv-x="1478" d="M33 0v39q116 7 148 40t32 144v422h-170v90h170v398q0 41 -1.5 65.5t-9.5 46t-18 32.5t-32.5 19.5t-48.5 12.5t-70 8v39h553q386 0 601.5 -177t215.5 -495q0 -156 -59 -291.5t-166 -224.5q-96 -78 -245.5 -123t-318.5 -45h-581zM422 160q0 -49 22 -66.5t82 -17.5 q256 0 404 84q250 145 250 510q0 167 -64 298.5t-186 213.5q-141 98 -408 98q-60 0 -80 -16.5t-20 -63.5v-465h299v-90h-299v-485z" />
<glyph unicode="&#x111;" horiz-adv-x="1024" d="M55 420q0 218 124.5 370t301.5 152q62 0 109.5 -19.5t105.5 -68.5v215h-358v80h358v25q0 63 -18.5 83.5t-75.5 20.5q-29 0 -45 -2v33q195 52 301 90l10 -4v-246h170v-80h-170v-836q0 -71 17.5 -93.5t72.5 -22.5q13 0 48 2v-33l-301 -106l-9 6v131q-53 -72 -114.5 -104.5 t-147.5 -32.5q-170 0 -274.5 121.5t-104.5 318.5zM231 502q0 -189 77 -302.5t206 -113.5q95 0 152 66q30 33 30 57v471q0 82 -63 143.5t-146 61.5q-117 0 -186.5 -104.5t-69.5 -278.5z" />
<glyph unicode="&#x112;" horiz-adv-x="1251" d="M25 0v39q63 4 95 11.5t52.5 30.5t25.5 55.5t5 96.5v893q0 80 -13 117t-49 53.5t-116 20.5v39h1085l8 -293h-51q-12 73 -28 112t-52.5 64t-88.5 32t-146 7h-269q-44 0 -57.5 -13t-13.5 -61v-450h309q90 0 134 16.5t64 55t33 124.5h47v-479h-47q-10 69 -21.5 104.5t-38 59 t-64 29.5t-107.5 6h-309v-498q0 -61 42.5 -78.5t163.5 -17.5h74q150 0 234.5 23t137.5 79t101 168h58l-95 -346h-1103zM307 1473v110h637v-110h-637z" />
<glyph unicode="&#x113;" horiz-adv-x="909" d="M51 444q0 219 116.5 358.5t307.5 139.5q184 0 285 -141q58 -81 69 -234h-630q8 -130 25 -198t69 -136q84 -112 227 -112q100 0 169.5 49t146.5 166l32 -14q-123 -342 -428 -342q-181 0 -285 125.5t-104 338.5zM143 1038v111h637v-111h-637zM203 633h418 q-18 129 -60.5 182t-140.5 53q-87 0 -143.5 -60t-73.5 -175z" />
<glyph unicode="&#x114;" horiz-adv-x="1251" d="M25 0v39q63 4 95 11.5t52.5 30.5t25.5 55.5t5 96.5v893q0 80 -13 117t-49 53.5t-116 20.5v39h1085l8 -293h-51q-12 73 -28 112t-52.5 64t-88.5 32t-146 7h-269q-44 0 -57.5 -13t-13.5 -61v-450h309q90 0 134 16.5t64 55t33 124.5h47v-479h-47q-10 69 -21.5 104.5t-38 59 t-64 29.5t-107.5 6h-309v-498q0 -61 42.5 -78.5t163.5 -17.5h74q150 0 234.5 23t137.5 79t101 168h58l-95 -346h-1103zM350 1794h60q42 -199 229 -199q82 0 132 44.5t95 154.5h60q-37 -321 -291 -321q-142 0 -213.5 84t-71.5 237z" />
<glyph unicode="&#x115;" horiz-adv-x="909" d="M51 444q0 219 116.5 358.5t307.5 139.5q184 0 285 -141q58 -81 69 -234h-630q8 -130 25 -198t69 -136q84 -112 227 -112q100 0 169.5 49t146.5 166l32 -14q-123 -342 -428 -342q-181 0 -285 125.5t-104 338.5zM166 1360h59q42 -199 230 -199q82 0 132 44.5t95 154.5h59 q-37 -322 -290 -322q-142 0 -213.5 84.5t-71.5 237.5zM203 633h418q-18 129 -60.5 182t-140.5 53q-87 0 -143.5 -60t-73.5 -175z" />
<glyph unicode="&#x116;" horiz-adv-x="1251" d="M25 0v39q63 4 95 11.5t52.5 30.5t25.5 55.5t5 96.5v893q0 80 -13 117t-49 53.5t-116 20.5v39h1085l8 -293h-51q-12 73 -28 112t-52.5 64t-88.5 32t-146 7h-269q-44 0 -57.5 -13t-13.5 -61v-450h309q90 0 134 16.5t64 55t33 124.5h47v-479h-47q-10 69 -21.5 104.5t-38 59 t-64 29.5t-107.5 6h-309v-498q0 -61 42.5 -78.5t163.5 -17.5h74q150 0 234.5 23t137.5 79t101 168h58l-95 -346h-1103zM514 1606q0 43 27.5 72.5t72.5 29.5q46 0 74.5 -29t28.5 -73q0 -43 -30.5 -72t-72.5 -29q-41 0 -70.5 30t-29.5 71z" />
<glyph unicode="&#x117;" horiz-adv-x="909" d="M51 444q0 219 116.5 358.5t307.5 139.5q184 0 285 -141q58 -81 69 -234h-630q8 -130 25 -198t69 -136q84 -112 227 -112q100 0 169.5 49t146.5 166l32 -14q-123 -342 -428 -342q-181 0 -285 125.5t-104 338.5zM203 633h418q-18 129 -60.5 182t-140.5 53q-87 0 -143.5 -60 t-73.5 -175zM391 1171q0 43 28 73t73 30q46 0 74 -29.5t28 -73.5q0 -43 -30 -71.5t-72 -28.5q-41 0 -71 29.5t-30 70.5z" />
<glyph unicode="&#x118;" horiz-adv-x="1251" d="M25 0v39q63 4 95 11.5t52.5 30.5t25.5 55.5t5 96.5v893q0 80 -13 117t-49 53.5t-116 20.5v39h1085l8 -293h-51q-12 73 -28 112t-52.5 64t-88.5 32t-146 7h-269q-44 0 -57.5 -13t-13.5 -61v-450h309q90 0 134 16.5t64 55t33 124.5h47v-479h-47q-10 69 -21.5 104.5t-38 59 t-64 29.5t-107.5 6h-309v-498q0 -61 42.5 -78.5t163.5 -17.5h74q150 0 234.5 23t137.5 79t101 168h58l-95 -346h-251q-91 -74 -91 -143q0 -80 78 -80q68 0 146 73l41 -32q-56 -85 -107.5 -120.5t-120.5 -35.5q-67 0 -109 40.5t-42 111.5q0 56 26 100.5t84 85.5h-757z" />
<glyph unicode="&#x119;" horiz-adv-x="909" d="M51 444q0 219 116.5 358.5t307.5 139.5q184 0 285 -141q58 -81 69 -234h-630q8 -130 25 -198t69 -136q84 -112 227 -112q100 0 169.5 49t146.5 166l32 -14q-94 -261 -295 -322q-88 -74 -88 -143q0 -80 78 -80q68 0 146 73l41 -32q-56 -85 -107.5 -120.5t-120.5 -35.5 q-67 0 -109 40.5t-42 111.5q0 96 84 166h-15q-181 0 -285 125.5t-104 338.5zM203 633h418q-18 129 -60.5 182t-140.5 53q-87 0 -143.5 -60t-73.5 -175z" />
<glyph unicode="&#x11a;" horiz-adv-x="1251" d="M25 0v39q63 4 95 11.5t52.5 30.5t25.5 55.5t5 96.5v893q0 80 -13 117t-49 53.5t-116 20.5v39h1085l8 -293h-51q-12 73 -28 112t-52.5 64t-88.5 32t-146 7h-269q-44 0 -57.5 -13t-13.5 -61v-450h309q90 0 134 16.5t64 55t33 124.5h47v-479h-47q-10 69 -21.5 104.5t-38 59 t-64 29.5t-107.5 6h-309v-498q0 -61 42.5 -78.5t163.5 -17.5h74q150 0 234.5 23t137.5 79t101 168h58l-95 -346h-1103zM324 1815h71l246 -211l248 211h72l-254 -342h-132z" />
<glyph unicode="&#x11b;" horiz-adv-x="909" d="M51 444q0 219 116.5 358.5t307.5 139.5q184 0 285 -141q58 -81 69 -234h-630q8 -130 25 -198t69 -136q84 -112 227 -112q100 0 169.5 49t146.5 166l32 -14q-123 -342 -428 -342q-181 0 -285 125.5t-104 338.5zM174 1380h72l246 -211l247 211h72l-254 -342h-131zM203 633 h418q-18 129 -60.5 182t-140.5 53q-87 0 -143.5 -60t-73.5 -175z" />
<glyph unicode="&#x11c;" horiz-adv-x="1478" d="M66 670q0 166 57.5 304.5t161.5 233.5q192 176 489 176q134 0 273 -47q56 -20 90 -20q32 0 57.5 19t34.5 48h45l16 -432h-47q-38 94 -68.5 144t-76.5 94q-119 113 -299 113q-203 0 -342 -142q-79 -79 -118.5 -209t-39.5 -288q0 -283 147.5 -447t391.5 -164 q117 0 194.5 36.5t77.5 88.5v322q0 43 -2 69t-9.5 48t-18 33t-33.5 19.5t-49 12t-70 6.5v37h524v-37q-48 -4 -73 -11t-42.5 -25.5t-22.5 -47t-5 -80.5v-409q-84 -68 -222.5 -106t-298.5 -38q-159 0 -305.5 57.5t-246.5 161.5q-170 179 -170 480zM406 1473l253 342h127 l256 -342h-69l-250 210l-248 -210h-69z" />
<glyph unicode="&#x11d;" horiz-adv-x="1024" d="M57 -248q0 57 45.5 114t155.5 136q-64 31 -86 53t-22 56q0 59 94 141q47 40 88 82q-103 51 -147 114t-44 160q0 139 99.5 236.5t242.5 97.5q79 0 164 -31l45 -16q61 -21 113 -21h158v-79h-170q38 -86 38 -172q0 -159 -106 -238q-108 -80 -213 -80q-22 0 -78 6l-39 4 q-41 -12 -82 -55t-41 -74q0 -25 38 -37.5t122 -17.5l264 -12q114 -4 181 -64t67 -155q0 -118 -123 -215q-79 -61 -188.5 -96t-220.5 -35q-147 0 -251 58t-104 140zM193 1038l253 342h127l256 -342h-69l-250 211l-248 -211h-69zM201 -180q0 -68 81 -109t216 -41q175 0 282 55 t107 144q0 56 -56.5 78t-197.5 22q-75 0 -177.5 8.5t-154.5 18.5q-62 -74 -81 -107.5t-19 -68.5zM311 686q0 -148 58 -239t153 -91q69 0 110.5 50t41.5 135q0 133 -62 247q-52 97 -149 97q-71 0 -111.5 -51.5t-40.5 -141.5v-6z" />
<glyph unicode="&#x11e;" horiz-adv-x="1478" d="M66 670q0 166 57.5 304.5t161.5 233.5q192 176 489 176q134 0 273 -47q56 -20 90 -20q32 0 57.5 19t34.5 48h45l16 -432h-47q-38 94 -68.5 144t-76.5 94q-119 113 -299 113q-203 0 -342 -142q-79 -79 -118.5 -209t-39.5 -288q0 -283 147.5 -447t391.5 -164 q117 0 194.5 36.5t77.5 88.5v322q0 43 -2 69t-9.5 48t-18 33t-33.5 19.5t-49 12t-70 6.5v37h524v-37q-48 -4 -73 -11t-42.5 -25.5t-22.5 -47t-5 -80.5v-409q-84 -68 -222.5 -106t-298.5 -38q-159 0 -305.5 57.5t-246.5 161.5q-170 179 -170 480zM498 1794h59 q42 -199 229 -199q82 0 132.5 44.5t95.5 154.5h59q-37 -321 -291 -321q-142 0 -213 84t-71 237z" />
<glyph unicode="&#x11f;" horiz-adv-x="1024" d="M57 -248q0 57 45.5 114t155.5 136q-64 31 -86 53t-22 56q0 59 94 141q47 40 88 82q-103 51 -147 114t-44 160q0 139 99.5 236.5t242.5 97.5q79 0 164 -31l45 -16q61 -21 113 -21h158v-79h-170q38 -86 38 -172q0 -159 -106 -238q-108 -80 -213 -80q-22 0 -78 6l-39 4 q-41 -12 -82 -55t-41 -74q0 -25 38 -37.5t122 -17.5l264 -12q114 -4 181 -64t67 -155q0 -118 -123 -215q-79 -61 -188.5 -96t-220.5 -35q-147 0 -251 58t-104 140zM201 -180q0 -68 81 -109t216 -41q175 0 282 55t107 144q0 56 -56.5 78t-197.5 22q-75 0 -177.5 8.5 t-154.5 18.5q-62 -74 -81 -107.5t-19 -68.5zM203 1360h59q42 -199 230 -199q82 0 132 44.5t95 154.5h59q-37 -322 -291 -322q-142 0 -213 84.5t-71 237.5zM311 686q0 -148 58 -239t153 -91q69 0 110.5 50t41.5 135q0 133 -62 247q-52 97 -149 97q-71 0 -111.5 -51.5 t-40.5 -141.5v-6z" />
<glyph unicode="&#x120;" horiz-adv-x="1478" d="M66 670q0 166 57.5 304.5t161.5 233.5q192 176 489 176q134 0 273 -47q56 -20 90 -20q32 0 57.5 19t34.5 48h45l16 -432h-47q-38 94 -68.5 144t-76.5 94q-119 113 -299 113q-203 0 -342 -142q-79 -79 -118.5 -209t-39.5 -288q0 -283 147.5 -447t391.5 -164 q117 0 194.5 36.5t77.5 88.5v322q0 43 -2 69t-9.5 48t-18 33t-33.5 19.5t-49 12t-70 6.5v37h524v-37q-48 -4 -73 -11t-42.5 -25.5t-22.5 -47t-5 -80.5v-409q-84 -68 -222.5 -106t-298.5 -38q-159 0 -305.5 57.5t-246.5 161.5q-170 179 -170 480zM657 1606q0 42 28 72t73 30 q46 0 74 -29t28 -73q0 -43 -30 -72t-72 -29q-41 0 -71 30t-30 71z" />
<glyph unicode="&#x121;" horiz-adv-x="1024" d="M57 -248q0 57 45.5 114t155.5 136q-64 31 -86 53t-22 56q0 59 94 141q47 40 88 82q-103 51 -147 114t-44 160q0 139 99.5 236.5t242.5 97.5q79 0 164 -31l45 -16q61 -21 113 -21h158v-79h-170q38 -86 38 -172q0 -159 -106 -238q-108 -80 -213 -80q-22 0 -78 6l-39 4 q-41 -12 -82 -55t-41 -74q0 -25 38 -37.5t122 -17.5l264 -12q114 -4 181 -64t67 -155q0 -118 -123 -215q-79 -61 -188.5 -96t-220.5 -35q-147 0 -251 58t-104 140zM201 -180q0 -68 81 -109t216 -41q175 0 282 55t107 144q0 56 -56.5 78t-197.5 22q-75 0 -177.5 8.5 t-154.5 18.5q-62 -74 -81 -107.5t-19 -68.5zM311 686q0 -148 58 -239t153 -91q69 0 110.5 50t41.5 135q0 133 -62 247q-52 97 -149 97q-71 0 -111.5 -51.5t-40.5 -141.5v-6zM412 1171q0 43 28 73t72 30q46 0 74 -29.5t28 -73.5q0 -43 -30 -71.5t-72 -28.5q-41 0 -70.5 29.5 t-29.5 70.5z" />
<glyph unicode="&#x122;" horiz-adv-x="1478" d="M66 670q0 166 57.5 304.5t161.5 233.5q192 176 489 176q134 0 273 -47q56 -20 90 -20q32 0 57.5 19t34.5 48h45l16 -432h-47q-38 94 -68.5 144t-76.5 94q-119 113 -299 113q-203 0 -342 -142q-79 -79 -118.5 -209t-39.5 -288q0 -283 147.5 -447t391.5 -164 q117 0 194.5 36.5t77.5 88.5v322q0 43 -2 69t-9.5 48t-18 33t-33.5 19.5t-49 12t-70 6.5v37h524v-37q-48 -4 -73 -11t-42.5 -25.5t-22.5 -47t-5 -80.5v-409q-84 -68 -222.5 -106t-298.5 -38q-159 0 -305.5 57.5t-246.5 161.5q-170 179 -170 480zM676 -193q0 53 34 85t89 32 q70 0 117 -50t47 -128q0 -93 -62.5 -180.5t-167.5 -138.5l-20 38q170 114 170 220q0 11 -8.5 18.5t-20.5 7.5q-7 0 -27 -4t-32 -4q-119 0 -119 104z" />
<glyph unicode="&#x123;" horiz-adv-x="1024" d="M57 -248q0 57 45.5 114t155.5 136q-64 31 -86 53t-22 56q0 59 94 141q47 40 88 82q-103 51 -147 114t-44 160q0 139 99.5 236.5t242.5 97.5q79 0 164 -31l45 -16q61 -21 113 -21h158v-79h-170q38 -86 38 -172q0 -159 -106 -238q-108 -80 -213 -80q-22 0 -78 6l-39 4 q-41 -12 -82 -55t-41 -74q0 -25 38 -37.5t122 -17.5l264 -12q114 -4 181 -64t67 -155q0 -118 -123 -215q-79 -61 -188.5 -96t-220.5 -35q-147 0 -251 58t-104 140zM201 -180q0 -68 81 -109t216 -41q175 0 282 55t107 144q0 56 -56.5 78t-197.5 22q-75 0 -177.5 8.5 t-154.5 18.5q-62 -74 -81 -107.5t-19 -68.5zM311 686q0 -148 58 -239t153 -91q69 0 110.5 50t41.5 135q0 133 -62 247q-52 97 -149 97q-71 0 -111.5 -51.5t-40.5 -141.5v-6zM371 1253q0 92 63 178.5t166 137.5l18 -39q-167 -115 -167 -217q0 -12 8 -20.5t20 -8.5q5 0 15 4 q24 4 41 4q57 0 88.5 -27.5t31.5 -76.5q0 -53 -33 -85t-87 -32q-70 0 -117 52t-47 130z" />
<glyph unicode="&#x124;" horiz-adv-x="1478" d="M37 0v39q43 3 69.5 7t48.5 13.5t33 22.5t19 37.5t10 54t2 76.5v872q0 84 -13.5 121t-49.5 52.5t-119 21.5v39h573v-39q-115 -9 -148.5 -43t-33.5 -152v-387h621v387q0 51 -4.5 81.5t-14.5 53t-33 33.5t-51.5 17t-79.5 10v39h574v-39q-116 -9 -149.5 -43.5t-33.5 -151.5 v-895q0 -109 34 -144t149 -44v-39h-572v39q63 4 96.5 13t53.5 34.5t25.5 62t5.5 105.5v391h-621v-414q0 -114 32.5 -150t145.5 -42l2 -39h-571zM424 1473l254 342h127l256 -342h-70l-250 210l-247 -210h-70z" />
<glyph unicode="&#x125;" horiz-adv-x="1024" d="M18 0v31q89 12 110.5 41t21.5 137v965q0 66 -19.5 85t-85.5 19q-19 0 -25 -2v33l56 16q158 47 235 74l11 -6v-623q70 92 140 132t161 40q251 0 251 -326v-407q0 -46 2.5 -71.5t8.5 -46t21.5 -30.5t35 -16.5t55.5 -13.5v-31h-434v31q89 9 114 40.5t25 137.5v405 q0 217 -151 217q-61 0 -112.5 -29t-116.5 -100v-493q0 -106 25 -137.5t114 -40.5v-31h-443zM133 1473l254 342h127l256 -342h-70l-249 210l-248 -210h-70z" />
<glyph unicode="&#x126;" horiz-adv-x="1480" d="M35 0v39q43 3 69.5 7t48.5 13.5t33 22.5t19 37.5t10 54t2 76.5v725h-182v90h182v57q0 84 -13.5 121t-49.5 52.5t-119 21.5v39h573v-39q-115 -9 -148.5 -43t-33.5 -152v-57h621v57q0 51 -4.5 81.5t-14.5 53t-33 33.5t-51.5 17t-79.5 10v39h574v-39q-116 -9 -149.5 -43.5 t-33.5 -151.5v-57h181v-90h-181v-748q0 -109 34 -144t149 -44v-39h-572v39q63 4 96.5 13t53.5 34.5t25.5 62t5.5 105.5v391h-621v-414q0 -113 33.5 -149.5t146.5 -42.5v-39h-571zM426 735h621v240h-621v-240z" />
<glyph unicode="&#x127;" horiz-adv-x="1024" d="M16 1049v110h134v15q0 66 -19.5 85t-85.5 19q-19 0 -25 -2v33l56 16q158 47 235 74l11 -6v-234h331v-110h-331v-279q70 92 140 132t161 40q251 0 251 -326v-407q0 -46 2.5 -71.5t8.5 -46t21.5 -30.5t35 -16.5t55.5 -13.5v-31h-434v31q89 9 114 40.5t25 137.5v405 q0 217 -151 217q-61 0 -112.5 -29t-116.5 -100v-493q0 -106 25 -137.5t114 -40.5v-31h-443v31q89 12 110.5 41t21.5 137v840h-134z" />
<glyph unicode="&#x128;" horiz-adv-x="681" d="M2 1524q23 100 76.5 153.5t130.5 53.5q70 0 143 -37l49 -25q60 -31 109 -31q35 0 58 22.5t50 80.5h60q-32 -117 -81.5 -167t-133.5 -50q-39 0 -71.5 9.5t-94.5 39.5l-47 22q-51 23 -84 23q-71 0 -105 -94h-59zM37 0v39q69 2 104.5 9t59 29t29.5 55.5t6 96.5v899 q0 64 -5.5 97t-29.5 54t-58.5 27.5t-105.5 10.5v39h608v-39q-130 -6 -165.5 -39t-35.5 -150v-899q0 -48 5 -78.5t17 -53t36 -34t57 -17t86 -7.5v-39h-608z" />
<glyph unicode="&#x129;" horiz-adv-x="569" d="M-51 1090q23 100 76.5 153t130.5 53q72 0 143 -36l49 -25q60 -31 109 -31q35 0 58 22.5t50 80.5h60q-32 -117 -81.5 -167t-133.5 -50q-39 0 -71.5 9.5t-94.5 39.5l-47 22q-51 23 -84 23q-71 0 -105 -94h-59zM33 0v31q57 3 85.5 9t48 27t24 52.5t4.5 93.5v465 q0 72 -15 100.5t-53 28.5q-49 0 -86 -10v32l315 113l11 -8v-719q0 -115 25 -146t126 -38v-31h-485z" />
<glyph unicode="&#x12a;" horiz-adv-x="681" d="M23 1473v110h636v-110h-636zM37 0v39q69 2 104.5 9t59 29t29.5 55.5t6 96.5v899q0 64 -5.5 97t-29.5 54t-58.5 27.5t-105.5 10.5v39h608v-39q-130 -6 -165.5 -39t-35.5 -150v-899q0 -48 5 -78.5t17 -53t36 -34t57 -17t86 -7.5v-39h-608z" />
<glyph unicode="&#x12b;" horiz-adv-x="569" d="M-43 1038v111h637v-111h-637zM33 0v31q57 3 85.5 9t48 27t24 52.5t4.5 93.5v465q0 72 -15 100.5t-53 28.5q-49 0 -86 -10v32l315 113l11 -8v-719q0 -115 25 -146t126 -38v-31h-485z" />
<glyph unicode="&#x12c;" horiz-adv-x="681" d="M37 0v39q69 2 104.5 9t59 29t29.5 55.5t6 96.5v899q0 64 -5.5 97t-29.5 54t-58.5 27.5t-105.5 10.5v39h608v-39q-130 -6 -165.5 -39t-35.5 -150v-899q0 -48 5 -78.5t17 -53t36 -34t57 -17t86 -7.5v-39h-608zM49 1794h60q42 -199 229 -199q82 0 132 44.5t95 154.5h60 q-37 -321 -291 -321q-142 0 -213.5 84t-71.5 237z" />
<glyph unicode="&#x12d;" horiz-adv-x="569" d="M-2 1360h59q42 -199 230 -199q82 0 132 44.5t95 154.5h59q-37 -322 -290 -322q-142 0 -213.5 84.5t-71.5 237.5zM33 0v31q57 3 85.5 9t48 27t24 52.5t4.5 93.5v465q0 72 -15 100.5t-53 28.5q-49 0 -86 -10v32l315 113l11 -8v-719q0 -115 25 -146t126 -38v-31h-485z" />
<glyph unicode="&#x12e;" horiz-adv-x="681" d="M37 0v39q69 2 104.5 9t59 29t29.5 55.5t6 96.5v899q0 64 -5.5 97t-29.5 54t-58.5 27.5t-105.5 10.5v39h608v-39q-130 -6 -165.5 -39t-35.5 -150v-899q0 -48 5 -78.5t17 -53t36 -34t57 -17t86 -7.5v-39h-194q-91 -74 -91 -143q0 -80 78 -80q68 0 146 73l41 -32 q-56 -85 -107.5 -120.5t-120.5 -35.5q-67 0 -109 40.5t-42 111.5q0 56 26 100.5t84 85.5h-319z" />
<glyph unicode="&#x12f;" horiz-adv-x="569" d="M33 0v31q57 3 85.5 9t48 27t24 52.5t4.5 93.5v465q0 72 -15 100.5t-53 28.5q-49 0 -86 -10v32l317 113l9 -8v-719q0 -115 25 -146t126 -38v-31h-125q-90 -73 -90 -143q0 -80 78 -80q67 0 145 73l41 -32q-57 -85 -107.5 -120.5t-119.5 -35.5q-67 0 -109.5 40.5 t-42.5 111.5q0 108 111 186h-266zM160 1294q0 43 30.5 74t73.5 31q44 0 74.5 -31t30.5 -74q0 -44 -30.5 -74t-76.5 -30q-43 0 -72.5 30t-29.5 74z" />
<glyph unicode="&#x130;" horiz-adv-x="681" d="M37 0v39q69 2 104.5 9t59 29t29.5 55.5t6 96.5v899q0 64 -5.5 97t-29.5 54t-58.5 27.5t-105.5 10.5v39h608v-39q-130 -6 -165.5 -39t-35.5 -150v-899q0 -48 5 -78.5t17 -53t36 -34t57 -17t86 -7.5v-39h-608zM238 1606q0 43 27.5 72.5t72.5 29.5q46 0 74 -29t28 -73 q0 -43 -30 -72t-72 -29q-41 0 -70.5 30t-29.5 71z" />
<glyph unicode="&#x131;" horiz-adv-x="569" d="M33 0v31q57 3 85.5 9t48 27t24 52.5t4.5 93.5v465q0 72 -15 100.5t-53 28.5q-49 0 -86 -10v32l315 113l11 -8v-719q0 -115 25 -146t126 -38v-31h-485z" />
<glyph unicode="&#x134;" horiz-adv-x="763" d="M-12 119q0 41 30 73.5t70 32.5q65 0 100 -86q4 -10 10 -28t9.5 -26t9.5 -18t14.5 -14t20.5 -4q45 0 60.5 32t15.5 112v933q0 44 -2 71t-11 49t-19.5 33t-35.5 19t-50.5 11.5t-72.5 7.5v39h588v-39q-53 -4 -83.5 -10t-53.5 -17t-33 -34t-14 -52t-4 -80v-745 q0 -408 -342 -408q-94 0 -150.5 38.5t-56.5 109.5zM115 1473l254 342h127l256 -342h-70l-250 210l-248 -210h-69z" />
<glyph unicode="&#x135;" horiz-adv-x="569" d="M-143 -334q0 34 24.5 57t59.5 23q47 0 98 -65q27 -33 45 -45.5t41 -12.5q21 0 41 11t29 26q17 30 22.5 80t5.5 168v776q0 66 -15 94.5t-50 28.5q-49 0 -82 -6l-10 -2v32q156 48 319 111l10 -6v-936q0 -218 -89 -332t-259 -114q-83 0 -136.5 31.5t-53.5 80.5zM-33 1038 l254 342h127l256 -342h-69l-250 211l-248 -211h-70z" />
<glyph unicode="&#x136;" horiz-adv-x="1478" d="M68 0v39q64 3 98 11.5t55.5 34t27 63t5.5 108.5v868q0 61 -5.5 93.5t-26 55.5t-55 31.5t-97.5 12.5v39h577v-39q-45 -3 -73 -7t-50 -14t-33 -21.5t-18 -35t-8.5 -48.5t-1.5 -69v-409l364 336q60 57 87.5 84.5t50 60.5t22.5 57q0 33 -17.5 48t-66.5 16l-51 2v39h530v-39 q-104 -7 -158.5 -35.5t-160.5 -130.5l-381 -365l479 -524q126 -138 187.5 -180.5t132.5 -42.5v-39h-621v39l55 2q86 3 86 49q0 37 -66.5 116.5t-213.5 231.5l-205 211l-53 -43v-379q0 -61 6.5 -94.5t29 -54t53.5 -27.5t93 -12v-39h-577zM614 -193q0 53 34 85t89 32 q70 0 117 -50t47 -128q0 -93 -62 -181t-167 -138l-21 38q170 114 170 220q0 11 -8 18.5t-20 7.5q-7 0 -27.5 -4t-32.5 -4q-119 0 -119 104z" />
<glyph unicode="&#x137;" horiz-adv-x="1024" d="M14 0v31q42 7 63 11t41.5 12t28 14.5t14 22.5t7 31.5t0.5 45.5v987q0 74 -18 99.5t-70 25.5q-12 0 -66 -4v33l62 16q136 36 256 74l8 -4v-860l281 249q47 44 47 72q0 20 -21.5 27.5t-81.5 9.5v29h418v-31q-71 0 -120 -16.5t-121.5 -70t-200.5 -171.5l-60 -55l314 -398 q62 -78 116 -111t123 -38v-31h-446v31h39q19 0 31 8.5t12 21.5q0 19 -23 48l-307 405v-377q0 -54 25.5 -77.5t87.5 -26.5l41 -2v-31h-480zM328 -193q0 53 34 85t89 32q70 0 116.5 -49.5t46.5 -128.5q0 -93 -62 -181t-167 -138l-20 38q170 114 170 220q0 11 -8.5 18.5 t-20.5 7.5q-7 0 -27.5 -4t-32.5 -4q-118 0 -118 104z" />
<glyph unicode="&#x138;" horiz-adv-x="1110" d="M10 0v33q98 0 123 22q35 21 35 103v624q0 80 -33 103q-29 19 -125 22v33h494v-33q-96 -3 -121 -22q-35 -22 -35 -105v-215l92 8q61 5 117 58q61 53 107 180q24 71 69 100t123 29q64 0 111 -28.5t47 -77.5q0 -36 -30.5 -60t-68.5 -24q-31 0 -53.5 12.5t-32 27t-21.5 27 t-26 12.5q-25 0 -37 -14t-22 -47q-46 -149 -141 -223q19 -7 30 -14.5t33 -30.5q28 -31 98.5 -157t81.5 -142q46 -66 119 -109.5t146 -60.5v-31h-267q-48 27 -82 57.5t-73 89.5q-29 45 -72 127.5t-59 110.5q-59 100 -78 111q-82 -4 -111 -4v-332q0 -77 35 -99q31 -28 121 -28 v-33h-494z" />
<glyph unicode="&#x139;" horiz-adv-x="1251" d="M25 0v39q113 6 145.5 42.5t32.5 154.5v882q0 64 -5 97t-24.5 56.5t-52.5 32t-96 13.5v39h579v-39q-44 -3 -72.5 -7t-51.5 -13.5t-35 -21.5t-20 -34.5t-10.5 -49.5t-2.5 -69v-950q0 -58 35 -75t149 -17h143q247 0 346 125q41 54 86 151h54l-99 -356h-1101zM268 1473 l301 303q28 28 45.5 37.5t40.5 9.5q34 0 53 -17.5t19 -48.5q0 -48 -61 -86l-316 -198h-82z" />
<glyph unicode="&#x13a;" horiz-adv-x="569" d="M39 1276v33q203 50 323 90l11 -8v-1213q0 -86 28 -113.5t125 -33.5v-31h-483v31q96 7 127 39t31 118v961q0 74 -18.5 102.5t-67.5 28.5q-43 0 -76 -4zM59 1473l301 303q28 28 45.5 37.5t40.5 9.5q34 0 53 -17.5t19 -48.5q0 -48 -61 -86l-316 -198h-82z" />
<glyph unicode="&#x13b;" horiz-adv-x="1251" d="M25 0v39q113 6 145.5 42.5t32.5 154.5v882q0 64 -5 97t-24.5 56.5t-52.5 32t-96 13.5v39h579v-39q-44 -3 -72.5 -7t-51.5 -13.5t-35 -21.5t-20 -34.5t-10.5 -49.5t-2.5 -69v-950q0 -58 35 -75t149 -17h143q247 0 346 125q41 54 86 151h54l-99 -356h-1101zM471 -193 q0 53 34 85t89 32q70 0 117 -50t47 -128q0 -93 -62.5 -180.5t-167.5 -138.5l-20 38q170 114 170 220q0 11 -8.5 18.5t-20.5 7.5q-7 0 -27 -4t-32 -4q-119 0 -119 104z" />
<glyph unicode="&#x13c;" horiz-adv-x="569" d="M39 1276v33q203 50 323 90l11 -8v-1213q0 -86 28 -113.5t125 -33.5v-31h-483v31q96 7 127 39t31 118v961q0 74 -18.5 102.5t-67.5 28.5q-43 0 -76 -4zM143 -193q0 53 34 85t89 32q70 0 117 -50t47 -128q0 -93 -62 -181t-167 -138l-21 38q170 114 170 220q0 11 -8 18.5 t-20 7.5q-7 0 -27.5 -4t-32.5 -4q-119 0 -119 104z" />
<glyph unicode="&#x13d;" horiz-adv-x="1251" d="M25 0v39q113 6 145.5 42.5t32.5 154.5v882q0 64 -5 97t-24.5 56.5t-52.5 32t-96 13.5v39h579v-39q-44 -3 -72.5 -7t-51.5 -13.5t-35 -21.5t-20 -34.5t-10.5 -49.5t-2.5 -69v-950q0 -58 35 -75t149 -17h143q247 0 346 125q41 54 86 151h54l-99 -356h-1101zM719 1282 q0 52 33.5 84.5t87.5 32.5q69 0 116.5 -52.5t47.5 -129.5q0 -92 -63.5 -178.5t-166.5 -137.5l-18 39q168 115 168 219q0 11 -8.5 19t-20.5 8q-4 0 -14 -4q-24 -4 -41 -4q-57 0 -89 27.5t-32 76.5z" />
<glyph unicode="&#x13e;" horiz-adv-x="780" d="M39 1276v33q203 50 323 90l11 -8v-1213q0 -86 28 -113.5t125 -33.5v-31h-483v31q96 7 127 39t31 118v961q0 74 -18.5 102.5t-67.5 28.5q-43 0 -76 -4zM457 1321q0 52 33.5 84.5t87.5 32.5q69 0 116 -53t47 -130q0 -92 -63 -178t-166 -137l-18 39q168 115 168 219 q0 11 -8.5 19t-20.5 8q-5 0 -15 -4q-24 -4 -40 -4q-57 0 -89 27.5t-32 76.5z" />
<glyph unicode="&#x13f;" horiz-adv-x="1269" d="M59 0v39q113 6 146 42.5t33 154.5v882q0 64 -5 97t-25 56.5t-53 32t-96 13.5v39h580v-39q-126 -7 -159.5 -41.5t-33.5 -153.5v-950q0 -58 35.5 -75t149.5 -17h143q247 0 346 125q41 54 86 151h54l-99 -356h-1102zM707 709q0 47 33.5 80.5t80.5 33.5q44 0 78.5 -35 t34.5 -81q0 -44 -34.5 -77.5t-80.5 -33.5q-47 0 -79.5 33t-32.5 80z" />
<glyph unicode="&#x140;" horiz-adv-x="757" d="M39 1276v33q203 50 323 90l11 -8v-1213q0 -86 28 -113.5t125 -33.5v-31h-483v31q96 7 127 39t31 118v961q0 74 -18.5 102.5t-67.5 28.5q-43 0 -76 -4zM498 702q0 47 33.5 81t80.5 34q44 0 78.5 -35.5t34.5 -81.5q0 -44 -34.5 -77t-80.5 -33q-47 0 -79.5 32.5t-32.5 79.5z " />
<glyph unicode="&#x141;" horiz-adv-x="1251" d="M20 0v39q111 4 146 43t35 145v346l-178 -108v100l178 111v452q0 114 -32.5 148.5t-145.5 40.5v39h577v-39q-118 -6 -154 -40.5t-36 -148.5v-352l317 195v-101l-317 -192v-510q0 -54 34 -71t146 -17h129q206 0 303 67q75 55 147 209h54l-101 -356h-1102z" />
<glyph unicode="&#x142;" horiz-adv-x="569" d="M39 1270v39q203 50 323 90l11 -6v-533l157 109v-90l-157 -109v-594q0 -38 3.5 -60t11.5 -38t28 -24.5t43.5 -13t68.5 -9.5v-31h-487v31q103 7 131.5 34.5t28.5 116.5v471l-160 -110v90l160 110v408q0 78 -18 103.5t-68 25.5q-24 0 -76 -10z" />
<glyph unicode="&#x143;" horiz-adv-x="1478" d="M25 0v39q54 6 85.5 14.5t56 24t35.5 46t16 72.5t5 111v901q-54 67 -90 88t-108 21v39h348l790 -989v696q0 157 -39 201q-24 27 -54 35.5t-107 17.5v39h485v-39q-61 -6 -88.5 -13t-46.5 -24q-32 -29 -46 -78.5t-14 -163.5v-1061h-36l-904 1125v-795q0 -66 5 -107t16 -71 t35 -47t54 -26.5t81 -16.5v-39h-479zM571 1473l301 303q28 28 45.5 37.5t40.5 9.5q34 0 53 -17.5t19 -48.5q0 -48 -61 -86l-316 -198h-82z" />
<glyph unicode="&#x144;" horiz-adv-x="1024" d="M33 815v35q149 43 280 92l17 -6v-160h2q145 166 295 166q117 0 179 -81.5t62 -233.5v-453q0 -82 24.5 -108.5t100.5 -34.5v-31h-426l2 31q76 6 101.5 44t25.5 140v408q0 107 -36.5 156.5t-112.5 49.5q-52 0 -97 -24t-114 -92v-566q0 -61 28 -85.5t105 -30.5v-31h-432v31 q77 6 102 38t25 124v497q0 76 -15 104.5t-57 28.5q-40 0 -59 -8zM391 1038l301 303q28 28 45.5 38t40.5 10q34 0 53 -17.5t19 -48.5q0 -47 -62 -86l-315 -199h-82z" />
<glyph unicode="&#x145;" horiz-adv-x="1478" d="M25 0v39q54 6 85.5 14.5t56 24t35.5 46t16 72.5t5 111v901q-54 67 -90 88t-108 21v39h348l790 -989v696q0 157 -39 201q-24 27 -54 35.5t-107 17.5v39h485v-39q-61 -6 -88.5 -13t-46.5 -24q-32 -29 -46 -78.5t-14 -163.5v-1061h-36l-904 1125v-795q0 -66 5 -107t16 -71 t35 -47t54 -26.5t81 -16.5v-39h-479zM594 -193q0 53 34 85t89 32q70 0 117 -50t47 -128q0 -93 -62.5 -180.5t-167.5 -138.5l-20 38q170 114 170 220q0 11 -8.5 18.5t-20.5 7.5q-7 0 -27 -4t-32 -4q-119 0 -119 104z" />
<glyph unicode="&#x146;" horiz-adv-x="1024" d="M33 815v35q149 43 280 92l17 -6v-160h2q145 166 295 166q117 0 179 -81.5t62 -233.5v-453q0 -82 24.5 -108.5t100.5 -34.5v-31h-426l2 31q76 6 101.5 44t25.5 140v408q0 107 -36.5 156.5t-112.5 49.5q-52 0 -97 -24t-114 -92v-566q0 -61 28 -85.5t105 -30.5v-31h-432v31 q77 6 102 38t25 124v497q0 76 -15 104.5t-57 28.5q-40 0 -59 -8zM379 -193q0 53 34 85t89 32q70 0 117 -50t47 -128q0 -93 -62.5 -180.5t-167.5 -138.5l-20 38q170 114 170 220q0 11 -8.5 18.5t-20.5 7.5q-7 0 -27 -4t-32 -4q-119 0 -119 104z" />
<glyph unicode="&#x147;" horiz-adv-x="1478" d="M25 0v39q54 6 85.5 14.5t56 24t35.5 46t16 72.5t5 111v901q-54 67 -90 88t-108 21v39h348l790 -989v696q0 157 -39 201q-24 27 -54 35.5t-107 17.5v39h485v-39q-61 -6 -88.5 -13t-46.5 -24q-32 -29 -46 -78.5t-14 -163.5v-1061h-36l-904 1125v-795q0 -66 5 -107t16 -71 t35 -47t54 -26.5t81 -16.5v-39h-479zM426 1815h72l245 -211l248 211h72l-254 -342h-131z" />
<glyph unicode="&#x148;" horiz-adv-x="1024" d="M33 815v35q149 43 280 92l17 -6v-160h2q145 166 295 166q117 0 179 -81.5t62 -233.5v-453q0 -82 24.5 -108.5t100.5 -34.5v-31h-426l2 31q76 6 101.5 44t25.5 140v408q0 107 -36.5 156.5t-112.5 49.5q-52 0 -97 -24t-114 -92v-566q0 -61 28 -85.5t105 -30.5v-31h-432v31 q77 6 102 38t25 124v497q0 76 -15 104.5t-57 28.5q-40 0 -59 -8zM195 1380h71l246 -211l248 211h71l-253 -342h-132z" />
<glyph unicode="&#x149;" horiz-adv-x="1208" d="M41 1321q0 52 33.5 84.5t87.5 32.5q69 0 116.5 -53t47.5 -130q0 -92 -63.5 -178t-166.5 -137l-18 39q168 115 168 219q0 11 -8.5 19t-20.5 8q-4 0 -14 -4q-24 -4 -41 -4q-57 0 -89 27.5t-32 76.5zM199 815v35q149 43 280 92l17 -6v-160h2q145 166 295 166 q117 0 179 -81.5t62 -233.5v-453q0 -82 24.5 -108.5t100.5 -34.5v-31h-426l2 31q76 6 101.5 44t25.5 140v408q0 107 -36.5 156.5t-112.5 49.5q-52 0 -97 -24t-114 -92v-566q0 -61 28 -85.5t105 -30.5v-31h-432v31q77 6 102 38t25 124v497q0 76 -15 104.5t-57 28.5 q-40 0 -59 -8z" />
<glyph unicode="&#x14a;" horiz-adv-x="1454" d="M33 1321v35h356v-246q72 151 171.5 215t225.5 64q117 0 215 -38.5t167 -105t117 -155.5t70.5 -189t22.5 -207q0 -96 -21 -196t-65.5 -196.5t-108 -171.5t-156 -121t-200.5 -46q-97 0 -159 52.5t-62 138.5q0 59 35 107t94 48q62 0 96.5 -39.5t34.5 -93.5q0 -12 -8 -46.5 t-8 -41.5q0 -22 11.5 -35.5t33.5 -13.5q114 0 187 163.5t73 434.5q0 300 -106 478.5t-295 178.5q-120 0 -219.5 -101t-137.5 -288v-678q0 -78 25.5 -136t77.5 -58h28v-33h-456v33q72 0 94 38.5t22 116.5v932q0 100 -28 150.5t-99 50.5h-28z" />
<glyph unicode="&#x14b;" horiz-adv-x="1032" d="M33 815v35q149 43 280 92l17 -6v-160h2q145 166 295 166q117 0 179 -81.5t62 -233.5v-627q0 -218 -89 -332t-259 -114q-83 0 -136.5 31.5t-53.5 80.5q0 34 24.5 57t59.5 23q47 0 98 -65q27 -33 45 -45.5t41 -12.5q21 0 41 11t29 26q17 30 22.5 80t5.5 168v715 q0 107 -36.5 156.5t-112.5 49.5q-52 0 -97 -24t-114 -92v-566q0 -61 28 -85.5t105 -30.5v-31h-432v31q77 6 102 38t25 124v497q0 76 -15 104.5t-57 28.5q-40 0 -59 -8z" />
<glyph unicode="&#x14c;" horiz-adv-x="1478" d="M70 684q0 312 185 506t484 194q148 0 273.5 -53.5t212.5 -147t135.5 -224t48.5 -281.5q0 -315 -187 -511t-483 -196q-298 0 -483.5 197t-185.5 516zM303 680q0 -374 184 -543q102 -92 254 -92q161 0 265 98q170 164 170 547q0 174 -49.5 312t-137.5 212q-118 97 -252 97 q-174 0 -293 -137q-65 -74 -103 -209.5t-38 -284.5zM420 1473v110h637v-110h-637z" />
<glyph unicode="&#x14d;" horiz-adv-x="1024" d="M59 467q0 214 127 344.5t334 130.5q191 0 317 -130t126 -339q0 -216 -128 -354.5t-333 -138.5q-188 0 -315.5 137.5t-127.5 349.5zM190 1038v111h637v-111h-637zM244 559q0 -262 108 -420q70 -102 185 -102q114 0 177.5 101t63.5 280q0 107 -26.5 204.5t-75.5 159.5 q-83 103 -195 103q-107 0 -172 -87t-65 -239z" />
<glyph unicode="&#x14e;" horiz-adv-x="1478" d="M70 684q0 312 185 506t484 194q148 0 273.5 -53.5t212.5 -147t135.5 -224t48.5 -281.5q0 -315 -187 -511t-483 -196q-298 0 -483.5 197t-185.5 516zM303 680q0 -374 184 -543q102 -92 254 -92q161 0 265 98q170 164 170 547q0 174 -49.5 312t-137.5 212q-118 97 -252 97 q-174 0 -293 -137q-65 -74 -103 -209.5t-38 -284.5zM449 1794h59q42 -199 229 -199q82 0 132.5 44.5t95.5 154.5h59q-37 -321 -291 -321q-142 0 -213 84t-71 237z" />
<glyph unicode="&#x14f;" horiz-adv-x="1024" d="M59 467q0 214 127 344.5t334 130.5q191 0 317 -130t126 -339q0 -216 -128 -354.5t-333 -138.5q-188 0 -315.5 137.5t-127.5 349.5zM225 1360h60q42 -199 229 -199q82 0 132 44.5t95 154.5h60q-37 -322 -291 -322q-142 0 -213.5 84.5t-71.5 237.5zM244 559 q0 -262 108 -420q70 -102 185 -102q114 0 177.5 101t63.5 280q0 107 -26.5 204.5t-75.5 159.5q-83 103 -195 103q-107 0 -172 -87t-65 -239z" />
<glyph unicode="&#x150;" horiz-adv-x="1478" d="M70 684q0 312 185 506t484 194q148 0 273.5 -53.5t212.5 -147t135.5 -224t48.5 -281.5q0 -315 -187 -511t-483 -196q-298 0 -483.5 197t-185.5 516zM303 680q0 -374 184 -543q102 -92 254 -92q161 0 265 98q170 164 170 547q0 174 -49.5 312t-137.5 212q-118 97 -252 97 q-174 0 -293 -137q-65 -74 -103 -209.5t-38 -284.5zM350 1473l299 303q29 29 47.5 38t40.5 9q31 0 50.5 -16.5t19.5 -45.5q0 -55 -59 -92l-316 -196h-82zM670 1473l299 303q29 29 47.5 38t40.5 9q31 0 50 -16.5t19 -45.5q0 -55 -59 -92l-315 -196h-82z" />
<glyph unicode="&#x151;" horiz-adv-x="1024" d="M59 467q0 214 127 344.5t334 130.5q191 0 317 -130t126 -339q0 -216 -128 -354.5t-333 -138.5q-188 0 -315.5 137.5t-127.5 349.5zM152 1038l299 303q29 29 47.5 38.5t40.5 9.5q31 0 50 -16.5t19 -45.5q0 -55 -59 -92l-316 -197h-81zM244 559q0 -262 108 -420 q70 -102 185 -102q114 0 177.5 101t63.5 280q0 107 -26.5 204.5t-75.5 159.5q-83 103 -195 103q-107 0 -172 -87t-65 -239zM471 1038l299 303q29 29 47.5 38.5t40.5 9.5q31 0 50.5 -16.5t19.5 -45.5q0 -54 -60 -92l-315 -197h-82z" />
<glyph unicode="&#x152;" horiz-adv-x="1820" d="M61 674q0 391 265 583q153 111 374 111q36 0 134 -6q111 -6 231 -6h651v-289h-47q-10 71 -26.5 111t-55 64.5t-94 32t-154.5 7.5h-108q-84 0 -114 -16t-30 -56v-460h207q157 0 211 38.5t66 161.5h43v-479h-43q-13 119 -58 161t-153 42h-273v-484q0 -61 25 -86.5t98 -25.5 h232q101 0 176.5 61t144.5 205h49l-90 -344h-702q-62 0 -196.5 -6t-180.5 -6q-122 0 -240 52.5t-190 139.5q-152 187 -152 494zM291 674q0 -278 86 -432q101 -179 301 -179q108 0 156.5 50t48.5 159v803q0 114 -44.5 166.5t-148.5 52.5q-188 0 -293.5 -161.5t-105.5 -458.5z " />
<glyph unicode="&#x153;" horiz-adv-x="1478" d="M61 446q0 121 44.5 231t119.5 175q104 90 250 90q95 0 165 -35t146 -121q63 86 122.5 121t144.5 35q78 0 146.5 -33.5t111.5 -93.5q35 -47 49.5 -100.5t19.5 -147.5h-520q10 -231 74.5 -340.5t189.5 -109.5q74 0 134.5 41t132.5 139l22 -12q-80 -166 -163 -235.5 t-203 -69.5q-95 0 -156 45t-107 149q-58 -105 -127 -149.5t-174 -44.5q-186 0 -304 130.5t-118 335.5zM246 522q0 -116 20.5 -220t55.5 -165q61 -104 170 -104q103 0 156.5 93.5t53.5 272.5q0 484 -239 484q-41 0 -82 -20t-70 -54q-65 -75 -65 -287zM858 629h328v55 q0 86 -46 142.5t-116 56.5q-163 0 -166 -254z" />
<glyph unicode="&#x154;" horiz-adv-x="1366" d="M35 0v39q62 5 93 12.5t51 32.5t25 61.5t5 108.5v874q0 50 -3.5 77.5t-12 50.5t-29.5 33.5t-50 17t-79 10.5v39h557q280 0 428 -121q49 -39 74.5 -106.5t25.5 -139.5q0 -280 -370 -336l409 -518q42 -54 81 -72t112 -24v-39h-332l-488 631l-114 -4v-398q0 -50 4 -79.5 t14 -51.5t32 -33t51.5 -17t80.5 -9v-39h-565zM418 702q146 3 218.5 17t143.5 53q55 30 86 93.5t31 140.5q0 138 -92.5 206t-282.5 68q-56 0 -80 -17.5t-24 -68.5v-492zM440 1473l301 303q28 28 45.5 37.5t40.5 9.5q34 0 53 -17.5t19 -48.5q0 -48 -61 -86l-316 -198h-82z" />
<glyph unicode="&#x155;" horiz-adv-x="681" d="M10 0v31q98 19 122 42t24 99v512q0 67 -16 95t-54 28q-33 0 -72 -8v32q118 38 303 111l11 -4v-188q77 110 129 151t116 41q53 0 83 -28.5t30 -79.5q0 -43 -21.5 -68t-58.5 -25q-38 0 -82 41q-36 31 -53 31q-43 0 -93 -59t-50 -109v-461q0 -88 35 -118t139 -35v-31h-492z M135 1038l301 303q28 28 45.5 38t40.5 10q34 0 53 -17.5t19 -48.5q0 -47 -62 -86l-315 -199h-82z" />
<glyph unicode="&#x156;" horiz-adv-x="1366" d="M35 0v39q62 5 93 12.5t51 32.5t25 61.5t5 108.5v874q0 50 -3.5 77.5t-12 50.5t-29.5 33.5t-50 17t-79 10.5v39h557q280 0 428 -121q49 -39 74.5 -106.5t25.5 -139.5q0 -280 -370 -336l409 -518q42 -54 81 -72t112 -24v-39h-332l-488 631l-114 -4v-398q0 -50 4 -79.5 t14 -51.5t32 -33t51.5 -17t80.5 -9v-39h-565zM418 702q146 3 218.5 17t143.5 53q55 30 86 93.5t31 140.5q0 138 -92.5 206t-282.5 68q-56 0 -80 -17.5t-24 -68.5v-492zM573 -193q0 53 34 85t89 32q70 0 117 -50t47 -128q0 -93 -62 -181t-167 -138l-21 38q170 114 170 220 q0 11 -8 18.5t-20 7.5q-7 0 -27.5 -4t-32.5 -4q-119 0 -119 104z" />
<glyph unicode="&#x157;" horiz-adv-x="681" d="M10 0v31q98 19 122 42t24 99v512q0 67 -16 95t-54 28q-33 0 -72 -8v32q118 38 303 111l11 -4v-188q77 110 129 151t116 41q53 0 83 -28.5t30 -79.5q0 -43 -21.5 -68t-58.5 -25q-38 0 -82 41q-36 31 -53 31q-43 0 -93 -59t-50 -109v-461q0 -88 35 -118t139 -35v-31h-492z M184 -193q0 53 34 85t89 32q70 0 117 -50t47 -128q0 -93 -62 -181t-167 -138l-21 38q170 114 170 220q0 11 -8.5 18.5t-20.5 7.5q-7 0 -27 -4t-32 -4q-119 0 -119 104z" />
<glyph unicode="&#x158;" horiz-adv-x="1366" d="M35 0v39q62 5 93 12.5t51 32.5t25 61.5t5 108.5v874q0 50 -3.5 77.5t-12 50.5t-29.5 33.5t-50 17t-79 10.5v39h557q280 0 428 -121q49 -39 74.5 -106.5t25.5 -139.5q0 -280 -370 -336l409 -518q42 -54 81 -72t112 -24v-39h-332l-488 631l-114 -4v-398q0 -50 4 -79.5 t14 -51.5t32 -33t51.5 -17t80.5 -9v-39h-565zM276 1815h72l246 -211l248 211h71l-254 -342h-131zM418 702q146 3 218.5 17t143.5 53q55 30 86 93.5t31 140.5q0 138 -92.5 206t-282.5 68q-56 0 -80 -17.5t-24 -68.5v-492z" />
<glyph unicode="&#x159;" horiz-adv-x="681" d="M10 0v31q98 19 122 42t24 99v512q0 67 -16 95t-54 28q-33 0 -72 -8v32q118 38 303 111l11 -4v-188q77 110 129 151t116 41q53 0 83 -28.5t30 -79.5q0 -43 -21.5 -68t-58.5 -25q-38 0 -82 41q-36 31 -53 31q-43 0 -93 -59t-50 -109v-461q0 -88 35 -118t139 -35v-31h-492z M20 1380h72l246 -211l248 211h71l-254 -342h-131z" />
<glyph unicode="&#x15a;" horiz-adv-x="1138" d="M88 408h45q71 -186 173.5 -274.5t248.5 -88.5q107 0 175.5 64t68.5 165q0 96 -60 162q-99 107 -344 238q-250 133 -250 352q0 164 100.5 261t256.5 97q109 0 215 -45q56 -24 90 -24q53 0 65 69h43l46 -436h-52q-36 129 -84 193q-124 159 -297 159q-94 0 -150 -54 t-56 -140q0 -50 21.5 -91.5t83.5 -90t103 -74.5t150 -89q5 -3 8 -5q165 -97 241.5 -192t76.5 -210q0 -170 -118.5 -276.5t-299.5 -106.5q-134 0 -242 47q-56 23 -96 23q-24 0 -40.5 -18.5t-16.5 -49.5h-46zM412 1473l301 303q28 28 45.5 37.5t40.5 9.5q34 0 52.5 -17.5 t18.5 -48.5q0 -48 -61 -86l-315 -198h-82z" />
<glyph unicode="&#x15b;" horiz-adv-x="796" d="M104 688q0 119 77 185.5t206 66.5q90 0 137 -22q39 -17 58 -17q13 0 32 21h23l10 -279h-31q-35 138 -87 195t-144 57q-70 0 -112 -35t-42 -104q0 -36 23.5 -75.5t64.5 -64.5l213 -129q102 -63 141.5 -114.5t39.5 -136.5q0 -103 -85 -179.5t-202 -76.5q-97 0 -150 18 q-55 18 -94 18q-35 0 -49 -24h-27v321h33q33 -150 94 -219t166 -69q76 0 123 43t47 108q0 95 -108 154l-111 61q-246 136 -246 297zM240 1038l301 303q28 28 45.5 38t40.5 10q34 0 52.5 -17.5t18.5 -48.5q0 -48 -61 -86l-315 -199h-82z" />
<glyph unicode="&#x15c;" horiz-adv-x="1138" d="M88 408h45q71 -186 173.5 -274.5t248.5 -88.5q107 0 175.5 64t68.5 165q0 96 -60 162q-99 107 -344 238q-250 133 -250 352q0 164 100.5 261t256.5 97q109 0 215 -45q56 -24 90 -24q53 0 65 69h43l46 -436h-52q-36 129 -84 193q-124 159 -297 159q-94 0 -150 -54 t-56 -140q0 -50 21.5 -91.5t83.5 -90t103 -74.5t150 -89q5 -3 8 -5q165 -97 241.5 -192t76.5 -210q0 -170 -118.5 -276.5t-299.5 -106.5q-134 0 -242 47q-56 23 -96 23q-24 0 -40.5 -18.5t-16.5 -49.5h-46zM236 1473l253 342h127l256 -342h-69l-250 210l-248 -210h-69z" />
<glyph unicode="&#x15d;" horiz-adv-x="796" d="M82 1038l254 342h127l256 -342h-70l-250 211l-247 -211h-70zM104 688q0 119 77 185.5t206 66.5q90 0 137 -22q39 -17 58 -17q13 0 32 21h23l10 -279h-31q-35 138 -87 195t-144 57q-70 0 -112 -35t-42 -104q0 -36 23.5 -75.5t64.5 -64.5l213 -129q102 -63 141.5 -114.5 t39.5 -136.5q0 -103 -85 -179.5t-202 -76.5q-97 0 -150 18q-55 18 -94 18q-35 0 -49 -24h-27v321h33q33 -150 94 -219t166 -69q76 0 123 43t47 108q0 95 -108 154l-111 61q-246 136 -246 297z" />
<glyph unicode="&#x15e;" horiz-adv-x="1138" d="M88 408h45q71 -186 173.5 -274.5t248.5 -88.5q107 0 175.5 64t68.5 165q0 96 -60 162q-99 107 -344 238q-250 133 -250 352q0 164 100.5 261t256.5 97q109 0 215 -45q56 -24 90 -24q53 0 65 69h43l46 -436h-52q-36 129 -84 193q-124 159 -297 159q-94 0 -150 -54 t-56 -140q0 -50 21.5 -91.5t83.5 -90t103 -74.5t150 -89q5 -3 8 -5q165 -97 241.5 -192t76.5 -210q0 -165 -113.5 -271t-286.5 -112l-41 -104q30 6 53 6q84 0 130.5 -37t46.5 -104q0 -80 -69 -126t-187 -46q-96 0 -172 32l28 64q76 -25 133 -25q52 0 82.5 24.5t30.5 65.5 q0 40 -25 57t-84 17q-36 0 -57 -8l-14 10l74 176q-105 6 -189 45q-56 23 -96 23q-24 0 -40.5 -18.5t-16.5 -49.5h-46z" />
<glyph unicode="&#x15f;" horiz-adv-x="796" d="M104 688q0 119 77 185.5t206 66.5q90 0 137 -22q39 -17 58 -17q13 0 32 21h23l10 -279h-31q-35 138 -87 195t-144 57q-70 0 -112 -35t-42 -104q0 -36 23.5 -75.5t64.5 -64.5l213 -129q102 -63 141.5 -114.5t39.5 -136.5q0 -98 -79.5 -173t-189.5 -83l-43 -113q30 6 54 6 q83 0 129.5 -37t46.5 -104q0 -80 -69 -126t-187 -46q-96 0 -172 32l28 64q76 -25 134 -25q52 0 82 24.5t30 65.5q0 40 -25 57t-83 17q-37 0 -58 -8l-14 10l76 185q-61 4 -97 16q-55 18 -94 18q-35 0 -49 -24h-27v321h33q33 -150 94 -219t166 -69q76 0 123 43t47 108 q0 95 -108 154l-111 61q-246 136 -246 297z" />
<glyph unicode="&#x160;" horiz-adv-x="1138" d="M88 408h45q71 -186 173.5 -274.5t248.5 -88.5q107 0 175.5 64t68.5 165q0 96 -60 162q-99 107 -344 238q-250 133 -250 352q0 164 100.5 261t256.5 97q109 0 215 -45q56 -24 90 -24q53 0 65 69h43l46 -436h-52q-36 129 -84 193q-124 159 -297 159q-94 0 -150 -54 t-56 -140q0 -50 21.5 -91.5t83.5 -90t103 -74.5t150 -89q5 -3 8 -5q165 -97 241.5 -192t76.5 -210q0 -170 -118.5 -276.5t-299.5 -106.5q-134 0 -242 47q-56 23 -96 23q-24 0 -40.5 -18.5t-16.5 -49.5h-46zM242 1892h71l246 -211l248 211h72l-254 -342h-131z" />
<glyph unicode="&#x161;" horiz-adv-x="796" d="M78 688q0 119 77 185.5t205 66.5q91 0 138 -22q39 -17 57 -17q14 0 33 21h22l11 -279h-31q-35 138 -87.5 195t-144.5 57q-69 0 -111 -35t-42 -104q0 -36 23.5 -75.5t64.5 -64.5l213 -129q102 -62 141 -114t39 -137q0 -103 -85 -179.5t-202 -76.5q-96 0 -149 18 q-55 18 -94 18q-36 0 -50 -24h-26v321h33q33 -150 94 -219t166 -69q76 0 123 43t47 108q0 95 -109 154l-110 61q-246 136 -246 297zM78 1380h72l245 -211l248 211h72l-254 -342h-131z" />
<glyph unicode="&#x162;" horiz-adv-x="1251" d="M35 1008l14 348h1151l14 -348h-49q-18 88 -37 136.5t-56.5 78.5t-86.5 38.5t-135 8.5h-121v-1043q0 -116 35 -149t162 -39v-39h-269l-51 -133q30 6 53 6q84 0 130.5 -37t46.5 -104q0 -80 -69 -126t-187 -46q-96 0 -172 32l28 64q76 -25 133 -25q52 0 82.5 24.5t30.5 65.5 q0 40 -25 57t-84 17q-36 0 -57 -8l-14 10l84 203h-258v39q46 3 73.5 6.5t51.5 13.5t35.5 22.5t19.5 37.5t10 55t2 78v1018h-123q-57 0 -95.5 -3.5t-72.5 -14.5t-55 -28.5t-38.5 -48t-29 -70t-22.5 -97.5h-49z" />
<glyph unicode="&#x163;" horiz-adv-x="569" d="M27 870q0 18 34 39q80 47 199 219q4 7 19 27t22 31q14 0 14 -27v-237h207v-66h-207v-586q0 -98 25 -141t82 -43q34 0 61.5 16t61.5 56l26 -23q-99 -152 -243 -155l-43 -113q30 6 53 6q83 0 129.5 -37t46.5 -104q0 -80 -69 -126t-187 -46q-96 0 -172 32l29 64 q76 -25 133 -25q52 0 82 24.5t30 65.5q0 40 -25 57t-83 17q-36 0 -57 -8l-15 10l80 193q-117 44 -117 250v616h-108q-8 5 -8 14z" />
<glyph unicode="&#x164;" horiz-adv-x="1251" d="M35 1008l14 348h1151l14 -348h-49q-18 88 -37 136.5t-56.5 78.5t-86.5 38.5t-135 8.5h-121v-1043q0 -116 35 -149t162 -39v-39h-598v39q46 3 73.5 6.5t51.5 13.5t35.5 22.5t19.5 37.5t10 55t2 78v1018h-123q-57 0 -95.5 -3.5t-72.5 -14.5t-55 -28.5t-38.5 -48t-29 -70 t-22.5 -97.5h-49zM307 1815h72l246 -211l247 211h72l-254 -342h-131z" />
<glyph unicode="&#x165;" horiz-adv-x="645" d="M27 870q0 18 34 39q80 47 199 219q4 7 19 27t22 31q14 0 14 -27v-237h105v-66h-105v-586q0 -98 25 -141t82 -43q34 0 61.5 16t61.5 56l26 -23q-99 -155 -247 -155q-181 0 -181 260v616h-108q-8 5 -8 14zM397 1319q0 52 33.5 84.5t87.5 32.5q69 0 116.5 -53t47.5 -130 q0 -92 -63 -178t-166 -137l-19 39q168 115 168 219q0 11 -8.5 19t-20.5 8q-4 0 -14 -4q-30 -5 -41 -5q-57 0 -89 28t-32 77z" />
<glyph unicode="&#x166;" horiz-adv-x="1255" d="M35 1008l14 348h1151l14 -348h-49q-18 88 -37 136.5t-56.5 78.5t-86.5 38.5t-135 8.5h-121v-541h258v-90h-258v-412q0 -116 35 -149t162 -39v-39h-598v39q46 3 73.5 6.5t51.5 13.5t35.5 22.5t19.5 37.5t10 55t2 78v387h-262v90h262v541h-123q-57 0 -95.5 -3.5 t-72.5 -14.5t-55 -28.5t-38.5 -48t-29 -70t-22.5 -97.5h-49z" />
<glyph unicode="&#x167;" horiz-adv-x="571" d="M23 481v90h122v295h-100q-16 0 -16 15q0 10 9 19.5t30 22.5t30 21q61 52 129 146l76 106q14 0 14 -25v-239h207v-66h-207v-295h199v-90h-199v-205q0 -100 27 -140t80 -40q36 0 62 16.5t61 55.5l26 -23q-97 -155 -243 -155q-45 0 -78.5 15t-53.5 39.5t-32 60.5t-16.5 72 t-4.5 81v223h-122z" />
<glyph unicode="&#x168;" horiz-adv-x="1478" d="M29 1317v39h579v-39q-65 -6 -99 -14t-55 -30.5t-26.5 -54.5t-5.5 -94v-639q0 -134 16.5 -204.5t73.5 -126.5q96 -93 262 -93q98 0 179.5 32t131.5 89q48 58 62 126.5t14 203.5v539q0 84 -6 130t-28 77.5t-57.5 43t-100.5 15.5v39h475v-39q-66 -6 -103 -19t-58 -45 t-26.5 -74.5t-5.5 -121.5v-522q0 -159 -22 -249.5t-88 -164.5q-132 -150 -414 -150q-221 0 -348 95q-166 123 -166 444v635q0 55 -5.5 83.5t-26.5 49t-54.5 27.5t-97.5 12zM418 1522q23 100 76.5 153.5t130.5 53.5q70 0 143 -37l49 -25q60 -31 109 -31q35 0 58 22.5t50 80.5 h60q-32 -117 -81.5 -167t-133.5 -50q-39 0 -71.5 9.5t-94.5 39.5l-47 22q-51 23 -84 23q-71 0 -105 -94h-59z" />
<glyph unicode="&#x169;" horiz-adv-x="1024" d="M18 893v29h299v-662q0 -70 42.5 -116t103.5 -46q99 0 172 64q27 24 37 46t10 73v473q0 80 -28.5 103.5t-123.5 29.5v35h324v-703q0 -71 23 -94t94 -23h12v-28q-170 -47 -281 -92l-10 6v168h-4q-47 -64 -103.5 -105.5t-102 -56t-87.5 -14.5q-117 0 -183.5 71t-66.5 191 v514q0 76 -26.5 104t-100.5 33zM154 1090q23 100 76.5 153t129.5 53q73 0 144 -36l49 -25q60 -31 109 -31q35 0 58 22.5t50 80.5h59q-32 -117 -81.5 -167t-133.5 -50q-39 0 -71 9.5t-94 39.5l-48 22q-51 23 -84 23q-70 0 -104 -94h-59z" />
<glyph unicode="&#x16a;" horiz-adv-x="1478" d="M29 1317v39h579v-39q-65 -6 -99 -14t-55 -30.5t-26.5 -54.5t-5.5 -94v-639q0 -134 16.5 -204.5t73.5 -126.5q96 -93 262 -93q98 0 179.5 32t131.5 89q48 58 62 126.5t14 203.5v539q0 84 -6 130t-28 77.5t-57.5 43t-100.5 15.5v39h475v-39q-66 -6 -103 -19t-58 -45 t-26.5 -74.5t-5.5 -121.5v-522q0 -159 -22 -249.5t-88 -164.5q-132 -150 -414 -150q-221 0 -348 95q-166 123 -166 444v635q0 55 -5.5 83.5t-26.5 49t-54.5 27.5t-97.5 12zM408 1473v110h636v-110h-636z" />
<glyph unicode="&#x16b;" horiz-adv-x="1024" d="M18 893v29h299v-662q0 -70 42.5 -116t103.5 -46q99 0 172 64q27 24 37 46t10 73v473q0 80 -28.5 103.5t-123.5 29.5v35h324v-703q0 -71 23 -94t94 -23h12v-28q-170 -47 -281 -92l-10 6v168h-4q-47 -64 -103.5 -105.5t-102 -56t-87.5 -14.5q-117 0 -183.5 71t-66.5 191 v514q0 76 -26.5 104t-100.5 33zM193 1038v111h636v-111h-636z" />
<glyph unicode="&#x16c;" horiz-adv-x="1478" d="M29 1317v39h579v-39q-65 -6 -99 -14t-55 -30.5t-26.5 -54.5t-5.5 -94v-639q0 -134 16.5 -204.5t73.5 -126.5q96 -93 262 -93q98 0 179.5 32t131.5 89q48 58 62 126.5t14 203.5v539q0 84 -6 130t-28 77.5t-57.5 43t-100.5 15.5v39h475v-39q-66 -6 -103 -19t-58 -45 t-26.5 -74.5t-5.5 -121.5v-522q0 -159 -22 -249.5t-88 -164.5q-132 -150 -414 -150q-221 0 -348 95q-166 123 -166 444v635q0 55 -5.5 83.5t-26.5 49t-54.5 27.5t-97.5 12zM473 1794h59q42 -199 230 -199q82 0 132 44.5t95 154.5h60q-37 -321 -291 -321q-142 0 -213.5 84 t-71.5 237z" />
<glyph unicode="&#x16d;" horiz-adv-x="1024" d="M18 893v29h299v-662q0 -70 42.5 -116t103.5 -46q99 0 172 64q27 24 37 46t10 73v473q0 80 -28.5 103.5t-123.5 29.5v35h324v-703q0 -71 23 -94t94 -23h12v-28q-170 -47 -281 -92l-10 6v168h-4q-47 -64 -103.5 -105.5t-102 -56t-87.5 -14.5q-117 0 -183.5 71t-66.5 191 v514q0 76 -26.5 104t-100.5 33zM205 1360h59q42 -199 230 -199q82 0 132 44.5t95 154.5h59q-37 -322 -291 -322q-142 0 -213 84.5t-71 237.5z" />
<glyph unicode="&#x16e;" horiz-adv-x="1478" d="M29 1317v39h579v-39q-65 -6 -99 -14t-55 -30.5t-26.5 -54.5t-5.5 -94v-639q0 -134 16.5 -204.5t73.5 -126.5q96 -93 262 -93q98 0 179.5 32t131.5 89q48 58 62 126.5t14 203.5v539q0 84 -6 130t-28 77.5t-57.5 43t-100.5 15.5v39h475v-39q-66 -6 -103 -19t-58 -45 t-26.5 -74.5t-5.5 -121.5v-522q0 -159 -22 -249.5t-88 -164.5q-132 -150 -414 -150q-221 0 -348 95q-166 123 -166 444v635q0 55 -5.5 83.5t-26.5 49t-54.5 27.5t-97.5 12zM545 1636q0 85 60.5 144t146.5 59q82 0 141 -61t59 -144q0 -85 -60.5 -143.5t-146.5 -58.5 q-85 0 -142.5 59t-57.5 145zM614 1636q0 -57 38.5 -96t92.5 -39q58 0 98 39t40 96q0 55 -40.5 94t-97.5 39q-53 0 -92 -39.5t-39 -93.5z" />
<glyph unicode="&#x16f;" horiz-adv-x="1024" d="M18 893v29h299v-662q0 -70 42.5 -116t103.5 -46q99 0 172 64q27 24 37 46t10 73v473q0 80 -28.5 103.5t-123.5 29.5v35h324v-703q0 -71 23 -94t94 -23h12v-28q-170 -47 -281 -92l-10 6v168h-4q-47 -64 -103.5 -105.5t-102 -56t-87.5 -14.5q-117 0 -183.5 71t-66.5 191 v514q0 76 -26.5 104t-100.5 33zM307 1253q0 85 60.5 144t146.5 59q82 0 141.5 -61t59.5 -144q0 -85 -60.5 -143.5t-146.5 -58.5q-85 0 -143 59t-58 145zM377 1253q0 -57 38.5 -96t92.5 -39q58 0 97.5 39t39.5 96q0 55 -40 94t-97 39q-53 0 -92 -39.5t-39 -93.5z" />
<glyph unicode="&#x170;" horiz-adv-x="1478" d="M29 1317v39h579v-39q-65 -6 -99 -14t-55 -30.5t-26.5 -54.5t-5.5 -94v-639q0 -134 16.5 -204.5t73.5 -126.5q96 -93 262 -93q98 0 179.5 32t131.5 89q48 58 62 126.5t14 203.5v539q0 84 -6 130t-28 77.5t-57.5 43t-100.5 15.5v39h475v-39q-66 -6 -103 -19t-58 -45 t-26.5 -74.5t-5.5 -121.5v-522q0 -159 -22 -249.5t-88 -164.5q-132 -150 -414 -150q-221 0 -348 95q-166 123 -166 444v635q0 55 -5.5 83.5t-26.5 49t-54.5 27.5t-97.5 12zM373 1473l299 303q29 29 47.5 38t40.5 9q31 0 50 -16.5t19 -45.5q0 -55 -59 -92l-315 -196h-82z M692 1473l299 303q29 29 47.5 38t40.5 9q31 0 50.5 -16.5t19.5 -45.5q0 -55 -59 -92l-316 -196h-82z" />
<glyph unicode="&#x171;" horiz-adv-x="1024" d="M18 893v29h299v-662q0 -70 42.5 -116t103.5 -46q99 0 172 64q27 24 37 46t10 73v473q0 80 -28.5 103.5t-123.5 29.5v35h324v-703q0 -71 23 -94t94 -23h12v-28q-170 -47 -281 -92l-10 6v168h-4q-47 -64 -103.5 -105.5t-102 -56t-87.5 -14.5q-117 0 -183.5 71t-66.5 191 v514q0 76 -26.5 104t-100.5 33zM113 1038l299 303q29 29 47.5 38.5t40.5 9.5q31 0 50 -16.5t19 -45.5q0 -55 -59 -92l-315 -197h-82zM432 1038l299 303q29 29 47.5 38.5t40.5 9.5q31 0 50.5 -16.5t19.5 -45.5q0 -54 -60 -92l-315 -197h-82z" />
<glyph unicode="&#x172;" horiz-adv-x="1478" d="M29 1317v39h579v-39q-65 -6 -99 -14t-55 -30.5t-26.5 -54.5t-5.5 -94v-639q0 -134 16.5 -204.5t73.5 -126.5q96 -93 262 -93q98 0 179.5 32t131.5 89q48 58 62 126.5t14 203.5v539q0 84 -6 130t-28 77.5t-57.5 43t-100.5 15.5v39h475v-39q-66 -6 -103 -19t-58 -45 t-26.5 -74.5t-5.5 -121.5v-522q0 -159 -22 -249.5t-88 -164.5q-95 -112 -279 -139q-67 -61 -67 -125q0 -80 77 -80q68 0 146 73l41 -32q-56 -85 -107.5 -120.5t-120.5 -35.5q-67 0 -109 40.5t-42 111.5q0 90 76 157h-29q-221 0 -348 95q-166 123 -166 444v635 q0 55 -5.5 83.5t-26.5 49t-54.5 27.5t-97.5 12z" />
<glyph unicode="&#x173;" horiz-adv-x="1024" d="M18 893v29h299v-662q0 -70 42.5 -116t103.5 -46q99 0 172 64q27 24 37 46t10 73v473q0 80 -28.5 103.5t-123.5 29.5v35h324v-703q0 -71 23 -94t94 -23h12v-28q-77 -20 -182 -56q-90 -73 -90 -143q0 -80 77 -80q67 0 146 74l41 -33q-56 -85 -107 -120t-120 -35 q-68 0 -110 40.5t-42 110.5q0 101 96 176v148h-4q-47 -64 -103.5 -105.5t-102 -56t-87.5 -14.5q-117 0 -183.5 71t-66.5 191v514q0 76 -26.5 104t-100.5 33z" />
<glyph unicode="&#x174;" horiz-adv-x="1933" d="M10 1317v39h500v-39q-76 -1 -103.5 -16t-27.5 -48q0 -35 22 -96l295 -770l213 580l-57 153q-27 71 -44.5 107t-42 57.5t-49.5 26.5t-73 6v39h543v-39q-76 -1 -117 -20t-41 -52q0 -24 35 -119l293 -745l258 694q35 96 35 158q0 42 -33.5 62.5t-110.5 21.5v39h404v-39 q-82 -15 -111.5 -39.5t-58.5 -103.5q-167 -452 -227.5 -624t-190.5 -573h-31q-120 337 -327 867l-316 -867h-31q-70 208 -209 587.5t-184 506.5q-51 147 -93 196t-120 50zM647 1473l254 342h127l256 -342h-70l-249 210l-248 -210h-70z" />
<glyph unicode="&#x175;" horiz-adv-x="1478" d="M43 891v31h369v-31q-54 -6 -74.5 -21t-20.5 -47q0 -29 13 -61l202 -535l187 408l-41 115q-29 82 -56 108.5t-85 32.5v31h415v-31q-71 -10 -94.5 -24.5t-23.5 -47.5q0 -37 34 -123l172 -458l185 454q35 84 35 137q0 25 -19.5 38.5t-71.5 23.5v31h252v-31 q-30 -10 -44.5 -29.5t-39.5 -81.5l-282 -708q-25 -61 -36 -81t-22 -20q-10 0 -17.5 13.5t-31.5 74.5l-186 484l-230 -492q-38 -80 -51 -80q-17 0 -53 90l-276 701q-31 80 -51.5 103t-57.5 26zM444 1038l254 342h127l256 -342h-69l-250 211l-248 -211h-70z" />
<glyph unicode="&#x176;" horiz-adv-x="1478" d="M45 1317v39h571v-39l-49 -2q-96 -3 -96 -53q0 -44 37 -97l299 -452l297 454q29 45 29 86q-2 34 -32 48.5t-108 15.5v39h447v-39q-89 -7 -142 -51t-141 -179l-303 -466v-394q0 -41 3.5 -69t13.5 -49t23.5 -33t39.5 -20t55 -11.5t76 -5.5v-39h-627v39q50 3 79 7t55 13.5 t38 22t21 37.5t11.5 55t2.5 78v350l-268 393q-97 143 -150 207.5t-91.5 88.5t-90.5 26zM422 1473l254 342h127l256 -342h-70l-250 210l-247 -210h-70z" />
<glyph unicode="&#x177;" horiz-adv-x="1024" d="M29 893v29h420v-31q-66 -3 -91.5 -15t-25.5 -40q0 -21 26 -84l230 -512l198 565q9 21 9 37q0 49 -95 49v31h273v-31q-37 -5 -59.5 -27t-43.5 -78l-307 -837q-79 -218 -160 -306.5t-198 -88.5q-65 0 -104.5 33t-39.5 85q0 38 26 66.5t63 28.5q56 0 106 -27q27 -14 53 -14 q42 0 103 90q29 41 55.5 117t26.5 104q0 6 -2.5 16t-8 25t-10.5 27t-15 34t-15.5 33t-18 37t-16.5 35l-271 577q-27 60 -108 72zM193 1038l253 342h127l256 -342h-69l-250 211l-248 -211h-69z" />
<glyph unicode="&#x178;" horiz-adv-x="1478" d="M45 1317v39h571v-39l-49 -2q-96 -3 -96 -53q0 -44 37 -97l299 -452l297 454q29 45 29 86q-2 34 -32 48.5t-108 15.5v39h447v-39q-89 -7 -142 -51t-141 -179l-303 -466v-394q0 -41 3.5 -69t13.5 -49t23.5 -33t39.5 -20t55 -11.5t76 -5.5v-39h-627v39q50 3 79 7t55 13.5 t38 22t21 37.5t11.5 55t2.5 78v350l-268 393q-97 143 -150 207.5t-91.5 88.5t-90.5 26zM451 1686q0 41 29.5 70.5t70.5 29.5t71.5 -31t30.5 -72t-30.5 -70.5t-73.5 -29.5q-41 0 -69.5 30t-28.5 73zM858 1686q0 41 29.5 70.5t70.5 29.5t72 -31t31 -72t-31 -70.5t-74 -29.5 q-41 0 -69.5 30t-28.5 73z" />
<glyph unicode="&#x179;" horiz-adv-x="1253" d="M20 0v31l895 1247h-438q-202 0 -274 -72q-38 -39 -53.5 -76.5t-30.5 -123.5h-53l43 350h1075v-31l-885 -1247h516q161 0 240 57q47 32 69 76.5t54 148.5h47l-51 -360h-1154zM487 1473l301 303q28 28 45.5 37.5t40.5 9.5q34 0 53 -17.5t19 -48.5q0 -48 -61 -86l-316 -198 h-82z" />
<glyph unicode="&#x17a;" horiz-adv-x="909" d="M55 0v31l545 829h-276q-97 0 -131.5 -34t-47.5 -146h-36l8 242h708v-31l-551 -830h273q171 0 217 56q20 24 29 54t26 116l37 -8l-31 -279h-770zM315 1038l301 303q28 28 45.5 38t40.5 10q34 0 53 -17.5t19 -48.5q0 -48 -61 -86l-316 -199h-82z" />
<glyph unicode="&#x17b;" horiz-adv-x="1253" d="M20 0v31l895 1247h-438q-202 0 -274 -72q-38 -39 -53.5 -76.5t-30.5 -123.5h-53l43 350h1075v-31l-885 -1247h516q161 0 240 57q47 32 69 76.5t54 148.5h47l-51 -360h-1154zM553 1606q0 43 27.5 72.5t72.5 29.5q46 0 74.5 -29t28.5 -73q0 -43 -30.5 -72t-72.5 -29 q-41 0 -70.5 30t-29.5 71z" />
<glyph unicode="&#x17c;" horiz-adv-x="909" d="M55 0v31l545 829h-276q-97 0 -131.5 -34t-47.5 -146h-36l8 242h708v-31l-551 -830h273q171 0 217 56q20 24 29 54t26 116l37 -8l-31 -279h-770zM385 1171q0 43 28 73t72 30q46 0 74.5 -29.5t28.5 -73.5q0 -43 -30.5 -71.5t-72.5 -28.5q-41 0 -70.5 29.5t-29.5 70.5z" />
<glyph unicode="&#x17d;" horiz-adv-x="1253" d="M20 0v31l895 1247h-438q-202 0 -274 -72q-38 -39 -53.5 -76.5t-30.5 -123.5h-53l43 350h1075v-31l-885 -1247h516q161 0 240 57q47 32 69 76.5t54 148.5h47l-51 -360h-1154zM313 1892h72l246 -211l248 211h71l-254 -342h-131z" />
<glyph unicode="&#x17e;" horiz-adv-x="909" d="M55 0v31l545 829h-276q-97 0 -131.5 -34t-47.5 -146h-36l8 242h708v-31l-551 -830h273q171 0 217 56q20 24 29 54t26 116l37 -8l-31 -279h-770zM150 1380h71l246 -211l248 211h71l-254 -342h-131z" />
<glyph unicode="&#x17f;" horiz-adv-x="684" d="M41 0v31q103 6 133 32q37 27 37 121v672h-55v66h55q0 124 16 192q32 136 117.5 210.5t226.5 74.5q75 0 131 -25q82 -37 82 -102q0 -34 -25 -59t-59 -25q-30 0 -50.5 17t-41.5 52q-27 45 -51 64.5t-57 19.5q-62 0 -89.5 -46.5t-27.5 -139.5v-975q0 -90 37 -119 q36 -27 153 -30v-31h-532z" />
<glyph unicode="&#x180;" horiz-adv-x="1024" d="M-39 1042v64h189v53q0 76 -18.5 97.5t-82.5 21.5q-15 0 -35 -4v35l62 18q32 10 80 23.5t82 24t73 24.5l11 -4v-289h383v-64h-383v-272q32 78 107 125t169 47q162 0 265.5 -128.5t103.5 -321.5q0 -225 -137.5 -368.5t-342.5 -143.5q-126 0 -231.5 41.5t-105.5 93.5v927 h-189zM322 152q0 -48 58 -77.5t140 -29.5q48 0 91.5 16.5t84.5 55t65.5 114t24.5 179.5q0 42 -6 89t-23.5 105t-45 102.5t-76.5 75.5t-111 31q-81 0 -141.5 -48.5t-60.5 -113.5v-499z" />
<glyph unicode="&#x188;" horiz-adv-x="1024" d="M51 430q0 141 54.5 254.5t152.5 179.5q113 78 246 78q78 0 162 -33q6 105 69.5 170.5t167.5 65.5q55 0 99.5 -33t44.5 -86q0 -26 -13.5 -41.5t-38.5 -15.5q-24 0 -38.5 13t-22 31.5t-14.5 36.5t-22.5 31t-39.5 13q-82 0 -82 -170q0 -21 1 -53t1 -40q37 -50 37 -96 q0 -38 -27.5 -64t-66.5 -26q-42 0 -65 24.5t-32 59.5t-18.5 70t-35 59.5t-70.5 24.5q-139 0 -215 -99.5t-76 -265.5q0 -72 20 -140t57.5 -125t99 -91.5t136.5 -34.5q98 0 164 48.5t129 143.5l29 -18q-33 -71 -69.5 -124.5t-85 -100t-112 -71.5t-139.5 -25q-116 0 -205.5 63 t-135.5 164.5t-46 222.5z" />
<glyph unicode="&#x190;" horiz-adv-x="1187" d="M68 352q0 133 76.5 240t203.5 129q-54 26 -86 43t-69.5 44.5t-56.5 55t-32.5 67.5t-13.5 89q0 95 49.5 170t130.5 119.5t174 67.5t189 24q117 0 219 -29q81 -24 146 -86t65 -133q0 -47 -26.5 -85t-69.5 -38q-91 0 -131 166q-13 50 -74.5 82.5t-120.5 32.5 q-338 0 -338 -340q0 -199 275 -199q19 0 105.5 11.5t109.5 11.5q33 0 63.5 -15.5t30.5 -44.5q0 -24 -29 -45t-63.5 -31t-59.5 -10q-16 0 -84.5 5t-81.5 5q-139 0 -213.5 -75.5t-74.5 -212.5q0 -260 389 -260q73 0 122 4.5t95.5 18.5t78 39.5t60 67.5t51.5 103l74 -18 q-3 -118 -123 -220q-145 -118 -403 -118q-77 0 -151 10.5t-149 37.5t-131 67t-91 104.5t-35 144.5z" />
<glyph unicode="&#x192;" horiz-adv-x="888" d="M12 -184q0 42 22.5 67t63.5 25q34 0 57 -20.5t23 -53.5q0 -31 -12 -55q-10 -17 -10 -29q3 -26 43 -26q141 0 141 356q0 48 -2 165t-2 140q0 158 16 446h-225v64h233q27 281 105 416t221 135q74 0 130 -40t56 -99q0 -39 -24 -66t-62 -27q-33 0 -58.5 18t-25.5 50 q0 27 9.5 48t9.5 32q0 10 -12 17t-31 7q-56 0 -82 -36q-37 -50 -51.5 -184.5t-14.5 -270.5h244v-64h-246q-1 -239 -35.5 -554.5t-68.5 -403.5q-41 -103 -98 -151t-138 -48q-73 0 -124.5 40.5t-51.5 101.5z" />
<glyph unicode="&#x195;" horiz-adv-x="1505" d="M18 0v31q33 4 54.5 9t37 16t23 21t11.5 32.5t5 41.5t1 56v977q0 60 -21.5 77t-77.5 17q-17 0 -31 -2v33q196 58 291 90l11 -6v-623q28 35 45.5 54t57 52t89 49.5t107.5 16.5q41 0 75 -8.5t58.5 -22t44 -35.5t32 -42.5t21 -50.5t13 -51t6.5 -52.5t2.5 -48t0.5 -43.5v-330 q0 -73 53.5 -134t125.5 -61q74 0 139 39t108 100t68 133.5t25 141.5q0 86 -21.5 149t-52 96t-61.5 57t-52.5 47t-21.5 51q0 29 28.5 47t59.5 18q46 0 81 -33.5t53.5 -80.5t30 -109.5t14.5 -108t3 -88.5q0 -83 -15.5 -160t-49.5 -147t-83.5 -122t-123.5 -82.5t-164 -30.5 q-155 0 -235.5 65.5t-80.5 216.5v352q0 217 -155 217q-112 0 -225 -129v-493q0 -53 4 -81t18 -51t41.5 -32.5t75.5 -13.5v-31h-443z" />
<glyph unicode="&#x199;" horiz-adv-x="1024" d="M14 0v31q41 7 59.5 10.5t40.5 11t29 14t15 21t9 31.5t1 45v788q0 119 58.5 221.5t164 164t234.5 61.5q78 0 134 -30.5t56 -84.5q0 -34 -25.5 -56t-56.5 -22q-24 0 -45 12.5t-36 31t-29.5 36.5t-33 30.5t-38.5 12.5q-80 0 -145.5 -82t-65.5 -203v-509l281 249 q22 19 34.5 39.5t12.5 32.5q0 19 -21 27t-82 8v31h418v-31q-93 0 -164 -37q-90 -47 -256 -201l-82 -75l318 -404q37 -46 71.5 -76.5t66 -43.5t50.5 -17t47 -6v-31h-446v31h39q43 0 43 32q0 18 -43 74l-287 377v-377q0 -58 28 -79.5t85 -24.5l41 -2v-31h-480z" />
<glyph unicode="&#x19a;" horiz-adv-x="569" d="M39 1276v33q203 50 323 90l11 -8v-617h153v-63h-153v-533q0 -86 28 -113.5t125 -33.5v-31h-483v31q96 7 127 39t31 118v523h-158v63h158v375q0 74 -18.5 102.5t-67.5 28.5q-43 0 -76 -4z" />
<glyph unicode="&#x19b;" horiz-adv-x="1064" d="M113 0v31q81 9 108 69l271 578q6 13 23 49.5t24.5 53t18.5 41.5t15.5 40t4.5 23q0 14 -4.5 34t-9.5 34t-12.5 34.5t-8.5 22.5l-398 -398v111l363 360q-10 20 -12 23q-61 90 -103 90q-26 0 -53 -14q-50 -27 -107 -27q-37 0 -62.5 28t-25.5 66q0 52 39.5 85.5t104.5 33.5 q92 0 158 -51.5t126 -169.5l218 221v-111l-181 -184l344 -938q21 -56 43 -77.5t60 -26.5v-31h-273v31q95 0 95 49q0 16 -9 37l-198 565l-230 -512q-26 -63 -26 -84q0 -28 25 -40t91 -15v-31h-419z" />
<glyph unicode="&#x19e;" horiz-adv-x="1024" d="M33 815v35q149 43 280 92l17 -6v-160h2q145 166 295 166q117 0 179 -81.5t62 -233.5v-930q0 -82 24.5 -108.5t100.5 -34.5v-31h-426l2 31q76 6 101.5 44t25.5 140v885q0 107 -36.5 156.5t-112.5 49.5q-52 0 -97 -24t-114 -92v-566q0 -61 28 -85.5t105 -30.5v-31h-432v31 q77 6 102 38t25 124v497q0 76 -15 104.5t-57 28.5q-40 0 -59 -8z" />
<glyph unicode="&#x1a0;" horiz-adv-x="1478" d="M70 684q0 312 185 506t484 194q142 0 260 -47q62 -16 113 -16q64 0 88.5 9.5t24.5 37.5q-70 38 -70 94q0 31 27 56.5t67 25.5q43 0 72 -31t29 -83q0 -56 -36 -92t-100 -48q-40 -6 -84 -6h-28q144 -92 225.5 -251t81.5 -355q0 -315 -187 -511t-483 -196q-298 0 -483.5 197 t-185.5 516zM303 680q0 -374 184 -543q102 -92 254 -92q161 0 265 98q170 164 170 547q0 174 -49.5 312t-137.5 212q-118 97 -252 97q-174 0 -293 -137q-65 -74 -103 -209.5t-38 -284.5z" />
<glyph unicode="&#x1a1;" horiz-adv-x="1116" d="M59 467q0 214 127 344.5t334 130.5q117 0 212.5 -51t154.5 -143q24 2 51 13t27 21l-2 9q-24 18 -36 28t-23 28.5t-11 39.5q0 31 27.5 57.5t66.5 26.5t69.5 -32t30.5 -83q0 -56 -36 -92.5t-101 -48.5l-41 -8q54 -102 54 -234q0 -216 -128 -354.5t-333 -138.5 q-188 0 -315.5 137.5t-127.5 349.5zM244 559q0 -262 108 -420q70 -102 185 -102q114 0 177.5 101t63.5 280q0 107 -26.5 204.5t-75.5 159.5q-83 103 -195 103q-107 0 -172 -87t-65 -239z" />
<glyph unicode="&#x1a5;" horiz-adv-x="1024" d="M10 -410q90 9 117 35.5t27 106.5v1192q0 75 10.5 139t36 121.5t64.5 98t99.5 64t137.5 23.5q78 0 134 -30.5t56 -84.5q0 -34 -25.5 -55.5t-56.5 -21.5q-29 0 -55 19t-41.5 42t-38 42t-47.5 19q-49 0 -75.5 -44.5t-26.5 -159.5v-316q67 85 138 123.5t157 38.5 q149 0 245.5 -123t96.5 -313q0 -146 -56.5 -267t-155.5 -190t-219 -69q-64 0 -107 18.5t-99 69.5v-322q0 -97 32.5 -125t147.5 -29v-36h-496v34zM326 180q0 -46 70.5 -90.5t142.5 -44.5q110 0 178.5 105t68.5 274q0 180 -68.5 287.5t-182.5 107.5q-71 0 -140 -44.5 t-69 -90.5v-504z" />
<glyph unicode="&#x1aa;" horiz-adv-x="884" d="M41 1174q0 91 66.5 159t158.5 68q75 0 137 -34t100.5 -90t59.5 -124.5t21 -140.5q0 -195 -55.5 -615.5t-55.5 -619.5q0 -185 105 -185q25 0 48.5 19t39 42.5t41.5 42.5t55 19q33 0 57.5 -22.5t24.5 -54.5q0 -42 -34.5 -69.5t-74.5 -36.5t-80 -9q-170 0 -262 106.5 t-92 278.5q0 196 50 563t57 526q-62 -49 -142 -49q-92 0 -158.5 67t-66.5 159zM111 1174q0 -65 45.5 -110.5t109.5 -45.5q49 0 88.5 27.5t57.5 70.5q-1 33 -3.5 59t-10.5 57t-22 51t-38.5 34t-58.5 14q-73 0 -120.5 -42t-47.5 -115z" />
<glyph unicode="&#x1ab;" horiz-adv-x="593" d="M27 870q0 12 12 22t36 26t42 34q42 40 87.5 99t71 97t27.5 38q12 0 12 -27v-237h207v-66h-207v-586q0 -27 1 -44.5t6.5 -47t15.5 -47t31 -31.5t51 -14q23 0 43 6.5t37 20.5t24 21.5t21 23.5l26 -23q-4 -59 -4 -182q0 -42 -0.5 -68t-2.5 -64.5t-5.5 -62.5t-11 -55 t-17.5 -50.5t-26 -40t-36 -32t-47.5 -19t-60.5 -7.5q-78 0 -134 30t-56 84q0 34 25.5 56t56.5 22q24 0 45 -12.5t36 -31t29.5 -36.5t33 -30.5t38.5 -12.5q23 0 39.5 30.5t24.5 82t11 101t3 104.5q0 34 -1 58t-2 35.5t-1 14.5q-3 -6 -25.5 -21.5t-65.5 -31.5t-85 -16 q-87 0 -138 58.5t-51 201.5v616h-108q-8 4 -8 14z" />
<glyph unicode="&#x1ad;" horiz-adv-x="634" d="M29 870q0 6 24.5 28.5t53.5 48t36 34.5q0 88 19.5 161.5t59.5 132t109 91.5t161 33q41 0 81 -9t74.5 -36.5t34.5 -69.5q0 -32 -24.5 -55t-55.5 -23q-29 0 -55 19t-41.5 42.5t-39 42.5t-48.5 19q-27 0 -46.5 -13.5t-30.5 -33.5t-17 -49.5t-7.5 -53.5t-1.5 -55v-202h207 v-66h-207v-590q0 -27 1 -47t7 -47t16.5 -44t31 -29.5t49.5 -12.5q39 0 67 18.5t58 53.5l26 -23q-99 -155 -245 -155q-183 0 -183 260v616h-108z" />
<glyph unicode="&#x1af;" horiz-adv-x="1568" d="M29 1317v39h579v-39q-65 -6 -99 -14t-55 -30.5t-26.5 -54.5t-5.5 -94v-639q0 -134 16.5 -204.5t73.5 -126.5q96 -93 262 -93q98 0 179.5 32t131.5 89q48 58 62 126.5t14 203.5v539q0 84 -6 130t-28 77.5t-57.5 43t-100.5 15.5v39h473q29 0 61.5 15t32.5 26l-2 8 q-21 14 -33.5 23.5t-25.5 29t-13 41.5q0 31 28 58.5t69 27.5q40 0 70 -31t30 -84q0 -65 -46.5 -102t-117.5 -45l-70 -8q-60 -7 -93.5 -21t-52 -46.5t-23.5 -73.5t-5 -117v-522q0 -159 -22 -249.5t-88 -164.5q-132 -150 -414 -150q-221 0 -348 95q-166 123 -166 444v635 q0 55 -5.5 83.5t-26.5 49t-54.5 27.5t-97.5 12z" />
<glyph unicode="&#x1b0;" horiz-adv-x="1024" d="M18 893v29h299v-662q0 -70 42.5 -116t103.5 -46q99 0 172 64q27 24 37 46t10 73v473q0 80 -28.5 103.5t-123.5 29.5v35h324q41 0 83 11.5t42 27.5t-11 27.5t-24 17.5t-24 23.5t-11 43.5q0 30 26.5 53t68.5 23q37 0 68.5 -31.5t31.5 -83.5q0 -68 -52.5 -107.5 t-138.5 -39.5h-59v-668q0 -71 23 -94t94 -23h12v-28q-170 -47 -281 -92l-10 6v168h-4q-47 -64 -103.5 -105.5t-102 -56t-87.5 -14.5q-117 0 -183.5 71t-66.5 191v514q0 76 -26.5 104t-100.5 33z" />
<glyph unicode="&#x1b5;" horiz-adv-x="1253" d="M20 0v31l443 618h-254v88h317l389 541h-438q-202 0 -274 -72q-38 -39 -53.5 -76.5t-30.5 -123.5h-53l43 350h1075v-31l-418 -588h297v-88h-358l-406 -571h516q161 0 240 57q47 32 69 76.5t54 148.5h47l-51 -360h-1154z" />
<glyph unicode="&#x1ba;" horiz-adv-x="780" d="M8 616l66 306h663v-43l-391 -381q76 34 135 34q115 0 184.5 -70.5t69.5 -180.5q0 -120 -125 -218q-248 -136 -352 -206q-72 -48 -72 -138q0 -62 50 -102.5t129 -40.5q57 0 101 31t54 82q13 66 41 98.5t66 32.5q44 0 71 -26.5t27 -63.5q0 -33 -22.5 -74.5t-65.5 -69.5 q-49 -30 -119 -47.5t-137 -17.5q-102 0 -186 59q-105 74 -105 201q0 145 137 231q125 77 275 154q38 21 55.5 48.5t17.5 70.5q0 61 -47 97t-135 36q-78 0 -123.5 -20.5t-105.5 -78.5q-29 23 -41 37l432 435h-338q-51 0 -107.5 -49t-66.5 -126h-35z" />
<glyph unicode="&#x1bb;" horiz-adv-x="1024" d="M45 643v94h606q39 103 39 207q0 136 -75 212.5t-209 76.5q-64 0 -112.5 -19t-83.5 -59.5t-57 -81.5t-49 -106l-43 10q34 189 138.5 298t287.5 109q163 0 271 -99.5t108 -260.5q0 -141 -88 -287h209v-94q-92 -2 -276 -2q-23 -32 -107 -125l-338 -360h479q74 0 114 31.5 t83 105.5l29 -12l-111 -281h-801v25l365 387q123 130 178 229z" />
<glyph unicode="&#x1be;" horiz-adv-x="1024" d="M150 186q0 38 27.5 64t66.5 26q33 0 55.5 -19.5t33 -48.5t23.5 -63t26 -63t41 -48.5t69 -19.5q48 0 86 35t58.5 88t31 105t10.5 96q0 125 -91.5 198.5t-215.5 73.5h-41v305h-158v64h158v125h96l6 -125h160v-64h-158l6 -127q21 3 47 3q112 0 202 -60.5t137.5 -157 t47.5 -206.5q0 -194 -106.5 -293t-304.5 -99q-62 0 -132 22.5t-125.5 73t-55.5 115.5z" />
<glyph unicode="&#x1c0;" horiz-adv-x="327" d="M111 0v1507h104v-1507h-104z" />
<glyph unicode="&#x1c1;" horiz-adv-x="573" d="M111 0v1507h104v-1507h-104zM356 0v1507h105v-1507h-105z" />
<glyph unicode="&#x1c2;" horiz-adv-x="890" d="M70 557v105h323v184h-323v104h323v557h105v-557h321v-104h-321v-184h321v-105h-321v-557h-105v557h-323z" />
<glyph unicode="&#x1c3;" horiz-adv-x="681" d="M266 86q0 46 32.5 79.5t76.5 33.5q45 0 76.5 -32.5t31.5 -78.5t-30 -76t-76 -30q-47 0 -79 30t-32 74zM266 1219q0 76 28.5 120.5t80.5 44.5q56 0 82 -42t26 -113q0 -27 -6 -88l-86 -781h-29l-92 781q-4 46 -4 78z" />
<glyph unicode="&#x1f0;" horiz-adv-x="569" d="M-143 -334q0 34 24.5 57t59.5 23q47 0 98 -65q27 -33 45 -45.5t41 -12.5q21 0 41 11t29 26q17 30 22.5 80t5.5 168v776q0 66 -15 94.5t-50 28.5q-49 0 -82 -6l-10 -2v32q156 48 319 111l10 -6v-936q0 -218 -89 -332t-259 -114q-83 0 -136.5 31.5t-53.5 80.5zM-35 1380h72 l246 -211l247 211h72l-254 -342h-131z" />
<glyph unicode="&#x1fa;" horiz-adv-x="1478" d="M31 0v39q71 7 106 42q39 38 99 175q15 36 53 125l397 942q-50 15 -82.5 59t-32.5 99q0 67 48.5 114t117.5 47q66 0 113 -48t47 -115q0 -56 -33.5 -99.5t-87.5 -56.5l479 -1096q45 -105 81 -142t112 -46v-39h-522v39q53 0 72.5 3.5t39.5 14.5q12 6 20.5 20.5t8.5 28.5 q0 55 -39 144l-84 192h-536l-95 -233q-18 -49 -18 -86q0 -46 34 -65t109 -19v-39h-407zM442 526h473l-237 564zM524 1634l289 248q28 25 42 32t40 7q51 0 51 -53q0 -21 -15.5 -36.5t-49.5 -35.5l-289 -162h-68zM639 1483q0 -41 27.5 -70t64.5 -29q42 0 70 28.5t28 70.5 q0 38 -28.5 65t-69.5 27q-36 0 -64 -28t-28 -64z" />
<glyph unicode="&#x1fb;" horiz-adv-x="909" d="M76 193q0 144 143 239q95 64 369 166v111q0 92 -43.5 138t-116.5 46q-61 0 -102 -29t-41 -71q0 -18 6 -41t6 -45q0 -31 -28 -57.5t-66 -26.5q-34 0 -61 27t-27 67q0 43 26.5 87.5t77.5 76.5q94 61 236 61q165 0 241 -92q36 -44 47 -88t11 -139v-392q0 -135 63 -135 q41 0 88 39v-57q-44 -56 -86 -77t-98 -21q-59 0 -91.5 35t-39.5 114h-2q-132 -149 -297 -149q-97 0 -156 56.5t-59 156.5zM242 1473l301 303q28 28 45.5 37.5t40.5 9.5q34 0 52.5 -17.5t18.5 -48.5q0 -48 -61 -86l-315 -198h-82zM256 256q0 -78 39 -118t102 -40q69 0 119 33 q43 30 57.5 57t14.5 72v289q-188 -66 -262 -135q-70 -64 -70 -158zM268 1253q0 85 60.5 144t146.5 59q82 0 141.5 -61t59.5 -144q0 -85 -60.5 -143.5t-146.5 -58.5q-85 0 -143 59t-58 145zM338 1253q0 -57 38.5 -96t92.5 -39q58 0 97.5 39t39.5 96q0 55 -40 94t-97 39 q-53 0 -92 -39.5t-39 -93.5z" />
<glyph unicode="&#x1fc;" horiz-adv-x="1820" d="M0 0v39q66 9 100 39t80 121l502 991q18 34 18 57q0 68 -184 68v41h1155v-289h-47q-7 49 -16 80.5t-27.5 57.5t-42.5 39.5t-67 23t-94 12t-130 2.5h-172q-57 0 -57 -76v-456h213q157 0 219.5 40t65.5 160h43v-481h-43q-13 120 -57.5 162.5t-151.5 42.5h-289v-481 q0 -28 1.5 -44t7 -30.5t13.5 -21.5t25.5 -12t39 -6t56.5 -1h150q120 0 186 20.5t115.5 75t105.5 170.5h49l-90 -344h-1042v39l35 4q93 10 119 46t26 140v303h-360q-189 -359 -189 -434q0 -22 35.5 -37.5t101.5 -21.5h3v-39h-406zM492 612h323v654zM887 1473l301 303 q28 28 45.5 37.5t40.5 9.5q34 0 53 -17.5t19 -48.5q0 -47 -62 -86l-315 -198h-82z" />
<glyph unicode="&#x1fd;" horiz-adv-x="1366" d="M78 205q0 43 3 73t15.5 67.5t35.5 63.5t64.5 51t100.5 42l264 73v130q0 100 -27.5 142t-97.5 42q-58 0 -98.5 -25.5t-40.5 -60.5q0 -15 3 -40t3 -46q0 -43 -24.5 -68.5t-65.5 -25.5t-65.5 26t-24.5 72q0 94 94 157.5t232 63.5q76 0 129 -21.5t112 -74.5q70 55 121.5 75.5 t122.5 20.5q157 0 234 -88.5t94 -286.5h-537q1 -154 12 -221t43 -127q26 -46 79 -74t116 -28q88 0 155 44.5t140 153.5l24 -10q-45 -96 -79.5 -147.5t-81.5 -89.5q-100 -82 -242 -82q-89 0 -150.5 32.5t-113.5 110.5q-101 -85 -166.5 -114t-145.5 -29q-105 0 -171 60 t-66 159zM256 256q0 -77 34 -127.5t101 -50.5q57 0 133 37t76 65q0 1 -1 3t-1 3q-37 118 -37 226v106q-186 -67 -245.5 -118.5t-59.5 -143.5zM446 1038l302 303q28 28 45.5 38t40.5 10q34 0 52.5 -17.5t18.5 -48.5q0 -48 -61 -86l-316 -199h-82zM727 629h340 q-3 134 -40.5 192t-121.5 58q-88 0 -129.5 -57.5t-48.5 -192.5z" />
<glyph unicode="&#x1fe;" horiz-adv-x="1478" d="M70 676q0 206 85 367.5t238 251t348 89.5q101 0 181 -22t178 -78l147 219h101l-181 -266q68 -64 101.5 -105t60.5 -98q80 -167 80 -354q0 -315 -187.5 -512t-486.5 -197q-103 0 -183 23t-175 80l-162 -238h-100l194 285q-68 62 -101 103.5t-61 99.5q-77 157 -77 352z M303 676q0 -136 21 -231t73 -193l631 926q-68 71 -135.5 102t-153.5 31q-201 0 -318.5 -171t-117.5 -464zM449 180q66 -72 133.5 -103.5t156.5 -31.5q203 0 320 169t117 462q0 136 -22 233t-75 197zM502 1473l301 303q28 28 45.5 37.5t40.5 9.5q34 0 53 -17.5t19 -48.5 q0 -47 -62 -86l-315 -198h-82z" />
<glyph unicode="&#x1ff;" horiz-adv-x="1024" d="M59 465q0 209 126.5 343t324.5 134q89 0 188 -37l117 223h80l-133 -256q201 -138 201 -393q0 -214 -131 -356.5t-326 -142.5q-97 0 -191 43l-133 -252h-76l150 286q-54 43 -80.5 73.5t-52.5 76.5q-64 119 -64 258zM244 567q0 -206 80 -379l325 623q-41 40 -79 57t-85 17 q-109 0 -175 -87.5t-66 -230.5zM268 1038l301 303q28 28 45.5 38t40.5 10q34 0 53 -17.5t19 -48.5q0 -48 -61 -86l-316 -199h-82zM367 123q39 -46 77.5 -66t90.5 -20q115 0 179 99.5t64 279.5q0 98 -18.5 173.5t-63.5 160.5z" />
<glyph unicode="&#x221;" horiz-adv-x="1374" d="M55 420q0 93 29 184.5t81.5 167.5t135 123t180.5 47q64 0 112 -21t103 -67v320q0 61 -20 83.5t-66 22.5q-13 0 -53 -4v33q189 50 301 90l10 -4v-1211q0 -53 45 -121q28 46 43.5 71.5t48.5 67.5t60.5 65t67 41t81.5 18q52 0 86.5 -43t34.5 -97q0 -76 -63 -133 q-50 -45 -112.5 -59t-147.5 -14h-70q-83 -136 -158 -287h-73q71 145 157 295q-53 11 -98 47.5t-59 87.5q-108 -143 -277 -143q-92 0 -165.5 36t-119 97.5t-70 140t-24.5 166.5zM231 502q0 -72 14.5 -140.5t45 -132.5t88.5 -103.5t135 -39.5q95 0 152 66q30 35 30 57v471 q0 83 -63.5 144t-145.5 61q-70 0 -122.5 -36.5t-80 -96t-40.5 -122.5t-13 -128zM983 41h53q38 0 75 6.5t76 20.5t63 43.5t24 70.5q0 32 -18.5 57t-49.5 25q-30 0 -59.5 -17t-50.5 -37.5t-46 -57t-36.5 -56.5t-30.5 -55z" />
<glyph unicode="&#x234;" horiz-adv-x="878" d="M39 1276v33q202 50 323 90l11 -8v-1164q0 -112 45 -164q28 46 43.5 71.5t48.5 67.5t60.5 65t67 41t81.5 18q52 0 86.5 -43t34.5 -97q0 -76 -64 -133q-50 -45 -112.5 -59t-147.5 -14h-70q-77 -127 -157 -287h-74q65 133 158 295q-90 18 -131 86t-41 166v909 q0 68 -18.5 99.5t-80.5 31.5q-23 0 -63 -4zM487 41h54q38 0 75 6.5t75.5 20.5t62.5 43.5t24 70.5q0 32 -18.5 57t-48.5 25q-35 0 -68 -20t-62 -57t-47 -65t-41 -70q-4 -7 -6 -11z" />
<glyph unicode="&#x235;" horiz-adv-x="1376" d="M33 815v35q156 45 280 92l17 -6v-160h2q147 166 295 166q66 0 114.5 -26t75.5 -72t39 -99.5t12 -117.5v-443q0 -66 50 -116q24 41 41 68t48 66.5t59 63.5t66.5 42t77.5 18q55 0 91 -43.5t36 -100.5q0 -182 -331 -182h-50q-99 -163 -170 -307h-73q76 149 166 307h-312v31 q35 2 59.5 13t38 25.5t21 39.5t9 47.5t1.5 58.5v408q0 43 -6 76.5t-21.5 64.5t-46 48t-75.5 17q-59 0 -108 -31t-103 -85v-566q0 -65 32.5 -89t100.5 -27v-31h-432v31q80 4 103.5 40.5t23.5 121.5v514q0 25 -1.5 40.5t-8 35.5t-22 30t-40.5 10q-35 0 -59 -8zM995 61 q7 0 21.5 -1t21.5 -1q37 0 72 4.5t75.5 16.5t65.5 39t25 65q0 33 -22.5 57.5t-55.5 24.5q-83 0 -203 -205z" />
<glyph unicode="&#x236;" horiz-adv-x="821" d="M27 870q0 16 34 39q55 36 100.5 89t98.5 130q27 35 41 58q6 1 9.5 -5t4 -10.5t0.5 -11.5v-237h207v-66h-207v-586q0 -155 45 -207q27 46 43.5 71.5t49 67.5t60.5 65t67.5 41t81.5 18q52 0 86 -43t34 -97q0 -76 -63 -133q-50 -45 -112.5 -59t-147.5 -14h-70 q-90 -154 -158 -287h-73q64 136 155 295q-170 32 -170 252v616h-108q-8 5 -8 14zM430 41h53q38 0 75 6.5t76 20.5t63 43.5t24 70.5q0 32 -18.5 57t-49.5 25q-30 0 -59.5 -17t-50.5 -37.5t-46 -57t-36.5 -56.5t-30.5 -55z" />
<glyph unicode="&#x237;" horiz-adv-x="569" d="M-143 -334q0 34 24.5 57t59.5 23q47 0 98 -65q27 -33 45 -45.5t41 -12.5q21 0 41 11t29 26q17 30 22.5 80t5.5 168v776q0 66 -15 94.5t-50 28.5q-49 0 -82 -6l-10 -2v32q156 48 319 111l10 -6v-936q0 -218 -89 -332t-259 -114q-83 0 -136.5 31.5t-53.5 80.5z" />
<glyph unicode="&#x250;" horiz-adv-x="909" d="M16 786v58q44 56 86.5 77t98.5 21q59 0 91.5 -35t39.5 -114h2q132 149 297 149q97 0 156 -56.5t59 -156.5q0 -145 -144 -240q-93 -63 -368 -165v-111q0 -92 43.5 -138t116.5 -46q61 0 102 29t41 71q0 18 -6 41t-6 45q0 31 28 57.5t66 26.5q34 0 61 -27t27 -67 q0 -43 -27 -87.5t-78 -76.5q-94 -61 -235 -61q-166 0 -242 92q-36 43 -46.5 87t-10.5 140v391q0 68 -17.5 101.5t-46.5 33.5q-41 0 -88 -39zM334 373q188 66 262 135q70 64 70 158q0 78 -39 117.5t-103 39.5q-69 0 -118 -32q-43 -30 -57.5 -57t-14.5 -72v-289z" />
<glyph unicode="&#x251;" horiz-adv-x="1024" d="M55 438q0 99 34.5 191.5t91.5 161t135.5 110t162.5 41.5q64 0 114 -21t103 -67l129 88h43v-709q0 -28 1 -41.5t6 -31t15.5 -25t29.5 -13t49 -5.5q23 0 37 2v-33l-301 -106l-9 6v125h-4q-88 -131 -264 -131q-21 0 -46 3t-62.5 15t-72 30.5t-70.5 54t-62 81.5t-43 117 t-17 157zM231 506q0 -110 25 -193.5t66.5 -131.5t90 -71.5t101.5 -23.5q66 0 118 34.5t64 88.5v471q-10 98 -71.5 151.5t-139.5 53.5q-46 0 -89 -21t-81 -63.5t-61 -118.5t-23 -176z" />
<glyph unicode="&#x252;" horiz-adv-x="1024" d="M55 803v33l301 106l9 -6v-125h4q88 131 264 131q21 0 46 -3t62.5 -15t72 -31t70.5 -54.5t62 -81.5t43 -117t17 -157q0 -132 -57.5 -248t-156 -185.5t-210.5 -69.5q-64 0 -114 21t-103 67l-129 -88h-43v708q0 35 -2 51.5t-11 34.5t-30 24.5t-58 6.5q-23 0 -37 -2zM365 242 q10 -98 71 -151.5t139 -53.5q46 0 89 21t81 63.5t61 118.5t23 176q0 110 -24.5 193.5t-66 131.5t-90 71.5t-101.5 23.5q-66 0 -118 -34.5t-64 -88.5v-471z" />
<glyph unicode="&#x253;" horiz-adv-x="1024" d="M141 115v837q0 119 58.5 221.5t164 164t234.5 61.5q78 0 134 -30.5t56 -84.5q0 -34 -25 -56t-56 -22q-29 0 -55 19t-42 42.5t-38.5 42.5t-47.5 19q-80 0 -145.5 -82t-65.5 -203v-274q24 65 97.5 118.5t179.5 53.5q72 0 132.5 -26t103.5 -70t73 -102.5t44.5 -124.5 t14.5 -136q0 -59 -14.5 -123t-51 -133t-90 -123t-139.5 -89t-192 -35q-70 0 -145.5 17.5t-130 49.5t-54.5 68zM313 150q0 -34 32.5 -59t75 -35.5t85.5 -10.5q67 0 118.5 25.5t79.5 63t45.5 89t23 95t5.5 90.5q0 75 -15 144t-45 129t-83.5 96t-122.5 36q-38 0 -82 -16 t-80.5 -56t-36.5 -94v-497z" />
<glyph unicode="&#x254;" horiz-adv-x="909" d="M20 618q50 97 86.5 148.5t81.5 87.5q106 86 236 86q170 0 279.5 -128.5t109.5 -326.5q0 -260 -172 -403q-127 -105 -276 -105q-129 0 -222.5 62.5t-93.5 148.5q0 35 28 60.5t68 25.5q34 0 60.5 -25t38.5 -69l12 -45q15 -57 40.5 -77.5t80.5 -20.5q125 0 201.5 98 t76.5 258q0 177 -88 288.5t-229 111.5q-88 0 -151.5 -43t-137.5 -150z" />
<glyph unicode="&#x255;" horiz-adv-x="909" d="M51 436q0 121 40.5 220t106.5 160t145 93.5t161 32.5q58 0 118 -16.5t101 -46.5q92 -67 92 -144q0 -37 -26 -63.5t-70 -26.5q-37 0 -62.5 27t-35.5 67q-9 35 -12.5 48.5t-12 35.5t-17 29t-23 16.5t-33.5 12t-46 2.5q-28 0 -59.5 -8.5t-70 -33.5t-68 -64t-50 -106 t-20.5 -153q0 -111 59.5 -216.5t151.5 -178.5q38 48 56.5 70t45.5 49t47.5 37.5t48.5 18t62 7.5q80 0 127 -40.5t47 -110.5q0 -81 -64 -134t-186 -53h-45q-88 0 -149 13l-164 -308h-74l162 324q-131 51 -207 164t-76 276zM471 84q75 -43 139 -43q55 0 92 9.5t54 27t23.5 36 t6.5 42.5q0 46 -27 71t-77 25q-29 0 -53.5 -8t-41 -18.5t-39 -37t-35.5 -44t-42 -60.5z" />
<glyph unicode="&#x256;" horiz-adv-x="1132" d="M55 438q0 88 31 177t84.5 162t135 119t173.5 46q115 0 217 -88v320q0 61 -18.5 82.5t-65.5 21.5q-35 0 -55 -2v33q189 50 301 90l10 -4v-1631q0 -34 3 -60t12 -54t29 -43t51 -15q20 0 38.5 12.5t33 31t29.5 36.5t36 30.5t45 12.5q33 0 57.5 -22.5t24.5 -54.5 q0 -42 -34.5 -69.5t-75 -36.5t-81.5 -9q-64 0 -115.5 14.5t-86.5 39t-60.5 62t-40.5 76.5t-23.5 91t-11 96.5t-2.5 101.5v113q-44 -69 -114 -103t-154 -34q-93 0 -166.5 38.5t-117.5 103.5t-66.5 145.5t-22.5 170.5zM231 506q0 -72 14.5 -141t45 -134t88.5 -105t135 -40 q55 0 118.5 35.5t63.5 87.5v471q0 84 -64 144.5t-147 60.5q-69 0 -121 -36.5t-79.5 -95.5t-40.5 -121t-13 -126z" />
<glyph unicode="&#x257;" horiz-adv-x="1202" d="M55 424q0 142 58 261.5t155.5 188t210.5 68.5q64 0 114 -21t103 -67v98q0 95 17.5 172t56 140.5t107.5 99t165 35.5q78 0 134.5 -30.5t56.5 -84.5q0 -34 -25.5 -56t-56.5 -22q-24 0 -45 12.5t-36 31t-29.5 36.5t-33 30.5t-38.5 12.5q-62 0 -81.5 -54.5t-19.5 -170.5v-871 q0 -34 2 -51t10.5 -34.5t28 -24t52.5 -6.5q31 0 45 2v-33l-301 -106l-9 6v131q-20 -27 -38 -46.5t-49 -42.5t-75 -35.5t-98 -12.5q-126 0 -221 69q-70 51 -115 146.5t-45 228.5zM231 506q0 -110 24.5 -193.5t66 -131.5t90.5 -71.5t104 -23.5q66 0 117 34t63 89v461 q0 98 -66 156.5t-145 58.5q-46 0 -89 -21t-81 -63.5t-61 -118.5t-23 -176z" />
<glyph unicode="&#x258;" horiz-adv-x="909" d="M41 322l33 14q25 -41 45.5 -68t60.5 -66t93.5 -60t117.5 -21q44 0 83.5 11t82 42t74.5 79.5t55.5 129t30.5 184.5h-637q17 193 112 284t248 91q52 0 106.5 -15.5t111.5 -53.5t100.5 -93.5t71.5 -144t28 -197.5q0 -215 -105 -336.5t-278 -121.5q-83 0 -156 30t-118.5 71.5 t-82.5 94t-53 86t-24 60.5zM289 633h422q-24 129 -80 182t-146 53q-34 0 -61.5 -8.5t-46 -20.5t-33.5 -33.5t-23 -38.5t-15.5 -45.5t-10 -44t-6.5 -44.5z" />
<glyph unicode="&#x259;" horiz-adv-x="909" d="M29 600q8 27 24 60.5t53 86t82.5 94t118.5 71.5t156 30q173 0 278 -122t105 -337q0 -109 -28 -197.5t-71.5 -144t-100.5 -93t-111.5 -53t-106.5 -15.5q-153 0 -248 90.5t-112 283.5h637q-7 104 -30.5 185t-55.5 129.5t-74.5 79t-82 42t-83.5 11.5q-52 0 -99 -16 t-78 -36.5t-61.5 -54.5t-45 -55t-34.5 -53zM276 289q4 -28 7 -44.5t10 -44.5t15.5 -45.5t23.5 -39t33.5 -33.5t46 -20.5t61.5 -8.5q90 0 145.5 53.5t79.5 182.5h-422z" />
<glyph unicode="&#x25a;" horiz-adv-x="1345" d="M74 317l592 342q-39 89 -112.5 147t-164.5 58q-66 0 -140.5 -29.5t-131.5 -74.5l-35 18q45 47 70.5 70t64 48.5t80 35.5t96.5 10q126 0 232.5 -51.5t177.5 -151.5l244 142l12 -9v-28q0 -2 -2 -112t-2 -132q0 -44 32 -76t76 -32q40 0 67.5 31.5t41.5 76.5l61 -25 q-18 -59 -65 -102t-105 -43q-44 0 -76 13.5t-50.5 34t-29 53t-13.5 63t-3 70.5q0 24 1 69t1 55l-162 -96q64 -115 64 -231q0 -113 -59.5 -226t-163.5 -187.5t-219 -74.5q-157 0 -262 94.5t-117 249.5zM156 295q0 -99 58.5 -168.5t156.5 -69.5q75 0 139.5 36.5t106.5 95 t66 130t24 142.5q0 63 -21 145z" />
<glyph unicode="&#x25b;" horiz-adv-x="897" d="M41 252q0 63 34 120.5t91 88.5q60 33 168 49v4q-238 50 -238 219q0 107 92.5 173.5t243.5 66.5q59 0 126.5 -18t105.5 -44q42 -28 65 -69.5t23 -73.5q0 -37 -27.5 -63.5t-71.5 -26.5q-36 0 -61.5 30t-36.5 70q-22 75 -39.5 101t-54.5 26q-79 0 -132 -53t-53 -131 q0 -80 72 -139q28 -24 61 -32.5t93 -10.5v-62h-23q-109 0 -177.5 -59.5t-68.5 -153.5q0 -96 61.5 -157.5t158.5 -61.5q161 0 319 127l25 -25q-144 -176 -367 -176q-71 0 -143.5 19t-124.5 51q-54 32 -87.5 90.5t-33.5 120.5z" />
<glyph unicode="&#x25c;" horiz-adv-x="897" d="M41 147l25 25q158 -127 319 -127q96 0 157.5 61.5t61.5 157.5q0 94 -68.5 153.5t-177.5 59.5h-22v62q60 2 92 10.5t61 32.5q72 59 72 139q0 78 -52.5 131t-131.5 53q-37 0 -54.5 -26t-39.5 -101q-10 -39 -36.5 -69.5t-62.5 -30.5q-44 0 -71 26.5t-27 63.5q0 32 23 73.5 t65 69.5q38 26 105.5 44t126.5 18q151 0 243 -66.5t92 -173.5q0 -169 -237 -219v-4q108 -16 168 -49q57 -31 91 -88.5t34 -120.5q0 -62 -33.5 -120.5t-87.5 -90.5q-52 -32 -124.5 -51t-143.5 -19q-223 0 -367 176z" />
<glyph unicode="&#x25d;" horiz-adv-x="1275" d="M41 147l25 25q159 -127 319 -127q95 0 157 62t62 157q0 109 -77 161t-191 52v62q94 2 159.5 47.5t65.5 134.5q0 78 -53 131t-131 53q-32 0 -51.5 -23.5t-29.5 -56.5t-20.5 -66.5t-34 -57t-61.5 -23.5q-39 0 -66.5 26t-27.5 64q0 52 32.5 93.5t83 64.5t103.5 35t101 12 q55 0 108 -11.5t102.5 -35t83 -66.5t39.5 -100l209 121l13 -9l-3 -61q-2 -33 -2 -211q0 -44 32.5 -76t76.5 -32q42 0 71.5 32.5t37.5 75.5l61 -25q-16 -60 -63.5 -102.5t-106.5 -42.5q-45 0 -77 14.5t-50 36t-28.5 56t-13.5 65.5t-3 72q0 34 1 67t1 47l-154 -88 q-10 -78 -79 -124t-158 -62v-4q293 -46 293 -258q0 -72 -36.5 -128t-95.5 -88.5t-125 -48.5t-132 -16q-108 0 -203 45.5t-164 130.5z" />
<glyph unicode="&#x25e;" horiz-adv-x="980" d="M41 479q0 141 50.5 251.5t153 176.5t244.5 66q59 0 115.5 -13.5t107 -40t82 -75t31.5 -111.5q0 -168 -237 -219v-4q293 -46 293 -258q0 -72 -36.5 -128t-95.5 -88.5t-125 -48.5t-132 -16q-225 0 -338 137t-113 371zM174 481q0 -63 17 -135t48.5 -141t87.5 -114.5 t124 -45.5q97 0 167 61.5t70 157.5q0 56 -22.5 98.5t-61.5 67t-85 36t-99 11.5v62q93 2 159 47t66 135q0 78 -53 131t-131 53q-58 0 -107 -28.5t-81.5 -74t-55.5 -102.5t-33 -112.5t-10 -106.5z" />
<glyph unicode="&#x25f;" horiz-adv-x="645" d="M-100 -334q0 34 24.5 57t59.5 23q47 0 98 -65q27 -33 45 -45.5t41 -12.5q21 0 41 11t29 26q17 30 22.5 80t5.5 168v522h-250v64h250v280q0 89 -41 113q-33 19 -112 24v31h483v-31q-89 -8 -119 -32q-24 -20 -31.5 -50t-7.5 -77v-258h168v-64h-168v-430q0 -218 -89 -332 t-259 -114q-83 0 -136.5 31.5t-53.5 80.5z" />
<glyph unicode="&#x260;" horiz-adv-x="1216" d="M66 453q0 138 65 258t175 191t237 71q60 0 111 -19t108 -63v61q0 95 17.5 172t56 140.5t107.5 99t165 35.5q78 0 134 -30.5t56 -84.5q0 -34 -25 -56t-56 -22q-29 0 -55 19t-42 42.5t-38.5 42.5t-47.5 19q-19 0 -33.5 -4.5t-25.5 -17t-18.5 -23.5t-12 -35t-7 -40.5t-4 -50 t-1.5 -53.5v-61v-1099q0 -170 -130.5 -274.5t-338.5 -104.5q-144 0 -247 48t-103 114q0 32 21.5 53.5t53.5 21.5q31 0 55 -18.5t48 -51t37 -44.5q31 -28 80.5 -47t91.5 -19q59 0 113 24.5t89 67.5q62 74 62 203v191q-62 -63 -140 -100.5t-151 -37.5q-107 0 -201.5 66 t-150 177.5t-55.5 238.5zM254 518q0 -178 91 -303t222 -125q110 0 197 90v461q0 106 -62 178q-34 39 -84.5 63.5t-95.5 24.5q-115 0 -191.5 -111.5t-76.5 -277.5z" />
<glyph unicode="&#x261;" horiz-adv-x="1099" d="M66 453q0 131 61 250t172 194.5t244 75.5q70 0 125.5 -26t117.5 -79q12 10 21 19.5t15 16.5t14 19t11 17.5t12 22.5t13 24h60v-1042q0 -94 -40.5 -168.5t-108 -119t-149.5 -68t-171 -23.5q-40 0 -93 8t-114 25t-102 51t-41 78q0 32 21.5 53.5t53.5 21.5q27 0 51 -18.5 t46 -45t48 -53t69 -45t98 -18.5q125 0 194.5 83.5t69.5 211.5v191q-59 -61 -136 -99.5t-155 -38.5q-71 0 -136 28.5t-113.5 76.5t-84.5 110t-54.5 130.5t-18.5 136.5zM254 518q0 -70 19.5 -143t56.5 -138t99 -106t138 -41q110 0 197 90v461q0 104 -69 185t-173 81 q-69 0 -123 -38t-84 -98t-45.5 -125t-15.5 -128z" />
<glyph unicode="&#x262;" horiz-adv-x="1167" d="M61 465q0 201 170 338q150 119 363 119q38 0 199 -29q72 -14 81 -14q50 0 66 43h33l10 -291h-33q-28 60 -51 94.5t-57 65.5q-84 73 -226 73q-158 0 -251 -86q-125 -119 -125 -346q0 -184 108 -291.5t289 -107.5q44 0 90 7.5t83.5 27t37.5 45.5v215q0 81 -23.5 104.5 t-111.5 24.5v24h391v-24q-62 -3 -82.5 -24.5t-20.5 -86.5v-268q0 -30 -157 -65.5t-228 -35.5q-130 0 -239.5 36.5t-183.5 107.5q-132 129 -132 344z" />
<glyph unicode="&#x263;" horiz-adv-x="1024" d="M39 891v31h420v-31q-117 -6 -117 -53q0 -25 18 -68l238 -530l190 540q17 53 17 62q0 49 -94 49v31h272v-31q-16 -2 -29.5 -7t-24 -14.5t-17.5 -17.5t-14 -23t-10.5 -22t-9 -23t-6.5 -20l-225 -612l107 -222q53 -104 53 -202q0 -95 -60 -151t-157 -56q-213 0 -213 176 q0 54 8.5 89t30.5 77l92 188l-297 633l-64 137q-16 35 -40.5 49t-67.5 21zM465 -281q0 -53 19 -92t65 -39q49 0 81 33.5t32 83.5q0 33 -29 96l-86 172l-60 -139q-22 -55 -22 -115z" />
<glyph unicode="&#x264;" horiz-adv-x="1024" d="M27 760q0 65 47.5 113.5t111.5 48.5q37 0 70 -14t60.5 -40t47 -51t42.5 -61l139 -217l170 256q3 4 14 20.5t14.5 21t14 19t16 19t16 15t19 14t20 9t24 7.5t26.5 2q46 0 81 -35.5t35 -81.5q0 -51 -45 -131q-8 24 -14.5 39t-19 36t-29.5 31.5t-39 10.5q-28 0 -54.5 -17.5 t-40 -35t-34.5 -48.5l-133 -205q5 -9 30 -49t39 -65t33.5 -62t29 -67.5t9.5 -53.5q0 -89 -66.5 -148.5t-156.5 -59.5q-89 0 -143 45t-54 131q0 24 10.5 51t21 43.5t30.5 44.5l88 123l-185 280q-61 93 -120 93q-36 0 -59 -26.5t-34 -57.5t-14 -33q-18 52 -18 86zM379 150 q0 -42 30 -66.5t74 -24.5q47 0 73 33.5t26 81.5q0 15 -6 34t-18 41t-21 38t-25 40t-20 31q-6 -8 -32 -43t-39.5 -55.5t-27.5 -52.5t-14 -57z" />
<glyph unicode="&#x265;" horiz-adv-x="1024" d="M27 891v31h434v-31q-89 -9 -114 -40.5t-25 -137.5v-406q0 -217 151 -217q61 0 112.5 29t116.5 100v494q0 106 -25 137.5t-114 40.5v31h443v-31q-89 -12 -110.5 -41t-21.5 -137v-965q0 -66 19.5 -85t85.5 -19q19 0 25 2v-33l-56 -16q-158 -47 -235 -74l-11 6v623 q-70 -92 -140 -132t-161 -40q-251 0 -251 325v408q0 46 -2.5 71.5t-8.5 46t-21.5 30.5t-35 16.5t-55.5 13.5z" />
<glyph unicode="&#x266;" horiz-adv-x="1024" d="M18 0v31q47 7 68.5 13t38.5 24.5t21 48.5t4 86v817q0 160 106.5 269.5t267.5 109.5q147 0 248.5 -42.5t101.5 -107.5q0 -32 -21.5 -53.5t-53.5 -21.5q-13 0 -24.5 3.5t-19 7t-19 15t-16 17t-19.5 23.5t-21 26q-29 35 -68.5 58.5t-79.5 23.5q-47 0 -82.5 -21.5 t-70.5 -64.5q-57 -67 -57 -164v-328q65 87 137 129.5t162 42.5q253 0 253 -326v-407q0 -39 1.5 -64t8 -44.5t13.5 -30t23.5 -18.5t32 -12t44.5 -9v-31h-434v31q44 5 66 11t41 23t25.5 47t6.5 81v421q0 217 -157 217q-112 0 -223 -129v-503q0 -54 6.5 -86t26 -49t41.5 -23 t65 -10v-31h-443z" />
<glyph unicode="&#x267;" horiz-adv-x="985" d="M18 0v31q61 8 85.5 20.5t35.5 46.5t11 111v811q0 160 106.5 269.5t267.5 109.5q147 0 248.5 -42.5t101.5 -107.5q0 -32 -21.5 -53.5t-53.5 -21.5q-10 0 -18 2t-14.5 3.5t-14.5 7.5t-12 8.5t-13.5 13.5t-12.5 15t-15 19t-17 21q-67 84 -147 84q-86 0 -156 -86 q-57 -67 -57 -164v-328q126 172 299 172q52 0 93.5 -14.5t67 -35.5t44.5 -54.5t28 -60t14 -64.5t5.5 -57t0.5 -46v-641q0 -92 -24 -171.5t-70 -141.5t-121.5 -97.5t-171.5 -35.5q-78 0 -134 30.5t-56 84.5q0 34 25.5 55.5t56.5 21.5q24 0 45 -12.5t36 -30.5t29.5 -36.5 t33 -31t38.5 -12.5q141 0 141 285v737q0 217 -157 217q-112 0 -223 -129v-493q0 -47 5.5 -78t14 -49.5t28 -29t38 -14t53.5 -7.5v-31h-443z" />
<glyph unicode="&#x268;" horiz-adv-x="569" d="M33 0v31q57 3 85.5 9t48 27t24 52.5t4.5 93.5v258h-162v64h162v143q0 72 -15 100.5t-53 28.5q-49 0 -86 -10v32l317 113l9 -8v-399h151v-64h-151v-256q0 -115 25 -146t126 -38v-31h-485zM160 1294q0 43 30.5 74t73.5 31q44 0 74.5 -31t30.5 -74q0 -44 -30.5 -74 t-76.5 -30q-43 0 -72.5 30t-29.5 74z" />
<glyph unicode="&#x269;" horiz-adv-x="681" d="M35 797v32q26 9 107.5 38t133.5 46t64 17q8 0 14 -13t6 -28v-676q0 -65 31.5 -94t77.5 -29q64 0 135 74l33 -25q-45 -62 -113.5 -110.5t-138.5 -48.5q-112 0 -154.5 67t-42.5 209v430q0 68 -15.5 94.5t-51.5 26.5q-49 0 -86 -10z" />
<glyph unicode="&#x26a;" horiz-adv-x="528" d="M43 0v37q40 1 65.5 8t39.5 16t20.5 30t8 38.5t1.5 54.5v561q0 27 -0.5 40t-3 31t-8 25.5t-14.5 17.5t-24 14t-35.5 7.5t-49.5 4.5v37h430v-37q-33 -1 -55.5 -4.5t-37 -13.5t-22 -18t-11.5 -29.5t-4.5 -36t-0.5 -48.5v-540q0 -30 1 -46.5t5 -37.5t12 -31.5t22.5 -21.5 t37 -15.5t53.5 -5.5v-37h-430z" />
<glyph unicode="&#x26b;" horiz-adv-x="716" d="M20 653q23 100 76.5 153.5t130.5 53.5q15 0 43 -4v293q0 74 -18.5 102.5t-67.5 28.5q-42 0 -75 -4v33q203 50 323 90l10 -8v-605q52 -20 86 -20q35 0 58.5 23t50.5 81h59q-32 -117 -81.5 -167t-133.5 -50q-27 0 -39 2v-477q0 -86 28.5 -113.5t125.5 -33.5v-31h-483v31 q95 7 126 39t31 118v535l-2 2q-51 23 -84 23q-69 0 -104 -95h-60z" />
<glyph unicode="&#x26c;" horiz-adv-x="768" d="M25 702q0 90 65.5 155t153.5 65q17 0 29.5 -2t20.5 -6l9 -3v244q0 70 -19 97.5t-69 27.5q-24 0 -74 -4v33q201 50 326 90l8 -4v-801q77 27 143 67.5t101 75.5l22 -26q-4 -5 -11 -13.5t-31.5 -32.5t-53 -45.5t-74.5 -47.5t-96 -44v-356q0 -83 31 -109.5t123 -31.5v-31 h-484v31q93 8 125.5 38t32.5 115v305q-20 -4 -59 -4q-90 0 -154.5 63.5t-64.5 153.5zM131 723q0 -61 38 -105.5t97 -50.5q12 -2 37 -2v289q-20 8 -33 8q-47 0 -93 -44.5t-46 -94.5z" />
<glyph unicode="&#x26d;" horiz-adv-x="618" d="M20 1276v33q200 50 326 90l8 -4v-1518q0 -40 0.5 -61t1.5 -53.5t3.5 -50t7.5 -40.5t12.5 -35t18 -23.5t25.5 -16.5t34 -5q20 0 38.5 12.5t33 31t29.5 36.5t36 30.5t45 12.5q31 0 56.5 -21.5t25.5 -55.5q0 -54 -56.5 -84.5t-134.5 -30.5q-77 0 -137.5 23.5t-99.5 64 t-64.5 98t-36 121.5t-10.5 139v1186q0 70 -19 97.5t-71 27.5q-22 0 -72 -4z" />
<glyph unicode="&#x26e;" horiz-adv-x="1124" d="M39 1276v33q214 53 323 90l11 -4v-473h663v-103l-336 -418q40 7 66 7q65 0 125 -27t107.5 -76.5t75.5 -128t28 -174.5q0 -97 -28 -178.5t-74 -136t-106 -92.5t-122.5 -55t-124.5 -17q-55 0 -116.5 18t-100.5 45q-42 28 -65 70t-23 74q0 38 26.5 64t73.5 26q34 0 61 -30 t38 -77q11 -45 17.5 -64.5t22 -38t39 -23.5t64.5 -5q26 0 57 8.5t68.5 33.5t67.5 63.5t50.5 106t20.5 153.5q0 168 -86 248.5t-225 80.5q-20 0 -107 -38l-28 22l438 531h-567v-619q0 -45 6.5 -70.5t26.5 -40.5t45.5 -20.5t74.5 -9.5v-31h-483v31q43 3 70 10t48.5 22.5 t30.5 43.5t9 71v977q0 70 -19 97.5t-69 27.5q-49 0 -74 -4z" />
<glyph unicode="&#x26f;" horiz-adv-x="1593" d="M23 891v31h446v-31q-86 -9 -109.5 -36.5t-23.5 -117.5v-422q0 -123 35.5 -176t122.5 -53q71 0 122 29t97 96v516q0 99 -29.5 130.5t-118.5 33.5v31h459v-31q-90 -6 -114.5 -30t-24.5 -116v-432q0 -107 34 -167t99 -60q58 0 122.5 26t94.5 62q27 31 27 35v569 q0 65 -28.5 87.5t-111.5 25.5v31h455v-31q-86 -2 -114.5 -31.5t-28.5 -118.5v-508q0 -75 15.5 -105t55.5 -30q30 0 66 8v-34q-148 -41 -285 -92l-16 6v151h-4q-93 -96 -163.5 -126.5t-150.5 -30.5q-163 0 -217 172q-160 -172 -334 -172q-123 0 -180 91.5t-57 276.5v416 q0 67 -20.5 93.5t-67.5 29.5z" />
<glyph unicode="&#x270;" horiz-adv-x="1644" d="M23 891v31h446v-31q-44 -5 -65 -10.5t-39 -21t-23.5 -42.5t-5.5 -74v-426q0 -40 2 -67.5t11.5 -61t25.5 -54t46.5 -34.5t72.5 -14q78 0 126.5 31.5t92.5 93.5v528q0 24 -2.5 43.5t-6 34.5t-11.5 26t-13 18.5t-18 13t-20 8t-24 4.5t-25 2.5t-28 1.5v31h459v-31 q-89 -6 -114 -29t-25 -112v-439q0 -105 33.5 -165t101.5 -60q40 0 79 11.5t67.5 28t50.5 34.5t33.5 30.5t11.5 16.5v577q0 29 -8 49t-18 30.5t-32 16.5t-36.5 7.5t-45.5 3.5v31h455v-31q-31 -1 -47 -2.5t-38 -9.5t-32 -22t-18 -41.5t-8 -67.5v-1041q0 -41 9 -69.5t21.5 -44 t38 -24.5t46.5 -11.5t59 -3.5v-31h-492v31q35 6 50.5 9.5t37 10.5t29 15t16 22.5t11 34.5t2.5 49v442q-136 -157 -301 -157q-95 0 -145 41.5t-81 130.5q-24 -25 -38 -38.5t-50.5 -43t-68 -46t-79.5 -30.5t-96 -14q-239 0 -239 364v422q0 23 -2 38t-9 36t-25.5 33t-47.5 14z " />
<glyph unicode="&#x271;" horiz-adv-x="1593" d="M33 0v31q40 1 62 5t43 17.5t29.5 42.5t8.5 76v520q0 44 -6 72.5t-18 40t-22 15t-26 3.5q-33 0 -65 -8v35q157 44 287 92l14 -4v-156q95 93 162.5 126.5t152.5 33.5q93 0 143 -45.5t76 -128.5q152 174 334 174q61 0 106 -24t70 -59.5t39.5 -87.5t18.5 -96t4 -97v-609 q0 -92 -24 -171.5t-70 -141.5t-121.5 -97.5t-171.5 -35.5q-78 0 -134.5 30.5t-56.5 84.5q0 34 25.5 55.5t56.5 21.5q29 0 55 -19t42 -42.5t38.5 -42.5t47.5 -19q141 0 141 285v725q0 38 -2 65t-11 61.5t-24.5 56t-46 36.5t-72.5 15q-80 0 -130 -32.5t-91 -92.5v-531 q0 -30 4.5 -53.5t10.5 -39t18.5 -26.5t22.5 -16.5t28.5 -8.5t29.5 -3.5l33 -1.5v-31h-458v31q9 1 29.5 3.5t27 3.5t21.5 4t20 6.5t14.5 10.5t12.5 16t7.5 22t5.5 30t1 39v450q0 102 -35 161t-96 59q-41 0 -81.5 -11.5t-69 -28t-51 -34.5t-33.5 -31t-11 -18v-574 q0 -25 3.5 -42.5t14.5 -29t19 -18t29 -10.5t32.5 -5t40.5 -3v-31h-454z" />
<glyph unicode="&#x272;" horiz-adv-x="1083" d="M-143 -362q0 34 25.5 55.5t56.5 21.5q24 0 45 -12.5t36 -30.5t29.5 -36.5t33 -31t38.5 -12.5q19 0 33.5 4.5t25.5 17t18.5 23.5t12 35t7 40.5t4 50t1.5 53.5v61v823q0 42 -5.5 69t-17.5 37.5t-21.5 13.5t-26.5 3q-44 0 -60 -8v35q160 47 281 92l16 -6v-162 q72 80 142.5 124t152.5 44q48 0 88 -14.5t77 -48t58 -98t21 -154.5v-461q0 -73 25.5 -101t99.5 -34v-31h-426v31q37 5 54.5 10t38 21.5t28.5 50.5t8 90v420q0 101 -34 153.5t-120 52.5q-52 0 -98 -27t-109 -89v-744q0 -75 -10.5 -139t-36 -121.5t-64.5 -98t-99.5 -64 t-137.5 -23.5q-78 0 -134 30.5t-56 84.5z" />
<glyph unicode="&#x273;" horiz-adv-x="1091" d="M33 815v35q155 46 280 92l17 -6v-162q72 79 142 123.5t153 44.5q46 0 85.5 -14t77 -46.5t59 -96.5t21.5 -154v-754q0 -40 0.5 -61t1.5 -53.5t3.5 -50t7.5 -40.5t12.5 -35t18 -23.5t25.5 -16.5t34 -5q20 0 38.5 12.5t33 31t29.5 36.5t36 30.5t45 12.5q31 0 56.5 -21.5 t25.5 -55.5q0 -54 -56.5 -84.5t-134.5 -30.5q-77 0 -137.5 23.5t-99.5 64t-64.5 98t-36 121.5t-10.5 139v654q0 102 -33.5 154t-119.5 52q-51 0 -97.5 -27.5t-109.5 -88.5v-568q0 -58 28 -84t105 -30v-31h-432v31q75 6 101 35.5t26 117.5v512q0 45 -5.5 72.5t-18 38.5 t-22 13.5t-26.5 2.5q-43 0 -59 -8z" />
<glyph unicode="&#x274;" horiz-adv-x="1232" d="M59 0v37q103 9 130.5 39.5t27.5 140.5v592q-43 46 -71.5 61t-86.5 15v37h273l596 -664v451q0 59 -5.5 90t-23.5 49q-11 19 -36.5 25.5t-88.5 11.5v37h375v-37q-76 -7 -107 -27q-23 -19 -33 -53t-10 -113v-708h-28l-682 753v-520q0 -106 25 -138t118 -42v-37h-373z" />
<glyph unicode="&#x275;" horiz-adv-x="1024" d="M59 467q0 216 126.5 345.5t330.5 129.5q194 0 320.5 -129t126.5 -340q0 -210 -127 -351.5t-320 -141.5q-132 0 -237 65t-162.5 176t-57.5 246zM244 506h534q0 178 -78.5 278.5t-183.5 100.5q-52 0 -99.5 -24t-86 -69t-62 -119t-24.5 -167zM246 438q0 -173 82 -287 t188 -114q103 0 182.5 114t79.5 287h-532z" />
<glyph unicode="&#x276;" horiz-adv-x="1474" d="M47 453q0 263 205 393q122 76 303 76q22 0 100 -4q102 -7 185 -7h514v-196h-39q-12 93 -59 118t-201 25h-86q-65 0 -87 -10t-22 -37v-307h158q129 0 171.5 25.5t51.5 109.5h37v-326h-37q-10 81 -46 109.5t-126 28.5h-209v-326q0 -40 19.5 -58t74.5 -18h183 q81 0 139.5 39.5t116.5 136.5h34l-69 -229h-553q-52 0 -157.5 -4t-139.5 -4q-98 0 -192 36t-148 95q-121 133 -121 334zM225 453q0 -187 70 -293q81 -119 242 -119q84 0 120.5 32.5t36.5 106.5v543q0 76 -34 110.5t-113 34.5q-152 0 -237 -107t-85 -308z" />
<glyph unicode="&#x277;" horiz-adv-x="1366" d="M76 397q0 103 33 194.5t90.5 160.5t134 119.5t166.5 76t184 25.5q90 0 178 -25.5t164.5 -76t135 -119t92.5 -160.5t34 -195q0 -108 -45 -200t-130.5 -148.5t-194.5 -56.5q-82 0 -142 46t-94 126q-34 -80 -94 -126t-142 -46q-109 0 -194.5 56.5t-130.5 148.5t-45 200z M272 430q0 -54 8 -108t27 -112.5t59.5 -95t96.5 -36.5q64 0 109.5 44.5t45.5 110.5q0 44 -26.5 146.5t-26.5 163.5q0 125 117 125t117 -125q0 -61 -27 -163.5t-27 -146.5q0 -66 46 -110.5t110 -44.5q56 0 96.5 36.5t59.5 95t27 112.5t8 108q0 126 -32.5 224t-89 157.5 t-129 90t-157.5 30.5t-158.5 -30.5t-131 -90t-90 -157.5t-32.5 -224z" />
<glyph unicode="&#x278;" horiz-adv-x="1366" d="M82 451q0 102 43 184t117 134t163.5 82.5t190.5 39.5v330q0 83 -32.5 112t-125.5 35v31h484v-31q-49 -2 -75 -7.5t-46 -20.5t-26.5 -41.5t-6.5 -71.5v-336q101 -9 190.5 -39.5t163.5 -82.5t117 -134t43 -184q0 -128 -71.5 -231t-188 -160.5t-254.5 -65.5v-299 q0 -45 6.5 -71.5t26.5 -41.5t46 -20.5t75 -7.5v-31h-484v31q93 6 125.5 35t32.5 112v293q-138 8 -254.5 65.5t-188 160.5t-71.5 231zM287 455q0 -151 81.5 -267t227.5 -137v783q-149 -10 -229 -114.5t-80 -264.5zM768 51q147 21 228 137t81 267q0 160 -79.5 264.5 t-229.5 114.5v-783z" />
<glyph unicode="&#x279;" horiz-adv-x="757" d="M61 88q0 43 21.5 67.5t58.5 24.5q38 0 82 -41q35 -30 53 -30q43 0 93.5 58.5t50.5 108.5v461q0 88 -35 119t-139 35v31h491v-31q-98 -19 -121.5 -41.5t-23.5 -99.5v-512q0 -67 16 -95t54 -28q32 0 71 8v-33q-132 -43 -303 -110l-10 4v188q-76 -110 -128.5 -151 t-117.5 -41q-53 0 -83 28.5t-30 79.5z" />
<glyph unicode="&#x27a;" horiz-adv-x="757" d="M61 90q0 39 21 64.5t57 25.5q31 0 56 -18t45 -35.5t39 -17.5q40 0 90.5 58.5t50.5 108.5v869q0 73 -18 104t-68 31q-26 0 -76 -4v33q200 50 326 90l8 -4v-1223q0 -36 5 -59.5t14 -38.5t29.5 -23.5t42.5 -12.5t62 -7v-31h-325v172q-75 -109 -128.5 -150.5t-117.5 -41.5 q-54 0 -83.5 29.5t-29.5 80.5z" />
<glyph unicode="&#x27b;" horiz-adv-x="856" d="M61 90q0 39 21 64.5t57 25.5q31 0 56 -18t45.5 -35.5t40.5 -17.5q38 0 88.5 59.5t50.5 107.5v461q0 41 -9 69.5t-21.5 44.5t-38 24.5t-47 11.5t-58.5 4v31h491v-31q-42 -7 -59.5 -11.5t-39 -13.5t-29 -23t-12.5 -36t-5 -57v-510q0 -648 102 -648q25 0 47.5 19t38.5 42.5 t42 42.5t55 19q31 0 56 -21.5t25 -55.5q0 -54 -56 -84.5t-134 -30.5q-76 0 -137.5 44t-99.5 112.5t-64 156.5t-36.5 170.5t-10.5 159.5q-69 -104 -127.5 -145t-120.5 -41q-52 0 -81.5 29.5t-29.5 80.5z" />
<glyph unicode="&#x27c;" horiz-adv-x="681" d="M10 -446q35 6 50.5 9.5t37 10.5t29 15t16 22.5t11 34.5t2.5 49v989q0 43 -6 70t-18.5 37.5t-22 13t-25.5 2.5q-34 0 -70 -8v32q165 55 303 111l11 -4v-188q76 109 128 150.5t117 41.5q55 0 84 -29.5t29 -81.5q0 -39 -21 -64.5t-57 -25.5q-31 0 -55.5 18t-45 36t-40.5 18 q-37 0 -88 -59.5t-51 -106.5v-940q0 -41 9 -69.5t21.5 -44t38 -24.5t46.5 -11.5t59 -3.5v-31h-492v31z" />
<glyph unicode="&#x27d;" horiz-adv-x="757" d="M14 799v32q165 55 303 111l11 -4v-188q78 111 128.5 151.5t118.5 40.5q52 0 81.5 -30t29.5 -81q0 -39 -21 -64.5t-57 -25.5q-31 0 -55.5 18t-45 36t-40.5 18q-38 0 -88.5 -59t-50.5 -109v-768v-61t1.5 -53.5t4 -50t7 -40.5t12 -35t18.5 -23.5t25.5 -17t33.5 -4.5 q20 0 38.5 12.5t33 31t29.5 36.5t36 30.5t45 12.5q31 0 56.5 -21.5t25.5 -55.5q0 -54 -56 -84.5t-134 -30.5q-77 0 -137.5 23.5t-99.5 64t-64.5 98t-36 121.5t-10.5 139v715q0 43 -6 70t-18.5 37.5t-22 13t-25.5 2.5q-34 0 -70 -8z" />
<glyph unicode="&#x27e;" horiz-adv-x="645" d="M20 0v27q85 6 108.5 28.5t23.5 100.5v360q0 95 18 172t56.5 140.5t108 99t165.5 35.5q78 0 134 -30.5t56 -84.5q0 -34 -25.5 -56t-56.5 -22q-24 0 -45 12.5t-36 31t-29.5 36.5t-33 30.5t-38.5 12.5q-19 0 -33.5 -4.5t-25.5 -17t-18.5 -23.5t-12 -35t-7 -40.5t-4 -50 t-1.5 -53.5v-61v-452q0 -75 23 -99t108 -30v-27h-435z" />
<glyph unicode="&#x27f;" horiz-adv-x="716" d="M10 848q0 54 56.5 84.5t134.5 30.5q96 0 165.5 -35.5t108 -99t56.5 -140.5t18 -172v-360q0 -78 23.5 -100.5t107.5 -28.5v-27h-434v27q85 6 108 30t23 99v452q0 40 -0.5 61t-1.5 53.5t-3.5 50t-7.5 40.5t-12.5 35t-18 23.5t-25.5 16.5t-34 5q-20 0 -38.5 -12.5t-33 -30.5 t-29.5 -36.5t-36 -31t-45 -12.5q-31 0 -56.5 22t-25.5 56z" />
<glyph unicode="&#x280;" horiz-adv-x="972" d="M43 0v37q45 2 70.5 12t44.5 35q13 19 17.5 42t4.5 75v526q0 64 -5 90t-23 47q-33 41 -109 49v37h455q155 0 251.5 -69.5t96.5 -180.5q0 -86 -63.5 -148.5t-184.5 -96.5l233 -349q28 -39 51.5 -54t59.5 -15h21v-37h-246l-295 428h-76v-217q0 -97 29.5 -134t109.5 -40v-37 h-442zM346 496h35q105 0 162 32q54 28 83 73t29 99q0 85 -56.5 135t-154.5 50q-36 0 -98 -15v-374z" />
<glyph unicode="&#x281;" horiz-adv-x="972" d="M43 0v37q76 8 109 49q18 21 23 47t5 90v527q0 51 -4.5 74t-17.5 42q-19 25 -44.5 35t-70.5 12v37h442v-37q-80 -3 -109.5 -40t-29.5 -134v-217h76l295 428h246v-37h-21q-36 0 -59.5 -15t-51.5 -54l-233 -348q121 -34 184.5 -97t63.5 -149q0 -111 -96.5 -180.5 t-251.5 -69.5h-455zM346 80q57 -14 98 -14q98 0 154.5 49.5t56.5 134.5q0 54 -29 99t-83 73q-59 33 -162 33h-35v-375z" />
<glyph unicode="&#x282;" horiz-adv-x="796" d="M102 -209q0 28 2 95t2 106v319h33q33 -150 94 -219t166 -69q76 0 123 43t47 108q0 95 -108 154l-111 61q-246 136 -246 297q0 119 77 185.5t206 66.5q88 0 137 -23q37 -16 58 -16q13 0 32 21h23l10 -279h-31q-35 138 -87 195t-144 57q-70 0 -112 -35t-42 -104 q0 -36 23.5 -75.5t64.5 -64.5l213 -129q102 -62 141.5 -114.5t39.5 -137.5q0 -103 -85 -179.5t-202 -76.5q-94 0 -150 19q-55 18 -94 18h-12q-4 -132 -4 -196q0 -46 3 -78t11 -60.5t24 -42.5t40 -14q20 0 38.5 12.5t33 30.5t29.5 36.5t36 31t45 12.5q31 0 56.5 -22t25.5 -56 q0 -54 -56.5 -84t-134.5 -30q-55 0 -94.5 11t-62.5 30t-36.5 50.5t-17.5 64.5t-4 81z" />
<glyph unicode="&#x283;" horiz-adv-x="659" d="M-143 -362q0 34 25.5 55.5t56.5 21.5q24 0 45 -12.5t36 -30.5t29.5 -36.5t33 -31t38.5 -12.5q57 0 81.5 47.5t24.5 137.5v1175q0 447 344 447q78 0 134.5 -30.5t56.5 -84.5q0 -34 -25.5 -56t-56.5 -22q-24 0 -45 12.5t-36 31t-29.5 36.5t-33 30.5t-38.5 12.5 q-28 0 -48 -17t-29.5 -38.5t-14.5 -58t-6 -58.5t-1 -57v-1192q0 -170 -89.5 -277.5t-262.5 -107.5q-78 0 -134 30.5t-56 84.5z" />
<glyph unicode="&#x284;" horiz-adv-x="622" d="M-143 -334q0 30 23 55t59 25q24 0 45 -12.5t36 -31t29.5 -36.5t33 -30.5t38.5 -12.5q19 0 33.5 4.5t25 15.5t18 22.5t12 33t7.5 39t4 49t1.5 53.5t0.5 62v98h-157v63h157v820q0 69 4.5 125t17 118.5t37 108.5t61.5 84.5t95 59t133 20.5q41 0 81.5 -9t75 -36.5t34.5 -69.5 q0 -31 -25 -54.5t-55 -23.5q-24 0 -44.5 12.5t-35.5 31t-29.5 36.5t-33.5 30.5t-41 12.5q-103 0 -103 -246v-1020h158v-63h-158q0 -74 -10.5 -137.5t-35.5 -121.5t-64 -98.5t-99.5 -64.5t-138.5 -24q-77 0 -133.5 29t-56.5 83z" />
<glyph unicode="&#x285;" horiz-adv-x="819" d="M31 848q0 54 56 84.5t134 30.5q96 0 165.5 -35.5t108 -99t56.5 -140.5t18 -172v-639q0 -40 0.5 -61t1.5 -53.5t3.5 -50t7.5 -40.5t12.5 -35t18 -23.5t25.5 -16.5t34 -5q20 0 38.5 12.5t33 31t29.5 36.5t36 30.5t45 12.5q31 0 56.5 -21.5t25.5 -55.5q0 -54 -56.5 -84.5 t-134.5 -30.5q-77 0 -137.5 23.5t-99.5 64t-64.5 98t-36 121.5t-10.5 139v639v61t-1.5 53.5t-4 50t-7 40.5t-12 35t-18.5 23.5t-25.5 17t-33.5 4.5q-20 0 -38.5 -12.5t-33 -30.5t-29.5 -36.5t-36 -31t-45 -12.5q-31 0 -56.5 22t-25.5 56z" />
<glyph unicode="&#x286;" horiz-adv-x="894" d="M-47 -219q0 104 76 180t182 76q76 0 119 -14v940q0 94 17.5 169.5t56 137t107 95.5t163.5 34q41 0 81 -9.5t74.5 -37t34.5 -68.5q0 -31 -25 -54.5t-55 -23.5q-25 0 -46.5 12.5t-37 31t-30 36.5t-32.5 30.5t-38 12.5q-23 0 -41 -10t-28 -30.5t-16.5 -39.5t-9 -48.5t-3 -45 t-0.5 -41.5v-1171q93 -69 143.5 -176.5t50.5 -227.5q0 -13 -4 -37h-53v29q0 101 -34.5 191.5t-102.5 154.5q-14 -167 -86.5 -260.5t-206.5 -93.5q-104 0 -180 77t-76 181zM4 -219q0 -82 61.5 -144.5t143.5 -62.5q64 0 92.5 55.5t28.5 137.5v200q-52 19 -121 19 q-83 0 -144 -61t-61 -144z" />
<glyph unicode="&#x287;" horiz-adv-x="569" d="M33 786q100 156 248 156q180 0 180 -260v-616h108q9 -6 9 -15q0 -18 -35 -39q-80 -47 -199 -219q-5 -7 -19.5 -26.5t-21.5 -30.5q-14 0 -14 26v238h-207v66h207v585q0 98 -25 141.5t-82 43.5q-34 0 -61.5 -16t-61.5 -56z" />
<glyph unicode="&#x288;" horiz-adv-x="552" d="M27 870q0 12 12 22t36 26t42 34q37 38 68.5 76.5t51 65t64.5 92.5q7 0 10 -4t3.5 -8.5t0.5 -14.5v-237h207v-66h-207v-1147q0 -62 6 -89.5t25 -27.5q26 0 44 19.5t27 43t29.5 43t49.5 19.5q33 0 58.5 -22t25.5 -57q0 -54 -57.5 -84.5t-135.5 -30.5q-62 0 -107 15.5 t-71 41t-41 67t-20 83.5t-5 100v1026h-108q-8 4 -8 14z" />
<glyph unicode="&#x289;" horiz-adv-x="1024" d="M18 471v64h127v221q0 76 -26.5 104t-100.5 33v29h299v-387h365v219q0 80 -28.5 103.5t-123.5 29.5v35h324v-387h127v-64h-127v-252q0 -71 23.5 -95t93.5 -24h12v-26q-170 -47 -281 -92l-10 6v168h-4q-47 -64 -103.5 -105.5t-102 -56t-87.5 -14.5q-117 0 -183.5 71 t-66.5 191v229h-127zM317 260q0 -70 42.5 -116t103.5 -46q99 0 172 64q27 24 37 46t10 73v190h-365v-211z" />
<glyph unicode="&#x28a;" horiz-adv-x="1099" d="M94 881v41h287q-102 -286 -102 -504q0 -66 14 -154q16 -103 86 -173.5t170 -70.5t170 70.5t86 173.5q14 88 14 156q0 219 -102 502h287v-41h-78q-32 0 -58 -24t-26 -52q0 -42 20 -62q16 -14 43.5 -50t60.5 -111t33 -146q0 -190 -131 -323t-319 -133q-123 0 -227.5 61.5 t-164 164.5t-59.5 222q0 59 18.5 117t46.5 101t44.5 64t28.5 33q20 20 20 58q0 34 -26 57t-58 23h-78z" />
<glyph unicode="&#x28b;" horiz-adv-x="1024" d="M66 799v32q161 49 319 111l10 -6v-678q0 -73 53.5 -134t124.5 -61q74 0 139 39t108 100t68 133.5t25 141.5q0 86 -21.5 149.5t-52 96t-61 56.5t-52 46.5t-21.5 48.5q0 29 29.5 48.5t58.5 19.5q46 0 81 -33.5t53.5 -80.5t30 -109.5t14.5 -108t3 -88.5q0 -104 -25.5 -198 t-76 -172.5t-137 -125t-197.5 -46.5q-155 0 -235.5 65t-80.5 217v422q0 24 -0.5 35.5t-4 31.5t-10.5 30t-21 18t-35 8q-28 0 -86 -8z" />
<glyph unicode="&#x28c;" horiz-adv-x="1024" d="M-8 0v31q47 5 69.5 31.5t63.5 127.5l262 658q24 58 36 80t21 22q16 0 37 -53l262 -631q46 -109 72 -155.5t49.5 -62t65.5 -17.5v-31h-402v31q53 5 74 17t21 38q0 29 -19 78l-209 524l-202 -530q-13 -33 -13 -62q0 -56 96 -65v-31h-284z" />
<glyph unicode="&#x28d;" horiz-adv-x="1478" d="M43 0v31q31 10 45 29t39 81l283 709q25 62 36 81t21 19t17.5 -13.5t31.5 -74.5l186 -483l230 491q38 80 51 80q17 0 53 -90l277 -700q31 -80 51 -103t57 -26v-31h-368v31q54 6 74 20.5t20 46.5t-12 62l-203 534l-187 -407l41 -115q29 -82 56.5 -108.5t85.5 -32.5v-31 h-416v31q72 10 95.5 24.5t23.5 46.5q0 35 -35 123l-172 459l-184 -455q-35 -84 -35 -137q0 -25 19 -38t71 -23v-31h-252z" />
<glyph unicode="&#x28e;" horiz-adv-x="909" d="M-4 0v31q37 5 59 26.5t43 77.5l308 838q79 218 160 306.5t198 88.5q65 0 104 -33.5t39 -85.5q0 -38 -25.5 -66t-62.5 -28q-56 0 -106 27q-27 14 -54 14q-41 0 -102 -90q-29 -41 -55.5 -117t-26.5 -104q0 -6 2.5 -16t8 -25t10.5 -27t15 -34t15.5 -33t18 -37t16.5 -35 l270 -578q26 -58 109 -71v-29h-420v31q66 3 91.5 15t25.5 40q0 19 -27 84l-229 512l-199 -565q-8 -19 -8 -37q0 -49 94 -49v-31h-272z" />
<glyph unicode="&#x28f;" horiz-adv-x="1202" d="M47 913v37h430v-37l-43 -2q-38 -1 -47.5 -9t-9.5 -28q0 -15 39 -65l235 -309l238 309q24 35 24 70q0 19 -13.5 26t-68.5 8v37h324v-37q-39 -3 -63 -9.5t-50.5 -28.5t-46 -45t-61.5 -78l-244 -318v-217q0 -33 1.5 -54t9 -47.5t22 -41.5t41.5 -26t65 -11v-37h-442v37 q39 0 66 10.5t40.5 24.5t21 39t8.5 41.5t1 44.5v225l-213 272q-112 142 -157 179t-107 40z" />
<glyph unicode="&#x290;" horiz-adv-x="1081" d="M55 0v31l545 829h-291q-29 0 -52 -5t-38.5 -11t-27.5 -21t-18.5 -25.5t-12.5 -35t-8 -37.5t-7 -45h-36l8 242h708v-31l-551 -830h273q166 0 217 56q20 21 30.5 57t24.5 113l37 -8q-37 -448 -37 -512q0 -75 18 -109.5t64 -34.5q20 0 38.5 12.5t33 30.5t29.5 36.5t36 31 t45 12.5q31 0 56.5 -22t25.5 -56q0 -54 -56 -84t-134 -30q-53 0 -92 15t-62 39.5t-36.5 60.5t-18 72t-4.5 81q0 36 4 101.5t4 76.5h-715z" />
<glyph unicode="&#x291;" horiz-adv-x="1038" d="M55 0v31l545 829h-289q-30 0 -53 -5t-38.5 -10t-27.5 -20.5t-18.5 -24.5t-12.5 -35t-8.5 -38t-7.5 -47h-36l8 242h708v-31l-551 -830h234q160 246 264 261q36 4 51 4q80 0 127 -41t47 -111q0 -80 -61 -127t-184 -47h-203q-39 -67 -79 -143.5t-60 -120.5l-21 -43h-74 q66 151 156 307h-416zM586 61h168q102 0 139 31.5t37 83.5q0 46 -27.5 71t-77.5 25q-26 0 -53 -6q-66 -15 -186 -205z" />
<glyph unicode="&#x292;" horiz-adv-x="845" d="M25 614l49 308h663v-103l-336 -418q40 7 66 7q65 0 125 -27t107.5 -76.5t75.5 -128t28 -174.5q0 -119 -41.5 -213.5t-109 -150.5t-146.5 -85.5t-162 -29.5q-54 0 -114 18t-99 45q-42 28 -65 70t-23 74q0 38 26.5 64t73.5 26q36 0 62 -32t35 -71q21 -86 45 -110.5 t100 -24.5q26 0 57 8.5t68.5 33.5t67.5 63.5t50.5 106t20.5 153.5q0 168 -86 248.5t-225 80.5q-20 0 -107 -38l-28 22l438 531h-408q-32 0 -56 -4.5t-41 -10.5t-29.5 -20.5t-19 -25t-12.5 -33.5t-8 -37.5t-6 -45.5h-36z" />
<glyph unicode="&#x293;" horiz-adv-x="882" d="M25 -293q0 72 47 117t133 45t148.5 -54.5t162.5 -203.5q60 34 99.5 115.5t39.5 220.5q0 138 -88 233.5t-225 95.5q-14 0 -33 -5t-30.5 -9.5t-31 -13.5t-20.5 -10l-28 22l391 600h-283q-32 0 -56 -5t-41 -11t-29.5 -20.5t-19 -25.5t-12.5 -34.5t-8 -38t-6 -45.5h-37l8 242 h709v-31l-364 -549q5 0 15 1t17 1q60 0 121.5 -23t114.5 -65t87 -111.5t34 -152.5q0 -172 -82.5 -284t-204.5 -154l94 -179h-76l-88 158q-43 -10 -157 -10q-301 0 -301 184zM168 -291q0 -45 33.5 -75t74 -41t82.5 -11q81 0 95 4q-141 213 -213 213q-34 0 -53 -25.5 t-19 -64.5z" />
<glyph unicode="&#x294;" horiz-adv-x="921" d="M96 1192q0 32 23 73.5t65 69.5t106.5 46t125.5 18q94 0 167 -24t116.5 -61t71.5 -86.5t38 -95.5t10 -94q0 -83 -28.5 -148t-77.5 -105t-101 -63t-112 -34v-479q0 -61 6.5 -94.5t28 -52t47.5 -23.5t80 -8v-31h-486v31q36 2 60 6t41.5 14t27 21t15 33t7 44t1.5 60v520 q117 0 207 94t90 217q0 52 -11.5 106.5t-33.5 104t-59.5 81.5t-84.5 32q-49 0 -87 -40.5t-48 -90.5q-26 -131 -106 -131q-44 0 -71.5 26.5t-27.5 63.5z" />
<glyph unicode="&#x295;" horiz-adv-x="921" d="M98 1038q0 48 10.5 94t38.5 95.5t71.5 86.5t116.5 61t167 24q61 0 125 -18t106 -46t65 -69.5t23 -73.5q0 -37 -27 -63.5t-71 -26.5q-38 0 -66 32.5t-41 98.5q-10 50 -48 90.5t-87 40.5q-61 0 -106 -55t-63.5 -126.5t-18.5 -142.5q0 -123 90 -217t207 -94v-520 q0 -46 2.5 -70.5t10 -47.5t24.5 -33.5t44 -17.5t70 -9v-31h-485v31q54 3 80 8t47.5 23.5t28 52t6.5 94.5v479q-60 11 -112 34t-101.5 63t-78 105t-28.5 148z" />
<glyph unicode="&#x296;" horiz-adv-x="921" d="M96 178q0 37 27.5 63.5t71.5 26.5q80 0 106 -131q10 -50 48 -90.5t87 -40.5q47 0 84.5 32t59.5 81.5t33.5 104t11.5 106.5q0 123 -90 217t-207 94v506q0 38 -1.5 60t-7 44t-15 33t-27 21t-41.5 14t-60 6v31h486v-31q-54 -3 -80 -8t-47.5 -23.5t-28 -52t-6.5 -94.5v-465 q60 -11 112 -34t101 -63t77.5 -105t28.5 -148q0 -48 -10 -94t-38 -95.5t-71.5 -86.5t-116.5 -61t-167 -24q-61 0 -125.5 18t-106.5 46t-65 69.5t-23 73.5z" />
<glyph unicode="&#x297;" horiz-adv-x="921" d="M164 -156v774q0 96 56 172t140.5 114t178.5 38q107 0 183.5 -67t76.5 -173q0 -43 -21.5 -83.5t-60.5 -40.5q-24 0 -42 17t-18 40q0 20 14.5 52t14.5 50q0 55 -39 94t-94 39q-78 0 -147.5 -58.5t-69.5 -135.5v-815q0 -95 66.5 -166.5t160.5 -71.5q109 0 169.5 70.5 t60.5 177.5q0 9 -5 49h52v-78q0 -82 -50 -155.5t-128.5 -115.5t-159.5 -42q-84 0 -161.5 42t-127 115.5t-49.5 157.5z" />
<glyph unicode="&#x298;" horiz-adv-x="1480" d="M68 678q0 157 50.5 290.5t140 226t216 144.5t273.5 52q198 0 351 -95t233.5 -257t80.5 -363q0 -147 -47 -277t-132 -226t-212 -152t-279 -56q-139 0 -262 51.5t-214.5 142.5t-145 226t-53.5 293zM258 682q0 -183 53.5 -328t164.5 -233t265 -88q96 0 184.5 50.5t154 136.5 t104.5 207t39 255q0 182 -58 329t-170 234.5t-260 87.5q-100 0 -187 -44t-151.5 -125t-101.5 -205.5t-37 -276.5zM604 678q0 54 38 91.5t93 37.5q53 0 90 -37.5t37 -91.5t-36.5 -91.5t-90.5 -37.5t-92.5 37.5t-38.5 91.5z" />
<glyph unicode="&#x299;" horiz-adv-x="942" d="M31 0v37q90 0 122.5 33t32.5 112v576q0 73 -32 109t-123 46v37h415q406 0 406 -239q0 -97 -55.5 -142.5t-163.5 -66.5v-2q125 -22 200.5 -81.5t75.5 -162.5q0 -119 -104.5 -187.5t-282.5 -68.5h-491zM352 131q0 -38 21.5 -51.5t79.5 -13.5q272 0 272 190q0 55 -18.5 94 t-46.5 60.5t-74 33.5t-88.5 15.5t-102.5 3.5h-43v-332zM352 532h109q122 0 175.5 41t53.5 132t-64.5 135.5t-203.5 44.5h-33q-21 0 -29 -10t-8 -35v-308z" />
<glyph unicode="&#x29a;" horiz-adv-x="980" d="M41 252q0 212 293 258v4q-238 51 -238 219q0 63 31.5 111.5t82 75t107 40t115.5 13.5q142 0 245 -66t153.5 -176.5t50.5 -251.5q0 -234 -113 -371t-338 -137q-66 0 -132 16t-125 48.5t-95.5 88.5t-36.5 128zM233 264q0 -96 70.5 -157.5t167.5 -61.5q68 0 124 45.5 t87.5 114.5t48.5 141t17 135q0 51 -10 106.5t-33 112.5t-55.5 102.5t-81.5 74t-107 28.5q-78 0 -131.5 -53t-53.5 -131q0 -90 66 -135t160 -47v-62q-53 0 -99.5 -11.5t-85.5 -36t-61.5 -67t-22.5 -98.5z" />
<glyph unicode="&#x29b;" horiz-adv-x="1228" d="M59 461q0 137 78 244.5t197.5 162t253.5 54.5q44 0 90.5 -7t110 -21.5t88.5 -19.5q5 88 57.5 142.5t138.5 54.5q46 0 83.5 -27t37.5 -69q0 -47 -43 -47q-24 0 -38.5 15.5t-20 34.5t-19.5 34.5t-37 15.5t-38 -14t-20.5 -39.5t-7 -43t-1.5 -42.5q0 -43 10 -258h-35 q-47 118 -129 176.5t-209 58.5q-92 0 -164.5 -34.5t-117 -94t-68 -136.5t-23.5 -165q0 -183 109 -293t293 -110q22 0 52 3t68 11t63.5 25t25.5 41v223q0 41 -4.5 63t-26 34t-35.5 14.5t-64 6.5q-2 1 -3.5 1h-3.5v26h395v-26q-65 -5 -87 -24t-22 -81v-272q0 -31 -159.5 -66 t-215.5 -35q-120 0 -220 29t-176.5 86.5t-119.5 151.5t-43 217z" />
<glyph unicode="&#x29c;" horiz-adv-x="1171" d="M43 0v37q50 3 76 10t40.5 28t17.5 46t3 78v577q0 84 -23.5 107.5t-113.5 29.5v37h440v-37q-88 -6 -112.5 -30t-24.5 -107v-258h496v258q0 46 -3.5 69t-20 38.5t-40 20.5t-73.5 9v37h442v-37q-90 -6 -114.5 -30t-24.5 -107v-592q0 -81 27.5 -113.5t111.5 -33.5v-37h-442 v37q49 2 75.5 9t40.5 27t17.5 44.5t3.5 75.5v258h-496v-258q0 -84 25.5 -118t111.5 -38v-37h-440z" />
<glyph unicode="&#x29d;" horiz-adv-x="792" d="M-47 -236q0 98 79.5 167t178.5 69q19 0 38.5 -2t43.5 -7.5t36 -8.5t42.5 -12t36.5 -11v735q0 32 -3.5 53.5t-20.5 40.5t-48 19q-28 0 -86 -8v32q161 49 319 111l11 -6v-1100q142 -136 264 -313h-82q-27 37 -59 73.5t-77.5 85.5t-64.5 70q-94 -229 -342 -229 q-105 0 -185.5 68.5t-80.5 172.5zM25 -225q0 -83 66 -132t151 -49q88 0 127 59.5t39 153.5v78q-33 17 -91.5 30t-97.5 13q-73 0 -133.5 -42t-60.5 -111zM373 1294q0 42 30.5 73.5t71.5 31.5q43 0 75 -31t32 -74q0 -44 -31 -74t-76 -30q-41 0 -71.5 31.5t-30.5 72.5z" />
<glyph unicode="&#x29e;" horiz-adv-x="1062" d="M2 891v31h447v-31h-39q-19 0 -31 -8.5t-12 -22.5q0 -19 22 -47l307 -405v376q0 54 -25.5 78t-86.5 27l-41 2v31h479v-31q-42 -7 -63 -11t-41.5 -12t-28 -14.5t-14 -22.5t-7 -31.5t-0.5 -45.5v-987q0 -74 18 -99.5t70 -25.5q12 0 66 4v-33l-61 -16q-136 -36 -256 -74l-9 4 v860l-280 -250q-47 -44 -47 -71q0 -20 21 -28t81 -9v-29h-418v31q71 0 120 16.5t122.5 70t200.5 171.5l59 55l-313 397q-62 78 -116.5 111.5t-123.5 38.5z" />
<glyph unicode="&#x29f;" horiz-adv-x="962" d="M43 0v37q77 3 100 30.5t23 102.5v602q0 45 -2.5 66.5t-15 40t-36.5 25t-69 9.5v37h395v-37q-45 -2 -70.5 -10.5t-36.5 -29.5t-13.5 -40.5t-2.5 -62.5v-639q0 -41 25.5 -53t108.5 -12h102q181 0 252 88q28 39 61 106h39l-72 -260h-788z" />
<glyph unicode="&#x2a0;" horiz-adv-x="1228" d="M49 420q0 145 59.5 265t163 188.5t228.5 68.5q62 0 115 -15.5t126 -54.5l7 76q9 113 70 178.5t147 65.5q110 0 174 -37q69 -38 69 -108q0 -28 -17.5 -48t-51.5 -20q-29 0 -53.5 15.5t-38.5 41.5q-36 68 -82 68q-95 0 -95 -178v-1215q0 -65 24 -88.5t105 -32.5v-34h-483 v34q109 8 145.5 39t36.5 117v385q-139 -151 -321 -151q-145 0 -236.5 123t-91.5 317zM225 494q0 -106 31.5 -198t83.5 -136q62 -56 154 -56q50 0 98 17.5t82 48.5q24 21 24 90v422q0 201 -190 201q-131 0 -207 -104t-76 -285z" />
<glyph unicode="&#x2a1;" horiz-adv-x="921" d="M98 1188q0 63 53.5 113.5t122 74t129.5 23.5q88 0 163 -22t132.5 -65t90 -113.5t32.5 -160.5q0 -147 -86.5 -237t-234.5 -117v-289h159v-63h-159v-142q0 -41 5 -66t21.5 -47t50 -33t87.5 -13v-31h-486v31q54 3 83.5 11.5t45 31.5t19.5 51t4 84v123h-158v63h158v330 q120 0 208.5 95.5t88.5 215.5q0 44 -10.5 96t-31 105t-59 88t-86.5 35t-78 -27t-44 -65.5t-26.5 -77t-36 -65.5t-62.5 -27t-67 26t-28 64z" />
<glyph unicode="&#x2a2;" horiz-adv-x="921" d="M98 1038q0 90 32.5 160.5t90 113.5t132.5 65t163 22q61 0 129.5 -23.5t122 -74t53.5 -113.5q0 -38 -27.5 -64t-66.5 -26q-33 0 -55.5 19.5t-33 48.5t-23.5 63t-26 63t-41 48.5t-69 19.5q-48 0 -86 -35t-58.5 -88t-31 -105t-10.5 -96q0 -120 88.5 -215.5t208.5 -95.5v-330 h158v-63h-158v-123q0 -56 3.5 -84t19 -51t45 -31.5t83.5 -11.5v-31h-485v31q54 2 87.5 13t50 33t21.5 47t5 66v142h-160v63h160v289q-149 27 -235.5 117t-86.5 237z" />
<glyph unicode="&#x2a3;" horiz-adv-x="1642" d="M55 420q0 218 124.5 370t301.5 152q62 0 109.5 -19.5t105.5 -68.5v320q0 63 -18.5 83.5t-75.5 20.5q-29 0 -45 -2v33q195 52 301 90l10 -4v-494h688v-31l-550 -829h272q171 0 217 55q20 24 29 54t26 116l37 -8l-31 -278h-851l-9 6v131q-53 -72 -114.5 -104.5 t-147.5 -32.5q-170 0 -274.5 121.5t-104.5 318.5zM231 502q0 -189 77 -302.5t206 -113.5q95 0 152 66q30 33 30 57v471q0 82 -63 143.5t-146 61.5q-117 0 -186.5 -104.5t-69.5 -278.5zM868 233q0 -58 11 -83l452 690h-276q-97 0 -131 -34.5t-47 -146.5h-9v-426z" />
<glyph unicode="&#x2a4;" horiz-adv-x="1521" d="M55 426q0 141 58 260t155.5 187.5t210.5 68.5q64 0 114 -21t103 -67v320q0 29 -1.5 43t-9.5 31t-27 23.5t-52 6.5t-49 -2v33q189 50 301 90l10 -4v-473h545v-103l-336 -418q40 7 66 7q139 0 237.5 -113t98.5 -303q0 -98 -29 -179t-75.5 -133.5t-107.5 -89t-123 -52 t-124 -15.5q-54 0 -114 18t-99 45q-42 28 -65 70t-23 74q0 37 25 63.5t69 26.5q84 0 113 -137q7 -36 16 -54.5t38 -32.5t81 -14q26 0 57 8.5t68.5 33.5t67.5 63.5t50.5 106t20.5 153.5q0 168 -86 248.5t-225 80.5q-33 0 -86 -47q-25 -23 -51.5 -53t-44.5 -53t-52 -68 t-55 -71l-29 2v131q-17 -23 -28 -36t-36 -35t-50 -34.5t-65.5 -22t-88.5 -9.5q-41 0 -85.5 10.5t-97.5 41t-94 77.5t-68.5 129.5t-27.5 187.5zM231 506q0 -110 24.5 -193.5t66.5 -131.5t92 -71.5t108 -23.5q64 0 119 43t55 84v459q0 96 -66 154.5t-145 58.5q-46 0 -89 -21 t-81 -63.5t-61 -118.5t-23 -176zM868 256l449 535h-449v-535z" />
<glyph unicode="&#x2a5;" horiz-adv-x="1769" d="M55 420q0 218 124.5 370t301.5 152q62 0 109.5 -19.5t105.5 -68.5v320q0 63 -18.5 83.5t-75.5 20.5q-29 0 -45 -2v33q195 52 301 90l10 -4v-494h688v-31l-550 -829h233q160 245 264 260q36 4 51 4q80 0 127.5 -40.5t47.5 -110.5q0 -80 -61.5 -127t-184.5 -47h-203 q-39 -67 -79 -144t-61 -120l-20 -44h-73q65 152 155 308h-497l-9 6v131q-53 -72 -114.5 -104.5t-147.5 -32.5q-170 0 -274.5 121.5t-104.5 318.5zM231 502q0 -189 77 -302.5t206 -113.5q95 0 152 66q30 33 30 57v471q0 82 -63 143.5t-146 61.5q-117 0 -186.5 -104.5 t-69.5 -278.5zM868 233q0 -58 11 -83l452 690h-289q-50 0 -80 -9t-47 -38.5t-22 -48.5t-14 -75q-1 -7 -2 -10h-9v-426zM1317 41h168q102 0 139 31.5t37 83.5q0 46 -27.5 71t-77.5 25q-26 0 -53 -6q-66 -15 -186 -205z" />
<glyph unicode="&#x2a6;" horiz-adv-x="1097" d="M27 870q0 18 34 39q80 47 199 219q30 46 41 58q14 0 14 -27v-237h246q62 20 127 20q90 0 137 -22q39 -17 58 -17q13 0 32 21h23l10 -279h-30q-35 138 -87.5 195t-144.5 57q-70 0 -112 -35t-42 -104q0 -36 24 -75.5t65 -64.5l213 -129q102 -62 141 -114t39 -137 q0 -103 -85.5 -180.5t-201.5 -77.5q-90 0 -149 20q-55 18 -95 18q-12 0 -18 2q-61 -40 -141 -40q-181 0 -181 260v616h-108q-8 5 -8 14zM315 270q0 -98 25 -141t82 -43q34 0 61.5 16t61.5 56l26 -23l-32 -47q37 -36 73.5 -49.5t87.5 -13.5q76 0 123 44t47 109q0 95 -108 154 l-111 61q-245 135 -245 297q0 103 57 166h-148v-586z" />
<glyph unicode="&#x2a7;" horiz-adv-x="989" d="M27 868q0 15 12 25t36.5 26t41.5 33q18 17 35 36.5t29.5 34t30.5 38.5t27 37t30.5 43.5t31.5 44.5q14 0 14 -27v-237h256q0 169 33 264q73 213 311 213q78 0 134.5 -30.5t56.5 -84.5q0 -34 -25.5 -56t-56.5 -22q-24 0 -45 12.5t-36 31t-29.5 36.5t-33 30.5t-38.5 12.5 q-99 0 -99 -209v-1214q0 -168 -89.5 -275.5t-262.5 -107.5q-78 0 -134 30.5t-56 84.5q0 34 25.5 55.5t56.5 21.5q24 0 45 -12.5t36 -30.5t29.5 -36.5t33 -31t38.5 -12.5q57 0 81.5 47.5t24.5 137.5v293q-145 -90 -239 -90q-88 0 -138.5 57.5t-50.5 200.5v618h-108 q-8 4 -8 12zM315 268q0 -37 3.5 -65t13.5 -57t32 -44.5t56 -15.5q80 0 151 43v727h-256v-588z" />
<glyph unicode="&#x2a8;" horiz-adv-x="1331" d="M27 870q0 18 34 39q80 47 199 219q4 7 19 27t22 31q14 0 14 -27v-237h207v-66h-207v-586q0 -98 25 -141t82 -43q86 0 190 49q-100 130 -100 314q0 121 40.5 220t106.5 159.5t145 93t161 32.5q58 0 118 -16.5t101 -46.5q92 -67 92 -143q0 -37 -26 -64t-70 -27 q-37 0 -63 27.5t-36 67.5q-7 28 -9.5 37t-9 29.5t-10 26t-12 18t-16.5 15.5t-21 9t-28.5 7t-36.5 1q-28 0 -59.5 -8.5t-70 -33.5t-68 -64t-50 -106t-20.5 -153q0 -158 114 -299q106 68 172.5 92.5t151.5 24.5q82 0 143.5 -50.5t61.5 -131.5q0 -86 -65.5 -136t-186.5 -50 q-182 0 -266 30q-72 27 -140 80q-102 -61 -174 -85.5t-157 -24.5q-181 0 -181 260v616h-108q-8 5 -8 14zM825 184q131 -131 244 -131q105 0 141.5 31.5t36.5 83.5q0 55 -44 91t-97 36q-70 0 -119.5 -20.5t-161.5 -90.5z" />
<glyph unicode="&#x2ae;" horiz-adv-x="1267" d="M31 848q0 53 56.5 83t133.5 30q96 0 165.5 -35.5t108 -98.5t56.5 -140t18 -171v-207q0 -217 152 -217q61 0 112.5 29t116.5 100v494q0 106 -25 137.5t-114 40.5v29h442v-29q-89 -12 -110 -41t-21 -137v-965q0 -66 19.5 -85t85.5 -19q18 0 24 2v-33l-55 -16 q-158 -47 -235 -74l-11 6v623q-70 -92 -140 -132t-161 -40q-252 0 -252 325v373q0 107 -21 160t-81 53q-20 0 -38.5 -12.5t-33 -30.5t-29.5 -36.5t-36 -31t-45 -12.5q-31 0 -56.5 22t-25.5 56z" />
<glyph unicode="&#x2af;" horiz-adv-x="1390" d="M31 848q0 53 56.5 83t133.5 30q96 0 165.5 -35.5t108 -98.5t56.5 -140t18 -171v-207q0 -217 152 -217q61 0 112.5 29t116.5 100v494q0 106 -25 137.5t-114 40.5v29h442v-29q-89 -12 -110 -41t-21 -137v-938q0 -185 107 -185q20 0 38.5 12.5t33 31t29.5 36.5t36 30.5 t45 12.5q31 0 56.5 -21.5t25.5 -55.5q0 -54 -56 -84.5t-134 -30.5q-173 0 -263 108t-90 277v246q-70 -92 -140 -132t-161 -40q-252 0 -252 325v373q0 107 -21 160t-81 53q-20 0 -38.5 -12.5t-33 -30.5t-29.5 -36.5t-36 -31t-45 -12.5q-31 0 -56.5 22t-25.5 56z" />
<glyph unicode="&#x2b0;" horiz-adv-x="774" d="M14 688v23q66 9 82.5 30.5t16.5 98.5v729q0 50 -13.5 64t-64.5 14q-13 0 -19 -2v24l217 68l9 -4v-467q97 127 221 127q194 0 194 -236v-305q0 -83 14.5 -107t76.5 -34v-23h-326v23q67 8 86.5 30.5t19.5 96.5v313q0 162 -116 162q-82 0 -170 -99v-370q0 -78 19 -102.5 t85 -30.5v-23h-332z" />
<glyph unicode="&#x2b1;" horiz-adv-x="774" d="M14 688v23q65 9 82 29.5t17 99.5v612q0 120 80 202.5t202 82.5q109 0 185.5 -32t76.5 -81q0 -23 -16 -39t-41 -16q-10 0 -19 2.5t-14.5 5.5t-14 10.5t-12.5 12.5t-14.5 17.5t-15.5 18.5q-51 62 -109 62q-63 0 -116 -66q-43 -49 -43 -121v-245q95 127 223 127 q192 0 192 -244v-305q0 -57 8 -82t24.5 -34t58.5 -17v-23h-326v23q64 8 85 28t21 92v318q0 164 -118 164q-84 0 -168 -99v-378q0 -41 5 -64.5t19.5 -36t30.5 -17t49 -7.5v-23h-332z" />
</font>
</defs>
</svg>
