<?xml version="1.0" standalone="no"?>
<!DOCTYPE svg PUBLIC "-//W3C//DTD SVG 1.1//EN" "http://www.w3.org/Graphics/SVG/1.1/DTD/svg11.dtd" >
<svg xmlns="http://www.w3.org/2000/svg">
<metadata></metadata>
<defs>
<font id="stixbold" horiz-adv-x="1536" >
<font-face units-per-em="2048" ascent="1536" descent="-512" />
<missing-glyph horiz-adv-x="512" />
<glyph unicode="IJ" horiz-adv-x="1716" d="M41 0v51q117 11 153.5 41.5t36.5 124.5v963q0 85 -39 115t-151 38v51h717v-51q-114 -5 -154.5 -36t-40.5 -117v-963q0 -98 37.5 -128t157.5 -38v-51h-717zM905 76q0 57 44.5 104t101.5 47q58 0 102.5 -46.5t44.5 -108.5q0 -32 -27.5 -71t-27.5 -64q0 -31 24.5 -48.5 t67.5 -17.5q70 0 100.5 44t30.5 140v1127q0 88 -40.5 117t-166.5 34v51h719v-51q-114 -7 -147 -44.5t-33 -149.5v-881q0 -455 -434 -455q-154 0 -222 47q-59 40 -98 102t-39 124z" />
<glyph unicode="ij" horiz-adv-x="1130" d="M31 895v49h395v-770q0 -65 21.5 -91t76.5 -34v-49h-491v49q71 17 89.5 39t18.5 92v584q0 68 -21 92.5t-89 38.5zM123 1255q0 68 46.5 114t115.5 46q64 0 109.5 -47t45.5 -113q0 -67 -45.5 -112t-113.5 -45t-113 45t-45 112zM432 -211q0 56 35 90.5t92 34.5q51 0 86 -32.5 t35 -78.5q0 -30 -29 -75q-18 -30 -18 -45t18 -25t47 -10q52 0 75.5 36.5t23.5 118.5v971q0 66 -25.5 90.5t-103.5 30.5v49h413v-940q0 -171 -55 -264q-43 -75 -122 -115.5t-185 -40.5q-126 0 -206.5 57t-80.5 148zM770 1255q0 67 46 113.5t114 46.5q64 0 110.5 -47.5 t46.5 -112.5q0 -67 -46 -112t-115 -45q-67 0 -111.5 44.5t-44.5 112.5z" />
<glyph unicode="ff" horiz-adv-x="1249" d="M31 0v49q69 9 91.5 37.5t22.5 97.5v670h-114v90h114q0 158 31 242.5t113 150.5q97 78 266 78q146 0 291 -57q82 57 225 57q130 0 211.5 -57t81.5 -148q0 -57 -35 -94t-92 -37q-52 0 -87.5 34.5t-35.5 82.5q0 31 11 54t22.5 37.5t11.5 25.5q0 39 -59 39q-56 0 -79.5 -36 t-23.5 -126v-246h177v-90h-177v-672q0 -69 22.5 -94.5t98.5 -38.5v-49h-500v49q36 4 55 10.5t28 24.5t10.5 35.5t1.5 58.5v676h-283v-682q0 -61 20 -88.5t74 -34.5v-49h-493zM430 944h283v201q-19 6 -34 29t-15 47q0 28 16 48t16 38q0 19 -23 32t-61 13q-182 0 -182 -293 v-115z" />
<glyph unicode="fi" horiz-adv-x="1138" d="M29 0v49q71 9 93.5 36t22.5 97v672h-114v90h114q10 162 41 246t117 147q106 78 299 78q169 0 267 -50t98 -138q0 -56 -37.5 -91.5t-95.5 -35.5t-95 32t-37 80q0 29 15 72l4 14q0 23 -32.5 39.5t-78.5 16.5q-63 0 -100.5 -26t-58.5 -99t-21 -203v-82h213q196 0 354 27 v-795q0 -68 22.5 -96t78.5 -31v-49h-480v49q56 6 75.5 32t19.5 91v608q0 40 -17 57t-59 17h-207v-682q0 -64 19.5 -90t74.5 -33v-49h-495z" />
<glyph unicode="fl" horiz-adv-x="1138" d="M31 0v49q69 9 91.5 37.5t22.5 97.5v670h-114v90h114q0 158 31 242.5t113 150.5q97 78 266 78q151 0 309 -63l94 61h39v-1243q0 -113 74 -119l25 -2v-49h-478v49l17 2q42 4 60 33t18 86v684h-283v-682q0 -61 20 -88.5t74 -34.5v-49h-493zM430 944h283v201q-19 6 -34 29 t-15 47q0 28 16 48t16 38q0 19 -23 30t-61 11q-182 0 -182 -289v-115z" />
<glyph unicode="ffi" horiz-adv-x="1705" d="M31 0v49q69 9 91.5 37.5t22.5 97.5v670h-114v90h114q0 158 31 242.5t113 150.5q97 78 266 78q209 0 330 -67q103 67 284 67q169 0 267 -50t98 -138q0 -56 -37.5 -91.5t-95.5 -35.5t-94.5 32t-36.5 80q0 32 14 72l4 14q0 23 -32 39.5t-78 16.5q-63 0 -100.5 -26t-59 -99 t-21.5 -203v-82h213q197 0 355 27v-795q0 -69 22 -96.5t78 -30.5v-49h-479v49q56 6 75 31.5t19 91.5v608q0 40 -17 57t-59 17h-207v-682q0 -63 20 -89.5t75 -33.5v-49h-474v49q62 9 78.5 34.5t16.5 98.5v672h-283v-682q0 -61 20 -88.5t74 -34.5v-49h-493zM430 944h283v201 q-19 6 -34 29t-15 47q0 28 16 48t16 38q0 19 -23.5 33t-60.5 14q-182 0 -182 -295v-115z" />
<glyph unicode="ffl" horiz-adv-x="1705" d="M31 0v49q69 9 91.5 37.5t22.5 97.5v670h-114v90h114q0 158 31 242.5t113 150.5q97 78 266 78q181 0 301 -74q103 74 266 74q152 0 310 -63l94 61h39v-1243q0 -113 73 -119l25 -2v-49h-477v49l16 2q42 4 60 33t18 86v684h-283v-682q0 -61 20 -88.5t75 -34.5v-49h-474v49 q57 12 76 40t19 95v670h-283v-682q0 -61 20 -88.5t74 -34.5v-49h-493zM430 944h283v201q-19 6 -34 29t-15 47q0 28 16 48t16 38q0 19 -23 32t-61 13q-182 0 -182 -293v-115zM997 944h283v201q-19 6 -34 29t-15 47q0 28 16.5 48t16.5 38q0 19 -23 32t-61 13q-183 0 -183 -293 v-115z" />
<glyph unicode="fj" horiz-adv-x="1138" d="M29 0v49q71 9 93.5 36t22.5 97v672h-114v90h114q10 162 41 246t117 147q106 78 299 78q169 0 267 -50t98 -138q0 -56 -37.5 -91.5t-95.5 -35.5t-95 32t-37 80q0 29 15 72l4 14q0 23 -32.5 39.5t-78.5 16.5q-63 0 -100.5 -26t-58.5 -99t-21 -203v-82h213q196 0 354 27 v-967q0 -171 -55 -264q-43 -75 -122 -115.5t-185 -40.5q-126 0 -206.5 57t-80.5 148q0 56 35 90.5t92 34.5q51 0 86 -32.5t35 -78.5q0 -30 -29 -75q-18 -30 -18 -45t18 -25t47 -10q52 0 75.5 36.5t23.5 118.5v977q0 40 -17 57t-59 17h-207v-682q0 -64 19.5 -90t74.5 -33v-49 h-495z" />
<glyph unicode=" "  horiz-adv-x="512" />
<glyph unicode="&#x09;" horiz-adv-x="512" />
<glyph unicode="&#xa0;" horiz-adv-x="512" />
<glyph unicode="!" horiz-adv-x="681" d="M166 1210q0 97 44.5 151t127.5 54q78 0 126 -55.5t48 -153.5q0 -67 -37 -182q-44 -147 -64 -251t-40 -294h-64q-20 191 -40 295t-64 250q-37 117 -37 186zM168 143q0 76 50.5 126t123.5 50q75 0 123.5 -49.5t48.5 -124.5q0 -72 -51 -122t-123 -50q-74 0 -123 48.5 t-49 121.5z" />
<glyph unicode="&#x22;" horiz-adv-x="1136" d="M170 1266q0 68 33 108.5t98 40.5t99 -39t34 -102q0 -69 -88 -447h-88q-88 348 -88 439zM702 1266q0 68 32.5 108.5t99.5 40.5q64 0 98.5 -40t34.5 -101q0 -66 -88 -447h-88q-89 367 -89 439z" />
<glyph unicode="#" horiz-adv-x="1024" d="M10 430v150h217l37 274h-194v150h215l61 430h158l-60 -430h232l61 430h158l-59 -430h178v-150h-199l-37 -274h176v-150h-198l-60 -430h-159l59 430h-231l-60 -430h-160l60 430h-195zM387 580h231l37 274h-231z" />
<glyph unicode="$" horiz-adv-x="1024" d="M59 1016q0 212 181 309q42 23 81.5 33t114.5 18v160h115v-156q117 -17 184 -39t142 -67v-289h-43q-39 156 -106 232.5t-177 95.5v-439q24 -15 66.5 -39.5t65 -38t58.5 -36t56 -38t47.5 -39.5t42.5 -44t33 -47.5t26.5 -55.5t14.5 -62.5t6 -72.5q0 -177 -105 -276 q-52 -47 -120 -74.5t-191 -50.5v-203h-115v203q-95 5 -155.5 20.5t-186.5 67.5v324l43 -4q44 -165 114 -245t185 -102v512q-205 106 -291 206.5t-86 236.5zM254 1128q0 -79 42 -121.5t140 -76.5v389q-182 -47 -182 -191zM551 61q93 18 141.5 77.5t48.5 135.5q0 83 -33.5 125 t-156.5 111v-449z" />
<glyph unicode="%" horiz-adv-x="1533" d="M125 944q0 175 121 305.5t282 130.5q73 0 146 -59q45 -36 80 -48.5t90 -12.5q101 0 181.5 44t158.5 142h98l-897 -1505h-98l794 1341q-116 -86 -231 -86q-54 0 -123 27q6 -58 6 -86q0 -109 -39.5 -216t-103.5 -171q-91 -91 -207 -91q-114 0 -186 79.5t-72 205.5zM322 856 q0 -65 26.5 -100t75.5 -35q64 0 123.5 60.5t96 159.5t36.5 206q0 52 -13 73.5t-53 36.5q-18 8 -43 23q-30 18 -41 18q-42 0 -91.5 -72t-83 -177t-33.5 -193zM795 246q0 174 120 305t279 131q101 0 158 -65t57 -179q0 -107 -40 -212t-109 -177q-80 -86 -203 -86 q-117 0 -189.5 78.5t-72.5 204.5zM995 156q0 -136 103 -136q91 0 162 105q43 66 70.5 157t27.5 169q0 71 -34.5 117t-86.5 46q-63 0 -127 -94q-49 -73 -82 -177.5t-33 -186.5z" />
<glyph unicode="&#x26;" horiz-adv-x="1705" d="M127 342q0 142 93.5 252t307.5 201q-64 101 -85 162t-21 133q0 155 108.5 240t305.5 85q148 0 237.5 -69t89.5 -179q0 -98 -74 -169.5t-237 -131.5l309 -438q92 110 124 172t32 125q0 45 -21 59.5t-110 24.5v49h418v-49q-67 -6 -96.5 -21.5t-53.5 -60.5 q-71 -129 -114 -192.5t-132 -174.5q86 -110 136 -148t108 -38q71 0 123 82l41 -25l-31 -51q-65 -110 -117 -149q-38 -29 -90 -46.5t-100 -17.5q-82 0 -148 39t-157 141q-125 -95 -232 -136.5t-223 -41.5q-176 0 -283.5 98.5t-107.5 274.5zM412 541q0 -180 147 -330 q38 -41 86.5 -63.5t95.5 -22.5q73 0 185 80q-9 13 -62 85t-91 125.5t-98.5 143.5t-111.5 174q-85 -50 -118 -92t-33 -100zM662 1233q0 -67 33.5 -138.5t117.5 -168.5q77 26 110 64.5t33 101.5q0 103 -56.5 179.5t-131.5 76.5q-50 0 -78 -30.5t-28 -84.5z" />
<glyph unicode="'" horiz-adv-x="569" d="M154 1264q0 70 34 110.5t97 40.5q64 0 98.5 -38t34.5 -105q0 -64 -88 -445h-88q-16 78 -33 156.5t-25.5 118.5t-16 77t-10.5 55.5t-3 29.5z" />
<glyph unicode="(" horiz-adv-x="681" d="M94 530q0 407 268 697q60 63 114.5 103t150.5 91v-55q-70 -58 -118 -108.5t-82.5 -110t-53.5 -114.5t-30 -138t-14 -162.5t-3 -204.5q0 -228 23 -360.5t86.5 -238.5t191.5 -216v-57q-151 91 -231.5 163.5t-159.5 186.5q-142 205 -142 524z" />
<glyph unicode=")" horiz-adv-x="681" d="M55 -289q43 33 77.5 63t63 63t50 61.5t38.5 66t28.5 69.5t19.5 79t12.5 87t7.5 101.5t3.5 114.5t0.5 133q0 123 -3.5 202.5t-14.5 160t-30.5 134t-54 110.5t-82 105t-116.5 103v57q154 -92 237.5 -169.5t153.5 -194.5q142 -238 142 -510q0 -406 -269 -697 q-60 -63 -114.5 -103t-149.5 -91v55z" />
<glyph unicode="*" horiz-adv-x="1024" d="M115 799q0 54 43 78t129 30q64 4 95 15t81 45v14q-61 28 -99.5 37.5t-109.5 15.5q-74 6 -106.5 36t-32.5 73q0 44 26.5 71t69.5 27t70 -18t57 -70q34 -60 59.5 -84t85.5 -57l11 6q-2 67 -9.5 97.5t-38.5 88.5q-36 63 -36 109q0 44 30 73t76 29q43 0 70.5 -31t27.5 -81 q0 -22 -7 -41t-29 -56q-27 -45 -36.5 -77.5t-9.5 -79.5v-31l15 -6q61 48 85 72t62 79q30 46 55 62t60 16q42 0 75.5 -29.5t33.5 -68.5q0 -48 -52.5 -78.5t-115.5 -30.5q-67 0 -99.5 -9.5t-83.5 -43.5v-16q45 -21 65.5 -29.5t54 -16.5t79.5 -12q83 -6 116 -29.5t33 -74.5 q0 -46 -26 -74.5t-74 -28.5q-39 0 -66 24t-87 103q-32 43 -53 61.5t-64 41.5l-13 -8q1 -64 12 -99.5t44 -101.5q30 -56 30 -92q0 -46 -30 -76.5t-74 -30.5q-42 0 -71 30t-29 77q0 24 6 41.5t26 52.5q30 50 38 87.5t10 111.5l-13 8q-60 -44 -85 -69.5t-66 -84.5 q-31 -45 -55 -60.5t-58 -15.5q-43 0 -72.5 28.5t-29.5 70.5z" />
<glyph unicode="+" d="M133 428v180h545v545h180v-545h545v-180h-545v-545h-180v545h-545z" />
<glyph unicode="," horiz-adv-x="512" d="M80 143q0 79 47.5 126.5t124.5 47.5q96 0 150.5 -63.5t54.5 -173.5q0 -135 -82.5 -246t-257.5 -203l-23 45q223 153 223 273q0 19 -10.5 31t-27.5 12q-6 0 -22.5 -2t-27.5 -2q-66 0 -107.5 42.5t-41.5 112.5z" />
<glyph unicode="-" horiz-adv-x="681" d="M90 350v238h498v-238h-498z" />
<glyph unicode="." horiz-adv-x="512" d="M84 145q0 72 51 123t123 51q70 0 121 -51.5t51 -122.5q0 -72 -51 -122t-123 -50q-74 0 -123 49.5t-49 122.5z" />
<glyph unicode="/" horiz-adv-x="569" d="M-49 -39l483 1454h184l-483 -1454h-184z" />
<glyph unicode="0" horiz-adv-x="1024" d="M49 684q0 105 15 204t50 195t87.5 167.5t134 115t182.5 43.5q94 0 172 -42.5t130 -112.5t87.5 -164t51.5 -194.5t16 -205.5q0 -212 -59.5 -376t-164.5 -252.5t-237 -88.5q-133 0 -239 88t-166 251t-60 372zM373 459q0 -230 32.5 -329t108.5 -99t106.5 98.5t30.5 329.5 v461q0 227 -33 329.5t-108 102.5t-106 -99t-31 -333v-461z" />
<glyph unicode="1" horiz-adv-x="1024" d="M133 1133v53l514 223h37v-1167q0 -118 40 -154t179 -39v-49h-764v49q152 1 197 41t45 174v774q0 144 -74 144q-51 0 -133 -33z" />
<glyph unicode="2" horiz-adv-x="1024" d="M35 0v47q224 239 310.5 342t164.5 223q104 158 104 303q0 111 -63.5 186t-179.5 75q-158 0 -250 -185h-58q140 418 457 418q167 0 270 -101.5t103 -273.5q0 -117 -56 -223.5t-178 -222.5l-331 -316h286q59 0 94 1.5t69.5 7.5t54 16t38.5 28.5t31.5 43.5t26.5 63h51 l-94 -432h-850z" />
<glyph unicode="3" horiz-adv-x="1024" d="M33 156q0 53 37.5 88t95.5 35q48 0 93.5 -27t102.5 -90q46 -51 84 -69.5t78 -18.5q91 0 146 69.5t55 180.5q0 153 -100 247q-53 50 -115 80.5t-199 77.5v35q143 45 206 110t63 158q0 106 -52.5 158.5t-150.5 52.5q-81 0 -141 -38.5t-117 -131.5l-43 25q162 311 469 311 q151 0 243.5 -83.5t92.5 -197.5q0 -78 -42.5 -150t-129.5 -110q116 -41 182.5 -139.5t66.5 -224.5q0 -148 -79 -270t-220 -192.5t-315 -70.5q-141 0 -226 51t-85 134z" />
<glyph unicode="4" horiz-adv-x="1024" d="M39 295v231l641 883h164v-887h131v-227h-131v-295h-297v295h-508zM123 522h426v602z" />
<glyph unicode="5" horiz-adv-x="1024" d="M45 164q0 54 35.5 89.5t89.5 35.5q95 0 205 -94q102 -86 184 -86q87 0 146 60t59 153q0 105 -75.5 186t-215.5 125q-99 31 -369 45l199 706h660l-93 -260h-565l-45 -166q130 -8 191 -15.5t118 -24.5q167 -47 261 -163t94 -276q0 -223 -161.5 -359t-416.5 -136 q-133 0 -217 53t-84 127z" />
<glyph unicode="6" horiz-adv-x="1024" d="M57 561q0 357 285 608q54 47 107 81t99 55.5t119 41t129 31t167 31.5v-53q-222 -45 -354 -174.5t-191 -354.5q79 35 172 35q175 0 279 -110.5t104 -296.5q0 -216 -121.5 -349t-319.5 -133q-217 0 -346 158.5t-129 429.5zM377 502q0 -307 55 -414q30 -59 105 -59 q48 0 74 25t38.5 92t12.5 192q0 239 -41 335.5t-142 96.5q-53 0 -76 -20q-10 -9 -18 -83.5t-8 -164.5z" />
<glyph unicode="7" horiz-adv-x="1024" d="M35 930l92 454h850l-481 -1384h-195l410 1104h-408q-97 0 -141 -37t-74 -137h-53z" />
<glyph unicode="8" horiz-adv-x="1024" d="M57 322q0 134 79 221t226 123q-152 91 -217 179.5t-65 205.5q0 163 124 260.5t335 97.5q186 0 292.5 -84.5t106.5 -212.5q0 -203 -279 -287q173 -118 240.5 -215.5t67.5 -226.5q0 -186 -127 -298t-348 -112q-197 0 -316 93.5t-119 255.5zM305 330q0 -138 49 -214.5 t142 -76.5q85 0 135.5 57.5t50.5 163.5q0 114 -52 184t-220 183q-59 -87 -82 -156t-23 -141zM344 1180q0 -86 68.5 -168t197.5 -148q51 67 67.5 114.5t16.5 121.5q0 108 -48 179t-132 71q-72 0 -121 -49t-49 -121z" />
<glyph unicode="9" horiz-adv-x="1024" d="M53 940q0 199 125 334t316 135q216 0 345.5 -163.5t129.5 -438.5q0 -183 -76.5 -339t-220.5 -269q-138 -108 -260 -154t-349 -72v54q219 44 351.5 173.5t197.5 358.5q-74 -39 -180 -39q-169 0 -274 114t-105 306zM365 1051q0 -238 39.5 -338.5t134.5 -100.5q57 0 84 19 q7 5 10 41q16 63 16 176v96q0 105 -14.5 202t-36.5 140q-36 68 -111 68q-48 0 -73.5 -25.5t-37 -90.5t-11.5 -187z" />
<glyph unicode=":" horiz-adv-x="681" d="M168 145q0 72 51 123t123 51q70 0 121 -51.5t51 -122.5q0 -72 -51 -122t-123 -50q-74 0 -123 49.5t-49 122.5zM168 795q0 72 50.5 122t123.5 50q71 0 121.5 -51t50.5 -123t-51 -122t-123 -50t-122 50.5t-50 123.5z" />
<glyph unicode=";" horiz-adv-x="681" d="M168 143q0 79 47.5 126.5t124.5 47.5q96 0 150.5 -63.5t54.5 -173.5q0 -135 -82.5 -246t-257.5 -203l-23 45q224 154 224 273q0 19 -11 31t-28 12q-6 0 -22.5 -2t-27.5 -2q-66 0 -107.5 42.5t-41.5 112.5zM168 795q0 72 50.5 122t123.5 50q71 0 121.5 -51t50.5 -123 t-51 -122t-123 -50t-122 50.5t-50 123.5z" />
<glyph unicode="&#x3c;" d="M164 479v82l1208 533v-181l-893 -393l893 -389v-180z" />
<glyph unicode="=" d="M139 219v180h1258v-180h-1258zM139 637v180h1258v-180h-1258z" />
<glyph unicode="&#x3e;" d="M164 -49v180l893 389l-893 393v181l1208 -533v-82z" />
<glyph unicode="?" horiz-adv-x="1024" d="M117 1114q0 129 105 213t272 84q191 0 304 -95.5t113 -244.5q0 -106 -53 -179t-194 -161q-98 -60 -122 -102t-24 -154h-61q-6 51 -6 92q2 63 26.5 133t53 122t52 120t23.5 129q0 126 -45 196t-127 70q-57 0 -91 -22.5t-34 -59.5q0 -26 31 -59q26 -29 35.5 -51t9.5 -53 q0 -56 -42 -97t-91 -41q-59 0 -97 46t-38 114zM315 145q0 72 52 123t125 51q69 0 119.5 -51.5t50.5 -122.5q0 -72 -50.5 -122t-122.5 -50q-73 0 -123.5 50t-50.5 122z" />
<glyph unicode="@" horiz-adv-x="1904" d="M221 676q0 152 62 289t166.5 235.5t248.5 156.5t303 58q194 0 350.5 -81t244 -222t87.5 -313q0 -141 -55.5 -257.5t-146.5 -181.5t-195 -65q-76 0 -123.5 40.5t-58.5 110.5q-116 -151 -258 -151q-87 0 -140 66t-53 167q0 74 17 148.5t51.5 144t83 123.5t117 86.5 t147.5 32.5q56 0 86.5 -21.5t63.5 -87.5l22 82h145l-135 -532q-4 -20 -4 -37q0 -98 72 -98q67 0 129.5 59t100.5 156.5t38 203.5q0 146 -80.5 272.5t-216.5 200.5t-293 74q-255 0 -421 -189t-166 -480q0 -268 168.5 -439.5t435.5 -171.5q106 0 199.5 22.5t216.5 78.5l26 -72 q-150 -71 -247 -97t-212 -26q-215 0 -393 92.5t-280.5 256.5t-102.5 366zM811 569q0 -83 32.5 -130.5t88.5 -47.5q47 0 91.5 36.5t78.5 102.5q34 68 57 158t23 154q0 60 -24 91.5t-68 31.5q-78 0 -144 -65.5t-100.5 -156t-34.5 -174.5z" />
<glyph unicode="A" horiz-adv-x="1478" d="M18 0v51q71 12 108 56.5t95 189.5l453 1116h57l455 -1069q77 -185 119 -239t106 -54v-51h-659v51l65 6q52 5 73 20t21 48q0 60 -94 278h-461l-26 -69q-3 -7 -16 -38.5t-18 -46t-14 -39.5t-12.5 -43t-3.5 -32q0 -40 37.5 -59t128.5 -25v-51h-414zM387 483h399l-206 498z " />
<glyph unicode="B" horiz-adv-x="1366" d="M33 0v51q112 12 146 42.5t34 117.5v956q0 90 -37.5 124t-142.5 42v51h649q248 0 382 -84.5t134 -242.5q0 -121 -76 -197t-250 -112v-3q173 -22 284.5 -119.5t111.5 -240.5q0 -170 -147.5 -277.5t-413.5 -107.5h-674zM541 201q0 -73 30.5 -104t98.5 -31q120 0 182.5 82 t62.5 237q0 317 -321 317h-53v-501zM541 764q128 0 197 28.5t95.5 86.5t26.5 163q0 281 -203 281q-62 0 -89 -25.5t-27 -85.5v-448z" />
<glyph unicode="C" horiz-adv-x="1478" d="M100 662q0 215 90 386.5t252.5 269t368.5 97.5q144 0 319 -72q66 -28 95 -28t48 19.5t42 74.5h55v-481h-51q-45 128 -137 235q-154 185 -342 185q-166 0 -271.5 -170.5t-105.5 -470.5q0 -164 24 -279.5t86 -212.5q44 -70 127 -113t174 -43q131 0 259 70q84 47 213 182 l61 -51q-137 -171 -271 -235t-319 -64q-215 0 -379.5 92t-251 251t-86.5 358z" />
<glyph unicode="D" horiz-adv-x="1478" d="M29 0v51q89 3 129.5 39.5t40.5 110.5v995q0 70 -36 99t-134 38v51h639q350 0 547.5 -180t197.5 -497q0 -158 -62.5 -301t-172.5 -240q-93 -81 -226 -123.5t-290 -42.5h-633zM530 205q0 -71 26 -102t93 -31q200 0 305 147q47 68 75 194.5t28 262.5q0 284 -84 432 q-60 104 -140.5 155.5t-193.5 51.5q-58 0 -83.5 -22.5t-25.5 -67.5v-1020z" />
<glyph unicode="E" horiz-adv-x="1366" d="M33 0v51q111 12 145.5 43t34.5 113v981q0 78 -37.5 108.5t-142.5 36.5v51h1181v-411h-51q-24 140 -74.5 212t-144.5 101t-266 29q-77 0 -105 -25t-28 -86v-461q167 2 240.5 66.5t91.5 239.5h53v-693h-53q-15 181 -88.5 249.5t-243.5 68.5v-496q0 -66 35.5 -90.5 t134.5 -24.5q122 0 211.5 26t160.5 85q51 41 85.5 94.5t82.5 157.5h58l-82 -426h-1198z" />
<glyph unicode="F" horiz-adv-x="1251" d="M33 0v51q113 12 146.5 42.5t33.5 117.5v967q0 88 -36.5 118.5t-143.5 36.5v51h1161v-413h-49q-22 117 -45.5 167.5t-77.5 96.5q-48 42 -125 61t-209 19q-78 0 -110.5 -24t-32.5 -81v-467q154 0 222.5 66.5t90.5 239.5h51v-693h-51q-15 179 -84.5 247t-228.5 71v-467 q0 -89 43 -119.5t182 -36.5v-51h-737z" />
<glyph unicode="G" horiz-adv-x="1593" d="M76 678q0 202 91.5 370.5t255.5 267.5t365 99q143 0 318 -72q66 -28 94 -28q29 0 48 19.5t42 74.5h56v-481h-52q-60 130 -97 190t-99 115q-130 115 -283 115q-180 0 -278.5 -170t-98.5 -486q0 -320 99 -485q56 -92 129 -135t188 -43q197 0 197 174v182q0 56 -15.5 85.5 t-60.5 45.5t-133 21v51h704v-51q-57 -6 -92.5 -20t-53.5 -41t-24 -59t-6 -85v-242q-100 -59 -254 -94t-313 -35q-206 0 -370.5 87t-260.5 251.5t-96 378.5z" />
<glyph unicode="H" horiz-adv-x="1593" d="M43 0v51q108 14 141 41.5t33 108.5v981q0 83 -35 112.5t-139 38.5v51h688v-51q-109 -8 -145.5 -37t-36.5 -114v-418h493v418q0 85 -36.5 114t-145.5 37v51h694v-51q-105 -8 -142.5 -38.5t-37.5 -112.5v-981q0 -81 34 -108.5t146 -41.5v-51h-694v51q111 12 146.5 41.5 t35.5 108.5v467h-493v-467q0 -81 34.5 -109.5t147.5 -40.5v-51h-688z" />
<glyph unicode="I" horiz-adv-x="796" d="M41 0v51q117 11 153.5 41.5t36.5 124.5v963q0 85 -39 115t-151 38v51h717v-51q-114 -5 -154.5 -36t-40.5 -117v-963q0 -98 37.5 -128t157.5 -38v-51h-717z" />
<glyph unicode="J" horiz-adv-x="1024" d="M6 76q0 57 44.5 104t101.5 47q58 0 102.5 -46.5t44.5 -108.5q0 -32 -27.5 -71t-27.5 -64q0 -31 24.5 -48.5t67.5 -17.5q70 0 100.5 44t30.5 140v1127q0 88 -40.5 117t-166.5 34v51h719v-51q-114 -7 -147 -44.5t-33 -149.5v-881q0 -455 -434 -455q-154 0 -222 47 q-59 40 -98 102t-39 124z" />
<glyph unicode="K" horiz-adv-x="1593" d="M61 0v51q114 10 146.5 39t32.5 117v967q0 93 -35.5 123t-143.5 36v51h691v-51q-112 -7 -146.5 -41.5t-34.5 -130.5v-456l435 440q49 49 65 72t16 47q0 31 -21.5 45t-76.5 18l-71 6v51h591v-51q-69 -8 -111.5 -19.5t-96.5 -37.5t-114.5 -77t-140 -128.5t-196.5 -202.5 l625 -774q19 -23 40.5 -32t59.5 -11v-51h-684v51q96 3 127 12.5t31 30.5q0 17 -10.5 35.5t-41.5 56.5l-370 461l-56 -51v-401q0 -75 34.5 -103t144.5 -41v-51h-689z" />
<glyph unicode="L" horiz-adv-x="1366" d="M39 0v51q112 13 144 40.5t32 109.5v979q0 87 -35.5 117t-140.5 36v51l713 2v-51q-71 -3 -108 -10.5t-60.5 -31t-30 -58.5t-6.5 -102v-951q0 -67 37.5 -93t136.5 -26q124 0 203.5 27t144.5 86q87 78 178 289h60l-86 -465h-1182z" />
<glyph unicode="M" horiz-adv-x="1933" d="M29 0v51q121 12 153.5 41.5t32.5 128.5v961q0 84 -35 113t-147 38v51h518l407 -966l412 966h516v-51q-112 -7 -146 -44.5t-34 -153.5v-877q0 -50 3 -78.5t13 -54.5t30 -39t52 -22t82 -13v-51h-680v51q113 10 148 44.5t35 127.5v1016l-517 -1239h-55l-516 1217v-953 q0 -118 41 -161t166 -52v-51h-479z" />
<glyph unicode="N" horiz-adv-x="1478" d="M33 0v51q112 13 146 45.5t34 126.5v963q-61 84 -100.5 115.5t-73.5 31.5v51h432l715 -880v612q0 122 -37 164t-152 53v51h439v-51q-102 -15 -131 -45t-29 -125v-1200h-57l-916 1116v-811q0 -119 37.5 -161.5t155.5 -55.5v-51h-463z" />
<glyph unicode="O" horiz-adv-x="1593" d="M72 684q0 215 94.5 382t262 258t378.5 91q152 0 285 -54.5t227.5 -150.5t148.5 -231.5t54 -292.5q0 -210 -93 -375.5t-258.5 -257.5t-375.5 -92q-209 0 -374 92t-257 257t-92 374zM434 676q0 -321 94 -484t271 -163t268.5 163.5t91.5 479.5q0 327 -95.5 501.5 t-275.5 174.5q-169 0 -261.5 -175t-92.5 -497z" />
<glyph unicode="P" horiz-adv-x="1251" d="M33 0v51q63 6 92 19q48 19 64 61.5t16 126.5v875q0 119 -32 155t-140 45v51h645q262 0 406.5 -93t144.5 -277q0 -123 -68 -214t-196 -138q-65 -25 -144.5 -32t-283.5 -9v-394q0 -37 1.5 -59.5t9 -42.5t17.5 -30t32 -19.5t48.5 -14.5t69.5 -10v-51h-682zM537 692 q193 2 266.5 66t73.5 233q0 171 -55.5 246.5t-182.5 75.5q-102 0 -102 -72v-549z" />
<glyph unicode="Q" horiz-adv-x="1593" d="M72 676q0 218 93.5 387t258 260.5t373.5 91.5q157 0 291 -53.5t230 -149.5t150 -236t54 -306q0 -259 -135.5 -433t-382.5 -249q28 -57 47.5 -87t48.5 -59q106 -106 252 -106q61 0 143 24l12 -49q-101 -39 -183 -55t-183 -16q-136 0 -258.5 47t-208.5 133 q-35 35 -58.5 71.5t-56.5 104.5q-154 46 -264.5 147t-166.5 237.5t-56 295.5zM434 686q0 -319 92.5 -488t270.5 -169q177 0 269.5 170t92.5 487q0 324 -94 493t-270 169q-173 0 -267 -171t-94 -491z" />
<glyph unicode="R" horiz-adv-x="1478" d="M53 0v51q44 5 69 9t48 13.5t33 20.5t18 33.5t10 49t2 69.5v882q0 121 -33.5 159.5t-146.5 45.5v51h631q606 0 606 -352q0 -70 -24.5 -135t-67.5 -106q-46 -41 -95 -67.5t-134 -49.5l407 -578q30 -45 90 -45v-51h-419l-424 641h-58v-401q0 -40 2 -65t9.5 -46t18 -32.5 t33 -21t48.5 -14.5t69 -10v-51h-692zM565 707q106 1 172.5 13.5t114.5 46t68 92.5t20 153q0 163 -61.5 233t-204.5 70q-60 0 -84.5 -20.5t-24.5 -71.5v-516z" />
<glyph unicode="S" horiz-adv-x="1138" d="M72 -39v508h59q27 -110 53 -173.5t70 -119.5q117 -147 295 -147q118 0 188 62.5t70 168.5q0 98 -117 180q-20 14 -43 27.5t-51.5 28.5t-48 24.5t-56 27.5t-51.5 25q-121 58 -194.5 115.5t-114.5 135.5t-41 180q0 194 119.5 302.5t329.5 108.5q113 0 239 -47 q61 -20 86 -20q28 0 42 14t24 55h61v-446h-57q-31 100 -61 156t-82 110q-112 115 -252 115q-104 0 -165 -56.5t-61 -146.5q0 -74 43.5 -121.5t167.5 -112.5q39 -21 142 -73t161 -84q101 -56 162.5 -151.5t61.5 -209.5q0 -194 -140.5 -315t-367.5 -121q-127 0 -267 49 q-67 21 -83 21q-25 0 -39 -15.5t-23 -54.5h-59z" />
<glyph unicode="T" horiz-adv-x="1366" d="M63 973l7 411h1228l5 -411h-60q-26 183 -115 261.5t-278 84.5v-1079q0 -63 5.5 -94.5t29 -53.5t59 -29t107.5 -12v-51h-732v51q70 6 106 13.5t59 29.5t28.5 53.5t5.5 92.5v1079q-190 -6 -279.5 -84.5t-115.5 -261.5h-60z" />
<glyph unicode="U" horiz-adv-x="1478" d="M33 1333v51h688v-51q-85 -6 -123.5 -22.5t-55 -57.5t-16.5 -127v-651q0 -212 74 -313t225 -101q361 0 361 455v614q0 111 -41.5 152.5t-157.5 50.5v51h449v-51q-98 -15 -129 -49t-31 -125v-643q0 -153 -40.5 -267.5t-115.5 -174.5q-65 -53 -166 -83t-211 -30 q-238 0 -378 111q-88 69 -126 161t-38 240v664q0 65 -5 99t-26 55.5t-49.5 28.5t-87.5 13z" />
<glyph unicode="V" horiz-adv-x="1478" d="M33 1333v51h688v-51l-68 -4q-58 -3 -83 -20.5t-25 -53.5q0 -23 8 -48t39 -99l282 -684l261 674q41 105 41 145q0 49 -33.5 65.5t-143.5 24.5v51h437v-51q-80 -11 -114 -42t-71 -126l-467 -1202h-55l-524 1227q-36 85 -65 108.5t-107 34.5z" />
<glyph unicode="W" horiz-adv-x="2048" d="M39 1333v51h602v-51q-79 -6 -105 -23.5t-26 -62.5q0 -26 14 -67l246 -746l242 631l-72 197q-13 37 -47 52.5t-100 18.5v51h639v-51l-27 -2q-67 -4 -94 -20.5t-27 -53.5q0 -26 29 -114l221 -688l229 702q15 43 15 86q0 48 -29.5 67t-112.5 23v51h373v-51 q-101 -9 -141 -131l-410 -1233h-55l-350 977l-381 -977h-58l-434 1233q-26 75 -51.5 98.5t-89.5 32.5z" />
<glyph unicode="X" horiz-adv-x="1478" d="M33 0v51q76 9 121.5 33.5t91.5 81.5l358 452l-405 596q-48 70 -78.5 92.5t-85.5 26.5v51h708v-51l-63 -4q-55 -3 -76.5 -17t-21.5 -46q0 -19 5 -32.5t25 -43.5l199 -307l115 157q73 101 95.5 142.5t22.5 74.5q0 36 -22 51t-82 21l-43 4v51h512v-51q-81 -7 -131.5 -30.5 t-106 -82t-147.5 -186.5l-164 -227l373 -580q70 -110 107.5 -142t91.5 -34v-51h-697v51l58 4q106 6 106 58q0 43 -43 110l-207 332l-78 -104q-114 -154 -153 -217.5t-39 -96.5q0 -40 36 -58.5t130 -27.5v-51h-512z" />
<glyph unicode="Y" horiz-adv-x="1478" d="M31 1333v51h686v-51l-55 -4q-66 -5 -88.5 -15.5t-22.5 -43.5q0 -29 49 -121l246 -475l223 364q84 139 84 209q0 44 -34 61.5t-138 24.5v51h451v-51q-99 -14 -140 -80l-391 -637v-364q0 -63 6 -97.5t28 -57.5t56.5 -31.5t98.5 -14.5v-51h-711v51q65 5 101.5 16t57 37.5 t26 60.5t5.5 97v279l-368 671q-30 54 -74 86t-96 35z" />
<glyph unicode="Z" horiz-adv-x="1366" d="M57 0v33l783 1280l-170 -6q-85 -3 -140 -9t-106.5 -21t-83.5 -37.5t-63 -61.5t-53 -90t-46 -127h-57l45 423h1071v-32l-776 -1280h170q296 0 413 82q28 20 50 40t41 48.5t30 46.5t27.5 61t24.5 64.5t28 81.5h53l-55 -496h-1186z" />
<glyph unicode="[" horiz-adv-x="681" d="M137 -305v1694h479v-68h-129q-86 0 -111.5 -26t-25.5 -117v-1307q0 -66 20 -87.5t83 -21.5h163v-67h-479z" />
<glyph unicode="\" horiz-adv-x="569" d="M-51 1415h190l482 -1454h-189z" />
<glyph unicode="]" horiz-adv-x="681" d="M66 -238h163q64 0 83.5 20.5t19.5 88.5v1307q0 89 -25.5 116t-111.5 27h-129v68h479v-1694h-479v67z" />
<glyph unicode="^" horiz-adv-x="1189" d="M150 637l364 747h164l364 -747h-182l-264 557l-264 -557h-182z" />
<glyph unicode="_" horiz-adv-x="1024" d="M0 -154h1024v-102h-1024v102z" />
<glyph unicode="`" horiz-adv-x="681" d="M16 1368q0 38 28.5 65t68.5 27q59 0 110 -57l281 -322h-115l-291 181q-45 28 -63.5 52t-18.5 54z" />
<glyph unicode="a" horiz-adv-x="1024" d="M51 188q0 139 137 230q58 38 145.5 71t266.5 84v140q0 100 -38 145t-128 45q-58 0 -95.5 -20t-37.5 -56q0 -21 23 -47q38 -46 38 -86q0 -53 -39 -88t-100 -35q-63 0 -98 37.5t-35 102.5q0 121 107.5 189.5t283.5 68.5q189 0 295.5 -72t106.5 -203v-534q0 -58 43 -58 q13 0 22 9l21 20l30 -43q-59 -63 -111 -90t-118 -27q-75 0 -113 32t-55 110q-84 -76 -160 -109t-166 -33q-103 0 -164 54t-61 163zM350 254q0 -65 30 -101t77 -36q84 0 143 82v303q-250 -69 -250 -248z" />
<glyph unicode="b" horiz-adv-x="1138" d="M35 1335v49h397v-530q58 61 116.5 88t133.5 27q171 0 278 -133.5t107 -346.5q0 -230 -128.5 -374t-334.5 -144q-77 0 -138.5 26.5t-131.5 90.5l-162 -115h-25v1244q0 61 -20.5 82.5t-91.5 35.5zM432 199q0 -74 38.5 -118t102.5 -44q98 0 145.5 101.5t47.5 314.5 q0 405 -191 405q-51 0 -83 -27.5t-60 -93.5v-538z" />
<glyph unicode="c" horiz-adv-x="909" d="M51 455q0 112 38 208.5t103 163t154.5 104.5t190.5 38q134 0 224.5 -64t90.5 -162q0 -60 -37.5 -95.5t-101.5 -35.5q-53 0 -84 39t-31 111q0 36 -0.5 52.5t-5 38.5t-13.5 30.5t-25.5 15t-41.5 6.5q-77 0 -124.5 -91.5t-47.5 -254.5q0 -210 76 -330t209 -120 q64 0 113.5 25t105.5 89l37 -37q-84 -115 -176 -165t-216 -50q-194 0 -316 133t-122 351z" />
<glyph unicode="d" horiz-adv-x="1138" d="M51 453q0 222 112 369t281 147q70 0 124 -28t120 -99v375q0 70 -26.5 90t-129.5 28v49h441v-1177q0 -65 25.5 -90t95.5 -29v-47l-127 -16q-164 -21 -273 -52v133q-72 -76 -131 -105.5t-141 -29.5q-161 0 -266 136t-105 346zM354 469q0 -195 39 -289t121 -94q74 0 135 76 q39 53 39 67v498q-23 59 -66 93t-94 34q-89 0 -131.5 -93.5t-42.5 -291.5z" />
<glyph unicode="e" horiz-adv-x="909" d="M51 459q0 229 118 369.5t310 140.5q170 0 262 -103q108 -120 121 -364h-516q4 -68 10.5 -116t23 -102t41.5 -87.5t68 -55.5t101 -22q65 0 118 31.5t117 107.5l49 -29q-91 -144 -182 -201t-223 -57q-185 0 -301.5 138t-116.5 350zM336 578h274v43q0 90 -3 125.5t-15 62.5 q-24 51 -48 73.5t-65 22.5q-73 0 -108 -74t-35 -253z" />
<glyph unicode="f" horiz-adv-x="681" d="M29 0v49q70 7 93 33t23 96v676h-116v90h116q0 134 17 221.5t65 145.5q84 104 277 104q130 0 211.5 -57t81.5 -148q0 -57 -35 -94t-92 -37q-52 0 -87.5 34.5t-35.5 82.5q0 31 11.5 54t22.5 37.5t11 25.5q0 39 -60 39q-56 0 -79 -36t-23 -126v-246h176v-90h-176v-635 q0 -101 31 -134t137 -36v-49h-569z" />
<glyph unicode="g" horiz-adv-x="1024" d="M57 -233q0 126 197 153q-96 34 -132 71.5t-36 96.5q0 89 59.5 146.5t184.5 93.5q-113 32 -183.5 114.5t-70.5 196.5q0 151 115.5 240.5t300.5 89.5q106 0 229 -45h264v-109h-164q82 -73 82 -201q0 -193 -188 -270q-50 -22 -84.5 -25.5t-175.5 -3.5q-61 0 -101.5 -27.5 t-40.5 -72.5q0 -42 43.5 -59t163.5 -17h107q166 0 264 -65.5t98 -179.5q0 -146 -140 -231t-394 -85q-194 0 -296 48.5t-102 140.5zM238 -219q0 -137 274 -137q149 0 232 37.5t83 97.5q0 115 -182 115h-336q-43 -35 -57 -58t-14 -55zM356 637q0 -143 31.5 -203.5t104.5 -60.5 t104 60.5t31 205.5q0 142 -32 204t-106 62q-73 0 -103 -59.5t-30 -208.5z" />
<glyph unicode="h" horiz-adv-x="1138" d="M31 1335v49h395v-573q72 86 144 122t157 36q124 0 195 -77.5t71 -201.5v-512q0 -70 23.5 -99.5t77.5 -29.5v-49h-480v49q52 6 73.5 34t21.5 91v459q0 110 -23 154t-82 44q-74 0 -143 -69q-35 -35 -35 -49v-539q0 -64 21 -91t77 -34v-49h-491v49q31 6 40.5 8t27.5 9 t21.5 13.5t10 21t7.5 33t1 48.5v1028q0 71 -18.5 91t-91.5 34z" />
<glyph unicode="i" horiz-adv-x="569" d="M31 895v49h395v-770q0 -65 21.5 -91t76.5 -34v-49h-491v49q71 17 89.5 39t18.5 92v584q0 68 -21 92.5t-89 38.5zM123 1255q0 68 46.5 114t115.5 46q64 0 109.5 -47t45.5 -113q0 -67 -45.5 -112t-113.5 -45t-113 45t-45 112z" />
<glyph unicode="j" horiz-adv-x="681" d="M-117 -211q0 56 35 90.5t92 34.5q51 0 86 -32.5t35 -78.5q0 -30 -29 -75q-18 -30 -18 -45t18.5 -25t47.5 -10q52 0 75 36.5t23 118.5v971q0 66 -25.5 90.5t-103.5 30.5v49h413v-940q0 -171 -55 -264q-43 -75 -122 -115.5t-185 -40.5q-126 0 -206.5 57t-80.5 148z M221 1255q0 67 46.5 113.5t113.5 46.5q64 0 111 -47.5t47 -112.5q0 -67 -46.5 -112t-115.5 -45q-67 0 -111.5 44.5t-44.5 112.5z" />
<glyph unicode="k" horiz-adv-x="1138" d="M45 0v49q51 5 74.5 34t23.5 89v1045q0 59 -23 86.5t-75 31.5v49h383v-882l262 262q17 17 30 40.5t13 37.5q0 20 -15.5 30.5t-55.5 16.5l-50 8v47h439v-47q-97 -12 -165 -59.5t-222 -208.5l397 -549q13 -19 23.5 -25t27.5 -6v-49h-479v49q86 3 86 39q0 24 -49 92l-195 275 l-47 -49v-234q0 -72 17.5 -92.5t89.5 -30.5v-49h-490z" />
<glyph unicode="l" horiz-adv-x="569" d="M31 1335v49h391v-1206q0 -69 24.5 -98t77.5 -31v-49h-491v49q54 5 79 34t25 95v1024q0 59 -26.5 94t-79.5 39z" />
<glyph unicode="m" horiz-adv-x="1705" d="M31 895v49h393v-153h6q59 94 128 136t167 42q97 0 156.5 -40.5t105.5 -137.5q80 99 147 138.5t154 39.5q127 0 202 -77.5t75 -213.5v-508q0 -67 21.5 -92.5t80.5 -28.5v-49h-485v49q58 4 78 30t20 91v467q0 98 -26 146t-83 48q-59 0 -118 -51q-19 -14 -37.5 -36.5 t-18.5 -30.5v-543q0 -60 21 -87.5t74 -33.5v-49h-476v49q56 4 76.5 30.5t20.5 90.5v492q0 92 -25.5 130.5t-85.5 38.5q-38 0 -105 -45.5t-67 -80.5v-535q0 -60 19.5 -87t72.5 -34v-49h-489v49q67 12 89.5 38t22.5 89v588q0 71 -23 96.5t-91 34.5z" />
<glyph unicode="n" horiz-adv-x="1138" d="M43 0v49q68 13 88.5 38t20.5 91v592q0 66 -21 90.5t-88 34.5v49h391v-153h2q101 178 291 178q126 0 201.5 -79t75.5 -212v-506q0 -69 20 -94t80 -29v-49h-479v49q52 6 73 33.5t21 89.5v485q0 174 -105 174q-74 0 -143 -69q-35 -35 -35 -49v-541q0 -59 21.5 -87.5 t77.5 -35.5v-49h-492z" />
<glyph unicode="o" horiz-adv-x="1024" d="M51 467q0 222 132.5 362t336.5 140q195 0 325 -141.5t130 -358.5q0 -216 -132 -357t-331 -141q-95 0 -180 37t-147 101.5t-98 157.5t-36 200zM352 446q0 -224 36.5 -317.5t125.5 -93.5t124.5 91t35.5 320q0 178 -15 276t-49 140.5t-96 42.5q-64 0 -98.5 -43t-49 -140 t-14.5 -276z" />
<glyph unicode="p" horiz-adv-x="1138" d="M39 -371q72 12 93.5 37.5t21.5 91.5v1004q0 68 -23 95.5t-90 37.5v49h393v-141q52 91 114 128.5t154 37.5q173 0 272 -118.5t99 -340.5q0 -241 -105.5 -389t-287.5 -148q-69 0 -118.5 25.5t-123.5 97.5v-258q0 -107 34 -156t124 -53v-49h-557v49zM438 219 q24 -60 66 -96.5t92 -36.5q87 0 130.5 93t43.5 300q0 373 -156 373q-75 0 -139 -76q-37 -43 -37 -67v-490z" />
<glyph unicode="q" horiz-adv-x="1138" d="M70 449q0 144 55 261.5t159.5 188t239.5 70.5q77 0 135 -24.5t136 -90.5l157 113h33v-1219q0 -61 21 -83t92 -36v-49h-547v49q97 13 123 48t26 139v270q-51 -65 -111 -90t-140 -25q-163 0 -271 130.5t-108 347.5zM369 483q0 -201 51.5 -301t138.5 -100q57 0 99 32t42 87 v524q0 84 -37.5 131t-99.5 47q-90 0 -142 -104.5t-52 -315.5z" />
<glyph unicode="r" horiz-adv-x="909" d="M57 895v49h389v-168q72 104 136 148.5t141 44.5q72 0 119 -46t47 -116q0 -61 -36 -100t-93 -39q-40 0 -68.5 17.5t-54.5 59.5q-30 48 -57 48q-54 0 -89.5 -61t-35.5 -152v-363q0 -99 27 -130.5t120 -37.5v-49h-543v49q68 12 89.5 36t21.5 87v592q0 71 -23 96.5t-90 34.5z " />
<glyph unicode="s" horiz-adv-x="796" d="M51 -27v338h58q65 -270 280 -270q69 0 111.5 36.5t42.5 96.5q0 50 -45.5 91t-151.5 87q-154 66 -222.5 141t-68.5 177q0 129 91.5 214t230.5 85q71 0 160 -31q46 -14 63 -14q20 0 31 9t20 32h45v-297h-51q-23 66 -43.5 101.5t-52.5 66.5q-68 65 -154 65q-58 0 -96.5 -34 t-38.5 -85q0 -53 46.5 -95t150.5 -85q154 -64 218 -137t64 -182q0 -138 -88 -225t-227 -87q-43 0 -110 14t-111 33q-33 13 -47 13q-13 0 -24.5 -12.5t-29.5 -45.5h-51z" />
<glyph unicode="t" horiz-adv-x="681" d="M39 854v55q53 36 96.5 74.5t87.5 92t73 93.5t85 121h51v-346h195v-90h-195v-610q0 -63 19 -93t61 -30q32 0 59 25t58 83l51 -22q-63 -126 -132 -179t-171 -53q-106 0 -168 59t-62 161v659h-108z" />
<glyph unicode="u" horiz-adv-x="1138" d="M33 895v49h385v-684q0 -84 28.5 -120t85.5 -36q44 0 82.5 22t85.5 75v565q0 70 -25 96.5t-100 32.5v49h410v-729q0 -68 25 -96t92 -31v-47l-129 -14q-102 -11 -154 -21t-117 -33v133q-79 -75 -145 -105t-151 -30q-128 0 -200.5 77.5t-72.5 219.5v494q0 71 -18.5 96 t-81.5 37z" />
<glyph unicode="v" horiz-adv-x="1024" d="M43 895v49h512v-49l-37 -4q-39 -5 -55.5 -15.5t-16.5 -33.5q0 -15 19 -64l162 -416l147 373q23 56 23 92q0 37 -23.5 51t-89.5 17v49h309v-49q-48 -5 -69 -24.5t-50 -88.5l-327 -811h-53l-246 607q-31 76 -76.5 173t-58.5 115q-16 22 -70 29z" />
<glyph unicode="w" horiz-adv-x="1478" d="M47 895v49h455v-49q-43 -6 -60.5 -18.5t-17.5 -38.5q0 -25 70 -209l3 -9t3 -8.5t4 -9.5l92 -242l139 351q-6 18 -12 39q-12 40 -17 57.5t-14 37.5t-14 25.5t-18 12.5t-23.5 8.5t-34.5 3.5v49h479v-49q-59 -5 -78.5 -14.5t-19.5 -34.5q0 -31 55 -217q50 -176 70 -260 l72 192q13 35 31.5 84.5t26.5 71t17 47.5t12 38.5t3 20.5q0 35 -21 50.5t-78 21.5v49h277v-49q-40 -7 -61 -28.5t-41 -73.5l-318 -822h-47l-209 635l-256 -635h-49l-303 766q-39 97 -58.5 124t-58.5 34z" />
<glyph unicode="x" horiz-adv-x="1024" d="M25 895v49h512v-49q-97 -3 -97 -39q0 -20 34 -77.5t85 -123.5q26 -33 27 -34l73 94q63 83 72 104q6 15 6 27q0 23 -13.5 32.5t-49.5 12.5l-41 4v49h344v-49q-88 -14 -143 -80l-207 -258l303 -467q17 -28 61 -41v-49h-493v49q49 3 70.5 12.5t21.5 28.5q0 31 -68 131 q-39 54 -86 129q-4 -5 -15 -19t-18 -22q-131 -157 -131 -211q0 -23 24 -34.5t79 -14.5v-49h-346v49q57 3 101 39.5t130 151.5l88 114q14 18 21 28t24 30l-262 403q-31 47 -49 60.5t-57 19.5z" />
<glyph unicode="y" horiz-adv-x="1024" d="M33 -258q0 60 34.5 98.5t92.5 38.5q52 0 87.5 -31t35.5 -75q0 -9 -4 -29l-3 -12q0 -14 11 -24.5t24 -10.5q36 0 72 45.5t63 122.5l37 108l-243 594q-31 78 -78 179t-60 120q-16 22 -69 29v49h510v-49l-33 -2q-74 -6 -74 -51q0 -17 41 -119l148 -381l139 385q22 65 22 100 q0 37 -22.5 51t-87.5 17v49h311v-49q-49 -6 -74 -27.5t-49 -85.5l-303 -815q-92 -247 -158 -319q-65 -68 -172 -68q-88 0 -143 45t-55 117z" />
<glyph unicode="z" horiz-adv-x="909" d="M43 0v51l479 828q-92 0 -148 -5.5t-99.5 -17.5t-68.5 -40t-42 -64t-33 -99h-53l14 291h760v-53l-473 -825h59q125 0 187.5 25t113.5 95q42 63 64 142h57l-33 -328h-784z" />
<glyph unicode="{" horiz-adv-x="806" d="M45 535q130 32 174.5 80t44.5 157v367q0 168 103 231q50 32 121.5 45.5t207.5 14.5v-25q-123 -26 -170 -81.5t-47 -172.5v-350q0 -129 -48 -182t-193 -84q145 -31 193 -84.5t48 -182.5v-350q0 -117 47.5 -172t169.5 -80v-24q-152 1 -230 18.5t-124 58.5q-78 66 -78 211 v367q0 109 -44.5 157.5t-174.5 80.5z" />
<glyph unicode="|" horiz-adv-x="450" d="M135 -39v1454h180v-1454h-180z" />
<glyph unicode="}" horiz-adv-x="806" d="M111 -334q123 26 170 81.5t47 172.5v350q0 127 49 181.5t192 85.5q-145 31 -193 84t-48 182v350q0 117 -47.5 172t-169.5 80v25q137 -1 208 -14.5t121 -45.5q103 -63 103 -229v-367q0 -109 44.5 -157t174.5 -80q-130 -32 -174.5 -80.5t-44.5 -157.5v-367 q0 -168 -103 -231q-49 -32 -120.5 -44.5t-208.5 -14.5v24z" />
<glyph unicode="~" horiz-adv-x="1064" d="M59 498q54 93 112 134.5t140 41.5q51 0 105.5 -17t169.5 -69q122 -53 166 -53q93 0 180 147l74 -143q-69 -97 -127 -137t-129 -40q-50 0 -93.5 14.5t-117.5 53.5q-130 72 -232 72q-64 0 -103.5 -40.5t-70.5 -107.5z" />
<glyph unicode="&#xa1;" horiz-adv-x="681" d="M168 856q0 72 51 121t125 49q71 0 120.5 -50t49.5 -122t-50.5 -123t-121.5 -51q-72 0 -123 51.5t-51 124.5zM170 -209q0 63 37 180q45 150 65.5 255.5t40.5 293.5h60q20 -187 40.5 -293.5t65.5 -255.5q37 -117 37 -182q0 -97 -45.5 -151t-128.5 -54q-82 0 -127 54.5 t-45 152.5z" />
<glyph unicode="&#xa2;" horiz-adv-x="1024" d="M109 457q0 220 135.5 366t339.5 146q54 0 123 -17l90 252h82l-99 -278q68 -38 98.5 -81t30.5 -100q0 -60 -36.5 -95.5t-98.5 -35.5q-52 0 -90 41l-168 -471q41 -41 79.5 -58t90.5 -17q66 0 114.5 25.5t100.5 88.5l37 -37q-93 -118 -182 -166.5t-209 -48.5q-45 0 -103 15 l-96 -273h-82l105 297q-49 24 -75.5 42.5t-55.5 47.5q-131 134 -131 357zM397 561q0 -89 15 -157.5t49 -141.5l196 551v6q0 37 -25 61.5t-63 24.5q-79 0 -125.5 -93t-46.5 -251z" />
<glyph unicode="&#xa3;" horiz-adv-x="1024" d="M43 147q0 92 55.5 140.5t161.5 48.5q48 0 105 -14q-3 58 -17 109t-67 200h-201v133h164q-29 160 -29 242q0 96 44 184t118 141q103 70 254 70q143 0 226 -62.5t83 -169.5q0 -69 -37 -108t-102 -39q-58 0 -92.5 37t-34.5 96q0 16 2 46t2 50q1 42 -23 65t-67 23 q-51 0 -83 -35t-32 -92q0 -36 25 -175.5t55 -272.5h233v-133h-223q4 -78 4 -111q0 -75 -8 -124.5t-33 -121.5q123 -45 197 -45q97 0 140.5 30.5t66.5 115.5h47q-10 -121 -28 -189t-50 -116q-70 -103 -190 -103q-64 0 -116.5 28t-139.5 105q-51 -66 -106 -96.5t-124 -30.5 q-86 0 -133 45.5t-47 128.5zM109 135q0 -46 31 -73t83 -27q57 0 91.5 33t56.5 108q-41 36 -74.5 51t-73.5 15q-54 0 -84 -28.5t-30 -78.5z" />
<glyph unicode="&#xa4;" horiz-adv-x="1024" d="M-53 98l200 201q-75 113 -75 246q0 134 75 250l-200 200l119 115l196 -197q116 72 250 72t250 -72l196 197l119 -115l-200 -200q41 -66 58 -122.5t17 -127.5q0 -141 -75 -246l200 -201l-119 -118l-196 200q-123 -76 -250 -76t-250 76l-196 -200zM252 547q0 -115 75 -195 t183 -80q110 0 186 79.5t76 195.5q0 114 -76.5 192t-187.5 78q-105 0 -180.5 -79.5t-75.5 -190.5z" />
<glyph unicode="&#xa5;" horiz-adv-x="1024" d="M-131 1331v53h616v-53q-93 -3 -125 -15t-32 -44q0 -24 32.5 -94.5t122.5 -247.5l117 -230l244 471q16 31 16 72q0 50 -31 67t-129 21v53h420v-53q-52 -4 -81.5 -21.5t-49.5 -54.5l-295 -555h228v-102h-269l-8 -23v-137h277v-102h-277v-100q0 -105 38 -140t165 -45v-51 h-678v51q130 10 169.5 45.5t39.5 139.5v100h-277v102h277v117l-23 43h-254v102h203l-266 523q-27 55 -66.5 79t-103.5 29z" />
<glyph unicode="&#xa6;" horiz-adv-x="450" d="M135 -39v567h180v-567h-180zM135 848v567h180v-567h-180z" />
<glyph unicode="&#xa7;" horiz-adv-x="1024" d="M117 600q0 250 264 250h27q-126 110 -165.5 167.5t-39.5 131.5q0 117 85.5 191.5t219.5 74.5q120 0 208.5 -61t88.5 -144q0 -51 -40 -90t-93 -39q-44 0 -83.5 38t-39.5 79q0 45 55 88q31 25 31 39q0 17 -34 30t-77 13q-75 0 -122.5 -39t-47.5 -102q0 -104 213 -244 q206 -134 299 -293q41 -68 41 -168q0 -115 -80 -176q-34 -26 -81 -38t-128 -13q114 -79 161.5 -148t47.5 -153q0 -116 -94 -190t-241 -74q-128 0 -218 59.5t-90 144.5q0 57 37 95.5t92 38.5q54 0 93.5 -34.5t39.5 -80.5q0 -26 -14 -45t-49 -41q-31 -19 -31 -31 q0 -23 42.5 -41t97.5 -18q161 0 161 145q0 47 -16 78t-59 66l-117 94q-219 177 -281.5 257t-62.5 183zM270 688q0 -56 26 -93.5t124 -123.5q89 -78 133 -103.5t90 -25.5q47 0 78 33.5t31 85.5q0 43 -18.5 76.5t-69.5 80.5q-103 97 -170.5 141t-114.5 44q-48 0 -78.5 -32 t-30.5 -83z" />
<glyph unicode="&#xa8;" horiz-adv-x="681" d="M-4 1233q0 53 39.5 92t93.5 39q53 0 92 -40t39 -95q0 -54 -38 -91.5t-95 -37.5q-54 0 -92.5 39t-38.5 94zM426 1233q0 54 38.5 92.5t92.5 38.5t93.5 -40t39.5 -95q0 -54 -39 -91.5t-96 -37.5q-54 0 -91.5 38.5t-37.5 94.5z" />
<glyph unicode="&#xa9;" horiz-adv-x="1529" d="M53 692q0 151 56 285.5t152 230.5t230.5 151.5t286.5 55.5q143 0 272.5 -57t223 -154t148.5 -232.5t55 -285.5q0 -151 -55 -285.5t-149.5 -231t-226 -152.5t-278.5 -56q-201 0 -365 95.5t-257 263t-93 372.5zM199 686q0 -169 75.5 -311.5t206 -224.5t285.5 -82t285 83 t205 226.5t75 314.5q0 169 -76 311t-208 224t-289 82q-151 0 -280 -84t-204 -227.5t-75 -311.5zM360 694q0 192 125.5 306t337.5 114q103 0 211 -39q25 -9 35 -18.5t10 -24.5v-147h-39q-26 95 -78.5 138.5t-140.5 43.5q-122 0 -187 -93.5t-65 -268.5q0 -177 65 -272t187 -95 q86 0 145.5 43t108.5 143h39l-33 -151q-3 -32 -63 -47l-25 -7q-118 -28 -194 -28q-201 0 -320 108.5t-119 294.5z" />
<glyph unicode="&#xaa;" horiz-adv-x="614" d="M-2 948q0 77 75 124.5t281 101.5v81q0 57 -23.5 82t-78.5 25q-35 0 -59.5 -13t-24.5 -32q0 -11 18 -29q23 -23 23 -43q0 -32 -27.5 -51.5t-70.5 -19.5q-41 0 -63.5 21.5t-22.5 59.5q0 71 71.5 112.5t192.5 41.5q120 0 190 -45t70 -123v-319q0 -31 22 -31l13 4l12 12 l20 -24q-37 -38 -71 -54t-78 -16q-49 0 -73.5 19t-35.5 65q-56 -46 -103 -65t-105 -19q-68 0 -110 37.5t-42 97.5zM199 981q0 -36 18 -59t47 -23q46 0 88 53v178q-153 -46 -153 -149z" />
<glyph unicode="&#xab;" horiz-adv-x="1024" d="M47 461v8l416 336l12 10q43 35 64 35q24 0 24 -23q0 -69 -188 -301q-2 -2 -49 -61q71 -99 82 -111q159 -189 159 -250q0 -30 -22 -30q-6 0 -12.5 3t-12 6t-16.5 10.5t-19 12.5zM449 461v8l415 336l13 10q43 35 63 35q25 0 25 -23q0 -69 -191 -301q-34 -43 -47 -61 q31 -46 82 -111q87 -113 123.5 -167.5t36.5 -82.5q0 -30 -23 -30q-7 0 -14 3t-22 13.5t-23 15.5z" />
<glyph unicode="&#xac;" d="M133 637v180h1270v-596h-180v416h-1090z" />
<glyph unicode="&#xad;" horiz-adv-x="681" d="M90 350v238h498v-238h-498z" />
<glyph unicode="&#xae;" horiz-adv-x="1529" d="M53 692q0 151 56 285.5t152 230.5t230.5 151.5t286.5 55.5q143 0 272.5 -57t223 -154t148.5 -232.5t55 -285.5q0 -151 -55 -285.5t-149.5 -231t-226 -152.5t-278.5 -56q-201 0 -365 95.5t-257 263t-93 372.5zM199 686q0 -169 75.5 -311.5t206 -224.5t285.5 -82t285 83 t205 226.5t75 314.5q0 169 -76 311t-208 224t-289 82q-151 0 -280 -84t-204 -227.5t-75 -311.5zM424 313v37q69 4 81.5 16t12.5 74v523q0 63 -12.5 75t-81.5 15v37h395q109 0 172.5 -53t63.5 -144q0 -150 -164 -215l119 -168q80 -114 143 -174v-23h-166q-25 0 -53.5 36.5 t-75.5 129.5q-41 80 -100 176h-76v-215q0 -62 12.5 -74t81.5 -16v-37h-352zM682 700h72q61 0 94 47.5t33 135.5q0 161 -125 161h-74v-344z" />
<glyph unicode="&#xaf;" horiz-adv-x="681" d="M2 1157v148h676v-148h-676z" />
<glyph unicode="&#xb0;" horiz-adv-x="819" d="M117 1116q0 122 85.5 207.5t207.5 85.5q121 0 206.5 -85.5t85.5 -207.5t-85.5 -207.5t-206.5 -85.5q-122 0 -207.5 85.5t-85.5 207.5zM229 1116q0 -75 53 -127.5t128 -52.5t127.5 52.5t52.5 127.5t-52.5 127.5t-127.5 52.5t-128 -52.5t-53 -127.5z" />
<glyph unicode="&#xb1;" horiz-adv-x="1576" d="M133 -129h1270v-180h-1270v180zM133 428v180h545v453h180v-453h545v-180h-545v-453h-180v453h-545z" />
<glyph unicode="&#xb2;" horiz-adv-x="614" d="M0 563v29q230 228 303.5 330.5t73.5 191.5q0 65 -45 110.5t-109 45.5q-52 0 -87.5 -25.5t-67.5 -85.5h-50q53 129 124 189.5t171 60.5q107 0 175.5 -63.5t68.5 -163.5q0 -68 -34.5 -129.5t-116.5 -137.5l-203 -188h188q101 0 131.5 15t59.5 81h32l-61 -260h-553z" />
<glyph unicode="&#xb3;" horiz-adv-x="614" d="M6 659q0 57 82 84q47 -5 71.5 -16.5t65.5 -50.5q32 -30 54 -41.5t47 -11.5q58 0 93.5 36.5t35.5 96.5q0 89 -60 145t-207 103v20q94 28 133 64.5t39 97.5q0 57 -36 91t-97 34q-47 0 -81 -23t-72 -80l-41 15q107 186 305 186q103 0 160 -44t57 -122q0 -55 -24 -88.5 t-87 -67.5q164 -66 164 -219q0 -134 -115 -226.5t-282 -92.5q-94 0 -149.5 29.5t-55.5 80.5z" />
<glyph unicode="&#xb4;" horiz-adv-x="681" d="M176 1081l281 322q51 57 108 57q44 0 71.5 -25t27.5 -65q0 -35 -16 -56t-66 -52l-291 -181h-115z" />
<glyph unicode="&#xb5;" horiz-adv-x="1138" d="M68 -264q0 33 20 117q47 193 47 327v764h285v-639q0 -68 32.5 -109.5t84.5 -41.5q66 0 151 55v735h285v-737q0 -41 24 -68.5t58 -27.5q21 0 43 12v-49q-67 -61 -109.5 -81t-107.5 -20q-75 0 -124 25.5t-83 81.5q-50 -59 -94.5 -83t-108.5 -24q-62 0 -109.5 16.5 t-99.5 55.5q7 -62 39 -166q29 -88 29 -143q0 -77 -33 -117.5t-96 -40.5t-98 41.5t-35 116.5z" />
<glyph unicode="&#xb6;" horiz-adv-x="1308" d="M123 985q0 206 108.5 302.5t339.5 96.5h615v-51l-53 -4q-75 -6 -95 -22t-20 -80v-1442q0 -63 18 -84t92 -27l48 -4v-51h-351v1714h-102v-1714h-358v51q62 6 91 10.5t48 17t22.5 29t3.5 50.5v766q-80 3 -129 15.5t-96 41.5q-182 113 -182 385zM307 989q0 -162 54 -258 t169 -137v739q-74 -19 -111 -43t-65 -71q-47 -77 -47 -230z" />
<glyph unicode="&#xb7;" horiz-adv-x="512" d="M84 680q0 72 51 123t123 51q70 0 121 -51.5t51 -122.5q0 -72 -50.5 -122t-123.5 -50q-74 0 -123 49t-49 123z" />
<glyph unicode="&#xb8;" horiz-adv-x="681" d="M139 -410l33 76l12 -4q73 -24 109 -24q119 0 119 83q0 35 -25.5 54.5t-69.5 19.5q-26 0 -57 -8l-22 16l88 197h86l-58 -131q31 10 66 10q86 0 134 -37.5t48 -105.5q0 -85 -71 -133.5t-193 -48.5q-98 0 -199 36z" />
<glyph unicode="&#xb9;" horiz-adv-x="614" d="M57 1233v43l336 133h23v-690q0 -71 26.5 -92.5t116.5 -22.5v-41h-498v41q98 0 128 23.5t30 99.5v453q0 84 -47 84q-32 0 -88 -21z" />
<glyph unicode="&#xba;" horiz-adv-x="675" d="M37 1112q0 129 86.5 213t218.5 84q127 0 212 -85.5t85 -213.5q0 -129 -85 -213t-214 -84q-133 0 -218 84t-85 215zM236 1100q0 -137 22.5 -191.5t79.5 -54.5q55 0 77.5 54t22.5 186q0 159 -21 215.5t-81 56.5q-57 0 -78.5 -57.5t-21.5 -208.5z" />
<glyph unicode="&#xbb;" horiz-adv-x="1024" d="M55 819q0 13 7 22t16 9q20 0 59 -33l438 -354v-8l-415 -336l-13 -10q-40 -35 -63 -35q-25 0 -25 22q0 69 191 301q29 36 47 62q-46 66 -82 108q-160 192 -160 252zM457 819q0 13 6.5 22t15.5 9q21 0 60 -33l438 -354v-8l-416 -336q-8 -8 -14 -10q-37 -35 -62 -35 q-24 0 -24 22q0 72 188 301l49 62q-46 66 -82 108q-159 191 -159 252z" />
<glyph unicode="&#xbc;" d="M57 1233v43l336 133h23v-690q0 -71 26.5 -92.5t116.5 -22.5v-41h-498v41q98 0 128 23.5t30 99.5v453q0 84 -47 84q-32 0 -88 -21zM356 -25l904 1434h114l-899 -1434h-119zM915 178v137q75 110 141 197t195 240l80 94h107v-533h84v-135h-84v-178h-193v178h-330zM967 313 h280v359z" />
<glyph unicode="&#xbd;" d="M-14 1233v43l336 133h22v-690q0 -33 6 -54t15 -33t29.5 -18t38.5 -7.5t54 -2.5v-41h-497v41q47 0 70.5 2.5t46.5 14t31.5 37t8.5 69.5v453q0 84 -47 84q-37 0 -114 -31zM270 -25l904 1434h114l-899 -1434h-119zM973 0v29l92 94q47 46 72.5 72.5t67 76t63.5 88t39.5 90.5 t17.5 101q0 63 -35 110.5t-96 47.5q-93 0 -154 -113h-49q21 55 46.5 97t60.5 78t82.5 55.5t105.5 19.5q105 0 184.5 -63t79.5 -165q0 -25 -6 -49t-21 -49t-26.5 -43t-36.5 -44t-36 -37.5t-40.5 -38.5t-35.5 -33l-160 -150v-10h211q68 0 98 17.5t57 78.5h33l-61 -260h-553z " />
<glyph unicode="&#xbe;" d="M47 659q0 57 82 84q43 -4 66.5 -16t70.5 -51q35 -30 56 -41.5t45 -11.5q58 0 93.5 36.5t35.5 96.5q0 89 -60 145t-207 103v20q94 28 133 64.5t39 97.5q0 57 -36 91t-97 34q-47 0 -81 -23t-72 -80l-41 15q107 186 305 186q103 0 160 -44t57 -122q0 -54 -22.5 -87 t-79.5 -64v-9q155 -62 155 -215q0 -133 -115.5 -226t-281.5 -93q-94 0 -149.5 29.5t-55.5 80.5zM352 -25l903 1434h115l-899 -1434h-119zM895 178v137q75 110 141 197t195 240l80 94h106v-533h84v-135h-84v-178h-192v178h-330zM946 313h281v359z" />
<glyph unicode="&#xbf;" horiz-adv-x="1024" d="M113 -72q0 106 53 179t194 161q98 60 122 102t24 154h61q6 -51 6 -92q-2 -63 -26.5 -133t-53 -122t-52 -120t-23.5 -129q0 -118 46 -192t126 -74q57 0 91 22.5t34 59.5q0 26 -31 59q-26 29 -35.5 51.5t-9.5 53.5q0 56 42 96.5t91 40.5q59 0 97 -46t38 -114 q0 -129 -105 -213t-272 -84q-191 0 -304 95.5t-113 244.5zM362 854q0 72 50.5 122t122.5 50q73 0 123.5 -50t50.5 -122t-52 -123t-125 -51q-69 0 -119.5 51.5t-50.5 122.5z" />
<glyph unicode="&#xc0;" horiz-adv-x="1478" d="M18 0v51q71 12 108 56.5t95 189.5l453 1116h57l455 -1069q77 -185 119 -239t106 -54v-51h-659v51l65 6q52 5 73 20t21 48q0 60 -94 278h-461l-26 -69q-3 -7 -16 -38.5t-18 -46t-14 -39.5t-12.5 -43t-3.5 -32q0 -40 37.5 -59t128.5 -25v-51h-414zM387 483h399l-206 498z M449 1880q0 38 28 65t68 27q59 0 110 -57l281 -322h-115l-291 181q-44 28 -62.5 51.5t-18.5 54.5z" />
<glyph unicode="&#xc1;" horiz-adv-x="1478" d="M18 0v51q71 12 108 56.5t95 189.5l453 1116h57l455 -1069q77 -185 119 -239t106 -54v-51h-659v51l65 6q52 5 73 20t21 48q0 60 -94 278h-461l-26 -69q-3 -7 -16 -38.5t-18 -46t-14 -39.5t-12.5 -43t-3.5 -32q0 -40 37.5 -59t128.5 -25v-51h-414zM387 483h399l-206 498z M469 1593l281 322q51 57 108 57q44 0 71 -25t27 -65q0 -35 -16 -56t-66 -52l-290 -181h-115z" />
<glyph unicode="&#xc2;" horiz-adv-x="1478" d="M18 0v51q71 12 108 56.5t95 189.5l453 1116h57l455 -1069q77 -185 119 -239t106 -54v-51h-659v51l65 6q52 5 73 20t21 48q0 60 -94 278h-461l-26 -69q-3 -7 -16 -38.5t-18 -46t-14 -39.5t-12.5 -43t-3.5 -32q0 -40 37.5 -59t128.5 -25v-51h-414zM356 1593l250 361h189 l252 -361h-117l-230 201l-229 -201h-115zM387 483h399l-206 498z" />
<glyph unicode="&#xc3;" horiz-adv-x="1478" d="M18 0v51q71 12 108 56.5t95 189.5l453 1116h57l455 -1069q77 -185 119 -239t106 -54v-51h-659v51l65 6q52 5 73 20t21 48q0 60 -94 278h-461l-26 -69q-3 -7 -16 -38.5t-18 -46t-14 -39.5t-12.5 -43t-3.5 -32q0 -40 37.5 -59t128.5 -25v-51h-414zM326 1636q28 132 85 194 t152 62q65 0 150 -39l82 -36q39 -18 50.5 -21.5t28.5 -3.5q41 0 66 22.5t45 77.5h88q-35 -133 -93 -196.5t-144 -63.5q-63 0 -134 29l-59 27q-66 30 -88 37.5t-43 7.5q-39 0 -66.5 -27t-33.5 -70h-86zM387 483h399l-206 498z" />
<glyph unicode="&#xc4;" horiz-adv-x="1478" d="M18 0v51q71 12 108 56.5t95 189.5l453 1116h57l455 -1069q77 -185 119 -239t106 -54v-51h-659v51l65 6q52 5 73 20t21 48q0 60 -94 278h-461l-26 -69q-3 -7 -16 -38.5t-18 -46t-14 -39.5t-12.5 -43t-3.5 -32q0 -40 37.5 -59t128.5 -25v-51h-414zM352 1745q0 53 39.5 92 t93.5 39q53 0 92 -40t39 -95q0 -54 -38 -91.5t-95 -37.5q-54 0 -92.5 39t-38.5 94zM387 483h399l-206 498zM782 1745q0 54 38.5 92.5t92.5 38.5t94 -40t40 -95q0 -54 -39.5 -91.5t-96.5 -37.5q-54 0 -91.5 38.5t-37.5 94.5z" />
<glyph unicode="&#xc5;" horiz-adv-x="1478" d="M18 0v51q71 12 108 56.5t95 189.5l453 1116h57l455 -1069q77 -185 119 -239t106 -54v-51h-659v51l65 6q52 5 73 20t21 48q0 60 -94 278h-461l-26 -69q-3 -7 -16 -38.5t-18 -46t-14 -39.5t-12.5 -43t-3.5 -32q0 -40 37.5 -59t128.5 -25v-51h-414zM387 483h399l-206 498z M481 1829q0 89 65 154t156 65q88 0 152 -63t64 -152q0 -91 -64 -156t-154 -65q-92 0 -155.5 62.5t-63.5 154.5zM580 1831q0 -49 34.5 -85t81.5 -36q52 0 87.5 33.5t35.5 83.5q0 52 -36.5 87.5t-88.5 35.5q-44 0 -79 -36t-35 -83z" />
<glyph unicode="&#xc6;" horiz-adv-x="2048" d="M8 0v51q28 4 42.5 9.5t32 17.5t38 43t45 72.5t67.5 119.5l451 824q57 102 57 127q0 37 -38.5 53t-139.5 22v45h1299v-411h-52q-20 97 -38.5 145t-51.5 88q-85 107 -370 107q-82 0 -110 -12.5t-28 -49.5v-508q66 6 103.5 11t72.5 19.5t52 30.5t35 53.5t28.5 77.5t26.5 114 h47v-693h-47q-15 100 -33 156.5t-54.5 94t-88.5 52t-142 19.5v-498q0 -65 31.5 -87.5t120.5 -22.5q259 0 381 125q53 55 98.5 123.5t57.5 113.5h47l-84 -432h-1159v51q113 6 146.5 42t33.5 151v377h-389l-205 -385q-31 -58 -31 -93q0 -43 28 -61t107 -27l35 -4v-51h-422z M541 702h344v594h-15z" />
<glyph unicode="&#xc7;" horiz-adv-x="1478" d="M100 680q0 155 54.5 291.5t148.5 234t226.5 153.5t283.5 56q142 0 317 -72q66 -28 95 -28t48 19.5t42 74.5h55v-479h-51q-54 117 -97.5 181t-109.5 122q-130 115 -272 115q-186 0 -281.5 -165.5t-95.5 -484.5q0 -297 88 -460q44 -80 133 -129.5t190 -49.5q98 0 185 37 q75 29 136 74.5t151 140.5l61 -51q-145 -164 -275.5 -230.5t-310.5 -68.5l-41 -92q31 10 66 10q86 0 134 -37.5t48 -105.5q0 -85 -71 -133.5t-193 -48.5q-98 0 -199 36l33 76l12 -4q71 -24 109 -24q119 0 119 83q0 35 -25.5 54.5t-69.5 19.5q-26 0 -57 -8l-22 16l71 162 l-6 2q-280 28 -454.5 226t-174.5 487z" />
<glyph unicode="&#xc8;" horiz-adv-x="1366" d="M33 0v51q111 12 145.5 43t34.5 113v981q0 78 -37.5 108.5t-142.5 36.5v51h1181v-411h-51q-24 140 -74.5 212t-144.5 101t-266 29q-77 0 -105 -25t-28 -86v-461q167 2 240.5 66.5t91.5 239.5h53v-693h-53q-15 181 -88.5 249.5t-243.5 68.5v-496q0 -66 35.5 -90.5 t134.5 -24.5q122 0 211.5 26t160.5 85q51 41 85.5 94.5t82.5 157.5h58l-82 -426h-1198zM438 1880q0 38 28.5 65t68.5 27q59 0 110 -57l281 -322h-115l-291 181q-45 28 -63.5 52t-18.5 54z" />
<glyph unicode="&#xc9;" horiz-adv-x="1366" d="M33 0v51q111 12 145.5 43t34.5 113v981q0 78 -37.5 108.5t-142.5 36.5v51h1181v-411h-51q-24 140 -74.5 212t-144.5 101t-266 29q-77 0 -105 -25t-28 -86v-461q167 2 240.5 66.5t91.5 239.5h53v-693h-53q-15 181 -88.5 249.5t-243.5 68.5v-496q0 -66 35.5 -90.5 t134.5 -24.5q122 0 211.5 26t160.5 85q51 41 85.5 94.5t82.5 157.5h58l-82 -426h-1198zM473 1593l281 322q51 57 108 57q44 0 71.5 -25t27.5 -65q0 -35 -16 -56t-66 -52l-291 -181h-115z" />
<glyph unicode="&#xca;" horiz-adv-x="1366" d="M33 0v51q111 12 145.5 43t34.5 113v981q0 78 -37.5 108.5t-142.5 36.5v51h1181v-411h-51q-24 140 -74.5 212t-144.5 101t-266 29q-77 0 -105 -25t-28 -86v-461q167 2 240.5 66.5t91.5 239.5h53v-693h-53q-15 181 -88.5 249.5t-243.5 68.5v-496q0 -66 35.5 -90.5 t134.5 -24.5q122 0 211.5 26t160.5 85q51 41 85.5 94.5t82.5 157.5h58l-82 -426h-1198zM356 1593l250 361h189l252 -361h-117l-230 201l-229 -201h-115z" />
<glyph unicode="&#xcb;" horiz-adv-x="1366" d="M33 0v51q111 12 145.5 43t34.5 113v981q0 78 -37.5 108.5t-142.5 36.5v51h1181v-411h-51q-24 140 -74.5 212t-144.5 101t-266 29q-77 0 -105 -25t-28 -86v-461q167 2 240.5 66.5t91.5 239.5h53v-693h-53q-15 181 -88.5 249.5t-243.5 68.5v-496q0 -66 35.5 -90.5 t134.5 -24.5q122 0 211.5 26t160.5 85q51 41 85.5 94.5t82.5 157.5h58l-82 -426h-1198zM352 1745q0 53 39.5 92t93.5 39q53 0 92 -40t39 -95q0 -54 -38 -91.5t-95 -37.5q-54 0 -92.5 39t-38.5 94zM782 1745q0 54 38.5 92.5t92.5 38.5t94 -40t40 -95q0 -54 -39.5 -91.5 t-96.5 -37.5q-54 0 -91.5 38.5t-37.5 94.5z" />
<glyph unicode="&#xcc;" horiz-adv-x="796" d="M41 0v51q117 11 153.5 41.5t36.5 124.5v963q0 85 -39 115t-151 38v51h717v-51q-114 -5 -154.5 -36t-40.5 -117v-963q0 -98 37.5 -128t157.5 -38v-51h-717zM162 1880q0 38 28 65t68 27q60 0 111 -57l280 -322h-114l-291 181q-45 28 -63.5 52t-18.5 54z" />
<glyph unicode="&#xcd;" horiz-adv-x="796" d="M41 0v51q117 11 153.5 41.5t36.5 124.5v963q0 85 -39 115t-151 38v51h717v-51q-114 -5 -154.5 -36t-40.5 -117v-963q0 -98 37.5 -128t157.5 -38v-51h-717zM150 1593l280 322q51 57 109 57q44 0 71 -25t27 -65q0 -35 -16 -56t-66 -52l-291 -181h-114z" />
<glyph unicode="&#xce;" horiz-adv-x="796" d="M41 0v51q117 11 153.5 41.5t36.5 124.5v963q0 85 -39 115t-151 38v51h717v-51q-114 -5 -154.5 -36t-40.5 -117v-963q0 -98 37.5 -128t157.5 -38v-51h-717zM53 1593l250 361h189l251 -361h-116l-230 201l-229 -201h-115z" />
<glyph unicode="&#xcf;" horiz-adv-x="796" d="M41 0v51q117 11 153.5 41.5t36.5 124.5v963q0 85 -39 115t-151 38v51h717v-51q-114 -5 -154.5 -36t-40.5 -117v-963q0 -98 37.5 -128t157.5 -38v-51h-717zM49 1745q0 53 39.5 92t93.5 39q53 0 92 -40t39 -95q0 -54 -38 -91.5t-95 -37.5q-54 0 -92.5 39t-38.5 94z M479 1745q0 54 38.5 92.5t92.5 38.5t93.5 -40t39.5 -95q0 -54 -39 -91.5t-96 -37.5q-54 0 -91.5 38.5t-37.5 94.5z" />
<glyph unicode="&#xd0;" horiz-adv-x="1478" d="M12 668v96h187v432q0 70 -36 99t-134 38v51h624q356 0 558 -180t202 -497q0 -148 -47.5 -275.5t-136.5 -218.5q-96 -101 -242 -157t-311 -56h-647v51q89 3 129.5 35t40.5 100v482h-187zM530 190q0 -69 25 -93.5t94 -24.5q200 0 305 147q47 69 75 192t28 265 q0 270 -86 434q-111 205 -318 205q-73 0 -98 -19.5t-25 -76.5v-455h234v-96h-234v-478z" />
<glyph unicode="&#xd1;" horiz-adv-x="1478" d="M33 0v51q112 13 146 45.5t34 126.5v963q-61 84 -100.5 115.5t-73.5 31.5v51h432l715 -880v612q0 122 -37 164t-152 53v51h439v-51q-102 -15 -131 -45t-29 -125v-1200h-57l-916 1116v-811q0 -119 37.5 -161.5t155.5 -55.5v-51h-463zM360 1636q28 132 85.5 194t152.5 62 q65 0 150 -39l81 -36q55 -25 80 -25q41 0 66 22.5t45 77.5h88q-35 -133 -93.5 -196.5t-144.5 -63.5q-62 0 -133 29l-59 27q-66 30 -88 37.5t-43 7.5q-39 0 -67 -27t-34 -70h-86z" />
<glyph unicode="&#xd2;" horiz-adv-x="1593" d="M72 684q0 215 94.5 382t262 258t378.5 91q152 0 285 -54.5t227.5 -150.5t148.5 -231.5t54 -292.5q0 -210 -93 -375.5t-258.5 -257.5t-375.5 -92q-209 0 -374 92t-257 257t-92 374zM434 676q0 -321 94 -484t271 -163t268.5 163.5t91.5 479.5q0 327 -95.5 501.5 t-275.5 174.5q-169 0 -261.5 -175t-92.5 -497zM543 1880q0 38 28 65t68 27q60 0 111 -57l280 -322h-115l-290 181q-45 28 -63.5 52t-18.5 54z" />
<glyph unicode="&#xd3;" horiz-adv-x="1593" d="M72 684q0 215 94.5 382t262 258t378.5 91q152 0 285 -54.5t227.5 -150.5t148.5 -231.5t54 -292.5q0 -210 -93 -375.5t-258.5 -257.5t-375.5 -92q-209 0 -374 92t-257 257t-92 374zM434 676q0 -321 94 -484t271 -163t268.5 163.5t91.5 479.5q0 327 -95.5 501.5 t-275.5 174.5q-169 0 -261.5 -175t-92.5 -497zM547 1593l280 322q51 57 109 57q44 0 71 -25t27 -65q0 -35 -16 -56t-66 -52l-290 -181h-115z" />
<glyph unicode="&#xd4;" horiz-adv-x="1593" d="M72 684q0 215 94.5 382t262 258t378.5 91q152 0 285 -54.5t227.5 -150.5t148.5 -231.5t54 -292.5q0 -210 -93 -375.5t-258.5 -257.5t-375.5 -92q-209 0 -374 92t-257 257t-92 374zM434 676q0 -321 94 -484t271 -163t268.5 163.5t91.5 479.5q0 327 -95.5 501.5 t-275.5 174.5q-169 0 -261.5 -175t-92.5 -497zM440 1593l250 361h189l251 -361h-116l-230 201l-229 -201h-115z" />
<glyph unicode="&#xd5;" horiz-adv-x="1593" d="M72 684q0 215 94.5 382t262 258t378.5 91q152 0 285 -54.5t227.5 -150.5t148.5 -231.5t54 -292.5q0 -210 -93 -375.5t-258.5 -257.5t-375.5 -92q-209 0 -374 92t-257 257t-92 374zM420 1636q28 132 85 194t152 62q65 0 150 -39l82 -36q55 -25 80 -25q41 0 65.5 22 t44.5 78h88q-35 -133 -93 -196.5t-144 -63.5q-62 0 -133 29l-60 27q-66 30 -88 37.5t-43 7.5q-39 0 -66.5 -27t-33.5 -70h-86zM434 676q0 -321 94 -484t271 -163t268.5 163.5t91.5 479.5q0 327 -95.5 501.5t-275.5 174.5q-169 0 -261.5 -175t-92.5 -497z" />
<glyph unicode="&#xd6;" horiz-adv-x="1593" d="M72 684q0 215 94.5 382t262 258t378.5 91q152 0 285 -54.5t227.5 -150.5t148.5 -231.5t54 -292.5q0 -210 -93 -375.5t-258.5 -257.5t-375.5 -92q-209 0 -374 92t-257 257t-92 374zM434 676q0 -321 94 -484t271 -163t268.5 163.5t91.5 479.5q0 327 -95.5 501.5 t-275.5 174.5q-169 0 -261.5 -175t-92.5 -497zM440 1745q0 53 39.5 92t93.5 39q53 0 92.5 -40t39.5 -95q0 -54 -38.5 -91.5t-95.5 -37.5q-54 0 -92.5 39t-38.5 94zM870 1745q0 54 38.5 92.5t92.5 38.5t94 -40t40 -95q0 -54 -39.5 -91.5t-96.5 -37.5q-54 0 -91.5 38.5 t-37.5 94.5z" />
<glyph unicode="&#xd7;" horiz-adv-x="1437" d="M135 59l457 459l-455 457l127 127l455 -457l457 457l127 -127l-457 -457l457 -459l-127 -127l-457 459l-457 -459z" />
<glyph unicode="&#xd8;" horiz-adv-x="1593" d="M72 686q0 209 92.5 375.5t259 260t375.5 93.5q104 0 189 -22t183 -74l129 190h103l-160 -235q78 -65 117.5 -109.5t73.5 -107.5q88 -166 88 -369q0 -210 -92.5 -376t-258 -258.5t-374.5 -92.5q-110 0 -198 23t-185 77l-146 -213h-102l176 258q-91 78 -136.5 139.5 t-82.5 153.5q-51 131 -51 287zM434 672q0 -115 9.5 -193.5t35.5 -169.5l586 856q-54 98 -115.5 140.5t-152.5 42.5q-175 0 -269 -175.5t-94 -500.5zM518 213q53 -98 117.5 -141t161.5 -43q178 0 270 164.5t92 484.5q0 125 -11.5 211t-41.5 184z" />
<glyph unicode="&#xd9;" horiz-adv-x="1478" d="M33 1333v51h688v-51q-85 -6 -123.5 -22.5t-55 -57.5t-16.5 -127v-651q0 -212 74 -313t225 -101q361 0 361 455v614q0 111 -41.5 152.5t-157.5 50.5v51h449v-51q-98 -15 -129 -49t-31 -125v-643q0 -153 -40.5 -267.5t-115.5 -174.5q-65 -53 -166 -83t-211 -30 q-238 0 -378 111q-88 69 -126 161t-38 240v664q0 65 -5 99t-26 55.5t-49.5 28.5t-87.5 13zM494 1880q0 38 28 65t68 27q59 0 110 -57l281 -322h-115l-291 181q-44 28 -62.5 51.5t-18.5 54.5z" />
<glyph unicode="&#xda;" horiz-adv-x="1478" d="M33 1333v51h688v-51q-85 -6 -123.5 -22.5t-55 -57.5t-16.5 -127v-651q0 -212 74 -313t225 -101q361 0 361 455v614q0 111 -41.5 152.5t-157.5 50.5v51h449v-51q-98 -15 -129 -49t-31 -125v-643q0 -153 -40.5 -267.5t-115.5 -174.5q-65 -53 -166 -83t-211 -30 q-238 0 -378 111q-88 69 -126 161t-38 240v664q0 65 -5 99t-26 55.5t-49.5 28.5t-87.5 13zM496 1593l280 322q51 57 109 57q44 0 71 -25t27 -65q0 -35 -16 -56t-66 -52l-291 -181h-114z" />
<glyph unicode="&#xdb;" horiz-adv-x="1478" d="M33 1333v51h688v-51q-85 -6 -123.5 -22.5t-55 -57.5t-16.5 -127v-651q0 -212 74 -313t225 -101q361 0 361 455v614q0 111 -41.5 152.5t-157.5 50.5v51h449v-51q-98 -15 -129 -49t-31 -125v-643q0 -153 -40.5 -267.5t-115.5 -174.5q-65 -53 -166 -83t-211 -30 q-238 0 -378 111q-88 69 -126 161t-38 240v664q0 65 -5 99t-26 55.5t-49.5 28.5t-87.5 13zM395 1593l250 361h189l251 -361h-116l-230 201l-229 -201h-115z" />
<glyph unicode="&#xdc;" horiz-adv-x="1478" d="M33 1333v51h688v-51q-85 -6 -123.5 -22.5t-55 -57.5t-16.5 -127v-651q0 -212 74 -313t225 -101q361 0 361 455v614q0 111 -41.5 152.5t-157.5 50.5v51h449v-51q-98 -15 -129 -49t-31 -125v-643q0 -153 -40.5 -267.5t-115.5 -174.5q-65 -53 -166 -83t-211 -30 q-238 0 -378 111q-88 69 -126 161t-38 240v664q0 65 -5 99t-26 55.5t-49.5 28.5t-87.5 13zM397 1745q0 53 39.5 92t93.5 39q53 0 92.5 -40t39.5 -95q0 -54 -38.5 -91.5t-95.5 -37.5q-54 0 -92.5 39t-38.5 94zM827 1745q0 54 38.5 92.5t92.5 38.5t94 -40t40 -95 q0 -54 -39.5 -91.5t-96.5 -37.5q-54 0 -91.5 38.5t-37.5 94.5z" />
<glyph unicode="&#xdd;" horiz-adv-x="1478" d="M31 1333v51h686v-51l-55 -4q-66 -5 -88.5 -15.5t-22.5 -43.5q0 -29 49 -121l246 -475l223 364q84 139 84 209q0 44 -34 61.5t-138 24.5v51h451v-51q-99 -14 -140 -80l-391 -637v-364q0 -63 6 -97.5t28 -57.5t56.5 -31.5t98.5 -14.5v-51h-711v51q65 5 101.5 16t57 37.5 t26 60.5t5.5 97v279l-368 671q-30 54 -74 86t-96 35zM510 1593l281 322q51 57 108 57q44 0 71 -25t27 -65q0 -35 -16 -56t-66 -52l-290 -181h-115z" />
<glyph unicode="&#xde;" horiz-adv-x="1251" d="M33 0v51l49 8q73 12 98 48.5t25 132.5v905q0 108 -32.5 143.5t-139.5 44.5v51h684v-51q-67 -9 -98.5 -17.5t-52.5 -30.5t-25 -51.5t-4 -90.5v-25h135q148 0 263 -29t179 -83q115 -100 115 -263q0 -201 -180 -307q-85 -51 -176.5 -66t-335.5 -16v-114q0 -61 4.5 -91 t25.5 -52t53 -30t97 -16v-51h-684zM537 426q201 0 270.5 63t69.5 246q0 167 -55 239.5t-183 72.5q-102 0 -102 -72v-549z" />
<glyph unicode="&#xdf;" horiz-adv-x="1138" d="M39 0v49q66 10 85 34t19 95v860q0 166 119 271.5t305 105.5q175 0 291.5 -89.5t116.5 -225.5q0 -65 -32.5 -122t-92.5 -97q-67 -46 -195 -76q124 -37 187.5 -68t113.5 -78q103 -95 103 -262q0 -177 -113 -299.5t-274 -122.5q-49 0 -131 31l28 70l21 -15q21 -14 43 -14 q74 0 100.5 74.5t26.5 281.5q0 257 -80 322q-39 34 -129 39v70q88 1 115.5 50t27.5 201q0 144 -34 208.5t-109 64.5q-60 0 -91.5 -40.5t-31.5 -117.5v-1200h-389z" />
<glyph unicode="&#xe0;" horiz-adv-x="1024" d="M51 188q0 139 137 230q58 38 145.5 71t266.5 84v140q0 100 -38 145t-128 45q-58 0 -95.5 -20t-37.5 -56q0 -21 23 -47q38 -46 38 -86q0 -53 -39 -88t-100 -35q-63 0 -98 37.5t-35 102.5q0 121 107.5 189.5t283.5 68.5q189 0 295.5 -72t106.5 -203v-534q0 -58 43 -58 q13 0 22 9l21 20l30 -43q-59 -63 -111 -90t-118 -27q-75 0 -113 32t-55 110q-84 -76 -160 -109t-166 -33q-103 0 -164 54t-61 163zM260 1368q0 38 28 65t68 27q60 0 111 -57l281 -322h-115l-291 181q-45 28 -63.5 52t-18.5 54zM350 254q0 -65 30 -101t77 -36q84 0 143 82 v303q-250 -69 -250 -248z" />
<glyph unicode="&#xe1;" horiz-adv-x="1024" d="M51 188q0 139 137 230q58 38 145.5 71t266.5 84v140q0 100 -38 145t-128 45q-58 0 -95.5 -20t-37.5 -56q0 -21 23 -47q38 -46 38 -86q0 -53 -39 -88t-100 -35q-63 0 -98 37.5t-35 102.5q0 121 107.5 189.5t283.5 68.5q189 0 295.5 -72t106.5 -203v-534q0 -58 43 -58 q13 0 22 9l21 20l30 -43q-59 -63 -111 -90t-118 -27q-75 0 -113 32t-55 110q-84 -76 -160 -109t-166 -33q-103 0 -164 54t-61 163zM297 1081l281 322q51 57 108 57q44 0 71 -25t27 -65q0 -35 -16 -56t-66 -52l-290 -181h-115zM350 254q0 -65 30 -101t77 -36q84 0 143 82v303 q-250 -69 -250 -248z" />
<glyph unicode="&#xe2;" horiz-adv-x="1024" d="M51 188q0 139 137 230q58 38 145.5 71t266.5 84v140q0 100 -38 145t-128 45q-58 0 -95.5 -20t-37.5 -56q0 -21 23 -47q38 -46 38 -86q0 -53 -39 -88t-100 -35q-63 0 -98 37.5t-35 102.5q0 121 107.5 189.5t283.5 68.5q189 0 295.5 -72t106.5 -203v-534q0 -58 43 -58 q13 0 22 9l21 20l30 -43q-59 -63 -111 -90t-118 -27q-75 0 -113 32t-55 110q-84 -76 -160 -109t-166 -33q-103 0 -164 54t-61 163zM178 1081l250 361h188l252 -361h-116l-230 201l-229 -201h-115zM350 254q0 -65 30 -101t77 -36q84 0 143 82v303q-250 -69 -250 -248z" />
<glyph unicode="&#xe3;" horiz-adv-x="1024" d="M51 188q0 139 137 230q58 38 145.5 71t266.5 84v140q0 100 -38 145t-128 45q-58 0 -95.5 -20t-37.5 -56q0 -21 23 -47q38 -46 38 -86q0 -53 -39 -88t-100 -35q-63 0 -98 37.5t-35 102.5q0 121 107.5 189.5t283.5 68.5q189 0 295.5 -72t106.5 -203v-534q0 -58 43 -58 q13 0 22 9l21 20l30 -43q-59 -63 -111 -90t-118 -27q-75 0 -113 32t-55 110q-84 -76 -160 -109t-166 -33q-103 0 -164 54t-61 163zM147 1124q28 132 85.5 194t152.5 62q65 0 150 -39l81 -36q55 -25 80 -25q41 0 66 22.5t45 77.5h88q-35 -133 -93.5 -196.5t-144.5 -63.5 q-62 0 -133 29l-59 27q-66 30 -88 37.5t-43 7.5q-39 0 -67 -27t-34 -70h-86zM350 254q0 -65 30 -101t77 -36q84 0 143 82v303q-250 -69 -250 -248z" />
<glyph unicode="&#xe4;" horiz-adv-x="1024" d="M51 188q0 139 137 230q58 38 145.5 71t266.5 84v140q0 100 -38 145t-128 45q-58 0 -95.5 -20t-37.5 -56q0 -21 23 -47q38 -46 38 -86q0 -53 -39 -88t-100 -35q-63 0 -98 37.5t-35 102.5q0 121 107.5 189.5t283.5 68.5q189 0 295.5 -72t106.5 -203v-534q0 -58 43 -58 q13 0 22 9l21 20l30 -43q-59 -63 -111 -90t-118 -27q-75 0 -113 32t-55 110q-84 -76 -160 -109t-166 -33q-103 0 -164 54t-61 163zM176 1233q0 53 39.5 92t93.5 39q53 0 92 -40t39 -95q0 -54 -38 -91.5t-95 -37.5q-54 0 -92.5 39t-38.5 94zM350 254q0 -65 30 -101t77 -36 q84 0 143 82v303q-250 -69 -250 -248zM606 1233q0 54 38.5 92.5t92.5 38.5t93.5 -40t39.5 -95q0 -54 -39 -91.5t-96 -37.5q-54 0 -91.5 38.5t-37.5 94.5z" />
<glyph unicode="&#xe5;" horiz-adv-x="1024" d="M51 188q0 139 137 230q58 38 145.5 71t266.5 84v140q0 100 -38 145t-128 45q-58 0 -95.5 -20t-37.5 -56q0 -21 23 -47q38 -46 38 -86q0 -53 -39 -88t-100 -35q-63 0 -98 37.5t-35 102.5q0 121 107.5 189.5t283.5 68.5q189 0 295.5 -72t106.5 -203v-534q0 -58 43 -58 q13 0 22 9l21 20l30 -43q-59 -63 -111 -90t-118 -27q-75 0 -113 32t-55 110q-84 -76 -160 -109t-166 -33q-103 0 -164 54t-61 163zM305 1321q0 89 65 154t156 65q88 0 151.5 -63t63.5 -152q0 -91 -63.5 -156t-153.5 -65q-92 0 -155.5 62.5t-63.5 154.5zM350 254 q0 -65 30 -101t77 -36q84 0 143 82v303q-250 -69 -250 -248zM403 1323q0 -49 35 -85t82 -36q52 0 87.5 33.5t35.5 83.5q0 52 -36.5 87.5t-88.5 35.5q-45 0 -80 -36t-35 -83z" />
<glyph unicode="&#xe6;" horiz-adv-x="1478" d="M68 193q0 64 29 113t91 102q54 45 142 83.5t276 92.5v153q0 89 -37 127.5t-123 38.5q-58 0 -95.5 -20.5t-37.5 -51.5q0 -17 25 -45q21 -24 28 -41.5t7 -46.5q0 -57 -38 -92t-99 -35q-63 0 -98.5 40t-35.5 102q0 109 107 182.5t270 73.5q100 0 168.5 -24.5t118.5 -80.5 q51 57 113 81t147 24q116 0 206 -54.5t134 -152.5q25 -53 34 -106.5t9 -147.5h-520v-47q0 -173 54 -254.5t181 -81.5q75 0 134.5 32.5t119.5 106.5l43 -31q-91 -138 -187.5 -194.5t-242.5 -56.5q-101 0 -175.5 40t-125.5 132h-12q-81 -99 -171 -141t-198 -42 q-118 0 -179.5 56.5t-61.5 165.5zM362 246q0 -146 117 -146q37 0 63.5 14t63.5 52v342q-135 -50 -189.5 -108t-54.5 -154zM889 584h272v67q0 143 -28.5 199.5t-100.5 56.5q-78 0 -110.5 -75.5t-32.5 -247.5z" />
<glyph unicode="&#xe7;" horiz-adv-x="909" d="M51 455q0 112 38 208.5t103 163t154.5 104.5t190.5 38q134 0 224.5 -64t90.5 -162q0 -60 -37.5 -95.5t-101.5 -35.5q-53 0 -84 39t-31 111q0 36 -0.5 52.5t-5 38.5t-13.5 30.5t-25.5 15t-41.5 6.5q-77 0 -124.5 -91.5t-47.5 -254.5q0 -210 76 -330t209 -120 q64 0 113.5 25t105.5 89l37 -37q-75 -102 -155.5 -153t-182.5 -60l-47 -104q31 10 65 10q86 0 134 -37.5t48 -105.5q0 -85 -71 -133.5t-193 -48.5q-97 0 -198 36l32 76l13 -4q71 -24 108 -24q119 0 119 83q0 35 -25 54.5t-69 19.5q-27 0 -58 -8l-22 16l74 170 q-179 12 -290.5 143.5t-111.5 338.5z" />
<glyph unicode="&#xe8;" horiz-adv-x="909" d="M51 459q0 229 118 369.5t310 140.5q170 0 262 -103q108 -120 121 -364h-516q4 -68 10.5 -116t23 -102t41.5 -87.5t68 -55.5t101 -22q65 0 118 31.5t117 107.5l49 -29q-91 -144 -182 -201t-223 -57q-185 0 -301.5 138t-116.5 350zM250 1368q0 38 28 65t68 27q60 0 111 -57 l280 -322h-114l-291 181q-45 28 -63.5 52t-18.5 54zM336 578h274v43q0 90 -3 125.5t-15 62.5q-24 51 -48 73.5t-65 22.5q-73 0 -108 -74t-35 -253z" />
<glyph unicode="&#xe9;" horiz-adv-x="909" d="M51 459q0 229 118 369.5t310 140.5q170 0 262 -103q108 -120 121 -364h-516q4 -68 10.5 -116t23 -102t41.5 -87.5t68 -55.5t101 -22q65 0 118 31.5t117 107.5l49 -29q-91 -144 -182 -201t-223 -57q-185 0 -301.5 138t-116.5 350zM254 1081l281 322q51 57 108 57 q44 0 71 -25t27 -65q0 -35 -16 -56t-66 -52l-290 -181h-115zM336 578h274v43q0 90 -3 125.5t-15 62.5q-24 51 -48 73.5t-65 22.5q-73 0 -108 -74t-35 -253z" />
<glyph unicode="&#xea;" horiz-adv-x="909" d="M51 459q0 229 118 369.5t310 140.5q170 0 262 -103q108 -120 121 -364h-516q4 -68 10.5 -116t23 -102t41.5 -87.5t68 -55.5t101 -22q65 0 118 31.5t117 107.5l49 -29q-91 -144 -182 -201t-223 -57q-185 0 -301.5 138t-116.5 350zM147 1081l250 361h189l252 -361h-117 l-229 201l-230 -201h-115zM336 578h274v43q0 90 -3 125.5t-15 62.5q-24 51 -48 73.5t-65 22.5q-73 0 -108 -74t-35 -253z" />
<glyph unicode="&#xeb;" horiz-adv-x="909" d="M51 459q0 229 118 369.5t310 140.5q170 0 262 -103q108 -120 121 -364h-516q4 -68 10.5 -116t23 -102t41.5 -87.5t68 -55.5t101 -22q65 0 118 31.5t117 107.5l49 -29q-91 -144 -182 -201t-223 -57q-185 0 -301.5 138t-116.5 350zM147 1233q0 53 40 92t94 39q53 0 92 -40 t39 -95q0 -54 -38 -91.5t-95 -37.5q-54 0 -93 39t-39 94zM336 578h274v43q0 90 -3 125.5t-15 62.5q-24 51 -48 73.5t-65 22.5q-73 0 -108 -74t-35 -253zM578 1233q0 54 38.5 92.5t92.5 38.5t93.5 -40t39.5 -95q0 -54 -39 -91.5t-96 -37.5q-54 0 -91.5 38.5t-37.5 94.5z" />
<glyph unicode="&#xec;" horiz-adv-x="569" d="M29 895v49h397v-770q0 -63 22 -90t76 -35v-49h-491v49q70 15 89 39t19 92v586q0 68 -21.5 91.5t-90.5 37.5zM39 1368q0 38 28 65t68 27q60 0 111 -57l280 -322h-114l-291 181q-45 28 -63.5 52t-18.5 54z" />
<glyph unicode="&#xed;" horiz-adv-x="569" d="M31 895v49h395v-770q0 -65 21.5 -91t76.5 -34v-49h-491v49q71 17 89.5 39t18.5 92v584q0 68 -21 92.5t-89 38.5zM41 1081l281 322q51 57 108 57q44 0 71 -25t27 -65q0 -35 -16 -56t-66 -52l-290 -181h-115z" />
<glyph unicode="&#xee;" horiz-adv-x="569" d="M-59 895v49h395v-770q0 -65 21.5 -91t76.5 -34v-49h-491v49q71 17 89.5 39t18.5 92v584q0 68 -21 92.5t-89 38.5zM-59 1081l249 361h189l252 -361h-117l-229 201l-230 -201h-114z" />
<glyph unicode="&#xef;" horiz-adv-x="569" d="M-59 895v49h395v-770q0 -65 21.5 -91t76.5 -34v-49h-491v49q71 17 89.5 39t18.5 92v584q0 68 -21 92.5t-89 38.5zM-59 1233q0 53 39.5 92t93.5 39q53 0 92 -40t39 -95q0 -54 -38 -91.5t-95 -37.5q-54 0 -92.5 39t-38.5 94zM371 1233q0 54 38.5 92.5t92.5 38.5t93.5 -40 t39.5 -95q0 -54 -39 -91.5t-96 -37.5q-54 0 -91.5 38.5t-37.5 94.5z" />
<glyph unicode="&#xf0;" horiz-adv-x="1024" d="M51 469q0 221 130.5 360.5t328.5 139.5q64 0 105 -19t81 -65l4 6q-54 163 -176 285l-225 -115l-98 63l239 121q-132 94 -272 119l94 51q180 -17 328 -94l184 94l100 -61l-188 -97q94 -77 141 -138t84 -154q64 -158 64 -355q0 -302 -118.5 -470.5t-342.5 -168.5 q-203 0 -333 136.5t-130 361.5zM352 453q0 -71 3 -124t12.5 -111.5t27 -96t48 -62t73.5 -24.5q61 0 94.5 41t48.5 134t15 261q0 244 -35.5 339t-126.5 95q-71 0 -109 -69q-28 -47 -39.5 -136t-11.5 -247z" />
<glyph unicode="&#xf1;" horiz-adv-x="1138" d="M43 0v49q68 13 88.5 38t20.5 91v592q0 66 -21 90.5t-88 34.5v49h391v-153h2q101 178 291 178q126 0 201.5 -79t75.5 -212v-506q0 -69 20 -94t80 -29v-49h-479v49q52 6 73 33.5t21 89.5v485q0 174 -105 174q-74 0 -143 -69q-35 -35 -35 -49v-541q0 -59 21.5 -87.5 t77.5 -35.5v-49h-492zM203 1124q28 132 85 194t152 62q65 0 150 -39l82 -36q55 -25 80 -25q41 0 65.5 22t44.5 78h88q-35 -133 -93 -196.5t-144 -63.5q-62 0 -133 29l-60 27q-66 30 -88 37.5t-43 7.5q-39 0 -66.5 -27t-33.5 -70h-86z" />
<glyph unicode="&#xf2;" horiz-adv-x="1024" d="M51 467q0 222 132.5 362t336.5 140q195 0 325 -141.5t130 -358.5q0 -216 -132 -357t-331 -141q-95 0 -180 37t-147 101.5t-98 157.5t-36 200zM270 1368q0 38 28.5 65t68.5 27q59 0 110 -57l281 -322h-115l-291 181q-45 28 -63.5 52t-18.5 54zM352 446q0 -224 36.5 -317.5 t125.5 -93.5t124.5 91t35.5 320q0 178 -15 276t-49 140.5t-96 42.5q-64 0 -98.5 -43t-49 -140t-14.5 -276z" />
<glyph unicode="&#xf3;" horiz-adv-x="1024" d="M51 467q0 222 132.5 362t336.5 140q195 0 325 -141.5t130 -358.5q0 -216 -132 -357t-331 -141q-95 0 -180 37t-147 101.5t-98 157.5t-36 200zM270 1081l281 322q51 57 108 57q44 0 71.5 -25t27.5 -65q0 -35 -16 -56t-66 -52l-291 -181h-115zM352 446q0 -224 36.5 -317.5 t125.5 -93.5t124.5 91t35.5 320q0 178 -15 276t-49 140.5t-96 42.5q-64 0 -98.5 -43t-49 -140t-14.5 -276z" />
<glyph unicode="&#xf4;" horiz-adv-x="1024" d="M51 467q0 222 132.5 362t336.5 140q195 0 325 -141.5t130 -358.5q0 -216 -132 -357t-331 -141q-95 0 -180 37t-147 101.5t-98 157.5t-36 200zM172 1081l250 361h188l252 -361h-117l-229 201l-229 -201h-115zM352 446q0 -224 36.5 -317.5t125.5 -93.5t124.5 91t35.5 320 q0 178 -15 276t-49 140.5t-96 42.5q-64 0 -98.5 -43t-49 -140t-14.5 -276z" />
<glyph unicode="&#xf5;" horiz-adv-x="1024" d="M51 467q0 222 132.5 362t336.5 140q195 0 325 -141.5t130 -358.5q0 -216 -132 -357t-331 -141q-95 0 -180 37t-147 101.5t-98 157.5t-36 200zM141 1124q28 132 85.5 194t152.5 62q64 0 149 -39l82 -36q55 -25 80 -25q41 0 66 22.5t45 77.5h88q-35 -133 -93.5 -196.5 t-144.5 -63.5q-62 0 -133 29l-59 27q-66 30 -88 37.5t-43 7.5q-39 0 -67 -27t-34 -70h-86zM352 446q0 -224 36.5 -317.5t125.5 -93.5t124.5 91t35.5 320q0 178 -15 276t-49 140.5t-96 42.5q-64 0 -98.5 -43t-49 -140t-14.5 -276z" />
<glyph unicode="&#xf6;" horiz-adv-x="1024" d="M51 467q0 222 132.5 362t336.5 140q195 0 325 -141.5t130 -358.5q0 -216 -132 -357t-331 -141q-95 0 -180 37t-147 101.5t-98 157.5t-36 200zM168 1233q0 53 39.5 92t93.5 39q53 0 92 -40t39 -95q0 -54 -38 -91.5t-95 -37.5q-54 0 -92.5 39t-38.5 94zM352 446 q0 -224 36.5 -317.5t125.5 -93.5t124.5 91t35.5 320q0 178 -15 276t-49 140.5t-96 42.5q-64 0 -98.5 -43t-49 -140t-14.5 -276zM598 1233q0 54 38.5 92.5t92.5 38.5t93.5 -40t39.5 -95q0 -54 -39 -91.5t-96 -37.5q-54 0 -91.5 38.5t-37.5 94.5z" />
<glyph unicode="&#xf7;" horiz-adv-x="1167" d="M68 428v180h1032v-180h-1032zM428 94q0 64 46.5 110t111.5 46q61 0 108 -47t47 -107q0 -63 -47.5 -111t-109.5 -48t-109 47t-47 110zM428 942q0 64 47 111t111 47q61 0 108 -47t47 -109q0 -63 -46.5 -110.5t-108.5 -47.5q-64 0 -111 46.5t-47 109.5z" />
<glyph unicode="&#xf8;" horiz-adv-x="1024" d="M51 469q0 215 132.5 357.5t332.5 142.5q109 0 211 -51l123 206h94l-149 -252q95 -86 137.5 -181.5t42.5 -221.5q0 -215 -131 -356.5t-330 -141.5q-113 0 -219 56l-129 -215h-96l155 262q-92 86 -133 179t-41 216zM352 428q0 -100 2 -141l293 495q-20 67 -50 95t-81 28 q-65 0 -99.5 -43t-49.5 -144t-15 -290zM375 164q20 -69 52.5 -99t86.5 -30q89 0 124.5 91t35.5 318q0 124 -4 220z" />
<glyph unicode="&#xf9;" horiz-adv-x="1138" d="M33 895v49h385v-684q0 -84 28.5 -120t85.5 -36q44 0 82.5 22t85.5 75v565q0 70 -25 96.5t-100 32.5v49h410v-729q0 -68 25 -96t92 -31v-47l-129 -14q-102 -11 -154 -21t-117 -33v133q-79 -75 -145 -105t-151 -30q-128 0 -200.5 77.5t-72.5 219.5v494q0 71 -18.5 96 t-81.5 37zM317 1368q0 38 28.5 65t68.5 27q59 0 110 -57l281 -322h-115l-291 181q-45 28 -63.5 52t-18.5 54z" />
<glyph unicode="&#xfa;" horiz-adv-x="1138" d="M33 895v49h385v-684q0 -84 28.5 -120t85.5 -36q44 0 82.5 22t85.5 75v565q0 70 -25 96.5t-100 32.5v49h410v-729q0 -68 25 -96t92 -31v-47l-129 -14q-102 -11 -154 -21t-117 -33v133q-79 -75 -145 -105t-151 -30q-128 0 -200.5 77.5t-72.5 219.5v494q0 71 -18.5 96 t-81.5 37zM319 1081l281 322q51 57 109 57q44 0 71 -25t27 -65q0 -35 -16 -56t-66 -52l-291 -181h-115z" />
<glyph unicode="&#xfb;" horiz-adv-x="1138" d="M33 895v49h385v-684q0 -84 28.5 -120t85.5 -36q44 0 82.5 22t85.5 75v565q0 70 -25 96.5t-100 32.5v49h410v-729q0 -68 25 -96t92 -31v-47l-129 -14q-102 -11 -154 -21t-117 -33v133q-79 -75 -145 -105t-151 -30q-128 0 -200.5 77.5t-72.5 219.5v494q0 71 -18.5 96 t-81.5 37zM217 1081l250 361h188l252 -361h-116l-230 201l-229 -201h-115z" />
<glyph unicode="&#xfc;" horiz-adv-x="1138" d="M33 895v49h385v-684q0 -84 28.5 -120t85.5 -36q44 0 82.5 22t85.5 75v565q0 70 -25 96.5t-100 32.5v49h410v-729q0 -68 25 -96t92 -31v-47l-129 -14q-102 -11 -154 -21t-117 -33v133q-79 -75 -145 -105t-151 -30q-128 0 -200.5 77.5t-72.5 219.5v494q0 71 -18.5 96 t-81.5 37zM213 1233q0 53 39.5 92t93.5 39q53 0 92 -40t39 -95q0 -54 -38 -91.5t-95 -37.5q-54 0 -92.5 39t-38.5 94zM643 1233q0 54 38.5 92.5t92.5 38.5t93.5 -40t39.5 -95q0 -54 -39 -91.5t-96 -37.5q-54 0 -91.5 38.5t-37.5 94.5z" />
<glyph unicode="&#xfd;" horiz-adv-x="1024" d="M33 -258q0 60 34.5 98.5t92.5 38.5q52 0 87.5 -31t35.5 -75q0 -9 -4 -29l-3 -12q0 -14 11 -24.5t24 -10.5q36 0 72 45.5t63 122.5l37 108l-243 594q-31 78 -78 179t-60 120q-16 22 -69 29v49h510v-49l-33 -2q-74 -6 -74 -51q0 -17 41 -119l148 -381l139 385q22 65 22 100 q0 37 -22.5 51t-87.5 17v49h311v-49q-49 -6 -74 -27.5t-49 -85.5l-303 -815q-92 -247 -158 -319q-65 -68 -172 -68q-88 0 -143 45t-55 117zM264 1081l281 322q51 57 108 57q44 0 71.5 -25t27.5 -65q0 -35 -16 -56t-66 -52l-291 -181h-115z" />
<glyph unicode="&#xfe;" horiz-adv-x="1138" d="M39 -371q73 12 94 34t21 85v1469q0 61 -21 82.5t-92 35.5v49h397v-583q44 91 103 129.5t151 38.5q170 0 275.5 -132.5t105.5 -347.5q0 -227 -110 -371.5t-283 -144.5q-69 0 -118.5 25.5t-123.5 97.5v-289q0 -103 33 -141.5t127 -42.5v-43h-559v49zM438 211 q58 -125 162 -125q86 0 128 94t42 289t-38.5 289t-117.5 94q-75 0 -139 -76q-37 -43 -37 -67v-498z" />
<glyph unicode="&#xff;" horiz-adv-x="1024" d="M33 -258q0 60 34.5 98.5t92.5 38.5q52 0 87.5 -31t35.5 -75q0 -9 -4 -29l-3 -12q0 -14 11 -24.5t24 -10.5q36 0 72 45.5t63 122.5l37 108l-243 594q-31 78 -78 179t-60 120q-16 22 -69 29v49h510v-49l-33 -2q-74 -6 -74 -51q0 -17 41 -119l148 -381l139 385q22 65 22 100 q0 37 -22.5 51t-87.5 17v49h311v-49q-49 -6 -74 -27.5t-49 -85.5l-303 -815q-92 -247 -158 -319q-65 -68 -172 -68q-88 0 -143 45t-55 117zM158 1233q0 53 39.5 92t93.5 39q53 0 92 -40t39 -95q0 -54 -38 -91.5t-95 -37.5q-54 0 -92.5 39t-38.5 94zM588 1233q0 54 38.5 92.5 t92.5 38.5t93.5 -40t39.5 -95q0 -54 -39 -91.5t-96 -37.5q-54 0 -91.5 38.5t-37.5 94.5z" />
<glyph unicode="&#x100;" horiz-adv-x="1478" d="M18 0v51q71 12 108 56.5t95 189.5l453 1116h57l455 -1069q77 -185 119 -239t106 -54v-51h-659v51l65 6q52 5 73 20t21 48q0 60 -94 278h-461l-26 -69q-3 -7 -16 -38.5t-18 -46t-14 -39.5t-12.5 -43t-3.5 -32q0 -40 37.5 -59t128.5 -25v-51h-414zM379 1511v148h676v-148 h-676zM387 483h399l-206 498z" />
<glyph unicode="&#x101;" horiz-adv-x="1024" d="M51 188q0 139 137 230q58 38 145.5 71t266.5 84v140q0 100 -38 145t-128 45q-58 0 -95.5 -20t-37.5 -56q0 -21 23 -47q38 -46 38 -86q0 -53 -39 -88t-100 -35q-63 0 -98 37.5t-35 102.5q0 121 107.5 189.5t283.5 68.5q189 0 295.5 -72t106.5 -203v-534q0 -58 43 -58 q13 0 22 9l21 20l30 -43q-59 -63 -111 -90t-118 -27q-75 0 -113 32t-55 110q-84 -76 -160 -109t-166 -33q-103 0 -164 54t-61 163zM174 1081v148h676v-148h-676zM350 254q0 -65 30 -101t77 -36q84 0 143 82v303q-250 -69 -250 -248z" />
<glyph unicode="&#x102;" horiz-adv-x="1478" d="M18 0v51q71 12 108 56.5t95 189.5l453 1116h57l455 -1069q77 -185 119 -239t106 -54v-51h-659v51l65 6q52 5 73 20t21 48q0 60 -94 278h-461l-26 -69q-3 -7 -16 -38.5t-18 -46t-14 -39.5t-12.5 -43t-3.5 -32q0 -40 37.5 -59t128.5 -25v-51h-414zM387 483h399l-206 498z M401 1845h91q36 -178 208 -178q97 0 151.5 40.5t80.5 137.5h90q-11 -153 -88 -243.5t-223 -90.5q-149 0 -228.5 90.5t-81.5 243.5z" />
<glyph unicode="&#x103;" horiz-adv-x="1024" d="M51 188q0 139 137 230q58 38 145.5 71t266.5 84v140q0 100 -38 145t-128 45q-58 0 -95.5 -20t-37.5 -56q0 -21 23 -47q38 -46 38 -86q0 -53 -39 -88t-100 -35q-63 0 -98 37.5t-35 102.5q0 121 107.5 189.5t283.5 68.5q189 0 295.5 -72t106.5 -203v-534q0 -58 43 -58 q13 0 22 9l21 20l30 -43q-59 -63 -111 -90t-118 -27q-75 0 -113 32t-55 110q-84 -76 -160 -109t-166 -33q-103 0 -164 54t-61 163zM188 1415h91q36 -178 208 -178q97 0 151.5 40.5t80.5 137.5h90q-11 -153 -88 -243.5t-223 -90.5q-149 0 -228.5 90.5t-81.5 243.5zM350 254 q0 -65 30 -101t77 -36q84 0 143 82v303q-250 -69 -250 -248z" />
<glyph unicode="&#x104;" horiz-adv-x="1478" d="M18 0v51q71 12 108 56.5t95 189.5l453 1116h57l455 -1069q77 -185 119 -239t106 -54v-51h-203q-2 -4 -6 -16q-22 -81 -22 -131q0 -71 29 -101.5t96 -30.5q43 0 98 27q12 6 27 16l47 -32q-37 -69 -110.5 -110.5t-147.5 -41.5q-95 0 -153 44t-58 116q0 58 23 105.5 t87 121.5q9 11 17.5 20t11.5 13h-395v51l65 6q52 5 73 20t21 48q0 60 -94 278h-461l-26 -69q-3 -7 -16 -38.5t-18 -46t-14 -39.5t-12.5 -43t-3.5 -32q0 -40 37.5 -59t128.5 -25v-51h-414zM387 483h399l-206 498z" />
<glyph unicode="&#x105;" horiz-adv-x="1024" d="M51 188q0 139 137 230q58 38 145.5 71t266.5 84v140q0 100 -38 145t-128 45q-58 0 -95.5 -20t-37.5 -56q0 -21 23 -47q38 -46 38 -86q0 -53 -39 -88t-100 -35q-63 0 -98 37.5t-35 102.5q0 121 107.5 189.5t283.5 68.5q189 0 295.5 -72t106.5 -203v-534q0 -58 43 -58 q13 0 22 9l21 20l30 -43q-51 -57 -102 -86q-3 -6 -6 -18q-23 -84 -23 -131q0 -71 29 -101.5t96 -30.5q44 0 99 27q8 4 26 16l47 -32q-37 -69 -110.5 -110.5t-147.5 -41.5q-95 0 -153 44t-58 116q0 58 23.5 105t87.5 122l6 6q-14 -2 -43 -2q-75 0 -113 32t-55 110 q-84 -76 -160 -109t-166 -33q-103 0 -164 54t-61 163zM350 254q0 -65 30 -101t77 -36q84 0 143 82v303q-250 -69 -250 -248z" />
<glyph unicode="&#x106;" horiz-adv-x="1478" d="M100 662q0 215 90 386.5t252.5 269t368.5 97.5q144 0 319 -72q66 -28 95 -28t48 19.5t42 74.5h55v-481h-51q-45 128 -137 235q-154 185 -342 185q-166 0 -271.5 -170.5t-105.5 -470.5q0 -164 24 -279.5t86 -212.5q44 -70 127 -113t174 -43q131 0 259 70q84 47 213 182 l61 -51q-137 -171 -271 -235t-319 -64q-215 0 -379.5 92t-251 251t-86.5 358zM647 1511l281 322q51 57 108 57q44 0 71.5 -25t27.5 -65q0 -35 -16 -56t-66 -52l-291 -181h-115z" />
<glyph unicode="&#x107;" horiz-adv-x="909" d="M51 455q0 112 38 208.5t103 163t154.5 104.5t190.5 38q134 0 224.5 -64t90.5 -162q0 -60 -37.5 -95.5t-101.5 -35.5q-53 0 -84 39t-31 111q0 36 -0.5 52.5t-5 38.5t-13.5 30.5t-25.5 15t-41.5 6.5q-77 0 -124.5 -91.5t-47.5 -254.5q0 -210 76 -330t209 -120 q64 0 113.5 25t105.5 89l37 -37q-84 -115 -176 -165t-216 -50q-194 0 -316 133t-122 351zM332 1081l280 322q51 57 109 57q44 0 71 -25t27 -65q0 -35 -16 -56t-66 -52l-291 -181h-114z" />
<glyph unicode="&#x108;" horiz-adv-x="1478" d="M100 662q0 215 90 386.5t252.5 269t368.5 97.5q144 0 319 -72q66 -28 95 -28t48 19.5t42 74.5h55v-481h-51q-45 128 -137 235q-154 185 -342 185q-166 0 -271.5 -170.5t-105.5 -470.5q0 -164 24 -279.5t86 -212.5q44 -70 127 -113t174 -43q131 0 259 70q84 47 213 182 l61 -51q-137 -171 -271 -235t-319 -64q-215 0 -379.5 92t-251 251t-86.5 358zM414 1511l250 361h188l252 -361h-117l-229 201l-230 -201h-114z" />
<glyph unicode="&#x109;" horiz-adv-x="909" d="M51 455q0 112 38 208.5t103 163t154.5 104.5t190.5 38q134 0 224.5 -64t90.5 -162q0 -60 -37.5 -95.5t-101.5 -35.5q-53 0 -84 39t-31 111q0 36 -0.5 52.5t-5 38.5t-13.5 30.5t-25.5 15t-41.5 6.5q-77 0 -124.5 -91.5t-47.5 -254.5q0 -210 76 -330t209 -120 q64 0 113.5 25t105.5 89l37 -37q-84 -115 -176 -165t-216 -50q-194 0 -316 133t-122 351zM127 1081l250 361h188l252 -361h-117l-229 201l-229 -201h-115z" />
<glyph unicode="&#x10a;" horiz-adv-x="1478" d="M100 662q0 215 90 386.5t252.5 269t368.5 97.5q144 0 319 -72q66 -28 95 -28t48 19.5t42 74.5h55v-481h-51q-45 128 -137 235q-154 185 -342 185q-166 0 -271.5 -170.5t-105.5 -470.5q0 -164 24 -279.5t86 -212.5q44 -70 127 -113t174 -43q131 0 259 70q84 47 213 182 l61 -51q-137 -171 -271 -235t-319 -64q-215 0 -379.5 92t-251 251t-86.5 358zM627 1663q0 54 38.5 92.5t92.5 38.5t93.5 -40t39.5 -95q0 -54 -39 -91.5t-96 -37.5q-54 0 -91.5 38.5t-37.5 94.5z" />
<glyph unicode="&#x10b;" horiz-adv-x="909" d="M51 455q0 112 38 208.5t103 163t154.5 104.5t190.5 38q134 0 224.5 -64t90.5 -162q0 -60 -37.5 -95.5t-101.5 -35.5q-53 0 -84 39t-31 111q0 36 -0.5 52.5t-5 38.5t-13.5 30.5t-25.5 15t-41.5 6.5q-77 0 -124.5 -91.5t-47.5 -254.5q0 -210 76 -330t209 -120 q64 0 113.5 25t105.5 89l37 -37q-84 -115 -176 -165t-216 -50q-194 0 -316 133t-122 351zM360 1233q0 54 39 92.5t93 38.5t93.5 -40t39.5 -95q0 -54 -39.5 -91.5t-96.5 -37.5q-54 0 -91.5 38.5t-37.5 94.5z" />
<glyph unicode="&#x10c;" horiz-adv-x="1478" d="M100 662q0 215 90 386.5t252.5 269t368.5 97.5q144 0 319 -72q66 -28 95 -28t48 19.5t42 74.5h55v-481h-51q-45 128 -137 235q-154 185 -342 185q-166 0 -271.5 -170.5t-105.5 -470.5q0 -164 24 -279.5t86 -212.5q44 -70 127 -113t174 -43q131 0 259 70q84 47 213 182 l61 -51q-137 -171 -271 -235t-319 -64q-215 0 -379.5 92t-251 251t-86.5 358zM465 1872h117l227 -203l227 203h119l-252 -361h-188z" />
<glyph unicode="&#x10d;" horiz-adv-x="909" d="M51 455q0 112 38 208.5t103 163t154.5 104.5t190.5 38q134 0 224.5 -64t90.5 -162q0 -60 -37.5 -95.5t-101.5 -35.5q-53 0 -84 39t-31 111q0 36 -0.5 52.5t-5 38.5t-13.5 30.5t-25.5 15t-41.5 6.5q-77 0 -124.5 -91.5t-47.5 -254.5q0 -210 76 -330t209 -120 q64 0 113.5 25t105.5 89l37 -37q-84 -115 -176 -165t-216 -50q-194 0 -316 133t-122 351zM162 1442h117l227 -203l227 203h119l-252 -361h-188z" />
<glyph unicode="&#x10e;" horiz-adv-x="1478" d="M29 0v51q89 3 129.5 39.5t40.5 110.5v995q0 70 -36 99t-134 38v51h639q350 0 547.5 -180t197.5 -497q0 -158 -62.5 -301t-172.5 -240q-93 -81 -226 -123.5t-290 -42.5h-633zM301 1872h117l227 -203l227 203h119l-252 -361h-188zM530 205q0 -71 26 -102t93 -31 q200 0 305 147q47 68 75 194.5t28 262.5q0 284 -84 432q-60 104 -140.5 155.5t-193.5 51.5q-58 0 -83.5 -22.5t-25.5 -67.5v-1020z" />
<glyph unicode="&#x10f;" horiz-adv-x="1392" d="M51 453q0 222 112 369t281 147q70 0 124 -28t120 -99v375q0 70 -26.5 90t-129.5 28v49h441v-1177q0 -65 25.5 -90t95.5 -29v-47l-127 -16q-164 -21 -273 -52v133q-72 -76 -131 -105.5t-141 -29.5q-161 0 -266 136t-105 346zM354 469q0 -195 39 -289t121 -94q74 0 135 76 q39 53 39 67v498q-23 59 -66 93t-94 34q-89 0 -131.5 -93.5t-42.5 -291.5zM1077 1278q0 79 47.5 126.5t124.5 47.5q96 0 150.5 -64t54.5 -174q0 -134 -82 -245t-258 -203l-22 45q223 153 223 272q0 19 -11 31t-28 12q-6 0 -22 -2t-27 -2q-66 0 -108 43t-42 113z" />
<glyph unicode="&#x110;" horiz-adv-x="1478" d="M12 668v96h187v432q0 70 -36 99t-134 38v51h624q356 0 558 -180t202 -497q0 -148 -47.5 -275.5t-136.5 -218.5q-96 -101 -242 -157t-311 -56h-647v51q89 3 129.5 35t40.5 100v482h-187zM530 190q0 -69 25 -93.5t94 -24.5q200 0 305 147q47 69 75 192t28 265 q0 270 -86 434q-111 205 -318 205q-73 0 -98 -19.5t-25 -76.5v-455h234v-96h-234v-478z" />
<glyph unicode="&#x111;" horiz-adv-x="1138" d="M51 453q0 222 112 369t281 147q70 0 124 -28t120 -99v217h-364v102h364v56q0 70 -26.5 90t-129.5 28v49h441v-223h108v-102h-108v-852q0 -65 25.5 -90t95.5 -29v-47l-127 -16q-164 -21 -273 -52v133q-72 -76 -131 -105.5t-141 -29.5q-161 0 -266 136t-105 346zM354 469 q0 -195 39 -288t121 -93q76 0 135 74q39 53 39 67v498q-23 59 -66 93t-94 34q-89 0 -131.5 -93.5t-42.5 -291.5z" />
<glyph unicode="&#x112;" horiz-adv-x="1366" d="M33 0v51q111 12 145.5 43t34.5 113v981q0 78 -37.5 108.5t-142.5 36.5v51h1181v-411h-51q-24 140 -74.5 212t-144.5 101t-266 29q-77 0 -105 -25t-28 -86v-461q167 2 240.5 66.5t91.5 239.5h53v-693h-53q-15 181 -88.5 249.5t-243.5 68.5v-496q0 -66 35.5 -90.5 t134.5 -24.5q122 0 211.5 26t160.5 85q51 41 85.5 94.5t82.5 157.5h58l-82 -426h-1198zM328 1511v148h676v-148h-676z" />
<glyph unicode="&#x113;" horiz-adv-x="909" d="M51 459q0 229 118 369.5t310 140.5q170 0 262 -103q108 -120 121 -364h-516q4 -68 10.5 -116t23 -102t41.5 -87.5t68 -55.5t101 -22q65 0 118 31.5t117 107.5l49 -29q-91 -144 -182 -201t-223 -57q-185 0 -301.5 138t-116.5 350zM133 1081v148h676v-148h-676zM336 578 h274v43q0 90 -3 125.5t-15 62.5q-24 51 -48 73.5t-65 22.5q-73 0 -108 -74t-35 -253z" />
<glyph unicode="&#x114;" horiz-adv-x="1366" d="M33 0v51q111 12 145.5 43t34.5 113v981q0 78 -37.5 108.5t-142.5 36.5v51h1181v-411h-51q-24 140 -74.5 212t-144.5 101t-266 29q-77 0 -105 -25t-28 -86v-461q167 2 240.5 66.5t91.5 239.5h53v-693h-53q-15 181 -88.5 249.5t-243.5 68.5v-496q0 -66 35.5 -90.5 t134.5 -24.5q122 0 211.5 26t160.5 85q51 41 85.5 94.5t82.5 157.5h58l-82 -426h-1198zM356 1845h90q36 -178 209 -178q97 0 151.5 40.5t80.5 137.5h90q-11 -153 -88 -243.5t-223 -90.5q-149 0 -228.5 90.5t-81.5 243.5z" />
<glyph unicode="&#x115;" horiz-adv-x="909" d="M51 459q0 229 118 369.5t310 140.5q170 0 262 -103q108 -120 121 -364h-516q4 -68 10.5 -116t23 -102t41.5 -87.5t68 -55.5t101 -22q65 0 118 31.5t117 107.5l49 -29q-91 -144 -182 -201t-223 -57q-185 0 -301.5 138t-116.5 350zM162 1415h90q36 -178 209 -178 q97 0 151 40.5t80 137.5h90q-11 -153 -88 -243.5t-223 -90.5q-149 0 -228 90.5t-81 243.5zM336 578h274v43q0 90 -3 125.5t-15 62.5q-24 51 -48 73.5t-65 22.5q-73 0 -108 -74t-35 -253z" />
<glyph unicode="&#x116;" horiz-adv-x="1366" d="M33 0v51q111 12 145.5 43t34.5 113v981q0 78 -37.5 108.5t-142.5 36.5v51h1181v-411h-51q-24 140 -74.5 212t-144.5 101t-266 29q-77 0 -105 -25t-28 -86v-461q167 2 240.5 66.5t91.5 239.5h53v-693h-53q-15 181 -88.5 249.5t-243.5 68.5v-496q0 -66 35.5 -90.5 t134.5 -24.5q122 0 211.5 26t160.5 85q51 41 85.5 94.5t82.5 157.5h58l-82 -426h-1198zM545 1663q0 54 38.5 92.5t92.5 38.5t93.5 -40t39.5 -95q0 -54 -39 -91.5t-96 -37.5q-54 0 -91.5 38.5t-37.5 94.5z" />
<glyph unicode="&#x117;" horiz-adv-x="909" d="M51 459q0 229 118 369.5t310 140.5q170 0 262 -103q108 -120 121 -364h-516q4 -68 10.5 -116t23 -102t41.5 -87.5t68 -55.5t101 -22q65 0 118 31.5t117 107.5l49 -29q-91 -144 -182 -201t-223 -57q-185 0 -301.5 138t-116.5 350zM336 578h274v43q0 90 -3 125.5t-15 62.5 q-24 51 -48 73.5t-65 22.5q-73 0 -108 -74t-35 -253zM340 1233q0 54 38.5 92.5t92.5 38.5t93.5 -40t39.5 -95q0 -54 -39 -91.5t-96 -37.5q-54 0 -91.5 38.5t-37.5 94.5z" />
<glyph unicode="&#x118;" horiz-adv-x="1366" d="M33 0v51q111 12 145.5 43t34.5 113v981q0 78 -37.5 108.5t-142.5 36.5v51h1181v-411h-51q-24 140 -74.5 212t-144.5 101t-266 29q-77 0 -105 -25t-28 -86v-461q167 2 240.5 66.5t91.5 239.5h53v-693h-53q-15 181 -88.5 249.5t-243.5 68.5v-496q0 -66 35.5 -90.5 t134.5 -24.5q122 0 211.5 26t160.5 85q51 41 85.5 94.5t82.5 157.5h58l-82 -426h-336q-2 -4 -6 -16q-23 -84 -23 -131q0 -71 29 -101.5t96 -30.5q44 0 99 27q8 4 26 16l47 -32q-37 -69 -110.5 -110.5t-147.5 -41.5q-95 0 -153 44t-58 116q0 58 23.5 105t87.5 122 q9 11 17.5 20t11.5 13h-801z" />
<glyph unicode="&#x119;" horiz-adv-x="909" d="M51 459q0 229 118 369.5t310 140.5q170 0 262 -103q108 -120 121 -364h-516q4 -68 10.5 -116t23 -102t41.5 -87.5t68 -55.5t101 -22q65 0 118 31.5t117 107.5l49 -29q-63 -99 -123 -154.5t-130 -80.5l-5 -10q-22 -81 -22 -131q0 -71 29 -101.5t96 -30.5q43 0 98 27 q12 6 27 16l47 -32q-37 -69 -110.5 -110.5t-147.5 -41.5q-95 0 -153 44t-58 116q0 58 23 105.5t87 121.5q1 1 3.5 4t3.5 4q-46 -4 -70 -4q-185 0 -301.5 138t-116.5 350zM336 578h274v43q0 90 -3 125.5t-15 62.5q-24 51 -48 73.5t-65 22.5q-73 0 -108 -74t-35 -253z" />
<glyph unicode="&#x11a;" horiz-adv-x="1366" d="M33 0v51q111 12 145.5 43t34.5 113v981q0 78 -37.5 108.5t-142.5 36.5v51h1181v-411h-51q-24 140 -74.5 212t-144.5 101t-266 29q-77 0 -105 -25t-28 -86v-461q167 2 240.5 66.5t91.5 239.5h53v-693h-53q-15 181 -88.5 249.5t-243.5 68.5v-496q0 -66 35.5 -90.5 t134.5 -24.5q122 0 211.5 26t160.5 85q51 41 85.5 94.5t82.5 157.5h58l-82 -426h-1198zM352 1872h117l227 -203l228 203h118l-251 -361h-189z" />
<glyph unicode="&#x11b;" horiz-adv-x="909" d="M51 459q0 229 118 369.5t310 140.5q170 0 262 -103q108 -120 121 -364h-516q4 -68 10.5 -116t23 -102t41.5 -87.5t68 -55.5t101 -22q65 0 118 31.5t117 107.5l49 -29q-91 -144 -182 -201t-223 -57q-185 0 -301.5 138t-116.5 350zM133 1442h117l227 -203l228 203h118 l-252 -361h-188zM336 578h274v43q0 90 -3 125.5t-15 62.5q-24 51 -48 73.5t-65 22.5q-73 0 -108 -74t-35 -253z" />
<glyph unicode="&#x11c;" horiz-adv-x="1593" d="M76 678q0 202 91.5 370.5t255.5 267.5t365 99q143 0 318 -72q66 -28 94 -28q29 0 48 19.5t42 74.5h56v-481h-52q-60 130 -97 190t-99 115q-130 115 -283 115q-180 0 -278.5 -170t-98.5 -486q0 -320 99 -485q56 -92 129 -135t188 -43q197 0 197 174v182q0 56 -15.5 85.5 t-60.5 45.5t-133 21v51h704v-51q-57 -6 -92.5 -20t-53.5 -41t-24 -59t-6 -85v-242q-100 -59 -254 -94t-313 -35q-206 0 -370.5 87t-260.5 251.5t-96 378.5zM475 1511l250 361h188l252 -361h-116l-230 201l-229 -201h-115z" />
<glyph unicode="&#x11d;" horiz-adv-x="1024" d="M57 -233q0 126 197 153q-96 34 -132 71.5t-36 96.5q0 89 59.5 146.5t184.5 93.5q-113 32 -183.5 114.5t-70.5 196.5q0 151 115.5 240.5t300.5 89.5q106 0 229 -45h264v-109h-164q82 -73 82 -201q0 -193 -188 -270q-50 -22 -84.5 -25.5t-175.5 -3.5q-61 0 -101.5 -27.5 t-40.5 -72.5q0 -42 43.5 -59t163.5 -17h107q166 0 264 -65.5t98 -179.5q0 -146 -140 -231t-394 -85q-194 0 -296 48.5t-102 140.5zM168 1081l250 361h188l252 -361h-117l-229 201l-229 -201h-115zM238 -219q0 -137 274 -137q149 0 232 37.5t83 97.5q0 115 -182 115h-336 q-43 -35 -57 -58t-14 -55zM356 637q0 -143 31.5 -203.5t104.5 -60.5t104 60.5t31 205.5q0 142 -32 204t-106 62q-73 0 -103 -59.5t-30 -208.5z" />
<glyph unicode="&#x11e;" horiz-adv-x="1593" d="M76 678q0 202 91.5 370.5t255.5 267.5t365 99q143 0 318 -72q66 -28 94 -28q29 0 48 19.5t42 74.5h56v-481h-52q-60 130 -97 190t-99 115q-130 115 -283 115q-180 0 -278.5 -170t-98.5 -486q0 -320 99 -485q56 -92 129 -135t188 -43q197 0 197 174v182q0 56 -15.5 85.5 t-60.5 45.5t-133 21v51h704v-51q-57 -6 -92.5 -20t-53.5 -41t-24 -59t-6 -85v-242q-100 -59 -254 -94t-313 -35q-206 0 -370.5 87t-260.5 251.5t-96 378.5zM496 1845h90q36 -178 209 -178q97 0 151 40.5t80 137.5h90q-11 -153 -88 -243.5t-223 -90.5q-149 0 -228 90.5 t-81 243.5z" />
<glyph unicode="&#x11f;" horiz-adv-x="1024" d="M57 -233q0 126 197 153q-96 34 -132 71.5t-36 96.5q0 89 59.5 146.5t184.5 93.5q-113 32 -183.5 114.5t-70.5 196.5q0 151 115.5 240.5t300.5 89.5q106 0 229 -45h264v-109h-164q82 -73 82 -201q0 -193 -188 -270q-50 -22 -84.5 -25.5t-175.5 -3.5q-61 0 -101.5 -27.5 t-40.5 -72.5q0 -42 43.5 -59t163.5 -17h107q166 0 264 -65.5t98 -179.5q0 -146 -140 -231t-394 -85q-194 0 -296 48.5t-102 140.5zM195 1415h90q36 -178 209 -178q97 0 151 40.5t80 137.5h90q-11 -153 -88 -243.5t-223 -90.5q-149 0 -228 90.5t-81 243.5zM238 -219 q0 -137 274 -137q149 0 232 37.5t83 97.5q0 115 -182 115h-336q-43 -35 -57 -58t-14 -55zM356 637q0 -143 31.5 -203.5t104.5 -60.5t104 60.5t31 205.5q0 142 -32 204t-106 62q-73 0 -103 -59.5t-30 -208.5z" />
<glyph unicode="&#x120;" horiz-adv-x="1593" d="M76 678q0 202 91.5 370.5t255.5 267.5t365 99q143 0 318 -72q66 -28 94 -28q29 0 48 19.5t42 74.5h56v-481h-52q-60 130 -97 190t-99 115q-130 115 -283 115q-180 0 -278.5 -170t-98.5 -486q0 -320 99 -485q56 -92 129 -135t188 -43q197 0 197 174v182q0 56 -15.5 85.5 t-60.5 45.5t-133 21v51h704v-51q-57 -6 -92.5 -20t-53.5 -41t-24 -59t-6 -85v-242q-100 -59 -254 -94t-313 -35q-206 0 -370.5 87t-260.5 251.5t-96 378.5zM688 1663q0 54 38.5 92.5t92.5 38.5t93.5 -40t39.5 -95q0 -54 -39 -91.5t-96 -37.5q-54 0 -91.5 38.5t-37.5 94.5z " />
<glyph unicode="&#x121;" horiz-adv-x="1024" d="M57 -233q0 126 197 153q-96 34 -132 71.5t-36 96.5q0 89 59.5 146.5t184.5 93.5q-113 32 -183.5 114.5t-70.5 196.5q0 151 115.5 240.5t300.5 89.5q106 0 229 -45h264v-109h-164q82 -73 82 -201q0 -193 -188 -270q-50 -22 -84.5 -25.5t-175.5 -3.5q-61 0 -101.5 -27.5 t-40.5 -72.5q0 -42 43.5 -59t163.5 -17h107q166 0 264 -65.5t98 -179.5q0 -146 -140 -231t-394 -85q-194 0 -296 48.5t-102 140.5zM238 -219q0 -137 274 -137q149 0 232 37.5t83 97.5q0 115 -182 115h-336q-43 -35 -57 -58t-14 -55zM356 637q0 -143 31.5 -203.5t104.5 -60.5 t104 60.5t31 205.5q0 142 -32 204t-106 62q-73 0 -103 -59.5t-30 -208.5zM381 1233q0 54 38.5 92.5t92.5 38.5t93.5 -40t39.5 -95q0 -54 -39 -91.5t-96 -37.5q-54 0 -91.5 38.5t-37.5 94.5z" />
<glyph unicode="&#x122;" horiz-adv-x="1593" d="M76 678q0 202 91.5 370.5t255.5 267.5t365 99q143 0 318 -72q66 -28 94 -28q29 0 48 19.5t42 74.5h56v-481h-52q-60 130 -97 190t-99 115q-130 115 -283 115q-180 0 -278.5 -170t-98.5 -486q0 -320 99 -485q56 -92 129 -135t188 -43q197 0 197 174v182q0 56 -15.5 85.5 t-60.5 45.5t-133 21v51h704v-51q-57 -6 -92.5 -20t-53.5 -41t-24 -59t-6 -85v-242q-100 -59 -254 -94t-313 -35q-206 0 -370.5 87t-260.5 251.5t-96 378.5zM612 -262q0 79 47.5 126.5t124.5 47.5q96 0 150.5 -64t54.5 -174q0 -134 -82 -245t-258 -203l-22 45 q223 153 223 272q0 19 -11 31t-28 12q-6 0 -22 -2t-27 -2q-66 0 -108 43t-42 113z" />
<glyph unicode="&#x123;" horiz-adv-x="1024" d="M57 -233q0 126 197 153q-96 34 -132 71.5t-36 96.5q0 89 59.5 146.5t184.5 93.5q-113 32 -183.5 114.5t-70.5 196.5q0 151 115.5 240.5t300.5 89.5q106 0 229 -45h264v-109h-164q82 -73 82 -201q0 -193 -188 -270q-50 -22 -84.5 -25.5t-175.5 -3.5q-61 0 -101.5 -27.5 t-40.5 -72.5q0 -42 43.5 -59t163.5 -17h107q166 0 264 -65.5t98 -179.5q0 -146 -140 -231t-394 -85q-194 0 -296 48.5t-102 140.5zM238 -219q0 -137 274 -137q149 0 232 37.5t83 97.5q0 115 -182 115h-336q-43 -35 -57 -58t-14 -55zM299 1319q0 134 82 245t258 203l23 -45 q-224 -154 -224 -272q0 -19 11 -31t28 -12q6 0 22 2t27 2q66 0 108 -43t42 -113q0 -79 -47.5 -126.5t-124.5 -47.5q-96 0 -150.5 64t-54.5 174zM356 637q0 -143 31.5 -203.5t104.5 -60.5t104 60.5t31 205.5q0 142 -32 204t-106 62q-73 0 -103 -59.5t-30 -208.5z" />
<glyph unicode="&#x124;" horiz-adv-x="1593" d="M43 0v51q108 14 141 41.5t33 108.5v981q0 83 -35 112.5t-139 38.5v51h688v-51q-109 -8 -145.5 -37t-36.5 -114v-418h493v418q0 85 -36.5 114t-145.5 37v51h694v-51q-105 -8 -142.5 -38.5t-37.5 -112.5v-981q0 -81 34 -108.5t146 -41.5v-51h-694v51q111 12 146.5 41.5 t35.5 108.5v467h-493v-467q0 -81 34.5 -109.5t147.5 -40.5v-51h-688zM451 1511l249 361h189l252 -361h-117l-229 201l-230 -201h-114z" />
<glyph unicode="&#x125;" horiz-adv-x="1138" d="M31 1335v49h395v-573q72 86 144 122t157 36q124 0 195 -77.5t71 -201.5v-512q0 -70 23.5 -99.5t77.5 -29.5v-49h-480v49q52 6 73.5 34t21.5 91v459q0 110 -23 154t-82 44q-74 0 -143 -69q-35 -35 -35 -49v-539q0 -64 21 -91t77 -34v-49h-491v49q31 6 40.5 8t27.5 9 t21.5 13.5t10 21t7.5 33t1 48.5v1028q0 71 -18.5 91t-91.5 34zM168 1511l250 361h188l252 -361h-117l-229 201l-229 -201h-115z" />
<glyph unicode="&#x126;" horiz-adv-x="1593" d="M43 0v51q108 14 141 41.5t33 108.5v809h-174v96h174v76q0 83 -35 112.5t-139 38.5v51h688v-51q-109 -8 -145.5 -37t-36.5 -114v-76h493v76q0 85 -36.5 114t-145.5 37v51h694v-51q-105 -8 -142.5 -38.5t-37.5 -112.5v-76h180v-96h-180v-809q0 -81 34 -108.5t146 -41.5v-51 h-694v51q111 12 146.5 41.5t35.5 108.5v467h-493v-467q0 -81 34.5 -109.5t147.5 -40.5v-51h-688zM549 764h493v246h-493v-246z" />
<glyph unicode="&#x127;" horiz-adv-x="1138" d="M31 1053v90h110v67q0 71 -18.5 91t-91.5 34v49h395v-241h324v-90h-324v-242q72 86 144 122t157 36q124 0 195 -77.5t71 -201.5v-512q0 -70 23.5 -99.5t77.5 -29.5v-49h-480v49q52 6 73.5 34t21.5 91v459q0 110 -23 154t-82 44q-74 0 -143 -69q-35 -35 -35 -49v-539 q0 -64 21 -91t77 -34v-49h-491v49q31 6 40.5 8t27.5 9t21.5 13.5t10 21t7.5 33t1 48.5v871h-110z" />
<glyph unicode="&#x128;" horiz-adv-x="796" d="M29 1554q28 132 85 194t152 62q67 0 150 -38l82 -37q55 -25 80 -25q41 0 65.5 22t44.5 78h88q-35 -133 -93 -196.5t-144 -63.5q-62 0 -133 29l-60 27q-66 30 -88 37.5t-43 7.5q-39 0 -66.5 -27t-33.5 -70h-86zM41 0v51q117 11 153.5 41.5t36.5 124.5v963q0 85 -39 115 t-151 38v51h717v-51q-114 -5 -154.5 -36t-40.5 -117v-963q0 -98 37.5 -128t157.5 -38v-51h-717z" />
<glyph unicode="&#x129;" horiz-adv-x="569" d="M-96 1124q28 132 85 194t152 62q65 0 150 -39l82 -36q55 -25 80 -25q41 0 65.5 22t44.5 78h88q-35 -133 -93 -196.5t-144 -63.5q-62 0 -133 29l-60 27q-66 30 -88 37.5t-43 7.5q-39 0 -66.5 -27t-33.5 -70h-86zM31 895v49h395v-770q0 -65 21.5 -91t76.5 -34v-49h-491v49 q71 17 89.5 39t18.5 92v584q0 68 -21 92.5t-89 38.5z" />
<glyph unicode="&#x12a;" horiz-adv-x="796" d="M41 0v51q117 11 153.5 41.5t36.5 124.5v963q0 85 -39 115t-151 38v51h717v-51q-114 -5 -154.5 -36t-40.5 -117v-963q0 -98 37.5 -128t157.5 -38v-51h-717zM59 1511v148h676v-148h-676z" />
<glyph unicode="&#x12b;" horiz-adv-x="569" d="M-51 1081v148h676v-148h-676zM31 895v49h395v-770q0 -65 21.5 -91t76.5 -34v-49h-491v49q71 17 89.5 39t18.5 92v584q0 68 -21 92.5t-89 38.5z" />
<glyph unicode="&#x12c;" horiz-adv-x="796" d="M41 0v51q117 11 153.5 41.5t36.5 124.5v963q0 85 -39 115t-151 38v51h717v-51q-114 -5 -154.5 -36t-40.5 -117v-963q0 -98 37.5 -128t157.5 -38v-51h-717zM80 1843h90q36 -178 209 -178q97 0 151 40.5t80 137.5h90q-11 -153 -88 -243.5t-223 -90.5q-149 0 -228 90.5 t-81 243.5z" />
<glyph unicode="&#x12d;" horiz-adv-x="569" d="M-23 1415h91q36 -178 208 -178q97 0 151.5 40.5t80.5 137.5h90q-11 -153 -88 -243.5t-223 -90.5q-149 0 -228.5 90.5t-81.5 243.5zM31 895v49h395v-770q0 -65 21.5 -91t76.5 -34v-49h-491v49q71 17 89.5 39t18.5 92v584q0 68 -21 92.5t-89 38.5z" />
<glyph unicode="&#x12e;" horiz-adv-x="796" d="M41 0v51q117 11 153.5 41.5t36.5 124.5v963q0 85 -39 115t-151 38v51h717v-51q-114 -5 -154.5 -36t-40.5 -117v-963q0 -98 37.5 -128t157.5 -38v-51h-230q-2 -4 -6 -16q-22 -81 -22 -131q0 -71 29 -101.5t96 -30.5q43 0 98 27q12 6 27 16l47 -32q-37 -69 -110.5 -110.5 t-147.5 -41.5q-95 0 -153 44t-58 116q0 58 23 105.5t87 121.5q9 11 17.5 20t11.5 13h-426z" />
<glyph unicode="&#x12f;" horiz-adv-x="569" d="M31 895v49h395v-770q0 -65 21.5 -91t76.5 -34v-49h-135q-2 -4 -6 -16q-23 -84 -23 -131q0 -71 29 -101.5t96 -30.5q44 0 99 27q8 4 26 16l47 -32q-37 -69 -110.5 -110.5t-147.5 -41.5q-95 0 -153 44t-58 116q0 58 23.5 105t87.5 122q9 11 17.5 20t11.5 13h-295v49 q71 17 89.5 39t18.5 92v584q0 68 -21 92.5t-89 38.5zM123 1255q0 68 46.5 114t115.5 46q64 0 109.5 -47t45.5 -113q0 -67 -45.5 -112t-113.5 -45t-113 45t-45 112z" />
<glyph unicode="&#x130;" horiz-adv-x="796" d="M41 0v51q117 11 153.5 41.5t36.5 124.5v963q0 85 -39 115t-151 38v51h717v-51q-114 -5 -154.5 -36t-40.5 -117v-963q0 -98 37.5 -128t157.5 -38v-51h-717zM266 1663q0 54 38.5 92.5t92.5 38.5t93.5 -40t39.5 -95q0 -54 -39 -91.5t-96 -37.5q-54 0 -91.5 38.5t-37.5 94.5z " />
<glyph unicode="&#x131;" horiz-adv-x="569" d="M31 895v49h395v-770q0 -65 21.5 -91t76.5 -34v-49h-491v49q71 17 89.5 39t18.5 92v584q0 68 -21 92.5t-89 38.5z" />
<glyph unicode="&#x134;" horiz-adv-x="1024" d="M6 76q0 57 44.5 104t101.5 47q58 0 102.5 -46.5t44.5 -108.5q0 -32 -27.5 -71t-27.5 -64q0 -31 24.5 -48.5t67.5 -17.5q70 0 100.5 44t30.5 140v1127q0 88 -40.5 117t-166.5 34v51h719v-51q-114 -7 -147 -44.5t-33 -149.5v-881q0 -455 -434 -455q-154 0 -222 47 q-59 40 -98 102t-39 124zM291 1511l250 361h188l252 -361h-117l-229 201l-229 -201h-115z" />
<glyph unicode="&#x135;" horiz-adv-x="681" d="M-117 -211q0 56 35 90.5t92 34.5q51 0 86 -32.5t35 -78.5q0 -30 -29 -75q-18 -30 -18 -45t18.5 -25t47.5 -10q52 0 75 36.5t23 118.5v971q0 66 -25.5 90.5t-103.5 30.5v49h413v-940q0 -171 -55 -264q-43 -75 -122 -115.5t-185 -40.5q-126 0 -206.5 57t-80.5 148zM-4 1081 l250 361h188l252 -361h-117l-229 201l-229 -201h-115z" />
<glyph unicode="&#x136;" horiz-adv-x="1593" d="M61 0v51q114 10 146.5 39t32.5 117v967q0 93 -35.5 123t-143.5 36v51h691v-51q-112 -7 -146.5 -41.5t-34.5 -130.5v-456l435 440q49 49 65 72t16 47q0 31 -21.5 45t-76.5 18l-71 6v51h591v-51q-69 -8 -111.5 -19.5t-96.5 -37.5t-114.5 -77t-140 -128.5t-196.5 -202.5 l625 -774q19 -23 40.5 -32t59.5 -11v-51h-684v51q96 3 127 12.5t31 30.5q0 17 -10.5 35.5t-41.5 56.5l-370 461l-56 -51v-401q0 -75 34.5 -103t144.5 -41v-51h-689zM559 -262q0 79 47.5 126.5t124.5 47.5q96 0 150.5 -64t54.5 -174q0 -134 -82 -245t-258 -203l-23 45 q224 154 224 272q0 19 -11 31t-28 12q-6 0 -22 -2t-27 -2q-66 0 -108 43t-42 113z" />
<glyph unicode="&#x137;" horiz-adv-x="1138" d="M45 0v49q51 5 74.5 34t23.5 89v1045q0 59 -23 86.5t-75 31.5v49h383v-882l262 262q17 17 30 40.5t13 37.5q0 20 -15.5 30.5t-55.5 16.5l-50 8v47h439v-47q-97 -12 -165 -59.5t-222 -208.5l397 -549q13 -19 23.5 -25t27.5 -6v-49h-479v49q86 3 86 39q0 24 -49 92l-195 275 l-47 -49v-234q0 -72 17.5 -92.5t89.5 -30.5v-49h-490zM377 -262q0 79 47.5 126.5t124.5 47.5q96 0 150.5 -64t54.5 -174q0 -134 -82 -245t-258 -203l-23 45q223 153 223 272q0 19 -11 31t-28 12q-6 0 -22 -2t-27 -2q-66 0 -107.5 43t-41.5 113z" />
<glyph unicode="&#x138;" horiz-adv-x="1228" d="M39 0v49q56 13 80 38.5t24 88.5v625q0 63 -24.5 86t-79.5 26v50h502v-50q-65 -9 -85 -29t-20 -85v-221q38 0 84 8q23 7 65 18t56.5 15.5t34.5 12.5t33 17q82 59 131 180q31 76 74.5 105t127.5 29q66 0 115 -32.5t49 -82.5q0 -39 -28 -62.5t-72 -23.5q-31 0 -53.5 13 t-32 28t-22 28t-27.5 13q-25 0 -38 -13t-24 -45q-53 -152 -157 -229q44 -15 86 -70q24 -31 92.5 -144t85.5 -138q53 -77 108.5 -111.5t159.5 -44.5v-49h-344q-40 4 -89.5 48t-92.5 108q-22 33 -53 94.5t-68 116.5q-51 79 -145 110q-10 -2 -56 -2v-297q0 -39 2 -57t11.5 -37 t31.5 -26.5t60 -8.5v-49h-502z" />
<glyph unicode="&#x139;" horiz-adv-x="1366" d="M39 0v51q112 13 144 40.5t32 109.5v979q0 87 -35.5 117t-140.5 36v51h713v-49q-71 -3 -108 -10.5t-60.5 -31t-30 -58.5t-6.5 -102v-951q0 -67 37.5 -93t136.5 -26q124 0 203.5 27t144.5 86q87 78 178 289h60l-86 -465h-1182zM324 1511l280 322q51 57 109 57q44 0 71 -25 t27 -65q0 -35 -16 -56t-66 -52l-291 -181h-114z" />
<glyph unicode="&#x13a;" horiz-adv-x="569" d="M31 1335v49h391v-1206q0 -69 24.5 -98t77.5 -31v-49h-491v49q54 5 79 34t25 95v1024q0 59 -26.5 94t-79.5 39zM45 1511l281 322q51 57 108 57q44 0 71 -25t27 -65q0 -35 -16 -56t-65 -52l-291 -181h-115z" />
<glyph unicode="&#x13b;" horiz-adv-x="1366" d="M39 0v51q112 13 144 40.5t32 109.5v979q0 87 -35.5 117t-140.5 36v51h713v-49q-71 -3 -108 -10.5t-60.5 -31t-30 -58.5t-6.5 -102v-951q0 -67 37.5 -93t136.5 -26q124 0 203.5 27t144.5 86q87 78 178 289h60l-86 -465h-1182zM487 -262q0 79 47.5 126.5t124.5 47.5 q96 0 150.5 -64t54.5 -174q0 -134 -82 -245t-258 -203l-22 45q223 153 223 272q0 19 -11 31t-28 12q-6 0 -22 -2t-27 -2q-66 0 -108 43t-42 113z" />
<glyph unicode="&#x13c;" horiz-adv-x="569" d="M31 1335v49h391v-1206q0 -69 24.5 -98t77.5 -31v-49h-491v49q54 5 79 34t25 95v1024q0 59 -26.5 94t-79.5 39zM98 -262q0 79 47.5 126.5t124.5 47.5q96 0 150.5 -64t54.5 -174q0 -134 -82 -245t-258 -203l-22 45q223 153 223 272q0 19 -11 31t-28 12q-6 0 -22 -2t-27 -2 q-66 0 -108 43t-42 113z" />
<glyph unicode="&#x13d;" horiz-adv-x="1366" d="M39 0v51q112 13 144 40.5t32 109.5v979q0 87 -35.5 117t-140.5 36v51h713v-49q-71 -3 -108 -10.5t-60.5 -31t-30 -58.5t-6.5 -102v-951q0 -67 37.5 -93t136.5 -26q124 0 203.5 27t144.5 86q87 78 178 289h60l-86 -465h-1182zM879 1241q0 79 47.5 126.5t124.5 47.5 q96 0 150 -63.5t54 -173.5q0 -135 -82.5 -246t-257.5 -203l-22 45q223 153 223 273q0 19 -11 31t-28 12q-6 0 -22 -2.5t-27 -2.5q-66 0 -107.5 43t-41.5 113z" />
<glyph unicode="&#x13e;" horiz-adv-x="935" d="M31 1335v49h391v-1206q0 -69 24.5 -98t77.5 -31v-49h-491v49q54 5 79 34t25 95v1024q0 59 -26.5 94t-79.5 39zM528 1278q0 79 47.5 126.5t124.5 47.5q96 0 150.5 -64t54.5 -174q0 -134 -82 -245t-258 -203l-22 45q223 153 223 272q0 19 -11 31t-28 12q-6 0 -22 -2t-27 -2 q-66 0 -108 43t-42 113z" />
<glyph unicode="&#x13f;" horiz-adv-x="1366" d="M39 0v51q112 13 144 40.5t32 109.5v979q0 87 -35.5 117t-140.5 36v51h713v-49q-71 -3 -108 -10.5t-60.5 -31t-30 -58.5t-6.5 -102v-951q0 -67 37.5 -93t136.5 -26q124 0 203.5 27t144.5 86q87 78 178 289h60l-86 -465h-1182zM750 662q0 72 51 123t123 51q70 0 121 -51.5 t51 -122.5q0 -72 -50.5 -122.5t-123.5 -50.5t-122.5 49.5t-49.5 123.5z" />
<glyph unicode="&#x140;" horiz-adv-x="847" d="M31 1335v49h391v-1206q0 -69 24.5 -98t77.5 -31v-49h-491v49q54 5 79 34t25 95v1024q0 59 -26.5 94t-79.5 39zM557 696q0 72 51 123t123 51q70 0 121 -51.5t51 -122.5q0 -72 -50.5 -122t-123.5 -50t-122.5 49t-49.5 123z" />
<glyph unicode="&#x141;" horiz-adv-x="1366" d="M37 1333v51h715v-51q-124 -6 -164.5 -45t-40.5 -158v-223l252 156v-125l-252 -156v-598q0 -68 32.5 -94.5t129.5 -26.5q131 0 216.5 25t145.5 82q33 31 65.5 81.5t52.5 92t58 123.5h60l-86 -467h-1182v51q112 9 144 38t32 116v383l-166 -101v125l166 101v461 q0 92 -35.5 122.5t-142.5 36.5z" />
<glyph unicode="&#x142;" horiz-adv-x="569" d="M-45 492v102l182 147v469q0 61 -25.5 90.5t-80.5 34.5v49h391v-460l199 163v-102l-199 -164v-639q0 -68 25 -99.5t77 -33.5v-49h-491v49q104 9 104 133v457z" />
<glyph unicode="&#x143;" horiz-adv-x="1478" d="M33 0v51q112 13 146 45.5t34 126.5v963q-61 84 -100.5 115.5t-73.5 31.5v51h432l715 -880v612q0 122 -37 164t-152 53v51h439v-51q-102 -15 -131 -45t-29 -125v-1200h-57l-916 1116v-811q0 -119 37.5 -161.5t155.5 -55.5v-51h-463zM602 1511l281 322q51 57 108 57 q44 0 71.5 -25t27.5 -65q0 -35 -16 -56t-66 -52l-291 -181h-115z" />
<glyph unicode="&#x144;" horiz-adv-x="1138" d="M43 0v49q68 13 88.5 38t20.5 91v592q0 66 -21 90.5t-88 34.5v49h391v-153h2q101 178 291 178q126 0 201.5 -79t75.5 -212v-506q0 -69 20 -94t80 -29v-49h-479v49q52 6 73 33.5t21 89.5v485q0 174 -105 174q-74 0 -143 -69q-35 -35 -35 -49v-541q0 -59 21.5 -87.5 t77.5 -35.5v-49h-492zM434 1081l281 322q51 57 108 57q44 0 71.5 -25t27.5 -65q0 -35 -16 -56t-66 -52l-291 -181h-115z" />
<glyph unicode="&#x145;" horiz-adv-x="1478" d="M33 0v51q112 13 146 45.5t34 126.5v963q-61 84 -100.5 115.5t-73.5 31.5v51h432l715 -880v612q0 122 -37 164t-152 53v51h439v-51q-102 -15 -131 -45t-29 -125v-1200h-57l-916 1116v-811q0 -119 37.5 -161.5t155.5 -55.5v-51h-463zM549 -262q0 79 47.5 126.5t124.5 47.5 q96 0 150.5 -64t54.5 -174q0 -134 -82 -245t-258 -203l-23 45q223 153 223 272q0 19 -10.5 31t-27.5 12q-6 0 -22.5 -2t-27.5 -2q-66 0 -107.5 43t-41.5 113z" />
<glyph unicode="&#x146;" horiz-adv-x="1138" d="M43 0v49q68 13 88.5 38t20.5 91v592q0 66 -21 90.5t-88 34.5v49h391v-153h2q101 178 291 178q126 0 201.5 -79t75.5 -212v-506q0 -69 20 -94t80 -29v-49h-479v49q52 6 73 33.5t21 89.5v485q0 174 -105 174q-74 0 -143 -69q-35 -35 -35 -49v-541q0 -59 21.5 -87.5 t77.5 -35.5v-49h-492zM385 -262q0 79 47.5 126.5t124.5 47.5q96 0 150.5 -64t54.5 -174q0 -134 -82 -245t-258 -203l-23 45q224 154 224 272q0 19 -11 31t-28 12q-6 0 -22 -2t-27 -2q-66 0 -108 43t-42 113z" />
<glyph unicode="&#x147;" horiz-adv-x="1478" d="M33 0v51q112 13 146 45.5t34 126.5v963q-61 84 -100.5 115.5t-73.5 31.5v51h432l715 -880v612q0 122 -37 164t-152 53v51h439v-51q-102 -15 -131 -45t-29 -125v-1200h-57l-916 1116v-811q0 -119 37.5 -161.5t155.5 -55.5v-51h-463zM406 1872h116l228 -203l227 203h119 l-252 -361h-189z" />
<glyph unicode="&#x148;" horiz-adv-x="1138" d="M43 0v49q68 13 88.5 38t20.5 91v592q0 66 -21 90.5t-88 34.5v49h391v-153h2q101 178 291 178q126 0 201.5 -79t75.5 -212v-506q0 -69 20 -94t80 -29v-49h-479v49q52 6 73 33.5t21 89.5v485q0 174 -105 174q-74 0 -143 -69q-35 -35 -35 -49v-541q0 -59 21.5 -87.5 t77.5 -35.5v-49h-492zM231 1442h117l227 -203l228 203h119l-252 -361h-189z" />
<glyph unicode="&#x149;" horiz-adv-x="1443" d="M27 1278q0 79 47.5 126.5t124.5 47.5q96 0 150 -64t54 -174q0 -134 -82 -245t-258 -203l-22 45q223 153 223 272q0 19 -11 31t-28 12q-6 0 -22 -2t-27 -2q-66 0 -107.5 43t-41.5 113zM358 0v49q68 13 88.5 38t20.5 91v592q0 66 -21 90.5t-88 34.5v49h392v-153h2 q101 178 290 178q126 0 201.5 -79t75.5 -212v-506q0 -69 20 -94t80 -29v-49h-479v49q52 6 73 33.5t21 89.5v485q0 174 -104 174q-75 0 -144 -69q-34 -34 -34 -49v-541q0 -59 21.5 -87.5t76.5 -35.5v-49h-492z" />
<glyph unicode="&#x14a;" horiz-adv-x="1499" d="M29 0v51q89 3 129.5 39.5t40.5 110.5v995q0 70 -36 99t-134 38v51h659q366 0 568 -197.5t202 -533.5q0 -162 -41 -315t-113 -272t-180 -191t-233 -72q-106 0 -190.5 76t-84.5 172q0 64 44.5 126.5t109.5 62.5q58 0 98.5 -46t40.5 -108q0 -29 -8.5 -50t-19 -30t-19 -23.5 t-8.5 -31.5q0 -33 22.5 -56.5t63.5 -23.5q58 0 97.5 103t55 243.5t15.5 304.5q0 174 -33.5 338.5t-81.5 247.5q-60 104 -140.5 155.5t-193.5 51.5q-60 0 -94.5 -23.5t-34.5 -66.5v-1225h-501z" />
<glyph unicode="&#x14b;" horiz-adv-x="1138" d="M43 0v49q68 13 88.5 38t20.5 91v592q0 66 -21 90.5t-88 34.5v49h391v-153h2q101 178 291 178q126 0 201.5 -79t75.5 -212v-678q0 -169 -56 -264q-43 -75 -122 -115.5t-185 -40.5q-126 0 -206.5 57t-80.5 148q0 56 35 90.5t92 34.5q51 0 86 -32.5t35 -78.5q0 -30 -29 -75 q-18 -30 -18 -46q0 -15 18.5 -24.5t47.5 -9.5q52 0 75 36.5t23 118.5v858q0 174 -105 174q-74 0 -143 -69q-35 -35 -35 -49v-541q0 -59 21.5 -87.5t77.5 -35.5v-49h-492z" />
<glyph unicode="&#x14c;" horiz-adv-x="1593" d="M72 684q0 215 94.5 382t262 258t378.5 91q152 0 285 -54.5t227.5 -150.5t148.5 -231.5t54 -292.5q0 -210 -93 -375.5t-258.5 -257.5t-375.5 -92q-209 0 -374 92t-257 257t-92 374zM434 676q0 -321 94 -484t271 -163t268.5 163.5t91.5 479.5q0 327 -95.5 501.5 t-275.5 174.5q-169 0 -261.5 -175t-92.5 -497zM451 1511v148h675v-148h-675z" />
<glyph unicode="&#x14d;" horiz-adv-x="1024" d="M51 467q0 222 132.5 362t336.5 140q195 0 325 -141.5t130 -358.5q0 -216 -132 -357t-331 -141q-95 0 -180 37t-147 101.5t-98 157.5t-36 200zM174 1081v148h676v-148h-676zM352 446q0 -224 36.5 -317.5t125.5 -93.5t124.5 91t35.5 320q0 178 -15 276t-49 140.5t-96 42.5 q-64 0 -98.5 -43t-49 -140t-14.5 -276z" />
<glyph unicode="&#x14e;" horiz-adv-x="1593" d="M72 684q0 215 94.5 382t262 258t378.5 91q152 0 285 -54.5t227.5 -150.5t148.5 -231.5t54 -292.5q0 -210 -93 -375.5t-258.5 -257.5t-375.5 -92q-209 0 -374 92t-257 257t-92 374zM434 676q0 -321 94 -484t271 -163t268.5 163.5t91.5 479.5q0 327 -95.5 501.5 t-275.5 174.5q-169 0 -261.5 -175t-92.5 -497zM489 1845h91q36 -178 208 -178q97 0 151.5 40.5t80.5 137.5h90q-11 -153 -88 -243.5t-223 -90.5q-149 0 -228.5 90.5t-81.5 243.5z" />
<glyph unicode="&#x14f;" horiz-adv-x="1024" d="M51 467q0 222 132.5 362t336.5 140q195 0 325 -141.5t130 -358.5q0 -216 -132 -357t-331 -141q-95 0 -180 37t-147 101.5t-98 157.5t-36 200zM203 1415h90q36 -178 209 -178q97 0 151 40.5t80 137.5h90q-11 -153 -88 -243.5t-223 -90.5q-149 0 -228 90.5t-81 243.5z M352 446q0 -224 36.5 -317.5t125.5 -93.5t124.5 91t35.5 320q0 178 -15 276t-49 140.5t-96 42.5q-64 0 -98.5 -43t-49 -140t-14.5 -276z" />
<glyph unicode="&#x150;" horiz-adv-x="1593" d="M72 684q0 215 94.5 382t262 258t378.5 91q152 0 285 -54.5t227.5 -150.5t148.5 -231.5t54 -292.5q0 -210 -93 -375.5t-258.5 -257.5t-375.5 -92q-209 0 -374 92t-257 257t-92 374zM348 1511l279 322q51 57 110 57q44 0 71.5 -25t27.5 -65q0 -36 -16.5 -59t-65.5 -53 l-289 -177h-117zM434 676q0 -321 94 -484t271 -163t268.5 163.5t91.5 479.5q0 327 -95.5 501.5t-275.5 174.5q-169 0 -261.5 -175t-92.5 -497zM758 1511l278 322q51 57 111 57q44 0 71 -25t27 -65q0 -36 -16.5 -59t-65.5 -53l-289 -177h-116z" />
<glyph unicode="&#x151;" horiz-adv-x="1024" d="M51 467q0 222 132.5 362t336.5 140q195 0 325 -141.5t130 -358.5q0 -216 -132 -357t-331 -141q-95 0 -180 37t-147 101.5t-98 157.5t-36 200zM78 1081l278 322q51 57 111 57q44 0 71 -25t27 -65q0 -36 -16.5 -59.5t-65.5 -53.5l-288 -176h-117zM352 446 q0 -224 36.5 -317.5t125.5 -93.5t124.5 91t35.5 320q0 178 -15 276t-49 140.5t-96 42.5q-64 0 -98.5 -43t-49 -140t-14.5 -276zM487 1081l279 322q51 57 111 57q44 0 71 -25t27 -65q0 -36 -16.5 -59.5t-65.5 -53.5l-289 -176h-117z" />
<glyph unicode="&#x152;" horiz-adv-x="2048" d="M45 684q0 189 73.5 343.5t207.5 248.5q83 59 193 92t220 33q9 0 53.5 -4.5t119.5 -8.5t159 -4h854v-411h-53q-22 123 -54 183.5t-96 98.5q-96 58 -329 58q-62 0 -85.5 -11t-23.5 -42v-510q58 2 95.5 6t70 17.5t51.5 32t37 55t29.5 80t25.5 112.5h47v-693h-47 q-23 184 -85 248.5t-224 73.5v-512q0 -59 29.5 -78.5t118.5 -19.5q116 0 197 24t147 78q53 44 90.5 98t87.5 160h55l-86 -432h-881q-145 0 -219 -6q-58 -4 -88 -4q-287 0 -463 147q-109 92 -168 235t-59 312zM393 655q0 -140 22.5 -267t59.5 -191q41 -74 107 -108t168 -34 q128 0 176 66q25 32 33 96t8 217v596q0 111 -7.5 161.5t-29.5 82.5q-43 61 -158 61q-379 0 -379 -680z" />
<glyph unicode="&#x153;" horiz-adv-x="1478" d="M45 469q0 218 130.5 359t332.5 141q83 0 142.5 -23.5t113.5 -77.5q74 58 130.5 79.5t133.5 21.5q235 0 332 -189q29 -54 41 -112.5t18 -165.5h-510v-41q0 -165 58.5 -253.5t173.5 -88.5q72 0 122 28.5t121 108.5l41 -33q-100 -142 -188 -197t-217 -55q-79 0 -134.5 23 t-101.5 76q-62 -53 -127.5 -76t-154.5 -23q-203 0 -330 138.5t-127 359.5zM342 510q0 -270 33 -373.5t121 -103.5q70 0 102.5 65.5t32.5 206.5v332q0 147 -32.5 209.5t-109.5 62.5q-85 0 -116 -85t-31 -314zM909 578h260l-4 114q-5 116 -33.5 166.5t-89.5 50.5 q-65 0 -99 -56.5t-34 -164.5v-110z" />
<glyph unicode="&#x154;" horiz-adv-x="1478" d="M53 0v51q44 5 69 9t48 13.5t33 20.5t18 33.5t10 49t2 69.5v882q0 121 -33.5 159.5t-146.5 45.5v51h631q606 0 606 -352q0 -70 -24.5 -135t-67.5 -106q-46 -41 -95 -67.5t-134 -49.5l407 -578q30 -45 90 -45v-51h-419l-424 641h-58v-401q0 -40 2 -65t9.5 -46t18 -32.5 t33 -21t48.5 -14.5t69 -10v-51h-692zM514 1511l281 322q51 57 108 57q44 0 71 -25t27 -65q0 -35 -16 -56t-65 -52l-291 -181h-115zM565 707q106 1 172.5 13.5t114.5 46t68 92.5t20 153q0 163 -61.5 233t-204.5 70q-60 0 -84.5 -20.5t-24.5 -71.5v-516z" />
<glyph unicode="&#x155;" horiz-adv-x="909" d="M57 895v49h389v-168q72 104 136 148.5t141 44.5q72 0 119 -46t47 -116q0 -61 -36 -100t-93 -39q-40 0 -68.5 17.5t-54.5 59.5q-30 48 -57 48q-54 0 -89.5 -61t-35.5 -152v-363q0 -99 27 -130.5t120 -37.5v-49h-543v49q68 12 89.5 36t21.5 87v592q0 71 -23 96.5t-90 34.5z M170 1081l281 322q51 57 108 57q44 0 71 -25t27 -65q0 -35 -16 -56t-66 -52l-290 -181h-115z" />
<glyph unicode="&#x156;" horiz-adv-x="1478" d="M53 0v51q44 5 69 9t48 13.5t33 20.5t18 33.5t10 49t2 69.5v882q0 121 -33.5 159.5t-146.5 45.5v51h631q606 0 606 -352q0 -70 -24.5 -135t-67.5 -106q-46 -41 -95 -67.5t-134 -49.5l407 -578q30 -45 90 -45v-51h-419l-424 641h-58v-401q0 -40 2 -65t9.5 -46t18 -32.5 t33 -21t48.5 -14.5t69 -10v-51h-692zM565 707q106 1 172.5 13.5t114.5 46t68 92.5t20 153q0 163 -61.5 233t-204.5 70q-60 0 -84.5 -20.5t-24.5 -71.5v-516zM590 -262q0 79 47.5 126.5t124.5 47.5q96 0 150.5 -64t54.5 -174q0 -134 -82 -245t-258 -203l-23 45 q223 153 223 272q0 19 -11 31t-28 12q-6 0 -22 -2t-27 -2q-66 0 -107.5 43t-41.5 113z" />
<glyph unicode="&#x157;" horiz-adv-x="909" d="M57 895v49h389v-168q72 104 136 148.5t141 44.5q72 0 119 -46t47 -116q0 -61 -36 -100t-93 -39q-40 0 -68.5 17.5t-54.5 59.5q-30 48 -57 48q-54 0 -89.5 -61t-35.5 -152v-363q0 -99 27 -130.5t120 -37.5v-49h-543v49q68 12 89.5 36t21.5 87v592q0 71 -23 96.5t-90 34.5z M225 -262q0 79 47.5 126.5t124.5 47.5q96 0 150.5 -64t54.5 -174q0 -134 -82 -245t-258 -203l-22 45q223 153 223 272q0 19 -11 31t-28 12q-6 0 -22 -2t-27 -2q-66 0 -108 43t-42 113z" />
<glyph unicode="&#x158;" horiz-adv-x="1478" d="M53 0v51q44 5 69 9t48 13.5t33 20.5t18 33.5t10 49t2 69.5v882q0 121 -33.5 159.5t-146.5 45.5v51h631q606 0 606 -352q0 -70 -24.5 -135t-67.5 -106q-46 -41 -95 -67.5t-134 -49.5l407 -578q30 -45 90 -45v-51h-419l-424 641h-58v-401q0 -40 2 -65t9.5 -46t18 -32.5 t33 -21t48.5 -14.5t69 -10v-51h-692zM319 1872h117l228 -203l227 203h119l-252 -361h-189zM565 707q106 1 172.5 13.5t114.5 46t68 92.5t20 153q0 163 -61.5 233t-204.5 70q-60 0 -84.5 -20.5t-24.5 -71.5v-516z" />
<glyph unicode="&#x159;" horiz-adv-x="909" d="M57 895v49h389v-168q72 104 136 148.5t141 44.5q72 0 119 -46t47 -116q0 -61 -36 -100t-93 -39q-40 0 -68.5 17.5t-54.5 59.5q-30 48 -57 48q-54 0 -89.5 -61t-35.5 -152v-363q0 -99 27 -130.5t120 -37.5v-49h-543v49q68 12 89.5 36t21.5 87v592q0 71 -23 96.5t-90 34.5z M104 1442h117l228 -203l227 203h119l-252 -361h-189z" />
<glyph unicode="&#x15a;" horiz-adv-x="1138" d="M72 -39v508h59q27 -110 53 -173.5t70 -119.5q117 -147 295 -147q118 0 188 62.5t70 168.5q0 98 -117 180q-20 14 -43 27.5t-51.5 28.5t-48 24.5t-56 27.5t-51.5 25q-121 58 -194.5 115.5t-114.5 135.5t-41 180q0 194 119.5 302.5t329.5 108.5q113 0 239 -47 q55 -18 86 -18q28 0 42 13.5t24 53.5h61v-446h-57q-31 100 -61 156t-82 110q-112 115 -252 115q-104 0 -165 -56.5t-61 -146.5q0 -74 43.5 -121.5t167.5 -112.5q39 -21 142 -73t161 -84q101 -56 162.5 -151.5t61.5 -209.5q0 -194 -140.5 -315t-367.5 -121q-127 0 -267 49 q-67 21 -83 21q-25 0 -39 -15.5t-23 -54.5h-59zM391 1511l281 322q51 57 108 57q44 0 71.5 -25t27.5 -65q0 -35 -16 -56t-66 -52l-291 -181h-115z" />
<glyph unicode="&#x15b;" horiz-adv-x="796" d="M51 -27v338h58q65 -270 280 -270q69 0 111.5 36.5t42.5 96.5q0 50 -45.5 91t-151.5 87q-154 66 -222.5 141t-68.5 177q0 129 91.5 214t230.5 85q71 0 160 -31q46 -14 63 -14q20 0 31 9t20 32h45v-297h-51q-23 66 -43.5 101.5t-52.5 66.5q-68 65 -154 65q-58 0 -96.5 -34 t-38.5 -85q0 -53 46.5 -95t150.5 -85q154 -64 218 -137t64 -182q0 -138 -88 -225t-227 -87q-43 0 -110 14t-111 33q-33 13 -47 13q-13 0 -24.5 -12.5t-29.5 -45.5h-51zM258 1081l281 322q51 57 108 57q44 0 71 -25t27 -65q0 -35 -15.5 -56t-65.5 -52l-291 -181h-115z" />
<glyph unicode="&#x15c;" horiz-adv-x="1138" d="M72 -39v508h59q27 -110 53 -173.5t70 -119.5q117 -147 295 -147q118 0 188 62.5t70 168.5q0 98 -117 180q-20 14 -43 27.5t-51.5 28.5t-48 24.5t-56 27.5t-51.5 25q-121 58 -194.5 115.5t-114.5 135.5t-41 180q0 194 119.5 302.5t329.5 108.5q113 0 239 -47 q55 -18 86 -18q28 0 42 13.5t24 53.5h61v-446h-57q-31 100 -61 156t-82 110q-112 115 -252 115q-104 0 -165 -56.5t-61 -146.5q0 -74 43.5 -121.5t167.5 -112.5q39 -21 142 -73t161 -84q101 -56 162.5 -151.5t61.5 -209.5q0 -194 -140.5 -315t-367.5 -121q-127 0 -267 49 q-67 21 -83 21q-25 0 -39 -15.5t-23 -54.5h-59zM229 1511l250 361h189l252 -361h-117l-230 201l-229 -201h-115z" />
<glyph unicode="&#x15d;" horiz-adv-x="796" d="M45 1081l250 361h188l252 -361h-117l-229 201l-229 -201h-115zM51 -27v338h58q65 -270 280 -270q69 0 111.5 36.5t42.5 96.5q0 50 -45.5 91t-151.5 87q-154 66 -222.5 141t-68.5 177q0 129 91.5 214t230.5 85q71 0 160 -31q46 -14 63 -14q20 0 31 9t20 32h45v-297h-51 q-23 66 -43.5 101.5t-52.5 66.5q-68 65 -154 65q-58 0 -96.5 -34t-38.5 -85q0 -53 46.5 -95t150.5 -85q154 -64 218 -137t64 -182q0 -138 -88 -225t-227 -87q-43 0 -110 14t-111 33q-33 13 -47 13q-13 0 -24.5 -12.5t-29.5 -45.5h-51z" />
<glyph unicode="&#x15e;" horiz-adv-x="1138" d="M72 -39v508h59q27 -110 53 -173.5t70 -119.5q117 -147 295 -147q118 0 188 62.5t70 168.5q0 98 -117 180q-20 14 -43 27.5t-51.5 28.5t-48 24.5t-56 27.5t-51.5 25q-121 58 -194.5 115.5t-114.5 135.5t-41 180q0 194 119.5 302.5t329.5 108.5q113 0 239 -47 q55 -18 86 -18q28 0 42 13.5t24 53.5h61v-446h-57q-31 100 -61 156t-82 110q-112 115 -252 115q-104 0 -165 -56.5t-61 -146.5q0 -74 43.5 -121.5t167.5 -112.5q39 -21 142 -73t161 -84q101 -56 162.5 -151.5t61.5 -209.5q0 -186 -131.5 -306.5t-344.5 -127.5l-40 -94 q31 10 65 10q86 0 134 -37.5t48 -105.5q0 -85 -71 -133.5t-193 -48.5q-98 0 -199 36l33 76l13 -4q73 -24 108 -24q119 0 119 83q0 35 -25 54.5t-69 19.5q-27 0 -58 -8l-22 16l71 160q-99 6 -213 47q-67 21 -83 21q-25 0 -39 -15.5t-23 -54.5h-59z" />
<glyph unicode="&#x15f;" horiz-adv-x="796" d="M51 -27v338h58q65 -270 280 -270q69 0 111.5 36.5t42.5 96.5q0 50 -45.5 91t-151.5 87q-154 66 -222.5 141t-68.5 177q0 129 91.5 214t230.5 85q71 0 160 -31q46 -14 63 -14q20 0 31 9t20 32h45v-297h-51q-23 66 -43.5 101.5t-52.5 66.5q-68 65 -154 65q-58 0 -96.5 -34 t-38.5 -85q0 -53 46.5 -95t150.5 -85q154 -64 218 -137t64 -182q0 -138 -88 -225t-227 -87q-43 0 -110 14t-111 33q-33 13 -47 13q-13 0 -24.5 -12.5t-29.5 -45.5h-51zM207 -410l33 76l12 -4q74 -24 108 -24q119 0 119 83q0 35 -25 54.5t-69 19.5q-26 0 -57 -8l-23 16 l88 197h86l-57 -131q31 10 65 10q86 0 134.5 -38t48.5 -105q0 -85 -71 -133.5t-193 -48.5q-98 0 -199 36z" />
<glyph unicode="&#x160;" horiz-adv-x="1138" d="M72 -39v508h59q27 -110 53 -173.5t70 -119.5q117 -147 295 -147q118 0 188 62.5t70 168.5q0 98 -117 180q-20 14 -43 27.5t-51.5 28.5t-48 24.5t-56 27.5t-51.5 25q-121 58 -194.5 115.5t-114.5 135.5t-41 180q0 194 119.5 302.5t329.5 108.5q113 0 239 -47 q55 -18 86 -18q28 0 42 13.5t24 53.5h61v-446h-57q-31 100 -61 156t-82 110q-112 115 -252 115q-104 0 -165 -56.5t-61 -146.5q0 -74 43.5 -121.5t167.5 -112.5q39 -21 142 -73t161 -84q101 -56 162.5 -151.5t61.5 -209.5q0 -194 -140.5 -315t-367.5 -121q-127 0 -267 49 q-67 21 -83 21q-25 0 -39 -15.5t-23 -54.5h-59zM229 1872h117l227 -203l228 203h119l-252 -361h-189z" />
<glyph unicode="&#x161;" horiz-adv-x="796" d="M45 1442h117l227 -203l227 203h119l-252 -361h-188zM51 -27v338h58q65 -270 280 -270q69 0 111.5 36.5t42.5 96.5q0 50 -45.5 91t-151.5 87q-154 66 -222.5 141t-68.5 177q0 129 91.5 214t230.5 85q71 0 160 -31q46 -14 63 -14q20 0 31 9t20 32h45v-297h-51 q-23 66 -43.5 101.5t-52.5 66.5q-68 65 -154 65q-58 0 -96.5 -34t-38.5 -85q0 -53 46.5 -95t150.5 -85q154 -64 218 -137t64 -182q0 -138 -88 -225t-227 -87q-43 0 -110 14t-111 33q-33 13 -47 13q-13 0 -24.5 -12.5t-29.5 -45.5h-51z" />
<glyph unicode="&#x162;" horiz-adv-x="1366" d="M63 973l7 411h1228l5 -411h-60q-26 183 -115 261.5t-278 84.5v-1079q0 -63 5.5 -94.5t29 -53.5t59 -29t107.5 -12v-51h-316l-57 -131q31 10 65 10q86 0 134.5 -38t48.5 -105q0 -85 -71 -133.5t-193 -48.5q-98 0 -199 36l33 76l12 -4q74 -24 108 -24q119 0 119 83 q0 35 -25 54.5t-69 19.5q-26 0 -57 -8l-23 16l88 197h-330v51q70 6 106 13.5t59 29.5t28.5 53.5t5.5 92.5v1079q-190 -6 -279.5 -84.5t-115.5 -261.5h-60z" />
<glyph unicode="&#x163;" horiz-adv-x="681" d="M39 854v55q53 36 96.5 74.5t87.5 92t73 93.5t85 121h51v-346h195v-90h-195v-610q0 -63 19 -93t61 -30q32 0 59 25t58 83l51 -22q-60 -121 -126 -174t-161 -58l-47 -106q31 10 66 10q86 0 134 -37.5t48 -105.5q0 -85 -71 -133.5t-193 -48.5q-98 0 -199 36l33 76l12 -4 q74 -24 109 -24q118 0 118 83q0 35 -25 54.5t-69 19.5q-26 0 -57 -8l-23 16l80 179q-76 18 -119 73t-43 140v659h-108z" />
<glyph unicode="&#x164;" horiz-adv-x="1366" d="M63 973l7 411h1228l5 -411h-60q-26 183 -115 261.5t-278 84.5v-1079q0 -63 5.5 -94.5t29 -53.5t59 -29t107.5 -12v-51h-732v51q70 6 106 13.5t59 29.5t28.5 53.5t5.5 92.5v1079q-190 -6 -279.5 -84.5t-115.5 -261.5h-60zM338 1872h117l227 -203l227 203h119l-252 -361 h-188z" />
<glyph unicode="&#x165;" horiz-adv-x="849" d="M39 854v55q53 36 96.5 74.5t87.5 92t73 93.5t85 121h51v-346h123v-90h-123v-610q0 -63 19 -93t61 -30q32 0 59 25t58 83l51 -22q-63 -126 -132 -179t-171 -53q-106 0 -168 59t-62 161v659h-108zM535 1278q0 79 47.5 126.5t124.5 47.5q96 0 150 -64t54 -174 q0 -134 -82 -245t-258 -203l-22 45q223 153 223 272q0 19 -11 31t-28 12q-6 0 -22 -2t-27 -2q-66 0 -107.5 43t-41.5 113z" />
<glyph unicode="&#x166;" horiz-adv-x="1366" d="M63 973l7 411h1228l5 -411h-60q-26 183 -115 261.5t-278 84.5v-590h225v-70h-225v-419q0 -63 5.5 -94.5t29 -53.5t59 -29t107.5 -12v-51h-732v51q70 6 106 13.5t59 29.5t28.5 53.5t5.5 92.5v419h-233v70h233v590q-190 -6 -279.5 -84.5t-115.5 -261.5h-60z" />
<glyph unicode="&#x167;" horiz-adv-x="681" d="M35 469v115h112v270h-108v55q53 36 96.5 74.5t87.5 92t73 93.5t85 121h51v-346h195v-90h-195v-270h189v-115h-189v-225q0 -63 19 -93t61 -30q32 0 59 25t58 83l51 -22q-63 -126 -132 -179t-171 -53q-106 0 -168 59t-62 161v274h-112z" />
<glyph unicode="&#x168;" horiz-adv-x="1478" d="M33 1333v51h688v-51q-85 -6 -123.5 -22.5t-55 -57.5t-16.5 -127v-651q0 -212 74 -313t225 -101q361 0 361 455v614q0 111 -41.5 152.5t-157.5 50.5v51h449v-51q-98 -15 -129 -49t-31 -125v-643q0 -153 -40.5 -267.5t-115.5 -174.5q-65 -53 -166 -83t-211 -30 q-238 0 -378 111q-88 69 -126 161t-38 240v664q0 65 -5 99t-26 55.5t-49.5 28.5t-87.5 13zM426 1559q28 132 85.5 194t152.5 62q64 0 149 -39l82 -37q55 -25 80 -25q41 0 65.5 22.5t44.5 78.5h89q-35 -133 -93.5 -197t-144.5 -64q-62 0 -133 29l-60 27q-66 30 -88 37.5 t-43 7.5q-39 0 -66.5 -26.5t-33.5 -69.5h-86z" />
<glyph unicode="&#x169;" horiz-adv-x="1138" d="M33 895v49h385v-684q0 -84 28.5 -120t85.5 -36q44 0 82.5 22t85.5 75v565q0 70 -25 96.5t-100 32.5v49h410v-729q0 -68 25 -96t92 -31v-47l-129 -14q-102 -11 -154 -21t-117 -33v133q-79 -75 -145 -105t-151 -30q-128 0 -200.5 77.5t-72.5 219.5v494q0 71 -18.5 96 t-81.5 37zM170 1124q28 132 85.5 194t152.5 62q64 0 149 -39l82 -36q55 -25 80 -25q41 0 65.5 22t44.5 78h89q-35 -133 -93.5 -196.5t-144.5 -63.5q-62 0 -133 29l-60 27q-66 30 -88 37.5t-43 7.5q-39 0 -66.5 -27t-33.5 -70h-86z" />
<glyph unicode="&#x16a;" horiz-adv-x="1478" d="M33 1333v51h688v-51q-85 -6 -123.5 -22.5t-55 -57.5t-16.5 -127v-651q0 -212 74 -313t225 -101q361 0 361 455v614q0 111 -41.5 152.5t-157.5 50.5v51h449v-51q-98 -15 -129 -49t-31 -125v-643q0 -153 -40.5 -267.5t-115.5 -174.5q-65 -53 -166 -83t-211 -30 q-238 0 -378 111q-88 69 -126 161t-38 240v664q0 65 -5 99t-26 55.5t-49.5 28.5t-87.5 13zM379 1511v148h676v-148h-676z" />
<glyph unicode="&#x16b;" horiz-adv-x="1138" d="M33 895v49h385v-684q0 -84 28.5 -120t85.5 -36q44 0 82.5 22t85.5 75v565q0 70 -25 96.5t-100 32.5v49h410v-729q0 -68 25 -96t92 -31v-47l-129 -14q-102 -11 -154 -21t-117 -33v133q-79 -75 -145 -105t-151 -30q-128 0 -200.5 77.5t-72.5 219.5v494q0 71 -18.5 96 t-81.5 37zM195 1081v148h675v-148h-675z" />
<glyph unicode="&#x16c;" horiz-adv-x="1478" d="M33 1333v51h688v-51q-85 -6 -123.5 -22.5t-55 -57.5t-16.5 -127v-651q0 -212 74 -313t225 -101q361 0 361 455v614q0 111 -41.5 152.5t-157.5 50.5v51h449v-51q-98 -15 -129 -49t-31 -125v-643q0 -153 -40.5 -267.5t-115.5 -174.5q-65 -53 -166 -83t-211 -30 q-238 0 -378 111q-88 69 -126 161t-38 240v664q0 65 -5 99t-26 55.5t-49.5 28.5t-87.5 13zM449 1845h90q36 -178 209 -178q97 0 151 40.5t80 137.5h90q-11 -153 -88 -243.5t-223 -90.5q-149 0 -228 90.5t-81 243.5z" />
<glyph unicode="&#x16d;" horiz-adv-x="1138" d="M33 895v49h385v-684q0 -84 28.5 -120t85.5 -36q44 0 82.5 22t85.5 75v565q0 70 -25 96.5t-100 32.5v49h410v-729q0 -68 25 -96t92 -31v-47l-129 -14q-102 -11 -154 -21t-117 -33v133q-79 -75 -145 -105t-151 -30q-128 0 -200.5 77.5t-72.5 219.5v494q0 71 -18.5 96 t-81.5 37zM203 1415h90q36 -178 209 -178q97 0 151 40.5t80 137.5h90q-11 -153 -88 -243.5t-223 -90.5q-149 0 -228 90.5t-81 243.5z" />
<glyph unicode="&#x16e;" horiz-adv-x="1478" d="M33 1333v51h688v-51q-85 -6 -123.5 -22.5t-55 -57.5t-16.5 -127v-651q0 -212 74 -313t225 -101q361 0 361 455v614q0 111 -41.5 152.5t-157.5 50.5v51h449v-51q-98 -15 -129 -49t-31 -125v-643q0 -153 -40.5 -267.5t-115.5 -174.5q-65 -53 -166 -83t-211 -30 q-238 0 -378 111q-88 69 -126 161t-38 240v664q0 65 -5 99t-26 55.5t-49.5 28.5t-87.5 13zM532 1696q0 89 65.5 154t156.5 65q88 0 151.5 -63t63.5 -152q0 -91 -63.5 -156t-153.5 -65q-93 0 -156.5 62.5t-63.5 154.5zM631 1698q0 -49 35 -85t82 -36q52 0 87 33.5t35 83.5 q0 52 -36.5 87.5t-88.5 35.5q-44 0 -79 -36t-35 -83z" />
<glyph unicode="&#x16f;" horiz-adv-x="1138" d="M33 895v49h385v-684q0 -84 28.5 -120t85.5 -36q44 0 82.5 22t85.5 75v565q0 70 -25 96.5t-100 32.5v49h410v-729q0 -68 25 -96t92 -31v-47l-129 -14q-102 -11 -154 -21t-117 -33v133q-79 -75 -145 -105t-151 -30q-128 0 -200.5 77.5t-72.5 219.5v494q0 71 -18.5 96 t-81.5 37zM336 1296q0 90 65 155t156 65q88 0 151.5 -63.5t63.5 -152.5q0 -91 -63.5 -156t-153.5 -65q-92 0 -155.5 62.5t-63.5 154.5zM434 1298q0 -49 35 -84.5t82 -35.5q52 0 87.5 33t35.5 83q0 52 -36.5 87.5t-88.5 35.5q-45 0 -80 -36t-35 -83z" />
<glyph unicode="&#x170;" horiz-adv-x="1478" d="M33 1333v51h688v-51q-85 -6 -123.5 -22.5t-55 -57.5t-16.5 -127v-651q0 -212 74 -313t225 -101q361 0 361 455v614q0 111 -41.5 152.5t-157.5 50.5v51h449v-51q-98 -15 -129 -49t-31 -125v-643q0 -153 -40.5 -267.5t-115.5 -174.5q-65 -53 -166 -83t-211 -30 q-238 0 -378 111q-88 69 -126 161t-38 240v664q0 65 -5 99t-26 55.5t-49.5 28.5t-87.5 13zM315 1511l279 322q51 57 111 57q44 0 71 -25t27 -65q0 -36 -16.5 -59t-65.5 -53l-289 -177h-117zM725 1511l279 322q51 57 110 57q44 0 71 -25t27 -65q0 -36 -16.5 -59t-65.5 -53 l-288 -177h-117z" />
<glyph unicode="&#x171;" horiz-adv-x="1138" d="M33 895v49h385v-684q0 -84 28.5 -120t85.5 -36q44 0 82.5 22t85.5 75v565q0 70 -25 96.5t-100 32.5v49h410v-729q0 -68 25 -96t92 -31v-47l-129 -14q-102 -11 -154 -21t-117 -33v133q-79 -75 -145 -105t-151 -30q-128 0 -200.5 77.5t-72.5 219.5v494q0 71 -18.5 96 t-81.5 37zM106 1081l279 322q51 57 111 57q44 0 71 -25t27 -65q0 -36 -16.5 -59.5t-65.5 -53.5l-289 -176h-117zM516 1081l279 322q51 57 110 57q44 0 71.5 -25t27.5 -65q0 -36 -16.5 -59.5t-65.5 -53.5l-289 -176h-117z" />
<glyph unicode="&#x172;" horiz-adv-x="1478" d="M33 1333v51h688v-51q-85 -6 -123.5 -22.5t-55 -57.5t-16.5 -127v-651q0 -212 74 -313t225 -101q361 0 361 455v614q0 111 -41.5 152.5t-157.5 50.5v51h449v-51q-98 -15 -129 -49t-31 -125v-643q0 -153 -40.5 -267.5t-115.5 -174.5q-64 -52 -168 -84q0 -1 -1 -3t-1 -3 q-22 -81 -22 -131q0 -71 29 -101.5t96 -30.5q43 0 98 27q12 6 27 16l47 -32q-37 -69 -110.5 -110.5t-147.5 -41.5q-95 0 -153 44t-58 116q0 58 23 105.5t87 121.5l4 4q-68 -10 -127 -10q-238 0 -378 111q-88 69 -126 161t-38 240v664q0 65 -5 99t-26 55.5t-49.5 28.5 t-87.5 13z" />
<glyph unicode="&#x173;" horiz-adv-x="1138" d="M33 895v49h385v-684q0 -84 28.5 -120t85.5 -36q44 0 82.5 22t85.5 75v565q0 70 -25 96.5t-100 32.5v49h410v-729q0 -68 25 -96t92 -31v-47l-129 -14q-102 -11 -154 -21t-117 -33v133q-79 -75 -145 -105t-151 -30q-128 0 -200.5 77.5t-72.5 219.5v494q0 71 -18.5 96 t-81.5 37zM651 -260q0 58 23.5 105t87.5 122q9 11 17.5 20t11.5 13l67 25q0 -2 -12 -41q-23 -84 -23 -131q0 -71 29 -101.5t96 -30.5q44 0 99 27q8 4 26 16l47 -32q-37 -69 -110.5 -110.5t-147.5 -41.5q-95 0 -153 44t-58 116z" />
<glyph unicode="&#x174;" horiz-adv-x="2048" d="M39 1333v51h602v-51q-79 -6 -105 -23.5t-26 -62.5q0 -26 14 -67l246 -746l242 631l-72 197q-13 37 -47 52.5t-100 18.5v51h639v-51l-27 -2q-67 -4 -94 -20.5t-27 -53.5q0 -26 29 -114l221 -688l229 702q15 43 15 86q0 48 -29.5 67t-112.5 23v51h373v-51 q-101 -9 -141 -131l-410 -1233h-55l-350 977l-381 -977h-58l-434 1233q-26 75 -51.5 98.5t-89.5 32.5zM709 1511l249 361h189l252 -361h-117l-229 201l-230 -201h-114z" />
<glyph unicode="&#x175;" horiz-adv-x="1478" d="M47 895v49h455v-49q-43 -6 -60.5 -18.5t-17.5 -38.5q0 -25 70 -209l3 -9t3 -8.5t4 -9.5l92 -242l139 351q-6 18 -12 39q-12 40 -17 57.5t-14 37.5t-14 25.5t-18 12.5t-23.5 8.5t-34.5 3.5v49h479v-49q-59 -5 -78.5 -14.5t-19.5 -34.5q0 -31 55 -217q50 -176 70 -260 l72 192q13 35 31.5 84.5t26.5 71t17 47.5t12 38.5t3 20.5q0 35 -21 50.5t-78 21.5v49h277v-49q-40 -7 -61 -28.5t-41 -73.5l-318 -822h-47l-209 635l-256 -635h-49l-303 766q-39 97 -58.5 124t-58.5 34zM428 1081l250 361h188l252 -361h-117l-229 201l-229 -201h-115z" />
<glyph unicode="&#x176;" horiz-adv-x="1478" d="M31 1333v51h686v-51l-55 -4q-66 -5 -88.5 -15.5t-22.5 -43.5q0 -29 49 -121l246 -475l223 364q84 139 84 209q0 44 -34 61.5t-138 24.5v51h451v-51q-99 -14 -140 -80l-391 -637v-364q0 -63 6 -97.5t28 -57.5t56.5 -31.5t98.5 -14.5v-51h-711v51q65 5 101.5 16t57 37.5 t26 60.5t5.5 97v279l-368 671q-30 54 -74 86t-96 35zM422 1511l250 361h188l252 -361h-117l-229 201l-229 -201h-115z" />
<glyph unicode="&#x177;" horiz-adv-x="1024" d="M33 -258q0 60 34.5 98.5t92.5 38.5q52 0 87.5 -31t35.5 -75q0 -9 -4 -29l-3 -12q0 -14 11 -24.5t24 -10.5q36 0 72 45.5t63 122.5l37 108l-243 594q-31 78 -78 179t-60 120q-16 22 -69 29v49h510v-49l-33 -2q-74 -6 -74 -51q0 -17 41 -119l148 -381l139 385q22 65 22 100 q0 37 -22.5 51t-87.5 17v49h311v-49q-49 -6 -74 -27.5t-49 -85.5l-303 -815q-92 -247 -158 -319q-65 -68 -172 -68q-88 0 -143 45t-55 117zM168 1081l250 361h188l252 -361h-117l-229 201l-229 -201h-115z" />
<glyph unicode="&#x178;" horiz-adv-x="1478" d="M31 1333v51h686v-51l-55 -4q-66 -5 -88.5 -15.5t-22.5 -43.5q0 -29 49 -121l246 -475l223 364q84 139 84 209q0 44 -34 61.5t-138 24.5v51h451v-51q-99 -14 -140 -80l-391 -637v-364q0 -63 6 -97.5t28 -57.5t56.5 -31.5t98.5 -14.5v-51h-711v51q65 5 101.5 16t57 37.5 t26 60.5t5.5 97v279l-368 671q-30 54 -74 86t-96 35zM389 1663q0 53 39.5 92t93.5 39q53 0 92 -40t39 -95q0 -54 -38 -91.5t-95 -37.5q-54 0 -92.5 39t-38.5 94zM819 1663q0 54 38.5 92.5t92.5 38.5t93.5 -40t39.5 -95q0 -54 -39 -91.5t-96 -37.5q-54 0 -91.5 38.5 t-37.5 94.5z" />
<glyph unicode="&#x179;" horiz-adv-x="1366" d="M57 0v33l783 1276l-170 -2q-100 -1 -164 -10t-117.5 -29t-89 -60.5t-64 -98t-57.5 -148.5h-57l45 423h1071v-32l-776 -1280h170q296 0 413 82q28 20 50 40t41 48.5t30 46.5t27.5 61t24.5 64.5t28 81.5h53l-55 -496h-1186zM512 1511l281 322q51 57 108 57q44 0 71 -25 t27 -65q0 -35 -15.5 -56t-65.5 -52l-291 -181h-115z" />
<glyph unicode="&#x17a;" horiz-adv-x="909" d="M43 0v51l479 828q-92 0 -148 -5.5t-99.5 -17.5t-68.5 -40t-42 -64t-33 -99h-53l14 291h760v-53l-473 -825h59q125 0 187.5 25t113.5 95q42 63 64 142h57l-33 -328h-784zM311 1081l281 322q51 57 108 57q44 0 71.5 -25t27.5 -65q0 -35 -16 -56t-66 -52l-291 -181h-115z " />
<glyph unicode="&#x17b;" horiz-adv-x="1366" d="M57 0v33l783 1276l-170 -2q-100 -1 -164 -10t-117.5 -29t-89 -60.5t-64 -98t-57.5 -148.5h-57l45 423h1071v-32l-776 -1280h170q296 0 413 82q28 20 50 40t41 48.5t30 46.5t27.5 61t24.5 64.5t28 81.5h53l-55 -496h-1186zM578 1663q0 54 38.5 92.5t92.5 38.5t93.5 -40 t39.5 -95q0 -54 -39 -91.5t-96 -37.5q-54 0 -91.5 38.5t-37.5 94.5z" />
<glyph unicode="&#x17c;" horiz-adv-x="909" d="M43 0v51l479 828q-92 0 -148 -5.5t-99.5 -17.5t-68.5 -40t-42 -64t-33 -99h-53l14 291h760v-53l-473 -825h59q125 0 187.5 25t113.5 95q42 63 64 142h57l-33 -328h-784zM356 1233q0 54 38.5 92.5t92.5 38.5t94 -40t40 -95q0 -54 -39.5 -91.5t-96.5 -37.5 q-54 0 -91.5 38.5t-37.5 94.5z" />
<glyph unicode="&#x17d;" horiz-adv-x="1366" d="M57 0v33l783 1276l-170 -2q-100 -1 -164 -10t-117.5 -29t-89 -60.5t-64 -98t-57.5 -148.5h-57l45 423h1071v-32l-776 -1280h170q296 0 413 82q28 20 50 40t41 48.5t30 46.5t27.5 61t24.5 64.5t28 81.5h53l-55 -496h-1186zM373 1872h116l228 -203l227 203h119l-252 -361 h-188z" />
<glyph unicode="&#x17e;" horiz-adv-x="909" d="M43 0v51l479 828q-92 0 -148 -5.5t-99.5 -17.5t-68.5 -40t-42 -64t-33 -99h-53l14 291h760v-53l-473 -825h59q125 0 187.5 25t113.5 95q42 63 64 142h57l-33 -328h-784zM131 1442h117l227 -203l227 203h119l-252 -361h-188z" />
<glyph unicode="&#x17f;" horiz-adv-x="681" d="M29 0v49q70 7 93 33t23 96v676h-84v90h84q0 134 17 221.5t65 145.5q84 104 277 104q130 0 211.5 -57t81.5 -148q0 -57 -35 -94t-92 -37q-52 0 -87.5 34.5t-35.5 82.5q0 31 11.5 54t22.5 37.5t11 25.5q0 39 -60 39q-56 0 -79 -36t-23 -126v-971q0 -101 31 -134t137 -36 v-49h-569z" />
<glyph unicode="&#x180;" horiz-adv-x="1132" d="M-57 1055v94h194v80q0 59 -19 75.5t-93 30.5v49h397v-235h264v-94h-264v-201q58 61 116.5 88t133.5 27q171 0 278 -133.5t107 -346.5q0 -230 -128.5 -374t-334.5 -144q-77 0 -138.5 26.5t-131.5 90.5l-162 -115h-25v1082h-194zM422 199q0 -74 38.5 -118t102.5 -44 q98 0 145.5 101.5t47.5 314.5q0 405 -191 405q-51 0 -83 -27.5t-60 -93.5v-538z" />
<glyph unicode="&#x188;" horiz-adv-x="1163" d="M61 455q0 112 38 208.5t103 163t154.5 104.5t190.5 38q77 0 141 -23q0 36 10 78q14 62 74.5 109t132.5 47q111 0 191 -55.5t80 -151.5q0 -56 -34.5 -92.5t-90.5 -36.5q-52 0 -87.5 34.5t-35.5 82.5q0 31 11 54t22.5 37t11.5 25q0 39 -51 39q-131 0 -131 -112v-113 q71 -62 71 -148q0 -60 -37.5 -95.5t-101.5 -35.5q-53 0 -84 39t-31 111q0 36 -0.5 52.5t-5 38.5t-13.5 30.5t-25.5 15t-41.5 6.5q-77 0 -124.5 -91.5t-47.5 -254.5q0 -210 76 -330t209 -120q64 0 113.5 25t105.5 89l37 -37q-84 -115 -175.5 -165t-215.5 -50 q-194 0 -316.5 133t-122.5 351z" />
<glyph unicode="&#x190;" horiz-adv-x="1249" d="M78 358q0 130 70 229.5t194 137.5q-51 27 -81 45t-65 45.5t-53 55t-30.5 66t-12.5 85.5q0 77 33 141.5t87 108t125.5 74t146.5 44.5t151 15q130 0 225 -31q89 -30 153 -89t64 -126q0 -59 -28 -99t-88 -40q-62 0 -93.5 36.5t-52.5 127.5q-11 52 -55 82t-119 30 q-118 0 -175.5 -80t-57.5 -245q0 -187 178 -187q51 0 125 11.5t100 11.5q45 0 78 -17t33 -51q0 -41 -54 -68.5t-104 -27.5q-13 0 -91 5t-95 5q-92 0 -141.5 -71.5t-49.5 -202.5q0 -246 281 -246q50 0 80.5 1t75 5.5t73.5 13t64 24.5t59.5 39.5t47.5 59t38 80.5l88 -24 q-33 -102 -89.5 -171.5t-134.5 -105t-159 -49.5t-184 -14q-77 0 -150.5 10.5t-148.5 37t-131 67t-91.5 105.5t-35.5 146z" />
<glyph unicode="&#x192;" horiz-adv-x="1024" d="M0 -158q0 53 31 85t82 32q47 0 77.5 -28t30.5 -72q0 -31 -22 -58q-15 -18 -15 -24q0 -14 13 -23.5t32 -9.5q57 0 93.5 63.5t39.5 167.5l27 832h-237v94h245q26 156 59 249.5t87 162.5q103 133 268 133q95 0 152 -44t57 -116q0 -54 -32 -89.5t-79 -35.5q-44 0 -76 28 t-32 66q0 35 26 76q11 18 11 25q0 11 -14 19.5t-33 8.5q-132 0 -132 -299v-184h250v-94h-250q-22 -366 -28 -446.5t-17 -147.5q-41 -258 -150.5 -394t-273.5 -136q-88 0 -139 43t-51 116z" />
<glyph unicode="&#x195;" horiz-adv-x="1632" d="M29 1335v49h395v-573q72 86 144 122t157 36q124 0 195 -77.5t71 -201.5v-432q0 -68 45 -122t109 -54q70 0 130.5 37t99.5 95.5t61 127.5t22 135q0 59 -11 107.5t-25 78t-38 55.5t-39 37t-38 25q-43 27 -61.5 47.5t-18.5 51.5q0 34 28.5 53.5t71.5 19.5q55 0 99.5 -34 t70.5 -84t43.5 -112t24 -111.5t6.5 -88.5q0 -102 -31 -198t-88.5 -173.5t-149.5 -124t-204 -46.5q-80 0 -148.5 17t-124 51.5t-87 93.5t-31.5 137v385q0 90 -24.5 128.5t-80.5 38.5q-74 0 -143 -69q-35 -35 -35 -49v-539q0 -64 21 -91t77 -34v-49h-491v49q31 6 40.5 8 t27.5 9t21.5 13.5t10 21t7.5 33t1 48.5v1028q0 71 -18.5 91t-91.5 34z" />
<glyph unicode="&#x199;" horiz-adv-x="1091" d="M25 0v49q51 5 74.5 34t23.5 89v823q0 214 84 316q84 104 276 104q130 0 210.5 -57t80.5 -148q0 -58 -34.5 -94.5t-90.5 -36.5q-52 0 -87.5 34.5t-35.5 82.5q0 31 11 54t22.5 37.5t11.5 25.5q0 39 -59 39q-54 0 -79 -33t-25 -113v-704l262 262q17 17 30 40.5t13 37.5 q0 21 -16.5 32t-55.5 15l-49 6v49h438v-49q-97 -12 -165.5 -59t-221.5 -207l397 -549q13 -19 24 -25t28 -6v-49h-480v49q86 3 86 39q0 24 -49 92l-194 275l-47 -49v-234q0 -72 17 -92.5t89 -30.5v-49h-489z" />
<glyph unicode="&#x19a;" horiz-adv-x="595" d="M49 1335v49h391v-593h99v-95h-99v-518q0 -68 25 -97.5t78 -31.5v-49h-492v49q54 5 79.5 34t25.5 95v518h-101v95h101v411q0 58 -27 93.5t-80 39.5z" />
<glyph unicode="&#x19b;" horiz-adv-x="1097" d="M123 0v49q54 7 70 29q13 18 59 119t78 180l243 594l-18 49l-393 -322v138l356 286q-54 125 -117 125q-13 0 -23.5 -10.5t-10.5 -24.5q0 -4 3 -20t3 -21q0 -44 -35.5 -75t-87.5 -31q-58 0 -92.5 38.5t-34.5 98.5q0 72 55.5 117t143.5 45q94 0 151 -49t100 -148l234 197 v-139l-191 -156l338 -907q24 -64 49 -85.5t74 -27.5v-49h-311v49q66 3 88.5 17t22.5 51q0 32 -23 100l-139 385l-148 -381q-41 -102 -41 -119q0 -45 74 -51l33 -2v-49h-510z" />
<glyph unicode="&#x19e;" horiz-adv-x="1144" d="M43 0v49q68 13 88.5 38t20.5 91v592q0 66 -21 90.5t-88 34.5v49h391v-153h2q101 178 291 178q126 0 201.5 -79t75.5 -212v-926q0 -69 20 -94t80 -29v-49h-479v49q52 6 73 33.5t21 89.5v905q0 174 -105 174q-74 0 -143 -69q-35 -35 -35 -49v-541q0 -59 21.5 -87.5 t77.5 -35.5v-49h-492z" />
<glyph unicode="&#x1a0;" horiz-adv-x="1593" d="M72 684q0 215 94.5 382t262 258t378.5 91q284 0 479 -176q40 -8 62 -8q62 0 88 10t26 43q-84 53 -84 115q0 36 30.5 68t78.5 32q53 0 90 -36.5t37 -100.5q0 -66 -41 -109t-107 -57q-45 -10 -116 -10h-11q88 -97 135.5 -225t47.5 -275q0 -210 -93 -375.5t-258.5 -257.5 t-375.5 -92q-209 0 -374 92t-257 257t-92 374zM434 676q0 -321 94 -484t271 -163t268.5 163.5t91.5 479.5q0 327 -95.5 501.5t-275.5 174.5q-169 0 -261.5 -175t-92.5 -497z" />
<glyph unicode="&#x1a1;" horiz-adv-x="1134" d="M51 467q0 222 132.5 362t336.5 140q113 0 210.5 -52.5t154.5 -142.5q32 -8 41 -8q47 0 74.5 10.5t27.5 42.5q-84 53 -84 115q0 36 30.5 68t78.5 32q53 0 90 -36.5t37 -100.5q0 -66 -41 -109t-107 -57q-45 -10 -114 -10q57 -114 57 -252q0 -216 -132 -357t-331 -141 q-95 0 -180 37t-147 101.5t-98 157.5t-36 200zM352 446q0 -224 36.5 -317.5t125.5 -93.5t124.5 91t35.5 320q0 178 -15 276t-49 140.5t-96 42.5q-64 0 -98.5 -43t-49 -140t-14.5 -276z" />
<glyph unicode="&#x1a5;" horiz-adv-x="1126" d="M20 -371q72 12 93.5 37.5t21.5 91.5v1223q0 192 82 293q84 104 277 104q130 0 210 -56.5t80 -147.5q0 -58 -34.5 -95t-90.5 -37q-52 0 -87 34.5t-35 82.5q0 31 11.5 54t22.5 37.5t11 25.5q0 39 -60 39q-55 0 -78.5 -36t-23.5 -116v-354q50 88 111.5 124t152.5 36 q173 0 272 -118.5t99 -340.5q0 -241 -105.5 -389t-287.5 -148q-69 0 -118.5 25.5t-123.5 97.5v-258q0 -107 34 -156t124 -53v-49h-558v49zM420 219q24 -60 66 -96.5t92 -36.5q87 0 130.5 93t43.5 300q0 373 -156 373q-75 0 -139 -76q-37 -43 -37 -67v-490z" />
<glyph unicode="&#x1aa;" horiz-adv-x="913" d="M51 1176q0 94 75 164.5t177 70.5q78 0 142.5 -35t104.5 -91.5t61.5 -126t21.5 -142.5q0 -99 -4 -148l-82 -878q-6 -70 -6 -197q0 -37 2 -62.5t10 -61.5t28 -55.5t52 -19.5q18 0 32.5 9t14.5 20q0 5 -18.5 37.5t-18.5 60.5q0 39 31.5 68t77.5 29q49 0 79.5 -36t30.5 -89 q0 -74 -60 -117t-167 -43q-173 0 -268 108t-95 281q0 76 4 121l74 745q1 10 15 166q-34 -12 -91 -12q-92 0 -157.5 68.5t-65.5 165.5zM150 1176q0 -48 34.5 -83.5t83.5 -35.5q51 0 86 34.5t35 82.5q0 51 -37 86.5t-86 35.5t-82.5 -36t-33.5 -84z" />
<glyph unicode="&#x1ab;" horiz-adv-x="710" d="M37 854v55q53 36 96.5 74.5t87.5 92t73 93.5t85 121h51v-346h195v-90h-195v-610q0 -63 19 -93t61 -30q32 0 59 25t58 83l51 -22v-381q0 -51 -13 -97.5t-40 -86.5t-75 -64t-110 -24q-126 0 -189 54.5t-63 149.5q0 58 34.5 94.5t90.5 36.5q52 0 87.5 -34t35.5 -82 q0 -31 -11 -54t-22.5 -37.5t-11.5 -25.5q0 -39 60 -39q22 0 44.5 8.5t44 26.5t35 51t13.5 76v289q-79 -93 -213 -93q-106 0 -168 59t-62 161v659h-108z" />
<glyph unicode="&#x1ad;" horiz-adv-x="759" d="M39 854v55q55 36 108 86q3 217 82 316q84 104 277 104q130 0 210.5 -57t80.5 -148q0 -58 -34.5 -94.5t-90.5 -36.5q-52 0 -87.5 34.5t-35.5 82.5q0 31 11.5 54t22.5 37.5t11 25.5q0 39 -59 39q-56 0 -79.5 -36t-23.5 -126v-246h195v-90h-195v-610q0 -63 19 -93t61 -30 q32 0 59 25t58 83l51 -22q-63 -126 -132 -179t-171 -53q-106 0 -168 59t-62 161v659h-108z" />
<glyph unicode="&#x1af;" horiz-adv-x="1630" d="M33 1333v51h688v-51q-85 -6 -123.5 -22.5t-55 -57.5t-16.5 -127v-651q0 -212 74 -313t225 -101q361 0 361 455v614q0 111 -41.5 152.5t-157.5 50.5v51h455q26 0 51 5t46 19t22 36q-84 53 -84 115q0 41 31 70.5t81 29.5q49 0 86 -34.5t37 -98.5q0 -131 -164 -170 q-55 -11 -139 -27q-81 -15 -107 -49.5t-26 -120.5v-643q0 -153 -40.5 -267.5t-115.5 -174.5q-65 -53 -166 -83t-211 -30q-238 0 -378 111q-88 69 -126 161t-38 240v664q0 65 -5 99t-26 55.5t-49.5 28.5t-87.5 13z" />
<glyph unicode="&#x1b0;" horiz-adv-x="1228" d="M33 895v49h385v-684q0 -84 28.5 -120t85.5 -36q44 0 82.5 22t85.5 75v565q0 70 -25 96.5t-100 32.5v49h420q48 0 89 12.5t44 36.5l-2 17q-5 3 -21 14t-21 14.5t-15.5 14t-14 19t-7 22.5t-3.5 32q0 33 32 64t79 31q54 0 90.5 -33.5t36.5 -97.5q0 -68 -38.5 -114 t-108.5 -65q-56 -16 -127 -16h-23v-680q0 -68 25 -96t92 -31v-47l-129 -14q-102 -11 -154 -21t-117 -33v133q-79 -75 -145 -105t-151 -30q-128 0 -200.5 77.5t-72.5 219.5v494q0 71 -18.5 96t-81.5 37z" />
<glyph unicode="&#x1ba;" horiz-adv-x="903" d="M18 602l70 320h762v-56l-393 -342q31 8 90 8q137 0 220 -71.5t83 -184.5q0 -64 -42 -128.5t-103 -98.5l-322 -184q-47 -27 -73.5 -67t-26.5 -87q0 -52 48 -86.5t103 -34.5q52 0 93 29t48 74q24 137 138 137q61 0 91 -30t30 -72q0 -88 -97 -146q-49 -29 -131 -48t-157 -19 q-139 0 -232 59q-63 41 -88 97.5t-25 107.5q0 85 40.5 142t119.5 106q59 37 258 143q32 17 50 42.5t18 76.5q0 53 -50.5 82.5t-123.5 29.5q-127 0 -223 -96l-56 49l471 418h-387q-42 0 -90.5 -47.5t-58.5 -122.5h-54z" />
<glyph unicode="&#x1bb;" horiz-adv-x="1054" d="M55 0v47q18 19 101.5 107t115.5 124t93.5 107.5t103.5 132.5t78 125h-481v127h542q27 76 27 145q0 113 -65.5 187t-178.5 74q-84 0 -147 -51t-103 -134h-57q139 418 457 418q170 0 271 -103t101 -272q0 -143 -79 -264h174v-127h-277q-41 -46 -51 -55l-332 -316h342 q58 0 93.5 5t68.5 21.5t55 48.5t41 85h51l-94 -432h-850z" />
<glyph unicode="&#x1be;" horiz-adv-x="1079" d="M160 197q0 35 28 66.5t80 31.5q114 0 146 -123q7 -28 11 -41t13.5 -34.5t19.5 -31t27 -18t39 -8.5q38 0 66 32.5t41 84.5t18.5 99t5.5 91q0 118 -74.5 188t-170.5 70h-66v293h-131v94h131v117h107l6 -117h227v-94h-223l4 -96q29 4 63 4q92 0 168 -38.5t124 -100.5 t74 -137.5t26 -153.5q0 -180 -122.5 -287.5t-316.5 -107.5q-110 0 -209 55q-112 63 -112 162z" />
<glyph unicode="&#x1c0;" horiz-adv-x="380" d="M123 0v1516h135v-1516h-135z" />
<glyph unicode="&#x1c1;" horiz-adv-x="641" d="M123 0v1516h135v-1516h-135zM383 0v1516h135v-1516h-135z" />
<glyph unicode="&#x1c2;" horiz-adv-x="911" d="M80 532v136h311v172h-311v135h311v541h135v-541h303v-135h-303v-172h303v-136h-303v-532h-135v532h-311z" />
<glyph unicode="&#x1c3;" horiz-adv-x="681" d="M166 145q0 75 48.5 124.5t123.5 49.5q73 0 123.5 -50t50.5 -126q0 -73 -49 -121.5t-123 -48.5q-72 0 -123 50t-51 122zM168 1206q0 98 48 153.5t126 55.5q83 0 127.5 -54t44.5 -151q0 -69 -37 -186q-44 -146 -64 -250t-40 -295h-64q-20 190 -40 294t-64 251 q-37 115 -37 182z" />
<glyph unicode="&#x1f0;" horiz-adv-x="681" d="M-117 -211q0 56 35 90.5t92 34.5q51 0 86 -32.5t35 -78.5q0 -30 -29 -75q-18 -30 -18 -45t18.5 -25t47.5 -10q52 0 75 36.5t23 118.5v971q0 66 -25.5 90.5t-103.5 30.5v49h413v-940q0 -171 -55 -264q-43 -75 -122 -115.5t-185 -40.5q-126 0 -206.5 57t-80.5 148zM-4 1442 h117l227 -203l227 203h119l-252 -361h-188z" />
<glyph unicode="&#x1fa;" horiz-adv-x="1478" d="M18 0v51q71 12 108 56.5t95 189.5l420 1036q-55 19 -89 66.5t-34 109.5q0 74 56 129.5t133 55.5q72 0 127 -55t55 -128q0 -60 -34.5 -108.5t-88.5 -69.5l420 -989q77 -185 119 -239t106 -54v-51h-659v51l65 6q52 5 73 20t21 48q0 60 -94 278h-461l-26 -69 q-3 -7 -16 -38.5t-18 -46t-14 -39.5t-12.5 -43t-3.5 -32q0 -40 37.5 -59t128.5 -25v-51h-414zM387 483h399l-206 498zM467 1690l299 256q30 27 46.5 36t43.5 9q66 0 66 -68q0 -18 -10 -31.5t-24.5 -23t-47.5 -27.5q-3 -2 -5.5 -3.5t-5.5 -2.5l-270 -145h-92zM616 1509 q0 -35 25 -61.5t59 -26.5q37 0 64 25.5t27 60.5q0 38 -23.5 63t-67.5 25q-36 0 -60 -25.5t-24 -60.5z" />
<glyph unicode="&#x1fb;" horiz-adv-x="1024" d="M51 188q0 139 137 230q58 38 145.5 71t266.5 84v140q0 100 -38 145t-128 45q-58 0 -95.5 -20t-37.5 -56q0 -21 23 -47q38 -46 38 -86q0 -53 -39 -88t-100 -35q-63 0 -98 37.5t-35 102.5q0 121 107.5 189.5t283.5 68.5q189 0 295.5 -72t106.5 -203v-534q0 -58 43 -58 q13 0 22 9l21 20l30 -43q-59 -63 -111 -90t-118 -27q-75 0 -113 32t-55 110q-84 -76 -160 -109t-166 -33q-103 0 -164 54t-61 163zM250 1511l280 322q51 57 109 57q44 0 71 -25t27 -65q0 -35 -16 -56t-66 -52l-290 -181h-115zM295 1296q0 90 65.5 155t155.5 65 q88 0 151.5 -63.5t63.5 -152.5q0 -91 -63.5 -156t-153.5 -65q-92 0 -155.5 62.5t-63.5 154.5zM350 254q0 -65 30 -101t77 -36q84 0 143 82v303q-250 -69 -250 -248zM393 1298q0 -49 35 -84.5t82 -35.5q52 0 87.5 33t35.5 83q0 52 -36.5 87.5t-88.5 35.5q-45 0 -80 -36 t-35 -83z" />
<glyph unicode="&#x1fc;" horiz-adv-x="2048" d="M8 0v51q28 4 42.5 9.5t32 17.5t38 43t45 72.5t67.5 119.5l451 824q57 102 57 127q0 37 -38.5 53t-139.5 22v45h1299v-411h-52q-20 97 -38.5 145t-51.5 88q-85 107 -370 107q-82 0 -110 -12.5t-28 -49.5v-508q66 6 103.5 11t72.5 19.5t52 30.5t35 53.5t28.5 77.5t26.5 114 h47v-693h-47q-15 100 -33 156.5t-54.5 94t-88.5 52t-142 19.5v-498q0 -65 31.5 -87.5t120.5 -22.5q259 0 381 125q53 55 98.5 123.5t57.5 113.5h47l-84 -432h-1159v51q113 6 146.5 42t33.5 151v377h-389l-205 -385q-31 -58 -31 -93q0 -43 28 -61t107 -27l35 -4v-51h-422z M541 702h344v594h-15zM975 1511l280 322q51 57 109 57q44 0 71 -25t27 -65q0 -35 -16 -56t-66 -52l-290 -181h-115z" />
<glyph unicode="&#x1fd;" horiz-adv-x="1478" d="M68 193q0 64 29 113t91 102q54 45 142 83.5t276 92.5v153q0 89 -37 127.5t-123 38.5q-58 0 -95.5 -20.5t-37.5 -51.5q0 -17 25 -45q21 -24 28 -41.5t7 -46.5q0 -57 -38 -92t-99 -35q-63 0 -98.5 40t-35.5 102q0 109 107 182.5t270 73.5q100 0 168.5 -24.5t118.5 -80.5 q51 57 113 81t147 24q116 0 206 -54.5t134 -152.5q25 -53 34 -106.5t9 -147.5h-520v-47q0 -173 54 -254.5t181 -81.5q75 0 134.5 32.5t119.5 106.5l43 -31q-91 -138 -187.5 -194.5t-242.5 -56.5q-101 0 -175.5 40t-125.5 132h-12q-81 -99 -171 -141t-198 -42 q-118 0 -179.5 56.5t-61.5 165.5zM362 246q0 -146 117 -146q37 0 63.5 14t63.5 52v342q-135 -50 -189.5 -108t-54.5 -154zM522 1081l281 322q51 57 108 57q44 0 71.5 -25t27.5 -65q0 -35 -16 -56t-66 -52l-291 -181h-115zM889 584h272v67q0 143 -28.5 199.5t-100.5 56.5 q-78 0 -110.5 -75.5t-32.5 -247.5z" />
<glyph unicode="&#x1fe;" horiz-adv-x="1593" d="M72 686q0 209 92.5 375.5t259 260t375.5 93.5q104 0 189 -22t183 -74l129 190h103l-160 -235q78 -65 117.5 -109.5t73.5 -107.5q88 -166 88 -369q0 -210 -92.5 -376t-258 -258.5t-374.5 -92.5q-110 0 -198 23t-185 77l-146 -213h-102l176 258q-91 78 -136.5 139.5 t-82.5 153.5q-51 131 -51 287zM434 672q0 -115 9.5 -193.5t35.5 -169.5l586 856q-54 98 -115.5 140.5t-152.5 42.5q-175 0 -269 -175.5t-94 -500.5zM518 213q53 -98 117.5 -141t161.5 -43q178 0 270 164.5t92 484.5q0 125 -11.5 211t-41.5 184zM553 1511l281 322 q51 57 108 57q44 0 71 -25t27 -65q0 -35 -16 -56t-66 -52l-290 -181h-115z" />
<glyph unicode="&#x1ff;" horiz-adv-x="1024" d="M51 469q0 215 132.5 357.5t332.5 142.5q109 0 211 -51l123 206h94l-149 -252q95 -86 137.5 -181.5t42.5 -221.5q0 -215 -131 -356.5t-330 -141.5q-113 0 -219 56l-129 -215h-96l155 262q-92 86 -133 179t-41 216zM268 1081l281 322q51 57 108 57q44 0 71.5 -25t27.5 -65 q0 -35 -16 -56t-66 -52l-291 -181h-115zM352 428q0 -100 2 -141l293 495q-20 67 -50 95t-81 28q-65 0 -99.5 -43t-49.5 -144t-15 -290zM375 164q20 -69 52.5 -99t86.5 -30q89 0 124.5 91t35.5 318q0 124 -4 220z" />
<glyph unicode="&#x237;" horiz-adv-x="681" d="M-117 -211q0 56 35 90.5t92 34.5q51 0 86 -32.5t35 -78.5q0 -30 -29 -75q-18 -30 -18 -45t18.5 -25t47.5 -10q52 0 75 36.5t23 118.5v971q0 66 -25.5 90.5t-103.5 30.5v49h413v-940q0 -171 -55 -264q-43 -75 -122 -115.5t-185 -40.5q-126 0 -206.5 57t-80.5 148z" />
<glyph unicode="&#x250;" horiz-adv-x="1048" d="M27 852q59 63 111 90t118 27q75 0 113 -32t55 -110q84 76 160 109t166 33q103 0 164 -54t61 -163q0 -139 -137 -230q-58 -38 -145.5 -71t-266.5 -84v-140q0 -100 38 -145t128 -45q58 0 95.5 20t37.5 56q0 21 -23 47q-38 46 -38 86q0 53 39 88t100 35q63 0 98 -37.5 t35 -102.5q0 -121 -107.5 -189.5t-283.5 -68.5q-189 0 -295.5 72t-106.5 203v534q0 58 -43 58q-13 0 -22 -9l-21 -20zM426 438q250 69 250 248q0 65 -30 101t-77 36q-84 0 -143 -82v-303z" />
<glyph unicode="&#x251;" horiz-adv-x="1245" d="M66 444q0 140 62.5 259.5t179 192.5t261.5 73q137 0 250 -95l217 95h29v-795q0 -51 31 -51q12 0 121 14v-35l-398 -118v108q-1 -1 -20.5 -18t-31.5 -26t-40 -26t-54.5 -26.5t-67 -17t-83.5 -7.5q-28 0 -59 3.5t-77.5 15.5t-88 31.5t-85 56t-75 84.5t-51.5 121t-20 161z M358 518q0 -111 25.5 -196.5t69 -134.5t95 -73t109.5 -24q51 0 106.5 39.5t55.5 93.5v473q0 50 -20.5 91t-52 65.5t-66.5 37.5t-68 13q-46 0 -89 -21.5t-81 -65t-61 -120.5t-23 -178z" />
<glyph unicode="&#x252;" horiz-adv-x="1245" d="M66 803v35l397 118v-108q1 1 20.5 18t31.5 26t40 26t54.5 26.5t67 17t83.5 7.5q28 0 59 -3.5t77.5 -15.5t88 -31.5t85.5 -56t75.5 -84.5t51.5 -121t20 -161q0 -104 -37 -199.5t-102 -167.5t-160.5 -115t-204.5 -43q-137 0 -250 95l-217 -95h-29v795q0 51 -31 51 q-11 0 -120 -14zM463 244q0 -50 20.5 -91t52 -65.5t66.5 -37.5t68 -13q46 0 89 21.5t81 65t61 120.5t23 178q0 111 -25.5 196.5t-69 134.5t-95 73t-109.5 24q-51 0 -106.5 -39.5t-55.5 -93.5v-473z" />
<glyph unicode="&#x253;" horiz-adv-x="1146" d="M152 -27v981q0 130 18 216.5t63 140.5q84 104 277 104q130 0 210.5 -57t80.5 -148q0 -58 -34.5 -94.5t-90.5 -36.5q-52 0 -87.5 34.5t-35.5 82.5q0 31 11.5 54t22.5 37.5t11 25.5q0 39 -59 39q-54 0 -78.5 -34.5t-24.5 -117.5v-346q58 61 116.5 88t133.5 27 q171 0 278 -133.5t107 -346.5q0 -230 -128.5 -374t-334.5 -144q-77 0 -138.5 26.5t-131.5 90.5l-162 -115h-24zM436 199q0 -74 39 -118t103 -44q98 0 145 101t47 315q0 405 -190 405q-51 0 -83.5 -27.5t-60.5 -93.5v-538z" />
<glyph unicode="&#x254;" horiz-adv-x="966" d="M31 754q84 115 175.5 165t215.5 50q194 0 316 -133t122 -351q0 -226 -139 -370t-346 -144q-134 0 -225 64t-91 162q0 60 38 95.5t102 35.5q53 0 83.5 -39t30.5 -111q0 -36 0.5 -52.5t5 -38.5t13.5 -30.5t25.5 -15t41.5 -6.5q77 0 124.5 91.5t47.5 254.5q0 210 -75.5 330 t-208.5 120q-64 0 -113.5 -25t-105.5 -89z" />
<glyph unicode="&#x255;" horiz-adv-x="976" d="M61 455q0 112 38 208.5t103 163t154.5 104.5t190.5 38q134 0 224.5 -64t90.5 -162q0 -60 -37.5 -95.5t-101.5 -35.5q-53 0 -84 39t-31 111q0 36 -0.5 52.5t-5 38.5t-13.5 30.5t-25.5 15t-41.5 6.5q-77 0 -124.5 -91.5t-47.5 -254.5q0 -262 115 -399q33 48 46.5 66.5 t39.5 47.5t45.5 39.5t49.5 19.5t67 9q90 0 144 -47t54 -123q0 -90 -69.5 -152.5t-198.5 -62.5q-137 0 -176 8l-150 -295h-98l158 320q-45 12 -99.5 43.5t-87.5 64.5q-62 62 -95.5 155.5t-33.5 201.5zM532 104q26 -22 74.5 -39.5t75.5 -17.5q139 0 139 125q0 44 -33 66 t-75 22q-50 0 -89 -35t-92 -121z" />
<glyph unicode="&#x256;" horiz-adv-x="1232" d="M66 453q0 222 112 369t281 147q70 0 123.5 -28t119.5 -99v375q0 71 -26 91t-129 27v49h440v-1636q0 -90 23.5 -126t79.5 -36q59 0 59 39q0 11 -11.5 25.5t-22.5 37.5t-11 54q0 48 35.5 82.5t87.5 34.5q56 0 90.5 -36.5t34.5 -94.5q0 -91 -80.5 -148t-210.5 -57 q-193 0 -277 104q-48 57 -65 143.5t-17 215.5v120q-73 -77 -129 -106t-137 -29q-161 0 -265.5 135.5t-104.5 346.5zM369 469q0 -195 38.5 -289t120.5 -94q75 0 136 76q38 51 38 67v498q-23 59 -65.5 93t-93.5 34q-89 0 -131.5 -93.5t-42.5 -291.5z" />
<glyph unicode="&#x257;" horiz-adv-x="1331" d="M66 453q0 222 112 369t281 147q70 0 123.5 -28t119.5 -99v131q0 222 82 321q85 105 277 105q130 0 210.5 -57t80.5 -148q0 -58 -34.5 -94.5t-90.5 -36.5q-52 0 -87.5 34.5t-35.5 82.5q0 31 11 54t22.5 37t11.5 25q0 39 -59 39q-54 0 -78.5 -31t-24.5 -106v-991 q0 -65 25.5 -90t95.5 -29v-47l-127 -16q-162 -20 -272 -52v133q-72 -76 -131.5 -105.5t-141.5 -29.5q-161 0 -265.5 135.5t-104.5 346.5zM369 469q0 -195 38.5 -289t120.5 -94q75 0 136 76q38 51 38 67v498q-23 59 -65.5 93t-93.5 34q-89 0 -131.5 -93.5t-42.5 -291.5z" />
<glyph unicode="&#x258;" horiz-adv-x="935" d="M51 229l49 29q63 -76 116.5 -107.5t119.5 -31.5q58 0 101 22t68 55.5t41.5 87.5t23 102t10.5 116h-517q13 244 121 364q92 103 262 103q192 0 310 -140.5t118 -369.5q0 -212 -116 -350t-301 -138q-132 0 -223.5 57t-182.5 201zM315 578h275q0 178 -35.5 252.5 t-108.5 74.5q-41 0 -64.5 -22.5t-47.5 -73.5q-13 -27 -16 -64t-3 -124v-43z" />
<glyph unicode="&#x259;" horiz-adv-x="935" d="M39 711q91 144 182 201t223 57q185 0 301.5 -138t116.5 -350q0 -229 -118 -369.5t-310 -140.5q-170 0 -262 103q-108 120 -121 364h516q-4 68 -10.5 116t-22.5 102t-41 87.5t-68 55.5t-101 22q-66 0 -119.5 -31.5t-116.5 -107.5zM303 319q0 -87 3 -124t16 -64 q24 -51 47.5 -73.5t64.5 -22.5q73 0 108.5 74.5t35.5 252.5h-275v-43z" />
<glyph unicode="&#x25a;" horiz-adv-x="1409" d="M84 711q94 151 186 204.5t219 53.5q112 0 202.5 -54t150.5 -157l241 145l27 -24q-10 -173 -10 -287q0 -41 26.5 -68.5t65.5 -27.5q45 0 74.5 24t38.5 47l20 51l61 -26l-22 -55q-21 -51 -66.5 -84t-103.5 -33q-82 0 -126 44t-44 126q0 176 2 190l-147 -88q28 -92 28 -211 q0 -229 -118 -369.5t-310 -140.5q-170 0 -262 103q-52 58 -80.5 131.5t-30.5 126.5l517 299q-22 85 -91.5 137.5t-162.5 52.5q-66 0 -119.5 -31.5t-116.5 -107.5zM358 283q0 -248 125 -248q29 0 51.5 13.5t37 33.5t25 52t15.5 58.5t7.5 64t3 58t0.5 50.5v180l-265 -154v-108 z" />
<glyph unicode="&#x25b;" horiz-adv-x="1009" d="M51 252q0 89 68 160.5t174 99.5q-97 44 -142 92t-45 129q0 236 388 240q88 0 163 -21q73 -21 133 -72t60 -100q0 -104 -102 -104q-57 0 -85 30t-61 113q-16 40 -42 59t-73 19q-74 0 -104.5 -41.5t-30.5 -138.5q0 -60 45.5 -104t98.5 -60q18 -5 31 -7.5t19.5 -3t25 -1 t30.5 -0.5v-76h-108q-73 0 -115.5 -54t-42.5 -147q0 -87 51.5 -139.5t134.5 -52.5q106 0 182 27t148 110l47 -37q-48 -66 -101 -108.5t-112 -61.5t-107.5 -25t-115.5 -6q-76 0 -147 16t-131.5 48.5t-97 88.5t-36.5 128z" />
<glyph unicode="&#x25c;" horiz-adv-x="1009" d="M51 172l47 37q72 -83 148 -110t182 -27q83 0 134.5 52.5t51.5 139.5q0 93 -42 147t-115 54h-109v76q12 0 26.5 0.5t20.5 0.5t16 1t20 3.5t24 6.5q53 16 98 60t45 104q0 97 -30.5 138.5t-104.5 41.5q-47 0 -73 -19t-42 -59q-33 -84 -60.5 -113.5t-84.5 -29.5 q-103 0 -103 104q0 49 60 100t133 72q75 21 164 21q387 -4 387 -240q0 -81 -45 -129t-142 -92q106 -28 174 -99.5t68 -160.5q0 -72 -36.5 -128t-97 -88.5t-131.5 -48.5t-147 -16q-67 0 -115.5 6t-107.5 25t-112 61.5t-101 108.5z" />
<glyph unicode="&#x25d;" horiz-adv-x="1398" d="M51 172l47 37q72 -83 148 -110t182 -27q83 0 134.5 52.5t51.5 139.5q0 93 -42 147t-115 54h-109v76q12 0 26.5 0.5t20.5 0.5t16 1t20 3.5t24 6.5q53 16 98 60t45 104q0 97 -30.5 138.5t-108.5 41.5q-80 0 -111 -78q-33 -84 -60.5 -113.5t-84.5 -29.5q-103 0 -103 104 q0 49 60 100t133 72q75 21 164 21q346 -4 383 -193l204 123l27 -24q-10 -173 -10 -287q0 -41 26.5 -68.5t65.5 -27.5q45 0 74.5 24t38.5 47l20 51l62 -26l-23 -55q-21 -51 -66.5 -84t-103.5 -33q-82 0 -126 44t-44 126q0 176 2 190l-147 -90q-11 -61 -55.5 -100.5 t-127.5 -77.5q106 -28 175 -99.5t69 -160.5q0 -72 -36.5 -128t-97.5 -88.5t-132.5 -48.5t-147.5 -16q-66 0 -116 6.5t-109 25.5t-112 61.5t-99 107.5z" />
<glyph unicode="&#x25e;" horiz-adv-x="1071" d="M51 477q0 111 37 205t99 157t144 98.5t171 35.5q403 0 403 -240q0 -81 -45 -129t-141 -92q106 -28 174 -99.5t68 -160.5q0 -72 -35.5 -127.5t-97 -88t-138.5 -49t-166 -16.5q-36 0 -74 5.5t-85.5 20.5t-90 38.5t-84 63t-72 90.5t-49 125.5t-18.5 162.5zM195 496 q0 -187 87 -305.5t207 -118.5q82 0 133.5 52.5t51.5 139.5q0 93 -41.5 147t-114.5 54h-108v76q12 0 30.5 0.5t25 1t19.5 3t31 7.5q53 16 98 60t45 104q0 97 -30.5 138.5t-108.5 41.5q-131 0 -228 -115.5t-97 -285.5z" />
<glyph unicode="&#x25f;" horiz-adv-x="692" d="M-111 -211q0 56 35 90.5t92 34.5q51 0 86 -32.5t35 -78.5q0 -32 -28 -75q-19 -32 -19 -45q0 -15 18.5 -25t47.5 -10q52 0 75 36.5t23 118.5v623h-207v94h207v252q0 65 -25.5 92.5t-103.5 30.5v49h518v-49q-31 0 -53 -11.5t-32.5 -31.5t-14.5 -39t-4 -41v-252h98v-94h-98 v-422q0 -169 -56 -264q-43 -75 -122 -115.5t-185 -40.5q-126 0 -206.5 57t-80.5 148z" />
<glyph unicode="&#x260;" horiz-adv-x="1284" d="M76 449q0 144 55 261.5t159.5 188t239.5 70.5q99 0 177 -45q0 272 81 370q85 105 277 105q130 0 210.5 -57t80.5 -148q0 -58 -34.5 -94.5t-90.5 -36.5q-52 0 -87.5 34.5t-35.5 82.5q0 31 11 54t22.5 37t11.5 25q0 39 -59 39q-56 0 -79.5 -35.5t-23.5 -125.5v-1211 q0 -55 -15 -128t-40 -114q-127 -223 -422 -223q-179 0 -289 58q-112 61 -112 168q0 56 35 90t92 34q51 0 85.5 -32t34.5 -78q0 -33 -28 -76q-19 -32 -19 -45q0 -29 46.5 -42t91.5 -13q57 0 107 32t81.5 79t49.5 97t18 91v225q-51 -65 -111.5 -90t-140.5 -25 q-163 0 -271 130.5t-108 347.5zM375 483q0 -201 51.5 -301t138.5 -100q57 0 99.5 32t42.5 87v524q0 83 -37.5 130.5t-100.5 47.5q-90 0 -142 -104.5t-52 -315.5z" />
<glyph unicode="&#x261;" horiz-adv-x="1169" d="M76 449q0 144 55 261.5t159.5 188t239.5 70.5q77 0 135 -24.5t136 -90.5l157 113h33v-1004q0 -55 -15 -128t-40 -114q-127 -223 -422 -223q-179 0 -289 58q-112 61 -112 168q0 56 35 90t92 34q51 0 85.5 -32t34.5 -78q0 -33 -28 -76q-19 -32 -19 -45q0 -29 46.5 -42 t91.5 -13q57 0 107 32t81.5 79t49.5 97t18 91v225q-51 -65 -111.5 -90t-140.5 -25q-163 0 -271 130.5t-108 347.5zM375 483q0 -201 51.5 -301t138.5 -100q57 0 99.5 32t42.5 87v524q0 83 -37.5 130.5t-100.5 47.5q-90 0 -142 -104.5t-52 -315.5z" />
<glyph unicode="&#x262;" horiz-adv-x="1208" d="M72 453q0 135 67 247.5t185.5 178t263.5 65.5q96 0 233 -49q37 -18 64 -18q23 0 36.5 12.5t32.5 50.5h39v-319h-37q-42 81 -70 121t-73 81q-87 76 -205 76q-130 0 -203 -112.5t-73 -321.5q0 -208 76 -326q39 -60 92 -88t137 -28q139 0 139 114v121q0 56 -28 77t-121 25 v33h510v-33q-79 -9 -103 -38.5t-24 -98.5v-160q-72 -40 -183 -63t-227 -23q-150 0 -269.5 57.5t-189 166.5t-69.5 252z" />
<glyph unicode="&#x263;" horiz-adv-x="1089" d="M49 895v49h510v-49q-106 0 -106 -49q0 -23 63 -180l125 -324l135 375q27 73 27 112q0 15 -5 26.5t-10.5 18t-17.5 11t-18.5 6t-21 3.5t-17.5 3v47h325v-49h-26q-15 0 -28 -9.5t-24 -30.5t-17.5 -36t-16.5 -43l-219 -596l88 -217q65 -157 65 -223q0 -95 -71.5 -156 t-176.5 -61q-115 0 -175 47t-60 139q0 43 43 144l67 149l-262 639q-30 73 -100 217q-15 30 -76 37zM498 -307q0 -90 63 -90q53 0 53 69q0 44 -14 80l-47 111l-39 -96q-16 -40 -16 -74z" />
<glyph unicode="&#x264;" horiz-adv-x="1052" d="M35 731q0 76 49 132.5t123 56.5q111 0 213 -160l143 -221l195 290q60 93 127 93t100 -48t33 -118q0 -57 -27 -140h-20q-34 109 -97 109q-62 0 -102 -61l-143 -222l88 -147q55 -89 55 -154q0 -41 -26 -73.5t-66 -50.5t-81.5 -27.5t-78.5 -9.5q-82 0 -138 43.5t-56 123.5 q0 60 49 129l76 107l-123 190q-5 8 -21 33.5t-27.5 42t-28.5 36.5t-35.5 30t-37.5 10q-20 0 -36.5 -10t-28.5 -28.5t-18.5 -33.5t-14.5 -37h-21q-24 63 -24 115zM449 129q0 -35 20.5 -58.5t54.5 -23.5q28 0 49 21t21 49q0 10 -4.5 24t-10 26.5t-16 31t-16.5 28t-17.5 28 t-13.5 21.5q-3 -4 -13.5 -17.5t-13 -17.5t-10.5 -15.5t-10.5 -17l-7.5 -16.5t-7 -19.5t-3.5 -20t-1.5 -23.5z" />
<glyph unicode="&#x265;" horiz-adv-x="1126" d="M35 872v50h479v-50q-52 -6 -73 -33.5t-21 -90.5v-459q0 -110 22.5 -154.5t81.5 -44.5q74 0 144 70q34 34 34 49v539q0 63 -20.5 90t-77.5 34v50h492v-50q-3 -1 -8 -1q-63 -13 -78 -26q-22 -19 -23 -93v-13v-1028q0 -71 19 -91t92 -34v-49h-396v574q-72 -86 -144 -122 t-157 -36q-124 0 -195 77t-71 201v512q0 70 -23 99.5t-77 29.5z" />
<glyph unicode="&#x266;" horiz-adv-x="1126" d="M29 0v49q31 6 40.5 8t27.5 9t21.5 13.5t10 21t7.5 33t1 48.5v805q0 207 82 307q85 105 277 105q130 0 210 -57t80 -148q0 -58 -34 -94.5t-90 -36.5q-52 0 -87.5 34.5t-35.5 82.5q0 31 11.5 54t22.5 37t11 25q0 39 -60 39q-54 0 -78 -31t-24 -106v-387q72 86 144 122 t157 36q124 0 195 -77.5t71 -201.5v-512q0 -70 23.5 -99.5t77.5 -29.5v-49h-480v49q52 6 73.5 34t21.5 91v459q0 110 -23 154t-82 44q-74 0 -143 -69q-35 -35 -35 -49v-539q0 -64 21 -91t77 -34v-49h-491z" />
<glyph unicode="&#x267;" horiz-adv-x="1138" d="M33 0v49q31 6 40.5 8t27.5 9t21.5 13.5t10 21t7.5 33t1 48.5v805q0 207 82 307q85 105 277 105q130 0 210.5 -57t80.5 -148q0 -58 -34.5 -94.5t-90.5 -36.5q-52 0 -87.5 34.5t-35.5 82.5q0 31 11.5 54t22.5 37t11 25q0 39 -60 39q-54 0 -78 -31t-24 -106v-387 q72 86 144 122t157 36q124 0 195 -77.5t71 -201.5v-690q0 -171 -55 -264q-43 -75 -122 -115.5t-185 -40.5q-126 0 -206.5 57t-80.5 148q0 56 35 90.5t92 34.5q51 0 86 -32.5t35 -78.5q0 -30 -29 -75q-18 -30 -18 -46q0 -15 18 -24.5t47 -9.5q99 0 99 133v856q0 110 -23 154 t-82 44q-74 0 -143 -69q-35 -35 -35 -49v-539q0 -64 21 -91t77 -34v-49h-491z" />
<glyph unicode="&#x268;" horiz-adv-x="598" d="M43 895v49h395v-393h92v-94h-92v-283q0 -65 22 -91t77 -34v-49h-492v49q71 17 90 39t19 92v277h-109v94h109v213q0 68 -21.5 92.5t-89.5 38.5zM135 1255q0 68 46.5 114t115.5 46q64 0 110 -47t46 -113q0 -67 -46 -112t-114 -45t-113 45t-45 112z" />
<glyph unicode="&#x269;" horiz-adv-x="749" d="M45 774v55q103 39 214.5 72t148.5 33q38 0 38 -57v-658q0 -61 22 -89t48 -28q75 0 146 93l32 -35q-18 -30 -41.5 -57t-59.5 -56t-85.5 -46t-106.5 -17q-126 0 -182.5 70t-56.5 208v434q0 99 -25 99q-31 0 -92 -21z" />
<glyph unicode="&#x26a;" horiz-adv-x="608" d="M53 0v35q80 8 105.5 29t25.5 86v653q0 59 -27.5 80t-103.5 26v35h488v-35q-75 -3 -102 -24.5t-27 -81.5v-653q0 -68 25 -89t104 -26v-35h-488z" />
<glyph unicode="&#x26b;" horiz-adv-x="808" d="M31 631q26 128 81.5 190.5t145.5 65.5v315q0 59 -26.5 94t-79.5 39v49h391v-591q16 -7 37 -7q41 0 65.5 22.5t44.5 78.5h88q-35 -133 -92.5 -196.5t-142.5 -63.5v-449q0 -69 24.5 -98t77.5 -31v-49h-491v49q54 5 79 34t25 95v541q-24 8 -41 8q-39 0 -66.5 -26.5 t-33.5 -69.5h-86z" />
<glyph unicode="&#x26c;" horiz-adv-x="913" d="M35 702q0 116 70 176t167 60q16 0 56 -10v274q0 58 -27 93.5t-80 39.5v49h391v-770q108 38 242 172l23 -43l-11 -16.5t-32 -40.5t-53.5 -57.5t-74 -61.5t-94.5 -59v-330q0 -68 25 -97.5t78 -31.5v-49h-492v49q54 5 79.5 34t25.5 95v293q-20 -2 -56 -2q-100 0 -168.5 61 t-68.5 172zM158 723q0 -133 110 -156q10 -2 60 -2v289q-20 8 -47 8q-46 0 -84.5 -44t-38.5 -95z" />
<glyph unicode="&#x26d;" horiz-adv-x="667" d="M31 1335v49h391v-1609q0 -77 25.5 -133t72.5 -56q29 0 47.5 10t18.5 25q0 13 -19 45q-28 43 -28 76q0 46 34.5 78.5t85.5 32.5q57 0 92 -34.5t35 -90.5q0 -91 -80 -148t-206 -57q-105 0 -183.5 40.5t-123.5 114.5q-56 92 -56 203v1321q0 59 -26.5 94t-79.5 39z" />
<glyph unicode="&#x26e;" horiz-adv-x="1267" d="M49 1335v49h391v-462h762v-56l-397 -403q46 12 108 12q57 0 113.5 -29.5t103.5 -82t76 -134t29 -176.5q0 -94 -22.5 -178t-58.5 -142t-71 -96t-69 -61q-93 -59 -232 -59q-78 0 -161 18.5t-127 48.5q-97 65 -97 146q0 42 30 72t91 30q116 0 137 -137q7 -45 48.5 -74 t93.5 -29q178 0 178 424q0 61 -8.5 115.5t-26.5 104t-53.5 79t-83.5 29.5q-127 0 -223 -96l-56 49l467 475h-418q-32 0 -71.5 -30t-61.5 -80v-484q0 -68 25 -97.5t78 -31.5v-49h-492v49q54 5 79.5 34t25.5 95v1024q0 58 -27 93.5t-80 39.5z" />
<glyph unicode="&#x26f;" horiz-adv-x="1695" d="M33 920v49h485v-49q-58 -4 -78 -30t-20 -91v-467q0 -98 25.5 -146.5t82.5 -48.5q60 0 119 51q19 14 37 37t18 31v543q0 60 -20.5 87.5t-73.5 33.5v49h475v-49q-56 -4 -76 -30.5t-20 -90.5v-492q0 -92 25.5 -131t85.5 -39q38 0 105 46t67 81v535q0 60 -19.5 87t-72.5 34 v49h489v-49q-67 -12 -90 -38t-23 -89v-588q0 -71 23 -96.5t92 -34.5v-49h-393v153h-6q-59 -94 -128 -136t-167 -42q-97 0 -156.5 40.5t-105.5 137.5q-80 -99 -147 -138.5t-154 -39.5q-127 0 -202 77.5t-75 213.5v508q0 67 -21.5 92.5t-80.5 28.5z" />
<glyph unicode="&#x270;" horiz-adv-x="1759" d="M33 920v49h485v-49q-58 -4 -78 -30t-20 -91v-467q0 -98 25.5 -146.5t82.5 -48.5q60 0 119 51q19 14 37 37t18 31v543q0 60 -20.5 87.5t-73.5 33.5v49h475v-49q-56 -4 -76 -30.5t-20 -90.5v-492q0 -92 25.5 -131t85.5 -39q38 0 105 46t67 81v535q0 60 -19.5 87t-72.5 34 v49h489v-49q-67 -12 -90 -38t-23 -89v-1012q0 -107 34 -156t124 -53v-49h-557v49q68 12 91.5 34.5t23.5 76.5v495q-59 -94 -128 -136t-167 -42q-97 0 -156.5 40.5t-105.5 137.5q-80 -99 -147 -138.5t-154 -39.5q-127 0 -202 77.5t-75 213.5v508q0 67 -21.5 92.5t-80.5 28.5z " />
<glyph unicode="&#x271;" horiz-adv-x="1734" d="M43 895v49h393v-153h6q59 94 128 136t167 42q97 0 156.5 -40.5t105.5 -137.5q80 99 147 138.5t154 39.5q127 0 202 -77.5t75 -213.5v-735q0 -172 -55 -265q-43 -75 -122.5 -115t-185.5 -40q-126 0 -206 57t-80 148q0 56 35 90.5t92 34.5q51 0 86 -32.5t35 -78.5 q0 -31 -29 -76q-19 -32 -19 -45q0 -15 18.5 -25t47.5 -10q98 0 98 133v918q0 98 -25.5 146t-82.5 48q-60 0 -119 -51q-19 -14 -37 -36.5t-18 -30.5v-543q0 -60 20.5 -87.5t73.5 -33.5v-49h-475v49q56 4 76 30.5t20 90.5v492q0 92 -25.5 130.5t-85.5 38.5q-38 0 -105 -45.5 t-67 -80.5v-535q0 -60 20 -87t73 -34v-49h-490v49q67 12 90 38t23 89v588q0 71 -23 96.5t-92 34.5z" />
<glyph unicode="&#x272;" horiz-adv-x="1280" d="M-117 -272q0 56 35 90.5t92 34.5q51 0 86 -32.5t35 -78.5q0 -31 -29 -76q-18 -30 -18 -45t18.5 -25t47.5 -10q98 0 98 133v1051q0 66 -21 90.5t-88 34.5v49h391v-153q104 178 293 178q126 0 201.5 -79t75.5 -212v-506q0 -69 20 -94t80 -29v-49h-479v49q52 6 73 33.5 t21 89.5v485q0 174 -104 174q-75 0 -144 -69q-35 -35 -35 -49v-803q0 -139 -55 -232q-43 -75 -122 -115t-185 -40q-126 0 -206.5 57t-80.5 148z" />
<glyph unicode="&#x273;" horiz-adv-x="1249" d="M43 0v49q68 13 88.5 38t20.5 91v592q0 66 -21 90.5t-88 34.5v49h391v-153h2q101 178 291 178q126 0 201.5 -79t75.5 -212v-918q0 -70 26.5 -122t71.5 -52q29 0 47 10t18 25t-18 45q-29 45 -29 76q0 46 35 78.5t86 32.5q57 0 92 -34.5t35 -90.5q0 -91 -80.5 -148 t-206.5 -57q-105 0 -183.5 40.5t-123.5 114.5q-55 89 -55 185v794q0 174 -105 174q-74 0 -143 -69q-35 -35 -35 -49v-541q0 -59 21.5 -87.5t77.5 -35.5v-49h-492z" />
<glyph unicode="&#x274;" horiz-adv-x="1236" d="M70 0v35q85 9 110 30.5t25 84.5v661q-77 98 -131 98v35h329l549 -602v420q0 83 -29 112t-114 35v35h334v-35q-77 -11 -99 -30.5t-22 -83.5v-820h-47l-701 760v-555q0 -79 29.5 -107.5t120.5 -37.5v-35h-354z" />
<glyph unicode="&#x275;" horiz-adv-x="1064" d="M70 467q0 222 132.5 362t336.5 140q195 0 324.5 -141.5t129.5 -358.5q0 -216 -132 -357t-331 -141q-194 0 -327 140t-133 356zM371 424q0 -218 35.5 -303.5t125.5 -85.5q89 0 124 83.5t36 305.5h-321zM371 518h319q-5 214 -40 300.5t-118 86.5q-86 0 -121 -86t-40 -301z " />
<glyph unicode="&#x276;" horiz-adv-x="1517" d="M57 461q0 127 52 230.5t147 168.5q59 40 138 62t159 22q6 0 38.5 -2.5t86.5 -5t113 -2.5h610v-279h-37q-17 83 -40.5 124.5t-70.5 68.5q-61 37 -235 37q-43 0 -58.5 -7.5t-15.5 -29.5v-340q51 2 80 7t53 15.5t38 34t24.5 56t21.5 88.5h37v-469h-37q-15 125 -58.5 169 t-158.5 50v-348q0 -40 20.5 -53t84.5 -13q161 0 245 70q40 32 67 69t58 105h41l-61 -293h-627q-123 0 -160 -2q-40 -4 -59 -4q-216 0 -334 98q-78 63 -120 160.5t-42 212.5zM307 438q0 -97 15.5 -182t42.5 -125q32 -50 77.5 -71t118.5 -21q93 0 127 39q17 20 22 64t5 149 v403q0 76 -5 110t-20 54q-24 37 -115 37q-268 0 -268 -457z" />
<glyph unicode="&#x277;" horiz-adv-x="1425" d="M86 401q0 103 35 195t95.5 160.5t140 119t171.5 76t187 25.5q113 0 224 -41.5t199.5 -114t143.5 -183t55 -237.5q0 -108 -48 -200t-139 -148.5t-206 -56.5q-69 0 -132 27.5t-99 70.5q-38 -43 -102.5 -70.5t-133.5 -27.5q-173 0 -282 119t-109 286zM375 434 q0 -52 5.5 -105t18.5 -110.5t41 -93t66 -35.5q40 0 82.5 44.5t42.5 105.5q0 55 -23.5 140t-23.5 136q0 34 4.5 58t17 47.5t39.5 36t68 12.5t68 -12.5t39.5 -36t17 -48t4.5 -57.5q0 -51 -24.5 -136t-24.5 -140q0 -62 39.5 -106t82.5 -44q134 0 134 344q0 124 -28 221 t-75.5 155t-106 88t-124.5 30q-67 0 -127 -30t-108 -88t-76.5 -155t-28.5 -221z" />
<glyph unicode="&#x278;" horiz-adv-x="1460" d="M92 453q0 81 31.5 151t82 119t116.5 85.5t133 56.5t133 26v313q0 84 -30 114t-114 36v49h568v-49q-84 -5 -112 -31.5t-28 -112.5v-319q66 -6 132.5 -26t132.5 -56.5t116 -85.5t81.5 -119t31.5 -151q0 -76 -30 -146.5t-80 -123.5t-113.5 -94t-133.5 -64t-137 -27v-283 q0 -45 6 -70.5t24 -40.5t42 -20.5t68 -7.5v-49h-568v49q85 6 114.5 34t29.5 111v277q-68 4 -138 27t-134 64t-114 94.5t-80 123.5t-30 146zM381 457q0 -119 60 -226t147 -151v735q-87 -35 -147 -133t-60 -225zM872 78q86 44 145.5 151t59.5 228q0 127 -59 226t-146 132v-737 z" />
<glyph unicode="&#x279;" horiz-adv-x="933" d="M72 141q0 62 36 101t93 39q40 0 68.5 -18t54.5 -60q29 -47 57 -47q54 0 89.5 61t35.5 152v362q0 99 -27.5 130.5t-120.5 37.5v49h543v-49q-67 -12 -88.5 -36t-21.5 -87v-592q0 -71 22.5 -96.5t89.5 -34.5v-49h-389v168q-72 -104 -135.5 -148t-140.5 -44q-72 0 -119 45.5 t-47 115.5z" />
<glyph unicode="&#x27a;" horiz-adv-x="933" d="M72 141q0 62 36 101t93 39q40 0 68.5 -18t54.5 -60q29 -47 57 -47q54 0 89.5 61t35.5 152v833q0 58 -27 93.5t-80 39.5v49h392v-1200q0 -71 22.5 -96.5t89.5 -34.5v-49h-389v168q-72 -104 -135.5 -148t-140.5 -44q-72 0 -119 45.5t-47 115.5z" />
<glyph unicode="&#x27b;" horiz-adv-x="1036" d="M72 141q0 62 36 101t93 39q40 0 68.5 -18t54.5 -60q29 -47 57 -47q54 0 89.5 61t35.5 152v362q0 99 -27.5 130.5t-120.5 37.5v49h543v-49q-67 -12 -88.5 -36t-21.5 -87v-1016q0 -70 26.5 -122t71.5 -52q29 0 47 10t18 25t-18 45q-29 45 -29 76q0 46 35 78.5t86 32.5 q57 0 92 -34.5t35 -90.5q0 -91 -80.5 -148t-206.5 -57q-105 0 -183.5 40.5t-123.5 114.5q-55 92 -55 170v312q-72 -101 -133.5 -140.5t-134.5 -39.5q-72 0 -119 45.5t-47 115.5z" />
<glyph unicode="&#x27c;" horiz-adv-x="872" d="M20 895v49h390v-168q72 104 135.5 148.5t140.5 44.5q72 0 119 -46t47 -116q0 -61 -36 -100t-93 -39q-40 0 -68.5 17.5t-54.5 59.5q-30 48 -57 48q-54 0 -89.5 -61t-35.5 -152v-840q0 -99 27 -130.5t120 -37.5v-49h-542v49q67 12 88.5 36t21.5 87v1069q0 71 -23 96.5 t-90 34.5z" />
<glyph unicode="&#x27d;" horiz-adv-x="929" d="M25 895v49h389v-168q72 104 135.5 148.5t140.5 44.5q72 0 119 -46t47 -116q0 -61 -36 -100t-93 -39q-40 0 -68.5 17.5t-54.5 59.5q-30 48 -57 48q-54 0 -89.5 -61t-35.5 -152v-832q0 -66 27 -114t71 -48q29 0 47.5 10t18.5 25q0 13 -19 45q-28 43 -28 76q0 46 34.5 78.5 t85.5 32.5q57 0 92 -34.5t35 -90.5q0 -91 -80 -148t-206 -57q-105 0 -183.5 40.5t-123.5 114.5q-56 93 -56 170v916q0 71 -22.5 96.5t-89.5 34.5z" />
<glyph unicode="&#x27e;" horiz-adv-x="735" d="M31 0v49q67 12 88.5 36t21.5 87v365q0 125 17.5 209t64.5 141q84 104 277 104q130 0 210.5 -57t80.5 -148q0 -58 -34.5 -94.5t-90.5 -36.5q-52 0 -87.5 34.5t-35.5 82.5q0 31 11.5 54t22.5 37.5t11 25.5q0 39 -60 39q-53 0 -77.5 -36t-24.5 -114v-561q0 -99 27 -130.5 t120 -37.5v-49h-542z" />
<glyph unicode="&#x27f;" horiz-adv-x="827" d="M20 786q0 91 80.5 148t210.5 57q193 0 277 -104q47 -57 64.5 -141t17.5 -209v-365q0 -63 21.5 -87t88.5 -36v-49h-542v49q93 6 120 37.5t27 130.5v561q0 78 -24.5 114t-77.5 36q-60 0 -60 -39q0 -11 11 -25.5t22.5 -37.5t11.5 -54q0 -48 -35.5 -82.5t-87.5 -34.5 q-56 0 -90.5 36.5t-34.5 94.5z" />
<glyph unicode="&#x280;" horiz-adv-x="1056" d="M43 0v35q83 9 103 30t20 105v604q0 83 -23 109.5t-100 31.5v35h432q418 0 418 -241q0 -106 -66 -166q-34 -30 -66 -48t-89 -32l280 -397q21 -31 62 -31v-35h-289l-291 440h-39v-274q0 -78 20 -99.5t103 -31.5v-35h-475zM395 487q73 1 118.5 9.5t78 31t46 62.5t13.5 104 q0 113 -42 161t-140 48q-41 0 -57.5 -14t-16.5 -49v-353z" />
<glyph unicode="&#x281;" horiz-adv-x="1056" d="M43 0v35q77 5 100 31.5t23 109.5v604q0 84 -20 105t-103 30v35h475v-35q-83 -10 -103 -31.5t-20 -99.5v-274h39l291 440h289v-35q-42 0 -62 -30l-280 -398q57 -14 89.5 -31.5t65.5 -47.5q66 -60 66 -166q0 -242 -418 -242h-432zM395 111q0 -35 16.5 -49.5t57.5 -14.5 q98 0 140 48t42 161q0 64 -13.5 104t-46 62.5t-78 31t-118.5 9.5v-352z" />
<glyph unicode="&#x282;" horiz-adv-x="796" d="M51 -201v512h58q65 -270 280 -270q69 0 111.5 36.5t42.5 96.5q0 50 -45.5 91t-151.5 87q-154 66 -222.5 141t-68.5 177q0 129 91.5 214t230.5 85q71 0 160 -31q46 -14 63 -14q20 0 31 9t20 32h45v-297h-51q-23 66 -43.5 101.5t-52.5 66.5q-68 65 -154 65q-58 0 -96.5 -34 t-38.5 -85q0 -53 46.5 -95t150.5 -85q154 -64 218 -137t64 -182q0 -138 -88 -225t-227 -87q-43 0 -110 14t-111 33q-33 13 -47 13q-16 0 -28.5 -13.5t-12.5 -42.5v-149q0 -209 207 -209q75 0 75 35q0 15 -18 45q-29 45 -29 76q0 46 35 78t86 32q57 0 92 -34.5t35 -90.5 q0 -90 -80.5 -147t-206.5 -57q-119 0 -189.5 60t-70.5 185z" />
<glyph unicode="&#x283;" horiz-adv-x="937" d="M-74 -317q0 53 31 88.5t80 35.5q46 0 77 -28.5t31 -67.5q0 -28 -18 -60.5t-18 -37.5q0 -11 14.5 -20t32.5 -9q32 0 52 19.5t28 55.5t10 61.5t2 62.5v1227q0 174 91.5 281.5t264.5 107.5q107 0 167 -43t60 -117q0 -53 -30.5 -89t-79.5 -36q-46 0 -77.5 28.5t-31.5 67.5 q0 28 18.5 61t18.5 38q0 11 -14.5 19.5t-32.5 8.5q-86 0 -86 -280v-1145q0 -173 -94.5 -281t-267.5 -108q-107 0 -167.5 43t-60.5 117z" />
<glyph unicode="&#x284;" horiz-adv-x="763" d="M-117 -272q0 56 35 90.5t92 34.5q51 0 86 -32.5t35 -78.5q0 -31 -29 -76q-18 -30 -18 -45t18.5 -25t47.5 -10q52 0 75 37t23 119v258h-131v94h131v893q0 217 74 307q85 105 268 105q130 0 210.5 -57t80.5 -148q0 -58 -34.5 -94.5t-90.5 -36.5q-52 0 -87.5 34.5 t-35.5 82.5q0 31 11.5 54t22.5 37t11 25q0 39 -60 39q-52 0 -77 -27t-25 -91v-1123h127v-94h-127v-57q0 -172 -55 -265q-88 -155 -291 -155q-126 0 -206.5 57t-80.5 148z" />
<glyph unicode="&#x285;" horiz-adv-x="811" d="M16 803q0 74 60.5 117t167.5 43q173 0 266.5 -108t93.5 -282v-790q0 -37 2 -62.5t10 -61.5t28 -55.5t52 -19.5q18 0 32.5 9t14.5 20q0 5 -18 37.5t-18 60.5q0 39 31 67.5t77 28.5q49 0 80 -35.5t31 -88.5q0 -74 -60.5 -117t-167.5 -43q-173 0 -267.5 108t-94.5 281v813 q0 176 -90 176q-18 0 -32.5 -9t-14.5 -20q0 -5 18.5 -37.5t18.5 -60.5q0 -39 -31.5 -67.5t-77.5 -28.5q-49 0 -80 36t-31 89z" />
<glyph unicode="&#x286;" horiz-adv-x="817" d="M-33 -221q0 121 87 196.5t200 75.5q28 0 82 -8v967q0 174 91.5 281.5t264.5 107.5q107 0 167.5 -43t60.5 -117q0 -53 -31 -89t-80 -36q-46 0 -77.5 28.5t-31.5 67.5q0 28 18.5 61t18.5 38q0 11 -13.5 19.5t-33.5 8.5q-86 0 -86 -266v-1151q35 -40 66.5 -101.5 t44.5 -111.5q18 -72 18 -205h-69q0 155 -74 285q-31 -119 -118.5 -191.5t-225.5 -72.5q-67 0 -121.5 23t-88 60t-51.5 81.5t-18 91.5zM49 -225q0 -20 8.5 -45.5t27.5 -55t58 -49.5t90 -20q103 0 103 178v176q-42 10 -88 10q-91 0 -145 -56.5t-54 -137.5z" />
<glyph unicode="&#x287;" horiz-adv-x="681" d="M39 819q63 126 132 179t171 53q106 0 167.5 -59t61.5 -161v-659h109v-55q-53 -36 -96.5 -74.5t-87.5 -92t-73 -93.5t-85 -121h-51v346h-195v90h195v610q0 63 -19 93t-61 30q-32 0 -59 -25t-58 -83z" />
<glyph unicode="&#x288;" horiz-adv-x="694" d="M39 854v55q53 36 96.5 74.5t87.5 92t73 93.5t85 121h51v-346h195v-90h-195v-1106q0 -66 27 -114t71 -48q29 0 47.5 10t18.5 25t-18 45q-29 45 -29 76q0 46 35 78.5t86 32.5q57 0 92 -34.5t35 -90.5q0 -91 -80.5 -148t-206.5 -57q-105 0 -183.5 40.5t-123.5 114.5 q-56 93 -56 170v1006h-108z" />
<glyph unicode="&#x289;" horiz-adv-x="1138" d="M18 457v94h115v211q0 71 -18.5 96t-81.5 37v49h385v-393h282v215q0 70 -25 96.5t-100 32.5v49h410v-393h117v-94h-117v-242q0 -68 25 -96t92 -31v-47l-129 -14q-102 -11 -154 -21t-117 -33v133q-79 -75 -145 -105t-151 -30q-128 0 -200.5 77.5t-72.5 219.5v189h-115z M418 260q0 -84 28.5 -120t85.5 -36q44 0 82.5 22t85.5 75v256h-282v-197z" />
<glyph unicode="&#x28a;" horiz-adv-x="1024" d="M27 877v49h381q-89 -292 -89 -504q0 -41 4 -85t16.5 -101t32.5 -100t56.5 -73t83.5 -30q51 0 88.5 31t56.5 73.5t31 101.5t14.5 100t2.5 85q0 212 -89 502h381v-49h-153q-15 0 -29 -21.5t-14 -46.5q0 -37 22 -59q26 -24 59.5 -64.5t72 -113.5t38.5 -132q0 -130 -68 -236 t-177.5 -163t-235.5 -57q-125 0 -235.5 58t-178 161.5t-67.5 228.5q0 51 21 106t54 100.5t52.5 69t36.5 40.5q32 32 32 63q0 24 -17.5 45t-33.5 21h-149z" />
<glyph unicode="&#x28b;" horiz-adv-x="1093" d="M47 768v47q206 62 404 137l16 -10v-684q0 -68 45 -122t109 -54q70 0 130.5 37t99.5 95.5t61 127.5t22 135q0 59 -11 108t-25.5 78t-38.5 55t-38.5 37t-38.5 25q-43 27 -61.5 47.5t-18.5 51.5q0 34 29 53.5t72 19.5q55 0 99.5 -34t70.5 -84t43.5 -112t24 -111.5t6.5 -88.5 q0 -81 -19 -159t-58.5 -147.5t-95 -122t-133 -83t-168.5 -30.5q-80 0 -148.5 17t-124 51.5t-87 93.5t-31.5 137v481q0 16 -10.5 21t-32.5 5q-31 0 -92 -18z" />
<glyph unicode="&#x28c;" horiz-adv-x="1024" d="M43 0v49q48 5 69 24.5t50 88.5l327 811h54l245 -606q31 -75 77 -172.5t59 -116.5q16 -22 69 -29v-49h-512v49l37 4q39 5 55.5 15.5t16.5 33.5q0 15 -19 64l-161 416l-148 -373q-22 -54 -22 -92q0 -37 23 -51t89 -17v-49h-309z" />
<glyph unicode="&#x28d;" horiz-adv-x="1478" d="M47 0v49q40 7 61.5 28.5t41.5 74.5l317 821h47l209 -635l256 635h49l303 -766q39 -97 58.5 -124t58.5 -34v-49h-455v49q43 6 60.5 18.5t17.5 38.5q0 25 -70 209q-6 18 -10 27l-92 242l-139 -351l41 -127q11 -34 28 -43t64 -14v-49h-479v49q58 5 78 14.5t20 34.5 q0 10 -55 217l-70 260l-143 -385q-19 -55 -19 -69q0 -35 21 -50.5t78 -21.5v-49h-277z" />
<glyph unicode="&#x28e;" horiz-adv-x="1024" d="M33 0v49q49 6 74 27.5t49 85.5l303 815q93 249 157 319q65 68 172 68q88 0 143.5 -45t55.5 -117q0 -60 -34.5 -98.5t-92.5 -38.5q-52 0 -87.5 31t-35.5 75q0 9 4 29l2 12q0 14 -10.5 24.5t-23.5 10.5q-36 0 -73 -45.5t-63 -122.5l-36 -108l243 -594q31 -78 78 -179 t60 -120q9 -13 23 -19t46 -10v-49h-510v49l33 2q74 6 74 51q0 17 -41 119l-148 381l-139 -385q-23 -68 -23 -100q0 -37 22.5 -51t88.5 -17v-49h-311z" />
<glyph unicode="&#x28f;" horiz-adv-x="1296" d="M94 915v35h543v-35l-45 -4q-53 -5 -69.5 -11.5t-16.5 -29.5q0 -18 39 -82l194 -325l176 250q68 93 68 143q0 30 -26.5 41.5t-110.5 17.5v35h356v-35q-75 -11 -108 -55l-310 -438v-250q0 -82 25.5 -106t122.5 -31v-35h-561v35q52 4 80.5 11.5t44.5 25.5t20 41t4 67v191 l-291 460q-51 78 -135 84z" />
<glyph unicode="&#x290;" horiz-adv-x="1087" d="M43 0v51l479 828q-92 0 -148 -5.5t-99.5 -17.5t-68.5 -40t-42 -64t-33 -99h-53l14 291h760v-53l-473 -825h59q125 0 187.5 25t113.5 95q42 63 64 142h57l-41 -385q-14 -114 -14 -187q0 -58 30 -98.5t72 -40.5q74 0 74 35q0 15 -18 45q-29 45 -29 76q0 46 35 78t86 32 q57 0 92 -34.5t35 -90.5q0 -91 -77.5 -147.5t-203.5 -56.5q-71 0 -120.5 48t-49.5 132q0 108 21 266h-709z" />
<glyph unicode="&#x291;" horiz-adv-x="1101" d="M43 0v51l479 828q-92 0 -148 -5.5t-99.5 -17.5t-68.5 -40t-42 -64t-33 -99h-53l14 291h760v-53l-473 -825h190q86 161 158.5 232t157.5 71q84 0 129 -39.5t45 -114.5q0 -96 -77.5 -155.5t-211.5 -59.5h-149q-131 -230 -168 -307h-88q86 167 172 307h-494zM655 66h105 q26 0 63 4.5t47 7.5q76 28 99.5 61.5t23.5 77.5q0 43 -32.5 64.5t-75.5 21.5q-56 0 -120.5 -72t-109.5 -165z" />
<glyph unicode="&#x292;" horiz-adv-x="901" d="M16 602l70 320h762v-56l-397 -403q46 12 108 12q57 0 113.5 -29.5t103.5 -82t76 -134t29 -176.5q0 -94 -22.5 -178t-59 -142t-71.5 -96t-69 -61q-93 -59 -231 -59q-78 0 -161.5 18.5t-127.5 48.5q-96 64 -96 146q0 42 30 72t91 30q116 0 137 -137q7 -45 48 -74t93 -29 q179 0 179 424q0 61 -8.5 115.5t-26.5 104t-53.5 79t-83.5 29.5q-128 0 -224 -96l-55 49l467 475h-418q-42 0 -90.5 -47.5t-58.5 -122.5h-54z" />
<glyph unicode="&#x293;" horiz-adv-x="901" d="M16 602l70 320h762v-56l-397 -403q46 12 108 12q38 0 79 -14t85 -47.5t78.5 -82.5t57 -127.5t22.5 -174.5q0 -43 -10.5 -95.5t-35 -112.5t-59.5 -113t-88.5 -97.5t-116.5 -65.5l88 -174h-100l-78 154q-71 -8 -151 -8t-140.5 22.5t-92 57.5t-46 69.5t-14.5 65.5 q0 73 53.5 121.5t149.5 48.5q41 0 69.5 -8t64 -34t73.5 -82.5t81 -146.5q93 83 93 381q0 56 -7 107.5t-24 105.5t-53.5 86.5t-87.5 32.5q-128 0 -224 -96l-55 49l467 475h-418q-42 0 -90.5 -47.5t-58.5 -122.5h-54zM215 -258q0 -70 56 -110t137 -40q13 0 41 7 q-113 227 -179 227q-55 0 -55 -84z" />
<glyph unicode="&#x294;" horiz-adv-x="854" d="M113 1182q0 98 112 161q101 56 209 56q193 0 315.5 -107.5t122.5 -287.5q0 -99 -40 -191.5t-123.5 -159.5t-192.5 -78v-403q0 -59 41.5 -88.5t101.5 -34.5v-49h-491v49q57 2 93 32.5t36 96.5v596h65q96 0 171 70t75 188q0 44 -5.5 91t-18.5 99t-41 84.5t-66 32.5 q-22 0 -39 -8.5t-27 -18t-19.5 -31t-13.5 -34.5t-11 -41q-32 -123 -146 -123q-52 0 -80 32t-28 67z" />
<glyph unicode="&#x295;" horiz-adv-x="854" d="M113 1004q0 180 122.5 287.5t315.5 107.5q108 0 209 -56q112 -63 112 -161q0 -35 -28 -67t-80 -32q-114 0 -146 123q-7 28 -11 41t-13.5 34.5t-19.5 31t-27 18t-39 8.5q-38 0 -66 -32.5t-41 -84.5t-18.5 -99t-5.5 -91q0 -118 75 -188t171 -70h65v-596q0 -66 36 -96.5 t93 -32.5v-49h-491v49q60 5 101.5 34.5t41.5 88.5v403q-109 11 -192.5 78t-123.5 159.5t-40 191.5z" />
<glyph unicode="&#x296;" horiz-adv-x="854" d="M113 188q0 35 28 67t80 32q114 0 146 -123q7 -28 11 -41t13.5 -34.5t19.5 -31t27 -18t39 -8.5q38 0 66 32.5t41 84.5t18.5 99t5.5 91q0 118 -75 188t-171 70h-65v596q0 66 -36 96.5t-93 32.5v49h491v-49q-60 -5 -101.5 -34.5t-41.5 -88.5v-403q109 -11 192.5 -78 t123.5 -159t40 -191q0 -180 -122.5 -288t-315.5 -108q-108 0 -209 56q-112 63 -112 161z" />
<glyph unicode="&#x297;" horiz-adv-x="980" d="M147 -158v801q0 76 41.5 140t106 103.5t139 61t144.5 21.5q76 0 152 -29t130 -86t55 -127q0 -46 -33 -87.5t-98 -41.5q-46 0 -80 24t-34 60q0 33 12 62t12 53q0 52 -25.5 73t-78.5 21q-77 0 -124.5 -55.5t-47.5 -135.5v-841q0 -94 51.5 -163t128.5 -69q95 0 162 71.5 t67 170.5v53h88v-82q0 -131 -104 -223t-270 -92q-152 0 -273 92t-121 225z" />
<glyph unicode="&#x298;" horiz-adv-x="1480" d="M27 678q0 156 57 290.5t154.5 227t229.5 145t280 52.5q199 0 360.5 -95t251.5 -259t90 -363q0 -195 -89.5 -357.5t-252 -258t-365.5 -95.5q-139 0 -268.5 51.5t-229 142.5t-159 226.5t-59.5 292.5zM289 682q0 -110 16.5 -204t51.5 -173t87.5 -134.5t128 -86.5t168.5 -31 q128 0 230.5 80.5t159.5 224.5t57 324q0 184 -49 324.5t-153 223.5t-251 83q-205 0 -325.5 -163t-120.5 -468zM573 672q0 69 47 116.5t117 47.5q66 0 113 -47.5t47 -116.5q0 -68 -45.5 -114t-112.5 -46q-69 0 -117.5 46.5t-48.5 113.5z" />
<glyph unicode="&#x299;" horiz-adv-x="933" d="M31 0v35q80 9 103.5 29.5t23.5 80.5v656q0 63 -25.5 85.5t-101.5 28.5v35h461q173 0 266.5 -58t93.5 -167q0 -83 -53 -135.5t-176 -77.5q123 -15 201.5 -82.5t78.5 -165.5q0 -117 -103.5 -190.5t-291.5 -73.5h-477zM389 137q0 -50 21.5 -70t70.5 -20q85 0 128.5 55.5 t43.5 161.5q0 108 -55 161.5t-170 53.5h-39v-342zM389 526q133 0 179 41.5t46 147.5q0 95 -34.5 141.5t-108.5 46.5q-43 0 -62.5 -16t-19.5 -56v-305z" />
<glyph unicode="&#x29a;" horiz-adv-x="952" d="M23 252q0 89 67.5 160.5t173.5 99.5q-96 44 -141 92t-45 129q0 240 403 240q89 0 171 -35.5t144 -98.5t99 -157t37 -205q0 -88 -18.5 -162.5t-49 -125.5t-72 -90.5t-84 -63t-90 -38.5t-85.5 -20.5t-74 -5.5q-89 0 -166 16.5t-138.5 49t-96.5 88t-35 127.5zM309 264 q0 -87 51.5 -139.5t133.5 -52.5q120 0 207 118.5t87 305.5q0 170 -97 285.5t-228 115.5q-78 0 -108.5 -41.5t-30.5 -138.5q0 -60 45 -104t98 -60q18 -5 31 -7.5t19.5 -3t25 -1t30.5 -0.5v-76h-108q-73 0 -114.5 -54t-41.5 -147z" />
<glyph unicode="&#x29b;" horiz-adv-x="1228" d="M59 453q0 206 148.5 348.5t367.5 142.5q131 0 256 -61q9 99 54 149q25 31 64.5 49.5t76.5 18.5q86 0 139.5 -36.5t53.5 -96.5q0 -37 -23.5 -60.5t-60.5 -23.5q-32 0 -55 21t-23 52q0 27 13 49.5t13 26.5q0 27 -39 27q-65 0 -65 -82v-356h-37q-38 81 -65.5 121.5 t-73.5 80.5q-85 74 -207 74q-130 0 -202 -112t-72 -322q0 -209 73 -322q40 -62 93 -91.5t137 -29.5q141 0 141 117v119q0 55 -29.5 76.5t-124.5 27.5v33h514v-33q-80 -10 -104.5 -39.5t-24.5 -95.5v-162q-73 -39 -183.5 -62.5t-223.5 -23.5q-231 0 -381 130.5t-150 345.5z " />
<glyph unicode="&#x29c;" horiz-adv-x="1191" d="M43 0v35q79 9 103 28t24 74v674q0 58 -25.5 78t-101.5 26v35h504v-35q-80 -6 -107.5 -26.5t-27.5 -77.5v-287h362v287q0 58 -27 78t-106 26v35h508v-35q-78 -6 -105.5 -27t-27.5 -77v-674q0 -55 25 -74t108 -28v-35h-508v35q82 9 107.5 28.5t25.5 73.5v322h-362v-322 q0 -55 26 -74t109 -28v-35h-504z" />
<glyph unicode="&#x29d;" horiz-adv-x="806" d="M-123 -236q0 111 80.5 177.5t183.5 66.5q69 0 146 -18v784q0 66 -25.5 90.5t-103.5 30.5v49h413v-915q0 -116 -10 -170q28 -22 57 -51t48 -49t51 -61t42 -54t47.5 -64t41.5 -57h-98q-67 85 -211 229q-56 -126 -148 -177.5t-225 -51.5q-128 0 -208.5 65t-80.5 176z M-33 -227q0 -85 54 -126.5t129 -41.5q137 0 137 200v82q-28 16 -76 27.5t-82 11.5q-61 0 -111.5 -41.5t-50.5 -111.5zM260 1255q0 67 46 113.5t114 46.5q64 0 111 -47.5t47 -112.5q0 -67 -46.5 -112t-115.5 -45q-67 0 -111.5 44.5t-44.5 112.5z" />
<glyph unicode="&#x29e;" horiz-adv-x="1138" d="M45 895v49h479v-49q-86 -3 -86 -39q0 -24 49 -92l195 -275l47 50v233q0 72 -17 92.5t-89 30.5v49h489v-49q-51 -5 -74.5 -34t-23.5 -89v-1044q0 -59 23 -87t75 -32v-49h-383v882l-262 -262q-17 -17 -30 -40.5t-13 -37.5q0 -21 16.5 -32t55.5 -15l49 -6v-49h-439v49 q98 12 166.5 59t221.5 207l-398 549q-13 19 -23.5 25t-27.5 6z" />
<glyph unicode="&#x29f;" horiz-adv-x="962" d="M35 0v35q72 9 92 27.5t20 74.5v672q0 60 -22 80.5t-90 25.5v35h487v-35q-87 -3 -110 -28t-23 -109v-641q0 -43 43.5 -66.5t112.5 -23.5q76 0 115.5 16.5t80.5 57.5q60 60 115 198h45l-55 -319h-811z" />
<glyph unicode="&#x2a0;" horiz-adv-x="1302" d="M70 449q0 144 55 261.5t159.5 188t239.5 70.5q103 0 187 -54q19 108 71 172q85 105 277 105q130 0 210.5 -57t80.5 -148q0 -58 -34.5 -94.5t-90.5 -36.5q-52 0 -87.5 34.5t-35.5 82.5q0 31 11 54t22.5 37.5t11.5 25.5q0 38 -60 38q-53 0 -77.5 -27.5t-24.5 -94.5v-1258 q0 -61 21 -83t92 -36v-49h-547v49q97 13 123 48t26 139v270q-51 -65 -111 -90t-140 -25q-163 0 -271 130.5t-108 347.5zM369 483q0 -201 51.5 -301t138.5 -100q57 0 99 32t42 87v524q0 84 -37.5 131t-99.5 47q-90 0 -142 -104.5t-52 -315.5z" />
<glyph unicode="&#x2a1;" horiz-adv-x="1024" d="M113 1182q0 98 112 161q101 56 209 56q193 0 315.5 -107.5t122.5 -287.5q0 -99 -40 -191.5t-123.5 -159.5t-192.5 -78v-149h133v-94h-133v-160q0 -59 41.5 -88.5t101.5 -34.5v-49h-491v49q57 2 93 32.5t36 96.5v154h-135v94h135v348h65q96 0 171 70t75 188q0 44 -5.5 91 t-18.5 99t-41 84.5t-66 32.5q-22 0 -39 -8.5t-27 -18t-19.5 -31t-13.5 -34.5t-11 -41q-32 -123 -146 -123q-52 0 -80 32t-28 67z" />
<glyph unicode="&#x2a2;" horiz-adv-x="1024" d="M113 1004q0 180 122.5 287.5t315.5 107.5q108 0 209 -56q112 -63 112 -161q0 -35 -28 -67t-80 -32q-114 0 -146 123q-7 28 -11 41t-13.5 34.5t-19.5 31t-27 18t-39 8.5q-38 0 -66 -32.5t-41 -84.5t-18.5 -99t-5.5 -91q0 -118 75 -188t171 -70h65v-348h135v-94h-135v-154 q0 -66 36 -96.5t93 -32.5v-49h-491v49q60 5 101.5 34.5t41.5 88.5v160h-133v94h133v149q-109 11 -192.5 78t-123.5 159.5t-40 191.5z" />
<glyph unicode="&#x2a3;" horiz-adv-x="1777" d="M51 453q0 222 112 369t281 147q70 0 124 -28t120 -99v375q0 70 -26.5 90t-129.5 28v49h441v-469h745v-53l-473 -825h60q124 0 187 25t114 96q41 61 63 141h57l-32 -328h-1000v135q-72 -76 -131 -105.5t-141 -29.5q-161 0 -266 136t-105 346zM354 469q0 -195 39 -289 t121 -94q74 0 135 76q39 53 39 67v498q-23 59 -66 93t-94 34q-89 0 -131.5 -93.5t-42.5 -291.5zM973 207q0 -41 8 -62l408 705q-93 0 -148.5 -5t-99.5 -17.5t-69 -40t-42 -64t-33 -98.5h-24v-418z" />
<glyph unicode="&#x2a4;" horiz-adv-x="1658" d="M51 453q0 222 112 369t281 147q70 0 124 -28t120 -99v375q0 70 -26.5 90t-129.5 28v49h441v-462h620v-56l-397 -403q46 12 109 12q57 0 113.5 -29.5t103 -82t75.5 -134t29 -176.5q0 -94 -22.5 -178t-58.5 -142t-71 -96t-69 -61q-93 -59 -231 -59q-78 0 -161.5 18.5 t-127.5 48.5q-97 65 -97 146q0 42 30 72t91 30q117 0 138 -137q7 -45 48 -74t93 -29q178 0 178 424q0 61 -8.5 115.5t-26.5 104t-53.5 79t-83.5 29.5q-127 0 -221 -94l-46 -46t-40 -40.5t-31.5 -32.5t-28.5 -30.5t-23 -24.5t-22 -25t-18 -21t-20 -23.5t-19 -22.5l-31 2v120 q-72 -76 -131 -105.5t-141 -29.5q-161 0 -266 136t-105 346zM354 469q0 -195 39 -289t121 -94q74 0 135 76q39 53 39 67v498q-23 59 -66 93t-94 34q-89 0 -131.5 -93.5t-42.5 -291.5zM973 354l409 418h-409v-418z" />
<glyph unicode="&#x2a5;" horiz-adv-x="1966" d="M51 453q0 222 112 369t281 147q70 0 124 -28t120 -99v375q0 70 -26.5 90t-129.5 28v49h441v-469h731v-53l-473 -825h190q86 161 158.5 232t157.5 71q84 0 129 -39.5t45 -114.5q0 -96 -77.5 -155.5t-211.5 -59.5h-149q-131 -230 -168 -307h-88q86 167 172 307h-695v135 q-72 -76 -131 -105.5t-141 -29.5q-161 0 -266 136t-105 346zM354 469q0 -195 39 -289t121 -94q74 0 135 76q39 53 39 67v498q-23 59 -66 93t-94 34q-89 0 -131.5 -93.5t-42.5 -291.5zM973 207q0 -33 2 -45l399 688q-77 0 -127 -3t-92.5 -12.5t-66.5 -23.5t-45 -41.5 t-33.5 -60t-26.5 -84.5h-10v-418zM1507 37h105q26 0 63 4.5t47 7.5q76 28 99.5 61.5t23.5 77.5q0 43 -32.5 64.5t-75.5 21.5q-56 0 -120.5 -72t-109.5 -165z" />
<glyph unicode="&#x2a6;" horiz-adv-x="1282" d="M39 854v55q53 36 96.5 74.5t87.5 92t73 93.5t85 121h51v-346h295q64 25 135 25t160 -31q46 -14 63 -14q20 0 31.5 9t20.5 32h45v-297h-52q-23 66 -43.5 101.5t-52.5 66.5q-68 65 -153 65q-58 0 -97 -34t-39 -85q0 -53 46.5 -95t150.5 -85q154 -64 218.5 -137t64.5 -182 q0 -138 -88 -223t-228 -85q-222 0 -317 95q-82 -95 -215 -95q-106 0 -168 59t-62 161v659h-108zM432 244q0 -63 19 -93t61 -30q32 0 59 25t58 83l51 -22q-13 -26 -25 -47q73 -115 219 -115q70 0 112 35t42 94q0 50 -45.5 91t-151.5 87q-154 66 -222 141t-68 177 q0 106 63 184h-172v-610z" />
<glyph unicode="&#x2a7;" horiz-adv-x="1105" d="M39 854v55q53 36 96.5 74.5t87.5 92t73 93.5t85 121h51v-346h266v66q0 174 92 281.5t265 107.5q107 0 167 -43t60 -117q0 -53 -31 -89t-80 -36q-46 0 -77 28.5t-31 67.5q0 28 18.5 61t18.5 38q0 11 -14 19.5t-33 8.5q-86 0 -86 -280v-1145q0 -173 -95 -281t-268 -108 q-107 0 -167 43t-60 117q0 53 30.5 88.5t79.5 35.5q46 0 77.5 -28.5t31.5 -67.5q0 -28 -18.5 -60.5t-18.5 -37.5q0 -11 14.5 -20t32.5 -9q32 0 52 19.5t28 55.5t10 61.5t2 62.5v332q-82 -54 -121.5 -77.5t-93.5 -43t-106 -19.5q-106 0 -168 59t-62 161v659h-108zM432 244 q0 -63 19 -93t61 -30q28 0 71 26t115 78v629h-266v-610z" />
<glyph unicode="&#x2a8;" horiz-adv-x="1433" d="M39 854v55q53 36 96.5 74.5t87.5 92t73 93.5t85 121h51v-346h195v-90h-195v-598q0 -70 16.5 -102.5t67.5 -32.5q79 0 152 24q-105 119 -105 328q0 112 38 208.5t103 163t154.5 104.5t190.5 38q134 0 224.5 -63.5t90.5 -161.5q0 -60 -37.5 -95.5t-101.5 -35.5 q-54 0 -84.5 38.5t-30.5 110.5q0 36 -0.5 52.5t-5 38.5t-13.5 31t-25.5 15.5t-41.5 6.5q-77 0 -124.5 -91.5t-47.5 -254.5q0 -201 68 -326q186 108 294 108q90 0 144.5 -47t54.5 -123q0 -39 -14.5 -75.5t-45 -68.5t-84 -51.5t-124.5 -19.5q-174 0 -260 29q-92 32 -154 72 q-193 -101 -354 -101q-106 0 -168 59t-62 161v659h-108zM969 178q25 -34 94 -73t121 -39q139 0 139 124q0 44 -33.5 66.5t-75.5 22.5q-91 0 -245 -101z" />
<glyph unicode="&#x2b0;" horiz-adv-x="774" d="M12 1688v36h275v-430q50 64 99 91.5t108 27.5q85 0 134.5 -57t49.5 -152v-385q0 -52 16.5 -74t53.5 -22v-37h-332v37q36 6 50.5 26t14.5 66v346q0 83 -15 116.5t-56 33.5q-69 0 -123 -86v-408q0 -48 13.5 -67.5t53.5 -26.5v-37h-340v37q37 7 49.5 13t19.5 25t7 62v770 q0 54 -13.5 69t-64.5 26z" />
<glyph unicode="&#x2b1;" horiz-adv-x="774" d="M14 688v37q37 7 49.5 13t19.5 25t7 62v605q0 155 55 229q62 78 191 78q90 0 146.5 -43t56.5 -111q0 -43 -24.5 -70.5t-63.5 -27.5q-34 0 -59 26t-25 62q0 31 16 55.5t16 30.5q0 14 -11.5 22.5t-31.5 8.5q-36 0 -52.5 -24t-16.5 -81v-289q51 65 100 92t107 27 q86 0 135 -58t49 -151v-383q0 -53 16.5 -75.5t53.5 -22.5v-37h-332v37q36 4 50.5 25t14.5 69v344q0 83 -15 116.5t-56 33.5q-52 0 -99 -53q-24 -24 -24 -37v-404q0 -47 14.5 -67.5t52.5 -26.5v-37h-340z" />
<glyph unicode="&#x2b2;" horiz-adv-x="614" d="M51 524q0 41 28 69t71 28q39 0 66.5 -25t27.5 -61q0 -24 -23 -60q-14 -20 -14 -33q0 -12 14 -20t37 -8q40 0 58 29t18 92v747q0 51 -20 70.5t-81 23.5v37h320v-723q0 -129 -43 -205q-68 -118 -236 -118q-99 0 -161 43.5t-62 113.5zM313 1653q0 53 35.5 89t87.5 36 q50 0 86.5 -37t36.5 -88t-36.5 -86t-90.5 -35q-52 0 -85.5 34.5t-33.5 86.5z" />
<glyph unicode="&#x2b3;" horiz-adv-x="552" d="M25 1376v37h243v-123q46 77 85.5 109.5t86.5 32.5q45 0 75 -33.5t30 -85.5q0 -44 -23 -72.5t-57 -28.5q-26 0 -43.5 12.5t-36.5 43.5q-14 35 -33 35q-35 0 -56.5 -44.5t-21.5 -111.5v-303q0 -72 16.5 -95t74.5 -26v-37h-338v37q41 7 54 24.5t13 63.5v471q0 51 -13.5 68.5 t-55.5 25.5z" />
<glyph unicode="&#x2b4;" horiz-adv-x="598" d="M20 786q0 44 23 72.5t57 28.5q26 0 43.5 -12.5t36.5 -43.5q14 -34 33 -34q35 0 56.5 44t21.5 111v303q0 72 -16.5 95t-73.5 26v37h338v-37q-41 -7 -54.5 -24.5t-13.5 -63.5v-471q0 -51 14 -68.5t56 -25.5v-37h-244v123q-46 -76 -85.5 -108.5t-86.5 -32.5q-45 0 -75 33 t-30 85z" />
<glyph unicode="&#x2b5;" horiz-adv-x="653" d="M20 784q0 47 23 75t59 28q48 0 80 -60q16 -30 31 -30q34 0 56 43t22 106v303q0 76 -16 100t-74 27v37h338v-37q-42 -7 -55 -25t-13 -65v-778q0 -52 16.5 -89.5t44.5 -37.5q18 0 29.5 7t11.5 18t-12 32q-16 31 -16 56q0 34 22 56.5t54 22.5q35 0 57 -25t22 -65 q0 -66 -51 -107.5t-129 -41.5q-134 0 -192 112q-37 68 -37 125v230q-46 -74 -84.5 -103.5t-81.5 -29.5q-45 0 -75 32.5t-30 83.5z" />
<glyph unicode="&#x2b6;" horiz-adv-x="827" d="M41 707v24q60 5 78 24.5t18 80.5v440q0 62 -15 77t-81 23v25h377v-25q-66 -9 -81 -24t-15 -72v-201h30l232 322h229v-25q-31 0 -49 -22l-223 -291q73 -15 123 -59q53 -41 53 -121q0 -176 -332 -176h-344zM322 786q0 -25 12.5 -35t44.5 -10q78 0 111.5 35t33.5 117 q0 90 -44 119.5t-158 31.5v-258z" />
<glyph unicode="&#x2b7;" horiz-adv-x="1126" d="M47 1358v37h336v-37q-32 -5 -44.5 -14t-12.5 -29q0 -15 59 -172l68 -178l102 258l-31 98q-10 22 -22.5 28t-44.5 9v37h354v-37q-43 -3 -58.5 -10.5t-15.5 -26.5q0 -13 41 -160q43 -155 51 -190l54 141q67 177 67 193q0 26 -15 37.5t-58 15.5v37h204v-37 q-29 -6 -44.5 -21.5t-30.5 -54.5l-234 -604h-35l-155 467l-189 -467h-37l-223 563q-28 71 -42.5 91t-43.5 26z" />
<glyph unicode="&#x2b8;" horiz-adv-x="778" d="M33 489q0 45 27.5 76t70.5 31q40 0 67 -24t27 -58q0 -4 -2 -16t-2 -17q0 -9 8.5 -17.5t18.5 -8.5q27 0 54 35t48 94l29 84l-186 456q-23 58 -59.5 137.5t-47.5 94.5q-10 15 -53 20v37h393v-37h-27q-55 -6 -55 -41q0 -9 31 -92l112 -293l109 295q16 47 16 78 q0 29 -17 40.5t-67 12.5v37h238v-37q-38 -5 -57 -21.5t-37 -66.5l-234 -624q-68 -187 -121 -246q-48 -51 -131 -51q-68 0 -110.5 33.5t-42.5 88.5z" />
<glyph unicode="&#x2b9;" horiz-adv-x="425" d="M61 885l191 434q36 82 106 82q30 0 57 -27t27 -57q0 -29 -39 -86l-276 -369z" />
<glyph unicode="&#x2ba;" horiz-adv-x="729" d="M39 885l190 434q36 82 107 82q30 0 57 -27t27 -57q0 -29 -39 -86l-277 -369zM365 885l190 434q36 82 107 82q30 0 56.5 -26.5t26.5 -57.5t-38 -86l-277 -369z" />
<glyph unicode="&#x2bb;" horiz-adv-x="681" d="M80 954q0 135 82.5 246t257.5 203l22 -45q-223 -153 -223 -273q0 -19 11 -31t28 -12q6 0 22 2.5t27 2.5q66 0 108 -43t42 -113q0 -79 -47.5 -126.5t-124.5 -47.5q-96 0 -150.5 63.5t-54.5 173.5z" />
<glyph unicode="&#x2bc;" horiz-adv-x="681" d="M80 1231q0 79 47.5 126.5t124.5 47.5q96 0 150.5 -64t54.5 -174q0 -134 -82 -245t-258 -203l-23 45q223 153 223 272q0 19 -10.5 31t-27.5 12q-6 0 -22.5 -2t-27.5 -2q-66 0 -107.5 43t-41.5 113z" />
<glyph unicode="&#x2bd;" horiz-adv-x="512" d="M80 1167q0 110 54.5 174t150.5 64q77 0 124.5 -47.5t47.5 -126.5q0 -70 -42 -113t-108 -43q-11 0 -27 2t-22 2q-17 0 -28 -12t-11 -31q0 -119 223 -272l-22 -45q-176 92 -258 203t-82 245z" />
<glyph unicode="&#x2be;" horiz-adv-x="684" d="M133 782v103h92q52 0 89.5 15.5t57.5 43t29 58.5t9 67q0 77 -42.5 130.5t-142.5 53.5h-92v103h92q59 0 108.5 -15t91 -47t64.5 -89.5t23 -135.5t-23.5 -135.5t-65 -89.5t-91 -47t-107.5 -15h-92z" />
<glyph unicode="&#x2bf;" horiz-adv-x="684" d="M133 1069q0 78 23 135.5t64.5 89.5t91 47t108.5 15h92v-103h-92q-100 0 -142 -53.5t-42 -130.5q0 -36 8.5 -67t28.5 -58.5t57.5 -43t89.5 -15.5h92v-103h-92q-58 0 -107.5 15t-91 47t-65 89.5t-23.5 135.5z" />
<glyph unicode="&#x2c0;" horiz-adv-x="722" d="M61 1235q0 82 93 133q79 45 170 45q158 0 258 -88t100 -235q0 -63 -21.5 -125t-60.5 -112.5t-101 -82t-137 -31.5q-28 0 -51 2l-12 -249h-88v411h55q78 0 139.5 57t61.5 152q0 36 -4.5 75t-15.5 81t-34 69t-55 27q-22 0 -37.5 -8.5t-25.5 -26.5t-15 -32.5t-12 -41.5 q-24 -100 -118 -100q-42 0 -65.5 26t-23.5 54z" />
<glyph unicode="&#x2c1;" horiz-adv-x="722" d="M61 1090q0 147 100.5 235t258.5 88q91 0 170 -45q42 -23 67 -57.5t25 -75.5q0 -28 -23 -54t-65 -26q-95 0 -119 100q-7 27 -12 41.5t-15 32.5t-25.5 26.5t-37.5 8.5q-32 0 -55 -27t-34 -69t-15.5 -81t-4.5 -75q0 -95 61.5 -152t139.5 -57h55v-411h-88l-12 249 q-23 -2 -51 -2q-75 0 -137 31.5t-101 82t-60.5 112.5t-21.5 125z" />
<glyph unicode="&#x2c2;" horiz-adv-x="649" d="M61 1151v102l547 303v-155l-366 -199l366 -198v-156z" />
<glyph unicode="&#x2c3;" horiz-adv-x="649" d="M61 848v156l367 198l-367 199v155l547 -303v-102z" />
<glyph unicode="&#x2c4;" horiz-adv-x="649" d="M-29 928l303 547h103l303 -547h-156l-198 366l-199 -366h-156z" />
<glyph unicode="&#x2c5;" horiz-adv-x="649" d="M-29 1475h156l199 -367l198 367h156l-303 -547h-103z" />
<glyph unicode="&#x2c6;" horiz-adv-x="681" d="M-4 1081l250 361h188l252 -361h-117l-229 201l-229 -201h-115z" />
<glyph unicode="&#x2c7;" horiz-adv-x="681" d="M-4 1442h117l227 -203l227 203h119l-252 -361h-188z" />
<glyph unicode="&#x2c8;" horiz-adv-x="571" d="M229 932v543h113v-543h-113z" />
<glyph unicode="&#x2c9;" horiz-adv-x="757" d="M41 1157v148h676v-148h-676z" />
<glyph unicode="&#x2ca;" horiz-adv-x="544" d="M41 1081l281 322q51 57 108 57q44 0 71 -25t27 -65q0 -35 -16 -56t-66 -52l-290 -181h-115z" />
<glyph unicode="&#x2cb;" horiz-adv-x="544" d="M41 1368q0 38 28 65t68 27q60 0 111 -57l280 -322h-114l-291 181q-45 28 -63.5 52t-18.5 54z" />
<glyph unicode="&#x2cc;" horiz-adv-x="569" d="M229 143h113v-542h-113v542z" />
<glyph unicode="&#x2cd;" horiz-adv-x="757" d="M41 -180h676v-148h-676v148z" />
<glyph unicode="&#x2ce;" horiz-adv-x="681" d="M31 -106q0 38 28 65t68 27q59 0 111 -58l280 -321h-115l-290 180q-45 28 -63.5 52t-18.5 55z" />
<glyph unicode="&#x2cf;" horiz-adv-x="681" d="M164 -393l280 321q52 58 109 58q44 0 71 -25t27 -65q0 -35 -16 -56.5t-66 -52.5l-290 -180h-115z" />
<glyph unicode="&#x2d0;" horiz-adv-x="681" d="M162 8l112 369h134l112 -369h-358zM162 971h358l-112 -369h-134z" />
<glyph unicode="&#x2d1;" horiz-adv-x="681" d="M162 971h358l-112 -369h-134z" />
<glyph unicode="&#x2d2;" horiz-adv-x="681" d="M133 127v139h92q77 0 131 54t54 131q0 76 -54 130t-131 54h-92v139h92q132 0 228 -86t96 -237q0 -102 -47.5 -177.5t-119.5 -111t-157 -35.5h-92z" />
<glyph unicode="&#x2d3;" horiz-adv-x="681" d="M133 451q0 151 96 237t228 86h92v-139h-92q-77 0 -131 -54t-54 -130q0 -77 54 -131t131 -54h92v-139h-92q-85 0 -157 35.5t-119.5 111t-47.5 177.5z" />
<glyph unicode="&#x2d4;" horiz-adv-x="681" d="M104 8v113h179v301h112v-301h180v-113h-471z" />
<glyph unicode="&#x2d5;" horiz-adv-x="681" d="M104 309v113h471v-113h-180v-301h-112v301h-179z" />
<glyph unicode="&#x2d6;" horiz-adv-x="684" d="M125 174v135h156v156h122v-156h156v-135h-156v-156h-122v156h-156z" />
<glyph unicode="&#x2d7;" horiz-adv-x="684" d="M125 172v135h434v-135h-434z" />
<glyph unicode="&#x2d8;" horiz-adv-x="681" d="M31 1415h90q36 -178 209 -178q97 0 151 40.5t80 137.5h90q-11 -153 -88 -243.5t-223 -90.5q-149 0 -228 90.5t-81 243.5z" />
<glyph unicode="&#x2d9;" horiz-adv-x="681" d="M209 1233q0 54 38.5 92.5t92.5 38.5t93.5 -40t39.5 -95q0 -54 -39 -91.5t-96 -37.5q-54 0 -91.5 38.5t-37.5 94.5z" />
<glyph unicode="&#x2da;" horiz-adv-x="681" d="M123 1317q0 89 65 154t156 65q88 0 151.5 -63t63.5 -152q0 -91 -63.5 -156t-153.5 -65q-92 0 -155.5 62.5t-63.5 154.5zM221 1319q0 -49 35 -85t82 -36q52 0 87.5 33.5t35.5 83.5q0 52 -36.5 87.5t-88.5 35.5q-45 0 -80 -36t-35 -83z" />
<glyph unicode="&#x2db;" horiz-adv-x="681" d="M184 -195q0 58 23.5 106t87.5 122q9 11 17.5 20t11.5 13l67 24q0 -2 -12 -41q-23 -84 -23 -131q0 -71 29 -101t96 -30q44 0 99 27q8 4 26 16l47 -33q-37 -68 -110.5 -109.5t-147.5 -41.5q-95 0 -153 43.5t-58 115.5z" />
<glyph unicode="&#x2dc;" horiz-adv-x="681" d="M-33 1124q28 132 85.5 194t152.5 62q64 0 149 -39l82 -36q55 -25 80 -25q41 0 66 22.5t45 77.5h88q-35 -133 -93.5 -196.5t-144.5 -63.5q-62 0 -133 29l-59 27q-66 30 -88 37.5t-43 7.5q-39 0 -67 -27t-34 -70h-86z" />
<glyph unicode="&#x2dd;" horiz-adv-x="681" d="M-27 1081l279 322q51 57 110 57q44 0 71.5 -25t27.5 -65q0 -36 -16.5 -59.5t-65.5 -53.5l-289 -176h-117zM383 1081l279 322q51 57 110 57q44 0 71 -25t27 -65q0 -36 -16.5 -59.5t-65.5 -53.5l-288 -176h-117z" />
<glyph unicode="&#x2de;" horiz-adv-x="598" d="M0 727q80 51 127 109q44 58 63 149q0 -1 9.5 -29t15 -43.5t18 -50.5t22.5 -59.5t25.5 -59.5t29 -62.5t31 -57t34.5 -52.5q40 -51 69 -51q23 0 47 20t37 46q18 35 43 114l47 -131q-31 -88 -57 -123q-32 -41 -61.5 -53t-67.5 -12q-79 0 -153 115q-20 34 -37 67.5t-26.5 54 t-25.5 56t-26 57.5q-24 -43 -76.5 -76.5t-81.5 -40.5z" />
<glyph unicode="&#x2df;" horiz-adv-x="532" d="M20 1126l154 156l-151 150l92 92l153 -150l150 150l94 -92l-152 -150l152 -156l-92 -90l-152 152l-155 -152z" />
<glyph unicode="&#x2e0;" horiz-adv-x="860" d="M20 1366v35h312v-35q-60 0 -60 -45q0 -4 31 -59l166 -285l137 231q4 8 16.5 28.5t19.5 32.5t13.5 26.5t6.5 21.5q0 25 -20 37t-46 12v35h244v-35h-17q-28 0 -78 -86l-227 -387l144 -242q34 -62 34 -112q0 -69 -73.5 -109.5t-157.5 -40.5q-234 0 -234 127q0 51 45 131 l103 176l-189 326q-6 10 -38.5 69t-53.5 91q-20 31 -35 43.5t-43 13.5zM326 522q0 -31 23 -51.5t47 -26.5t46 -6q36 0 72.5 18t36.5 56q0 10 -11 33.5t-22.5 43.5t-29 48.5t-19.5 32.5l-41 69l-51 -90q-51 -85 -51 -127z" />
<glyph unicode="&#x2e1;" horiz-adv-x="389" d="M10 1688v36h295v-905q0 -51 18.5 -72.5t57.5 -23.5v-37h-369v37q41 3 59.5 24.5t18.5 71.5v768q0 95 -80 101z" />
<glyph unicode="&#x2e2;" horiz-adv-x="614" d="M39 657v261h45q50 -209 215 -209q54 0 86.5 28t32.5 74q0 38 -35 70t-117 67q-119 52 -171 110t-52 136q0 98 70.5 163.5t177.5 65.5q53 0 123 -22q38 -12 49 -12q15 0 23.5 6.5t15.5 25.5h35v-229h-39q-19 53 -34.5 79.5t-41.5 49.5q-54 51 -117 51q-46 0 -75 -26 t-29 -66q0 -41 34.5 -73.5t116.5 -65.5q118 -47 167.5 -104t49.5 -142q0 -106 -68 -173t-175 -67q-31 0 -82 11.5t-88 25.5q-23 10 -35 10q-10 0 -19.5 -10t-23.5 -35h-39z" />
<glyph unicode="&#x2e3;" horiz-adv-x="778" d="M25 1376v37h395v-37q-74 -3 -74 -30q0 -24 31 -68l82 -115l55 74q61 78 61 100q0 18 -10.5 25t-38.5 10l-32 4v37h266v-37q-67 -11 -111 -63l-160 -199l222 -344q31 -47 59 -47v-37h-381v37q72 6 72 33q0 24 -51 100l-68 100l-96 -129q-29 -40 -29 -65q0 -19 17.5 -27.5 t60.5 -11.5v-37h-266v37q43 3 76.5 31t101.5 116l102 134l-203 309q-25 37 -37.5 47t-43.5 16z" />
<glyph unicode="&#x2e4;" horiz-adv-x="671" d="M41 1427q0 147 100 235.5t258 88.5q91 0 170 -45q93 -51 93 -133q0 -28 -23.5 -54t-65.5 -26q-94 0 -118 100q-7 27 -12 41.5t-15 32.5t-25.5 26.5t-37.5 8.5q-32 0 -55 -27t-34 -69t-15.5 -81t-4.5 -75q0 -95 61.5 -152t139.5 -57h55v-405q0 -63 27.5 -86t113.5 -29v-35 h-458v35q28 2 36.5 2.5t29 3t26 5t19 7.5t17 11.5t11 16.5t9 23t3.5 29.5t2 38.5v221q-14 -2 -33 -2q-81 0 -145.5 54t-96.5 133t-32 163z" />
<glyph unicode="&#x2e5;" horiz-adv-x="829" d="M82 1249v135h672v-1384h-136v1249h-536z" />
<glyph unicode="&#x2e6;" horiz-adv-x="829" d="M82 877v135h536v372h136v-1384h-136v877h-536z" />
<glyph unicode="&#x2e7;" horiz-adv-x="829" d="M82 625v135h536v624h136v-1384h-136v625h-536z" />
<glyph unicode="&#x2e8;" horiz-adv-x="829" d="M82 373v135h536v876h136v-1384h-136v373h-536z" />
<glyph unicode="&#x2e9;" horiz-adv-x="829" d="M82 0v135h536v1249h136v-1384h-672z" />
<glyph unicode="&#x2ec;" horiz-adv-x="643" d="M10 143h160l152 -278l151 278h160l-268 -485h-89z" />
<glyph unicode="&#x2ed;" horiz-adv-x="808" d="M10 1081v148h789v-148h-789zM10 1327v148h789v-148h-789z" />
<glyph unicode="&#x2f7;" horiz-adv-x="681" d="M-33 -477q28 132 85.5 194t152.5 62q69 0 180 -53q8 -3 30.5 -13.5t37 -17t32 -12t27.5 -5.5q44 0 69.5 22.5t45.5 78.5h88q-35 -133 -93.5 -196.5t-144.5 -63.5q-48 0 -84 10.5t-86 34.5q-11 5 -35 16.5t-34.5 16t-27.5 11t-30 9t-26 2.5q-40 0 -67.5 -26.5t-33.5 -69.5 h-86z" />
<glyph unicode="&#x300;" horiz-adv-x="0" d="M-756 1368q0 38 28.5 65t68.5 27q59 0 110 -57l281 -322h-115l-291 181q-45 28 -63.5 52t-18.5 54z" />
<glyph unicode="&#x301;" horiz-adv-x="0" d="M-756 1081l281 322q51 57 110 57q40 0 68.5 -27t28.5 -65q0 -30 -18.5 -54t-63.5 -52l-291 -181h-115z" />
<glyph unicode="&#x302;" horiz-adv-x="0" d="M-856 1081l250 361h188l252 -361h-117l-229 201l-229 -201h-115z" />
<glyph unicode="&#x303;" horiz-adv-x="0" d="M-885 1124q28 132 85.5 194t152.5 62q69 0 180 -53q6 -3 30 -13.5t37.5 -16.5t31.5 -11.5t28 -5.5q44 0 69.5 22t45.5 78h88q-35 -133 -93.5 -196.5t-144.5 -63.5q-48 0 -84 10.5t-86 34.5q-12 6 -34.5 16.5t-34.5 16t-28 12t-29.5 9t-26.5 2.5q-39 0 -67 -27t-34 -70 h-86z" />
<glyph unicode="&#x304;" horiz-adv-x="0" d="M-850 1157v148h676v-148h-676z" />
<glyph unicode="&#x305;" horiz-adv-x="0" d="M-1024 1614v102h1024v-102h-1024z" />
</font>
</defs>
</svg>
