<?xml version="1.0" standalone="no"?>
<!DOCTYPE svg PUBLIC "-//W3C//DTD SVG 1.1//EN" "http://www.w3.org/Graphics/SVG/1.1/DTD/svg11.dtd" >
<svg xmlns="http://www.w3.org/2000/svg">
<metadata></metadata>
<defs>
<font id="stixbold_italic" horiz-adv-x="1024" >
<font-face units-per-em="2048" ascent="1536" descent="-512" />
<missing-glyph horiz-adv-x="512" />
<glyph unicode="IJ" horiz-adv-x="1685" d="M-66 0v51q43 5 64 11t43 23.5t35 48t28 85.5l240 879q29 107 29 145q0 59 -86 68l-66 8v51h610v-51q-78 -8 -112.5 -39t-59.5 -125l-229 -844q-35 -126 -35 -178q0 -43 29.5 -60.5t116.5 -21.5v-51h-607zM702 4q0 62 38.5 105t93.5 43t92 -37t37 -97q0 -35 -24 -65 t-24 -45q0 -37 56 -37q39 0 65 29t50.5 98.5t64.5 220.5l233 885q27 108 27 131q0 60 -84 74l-67 10v51h610v-51q-35 -4 -53.5 -8t-38.5 -14t-32.5 -28.5t-25 -48t-24.5 -75.5l-250 -936q-55 -203 -169 -307.5t-271 -104.5q-138 0 -221 54.5t-83 152.5z" />
<glyph unicode="ij" horiz-adv-x="1130" d="M4 111q0 40 31 155l112 416q17 69 17 92q0 60 -94 60h-29v55q244 18 416 57l-187 -684q-18 -63 -18 -104q0 -33 31 -33q43 0 131 125l28 41l45 -29q-99 -162 -174 -221t-170 -59q-65 0 -102 32.5t-37 96.5zM156 -266q0 44 29.5 76t70.5 32q45 0 72.5 -27.5t27.5 -72.5 q0 -23 -15 -41t-15 -31q0 -14 14.5 -22t34.5 -8q43 0 78 63t73 215l183 717q24 91 24 137q0 32 -20 47t-64 15h-45v55q280 24 428 57l-237 -909q-64 -243 -166 -352t-258 -109q-96 0 -155.5 45t-59.5 113zM262 1268q0 52 40 92.5t93 40.5q58 0 100 -41t42 -98t-40.5 -96.5 t-99.5 -39.5q-58 0 -96.5 41t-38.5 101zM838 1268q0 54 40.5 94.5t94.5 40.5q58 0 99.5 -41t41.5 -98t-41.5 -97.5t-99.5 -40.5q-57 0 -96 41t-39 101z" />
<glyph unicode="ff" horiz-adv-x="1255" d="M-346 -258q0 47 31 80t73 33q41 0 72 -29t31 -72q0 -28 -16.5 -51t-16.5 -35q0 -24 37 -24q61 0 99 79.5t85 307.5q14 71 180 803h-151l18 86h152q72 256 162 370q114 140 301 140q92 0 144 -42.5t52 -117.5q0 -48 -28.5 -79.5t-75.5 -31.5q-42 0 -68 27.5t-26 70.5 q0 26 16 50t16 36t-10.5 19.5t-25.5 7.5q-53 0 -102.5 -82.5t-86.5 -232.5l-33 -135h338q72 256 162 370q114 140 301 140q92 0 147.5 -44.5t55.5 -119.5q0 -48 -29 -79.5t-76 -31.5q-43 0 -71.5 29.5t-28.5 72.5q0 26 16.5 50t16.5 36t-11 19.5t-26 7.5q-53 0 -102 -82.5 t-86 -232.5l-33 -135h276l-18 -86h-273q-86 -404 -119 -542.5t-75 -264.5q-48 -143 -88.5 -221.5t-95.5 -131.5q-98 -94 -234 -94q-88 0 -145.5 45t-57.5 117q0 47 31.5 80t73.5 33q41 0 71.5 -29t30.5 -72q0 -28 -16.5 -51t-16.5 -35q0 -24 37 -24q42 0 71 34.5t55.5 116 t58.5 236.5q14 71 180 803h-334q-84 -398 -118.5 -538.5t-76.5 -268.5q-48 -143 -88.5 -221.5t-95.5 -131.5q-98 -94 -233 -94q-88 0 -145.5 45t-57.5 117z" />
<glyph unicode="fi" horiz-adv-x="1138" d="M-385 -260q0 50 28 81.5t72 31.5t74.5 -29.5t30.5 -73.5q0 -26 -19.5 -47.5t-19.5 -32.5q0 -20 35 -20q67 0 103.5 70.5t86.5 291.5l182 822h-153l20 86h156q47 139 70 196.5t60.5 113.5t96.5 103q60 49 142 78t168 29q133 0 211.5 -54t78.5 -141q0 -54 -32.5 -86.5 t-83.5 -32.5t-85 33.5t-34 81.5q0 33 22.5 61t22.5 41q0 35 -53 35q-57 0 -106.5 -20t-78.5 -55q-49 -60 -80 -135.5t-77 -247.5h239q13 0 46 2t110.5 7.5t163.5 10.5l-154 -573q-41 -154 -41 -209q0 -12 10 -22.5t21 -10.5q25 0 62.5 38t97.5 124l45 -27 q-102 -160 -175.5 -219t-166.5 -59q-69 0 -107.5 35.5t-38.5 99.5q0 57 31 172l143 545h-307l-192 -789q-20 -80 -65.5 -174t-92.5 -154q-51 -64 -122 -100.5t-146 -36.5q-86 0 -142.5 45.5t-56.5 114.5z" />
<glyph unicode="fl" horiz-adv-x="1138" d="M-381 -254q0 51 28 81t79 30q43 0 69.5 -27t26.5 -70q0 -26 -16.5 -47t-16.5 -35q0 -11 12.5 -18.5t32.5 -7.5q37 0 62 30.5t50.5 110t63.5 246.5l183 795h-150l20 86h150q58 186 98.5 269t118.5 150q121 103 293 103q103 0 207 -31l203 25l-310 -1233q-8 -31 -8 -41 q0 -14 10.5 -24.5t24.5 -10.5q54 0 156 154l41 -23q-104 -161 -173.5 -218.5t-160.5 -57.5q-66 0 -107 32.5t-41 85.5q0 31 10 76l162 658h-301l-155 -644q-71 -295 -189 -452.5t-274 -157.5q-90 0 -144.5 47t-54.5 119zM453 920h309l61 243q-43 32 -43 80q0 24 21.5 55 t21.5 45q0 15 -22.5 27t-50.5 12q-99 0 -183 -127q-32 -49 -56 -120.5t-58 -214.5z" />
<glyph unicode="ffi" horiz-adv-x="1753" d="M-346 -258q0 47 31 80t73 33q41 0 72 -29t31 -72q0 -28 -16.5 -51t-16.5 -35q0 -24 37 -24q61 0 99 79.5t85 307.5q14 71 180 803h-151l18 86h152q72 256 162 370q114 140 301 140q92 0 145 -42.5t53 -117.5q0 -48 -28.5 -79.5t-75.5 -31.5q-43 0 -69.5 27.5t-26.5 70.5 q0 26 16 50t16 36t-10.5 19.5t-25.5 7.5q-53 0 -102.5 -82.5t-86.5 -232.5l-33 -135h342q66 195 105 270.5t123 142.5q60 49 142 78t167 29q134 0 212.5 -54t78.5 -141q0 -53 -32.5 -86t-84.5 -33q-51 0 -85 33.5t-34 81.5q0 33 22.5 61t22.5 41q0 35 -53 35q-57 0 -106 -20 t-78 -55q-50 -60 -81 -136t-77 -247h240q13 0 46 2t110 7.5t163 10.5l-153 -573q-41 -154 -41 -209q0 -12 9.5 -22.5t20.5 -10.5q25 0 62.5 38t97.5 124l45 -27q-102 -160 -175.5 -219t-166.5 -59q-69 0 -107 35.5t-38 99.5q0 61 30 172l144 545h-307l-193 -789 q-20 -80 -65.5 -174t-92.5 -154q-51 -64 -122 -100.5t-146 -36.5q-86 0 -142.5 45.5t-56.5 114.5q0 50 28.5 81.5t72.5 31.5t74 -29.5t30 -73.5q0 -26 -19.5 -47.5t-19.5 -32.5q0 -10 9 -18t26 -8q66 0 103.5 73t87.5 295l182 822h-334q-84 -398 -118.5 -538.5t-76.5 -268.5 q-48 -143 -88.5 -221.5t-95.5 -131.5q-98 -94 -233 -94q-88 0 -145.5 45t-57.5 117z" />
<glyph unicode="ffl" horiz-adv-x="1748" d="M-346 -258q0 47 31 80t73 33q41 0 72 -29t31 -72q0 -28 -16.5 -51t-16.5 -35q0 -24 37 -24q61 0 99 79.5t85 307.5q14 71 180 803h-151l18 86h152q72 256 162 370q114 140 301 140q92 0 145 -43.5t53 -118.5q0 -48 -28.5 -79.5t-75.5 -31.5q-42 0 -69 28.5t-27 71.5 q0 26 16 50t16 36t-10.5 19.5t-25.5 7.5q-53 0 -102.5 -82.5t-86.5 -232.5l-33 -135h340q58 186 98.5 269t118.5 150q121 103 293 103q103 0 207 -31l203 25l-309 -1233q-9 -35 -9 -41q0 -14 10.5 -24.5t24.5 -10.5q54 0 156 154l41 -23q-104 -161 -173.5 -218.5 t-160.5 -57.5q-66 0 -106.5 32.5t-40.5 85.5q0 31 10 76l162 658h-301l-156 -644q-71 -295 -189 -452.5t-274 -157.5q-90 0 -144.5 47t-54.5 119q0 51 28 81t79 30q43 0 69.5 -27t26.5 -70q0 -26 -16.5 -47t-16.5 -35q0 -11 12.5 -18.5t32.5 -7.5q38 0 62.5 30.5t50.5 110.5 t64 246l182 795h-334q-84 -398 -118.5 -538.5t-76.5 -268.5q-48 -143 -88.5 -221.5t-95.5 -131.5q-98 -94 -233 -94q-88 0 -145.5 45t-57.5 117zM1063 920h309l62 243q-43 32 -43 80q0 24 21.5 55t21.5 45q0 15 -23 27t-51 12q-98 0 -182 -127q-33 -49 -57 -121.5 t-58 -213.5z" />
<glyph unicode="fj" horiz-adv-x="1138" d="M-385 -260q0 50 28 81.5t72 31.5t74.5 -29.5t30.5 -73.5q0 -26 -19.5 -47.5t-19.5 -32.5q0 -20 35 -20q67 0 103.5 70.5t86.5 291.5l182 822h-153l20 86h156q47 139 70 196.5t60.5 113.5t96.5 103q60 49 142 78t168 29q136 0 223.5 -54.5t87.5 -140.5q0 -53 -32.5 -86 t-84.5 -33q-51 0 -85 33.5t-34 81.5q0 33 12.5 61t12.5 41q0 35 -53 35q-57 0 -106.5 -20t-78.5 -55q-49 -60 -80 -135.5t-77 -247.5h239q128 0 365 26l-238 -909q-64 -242 -166 -349.5t-258 -107.5q-96 0 -155.5 45t-59.5 113q0 44 30 76t71 32q45 0 74.5 -27.5t29.5 -72.5 q0 -23 -17.5 -41t-17.5 -31q0 -14 14.5 -22t34.5 -8q44 0 79.5 62t72.5 212l182 717q25 95 25 137q0 62 -72 62h-254l-192 -789q-20 -80 -65.5 -174t-92.5 -154q-51 -64 -122 -100.5t-146 -36.5q-86 0 -142.5 45.5t-56.5 114.5z" />
<glyph unicode=" "  horiz-adv-x="512" />
<glyph unicode="&#x09;" horiz-adv-x="512" />
<glyph unicode="&#xa0;" horiz-adv-x="512" />
<glyph unicode="!" horiz-adv-x="796" d="M137 119q0 64 43.5 108.5t106.5 44.5q59 0 104 -46t45 -107t-44 -103.5t-107 -42.5q-64 0 -106 41.5t-42 104.5zM342 436q93 490 107 723q3 53 10 91t23.5 75t48.5 56.5t79 19.5q74 0 111 -40t37 -110q0 -39 -11.5 -71.5t-50.5 -110.5q-184 -364 -295 -651z" />
<glyph unicode="&#x22;" horiz-adv-x="1136" d="M279 815l30 438q5 59 54.5 104.5t109.5 45.5q38 0 65 -29.5t27 -70.5q0 -40 -26 -97l-174 -391h-86zM811 815l31 438q5 59 54.5 104.5t109.5 45.5q38 0 65 -29.5t27 -70.5q0 -35 -27 -97l-174 -391h-86z" />
<glyph unicode="#" d="M-66 430l41 150h215l111 274h-195l41 150h213l179 430h157l-176 -430h232l178 430h157l-176 -430h179l-41 -150h-197l-111 -274h177l-41 -150h-197l-174 -430h-160l174 430h-231l-174 -430h-160l174 430h-195zM350 580h232l110 274h-231z" />
<glyph unicode="$" d="M-41 178l86 289l45 -12q5 -168 41.5 -240.5t149.5 -128.5l151 535q-160 123 -215 203t-55 186q0 166 113 264t288 98q33 0 78 -4l37 133h102l-41 -147q151 -27 279 -129l-86 -275l-43 11q2 23 2 63q0 109 -37.5 167.5t-134.5 88.5l-121 -440q171 -149 229 -237t58 -197 q0 -184 -137.5 -295t-382.5 -111l-58 -205h-106l59 219q-100 24 -164 58t-137 106zM365 1110q0 -62 31 -109t112 -108l113 407q-12 5 -31 5q-103 0 -164 -53t-61 -142zM381 66q124 0 202.5 67t78.5 197q0 74 -29.5 123.5t-114.5 107.5z" />
<glyph unicode="%" horiz-adv-x="1550" d="M164 944q0 175 121 305.5t282 130.5q73 0 146 -59q45 -36 80 -48.5t90 -12.5q101 0 181.5 44t158.5 142h98l-897 -1505h-98l794 1341q-116 -86 -231 -86q-54 0 -123 27q6 -58 6 -86q0 -109 -39.5 -216t-103.5 -171q-91 -91 -207 -91q-114 0 -186 79.5t-72 205.5zM360 856 q0 -65 27 -100t76 -35q64 0 123.5 60.5t96 159.5t36.5 206q0 52 -13 73.5t-53 36.5q-18 8 -43 23q-30 18 -41 18q-42 0 -91.5 -72t-83.5 -177t-34 -193zM834 246q0 174 120 305t279 131q101 0 158 -65t57 -179q0 -107 -40.5 -212t-109.5 -177q-80 -86 -202 -86 q-117 0 -189.5 78.5t-72.5 204.5zM1034 156q0 -136 103 -136q90 0 161 105q43 67 71 158t28 168q0 71 -34.5 117t-86.5 46q-63 0 -127 -94q-49 -73 -82 -177.5t-33 -186.5z" />
<glyph unicode="&#x26;" horiz-adv-x="1738" d="M156 291q0 75 19 139.5t48 110.5t73 85t86 63.5t94 45.5t89.5 31t81.5 20q-22 115 -22 189q0 192 108 307t279 115q127 0 200.5 -64.5t73.5 -169.5q0 -110 -91.5 -195.5t-281.5 -156.5q14 -112 62.5 -235t114.5 -230q87 103 119 161t32 103q0 34 -24.5 51t-90.5 27v51 h435v-51q-79 -5 -130 -53.5t-211 -258.5q-50 -66 -79 -104q107 -147 225 -147q78 0 160 82l53 -43q-94 -114 -168.5 -157.5t-175.5 -43.5q-85 0 -154.5 30t-136.5 97q-171 -129 -405 -129q-179 0 -281 86.5t-102 243.5zM428 389q0 -122 72 -202.5t184 -80.5q108 0 203 58 q-89 126 -137.5 246t-85.5 292q-129 -63 -182.5 -134.5t-53.5 -178.5zM872 1098q0 -62 23 -209q128 68 177.5 137.5t49.5 165.5q0 65 -27.5 101t-78.5 36q-68 0 -106 -62t-38 -169z" />
<glyph unicode="'" horiz-adv-x="569" d="M262 815l33 440q4 69 51 108.5t111 39.5q38 0 65 -29.5t27 -70.5q0 -30 -31 -99l-170 -389h-86z" />
<glyph unicode="(" horiz-adv-x="681" d="M57 424q0 374 240 657q112 131 371 322l37 -41q-128 -117 -195 -202.5t-123 -207.5q-137 -302 -137 -708q0 -185 30.5 -308.5t114.5 -271.5l-47 -31q-159 217 -225 392.5t-66 398.5z" />
<glyph unicode=")" horiz-adv-x="681" d="M-90 -326q139 124 204 214.5t126 240.5q59 144 90.5 322.5t31.5 355.5q0 172 -34 299t-113 266l47 31q89 -121 131.5 -191.5t77.5 -160.5q84 -211 84 -439q0 -282 -139 -514q-143 -241 -471 -465z" />
<glyph unicode="*" d="M207 795q0 29 15 50.5t40.5 32.5t53 16t57.5 5q66 0 95 8.5t85 38.5l22 12l-22 13q-53 29 -84 37.5t-96 9.5q-69 0 -117.5 25t-48.5 81q0 43 31 77t69 34q37 0 66.5 -21.5t62.5 -74.5q38 -60 63 -87t70 -53l23 -12v25q0 51 -12 90.5t-41 89.5q-35 58 -35 104q0 49 28 78 t74 29q48 0 76.5 -29t28.5 -78q0 -46 -35 -104q-29 -50 -41 -89.5t-12 -90.5v-25l22 12q45 26 70 53t63 87q33 53 62.5 74.5t66.5 21.5q40 0 70.5 -34t30.5 -77q0 -56 -48.5 -81t-117.5 -25q-65 -1 -96 -9.5t-84 -37.5l-23 -13l23 -12q56 -30 85 -38.5t95 -8.5q30 0 57.5 -5 t53 -16t40.5 -32.5t15 -50.5q0 -44 -32.5 -77.5t-74.5 -33.5q-38 0 -64.5 20.5t-58.5 75.5q-37 61 -60.5 86.5t-72.5 51.5l-22 12v-25q0 -49 11.5 -87.5t41.5 -90.5q35 -58 35 -106q0 -47 -29 -76t-76 -29q-46 0 -74 29t-28 78q0 46 35 104q30 52 41.5 90.5t11.5 87.5v25 l-23 -12q-49 -26 -72.5 -51.5t-60.5 -86.5q-32 -55 -58.5 -75.5t-64.5 -20.5q-41 0 -73.5 33.5t-32.5 77.5z" />
<glyph unicode="+" horiz-adv-x="1167" d="M68 428v180h426v428h180v-428h426v-180h-426v-428h-180v428h-426z" />
<glyph unicode="," horiz-adv-x="512" d="M-123 -322q242 128 242 238q0 23 -13 39.5t-49 36.5q-47 26 -64.5 57.5t-17.5 75.5q0 71 42 110t108 39q80 0 125 -53.5t45 -138.5q0 -136 -104 -257t-287 -198z" />
<glyph unicode="-" horiz-adv-x="681" d="M4 340l49 238h502l-47 -238h-504z" />
<glyph unicode="." horiz-adv-x="512" d="M-18 123q0 66 43.5 109.5t109.5 43.5q62 0 106 -44t44 -107q0 -64 -44.5 -108t-109.5 -44q-63 0 -106 43.5t-43 106.5z" />
<glyph unicode="/" horiz-adv-x="569" d="M-131 -37l653 1440h178l-653 -1440h-178z" />
<glyph unicode="0" d="M35 422q0 229 85.5 450.5t225.5 382.5q124 144 324 144q146 0 226.5 -133t80.5 -361q0 -230 -97 -459.5t-243 -361.5q-64 -58 -129.5 -85.5t-145.5 -27.5q-157 0 -242 121.5t-85 329.5zM246 166q0 -61 28 -98t74 -37q64 0 113.5 67.5t103.5 227.5q73 225 137 475t64 391 q0 69 -26.5 108t-73.5 39q-42 0 -78 -40t-78 -130q-89 -198 -176.5 -536t-87.5 -467z" />
<glyph unicode="1" d="M10 0v47q119 6 170 39.5t78 128.5l254 911q12 54 12 62q0 67 -98 67q-61 0 -127 -10l4 47q247 32 555 107l-315 -1147q-29 -110 -29 -129q0 -42 41.5 -57.5t161.5 -18.5v-47h-707z" />
<glyph unicode="2" d="M-55 0v49l182 189q152 158 241 257t155 189.5t91 157t25 133.5q0 239 -188 239q-81 0 -147 -41.5t-128 -134.5l-45 25q63 156 178.5 246t268.5 90q156 0 245.5 -96.5t89.5 -247.5q0 -122 -70 -238.5t-225 -247.5l-401 -342h283q134 0 195.5 32t113.5 132h49l-164 -391 h-749z" />
<glyph unicode="3" d="M-29 137q0 53 32.5 86t88.5 33q45 0 76.5 -29t61 -77.5t46.5 -65.5q29 -29 82 -29q92 0 159 101t67 231q0 146 -74 229q-48 53 -102.5 71.5t-147.5 23.5l8 45q198 41 293.5 118t95.5 195q0 184 -178 184q-73 0 -124.5 -33t-114.5 -120l-43 26q90 145 193 209t231 64 q125 0 213 -80t88 -199q0 -211 -244 -305v-4q88 -66 123 -132t35 -167q0 -107 -45 -206t-123 -172t-189.5 -117t-236.5 -44q-126 0 -198.5 44.5t-72.5 119.5z" />
<glyph unicode="4" d="M-31 307l58 215l874 877h129l-244 -891h144l-56 -201h-141l-86 -307h-262l84 307h-500zM109 508h415l162 573z" />
<glyph unicode="5" d="M-23 135q0 53 33.5 86t87.5 33q90 0 146 -111q26 -52 54.5 -70t66.5 -18q99 0 181.5 101t82.5 231q0 100 -54.5 184.5t-152.5 133.5q-56 29 -113.5 40.5t-158.5 16.5l268 608h577l-73 -223h-519l-69 -158q168 -32 227.5 -54t132.5 -83q150 -128 150 -338 q0 -107 -44.5 -206t-121 -173t-186.5 -118t-234 -44q-130 0 -205.5 44t-75.5 118z" />
<glyph unicode="6" d="M47 387q0 211 94.5 402t266.5 335q138 116 265 169.5t357 97.5l12 -50q-193 -67 -330.5 -191.5t-238.5 -311.5q62 26 127 26q145 0 226 -89.5t81 -260.5q0 -156 -67 -281.5t-182.5 -194.5t-254.5 -69q-170 0 -263 110.5t-93 307.5zM276 195q0 -160 113 -160q40 0 68 17.5 t57 62.5q56 89 97.5 253t41.5 277q0 72 -31.5 104.5t-107.5 32.5q-44 0 -66.5 -16.5t-46.5 -73.5q-55 -128 -90 -267.5t-35 -229.5z" />
<glyph unicode="7" d="M106 0l680 1139h-260q-119 0 -180 -12.5t-97.5 -44t-76.5 -101.5h-53l178 389h778l-780 -1370h-189z" />
<glyph unicode="8" d="M6 313q0 131 90.5 223t278.5 162v9q-87 91 -119.5 158.5t-32.5 156.5q0 170 113 273.5t278 103.5q164 0 267 -90q94 -84 94 -203q0 -111 -68 -189.5t-225 -138.5v-8q100 -113 138 -194.5t38 -180.5q0 -192 -132 -307t-335 -115q-176 0 -280.5 93.5t-104.5 246.5zM205 289 q0 -118 53 -186t143 -68q95 0 160.5 72.5t65.5 179.5q0 88 -37 163t-162 207q-119 -75 -171 -159.5t-52 -208.5zM451 1130q0 -81 40 -151t144 -154q88 91 118.5 150.5t30.5 138.5q0 97 -45 157t-112 60q-80 0 -128 -54t-48 -147z" />
<glyph unicode="9" d="M-25 31q379 115 568 499q-62 -28 -125 -28q-138 0 -223.5 94t-85.5 248q0 153 66 280.5t182 201t255 73.5q152 0 242 -90q57 -58 88 -145.5t31 -188.5q0 -224 -116.5 -435t-317.5 -352q-118 -84 -233.5 -127.5t-317.5 -80.5zM362 721q0 -63 35 -97t101 -34 q65 0 90.5 29.5t66.5 152.5q49 146 68.5 238.5t19.5 181.5q0 141 -100 141q-99 0 -162 -129q-48 -98 -83.5 -241.5t-35.5 -241.5z" />
<glyph unicode=":" horiz-adv-x="681" d="M47 125q0 65 44 108t110 43q61 0 105 -44.5t44 -106.5q0 -64 -44 -108t-109 -44q-64 0 -107 43.5t-43 108.5zM238 788q0 65 43.5 108.5t109.5 43.5q61 0 105.5 -45t44.5 -107q0 -64 -44.5 -107.5t-109.5 -43.5q-64 0 -106.5 43t-42.5 108z" />
<glyph unicode=";" horiz-adv-x="681" d="M-51 -324q241 128 241 238q0 23 -13 40t-48 36q-47 26 -65.5 57.5t-18.5 75.5q0 71 43 110t109 39q80 0 125 -53.5t45 -138.5q0 -136 -104.5 -257t-287.5 -198zM238 788q0 65 43.5 108.5t109.5 43.5q61 0 105.5 -45t44.5 -107q0 -64 -44.5 -107.5t-109.5 -43.5 q-64 0 -106.5 43t-42.5 108z" />
<glyph unicode="&#x3c;" horiz-adv-x="1167" d="M63 432v172l1041 457v-197l-789 -346l789 -346v-197z" />
<glyph unicode="=" horiz-adv-x="1167" d="M68 219v180h1032v-180h-1032zM68 637v180h1032v-180h-1032z" />
<glyph unicode="&#x3e;" horiz-adv-x="1167" d="M63 -25v197l789 346l-789 346v197l1041 -457v-172z" />
<glyph unicode="?" d="M162 125q0 65 43.5 108t109.5 43q61 0 105.5 -44.5t44.5 -106.5q0 -64 -44.5 -108t-109.5 -44q-64 0 -106.5 43.5t-42.5 108.5zM244 1143q0 104 107.5 181t262.5 77q151 0 250 -79t99 -216q0 -100 -60 -184.5t-198 -165.5q-79 -46 -128 -82t-82.5 -76.5t-51.5 -75.5 t-42 -96l-59 16q7 98 54.5 196.5t174.5 231.5q131 136 131 306q0 75 -37.5 118t-103.5 43q-50 0 -88.5 -23t-38.5 -54q0 -21 15 -38.5t30 -40.5t15 -59q0 -52 -36.5 -89.5t-88.5 -37.5q-53 0 -89 44t-36 104z" />
<glyph unicode="@" horiz-adv-x="1923" d="M242 666q0 156 60 293.5t162 234.5t243 153t299 56q193 0 348 -74t245.5 -214t90.5 -322q0 -137 -44 -249.5t-132.5 -182t-206.5 -70.5q-75 0 -131.5 45t-59.5 108q-55 -71 -120 -111t-130 -40q-89 0 -142.5 64.5t-53.5 168.5q0 72 18 147t53.5 143t84 121.5t115 85.5 t140.5 32q55 0 83.5 -21t64.5 -86l22 78h146l-125 -498q-12 -60 -12 -69q0 -43 22.5 -66.5t60.5 -23.5q59 0 109 46t80 114t46.5 137.5t16.5 124.5q0 147 -79 269.5t-214 192.5t-294 70q-254 0 -417 -187.5t-163 -482.5q0 -167 73 -302.5t208 -214.5t307 -79q122 0 224 21.5 t200 79.5l26 -72q-139 -71 -245.5 -97t-227.5 -26q-159 0 -300 57.5t-239 154t-155 224.5t-57 267zM825 563q0 -80 33 -127t88 -47q45 0 90 37t78 102q34 66 57 148t23 147q0 130 -86 133q-62 1 -116.5 -37t-90 -96.5t-56 -127.5t-20.5 -132z" />
<glyph unicode="A" horiz-adv-x="1366" d="M-139 51q53 6 88.5 39.5t87.5 116.5l758 1192h51l192 -1147q22 -127 51 -161t125 -40v-51h-620v51q82 6 120 30.5t38 70.5q0 6 -4 30l-25 244h-440l-117 -197q-35 -56 -35 -102q0 -38 30 -57t101 -19v-51h-399zM330 508h379l-76 498z" />
<glyph unicode="B" horiz-adv-x="1366" d="M-51 0v51q74 9 111 44.5t61 125.5l244 897q22 80 22 117q0 23 -8 39.5t-19.5 25t-32.5 13t-38.5 5.5t-46.5 1v51h542q494 0 494 -299q0 -47 -11 -86.5t-28 -68.5t-47.5 -55t-59 -43t-73.5 -35t-79.5 -29t-88.5 -27v-2q147 -41 213.5 -114t66.5 -189q0 -203 -160 -312.5 t-444 -109.5h-618zM406 133q0 -35 28 -51t88 -16q151 0 248 120q43 52 65.5 128t22.5 155q0 117 -72 174q-32 25 -83.5 35.5t-151.5 13.5l-131 -483q-14 -55 -14 -76zM567 754q10 1 44.5 3t44 3t38 3.5t38.5 5t32.5 7t33.5 9.5t28 12.5t30 17t25 21.5q96 90 96 262 q0 207 -178 207q-52 0 -72.5 -20t-42.5 -103z" />
<glyph unicode="C" horiz-adv-x="1366" d="M66 479q0 223 86.5 414t238.5 319q108 91 239 141t271 50q132 0 268 -43q53 -17 78 -17q23 0 39.5 13t38.5 47h61l-104 -481l-65 12q6 41 6 74q0 146 -70.5 234.5t-198.5 88.5q-80 0 -158.5 -40.5t-138.5 -108.5q-124 -140 -200 -337.5t-76 -416.5q0 -166 85.5 -261 t231.5 -95q86 0 159 30t129 78.5t130 134.5l64 -45q-50 -68 -83 -104.5t-77 -69.5q-177 -133 -408 -133q-249 0 -397.5 141.5t-148.5 374.5z" />
<glyph unicode="D" horiz-adv-x="1478" d="M-94 0v51q75 9 109.5 43.5t60.5 128.5l235 864q31 108 31 146q0 37 -17 53.5t-63 22.5l-69 10v51h593q289 0 453 -145t164 -396q0 -168 -64.5 -325t-179.5 -264q-124 -115 -293.5 -177.5t-369.5 -62.5h-590zM362 139q0 -69 119 -69q265 0 430 215q191 250 191 651 q0 187 -84 279t-254 92q-51 0 -76 -17.5t-37 -60.5l-258 -953q-31 -108 -31 -137z" />
<glyph unicode="E" horiz-adv-x="1366" d="M-55 0v51q80 12 111 41.5t57 122.5l243 885q25 94 25 143q0 31 -18.5 46.5t-65.5 21.5l-68 8v51h1108l-88 -389l-55 10q-5 122 -19 168t-73 84q-97 62 -281 62q-65 0 -92 -19t-45 -86l-121 -442q72 0 118.5 2.5t89 11.5t68.5 22.5t52.5 40t46.5 59t45 83.5l57 -8 l-151 -561l-58 8q9 58 9 90q0 107 -61.5 146.5t-233.5 39.5l-129 -479q-17 -70 -17 -78q0 -37 29.5 -53t95.5 -16q270 0 439 124q56 41 94.5 86t91.5 132l51 -11l-123 -397h-1132z" />
<glyph unicode="F" horiz-adv-x="1366" d="M-27 0v51q45 5 72 14t45.5 30.5t28 45.5t22.5 72l248 905q21 82 21 125q0 31 -19.5 46.5t-66.5 21.5l-64 8v51h1092l-88 -389l-56 10q0 82 -8.5 128.5t-32.5 76.5q-49 61 -120 85t-201 24q-62 0 -86.5 -19.5t-42.5 -79.5l-125 -448q72 1 117.5 3.5t87 11.5t66.5 22.5 t50 39.5t43 58.5t41 83.5l58 -8l-152 -561l-57 10q8 52 8 90q0 104 -58.5 142.5t-222.5 41.5l-112 -422q-5 -17 -11.5 -41t-10 -37t-6.5 -27t-3 -24q0 -47 29.5 -65.5t115.5 -24.5v-51h-602z" />
<glyph unicode="G" horiz-adv-x="1478" d="M43 524q0 197 89 379t245 311q230 189 541 189q131 0 253 -43q53 -19 74 -19q30 0 49.5 14t36.5 48h64l-105 -453l-59 8q-3 94 -13.5 147.5t-35.5 96.5q-73 127 -236 127q-101 0 -191.5 -54.5t-162.5 -146.5q-105 -137 -167.5 -318.5t-62.5 -367.5q0 -198 86 -299.5 t250 -101.5q63 0 118.5 16.5t74.5 44.5l63 213q6 21 15 51.5t13 43.5t9.5 33t7.5 28.5t5 21t4 20.5t1.5 17t0.5 19q0 13 -8 28t-17 21q-31 16 -129 25v53h588v-53q-54 -4 -80.5 -18.5t-45.5 -52.5t-42 -126l-90 -342l-58 -27q-87 -41 -222.5 -67.5t-256.5 -26.5 q-273 0 -439.5 151.5t-166.5 409.5z" />
<glyph unicode="H" horiz-adv-x="1593" d="M-49 0v51q79 11 110.5 38t55.5 114l248 915q22 78 22 119q0 34 -19.5 51t-66.5 23l-63 8v51h647v-51q-101 -3 -141.5 -34t-67.5 -130l-107 -391h490l96 354q21 82 21 125q0 31 -18.5 46.5t-65.5 21.5l-64 8v51h608v-51q-73 0 -109.5 -34t-58.5 -118l-227 -835 q-45 -170 -45 -197q0 -44 32.5 -62.5t117.5 -21.5v-51h-648v51q104 6 143.5 36t65.5 126l127 461h-489l-111 -404q-24 -89 -24 -137q0 -14 4.5 -25t18.5 -23.5t44.5 -21t77.5 -12.5v-51h-604z" />
<glyph unicode="I" horiz-adv-x="796" d="M-66 0v51q43 5 64 11t43 23.5t35 48t28 85.5l240 879q29 107 29 145q0 59 -86 68l-66 8v51h610v-51q-78 -8 -112.5 -39t-59.5 -125l-229 -844q-35 -126 -35 -178q0 -43 29.5 -60.5t116.5 -21.5v-51h-607z" />
<glyph unicode="J" d="M-94 4q0 62 38 105t93 43t92 -37t37 -97q0 -35 -23.5 -65t-23.5 -45q0 -37 55 -37q39 0 65 29t50.5 98.5t64.5 220.5l234 885q26 104 26 131q0 60 -84 74l-67 10v51h610v-51q-35 -4 -53.5 -8t-38.5 -14t-32.5 -28.5t-25 -48t-24.5 -75.5l-250 -936q-55 -203 -169 -307.5 t-271 -104.5q-138 0 -220.5 54.5t-82.5 152.5z" />
<glyph unicode="K" horiz-adv-x="1366" d="M-43 0v51q73 8 107 34.5t55 104.5l252 928q22 78 22 119q0 34 -18.5 51t-65.5 23l-67 8v51h637v-51q-91 -8 -131 -38.5t-62 -109.5l-127 -464l404 358q87 76 122 122t35 77q0 24 -16.5 36t-54.5 15l-43 4v51h432v-51q-68 -9 -98 -24t-95 -74l-442 -408l321 -682 q18 -38 45.5 -56t83.5 -24v-51h-573l2 51l53 8q43 6 60.5 16t17.5 31q0 31 -31 101l-227 483l-137 -510q-4 -20 -4 -35q0 -51 26.5 -69.5t106.5 -24.5v-51h-590z" />
<glyph unicode="L" horiz-adv-x="1251" d="M-45 0v51q82 10 113 41.5t55 118.5l248 907q22 86 22 125q0 31 -18.5 45.5t-65.5 20.5q-42 7 -69 10v51h651v-51q-102 -6 -141.5 -34t-61.5 -109l-264 -969q-12 -49 -12 -80q0 -61 147 -61q213 0 365 92q77 46 125 98t110 154l49 -11l-123 -399h-1130z" />
<glyph unicode="M" horiz-adv-x="1820" d="M-59 0v51q58 13 89.5 41t57 87.5t64.5 193.5l219 755q22 83 22 119q0 45 -25 58.5t-120 13.5v51h448l111 -983l637 983h434v-51q-79 -9 -112.5 -40.5t-59.5 -125.5l-244 -897q-20 -70 -20 -117q0 -51 28.5 -69.5t116.5 -18.5v-51h-637v51q103 6 142.5 38t64.5 124 l252 936l-768 -1174h-57l-138 1145l-206 -755q-41 -144 -41 -189q0 -68 32 -92t131 -33v-51h-421z" />
<glyph unicode="N" horiz-adv-x="1478" d="M-55 0v51q33 7 49 11.5t36 19t29.5 30t26.5 55t29.5 81.5t36.5 121l245 833q-30 69 -57.5 89.5t-110.5 27.5v51h396l442 -956l166 592q39 142 39 192q0 61 -38.5 91t-127.5 30v51h426v-51q-38 -8 -59.5 -17t-41.5 -26t-36 -53.5t-32 -84t-40 -132.5l-293 -1037h-57 l-527 1121l-202 -725q-39 -134 -39 -193q0 -60 35.5 -87t126.5 -34v-51h-422z" />
<glyph unicode="O" horiz-adv-x="1478" d="M55 453q0 206 105 414t276 347q233 189 484 189q214 0 354.5 -136.5t140.5 -357.5q0 -194 -101 -397.5t-267 -351.5q-222 -197 -508 -197q-221 0 -352.5 128.5t-131.5 361.5zM350 293q0 -117 56.5 -188.5t152.5 -71.5q94 0 168 57t154 176q100 148 169.5 392t69.5 423 q0 124 -56 188t-151 64q-97 0 -176 -58.5t-155 -187.5q-95 -160 -163.5 -388t-68.5 -406z" />
<glyph unicode="P" horiz-adv-x="1251" d="M-57 0v51q82 12 113.5 41.5t58.5 126.5l239 873q27 94 27 151q0 31 -18.5 46.5t-65.5 21.5l-68 8v51h578q448 0 448 -317q0 -164 -120 -269q-154 -135 -439 -135q-76 0 -166 10l-110 -407q-23 -80 -23 -119q0 -42 31.5 -60t116.5 -22v-51h-602zM551 727q35 -6 86 -6 q95 0 152.5 29.5t99.5 97.5q32 51 49.5 129t17.5 149q0 83 -45.5 131t-126.5 48q-52 0 -70.5 -19.5t-37.5 -89.5z" />
<glyph unicode="Q" horiz-adv-x="1478" d="M55 432q0 225 101 433.5t268 346.5q229 191 496 191q215 0 355 -135t140 -342q0 -193 -83 -383.5t-234 -335.5q-137 -133 -254 -183t-328 -59l-90 -96v-6q203 -9 381 -72q93 -33 174 -33q94 0 161 34t156 126l43 -39q-118 -172 -238 -238.5t-292 -66.5q-115 0 -279 53 q-138 43 -213 43q-50 0 -99 -12t-134 -45l-29 49l359 303l4 8q-25 10 -33 13q-159 57 -245.5 169t-86.5 277zM350 279q0 -113 56 -178.5t153 -65.5q192 0 346 280q89 163 152 388.5t63 386.5q0 109 -57.5 176t-149.5 67q-97 0 -177 -59t-154 -184q-92 -156 -162 -399.5 t-70 -411.5z" />
<glyph unicode="R" horiz-adv-x="1366" d="M-57 0v51q74 9 108.5 44.5t59.5 127.5l245 895q21 82 21 125q0 32 -18.5 49t-67.5 21l-66 6v51h586q228 0 346.5 -73.5t118.5 -219.5q0 -101 -50 -175t-147 -134q-65 -41 -196 -66l174 -520q25 -75 58 -99t120 -32v-51h-414l-219 678h-61l-107 -373q-37 -125 -37 -168 q0 -46 29.5 -63t118.5 -23v-51h-602zM559 743q186 3 260 52q67 41 107.5 127t40.5 188q0 94 -43 144.5t-125 50.5q-51 0 -78 -22t-45 -89z" />
<glyph unicode="S" horiz-adv-x="1138" d="M4 -37l74 461l59 -4q13 -110 32.5 -171.5t66.5 -113.5q89 -102 217 -102q116 0 182 69q38 38 57 81t19 108q0 87 -52.5 154t-183.5 161q-134 96 -200 190t-66 216q0 172 120 281.5t298 109.5q78 0 135.5 -15.5t95.5 -31t68 -15.5q64 0 90 54h61l-82 -414l-55 8 q-18 156 -45 207q-67 135 -238 135q-84 0 -142 -59t-58 -156q0 -30 5 -55t20.5 -49.5t28.5 -41.5t44.5 -43t53 -42t67.5 -49q163 -118 222.5 -212.5t59.5 -232.5q0 -128 -59 -226t-166 -151q-105 -51 -246 -51q-109 0 -249 49q-68 23 -95 23q-29 0 -43.5 -13.5t-33.5 -58.5 h-62z" />
<glyph unicode="T" horiz-adv-x="1251" d="M100 0v51h31q146 0 186 148l304 1099q-162 -3 -266.5 -68.5t-180.5 -223.5l-51 14l80 350h1128l-74 -393l-55 4q0 174 -64 245.5t-218 71.5l-277 -1001q-2 -6 -11 -36.5t-12.5 -43.5t-7.5 -35t-4 -37q0 -94 170 -94v-51h-678z" />
<glyph unicode="U" horiz-adv-x="1478" d="M137 297q0 96 76 387l104 395q31 118 31 160q0 35 -18 52.5t-66 21.5l-65 6v51h637v-51q-95 -4 -131.5 -34.5t-61.5 -121.5l-166 -602q-39 -140 -48 -186t-9 -90q0 -207 250 -207q159 0 252 96q61 62 102 159t82 245l117 428q39 140 39 196q0 117 -162 117v51h424v-51 q-27 -5 -39 -8t-30.5 -10.5t-26.5 -14.5t-22 -23t-21.5 -35t-20 -50.5t-23.5 -68.5t-26 -91l-133 -479q-51 -181 -107 -297t-141 -183q-122 -96 -340 -96q-207 0 -332 87t-125 247z" />
<glyph unicode="V" horiz-adv-x="1366" d="M135 1319v51h606v-51q-104 -9 -128.5 -24t-24.5 -68q0 -23 4 -47l102 -807l383 608q69 110 99 170.5t30 93.5q0 64 -84 70l-49 4v51h391v-51q-79 -16 -127 -90l-798 -1266h-66l-156 1051q-11 77 -18.5 120t-19 82t-21 55.5t-29 29.5t-39.5 15.5t-55 2.5z" />
<glyph unicode="W" horiz-adv-x="1820" d="M131 1321v49h569v-51q-71 -9 -98 -31.5t-27 -70.5q0 -24 3 -39l81 -715l306 643q0 123 -26.5 163t-117.5 52v49h547v-51q-80 -7 -103.5 -29t-23.5 -82q0 -9 14 -149l68 -596l317 670q31 66 31 94q0 56 -21.5 71t-107.5 21v51h383v-49q-66 -9 -98 -38t-82 -130l-578 -1190 h-59l-121 1002l-477 -1002h-59l-160 1172q-15 111 -39 140t-121 46z" />
<glyph unicode="X" horiz-adv-x="1366" d="M-49 0v51q20 3 36 8t35.5 16.5t33.5 21t39.5 33t43 40.5t53.5 56t61.5 67.5t78 86.5t92.5 101l139 152l-170 551q-25 81 -59 103.5t-131 31.5v51h624v-51l-59 -6q-52 -5 -72 -19t-20 -49q0 -40 72 -270l34 -113l193 203q80 85 111.5 129t31.5 72q0 23 -16 34.5t-51 14.5 l-43 4v51h413v-51q-56 -8 -96.5 -32.5t-105.5 -92.5l-408 -420l154 -485q22 -71 39 -110t44 -68t61 -41.5t91 -18.5v-51h-629v51q86 7 112 22.5t26 55.5q0 60 -76 289l-41 123l-266 -295q-66 -72 -66 -113q0 -71 129 -82v-51h-438z" />
<glyph unicode="Y" horiz-adv-x="1251" d="M145 1319v51h584v-51q-85 -3 -113 -18.5t-28 -61.5q0 -40 59 -225l94 -293l263 375q57 81 57 137q0 48 -27 65.5t-108 20.5v51h424v-51q-55 -7 -95.5 -40.5t-93.5 -107.5l-387 -540l-106 -391q-21 -86 -21 -105q0 -45 35 -64.5t127 -19.5v-51h-662v51q106 9 147 38 t66 122l117 426l-178 553q-24 72 -48.5 91.5t-105.5 37.5z" />
<glyph unicode="Z" horiz-adv-x="1251" d="M-25 0v59l889 1239h-170q-162 0 -273.5 -66t-232.5 -235l-57 9l119 364h956v-59l-889 -1239h154q145 0 237.5 22.5t170.5 79.5q98 73 198 234l56 -11l-123 -397h-1035z" />
<glyph unicode="[" horiz-adv-x="681" d="M-76 -326l408 1706h409l-14 -71h-141q-55 0 -71 -20.5t-38 -114.5l-317 -1367q-2 -6 -2 -18q0 -43 69 -43h160l-14 -72h-449z" />
<glyph unicode="\" horiz-adv-x="569" d="M-2 1403h174l399 -1440h-172z" />
<glyph unicode="]" horiz-adv-x="681" d="M-115 -322l15 72h139q53 0 67 17.5t35 104.5q1 5 2 7l322 1366l2 21q0 20 -19.5 31.5t-50.5 11.5h-159l14 71h450l-409 -1702h-408z" />
<glyph unicode="^" horiz-adv-x="1167" d="M137 623l365 747h164l364 -747h-182l-264 557l-265 -557h-182z" />
<glyph unicode="_" d="M0 -154h1024v-102h-1024v102z" />
<glyph unicode="`" horiz-adv-x="681" d="M174 1335q0 37 27.5 64.5t64.5 27.5q64 0 115 -67l227 -303h-94l-270 180q-70 48 -70 98z" />
<glyph unicode="a" d="M-43 233q0 119 48.5 243t129.5 231q84 110 184 174.5t197 64.5q66 0 102.5 -34.5t49.5 -112.5h2l35 121l227 14l-154 -514q-61 -202 -61 -273q0 -30 24 -30q25 0 56.5 29.5t93.5 113.5l43 -31q-159 -258 -320 -258q-59 0 -94 33.5t-35 97.5q0 45 29 142 q-86 -146 -164 -208.5t-172 -62.5q-100 0 -160.5 71.5t-60.5 188.5zM209 236q0 -117 88 -117q42 0 89 39.5t87 113.5q60 105 104 252t44 240q0 42 -21.5 69t-54.5 27q-107 0 -221 -235q-52 -104 -83.5 -215.5t-31.5 -173.5z" />
<glyph unicode="b" d="M-29 98q0 14 41 166l193 670q80 281 80 319q0 62 -95 62h-38v55q243 27 430 62l-187 -668q71 98 142.5 140t152.5 42q97 0 158 -77t61 -191q0 -135 -54.5 -264.5t-143.5 -226t-210 -155.5t-247 -59q-108 0 -195.5 35.5t-87.5 89.5zM223 96q0 -25 18 -40t46 -15 q111 0 221 160q60 88 102.5 229.5t42.5 235.5q0 141 -84 141q-107 0 -188 -172q-48 -105 -127 -373q-13 -47 -22 -98.5t-9 -67.5z" />
<glyph unicode="c" horiz-adv-x="909" d="M-10 283q0 136 58 263t157 226q171 174 368 174q95 0 162.5 -52t67.5 -132q0 -65 -35 -105.5t-92 -40.5q-52 0 -85.5 31.5t-33.5 77.5q0 33 21.5 66t21.5 53q0 15 -15 25t-34 10q-54 0 -98 -46t-93 -135q-108 -199 -108 -411q0 -88 40 -135.5t109 -47.5q65 0 120.5 41.5 t129.5 145.5l58 -37q-52 -71 -78 -104t-70.5 -75.5t-87.5 -64.5q-70 -37 -170 -37q-143 0 -228 81t-85 229z" />
<glyph unicode="d" d="M-43 229q0 148 76 307.5t192 270.5q67 65 141 102t142 37q95 0 154 -67l36 131q60 212 60 250q0 57 -84 57h-43v55q259 20 428 60l-240 -863q-104 -373 -104 -415q0 -10 7 -20.5t15 -10.5q23 0 60.5 38t79.5 107l45 -32q-85 -135 -159 -197t-149 -62q-58 0 -90 33t-32 92 q0 42 22 140q-78 -141 -161 -205t-179 -64q-97 0 -157 66t-60 190zM211 250q0 -56 23 -92.5t61 -36.5q93 0 176 151q55 97 107.5 258.5t52.5 229.5q0 43 -21.5 71.5t-54.5 28.5h-2l-120 -64q-61 -65 -111 -165q-50 -98 -80.5 -206t-30.5 -175z" />
<glyph unicode="e" horiz-adv-x="909" d="M10 274q0 124 51 247t132.5 216t189.5 151t217 58q98 0 156.5 -49.5t58.5 -128.5q0 -64 -38.5 -129.5t-102.5 -120.5q-66 -55 -150.5 -87t-234.5 -58q-13 -67 -13 -101q0 -168 132 -168q66 0 118 41.5t123 147.5l60 -35q-84 -150 -181.5 -217.5t-218.5 -67.5 q-138 0 -218.5 76.5t-80.5 224.5zM303 438q139 31 231.5 133t92.5 228q0 80 -64 80q-145 0 -260 -441z" />
<glyph unicode="f" horiz-adv-x="681" d="M-346 -258q0 47 31 80t73 33q41 0 72 -29t31 -72q0 -28 -16.5 -51t-16.5 -35q0 -24 37 -24q61 0 99 79.5t85 307.5q14 71 180 803h-151l18 86h152q72 256 162 370q114 140 301 140q92 0 147 -44.5t55 -119.5q0 -48 -28.5 -79.5t-75.5 -31.5q-43 0 -71.5 29.5t-28.5 72.5 q0 26 16 50t16 36t-10.5 19.5t-25.5 7.5q-53 0 -102.5 -82.5t-86.5 -232.5l-33 -135h187l-19 -86h-182q-84 -398 -118.5 -538.5t-76.5 -268.5q-48 -143 -88.5 -221.5t-95.5 -131.5q-98 -94 -233 -94q-88 0 -145.5 45t-57.5 117z" />
<glyph unicode="g" d="M-106 -209q0 52 18 92.5t45.5 64t66 38.5t72 21t70.5 7q-68 23 -97.5 55t-29.5 81q0 61 43.5 107.5t153.5 90.5q-164 69 -164 225q0 159 128.5 266t317.5 107q154 0 234 -67h225v-115h-135q12 -25 12 -86q0 -165 -145 -270q-70 -51 -139.5 -73t-157.5 -22q-52 0 -105 17 q-22 0 -39.5 -21t-17.5 -53q0 -25 30.5 -48.5t79.5 -35.5l103 -25q166 -39 235.5 -97.5t69.5 -153.5q0 -130 -132 -221t-353 -91q-182 0 -285.5 52.5t-103.5 154.5zM72 -186q0 -71 64 -115.5t167 -44.5q106 0 174 42.5t68 98.5q0 75 -86 119q-35 16 -120 44.5t-103 29.5 q-14 -2 -50 -22.5t-55 -39.5q-59 -56 -59 -112zM309 498q0 -58 22.5 -89.5t63.5 -31.5q95 0 160 141q59 128 59 244q0 121 -92 121q-61 0 -116 -66q-47 -59 -72 -149.5t-25 -169.5z" />
<glyph unicode="h" horiz-adv-x="1138" d="M-27 0l312 1151q20 75 20 96q0 68 -86 68h-45v55q196 17 428 62l-221 -852q152 216 241.5 291t194.5 75q75 0 115.5 -40.5t40.5 -112.5q0 -56 -60 -242l-120 -373q-7 -19 -7 -24q0 -11 11.5 -22t23.5 -11q20 0 54 37.5t100 132.5l45 -31q-101 -158 -174.5 -218 t-167.5 -60q-61 0 -98 35t-37 96t22.5 141t102.5 319l41 121q14 43 14 62q0 43 -41 43q-85 0 -217 -193q-75 -110 -120.5 -223t-123.5 -383h-248z" />
<glyph unicode="i" horiz-adv-x="569" d="M4 111q0 40 31 155l112 416q17 69 17 92q0 60 -94 60h-29v55q244 18 416 57l-187 -684q-18 -63 -18 -104q0 -33 31 -33q43 0 131 125l28 41l45 -29q-99 -162 -174 -221t-170 -59q-65 0 -102 32.5t-37 96.5zM262 1268q0 52 40 92.5t93 40.5q58 0 100 -41t42 -98 t-40.5 -96.5t-99.5 -39.5q-58 0 -96.5 41t-38.5 101z" />
<glyph unicode="j" horiz-adv-x="569" d="M-387 -266q0 44 29.5 76t70.5 32q45 0 73 -27.5t28 -72.5q0 -23 -15.5 -41t-15.5 -31q0 -14 14.5 -22t34.5 -8q44 0 79 63.5t73 214.5l182 717q24 91 24 137q0 32 -20 47t-64 15h-45v55q280 24 428 57l-237 -909q-64 -243 -166 -352t-258 -109q-96 0 -155.5 45t-59.5 113 zM295 1268q0 54 40.5 94.5t94.5 40.5q58 0 99.5 -41t41.5 -98t-41.5 -97.5t-99.5 -40.5q-57 0 -96 41t-39 101z" />
<glyph unicode="k" d="M-47 0l321 1159q15 53 15 86q0 41 -14.5 55.5t-47.5 14.5h-69v55q192 10 428 62l-254 -945q195 153 266.5 223.5t71.5 110.5q0 25 -21.5 34.5t-81.5 12.5v52h422v-52q-75 -10 -125.5 -37t-150.5 -118l-131 -119q39 -194 68 -297.5t48.5 -135.5t44.5 -32q30 0 60.5 29.5 t70.5 101.5l46 -22q-66 -140 -134 -197t-149 -57q-65 0 -107.5 40t-76 137t-68.5 279l-80 -55l-102 -385h-250z" />
<glyph unicode="l" horiz-adv-x="569" d="M4 111q0 69 70 317l151 530q70 244 70 297q0 62 -86 62q-22 0 -45 -2v55q193 18 430 62l-297 -1072q-45 -161 -45 -204q0 -13 8.5 -22t22.5 -9q28 0 63.5 36.5t97.5 127.5l45 -29q-107 -163 -178 -220.5t-168 -57.5q-62 0 -100.5 36.5t-38.5 92.5z" />
<glyph unicode="m" horiz-adv-x="1593" d="M-29 0l135 475q74 258 74 307q0 52 -78 52h-36v55q176 14 244.5 23t164.5 32l-129 -407h2q140 217 213 290q119 119 234 119q65 0 101 -36t36 -101q0 -78 -53 -215q125 203 210 277.5t195 74.5q72 0 115 -40.5t43 -104.5q0 -90 -47 -223l-92 -263q-30 -83 -36.5 -107 t-6.5 -50q0 -37 32 -37q21 0 52.5 31.5t66.5 87.5q9 17 25 36l45 -26q-78 -146 -155 -207t-175 -61q-137 0 -137 135q0 88 76 309l90 266q14 47 14 62q0 17 -14 30t-33 13q-46 0 -105.5 -61.5t-123.5 -176.5q-56 -97 -87 -181t-120 -378h-246l133 424q92 291 92 328 q0 45 -37 45q-23 0 -60.5 -28t-72.5 -69q-88 -104 -153.5 -257t-147.5 -443h-248z" />
<glyph unicode="n" horiz-adv-x="1138" d="M-12 0l116 418q93 336 93 366q0 29 -23.5 38.5t-89.5 11.5v55q189 7 408 55l-127 -405h2q104 155 148.5 212.5t100.5 110.5q87 84 205 84q150 0 150 -158q0 -68 -58 -237l-71 -213q-49 -144 -49 -182q0 -15 8 -25t20 -10q27 0 56.5 31t89.5 124l45 -26 q-83 -147 -158.5 -207.5t-169.5 -60.5q-139 0 -139 122q0 99 53 256l113 338q14 47 14 58q0 43 -51 43q-26 0 -67.5 -33.5t-74.5 -77.5q-97 -127 -162 -276t-134 -412h-248z" />
<glyph unicode="o" d="M-6 276q0 150 55 284.5t150 227.5q161 158 374 158h9q149 0 235 -83.5t86 -225.5q0 -141 -59 -277t-156 -233q-154 -154 -358 -154q-150 0 -243 78.5t-93 224.5zM238 164q0 -66 26.5 -98.5t73.5 -32.5q84 0 145 100q74 121 125 307t51 322q0 58 -26 91.5t-70 33.5 q-65 0 -123 -64q-88 -98 -145 -295t-57 -364z" />
<glyph unicode="p" d="M-246 -365q74 0 102.5 30.5t57.5 146.5l197 778q45 177 45 192q0 29 -21 39t-90 13v55q113 13 393 57l-76 -235h3q84 130 158.5 182.5t164.5 52.5q109 0 167 -66t58 -182q0 -139 -48 -272.5t-126 -232.5t-182 -159.5t-211 -60.5q-78 0 -139 45l-25 -84q-49 -170 -49 -233 q0 -37 28 -50.5t105 -15.5v-55h-512v55zM231 119q0 -31 23 -52.5t57 -21.5q63 0 127 61q93 92 156 280.5t63 301.5t-79 113q-82 0 -179 -146q-27 -40 -40.5 -76.5t-49.5 -154.5q-78 -264 -78 -305z" />
<glyph unicode="q" d="M2 240q0 171 111 364q91 159 210 250.5t236 91.5q36 0 69 -12.5t48 -32.5q22 -28 35 -102l30 121h224l-265 -945q-73 -267 -73 -282q0 -58 100 -58h35v-55h-549v55q92 0 126.5 27t61.5 115l125 424q-65 -122 -142 -175t-173 -53q-99 0 -154 70.5t-55 196.5zM258 238 q0 -117 80 -117q93 0 180 151q55 97 101.5 248.5t46.5 239.5q0 44 -19 71t-53 27q-55 0 -118.5 -72.5t-108.5 -162.5q-49 -101 -79 -206t-30 -179z" />
<glyph unicode="r" horiz-adv-x="796" d="M-43 0q209 709 209 782q0 30 -24 41t-91 11v55q184 15 250.5 24t159.5 33l-133 -428h2q124 249 196 338.5t154 89.5q53 0 85 -37t32 -98q0 -64 -34 -106.5t-85 -42.5q-27 0 -47.5 12t-30 26.5t-22 26.5t-25.5 12q-22 0 -57 -40.5t-76 -114.5q-42 -76 -72.5 -151.5 t-79.5 -229.5l-63 -203h-248z" />
<glyph unicode="s" horiz-adv-x="796" d="M-39 -27l45 340l55 -6q35 -272 191 -272q60 0 91.5 29.5t31.5 80.5q0 46 -26.5 95t-88.5 118q-102 116 -133 180t-31 150q0 122 74.5 190t200.5 68q65 0 118 -24q46 -21 76 -21q23 0 33.5 8t24.5 35h59l-47 -315l-55 4q-25 128 -68 187t-113 59q-49 0 -78.5 -29.5 t-29.5 -79.5q0 -68 117 -203q90 -105 126.5 -180.5t36.5 -150.5q0 -114 -87.5 -188.5t-215.5 -74.5q-68 0 -131 25q-43 16 -61 16q-43 0 -60 -41h-55z" />
<glyph unicode="t" horiz-adv-x="569" d="M-23 115q0 57 52 235l137 484h-107v71q126 43 210 112.5t167 199.5h72l-80 -297h147v-86h-169l-70 -244q-63 -218 -86 -306t-23 -122q0 -19 9.5 -28t23.5 -9q51 0 156 164l47 -31q-100 -156 -177 -216t-171 -60q-66 0 -102 33.5t-36 99.5z" />
<glyph unicode="u" horiz-adv-x="1138" d="M31 143q0 59 45 217l76 263q34 125 34 153q0 25 -25.5 39.5t-92.5 18.5v55q76 1 204.5 18.5t225.5 38.5l-191 -618q-33 -105 -33 -148q0 -51 50 -51q57 0 143 113q96 126 154 256t137 422h241l-159 -545q-52 -181 -52 -211q0 -43 29 -43q27 0 61 34.5t87 116.5l45 -26 q-80 -138 -157.5 -201t-168.5 -63q-139 0 -139 122q0 42 11.5 87.5t41.5 138.5h-2q-144 -210 -224.5 -279t-181.5 -69q-159 0 -159 161z" />
<glyph unicode="v" horiz-adv-x="909" d="M31 836v55q219 30 319 55q34 -108 49 -257.5t15 -426.5q151 172 204.5 252.5t53.5 134.5q0 28 -41 74q-51 57 -51 108q0 47 35 81t81 34q56 0 90.5 -40.5t34.5 -96.5q0 -137 -123 -315q-85 -124 -181 -230t-290 -291h-53q10 186 10 363q0 359 -51 461q-11 21 -33.5 30 t-68.5 9z" />
<glyph unicode="w" horiz-adv-x="1366" d="M31 834v55q229 38 319 57q37 -138 52.5 -260.5t15.5 -300.5l319 561h56l63 -682q246 288 246 383q0 31 -41 78q-45 50 -45 98q0 58 34 90.5t83 32.5q51 0 87.5 -38t36.5 -89q0 -268 -557 -846h-55l-47 584q-16 -29 -52 -97t-58.5 -109.5t-56.5 -100t-66 -105.5l-115 -172 h-55v95q0 9 1 50.5t1 76.5q0 193 -24 392t-54 226q-24 21 -88 21z" />
<glyph unicode="x" d="M-92 94q0 50 31.5 83.5t78.5 33.5q33 0 70.5 -22.5t56.5 -22.5q28 0 46.5 15.5t50.5 66.5l90 145l-60 312q-14 76 -40.5 108.5t-75.5 32.5q-33 0 -72 -4v55l338 49q32 -47 52.5 -103.5t43.5 -178.5q117 170 183.5 226t140.5 56q47 0 83 -37.5t36 -87.5q0 -44 -34.5 -76 t-80.5 -32q-25 0 -59.5 20.5t-57.5 20.5q-35 0 -87 -53t-101 -140l65 -321q12 -60 29.5 -84.5t46.5 -24.5q27 0 51.5 22t85.5 99l43 -29q-94 -135 -165 -192.5t-144 -57.5q-77 0 -121 70.5t-78 247.5l-49 -80q-91 -148 -141.5 -193t-126.5 -45q-58 0 -93.5 33.5t-35.5 87.5z " />
<glyph unicode="y" horiz-adv-x="909" d="M-193 -297q0 44 31.5 79.5t71.5 35.5q41 0 73 -18.5t60.5 -37t58.5 -18.5q26 0 66 30.5t72 75.5q51 71 51 146q0 101 -103 590q-43 192 -82 231q-17 17 -30 21t-51 4v55q178 16 307 49q86 -224 135 -561l22 -160h5q106 202 142 289t36 135q0 19 -10 31.5t-41 38.5 q-36 30 -50 52t-14 58q0 43 33 80t86 37q51 0 89 -39t38 -92q0 -155 -155 -464t-355 -554q-85 -103 -179.5 -160t-179.5 -57q-54 0 -90.5 35.5t-36.5 87.5z" />
<glyph unicode="z" horiz-adv-x="796" d="M-88 -2l598 725h-279q-59 0 -92.5 -27.5t-56.5 -97.5l-55 6l90 316h637v-21l-576 -686q60 -26 99 -57.5t77 -83.5q12 -17 39 -67t51 -77.5t50 -27.5q20 0 32.5 10t12.5 24t-20.5 38t-20.5 55q0 43 30.5 75.5t71.5 32.5q43 0 76 -32.5t33 -75.5q0 -91 -63.5 -139 t-162.5 -48q-121 0 -264 103q-53 38 -86.5 52.5t-64.5 14.5q-28 0 -66 -28q-26 -21 -39 -29z" />
<glyph unicode="{" horiz-adv-x="712" d="M8 510q139 30 196.5 77t86.5 161l94 366q29 113 86.5 175.5t156 89t265.5 26.5l-6 -25q-126 -23 -189 -80t-94 -174l-92 -350q-34 -130 -96.5 -183.5t-214.5 -82.5q116 -31 153 -61.5t37 -94.5q0 -80 -59 -266q-62 -205 -62 -287q0 -70 37.5 -106t128.5 -53l-6 -25 q-213 4 -293 44.5t-80 141.5q0 46 21.5 143t50.5 183q53 161 53 238q0 54 -39.5 86t-134.5 57z" />
<glyph unicode="|" horiz-adv-x="450" d="M135 -37v1440h180v-1440h-180z" />
<glyph unicode="}" horiz-adv-x="712" d="M-264 -383l6 25q126 23 189 80t94 174l92 350q34 130 96.5 183.5t214.5 82.5q-116 31 -153 61.5t-37 94.5q0 78 57 266q63 217 63 289q0 68 -38 104t-127 53l6 25q144 -3 214 -17.5t109 -48.5q49 -43 49 -114q0 -48 -21 -146.5t-50 -185.5q-54 -164 -54 -238 q0 -54 39.5 -86t135.5 -57q-137 -31 -195.5 -79.5t-87.5 -158.5l-94 -366q-42 -168 -151.5 -229.5t-356.5 -61.5z" />
<glyph unicode="~" horiz-adv-x="1167" d="M111 506q51 89 110.5 130.5t136.5 41.5q56 0 109.5 -16t169.5 -68q75 -34 107.5 -44.5t60.5 -10.5q37 0 69 21t70 71l113 -99q-70 -98 -125.5 -136t-126.5 -38q-53 0 -100.5 14.5t-114.5 53.5q-128 72 -230 72q-44 0 -74 -18.5t-67 -67.5z" />
<glyph unicode="&#xa1;" horiz-adv-x="796" d="M39 -268q0 39 11.5 71.5t51.5 108.5q158 302 293 651l60 -16q-93 -483 -109 -725q-5 -104 -24 -148q-46 -94 -142 -94q-64 0 -102.5 41.5t-38.5 110.5zM356 866q0 61 44.5 103.5t107.5 42.5q64 0 105.5 -41.5t41.5 -104.5q0 -65 -43 -109t-106 -44q-60 0 -105 46t-45 107 z" />
<glyph unicode="&#xa2;" d="M86 283q0 121 51 242.5t131.5 213.5t188 149.5t213.5 57.5q20 0 57 -6l84 240h72l-92 -260q108 -60 108 -162q0 -60 -38 -100t-95 -40q-43 0 -72 23l-188 -535q64 3 121.5 46.5t120.5 136.5l55 -37q-97 -138 -168 -195t-174 -77l-96 -273h-70l94 266q-144 9 -223.5 90.5 t-79.5 219.5zM346 301q0 -130 92 -184l256 729v4q-3 29 -45 29q-92 0 -176 -150q-56 -98 -91.5 -218.5t-35.5 -209.5z" />
<glyph unicode="&#xa3;" d="M-66 154q0 79 54.5 128.5t142.5 49.5q58 0 125 -29q0 4 39 332h-223l20 123h215q38 189 82 294.5t119 190.5q134 156 313 156q96 0 159.5 -53.5t63.5 -133.5q0 -59 -35 -99t-89 -40q-46 0 -77.5 30.5t-31.5 74.5q0 19 8 69q6 21 6 39q0 19 -13.5 31t-35.5 12 q-44 0 -76 -41t-47 -117l-80 -413h234l-21 -123h-235q-50 -219 -131 -346l-23 -35q170 -66 256 -66q74 0 112.5 27t72.5 102h51q-18 -88 -38.5 -138.5t-53.5 -94.5q-40 -51 -97 -80t-120 -29q-65 0 -124 28t-137 97q-41 -66 -87.5 -94.5t-112.5 -28.5q-82 0 -133.5 49.5 t-51.5 127.5zM-4 143q0 -46 32 -75t83 -29q46 0 74.5 35t45.5 110q-68 62 -131 62q-47 0 -75.5 -28.5t-28.5 -74.5z" />
<glyph unicode="&#xa4;" d="M-53 98l200 201q-75 113 -75 246q0 134 75 250l-200 200l119 115l196 -197q116 72 250 72t250 -72l196 197l119 -115l-200 -200q41 -66 58 -122.5t17 -127.5q0 -141 -75 -246l200 -201l-119 -118l-196 200q-123 -76 -250 -76t-250 76l-196 -200zM252 545 q0 -114 75.5 -193.5t184.5 -79.5q106 0 183 80t77 189q0 117 -75.5 196.5t-184.5 79.5t-184.5 -78.5t-75.5 -193.5z" />
<glyph unicode="&#xa5;" d="M68 336l28 102h289l45 160h-291l29 102h256l-162 490q-26 78 -53.5 98t-114.5 31v51h574v-51q-88 -3 -121 -17t-33 -49q0 -27 12 -65l164 -483l277 397q32 45 42.5 70t10.5 53q0 54 -28.5 72.5t-114.5 21.5v51h409v-51q-60 -12 -99.5 -42t-90.5 -99l-340 -478h276 l-26 -102h-308l-43 -160h312l-29 -102h-311l-6 -23q-33 -119 -33 -174q0 -51 31.5 -67t134.5 -21v-51h-660v51q117 7 157.5 34.5t65.5 113.5l39 137h-288z" />
<glyph unicode="&#xa6;" horiz-adv-x="450" d="M135 -37v531h180v-531h-180zM135 872v531h180v-531h-180z" />
<glyph unicode="&#xa7;" d="M74 -78q0 54 33.5 89.5t85.5 35.5q50 0 82 -29.5t32 -74.5q0 -28 -17.5 -48t-35.5 -38.5t-18 -42.5q0 -23 42 -41.5t95 -18.5q78 0 127 43.5t49 112.5q0 49 -29.5 95.5t-142.5 184.5l-135 164q-103 126 -103 258q0 124 59.5 191t153.5 67q47 0 101 -12l4 6 q-113 125 -113 264q0 122 88.5 198.5t229.5 76.5q121 0 199.5 -56.5t78.5 -144.5q0 -54 -34 -90.5t-85 -36.5q-46 0 -79 33.5t-33 79.5q0 28 11.5 47t25 26t25 17t11.5 22q0 23 -36.5 40.5t-83.5 17.5q-77 0 -126 -42t-49 -108q0 -48 31.5 -102t110.5 -148l141 -165 q121 -139 121 -295q0 -119 -68 -184.5t-172 -65.5q-28 0 -61 8l-4 -8q67 -84 94 -143t27 -123q0 -115 -97.5 -195t-238.5 -80q-126 0 -211.5 62t-85.5 153zM285 700q0 -74 59 -155q85 -121 162 -187q36 -31 61.5 -43t57.5 -12q49 0 84.5 35.5t35.5 83.5q0 66 -61 161.5 t-144.5 165.5t-140.5 70q-49 0 -81.5 -34t-32.5 -85z" />
<glyph unicode="&#xa8;" horiz-adv-x="681" d="M113 1206q0 56 38.5 95.5t92.5 39.5q56 0 95.5 -39.5t39.5 -95.5q0 -54 -39.5 -92.5t-95.5 -38.5q-52 0 -91.5 39.5t-39.5 91.5zM547 1206q0 56 38.5 95.5t92.5 39.5q56 0 95.5 -39.5t39.5 -95.5q0 -54 -39.5 -92.5t-95.5 -38.5q-52 0 -91.5 39.5t-39.5 91.5z" />
<glyph unicode="&#xa9;" horiz-adv-x="1529" d="M61 680q0 149 55.5 283t149.5 230.5t224.5 153t275.5 56.5q193 0 355 -95.5t255.5 -261t93.5 -362.5q0 -151 -54.5 -285t-149 -229.5t-227 -151t-283.5 -55.5q-141 0 -269.5 57t-222 153t-148.5 229t-55 278zM186 682q0 -166 78 -310.5t210 -229.5t284 -85 q161 0 296.5 83.5t213.5 228t78 315.5q0 167 -78.5 311.5t-212 229t-289.5 84.5t-289.5 -84.5t-212 -229t-78.5 -313.5zM369 686q0 189 125.5 302.5t334.5 113.5q104 0 205 -37q45 -17 45 -43v-145h-35q-40 184 -225 184q-132 0 -204 -94.5t-72 -266.5q0 -177 73.5 -271.5 t208.5 -94.5q89 0 148.5 42t103.5 136h37l-35 -147q-3 -15 -7 -20t-17 -9q-9 -5 -107 -31q-64 -18 -135 -18q-207 0 -325.5 106t-118.5 293z" />
<glyph unicode="&#xaa;" horiz-adv-x="544" d="M33 975q0 96 56 196.5t142.5 166t169.5 65.5q40 0 63.5 -21.5t33.5 -70.5l22 73l156 9l-94 -287q-45 -134 -45 -182q0 -19 10 -19q23 0 84 74l10 12l27 -18q-58 -82 -105.5 -119t-93.5 -37q-36 0 -63 23.5t-27 54.5q0 27 22 104q-57 -100 -107 -140t-118 -40 q-64 0 -103.5 43.5t-39.5 112.5zM193 969q0 -23 14.5 -40.5t34.5 -17.5q63 0 131 127q29 57 51 133t22 119q0 24 -11 41t-29 17q-35 1 -86 -65t-89 -157.5t-38 -156.5z" />
<glyph unicode="&#xab;" d="M25 444v19l348 254q61 44 96 76q57 57 84 57q10 0 18.5 -8t8.5 -17q0 -60 -207 -274q-66 -70 -92 -100l81 -170q68 -142 68 -185q0 -12 -9 -21t-22 -9t-30 20q-61 69 -344 358zM403 444v19l349 254q61 44 96 76q57 57 84 57q10 0 18 -8t8 -17q0 -61 -206 -274 q-11 -12 -40 -44t-53 -56l82 -170q68 -142 68 -185q0 -12 -9 -21t-22 -9q-12 0 -30 20q-51 57 -345 358z" />
<glyph unicode="&#xac;" horiz-adv-x="1241" d="M104 637v180h1033v-596h-181v416h-852z" />
<glyph unicode="&#xad;" horiz-adv-x="681" d="M4 340l49 238h502l-47 -238h-504z" />
<glyph unicode="&#xae;" horiz-adv-x="1529" d="M61 680q0 149 55.5 283t149.5 230.5t224.5 153t275.5 56.5q193 0 355 -95.5t255.5 -261t93.5 -362.5q0 -151 -54.5 -285t-149 -229.5t-227 -151t-283.5 -55.5q-141 0 -269.5 57t-222 153t-148.5 229t-55 278zM186 682q0 -166 78 -310.5t210 -229.5t284 -85 q161 0 296.5 83.5t213.5 228t78 315.5q0 167 -78.5 311.5t-212 229t-289.5 84.5t-289.5 -84.5t-212 -229t-78.5 -313.5zM430 309v33q41 4 56.5 6.5t27 15t12 26t0.5 52.5v506q0 65 -12.5 78.5t-83.5 20.5v32h375q111 0 175 -52t64 -142q0 -152 -165 -213l120 -168 q84 -120 152 -172v-23h-143q-28 0 -58 35.5t-82 130.5q-46 82 -106 174h-90v-207q0 -66 12.5 -79.5t85.5 -20.5v-33h-340zM672 690h84q67 0 103 48.5t36 138.5q0 159 -141 159h-82v-346z" />
<glyph unicode="&#xaf;" horiz-adv-x="681" d="M104 1133l35 143h666l-33 -143h-668z" />
<glyph unicode="&#xb0;" horiz-adv-x="819" d="M170 1116q0 122 86 207.5t207 85.5t207 -85.5t86 -207.5t-86 -207.5t-207 -85.5t-207 85.5t-86 207.5zM283 1116q0 -75 52.5 -127.5t127.5 -52.5t127.5 52.5t52.5 127.5t-52.5 127.5t-127.5 52.5t-127.5 -52.5t-52.5 -127.5z" />
<glyph unicode="&#xb1;" horiz-adv-x="1167" d="M68 0v180h1032v-180h-1032zM68 555v180h426v428h180v-428h426v-180h-426v-293h-180v293h-426z" />
<glyph unicode="&#xb2;" horiz-adv-x="614" d="M4 561v33q251 238 303 297q79 87 111.5 143t32.5 105q0 63 -32 99t-89 36q-45 0 -82 -21.5t-86 -76.5l-37 22q55 103 127.5 152t167.5 49q94 0 157.5 -58.5t63.5 -144.5q0 -74 -42.5 -139t-145.5 -148l-256 -207h182q76 0 110.5 18t73.5 75h33l-104 -234h-488z" />
<glyph unicode="&#xb3;" horiz-adv-x="614" d="M35 645q0 37 21 60.5t55 23.5q49 0 88 -57q33 -43 45.5 -52.5t40.5 -9.5q61 0 103 54.5t42 134.5q0 177 -205 186l4 29q126 23 187 65.5t61 108.5q0 50 -30 78t-82 28q-44 0 -78 -18.5t-76 -67.5l-29 27q62 87 126 125.5t147 38.5q86 0 144 -47.5t58 -118.5 q0 -57 -29 -92t-118 -86l-14 -8q58 -40 82 -80.5t24 -100.5q0 -133 -115 -228t-276 -95q-85 0 -130.5 26.5t-45.5 75.5z" />
<glyph unicode="&#xb4;" horiz-adv-x="681" d="M285 1057l250 268q56 59 86 80.5t57 21.5q40 0 69 -28t29 -68q0 -29 -17 -49.5t-63 -46.5l-311 -178h-100z" />
<glyph unicode="&#xb5;" horiz-adv-x="1179" d="M-123 -289q0 45 22 103t62.5 152t67.5 186l227 768h276l-190 -639q-14 -51 -14 -86q0 -52 39 -52q42 0 101.5 63t116.5 166t91 212l104 336h277l-213 -689q-10 -33 -10 -55q0 -12 7 -20.5t17 -8.5q45 0 129 127l45 -32q-111 -159 -181.5 -214t-158.5 -55q-57 0 -93 36 t-36 93q0 40 23 140q-82 -138 -140.5 -190t-130.5 -52q-39 0 -76 13.5t-51 35.5q-47 -143 -47 -272q0 -95 -42.5 -148t-118.5 -53q-103 0 -103 135z" />
<glyph unicode="&#xb6;" horiz-adv-x="1263" d="M123 -395l14 51q75 6 108.5 14t51.5 23q11 11 21.5 43t35.5 125l174 667q-140 0 -218.5 68.5t-78.5 204.5q0 116 44.5 239.5t111.5 194.5q126 135 399 135h605l-13 -51q-45 0 -68.5 -1t-47 -7.5t-33.5 -13.5t-22 -28.5t-18.5 -42.5t-17.5 -63l-340 -1302 q-22 -96 -22 -123q0 -70 92 -78l47 -4l-14 -51h-350l444 1714h-113l-444 -1714h-348zM393 807q0 -81 39 -142.5t109 -84.5l192 739q-100 -25 -152 -61.5t-96 -112.5q-41 -70 -66.5 -164t-25.5 -174z" />
<glyph unicode="&#xb7;" horiz-adv-x="512" d="M104 678q0 65 44 108t110 43q61 0 105.5 -44.5t44.5 -106.5q0 -64 -44.5 -108t-109.5 -44q-64 0 -107 43.5t-43 108.5z" />
<glyph unicode="&#xb8;" horiz-adv-x="681" d="M-164 -395l45 67q74 -34 137 -34q53 0 84 22.5t31 60.5q0 35 -25 54.5t-71 19.5q-29 0 -62 -8l-26 25l135 198h90l-92 -137q30 6 53 6q80 0 132 -41.5t52 -105.5q0 -77 -72 -127.5t-181 -50.5q-106 0 -230 51z" />
<glyph unicode="&#xb9;" horiz-adv-x="614" d="M61 561v39q86 0 120.5 31t60.5 133q4 17 26 84q23 68 53.5 165.5t51 168.5t18.5 73q-9 43 -53 43q-8 0 -66 -4l-22 -2l4 43q223 35 362 64l-204 -676q-13 -41 -13 -70q0 -33 22.5 -43t98.5 -10v-39h-459z" />
<glyph unicode="&#xba;" horiz-adv-x="614" d="M115 1001q0 154 118 278t265 124q97 0 155 -56t58 -145q0 -100 -55.5 -189t-143 -141.5t-180.5 -52.5q-94 0 -155.5 51.5t-61.5 130.5zM281 932q0 -34 15.5 -53t41.5 -19q37 0 69 32t64 101q31 66 52.5 148t21.5 143q0 78 -51 78q-64 3 -123 -98q-35 -61 -62.5 -162.5 t-27.5 -169.5z" />
<glyph unicode="&#xbb;" d="M25 90q0 62 206 275l93 100l-82 170q-68 139 -68 184q0 12 9 21.5t22 9.5t31 -21q97 -108 344 -358v-18l-349 -254q-64 -48 -96 -78q-58 -55 -84 -55q-11 0 -18.5 7t-7.5 17zM403 90q0 61 207 275l92 100l-81 170q-68 139 -68 184q0 12 9 21.5t22 9.5q12 0 30 -21 q97 -108 344 -358v-18l-348 -254q-64 -48 -96 -78q-58 -55 -84 -55q-11 0 -19 7t-8 17z" />
<glyph unicode="&#xbc;" horiz-adv-x="1536" d="M14 561v39q86 0 119.5 31t61.5 133q3 13 26 84q123 380 123 407q0 17 -15.5 30t-37.5 13q-8 0 -66 -4l-22 -2l4 43q223 35 362 64l-204 -676q-13 -41 -13 -70q0 -33 22.5 -43t98.5 -10v-39h-459zM279 -29l890 1428h119l-891 -1428h-118zM780 180l33 137l569 523h95 l-160 -535h92l-35 -125h-90l-57 -180h-176l55 180h-326zM870 305h271l106 348z" />
<glyph unicode="&#xbd;" horiz-adv-x="1536" d="M-18 561v39q85 0 118.5 31t61.5 133q3 13 26 84q123 380 123 407q0 17 -15.5 30t-37.5 13q-7 0 -65 -4l-23 -2l4 43q227 35 363 64l-205 -676q-13 -41 -13 -70q0 -33 22.5 -43t98.5 -10v-39h-458zM248 -29l891 1428h118l-890 -1428h-119zM844 0v33q251 238 303 297 q78 86 110.5 142.5t32.5 105.5q0 63 -32 99t-89 36q-44 0 -81.5 -22t-86.5 -77l-36 23q55 103 127.5 152t167.5 49q94 0 157.5 -58.5t63.5 -144.5q0 -73 -43 -138.5t-146 -148.5l-256 -207h183q76 0 111 17.5t73 74.5h33l-105 -233h-487z" />
<glyph unicode="&#xbe;" horiz-adv-x="1536" d="M14 645q0 37 21 60.5t55 23.5q49 0 88 -57q33 -43 45.5 -52.5t40.5 -9.5q61 0 103.5 54.5t42.5 132.5q0 91 -50.5 137.5t-154.5 50.5l4 29q126 23 187 65.5t61 108.5q0 49 -30 77.5t-83 28.5q-44 0 -78 -18.5t-76 -67.5l-28 27q62 86 126 125t146 39q86 0 144.5 -47.5 t58.5 -118.5q0 -57 -29 -92t-119 -86l-14 -8q59 -40 83 -80.5t24 -100.5q0 -133 -115.5 -228t-276.5 -95q-85 0 -130.5 26.5t-45.5 75.5zM289 -29l891 1428h118l-890 -1428h-119zM791 180l32 137l570 523h94l-160 -535h92l-35 -125h-90l-57 -180h-176l55 180h-325zM881 305 h270l106 348z" />
<glyph unicode="&#xbf;" d="M61 -125q0 97 60 179t198 171l136 88q58 38 91.5 86.5t76.5 155.5l59 -14q-8 -85 -41.5 -161t-103.5 -165l-84 -104q-131 -161 -131 -304q0 -76 37.5 -119.5t103.5 -43.5q49 0 88 24t39 53q0 17 -23 46q-37 48 -37 92q0 52 36 87.5t89 35.5t89 -40t36 -98 q0 -115 -101 -189.5t-257 -74.5q-162 0 -261.5 81.5t-99.5 213.5zM559 856q0 64 44.5 108t109.5 44q64 0 106.5 -43.5t42.5 -108.5t-43.5 -108t-109.5 -43q-61 0 -105.5 44.5t-44.5 106.5z" />
<glyph unicode="&#xc0;" horiz-adv-x="1366" d="M-139 51q53 6 88.5 39.5t87.5 116.5l758 1192h51l192 -1147q22 -127 51 -161t125 -40v-51h-620v51q82 6 120 30.5t38 70.5q0 6 -4 30l-25 244h-440l-117 -197q-35 -56 -35 -102q0 -38 30 -57t101 -19v-51h-399zM330 508h379l-76 498zM623 1847q0 37 27.5 64.5t64.5 27.5 q63 0 114 -67l228 -303h-94l-271 180q-69 48 -69 98z" />
<glyph unicode="&#xc1;" horiz-adv-x="1366" d="M-139 51q53 6 88.5 39.5t87.5 116.5l758 1192h51l192 -1147q22 -127 51 -161t125 -40v-51h-620v51q82 6 120 30.5t38 70.5q0 6 -4 30l-25 244h-440l-117 -197q-35 -56 -35 -102q0 -38 30 -57t101 -19v-51h-399zM330 508h379l-76 498zM668 1569l250 268q56 59 86 80.5 t57 21.5q40 0 69 -28t29 -68q0 -29 -17 -49.5t-63 -46.5l-311 -178h-100z" />
<glyph unicode="&#xc2;" horiz-adv-x="1366" d="M-139 51q53 6 88.5 39.5t87.5 116.5l758 1192h51l192 -1147q22 -127 51 -161t125 -40v-51h-620v51q82 6 120 30.5t38 70.5q0 6 -4 30l-25 244h-440l-117 -197q-35 -56 -35 -102q0 -38 30 -57t101 -19v-51h-399zM330 508h379l-76 498zM532 1569l328 356h166l176 -356h-104 l-180 194l-269 -194h-117z" />
<glyph unicode="&#xc3;" horiz-adv-x="1366" d="M-139 51q53 6 88.5 39.5t87.5 116.5l758 1192h51l192 -1147q22 -127 51 -161t125 -40v-51h-620v51q82 6 120 30.5t38 70.5q0 6 -4 30l-25 244h-440l-117 -197q-35 -56 -35 -102q0 -38 30 -57t101 -19v-51h-399zM330 508h379l-76 498zM518 1612q20 110 85 175.5t153 65.5 q78 0 198 -53q79 -33 111 -33q36 0 58.5 18.5t45.5 67.5h84q-34 -129 -90.5 -186t-148.5 -57q-55 0 -117 26l-121 47q-46 17 -78 17q-34 0 -56 -19.5t-42 -68.5h-82z" />
<glyph unicode="&#xc4;" horiz-adv-x="1366" d="M-139 51q53 6 88.5 39.5t87.5 116.5l758 1192h51l192 -1147q22 -127 51 -161t125 -40v-51h-620v51q82 6 120 30.5t38 70.5q0 6 -4 30l-25 244h-440l-117 -197q-35 -56 -35 -102q0 -38 30 -57t101 -19v-51h-399zM330 508h379l-76 498zM526 1718q0 56 38.5 95.5t92.5 39.5 q56 0 96 -40t40 -95q0 -54 -40 -92.5t-96 -38.5q-53 0 -92 39.5t-39 91.5zM961 1718q0 56 38.5 95.5t92.5 39.5q56 0 95.5 -39.5t39.5 -95.5q0 -54 -39.5 -92.5t-95.5 -38.5q-52 0 -91.5 39.5t-39.5 91.5z" />
<glyph unicode="&#xc5;" horiz-adv-x="1366" d="M-139 51q53 6 88.5 39.5t87.5 116.5l758 1192h51l192 -1147q22 -127 51 -161t125 -40v-51h-620v51q82 6 120 30.5t38 70.5q0 6 -4 30l-25 244h-440l-117 -197q-35 -56 -35 -102q0 -38 30 -57t101 -19v-51h-399zM330 508h379l-76 498zM682 1841q0 90 64.5 152.5 t154.5 62.5q95 0 156 -62.5t61 -154.5q0 -91 -64 -155t-155 -64q-97 0 -157 61.5t-60 159.5zM780 1837q0 -49 34.5 -84t82.5 -35q51 0 87 34.5t36 82.5q0 51 -36 87t-87 36q-47 0 -82 -36t-35 -85z" />
<glyph unicode="&#xc6;" horiz-adv-x="1933" d="M-131 0v51q37 4 61 19q17 7 121 139l746 967q41 54 41 90q0 29 -32 40t-132 17v47h1206l-92 -389l-49 10l-4 82q-12 232 -332 232q-65 0 -88 -12.5t-33 -53.5l-133 -481h39q108 0 169.5 18.5t104 63t84.5 135.5l53 -8l-149 -559l-51 10q6 50 6 94q0 71 -19.5 105 t-75.5 51t-177 24l-129 -493q-11 -46 -11 -58q0 -75 140 -75q121 0 199.5 21.5t148.5 74.5q35 26 74 70.5t60.5 73.5t72.5 102l53 -7l-121 -401h-1079v51q77 12 108.5 45.5t57.5 120.5l88 305h-394l-233 -321q-31 -42 -31 -80q0 -34 28.5 -49t102.5 -21v-51h-399zM461 602 h354l189 682h-25z" />
<glyph unicode="&#xc7;" horiz-adv-x="1366" d="M66 494q0 191 71 363.5t197 299.5q115 116 261 181t306 65q132 0 268 -43q53 -17 78 -17q23 0 39.5 13t38.5 47h61l-104 -479l-65 12q6 41 6 72q0 150 -72 236.5t-197 86.5q-97 0 -186.5 -57t-157.5 -148q-104 -136 -166.5 -321t-62.5 -377q0 -165 85 -260.5t222 -95.5 q100 0 184 37q61 26 108 67t136 139l64 -45q-50 -68 -83 -104.5t-77 -69.5q-177 -133 -397 -133q-86 0 -131 8l-68 -98q30 6 53 6q80 0 132.5 -41.5t52.5 -105.5q0 -76 -72.5 -127t-181.5 -51t-230 51l45 67q72 -34 137 -34q53 0 84 22.5t31 60.5q0 35 -25 54.5t-71 19.5 q-29 0 -62 -8l-26 25l121 180q-166 55 -256 186.5t-90 315.5z" />
<glyph unicode="&#xc8;" horiz-adv-x="1366" d="M-55 0v51q80 12 111 41.5t57 122.5l243 885q25 94 25 143q0 31 -18.5 46.5t-65.5 21.5l-68 8v51h1108l-88 -389l-55 10q-5 122 -19 168t-73 84q-97 62 -281 62q-65 0 -92 -19t-45 -86l-121 -442q72 0 118.5 2.5t89 11.5t68.5 22.5t52.5 40t46.5 59t45 83.5l57 -8 l-151 -561l-58 8q9 58 9 90q0 107 -61.5 146.5t-233.5 39.5l-129 -479q-17 -70 -17 -78q0 -37 29.5 -53t95.5 -16q270 0 439 124q56 41 94.5 86t91.5 132l51 -11l-123 -397h-1132zM653 1847q0 37 27.5 64.5t64.5 27.5q64 0 115 -67l227 -303h-94l-270 180q-70 48 -70 98z " />
<glyph unicode="&#xc9;" horiz-adv-x="1366" d="M-55 0v51q80 12 111 41.5t57 122.5l243 885q25 94 25 143q0 31 -18.5 46.5t-65.5 21.5l-68 8v51h1108l-88 -389l-55 10q-5 122 -19 168t-73 84q-97 62 -281 62q-65 0 -92 -19t-45 -86l-121 -442q72 0 118.5 2.5t89 11.5t68.5 22.5t52.5 40t46.5 59t45 83.5l57 -8 l-151 -561l-58 8q9 58 9 90q0 107 -61.5 146.5t-233.5 39.5l-129 -479q-17 -70 -17 -78q0 -37 29.5 -53t95.5 -16q270 0 439 124q56 41 94.5 86t91.5 132l51 -11l-123 -397h-1132zM627 1569l250 268q56 59 86 80.5t57 21.5q40 0 69 -28t29 -68q0 -29 -17 -49.5t-63 -46.5 l-311 -178h-100z" />
<glyph unicode="&#xca;" horiz-adv-x="1366" d="M-55 0v51q80 12 111 41.5t57 122.5l243 885q25 94 25 143q0 31 -18.5 46.5t-65.5 21.5l-68 8v51h1108l-88 -389l-55 10q-5 122 -19 168t-73 84q-97 62 -281 62q-65 0 -92 -19t-45 -86l-121 -442q72 0 118.5 2.5t89 11.5t68.5 22.5t52.5 40t46.5 59t45 83.5l57 -8 l-151 -561l-58 8q9 58 9 90q0 107 -61.5 146.5t-233.5 39.5l-129 -479q-17 -70 -17 -78q0 -37 29.5 -53t95.5 -16q270 0 439 124q56 41 94.5 86t91.5 132l51 -11l-123 -397h-1132zM530 1569l328 356h166l176 -356h-104l-181 194l-268 -194h-117z" />
<glyph unicode="&#xcb;" horiz-adv-x="1366" d="M-55 0v51q80 12 111 41.5t57 122.5l243 885q25 94 25 143q0 31 -18.5 46.5t-65.5 21.5l-68 8v51h1108l-88 -389l-55 10q-5 122 -19 168t-73 84q-97 62 -281 62q-65 0 -92 -19t-45 -86l-121 -442q72 0 118.5 2.5t89 11.5t68.5 22.5t52.5 40t46.5 59t45 83.5l57 -8 l-151 -561l-58 8q9 58 9 90q0 107 -61.5 146.5t-233.5 39.5l-129 -479q-17 -70 -17 -78q0 -37 29.5 -53t95.5 -16q270 0 439 124q56 41 94.5 86t91.5 132l51 -11l-123 -397h-1132zM530 1718q0 55 39 95t93 40q56 0 95.5 -39.5t39.5 -95.5q0 -54 -39.5 -92.5t-95.5 -38.5 q-53 0 -92.5 39.5t-39.5 91.5zM965 1718q0 56 38.5 95.5t92.5 39.5q56 0 95.5 -39.5t39.5 -95.5q0 -54 -39.5 -92.5t-95.5 -38.5q-52 0 -91.5 39.5t-39.5 91.5z" />
<glyph unicode="&#xcc;" horiz-adv-x="796" d="M-66 0v51q43 5 64 11t43 23.5t35 48t28 85.5l240 879q29 107 29 145q0 59 -86 68l-66 8v51h610v-51q-78 -8 -112.5 -39t-59.5 -125l-229 -844q-35 -126 -35 -178q0 -43 29.5 -60.5t116.5 -21.5v-51h-607zM393 1847q0 37 27.5 64.5t64.5 27.5q64 0 115 -67l227 -303h-94 l-270 180q-70 48 -70 98z" />
<glyph unicode="&#xcd;" horiz-adv-x="796" d="M-66 0v51q43 5 64 11t43 23.5t35 48t28 85.5l240 879q29 107 29 145q0 59 -86 68l-66 8v51h610v-51q-78 -8 -112.5 -39t-59.5 -125l-229 -844q-35 -126 -35 -178q0 -43 29.5 -60.5t116.5 -21.5v-51h-607zM410 1569l249 268q56 59 86 80.5t58 21.5q40 0 69 -28t29 -68 q0 -29 -17 -49.5t-63 -46.5l-311 -178h-100z" />
<glyph unicode="&#xce;" horiz-adv-x="796" d="M-66 0v51q43 5 64 11t43 23.5t35 48t28 85.5l240 879q29 107 29 145q0 59 -86 68l-66 8v51h610v-51q-78 -8 -112.5 -39t-59.5 -125l-229 -844q-35 -126 -35 -178q0 -43 29.5 -60.5t116.5 -21.5v-51h-607zM291 1569l327 356h166l177 -356h-105l-180 194l-268 -194h-117z " />
<glyph unicode="&#xcf;" horiz-adv-x="796" d="M-66 0v51q43 5 64 11t43 23.5t35 48t28 85.5l240 879q29 107 29 145q0 59 -86 68l-66 8v51h610v-51q-78 -8 -112.5 -39t-59.5 -125l-229 -844q-35 -126 -35 -178q0 -43 29.5 -60.5t116.5 -21.5v-51h-607zM283 1718q0 56 38.5 95.5t92.5 39.5q56 0 95.5 -39.5t39.5 -95.5 q0 -54 -39.5 -92.5t-95.5 -38.5q-52 0 -91.5 39.5t-39.5 91.5zM717 1718q0 56 38.5 95.5t92.5 39.5q56 0 95.5 -39.5t39.5 -95.5q0 -54 -39.5 -92.5t-95.5 -38.5q-52 0 -91.5 39.5t-39.5 91.5z" />
<glyph unicode="&#xd0;" horiz-adv-x="1478" d="M-63 0v51q74 9 107.5 39.5t55.5 108.5l129 475h-209l25 90h209l94 348q25 94 25 121q0 35 -20.5 51.5t-65.5 24.5l-64 10v51h594q290 0 453.5 -148t163.5 -411q0 -173 -69.5 -323.5t-189.5 -257.5t-289.5 -168.5t-363.5 -61.5h-585zM393 139q0 -37 26 -53t85 -16 q149 0 260.5 59t196.5 182q79 118 125.5 286.5t46.5 338.5q0 187 -84 279t-254 92q-51 0 -77 -17.5t-36 -60.5l-125 -465h250l-25 -90h-250l-114 -424q-25 -98 -25 -111z" />
<glyph unicode="&#xd1;" horiz-adv-x="1478" d="M-55 0v51q33 7 49 11.5t36 19t29.5 30t26.5 55t29.5 81.5t36.5 121l245 833q-30 69 -57.5 89.5t-110.5 27.5v51h396l442 -956l166 592q39 142 39 192q0 61 -38.5 91t-127.5 30v51h426v-51q-38 -8 -59.5 -17t-41.5 -26t-36 -53.5t-32 -84t-40 -132.5l-293 -1037h-57 l-527 1121l-202 -725q-39 -134 -39 -193q0 -60 35.5 -87t126.5 -34v-51h-422zM616 1612q20 110 85 175.5t153 65.5q79 0 199 -53q79 -33 110 -33q36 0 59 18.5t46 67.5h84q-34 -129 -90.5 -186t-149.5 -57q-55 0 -117 26l-121 47q-46 17 -77 17q-34 0 -56.5 -19.5 t-42.5 -68.5h-82z" />
<glyph unicode="&#xd2;" horiz-adv-x="1478" d="M55 453q0 206 105 414t276 347q233 189 484 189q214 0 354.5 -136.5t140.5 -357.5q0 -194 -101 -397.5t-267 -351.5q-222 -197 -508 -197q-221 0 -352.5 128.5t-131.5 361.5zM350 293q0 -117 56.5 -188.5t152.5 -71.5q94 0 168 57t154 176q100 148 169.5 392t69.5 423 q0 124 -56 188t-151 64q-97 0 -176 -58.5t-155 -187.5q-95 -160 -163.5 -388t-68.5 -406zM754 1847q0 37 27.5 64.5t64.5 27.5q64 0 115 -67l227 -303h-94l-271 180q-69 48 -69 98z" />
<glyph unicode="&#xd3;" horiz-adv-x="1478" d="M55 453q0 206 105 414t276 347q233 189 484 189q214 0 354.5 -136.5t140.5 -357.5q0 -194 -101 -397.5t-267 -351.5q-222 -197 -508 -197q-221 0 -352.5 128.5t-131.5 361.5zM350 293q0 -117 56.5 -188.5t152.5 -71.5q94 0 168 57t154 176q100 148 169.5 392t69.5 423 q0 124 -56 188t-151 64q-97 0 -176 -58.5t-155 -187.5q-95 -160 -163.5 -388t-68.5 -406zM727 1569l250 268q56 59 86 80.5t57 21.5q40 0 69.5 -28.5t29.5 -67.5q0 -29 -17 -49.5t-63 -46.5l-312 -178h-100z" />
<glyph unicode="&#xd4;" horiz-adv-x="1478" d="M55 453q0 206 105 414t276 347q233 189 484 189q214 0 354.5 -136.5t140.5 -357.5q0 -194 -101 -397.5t-267 -351.5q-222 -197 -508 -197q-221 0 -352.5 128.5t-131.5 361.5zM350 293q0 -117 56.5 -188.5t152.5 -71.5q94 0 168 57t154 176q100 148 169.5 392t69.5 423 q0 124 -56 188t-151 64q-97 0 -176 -58.5t-155 -187.5q-95 -160 -163.5 -388t-68.5 -406zM637 1569l328 356h165l177 -356h-105l-180 194l-268 -194h-117z" />
<glyph unicode="&#xd5;" horiz-adv-x="1478" d="M55 453q0 206 105 414t276 347q233 189 484 189q214 0 354.5 -136.5t140.5 -357.5q0 -194 -101 -397.5t-267 -351.5q-222 -197 -508 -197q-221 0 -352.5 128.5t-131.5 361.5zM350 293q0 -117 56.5 -188.5t152.5 -71.5q94 0 168 57t154 176q100 148 169.5 392t69.5 423 q0 124 -56 188t-151 64q-97 0 -176 -58.5t-155 -187.5q-95 -160 -163.5 -388t-68.5 -406zM618 1612q20 110 85 175.5t153 65.5q79 0 199 -53q79 -33 110 -33q36 0 59 18.5t46 67.5h84q-34 -129 -90.5 -186t-149.5 -57q-55 0 -117 26l-120 47q-46 17 -78 17 q-34 0 -56.5 -19.5t-42.5 -68.5h-82z" />
<glyph unicode="&#xd6;" horiz-adv-x="1478" d="M55 453q0 206 105 414t276 347q233 189 484 189q214 0 354.5 -136.5t140.5 -357.5q0 -194 -101 -397.5t-267 -351.5q-222 -197 -508 -197q-221 0 -352.5 128.5t-131.5 361.5zM350 293q0 -117 56.5 -188.5t152.5 -71.5q94 0 168 57t154 176q100 148 169.5 392t69.5 423 q0 124 -56 188t-151 64q-97 0 -176 -58.5t-155 -187.5q-95 -160 -163.5 -388t-68.5 -406zM633 1718q0 56 38.5 95.5t92.5 39.5q56 0 95.5 -39.5t39.5 -95.5q0 -54 -39.5 -92.5t-95.5 -38.5q-52 0 -91.5 39.5t-39.5 91.5zM1067 1718q0 56 38.5 95.5t92.5 39.5 q56 0 95.5 -39.5t39.5 -95.5q0 -54 -39.5 -92.5t-95.5 -38.5q-52 0 -91.5 39.5t-39.5 91.5z" />
<glyph unicode="&#xd7;" horiz-adv-x="1167" d="M98 160l359 358l-359 359l127 127l359 -361l358 361l127 -127l-360 -359l360 -358l-127 -127l-358 360l-359 -360z" />
<glyph unicode="&#xd8;" horiz-adv-x="1478" d="M55 434q0 187 71.5 365.5t189 310.5t277 212.5t327.5 80.5q78 0 167 -27l109 189h100l-129 -222q113 -54 180.5 -168t67.5 -247q0 -227 -99.5 -425t-275.5 -345q-234 -195 -491 -195q-89 0 -174 27l-144 -246h-98l162 279q-119 64 -179.5 169.5t-60.5 241.5zM350 289 q0 -64 23 -131l663 1132q-54 43 -129 43q-189 0 -338 -266q-89 -158 -154 -389.5t-65 -388.5zM426 78q56 -45 137 -45q94 0 187.5 77t152.5 199q85 175 151 399t66 371q0 62 -28 135z" />
<glyph unicode="&#xd9;" horiz-adv-x="1478" d="M137 297q0 96 76 387l104 395q31 118 31 160q0 35 -18 52.5t-66 21.5l-65 6v51h637v-51q-95 -4 -131.5 -34.5t-61.5 -121.5l-166 -602q-39 -140 -48 -186t-9 -90q0 -207 250 -207q159 0 252 96q61 62 102 159t82 245l117 428q39 140 39 196q0 117 -162 117v51h424v-51 q-27 -5 -39 -8t-30.5 -10.5t-26.5 -14.5t-22 -23t-21.5 -35t-20 -50.5t-23.5 -68.5t-26 -91l-133 -479q-51 -181 -107 -297t-141 -183q-122 -96 -340 -96q-207 0 -332 87t-125 247zM750 1847q0 37 27.5 64.5t64.5 27.5q63 0 114 -67l228 -303h-94l-271 180q-69 48 -69 98z " />
<glyph unicode="&#xda;" horiz-adv-x="1478" d="M137 297q0 96 76 387l104 395q31 118 31 160q0 35 -18 52.5t-66 21.5l-65 6v51h637v-51q-95 -4 -131.5 -34.5t-61.5 -121.5l-166 -602q-39 -140 -48 -186t-9 -90q0 -207 250 -207q159 0 252 96q61 62 102 159t82 245l117 428q39 140 39 196q0 117 -162 117v51h424v-51 q-27 -5 -39 -8t-30.5 -10.5t-26.5 -14.5t-22 -23t-21.5 -35t-20 -50.5t-23.5 -68.5t-26 -91l-133 -479q-51 -181 -107 -297t-141 -183q-122 -96 -340 -96q-207 0 -332 87t-125 247zM725 1569l250 268q56 59 86 80.5t57 21.5q40 0 69.5 -28.5t29.5 -67.5q0 -29 -17 -49.5 t-63 -46.5l-312 -178h-100z" />
<glyph unicode="&#xdb;" horiz-adv-x="1478" d="M137 297q0 96 76 387l104 395q31 118 31 160q0 35 -18 52.5t-66 21.5l-65 6v51h637v-51q-95 -4 -131.5 -34.5t-61.5 -121.5l-166 -602q-39 -140 -48 -186t-9 -90q0 -207 250 -207q159 0 252 96q61 62 102 159t82 245l117 428q39 140 39 196q0 117 -162 117v51h424v-51 q-27 -5 -39 -8t-30.5 -10.5t-26.5 -14.5t-22 -23t-21.5 -35t-20 -50.5t-23.5 -68.5t-26 -91l-133 -479q-51 -181 -107 -297t-141 -183q-122 -96 -340 -96q-207 0 -332 87t-125 247zM635 1569l328 356h165l177 -356h-105l-180 194l-268 -194h-117z" />
<glyph unicode="&#xdc;" horiz-adv-x="1478" d="M137 297q0 96 76 387l104 395q31 118 31 160q0 35 -18 52.5t-66 21.5l-65 6v51h637v-51q-95 -4 -131.5 -34.5t-61.5 -121.5l-166 -602q-39 -140 -48 -186t-9 -90q0 -207 250 -207q159 0 252 96q61 62 102 159t82 245l117 428q39 140 39 196q0 117 -162 117v51h424v-51 q-27 -5 -39 -8t-30.5 -10.5t-26.5 -14.5t-22 -23t-21.5 -35t-20 -50.5t-23.5 -68.5t-26 -91l-133 -479q-51 -181 -107 -297t-141 -183q-122 -96 -340 -96q-207 0 -332 87t-125 247zM627 1718q0 56 38.5 95.5t92.5 39.5q56 0 95.5 -39.5t39.5 -95.5q0 -54 -39.5 -92.5 t-95.5 -38.5q-52 0 -91.5 39.5t-39.5 91.5zM1061 1718q0 56 38.5 95.5t92.5 39.5q56 0 95.5 -39.5t39.5 -95.5q0 -54 -39.5 -92.5t-95.5 -38.5q-52 0 -91.5 39.5t-39.5 91.5z" />
<glyph unicode="&#xdd;" horiz-adv-x="1251" d="M145 1319v51h584v-51q-85 -3 -113 -18.5t-28 -61.5q0 -40 59 -225l94 -293l263 375q57 81 57 137q0 48 -27 65.5t-108 20.5v51h424v-51q-55 -7 -95.5 -40.5t-93.5 -107.5l-387 -540l-106 -391q-21 -86 -21 -105q0 -45 35 -64.5t127 -19.5v-51h-662v51q106 9 147 38 t66 122l117 426l-178 553q-24 72 -48.5 91.5t-105.5 37.5zM731 1569l250 268q56 59 86 80.5t57 21.5q40 0 69.5 -28.5t29.5 -67.5q0 -29 -17 -49.5t-63 -46.5l-312 -178h-100z" />
<glyph unicode="&#xde;" horiz-adv-x="1251" d="M-55 0v51q77 12 110.5 45t55.5 113l245 893q25 98 25 141q0 31 -20.5 46.5t-67.5 21.5l-64 8v51h605l-3 -51q-81 -12 -107.5 -36t-57.5 -112l-27 -77h90q225 0 335 -74t110 -229q0 -87 -34.5 -164t-97.5 -129q-153 -125 -428 -125q-75 0 -165 10l-33 -125 q-17 -68 -17 -127q0 -42 30.5 -59t115.5 -21v-51h-600zM469 449q13 -1 30.5 -2t30.5 -2t25 -1q88 0 145 25t95 82q34 53 56.5 137.5t22.5 153.5q0 89 -45 137.5t-127 48.5q-51 0 -69.5 -21t-34.5 -83z" />
<glyph unicode="&#xdf;" d="M-410 -252q0 50 30 82.5t77 32.5q45 0 70.5 -25.5t25.5 -68.5q0 -29 -17.5 -49t-17.5 -35q0 -31 33 -31q72 0 100 70q40 76 76 235l189 866q66 305 196.5 462t317.5 157q132 0 215.5 -71t83.5 -187q0 -92 -33.5 -155.5t-108.5 -121.5q-19 -15 -46 -27.5t-43.5 -18.5 t-69 -22.5t-72.5 -23.5v-2q140 -22 217.5 -95.5t77.5 -197.5q0 -106 -42.5 -208.5t-107.5 -180.5q-123 -147 -305 -147q-81 0 -145 45l41 71l8 -10q12 -15 39.5 -26t52.5 -11q38 0 66 29t59 94q37 80 62.5 212t25.5 233q0 97 -49 133q-27 19 -107 30l15 76h35 q39 0 78.5 27.5t64.5 81.5q26 57 42.5 135.5t16.5 150.5q0 125 -94 125q-71 0 -120 -80t-89 -260l-182 -815q-52 -234 -121 -375.5t-152 -201.5t-194 -60q-91 0 -145 43.5t-54 114.5z" />
<glyph unicode="&#xe0;" d="M-43 233q0 119 48.5 243t129.5 231q84 110 184 174.5t197 64.5q66 0 102.5 -34.5t49.5 -112.5h2l35 121l227 14l-154 -514q-61 -202 -61 -273q0 -30 24 -30q25 0 56.5 29.5t93.5 113.5l43 -31q-159 -258 -320 -258q-59 0 -94 33.5t-35 97.5q0 45 29 142 q-86 -146 -164 -208.5t-172 -62.5q-100 0 -160.5 71.5t-60.5 188.5zM209 236q0 -117 88 -117q42 0 89 39.5t87 113.5q60 105 104 252t44 240q0 42 -21.5 69t-54.5 27q-107 0 -221 -235q-52 -104 -83.5 -215.5t-31.5 -173.5zM418 1335q0 37 27.5 64.5t64.5 27.5q64 0 115 -67 l227 -303h-94l-271 180q-69 48 -69 98z" />
<glyph unicode="&#xe1;" d="M-43 233q0 119 48.5 243t129.5 231q84 110 184 174.5t197 64.5q66 0 102.5 -34.5t49.5 -112.5h2l35 121l227 14l-154 -514q-61 -202 -61 -273q0 -30 24 -30q25 0 56.5 29.5t93.5 113.5l43 -31q-159 -258 -320 -258q-59 0 -94 33.5t-35 97.5q0 45 29 142 q-86 -146 -164 -208.5t-172 -62.5q-100 0 -160.5 71.5t-60.5 188.5zM209 236q0 -117 88 -117q42 0 89 39.5t87 113.5q60 105 104 252t44 240q0 42 -21.5 69t-54.5 27q-107 0 -221 -235q-52 -104 -83.5 -215.5t-31.5 -173.5zM393 1057l250 268q56 59 86 80.5t57 21.5 q40 0 69.5 -28.5t29.5 -67.5q0 -29 -17 -49.5t-63 -46.5l-311 -178h-101z" />
<glyph unicode="&#xe2;" d="M-43 233q0 119 48.5 243t129.5 231q84 110 184 174.5t197 64.5q66 0 102.5 -34.5t49.5 -112.5h2l35 121l227 14l-154 -514q-61 -202 -61 -273q0 -30 24 -30q25 0 56.5 29.5t93.5 113.5l43 -31q-159 -258 -320 -258q-59 0 -94 33.5t-35 97.5q0 45 29 142 q-86 -146 -164 -208.5t-172 -62.5q-100 0 -160.5 71.5t-60.5 188.5zM209 236q0 -117 88 -117q42 0 89 39.5t87 113.5q60 105 104 252t44 240q0 42 -21.5 69t-54.5 27q-107 0 -221 -235q-52 -104 -83.5 -215.5t-31.5 -173.5zM303 1057l328 356h166l176 -356h-105l-180 194 l-268 -194h-117z" />
<glyph unicode="&#xe3;" d="M-43 233q0 119 48.5 243t129.5 231q84 110 184 174.5t197 64.5q66 0 102.5 -34.5t49.5 -112.5h2l35 121l227 14l-154 -514q-61 -202 -61 -273q0 -30 24 -30q25 0 56.5 29.5t93.5 113.5l43 -31q-159 -258 -320 -258q-59 0 -94 33.5t-35 97.5q0 45 29 142 q-86 -146 -164 -208.5t-172 -62.5q-100 0 -160.5 71.5t-60.5 188.5zM209 236q0 -117 88 -117q42 0 89 39.5t87 113.5q60 105 104 252t44 240q0 42 -21.5 69t-54.5 27q-107 0 -221 -235q-52 -104 -83.5 -215.5t-31.5 -173.5zM283 1100q20 110 84.5 175.5t152.5 65.5 q79 0 199 -53q79 -33 110 -33q36 0 59 18.5t46 67.5h84q-34 -129 -90.5 -186t-149.5 -57q-54 0 -116 26l-121 47q-46 17 -78 17q-34 0 -56 -19.5t-42 -68.5h-82z" />
<glyph unicode="&#xe4;" d="M-43 233q0 119 48.5 243t129.5 231q84 110 184 174.5t197 64.5q66 0 102.5 -34.5t49.5 -112.5h2l35 121l227 14l-154 -514q-61 -202 -61 -273q0 -30 24 -30q25 0 56.5 29.5t93.5 113.5l43 -31q-159 -258 -320 -258q-59 0 -94 33.5t-35 97.5q0 45 29 142 q-86 -146 -164 -208.5t-172 -62.5q-100 0 -160.5 71.5t-60.5 188.5zM209 236q0 -117 88 -117q42 0 89 39.5t87 113.5q60 105 104 252t44 240q0 42 -21.5 69t-54.5 27q-107 0 -221 -235q-52 -104 -83.5 -215.5t-31.5 -173.5zM293 1206q0 56 38.5 95.5t92.5 39.5 q56 0 95.5 -39.5t39.5 -95.5q0 -54 -39.5 -92.5t-95.5 -38.5q-52 0 -91.5 39.5t-39.5 91.5zM727 1206q0 56 38.5 95.5t92.5 39.5q56 0 95.5 -39.5t39.5 -95.5q0 -54 -39.5 -92.5t-95.5 -38.5q-52 0 -91.5 39.5t-39.5 91.5z" />
<glyph unicode="&#xe5;" d="M-43 233q0 119 48.5 243t129.5 231q84 110 184 174.5t197 64.5q66 0 102.5 -34.5t49.5 -112.5h2l35 121l227 14l-154 -514q-61 -202 -61 -273q0 -30 24 -30q25 0 56.5 29.5t93.5 113.5l43 -31q-159 -258 -320 -258q-59 0 -94 33.5t-35 97.5q0 45 29 142 q-86 -146 -164 -208.5t-172 -62.5q-100 0 -160.5 71.5t-60.5 188.5zM209 236q0 -117 88 -117q42 0 89 39.5t87 113.5q60 105 104 252t44 240q0 42 -21.5 69t-54.5 27q-107 0 -221 -235q-52 -104 -83.5 -215.5t-31.5 -173.5zM436 1333q0 90 64.5 152.5t154.5 62.5 q95 0 156 -62.5t61 -154.5q0 -91 -64 -155t-155 -64q-97 0 -157 61.5t-60 159.5zM535 1329q0 -49 34.5 -84t81.5 -35q51 0 87 34.5t36 82.5q0 51 -36 87t-87 36q-47 0 -81.5 -36t-34.5 -85z" />
<glyph unicode="&#xe6;" horiz-adv-x="1478" d="M-10 217q0 134 60.5 276.5t158.5 254.5q79 92 168.5 145t175.5 53q67 0 103.5 -29t64.5 -106l37 119l211 10l-41 -133q58 74 114 103.5t132 29.5q97 0 150.5 -46.5t53.5 -131.5q0 -131 -126 -237t-345 -142l-76 -12q-10 -51 -10 -95q0 -82 36 -128t99 -46q147 0 254 185 l58 -35q-66 -136 -168 -207.5t-230 -71.5q-134 0 -205.5 67.5t-86.5 201.5q-86 -142 -169 -204.5t-186 -62.5q-106 0 -169.5 61.5t-63.5 180.5zM248 254q0 -65 26 -100t72 -35q96 0 191 162q60 102 102.5 239t42.5 223q0 51 -27.5 83t-70.5 32q-67 0 -132 -71t-108 -170 t-69.5 -199t-26.5 -164zM846 438q132 15 240 124t108 233q0 84 -72 84q-76 0 -141 -99.5t-125 -306.5z" />
<glyph unicode="&#xe7;" horiz-adv-x="909" d="M-49 -395l45 67q72 -34 137 -34q53 0 84 22.5t31 60.5q0 35 -25 54.5t-71 19.5q-29 0 -62 -8l-27 25l123 180q-94 28 -145 102.5t-51 188.5q0 129 56 256t151 225q80 84 180.5 133t193.5 49q96 0 164 -52.5t68 -133.5q0 -65 -35 -104.5t-92 -39.5q-52 0 -85.5 31.5 t-33.5 77.5q0 26 21.5 61.5t21.5 57.5q0 15 -13 25t-32 10q-109 0 -197 -179q-48 -99 -77 -221.5t-29 -191.5q0 -82 41 -132.5t108 -50.5q66 0 121 41t129 144l58 -37q-60 -90 -107.5 -145t-103.5 -87q-80 -47 -195 -47q-23 0 -37 2l-69 -102q30 6 53 6q80 0 132 -41.5 t52 -105.5q0 -76 -72.5 -127t-181.5 -51q-105 0 -229 51z" />
<glyph unicode="&#xe8;" horiz-adv-x="909" d="M10 274q0 124 51 247t132.5 216t189.5 151t217 58q98 0 156.5 -49.5t58.5 -128.5q0 -64 -38.5 -129.5t-102.5 -120.5q-66 -55 -150.5 -87t-234.5 -58q-13 -67 -13 -101q0 -168 132 -168q66 0 118 41.5t123 147.5l60 -35q-84 -150 -181.5 -217.5t-218.5 -67.5 q-138 0 -218.5 76.5t-80.5 224.5zM303 438q139 31 231.5 133t92.5 228q0 80 -64 80q-145 0 -260 -441zM360 1335q0 37 28 64.5t65 27.5q63 0 114 -67l228 -303h-95l-270 180q-70 48 -70 98z" />
<glyph unicode="&#xe9;" horiz-adv-x="909" d="M10 274q0 124 51 247t132.5 216t189.5 151t217 58q98 0 156.5 -49.5t58.5 -128.5q0 -64 -38.5 -129.5t-102.5 -120.5q-66 -55 -150.5 -87t-234.5 -58q-13 -67 -13 -101q0 -168 132 -168q66 0 118 41.5t123 147.5l60 -35q-84 -150 -181.5 -217.5t-218.5 -67.5 q-138 0 -218.5 76.5t-80.5 224.5zM303 438q139 31 231.5 133t92.5 228q0 80 -64 80q-145 0 -260 -441zM367 1057l249 268q56 59 86 80.5t58 21.5q40 0 69 -28t29 -68q0 -29 -17 -49.5t-63 -46.5l-311 -178h-100z" />
<glyph unicode="&#xea;" horiz-adv-x="909" d="M10 274q0 124 51 247t132.5 216t189.5 151t217 58q98 0 156.5 -49.5t58.5 -128.5q0 -64 -38.5 -129.5t-102.5 -120.5q-66 -55 -150.5 -87t-234.5 -58q-13 -67 -13 -101q0 -168 132 -168q66 0 118 41.5t123 147.5l60 -35q-84 -150 -181.5 -217.5t-218.5 -67.5 q-138 0 -218.5 76.5t-80.5 224.5zM276 1057l328 356h166l176 -356h-104l-180 194l-269 -194h-117zM303 438q139 31 231.5 133t92.5 228q0 80 -64 80q-145 0 -260 -441z" />
<glyph unicode="&#xeb;" horiz-adv-x="909" d="M10 274q0 124 51 247t132.5 216t189.5 151t217 58q98 0 156.5 -49.5t58.5 -128.5q0 -64 -38.5 -129.5t-102.5 -120.5q-66 -55 -150.5 -87t-234.5 -58q-13 -67 -13 -101q0 -168 132 -168q66 0 118 41.5t123 147.5l60 -35q-84 -150 -181.5 -217.5t-218.5 -67.5 q-138 0 -218.5 76.5t-80.5 224.5zM262 1206q0 56 38.5 95.5t92.5 39.5q55 0 95 -39.5t40 -95.5q0 -54 -39.5 -92.5t-95.5 -38.5q-53 0 -92 39.5t-39 91.5zM303 438q139 31 231.5 133t92.5 228q0 80 -64 80q-145 0 -260 -441zM696 1206q0 56 38.5 95.5t92.5 39.5q56 0 96 -40 t40 -95q0 -54 -40 -92.5t-96 -38.5q-53 0 -92 39.5t-39 91.5z" />
<glyph unicode="&#xec;" horiz-adv-x="569" d="M4 111q0 40 31 155l112 416q17 69 17 92q0 60 -94 60h-29v55q244 18 416 57l-187 -684q-18 -63 -18 -104q0 -33 31 -33q43 0 131 125l28 41l45 -29q-99 -162 -174 -221t-170 -59q-65 0 -102 32.5t-37 96.5zM168 1335q0 37 27.5 64.5t64.5 27.5q64 0 115 -67l227 -303h-94 l-270 180q-70 48 -70 98z" />
<glyph unicode="&#xed;" horiz-adv-x="569" d="M4 111q0 40 31 155l112 416q17 69 17 92q0 60 -94 60h-29v55q244 18 416 57l-187 -684q-18 -63 -18 -104q0 -33 31 -33q43 0 131 125l28 41l45 -29q-99 -162 -174 -221t-170 -59q-65 0 -102 32.5t-37 96.5zM143 1057l250 268q56 59 86 80.5t58 21.5q40 0 69 -28t29 -68 q0 -29 -17 -49.5t-63 -46.5l-311 -178h-101z" />
<glyph unicode="&#xee;" horiz-adv-x="569" d="M4 111q0 40 31 155l112 416q17 69 17 92q0 60 -94 60h-29v55q244 18 416 57l-187 -684q-18 -63 -18 -104q0 -33 31 -33q43 0 131 125l28 41l45 -29q-99 -162 -174 -221t-170 -59q-65 0 -102 32.5t-37 96.5zM53 1057l328 356h166l176 -356h-105l-180 194l-268 -194h-117z " />
<glyph unicode="&#xef;" horiz-adv-x="569" d="M4 111q0 40 31 155l112 416q17 69 17 92q0 60 -94 60h-29v55q244 18 416 57l-187 -684q-18 -63 -18 -104q0 -33 31 -33q43 0 131 125l28 41l45 -29q-99 -162 -174 -221t-170 -59q-65 0 -102 32.5t-37 96.5zM41 1206q0 56 38.5 95.5t92.5 39.5q56 0 95.5 -39.5t39.5 -95.5 q0 -54 -39.5 -92.5t-95.5 -38.5q-52 0 -91.5 39.5t-39.5 91.5zM475 1206q0 56 38.5 95.5t92.5 39.5q56 0 95.5 -39.5t39.5 -95.5q0 -54 -39.5 -92.5t-95.5 -38.5q-52 0 -91.5 39.5t-39.5 91.5z" />
<glyph unicode="&#xf0;" d="M-6 274q0 131 48.5 255.5t126.5 215.5t181 146t207 55q96 0 145 -86l5 8q-12 161 -127 308l-244 -127l-68 63l250 131q-118 112 -239 133l92 56q144 -20 270 -123l219 116l70 -65l-219 -115q104 -114 148 -220.5t44 -246.5q0 -213 -74 -397t-210 -296t-302 -112 q-143 0 -233 85.5t-90 215.5zM238 176q0 -143 100 -143q49 0 93 40t72.5 93.5t57.5 130.5q41 113 69.5 248.5t28.5 222.5q0 55 -25.5 87t-68.5 32q-64 0 -126.5 -79.5t-105 -193t-69 -233.5t-26.5 -205z" />
<glyph unicode="&#xf1;" horiz-adv-x="1138" d="M-12 0l116 418q93 336 93 366q0 29 -23.5 38.5t-89.5 11.5v55q189 7 408 55l-127 -405h2q104 155 148.5 212.5t100.5 110.5q87 84 205 84q150 0 150 -158q0 -68 -58 -237l-71 -213q-49 -144 -49 -182q0 -15 8 -25t20 -10q27 0 56.5 31t89.5 124l45 -26 q-83 -147 -158.5 -207.5t-169.5 -60.5q-139 0 -139 122q0 99 53 256l113 338q14 47 14 58q0 43 -51 43q-26 0 -67.5 -33.5t-74.5 -77.5q-97 -127 -162 -276t-134 -412h-248zM303 1100q20 110 85 175.5t153 65.5q78 0 198 -53q79 -33 111 -33q36 0 58.5 18.5t45.5 67.5h84 q-34 -129 -90.5 -186t-148.5 -57q-55 0 -117 26l-121 47q-46 17 -78 17q-34 0 -56 -19.5t-42 -68.5h-82z" />
<glyph unicode="&#xf2;" d="M-6 276q0 150 55 284.5t150 227.5q161 158 374 158h9q149 0 235 -83.5t86 -225.5q0 -141 -59 -277t-156 -233q-154 -154 -358 -154q-150 0 -243 78.5t-93 224.5zM238 164q0 -66 26.5 -98.5t73.5 -32.5q84 0 145 100q74 121 125 307t51 322q0 58 -26 91.5t-70 33.5 q-65 0 -123 -64q-88 -98 -145 -295t-57 -364zM395 1335q0 37 27.5 64.5t64.5 27.5q64 0 115 -67l227 -303h-94l-270 180q-70 48 -70 98z" />
<glyph unicode="&#xf3;" d="M-6 276q0 150 55 284.5t150 227.5q161 158 374 158h9q149 0 235 -83.5t86 -225.5q0 -141 -59 -277t-156 -233q-154 -154 -358 -154q-150 0 -243 78.5t-93 224.5zM238 164q0 -66 26.5 -98.5t73.5 -32.5q84 0 145 100q74 121 125 307t51 322q0 58 -26 91.5t-70 33.5 q-65 0 -123 -64q-88 -98 -145 -295t-57 -364zM367 1057l249 268q56 59 86 80.5t58 21.5q40 0 69 -28t29 -68q0 -29 -17 -49.5t-63 -46.5l-311 -178h-100z" />
<glyph unicode="&#xf4;" d="M-6 276q0 150 55 284.5t150 227.5q161 158 374 158h9q149 0 235 -83.5t86 -225.5q0 -141 -59 -277t-156 -233q-154 -154 -358 -154q-150 0 -243 78.5t-93 224.5zM238 164q0 -66 26.5 -98.5t73.5 -32.5q84 0 145 100q74 121 125 307t51 322q0 58 -26 91.5t-70 33.5 q-65 0 -123 -64q-88 -98 -145 -295t-57 -364zM276 1057l328 356h166l176 -356h-104l-180 194l-269 -194h-117z" />
<glyph unicode="&#xf5;" d="M-6 276q0 150 55 284.5t150 227.5q161 158 374 158h9q149 0 235 -83.5t86 -225.5q0 -141 -59 -277t-156 -233q-154 -154 -358 -154q-150 0 -243 78.5t-93 224.5zM238 164q0 -66 26.5 -98.5t73.5 -32.5q84 0 145 100q74 121 125 307t51 322q0 58 -26 91.5t-70 33.5 q-65 0 -123 -64q-88 -98 -145 -295t-57 -364zM258 1100q20 110 85 175.5t153 65.5q78 0 198 -53q79 -33 111 -33q36 0 58.5 18.5t45.5 67.5h84q-34 -129 -90.5 -186t-148.5 -57q-55 0 -117 26l-121 47q-46 17 -78 17q-34 0 -56 -19.5t-42 -68.5h-82z" />
<glyph unicode="&#xf6;" d="M-6 276q0 150 55 284.5t150 227.5q161 158 374 158h9q149 0 235 -83.5t86 -225.5q0 -141 -59 -277t-156 -233q-154 -154 -358 -154q-150 0 -243 78.5t-93 224.5zM238 164q0 -66 26.5 -98.5t73.5 -32.5q84 0 145 100q74 121 125 307t51 322q0 58 -26 91.5t-70 33.5 q-65 0 -123 -64q-88 -98 -145 -295t-57 -364zM262 1206q0 56 38.5 95.5t92.5 39.5q55 0 95 -39.5t40 -95.5q0 -54 -39.5 -92.5t-95.5 -38.5q-53 0 -92 39.5t-39 91.5zM696 1206q0 56 38.5 95.5t92.5 39.5q56 0 96 -40t40 -95q0 -54 -40 -92.5t-96 -38.5q-53 0 -92 39.5 t-39 91.5z" />
<glyph unicode="&#xf7;" horiz-adv-x="1167" d="M68 428v180h1032v-180h-1032zM432 92q0 65 44 108.5t110 43.5q61 0 105 -45t44 -107q0 -64 -44 -107.5t-109 -43.5q-64 0 -107 43t-43 108zM432 944q0 65 44 108.5t110 43.5q61 0 105 -45t44 -107q0 -64 -44 -107.5t-109 -43.5q-64 0 -107 43t-43 108z" />
<glyph unicode="&#xf8;" d="M-6 274q0 171 83.5 327t221 250.5t287.5 94.5q42 0 86 -12l121 213h75l-133 -238q88 -43 128 -108t40 -164q0 -170 -81.5 -324t-216.5 -247t-283 -93q-47 0 -105 17l-131 -234h-82l148 258q-158 88 -158 260zM238 160l391 698q-29 29 -66 29q-99 0 -176 -139 q-56 -100 -102.5 -279t-46.5 -293v-16zM262 70q27 -37 76 -37q60 0 110 53.5t97 169.5q44 106 79 260t35 246q0 6 -2 10z" />
<glyph unicode="&#xf9;" horiz-adv-x="1138" d="M31 143q0 59 45 217l76 263q34 125 34 153q0 25 -25.5 39.5t-92.5 18.5v55q76 1 204.5 18.5t225.5 38.5l-191 -618q-33 -105 -33 -148q0 -51 50 -51q57 0 143 113q96 126 154 256t137 422h241l-159 -545q-52 -181 -52 -211q0 -43 29 -43q27 0 61 34.5t87 116.5l45 -26 q-80 -138 -157.5 -201t-168.5 -63q-139 0 -139 122q0 42 11.5 87.5t41.5 138.5h-2q-144 -210 -224.5 -279t-181.5 -69q-159 0 -159 161zM430 1335q0 37 27.5 64.5t64.5 27.5q64 0 115 -67l227 -303h-94l-270 180q-70 48 -70 98z" />
<glyph unicode="&#xfa;" horiz-adv-x="1138" d="M31 143q0 59 45 217l76 263q34 125 34 153q0 25 -25.5 39.5t-92.5 18.5v55q76 1 204.5 18.5t225.5 38.5l-191 -618q-33 -105 -33 -148q0 -51 50 -51q57 0 143 113q96 126 154 256t137 422h241l-159 -545q-52 -181 -52 -211q0 -43 29 -43q27 0 61 34.5t87 116.5l45 -26 q-80 -138 -157.5 -201t-168.5 -63q-139 0 -139 122q0 42 11.5 87.5t41.5 138.5h-2q-144 -210 -224.5 -279t-181.5 -69q-159 0 -159 161zM401 1057l250 268q56 59 86 80.5t58 21.5q40 0 69 -28t29 -68q0 -29 -17 -49.5t-63 -46.5l-311 -178h-101z" />
<glyph unicode="&#xfb;" horiz-adv-x="1138" d="M31 143q0 59 45 217l76 263q34 125 34 153q0 25 -25.5 39.5t-92.5 18.5v55q76 1 204.5 18.5t225.5 38.5l-191 -618q-33 -105 -33 -148q0 -51 50 -51q57 0 143 113q96 126 154 256t137 422h241l-159 -545q-52 -181 -52 -211q0 -43 29 -43q27 0 61 34.5t87 116.5l45 -26 q-80 -138 -157.5 -201t-168.5 -63q-139 0 -139 122q0 42 11.5 87.5t41.5 138.5h-2q-144 -210 -224.5 -279t-181.5 -69q-159 0 -159 161zM315 1057l328 356h166l176 -356h-104l-181 194l-268 -194h-117z" />
<glyph unicode="&#xfc;" horiz-adv-x="1138" d="M31 143q0 59 45 217l76 263q34 125 34 153q0 25 -25.5 39.5t-92.5 18.5v55q76 1 204.5 18.5t225.5 38.5l-191 -618q-33 -105 -33 -148q0 -51 50 -51q57 0 143 113q96 126 154 256t137 422h241l-159 -545q-52 -181 -52 -211q0 -43 29 -43q27 0 61 34.5t87 116.5l45 -26 q-80 -138 -157.5 -201t-168.5 -63q-139 0 -139 122q0 42 11.5 87.5t41.5 138.5h-2q-144 -210 -224.5 -279t-181.5 -69q-159 0 -159 161zM301 1206q0 56 38.5 95.5t92.5 39.5q56 0 95.5 -39.5t39.5 -95.5q0 -54 -39.5 -92.5t-95.5 -38.5q-52 0 -91.5 39.5t-39.5 91.5z M735 1206q0 56 38.5 95.5t92.5 39.5q56 0 95.5 -39.5t39.5 -95.5q0 -54 -39.5 -92.5t-95.5 -38.5q-52 0 -91.5 39.5t-39.5 91.5z" />
<glyph unicode="&#xfd;" horiz-adv-x="909" d="M-193 -297q0 44 31.5 79.5t71.5 35.5q41 0 73 -18.5t60.5 -37t58.5 -18.5q26 0 66 30.5t72 75.5q51 71 51 146q0 101 -103 590q-43 192 -82 231q-17 17 -30 21t-51 4v55q178 16 307 49q86 -224 135 -561l22 -160h5q106 202 142 289t36 135q0 19 -10 31.5t-41 38.5 q-36 30 -50 52t-14 58q0 43 33 80t86 37q51 0 89 -39t38 -92q0 -155 -155 -464t-355 -554q-85 -103 -179.5 -160t-179.5 -57q-54 0 -90.5 35.5t-36.5 87.5zM330 1057l250 268q56 59 86 80.5t57 21.5q40 0 69 -28t29 -68q0 -29 -17 -49.5t-63 -46.5l-311 -178h-100z" />
<glyph unicode="&#xfe;" d="M-246 -365q72 0 102.5 35t57.5 140l332 1290q35 130 35 153q0 62 -93 62h-36v55q231 25 421 62l-194 -697l6 -6q78 117 149.5 167t159.5 50q100 0 159.5 -67.5t59.5 -180.5q0 -173 -83 -342.5t-215.5 -276t-268.5 -106.5q-32 0 -58.5 8.5t-80.5 36.5q-9 -36 -23 -84 q-53 -194 -53 -233q0 -37 28 -50.5t105 -15.5v-55h-510v55zM231 119q0 -31 23 -52.5t57 -21.5q104 0 199 168q60 107 103.5 241t43.5 230q0 117 -79 117q-41 0 -89 -35t-86 -94q-23 -34 -41 -83t-53 -165q-78 -264 -78 -305z" />
<glyph unicode="&#xff;" horiz-adv-x="909" d="M-193 -297q0 44 31.5 79.5t71.5 35.5q41 0 73 -18.5t60.5 -37t58.5 -18.5q26 0 66 30.5t72 75.5q51 71 51 146q0 101 -103 590q-43 192 -82 231q-17 17 -30 21t-51 4v55q178 16 307 49q86 -224 135 -561l22 -160h5q106 202 142 289t36 135q0 19 -10 31.5t-41 38.5 q-36 30 -50 52t-14 58q0 43 33 80t86 37q51 0 89 -39t38 -92q0 -155 -155 -464t-355 -554q-85 -103 -179.5 -160t-179.5 -57q-54 0 -90.5 35.5t-36.5 87.5zM242 1206q0 56 38.5 95.5t92.5 39.5q55 0 95 -39.5t40 -95.5q0 -54 -39.5 -92.5t-95.5 -38.5q-53 0 -92 39.5 t-39 91.5zM676 1206q0 56 38.5 95.5t92.5 39.5q55 0 95 -39.5t40 -95.5q0 -54 -39.5 -92.5t-95.5 -38.5q-53 0 -92 39.5t-39 91.5z" />
<glyph unicode="&#x100;" horiz-adv-x="1366" d="M-139 51q53 6 88.5 39.5t87.5 116.5l758 1192h51l192 -1147q22 -127 51 -161t125 -40v-51h-620v51q82 6 120 30.5t38 70.5q0 6 -4 30l-25 244h-440l-117 -197q-35 -56 -35 -102q0 -38 30 -57t101 -19v-51h-399zM330 508h379l-76 498zM469 1481l35 143h665l-32 -143h-668z " />
<glyph unicode="&#x101;" d="M-43 233q0 119 48.5 243t129.5 231q84 110 184 174.5t197 64.5q66 0 102.5 -34.5t49.5 -112.5h2l35 121l227 14l-154 -514q-61 -202 -61 -273q0 -30 24 -30q25 0 56.5 29.5t93.5 113.5l43 -31q-159 -258 -320 -258q-59 0 -94 33.5t-35 97.5q0 45 29 142 q-86 -146 -164 -208.5t-172 -62.5q-100 0 -160.5 71.5t-60.5 188.5zM209 236q0 -117 88 -117q42 0 89 39.5t87 113.5q60 105 104 252t44 240q0 42 -21.5 69t-54.5 27q-107 0 -221 -235q-52 -104 -83.5 -215.5t-31.5 -173.5zM295 1057l35 143h665l-32 -143h-668z" />
<glyph unicode="&#x102;" horiz-adv-x="1366" d="M-139 51q53 6 88.5 39.5t87.5 116.5l758 1192h51l192 -1147q22 -127 51 -161t125 -40v-51h-620v51q82 6 120 30.5t38 70.5q0 6 -4 30l-25 244h-440l-117 -197q-35 -56 -35 -102q0 -38 30 -57t101 -19v-51h-399zM330 508h379l-76 498zM496 1786v26h88q16 -184 202 -184 q102 0 166 42t111 142h80q-33 -160 -125 -245.5t-240 -85.5q-141 0 -211.5 78.5t-70.5 226.5z" />
<glyph unicode="&#x103;" d="M-43 233q0 119 48.5 243t129.5 231q84 110 184 174.5t197 64.5q66 0 102.5 -34.5t49.5 -112.5h2l35 121l227 14l-154 -514q-61 -202 -61 -273q0 -30 24 -30q25 0 56.5 29.5t93.5 113.5l43 -31q-159 -258 -320 -258q-59 0 -94 33.5t-35 97.5q0 45 29 142 q-86 -146 -164 -208.5t-172 -62.5q-100 0 -160.5 71.5t-60.5 188.5zM209 236q0 -117 88 -117q42 0 89 39.5t87 113.5q60 105 104 252t44 240q0 42 -21.5 69t-54.5 27q-107 0 -221 -235q-52 -104 -83.5 -215.5t-31.5 -173.5zM342 1362v27h88q16 -185 203 -185q102 0 165.5 42 t110.5 143h80q-33 -160 -125 -246t-239 -86q-141 0 -212 78.5t-71 226.5z" />
<glyph unicode="&#x104;" horiz-adv-x="1366" d="M-139 51q53 6 88.5 39.5t87.5 116.5l758 1192h51l192 -1147q22 -127 51 -161t125 -40v-51h-188q-12 -58 -12 -86q0 -127 125 -127q43 0 98 27q24 12 29 14l45 -29q-38 -71 -108.5 -112t-149.5 -41q-96 0 -153.5 43t-57.5 123q0 45 19 86t67 102h-334v51q82 6 120 30.5 t38 70.5q0 6 -4 30l-25 244h-440l-117 -197q-35 -56 -35 -102q0 -38 30 -57t101 -19v-51h-399zM330 508h379l-76 498z" />
<glyph unicode="&#x105;" d="M-43 233q0 119 48.5 243t129.5 231q84 110 184 174.5t197 64.5q66 0 102.5 -34.5t49.5 -112.5h2l35 121l227 14l-154 -514q-61 -202 -61 -273q0 -30 24 -30q25 0 56.5 29.5t93.5 113.5l43 -31q-87 -142 -174 -204q-19 -84 -19 -111q0 -127 125 -127q44 0 99 27l28 14 l45 -29q-38 -71 -108.5 -112t-149.5 -41q-96 0 -153.5 43t-57.5 123q0 40 14.5 75t51.5 86q-8 -2 -21 -2q-59 0 -94 33.5t-35 97.5q0 45 29 142q-86 -146 -164 -208.5t-172 -62.5q-100 0 -160.5 71.5t-60.5 188.5zM209 236q0 -117 88 -117q42 0 89 39.5t87 113.5 q60 105 104 252t44 240q0 42 -21.5 69t-54.5 27q-107 0 -221 -235q-52 -104 -83.5 -215.5t-31.5 -173.5z" />
<glyph unicode="&#x106;" horiz-adv-x="1366" d="M66 479q0 223 86.5 414t238.5 319q108 91 239 141t271 50q132 0 268 -43q53 -17 78 -17q23 0 39.5 13t38.5 47h61l-104 -481l-65 12q6 41 6 74q0 146 -70.5 234.5t-198.5 88.5q-80 0 -158.5 -40.5t-138.5 -108.5q-124 -140 -200 -337.5t-76 -416.5q0 -166 85.5 -261 t231.5 -95q86 0 159 30t129 78.5t130 134.5l64 -45q-50 -68 -83 -104.5t-77 -69.5q-177 -133 -408 -133q-249 0 -397.5 141.5t-148.5 374.5zM737 1481l250 268q56 59 86 80.5t57 21.5q40 0 69.5 -28.5t29.5 -67.5q0 -29 -17 -49.5t-63 -46.5l-311 -178h-101z" />
<glyph unicode="&#x107;" horiz-adv-x="909" d="M-10 283q0 136 58 263t157 226q171 174 368 174q95 0 162.5 -52t67.5 -132q0 -65 -35 -105.5t-92 -40.5q-52 0 -85.5 31.5t-33.5 77.5q0 33 21.5 66t21.5 53q0 15 -15 25t-34 10q-54 0 -98 -46t-93 -135q-108 -199 -108 -411q0 -88 40 -135.5t109 -47.5q65 0 120.5 41.5 t129.5 145.5l58 -37q-52 -71 -78 -104t-70.5 -75.5t-87.5 -64.5q-70 -37 -170 -37q-143 0 -228 81t-85 229zM285 1057l250 268q56 59 86 80.5t57 21.5q40 0 69 -28t29 -68q0 -29 -17 -49.5t-63 -46.5l-311 -178h-100z" />
<glyph unicode="&#x108;" horiz-adv-x="1366" d="M66 479q0 223 86.5 414t238.5 319q108 91 239 141t271 50q132 0 268 -43q53 -17 78 -17q23 0 39.5 13t38.5 47h61l-104 -481l-65 12q6 41 6 74q0 146 -70.5 234.5t-198.5 88.5q-80 0 -158.5 -40.5t-138.5 -108.5q-124 -140 -200 -337.5t-76 -416.5q0 -166 85.5 -261 t231.5 -95q86 0 159 30t129 78.5t130 134.5l64 -45q-50 -68 -83 -104.5t-77 -69.5q-177 -133 -408 -133q-249 0 -397.5 141.5t-148.5 374.5zM608 1481l328 356h166l176 -356h-104l-181 194l-268 -194h-117z" />
<glyph unicode="&#x109;" horiz-adv-x="909" d="M-10 283q0 136 58 263t157 226q171 174 368 174q95 0 162.5 -52t67.5 -132q0 -65 -35 -105.5t-92 -40.5q-52 0 -85.5 31.5t-33.5 77.5q0 33 21.5 66t21.5 53q0 15 -15 25t-34 10q-54 0 -98 -46t-93 -135q-108 -199 -108 -411q0 -88 40 -135.5t109 -47.5q65 0 120.5 41.5 t129.5 145.5l58 -37q-52 -71 -78 -104t-70.5 -75.5t-87.5 -64.5q-70 -37 -170 -37q-143 0 -228 81t-85 229zM180 1057l328 356h166l176 -356h-105l-180 194l-268 -194h-117z" />
<glyph unicode="&#x10a;" horiz-adv-x="1366" d="M66 479q0 223 86.5 414t238.5 319q108 91 239 141t271 50q132 0 268 -43q53 -17 78 -17q23 0 39.5 13t38.5 47h61l-104 -481l-65 12q6 41 6 74q0 146 -70.5 234.5t-198.5 88.5q-80 0 -158.5 -40.5t-138.5 -108.5q-124 -140 -200 -337.5t-76 -416.5q0 -166 85.5 -261 t231.5 -95q86 0 159 30t129 78.5t130 134.5l64 -45q-50 -68 -83 -104.5t-77 -69.5q-177 -133 -408 -133q-249 0 -397.5 141.5t-148.5 374.5zM788 1630q0 55 39 95t93 40q56 0 95.5 -39.5t39.5 -95.5q0 -54 -39.5 -92.5t-95.5 -38.5q-53 0 -92.5 39.5t-39.5 91.5z" />
<glyph unicode="&#x10b;" horiz-adv-x="909" d="M-10 283q0 136 58 263t157 226q171 174 368 174q95 0 162.5 -52t67.5 -132q0 -65 -35 -105.5t-92 -40.5q-52 0 -85.5 31.5t-33.5 77.5q0 33 21.5 66t21.5 53q0 15 -15 25t-34 10q-54 0 -98 -46t-93 -135q-108 -199 -108 -411q0 -88 40 -135.5t109 -47.5q65 0 120.5 41.5 t129.5 145.5l58 -37q-52 -71 -78 -104t-70.5 -75.5t-87.5 -64.5q-70 -37 -170 -37q-143 0 -228 81t-85 229zM440 1206q0 56 38.5 95.5t92.5 39.5q56 0 96 -40t40 -95q0 -54 -40 -92.5t-96 -38.5q-53 0 -92 39.5t-39 91.5z" />
<glyph unicode="&#x10c;" horiz-adv-x="1366" d="M66 479q0 223 86.5 414t238.5 319q108 91 239 141t271 50q132 0 268 -43q53 -17 78 -17q23 0 39.5 13t38.5 47h61l-104 -481l-65 12q6 41 6 74q0 146 -70.5 234.5t-198.5 88.5q-80 0 -158.5 -40.5t-138.5 -108.5q-124 -140 -200 -337.5t-76 -416.5q0 -166 85.5 -261 t231.5 -95q86 0 159 30t129 78.5t130 134.5l64 -45q-50 -68 -83 -104.5t-77 -69.5q-177 -133 -408 -133q-249 0 -397.5 141.5t-148.5 374.5zM582 1837h104l184 -199l275 199h117l-332 -356h-168z" />
<glyph unicode="&#x10d;" horiz-adv-x="909" d="M-10 283q0 136 58 263t157 226q171 174 368 174q95 0 162.5 -52t67.5 -132q0 -65 -35 -105.5t-92 -40.5q-52 0 -85.5 31.5t-33.5 77.5q0 33 21.5 66t21.5 53q0 15 -15 25t-34 10q-54 0 -98 -46t-93 -135q-108 -199 -108 -411q0 -88 40 -135.5t109 -47.5q65 0 120.5 41.5 t129.5 145.5l58 -37q-52 -71 -78 -104t-70.5 -75.5t-87.5 -64.5q-70 -37 -170 -37q-143 0 -228 81t-85 229zM215 1413h104l185 -199l274 199h117l-332 -356h-168z" />
<glyph unicode="&#x10e;" horiz-adv-x="1478" d="M-94 0v51q75 9 109.5 43.5t60.5 128.5l235 864q31 108 31 146q0 37 -17 53.5t-63 22.5l-69 10v51h593q289 0 453 -145t164 -396q0 -168 -64.5 -325t-179.5 -264q-124 -115 -293.5 -177.5t-369.5 -62.5h-590zM362 139q0 -69 119 -69q265 0 430 215q191 250 191 651 q0 187 -84 279t-254 92q-51 0 -76 -17.5t-37 -60.5l-258 -953q-31 -108 -31 -137zM520 1837h105l184 -199l274 199h117l-332 -356h-168z" />
<glyph unicode="&#x10f;" horiz-adv-x="1347" d="M-43 229q0 148 76 307.5t192 270.5q67 65 141 102t142 37q95 0 154 -67l36 131q60 212 60 250q0 57 -84 57h-43v55q259 20 428 60l-240 -863q-104 -373 -104 -415q0 -10 7 -20.5t15 -10.5q23 0 60.5 38t79.5 107l45 -32q-85 -135 -159 -197t-149 -62q-58 0 -90 33t-32 92 q0 42 22 140q-78 -141 -161 -205t-179 -64q-97 0 -157 66t-60 190zM211 250q0 -56 23 -92.5t61 -36.5q93 0 176 151q55 97 107.5 258.5t52.5 229.5q0 43 -21.5 71.5t-54.5 28.5q-61 1 -122 -64t-111 -165q-50 -98 -80.5 -206t-30.5 -175zM1069 858q242 128 242 238 q0 22 -13 38.5t-49 36.5q-47 26 -64.5 57.5t-17.5 76.5q0 71 42 110t108 39q80 0 125 -53.5t45 -138.5q0 -136 -104 -257t-287 -198z" />
<glyph unicode="&#x110;" horiz-adv-x="1478" d="M-63 0v51q74 9 107.5 39.5t55.5 108.5l129 475h-209l25 90h209l94 348q25 94 25 121q0 35 -20.5 51.5t-65.5 24.5l-64 10v51h594q290 0 453.5 -148t163.5 -411q0 -173 -69.5 -323.5t-189.5 -257.5t-289.5 -168.5t-363.5 -61.5h-585zM393 139q0 -37 26 -53t85 -16 q149 0 260.5 59t196.5 182q79 118 125.5 286.5t46.5 338.5q0 187 -84 279t-254 92q-51 0 -77 -17.5t-36 -60.5l-125 -465h250l-25 -90h-250l-114 -424q-25 -98 -25 -111z" />
<glyph unicode="&#x111;" d="M-43 229q0 148 76 307.5t192 270.5q67 65 141 102t142 37q95 0 154 -67l51 182h-373l29 102h370q19 80 19 97q0 57 -84 57h-43v55q259 20 428 60l-76 -269h125l-29 -102h-125l-135 -492q-104 -373 -104 -415q0 -10 7 -20.5t15 -10.5q23 0 60.5 38t79.5 107l45 -32 q-85 -135 -159 -197t-149 -62q-58 0 -90 33t-32 92q0 42 22 140q-78 -141 -161 -205t-179 -64q-97 0 -157 66t-60 190zM211 250q0 -56 23 -92.5t61 -36.5q93 0 176 151q55 97 107.5 258.5t52.5 229.5q0 43 -21.5 71.5t-54.5 28.5q-61 1 -122 -64t-111 -165 q-50 -98 -80.5 -206t-30.5 -175z" />
<glyph unicode="&#x112;" horiz-adv-x="1366" d="M-55 0v51q80 12 111 41.5t57 122.5l243 885q25 94 25 143q0 31 -18.5 46.5t-65.5 21.5l-68 8v51h1108l-88 -389l-55 10q-5 122 -19 168t-73 84q-97 62 -281 62q-65 0 -92 -19t-45 -86l-121 -442q72 0 118.5 2.5t89 11.5t68.5 22.5t52.5 40t46.5 59t45 83.5l57 -8 l-151 -561l-58 8q9 58 9 90q0 107 -61.5 146.5t-233.5 39.5l-129 -479q-17 -70 -17 -78q0 -37 29.5 -53t95.5 -16q270 0 439 124q56 41 94.5 86t91.5 132l51 -11l-123 -397h-1132zM530 1481l35 143h666l-33 -143h-668z" />
<glyph unicode="&#x113;" horiz-adv-x="909" d="M10 274q0 124 51 247t132.5 216t189.5 151t217 58q98 0 156.5 -49.5t58.5 -128.5q0 -64 -38.5 -129.5t-102.5 -120.5q-66 -55 -150.5 -87t-234.5 -58q-13 -67 -13 -101q0 -168 132 -168q66 0 118 41.5t123 147.5l60 -35q-84 -150 -181.5 -217.5t-218.5 -67.5 q-138 0 -218.5 76.5t-80.5 224.5zM182 1057l35 143h666l-33 -143h-668zM303 438q139 31 231.5 133t92.5 228q0 80 -64 80q-145 0 -260 -441z" />
<glyph unicode="&#x114;" horiz-adv-x="1366" d="M-55 0v51q80 12 111 41.5t57 122.5l243 885q25 94 25 143q0 31 -18.5 46.5t-65.5 21.5l-68 8v51h1108l-88 -389l-55 10q-5 122 -19 168t-73 84q-97 62 -281 62q-65 0 -92 -19t-45 -86l-121 -442q72 0 118.5 2.5t89 11.5t68.5 22.5t52.5 40t46.5 59t45 83.5l57 -8 l-151 -561l-58 8q9 58 9 90q0 107 -61.5 146.5t-233.5 39.5l-129 -479q-17 -70 -17 -78q0 -37 29.5 -53t95.5 -16q270 0 439 124q56 41 94.5 86t91.5 132l51 -11l-123 -397h-1132zM598 1786v26h88q16 -184 203 -184q102 0 165.5 42t110.5 142h80q-33 -160 -125 -245.5 t-239 -85.5q-141 0 -212 78.5t-71 226.5z" />
<glyph unicode="&#x115;" horiz-adv-x="909" d="M10 274q0 124 51 247t132.5 216t189.5 151t217 58q98 0 156.5 -49.5t58.5 -128.5q0 -64 -38.5 -129.5t-102.5 -120.5q-66 -55 -150.5 -87t-234.5 -58q-13 -67 -13 -101q0 -168 132 -168q66 0 118 41.5t123 147.5l60 -35q-84 -150 -181.5 -217.5t-218.5 -67.5 q-138 0 -218.5 76.5t-80.5 224.5zM303 438q139 31 231.5 133t92.5 228q0 80 -64 80q-145 0 -260 -441zM332 1362v27h88q16 -185 203 -185q102 0 165.5 42t110.5 143h80q-33 -160 -125.5 -246t-239.5 -86q-141 0 -211.5 78.5t-70.5 226.5z" />
<glyph unicode="&#x116;" horiz-adv-x="1366" d="M-55 0v51q80 12 111 41.5t57 122.5l243 885q25 94 25 143q0 31 -18.5 46.5t-65.5 21.5l-68 8v51h1108l-88 -389l-55 10q-5 122 -19 168t-73 84q-97 62 -281 62q-65 0 -92 -19t-45 -86l-121 -442q72 0 118.5 2.5t89 11.5t68.5 22.5t52.5 40t46.5 59t45 83.5l57 -8 l-151 -561l-58 8q9 58 9 90q0 107 -61.5 146.5t-233.5 39.5l-129 -479q-17 -70 -17 -78q0 -37 29.5 -53t95.5 -16q270 0 439 124q56 41 94.5 86t91.5 132l51 -11l-123 -397h-1132zM748 1630q0 56 38.5 95.5t92.5 39.5q55 0 95 -39.5t40 -95.5q0 -54 -39.5 -92.5t-95.5 -38.5 q-53 0 -92 39.5t-39 91.5z" />
<glyph unicode="&#x117;" horiz-adv-x="909" d="M10 274q0 124 51 247t132.5 216t189.5 151t217 58q98 0 156.5 -49.5t58.5 -128.5q0 -64 -38.5 -129.5t-102.5 -120.5q-66 -55 -150.5 -87t-234.5 -58q-13 -67 -13 -101q0 -168 132 -168q66 0 118 41.5t123 147.5l60 -35q-84 -150 -181.5 -217.5t-218.5 -67.5 q-138 0 -218.5 76.5t-80.5 224.5zM303 438q139 31 231.5 133t92.5 228q0 80 -64 80q-145 0 -260 -441zM461 1206q0 56 38.5 95.5t92.5 39.5q56 0 95.5 -39.5t39.5 -95.5q0 -54 -39.5 -92.5t-95.5 -38.5q-52 0 -91.5 39.5t-39.5 91.5z" />
<glyph unicode="&#x118;" horiz-adv-x="1366" d="M-55 0v51q80 12 111 41.5t57 122.5l243 885q25 94 25 143q0 31 -18.5 46.5t-65.5 21.5l-68 8v51h1108l-88 -389l-55 10q-5 122 -19 168t-73 84q-97 62 -281 62q-65 0 -92 -19t-45 -86l-121 -442q72 0 118.5 2.5t89 11.5t68.5 22.5t52.5 40t46.5 59t45 83.5l57 -8 l-151 -561l-58 8q9 58 9 90q0 107 -61.5 146.5t-233.5 39.5l-129 -479q-17 -70 -17 -78q0 -37 29.5 -53t95.5 -16q270 0 439 124q56 41 94.5 86t91.5 132l51 -11l-123 -397h-352q-16 -78 -16 -104q0 -127 125 -127q45 0 98 26q7 3 15.5 8t13.5 7l45 -29 q-38 -71 -108.5 -112.5t-149.5 -41.5q-96 0 -153.5 43t-57.5 123q0 50 21.5 93t78.5 114h-692z" />
<glyph unicode="&#x119;" horiz-adv-x="909" d="M10 274q0 124 51 247t132.5 216t189.5 151t217 58q98 0 156.5 -49.5t58.5 -128.5q0 -64 -38.5 -129.5t-102.5 -120.5q-66 -55 -150.5 -87t-234.5 -58q-13 -67 -13 -101q0 -168 132 -168q66 0 118 41.5t123 147.5l60 -35q-123 -220 -289 -270q-14 -57 -14 -92 q0 -127 124 -127q46 0 99 26q7 4 15 8.5t13 6.5l45 -29q-38 -71 -108.5 -112.5t-149.5 -41.5q-96 0 -153.5 43t-57.5 123q0 44 17.5 83t62.5 97h-4q-138 0 -218.5 76.5t-80.5 224.5zM303 438q139 31 231.5 133t92.5 228q0 80 -64 80q-145 0 -260 -441z" />
<glyph unicode="&#x11a;" horiz-adv-x="1366" d="M-55 0v51q80 12 111 41.5t57 122.5l243 885q25 94 25 143q0 31 -18.5 46.5t-65.5 21.5l-68 8v51h1108l-88 -389l-55 10q-5 122 -19 168t-73 84q-97 62 -281 62q-65 0 -92 -19t-45 -86l-121 -442q72 0 118.5 2.5t89 11.5t68.5 22.5t52.5 40t46.5 59t45 83.5l57 -8 l-151 -561l-58 8q9 58 9 90q0 107 -61.5 146.5t-233.5 39.5l-129 -479q-17 -70 -17 -78q0 -37 29.5 -53t95.5 -16q270 0 439 124q56 41 94.5 86t91.5 132l51 -11l-123 -397h-1132zM582 1837h104l184 -199l275 199h117l-332 -356h-168z" />
<glyph unicode="&#x11b;" horiz-adv-x="909" d="M10 274q0 124 51 247t132.5 216t189.5 151t217 58q98 0 156.5 -49.5t58.5 -128.5q0 -64 -38.5 -129.5t-102.5 -120.5q-66 -55 -150.5 -87t-234.5 -58q-13 -67 -13 -101q0 -168 132 -168q66 0 118 41.5t123 147.5l60 -35q-84 -150 -181.5 -217.5t-218.5 -67.5 q-138 0 -218.5 76.5t-80.5 224.5zM303 438q139 31 231.5 133t92.5 228q0 80 -64 80q-145 0 -260 -441zM315 1413h105l184 -199l275 199h116l-331 -356h-168z" />
<glyph unicode="&#x11c;" horiz-adv-x="1478" d="M43 524q0 197 89 379t245 311q230 189 541 189q131 0 253 -43q53 -19 74 -19q30 0 49.5 14t36.5 48h64l-105 -453l-59 8q-3 94 -13.5 147.5t-35.5 96.5q-73 127 -236 127q-101 0 -191.5 -54.5t-162.5 -146.5q-105 -137 -167.5 -318.5t-62.5 -367.5q0 -198 86 -299.5 t250 -101.5q63 0 118.5 16.5t74.5 44.5l63 213q6 21 15 51.5t13 43.5t9.5 33t7.5 28.5t5 21t4 20.5t1.5 17t0.5 19q0 13 -8 28t-17 21q-31 16 -129 25v53h588v-53q-54 -4 -80.5 -18.5t-45.5 -52.5t-42 -126l-90 -342l-58 -27q-87 -41 -222.5 -67.5t-256.5 -26.5 q-273 0 -439.5 151.5t-166.5 409.5zM588 1481l327 356h166l176 -356h-104l-180 194l-268 -194h-117z" />
<glyph unicode="&#x11d;" d="M-106 -209q0 52 18 92.5t45.5 64t66 38.5t72 21t70.5 7q-68 23 -97.5 55t-29.5 81q0 61 43.5 107.5t153.5 90.5q-164 69 -164 225q0 159 128.5 266t317.5 107q154 0 234 -67h225v-115h-135q12 -25 12 -86q0 -165 -145 -270q-70 -51 -139.5 -73t-157.5 -22q-52 0 -105 17 q-22 0 -39.5 -21t-17.5 -53q0 -25 30.5 -48.5t79.5 -35.5l103 -25q166 -39 235.5 -97.5t69.5 -153.5q0 -130 -132 -221t-353 -91q-182 0 -285.5 52.5t-103.5 154.5zM72 -186q0 -71 64 -115.5t167 -44.5q106 0 174 42.5t68 98.5q0 75 -86 119q-35 16 -120 44.5t-103 29.5 q-14 -2 -50 -22.5t-55 -39.5q-59 -56 -59 -112zM260 1057l328 356h166l176 -356h-105l-180 194l-268 -194h-117zM309 498q0 -58 22.5 -89.5t63.5 -31.5q95 0 160 141q59 128 59 244q0 121 -92 121q-61 0 -116 -66q-47 -59 -72 -149.5t-25 -169.5z" />
<glyph unicode="&#x11e;" horiz-adv-x="1478" d="M43 524q0 197 89 379t245 311q230 189 541 189q131 0 253 -43q53 -19 74 -19q30 0 49.5 14t36.5 48h64l-105 -453l-59 8q-3 94 -13.5 147.5t-35.5 96.5q-73 127 -236 127q-101 0 -191.5 -54.5t-162.5 -146.5q-105 -137 -167.5 -318.5t-62.5 -367.5q0 -198 86 -299.5 t250 -101.5q63 0 118.5 16.5t74.5 44.5l63 213q6 21 15 51.5t13 43.5t9.5 33t7.5 28.5t5 21t4 20.5t1.5 17t0.5 19q0 13 -8 28t-17 21q-31 16 -129 25v53h588v-53q-54 -4 -80.5 -18.5t-45.5 -52.5t-42 -126l-90 -342l-58 -27q-87 -41 -222.5 -67.5t-256.5 -26.5 q-273 0 -439.5 151.5t-166.5 409.5zM618 1786v26h89q16 -184 202 -184q102 0 166 42t111 142h80q-33 -160 -125 -245.5t-240 -85.5q-141 0 -212 78.5t-71 226.5z" />
<glyph unicode="&#x11f;" d="M-106 -209q0 52 18 92.5t45.5 64t66 38.5t72 21t70.5 7q-68 23 -97.5 55t-29.5 81q0 61 43.5 107.5t153.5 90.5q-164 69 -164 225q0 159 128.5 266t317.5 107q154 0 234 -67h225v-115h-135q12 -25 12 -86q0 -165 -145 -270q-70 -51 -139.5 -73t-157.5 -22q-52 0 -105 17 q-22 0 -39.5 -21t-17.5 -53q0 -25 30.5 -48.5t79.5 -35.5l103 -25q166 -39 235.5 -97.5t69.5 -153.5q0 -130 -132 -221t-353 -91q-182 0 -285.5 52.5t-103.5 154.5zM72 -186q0 -71 64 -115.5t167 -44.5q106 0 174 42.5t68 98.5q0 75 -86 119q-35 16 -120 44.5t-103 29.5 q-14 -2 -50 -22.5t-55 -39.5q-59 -56 -59 -112zM309 498q0 -58 22.5 -89.5t63.5 -31.5q95 0 160 141q59 128 59 244q0 121 -92 121q-61 0 -116 -66q-47 -59 -72 -149.5t-25 -169.5zM311 1362v27h88q16 -185 203 -185q102 0 166 42.5t111 142.5h79q-33 -160 -125 -246 t-239 -86q-141 0 -212 78.5t-71 226.5z" />
<glyph unicode="&#x120;" horiz-adv-x="1478" d="M43 524q0 197 89 379t245 311q230 189 541 189q131 0 253 -43q53 -19 74 -19q30 0 49.5 14t36.5 48h64l-105 -453l-59 8q-3 94 -13.5 147.5t-35.5 96.5q-73 127 -236 127q-101 0 -191.5 -54.5t-162.5 -146.5q-105 -137 -167.5 -318.5t-62.5 -367.5q0 -198 86 -299.5 t250 -101.5q63 0 118.5 16.5t74.5 44.5l63 213q6 21 15 51.5t13 43.5t9.5 33t7.5 28.5t5 21t4 20.5t1.5 17t0.5 19q0 13 -8 28t-17 21q-31 16 -129 25v53h588v-53q-54 -4 -80.5 -18.5t-45.5 -52.5t-42 -126l-90 -342l-58 -27q-87 -41 -222.5 -67.5t-256.5 -26.5 q-273 0 -439.5 151.5t-166.5 409.5zM809 1630q0 56 38.5 95.5t92.5 39.5q56 0 95.5 -39.5t39.5 -95.5q0 -54 -39.5 -92.5t-95.5 -38.5q-52 0 -91.5 39.5t-39.5 91.5z" />
<glyph unicode="&#x121;" d="M-106 -209q0 52 18 92.5t45.5 64t66 38.5t72 21t70.5 7q-68 23 -97.5 55t-29.5 81q0 61 43.5 107.5t153.5 90.5q-164 69 -164 225q0 159 128.5 266t317.5 107q154 0 234 -67h225v-115h-135q12 -25 12 -86q0 -165 -145 -270q-70 -51 -139.5 -73t-157.5 -22q-52 0 -105 17 q-22 0 -39.5 -21t-17.5 -53q0 -25 30.5 -48.5t79.5 -35.5l103 -25q166 -39 235.5 -97.5t69.5 -153.5q0 -130 -132 -221t-353 -91q-182 0 -285.5 52.5t-103.5 154.5zM72 -186q0 -71 64 -115.5t167 -44.5q106 0 174 42.5t68 98.5q0 75 -86 119q-35 16 -120 44.5t-103 29.5 q-14 -2 -50 -22.5t-55 -39.5q-59 -56 -59 -112zM309 498q0 -58 22.5 -89.5t63.5 -31.5q95 0 160 141q59 128 59 244q0 121 -92 121q-61 0 -116 -66q-47 -59 -72 -149.5t-25 -169.5zM440 1206q0 56 38.5 95.5t92.5 39.5q56 0 96 -40t40 -95q0 -54 -40 -92.5t-96 -38.5 q-53 0 -92 39.5t-39 91.5z" />
<glyph unicode="&#x122;" horiz-adv-x="1478" d="M43 524q0 197 89 379t245 311q230 189 541 189q131 0 253 -43q53 -19 74 -19q30 0 49.5 14t36.5 48h64l-105 -453l-59 8q-3 94 -13.5 147.5t-35.5 96.5q-73 127 -236 127q-101 0 -191.5 -54.5t-162.5 -146.5q-105 -137 -167.5 -318.5t-62.5 -367.5q0 -198 86 -299.5 t250 -101.5q63 0 118.5 16.5t74.5 44.5l63 213q6 21 15 51.5t13 43.5t9.5 33t7.5 28.5t5 21t4 20.5t1.5 17t0.5 19q0 13 -8 28t-17 21q-31 16 -129 25v53h588v-53q-54 -4 -80.5 -18.5t-45.5 -52.5t-42 -126l-90 -342l-58 -27q-87 -41 -222.5 -67.5t-256.5 -26.5 q-273 0 -439.5 151.5t-166.5 409.5zM324 -684q241 128 241 238q0 23 -12.5 39t-48.5 36q-47 26 -64.5 57.5t-17.5 75.5q0 65 42.5 107.5t106.5 42.5q80 0 125 -53.5t45 -139.5q0 -136 -104 -256.5t-287 -197.5z" />
<glyph unicode="&#x123;" d="M-106 -209q0 52 18 92.5t45.5 64t66 38.5t72 21t70.5 7q-68 23 -97.5 55t-29.5 81q0 61 43.5 107.5t153.5 90.5q-164 69 -164 225q0 159 128.5 266t317.5 107q154 0 234 -67h225v-115h-135q12 -25 12 -86q0 -165 -145 -270q-70 -51 -139.5 -73t-157.5 -22q-52 0 -105 17 q-22 0 -39.5 -21t-17.5 -53q0 -25 30.5 -48.5t79.5 -35.5l103 -25q166 -39 235.5 -97.5t69.5 -153.5q0 -130 -132 -221t-353 -91q-182 0 -285.5 52.5t-103.5 154.5zM72 -186q0 -71 64 -115.5t167 -44.5q106 0 174 42.5t68 98.5q0 75 -86 119q-35 16 -120 44.5t-103 29.5 q-14 -2 -50 -22.5t-55 -39.5q-59 -56 -59 -112zM309 498q0 -58 22.5 -89.5t63.5 -31.5q95 0 160 141q59 128 59 244q0 121 -92 121q-61 0 -116 -66q-47 -59 -72 -149.5t-25 -169.5zM367 1249q0 136 104 257t287 198l26 -51q-241 -128 -241 -238q0 -23 13 -40t48 -36 q47 -26 64.5 -57.5t17.5 -75.5q0 -71 -41.5 -110t-107.5 -39q-80 0 -125 53.5t-45 138.5z" />
<glyph unicode="&#x124;" horiz-adv-x="1593" d="M-49 0v51q79 11 110.5 38t55.5 114l248 915q22 78 22 119q0 34 -19.5 51t-66.5 23l-63 8v51h647v-51q-101 -3 -141.5 -34t-67.5 -130l-107 -391h490l96 354q21 82 21 125q0 31 -18.5 46.5t-65.5 21.5l-64 8v51h608v-51q-73 0 -109.5 -34t-58.5 -118l-227 -835 q-45 -170 -45 -197q0 -44 32.5 -62.5t117.5 -21.5v-51h-648v51q104 6 143.5 36t65.5 126l127 461h-489l-111 -404q-24 -89 -24 -137q0 -14 4.5 -25t18.5 -23.5t44.5 -21t77.5 -12.5v-51h-604zM629 1481l327 356h166l176 -356h-104l-180 194l-269 -194h-116z" />
<glyph unicode="&#x125;" horiz-adv-x="1138" d="M-27 0l312 1151q20 75 20 96q0 68 -86 68h-45v55q196 17 428 62l-221 -852q152 216 241.5 291t194.5 75q75 0 115.5 -40.5t40.5 -112.5q0 -56 -60 -242l-120 -373q-7 -19 -7 -24q0 -11 11.5 -22t23.5 -11q20 0 54 37.5t100 132.5l45 -31q-101 -158 -174.5 -218 t-167.5 -60q-61 0 -98 35t-37 96t22.5 141t102.5 319l41 121q14 43 14 62q0 43 -41 43q-85 0 -217 -193q-75 -110 -120.5 -223t-123.5 -383h-248zM342 1481l328 356h166l176 -356h-105l-180 194l-268 -194h-117z" />
<glyph unicode="&#x126;" horiz-adv-x="1593" d="M-49 0v51q79 11 110.5 38t55.5 114l219 813h-209v90h233q27 94 27 131q0 34 -19.5 51t-66.5 23l-63 8v51h647v-51q-100 -3 -140 -34t-69 -130l-14 -49h489q25 91 25 137q0 31 -18.5 46.5t-65.5 21.5l-64 8v51h608v-51q-73 0 -109.5 -34t-58.5 -118l-16 -61h186v-90h-211 l-186 -684q-45 -170 -45 -197q0 -44 32.5 -62.5t117.5 -21.5v-51h-648v51q104 6 143.5 36t65.5 126l127 461h-489l-111 -404q-24 -89 -24 -137q0 -14 4.5 -25t18.5 -23.5t44.5 -21t77.5 -12.5v-51h-604zM569 764h490l67 252h-489z" />
<glyph unicode="&#x127;" horiz-adv-x="1138" d="M-27 0l285 1053h-125l25 90h125q22 80 22 104q0 68 -86 68h-45v55q196 17 428 62l-76 -289h326l-25 -90h-323l-123 -473q152 216 241.5 291t194.5 75q75 0 115.5 -40.5t40.5 -112.5q0 -56 -60 -242l-120 -373q-7 -19 -7 -24q0 -11 11.5 -22t23.5 -11q20 0 54 37.5 t100 132.5l45 -31q-101 -158 -174.5 -218t-167.5 -60q-61 0 -98 35t-37 96t22.5 141t102.5 319l41 121q14 43 14 62q0 43 -41 43q-85 0 -217 -193q-75 -110 -120.5 -223t-123.5 -383h-248z" />
<glyph unicode="&#x128;" horiz-adv-x="796" d="M-66 0v51q43 5 64 11t43 23.5t35 48t28 85.5l240 879q29 107 29 145q0 59 -86 68l-66 8v51h610v-51q-78 -8 -112.5 -39t-59.5 -125l-229 -844q-35 -126 -35 -178q0 -43 29.5 -60.5t116.5 -21.5v-51h-607zM227 1524q20 110 85 175.5t153 65.5q79 0 199 -53q79 -33 110 -33 q36 0 59 18.5t46 67.5h84q-34 -129 -90.5 -186t-149.5 -57q-55 0 -117 26l-121 47q-46 17 -77 17q-34 0 -56.5 -19.5t-42.5 -68.5h-82z" />
<glyph unicode="&#x129;" horiz-adv-x="569" d="M-18 1100q20 110 84.5 175.5t152.5 65.5q79 0 199 -53q79 -33 110 -33q36 0 59 18.5t46 67.5h84q-34 -129 -90.5 -186t-149.5 -57q-55 0 -117 26l-120 47q-46 17 -78 17q-34 0 -56.5 -19.5t-42.5 -68.5h-81zM4 111q0 40 31 155l112 416q17 69 17 92q0 60 -94 60h-29v55 q244 18 416 57l-187 -684q-18 -63 -18 -104q0 -33 31 -33q43 0 131 125l28 41l45 -29q-99 -162 -174 -221t-170 -59q-65 0 -102 32.5t-37 96.5z" />
<glyph unicode="&#x12a;" horiz-adv-x="796" d="M-66 0v51q43 5 64 11t43 23.5t35 48t28 85.5l240 879q29 107 29 145q0 59 -86 68l-66 8v51h610v-51q-78 -8 -112.5 -39t-59.5 -125l-229 -844q-35 -126 -35 -178q0 -43 29.5 -60.5t116.5 -21.5v-51h-607zM223 1481l35 143h666l-33 -143h-668z" />
<glyph unicode="&#x12b;" horiz-adv-x="569" d="M-23 1057l35 143h666l-33 -143h-668zM4 111q0 40 31 155l112 416q17 69 17 92q0 60 -94 60h-29v55q244 18 416 57l-187 -684q-18 -63 -18 -104q0 -33 31 -33q43 0 131 125l28 41l45 -29q-99 -162 -174 -221t-170 -59q-65 0 -102 32.5t-37 96.5z" />
<glyph unicode="&#x12c;" horiz-adv-x="796" d="M-66 0v51q43 5 64 11t43 23.5t35 48t28 85.5l240 879q29 107 29 145q0 59 -86 68l-66 8v51h610v-51q-78 -8 -112.5 -39t-59.5 -125l-229 -844q-35 -126 -35 -178q0 -43 29.5 -60.5t116.5 -21.5v-51h-607zM291 1786v26h88q16 -184 203 -184q102 0 165.5 42t110.5 142h80 q-33 -160 -125 -245.5t-240 -85.5q-141 0 -211.5 78.5t-70.5 226.5z" />
<glyph unicode="&#x12d;" horiz-adv-x="569" d="M4 111q0 40 31 155l112 416q17 69 17 92q0 60 -94 60h-29v55q244 18 416 57l-187 -684q-18 -63 -18 -104q0 -33 31 -33q43 0 131 125l28 41l45 -29q-99 -162 -174 -221t-170 -59q-65 0 -102 32.5t-37 96.5zM25 1362v27h88q16 -185 202 -185q102 0 166 42.5t111 142.5h80 q-33 -160 -125.5 -246t-239.5 -86q-141 0 -211.5 78.5t-70.5 226.5z" />
<glyph unicode="&#x12e;" horiz-adv-x="796" d="M-66 0v51q43 5 64 11t43 23.5t35 48t28 85.5l240 879q29 107 29 145q0 59 -86 68l-66 8v51h610v-51q-78 -8 -112.5 -39t-59.5 -125l-229 -844q-35 -126 -35 -178q0 -43 29.5 -60.5t116.5 -21.5v-51h-258q-13 -63 -13 -86q0 -127 125 -127q44 0 99 27l28 14l45 -29 q-38 -71 -108.5 -112t-149.5 -41q-96 0 -153.5 43t-57.5 123q0 45 19 86t67 102h-250z" />
<glyph unicode="&#x12f;" horiz-adv-x="569" d="M4 111q0 40 31 155l112 416q17 69 17 92q0 60 -94 60h-29v55q244 18 416 57l-187 -684q-18 -63 -18 -104q0 -33 31 -33q43 0 131 125l28 41l45 -29q-81 -131 -143.5 -193t-130.5 -79q-10 -55 -10 -76q0 -127 125 -127q43 0 98 27q24 12 29 14l45 -29q-38 -71 -108.5 -112 t-149.5 -41q-96 0 -153.5 43t-57.5 123q0 42 16.5 80.5t56.5 93.5q-47 8 -73.5 39.5t-26.5 85.5zM262 1268q0 52 40 92.5t93 40.5q58 0 100 -41t42 -98t-40.5 -96.5t-99.5 -39.5q-58 0 -96.5 41t-38.5 101z" />
<glyph unicode="&#x130;" horiz-adv-x="796" d="M-66 0v51q43 5 64 11t43 23.5t35 48t28 85.5l240 879q29 107 29 145q0 59 -86 68l-66 8v51h610v-51q-78 -8 -112.5 -39t-59.5 -125l-229 -844q-35 -126 -35 -178q0 -43 29.5 -60.5t116.5 -21.5v-51h-607zM440 1630q0 56 38.5 95.5t92.5 39.5q56 0 96 -40t40 -95 q0 -54 -40 -92.5t-96 -38.5q-53 0 -92 39.5t-39 91.5z" />
<glyph unicode="&#x131;" horiz-adv-x="569" d="M4 111q0 40 31 155l112 416q17 69 17 92q0 60 -94 60h-29v55q244 18 416 57l-187 -684q-18 -63 -18 -104q0 -33 31 -33q43 0 131 125l28 41l45 -29q-99 -162 -174 -221t-170 -59q-65 0 -102 32.5t-37 96.5z" />
<glyph unicode="&#x134;" d="M-94 4q0 62 38 105t93 43t92 -37t37 -97q0 -35 -23.5 -65t-23.5 -45q0 -37 55 -37q39 0 65 29t50.5 98.5t64.5 220.5l234 885q26 104 26 131q0 60 -84 74l-67 10v51h610v-51q-35 -4 -53.5 -8t-38.5 -14t-32.5 -28.5t-25 -48t-24.5 -75.5l-250 -936q-55 -203 -169 -307.5 t-271 -104.5q-138 0 -220.5 54.5t-82.5 152.5zM465 1481l328 356h165l177 -356h-105l-180 194l-268 -194h-117z" />
<glyph unicode="&#x135;" horiz-adv-x="569" d="M-387 -266q0 44 29.5 76t70.5 32q45 0 73 -27.5t28 -72.5q0 -23 -15.5 -41t-15.5 -31q0 -14 14.5 -22t34.5 -8q44 0 79 63.5t73 214.5l182 717q24 91 24 137q0 32 -20 47t-64 15h-45v55q280 24 428 57l-75 -287l-162 -622q-64 -243 -166 -352t-258 -109q-96 0 -155.5 45 t-59.5 113zM-27 1057l328 356h166l176 -356h-104l-181 194l-268 -194h-117z" />
<glyph unicode="&#x136;" horiz-adv-x="1366" d="M-43 0v51q73 8 107 34.5t55 104.5l252 928q22 78 22 119q0 34 -18.5 51t-65.5 23l-67 8v51h637v-51q-91 -8 -131 -38.5t-62 -109.5l-127 -464l404 358q87 76 122 122t35 77q0 24 -16.5 36t-54.5 15l-43 4v51h432v-51q-68 -9 -98 -24t-95 -74l-442 -408l321 -682 q18 -38 45.5 -56t83.5 -24v-51h-573l2 51l53 8q43 6 60.5 16t17.5 31q0 31 -31 101l-227 483l-137 -510q-4 -20 -4 -35q0 -51 26.5 -69.5t106.5 -24.5v-51h-590zM303 -684q242 128 242 238q0 22 -13 38.5t-49 36.5q-47 26 -64.5 57.5t-17.5 75.5q0 65 43 107.5t107 42.5 q80 0 125 -53.5t45 -139.5q0 -136 -104 -256.5t-287 -197.5z" />
<glyph unicode="&#x137;" d="M-47 0l321 1159q15 53 15 86q0 41 -14.5 55.5t-47.5 14.5h-69v55q192 10 428 62l-254 -945q195 153 266.5 223.5t71.5 110.5q0 25 -21.5 34.5t-81.5 12.5v52h422v-52q-75 -10 -125.5 -37t-150.5 -118l-131 -119q39 -194 68 -297.5t48.5 -135.5t44.5 -32q30 0 60.5 29.5 t70.5 101.5l46 -22q-66 -140 -134 -197t-149 -57q-65 0 -107.5 40t-76 137t-68.5 279l-80 -55l-102 -385h-250zM78 -684q241 128 241 238q0 23 -12.5 39t-48.5 36q-47 26 -64.5 57.5t-17.5 75.5q0 65 43 107.5t107 42.5q80 0 125 -53.5t45 -139.5q0 -136 -104.5 -256.5 t-287.5 -197.5z" />
<glyph unicode="&#x138;" horiz-adv-x="1228" d="M12 0l15 49q59 13 89 38.5t48 88.5l172 625q8 24 8 49q0 33 -21 46.5t-63 16.5l14 50h502l-14 -50q-67 -9 -92 -29t-43 -85l-60 -221q45 0 80 6q159 35 209 65q105 64 184 180q28 40 40 56t32 36t39 26t46.5 11t68.5 5q57 0 101 -34.5t44 -80.5q0 -40 -29 -63t-73 -23 q-30 0 -52 13t-31.5 28t-22 28t-27.5 13q-25 0 -41.5 -13t-36.5 -45q-93 -151 -221 -229q42 -17 67 -70q13 -29 50.5 -141t49.5 -141q29 -75 77.5 -110.5t150.5 -45.5l-15 -49h-344q-39 4 -77 48t-64 108q-14 35 -27.5 96t-35.5 115q-31 80 -115 110q-10 -2 -55 -2l-82 -297 q-15 -58 -15 -76q0 -27 19 -39.5t67 -13.5l-14 -49h-502z" />
<glyph unicode="&#x139;" horiz-adv-x="1251" d="M-45 0v51q82 10 113 41.5t55 118.5l248 907q22 86 22 125q0 31 -18.5 45.5t-65.5 20.5q-42 7 -69 10v51h651v-51q-102 -6 -141.5 -34t-61.5 -109l-264 -969q-12 -49 -12 -80q0 -61 147 -61q213 0 365 92q77 46 125 98t110 154l49 -11l-123 -399h-1130zM537 1481l249 268 q56 59 86 80.5t58 21.5q40 0 69 -28t29 -68q0 -29 -17 -49.5t-63 -46.5l-311 -178h-100z" />
<glyph unicode="&#x13a;" horiz-adv-x="569" d="M4 111q0 69 70 317l151 530q70 244 70 297q0 62 -86 62q-22 0 -45 -2v55q193 18 430 62l-297 -1072q-45 -161 -45 -204q0 -13 8.5 -22t22.5 -9q28 0 63.5 36.5t97.5 127.5l45 -29q-107 -163 -178 -220.5t-168 -57.5q-62 0 -100.5 36.5t-38.5 92.5zM213 1481l250 268 q56 59 86 80.5t57 21.5q40 0 69.5 -28.5t29.5 -67.5q0 -29 -17 -49.5t-63 -46.5l-312 -178h-100z" />
<glyph unicode="&#x13b;" horiz-adv-x="1251" d="M-45 0v51q82 10 113 41.5t55 118.5l248 907q22 86 22 125q0 31 -18.5 45.5t-65.5 20.5q-42 7 -69 10v51h651v-51q-102 -6 -141.5 -34t-61.5 -109l-264 -969q-12 -49 -12 -80q0 -61 147 -61q213 0 365 92q77 46 125 98t110 154l49 -11l-123 -399h-1130zM262 -684 q242 128 242 238q0 22 -13 38.5t-49 36.5q-47 26 -64.5 57.5t-17.5 75.5q0 65 43 107.5t107 42.5q80 0 125 -53.5t45 -139.5q0 -136 -104 -256.5t-287 -197.5z" />
<glyph unicode="&#x13c;" horiz-adv-x="569" d="M-127 -684q242 128 242 238q0 22 -13 38.5t-49 36.5q-47 26 -64.5 57.5t-17.5 75.5q0 65 43 107.5t107 42.5q80 0 125 -53.5t45 -139.5q0 -136 -104 -256.5t-287 -197.5zM4 111q0 69 70 317l151 530q70 244 70 297q0 62 -86 62q-22 0 -45 -2v55q193 18 430 62l-297 -1072 q-45 -161 -45 -204q0 -13 8.5 -22t22.5 -9q28 0 63.5 36.5t97.5 127.5l45 -29q-107 -163 -178 -220.5t-168 -57.5q-62 0 -100.5 36.5t-38.5 92.5z" />
<glyph unicode="&#x13d;" horiz-adv-x="1251" d="M-45 0v51q82 10 113 41.5t55 118.5l248 907q22 86 22 125q0 31 -18.5 45.5t-65.5 20.5q-42 7 -69 10v51h651v-51q-102 -6 -141.5 -34t-61.5 -109l-264 -969q-12 -49 -12 -80q0 -61 147 -61q213 0 365 92q77 46 125 98t110 154l49 -11l-123 -399h-1130zM948 807 q242 128 242 237q0 23 -13 39.5t-49 36.5q-47 26 -64 57t-17 76q0 71 42 110.5t107 39.5q80 0 125 -53.5t45 -139.5q0 -136 -104 -256.5t-287 -197.5z" />
<glyph unicode="&#x13e;" horiz-adv-x="923" d="M4 111q0 69 70 317l151 530q70 244 70 297q0 62 -86 62q-22 0 -45 -2v55q193 18 430 62l-297 -1072q-45 -161 -45 -204q0 -13 8.5 -22t22.5 -9q28 0 63.5 36.5t97.5 127.5l45 -29q-107 -163 -178 -220.5t-168 -57.5q-62 0 -100.5 36.5t-38.5 92.5zM604 858 q242 128 242 238q0 22 -13 38.5t-49 36.5q-47 26 -64.5 57.5t-17.5 76.5q0 71 42 110t108 39q80 0 125 -53.5t45 -138.5q0 -136 -104 -257t-287 -198z" />
<glyph unicode="&#x13f;" horiz-adv-x="1251" d="M-45 0v51q82 10 113 41.5t55 118.5l248 907q22 86 22 125q0 31 -18.5 45.5t-65.5 20.5q-42 7 -69 10v51h651v-51q-102 -6 -141.5 -34t-61.5 -109l-264 -969q-12 -49 -12 -80q0 -61 147 -61q213 0 365 92q77 46 125 98t110 154l49 -11l-123 -399h-1130zM696 686 q0 65 44 108.5t110 43.5q61 0 105 -45t44 -107q0 -64 -44 -107.5t-109 -43.5q-64 0 -107 43t-43 108z" />
<glyph unicode="&#x140;" horiz-adv-x="768" d="M4 111q0 69 70 317l151 530q70 244 70 297q0 62 -86 62q-22 0 -45 -2v55q193 18 430 62l-297 -1072q-45 -161 -45 -204q0 -13 8.5 -22t22.5 -9q28 0 63.5 36.5t97.5 127.5l45 -29q-107 -163 -178 -220.5t-168 -57.5q-62 0 -100.5 36.5t-38.5 92.5zM479 672q0 65 44 108 t110 43q61 0 105 -44.5t44 -106.5q0 -64 -44 -108t-109 -44q-64 0 -107 43.5t-43 108.5z" />
<glyph unicode="&#x141;" horiz-adv-x="1251" d="M-45 0v51q77 11 109 39t55 109l102 372l-213 -114l45 143l205 109l113 409q20 78 20 125q0 30 -18 44t-66 22l-65 10v51h649v-51q-103 -6 -143 -35t-64 -119l-90 -323l307 166l-43 -144l-303 -170l-135 -501q-10 -38 -10 -62q0 -65 141 -65q237 0 371 90q77 51 124.5 102 t112.5 150l49 -11l-123 -397h-1130z" />
<glyph unicode="&#x142;" horiz-adv-x="569" d="M-27 547l39 143l160 88q123 444 123 482q0 57 -86 57q-25 0 -45 -2v55q193 18 430 62l-154 -555l176 96l-38 -139l-177 -97l-104 -377q-45 -164 -45 -204q0 -12 10.5 -21.5t22.5 -9.5q27 0 60.5 35.5t96.5 128.5l45 -29q-101 -160 -172.5 -219t-169.5 -59 q-141 0 -141 127q0 89 127 526z" />
<glyph unicode="&#x143;" horiz-adv-x="1478" d="M-55 0v51q33 7 49 11.5t36 19t29.5 30t26.5 55t29.5 81.5t36.5 121l245 833q-30 69 -57.5 89.5t-110.5 27.5v51h396l442 -956l166 592q39 142 39 192q0 61 -38.5 91t-127.5 30v51h426v-51q-38 -8 -59.5 -17t-41.5 -26t-36 -53.5t-32 -84t-40 -132.5l-293 -1037h-57 l-527 1121l-202 -725q-39 -134 -39 -193q0 -60 35.5 -87t126.5 -34v-51h-422zM717 1481l250 268q56 59 86 80.5t57 21.5q40 0 69 -28t29 -68q0 -29 -17 -49.5t-63 -46.5l-311 -178h-100z" />
<glyph unicode="&#x144;" horiz-adv-x="1138" d="M-12 0l116 418q93 336 93 366q0 29 -23.5 38.5t-89.5 11.5v55q189 7 408 55l-127 -405h2q104 155 148.5 212.5t100.5 110.5q87 84 205 84q150 0 150 -158q0 -68 -58 -237l-71 -213q-49 -144 -49 -182q0 -15 8 -25t20 -10q27 0 56.5 31t89.5 124l45 -26 q-83 -147 -158.5 -207.5t-169.5 -60.5q-139 0 -139 122q0 99 53 256l113 338q14 47 14 58q0 43 -51 43q-26 0 -67.5 -33.5t-74.5 -77.5q-97 -127 -162 -276t-134 -412h-248zM330 1057l250 268q56 59 86 80.5t57 21.5q40 0 69 -28t29 -68q0 -29 -17 -49.5t-63 -46.5 l-311 -178h-100z" />
<glyph unicode="&#x145;" horiz-adv-x="1478" d="M-55 0v51q33 7 49 11.5t36 19t29.5 30t26.5 55t29.5 81.5t36.5 121l245 833q-30 69 -57.5 89.5t-110.5 27.5v51h396l442 -956l166 592q39 142 39 192q0 61 -38.5 91t-127.5 30v51h426v-51q-38 -8 -59.5 -17t-41.5 -26t-36 -53.5t-32 -84t-40 -132.5l-293 -1037h-57 l-527 1121l-202 -725q-39 -134 -39 -193q0 -60 35.5 -87t126.5 -34v-51h-422zM262 -684q242 128 242 238q0 22 -13 38.5t-49 36.5q-47 26 -64.5 57.5t-17.5 75.5q0 65 43 107.5t107 42.5q80 0 125 -53.5t45 -139.5q0 -136 -104 -256.5t-287 -197.5z" />
<glyph unicode="&#x146;" horiz-adv-x="1138" d="M-12 0l116 418q93 336 93 366q0 29 -23.5 38.5t-89.5 11.5v55q189 7 408 55l-127 -405h2q104 155 148.5 212.5t100.5 110.5q87 84 205 84q150 0 150 -158q0 -68 -58 -237l-71 -213q-49 -144 -49 -182q0 -15 8 -25t20 -10q27 0 56.5 31t89.5 124l45 -26 q-83 -147 -158.5 -207.5t-169.5 -60.5q-139 0 -139 122q0 99 53 256l113 338q14 47 14 58q0 43 -51 43q-26 0 -67.5 -33.5t-74.5 -77.5q-97 -127 -162 -276t-134 -412h-248zM139 -684q242 128 242 238q0 22 -13 38.5t-49 36.5q-47 26 -64 57t-17 76q0 65 42.5 107.5 t106.5 42.5q80 0 125 -53.5t45 -139.5q0 -136 -104 -256.5t-287 -197.5z" />
<glyph unicode="&#x147;" horiz-adv-x="1478" d="M-55 0v51q33 7 49 11.5t36 19t29.5 30t26.5 55t29.5 81.5t36.5 121l245 833q-30 69 -57.5 89.5t-110.5 27.5v51h396l442 -956l166 592q39 142 39 192q0 61 -38.5 91t-127.5 30v51h426v-51q-38 -8 -59.5 -17t-41.5 -26t-36 -53.5t-32 -84t-40 -132.5l-293 -1037h-57 l-527 1121l-202 -725q-39 -134 -39 -193q0 -60 35.5 -87t126.5 -34v-51h-422zM623 1837h104l184 -199l275 199h117l-332 -356h-168z" />
<glyph unicode="&#x148;" horiz-adv-x="1138" d="M-12 0l116 418q93 336 93 366q0 29 -23.5 38.5t-89.5 11.5v55q189 7 408 55l-127 -405h2q104 155 148.5 212.5t100.5 110.5q87 84 205 84q150 0 150 -158q0 -68 -58 -237l-71 -213q-49 -144 -49 -182q0 -15 8 -25t20 -10q27 0 56.5 31t89.5 124l45 -26 q-83 -147 -158.5 -207.5t-169.5 -60.5q-139 0 -139 122q0 99 53 256l113 338q14 47 14 58q0 43 -51 43q-26 0 -67.5 -33.5t-74.5 -77.5q-97 -127 -162 -276t-134 -412h-248zM356 1413h105l184 -199l275 199h116l-331 -356h-168z" />
<glyph unicode="&#x149;" horiz-adv-x="1433" d="M86 858q242 128 242 238q0 22 -13 38.5t-49 36.5q-47 26 -64.5 57.5t-17.5 76.5q0 71 42 110t108 39q80 0 125 -53.5t45 -138.5q0 -136 -104 -257t-287 -198zM322 0l116 418q92 333 92 366q0 29 -23 38.5t-89 11.5v55q188 7 407 55l-127 -405h2q103 153 148 211t102 112 q87 84 205 84q150 0 150 -158q0 -68 -58 -237l-71 -213q-50 -147 -50 -182q0 -15 8.5 -25t20.5 -10q27 0 55.5 30.5t89.5 124.5l46 -26q-83 -147 -158.5 -207.5t-169.5 -60.5q-139 0 -139 122q0 99 53 256l112 338q15 50 15 58q0 43 -51 43q-26 0 -67.5 -33.5t-74.5 -77.5 q-97 -127 -162.5 -276.5t-134.5 -411.5h-247z" />
<glyph unicode="&#x14a;" horiz-adv-x="1478" d="M-94 0v51q75 9 109.5 43.5t60.5 128.5l235 864q31 108 31 146q0 37 -17 53.5t-63 22.5l-69 10v51h593q289 0 453 -145t164 -396q0 -93 -20 -205t-59 -231t-92 -235.5t-124.5 -220t-152 -182.5t-177.5 -125t-198 -46q-138 0 -221 54.5t-83 152.5q0 62 38.5 105t93.5 43 t92 -37t37 -97q0 -35 -24 -65t-24 -45q0 -37 56 -37q56 -1 130.5 77.5t148 213.5t136.5 296.5t102.5 346.5t39.5 344q0 187 -84 279t-254 92q-51 0 -76 -17.5t-37 -60.5l-344 -1229h-401z" />
<glyph unicode="&#x14b;" horiz-adv-x="1112" d="M-12 0l116 418q93 336 93 366q0 29 -24 39.5t-89 10.5v55q197 7 408 55l-127 -405h2q104 155 148.5 212.5t100.5 110.5q87 84 205 84q150 0 150 -158q0 -36 -29.5 -156.5t-150.5 -582.5q-64 -244 -169 -358.5t-260 -114.5q-96 0 -155.5 45t-59.5 113q0 44 30 76t71 32 q45 0 72.5 -27.5t27.5 -72.5q0 -23 -15.5 -41t-15.5 -31q0 -14 15 -22t35 -8q41 0 70.5 60.5t72.5 221.5l195 725q20 70 20 109q0 43 -51 43q-26 0 -67.5 -33.5t-74.5 -77.5q-97 -127 -162 -276t-134 -412h-248z" />
<glyph unicode="&#x14c;" horiz-adv-x="1478" d="M55 453q0 206 105 414t276 347q233 189 484 189q214 0 354.5 -136.5t140.5 -357.5q0 -194 -101 -397.5t-267 -351.5q-222 -197 -508 -197q-221 0 -352.5 128.5t-131.5 361.5zM350 293q0 -117 56.5 -188.5t152.5 -71.5q94 0 168 57t154 176q100 148 169.5 392t69.5 423 q0 124 -56 188t-151 64q-97 0 -176 -58.5t-155 -187.5q-95 -160 -163.5 -388t-68.5 -406zM633 1481l35 143h665l-33 -143h-667z" />
<glyph unicode="&#x14d;" d="M-6 276q0 150 55 284.5t150 227.5q161 158 374 158h9q149 0 235 -83.5t86 -225.5q0 -141 -59 -277t-156 -233q-154 -154 -358 -154q-150 0 -243 78.5t-93 224.5zM238 164q0 -66 26.5 -98.5t73.5 -32.5q84 0 145 100q74 121 125 307t51 322q0 58 -26 91.5t-70 33.5 q-65 0 -123 -64q-88 -98 -145 -295t-57 -364zM244 1057l35 143h665l-33 -143h-667z" />
<glyph unicode="&#x14e;" horiz-adv-x="1478" d="M55 453q0 206 105 414t276 347q233 189 484 189q214 0 354.5 -136.5t140.5 -357.5q0 -194 -101 -397.5t-267 -351.5q-222 -197 -508 -197q-221 0 -352.5 128.5t-131.5 361.5zM350 293q0 -117 56.5 -188.5t152.5 -71.5q94 0 168 57t154 176q100 148 169.5 392t69.5 423 q0 124 -56 188t-151 64q-97 0 -176 -58.5t-155 -187.5q-95 -160 -163.5 -388t-68.5 -406zM721 1786v26h88q16 -184 203 -184q102 0 165.5 42t110.5 142h80q-33 -160 -125 -245.5t-239 -85.5q-141 0 -212 78.5t-71 226.5z" />
<glyph unicode="&#x14f;" d="M-6 276q0 150 55 284.5t150 227.5q161 158 374 158h9q149 0 235 -83.5t86 -225.5q0 -141 -59 -277t-156 -233q-154 -154 -358 -154q-150 0 -243 78.5t-93 224.5zM238 164q0 -66 26.5 -98.5t73.5 -32.5q84 0 145 100q74 121 125 307t51 322q0 58 -26 91.5t-70 33.5 q-65 0 -123 -64q-88 -98 -145 -295t-57 -364zM352 1362v27h88q16 -185 203 -185q102 0 166 42.5t111 142.5h79q-33 -160 -125 -246t-239 -86q-141 0 -212 78.5t-71 226.5z" />
<glyph unicode="&#x150;" horiz-adv-x="1478" d="M55 453q0 206 105 414t276 347q233 189 484 189q214 0 354.5 -136.5t140.5 -357.5q0 -194 -101 -397.5t-267 -351.5q-222 -197 -508 -197q-221 0 -352.5 128.5t-131.5 361.5zM350 293q0 -117 56.5 -188.5t152.5 -71.5q94 0 168 57t154 176q100 148 169.5 392t69.5 423 q0 124 -56 188t-151 64q-97 0 -176 -58.5t-155 -187.5q-95 -160 -163.5 -388t-68.5 -406zM555 1481l250 272q52 57 83 77.5t60 20.5q40 0 69.5 -26.5t29.5 -65.5q0 -30 -18 -54.5t-62 -49.5l-305 -174h-107zM942 1481l250 272q52 57 83 77.5t60 20.5q40 0 69.5 -28.5 t29.5 -67.5q0 -30 -17.5 -52t-62.5 -48l-310 -174h-102z" />
<glyph unicode="&#x151;" d="M-6 276q0 150 55 284.5t150 227.5q161 158 374 158h9q149 0 235 -83.5t86 -225.5q0 -141 -59 -277t-156 -233q-154 -154 -358 -154q-150 0 -243 78.5t-93 224.5zM184 1057l250 272q51 57 82.5 77.5t61.5 20.5q40 0 69 -26.5t29 -65.5q0 -30 -18 -54.5t-62 -49.5 l-305 -174h-107zM238 164q0 -66 26.5 -98.5t73.5 -32.5q84 0 145 100q74 121 125 307t51 322q0 58 -26 91.5t-70 33.5q-65 0 -123 -64q-88 -98 -145 -295t-57 -364zM571 1057l250 272q51 57 82.5 77.5t61.5 20.5q40 0 69 -28t29 -68q0 -30 -17.5 -52t-62.5 -48l-309 -174 h-103z" />
<glyph unicode="&#x152;" horiz-adv-x="1933" d="M47 459q0 221 112.5 435t299.5 349q109 78 219.5 110.5t271.5 32.5q54 0 115 -6q143 -10 186 -10h686l-94 -391l-51 12q4 58 4 76q0 120 -82 178q-37 26 -108 43t-148 17q-54 0 -72.5 -17t-35.5 -80l-125 -450h51q137 0 212 46.5t124 164.5l55 -6l-147 -557l-56 10l2 39 q1 17 4 46t3 38q0 64 -43 98q-23 20 -65 29.5t-159 21.5l-131 -502q-8 -36 -8 -51q0 -37 35 -53t115 -16q180 0 300 78t226 264l55 -11l-123 -397h-663q-70 0 -209 -8t-201 -8h-37q-247 0 -377 116q-141 126 -141 359zM336 324q0 -123 68 -198t180 -75q89 0 138.5 46 t80.5 155l221 801q25 98 25 141q0 61 -39 94t-111 33q-185 0 -330 -217q-95 -139 -164 -370.5t-69 -409.5z" />
<glyph unicode="&#x153;" horiz-adv-x="1478" d="M12 295q0 124 60 260t153 229q165 162 389 162q81 0 134.5 -29t103.5 -98q91 72 155.5 99.5t143.5 27.5q106 0 167.5 -49.5t61.5 -134.5q0 -144 -178 -260q-75 -48 -139.5 -72t-214.5 -53q-17 -84 -17 -115q0 -78 35.5 -119t102.5 -41q70 0 121 38.5t120 144.5l58 -31 q-37 -74 -70.5 -118.5t-77.5 -80.5q-108 -82 -237 -82q-70 0 -125 27t-115 90q-129 -117 -303 -117q-146 0 -237 89.5t-91 232.5zM254 199q0 -80 28 -123t80 -43q56 0 104 47.5t95 150.5q45 99 87 263t42 241q0 152 -112 152q-100 0 -177 -152q-54 -105 -100.5 -267 t-46.5 -269zM862 446q121 35 186 79t107 120q45 82 45 158q0 38 -20.5 60t-55.5 22q-43 0 -73 -33q-54 -63 -89.5 -135.5t-99.5 -270.5z" />
<glyph unicode="&#x154;" horiz-adv-x="1366" d="M-57 0v51q74 9 108.5 44.5t59.5 127.5l245 895q21 82 21 125q0 32 -18.5 49t-67.5 21l-66 6v51h586q228 0 346.5 -73.5t118.5 -219.5q0 -101 -50 -175t-147 -134q-65 -41 -196 -66l174 -520q25 -75 58 -99t120 -32v-51h-414l-219 678h-61l-107 -373q-37 -125 -37 -168 q0 -46 29.5 -63t118.5 -23v-51h-602zM559 743q186 3 260 52q67 41 107.5 127t40.5 188q0 94 -43 144.5t-125 50.5q-51 0 -78 -22t-45 -89zM573 1481l250 268q56 59 86 80.5t58 21.5q40 0 69 -28t29 -68q0 -29 -17 -49.5t-63 -46.5l-311 -178h-101z" />
<glyph unicode="&#x155;" horiz-adv-x="796" d="M-43 0q209 709 209 782q0 30 -24 41t-91 11v55q184 15 250.5 24t159.5 33l-133 -428h2q124 249 196 338.5t154 89.5q53 0 85 -37t32 -98q0 -64 -34 -106.5t-85 -42.5q-27 0 -47.5 12t-30 26.5t-22 26.5t-25.5 12q-22 0 -57 -40.5t-76 -114.5q-42 -76 -72.5 -151.5 t-79.5 -229.5l-63 -203h-248zM285 1057l250 268q56 59 86 80.5t57 21.5q40 0 69 -28t29 -68q0 -29 -17 -49.5t-63 -46.5l-311 -178h-100z" />
<glyph unicode="&#x156;" horiz-adv-x="1366" d="M-57 0v51q74 9 108.5 44.5t59.5 127.5l245 895q21 82 21 125q0 32 -18.5 49t-67.5 21l-66 6v51h586q228 0 346.5 -73.5t118.5 -219.5q0 -101 -50 -175t-147 -134q-65 -41 -196 -66l174 -520q25 -75 58 -99t120 -32v-51h-414l-219 678h-61l-107 -373q-37 -125 -37 -168 q0 -46 29.5 -63t118.5 -23v-51h-602zM260 -684q242 128 242 238q0 22 -13 38.5t-49 36.5q-47 26 -64.5 57.5t-17.5 75.5q0 65 43 107.5t107 42.5q80 0 125 -53.5t45 -139.5q0 -136 -104 -256.5t-287 -197.5zM559 743q186 3 260 52q67 41 107.5 127t40.5 188q0 94 -43 144.5 t-125 50.5q-51 0 -78 -22t-45 -89z" />
<glyph unicode="&#x157;" horiz-adv-x="796" d="M-209 -684q242 128 242 238q0 22 -13 38.5t-49 36.5q-47 26 -64.5 57.5t-17.5 75.5q0 65 43 107.5t107 42.5q80 0 125 -53.5t45 -139.5q0 -136 -104 -256.5t-287 -197.5zM-43 0q209 709 209 782q0 30 -24 41t-91 11v55q184 15 250.5 24t159.5 33l-133 -428h2 q124 249 196 338.5t154 89.5q53 0 85 -37t32 -98q0 -64 -34 -106.5t-85 -42.5q-27 0 -47.5 12t-30 26.5t-22 26.5t-25.5 12q-22 0 -57 -40.5t-76 -114.5q-42 -76 -72.5 -151.5t-79.5 -229.5l-63 -203h-248z" />
<glyph unicode="&#x158;" horiz-adv-x="1366" d="M-57 0v51q74 9 108.5 44.5t59.5 127.5l245 895q21 82 21 125q0 32 -18.5 49t-67.5 21l-66 6v51h586q228 0 346.5 -73.5t118.5 -219.5q0 -101 -50 -175t-147 -134q-65 -41 -196 -66l174 -520q25 -75 58 -99t120 -32v-51h-414l-219 678h-61l-107 -373q-37 -125 -37 -168 q0 -46 29.5 -63t118.5 -23v-51h-602zM479 1837h105l184 -199l274 199h117l-332 -356h-168zM559 743q186 3 260 52q67 41 107.5 127t40.5 188q0 94 -43 144.5t-125 50.5q-51 0 -78 -22t-45 -89z" />
<glyph unicode="&#x159;" horiz-adv-x="796" d="M-43 0q209 709 209 782q0 30 -24 41t-91 11v55q184 15 250.5 24t159.5 33l-133 -428h2q124 249 196 338.5t154 89.5q53 0 85 -37t32 -98q0 -64 -34 -106.5t-85 -42.5q-27 0 -47.5 12t-30 26.5t-22 26.5t-25.5 12q-22 0 -57 -40.5t-76 -114.5q-42 -76 -72.5 -151.5 t-79.5 -229.5l-63 -203h-248zM162 1413h104l185 -199l274 199h117l-332 -356h-168z" />
<glyph unicode="&#x15a;" horiz-adv-x="1138" d="M4 -37l74 461l59 -4q13 -110 32.5 -171.5t66.5 -113.5q89 -102 217 -102q116 0 182 69q38 38 57 81t19 108q0 87 -52.5 154t-183.5 161q-134 96 -200 190t-66 216q0 172 120 281.5t298 109.5q78 0 135.5 -15.5t95.5 -31t68 -15.5q64 0 90 54h61l-82 -414l-55 8 q-18 156 -45 207q-67 135 -238 135q-84 0 -142 -59t-58 -156q0 -30 5 -55t20.5 -49.5t28.5 -41.5t44.5 -43t53 -42t67.5 -49q163 -118 222.5 -212.5t59.5 -232.5q0 -128 -59 -226t-166 -151q-105 -51 -246 -51q-109 0 -249 49q-68 23 -95 23q-29 0 -43.5 -13.5t-33.5 -58.5 h-62zM410 1481l249 268q56 59 86 80.5t58 21.5q40 0 69 -28t29 -68q0 -29 -17 -49.5t-63 -46.5l-311 -178h-100z" />
<glyph unicode="&#x15b;" horiz-adv-x="796" d="M-39 -27l45 340l55 -6q35 -272 191 -272q60 0 91.5 29.5t31.5 80.5q0 46 -26.5 95t-88.5 118q-102 116 -133 180t-31 150q0 122 74.5 190t200.5 68q65 0 118 -24q46 -21 76 -21q23 0 33.5 8t24.5 35h59l-47 -315l-55 4q-25 128 -68 187t-113 59q-49 0 -78.5 -29.5 t-29.5 -79.5q0 -68 117 -203q90 -105 126.5 -180.5t36.5 -150.5q0 -114 -87.5 -188.5t-215.5 -74.5q-68 0 -131 25q-43 16 -61 16q-43 0 -60 -41h-55zM285 1057l250 268q56 59 86 80.5t57 21.5q40 0 69 -28t29 -68q0 -29 -17 -49.5t-63 -46.5l-311 -178h-100z" />
<glyph unicode="&#x15c;" horiz-adv-x="1138" d="M4 -37l74 461l59 -4q13 -110 32.5 -171.5t66.5 -113.5q89 -102 217 -102q116 0 182 69q38 38 57 81t19 108q0 87 -52.5 154t-183.5 161q-134 96 -200 190t-66 216q0 172 120 281.5t298 109.5q78 0 135.5 -15.5t95.5 -31t68 -15.5q64 0 90 54h61l-82 -414l-55 8 q-18 156 -45 207q-67 135 -238 135q-84 0 -142 -59t-58 -156q0 -30 5 -55t20.5 -49.5t28.5 -41.5t44.5 -43t53 -42t67.5 -49q163 -118 222.5 -212.5t59.5 -232.5q0 -128 -59 -226t-166 -151q-105 -51 -246 -51q-109 0 -249 49q-68 23 -95 23q-29 0 -43.5 -13.5t-33.5 -58.5 h-62zM322 1481l327 356h166l176 -356h-104l-180 194l-269 -194h-116z" />
<glyph unicode="&#x15d;" horiz-adv-x="796" d="M-39 -27l45 340l55 -6q35 -272 191 -272q60 0 91.5 29.5t31.5 80.5q0 46 -26.5 95t-88.5 118q-102 116 -133 180t-31 150q0 122 74.5 190t200.5 68q65 0 118 -24q46 -21 76 -21q23 0 33.5 8t24.5 35h59l-47 -315l-55 4q-25 128 -68 187t-113 59q-49 0 -78.5 -29.5 t-29.5 -79.5q0 -68 117 -203q90 -105 126.5 -180.5t36.5 -150.5q0 -114 -87.5 -188.5t-215.5 -74.5q-68 0 -131 25q-43 16 -61 16q-43 0 -60 -41h-55zM82 1057l328 356h165l177 -356h-105l-180 194l-268 -194h-117z" />
<glyph unicode="&#x15e;" horiz-adv-x="1138" d="M4 -37l74 461l59 -4q13 -110 32.5 -171.5t66.5 -113.5q89 -102 217 -102q116 0 182 69q38 38 57 81t19 108q0 87 -52.5 154t-183.5 161q-134 96 -200 190t-66 216q0 172 120 281.5t298 109.5q78 0 135.5 -15.5t95.5 -31t68 -15.5q64 0 90 54h61l-82 -414l-55 8 q-18 156 -45 207q-67 135 -238 135q-84 0 -142 -59t-58 -156q0 -30 5 -55t20.5 -49.5t28.5 -41.5t44.5 -43t53 -42t67.5 -49q163 -118 222.5 -212.5t59.5 -232.5q0 -128 -59 -226t-166 -151q-79 -40 -186 -49l-62 -92q30 6 54 6q80 0 132 -41.5t52 -105.5q0 -76 -72.5 -127 t-181.5 -51q-105 0 -229 51l45 67q74 -34 137 -34q53 0 84 22.5t31 60.5q0 35 -25.5 54.5t-71.5 19.5q-28 0 -61 -8l-27 25l105 151q-95 5 -219 49q-68 23 -95 23q-29 0 -43.5 -13.5t-33.5 -58.5h-62z" />
<glyph unicode="&#x15f;" horiz-adv-x="796" d="M-39 -27l45 340l55 -6q35 -272 191 -272q60 0 91.5 29.5t31.5 80.5q0 46 -26.5 95t-88.5 118q-102 116 -133 180t-31 150q0 122 74.5 190t200.5 68q65 0 118 -24q46 -21 76 -21q23 0 33.5 8t24.5 35h59l-47 -315l-55 4q-25 128 -68 187t-113 59q-49 0 -78.5 -29.5 t-29.5 -79.5q0 -68 117 -203q90 -105 126.5 -180.5t36.5 -150.5q0 -96 -65.5 -165.5t-167.5 -90.5l-72 -107q30 6 53 6q80 0 132.5 -41.5t52.5 -105.5q0 -76 -72.5 -127t-181.5 -51q-106 0 -230 51l46 67q74 -34 137 -34q53 0 83.5 22.5t30.5 60.5q0 35 -25 54.5t-71 19.5 q-28 0 -61 -8l-27 25l111 161q-48 3 -107 25q-43 16 -61 16q-43 0 -60 -41h-55z" />
<glyph unicode="&#x160;" horiz-adv-x="1138" d="M4 -37l74 461l59 -4q13 -110 32.5 -171.5t66.5 -113.5q89 -102 217 -102q116 0 182 69q38 38 57 81t19 108q0 87 -52.5 154t-183.5 161q-134 96 -200 190t-66 216q0 172 120 281.5t298 109.5q78 0 135.5 -15.5t95.5 -31t68 -15.5q64 0 90 54h61l-82 -414l-55 8 q-18 156 -45 207q-67 135 -238 135q-84 0 -142 -59t-58 -156q0 -30 5 -55t20.5 -49.5t28.5 -41.5t44.5 -43t53 -42t67.5 -49q163 -118 222.5 -212.5t59.5 -232.5q0 -128 -59 -226t-166 -151q-105 -51 -246 -51q-109 0 -249 49q-68 23 -95 23q-29 0 -43.5 -13.5t-33.5 -58.5 h-62zM377 1837h104l185 -199l274 199h117l-332 -356h-168z" />
<glyph unicode="&#x161;" horiz-adv-x="796" d="M-39 -27l45 340l55 -6q35 -272 191 -272q60 0 91.5 29.5t31.5 80.5q0 46 -26.5 95t-88.5 118q-102 116 -133 180t-31 150q0 122 74.5 190t200.5 68q65 0 118 -24q46 -21 76 -21q23 0 33.5 8t24.5 35h59l-47 -315l-55 4q-25 128 -68 187t-113 59q-49 0 -78.5 -29.5 t-29.5 -79.5q0 -68 117 -203q90 -105 126.5 -180.5t36.5 -150.5q0 -114 -87.5 -188.5t-215.5 -74.5q-68 0 -131 25q-43 16 -61 16q-43 0 -60 -41h-55zM162 1413h104l185 -199l274 199h117l-332 -356h-168z" />
<glyph unicode="&#x162;" horiz-adv-x="1251" d="M100 0v51h31q146 0 186 148l304 1099q-162 -3 -266.5 -68.5t-180.5 -223.5l-51 14l80 350h1128l-74 -393l-55 4q0 174 -64 245.5t-218 71.5l-277 -1001q-2 -6 -11 -36.5t-12.5 -43.5t-7.5 -35t-4 -37q0 -94 170 -94v-51h-299l-86 -127q30 6 53 6q80 0 132.5 -41.5 t52.5 -105.5q0 -76 -72.5 -127t-181.5 -51q-106 0 -230 51l46 67q74 -34 137 -34q53 0 83.5 22.5t30.5 60.5q0 35 -25 54.5t-71 19.5q-28 0 -61 -8l-27 25l129 188h-289z" />
<glyph unicode="&#x163;" horiz-adv-x="569" d="M-154 -395l45 67q74 -34 138 -34q53 0 83.5 22.5t30.5 60.5q0 35 -25 54.5t-71 19.5q-28 0 -61 -8l-27 25l121 176q-86 22 -86 127q0 61 51 235l137 484h-106v71q126 43 210 112.5t167 199.5h71l-80 -297h148v-86h-170l-70 -244q-108 -375 -108 -428q0 -37 32 -37 q51 0 156 164l47 -31q-92 -142 -162.5 -203.5t-150.5 -70.5l-74 -111q30 6 53 6q80 0 132.5 -41.5t52.5 -105.5q0 -76 -72.5 -127t-181.5 -51q-106 0 -230 51z" />
<glyph unicode="&#x164;" horiz-adv-x="1251" d="M100 0v51h31q146 0 186 148l304 1099q-162 -3 -266.5 -68.5t-180.5 -223.5l-51 14l80 350h1128l-74 -393l-55 4q0 174 -64 245.5t-218 71.5l-277 -1001q-2 -6 -11 -36.5t-12.5 -43.5t-7.5 -35t-4 -37q0 -94 170 -94v-51h-678zM541 1837h104l184 -199l275 199h117 l-332 -356h-168z" />
<glyph unicode="&#x165;" horiz-adv-x="841" d="M-23 115q0 56 52 235l137 484h-107v71q131 44 215 115.5t162 196.5h72l-80 -297h117v-86h-139l-70 -244q-2 -6 -15.5 -52.5t-23 -78t-24 -83.5t-23.5 -88.5t-16 -72t-7 -53.5q0 -37 33 -37q22 0 57.5 36t58 67.5t40.5 60.5l47 -31q-30 -47 -51.5 -78.5t-57 -72.5 t-68.5 -65.5t-78 -42t-93 -17.5q-65 0 -101.5 34t-36.5 99zM604 858q242 128 242 238q0 22 -13 38.5t-49 36.5q-47 26 -64.5 57.5t-17.5 76.5q0 71 42 110t108 39q80 0 125 -53.5t45 -138.5q0 -136 -104 -257t-287 -198z" />
<glyph unicode="&#x166;" horiz-adv-x="1251" d="M100 0v51h31q146 0 186 148l127 460h-239l18 70h240l158 569q-162 -3 -266.5 -68.5t-180.5 -223.5l-51 14l80 350h1128l-74 -393l-55 4q0 174 -64 245.5t-218 71.5l-158 -569h233l-18 -70h-234l-100 -362q-2 -6 -11 -36.5t-12.5 -43.5t-7.5 -35t-4 -37q0 -94 170 -94v-51 h-678z" />
<glyph unicode="&#x167;" horiz-adv-x="569" d="M-61 475l32 115h125l70 244h-107v71q126 43 210 112.5t167 199.5h72l-80 -297h147v-86h-169l-70 -244h188l-32 -115h-189q-76 -276 -76 -313q0 -19 9.5 -28t23.5 -9q51 0 156 164l47 -31q-100 -156 -177 -216t-171 -60q-66 0 -102 33.5t-36 99.5q0 57 52 235l34 125h-124 z" />
<glyph unicode="&#x168;" horiz-adv-x="1478" d="M137 297q0 96 76 387l104 395q31 118 31 160q0 35 -18 52.5t-66 21.5l-65 6v51h637v-51q-95 -4 -131.5 -34.5t-61.5 -121.5l-166 -602q-39 -140 -48 -186t-9 -90q0 -207 250 -207q159 0 252 96q61 62 102 159t82 245l117 428q39 140 39 196q0 117 -162 117v51h424v-51 q-27 -5 -39 -8t-30.5 -10.5t-26.5 -14.5t-22 -23t-21.5 -35t-20 -50.5t-23.5 -68.5t-26 -91l-133 -479q-51 -181 -107 -297t-141 -183q-122 -96 -340 -96q-207 0 -332 87t-125 247zM575 1481q20 110 85 175.5t153 65.5q79 0 199 -53q79 -33 110 -33q36 0 59 18.5t46 67.5h84 q-34 -129 -90.5 -186t-149.5 -57q-55 0 -117 26l-120 47q-46 17 -78 17q-34 0 -56.5 -19.5t-42.5 -68.5h-82z" />
<glyph unicode="&#x169;" horiz-adv-x="1138" d="M31 143q0 59 45 217l76 263q34 125 34 153q0 25 -25.5 39.5t-92.5 18.5v55q76 1 204.5 18.5t225.5 38.5l-191 -618q-33 -105 -33 -148q0 -51 50 -51q57 0 143 113q96 126 154 256t137 422h241l-159 -545q-52 -181 -52 -211q0 -43 29 -43q27 0 61 34.5t87 116.5l45 -26 q-80 -138 -157.5 -201t-168.5 -63q-139 0 -139 122q0 42 11.5 87.5t41.5 138.5h-2q-144 -210 -224.5 -279t-181.5 -69q-159 0 -159 161zM268 1100q20 110 85 175.5t153 65.5q79 0 199 -53q79 -33 110 -33q36 0 59 18.5t46 67.5h84q-34 -129 -90.5 -186t-149.5 -57 q-55 0 -117 26l-121 47q-46 17 -77 17q-34 0 -56.5 -19.5t-42.5 -68.5h-82z" />
<glyph unicode="&#x16a;" horiz-adv-x="1478" d="M137 297q0 96 76 387l104 395q31 118 31 160q0 35 -18 52.5t-66 21.5l-65 6v51h637v-51q-95 -4 -131.5 -34.5t-61.5 -121.5l-166 -602q-39 -140 -48 -186t-9 -90q0 -207 250 -207q159 0 252 96q61 62 102 159t82 245l117 428q39 140 39 196q0 117 -162 117v51h424v-51 q-27 -5 -39 -8t-30.5 -10.5t-26.5 -14.5t-22 -23t-21.5 -35t-20 -50.5t-23.5 -68.5t-26 -91l-133 -479q-51 -181 -107 -297t-141 -183q-122 -96 -340 -96q-207 0 -332 87t-125 247zM612 1481l35 143h666l-33 -143h-668z" />
<glyph unicode="&#x16b;" horiz-adv-x="1138" d="M31 143q0 59 45 217l76 263q34 125 34 153q0 25 -25.5 39.5t-92.5 18.5v55q76 1 204.5 18.5t225.5 38.5l-191 -618q-33 -105 -33 -148q0 -51 50 -51q57 0 143 113q96 126 154 256t137 422h241l-159 -545q-52 -181 -52 -211q0 -43 29 -43q27 0 61 34.5t87 116.5l45 -26 q-80 -138 -157.5 -201t-168.5 -63q-139 0 -139 122q0 42 11.5 87.5t41.5 138.5h-2q-144 -210 -224.5 -279t-181.5 -69q-159 0 -159 161zM285 1057l34 143h666l-33 -143h-667z" />
<glyph unicode="&#x16c;" horiz-adv-x="1478" d="M137 297q0 96 76 387l104 395q31 118 31 160q0 35 -18 52.5t-66 21.5l-65 6v51h637v-51q-95 -4 -131.5 -34.5t-61.5 -121.5l-166 -602q-39 -140 -48 -186t-9 -90q0 -207 250 -207q159 0 252 96q61 62 102 159t82 245l117 428q39 140 39 196q0 117 -162 117v51h424v-51 q-27 -5 -39 -8t-30.5 -10.5t-26.5 -14.5t-22 -23t-21.5 -35t-20 -50.5t-23.5 -68.5t-26 -91l-133 -479q-51 -181 -107 -297t-141 -183q-122 -96 -340 -96q-207 0 -332 87t-125 247zM639 1786v26h88q16 -184 203 -184q102 0 165.5 42t110.5 142h80q-33 -160 -125 -245.5 t-239 -85.5q-141 0 -212 78.5t-71 226.5z" />
<glyph unicode="&#x16d;" horiz-adv-x="1138" d="M31 143q0 59 45 217l76 263q34 125 34 153q0 25 -25.5 39.5t-92.5 18.5v55q76 1 204.5 18.5t225.5 38.5l-191 -618q-33 -105 -33 -148q0 -51 50 -51q57 0 143 113q96 126 154 256t137 422h241l-159 -545q-52 -181 -52 -211q0 -43 29 -43q27 0 61 34.5t87 116.5l45 -26 q-80 -138 -157.5 -201t-168.5 -63q-139 0 -139 122q0 42 11.5 87.5t41.5 138.5h-2q-144 -210 -224.5 -279t-181.5 -69q-159 0 -159 161zM332 1362v27h88q16 -185 203 -185q102 0 165.5 42t110.5 143h80q-33 -160 -125.5 -246t-239.5 -86q-141 0 -211.5 78.5t-70.5 226.5z " />
<glyph unicode="&#x16e;" horiz-adv-x="1478" d="M137 297q0 96 76 387l104 395q31 118 31 160q0 35 -18 52.5t-66 21.5l-65 6v51h637v-51q-95 -4 -131.5 -34.5t-61.5 -121.5l-166 -602q-39 -140 -48 -186t-9 -90q0 -207 250 -207q159 0 252 96q61 62 102 159t82 245l117 428q39 140 39 196q0 117 -162 117v51h424v-51 q-27 -5 -39 -8t-30.5 -10.5t-26.5 -14.5t-22 -23t-21.5 -35t-20 -50.5t-23.5 -68.5t-26 -91l-133 -479q-51 -181 -107 -297t-141 -183q-122 -96 -340 -96q-207 0 -332 87t-125 247zM725 1671q0 90 64.5 152.5t154.5 62.5q95 0 156 -62.5t61 -154.5q0 -91 -64 -155t-155 -64 q-97 0 -157 61.5t-60 159.5zM823 1667q0 -49 34.5 -84t82.5 -35q51 0 87 34.5t36 82.5q0 51 -36 87t-87 36q-47 0 -82 -36t-35 -85z" />
<glyph unicode="&#x16f;" horiz-adv-x="1138" d="M31 143q0 59 45 217l76 263q34 125 34 153q0 25 -25.5 39.5t-92.5 18.5v55q76 1 204.5 18.5t225.5 38.5l-191 -618q-33 -105 -33 -148q0 -51 50 -51q57 0 143 113q96 126 154 256t137 422h241l-159 -545q-52 -181 -52 -211q0 -43 29 -43q27 0 61 34.5t87 116.5l45 -26 q-80 -138 -157.5 -201t-168.5 -63q-139 0 -139 122q0 42 11.5 87.5t41.5 138.5h-2q-144 -210 -224.5 -279t-181.5 -69q-159 0 -159 161zM418 1278q0 90 64.5 152.5t154.5 62.5q95 0 156 -62.5t61 -154.5q0 -91 -64 -155t-155 -64q-97 0 -157 61.5t-60 159.5zM516 1274 q0 -49 34.5 -84t82.5 -35q51 0 87 34.5t36 82.5q0 51 -36 87t-87 36q-47 0 -82 -36t-35 -85z" />
<glyph unicode="&#x170;" horiz-adv-x="1478" d="M137 297q0 96 76 387l104 395q31 118 31 160q0 35 -18 52.5t-66 21.5l-65 6v51h637v-51q-95 -4 -131.5 -34.5t-61.5 -121.5l-166 -602q-39 -140 -48 -186t-9 -90q0 -207 250 -207q159 0 252 96q61 62 102 159t82 245l117 428q39 140 39 196q0 117 -162 117v51h424v-51 q-27 -5 -39 -8t-30.5 -10.5t-26.5 -14.5t-22 -23t-21.5 -35t-20 -50.5t-23.5 -68.5t-26 -91l-133 -479q-51 -181 -107 -297t-141 -183q-122 -96 -340 -96q-207 0 -332 87t-125 247zM510 1450l250 272q52 58 83 78.5t60 20.5q40 0 69 -26.5t29 -65.5q0 -60 -79 -105 l-306 -174h-106zM897 1450l250 272q52 58 83 78.5t60 20.5q40 0 69.5 -28.5t29.5 -68.5q0 -30 -17.5 -52t-62.5 -48l-310 -174h-102z" />
<glyph unicode="&#x171;" horiz-adv-x="1138" d="M31 143q0 59 45 217l76 263q34 125 34 153q0 25 -25.5 39.5t-92.5 18.5v55q76 1 204.5 18.5t225.5 38.5l-191 -618q-33 -105 -33 -148q0 -51 50 -51q57 0 143 113q96 126 154 256t137 422h241l-159 -545q-52 -181 -52 -211q0 -43 29 -43q27 0 61 34.5t87 116.5l45 -26 q-80 -138 -157.5 -201t-168.5 -63q-139 0 -139 122q0 42 11.5 87.5t41.5 138.5h-2q-144 -210 -224.5 -279t-181.5 -69q-159 0 -159 161zM201 1057l250 272q52 57 83 77.5t60 20.5q40 0 69 -26.5t29 -65.5q0 -30 -18 -54.5t-62 -49.5l-305 -174h-106zM588 1057l250 272 q52 57 83 77.5t60 20.5q40 0 69 -28t29 -68q0 -30 -17.5 -52t-62.5 -48l-309 -174h-102z" />
<glyph unicode="&#x172;" horiz-adv-x="1478" d="M137 297q0 96 76 387l104 395q31 118 31 160q0 35 -18 52.5t-66 21.5l-65 6v51h637v-51q-95 -4 -131.5 -34.5t-61.5 -121.5l-166 -602q-39 -140 -48 -186t-9 -90q0 -207 250 -207q159 0 252 96q61 62 102 159t82 245l117 428q39 140 39 196q0 117 -162 117v51h424v-51 q-27 -5 -39 -8t-30.5 -10.5t-26.5 -14.5t-22 -23t-21.5 -35t-20 -50.5t-23.5 -68.5t-26 -91l-133 -479q-51 -181 -107 -297t-141 -183q-72 -56 -162 -75q-8 -41 -8 -70q0 -127 125 -127q43 0 98 27q24 12 29 14l45 -29q-38 -71 -108.5 -112t-149.5 -41q-96 0 -153.5 43 t-57.5 123q0 72 59 153q-18 -2 -57 -2q-207 0 -332 87t-125 247z" />
<glyph unicode="&#x173;" horiz-adv-x="1138" d="M31 143q0 59 45 217l76 263q34 125 34 153q0 25 -25.5 39.5t-92.5 18.5v55q76 1 204.5 18.5t225.5 38.5l-191 -618q-33 -105 -33 -148q0 -51 50 -51q57 0 143 113q96 126 154 256t137 422h241l-159 -545q-52 -181 -52 -211q0 -43 29 -43q27 0 61 34.5t87 116.5l45 -26 q-107 -178 -203 -232q-16 -75 -16 -100q0 -127 124 -127q44 0 99 27q6 3 11.5 6t9 4.5t7.5 3.5l45 -29q-38 -71 -108.5 -112t-149.5 -41q-96 0 -153.5 43t-57.5 123q0 42 16 79.5t56 90.5h-6q-139 0 -139 122q0 42 11.5 87.5t41.5 138.5h-2q-144 -210 -224.5 -279 t-181.5 -69q-159 0 -159 161z" />
<glyph unicode="&#x174;" horiz-adv-x="1820" d="M131 1321v49h569v-51q-71 -9 -98 -31.5t-27 -70.5q0 -24 3 -39l81 -715l306 643q0 123 -26.5 163t-117.5 52v49h547v-51q-80 -7 -103.5 -29t-23.5 -82q0 -9 14 -149l68 -596l317 670q31 66 31 94q0 56 -21.5 71t-107.5 21v51h383v-49q-66 -9 -98 -38t-82 -130l-578 -1190 h-59l-121 1002l-477 -1002h-59l-160 1172q-15 111 -39 140t-121 46zM772 1481l328 356h166l176 -356h-105l-180 194l-268 -194h-117z" />
<glyph unicode="&#x175;" horiz-adv-x="1366" d="M31 834v55q229 38 319 57q37 -138 52.5 -260.5t15.5 -300.5l319 561h56l63 -682q246 288 246 383q0 31 -41 78q-45 50 -45 98q0 58 34 90.5t83 32.5q51 0 87.5 -38t36.5 -89q0 -268 -557 -846h-55l-47 584q-16 -29 -52 -97t-58.5 -109.5t-56.5 -100t-66 -105.5l-115 -172 h-55v95q0 9 1 50.5t1 76.5q0 193 -24 392t-54 226q-24 21 -88 21zM424 1057l328 356h166l176 -356h-105l-180 194l-268 -194h-117z" />
<glyph unicode="&#x176;" horiz-adv-x="1251" d="M145 1319v51h584v-51q-85 -3 -113 -18.5t-28 -61.5q0 -40 59 -225l94 -293l263 375q57 81 57 137q0 48 -27 65.5t-108 20.5v51h424v-51q-55 -7 -95.5 -40.5t-93.5 -107.5l-387 -540l-106 -391q-21 -86 -21 -105q0 -45 35 -64.5t127 -19.5v-51h-662v51q106 9 147 38 t66 122l117 426l-178 553q-24 72 -48.5 91.5t-105.5 37.5zM485 1481l328 356h166l176 -356h-104l-181 194l-268 -194h-117z" />
<glyph unicode="&#x177;" horiz-adv-x="909" d="M-193 -297q0 44 31.5 79.5t71.5 35.5q41 0 73 -18.5t60.5 -37t58.5 -18.5q26 0 66 30.5t72 75.5q51 71 51 146q0 101 -103 590q-43 192 -82 231q-17 17 -30 21t-51 4v55q178 16 307 49q86 -224 135 -561l22 -160h5q106 202 142 289t36 135q0 19 -10 31.5t-41 38.5 q-36 30 -50 52t-14 58q0 43 33 80t86 37q51 0 89 -39t38 -92q0 -155 -155 -464t-355 -554q-85 -103 -179.5 -160t-179.5 -57q-54 0 -90.5 35.5t-36.5 87.5zM135 1057l328 356h166l176 -356h-105l-180 194l-268 -194h-117z" />
<glyph unicode="&#x178;" horiz-adv-x="1251" d="M145 1319v51h584v-51q-85 -3 -113 -18.5t-28 -61.5q0 -40 59 -225l94 -293l263 375q57 81 57 137q0 48 -27 65.5t-108 20.5v51h424v-51q-55 -7 -95.5 -40.5t-93.5 -107.5l-387 -540l-106 -391q-21 -86 -21 -105q0 -45 35 -64.5t127 -19.5v-51h-662v51q106 9 147 38 t66 122l117 426l-178 553q-24 72 -48.5 91.5t-105.5 37.5zM469 1630q0 56 38.5 95.5t92.5 39.5q56 0 95.5 -39.5t39.5 -95.5q0 -54 -39.5 -92.5t-95.5 -38.5q-52 0 -91.5 39.5t-39.5 91.5zM903 1630q0 56 38.5 95.5t92.5 39.5q56 0 95.5 -39.5t39.5 -95.5q0 -54 -39.5 -92.5 t-95.5 -38.5q-52 0 -91.5 39.5t-39.5 91.5z" />
<glyph unicode="&#x179;" horiz-adv-x="1251" d="M-25 0v59l889 1239h-170q-162 0 -273.5 -66t-232.5 -235l-57 9l119 364h956v-59l-889 -1239h154q145 0 237.5 22.5t170.5 79.5q98 73 198 234l56 -11l-123 -397h-1035zM553 1481l250 268q56 59 86 80.5t57 21.5q40 0 69 -28t29 -68q0 -29 -16.5 -49.5t-62.5 -46.5 l-312 -178h-100z" />
<glyph unicode="&#x17a;" horiz-adv-x="796" d="M-88 -2l598 725h-279q-59 0 -92.5 -27.5t-56.5 -97.5l-55 6l90 316h637v-21l-576 -686q60 -26 99 -57.5t77 -83.5q12 -17 39 -67t51 -77.5t50 -27.5q20 0 32.5 10t12.5 24t-20.5 38t-20.5 55q0 43 30.5 75.5t71.5 32.5q43 0 76 -32.5t33 -75.5q0 -91 -63.5 -139 t-162.5 -48q-121 0 -264 103q-53 38 -86.5 52.5t-64.5 14.5q-28 0 -66 -28q-26 -21 -39 -29zM285 1057l250 268q56 59 86 80.5t57 21.5q40 0 69 -28t29 -68q0 -29 -17 -49.5t-63 -46.5l-311 -178h-100z" />
<glyph unicode="&#x17b;" horiz-adv-x="1251" d="M-25 0v59l889 1239h-170q-162 0 -273.5 -66t-232.5 -235l-57 9l119 364h956v-59l-889 -1239h154q145 0 237.5 22.5t170.5 79.5q98 73 198 234l56 -11l-123 -397h-1035zM625 1630q0 56 38.5 95.5t92.5 39.5q56 0 95.5 -39.5t39.5 -95.5q0 -54 -39.5 -92.5t-95.5 -38.5 q-52 0 -91.5 39.5t-39.5 91.5z" />
<glyph unicode="&#x17c;" horiz-adv-x="796" d="M-88 -2l598 725h-279q-59 0 -92.5 -27.5t-56.5 -97.5l-55 6l90 316h637v-21l-576 -686q60 -26 99 -57.5t77 -83.5q12 -17 39 -67t51 -77.5t50 -27.5q20 0 32.5 10t12.5 24t-20.5 38t-20.5 55q0 43 30.5 75.5t71.5 32.5q43 0 76 -32.5t33 -75.5q0 -91 -63.5 -139 t-162.5 -48q-121 0 -264 103q-53 38 -86.5 52.5t-64.5 14.5q-28 0 -66 -28q-26 -21 -39 -29zM334 1206q0 56 38.5 95.5t92.5 39.5q55 0 95 -39.5t40 -95.5q0 -54 -39.5 -92.5t-95.5 -38.5q-53 0 -92 39.5t-39 91.5z" />
<glyph unicode="&#x17d;" horiz-adv-x="1251" d="M-25 0v59l889 1239h-170q-162 0 -273.5 -66t-232.5 -235l-57 9l119 364h956v-59l-889 -1239h154q145 0 237.5 22.5t170.5 79.5q98 73 198 234l56 -11l-123 -397h-1035zM459 1837h104l185 -199l274 199h117l-332 -356h-168z" />
<glyph unicode="&#x17e;" horiz-adv-x="796" d="M-88 -2l598 725h-279q-59 0 -92.5 -27.5t-56.5 -97.5l-55 6l90 316h637v-21l-576 -686q60 -26 99 -57.5t77 -83.5q12 -17 39 -67t51 -77.5t50 -27.5q20 0 32.5 10t12.5 24t-20.5 38t-20.5 55q0 43 30.5 75.5t71.5 32.5q43 0 76 -32.5t33 -75.5q0 -91 -63.5 -139 t-162.5 -48q-121 0 -264 103q-53 38 -86.5 52.5t-64.5 14.5q-28 0 -66 -28q-26 -21 -39 -29zM162 1413h104l185 -199l274 199h117l-332 -356h-168z" />
<glyph unicode="&#x17f;" horiz-adv-x="681" d="M29 0l12 49q72 7 101 33.5t44 95.5l152 678h-84l20 90h84q31 134 67.5 221t96.5 144q58 55 121.5 79.5t171.5 24.5q124 0 203.5 -58t79.5 -145q0 -58 -36 -94.5t-93 -36.5q-51 0 -86 35t-35 78q0 33 11 56t22.5 37.5t11.5 27.5q0 17 -15 27t-40 10q-56 0 -88 -36 t-52 -126l-219 -971q-12 -52 -12 -84q0 -47 31.5 -65.5t111.5 -20.5l-12 -49h-569z" />
<glyph unicode="&#x180;" d="M-29 98q0 14 41 166l226 791h-236l29 94h233q21 83 21 104q0 62 -95 62h-38v55q243 27 430 62l-80 -283h241l-26 -94h-242l-80 -291q71 98 142.5 140t152.5 42q97 0 158 -77t61 -191q0 -135 -54.5 -264.5t-143.5 -226t-210 -155.5t-247 -59q-108 0 -195.5 35.5 t-87.5 89.5zM223 96q0 -25 18 -40t46 -15q111 0 221 160q60 88 102.5 229.5t42.5 235.5q0 141 -84 141q-107 0 -188 -172q-48 -105 -127 -373q-13 -47 -22 -98.5t-9 -67.5z" />
<glyph unicode="&#x188;" horiz-adv-x="1146" d="M-10 283q0 136 58 263t157 226q171 174 368 174q98 0 166 -55l35 129q20 72 81 116t159 44q111 0 190.5 -55.5t79.5 -151.5q0 -56 -34.5 -92.5t-90.5 -36.5q-52 0 -87.5 34.5t-35.5 82.5q0 31 11 54t22.5 37t11.5 25q0 39 -51 39q-132 0 -162 -117l-69 -278 q-11 -47 -43 -76t-80 -29q-52 0 -85.5 31.5t-33.5 77.5q0 33 21.5 66t21.5 53q0 15 -15 25t-34 10q-54 0 -98 -46t-93 -135q-108 -199 -108 -411q0 -88 40 -135.5t109 -47.5q65 0 120.5 41.5t129.5 145.5l58 -37q-52 -71 -78 -104t-70.5 -75.5t-87.5 -64.5q-70 -37 -170 -37 q-143 0 -228 81t-85 229z" />
<glyph unicode="&#x190;" horiz-adv-x="1048" d="M111 272q0 151 110 280t264 173q-74 24 -125 90t-51 143q0 91 41.5 167.5t108 127t151.5 86t169.5 51t164.5 15.5q65 0 134.5 -10t109.5 -27q80 -33 138 -88.5t58 -120.5q0 -59 -28 -99t-88 -40q-62 0 -96.5 39t-49.5 123q-10 50 -54.5 82t-119.5 32q-123 0 -222 -110.5 t-99 -280.5q0 -17 4.5 -35t15 -39t33.5 -34t55 -13q36 0 104 11.5t97 11.5q45 0 79 -17t34 -51q0 -41 -54 -68.5t-104 -27.5q-13 0 -89 5t-93 5q-105 0 -193 -110t-88 -250q0 -160 231 -160q50 0 81 1t76.5 5.5t77 13t71.5 24.5t70.5 39.5t63 59t60.5 80.5l80 -24 q-60 -102 -135.5 -171.5t-162.5 -105t-171.5 -49.5t-187.5 -14q-68 0 -131.5 8t-126 28.5t-109 51.5t-75.5 80.5t-29 111.5z" />
<glyph unicode="&#x192;" d="M-178 -141q0 54 33 88.5t84 34.5q46 0 77 -30t31 -73q0 -35 -37 -78q-20 -20 -20 -34q0 -27 51 -27t78 31q31 31 62 113.5t50 181.5l144 745h-215l16 90h219q57 258 183.5 402.5t295.5 144.5q97 0 161.5 -51t64.5 -127q0 -57 -33.5 -91t-89.5 -34q-49 0 -79 28t-30 74 q0 44 41 82q19 19 19 27q0 14 -14 22t-37 8q-67 0 -111 -75q-27 -49 -46.5 -128.5t-53.5 -281.5h241l-18 -90h-238l-55 -315q-72 -413 -207.5 -614t-341.5 -201q-101 0 -163 49t-62 129z" />
<glyph unicode="&#x195;" horiz-adv-x="1505" d="M-27 0l312 1151q20 75 20 96q0 68 -86 68h-45v55q196 17 428 62l-221 -852q152 216 241.5 291t194.5 75q75 0 115.5 -40.5t40.5 -112.5q0 -44 -17 -101l-163 -514q-15 -40 -15 -57q0 -39 70 -39q114 0 218 86t162 204t58 222q0 41 -11.5 63.5t-38 44.5t-36.5 35 q-39 47 -39 99q0 41 33.5 75.5t83.5 34.5q52 0 84 -34.5t43.5 -83t11.5 -111.5q0 -102 -29 -207t-86.5 -199.5t-134.5 -168.5t-180.5 -118t-216.5 -44t-171 27.5t-58 105.5q0 47 18 106l156 475q12 37 12 62q0 43 -41 43q-89 0 -221 -193q-75 -110 -120.5 -223t-123.5 -383 h-248z" />
<glyph unicode="&#x199;" d="M-47 0l276 995q24 84 58.5 155.5t83.5 133t117.5 96.5t148.5 35q130 0 210.5 -57t80.5 -148q0 -58 -34.5 -94.5t-90.5 -36.5q-52 0 -87.5 34.5t-35.5 82.5q0 31 11 54t22.5 37.5t11.5 25.5q0 39 -59 39q-103 0 -138 -133l-196 -732q195 153 266.5 223.5t71.5 110.5 q0 25 -21.5 34.5t-81.5 12.5v52h422v-52q-75 -10 -125.5 -37t-150.5 -118l-131 -119q39 -194 68 -297.5t48.5 -135.5t44.5 -32q30 0 60.5 29.5t70.5 101.5l46 -22q-66 -140 -134 -197t-149 -57q-65 0 -107.5 40t-76 137t-68.5 279l-80 -55l-102 -385h-250z" />
<glyph unicode="&#x19a;" horiz-adv-x="569" d="M4 111q0 69 70 317l76 268h-113l24 95h115l49 167q70 244 70 297q0 62 -86 62q-22 0 -45 -2v55q193 18 430 62l-178 -641h104l-26 -95h-105l-92 -336q-45 -161 -45 -204q0 -13 8.5 -22t22.5 -9q28 0 63.5 36.5t97.5 127.5l45 -29q-107 -163 -178 -220.5t-168 -57.5 q-62 0 -100.5 36.5t-38.5 92.5z" />
<glyph unicode="&#x19b;" horiz-adv-x="983" d="M33 0l659 971l-2 30l-377 -274v137l361 254q-6 52 -29.5 90.5t-48.5 38.5q-18 0 -27.5 -11.5t-9.5 -25.5q0 -3 3 -15.5t3 -20.5q0 -46 -35.5 -77.5t-87.5 -31.5q-58 0 -92.5 38.5t-34.5 98.5q0 72 55.5 117t143.5 45q174 0 225 -199l187 138v-140l-162 -114l108 -1049 h-81l-56 602l-395 -602h-307z" />
<glyph unicode="&#x19e;" horiz-adv-x="1097" d="M-12 0l116 418q93 336 93 366q0 29 -23.5 38.5t-89.5 11.5v55q189 7 408 55l-127 -405h2q104 155 148.5 212.5t100.5 110.5q87 84 205 84q150 0 150 -158q0 -68 -58 -237l-329 -971h-242l367 1118q14 47 14 58q0 43 -49 43q-26 0 -67.5 -33.5t-74.5 -77.5 q-97 -127 -162 -276t-134 -412h-248z" />
<glyph unicode="&#x1a0;" horiz-adv-x="1478" d="M55 453q0 206 105 414t276 347q233 189 484 189q116 0 215.5 -44t167.5 -124q1 -1 12.5 -8t18 -10.5t19 -8.5t26.5 -7.5t30 -2.5q87 0 90 53q-84 53 -84 115q0 36 30.5 68t78.5 32q53 0 90 -36.5t37 -100.5q0 -66 -41.5 -109.5t-104.5 -56.5q-33 -8 -149 -8 q59 -112 59 -246q0 -194 -101 -397.5t-267 -351.5q-222 -197 -508 -197q-221 0 -352.5 128.5t-131.5 361.5zM350 293q0 -117 56.5 -188.5t152.5 -71.5q94 0 168 57t154 176q100 148 169.5 392t69.5 423q0 124 -56 188t-151 64q-97 0 -176 -58.5t-155 -187.5 q-95 -160 -163.5 -388t-68.5 -406z" />
<glyph unicode="&#x1a1;" horiz-adv-x="1099" d="M49 276q0 150 55 284.5t150 227.5q161 158 375 158h8q178 0 266 -121q2 -2 20.5 -19.5t33.5 -26.5t32 -9q44 0 60 13t18 42q-86 54 -86 117q0 35 32.5 65.5t80.5 30.5q52 0 88.5 -36t36.5 -95q0 -67 -41.5 -113t-104.5 -59q-27 -8 -127 -8q12 -43 12 -90q0 -141 -59 -277 t-156 -233q-154 -154 -358 -154q-150 0 -243 78.5t-93 224.5zM293 164q0 -66 26.5 -98.5t73.5 -32.5q85 0 146 100q74 121 125 307t51 322q0 58 -26 91.5t-71 33.5q-64 0 -122 -64q-88 -98 -145.5 -295.5t-57.5 -363.5z" />
<glyph unicode="&#x1a5;" horiz-adv-x="1064" d="M-205 -365q74 0 102.5 30.5t57.5 146.5l283 1116q17 66 38 124.5t56 120t76.5 105.5t100.5 72t128 28q130 0 210.5 -56.5t80.5 -147.5q0 -58 -34.5 -95t-90.5 -37q-52 0 -87.5 34.5t-35.5 82.5q0 31 11 54t22.5 37.5t11.5 25.5q0 18 -15 28.5t-42 10.5q-55 0 -88.5 -36 t-55.5 -116l-121 -452h3q84 130 158.5 182.5t164.5 52.5q109 0 167 -66t58 -182q0 -139 -48 -272.5t-126 -232.5t-182 -159.5t-211 -60.5q-78 0 -139 45l-25 -84q-49 -170 -49 -233q0 -37 28 -50.5t105 -15.5v-55h-512v55zM272 119q0 -31 23 -52.5t57 -21.5q63 0 127 61 q93 92 156 280.5t63 301.5t-80 113q-81 0 -178 -146q-27 -40 -40.5 -76.5t-49.5 -154.5q-78 -264 -78 -305z" />
<glyph unicode="&#x1aa;" horiz-adv-x="819" d="M94 -221q0 99 56 254l327 899h-37q-45 0 -92.5 25t-84 80.5t-36.5 127.5q0 95 75.5 165.5t178.5 70.5q82 0 152 -43t107.5 -105t37.5 -123q0 -116 -55 -272l-317 -878q-21 -60 -50.5 -169t-29.5 -147q0 -20 1 -30.5t4.5 -24t13.5 -19.5t26 -6q18 0 32.5 9t14.5 20 q0 5 -18.5 36.5t-18.5 61.5q0 39 31 67.5t77 28.5q49 0 80 -35.5t31 -88.5q0 -72 -59 -116t-164 -44q-139 0 -211 67.5t-72 188.5zM326 1163q0 -48 36.5 -82t79.5 -34q52 0 87.5 33.5t35.5 84.5q0 49 -36.5 85t-84.5 36q-53 0 -85.5 -37t-32.5 -86z" />
<glyph unicode="&#x1ab;" horiz-adv-x="585" d="M-100 -242q0 57 35 94t92 37q51 0 85.5 -34t34.5 -82q0 -31 -11 -54t-22.5 -37.5t-11.5 -25.5q0 -14 13.5 -26.5t38.5 -12.5q36 0 62 41t58 152l78 278q-54 -57 -106.5 -81.5t-114.5 -24.5q-66 0 -101.5 33.5t-35.5 99.5q0 61 51 235l137 484h-106v71q126 43 210 112.5 t167 199.5h71l-80 -297h148v-86h-170l-70 -244q-108 -375 -108 -428q0 -37 32 -37q51 0 156 164l47 -31l-110 -403q-12 -42 -17.5 -62t-18.5 -58.5t-23.5 -58t-28 -47t-35.5 -41.5t-42.5 -24t-53.5 -10q-124 0 -187 55t-63 149z" />
<glyph unicode="&#x1ad;" horiz-adv-x="737" d="M-6 115q0 61 51 235l137 484h-106v71q84 29 143 66q36 128 75 206.5t97 133.5q52 48 120 76t118 28q131 0 212 -57t81 -148q0 -58 -34.5 -94.5t-90.5 -36.5q-52 0 -87.5 34.5t-35.5 82.5q0 31 11 54t22.5 37.5t11.5 25.5q0 18 -15 28.5t-42 10.5q-53 0 -85.5 -30.5 t-52.5 -104.5l-80 -297h148v-86h-170l-70 -244q-108 -375 -108 -428q0 -37 32 -37q51 0 156 164l47 -31q-100 -156 -177 -216t-171 -60q-66 0 -101.5 33.5t-35.5 99.5z" />
<glyph unicode="&#x1af;" horiz-adv-x="1587" d="M137 297q0 96 76 387l104 395q31 118 31 160q0 35 -18 52.5t-66 21.5l-65 6v51h637v-51q-95 -4 -131.5 -34.5t-61.5 -121.5l-166 -602q-39 -140 -48 -186t-9 -90q0 -207 250 -207q159 0 252 96q61 62 102 159t82 245l117 428q39 140 39 196q0 117 -162 117v51h465 q48 0 80 14.5t32 45.5q-1 0 -12.5 7.5t-13 8.5t-11.5 8t-12 9.5t-10 10t-9.5 12t-6.5 13t-6.5 16t-3 18t-1.5 21.5q0 29 32 60t79 31q53 0 90 -34t37 -98q0 -69 -45 -113t-111 -57q-10 -2 -84.5 -13.5t-103.5 -18.5q-43 -11 -66 -34t-46 -79t-58 -180l-133 -479 q-51 -181 -107 -297t-141 -183q-122 -96 -340 -96q-207 0 -332 87t-125 247z" />
<glyph unicode="&#x1b0;" horiz-adv-x="1138" d="M31 143q0 59 45 217l76 263q34 125 34 153q0 25 -25.5 39.5t-92.5 18.5v55q76 1 204.5 18.5t225.5 38.5l-191 -618q-33 -105 -33 -148q0 -51 50 -51q57 0 143 113q96 126 154 256t137 422h241q57 0 115 6q39 5 58 17t20 38q-42 12 -64 42t-22 71q0 36 31.5 68t81.5 32 q52 0 88 -34.5t36 -96.5q0 -67 -43.5 -119.5t-105.5 -64.5q-66 -15 -209 -15l-145 -489q-52 -169 -52 -211q0 -43 29 -43q27 0 61 34.5t87 116.5l45 -26q-80 -138 -157.5 -201t-168.5 -63q-139 0 -139 122q0 42 11.5 87.5t41.5 138.5h-2q-144 -210 -224.5 -279t-181.5 -69 q-159 0 -159 161z" />
<glyph unicode="&#x1ba;" horiz-adv-x="1015" d="M-106 -285q0 187 233 312q62 33 297 143q102 50 102 141q0 43 -40.5 66.5t-104.5 23.5q-128 0 -250 -96l-43 49l584 418h-387q-25 0 -61.5 -19t-75 -59.5t-58.5 -91.5h-53l156 320h745v-56l-483 -342q31 8 92 8q115 0 179.5 -51t64.5 -137t-63.5 -168t-154.5 -127 l-370 -184q-59 -29 -101.5 -76.5t-42.5 -99.5q0 -44 28.5 -71.5t72.5 -27.5q49 0 91 28t52 81q23 131 135 131q61 0 91 -30t30 -72q0 -104 -133 -164q-53 -24 -125.5 -36.5t-122.5 -12.5q-141 0 -219 59q-65 52 -65 141z" />
<glyph unicode="&#x1bb;" d="M-55 0v49l182 189q11 11 60.5 62t67 69.5t59.5 63t65 72t54 66t56 72.5h-477l31 127h537q59 106 59 205q0 107 -43.5 173t-144.5 66q-88 0 -153 -46t-122 -130l-45 25q62 153 176.5 244.5t270.5 91.5q152 0 243.5 -95t91.5 -249q0 -146 -102 -285h150l-33 -127h-228 l-82 -74l-401 -342h283q66 0 105.5 5t78.5 22t68 49.5t57 87.5h49l-164 -391h-749z" />
<glyph unicode="&#x1be;" d="M76 197q0 35 28 66.5t80 31.5q62 0 95.5 -32.5t50.5 -92.5q9 -33 15 -50.5t18.5 -39.5t31 -31.5t45.5 -9.5q59 0 118 74t92.5 162.5t33.5 146.5q0 85 -56 133.5t-134 48.5h-66l78 293h-131l26 94h131l31 117h107l-25 -117h227l-26 -94h-223l-21 -96q29 4 64 4 q97 0 162.5 -44t92.5 -111t27 -152q0 -149 -75.5 -268.5t-201 -184.5t-274.5 -65q-101 0 -204 53q-51 27 -84 69.5t-33 94.5z" />
<glyph unicode="&#x1c0;" horiz-adv-x="425" d="M29 0l405 1516h135l-405 -1516h-135z" />
<glyph unicode="&#x1c1;" horiz-adv-x="706" d="M29 0l405 1516h135l-405 -1516h-135zM309 0l406 1516h135l-406 -1516h-135z" />
<glyph unicode="&#x1c2;" horiz-adv-x="753" d="M29 532l34 136h312l47 172h-311l36 135h312l143 541h135l-143 -541h303l-37 -135h-303l-47 -172h303l-35 -136h-303l-143 -532h-135l143 532h-311z" />
<glyph unicode="&#x1c3;" horiz-adv-x="614" d="M92 145q0 75 48.5 124.5t123.5 49.5q73 0 123.5 -50t50.5 -126q0 -73 -49 -121.5t-123 -48.5q-72 0 -123 50t-51 122zM281 434q97 471 112 725q3 53 11.5 91t26.5 75t52.5 56.5t85.5 19.5q79 0 118.5 -40t39.5 -110q0 -40 -12 -73t-53 -109q-200 -367 -318 -653z" />
<glyph unicode="&#x1f0;" horiz-adv-x="716" d="M-213 -266q0 44 29.5 76t70.5 32q45 0 73 -27.5t28 -72.5q0 -23 -15.5 -41t-15.5 -31q0 -14 14.5 -22t34.5 -8q44 0 79 63.5t73 214.5l182 717q25 95 25 137q0 32 -20 47t-64 15h-45v55q280 24 428 57l-76 -287l-162 -622q-64 -243 -166 -352t-258 -109q-96 0 -155.5 45 t-59.5 113zM291 1413h104l185 -199l274 199h117l-332 -356h-168z" />
<glyph unicode="&#x1fa;" horiz-adv-x="1366" d="M-139 51q53 6 88.5 39.5t87.5 116.5l727 1143q-42 24 -66 65.5t-24 93.5q0 74 55.5 129.5t132.5 55.5q72 0 127 -55t55 -128q0 -78 -54.5 -133t-129.5 -55h-2l180 -1071q22 -127 51 -161t125 -40v-51h-620v51q82 6 120 30.5t38 70.5q0 6 -4 30l-25 244h-440l-117 -197 q-35 -56 -35 -102q0 -38 30 -57t101 -19v-51h-399zM330 508h379l-76 498zM623 1690l299 256q30 27 46.5 36t43.5 9q65 0 65 -68q0 -14 -4 -24t-20 -22t-25.5 -18t-42.5 -24l-270 -145h-92zM772 1509q0 -35 25 -61.5t59 -26.5q37 0 63.5 25.5t26.5 60.5q0 38 -23 63t-67 25 q-36 0 -60 -25.5t-24 -60.5z" />
<glyph unicode="&#x1fb;" d="M-43 233q0 119 48.5 243t129.5 231q84 110 184 174.5t197 64.5q66 0 102.5 -34.5t49.5 -112.5h2l35 121l227 14l-154 -514q-61 -202 -61 -273q0 -30 24 -30q25 0 56.5 29.5t93.5 113.5l43 -31q-159 -258 -320 -258q-59 0 -94 33.5t-35 97.5q0 45 29 142 q-86 -146 -164 -208.5t-172 -62.5q-100 0 -160.5 71.5t-60.5 188.5zM209 236q0 -117 88 -117q42 0 89 39.5t87 113.5q60 105 104 252t44 240q0 42 -21.5 69t-54.5 27q-107 0 -221 -235q-52 -104 -83.5 -215.5t-31.5 -173.5zM328 1491l250 268q57 60 86.5 81.5t56.5 21.5 q40 0 69 -28.5t29 -68.5q0 -29 -17 -49.5t-63 -46.5l-311 -178h-100zM356 1278q0 90 64.5 152.5t154.5 62.5q95 0 156.5 -62.5t61.5 -154.5q0 -91 -64.5 -155t-155.5 -64q-97 0 -157 61.5t-60 159.5zM455 1274q0 -49 34.5 -84t81.5 -35q51 0 87 34.5t36 82.5q0 51 -36 87 t-87 36q-47 0 -81.5 -36t-34.5 -85z" />
<glyph unicode="&#x1fc;" horiz-adv-x="1933" d="M-131 0v51q37 4 61 19q17 7 121 139l746 967q41 54 41 90q0 29 -32 40t-132 17v47h1206l-92 -389l-49 10l-4 82q-12 232 -332 232q-65 0 -88 -12.5t-33 -53.5l-133 -481h39q108 0 169.5 18.5t104 63t84.5 135.5l53 -8l-149 -559l-51 10q6 50 6 94q0 71 -19.5 105 t-75.5 51t-177 24l-129 -493q-11 -46 -11 -58q0 -75 140 -75q121 0 199.5 21.5t148.5 74.5q35 26 74 70.5t60.5 73.5t72.5 102l53 -7l-121 -401h-1079v51q77 12 108.5 45.5t57.5 120.5l88 305h-394l-233 -321q-31 -42 -31 -80q0 -34 28.5 -49t102.5 -21v-51h-399zM461 602 h354l189 682h-25zM1065 1481l250 268q56 59 86 80.5t57 21.5q40 0 69 -28t29 -68q0 -29 -16.5 -49.5t-62.5 -46.5l-312 -178h-100z" />
<glyph unicode="&#x1fd;" horiz-adv-x="1478" d="M-10 217q0 134 60.5 276.5t158.5 254.5q79 92 168.5 145t175.5 53q67 0 103.5 -29t64.5 -106l37 119l211 10l-41 -133q58 74 114 103.5t132 29.5q97 0 150.5 -46.5t53.5 -131.5q0 -131 -126 -237t-345 -142l-76 -12q-10 -51 -10 -95q0 -82 36 -128t99 -46q147 0 254 185 l58 -35q-66 -136 -168 -207.5t-230 -71.5q-134 0 -205.5 67.5t-86.5 201.5q-86 -142 -169 -204.5t-186 -62.5q-106 0 -169.5 61.5t-63.5 180.5zM248 254q0 -65 26 -100t72 -35q96 0 191 162q60 102 102.5 239t42.5 223q0 51 -27.5 83t-70.5 32q-67 0 -132 -71t-108 -170 t-69.5 -199t-26.5 -164zM614 1057l250 268q56 59 86 80.5t58 21.5q40 0 69 -28t29 -68q0 -29 -17 -49.5t-63 -46.5l-311 -178h-101zM846 438q132 15 240 124t108 233q0 84 -72 84q-76 0 -141 -99.5t-125 -306.5z" />
<glyph unicode="&#x1fe;" horiz-adv-x="1478" d="M55 434q0 187 71.5 365.5t189 310.5t277 212.5t327.5 80.5q78 0 167 -27l109 189h100l-129 -222q113 -54 180.5 -168t67.5 -247q0 -227 -99.5 -425t-275.5 -345q-234 -195 -491 -195q-89 0 -174 27l-144 -246h-98l162 279q-119 64 -179.5 169.5t-60.5 241.5zM350 289 q0 -64 23 -131l663 1132q-54 43 -129 43q-189 0 -338 -266q-89 -158 -154 -389.5t-65 -388.5zM426 78q56 -45 137 -45q94 0 187.5 77t152.5 199q85 175 151 399t66 371q0 62 -28 135zM594 1481l250 268q56 59 86 80.5t57 21.5q40 0 69 -28t29 -68q0 -29 -16.5 -49.5 t-62.5 -46.5l-312 -178h-100z" />
<glyph unicode="&#x1ff;" d="M-6 274q0 171 83.5 327t221 250.5t287.5 94.5q42 0 86 -12l121 213h75l-133 -238q88 -43 128 -108t40 -164q0 -170 -81.5 -324t-216.5 -247t-283 -93q-47 0 -105 17l-131 -234h-82l148 258q-158 88 -158 260zM238 160l391 698q-29 29 -66 29q-99 0 -176 -139 q-56 -100 -102.5 -279t-46.5 -293v-16zM262 70q27 -37 76 -37q60 0 110 53.5t97 169.5q44 106 79 260t35 246q0 6 -2 10zM285 1057l250 268q56 59 86 80.5t57 21.5q40 0 69 -28t29 -68q0 -29 -17 -49.5t-63 -46.5l-311 -178h-100z" />
<glyph unicode="&#x237;" horiz-adv-x="569" d="M-387 -266q0 44 29.5 76t70.5 32q45 0 73 -27.5t28 -72.5q0 -23 -15.5 -41t-15.5 -31q0 -14 14.5 -22t34.5 -8q44 0 79 63.5t73 214.5l182 717q24 91 24 137q0 32 -20 47t-64 15h-45v55q280 24 428 57l-237 -909q-64 -243 -166 -352t-258 -109q-96 0 -155.5 45t-59.5 113 z" />
<glyph unicode="&#x250;" horiz-adv-x="1048" d="M27 176q0 28 10 70l143 534q4 20 4 27q0 31 -30 31q-17 0 -52 -29l-20 43q75 63 135.5 90t126.5 27q74 0 101.5 -31.5t27.5 -110.5q105 76 190 109t175 33q170 0 170 -142q0 -189 -203 -305q-67 -38 -163 -71t-290 -84l-37 -140q-14 -61 -14 -88q0 -53 31 -77.5t98 -24.5 q65 0 120.5 18.5t55.5 53.5q0 23 -30.5 61.5t-30.5 71.5q0 57 38.5 92t102.5 35q62 0 96.5 -38t34.5 -108q0 -80 -66 -139t-166.5 -86t-219.5 -27q-162 0 -250 53t-88 152zM371 438q325 92 325 303q0 40 -21 61t-57 21q-86 0 -165 -82z" />
<glyph unicode="&#x251;" horiz-adv-x="1253" d="M51 285q0 127 55 252t145.5 219.5t213.5 153.5t252 59q137 0 223 -95l244 95h28l-213 -795q-4 -24 -4 -29q0 -22 21 -22q32 0 125 14v-39l-439 -114l29 108q-1 -1 -20 -15t-31 -21.5t-37 -22t-48.5 -23.5t-54.5 -19t-66.5 -15t-72.5 -5q-35 0 -72.5 5t-90 25t-91.5 52 t-67.5 92t-28.5 140zM344 336q0 -122 65 -184t160 -62q51 0 117 39.5t80 93.5l127 473q8 27 8 56q0 71 -49.5 111t-110.5 40q-62 0 -132 -48t-128.5 -125t-97.5 -183t-39 -211z" />
<glyph unicode="&#x252;" horiz-adv-x="1253" d="M51 -29l213 795q4 24 4 29q0 22 -20 22q-16 0 -125 -14v37l438 116l-29 -108q1 1 20 15t31 21.5t37 22t48.5 23.5t54.5 19t66.5 15t72.5 5q35 0 72.5 -5t90 -25t91.5 -52t67.5 -92t28.5 -140q0 -170 -91.5 -328t-246.5 -257t-327 -99q-137 0 -223 95l-244 -95h-29z M362 188q0 -71 49.5 -111t110.5 -40q62 0 132.5 48t129 125t97.5 183t39 211q0 122 -65.5 184t-160.5 62q-51 0 -116.5 -39.5t-79.5 -93.5l-127 -473q-9 -30 -9 -56z" />
<glyph unicode="&#x253;" d="M-29 98q0 14 41 166l211 733q37 127 76.5 209t90 128t106 63.5t133.5 17.5q130 0 210.5 -57t80.5 -148q0 -58 -34.5 -94.5t-90.5 -36.5q-52 0 -87.5 34.5t-35.5 82.5q0 31 11 54t22.5 37.5t11.5 25.5q0 18 -15.5 28.5t-42.5 10.5q-53 0 -86.5 -36t-56.5 -120l-121 -432 q71 98 142.5 140t152.5 42q97 0 158 -77t61 -191q0 -135 -54.5 -264.5t-143.5 -226t-210 -155.5t-247 -59q-108 0 -195.5 35.5t-87.5 89.5zM223 96q0 -25 18 -40t46 -15q111 0 221 160q60 88 102.5 229.5t42.5 235.5q0 141 -84 141q-107 0 -188 -172q-48 -105 -127 -373 q-13 -47 -22 -98.5t-9 -67.5z" />
<glyph unicode="&#x254;" horiz-adv-x="909" d="M-10 158q0 65 35 105t92 40q52 0 85.5 -31t33.5 -77q0 -33 -21.5 -65.5t-21.5 -53.5q0 -15 15 -25t34 -10q54 0 97.5 45.5t92.5 134.5q109 200 109 412q0 87 -40.5 134.5t-109.5 47.5q-66 0 -121 -41.5t-129 -144.5l-57 37q40 54 58.5 78.5t51.5 62.5t62.5 61.5 t62.5 40.5q70 37 170 37q143 0 228.5 -80.5t85.5 -228.5q0 -136 -58 -263.5t-157 -226.5q-171 -174 -369 -174q-94 0 -161.5 52.5t-67.5 132.5z" />
<glyph unicode="&#x255;" horiz-adv-x="909" d="M-10 283q0 136 58 263t157 226q171 174 368 174q95 0 162.5 -52t67.5 -132q0 -65 -35 -105.5t-92 -40.5q-52 0 -85.5 31.5t-33.5 77.5q0 33 21.5 66t21.5 53q0 15 -15 25t-34 10q-54 0 -98 -46t-93 -135q-108 -199 -108 -411q0 -124 78 -166q185 235 342 235 q73 0 116 -42.5t43 -102.5q0 -104 -95 -176t-238 -72h-52q-92 0 -129 6l-221 -291h-98l229 302q-113 22 -175 99t-62 204zM403 88q63 -33 158 -33q84 0 131 45.5t47 102.5q0 32 -26 46.5t-64 14.5q-94 0 -246 -176z" />
<glyph unicode="&#x256;" d="M-43 229q0 148 76 307.5t192 270.5q67 65 141 102t142 37q95 0 154 -67l36 131q60 212 60 250q0 57 -84 57h-43v55q259 20 428 60l-408 -1485q-3 -9 -16 -52.5t-22.5 -76.5t-18 -68.5t-8.5 -48.5q0 -59 37 -87t90 -28q57 0 57 39q0 11 -11 25.5t-22.5 37.5t-11.5 54 q0 48 35.5 82.5t87.5 34.5q56 0 90.5 -36.5t34.5 -94.5q0 -92 -81 -148.5t-212 -56.5q-141 0 -209 54.5t-68 170.5q0 90 41 238q66 244 70 256q-78 -141 -161 -205t-179 -64q-97 0 -157 66t-60 190zM211 250q0 -56 23 -93.5t61 -37.5q92 0 176 153q55 97 107.5 258.5 t52.5 229.5q0 43 -21.5 71.5t-54.5 28.5q-61 1 -122 -64t-111 -165q-50 -98 -80.5 -206t-30.5 -175z" />
<glyph unicode="&#x257;" horiz-adv-x="1167" d="M-43 229q0 148 76 307.5t192 270.5q67 65 141 102t142 37q95 0 154 -67l36 131q15 53 25.5 86t28 78.5t35 74t44 60t56.5 49t71 29.5t89 12q130 0 210 -57t80 -148q0 -58 -34.5 -94.5t-90.5 -36.5q-52 0 -87 34.5t-35 82.5q0 31 11 54t22.5 37t11.5 25q0 18 -15.5 28.5 t-42.5 10.5q-9 0 -15 -1.5t-16 -9t-19.5 -27t-18.5 -50.5l-265 -964q-28 -109 -28 -129q0 -10 7 -20.5t15 -10.5q23 0 60.5 38t79.5 107l45 -32q-85 -135 -159 -197t-149 -62q-58 0 -90 33t-32 92q0 42 22 140q-78 -141 -161 -205t-179 -64q-97 0 -157 66t-60 190zM211 250 q0 -56 23 -93.5t61 -37.5q92 0 176 153q55 97 107.5 258.5t52.5 229.5q0 43 -21.5 71.5t-54.5 28.5q-61 1 -122 -64t-111 -165q-50 -98 -80.5 -206t-30.5 -175z" />
<glyph unicode="&#x258;" horiz-adv-x="909" d="M10 258l76 35q14 -98 71 -143.5t132 -45.5q83 0 160 81.5t102 187.5q-181 43 -263.5 103.5t-82.5 174.5q0 124 104.5 209.5t237.5 85.5q147 0 231 -98.5t84 -253.5q0 -152 -75 -295.5t-202.5 -234.5t-267.5 -91q-130 0 -217 70.5t-90 214.5zM393 643q0 -75 47 -129 t129 -76q58 195 58 310q0 131 -80 131q-45 0 -82.5 -45t-54.5 -98t-17 -93z" />
<glyph unicode="&#x259;" horiz-adv-x="909" d="M10 152q0 64 38.5 129t103.5 120q66 55 151 87.5t234 58.5q12 62 12 100q0 168 -131 168q-66 0 -118.5 -41t-123.5 -147l-59 35q84 150 181 217t218 67q138 0 218.5 -76.5t80.5 -224.5q0 -124 -51 -247t-132.5 -216t-189.5 -151t-217 -58q-98 0 -156.5 50t-58.5 129z M199 121q0 -80 63 -80q146 0 260 440q-139 -31 -231 -132.5t-92 -227.5z" />
<glyph unicode="&#x25a;" horiz-adv-x="1282" d="M10 152q0 54 17 101.5t39 77.5t56.5 58t56 41t50.5 27l320 164v32q0 75 -33 118.5t-98 43.5q-66 0 -118.5 -41t-123.5 -147l-59 35q84 150 181 217t218 67q110 0 185.5 -50t101.5 -146l260 133l20 -25l-92 -291q-4 -20 -4 -45q0 -28 19.5 -37.5t56.5 -9.5q44 0 79 24 t52 48l35 51l53 -27l-37 -55q-33 -51 -88 -84t-113 -33q-133 0 -133 111q0 29 9 59l53 191l-160 -82q2 -10 2 -33q0 -124 -51 -247t-132.5 -216t-189.5 -151t-217 -58q-98 0 -156.5 50t-58.5 129zM199 121q0 -80 63 -80q55 0 108 69t93.5 178t71.5 249l-183 -95 q-44 -23 -76 -64.5t-47.5 -89t-22.5 -88.5t-7 -79z" />
<glyph unicode="&#x25b;" horiz-adv-x="909" d="M10 188q0 112 93 201t227 123q-68 35 -101.5 72.5t-33.5 91.5q0 66 27.5 118.5t71.5 85.5t104 54.5t121.5 30t127.5 8.5q80 0 154 -23q75 -24 130.5 -73.5t55.5 -98.5q0 -102 -100 -102q-58 0 -87 30t-61 113q-15 39 -40 58.5t-72 19.5q-75 0 -131 -58.5t-56 -156.5 q0 -58 50 -99.5t102 -41.5h35v-76h-109q-84 0 -152.5 -79.5t-68.5 -182.5q0 -61 38.5 -96t104.5 -35q107 0 190 27.5t177 109.5l39 -37q-66 -66 -131 -108.5t-129 -61.5t-114.5 -25t-117.5 -6q-91 0 -166 21t-126.5 72t-51.5 124z" />
<glyph unicode="&#x25c;" horiz-adv-x="983" d="M10 172l56 37q51 -83 118.5 -110t173.5 -27q101 0 176.5 80.5t75.5 189.5q0 58 -30 90.5t-86 32.5h-88v76h49q100 0 180 78t80 182q0 96 -109 96q-79 0 -104 -68q-35 -90 -63 -121.5t-87 -31.5q-102 0 -102 104q0 49 60.5 100.5t138.5 73.5q71 19 159 19q68 0 127 -9 t111.5 -29.5t83.5 -58t31 -88.5q0 -100 -65.5 -162.5t-188.5 -113.5q82 -23 131 -78.5t49 -126.5q0 -68 -32.5 -126t-84 -95.5t-118 -64.5t-132.5 -38.5t-129 -11.5q-43 0 -75.5 2t-72 9t-70 21t-61.5 35t-56.5 55t-45.5 79z" />
<glyph unicode="&#x25d;" horiz-adv-x="1411" d="M10 172l56 37q51 -83 118.5 -110t173.5 -27q101 0 176.5 80.5t75.5 189.5q0 58 -30 90.5t-86 32.5h-88v76h49q100 0 180 78t80 182q0 96 -109 96q-79 0 -104 -68q-35 -90 -63 -121.5t-87 -31.5q-102 0 -102 104q0 49 60.5 100.5t138.5 73.5q71 19 159 19q44 0 84.5 -3.5 t92 -15t88.5 -31t62.5 -55.5t25.5 -84l231 119l20 -24l-92 -291q-4 -20 -4 -45q0 -28 19.5 -37.5t56.5 -9.5q44 0 79.5 24t51.5 47l35 51l53 -26l-37 -55q-33 -51 -87.5 -84t-112.5 -33q-134 0 -134 110q0 30 9 60l53 190l-160 -82q-23 -60 -83 -104.5t-152 -81.5 q82 -23 131 -78.5t49 -126.5q0 -68 -32.5 -126t-84 -95.5t-118 -64.5t-132.5 -38.5t-129 -11.5q-43 0 -75.5 2t-72 9t-70 21t-61.5 35t-56.5 55t-45.5 79z" />
<glyph unicode="&#x25e;" horiz-adv-x="995" d="M14 303q0 132 53 257t137.5 214.5t193.5 144t218 54.5q74 0 136.5 -10t113 -31t79 -57.5t28.5 -86.5q0 -99 -65.5 -163t-188.5 -113q82 -23 131 -78.5t49 -126.5q0 -80 -45 -146t-118 -106.5t-160.5 -62t-178.5 -21.5q-43 0 -89 7.5t-100.5 30t-96 58t-69.5 96.5t-28 140 zM166 336q0 -121 56 -192.5t147 -71.5q103 0 178.5 80t75.5 192q0 57 -31 89t-86 32h-88v76h49q100 0 180 78t80 182q0 96 -106 96q-112 0 -218 -82.5t-171.5 -213.5t-65.5 -265z" />
<glyph unicode="&#x25f;" horiz-adv-x="751" d="M-205 -266q0 44 30 76t71 32q45 0 72.5 -27.5t27.5 -72.5q0 -23 -15.5 -41t-15.5 -31q0 -14 14.5 -22t34.5 -8q44 0 79 63.5t73 214.5l129 508h-223l26 94h221l64 254q8 27 8 55q0 33 -20 50.5t-70 17.5v49h444v-49q-95 -2 -122 -127l-62 -250h105l-27 -94h-102 l-101 -383q-62 -233 -161.5 -350t-264.5 -117q-96 0 -155.5 45t-59.5 113z" />
<glyph unicode="&#x260;" horiz-adv-x="1474" d="M-106 -274q0 54 34.5 88t91.5 34q51 0 86 -32t35 -78q0 -30 -23.5 -68t-23.5 -53q0 -55 84 -55q116 0 216 90t134 209l88 315q-70 -102 -145.5 -152.5t-171.5 -50.5q-38 0 -71.5 11.5t-66 39.5t-52 86t-19.5 140t30.5 179t85.5 187t123.5 165t151.5 120t162 45 q106 0 156 -67q103 328 198 415q59 54 116.5 79.5t135.5 25.5q129 0 209 -57t80 -148q0 -58 -34.5 -94.5t-90.5 -36.5q-52 0 -87.5 34.5t-35.5 82.5q0 31 11 54t22.5 37t11.5 25q0 39 -59 39q-57 0 -92.5 -36.5t-61.5 -127.5l-336 -1204q-130 -469 -542 -469 q-84 0 -138 15.5t-110 48.5q-102 61 -102 164zM346 248q0 -37 6 -62t14 -37.5t23 -19t24 -7.5t27 -1q37 0 88 47.5t93 130.5q50 98 91.5 237.5t41.5 219.5q0 47 -18.5 74.5t-53.5 27.5q-54 0 -115.5 -67t-109 -162t-79.5 -200.5t-32 -180.5z" />
<glyph unicode="&#x261;" horiz-adv-x="1124" d="M-106 -274q0 54 34.5 88t91.5 34q51 0 86 -32t35 -78q0 -30 -23.5 -68t-23.5 -53q0 -55 84 -55q116 0 216 90t134 209l88 315q-70 -102 -145.5 -152.5t-171.5 -50.5q-38 0 -71.5 11.5t-66 39.5t-52 86t-19.5 140t30.5 179t85.5 187t123.5 165t151.5 120t162 45 q62 0 106.5 -19t96.5 -73l186 113h33l-279 -1000q-22 -78 -50 -141.5t-73.5 -126.5t-102 -105.5t-137.5 -69t-179 -26.5q-84 0 -138 15.5t-110 48.5q-102 61 -102 164zM346 248q0 -37 6 -62t14 -37.5t23 -19t24 -7.5t27 -1q37 0 88 47.5t93 130.5q50 98 91.5 237.5 t41.5 219.5q0 47 -18.5 74.5t-53.5 27.5q-54 0 -115.5 -67t-109 -162t-79.5 -200.5t-32 -180.5z" />
<glyph unicode="&#x262;" horiz-adv-x="1148" d="M43 324q0 121 57.5 236.5t150 199.5t214.5 135t246 51q100 0 219 -49q35 -18 61 -18q23 0 39.5 12.5t44.5 50.5h39l-86 -321h-37q-20 83 -36 123t-50 81q-67 76 -184 76q-108 0 -206 -97t-154 -245t-56 -299q0 -114 46 -175.5t163 -61.5q140 0 170 114l33 121q6 24 6 43 q0 30 -28 43.5t-101 17.5v33h512v-33q-43 -4 -71 -14t-46 -28.5t-27 -39.5t-20 -57l-45 -160q-83 -40 -199.5 -63t-232.5 -23q-193 0 -307.5 92.5t-114.5 254.5z" />
<glyph unicode="&#x263;" horiz-adv-x="909" d="M41 842v55q178 16 307 49q90 -234 135 -561l23 -166q106 198 144 289.5t38 140.5q0 19 -10 31.5t-41 38.5q-36 30 -50 52t-14 58q0 43 33 80t86 37q51 0 89 -39t38 -92q0 -110 -82.5 -306.5t-212.5 -408.5l35 -250q8 -49 8 -139q0 -89 -79 -139.5t-189 -50.5 q-149 0 -149 137q0 69 63 160l102 147q-18 186 -110 621q-43 192 -82 231q-17 17 -30 21t-52 4zM231 -350q0 -62 54 -62q65 0 65 101q0 39 -6 75l-12 95l-62 -97q-39 -59 -39 -112z" />
<glyph unicode="&#x264;" horiz-adv-x="1009" d="M20 721q0 81 63 141t144 60q105 0 168 -150l97 -233l208 237q129 146 185 146q51 0 82.5 -37.5t31.5 -89.5q0 -66 -32 -150h-21q-22 86 -94 86q-65 0 -147 -96l-170 -193q1 -3 22 -56.5t28 -75.5t17 -61.5t10 -66.5q0 -52 -29.5 -92.5t-76 -63.5t-96 -34.5t-97.5 -11.5 q-67 0 -111 31t-44 95q0 48 22 87t62 83l100 107l-98 240q-9 23 -16 37t-19.5 33t-29 28.5t-36.5 9.5q-31 0 -53 -26t-31 -60h-20q-19 47 -19 76zM281 104q0 -26 15.5 -41.5t41.5 -15.5q34 0 61 26t27 60q0 38 -43 143q-2 -2 -21 -20.5t-22.5 -22.5l-17.5 -20t-17.5 -24.5 t-11.5 -23.5t-10 -29.5t-2 -31.5z" />
<glyph unicode="&#x265;" horiz-adv-x="1138" d="M-27 662q101 158 174.5 218t167.5 60q61 0 99.5 -35.5t38.5 -95.5q0 -45 -21 -113l-153 -469q-13 -40 -13 -61q0 -43 41 -43q90 0 221 192q74 109 119.5 223t124.5 384h248l-311 -1151q-21 -79 -21 -97q0 -35 20.5 -51t65.5 -16h45v-56q-205 -17 -428 -61l221 852 q-152 -216 -241.5 -291.5t-194.5 -75.5q-74 0 -115 40.5t-41 113.5q0 45 15 94l166 520q6 16 6 25q0 16 -10.5 24.5t-24.5 8.5q-20 0 -54 -37.5t-100 -132.5z" />
<glyph unicode="&#x266;" horiz-adv-x="1138" d="M-27 0l308 1137q36 132 126 197t246 65q130 0 210.5 -57t80.5 -148q0 -58 -34.5 -94.5t-90.5 -36.5q-52 0 -87.5 34.5t-35.5 82.5q0 31 11 54t22.5 37t11.5 25q0 39 -59 39q-53 0 -87 -33t-54 -108l-160 -614q152 216 241.5 291t194.5 75q75 0 115.5 -40.5t40.5 -112.5 q0 -41 -15 -95l-165 -520q-7 -19 -7 -24q0 -16 10.5 -24.5t24.5 -8.5q20 0 54 37.5t100 132.5l45 -31q-101 -158 -174.5 -218t-167.5 -60q-61 0 -99 35t-38 96q0 51 14 94l160 487q12 37 12 62q0 43 -41 43q-89 0 -221 -193q-75 -110 -120.5 -223t-123.5 -383h-248z" />
<glyph unicode="&#x267;" horiz-adv-x="1091" d="M-27 0l308 1137q36 132 126 197t246 65q130 0 210.5 -57t80.5 -148q0 -58 -34.5 -94.5t-90.5 -36.5q-52 0 -87.5 34.5t-35.5 82.5q0 31 11 54t22.5 37t11.5 25q0 39 -59 39q-53 0 -87 -33t-54 -108l-160 -614q152 216 241.5 291t194.5 75q75 0 115.5 -40.5t40.5 -112.5 q0 -39 -17 -101l-221 -692q-64 -193 -125 -264q-67 -80 -138.5 -118t-172.5 -38q-126 0 -206.5 57t-80.5 148q0 56 35 90.5t92 34.5q51 0 86 -32.5t35 -78.5q0 -31 -23.5 -67.5t-23.5 -53.5q0 -34 70 -34q47 0 79 32.5t54 100.5l299 917q12 37 12 62q0 43 -41 43 q-89 0 -221 -193q-75 -110 -120.5 -223t-123.5 -383h-248z" />
<glyph unicode="&#x268;" horiz-adv-x="569" d="M-20 457l26 94h105l36 131q17 60 17 92q0 60 -94 60h-29v55q244 18 416 57l-109 -395h117l-27 -94h-114l-54 -195q-18 -63 -18 -104q0 -33 31 -33q43 0 131 125l28 41l45 -29q-99 -162 -174 -221t-170 -59q-65 0 -102 32.5t-37 96.5q0 40 31 155l51 191h-106zM262 1268 q0 52 40 92.5t93 40.5q58 0 100 -41t42 -98t-40.5 -96.5t-99.5 -39.5q-58 0 -96.5 41t-38.5 101z" />
<glyph unicode="&#x269;" horiz-adv-x="518" d="M4 145q0 26 25 121l114 424q15 62 15 82q0 23 -13 23q-29 0 -96 -21l17 55q29 10 81 28.5t84 29.5t70 23t64 18t41 6q30 0 30 -29q0 -12 -4 -28l-168 -615q-18 -69 -18 -98q0 -32 13.5 -47t31.5 -15q75 0 170 93l24 -35q-4 -5 -25.5 -30.5t-30.5 -35t-31.5 -31.5 t-40.5 -32t-44 -23t-55.5 -18.5t-62.5 -5.5q-95 0 -143 41.5t-48 119.5z" />
<glyph unicode="&#x26a;" horiz-adv-x="622" d="M-66 0v35q82 8 113.5 29.5t48.5 85.5l174 655q6 24 6 43q0 33 -24 46.5t-82 16.5v35h487v-35q-77 -3 -110.5 -25t-48.5 -81l-176 -655q-11 -42 -11 -56q0 -32 25 -44t88 -15v-35h-490z" />
<glyph unicode="&#x26b;" horiz-adv-x="655" d="M18 674q20 111 82.5 176t149.5 65q15 0 39 -4l69 265q13 54 13 79q0 62 -86 62q-22 0 -45 -2v55q193 18 430 62l-164 -590q41 -13 59 -13q36 0 59 18.5t46 67.5h84q-34 -129 -90.5 -186t-149.5 -57q-37 0 -53 4l-88 -316q-45 -161 -45 -204q0 -13 8 -22t22 -9 q28 0 64.5 37t97.5 127l45 -29q-107 -163 -178 -220.5t-168 -57.5q-62 0 -100.5 36.5t-38.5 92.5q0 69 70 317l92 326q-14 4 -43 4q-35 0 -57 -18t-42 -66h-82z" />
<glyph unicode="&#x26c;" horiz-adv-x="911" d="M35 631q0 70 29.5 129.5t75.5 97.5t100 59t106 21q32 0 62 -10l59 215q18 74 18 112q0 62 -86 62q-22 0 -45 -2v55q193 18 430 62l-227 -818q123 42 287 172l10 -43q-5 -6 -15 -16.5t-43 -40.5t-68.5 -57.5t-90 -61.5t-109.5 -59l-41 -148q-45 -161 -45 -204 q0 -13 8.5 -22t22.5 -9q28 0 64.5 37t97.5 127l45 -29q-107 -163 -178 -220.5t-168 -57.5q-62 0 -100.5 36.5t-38.5 92.5q0 73 69 317l12 43q-23 -2 -57 -2q-82 0 -133 41.5t-51 120.5zM158 664q0 -37 22 -62.5t62 -34.5q10 -2 61 -2l82 289q-20 8 -51 8q-64 0 -120 -65.5 t-56 -132.5z" />
<glyph unicode="&#x26d;" horiz-adv-x="595" d="M-96 -223q0 52 14 104l307 1077q70 244 70 297q0 62 -86 62q-22 0 -45 -2v55q193 18 430 62l-459 -1657q-10 -38 -10 -68q0 -52 22 -86.5t58 -34.5q29 0 47 10t18 25q0 14 -23.5 53t-23.5 68q0 46 35 78.5t86 32.5q57 0 92 -34.5t35 -90.5q0 -91 -80.5 -148t-206.5 -57 q-137 0 -208.5 67.5t-71.5 186.5z" />
<glyph unicode="&#x26e;" horiz-adv-x="1275" d="M4 109q0 26 15 102.5t34 142.5l215 758q10 35 18.5 81.5t8.5 61.5q0 28 -21.5 45t-60.5 17q-33 0 -49 -2v55q217 21 430 62l-141 -510h745v-56l-428 -391h35q95 0 162 -76t67 -204q0 -147 -58.5 -277t-149.5 -216t-198.5 -135.5t-209.5 -49.5q-84 0 -168.5 20.5 t-124.5 50.5q-51 36 -70.5 69t-19.5 73q0 42 30 72t91 30q116 0 137 -137q7 -45 49 -74t92 -29q67 0 132 66.5t109 162t71.5 196.5t27.5 173q0 69 -28.5 111.5t-86.5 42.5q-39 0 -88 -47l-209 -201q-68 -65 -118 -89.5t-101 -24.5q-65 0 -102 38t-37 89zM252 174 q0 -39 22 -39q9 0 30 17.5t56 51.5l35 34l580 534h-432q-35 0 -95 -43t-77 -102l-99 -357q-20 -70 -20 -96z" />
<glyph unicode="&#x26f;" horiz-adv-x="1593" d="M-29 678q78 146 155 207t175 61q139 0 139 -135q0 -54 -22 -127l-148 -448q-12 -40 -12 -62q0 -17 13 -30t32 -13q46 0 107 62t125 176q55 96 85.5 179t120.5 380h246l-133 -424q-86 -272 -86 -328q0 -45 35 -45q22 0 58 27t71 69q88 104 153.5 257.5t147.5 443.5h248 l-135 -475q-74 -258 -74 -308q0 -51 78 -51h36v-55q-176 -14 -244.5 -23t-164.5 -32l129 407h-2q-142 -220 -213 -291q-118 -118 -234 -118q-65 0 -101 36t-36 101q0 78 53 215q-125 -203 -210 -277.5t-195 -74.5q-72 0 -115 40.5t-43 104.5q0 69 19 125l147 438 q17 55 17 80q0 18 -9.5 27.5t-23.5 9.5q-21 0 -52.5 -31.5t-66.5 -87.5q-11 -20 -25 -37z" />
<glyph unicode="&#x270;" horiz-adv-x="1593" d="M-29 678q78 146 155 207t175 61q139 0 139 -135q0 -54 -22 -127l-148 -448q-12 -40 -12 -62q0 -17 13 -30t32 -13q46 0 107 62t125 176q55 96 85.5 179t120.5 380h246l-133 -424q-86 -272 -86 -328q0 -45 35 -45q22 0 58 27t71 69q88 104 153.5 257.5t147.5 443.5h248 l-400 -1405h-252l277 868h-2q-139 -213 -205 -282q-124 -127 -242 -127q-65 0 -101 36t-36 101q0 78 53 215q-125 -203 -210 -277.5t-195 -74.5q-72 0 -115 40.5t-43 104.5q0 69 19 125l147 438q17 55 17 80q0 18 -9.5 27.5t-23.5 9.5q-21 0 -52.5 -31.5t-66.5 -87.5 q-11 -20 -25 -37z" />
<glyph unicode="&#x271;" horiz-adv-x="1554" d="M-29 0l135 475q74 258 74 307q0 52 -78 52h-36v55q176 14 244.5 23t164.5 32l-129 -407h2q140 217 213 290q119 119 234 119q65 0 101 -36t36 -101q0 -78 -53 -215q125 203 210 277.5t195 74.5q72 0 115 -40.5t43 -104.5q0 -68 -19 -127l-286 -864q-32 -92 -66 -132 q-125 -155 -336 -155q-126 0 -206 57t-80 148q0 56 34.5 90.5t91.5 34.5q51 0 86 -33t35 -80q0 -26 -23.5 -65t-23.5 -56q0 -15 20 -24t50 -9q100 0 143 133l320 973q12 41 12 62q0 17 -13 30t-32 13q-46 0 -106.5 -62t-124.5 -176q-56 -97 -87 -181t-120 -378h-246l133 424 q86 272 86 328q0 45 -35 45q-22 0 -57.5 -27.5t-71.5 -69.5q-88 -104 -153.5 -257t-147.5 -443h-248z" />
<glyph unicode="&#x272;" horiz-adv-x="1421" d="M-223 -272q0 56 35 90.5t92 34.5q51 0 86 -32.5t35 -78.5q0 -29 -24 -68t-24 -53q0 -15 18.5 -25t47.5 -10q50 0 91 33.5t59 99.5l194 699q92 333 92 366q0 29 -23 38.5t-89 11.5v55q188 7 407 55l-127 -405h2q103 153 148 211t102 112q87 84 205 84q149 0 149 -158 q0 -71 -57 -237l-72 -213q-49 -144 -49 -182q0 -15 8.5 -25t20.5 -10q27 0 55.5 30.5t89.5 124.5l45 -26q-84 -147 -158.5 -207.5t-168.5 -60.5q-140 0 -140 122q0 96 54 256l112 338q13 43 13 58q0 43 -50 43q-26 0 -67 -33.5t-74 -77.5q-161 -211 -256 -541l-94 -329 q-44 -155 -136 -225t-266 -70q-126 0 -206 57t-80 148z" />
<glyph unicode="&#x273;" horiz-adv-x="1034" d="M-12 0l116 418q93 336 93 366q0 29 -23.5 38.5t-89.5 11.5v55q189 7 408 55l-127 -405h2q104 155 148.5 212.5t100.5 110.5q87 84 205 84q150 0 150 -158q0 -68 -58 -237l-260 -776q-14 -43 -14 -94q0 -39 28.5 -67t61.5 -28q29 0 47.5 10t18.5 25q0 13 -23.5 53 t-23.5 68q0 46 34.5 78.5t85.5 32.5q57 0 92 -34.5t35 -90.5q0 -91 -80 -148t-206 -57q-138 0 -211.5 69t-73.5 191q0 48 31 143l254 772q14 47 14 58q0 43 -49 43q-26 0 -67.5 -33.5t-74.5 -77.5q-97 -127 -162 -276t-134 -412h-248z" />
<glyph unicode="&#x274;" horiz-adv-x="1204" d="M-55 0v35q88 9 119.5 31t48.5 86l176 661q-31 55 -55.5 76.5t-51.5 21.5v35h342l389 -602l113 420q12 43 12 72q0 39 -26 54.5t-90 20.5v35h335v-35q-82 -11 -109 -30.5t-44 -83.5l-219 -822h-47l-500 762l-150 -555q-12 -44 -12 -69q0 -39 28 -55.5t97 -22.5v-35h-356z " />
<glyph unicode="&#x275;" d="M-6 276q0 150 55 284.5t150 227.5q161 158 374 158q154 0 242 -83.5t88 -225.5q0 -141 -59 -277t-156 -233q-154 -154 -358 -154q-150 0 -243 78.5t-93 224.5zM238 164q0 -66 26.5 -98.5t73.5 -32.5q84 0 145 100q68 110 121 291h-338q-28 -140 -28 -260zM293 518h336 q30 135 30 244q0 58 -26 91.5t-70 33.5q-65 0 -123 -64q-89 -99 -147 -305z" />
<glyph unicode="&#x276;" horiz-adv-x="1533" d="M47 317q0 164 91 312t235 233q149 84 319 84q5 0 36.5 -2.5t86 -5t113.5 -2.5h610l-74 -281h-37q3 27 3 52q0 56 -13.5 87.5t-46.5 55.5q-52 37 -227 37q-43 0 -60.5 -7.5t-23.5 -29.5l-92 -342q85 4 125.5 18.5t72 53.5t74.5 131h37l-127 -469h-35q6 47 6 84 q0 71 -37 99.5t-129 33.5l-94 -348q-6 -15 -6 -29q0 -21 20.5 -29t73.5 -8q166 0 264 70q50 38 87 74.5t87 101.5h41l-141 -295h-629q-122 0 -159 -2q-40 -4 -62 -4q-186 0 -287.5 79.5t-101.5 247.5zM274 209q0 -88 42.5 -129t140.5 -41q95 0 139 39q21 20 38 64t46 149 l108 403q25 92 25 129q0 22 -6 37q-14 37 -102 37q-111 0 -212.5 -106t-160 -265t-58.5 -317z" />
<glyph unicode="&#x277;" horiz-adv-x="1402" d="M-6 285q0 118 51 228.5t134.5 193t187.5 144.5t215 94t211 32q131 0 241 -51t179 -151.5t69 -231.5q0 -101 -42 -200t-111.5 -175.5t-167.5 -124t-203 -47.5q-120 0 -193 98q-108 -98 -274 -98q-140 0 -218.5 81.5t-78.5 207.5zM274 219q0 -56 23 -92.5t63 -36.5 q16 0 36 4t44.5 15t44.5 27t33.5 43t13.5 61q0 74 -5 155t-5 101q0 64 45.5 119t124.5 55q56 0 82.5 -38t26.5 -97q0 -40 -19 -84t-42.5 -77t-42.5 -80.5t-19 -94.5q0 -49 22 -79t56 -30q62 0 112 67t77 162.5t41.5 181.5t14.5 142q0 141 -60.5 213t-162.5 72 q-68 0 -140.5 -37.5t-137 -105.5t-115.5 -155t-81 -194.5t-30 -216.5z" />
<glyph unicode="&#x278;" horiz-adv-x="1415" d="M-6 356q0 94 42.5 179.5t110 146.5t151 107.5t166.5 71.5t157 30l84 313q10 36 10 70q0 40 -26 57.5t-89 22.5v49h567v-49q-86 -5 -120.5 -31t-57.5 -113l-84 -319q55 -6 109 -21.5t105 -44t89.5 -66.5t62 -91t23.5 -115q0 -90 -40.5 -175.5t-107.5 -151t-149 -116.5 t-168 -79.5t-163 -32.5l-76 -283q-12 -46 -12 -73q0 -37 25 -50t89 -16v-49h-567v49q87 6 123 34t59 111l74 277q-98 6 -185.5 50.5t-144.5 126t-57 181.5zM281 340q0 -88 32.5 -158t87.5 -102l199 735q-117 -36 -218 -181.5t-101 -293.5zM686 78q125 56 223.5 204.5 t98.5 297.5q0 87 -32.5 148.5t-90.5 86.5z" />
<glyph unicode="&#x279;" horiz-adv-x="874" d="M0 135q0 64 34 107t85 43q27 0 47.5 -12t30 -27t22 -27t25.5 -12q22 0 57 40.5t76 114.5q41 75 71.5 150t79.5 231l64 203h248q-209 -709 -209 -782q0 -30 23.5 -40.5t90.5 -10.5v-56q-183 -15 -249 -24t-160 -33l133 428h-2q-124 -249 -196 -338.5t-154 -89.5 q-53 0 -85 37t-32 98z" />
<glyph unicode="&#x27a;" horiz-adv-x="1009" d="M0 135q0 64 34 107t85 43q27 0 47.5 -12t30 -27t22 -27t25.5 -12q22 0 57 40.5t76 114.5q33 60 50.5 95.5t44.5 109t56 176.5l115 402q21 71 21 110q0 32 -17 47t-57 15q-22 0 -45 -2v57q214 19 430 60l-285 -1002q-6 -22 -30 -105.5t-42 -148t-18 -70.5q0 -51 145 -51 v-55h-409l133 428h-2q-124 -249 -196 -338.5t-154 -89.5q-53 0 -85 37t-32 98z" />
<glyph unicode="&#x27b;" horiz-adv-x="892" d="M0 135q0 64 34 107t85 43q27 0 47.5 -12t30 -27t22 -27t25.5 -12q22 0 57 40.5t76 114.5q41 75 71.5 150t79.5 231l64 203h246l-332 -1165q-8 -24 -8 -57q0 -58 25.5 -98t62.5 -40q29 0 48 9.5t19 23.5q0 16 -23.5 54.5t-23.5 68.5q0 46 35 78.5t86 32.5q57 0 92 -34.5 t35 -90.5q0 -91 -80.5 -148t-206.5 -57q-138 0 -212 70.5t-74 193.5q0 30 10 68l178 573h-2q-124 -249 -196 -338.5t-154 -89.5q-53 0 -85 37t-32 98z" />
<glyph unicode="&#x27c;" horiz-adv-x="796" d="M-178 -477l274 958q26 91 48 186t22 115q0 30 -24 41t-91 11v55q184 15 250.5 24t159.5 33l-133 -428h2q124 249 196 338.5t154 89.5q53 0 85 -37t32 -98q0 -64 -34 -106.5t-85 -42.5q-27 0 -47.5 12t-30 26.5t-22 26.5t-25.5 12q-22 0 -57 -40.5t-76 -114.5 q-42 -76 -72.5 -151.5t-79.5 -229.5l-211 -680h-235z" />
<glyph unicode="&#x27d;" horiz-adv-x="796" d="M-96 -219q0 25 10 67l186 648q23 79 44.5 174t21.5 112q0 30 -24 41t-91 11v55q184 15 250.5 24t159.5 33l-133 -428h2q124 249 196 338.5t154 89.5q53 0 85 -37t32 -98q0 -64 -34 -106.5t-85 -42.5q-27 0 -47.5 12t-30 26.5t-22 26.5t-25.5 12q-46 0 -133 -155 q-31 -55 -47.5 -90.5t-54.5 -144.5t-105 -320q-92 -289 -92 -318q0 -52 25 -88.5t63 -36.5q29 0 47 10t18 25q0 13 -23.5 53t-23.5 68q0 46 35 78.5t86 32.5q57 0 92 -34.5t35 -90.5q0 -91 -80.5 -148t-206.5 -57q-137 0 -210.5 68.5t-73.5 189.5z" />
<glyph unicode="&#x27e;" horiz-adv-x="737" d="M-43 0l156 547q39 135 72.5 210t93.5 130q113 104 284 104q130 0 210.5 -57t80.5 -148q0 -58 -34.5 -94.5t-90.5 -36.5q-52 0 -87.5 34.5t-35.5 82.5q0 31 11 54t22.5 37.5t11.5 25.5q0 39 -59 39q-52 0 -87.5 -38t-60.5 -116l-241 -774h-246z" />
<glyph unicode="&#x27f;" horiz-adv-x="692" d="M20 786q0 91 80.5 148t210.5 57q99 0 169.5 -27t97.5 -77q20 -39 20 -90q0 -96 -53 -260l-168 -537h-248l225 778q11 37 11 68q0 82 -82 82q-60 0 -60 -39q0 -11 11 -25.5t22.5 -37.5t11.5 -54q0 -48 -35.5 -82.5t-87.5 -34.5q-56 0 -90.5 36.5t-34.5 94.5z" />
<glyph unicode="&#x280;" horiz-adv-x="1019" d="M16 0v35q84 9 109.5 30t48.5 105l162 604q14 49 14 78q0 33 -22 46.5t-76 16.5v35h440q186 0 274.5 -44t88.5 -150q0 -115 -84 -189.5t-211 -103.5l174 -397q14 -31 53 -31v-35h-299l-172 440h-39l-74 -274q-14 -49 -14 -74q0 -28 21 -38.5t82 -18.5v-35h-476zM489 487 h43q134 0 207.5 82t73.5 222q0 60 -32.5 86t-106.5 26q-41 0 -61 -14t-29 -49z" />
<glyph unicode="&#x281;" horiz-adv-x="1019" d="M16 0v35q77 5 107.5 31.5t52.5 109.5l162 604q14 49 14 78t-21 40t-79 17v35h475v-35q-86 -10 -111 -31.5t-47 -99.5l-73 -274h39l407 440h281v-35q-43 0 -70 -30l-387 -398q84 -23 128 -65.5t44 -114.5q0 -154 -135 -230.5t-365 -76.5h-422zM383 84q0 -20 14 -28.5 t47 -8.5q113 0 182.5 83t69.5 216q0 66 -50 90.5t-163 26.5l-96 -352q-4 -20 -4 -27z" />
<glyph unicode="&#x282;" horiz-adv-x="796" d="M-66 -260q0 30 5 61l67 512l55 -6q35 -272 191 -272q60 0 91.5 29.5t31.5 80.5q0 46 -26.5 95t-88.5 118q-102 116 -133 180t-31 150q0 122 74.5 190t200.5 68q65 0 118 -24q46 -21 76 -21q23 0 33.5 8t24.5 35h59l-47 -315l-55 4q-25 128 -68 187t-113 59 q-49 0 -78.5 -29.5t-29.5 -79.5q0 -68 117 -203q90 -105 126.5 -180.5t36.5 -150.5q0 -114 -87.5 -188.5t-215.5 -74.5q-68 0 -131 25q-43 16 -63 16q-25 0 -41.5 -16t-18.5 -35l-18 -172q-2 -12 -2 -33q0 -141 149 -141q80 0 80 35q0 15 -23.5 53t-23.5 68q0 46 35 78 t86 32q57 0 92 -34.5t35 -90.5q0 -91 -80.5 -147.5t-208.5 -56.5q-101 0 -151 44t-50 142z" />
<glyph unicode="&#x283;" horiz-adv-x="868" d="M-213 -317q0 53 31 88.5t80 35.5q46 0 77 -28.5t31 -67.5q0 -28 -18.5 -60.5t-18.5 -37.5q0 -12 16 -20.5t38 -8.5q34 0 61.5 17.5t46.5 47t34 66.5t27 79.5t22 82.5q2 9 3 14l238 955q23 90 49 162.5t69.5 148t96.5 126.5t130.5 83.5t170.5 32.5q106 0 165.5 -43.5 t59.5 -116.5q0 -53 -31 -89t-80 -36q-46 0 -77 28.5t-31 67.5q0 28 18.5 61t18.5 38q0 11 -13.5 19.5t-33.5 8.5q-38 0 -69.5 -27.5t-53.5 -77.5t-35 -92.5t-28 -98.5q-2 -9 -3 -13l-233 -930q-24 -96 -50.5 -171.5t-71 -154.5t-98.5 -131t-134.5 -85t-178.5 -33 q-103 0 -164 43.5t-61 116.5z" />
<glyph unicode="&#x284;" horiz-adv-x="806" d="M-184 -266q0 44 29.5 76t70.5 32q45 0 72.5 -27.5t27.5 -72.5q0 -23 -15 -41t-15 -31q0 -14 14.5 -22t34.5 -8q43 0 78 63t73 215l21 82h-127l24 94h127l226 895q53 211 155 305q114 105 277 105q130 0 210.5 -57t80.5 -148q0 -58 -34.5 -94.5t-90.5 -36.5 q-52 0 -87.5 34.5t-35.5 82.5q0 31 11 54t22.5 37t11.5 25q0 39 -59 39q-54 0 -96 -30t-60 -93l-293 -1118h139l-24 -94h-140q-64 -223 -163.5 -323.5t-249.5 -100.5q-96 0 -155.5 45t-59.5 113z" />
<glyph unicode="&#x285;" horiz-adv-x="849" d="M162 803q0 74 60 117t167 43q138 0 215.5 -69.5t77.5 -186.5q0 -63 -18 -134l-211 -790q-23 -95 -23 -121q0 -28 1.5 -41t12.5 -25t33 -12q18 0 31.5 9.5t13.5 19.5q0 5 -18.5 37.5t-18.5 60.5q0 39 31.5 67.5t77.5 28.5q49 0 80 -35.5t31 -88.5q0 -74 -60.5 -117 t-167.5 -43q-137 0 -207.5 69.5t-70.5 188.5q0 61 18 131l219 813q17 66 17 102q0 74 -60 74q-21 0 -35 -9t-14 -20q0 -5 18.5 -37.5t18.5 -60.5q0 -39 -31.5 -67.5t-77.5 -28.5q-49 0 -79.5 36t-30.5 89z" />
<glyph unicode="&#x286;" horiz-adv-x="1067" d="M-82 -291q0 155 108 248.5t279 93.5q16 0 66 -8l198 795q23 91 49 164.5t69.5 150.5t96.5 128.5t131 84.5t172 33q104 0 165 -43t61 -117q0 -54 -32 -89.5t-79 -35.5t-77.5 28t-30.5 68q0 28 18 61t18 38q0 11 -13.5 19.5t-31.5 8.5q-28 0 -51.5 -13t-42.5 -40.5 t-32 -51.5t-26.5 -67t-19 -64.5l-16.5 -64.5l-221 -880q-44 -173 -70 -236q16 -32 26.5 -95.5t10.5 -119.5q0 -65 -6.5 -103.5t-28.5 -99.5h-86q39 103 39 168q0 25 -14 111q-146 -258 -432 -258q-99 0 -148 54.5t-49 131.5zM0 -274q0 -49 30.5 -85t102.5 -36q61 0 104 50.5 t64 115.5q16 50 49 190q-31 8 -80 8q-114 0 -192 -72.5t-78 -170.5z" />
<glyph unicode="&#x287;" horiz-adv-x="634" d="M14 113v86h170l70 243q108 375 108 428q0 37 -32 37q-51 0 -156 -164l-47 31q100 156 177 216.5t171 60.5q66 0 101.5 -33.5t35.5 -99.5q0 -62 -51 -236l-137 -483h106v-72q-126 -43 -209.5 -112t-166.5 -199h-72l80 297h-148z" />
<glyph unicode="&#x288;" horiz-adv-x="636" d="M-123 -223q0 40 8 71l281 986h-107v71q126 43 210 112.5t167 199.5h72l-80 -297h147v-86h-169l-300 -1049q-6 -21 -6 -57q0 -59 22.5 -100.5t59.5 -41.5q29 0 48.5 10t19.5 25q0 13 -23.5 53t-23.5 68q0 46 35 78.5t86 32.5q57 0 92 -34.5t35 -90.5q0 -91 -80.5 -148 t-206.5 -57q-140 0 -213.5 66.5t-73.5 187.5z" />
<glyph unicode="&#x289;" horiz-adv-x="1138" d="M-33 457l31 94h133l21 72q34 125 34 153q0 25 -25.5 39.5t-92.5 18.5v55q76 1 204.5 18.5t225.5 38.5l-123 -395h268q47 120 115 369h241l-108 -369h162l-27 -94h-164l-22 -82q-52 -181 -52 -211q0 -43 29 -43q27 0 61 34.5t87 116.5l45 -26q-80 -138 -157.5 -201 t-168.5 -63q-139 0 -139 122q0 42 11.5 87.5t41.5 138.5h-2q-144 -210 -224.5 -279t-181.5 -69q-159 0 -159 161q0 59 45 217l26 97h-135zM274 180q0 -51 50 -51q57 0 143 113q85 112 135 215h-256l-39 -129q-33 -105 -33 -148z" />
<glyph unicode="&#x28a;" d="M31 324q0 59 21.5 119.5t50.5 105t70 88.5t67 67t53 44q51 40 51 77q0 22 -9.5 37t-25.5 15h-149v49h393q-32 -67 -79.5 -158t-72.5 -142.5t-52 -121t-38.5 -139.5t-11.5 -152q0 -180 119 -180q51 0 96.5 31t76 73t58 101.5t41 100t25.5 85.5q49 175 49 393q0 70 -2 109 h368v-49h-153q-31 0 -48.5 -28.5t-17.5 -64.5q0 -23 26.5 -65t53.5 -100t27 -121q0 -86 -36 -167t-98 -142.5t-140 -108.5t-166 -71.5t-172 -24.5q-175 0 -275 94t-100 246z" />
<glyph unicode="&#x28b;" horiz-adv-x="1093" d="M37 193q0 25 20 102l117 407q12 60 12 68q0 40 -41 51q-43 11 -77 13v55q54 0 179.5 15.5t250.5 41.5l-207 -672q-8 -27 -8 -65q0 -56 47.5 -91.5t109.5 -35.5q111 0 214.5 84.5t163 203t59.5 224.5q0 41 -11.5 63.5t-38 44.5t-36.5 35q-39 47 -39 99q0 41 33 75.5 t83 34.5q75 0 107.5 -65t32.5 -164q0 -128 -47.5 -258.5t-129.5 -237t-205 -174t-261 -67.5q-328 0 -328 213z" />
<glyph unicode="&#x28c;" horiz-adv-x="909" d="M31 111q0 137 123 315q85 123 180.5 228.5t290.5 291.5h53q-10 -186 -10 -362q0 -359 51 -461q11 -21 33.5 -30t68.5 -9v-55q-210 -29 -319 -56q-34 108 -49 257.5t-15 426.5q-151 -172 -204.5 -252.5t-53.5 -134.5q0 -17 8.5 -31.5t32.5 -41.5q51 -57 51 -109 q0 -47 -35 -81t-81 -34q-56 0 -90.5 40.5t-34.5 97.5z" />
<glyph unicode="&#x28d;" horiz-adv-x="1366" d="M31 100q0 268 557 846h55l47 -584q14 25 52 96.5t59.5 110.5t56 98.5t66.5 106.5l114 172h56v-94q0 -9 -1 -50.5t-1 -76.5q0 -194 23.5 -393t53.5 -226q23 -20 88 -20v-55q-209 -34 -319 -58q-37 138 -52.5 261t-15.5 301l-319 -562h-55l-64 682q-246 -288 -246 -383 q0 -30 41 -77q45 -50 45 -99q0 -59 -33.5 -91t-82.5 -32q-51 0 -88 38t-37 89z" />
<glyph unicode="&#x28e;" horiz-adv-x="909" d="M33 131q0 155 155 464t355 554q85 103 179 160t179 57q54 0 90.5 -35.5t36.5 -87.5q0 -44 -31 -79.5t-71 -35.5q-41 0 -73.5 18.5t-61 37t-58.5 18.5q-26 0 -65.5 -30t-71.5 -76q-51 -71 -51 -146q0 -106 102 -590q43 -192 82 -231q17 -17 30 -21t52 -4v-55 q-178 -16 -307 -49q-86 224 -135 561l-23 160h-4q-106 -202 -142 -289t-36 -135q0 -19 10 -31.5t41 -38.5q36 -30 50 -52t14 -58q0 -43 -33 -80t-86 -37q-51 0 -89 39t-38 92z" />
<glyph unicode="&#x28f;" horiz-adv-x="1296" d="M133 915v35h543v-35l-47 -4q-70 -7 -85 -18q-14 -11 -14 -31q0 -10 19 -74l108 -325l242 250q39 42 57.5 63.5t35 49t16.5 46.5q0 21 -25.5 29.5t-97.5 13.5v35h356v-35q-79 -11 -123 -55l-428 -438l-65 -250q-15 -58 -15 -72q0 -34 26 -46.5t99 -18.5v-35h-561v35 q69 5 104.5 20t52 41.5t31.5 83.5l50 191l-166 460q-12 35 -42.5 58t-70.5 26z" />
<glyph unicode="&#x290;" horiz-adv-x="901" d="M-49 0v45l559 678h-279q-59 0 -92.5 -27.5t-56.5 -97.5l-55 6l90 316h637v-21l-588 -702h356q59 0 123 122h57l-198 -563q-15 -45 -15 -69q0 -38 15.5 -54t48.5 -16q76 0 76 35q0 13 -23.5 53t-23.5 68q0 46 34.5 78t85.5 32q57 0 92 -34.5t35 -90.5q0 -91 -77 -147.5 t-201 -56.5q-59 0 -99 32t-40 88q0 45 20 103l82 223h-563z" />
<glyph unicode="&#x291;" horiz-adv-x="841" d="M-49 0v45l559 678h-279q-59 0 -92.5 -27.5t-56.5 -97.5l-55 6l90 316h637v-21l-590 -702h194q111 172 234 172q94 0 136 -42.5t42 -111.5q0 -94 -75.5 -154.5t-217.5 -60.5h-145l-113 -199h-86l113 199h-295zM449 197h116q67 0 92 12.5t25 38.5q0 24 -25 38.5t-55 14.5 q-75 0 -153 -104z" />
<glyph unicode="&#x292;" horiz-adv-x="1021" d="M-20 -270q0 42 29.5 72t90.5 30q117 0 138 -137q7 -45 49 -74t92 -29q67 0 132 66.5t109 162t71.5 196.5t27.5 173q0 69 -28.5 111.5t-86.5 42.5q-128 0 -250 -96l-41 49l594 475h-418q-25 0 -61 -19t-74.5 -59.5t-58.5 -91.5h-53l155 320h746v-56l-504 -403 q46 12 111 12q95 0 162 -76t67 -204q0 -118 -38.5 -226.5t-102 -189t-143.5 -141t-166 -91t-167 -30.5q-84 0 -168 20.5t-124 50.5q-51 36 -70.5 69t-19.5 73z" />
<glyph unicode="&#x293;" horiz-adv-x="1021" d="M-20 -291q0 89 69 141t180 52q38 0 66.5 -10t56 -36.5t49.5 -77t39 -126.5q82 66 149.5 242t67.5 280q0 170 -114 170q-126 0 -250 -96l-41 49l594 475h-418q-25 0 -61.5 -19t-75 -59.5t-58.5 -91.5h-53l156 320h745v-56l-503 -403q50 12 106 12q42 0 81.5 -16t74.5 -49 t56.5 -91.5t21.5 -134.5q0 -91 -28 -183t-81.5 -178t-141.5 -159t-198 -117l45 -176h-98l-37 154q-41 -8 -109 -8q-145 0 -217.5 49.5t-72.5 142.5zM158 -276q0 -57 46.5 -94.5t114.5 -37.5q25 0 43 9q-13 51 -22 81.5t-24.5 68.5t-33.5 56.5t-40 18.5q-39 0 -61.5 -29 t-22.5 -73z" />
<glyph unicode="&#x294;" horiz-adv-x="1085" d="M51 0v49q77 7 125 45q27 21 38 40.5t26 74.5l155 569h64q99 0 178.5 64.5t121.5 164t42 210.5q0 126 -72 126q-52 0 -93 -39t-52 -87q-34 -130 -148 -130q-52 0 -80 32t-28 67q0 98 112 162q47 27 119.5 41t132.5 14q161 0 267 -83.5t106 -215.5q0 -102 -37 -197.5 t-102 -168.5t-161.5 -116.5t-207.5 -43.5l-90 -330q-25 -91 -25 -113q0 -37 24.5 -61t76.5 -25v-49h-492z" />
<glyph unicode="&#x295;" horiz-adv-x="1085" d="M133 0v49q147 13 178 123l111 406q-126 13 -193 100.5t-67 208.5q0 108 46.5 205t124 164.5t179.5 107t211 39.5q54 0 115.5 -18t101.5 -44q102 -65 102 -155q0 -35 -28 -67t-80 -32q-112 0 -146 123q-7 28 -11 41t-13.5 34.5t-19.5 31t-27 18t-39 8.5q-56 0 -117 -73 t-98 -162t-37 -145q0 -84 62 -134.5t143 -50.5h65l-166 -600q-6 -24 -6 -43q0 -82 101 -86v-49h-492z" />
<glyph unicode="&#x296;" horiz-adv-x="997" d="M51 150q0 60 30.5 98.5t96.5 38.5q27 0 48 -8t33.5 -19.5t21.5 -30.5t13.5 -35t8.5 -40q10 -52 43 -87.5t84 -35.5q59 0 113.5 59.5t86.5 148t32 175.5q0 56 -36.5 99t-87 63t-102.5 20h-65l159 596q7 28 7 43q0 82 -101 86v49h492v-49q-62 -5 -111 -34.5t-65 -88.5 l-107 -401q129 -13 205 -103t76 -209q0 -110 -45.5 -207t-121 -163.5t-176 -105t-208.5 -38.5q-80 0 -152.5 19.5t-122 61.5t-49.5 98z" />
<glyph unicode="&#x297;" horiz-adv-x="980" d="M41 -233q0 34 8 65l213 789q20 76 78 140t132.5 103t154 60.5t149.5 21.5q78 0 155 -30t130 -87.5t53 -126.5q0 -43 -32.5 -85t-96.5 -42q-46 0 -81.5 23.5t-35.5 60.5q0 33 12.5 62t12.5 53q0 52 -25.5 73t-79.5 21q-79 0 -149 -55t-92 -135l-223 -830q-13 -44 -13 -77 q0 -67 35 -110.5t96 -43.5q95 0 182 71.5t113 170.5l15 53h88l-23 -82q-36 -132 -164.5 -223.5t-294.5 -91.5q-131 0 -224 71t-93 181z" />
<glyph unicode="&#x298;" horiz-adv-x="1480" d="M27 481q0 147 53.5 287.5t146 252t211 196t255.5 130.5t272 46q247 0 392.5 -142.5t145.5 -371.5q0 -176 -78 -345t-205 -293t-297 -200t-345 -76q-156 0 -280.5 61.5t-197.5 180t-73 274.5zM289 406q0 -353 311 -353q125 0 244.5 82t205.5 210t138.5 289.5t52.5 315.5 q0 172 -74.5 267.5t-234.5 95.5q-166 0 -315.5 -130t-238.5 -340t-89 -437zM573 672q0 69 47 116.5t117 47.5q66 0 113 -47.5t47 -116.5q0 -68 -45.5 -114t-112.5 -46q-69 0 -117.5 46.5t-48.5 113.5z" />
<glyph unicode="&#x299;" horiz-adv-x="1009" d="M-20 0v35q82 9 111 29.5t44 80.5l176 656q8 27 8 51q0 32 -23 45t-81 18v35h469q151 0 231 -43.5t80 -126.5q0 -107 -73.5 -171t-223.5 -97q102 -14 165 -65.5t63 -127.5q0 -142 -130 -230.5t-350 -88.5h-466zM358 98q0 -51 74 -51q97 0 170.5 88t73.5 209 q0 135 -180 135h-39l-92 -342q-7 -31 -7 -39zM469 526h29q133 0 196.5 73.5t63.5 201.5q0 102 -107 102q-43 0 -66.5 -16t-33.5 -56z" />
<glyph unicode="&#x29a;" horiz-adv-x="952" d="M33 188q0 113 92.5 201.5t226.5 122.5q-68 35 -101.5 72.5t-33.5 91.5q0 80 39 140t106 93t144.5 48.5t165.5 15.5q155 0 257.5 -92t102.5 -252q0 -124 -41.5 -233.5t-108 -185.5t-149.5 -131t-166 -81.5t-157 -26.5q-108 0 -189.5 20t-134.5 70t-53 127zM319 201 q0 -60 39 -94.5t105 -34.5q67 0 142.5 46.5t138 121t104 177t41.5 204.5q0 123 -66 199.5t-170 76.5q-80 0 -135 -58.5t-55 -156.5q0 -59 49.5 -100t99.5 -41h37v-76h-108q-85 0 -153.5 -80.5t-68.5 -183.5z" />
<glyph unicode="&#x29b;" horiz-adv-x="1187" d="M59 328q0 120 57 234.5t149.5 198t215 134.5t246.5 51q116 0 242 -57q27 83 90 149q83 64 166 64q84 0 136 -36t52 -97q0 -37 -23.5 -60.5t-60.5 -23.5q-34 0 -57 21t-23 52q0 26 15.5 51t15.5 29q0 23 -39 23q-74 0 -98 -84l-99 -352h-36q-20 82 -36 121t-50 79 q-65 76 -187 76q-107 0 -204.5 -96.5t-154.5 -245.5t-57 -301q0 -114 47.5 -176t165.5 -62q138 0 170 117l25 88q12 48 12 72q0 35 -26.5 47.5t-102.5 17.5v33h514v-33q-84 -8 -116.5 -38.5t-51.5 -100.5l-43 -162q-81 -39 -197.5 -61.5t-234.5 -22.5q-194 0 -308 93.5 t-114 257.5z" />
<glyph unicode="&#x29c;" horiz-adv-x="1191" d="M43 0v35q81 9 110 28t44 74l180 674q8 36 8 45q0 30 -23.5 42t-82.5 17v35h503v-35q-82 -6 -115.5 -26.5t-48.5 -77.5l-75 -287h362l76 287q6 24 6 43q0 31 -24 43.5t-86 17.5v35h507v-35q-79 -6 -112.5 -27t-48.5 -77l-181 -674q-6 -24 -6 -41q0 -28 24.5 -40.5 t88.5 -20.5v-35h-508v35q84 9 115.5 28.5t44.5 73.5l86 322h-363l-86 -322q-6 -24 -6 -41q0 -29 24.5 -41t90.5 -20v-35h-504z" />
<glyph unicode="&#x29d;" horiz-adv-x="972" d="M-102 -276q0 67 32.5 122.5t83 89.5t109 53t113.5 19q90 0 141 -26l166 653q24 91 24 137q0 32 -20 47t-64 15h-45v55q280 24 428 57l-237 -909q-23 -90 -60 -178q27 -26 51 -56.5t45 -69.5t34.5 -65t35.5 -75.5t31 -69.5h-98q-20 52 -34.5 84.5t-45 81.5t-64.5 80 q-84 -133 -175.5 -189.5t-217.5 -56.5q-105 0 -169 57t-64 144zM-20 -274q0 -59 46.5 -90t108.5 -31q42 0 75 17t56.5 49.5t38.5 67.5t29 83l20 72q-53 32 -153 32q-77 0 -149 -57t-72 -143zM672 1268q0 54 40.5 94.5t94.5 40.5q58 0 99.5 -41t41.5 -98t-41.5 -97.5 t-99.5 -40.5q-57 0 -96 41t-39 101z" />
<glyph unicode="&#x29e;" d="M45 0v51q75 10 126 37.5t151 118.5l131 119q-29 147 -52 240.5t-42.5 142t-34.5 65.5t-33 17q-30 0 -60.5 -30t-70.5 -102l-45 23q66 140 133.5 197t148.5 57q65 0 107.5 -40.5t76 -137.5t68.5 -279l80 56l102 385h250l-321 -1160q-15 -52 -15 -86q0 -41 14.5 -55 t47.5 -14h70v-56q-198 -10 -428 -61l253 944q-194 -152 -265.5 -223t-71.5 -111q0 -25 21 -34.5t81 -12.5v-51h-422z" />
<glyph unicode="&#x29f;" horiz-adv-x="993" d="M20 0v35q70 8 100 33t40 69l166 672q8 40 8 49q0 30 -21 42t-73 15v35h487v-35q-87 -3 -115.5 -26.5t-50.5 -110.5l-155 -620q-9 -32 -9 -47q0 -64 123 -64q78 0 130 17.5t100 56.5q73 59 163 198h45l-135 -319h-803z" />
<glyph unicode="&#x2a0;" horiz-adv-x="999" d="M2 240q0 171 111 364q91 159 210 250.5t236 91.5q36 0 69 -12.5t48 -32.5q22 -28 35 -102l49 190q53 203 330 203q130 0 210 -57t80 -148q0 -58 -34.5 -94.5t-90.5 -36.5q-52 0 -87 34.5t-35 82.5q0 31 11.5 54t22.5 37.5t11 25.5q0 38 -60 38q-51 0 -81 -30t-50 -99 l-287 -1024q-73 -267 -73 -282q0 -58 100 -58h35v-55h-549v55q92 0 126.5 27t61.5 115l125 424q-65 -122 -142 -175t-173 -53q-99 0 -154 70.5t-55 196.5zM258 238q0 -117 80 -117q93 0 180 151q55 97 101.5 248.5t46.5 239.5q0 44 -19 71t-53 27q-55 0 -118.5 -72.5 t-108.5 -162.5q-49 -101 -79 -206t-30 -179z" />
<glyph unicode="&#x2a1;" horiz-adv-x="1085" d="M51 0v49q77 7 125 45q27 21 38 40.5t26 74.5l32 123h-135l25 94h135l98 352h64q99 0 178.5 64.5t121.5 164t42 210.5q0 126 -72 126q-52 0 -93 -39t-52 -87q-34 -130 -148 -130q-52 0 -80 32t-28 67q0 98 112 162q47 27 119.5 41t132.5 14q161 0 267 -83.5t106 -215.5 q0 -102 -37 -197.5t-102 -168.5t-161.5 -116.5t-207.5 -43.5l-43 -152h135l-24 -94h-136l-22 -84q-25 -97 -25 -113q0 -37 24.5 -61t76.5 -25v-49h-492z" />
</font>
</defs>
</svg>
