<?xml version="1.0" standalone="no"?>
<!DOCTYPE svg PUBLIC "-//W3C//DTD SVG 1.1//EN" "http://www.w3.org/Graphics/SVG/1.1/DTD/svg11.dtd" >
<svg xmlns="http://www.w3.org/2000/svg">
<metadata></metadata>
<defs>
<font id="dejavu_serifbold" horiz-adv-x="1716" >
<font-face units-per-em="2048" ascent="1556" descent="-492" />
<missing-glyph horiz-adv-x="713" />
<glyph unicode="&#xfb00;" horiz-adv-x="1681" d="M1021 942h-446v-821h206v-121h-710v121h150v821h-158v121h158v133q0 177 113 268.5t333 91.5q84 0 165 -9.5t159 -28.5v-228h-112q-8 78 -45 116t-107 38q-80 0 -116 -57.5t-36 -186.5v-137h446v133q0 177 113 268.5t333 91.5q84 0 165 -9.5t159 -28.5v-228h-112 q-8 78 -45 116t-107 38q-80 0 -116 -57.5t-36 -186.5v-137h268v-121h-268v-821h206v-121h-710v121h150v821z" />
<glyph unicode="fi" horiz-adv-x="1489" d="M1210 1268h-112q-11 86 -71 131t-165 45q-148 0 -217.5 -71t-69.5 -224v-86h715v-942h152v-121h-635v121h129v821h-361v-821h130v-121h-635v121h151v821h-158v121h158v76q0 206 141 311.5t418 105.5q97 0 204.5 -12t225.5 -37v-239z" />
<glyph unicode="fl" horiz-adv-x="1489" d="M221 1139q0 213 146 315t452 102h467v-1435h152v-121h-635v121h129v1323h-88q-141 0 -205 -70t-64 -225v-86h242v-121h-242v-821h130v-121h-635v121h151v821h-158v121h158v76z" />
<glyph unicode="&#xfb03;" horiz-adv-x="2293" d="M1021 942h-445v-821h205v-121h-710v121h151v821h-158v121h158v133q0 177 113 268.5t332 91.5q85 0 166 -9.5t159 -28.5v-228h-112q-8 78 -45.5 116t-106.5 38q-80 0 -116 -57.5t-36 -186.5v-137h445v76q0 206 141 311.5t418 105.5q97 0 204.5 -12t225.5 -37v-239h-112 q-11 86 -71 131t-165 45q-148 0 -217.5 -71t-69.5 -224v-86h715v-942h152v-121h-635v121h129v821h-361v-821h130v-121h-635v121h151v821z" />
<glyph unicode="&#xfb04;" horiz-adv-x="2287" d="M1019 1063v76q0 213 146 315t452 102h467v-1435h152v-121h-635v121h129v1323h-88q-141 0 -205 -70t-64 -225v-86h242v-121h-242v-821h130v-121h-635v121h151v821h-444v-821h205v-121h-710v121h151v821h-158v121h158v133q0 177 113 268.5t332 91.5q85 0 166 -9.5 t159 -28.5v-228h-112q-8 78 -45.5 116t-106.5 38q-80 0 -116 -57.5t-36 -186.5v-137h444z" />
<glyph unicode="&#xd;" horiz-adv-x="682" />
<glyph unicode=" "  horiz-adv-x="713" />
<glyph unicode="&#x09;" horiz-adv-x="713" />
<glyph unicode="&#xa0;" horiz-adv-x="713" />
<glyph unicode="!" horiz-adv-x="899" d="M260 162q0 78 55.5 134t133.5 56t134 -56t56 -134q0 -79 -56 -135t-134 -56t-133.5 56t-55.5 135zM262 1493h375l-119 -842v-190h-139v190z" />
<glyph unicode="&#x22;" horiz-adv-x="1067" d="M432 1493v-555h-237v555h237zM872 1493v-555h-237v555h237z" />
<glyph unicode="#" d="M1024 872h-264l-70 -274h264zM911 1470l-96 -385h264l97 385h221l-97 -385h277v-213h-330l-69 -274h284v-215h-336l-96 -383h-221l96 383h-264l-96 -383h-223l96 383h-279v215h328l70 274h-283v213h338l96 385h223z" />
<glyph unicode="$" horiz-adv-x="1425" d="M195 59v291h120q17 -134 95.5 -200t222.5 -66h14v405q-249 55 -357 150t-108 258q0 180 122.5 283.5t342.5 109.5v269h121v-269q112 -6 214.5 -27.5t199.5 -60.5v-272h-121q-16 116 -92.5 180.5t-200.5 66.5v-372q269 -59 378 -158.5t109 -279.5q0 -185 -126.5 -287.5 t-360.5 -108.5v-270h-121v270q-110 2 -223 24t-229 64zM647 1178q-85 -11 -134.5 -53t-49.5 -103q0 -70 42.5 -113t141.5 -71v340zM768 84q101 11 153 54.5t52 117.5t-48.5 122t-156.5 79v-373z" />
<glyph unicode="%" horiz-adv-x="1946" d="M442 1419q-64 0 -92 -69.5t-28 -235.5q0 -167 28 -237t92 -70q65 0 93 70t28 237q0 166 -28 235.5t-93 69.5zM442 1520q191 0 292.5 -104.5t101.5 -301.5t-101.5 -302t-292.5 -105q-190 0 -291.5 105t-101.5 302t101.5 301.5t291.5 104.5zM1354 1520h172l-934 -1549h-172 zM1503 784q191 0 292 -104.5t101 -300.5q0 -197 -101 -302.5t-292 -105.5q-190 0 -291.5 105.5t-101.5 302.5q0 196 101.5 300.5t291.5 104.5zM1503 684q-65 0 -93 -69.5t-28 -235.5q0 -167 28.5 -237t92.5 -70q65 0 93 70t28 237q0 166 -28 235.5t-93 69.5z" />
<glyph unicode="&#x26;" horiz-adv-x="1849" d="M1812 0h-479l-127 131q-100 -80 -221 -120t-264 -40q-300 0 -469.5 128t-169.5 352q0 163 86.5 278.5t271.5 198.5q-51 67 -76.5 128t-25.5 118q0 164 137.5 255t386.5 91q74 0 172.5 -12t222.5 -35v-312h-129q-18 124 -76 181t-165 57q-101 0 -159 -48t-58 -130 q0 -92 179 -274q20 -20 30 -29l460 -482q60 68 94 157t43 202h-182v120h500v-120h-176q-17 -146 -62.5 -259t-119.5 -200l206 -215h170v-121zM1112 229l-565 588q-55 -67 -83 -142.5t-28 -158.5q0 -169 106.5 -278t270.5 -109q78 0 151.5 24.5t147.5 75.5z" />
<glyph unicode="'" horiz-adv-x="627" d="M432 1493v-555h-237v555h237z" />
<glyph unicode="(" horiz-adv-x="969" d="M862 -319q-337 125 -503 358t-166 579t164 576t505 362v-120q-158 -96 -227.5 -284.5t-69.5 -533.5q0 -344 69.5 -532.5t227.5 -284.5v-120z" />
<glyph unicode=")" horiz-adv-x="969" d="M104 -319v120q158 96 227.5 284.5t69.5 532.5q0 345 -69.5 533.5t-227.5 284.5v120q341 -132 505.5 -362t164.5 -576t-166.5 -579t-503.5 -358z" />
<glyph unicode="*" horiz-adv-x="1071" d="M1026 1212l-360 -168l360 -170l-98 -155l-328 239l27 -389h-183l27 389l-328 -239l-98 155l361 170l-361 168l98 158l328 -242l-27 392h183l-27 -392l328 242z" />
<glyph unicode="+" d="M973 1284v-526h526v-230h-526v-526h-230v526h-526v230h526v526h230z" />
<glyph unicode="," horiz-adv-x="713" d="M27 -197q104 84 153 188t49 242v86h285v-8q0 -221 -92.5 -380.5t-284.5 -268.5z" />
<glyph unicode="-" horiz-adv-x="850" d="M111 684h628v-270h-628v270z" />
<glyph unicode="." horiz-adv-x="713" d="M166 162q0 78 56 134t134 56q79 0 135 -56t56 -134q0 -79 -56 -135t-135 -56q-78 0 -134 56t-56 135z" />
<glyph unicode="/" horiz-adv-x="748" d="M526 1493h222l-527 -1683h-221z" />
<glyph unicode="0" horiz-adv-x="1425" d="M713 88q120 0 164.5 109t44.5 548q0 436 -44.5 547t-164.5 111t-164.5 -109t-44.5 -549q0 -439 44.5 -548t164.5 -109zM713 -29q-299 0 -458 199.5t-159 574.5t159 575t458 200q298 0 457 -200t159 -575t-159 -574.5t-457 -199.5z" />
<glyph unicode="1" horiz-adv-x="1425" d="M281 0v121h280v1208l-311 -184v149l375 226h315v-1399h281v-121h-940z" />
<glyph unicode="2" horiz-adv-x="1425" d="M270 1124h-120v322q122 37 241.5 55.5t241.5 18.5q285 0 444.5 -116.5t159.5 -324.5q0 -148 -88 -265.5t-336 -278.5l-416 -273h707v176h137v-438h-1104v244l221 153q283 195 377 332t94 320q0 173 -71.5 263.5t-208.5 90.5q-118 0 -189 -71.5t-90 -207.5z" />
<glyph unicode="3" horiz-adv-x="1425" d="M176 1450q132 35 256 52.5t242 17.5q270 0 414.5 -96.5t144.5 -276.5q0 -135 -83 -219t-243 -113q195 -31 291 -133t96 -279q0 -209 -165.5 -320.5t-479.5 -111.5q-118 0 -243.5 20t-262.5 60v328h121q11 -142 89 -216.5t216 -74.5q152 0 235 84.5t83 239.5 q0 162 -86.5 250t-245.5 88h-66v120h52q147 0 221 68t74 203q0 127 -69.5 194.5t-199.5 67.5q-118 0 -187 -64.5t-83 -187.5h-121v299z" />
<glyph unicode="4" horiz-adv-x="1425" d="M1307 0h-822v121h222v272h-623v115l625 1012h376v-998h256v-129h-256v-272h222v-121zM707 522v725l-445 -725h445z" />
<glyph unicode="5" horiz-adv-x="1425" d="M1155 1493v-262h-799v-328q66 51 147 77t171 26q276 0 436 -139.5t160 -379.5q0 -244 -160 -380t-448 -136q-122 0 -242.5 20t-251.5 62v326h120q6 -147 76.5 -219t208.5 -72q147 0 218 98.5t71 300.5q0 199 -69.5 297.5t-210.5 98.5q-76 0 -135.5 -31.5t-110.5 -97.5 h-100v739h919z" />
<glyph unicode="6" horiz-adv-x="1425" d="M504 885q65 52 145.5 78t175.5 26q229 0 359.5 -134t130.5 -368q0 -247 -147 -381.5t-418 -134.5q-306 0 -463.5 184.5t-157.5 542.5q0 407 175 614.5t519 207.5q90 0 193 -15t221 -45v-264h-121q-25 102 -94.5 154.5t-179.5 52.5q-178 0 -257.5 -122t-80.5 -396zM727 88 q103 0 147 87.5t44 303.5t-44 303.5t-147 87.5t-146.5 -87.5t-43.5 -303.5t43.5 -303.5t146.5 -87.5z" />
<glyph unicode="7" horiz-adv-x="1425" d="M1255 1239l-616 -1239h-203l600 1210h-737v-202h-137v485h1093v-254z" />
<glyph unicode="8" horiz-adv-x="1425" d="M952 795q178 -29 270.5 -131t92.5 -267q0 -206 -155.5 -316t-448.5 -110t-449 110t-156 316q0 165 93 267t270 131q-157 36 -235 120.5t-78 214.5q0 190 142 290t413 100q270 0 412.5 -100t142.5 -290q0 -130 -78.5 -214.5t-235.5 -120.5zM879 1126q0 158 -38 217.5 t-130 59.5q-93 0 -130.5 -59.5t-37.5 -217.5q0 -157 37.5 -215.5t130.5 -58.5t130.5 58.5t37.5 215.5zM918 414q0 183 -46.5 252t-160.5 69q-115 0 -161 -69t-46 -252q0 -185 46.5 -255.5t160.5 -70.5q113 0 160 70.5t47 255.5z" />
<glyph unicode="9" horiz-adv-x="1425" d="M698 1403q-103 0 -146.5 -87.5t-43.5 -303.5t43.5 -303.5t146.5 -87.5t147 87.5t44 303.5t-44 303.5t-147 87.5zM921 608q-66 -53 -146.5 -79.5t-174.5 -26.5q-228 0 -358.5 133.5t-130.5 368.5q0 248 146 382t417 134q306 0 464 -185t158 -542q0 -407 -175 -614.5 t-519 -207.5q-90 0 -193 15t-221 45v264h121q25 -102 94.5 -154.5t180.5 -52.5q176 0 256 122.5t81 397.5z" />
<glyph unicode=":" horiz-adv-x="756" d="M188 813q0 79 55.5 135t133.5 56t134 -56.5t56 -134.5t-55.5 -133t-134.5 -55t-134 55t-55 133zM188 162q0 78 55.5 134t133.5 56t134 -56t56 -134q0 -79 -56 -135t-134 -56t-133.5 56t-55.5 135z" />
<glyph unicode=";" horiz-adv-x="756" d="M188 813q0 79 55.5 135t133.5 56t134 -56.5t56 -134.5t-55.5 -133t-134.5 -55t-134 55t-55 133zM53 -188q105 83 154 186.5t49 241.5v88h285q0 -225 -93 -387t-284 -271z" />
<glyph unicode="&#x3c;" d="M1499 979l-979 -338l979 -336v-239l-1282 464v226l1282 463v-240z" />
<glyph unicode="=" d="M217 528h1282v-227h-1282v227zM217 983h1282v-227h-1282v227z" />
<glyph unicode="&#x3e;" d="M217 979v240l1282 -463v-226l-1282 -464v239l979 336z" />
<glyph unicode="?" horiz-adv-x="1200" d="M342 162q0 78 56 134t134 56q79 0 135 -56t56 -134q0 -79 -56 -135t-135 -56q-78 0 -134 56t-56 135zM133 1452q124 34 236 51t217 17q252 0 387 -110.5t135 -315.5q0 -202 -130.5 -318.5t-375.5 -134.5v-205h-139v299q140 43 205 135t65 246q0 144 -61 217.5t-180 73.5 q-110 0 -169.5 -66t-68.5 -196h-121v307z" />
<glyph unicode="@" horiz-adv-x="2048" d="M1272 504v76q0 129 -62 207.5t-163 78.5q-99 0 -159.5 -87.5t-60.5 -235.5t60.5 -236t159.5 -88q101 0 163 77.5t62 207.5zM1272 240q-44 -72 -115.5 -110t-161.5 -38q-191 0 -300 120t-109 331t109 330.5t300 119.5q90 0 161.5 -38t115.5 -109v125h219v-742 q143 39 221 156t78 293q0 143 -55 260t-168 213q-92 78 -216 120t-264 42q-130 0 -243 -35t-207 -104q-142 -106 -218.5 -270t-76.5 -361q0 -155 48.5 -292.5t137.5 -238.5q107 -119 246.5 -180t302.5 -61q122 0 236 34t217 101l57 -94q-128 -84 -266.5 -126t-282.5 -42 q-194 0 -356 63t-289 189q-126 124 -192 289.5t-66 357.5t66 357t192 290q128 126 291.5 188t368.5 62q178 0 324 -48.5t261 -146.5q133 -111 199 -253t66 -316q0 -276 -158 -430t-442 -154h-31v148z" />
<glyph unicode="A" horiz-adv-x="1589" d="M-16 0v121h122l562 1372h239l563 -1372h142v-121h-699v121h146l-123 305h-561l-125 -305h178v-121h-444zM424 547h463l-230 571z" />
<glyph unicode="B" horiz-adv-x="1731" d="M96 0v121h191v1251h-191v121h885q273 0 410 -92t137 -277q0 -133 -94.5 -211t-280.5 -98q225 -21 345 -120t120 -263q0 -222 -167.5 -327t-524.5 -105h-830zM672 870h131q172 0 255 62.5t83 191.5q0 130 -80.5 189t-257.5 59h-131v-502zM672 121h143q191 0 283 76t92 235 q0 160 -93 239t-282 79h-143v-629z" />
<glyph unicode="C" horiz-adv-x="1630" d="M1526 426q-59 -231 -212 -343t-411 -112q-378 0 -597.5 208.5t-219.5 565.5q0 358 219.5 566.5t597.5 208.5q133 0 277 -32t305 -97v-367h-127q-39 188 -142 281.5t-272 93.5q-218 0 -324 -160.5t-106 -493.5t106 -493t326 -160q149 0 243.5 83t137.5 251h199z" />
<glyph unicode="D" horiz-adv-x="1776" d="M672 121h139q234 0 342.5 150t108.5 477q0 325 -108 474.5t-343 149.5h-139v-1251zM96 0v121h191v1251h-191v121h766q402 0 615 -192t213 -553q0 -363 -213.5 -555.5t-614.5 -192.5h-766z" />
<glyph unicode="E" horiz-adv-x="1561" d="M96 0v121h191v1251h-191v121h1342v-352h-138v215h-628v-479h391v190h137v-516h-137v190h-391v-604h647v215h137v-352h-1360z" />
<glyph unicode="F" horiz-adv-x="1454" d="M96 0v121h191v1251h-191v121h1331v-352h-137v215h-616v-479h379v190h137v-516h-137v190h-379v-620h235v-121h-813z" />
<glyph unicode="G" horiz-adv-x="1749" d="M1409 1024q-45 198 -150 286.5t-296 88.5q-232 0 -340.5 -157.5t-108.5 -496.5q0 -336 104 -494.5t324 -158.5q84 0 156 19t131 57v410h-180v120h538v-573q-168 -78 -335.5 -116t-342.5 -38q-384 0 -603.5 207t-219.5 567q0 361 219.5 568t603.5 207q160 0 315 -32 t312 -97v-367h-127z" />
<glyph unicode="H" horiz-adv-x="1935" d="M96 0v121h191v1251h-191v121h768v-121h-192v-502h594v502h-191v121h768v-121h-192v-1251h192v-121h-768v121h191v612h-594v-612h192v-121h-768z" />
<glyph unicode="I" horiz-adv-x="958" d="M96 0v121h191v1251h-191v121h768v-121h-192v-1251h192v-121h-768z" />
<glyph unicode="J" horiz-adv-x="969" d="M-150 -358v235h130q6 -94 44.5 -138t114.5 -44q97 0 135.5 74.5t38.5 279.5v1323h-217v121h795v-121h-191v-1331q0 -243 -122.5 -355t-389.5 -112q-83 0 -167 17t-171 51z" />
<glyph unicode="K" horiz-adv-x="1780" d="M96 0v121h191v1251h-191v121h768v-121h-192v-545l633 545h-160v121h557v-121h-199l-536 -461l729 -790h147v-121h-506l-665 725v-604h192v-121h-768z" />
<glyph unicode="L" horiz-adv-x="1440" d="M96 0v121h191v1251h-191v121h768v-121h-192v-1235h588v236h135v-373h-1299z" />
<glyph unicode="M" horiz-adv-x="2267" d="M86 0v121h190v1251h-190v121h616l426 -958l428 958h615v-121h-191v-1251h191v-121h-768v121h190v1139l-463 -1041h-253l-461 1041v-1139h190v-121h-520z" />
<glyph unicode="N" horiz-adv-x="1872" d="M90 0v121h191v1251h-191v121h467l901 -1057v936h-190v121h522v-121h-191v-1372h-262l-915 1079v-958h190v-121h-522z" />
<glyph unicode="O" horiz-adv-x="1784" d="M891 92q191 0 284 161t93 492q0 332 -93 493t-284 161q-190 0 -283.5 -162.5t-93.5 -491.5q0 -328 93.5 -490.5t283.5 -162.5zM891 -29q-377 0 -591 206t-214 568t214.5 568.5t590.5 206.5q377 0 591 -206t214 -569q0 -362 -214.5 -568t-590.5 -206z" />
<glyph unicode="P" horiz-adv-x="1540" d="M96 0v121h191v1251h-191v121h850q249 0 396 -118.5t147 -317.5q0 -200 -147.5 -319.5t-395.5 -119.5h-274v-497h241v-121h-817zM672 739h112q130 0 207.5 86.5t77.5 231.5q0 144 -77 229.5t-208 85.5h-112v-633z" />
<glyph unicode="Q" horiz-adv-x="1784" d="M885 -29q-378 6 -588.5 210t-210.5 564q0 362 214.5 568.5t590.5 206.5q377 0 591 -206t214 -569q0 -318 -164.5 -516t-468.5 -245q53 -57 129 -82t197 -25h51v-246h-29q-190 0 -317 82t-209 258zM891 92q191 0 284 161t93 492q0 332 -93 493t-284 161 q-190 0 -283.5 -162.5t-93.5 -491.5q0 -328 93.5 -490.5t283.5 -162.5z" />
<glyph unicode="R" horiz-adv-x="1702" d="M1087 729q89 -13 150 -59t106 -133l218 -416h153v-121h-491l-238 451q-69 140 -117.5 178.5t-134.5 38.5h-61v-547h192v-121h-768v121h191v1251h-191v121h852q260 0 401.5 -104.5t141.5 -296.5q0 -156 -100.5 -246.5t-303.5 -116.5zM672 788h131q140 0 215.5 76t75.5 217 t-75.5 216t-215.5 75h-131v-584z" />
<glyph unicode="S" horiz-adv-x="1479" d="M158 72v354h127q29 -168 137 -251t299 -83q155 0 236 59t81 173q0 90 -55 140t-227 93l-224 55q-219 56 -308 155.5t-89 283.5q0 222 147.5 345.5t413.5 123.5q131 0 272.5 -22t293.5 -66v-330h-127q-29 154 -127 225.5t-279 71.5q-148 0 -223.5 -51.5t-75.5 -153.5 q0 -93 52 -141.5t255 -100.5l224 -55q208 -52 301.5 -162t93.5 -303q0 -226 -156 -343.5t-459 -117.5q-146 0 -290 25t-293 76z" />
<glyph unicode="T" horiz-adv-x="1524" d="M371 0v121h198v1235h-409v-236h-137v373h1480v-373h-135v236h-412v-1235h199v-121h-784z" />
<glyph unicode="U" horiz-adv-x="1786" d="M260 1372h-190v121h768v-121h-191v-747q0 -279 87 -390.5t298 -111.5q206 0 292.5 112.5t86.5 389.5v747h-190v121h520v-121h-191v-768q0 -342 -148 -487.5t-497 -145.5q-347 0 -496 147t-149 488v766z" />
<glyph unicode="V" horiz-adv-x="1589" d="M1618 1493v-121h-125l-563 -1372h-238l-563 1372h-141v121h700v-121h-145l403 -989l406 989h-178v121h444z" />
<glyph unicode="W" horiz-adv-x="2300" d="M1745 0h-258l-338 1087l-338 -1087h-258l-426 1372h-145v121h708v-121h-160l285 -917l322 1038h284l328 -1055l291 934h-178v121h462v-121h-153z" />
<glyph unicode="X" horiz-adv-x="1589" d="M694 575l-311 -454h184v-121h-530v121h184l393 571l-467 680h-137v121h742v-121h-164l289 -420l286 420h-174v121h520v-121h-184l-369 -536l490 -715h141v-121h-745v121h166z" />
<glyph unicode="Y" horiz-adv-x="1462" d="M352 0v121h201v497l-444 754h-127v121h716v-121h-166l336 -569l334 569h-149v121h428v-121h-127l-414 -702v-549h201v-121h-789z" />
<glyph unicode="Z" horiz-adv-x="1495" d="M76 0v141l891 1215h-715v-223h-137v360h1296v-141l-881 -1215h754v209h137v-346h-1345z" />
<glyph unicode="[" horiz-adv-x="969" d="M256 1556h567v-120h-213v-1586h213v-120h-567v1826z" />
<glyph unicode="\" horiz-adv-x="748" d="M221 1493l527 -1683h-222l-526 1683h221z" />
<glyph unicode="]" horiz-adv-x="969" d="M713 1556v-1826h-568v120h213v1586h-213v120h568z" />
<glyph unicode="^" d="M973 1493l536 -557h-213l-438 315l-438 -315h-213l543 557h223z" />
<glyph unicode="_" horiz-adv-x="1024" d="M1024 -293v-190h-1024v190h1024z" />
<glyph unicode="`" horiz-adv-x="1024" d="M420 1638l258 -376h-164l-373 376h279z" />
<glyph unicode="a" horiz-adv-x="1327" d="M1128 653v-532h152v-121h-506v135q-70 -84 -156 -124t-196 -40q-163 0 -250.5 87.5t-87.5 250.5q0 179 125.5 268t378.5 89h186v63q0 129 -61 190.5t-189 61.5q-106 0 -163.5 -43.5t-81.5 -142.5h-113v229q95 34 197 51t215 17q285 0 417.5 -106t132.5 -333zM774 334v213 h-133q-99 0 -152 -54t-53 -155t38.5 -151t117.5 -50q82 0 132 54t50 143z" />
<glyph unicode="b" horiz-adv-x="1432" d="M199 121v1315h-152v120h506v-628q45 83 121 123.5t188 40.5q227 0 357.5 -149.5t130.5 -410.5t-130.5 -411t-357.5 -150q-112 0 -188 40.5t-121 123.5v-135h-506v121h152zM553 479q0 -186 47.5 -269t153.5 -83q109 0 153.5 88t44.5 317t-44.5 316.5t-153.5 87.5 q-106 0 -153.5 -83t-47.5 -269v-105z" />
<glyph unicode="c" horiz-adv-x="1247" d="M1155 332q-38 -182 -155.5 -271.5t-319.5 -89.5q-284 0 -440 147t-156 414q0 264 154 412t428 148q111 0 224 -21t230 -63v-295h-112q-16 135 -79 200.5t-177 65.5q-148 0 -210.5 -100t-62.5 -347q0 -241 61 -344.5t199 -103.5q107 0 171.5 64t78.5 184h166z" />
<glyph unicode="d" horiz-adv-x="1432" d="M879 479v105q0 186 -48 269t-153 83q-110 0 -154.5 -87.5t-44.5 -316.5t45 -317t154 -88q105 0 153 83t48 269zM1233 121h151v-121h-505v135q-45 -83 -121.5 -123.5t-188.5 -40.5q-226 0 -355.5 150t-129.5 411q0 262 129.5 411t355.5 149q112 0 188.5 -40.5 t121.5 -123.5v508h-152v120h506v-1435z" />
<glyph unicode="e" horiz-adv-x="1303" d="M821 600q0 210 -39 294.5t-133 84.5q-91 0 -130.5 -83t-39.5 -278v-18h342zM1210 481h-731v-8q0 -206 62 -297.5t200 -91.5q115 0 186 61t91 177h166q-43 -181 -171 -266t-358 -85q-276 0 -423.5 145.5t-147.5 415.5q0 264 151 412t420 148q264 0 405 -155.5t150 -455.5z " />
<glyph unicode="f" horiz-adv-x="881" d="M991 1290h-112q-8 78 -45.5 116t-106.5 38q-80 0 -116 -57.5t-36 -186.5v-137h267v-121h-267v-821h205v-121h-710v121h151v821h-158v121h158v133q0 177 113 268.5t332 91.5q85 0 166 -9.5t159 -28.5v-228z" />
<glyph unicode="g" horiz-adv-x="1432" d="M1233 942v-928q0 -224 -159.5 -346.5t-450.5 -122.5q-106 0 -215 16.5t-224 49.5v254h113q15 -105 84.5 -156t198.5 -51q164 0 231.5 78.5t67.5 277.5v121q-45 -83 -121.5 -123.5t-188.5 -40.5q-226 0 -355.5 150t-129.5 411q0 262 129.5 411t355.5 149 q112 0 188.5 -40.5t121.5 -123.5v135h505v-121h-151zM879 584q0 186 -48 269t-153 83q-110 0 -154.5 -87.5t-44.5 -316.5t45 -317t154 -88q105 0 153 83t48 269v105z" />
<glyph unicode="h" horiz-adv-x="1489" d="M70 0v121h151v1315h-158v120h512v-643q64 95 146 137t207 42q179 0 270.5 -105.5t91.5 -310.5v-555h152v-121h-635v121h129v565q0 135 -34.5 187.5t-119.5 52.5q-107 0 -157 -78.5t-50 -249.5v-477h130v-121h-635z" />
<glyph unicode="i" horiz-adv-x="778" d="M188 1364q0 81 56 136.5t137 55.5q79 0 134.5 -55.5t55.5 -136.5q0 -79 -55.5 -134.5t-134.5 -55.5q-81 0 -137 55t-56 135zM575 121h152v-121h-657v121h151v821h-151v121h505v-942z" />
<glyph unicode="j" horiz-adv-x="741" d="M178 1364q0 81 55.5 136.5t137.5 55.5q78 0 134 -56t56 -136q0 -79 -55.5 -134.5t-134.5 -55.5q-81 0 -137 55t-56 135zM219 942h-151v121h505v-1188q0 -163 -115.5 -246.5t-340.5 -83.5q-60 0 -128 10t-141 29v226l113 -1q2 -80 31.5 -115.5t95.5 -35.5q73 0 102 47 t29 170v1067z" />
<glyph unicode="k" horiz-adv-x="1419" d="M709 0h-639v121h151v1315h-151v120h505v-999l429 385h-127v121h485v-121h-197l-274 -246l448 -575h115v-121h-610v121h125l-295 379l-99 -88v-291h134v-121z" />
<glyph unicode="l" horiz-adv-x="778" d="M575 121h152v-121h-657v121h151v1315h-151v120h505v-1435z" />
<glyph unicode="m" horiz-adv-x="2167" d="M1243 889q74 106 160 154.5t201 48.5q183 0 273.5 -103.5t90.5 -312.5v-555h152v-121h-633v121h127v502q0 199 -30.5 251t-113.5 52q-94 0 -146 -72.5t-52 -206.5v-526h127v-121h-608v121h127v502q0 199 -31 251t-113 52q-95 0 -147 -72.5t-52 -206.5v-526h127v-121h-632 v121h151v821h-151v121h505v-150q62 93 142 136t190 43q130 0 211 -49.5t125 -153.5z" />
<glyph unicode="n" horiz-adv-x="1489" d="M70 0v121h151v821h-151v121h505v-150q64 95 146 137t207 42q179 0 270.5 -105.5t91.5 -310.5v-555h152v-121h-635v121h129v565q0 135 -34.5 187.5t-119.5 52.5q-107 0 -157 -78.5t-50 -249.5v-477h130v-121h-635z" />
<glyph unicode="o" horiz-adv-x="1366" d="M684 84q112 0 157.5 96t45.5 352t-45 351.5t-158 95.5t-159 -96.5t-46 -350.5t46 -351t159 -97zM684 -29q-281 0 -440.5 149.5t-159.5 411.5q0 263 159.5 411.5t440.5 148.5q282 0 441 -148.5t159 -411.5q0 -262 -159.5 -411.5t-440.5 -149.5z" />
<glyph unicode="p" horiz-adv-x="1432" d="M553 584v-105q0 -186 47.5 -269t153.5 -83q109 0 153.5 88t44.5 317t-44.5 316.5t-153.5 87.5q-106 0 -153.5 -83t-47.5 -269zM199 942h-152v121h506v-135q45 83 121 123.5t188 40.5q227 0 357.5 -149.5t130.5 -410.5t-130.5 -411t-357.5 -150q-112 0 -188 40.5 t-121 123.5v-440h164v-121h-670v121h152v1247z" />
<glyph unicode="q" horiz-adv-x="1432" d="M1233 942v-1247h151v-121h-669v121h164v440q-45 -83 -121.5 -123.5t-188.5 -40.5q-226 0 -355.5 150t-129.5 411q0 262 129.5 411t355.5 149q112 0 188.5 -40.5t121.5 -123.5v135h505v-121h-151zM879 584q0 186 -48 269t-153 83q-110 0 -154.5 -87.5t-44.5 -316.5 t45 -317t154 -88q105 0 153 83t48 269v105z" />
<glyph unicode="r" horiz-adv-x="1079" d="M1100 1075v-317h-113q-6 85 -46 126.5t-116 41.5q-116 0 -183 -102t-67 -283v-420h193v-121h-698v121h151v821h-162v121h516v-189q52 111 137.5 164.5t209.5 53.5q31 0 75.5 -4.5t102.5 -12.5z" />
<glyph unicode="s" horiz-adv-x="1153" d="M96 31v297h113q14 -119 89 -181.5t204 -62.5q108 0 165.5 37.5t57.5 107.5q0 64 -36.5 99t-141.5 61l-146 37q-165 41 -239 117.5t-74 206.5q0 173 120 257.5t370 84.5q94 0 200.5 -15.5t235.5 -48.5v-268h-113q-9 109 -77.5 164t-196.5 55q-108 0 -163.5 -34.5 t-55.5 -100.5q0 -54 32 -85t115 -52l145 -37q209 -53 289 -131t80 -217q0 -180 -128.5 -265.5t-399.5 -85.5q-99 0 -210 15t-235 45z" />
<glyph unicode="t" horiz-adv-x="946" d="M203 942h-154v121h154v330h354v-330h295v-121h-295v-651q0 -139 22 -173t80 -34q64 0 95 43t33 133h149q-9 -160 -87.5 -224.5t-270.5 -64.5q-219 0 -297 68.5t-78 251.5v651z" />
<glyph unicode="u" horiz-adv-x="1489" d="M1268 1063v-942h151v-121h-506v150q-63 -95 -145 -137t-207 -42q-179 0 -270.5 105.5t-91.5 310.5v555h-152v121h506v-621q0 -198 33 -251.5t121 -53.5q107 0 156.5 79t49.5 251v475h-129v121h484z" />
<glyph unicode="v" horiz-adv-x="1190" d="M457 0l-377 942h-117v121h610v-121h-129l269 -672l268 672h-139v121h399v-121h-123l-377 -942h-284z" />
<glyph unicode="w" horiz-adv-x="1763" d="M1104 1063l242 -709l200 588h-139v121h397v-121h-125l-321 -942h-244l-225 666l-227 -666h-242l-322 942h-116v121h602v-121h-125l196 -575l238 696h211z" />
<glyph unicode="x" horiz-adv-x="1221" d="M719 678l188 264h-131v121h414v-121h-141l-271 -379l316 -442h141v-121h-676v121h137l-200 280l-201 -280h143v-121h-438v121h152l282 397l-305 424h-119v121h649v-121h-129z" />
<glyph unicode="y" horiz-adv-x="1190" d="M639 -240q-48 -117 -116 -166t-183 -49q-49 0 -109 11t-131 32v222l113 -1q3 -77 36.5 -114t100.5 -37q65 0 105 35.5t80 134.5l16 37l-463 1077h-115v121h613v-121h-127l270 -629l252 629h-141v121h399v-121h-129z" />
<glyph unicode="z" horiz-adv-x="1163" d="M72 0v121l610 825h-459v-182h-119v299h990v-119l-611 -825h492v192h119v-311h-1022z" />
<glyph unicode="{" horiz-adv-x="1317" d="M1133 -213v-121h-148q-236 0 -318 24.5t-132 86.5q-29 36 -41.5 91t-12.5 167v250q0 151 -53.5 208.5t-194.5 57.5h-61v121h61q141 0 194.5 57.5t53.5 208.5v250q0 112 12.5 166.5t41.5 91.5q50 61 132 85.5t318 24.5h148v-120h-103q-112 0 -153 -47t-41 -183v-270 q0 -159 -49.5 -226.5t-178.5 -97.5q131 -34 179.5 -100t48.5 -225v-271q0 -135 41 -182t153 -47h103z" />
<glyph unicode="|" horiz-adv-x="745" d="M479 1565v-2048h-215v2048h215z" />
<glyph unicode="}" horiz-adv-x="1317" d="M186 -213h101q111 0 152.5 47t41.5 182v271q0 157 49 224t181 101q-130 30 -180 98t-50 226v270q0 136 -41.5 183t-152.5 47h-101v120h146q236 0 318 -24.5t132 -85.5q29 -37 41.5 -91.5t12.5 -166.5v-250q0 -151 53.5 -208.5t193.5 -57.5h62v-121h-62 q-140 0 -193.5 -57.5t-53.5 -208.5v-250q0 -112 -12.5 -167t-41.5 -91q-50 -62 -132 -86.5t-318 -24.5h-146v121z" />
<glyph unicode="~" d="M1499 831v-206q-93 -86 -186.5 -127t-194.5 -41q-95 0 -247 58q-17 6 -25 9q-7 3 -20 8q-172 66 -269 66q-77 0 -160.5 -36t-179.5 -109v206q96 87 188.5 127.5t192.5 40.5q95 0 246 -57q18 -7 26 -10l15 -6q173 -68 274 -68q77 0 160.5 36t179.5 109z" />
<glyph unicode="&#xa1;" horiz-adv-x="899" d="M639 1329q0 -78 -56 -133t-134 -55q-79 0 -134 55t-55 133q0 79 55.5 135t133.5 56t134 -56.5t56 -134.5zM637 0h-375l117 842v190h139v-190z" />
<glyph unicode="&#xa2;" horiz-adv-x="1425" d="M739 94v875q-99 -25 -142.5 -125.5t-43.5 -311.5t43 -311t143 -127zM1233 332q-32 -157 -126.5 -246.5t-246.5 -108.5v-276h-121v270q-277 6 -428 152.5t-151 408.5t151 407.5t428 152.5v264h121v-269q59 -4 139.5 -23t198.5 -56v-295h-113q-15 126 -70 190.5t-155 75.5 v-891q91 16 143 77t64 167h166z" />
<glyph unicode="&#xa3;" horiz-adv-x="1425" d="M1247 1202h-120q-6 97 -55.5 151t-133.5 54q-117 0 -168 -74.5t-51 -249.5v-268h352v-121h-352v-557h420v228h137v-365h-1129v121h193v573h-193v121h193v277q0 216 133.5 322t407.5 106q65 0 155.5 -9t210.5 -26v-283z" />
<glyph unicode="&#xa4;" horiz-adv-x="1303" d="M653 422q91 0 155 63.5t64 155.5t-63.5 155.5t-155.5 63.5q-91 0 -155 -63.5t-64 -155.5q0 -93 63 -156t156 -63zM436 268l-209 -207l-151 154l209 209q-31 46 -45.5 99.5t-14.5 117.5q0 63 15 117t45 100l-209 205l153 158l207 -211q48 30 102 44.5t115 14.5 q55 0 109.5 -14.5t111.5 -44.5l205 211l152 -154l-209 -205q30 -56 44.5 -111.5t14.5 -109.5q0 -63 -14.5 -115.5t-44.5 -99.5l209 -211l-156 -154l-207 211q-46 -30 -99 -44.5t-116 -14.5q-58 0 -112 14t-105 41z" />
<glyph unicode="&#xa5;" horiz-adv-x="1425" d="M326 0v121h190v346h-403v117h403v59l-61 135h-342v117h286l-223 477h-137v121h694v-121h-170l258 -551l256 551h-151v121h436v-121h-135l-221 -477h292v-117h-350l-53 -116v-78h403v-117h-403v-346h190v-121h-759z" />
<glyph unicode="&#xa6;" horiz-adv-x="745" d="M479 1432v-758h-215v758h215zM479 408v-758h-215v758h215z" />
<glyph unicode="&#xa7;" horiz-adv-x="1071" d="M897 1475v-240h-119q-6 86 -58 129t-149 43q-81 0 -126.5 -37t-45.5 -104q0 -47 27 -80t117 -80l135 -72q189 -98 259.5 -182t70.5 -199q0 -104 -57 -178t-171 -117q83 -47 121.5 -110.5t38.5 -153.5q0 -137 -109 -213t-309 -76q-83 0 -173.5 11.5t-192.5 33.5v240h118 q8 -90 60 -131t158 -41q87 0 133.5 37t46.5 106q0 47 -26.5 80t-117.5 80l-135 72q-188 99 -259 183t-71 198q0 103 57.5 176t172.5 117q-83 46 -122.5 110.5t-39.5 153.5q0 136 109 212.5t305 76.5q74 0 161 -11.5t191 -33.5zM395 901q-44 -33 -67 -72t-23 -84 q0 -61 45.5 -112t155.5 -109l168 -88q45 35 68.5 74.5t23.5 81.5q0 60 -46.5 111t-158.5 110z" />
<glyph unicode="&#xa8;" horiz-adv-x="1024" d="M141 1468q0 60 44 103t104 43t102.5 -43t42.5 -103t-43 -103.5t-102 -43.5q-60 0 -104 44t-44 103zM588 1468q0 60 43.5 103t103.5 43t104 -43t44 -103q0 -59 -44 -103t-104 -44t-103.5 44t-43.5 103z" />
<glyph unicode="&#xa9;" horiz-adv-x="2048" d="M1024 1485q152 0 283.5 -55t240.5 -164t163 -240t54 -285q0 -152 -54 -282.5t-163 -239.5t-240.5 -164t-283.5 -55t-283.5 55t-240.5 164t-163 239.5t-54 282.5q0 154 54 285t163 240t240.5 164t283.5 55zM1024 1331q-121 0 -225 -43.5t-191 -130.5q-86 -86 -129 -189.5 t-43 -226.5q0 -122 43 -225.5t129 -189.5t190.5 -129t225.5 -43q123 0 226 42.5t190 129.5q86 86 129 189.5t43 225.5q0 123 -43 226.5t-129 189.5q-88 88 -191.5 131t-224.5 43zM1391 580q-27 -139 -118.5 -209t-246.5 -70q-188 0 -304 121t-116 319q0 202 117 322.5 t313 120.5q79 0 159 -18.5t167 -57.5v-223h-105q-12 94 -64.5 147t-133.5 53q-104 0 -163.5 -91.5t-59.5 -252.5t59 -251.5t164 -90.5q73 0 122 46t72 135h138z" />
<glyph unicode="&#xaa;" horiz-adv-x="997" d="M113 639h798v-135h-798v135zM846 1212v-362h115v-94h-379v92q-51 -57 -115.5 -84t-149.5 -27q-123 0 -189.5 61t-66.5 175q0 128 94.5 191t286.5 63h140v28q0 90 -47 134.5t-142 44.5q-76 0 -120 -32.5t-54 -94.5h-96v166q73 23 150 35t161 12q214 0 313 -74t99 -234z M582 1001v132h-101q-72 0 -113.5 -37.5t-41.5 -102.5q0 -62 30.5 -95.5t87.5 -33.5q63 0 100.5 37t37.5 100z" />
<glyph unicode="&#xab;" horiz-adv-x="1280" d="M1087 1069v-147l-239 -322l239 -321v-148l-469 385v168zM627 1069v-147l-240 -322l240 -321v-148l-469 385v168z" />
<glyph unicode="&#xac;" d="M217 903h1282v-616h-229v389h-1053v227z" />
<glyph unicode="&#xad;" horiz-adv-x="850" d="M111 684h628v-270h-628v270z" />
<glyph unicode="&#xae;" horiz-adv-x="2048" d="M1166 754q39 -11 69 -37.5t49 -67.5l100 -215h60v-82h-223l-117 254q-32 68 -61.5 89.5t-84.5 21.5h-26v-283h86v-82h-369v82h86v643h-86v82h453q120 0 189 -55t69 -150q0 -89 -49.5 -140t-144.5 -60zM932 799h67q79 0 121.5 36t42.5 103t-42.5 103t-121.5 36h-67v-278z M1024 1485q152 0 283.5 -55t240.5 -164t163 -240t54 -285q0 -152 -54 -282.5t-163 -239.5t-240.5 -164t-283.5 -55t-283.5 55t-240.5 164t-163 239.5t-54 282.5q0 154 54 285t163 240t240.5 164t283.5 55zM1024 1331q-121 0 -225 -43.5t-191 -130.5q-86 -86 -129 -189.5 t-43 -226.5q0 -122 43 -225.5t129 -189.5t190.5 -129t225.5 -43q123 0 226 42.5t190 129.5q86 86 129 189.5t43 225.5q0 123 -43 226.5t-129 189.5q-88 88 -191.5 131t-224.5 43z" />
<glyph unicode="&#xaf;" horiz-adv-x="1024" d="M197 1548h630v-188h-630v188z" />
<glyph unicode="&#xb0;" horiz-adv-x="1024" d="M512 1534q66 0 127 -25.5t109 -72.5q47 -48 71.5 -108t24.5 -128q0 -67 -24.5 -127.5t-69.5 -105.5q-48 -48 -110 -73.5t-130 -25.5q-141 0 -236.5 95.5t-95.5 236.5t96.5 237.5t237.5 96.5zM512 1372q-72 0 -122 -50t-50 -122t49.5 -121t122.5 -49q72 0 122 49.5 t50 120.5q0 72 -50.5 122t-121.5 50z" />
<glyph unicode="&#xb1;" d="M217 227h1282v-227h-1282v227zM973 1284v-358h526v-228h-526v-358h-230v358h-526v228h526v358h230z" />
<glyph unicode="&#xb2;" horiz-adv-x="897" d="M188 1284h-94v195q72 20 147.5 30.5t155.5 10.5q181 0 281 -64t100 -178q0 -82 -54.5 -146.5t-211.5 -154.5l-244 -139h414v96h100v-250h-696v133l129 84q187 123 237 193t50 163q0 84 -41.5 131.5t-114.5 47.5q-63 0 -106.5 -41.5t-51.5 -110.5z" />
<glyph unicode="&#xb3;" horiz-adv-x="897" d="M111 1481q88 19 162.5 29t138.5 10q180 0 273 -52.5t93 -152.5q0 -72 -52.5 -119t-154.5 -63q120 -16 182 -71.5t62 -148.5q0 -122 -102 -183.5t-303 -61.5q-80 0 -160 10.5t-160 32.5v200h96q7 -80 50 -119.5t122 -39.5q88 0 134.5 43t46.5 125q0 80 -49 123.5 t-140 43.5h-41v84h31q81 0 124.5 34t43.5 98q0 63 -39 98t-111 35q-66 0 -106 -36.5t-45 -100.5l-96 -1v183z" />
<glyph unicode="&#xb4;" horiz-adv-x="1024" d="M604 1638h279l-373 -376h-164z" />
<glyph unicode="&#xb5;" horiz-adv-x="1499" d="M1278 1063v-942h152v-121h-506v125q-55 -83 -109.5 -118.5t-128.5 -35.5q-31 0 -60.5 10t-62.5 31v-317h152v-121h-658v121h152v1247h-152v121h506v-596q0 -220 34 -275t122 -55q106 0 155.5 79.5t49.5 250.5v475h-131v121h485z" />
<glyph unicode="&#xb6;" horiz-adv-x="1303" d="M623 1493h555v-125h-113v-1565h-152v1565h-163v-1565h-152v846q-215 17 -333 127.5t-118 294.5q0 190 130 306t346 116z" />
<glyph unicode="&#xb7;" horiz-adv-x="713" d="M166 711q0 78 56 134t134 56q79 0 135 -56t56 -134t-56 -133.5t-135 -55.5q-78 0 -134 55.5t-56 133.5z" />
<glyph unicode="&#xb8;" horiz-adv-x="1024" d="M594 0q62 -64 91.5 -118.5t29.5 -106.5q0 -86 -64.5 -131t-185.5 -45q-48 0 -99 6.5t-103 19.5l-1 156q45 -17 87.5 -26t78.5 -9q60 0 91.5 23.5t31.5 68.5q0 28 -16.5 61t-67.5 101h127z" />
<glyph unicode="&#xb9;" horiz-adv-x="897" d="M162 684v94h164v613l-183 -101v105l222 125h227v-742h164v-94h-594z" />
<glyph unicode="&#xba;" horiz-adv-x="1024" d="M113 639h798v-135h-798v135zM512 823q76 0 109.5 71t33.5 234q0 164 -33.5 235t-109.5 71q-77 0 -110 -70t-33 -236q0 -165 33 -235t110 -70zM512 737q-212 0 -331.5 104t-119.5 287t119.5 287.5t331.5 104.5t331.5 -104.5t119.5 -287.5t-119.5 -287t-331.5 -104z" />
<glyph unicode="&#xbb;" horiz-adv-x="1280" d="M193 1069l469 -385v-168l-469 -385v148l239 321l-239 322v147zM653 1069l469 -385v-168l-469 -385v148l240 321l-240 322v147z" />
<glyph unicode="&#xbc;" horiz-adv-x="2136" d="M2044 16h-518v94h125v121h-363v88l379 533h252v-527h147v-94h-147v-121h125v-94zM1651 325v334l-240 -334h240zM162 684v94h164v613l-183 -101v105l222 125h227v-742h164v-94h-594zM1450 1520h170l-934 -1549h-170z" />
<glyph unicode="&#xbd;" horiz-adv-x="2136" d="M162 684v94h164v613l-183 -101v105l222 125h227v-742h164v-94h-594zM1450 1520h170l-934 -1549h-170zM1427 616h-94v195q72 20 147.5 30.5t155.5 10.5q181 0 281 -64t100 -178q0 -82 -54.5 -146.5t-211.5 -154.5l-244 -139h414v96h100v-250h-696v133l129 84 q187 123 237 193t50 163q0 84 -41.5 131.5t-114.5 47.5q-63 0 -106.5 -41.5t-51.5 -110.5z" />
<glyph unicode="&#xbe;" horiz-adv-x="2136" d="M2044 16h-518v94h125v121h-363v88l379 533h252v-527h147v-94h-147v-121h125v-94zM1651 325v334l-240 -334h240zM111 1481q88 19 162.5 29t138.5 10q180 0 273 -52.5t93 -152.5q0 -72 -52.5 -119t-154.5 -63q120 -16 182 -71.5t62 -148.5q0 -122 -102 -183.5t-303 -61.5 q-80 0 -160 10.5t-160 32.5v200h96q7 -80 50 -119.5t122 -39.5q88 0 134.5 43t46.5 125q0 80 -49 123.5t-140 43.5h-41v84h31q81 0 124.5 34t43.5 98q0 63 -39 98t-111 35q-66 0 -106 -36.5t-45 -100.5l-96 -1v183zM1450 1520h170l-934 -1549h-170z" />
<glyph unicode="&#xbf;" horiz-adv-x="1200" d="M858 1329q0 -78 -56 -133t-134 -55q-79 0 -134 55t-55 133q0 79 55.5 135t133.5 56t134 -56.5t56 -134.5zM1067 39q-124 -34 -236 -51t-217 -17q-252 0 -387 110.5t-135 315.5q0 202 130.5 318.5t375.5 134.5v205h139v-299q-139 -43 -204.5 -135.5t-65.5 -245.5 q0 -145 61 -218t181 -73q109 0 168.5 66t69.5 196h120v-307z" />
<glyph unicode="&#xc0;" horiz-adv-x="1589" d="M-16 0v121h122l562 1372h239l563 -1372h142v-121h-699v121h146l-123 305h-561l-125 -305h178v-121h-444zM424 547h463l-230 571zM756 1899l182 -264h-164l-297 264h279z" />
<glyph unicode="&#xc1;" horiz-adv-x="1589" d="M-16 0v121h122l562 1372h239l563 -1372h142v-121h-699v121h146l-123 305h-561l-125 -305h178v-121h-444zM424 547h463l-230 571zM788 1899h279l-297 -264h-164z" />
<glyph unicode="&#xc2;" horiz-adv-x="1589" d="M-16 0v121h122l562 1372h239l563 -1372h142v-121h-699v121h146l-123 305h-561l-125 -305h178v-121h-444zM424 547h463l-230 571zM618 1899h308l223 -264h-164l-213 161l-213 -161h-164z" />
<glyph unicode="&#xc3;" horiz-adv-x="1589" d="M-16 0v121h122l562 1372h239l563 -1372h142v-121h-699v121h146l-123 305h-561l-125 -305h178v-121h-444zM424 547h463l-230 571zM414 1635v12q0 123 54 189.5t154 66.5q61 0 141 -39q9 -4 13 -6l72 -33q28 -13 46 -17.5t36 -4.5q41 0 65.5 25t24.5 69v4h110v-15 q0 -122 -53.5 -187.5t-154.5 -65.5q-34 0 -67.5 9t-86.5 36l-57 28q-27 13 -52.5 20t-44.5 7q-41 0 -65.5 -25.5t-24.5 -68.5v-4h-110z" />
<glyph unicode="&#xc4;" horiz-adv-x="1589" d="M-16 0v121h122l562 1372h239l563 -1372h142v-121h-699v121h146l-123 305h-561l-125 -305h178v-121h-444zM424 547h463l-230 571zM401 1776q0 60 44 103.5t104 43.5q59 0 102 -43.5t43 -103.5t-42.5 -103t-102.5 -43t-104 43t-44 103zM848 1776q0 60 43.5 103.5 t103.5 43.5t104 -43.5t44 -103.5t-44 -103t-104 -43t-103.5 43t-43.5 103z" />
<glyph unicode="&#xc5;" horiz-adv-x="1589" d="M657 1616q0 -54 39 -92.5t92 -38.5q55 0 93.5 38.5t38.5 92.5t-39 92.5t-93 38.5q-53 0 -92 -38.5t-39 -92.5zM-16 0v121h122l519 1263q-58 37 -89.5 97.5t-31.5 134.5q0 117 83.5 201t200.5 84q118 0 201.5 -84t83.5 -201q0 -74 -30.5 -133t-90.5 -99l518 -1263h142 v-121h-699v121h146l-123 305h-561l-125 -305h178v-121h-444zM424 547h463l-228 571z" />
<glyph unicode="&#xc6;" horiz-adv-x="2118" d="M401 545h465v827h-75zM676 0v121h190v303h-522l-143 -303h164v-121h-428v121h114l592 1251h-201v121h1551v-352h-138v215h-602v-479h367v190h135v-516h-135v190h-367v-604h623v215h135v-352h-1335z" />
<glyph unicode="&#xc7;" horiz-adv-x="1630" d="M1526 426q-59 -231 -212 -343t-411 -112q-378 0 -597.5 208.5t-219.5 565.5q0 358 219.5 566.5t597.5 208.5q133 0 277 -32t305 -97v-367h-127q-39 188 -142 281.5t-272 93.5q-218 0 -324 -160.5t-106 -493.5t106 -493t326 -160q149 0 243.5 83t137.5 251h199zM961 0 q62 -64 91.5 -118.5t29.5 -106.5q0 -86 -64.5 -131t-185.5 -45q-48 0 -99 6.5t-103 19.5l-1 156q45 -17 87.5 -26t78.5 -9q60 0 91.5 23.5t31.5 68.5q0 28 -16.5 61t-67.5 101h127z" />
<glyph unicode="&#xc8;" horiz-adv-x="1561" d="M96 0v121h191v1251h-191v121h1342v-352h-138v215h-628v-479h391v190h137v-516h-137v190h-391v-604h647v215h137v-352h-1360zM799 1899l182 -264h-164l-297 264h279z" />
<glyph unicode="&#xc9;" horiz-adv-x="1561" d="M96 0v121h191v1251h-191v121h1342v-352h-138v215h-628v-479h391v190h137v-516h-137v190h-391v-604h647v215h137v-352h-1360zM831 1899h279l-297 -264h-164z" />
<glyph unicode="&#xca;" horiz-adv-x="1561" d="M96 0v121h191v1251h-191v121h1342v-352h-138v215h-628v-479h391v190h137v-516h-137v190h-391v-604h647v215h137v-352h-1360zM661 1899h308l223 -264h-164l-213 161l-213 -161h-164z" />
<glyph unicode="&#xcb;" horiz-adv-x="1561" d="M96 0v121h191v1251h-191v121h1342v-352h-138v215h-628v-479h391v190h137v-516h-137v190h-391v-604h647v215h137v-352h-1360zM444 1776q0 60 44 103.5t104 43.5q59 0 102 -43.5t43 -103.5t-42.5 -103t-102.5 -43t-104 43t-44 103zM891 1776q0 60 43.5 103.5t103.5 43.5 t104 -43.5t44 -103.5t-44 -103t-104 -43t-103.5 43t-43.5 103z" />
<glyph unicode="&#xcc;" horiz-adv-x="958" d="M96 0v121h191v1251h-191v121h768v-121h-192v-1251h192v-121h-768zM463 1899l182 -264h-164l-297 264h279z" />
<glyph unicode="&#xcd;" horiz-adv-x="958" d="M96 0v121h191v1251h-191v121h768v-121h-192v-1251h192v-121h-768zM495 1899h279l-297 -264h-164z" />
<glyph unicode="&#xce;" horiz-adv-x="958" d="M96 0v121h191v1251h-191v121h768v-121h-192v-1251h192v-121h-768zM325 1899h308l223 -264h-164l-213 161l-213 -161h-164z" />
<glyph unicode="&#xcf;" horiz-adv-x="958" d="M96 0v121h191v1251h-191v121h768v-121h-192v-1251h192v-121h-768zM108 1776q0 60 44 103.5t104 43.5q59 0 102 -43.5t43 -103.5t-42.5 -103t-102.5 -43t-104 43t-44 103zM555 1776q0 60 43.5 103.5t103.5 43.5t104 -43.5t44 -103.5t-44 -103t-104 -43t-103.5 43 t-43.5 103z" />
<glyph unicode="&#xd0;" horiz-adv-x="1790" d="M686 121h139q234 0 341.5 149.5t107.5 477.5q0 326 -107.5 475t-341.5 149h-139v-522h332v-137h-332v-592zM109 0v121h192v592h-213v137h213v522h-192v121h768q400 0 612.5 -191.5t212.5 -553.5q0 -363 -212.5 -555.5t-612.5 -192.5h-768z" />
<glyph unicode="&#xd1;" horiz-adv-x="1872" d="M90 0v121h191v1251h-191v121h467l901 -1057v936h-190v121h522v-121h-191v-1372h-262l-915 1079v-958h190v-121h-522zM578 1635v12q0 123 54 189.5t154 66.5q61 0 141 -39q9 -4 13 -6l72 -33q28 -13 46 -17.5t36 -4.5q41 0 65.5 25t24.5 69v4h110v-15q0 -122 -53.5 -187.5 t-154.5 -65.5q-34 0 -67.5 9t-86.5 36l-57 28q-27 13 -52.5 20t-44.5 7q-41 0 -65.5 -25.5t-24.5 -68.5v-4h-110z" />
<glyph unicode="&#xd2;" horiz-adv-x="1784" d="M891 92q191 0 284 161t93 492q0 332 -93 493t-284 161q-190 0 -283.5 -162.5t-93.5 -491.5q0 -328 93.5 -490.5t283.5 -162.5zM891 -29q-377 0 -591 206t-214 568t214.5 568.5t590.5 206.5q377 0 591 -206t214 -569q0 -362 -214.5 -568t-590.5 -206zM877 1899l182 -264 h-164l-297 264h279z" />
<glyph unicode="&#xd3;" horiz-adv-x="1784" d="M891 92q191 0 284 161t93 492q0 332 -93 493t-284 161q-190 0 -283.5 -162.5t-93.5 -491.5q0 -328 93.5 -490.5t283.5 -162.5zM891 -29q-377 0 -591 206t-214 568t214.5 568.5t590.5 206.5q377 0 591 -206t214 -569q0 -362 -214.5 -568t-590.5 -206zM909 1899h279 l-297 -264h-164z" />
<glyph unicode="&#xd4;" horiz-adv-x="1784" d="M891 92q191 0 284 161t93 492q0 332 -93 493t-284 161q-190 0 -283.5 -162.5t-93.5 -491.5q0 -328 93.5 -490.5t283.5 -162.5zM891 -29q-377 0 -591 206t-214 568t214.5 568.5t590.5 206.5q377 0 591 -206t214 -569q0 -362 -214.5 -568t-590.5 -206zM739 1899h308 l223 -264h-164l-213 161l-213 -161h-164z" />
<glyph unicode="&#xd5;" horiz-adv-x="1784" d="M891 92q191 0 284 161t93 492q0 332 -93 493t-284 161q-190 0 -283.5 -162.5t-93.5 -491.5q0 -328 93.5 -490.5t283.5 -162.5zM891 -29q-377 0 -591 206t-214 568t214.5 568.5t590.5 206.5q377 0 591 -206t214 -569q0 -362 -214.5 -568t-590.5 -206zM535 1635v12 q0 123 54 189.5t154 66.5q61 0 141 -39q9 -4 13 -6l72 -33q28 -13 46 -17.5t36 -4.5q41 0 65.5 25t24.5 69v4h110v-15q0 -122 -53.5 -187.5t-154.5 -65.5q-34 0 -67.5 9t-86.5 36l-57 28q-27 13 -52.5 20t-44.5 7q-41 0 -65.5 -25.5t-24.5 -68.5v-4h-110z" />
<glyph unicode="&#xd6;" horiz-adv-x="1784" d="M891 92q191 0 284 161t93 492q0 332 -93 493t-284 161q-190 0 -283.5 -162.5t-93.5 -491.5q0 -328 93.5 -490.5t283.5 -162.5zM891 -29q-377 0 -591 206t-214 568t214.5 568.5t590.5 206.5q377 0 591 -206t214 -569q0 -362 -214.5 -568t-590.5 -206zM522 1776 q0 60 44 103.5t104 43.5q59 0 102 -43.5t43 -103.5t-42.5 -103t-102.5 -43t-104 43t-44 103zM969 1776q0 60 43.5 103.5t103.5 43.5t104 -43.5t44 -103.5t-44 -103t-104 -43t-103.5 43t-43.5 103z" />
<glyph unicode="&#xd7;" d="M1452 1081l-440 -440l440 -440l-154 -154l-440 440l-440 -440l-154 154l441 440l-441 440l154 156l440 -440l440 440z" />
<glyph unicode="&#xd8;" horiz-adv-x="1784" d="M535 479l677 678q-42 119 -123.5 180.5t-197.5 61.5q-190 0 -283.5 -162.5t-93.5 -491.5q0 -76 5 -142t16 -124zM571 334q45 -122 124.5 -182t195.5 -60q195 0 287 167t92 525q0 65 -6 115.5t-19 93.5zM1516 1280q90 -104 135 -237.5t45 -297.5q0 -362 -214.5 -568 t-590.5 -206q-158 0 -290.5 39t-238.5 117l-204 -205l-90 90l200 201q-91 102 -136.5 235.5t-45.5 296.5q0 362 214.5 568.5t590.5 206.5q160 0 293 -38.5t237 -115.5l203 203l90 -90z" />
<glyph unicode="&#xd9;" horiz-adv-x="1786" d="M260 1372h-190v121h768v-121h-191v-747q0 -279 87 -390.5t298 -111.5q206 0 292.5 112.5t86.5 389.5v747h-190v121h520v-121h-191v-768q0 -342 -148 -487.5t-497 -145.5q-347 0 -496 147t-149 488v766zM928 1899l182 -264h-164l-297 264h279z" />
<glyph unicode="&#xda;" horiz-adv-x="1786" d="M260 1372h-190v121h768v-121h-191v-747q0 -279 87 -390.5t298 -111.5q206 0 292.5 112.5t86.5 389.5v747h-190v121h520v-121h-191v-768q0 -342 -148 -487.5t-497 -145.5q-347 0 -496 147t-149 488v766zM960 1899h279l-297 -264h-164z" />
<glyph unicode="&#xdb;" horiz-adv-x="1786" d="M260 1372h-190v121h768v-121h-191v-747q0 -279 87 -390.5t298 -111.5q206 0 292.5 112.5t86.5 389.5v747h-190v121h520v-121h-191v-768q0 -342 -148 -487.5t-497 -145.5q-347 0 -496 147t-149 488v766zM790 1899h308l223 -264h-164l-213 161l-213 -161h-164z" />
<glyph unicode="&#xdc;" horiz-adv-x="1786" d="M260 1372h-190v121h768v-121h-191v-747q0 -279 87 -390.5t298 -111.5q206 0 292.5 112.5t86.5 389.5v747h-190v121h520v-121h-191v-768q0 -342 -148 -487.5t-497 -145.5q-347 0 -496 147t-149 488v766zM573 1776q0 60 44 103.5t104 43.5q59 0 102 -43.5t43 -103.5 t-42.5 -103t-102.5 -43t-104 43t-44 103zM1020 1776q0 60 43.5 103.5t103.5 43.5t104 -43.5t44 -103.5t-44 -103t-104 -43t-103.5 43t-43.5 103z" />
<glyph unicode="&#xdd;" horiz-adv-x="1462" d="M352 0v121h201v497l-444 754h-127v121h716v-121h-166l336 -569l334 569h-149v121h428v-121h-127l-414 -702v-549h201v-121h-789zM747 1899h279l-297 -264h-164z" />
<glyph unicode="&#xde;" horiz-adv-x="1550" d="M96 0v121h191v1251h-191v121h815v-121h-239v-170h274q249 0 396 -118.5t147 -317.5t-147.5 -318.5t-395.5 -119.5h-274v-207h241v-121h-817zM672 449h112q130 0 207.5 86t77.5 231q0 144 -77 229.5t-208 85.5h-112v-632z" />
<glyph unicode="&#xdf;" horiz-adv-x="1556" d="M997 1221q-7 124 -55 173.5t-160 49.5q-109 0 -158 -59.5t-49 -194.5v-1190h-505v121h151v1026q0 201 140 305t409 104q263 0 397.5 -105.5t161.5 -334.5h-22q-155 0 -234.5 -45.5t-79.5 -134.5q0 -40 23 -73.5t106 -94.5l88 -63q177 -128 226 -207t49 -187 q0 -160 -124.5 -250t-348.5 -90q-80 0 -167.5 15t-187.5 45v258h121q13 -107 62 -156t143 -49q76 0 123 44t47 116q0 105 -164 222q-21 15 -32 23l-89 64q-102 74 -147 152.5t-45 183.5q0 134 80 216.5t241 115.5z" />
<glyph unicode="&#xe0;" horiz-adv-x="1327" d="M1128 653v-532h152v-121h-506v135q-70 -84 -156 -124t-196 -40q-163 0 -250.5 87.5t-87.5 250.5q0 179 125.5 268t378.5 89h186v63q0 129 -61 190.5t-189 61.5q-106 0 -163.5 -43.5t-81.5 -142.5h-113v229q95 34 197 51t215 17q285 0 417.5 -106t132.5 -333zM774 334v213 h-133q-99 0 -152 -54t-53 -155t38.5 -151t117.5 -50q82 0 132 54t50 143zM508 1638l258 -376h-164l-373 376h279z" />
<glyph unicode="&#xe1;" horiz-adv-x="1327" d="M1128 653v-532h152v-121h-506v135q-70 -84 -156 -124t-196 -40q-163 0 -250.5 87.5t-87.5 250.5q0 179 125.5 268t378.5 89h186v63q0 129 -61 190.5t-189 61.5q-106 0 -163.5 -43.5t-81.5 -142.5h-113v229q95 34 197 51t215 17q285 0 417.5 -106t132.5 -333zM774 334v213 h-133q-99 0 -152 -54t-53 -155t38.5 -151t117.5 -50q82 0 132 54t50 143zM692 1638h279l-373 -376h-164z" />
<glyph unicode="&#xe2;" horiz-adv-x="1327" d="M1128 653v-532h152v-121h-506v135q-70 -84 -156 -124t-196 -40q-163 0 -250.5 87.5t-87.5 250.5q0 179 125.5 268t378.5 89h186v63q0 129 -61 190.5t-189 61.5q-106 0 -163.5 -43.5t-81.5 -142.5h-113v229q95 34 197 51t215 17q285 0 417.5 -106t132.5 -333zM774 334v213 h-133q-99 0 -152 -54t-53 -155t38.5 -151t117.5 -50q82 0 132 54t50 143zM479 1638h242l256 -376h-164l-213 225l-213 -225h-164z" />
<glyph unicode="&#xe3;" horiz-adv-x="1327" d="M1128 653v-532h152v-121h-506v135q-70 -84 -156 -124t-196 -40q-163 0 -250.5 87.5t-87.5 250.5q0 179 125.5 268t378.5 89h186v63q0 129 -61 190.5t-189 61.5q-106 0 -163.5 -43.5t-81.5 -142.5h-113v229q95 34 197 51t215 17q285 0 417.5 -106t132.5 -333zM774 334v213 h-133q-99 0 -152 -54t-53 -155t38.5 -151t117.5 -50q82 0 132 54t50 143zM242 1309v16q0 146 53 221.5t155 75.5q37 0 72.5 -12.5t81.5 -42.5l71 -47l3 -2q44 -29 80 -29q41 0 65.5 35t24.5 96h110v-16q0 -146 -53 -221.5t-155 -75.5q-37 0 -72.5 12.5t-81.5 42.5l-72 47 l-1 1q-45 30 -81 30q-41 0 -65.5 -35t-24.5 -96h-110z" />
<glyph unicode="&#xe4;" horiz-adv-x="1327" d="M1128 653v-532h152v-121h-506v135q-70 -84 -156 -124t-196 -40q-163 0 -250.5 87.5t-87.5 250.5q0 179 125.5 268t378.5 89h186v63q0 129 -61 190.5t-189 61.5q-106 0 -163.5 -43.5t-81.5 -142.5h-113v229q95 34 197 51t215 17q285 0 417.5 -106t132.5 -333zM774 334v213 h-133q-99 0 -152 -54t-53 -155t38.5 -151t117.5 -50q82 0 132 54t50 143zM229 1468q0 60 44 103t104 43t102.5 -43t42.5 -103t-43 -103.5t-102 -43.5q-60 0 -104 44t-44 103zM676 1468q0 60 43.5 103t103.5 43t104 -43t44 -103q0 -59 -44 -103t-104 -44t-103.5 44t-43.5 103 z" />
<glyph unicode="&#xe5;" horiz-adv-x="1327" d="M1128 653v-532h152v-121h-506v135q-70 -84 -156 -124t-196 -40q-163 0 -250.5 87.5t-87.5 250.5q0 179 125.5 268t378.5 89h186v63q0 129 -61 190.5t-189 61.5q-106 0 -163.5 -43.5t-81.5 -142.5h-113v229q95 34 197 51t215 17q285 0 417.5 -106t132.5 -333zM774 334v213 h-133q-99 0 -152 -54t-53 -155t38.5 -151t117.5 -50q82 0 132 54t50 143zM315 1534q0 118 83.5 201.5t201.5 83.5t201.5 -83.5t83.5 -201.5t-83.5 -201.5t-201.5 -83.5t-201.5 83.5t-83.5 201.5zM469 1534q0 -55 38.5 -93t92.5 -38q55 0 93 38.5t38 92.5t-38.5 92.5 t-92.5 38.5q-55 0 -93 -38.5t-38 -92.5z" />
<glyph unicode="&#xe6;" horiz-adv-x="1997" d="M1513 600q0 210 -39 294.5t-133 84.5q-91 0 -130.5 -83t-39.5 -278v-18h342zM975 936q77 78 169.5 117t203.5 39q263 0 404 -155t150 -456h-731v-8q0 -206 62 -297.5t201 -91.5q114 0 184 60.5t90 177.5h168q-43 -181 -170.5 -266t-357.5 -85q-134 0 -238 38.5 t-182 117.5q-89 -78 -194.5 -117t-229.5 -39q-206 0 -313 86.5t-107 251.5q0 180 127.5 268.5t386.5 88.5h186v63q0 116 -70.5 183t-193.5 67q-103 0 -160 -43.5t-81 -140.5h-113v229q95 34 197 51t215 17q137 0 235 -38.5t162 -117.5zM784 330v217h-133q-109 0 -162 -55 t-53 -168t39.5 -161t128.5 -48q86 0 133 56t47 159z" />
<glyph unicode="&#xe7;" horiz-adv-x="1247" d="M1155 332q-38 -182 -155.5 -271.5t-319.5 -89.5q-284 0 -440 147t-156 414q0 264 154 412t428 148q111 0 224 -21t230 -63v-295h-112q-16 135 -79 200.5t-177 65.5q-148 0 -210.5 -100t-62.5 -347q0 -241 61 -344.5t199 -103.5q107 0 171.5 64t78.5 184h166zM733 0 q62 -64 91.5 -118.5t29.5 -106.5q0 -86 -64.5 -131t-185.5 -45q-48 0 -99 6.5t-103 19.5l-1 156q45 -17 87.5 -26t78.5 -9q60 0 91.5 23.5t31.5 68.5q0 28 -16.5 61t-67.5 101h127z" />
<glyph unicode="&#xe8;" horiz-adv-x="1303" d="M821 600q0 210 -39 294.5t-133 84.5q-91 0 -130.5 -83t-39.5 -278v-18h342zM1210 481h-731v-8q0 -206 62 -297.5t200 -91.5q115 0 186 61t91 177h166q-43 -181 -171 -266t-358 -85q-276 0 -423.5 145.5t-147.5 415.5q0 264 151 412t420 148q264 0 405 -155.5t150 -455.5z M559 1638l258 -376h-164l-373 376h279z" />
<glyph unicode="&#xe9;" horiz-adv-x="1303" d="M821 600q0 210 -39 294.5t-133 84.5q-91 0 -130.5 -83t-39.5 -278v-18h342zM1210 481h-731v-8q0 -206 62 -297.5t200 -91.5q115 0 186 61t91 177h166q-43 -181 -171 -266t-358 -85q-276 0 -423.5 145.5t-147.5 415.5q0 264 151 412t420 148q264 0 405 -155.5t150 -455.5z M743 1638h279l-373 -376h-164z" />
<glyph unicode="&#xea;" horiz-adv-x="1303" d="M821 600q0 210 -39 294.5t-133 84.5q-91 0 -130.5 -83t-39.5 -278v-18h342zM1210 481h-731v-8q0 -206 62 -297.5t200 -91.5q115 0 186 61t91 177h166q-43 -181 -171 -266t-358 -85q-276 0 -423.5 145.5t-147.5 415.5q0 264 151 412t420 148q264 0 405 -155.5t150 -455.5z M530 1638h242l256 -376h-164l-213 225l-213 -225h-164z" />
<glyph unicode="&#xeb;" horiz-adv-x="1303" d="M821 600q0 210 -39 294.5t-133 84.5q-91 0 -130.5 -83t-39.5 -278v-18h342zM1210 481h-731v-8q0 -206 62 -297.5t200 -91.5q115 0 186 61t91 177h166q-43 -181 -171 -266t-358 -85q-276 0 -423.5 145.5t-147.5 415.5q0 264 151 412t420 148q264 0 405 -155.5t150 -455.5z M280 1468q0 60 44 103t104 43t102.5 -43t42.5 -103t-43 -103.5t-102 -43.5q-60 0 -104 44t-44 103zM727 1468q0 60 43.5 103t103.5 43t104 -43t44 -103q0 -59 -44 -103t-104 -44t-103.5 44t-43.5 103z" />
<glyph unicode="&#xec;" horiz-adv-x="778" d="M575 121h152v-121h-657v121h151v821h-151v121h505v-942zM297 1638l258 -376h-164l-373 376h279z" />
<glyph unicode="&#xed;" horiz-adv-x="778" d="M575 121h152v-121h-657v121h151v821h-151v121h505v-942zM481 1638h279l-373 -376h-164z" />
<glyph unicode="&#xee;" horiz-adv-x="778" d="M575 121h152v-121h-657v121h151v821h-151v121h505v-942zM268 1638h242l256 -376h-164l-213 225l-213 -225h-164z" />
<glyph unicode="&#xef;" horiz-adv-x="778" d="M575 121h152v-121h-657v121h151v821h-151v121h505v-942zM18 1468q0 60 44 103t104 43t102.5 -43t42.5 -103t-43 -103.5t-102 -43.5q-60 0 -104 44t-44 103zM465 1468q0 60 43.5 103t103.5 43t104 -43t44 -103q0 -59 -44 -103t-104 -44t-103.5 44t-43.5 103z" />
<glyph unicode="&#xf0;" horiz-adv-x="1366" d="M895 1337q188 -149 288.5 -350.5t100.5 -429.5q0 -275 -159 -430.5t-441 -155.5q-275 0 -437.5 146.5t-162.5 390.5q0 230 159.5 381t403.5 151q42 0 85 -6t87 -18q-21 63 -53.5 118t-79.5 107l-319 -149l-50 100l279 131q-52 38 -128.5 69t-176.5 54l28 110 q140 -17 257 -53.5t208 -91.5l330 154l47 -103zM838 891q-47 19 -84.5 28t-69.5 9q-111 0 -158 -95.5t-47 -324.5q0 -234 47 -329t158 -95t157 94t46 330q0 107 -12.5 202.5t-36.5 180.5z" />
<glyph unicode="&#xf1;" horiz-adv-x="1489" d="M70 0v121h151v821h-151v121h505v-150q64 95 146 137t207 42q179 0 270.5 -105.5t91.5 -310.5v-555h152v-121h-635v121h129v565q0 135 -34.5 187.5t-119.5 52.5q-107 0 -157 -78.5t-50 -249.5v-477h130v-121h-635zM369 1309v16q0 146 53 221.5t155 75.5q37 0 72.5 -12.5 t81.5 -42.5l71 -47l3 -2q44 -29 80 -29q41 0 65.5 35t24.5 96h110v-16q0 -146 -53 -221.5t-155 -75.5q-37 0 -72.5 12.5t-81.5 42.5l-72 47l-1 1q-45 30 -81 30q-41 0 -65.5 -35t-24.5 -96h-110z" />
<glyph unicode="&#xf2;" horiz-adv-x="1366" d="M684 84q112 0 157.5 96t45.5 352t-45 351.5t-158 95.5t-159 -96.5t-46 -350.5t46 -351t159 -97zM684 -29q-281 0 -440.5 149.5t-159.5 411.5q0 263 159.5 411.5t440.5 148.5q282 0 441 -148.5t159 -411.5q0 -262 -159.5 -411.5t-440.5 -149.5zM592 1638l258 -376h-164 l-373 376h279z" />
<glyph unicode="&#xf3;" horiz-adv-x="1366" d="M684 84q112 0 157.5 96t45.5 352t-45 351.5t-158 95.5t-159 -96.5t-46 -350.5t46 -351t159 -97zM684 -29q-281 0 -440.5 149.5t-159.5 411.5q0 263 159.5 411.5t440.5 148.5q282 0 441 -148.5t159 -411.5q0 -262 -159.5 -411.5t-440.5 -149.5zM776 1638h279l-373 -376 h-164z" />
<glyph unicode="&#xf4;" horiz-adv-x="1366" d="M684 84q112 0 157.5 96t45.5 352t-45 351.5t-158 95.5t-159 -96.5t-46 -350.5t46 -351t159 -97zM684 -29q-281 0 -440.5 149.5t-159.5 411.5q0 263 159.5 411.5t440.5 148.5q282 0 441 -148.5t159 -411.5q0 -262 -159.5 -411.5t-440.5 -149.5zM563 1638h242l256 -376 h-164l-213 225l-213 -225h-164z" />
<glyph unicode="&#xf5;" horiz-adv-x="1366" d="M684 84q112 0 157.5 96t45.5 352t-45 351.5t-158 95.5t-159 -96.5t-46 -350.5t46 -351t159 -97zM684 -29q-281 0 -440.5 149.5t-159.5 411.5q0 263 159.5 411.5t440.5 148.5q282 0 441 -148.5t159 -411.5q0 -262 -159.5 -411.5t-440.5 -149.5zM326 1309v16 q0 146 53 221.5t155 75.5q37 0 72.5 -12.5t81.5 -42.5l71 -47l3 -2q44 -29 80 -29q41 0 65.5 35t24.5 96h110v-16q0 -146 -53 -221.5t-155 -75.5q-37 0 -72.5 12.5t-81.5 42.5l-72 47l-1 1q-45 30 -81 30q-41 0 -65.5 -35t-24.5 -96h-110z" />
<glyph unicode="&#xf6;" horiz-adv-x="1366" d="M684 84q112 0 157.5 96t45.5 352t-45 351.5t-158 95.5t-159 -96.5t-46 -350.5t46 -351t159 -97zM684 -29q-281 0 -440.5 149.5t-159.5 411.5q0 263 159.5 411.5t440.5 148.5q282 0 441 -148.5t159 -411.5q0 -262 -159.5 -411.5t-440.5 -149.5zM313 1468q0 60 44 103 t104 43t102.5 -43t42.5 -103t-43 -103.5t-102 -43.5q-60 0 -104 44t-44 103zM760 1468q0 60 43.5 103t103.5 43t104 -43t44 -103q0 -59 -44 -103t-104 -44t-103.5 44t-43.5 103z" />
<glyph unicode="&#xf7;" d="M709 1012q0 61 44 105t105 44q62 0 106 -44t44 -105q0 -62 -44 -106t-106 -44q-61 0 -105 44t-44 106zM709 272q0 62 44 106t105 44q62 0 106 -44t44 -106q0 -61 -44 -105t-106 -44q-61 0 -105 44t-44 105zM217 756h1282v-228h-1282v228z" />
<glyph unicode="&#xf8;" horiz-adv-x="1366" d="M481 416l387 385q-17 90 -62 134t-122 44q-110 0 -156.5 -95.5t-46.5 -330.5v-137zM500 262q15 -89 61 -133.5t123 -44.5q109 0 155 94t46 330v141zM1151 913q66 -72 99.5 -167.5t33.5 -213.5q0 -262 -159.5 -411.5t-440.5 -149.5q-111 0 -204 24.5t-173 74.5l-172 -172 l-84 86l164 163q-65 75 -98 171.5t-33 213.5q0 263 159.5 411.5t440.5 148.5q116 0 210.5 -25t166.5 -74l168 168l86 -86z" />
<glyph unicode="&#xf9;" horiz-adv-x="1489" d="M1268 1063v-942h151v-121h-506v150q-63 -95 -145 -137t-207 -42q-179 0 -270.5 105.5t-91.5 310.5v555h-152v121h506v-621q0 -198 33 -251.5t121 -53.5q107 0 156.5 79t49.5 251v475h-129v121h484zM615 1638l258 -376h-164l-373 376h279z" />
<glyph unicode="&#xfa;" horiz-adv-x="1489" d="M1268 1063v-942h151v-121h-506v150q-63 -95 -145 -137t-207 -42q-179 0 -270.5 105.5t-91.5 310.5v555h-152v121h506v-621q0 -198 33 -251.5t121 -53.5q107 0 156.5 79t49.5 251v475h-129v121h484zM799 1638h279l-373 -376h-164z" />
<glyph unicode="&#xfb;" horiz-adv-x="1489" d="M1268 1063v-942h151v-121h-506v150q-63 -95 -145 -137t-207 -42q-179 0 -270.5 105.5t-91.5 310.5v555h-152v121h506v-621q0 -198 33 -251.5t121 -53.5q107 0 156.5 79t49.5 251v475h-129v121h484zM586 1638h242l256 -376h-164l-213 225l-213 -225h-164z" />
<glyph unicode="&#xfc;" horiz-adv-x="1489" d="M1268 1063v-942h151v-121h-506v150q-63 -95 -145 -137t-207 -42q-179 0 -270.5 105.5t-91.5 310.5v555h-152v121h506v-621q0 -198 33 -251.5t121 -53.5q107 0 156.5 79t49.5 251v475h-129v121h484zM336 1468q0 60 44 103t104 43t102.5 -43t42.5 -103t-43 -103.5 t-102 -43.5q-60 0 -104 44t-44 103zM783 1468q0 60 43.5 103t103.5 43t104 -43t44 -103q0 -59 -44 -103t-104 -44t-103.5 44t-43.5 103z" />
<glyph unicode="&#xfd;" horiz-adv-x="1190" d="M639 -240q-48 -117 -116 -166t-183 -49q-49 0 -109 11t-131 32v222l113 -1q3 -77 36.5 -114t100.5 -37q65 0 105 35.5t80 134.5l16 37l-463 1077h-115v121h613v-121h-127l270 -629l252 629h-141v121h399v-121h-129zM688 1638h279l-373 -376h-164z" />
<glyph unicode="&#xfe;" horiz-adv-x="1432" d="M553 584v-105q0 -186 47.5 -269t153.5 -83q109 0 153.5 88t44.5 317t-44.5 316.5t-153.5 87.5q-106 0 -153.5 -83t-47.5 -269zM199 1436h-152v120h506v-628q45 83 121 123.5t188 40.5q227 0 357.5 -149.5t130.5 -410.5t-130.5 -411t-357.5 -150q-112 0 -188 40.5 t-121 123.5v-440h164v-121h-670v121h152v1741z" />
<glyph unicode="&#xff;" horiz-adv-x="1190" d="M639 -240q-48 -117 -116 -166t-183 -49q-49 0 -109 11t-131 32v222l113 -1q3 -77 36.5 -114t100.5 -37q65 0 105 35.5t80 134.5l16 37l-463 1077h-115v121h613v-121h-127l270 -629l252 629h-141v121h399v-121h-129zM225 1468q0 60 44 103t104 43t102.5 -43t42.5 -103 t-43 -103.5t-102 -43.5q-60 0 -104 44t-44 103zM672 1468q0 60 43.5 103t103.5 43t104 -43t44 -103q0 -59 -44 -103t-104 -44t-103.5 44t-43.5 103z" />
<glyph unicode="&#x100;" horiz-adv-x="1589" d="M473 1872h630v-188h-630v188zM-16 0v121h122l562 1372h239l563 -1372h142v-121h-699v121h146l-123 305h-561l-125 -305h178v-121h-444zM424 547h463l-230 571z" />
<glyph unicode="&#x101;" horiz-adv-x="1327" d="M263 1562h630v-188h-630v188zM1128 653v-532h152v-121h-506v135q-70 -84 -156 -124t-196 -40q-163 0 -250.5 87.5t-87.5 250.5q0 179 125.5 268t378.5 89h186v63q0 129 -61 190.5t-189 61.5q-106 0 -163.5 -43.5t-81.5 -142.5h-113v229q95 34 197 51t215 17 q285 0 417.5 -106t132.5 -333zM774 334v213h-133q-99 0 -152 -54t-53 -155t38.5 -151t117.5 -50q82 0 132 54t50 143z" />
<glyph unicode="&#x102;" horiz-adv-x="1589" d="M442 1917h125q6 -73 62 -112t155 -39t155 39t62 112h125q0 -146 -90.5 -228.5t-251.5 -82.5q-163 0 -251.5 81t-90.5 230zM-16 0v121h122l562 1372h239l563 -1372h142v-121h-699v121h146l-123 305h-561l-125 -305h178v-121h-444zM424 547h463l-230 571z" />
<glyph unicode="&#x103;" horiz-adv-x="1327" d="M289 1589h125q6 -73 62 -112t155 -39t155 39t62 112h125q0 -146 -90.5 -228.5t-251.5 -82.5q-163 0 -251.5 81t-90.5 230zM1128 653v-532h152v-121h-506v135q-70 -84 -156 -124t-196 -40q-163 0 -250.5 87.5t-87.5 250.5q0 179 125.5 268t378.5 89h186v63 q0 129 -61 190.5t-189 61.5q-106 0 -163.5 -43.5t-81.5 -142.5h-113v229q95 34 197 51t215 17q285 0 417.5 -106t132.5 -333zM774 334v213h-133q-99 0 -152 -54t-53 -155t38.5 -151t117.5 -50q82 0 132 54t50 143z" />
<glyph unicode="&#x104;" horiz-adv-x="1589" d="M919 0h125q-49 -65 -68.5 -102t-19.5 -66q0 -41 28.5 -63.5t80.5 -22.5q39 0 79.5 8t78.5 23l-1 -156q-54 -11 -102 -16.5t-90 -5.5q-113 0 -175.5 46t-62.5 130q0 52 31 106.5t96 118.5zM-16 0v121h122l562 1372h239l563 -1372h142v-121h-699v121h146l-123 305h-561 l-125 -305h178v-121h-444zM424 547h463l-230 571z" />
<glyph unicode="&#x105;" horiz-adv-x="1327" d="M780 0h125q-49 -65 -68.5 -102t-19.5 -66q0 -41 28.5 -63.5t80.5 -22.5q39 0 79.5 8t78.5 23l-1 -156q-54 -11 -102 -16.5t-90 -5.5q-113 0 -175.5 46t-62.5 130q0 52 31 106.5t96 118.5zM1128 653v-532h152v-121h-506v135q-70 -84 -156 -124t-196 -40 q-163 0 -250.5 87.5t-87.5 250.5q0 179 125.5 268t378.5 89h186v63q0 129 -61 190.5t-189 61.5q-106 0 -163.5 -43.5t-81.5 -142.5h-113v229q95 34 197 51t215 17q285 0 417.5 -106t132.5 -333zM774 334v213h-133q-99 0 -152 -54t-53 -155t38.5 -151t117.5 -50q82 0 132 54 t50 143z" />
<glyph unicode="&#x106;" horiz-adv-x="1630" d="M1526 426q-59 -231 -212 -343t-411 -112q-378 0 -597.5 208.5t-219.5 565.5q0 358 219.5 566.5t597.5 208.5q133 0 277 -32t305 -97v-367h-127q-39 188 -142 281.5t-272 93.5q-218 0 -324 -160.5t-106 -493.5t106 -493t326 -160q149 0 243.5 83t137.5 251h199zM905 1899 h279l-297 -264h-164z" />
<glyph unicode="&#x107;" horiz-adv-x="1247" d="M1155 332q-38 -182 -155.5 -271.5t-319.5 -89.5q-284 0 -440 147t-156 414q0 264 154 412t428 148q111 0 224 -21t230 -63v-295h-112q-16 135 -79 200.5t-177 65.5q-148 0 -210.5 -100t-62.5 -347q0 -241 61 -344.5t199 -103.5q107 0 171.5 64t78.5 184h166zM756 1638 h279l-373 -376h-164z" />
<glyph unicode="&#x108;" horiz-adv-x="1630" d="M735 1899h308l223 -264h-164l-213 161l-213 -161h-164zM1526 426q-59 -231 -212 -343t-411 -112q-378 0 -597.5 208.5t-219.5 565.5q0 358 219.5 566.5t597.5 208.5q133 0 277 -32t305 -97v-367h-127q-39 188 -142 281.5t-272 93.5q-218 0 -324 -160.5t-106 -493.5 t106 -493t326 -160q149 0 243.5 83t137.5 251h199z" />
<glyph unicode="&#x109;" horiz-adv-x="1247" d="M543 1638h242l256 -376h-164l-213 225l-213 -225h-164zM1155 332q-38 -182 -155.5 -271.5t-319.5 -89.5q-284 0 -440 147t-156 414q0 264 154 412t428 148q111 0 224 -21t230 -63v-295h-112q-16 135 -79 200.5t-177 65.5q-148 0 -210.5 -100t-62.5 -347q0 -241 61 -344.5 t199 -103.5q107 0 171.5 64t78.5 184h166z" />
<glyph unicode="&#x10a;" horiz-adv-x="1630" d="M742 1776q0 60 43.5 103.5t103.5 43.5t103.5 -43.5t43.5 -103.5t-43.5 -103t-103.5 -43t-103.5 43t-43.5 103zM1526 426q-59 -231 -212 -343t-411 -112q-378 0 -597.5 208.5t-219.5 565.5q0 358 219.5 566.5t597.5 208.5q133 0 277 -32t305 -97v-367h-127 q-39 188 -142 281.5t-272 93.5q-218 0 -324 -160.5t-106 -493.5t106 -493t326 -160q149 0 243.5 83t137.5 251h199z" />
<glyph unicode="&#x10b;" horiz-adv-x="1247" d="M517 1468q0 60 43.5 103t103.5 43t103.5 -43t43.5 -103q0 -59 -43.5 -103t-103.5 -44t-103.5 44t-43.5 103zM1155 332q-38 -182 -155.5 -271.5t-319.5 -89.5q-284 0 -440 147t-156 414q0 264 154 412t428 148q111 0 224 -21t230 -63v-295h-112q-16 135 -79 200.5 t-177 65.5q-148 0 -210.5 -100t-62.5 -347q0 -241 61 -344.5t199 -103.5q107 0 171.5 64t78.5 184h166z" />
<glyph unicode="&#x10c;" horiz-adv-x="1630" d="M1526 426q-59 -231 -212 -343t-411 -112q-378 0 -597.5 208.5t-219.5 565.5q0 358 219.5 566.5t597.5 208.5q133 0 277 -32t305 -97v-367h-127q-39 188 -142 281.5t-272 93.5q-218 0 -324 -160.5t-106 -493.5t106 -493t326 -160q149 0 243.5 83t137.5 251h199zM735 1635 l-223 264h164l213 -162l213 162h164l-223 -264h-308z" />
<glyph unicode="&#x10d;" horiz-adv-x="1247" d="M1155 332q-38 -182 -155.5 -271.5t-319.5 -89.5q-284 0 -440 147t-156 414q0 264 154 412t428 148q111 0 224 -21t230 -63v-295h-112q-16 135 -79 200.5t-177 65.5q-148 0 -210.5 -100t-62.5 -347q0 -241 61 -344.5t199 -103.5q107 0 171.5 64t78.5 184h166zM543 1262 l-256 376h164l213 -227l213 227h164l-256 -376h-242z" />
<glyph unicode="&#x10e;" horiz-adv-x="1776" d="M672 121h139q234 0 342.5 150t108.5 477q0 325 -108 474.5t-343 149.5h-139v-1251zM96 0v121h191v1251h-191v121h766q402 0 615 -192t213 -553q0 -363 -213.5 -555.5t-614.5 -192.5h-766zM711 1635l-223 264h164l213 -162l213 162h164l-223 -264h-308z" />
<glyph unicode="&#x10f;" horiz-adv-x="1432" d="M879 479v105q0 186 -48 269t-153 83q-110 0 -154.5 -87.5t-44.5 -316.5t45 -317t154 -88q105 0 153 83t48 269zM1233 121h151v-121h-505v135q-45 -83 -121.5 -123.5t-188.5 -40.5q-226 0 -355.5 150t-129.5 411q0 262 129.5 411t355.5 149q112 0 188.5 -40.5 t121.5 -123.5v508h-152v120h506v-1435zM1466 1554h279l-184 -376h-164z" />
<glyph unicode="&#x110;" horiz-adv-x="1790" d="M686 121h139q234 0 341.5 149.5t107.5 477.5q0 326 -107.5 475t-341.5 149h-139v-522h332v-137h-332v-592zM109 0v121h192v592h-213v137h213v522h-192v121h768q400 0 612.5 -191.5t212.5 -553.5q0 -363 -212.5 -555.5t-612.5 -192.5h-768z" />
<glyph unicode="&#x111;" horiz-adv-x="1432" d="M879 479v105q0 186 -48 269t-153 83q-110 0 -154.5 -87.5t-44.5 -316.5t45 -317t154 -88q105 0 153 83t48 269zM1233 121h151v-121h-505v135q-45 -83 -121.5 -123.5t-188.5 -40.5q-226 0 -355.5 150t-129.5 411q0 262 129.5 411t355.5 149q112 0 188.5 -40.5 t121.5 -123.5v295h-324v120h324v93h-152v120h506v-213h172v-120h-172v-1102z" />
<glyph unicode="&#x112;" horiz-adv-x="1561" d="M452 1872h630v-188h-630v188zM96 0v121h191v1251h-191v121h1342v-352h-138v215h-628v-479h391v190h137v-516h-137v190h-391v-604h647v215h137v-352h-1360z" />
<glyph unicode="&#x113;" horiz-adv-x="1303" d="M340 1562h630v-188h-630v188zM821 600q0 210 -39 294.5t-133 84.5q-91 0 -130.5 -83t-39.5 -278v-18h342zM1210 481h-731v-8q0 -206 62 -297.5t200 -91.5q115 0 186 61t91 177h166q-43 -181 -171 -266t-358 -85q-276 0 -423.5 145.5t-147.5 415.5q0 264 151 412t420 148 q264 0 405 -155.5t150 -455.5z" />
<glyph unicode="&#x114;" horiz-adv-x="1561" d="M475 1899h123q22 -55 77.5 -84t139.5 -29t140.5 29.5t76.5 83.5h123q-28 -131 -113.5 -197.5t-226.5 -66.5q-144 0 -228 65t-112 199zM96 0v121h191v1251h-191v121h1342v-352h-138v215h-628v-479h391v190h137v-516h-137v190h-391v-604h647v215h137v-352h-1360z" />
<glyph unicode="&#x115;" horiz-adv-x="1303" d="M309 1589h125q6 -73 62 -112t155 -39t155 39t62 112h125q0 -146 -90.5 -228.5t-251.5 -82.5q-163 0 -251.5 81t-90.5 230zM821 600q0 210 -39 294.5t-133 84.5q-91 0 -130.5 -83t-39.5 -278v-18h342zM1210 481h-731v-8q0 -206 62 -297.5t200 -91.5q115 0 186 61t91 177 h166q-43 -181 -171 -266t-358 -85q-276 0 -423.5 145.5t-147.5 415.5q0 264 151 412t420 148q264 0 405 -155.5t150 -455.5z" />
<glyph unicode="&#x116;" horiz-adv-x="1561" d="M668 1776q0 60 43.5 103.5t103.5 43.5t103.5 -43.5t43.5 -103.5t-43.5 -103t-103.5 -43t-103.5 43t-43.5 103zM96 0v121h191v1251h-191v121h1342v-352h-138v215h-628v-479h391v190h137v-516h-137v190h-391v-604h647v215h137v-352h-1360z" />
<glyph unicode="&#x117;" horiz-adv-x="1303" d="M504 1468q0 60 43.5 103t103.5 43t103.5 -43t43.5 -103q0 -59 -43.5 -103t-103.5 -44t-103.5 44t-43.5 103zM821 600q0 210 -39 294.5t-133 84.5q-91 0 -130.5 -83t-39.5 -278v-18h342zM1210 481h-731v-8q0 -206 62 -297.5t200 -91.5q115 0 186 61t91 177h166 q-43 -181 -171 -266t-358 -85q-276 0 -423.5 145.5t-147.5 415.5q0 264 151 412t420 148q264 0 405 -155.5t150 -455.5z" />
<glyph unicode="&#x118;" horiz-adv-x="1561" d="M1154 0h125q-49 -65 -68.5 -102t-19.5 -66q0 -41 28.5 -63.5t80.5 -22.5q39 0 79.5 8t78.5 23l-1 -156q-54 -11 -102 -16.5t-90 -5.5q-113 0 -175.5 46t-62.5 130q0 52 31 106.5t96 118.5zM96 0v121h191v1251h-191v121h1342v-352h-138v215h-628v-479h391v190h137v-516 h-137v190h-391v-604h647v215h137v-352h-1360z" />
<glyph unicode="&#x119;" horiz-adv-x="1303" d="M772 0h125q-49 -65 -68.5 -102t-19.5 -66q0 -41 28.5 -63.5t80.5 -22.5q39 0 79.5 8t78.5 23l-1 -156q-54 -11 -102 -16.5t-90 -5.5q-113 0 -175.5 46t-62.5 130q0 52 31 106.5t96 118.5zM821 600q0 210 -39 294.5t-133 84.5q-91 0 -130.5 -83t-39.5 -278v-18h342z M1210 481h-731v-8q0 -206 62 -297.5t200 -91.5q115 0 186 61t91 177h166q-43 -181 -171 -266t-358 -85q-276 0 -423.5 145.5t-147.5 415.5q0 264 151 412t420 148q264 0 405 -155.5t150 -455.5z" />
<glyph unicode="&#x11a;" horiz-adv-x="1561" d="M96 0v121h191v1251h-191v121h1342v-352h-138v215h-628v-479h391v190h137v-516h-137v190h-391v-604h647v215h137v-352h-1360zM657 1641l-223 264h164l213 -162l213 162h164l-223 -264h-308z" />
<glyph unicode="&#x11b;" horiz-adv-x="1303" d="M821 600q0 210 -39 294.5t-133 84.5q-91 0 -130.5 -83t-39.5 -278v-18h342zM1210 481h-731v-8q0 -206 62 -297.5t200 -91.5q115 0 186 61t91 177h166q-43 -181 -171 -266t-358 -85q-276 0 -423.5 145.5t-147.5 415.5q0 264 151 412t420 148q264 0 405 -155.5t150 -455.5z M543 1262l-256 376h164l213 -227l213 227h164l-256 -376h-242z" />
<glyph unicode="&#x11c;" horiz-adv-x="1749" d="M755 1899h308l223 -264h-164l-213 161l-213 -161h-164zM1409 1024q-45 198 -150 286.5t-296 88.5q-232 0 -340.5 -157.5t-108.5 -496.5q0 -336 104 -494.5t324 -158.5q84 0 156 19t131 57v410h-180v120h538v-573q-168 -78 -335.5 -116t-342.5 -38q-384 0 -603.5 207 t-219.5 567q0 361 219.5 568t603.5 207q160 0 315 -32t312 -97v-367h-127z" />
<glyph unicode="&#x11d;" horiz-adv-x="1432" d="M557 1638h242l256 -376h-164l-213 225l-213 -225h-164zM1233 942v-928q0 -224 -159.5 -346.5t-450.5 -122.5q-106 0 -215 16.5t-224 49.5v254h113q15 -105 84.5 -156t198.5 -51q164 0 231.5 78.5t67.5 277.5v121q-45 -83 -121.5 -123.5t-188.5 -40.5q-226 0 -355.5 150 t-129.5 411q0 262 129.5 411t355.5 149q112 0 188.5 -40.5t121.5 -123.5v135h505v-121h-151zM879 584q0 186 -48 269t-153 83q-110 0 -154.5 -87.5t-44.5 -316.5t45 -317t154 -88q105 0 153 83t48 269v105z" />
<glyph unicode="&#x11e;" horiz-adv-x="1749" d="M1409 1024q-45 198 -150 286.5t-296 88.5q-232 0 -340.5 -157.5t-108.5 -496.5q0 -336 104 -494.5t324 -158.5q84 0 156 19t131 57v410h-180v120h538v-573q-168 -78 -335.5 -116t-342.5 -38q-384 0 -603.5 207t-219.5 567q0 361 219.5 568t603.5 207q160 0 315 -32 t312 -97v-367h-127zM534 1899h123q22 -55 77.5 -84t139.5 -29t140.5 29.5t76.5 83.5h123q-28 -131 -113.5 -197.5t-226.5 -66.5q-144 0 -228 65t-112 199z" />
<glyph unicode="&#x11f;" horiz-adv-x="1432" d="M1233 942v-928q0 -224 -159.5 -346.5t-450.5 -122.5q-106 0 -215 16.5t-224 49.5v254h113q15 -105 84.5 -156t198.5 -51q164 0 231.5 78.5t67.5 277.5v121q-45 -83 -121.5 -123.5t-188.5 -40.5q-226 0 -355.5 150t-129.5 411q0 262 129.5 411t355.5 149 q112 0 188.5 -40.5t121.5 -123.5v135h505v-121h-151zM879 584q0 186 -48 269t-153 83q-110 0 -154.5 -87.5t-44.5 -316.5t45 -317t154 -88q105 0 153 83t48 269v105zM375 1589h125q6 -73 62 -112t155 -39t155 39t62 112h125q0 -146 -90.5 -228.5t-251.5 -82.5 q-163 0 -251.5 81t-90.5 230z" />
<glyph unicode="&#x120;" horiz-adv-x="1749" d="M762 1776q0 60 43.5 103.5t103.5 43.5t103.5 -43.5t43.5 -103.5t-43.5 -103t-103.5 -43t-103.5 43t-43.5 103zM1409 1024q-45 198 -150 286.5t-296 88.5q-232 0 -340.5 -157.5t-108.5 -496.5q0 -336 104 -494.5t324 -158.5q84 0 156 19t131 57v410h-180v120h538v-573 q-168 -78 -335.5 -116t-342.5 -38q-384 0 -603.5 207t-219.5 567q0 361 219.5 568t603.5 207q160 0 315 -32t312 -97v-367h-127z" />
<glyph unicode="&#x121;" horiz-adv-x="1432" d="M531 1468q0 60 43.5 103t103.5 43t103.5 -43t43.5 -103q0 -59 -43.5 -103t-103.5 -44t-103.5 44t-43.5 103zM1233 942v-928q0 -224 -159.5 -346.5t-450.5 -122.5q-106 0 -215 16.5t-224 49.5v254h113q15 -105 84.5 -156t198.5 -51q164 0 231.5 78.5t67.5 277.5v121 q-45 -83 -121.5 -123.5t-188.5 -40.5q-226 0 -355.5 150t-129.5 411q0 262 129.5 411t355.5 149q112 0 188.5 -40.5t121.5 -123.5v135h505v-121h-151zM879 584q0 186 -48 269t-153 83q-110 0 -154.5 -87.5t-44.5 -316.5t45 -317t154 -88q105 0 153 83t48 269v105z" />
<glyph unicode="&#x122;" horiz-adv-x="1749" d="M730 -420q78 42 115 94t37 121v43h214v-4q0 -111 -70 -190q-69 -80 -213 -135zM1409 1024q-45 198 -150 286.5t-296 88.5q-232 0 -340.5 -157.5t-108.5 -496.5q0 -336 104 -494.5t324 -158.5q84 0 156 19t131 57v410h-180v120h538v-573q-168 -78 -335.5 -116t-342.5 -38 q-384 0 -603.5 207t-219.5 567q0 361 219.5 568t603.5 207q160 0 315 -32t312 -97v-367h-127z" />
<glyph unicode="&#x123;" horiz-adv-x="1432" d="M926 1472q-78 -42 -115 -94t-37 -121v-43h-214v4q0 111 70 190q69 80 213 135zM1233 942v-928q0 -224 -159.5 -346.5t-450.5 -122.5q-106 0 -215 16.5t-224 49.5v254h113q15 -105 84.5 -156t198.5 -51q164 0 231.5 78.5t67.5 277.5v121q-45 -83 -121.5 -123.5 t-188.5 -40.5q-226 0 -355.5 150t-129.5 411q0 262 129.5 411t355.5 149q112 0 188.5 -40.5t121.5 -123.5v135h505v-121h-151zM879 584q0 186 -48 269t-153 83q-110 0 -154.5 -87.5t-44.5 -316.5t45 -317t154 -88q105 0 153 83t48 269v105z" />
<glyph unicode="&#x124;" horiz-adv-x="1935" d="M816 1899h308l223 -264h-164l-213 161l-213 -161h-164zM96 0v121h191v1251h-191v121h768v-121h-192v-502h594v502h-191v121h768v-121h-192v-1251h192v-121h-768v121h191v612h-594v-612h192v-121h-768z" />
<glyph unicode="&#x125;" horiz-adv-x="1489" d="M170 1899h308l223 -264h-164l-213 161l-213 -161h-164zM70 0v121h151v1315h-158v120h512v-643q64 95 146 137t207 42q179 0 270.5 -105.5t91.5 -310.5v-555h152v-121h-635v121h129v565q0 135 -34.5 187.5t-119.5 52.5q-107 0 -157 -78.5t-50 -249.5v-477h130v-121h-635z " />
<glyph unicode="&#x126;" horiz-adv-x="1935" d="M96 0v121h191v932h-191v137h191v182h-191v121h768v-121h-192v-182h594v182h-191v121h768v-121h-192v-182h192v-137h-192v-932h192v-121h-768v121h191v612h-594v-612h192v-121h-768zM672 870h594v183h-594v-183z" />
<glyph unicode="&#x127;" horiz-adv-x="1489" d="M70 0v121h151v1075h-158v137h158v103h-158v120h512v-223h359v-137h-359v-283q64 95 146 137t207 42q179 0 270.5 -105.5t91.5 -310.5v-555h152v-121h-635v121h129v565q0 135 -34.5 187.5t-119.5 52.5q-107 0 -157 -78.5t-50 -249.5v-477h130v-121h-635z" />
<glyph unicode="&#x128;" horiz-adv-x="958" d="M121 1635v12q0 123 54 189.5t154 66.5q61 0 141 -39q9 -4 13 -6l72 -33q28 -13 46 -17.5t36 -4.5q41 0 65.5 25t24.5 69v4h110v-15q0 -122 -53.5 -187.5t-154.5 -65.5q-34 0 -67.5 9t-86.5 36l-57 28q-27 13 -52.5 20t-44.5 7q-41 0 -65.5 -25.5t-24.5 -68.5v-4h-110z M96 0v121h191v1251h-191v121h768v-121h-192v-1251h192v-121h-768z" />
<glyph unicode="&#x129;" horiz-adv-x="778" d="M31 1309v16q0 146 53 221.5t155 75.5q37 0 72.5 -12.5t81.5 -42.5l71 -47l3 -2q44 -29 80 -29q41 0 65.5 35t24.5 96h110v-16q0 -146 -53 -221.5t-155 -75.5q-37 0 -72.5 12.5t-81.5 42.5l-72 47l-1 1q-45 30 -81 30q-41 0 -65.5 -35t-24.5 -96h-110zM575 121h152v-121 h-657v121h151v821h-151v121h505v-942z" />
<glyph unicode="&#x12a;" horiz-adv-x="958" d="M165 1872h630v-188h-630v188zM96 0v121h191v1251h-191v121h768v-121h-192v-1251h192v-121h-768z" />
<glyph unicode="&#x12b;" horiz-adv-x="778" d="M7 1563h630v-188h-630v188zM575 121h152v-121h-657v121h151v821h-151v121h505v-942z" />
<glyph unicode="&#x12c;" horiz-adv-x="958" d="M139 1899h123q22 -55 77.5 -84t139.5 -29t140.5 29.5t76.5 83.5h123q-28 -131 -113.5 -197.5t-226.5 -66.5q-144 0 -228 65t-112 199zM96 0v121h191v1251h-191v121h768v-121h-192v-1251h192v-121h-768z" />
<glyph unicode="&#x12d;" horiz-adv-x="778" d="M47 1589h125q6 -73 62 -112t155 -39t155 39t62 112h125q0 -146 -90.5 -228.5t-251.5 -82.5q-163 0 -251.5 81t-90.5 230zM575 121h152v-121h-657v121h151v821h-151v121h505v-942z" />
<glyph unicode="&#x12e;" horiz-adv-x="958" d="M96 0v121h191v1251h-191v121h768v-121h-192v-1251h192v-121h-768zM547 0h125q-49 -65 -68.5 -102t-19.5 -66q0 -41 28.5 -63.5t80.5 -22.5q39 0 79.5 8t78.5 23l-1 -156q-54 -11 -102 -16.5t-90 -5.5q-113 0 -175.5 46t-62.5 130q0 52 31 106.5t96 118.5z" />
<glyph unicode="&#x12f;" horiz-adv-x="778" d="M188 1364q0 81 56 136.5t137 55.5q79 0 134.5 -55.5t55.5 -136.5q0 -79 -55.5 -134.5t-134.5 -55.5q-81 0 -137 55t-56 135zM575 121h152v-121h-657v121h151v821h-151v121h505v-942zM450 0h125q-49 -65 -68.5 -102t-19.5 -66q0 -41 28.5 -63.5t80.5 -22.5q39 0 79.5 8 t78.5 23l-1 -156q-54 -11 -102 -16.5t-90 -5.5q-113 0 -175.5 46t-62.5 130q0 52 31 106.5t96 118.5z" />
<glyph unicode="&#x130;" horiz-adv-x="958" d="M96 0v121h191v1251h-191v121h768v-121h-192v-1251h192v-121h-768zM332 1776q0 60 43.5 103.5t103.5 43.5t103.5 -43.5t43.5 -103.5t-43.5 -103t-103.5 -43t-103.5 43t-43.5 103z" />
<glyph unicode="&#x131;" horiz-adv-x="778" d="M575 121h152v-121h-657v121h151v821h-151v121h505v-942z" />
<glyph unicode="&#x132;" horiz-adv-x="1929" d="M96 0v121h191v1251h-191v121h768v-121h-192v-1251h192v-121h-768zM810 -358v235h130q6 -94 44.5 -138t114.5 -44q97 0 135.5 74.5t38.5 279.5v1323h-217v121h795v-121h-191v-1331q0 -243 -122.5 -355t-389.5 -112q-83 0 -167 17t-171 51z" />
<glyph unicode="&#x133;" horiz-adv-x="1538" d="M188 1364q0 81 56 136.5t137 55.5q79 0 134.5 -55.5t55.5 -136.5q0 -79 -55.5 -134.5t-134.5 -55.5q-81 0 -137 55t-56 135zM575 121h152v-121h-657v121h151v821h-151v121h505v-942zM974 1364q0 81 55.5 136.5t137.5 55.5q78 0 134 -56t56 -136q0 -79 -55.5 -134.5 t-134.5 -55.5q-81 0 -137 55t-56 135zM1015 942h-151v121h505v-1188q0 -163 -115.5 -246.5t-340.5 -83.5q-60 0 -128 10t-141 29v226l113 -1q2 -80 31.5 -115.5t95.5 -35.5q73 0 102 47t29 170v1067z" />
<glyph unicode="&#x134;" horiz-adv-x="969" d="M339 1899h308l223 -264h-164l-213 161l-213 -161h-164zM-150 -358v235h130q6 -94 44.5 -138t114.5 -44q97 0 135.5 74.5t38.5 279.5v1323h-217v121h795v-121h-191v-1331q0 -243 -122.5 -355t-389.5 -112q-83 0 -167 17t-171 51z" />
<glyph unicode="&#x135;" horiz-adv-x="741" d="M198 1638h242l256 -376h-164l-213 225l-213 -225h-164zM219 942h-151v121h505v-1188q0 -163 -115.5 -246.5t-340.5 -83.5q-60 0 -128 10t-141 29v226l113 -1q2 -80 31.5 -115.5t95.5 -35.5q73 0 102 47t29 170v1067z" />
<glyph unicode="&#x136;" horiz-adv-x="1780" d="M790 -391q78 42 115 94t37 121v43h214v-4q0 -111 -70 -190q-69 -80 -213 -135zM96 0v121h191v1251h-191v121h768v-121h-192v-545l633 545h-160v121h557v-121h-199l-536 -461l729 -790h147v-121h-506l-665 725v-604h192v-121h-768z" />
<glyph unicode="&#x137;" horiz-adv-x="1419" d="M583 -391q78 42 115 94t37 121v43h214v-4q0 -111 -70 -190q-69 -80 -213 -135zM709 0h-639v121h151v1315h-151v120h505v-999l429 385h-127v121h485v-121h-197l-274 -246l448 -575h115v-121h-610v121h125l-295 379l-99 -88v-291h134v-121z" />
<glyph unicode="&#x138;" horiz-adv-x="1419" d="M709 0h-639v121h151v818h-151v121h505v-504l429 383h-127v121h485v-121h-197l-274 -244l448 -574h115v-121h-610v121h125l-295 378l-99 -88v-290h134v-121z" />
<glyph unicode="&#x139;" horiz-adv-x="1440" d="M582 1900h279l-297 -264h-164zM96 0v121h191v1251h-191v121h768v-121h-192v-1235h588v236h135v-373h-1299z" />
<glyph unicode="&#x13a;" horiz-adv-x="778" d="M462 1900h279l-297 -264h-164zM575 121h152v-121h-657v121h151v1315h-151v120h505v-1435z" />
<glyph unicode="&#x13b;" horiz-adv-x="1440" d="M566 -391q78 42 115 94t37 121v43h214v-4q0 -111 -70 -190q-69 -80 -213 -135zM96 0v121h191v1251h-191v121h768v-121h-192v-1235h588v236h135v-373h-1299z" />
<glyph unicode="&#x13c;" horiz-adv-x="778" d="M220 -391q78 42 115 94t37 121v43h214v-4q0 -111 -70 -190q-69 -80 -213 -135zM575 121h152v-121h-657v121h151v1315h-151v120h505v-1435z" />
<glyph unicode="&#x13d;" horiz-adv-x="1440" d="M1116 1493h279l-184 -376h-164zM96 0v121h191v1251h-191v121h768v-121h-192v-1235h588v236h135v-373h-1299z" />
<glyph unicode="&#x13e;" horiz-adv-x="778" d="M778 1556h279l-184 -376h-164zM575 121h152v-121h-657v121h151v1315h-151v120h505v-1435z" />
<glyph unicode="&#x13f;" horiz-adv-x="1440" d="M1039 887q0 78 56 134t134 56q79 0 135 -56t56 -134t-56 -133.5t-135 -55.5q-78 0 -134 55.5t-56 133.5zM96 0v121h191v1251h-191v121h768v-121h-192v-1235h588v236h135v-373h-1299z" />
<glyph unicode="&#x140;" horiz-adv-x="778" d="M674 883q0 78 56 134t134 56q79 0 135 -56t56 -134t-56 -133.5t-135 -55.5q-78 0 -134 55.5t-56 133.5zM575 121h152v-121h-657v121h151v1315h-151v120h505v-1435z" />
<glyph unicode="&#x141;" horiz-adv-x="1454" d="M109 0v121h192v428l-215 -127l-70 117l285 168v665h-192v121h768v-121h-191v-434l340 201l70 -117l-410 -244v-641h588v236h135v-373h-1300z" />
<glyph unicode="&#x142;" horiz-adv-x="788" d="M580 121h151v-121h-657v121h151v532l-155 -96l-62 105l217 133v641h-151v120h506v-557l155 97l64 -105l-219 -133v-737z" />
<glyph unicode="&#x143;" horiz-adv-x="1872" d="M956 1900h279l-297 -264h-164zM90 0v121h191v1251h-191v121h467l901 -1057v936h-190v121h522v-121h-191v-1372h-262l-915 1079v-958h190v-121h-522z" />
<glyph unicode="&#x144;" horiz-adv-x="1489" d="M756 1590h279l-373 -376h-164zM70 0v121h151v821h-151v121h505v-150q64 95 146 137t207 42q179 0 270.5 -105.5t91.5 -310.5v-555h152v-121h-635v121h129v565q0 135 -34.5 187.5t-119.5 52.5q-107 0 -157 -78.5t-50 -249.5v-477h130v-121h-635z" />
<glyph unicode="&#x145;" horiz-adv-x="1872" d="M666 -391q78 42 115 94t37 121v43h214v-4q0 -111 -70 -190q-69 -80 -213 -135zM90 0v121h191v1251h-191v121h467l901 -1057v936h-190v121h522v-121h-191v-1372h-262l-915 1079v-958h190v-121h-522z" />
<glyph unicode="&#x146;" horiz-adv-x="1489" d="M577 -391q78 42 115 94t37 121v43h214v-4q0 -111 -70 -190q-69 -80 -213 -135zM70 0v121h151v821h-151v121h505v-150q64 95 146 137t207 42q179 0 270.5 -105.5t91.5 -310.5v-555h152v-121h-635v121h129v565q0 135 -34.5 187.5t-119.5 52.5q-107 0 -157 -78.5t-50 -249.5 v-477h130v-121h-635z" />
<glyph unicode="&#x147;" horiz-adv-x="1872" d="M90 0v121h191v1251h-191v121h467l901 -1057v936h-190v121h522v-121h-191v-1372h-262l-915 1079v-958h190v-121h-522zM765 1635l-223 264h164l213 -162l213 162h164l-223 -264h-308z" />
<glyph unicode="&#x148;" horiz-adv-x="1489" d="M70 0v121h151v821h-151v121h505v-150q64 95 146 137t207 42q179 0 270.5 -105.5t91.5 -310.5v-555h152v-121h-635v121h129v565q0 135 -34.5 187.5t-119.5 52.5q-107 0 -157 -78.5t-50 -249.5v-477h130v-121h-635zM543 1262l-256 376h164l213 -227l213 227h164l-256 -376 h-242z" />
<glyph unicode="&#x149;" horiz-adv-x="2065" d="M94 1070q96 67 140 161.5t44 233.5v55h269q-8 -207 -92 -348.5t-256 -237.5zM599 0v121h151v821h-151v121h505v-150q64 95 146 137t207 42q179 0 270.5 -105.5t91.5 -310.5v-555h152v-121h-635v121h129v565q0 135 -34.5 187.5t-119.5 52.5q-107 0 -157 -78.5t-50 -249.5 v-477h130v-121h-635z" />
<glyph unicode="&#x14a;" horiz-adv-x="1786" d="M70 0v121h190v1251h-151v121h538v-154q80 97 184 140q101 42 262 42q226 0 341.5 -141t115.5 -415v-924q0 -243 -123 -355t-390 -112q-83 0 -167 17t-171 51v235h133q0 -94 41.5 -138t117.5 -44q97 0 135.5 74.5t38.5 279.5v878q0 249 -49.5 346t-171.5 97 q-151 0 -225 -127q-72 -122 -72 -402v-720h191v-121h-768z" />
<glyph unicode="&#x14b;" horiz-adv-x="1489" d="M70 0v121h151v821h-151v121h505v-150q64 95 146 137t207 42q179 0 270.5 -105.5t91.5 -310.5v-801q0 -163 -115.5 -246.5t-340.5 -83.5q-60 0 -128 10t-141 29v225h113q2 -80 31.5 -115.5t95.5 -35.5q73 0 102 47t29 170v811q0 135 -34.5 187.5t-119.5 52.5 q-107 0 -157 -78.5t-50 -249.5v-477h130v-121h-635z" />
<glyph unicode="&#x14c;" horiz-adv-x="1784" d="M576 1872h630v-188h-630v188zM891 92q191 0 284 161t93 492q0 332 -93 493t-284 161q-190 0 -283.5 -162.5t-93.5 -491.5q0 -328 93.5 -490.5t283.5 -162.5zM891 -29q-377 0 -591 206t-214 568t214.5 568.5t590.5 206.5q377 0 591 -206t214 -569q0 -362 -214.5 -568 t-590.5 -206z" />
<glyph unicode="&#x14d;" horiz-adv-x="1366" d="M369 1562h630v-188h-630v188zM684 84q112 0 157.5 96t45.5 352t-45 351.5t-158 95.5t-159 -96.5t-46 -350.5t46 -351t159 -97zM684 -29q-281 0 -440.5 149.5t-159.5 411.5q0 263 159.5 411.5t440.5 148.5q282 0 441 -148.5t159 -411.5q0 -262 -159.5 -411.5 t-440.5 -149.5z" />
<glyph unicode="&#x14e;" horiz-adv-x="1784" d="M553 1899h123q22 -55 77.5 -84t139.5 -29t140.5 29.5t76.5 83.5h123q-28 -131 -113.5 -197.5t-226.5 -66.5q-144 0 -228 65t-112 199zM891 92q191 0 284 161t93 492q0 332 -93 493t-284 161q-190 0 -283.5 -162.5t-93.5 -491.5q0 -328 93.5 -490.5t283.5 -162.5zM891 -29 q-377 0 -591 206t-214 568t214.5 568.5t590.5 206.5q377 0 591 -206t214 -569q0 -362 -214.5 -568t-590.5 -206z" />
<glyph unicode="&#x14f;" horiz-adv-x="1366" d="M342 1589h125q6 -73 62 -112t155 -39t155 39t62 112h125q0 -146 -90.5 -228.5t-251.5 -82.5q-163 0 -251.5 81t-90.5 230zM684 84q112 0 157.5 96t45.5 352t-45 351.5t-158 95.5t-159 -96.5t-46 -350.5t46 -351t159 -97zM684 -29q-281 0 -440.5 149.5t-159.5 411.5 q0 263 159.5 411.5t440.5 148.5q282 0 441 -148.5t159 -411.5q0 -262 -159.5 -411.5t-440.5 -149.5z" />
<glyph unicode="&#x150;" horiz-adv-x="1784" d="M1159 1899h279l-297 -264h-164zM827 1899h279l-297 -264h-164zM891 92q191 0 284 161t93 492q0 332 -93 493t-284 161q-190 0 -283.5 -162.5t-93.5 -491.5q0 -328 93.5 -490.5t283.5 -162.5zM891 -29q-377 0 -591 206t-214 568t214.5 568.5t590.5 206.5q377 0 591 -206 t214 -569q0 -362 -214.5 -568t-590.5 -206z" />
<glyph unicode="&#x151;" horiz-adv-x="1366" d="M952 1638h236l-297 -376h-164zM586 1638h217l-244 -376h-162zM684 84q112 0 157.5 96t45.5 352t-45 351.5t-158 95.5t-159 -96.5t-46 -350.5t46 -351t159 -97zM684 -29q-281 0 -440.5 149.5t-159.5 411.5q0 263 159.5 411.5t440.5 148.5q282 0 441 -148.5t159 -411.5 q0 -262 -159.5 -411.5t-440.5 -149.5z" />
<glyph unicode="&#x152;" horiz-adv-x="2417" d="M1165 121v1251h-127q-264 0 -398 -157t-134 -467q0 -314 133 -470.5t399 -156.5h127zM2312 0h-1321q-207 0 -342.5 26t-236.5 83q-157 86 -241.5 252t-84.5 387q0 220 84.5 384.5t241.5 251.5q100 58 234 83.5t345 25.5h1303v-352h-137v215h-605v-479h367v190h137v-516 h-137v190h-367v-604h623v215h137v-352z" />
<glyph unicode="&#x153;" horiz-adv-x="2105" d="M684 84q112 0 157.5 96t45.5 352t-45 351.5t-158 95.5t-159 -96.5t-46 -350.5t46 -351t159 -97zM1624 600q0 210 -39.5 294.5t-132.5 84.5q-90 0 -129 -82t-39 -279v-18h340zM1085 936q75 80 168 118t211 38q260 0 401 -157t150 -453l-731 -1v-8q0 -207 61 -298t199 -91 q115 0 186 61t91 177h166q-39 -174 -165 -262.5t-335 -88.5q-132 0 -231 38.5t-171 117.5q-70 -77 -176 -116.5t-241 -39.5q-270 0 -427 151t-157 410q0 263 159.5 411.5t440.5 148.5q127 0 226.5 -38.5t174.5 -117.5z" />
<glyph unicode="&#x154;" horiz-adv-x="1702" d="M902 1900h279l-297 -264h-164zM1087 729q89 -13 150 -59t106 -133l218 -416h153v-121h-491l-238 451q-69 140 -117.5 178.5t-134.5 38.5h-61v-547h192v-121h-768v121h191v1251h-191v121h852q260 0 401.5 -104.5t141.5 -296.5q0 -156 -100.5 -246.5t-303.5 -116.5z M672 788h131q140 0 215.5 76t75.5 217t-75.5 216t-215.5 75h-131v-584z" />
<glyph unicode="&#x155;" horiz-adv-x="1079" d="M756 1590h279l-373 -376h-164zM1100 1075v-317h-113q-6 85 -46 126.5t-116 41.5q-116 0 -183 -102t-67 -283v-420h193v-121h-698v121h151v821h-162v121h516v-189q52 111 137.5 164.5t209.5 53.5q31 0 75.5 -4.5t102.5 -12.5z" />
<glyph unicode="&#x156;" horiz-adv-x="1702" d="M726 -391q78 42 115 94t37 121v43h214v-4q0 -111 -70 -190q-69 -80 -213 -135zM1087 729q89 -13 150 -59t106 -133l218 -416h153v-121h-491l-238 451q-69 140 -117.5 178.5t-134.5 38.5h-61v-547h192v-121h-768v121h191v1251h-191v121h852q260 0 401.5 -104.5 t141.5 -296.5q0 -156 -100.5 -246.5t-303.5 -116.5zM672 788h131q140 0 215.5 76t75.5 217t-75.5 216t-215.5 75h-131v-584z" />
<glyph unicode="&#x157;" horiz-adv-x="1079" d="M240 -391q78 42 115 94t37 121v43h214v-4q0 -111 -70 -190q-69 -80 -213 -135zM1100 1075v-317h-113q-6 85 -46 126.5t-116 41.5q-116 0 -183 -102t-67 -283v-420h193v-121h-698v121h151v821h-162v121h516v-189q52 111 137.5 164.5t209.5 53.5q31 0 75.5 -4.5 t102.5 -12.5z" />
<glyph unicode="&#x158;" horiz-adv-x="1702" d="M1087 729q89 -13 150 -59t106 -133l218 -416h153v-121h-491l-238 451q-69 140 -117.5 178.5t-134.5 38.5h-61v-547h192v-121h-768v121h191v1251h-191v121h852q260 0 401.5 -104.5t141.5 -296.5q0 -156 -100.5 -246.5t-303.5 -116.5zM672 788h131q140 0 215.5 76t75.5 217 t-75.5 216t-215.5 75h-131v-584zM711 1635l-223 264h164l213 -162l213 162h164l-223 -264h-308z" />
<glyph unicode="&#x159;" horiz-adv-x="1079" d="M1100 1075v-317h-113q-6 85 -46 126.5t-116 41.5q-116 0 -183 -102t-67 -283v-420h193v-121h-698v121h151v821h-162v121h516v-189q52 111 137.5 164.5t209.5 53.5q31 0 75.5 -4.5t102.5 -12.5zM543 1262l-256 376h164l213 -227l213 227h164l-256 -376h-242z" />
<glyph unicode="&#x15a;" horiz-adv-x="1479" d="M902 1900h279l-297 -264h-164zM158 72v354h127q29 -168 137 -251t299 -83q155 0 236 59t81 173q0 90 -55 140t-227 93l-224 55q-219 56 -308 155.5t-89 283.5q0 222 147.5 345.5t413.5 123.5q131 0 272.5 -22t293.5 -66v-330h-127q-29 154 -127 225.5t-279 71.5 q-148 0 -223.5 -51.5t-75.5 -153.5q0 -93 52 -141.5t255 -100.5l224 -55q208 -52 301.5 -162t93.5 -303q0 -226 -156 -343.5t-459 -117.5q-146 0 -290 25t-293 76z" />
<glyph unicode="&#x15b;" horiz-adv-x="1153" d="M756 1590h279l-373 -376h-164zM96 31v297h113q14 -119 89 -181.5t204 -62.5q108 0 165.5 37.5t57.5 107.5q0 64 -36.5 99t-141.5 61l-146 37q-165 41 -239 117.5t-74 206.5q0 173 120 257.5t370 84.5q94 0 200.5 -15.5t235.5 -48.5v-268h-113q-9 109 -77.5 164t-196.5 55 q-108 0 -163.5 -34.5t-55.5 -100.5q0 -54 32 -85t115 -52l145 -37q209 -53 289 -131t80 -217q0 -180 -128.5 -265.5t-399.5 -85.5q-99 0 -210 15t-235 45z" />
<glyph unicode="&#x15c;" horiz-adv-x="1479" d="M575 1899h308l223 -264h-164l-213 161l-213 -161h-164zM158 72v354h127q29 -168 137 -251t299 -83q155 0 236 59t81 173q0 90 -55 140t-227 93l-224 55q-219 56 -308 155.5t-89 283.5q0 222 147.5 345.5t413.5 123.5q131 0 272.5 -22t293.5 -66v-330h-127 q-29 154 -127 225.5t-279 71.5q-148 0 -223.5 -51.5t-75.5 -153.5q0 -93 52 -141.5t255 -100.5l224 -55q208 -52 301.5 -162t93.5 -303q0 -226 -156 -343.5t-459 -117.5q-146 0 -290 25t-293 76z" />
<glyph unicode="&#x15d;" horiz-adv-x="1153" d="M457 1638h242l256 -376h-164l-213 225l-213 -225h-164zM96 31v297h113q14 -119 89 -181.5t204 -62.5q108 0 165.5 37.5t57.5 107.5q0 64 -36.5 99t-141.5 61l-146 37q-165 41 -239 117.5t-74 206.5q0 173 120 257.5t370 84.5q94 0 200.5 -15.5t235.5 -48.5v-268h-113 q-9 109 -77.5 164t-196.5 55q-108 0 -163.5 -34.5t-55.5 -100.5q0 -54 32 -85t115 -52l145 -37q209 -53 289 -131t80 -217q0 -180 -128.5 -265.5t-399.5 -85.5q-99 0 -210 15t-235 45z" />
<glyph unicode="&#x15e;" horiz-adv-x="1479" d="M158 72v354h127q29 -168 137 -251t299 -83q155 0 236 59t81 173q0 90 -55 140t-227 93l-224 55q-219 56 -308 155.5t-89 283.5q0 222 147.5 345.5t413.5 123.5q131 0 272.5 -22t293.5 -66v-330h-127q-29 154 -127 225.5t-279 71.5q-148 0 -223.5 -51.5t-75.5 -153.5 q0 -93 52 -141.5t255 -100.5l224 -55q208 -52 301.5 -162t93.5 -303q0 -226 -156 -343.5t-459 -117.5q-146 0 -290 25t-293 76zM821 0q62 -64 91.5 -118.5t29.5 -106.5q0 -86 -64.5 -131t-185.5 -45q-48 0 -99 6.5t-103 19.5l-1 156q45 -17 87.5 -26t78.5 -9q60 0 91.5 23.5 t31.5 68.5q0 28 -16.5 61t-67.5 101h127z" />
<glyph unicode="&#x15f;" horiz-adv-x="1153" d="M96 31v297h113q14 -119 89 -181.5t204 -62.5q108 0 165.5 37.5t57.5 107.5q0 64 -36.5 99t-141.5 61l-146 37q-165 41 -239 117.5t-74 206.5q0 173 120 257.5t370 84.5q94 0 200.5 -15.5t235.5 -48.5v-268h-113q-9 109 -77.5 164t-196.5 55q-108 0 -163.5 -34.5 t-55.5 -100.5q0 -54 32 -85t115 -52l145 -37q209 -53 289 -131t80 -217q0 -180 -128.5 -265.5t-399.5 -85.5q-99 0 -210 15t-235 45zM660 0q62 -64 91.5 -118.5t29.5 -106.5q0 -86 -64.5 -131t-185.5 -45q-48 0 -99 6.5t-103 19.5l-1 156q45 -17 87.5 -26t78.5 -9 q60 0 91.5 23.5t31.5 68.5q0 28 -16.5 61t-67.5 101h127z" />
<glyph unicode="&#x160;" horiz-adv-x="1479" d="M158 72v354h127q29 -168 137 -251t299 -83q155 0 236 59t81 173q0 90 -55 140t-227 93l-224 55q-219 56 -308 155.5t-89 283.5q0 222 147.5 345.5t413.5 123.5q131 0 272.5 -22t293.5 -66v-330h-127q-29 154 -127 225.5t-279 71.5q-148 0 -223.5 -51.5t-75.5 -153.5 q0 -93 52 -141.5t255 -100.5l224 -55q208 -52 301.5 -162t93.5 -303q0 -226 -156 -343.5t-459 -117.5q-146 0 -290 25t-293 76zM585 1635l-223 264h164l213 -162l213 162h164l-223 -264h-308z" />
<glyph unicode="&#x161;" horiz-adv-x="1153" d="M96 31v297h113q14 -119 89 -181.5t204 -62.5q108 0 165.5 37.5t57.5 107.5q0 64 -36.5 99t-141.5 61l-146 37q-165 41 -239 117.5t-74 206.5q0 173 120 257.5t370 84.5q94 0 200.5 -15.5t235.5 -48.5v-268h-113q-9 109 -77.5 164t-196.5 55q-108 0 -163.5 -34.5 t-55.5 -100.5q0 -54 32 -85t115 -52l145 -37q209 -53 289 -131t80 -217q0 -180 -128.5 -265.5t-399.5 -85.5q-99 0 -210 15t-235 45zM457 1262l-256 376h164l213 -227l213 227h164l-256 -376h-242z" />
<glyph unicode="&#x162;" horiz-adv-x="1524" d="M837 0q62 -64 91.5 -118.5t29.5 -106.5q0 -86 -64.5 -131t-185.5 -45q-48 0 -99 6.5t-103 19.5l-1 156q45 -17 87.5 -26t78.5 -9q60 0 91.5 23.5t31.5 68.5q0 28 -16.5 61t-67.5 101h127zM371 0v121h198v1235h-409v-236h-137v373h1480v-373h-135v236h-412v-1235h199v-121 h-784z" />
<glyph unicode="&#x163;" horiz-adv-x="946" d="M594 0q62 -64 91.5 -118.5t29.5 -106.5q0 -86 -64.5 -131t-185.5 -45q-48 0 -99 6.5t-103 19.5l-1 156q45 -17 87.5 -26t78.5 -9q60 0 91.5 23.5t31.5 68.5q0 28 -16.5 61t-67.5 101h127zM203 942h-154v121h154v330h354v-330h295v-121h-295v-651q0 -139 22 -173t80 -34 q64 0 95 43t33 133h149q-9 -160 -87.5 -224.5t-270.5 -64.5q-219 0 -297 68.5t-78 251.5v651z" />
<glyph unicode="&#x164;" horiz-adv-x="1524" d="M371 0v121h198v1235h-409v-236h-137v373h1480v-373h-135v236h-412v-1235h199v-121h-784zM615 1635l-223 264h164l213 -162l213 162h164l-223 -264h-308z" />
<glyph unicode="&#x165;" horiz-adv-x="946" d="M203 942h-154v121h154v330h354v-330h295v-121h-295v-651q0 -139 22 -173t80 -34q64 0 95 43t33 133h149q-9 -160 -87.5 -224.5t-270.5 -64.5q-219 0 -297 68.5t-78 251.5v651zM736 1598h279l-184 -376h-164z" />
<glyph unicode="&#x166;" horiz-adv-x="1524" d="M237 713v137h332v506h-409v-236h-137v373h1480v-373h-135v236h-412v-506h332v-137h-332v-592h199v-121h-784v121h198v592h-332z" />
<glyph unicode="&#x167;" horiz-adv-x="946" d="M203 942h-154v121h154v330h354v-330h295v-121h-295v-277h295v-121h-295v-253q0 -139 22 -173t80 -34q64 0 95 43t33 133h149q-9 -160 -87.5 -224.5t-270.5 -64.5q-219 0 -297 68.5t-78 251.5v253h-154v121h154v277z" />
<glyph unicode="&#x168;" horiz-adv-x="1786" d="M586 1635v12q0 123 54 189.5t154 66.5q61 0 141 -39q9 -4 13 -6l72 -33q28 -13 46 -17.5t36 -4.5q41 0 65.5 25t24.5 69v4h110v-15q0 -122 -53.5 -187.5t-154.5 -65.5q-34 0 -67.5 9t-86.5 36l-57 28q-27 13 -52.5 20t-44.5 7q-41 0 -65.5 -25.5t-24.5 -68.5v-4h-110z M260 1372h-190v121h768v-121h-191v-747q0 -279 87 -390.5t298 -111.5q206 0 292.5 112.5t86.5 389.5v747h-190v121h520v-121h-191v-768q0 -342 -148 -487.5t-497 -145.5q-347 0 -496 147t-149 488v766z" />
<glyph unicode="&#x169;" horiz-adv-x="1489" d="M349 1309v16q0 146 53 221.5t155 75.5q37 0 72.5 -12.5t81.5 -42.5l71 -47l3 -2q44 -29 80 -29q41 0 65.5 35t24.5 96h110v-16q0 -146 -53 -221.5t-155 -75.5q-37 0 -72.5 12.5t-81.5 42.5l-72 47l-1 1q-45 30 -81 30q-41 0 -65.5 -35t-24.5 -96h-110zM1268 1063v-942 h151v-121h-506v150q-63 -95 -145 -137t-207 -42q-179 0 -270.5 105.5t-91.5 310.5v555h-152v121h506v-621q0 -198 33 -251.5t121 -53.5q107 0 156.5 79t49.5 251v475h-129v121h484z" />
<glyph unicode="&#x16a;" horiz-adv-x="1786" d="M653 1872h630v-188h-630v188zM260 1372h-190v121h768v-121h-191v-747q0 -279 87 -390.5t298 -111.5q206 0 292.5 112.5t86.5 389.5v747h-190v121h520v-121h-191v-768q0 -342 -148 -487.5t-497 -145.5q-347 0 -496 147t-149 488v766z" />
<glyph unicode="&#x16b;" horiz-adv-x="1489" d="M417 1562h630v-188h-630v188zM1268 1063v-942h151v-121h-506v150q-63 -95 -145 -137t-207 -42q-179 0 -270.5 105.5t-91.5 310.5v555h-152v121h506v-621q0 -198 33 -251.5t121 -53.5q107 0 156.5 79t49.5 251v475h-129v121h484z" />
<glyph unicode="&#x16c;" horiz-adv-x="1786" d="M604 1899h123q22 -55 77.5 -84t139.5 -29t140.5 29.5t76.5 83.5h123q-28 -131 -113.5 -197.5t-226.5 -66.5q-144 0 -228 65t-112 199zM260 1372h-190v121h768v-121h-191v-747q0 -279 87 -390.5t298 -111.5q206 0 292.5 112.5t86.5 389.5v747h-190v121h520v-121h-191v-768 q0 -342 -148 -487.5t-497 -145.5q-347 0 -496 147t-149 488v766z" />
<glyph unicode="&#x16d;" horiz-adv-x="1489" d="M365 1589h125q6 -73 62 -112t155 -39t155 39t62 112h125q0 -146 -90.5 -228.5t-251.5 -82.5q-163 0 -251.5 81t-90.5 230zM1268 1063v-942h151v-121h-506v150q-63 -95 -145 -137t-207 -42q-179 0 -270.5 105.5t-91.5 310.5v555h-152v121h506v-621q0 -198 33 -251.5 t121 -53.5q107 0 156.5 79t49.5 251v475h-129v121h484z" />
<glyph unicode="&#x16e;" horiz-adv-x="1786" d="M260 1372h-190v121h768v-121h-191v-747q0 -279 87 -390.5t298 -111.5q206 0 292.5 112.5t86.5 389.5v747h-190v121h520v-121h-191v-768q0 -342 -148 -487.5t-497 -145.5q-347 0 -496 147t-149 488v766zM760 1879q0 118 83.5 201.5t201.5 83.5t201.5 -83.5t83.5 -201.5 t-83.5 -201.5t-201.5 -83.5t-201.5 83.5t-83.5 201.5zM914 1879q0 -55 38.5 -93t92.5 -38q55 0 93 38.5t38 92.5t-38.5 92.5t-92.5 38.5q-55 0 -93 -38.5t-38 -92.5z" />
<glyph unicode="&#x16f;" horiz-adv-x="1489" d="M1268 1063v-942h151v-121h-506v150q-63 -95 -145 -137t-207 -42q-179 0 -270.5 105.5t-91.5 310.5v555h-152v121h506v-621q0 -198 33 -251.5t121 -53.5q107 0 156.5 79t49.5 251v475h-129v121h484zM412 1464q0 118 83.5 201.5t201.5 83.5t201.5 -83.5t83.5 -201.5 t-83.5 -201.5t-201.5 -83.5t-201.5 83.5t-83.5 201.5zM566 1464q0 -55 38.5 -93t92.5 -38q55 0 93 38.5t38 92.5t-38.5 92.5t-92.5 38.5q-55 0 -93 -38.5t-38 -92.5z" />
<glyph unicode="&#x170;" horiz-adv-x="1786" d="M1210 1899h279l-297 -264h-164zM878 1899h279l-297 -264h-164zM260 1372h-190v121h768v-121h-191v-747q0 -279 87 -390.5t298 -111.5q206 0 292.5 112.5t86.5 389.5v747h-190v121h520v-121h-191v-768q0 -342 -148 -487.5t-497 -145.5q-347 0 -496 147t-149 488v766z" />
<glyph unicode="&#x171;" horiz-adv-x="1489" d="M975 1638h236l-297 -376h-164zM609 1638h217l-244 -376h-162zM1268 1063v-942h151v-121h-506v150q-63 -95 -145 -137t-207 -42q-179 0 -270.5 105.5t-91.5 310.5v555h-152v121h506v-621q0 -198 33 -251.5t121 -53.5q107 0 156.5 79t49.5 251v475h-129v121h484z" />
<glyph unicode="&#x172;" horiz-adv-x="1786" d="M260 1372h-190v121h768v-121h-191v-747q0 -279 87 -390.5t298 -111.5q206 0 292.5 112.5t86.5 389.5v747h-190v121h520v-121h-191v-768q0 -342 -148 -487.5t-497 -145.5q-347 0 -496 147t-149 488v766zM842 -16h125q-49 -65 -68.5 -102t-19.5 -66q0 -41 28.5 -63.5 t80.5 -22.5q39 0 79.5 8t78.5 23l-1 -156q-54 -11 -102 -16.5t-90 -5.5q-113 0 -175.5 46t-62.5 130q0 52 31 106.5t96 118.5z" />
<glyph unicode="&#x173;" horiz-adv-x="1489" d="M1268 1063v-942h151v-121h-506v150q-63 -95 -145 -137t-207 -42q-179 0 -270.5 105.5t-91.5 310.5v555h-152v121h506v-621q0 -198 33 -251.5t121 -53.5q107 0 156.5 79t49.5 251v475h-129v121h484zM1185 0h125q-49 -65 -68.5 -102t-19.5 -66q0 -41 28.5 -63.5t80.5 -22.5 q39 0 79.5 8t78.5 23l-1 -156q-54 -11 -102 -16.5t-90 -5.5q-113 0 -175.5 46t-62.5 130q0 52 31 106.5t96 118.5z" />
<glyph unicode="&#x174;" horiz-adv-x="2300" d="M999 1906h308l223 -264h-164l-213 161l-213 -161h-164zM1745 0h-258l-338 1087l-338 -1087h-258l-426 1372h-145v121h708v-121h-160l285 -917l322 1038h284l328 -1055l291 934h-178v121h462v-121h-153z" />
<glyph unicode="&#x175;" horiz-adv-x="1763" d="M772 1638h242l256 -376h-164l-213 225l-213 -225h-164zM1104 1063l242 -709l200 588h-139v121h397v-121h-125l-321 -942h-244l-225 666l-227 -666h-242l-322 942h-116v121h602v-121h-125l196 -575l238 696h211z" />
<glyph unicode="&#x176;" horiz-adv-x="1462" d="M577 1906h308l223 -264h-164l-213 161l-213 -161h-164zM352 0v121h201v497l-444 754h-127v121h716v-121h-166l336 -569l334 569h-149v121h428v-121h-127l-414 -702v-549h201v-121h-789z" />
<glyph unicode="&#x177;" horiz-adv-x="1190" d="M485 1638h242l256 -376h-164l-213 225l-213 -225h-164zM639 -240q-48 -117 -116 -166t-183 -49q-49 0 -109 11t-131 32v222l113 -1q3 -77 36.5 -114t100.5 -37q65 0 105 35.5t80 134.5l16 37l-463 1077h-115v121h613v-121h-127l270 -629l252 629h-141v121h399v-121h-129z " />
<glyph unicode="&#x178;" horiz-adv-x="1462" d="M352 0v121h201v497l-444 754h-127v121h716v-121h-166l336 -569l334 569h-149v121h428v-121h-127l-414 -702v-549h201v-121h-789zM360 1776q0 60 44 103.5t104 43.5q59 0 102 -43.5t43 -103.5t-42.5 -103t-102.5 -43t-104 43t-44 103zM807 1776q0 60 43.5 103.5 t103.5 43.5t104 -43.5t44 -103.5t-44 -103t-104 -43t-103.5 43t-43.5 103z" />
<glyph unicode="&#x179;" horiz-adv-x="1495" d="M902 1900h279l-297 -264h-164zM76 0v141l891 1215h-715v-223h-137v360h1296v-141l-881 -1215h754v209h137v-346h-1345z" />
<glyph unicode="&#x17a;" horiz-adv-x="1163" d="M756 1590h279l-373 -376h-164zM72 0v121l610 825h-459v-182h-119v299h990v-119l-611 -825h492v192h119v-311h-1022z" />
<glyph unicode="&#x17b;" horiz-adv-x="1495" d="M605 1802q0 60 43.5 103.5t103.5 43.5t103.5 -43.5t43.5 -103.5t-43.5 -103t-103.5 -43t-103.5 43t-43.5 103zM76 0v141l891 1215h-715v-223h-137v360h1296v-141l-881 -1215h754v209h137v-346h-1345z" />
<glyph unicode="&#x17c;" horiz-adv-x="1163" d="M441 1408q0 60 43.5 103t103.5 43t103.5 -43t43.5 -103q0 -59 -43.5 -103t-103.5 -44t-103.5 44t-43.5 103zM72 0v121l610 825h-459v-182h-119v299h990v-119l-611 -825h492v192h119v-311h-1022z" />
<glyph unicode="&#x17d;" horiz-adv-x="1495" d="M76 0v141l891 1215h-715v-223h-137v360h1296v-141l-881 -1215h754v209h137v-346h-1345zM594 1635l-223 264h164l213 -162l213 162h164l-223 -264h-308z" />
<glyph unicode="&#x17e;" horiz-adv-x="1163" d="M72 0v121l610 825h-459v-182h-119v299h990v-119l-611 -825h492v192h119v-311h-1022zM461 1262l-256 376h164l213 -227l213 227h164l-256 -376h-242z" />
<glyph unicode="&#x17f;" horiz-adv-x="881" d="M575 121h205v-121h-710v121h151v821h-158v121h158v133q0 177 113 268.5t332 91.5q85 0 166 -9.5t159 -28.5v-228h-112q-8 78 -45.5 116t-106.5 38q-80 0 -116 -58q-36 -62 -36 -186v-1079z" />
<glyph unicode="&#x180;" horiz-adv-x="1432" d="M199 121v1075h-158v137h158v103h-152v120h506v-223h359v-137h-359v-268q45 83 121 123.5t188 40.5q227 0 357.5 -149.5t130.5 -410.5t-130.5 -411t-357.5 -150q-112 0 -188 40.5t-121 123.5v-135h-506v121h152zM553 479q0 -186 47.5 -269t153.5 -83q109 0 153.5 88 t44.5 317t-44.5 316.5t-153.5 87.5q-106 0 -153.5 -83t-47.5 -269v-105z" />
<glyph unicode="&#x181;" horiz-adv-x="1731" d="M287 1493h694q277 0 410 -92q137 -95 137 -277q0 -133 -94 -211q-95 -78 -281 -98q225 0 345 -120q120 -99 120 -263q0 -222 -168 -327q-167 -105 -524 -105h-830v121h191v1251q-196 0 -265 -89q-70 -91 -70 -277h-198v358q83 69 320 112q95 17 213 17zM672 870h131 q172 0 255 62q83 63 83 192q0 130 -81 189q-80 59 -257 59h-131v-502zM672 121h143q191 0 283 76t92 235q0 160 -93 239t-282 79h-143v-629z" />
<glyph unicode="&#x182;" horiz-adv-x="1750" d="M672 121h144q209 0 301 76t92 235q0 160 -93 239t-300 79h-144v-629zM96 1493h1450v-373h-135v236h-739v-486h132q481 0 657 -134t176 -304q0 -222 -167.5 -327t-542.5 -105h-831v121h191v1251h-191v121z" />
<glyph unicode="&#x183;" horiz-adv-x="1432" d="M553 479q0 -186 47 -269q48 -83 154 -83q109 0 154 88q44 88 44 317t-44 316q-45 88 -154 88q-106 0 -154 -83q-47 -83 -47 -269v-105zM1152 1556v-288h-121v168h-478v-508q45 83 121 124q76 40 188 40q227 0 358 -150q130 -149 130 -410t-130 -411q-131 -150 -358 -150 q-112 0 -188 41q-76 40 -121 123v-135h-506v121h152v1315h-152v120h1105z" />
<glyph unicode="&#x184;" horiz-adv-x="1750" d="M672 870h132q204 0 345 -18q13 -1 23 -3q197 -34 342 -151q1 -2 3 -3q120 -99 120 -263q0 -222 -167.5 -327t-542.5 -105h-831v121h191v713h-287v121l672 538v-623zM672 121h144q202 0 295 72l6 4q92 76 92 235q0 160 -93 239q-89 75 -284 79h-16h-144v-629z" />
<glyph unicode="&#x185;" horiz-adv-x="1432" d="M553 479q0 -186 47.5 -269t153.5 -83q109 0 153.5 88t44.5 317t-44.5 316.5t-153.5 87.5q-106 0 -153.5 -83t-47.5 -269v-105zM0 1008v120l553 429v-629q45 83 121 123.5t188 40.5q227 0 357.5 -149.5t130.5 -410.5t-130.5 -411t-357.5 -150q-112 0 -188 40.5t-121 123.5 v-135h-506v121h152l-1 887h-198z" />
<glyph unicode="&#x186;" horiz-adv-x="1630" d="M86 1065q59 231 212 343t411 112q378 0 597.5 -208.5t219.5 -565.5q0 -358 -219.5 -566.5t-597.5 -208.5q-133 0 -277 32t-305 97v367h127q39 -188 142 -281.5t272 -93.5q218 0 324 160.5t106 493.5t-106 493t-326 160q-149 0 -243.5 -83t-137.5 -251h-199z" />
<glyph unicode="&#x187;" horiz-adv-x="1630" d="M1526 426q-59 -231 -212 -343t-411 -112q-378 0 -597 209q-220 208 -220 565q0 358 220 567q219 208 597 208q133 0 277 -32q58 -13 119 -31q17 126 101 195q85 69 187 69q60 0 128 -10t141 -29v-225h-113q0 80 -31 115q-30 36 -96 36q-73 0 -102 -47t-29 -170v-367h-127 q-39 188 -142 282q-103 93 -272 93q-218 0 -324 -161q-106 -160 -106 -493t106 -493t326 -160q149 0 244 83q94 83 137 251h199z" />
<glyph unicode="&#x188;" horiz-adv-x="1247" d="M1155 332q-38 -182 -155 -272q-118 -89 -320 -89q-284 0 -440 147t-156 414q0 264 154 412t428 148q110 0 222 -21v52q0 163 116 247q115 83 218 83q60 0 128 -10t141 -29v-225h-113q0 80 -32 115q-29 36 -95 36q-73 0 -102 -47t-29 -170v-115v-295h-112q-16 135 -79 201 q-63 65 -177 65q-148 0 -210 -100q-63 -100 -63 -347q0 -241 61 -344q61 -104 199 -104q107 0 171 64q65 64 79 184h166z" />
<glyph unicode="&#x189;" horiz-adv-x="1790" d="M686 121h139q234 0 341.5 149.5t107.5 477.5q0 326 -107.5 475t-341.5 149h-139v-522h332v-137h-332v-592zM109 0v121h192v592h-213v137h213v522h-192v121h768q400 0 612.5 -191.5t212.5 -553.5q0 -363 -212.5 -555.5t-612.5 -192.5h-768z" />
<glyph unicode="&#x18a;" horiz-adv-x="1776" d="M287 1493h575q402 0 615 -192t213 -553q0 -363 -214 -556q-213 -192 -614 -192h-766v121h191v1251q-196 0 -265 -89q-70 -91 -70 -277h-198v358q83 69 320 112q95 17 213 17zM672 121h139q234 0 343 150q108 150 108 477q0 325 -108 474q-108 150 -343 150h-139v-1251z " />
<glyph unicode="&#x18b;" horiz-adv-x="1750" d="M1061 1356h-739v-236h-135v373h1450v-121h-191v-1251h191v-121h-831q-375 0 -542 105q-168 105 -168 327q0 164 120 263q2 1 4 3q144 117 341 151q10 2 23 3q141 18 345 18h132v486zM1061 121v629h-144h-16q-195 0 -284 -79q-93 -79 -93 -239q0 -159 92 -235l6 -4 q93 -72 295 -72h144z" />
<glyph unicode="&#x18c;" horiz-adv-x="1432" d="M844 479v105q0 186 -48 269q-47 83 -153 83q-109 0 -153 -88q-45 -87 -45 -316t45 -317q44 -88 153 -88q106 0 153 83q48 83 48 269zM1349 1436h-151v-1315h152v-121h-506v135q-45 -83 -121 -123q-76 -41 -188 -41q-227 0 -357 150q-131 150 -131 411t131 410 q130 150 357 150q112 0 188 -40q76 -41 121 -124v508h-478v-168h-121v288h1104v-120z" />
<glyph unicode="&#x18d;" horiz-adv-x="1366" d="M1012 41q163 -94 163 -238q0 -169 -133 -238l-12 -6q-129 -63 -346 -63q-100 0 -223 13q-120 13 -236 37v213h112q5 -36 21 -57q10 -14 55 -47q66 -46 173 -46q120 0 184 48l33 27q39 35 31 123q0 164 -150 164q-283 0 -441 149q-159 149 -159 411t160 411 q159 150 440 150t440 -150q160 -149 160 -411q0 -263 -160 -411q-95 -89 -112 -79zM684 979q-112 0 -158 -96q-45 -96 -45 -352t45 -351q45 -96 158 -96t159 96q46 97 46 351t-46 351t-159 97z" />
<glyph unicode="&#x18e;" horiz-adv-x="1561" d="M1456 0h-1360v352h137v-215h647v604h-391v-190h-137v516h137v-190h391v479h-628v-215h-138v352h1342v-121h-191v-1251h191v-121z" />
<glyph unicode="&#x18f;" horiz-adv-x="1784" d="M1266 830q0 269 -104 408q-106 160 -326 160q-149 0 -244 -83q-94 -83 -137 -252h-199q59 231 212 344q153 112 411 112q378 0 597 -209q220 -208 220 -565q0 -362 -214 -568q-215 -206 -591 -206q-377 0 -591 206t-214 568v85h1180zM1267 669h-752q0 -281 93 -415 q100 -162 283 -162q191 0 284 161q92 142 92 416z" />
<glyph unicode="&#x190;" horiz-adv-x="1477" d="M1304 1450v-299h-121q-14 123 -83 187.5t-238 64.5t-238.5 -67.5t-69.5 -198.5t74 -199t341 -68h52v-120h-66q-279 0 -365.5 -88t-86.5 -246q0 -159 76.5 -243.5t268.5 -84.5q131 0 221.5 69t97.5 126h199q-46 -111 -187.5 -211.5t-378.5 -100.5q-380 0 -542 111.5 t-162 320.5q0 171 101.5 278.5t285.5 133.5q-160 29 -243 113t-83 219q0 180 144.5 276.5t490.5 96.5q132 0 256 -17.5t256 -52.5z" />
<glyph unicode="&#x191;" horiz-adv-x="1454" d="M162 -426q-164 0 -338 68v235h130q0 -143 100 -173q26 -9 59 -9q97 0 135 75q40 75 39 279v1323h-191v121h1331v-352h-137v215h-616v-479h379v190h137v-516h-137v190h-379v-700q0 -263 -145 -373q-124 -94 -367 -94z" />
<glyph unicode="&#x192;" horiz-adv-x="881" d="M991 1290h-112q-2 15 -4 28q-11 57 -41 88q-38 38 -107 38q-80 0 -116 -58q-36 -57 -36 -186v-137h267v-121h-267v-971q0 -177 -113 -269q-113 -91 -332 -91q-85 0 -166 9q-81 10 -159 29v228h112q2 -15 4 -28q11 -57 41 -88q38 -38 107 -38q80 0 116 57q36 58 36 187 v975h-158v121h158v133q0 177 113 268q113 92 332 92q85 0 166 -10q81 -9 159 -28v-228z" />
<glyph unicode="&#x193;" horiz-adv-x="1749" d="M1350 1435q24 155 101 217q85 69 187 69q60 0 128 -10t141 -29v-225h-113q0 80 -32 115q-29 36 -95 36q-73 0 -102 -47t-29 -170v-367h-127q-45 198 -150 286q-105 89 -296 89q-232 0 -341 -157q-108 -158 -108 -497q0 -336 104 -495q104 -158 324 -158q84 0 156 19 t131 57v410h-180v120h538v-573q-168 -78 -335 -116q-168 -38 -343 -38q-384 0 -603 207q-220 207 -220 567q0 361 220 568q219 207 603 207q236 0 315 -32z" />
<glyph unicode="&#x194;" horiz-adv-x="1578" d="M674 710l-480 676h-184v107h681v-107h-56l267 -420l311 420h-199v107h562v-107h-193l-404 -531q565 -765 377 -899q-202 -144 -585 -144q-407 0 -478 200q-65 181 381 698zM759 595q-317 -383 -315 -515q3 -150 327 -147q289 2 273 152q-12 117 -285 510z" />
<glyph unicode="&#x195;" horiz-adv-x="2136" d="M1290 346q0 -226 152 -225q101 0 164 112q62 112 62 297q0 161 -42 257q-53 121 -83 148v44h129q176 -64 279 -193q104 -130 104 -272q0 -108 -50 -207q-49 -99 -141 -172q-83 -67 -191 -102q-109 -36 -231 -36q-506 0 -506 351v338q0 135 -34 188q-35 52 -120 52 q-107 0 -157 -78q-50 -79 -50 -250v-477h130v-121h-635v121h151v1315h-158v120h512v-643q64 95 146 137t207 42q179 0 270 -106q92 -105 92 -310v-330z" />
<glyph unicode="&#x196;" horiz-adv-x="958" d="M287 337v1035h-191v121h768v-121h-192v-1021q0 -131 39 -191q40 -61 135 -61v-99h-200q-201 0 -238 24q-121 78 -121 313z" />
<glyph unicode="&#x197;" horiz-adv-x="958" d="M96 0v121h191v592h-213v137h213v522h-191v121h768v-121h-192v-522h213v-137h-213v-592h192v-121h-768z" />
<glyph unicode="&#x198;" horiz-adv-x="1780" d="M1458 1332l-491 -421l729 -790h147v-121h-506l-665 725v-604h192v-121h-768v121h191v1251h-191v121h768v-121h-192v-545l633 545q138 119 279 121q52 0 128 -9q68 -10 141 -29v-225h-113q0 80 -32 116q-31 38 -95 35q-104 -4 -155 -49z" />
<glyph unicode="&#x199;" horiz-adv-x="1419" d="M221 1226q0 163 115 246q116 84 341 84q60 0 128 -10t141 -29v-225h-113q0 80 -31 116q-30 35 -96 35q-73 0 -102 -47q-29 -49 -29 -170v-669l429 385h-127v121h485v-121h-197l-274 -246l448 -575h115v-121h-610v121h125l-295 379l-99 -88v-291h134v-121h-639v121h151 v1105z" />
<glyph unicode="&#x19a;" horiz-adv-x="778" d="M575 121h152v-121h-657v121h151v358h-151v121h151v836h-151v120h505v-956h152v-121h-152v-358z" />
<glyph unicode="&#x19b;" horiz-adv-x="1436" d="M1228 121h123v-121h-399v121h139l-231 579l-306 -579h129v-121h-610v121h117l503 988v1l-421 -251l-62 105l428 256q-70 125 -136 156q-44 22 -132 24q-65 0 -100 -37q-34 -37 -37 -114h-113v221q74 22 131 32q69 12 109 11q226 0 365 -241l212 126l64 -105l-220 -131 l1 -2z" />
<glyph unicode="&#x19c;" horiz-adv-x="2167" d="M947 174q-74 -106 -160 -154.5t-201 -48.5q-183 0 -273.5 103.5t-90.5 312.5v985h-152v121h633v-121h-127v-932q0 -199 30.5 -251t113.5 -52q94 0 146 72.5t52 206.5v956h-127v121h608v-121h-127v-932q0 -199 31 -251t113 -52q95 0 147 72.5t52 206.5v956h-127v121h632 v-121h-151v-1251h151v-121h-505v150q-62 -93 -142 -136t-190 -43q-130 0 -211 49.5t-125 153.5z" />
<glyph unicode="&#x19d;" horiz-adv-x="1872" d="M-182 -358v235h130q0 -143 100 -173q26 -9 59 -9q97 0 135 75q39 74 39 279v1323h-191v121h467l901 -1057v936h-190v121h522v-121h-191v-1372h-262l-915 1079v-1038q0 -285 -110 -389q-81 -78 -222 -78q-17 0 -101 17t-171 51z" />
<glyph unicode="&#x19e;" horiz-adv-x="1489" d="M70 0v121h151v821h-151v121h505v-150q64 95 146 137t207 42q179 0 270 -106q92 -106 92 -310v-981h151v-121h-635v121h130v991q0 135 -34 188q-35 52 -120 52q-107 0 -157 -78q-50 -79 -50 -250v-477h130v-121h-635z" />
<glyph unicode="&#x19f;" horiz-adv-x="1784" d="M891 -29q-377 0 -591 206t-214 568t214.5 568.5t590.5 206.5q377 0 591 -206t214 -569q0 -362 -214.5 -568t-590.5 -206zM891 92q191 0 284 161q82 142 92 416h-752q10 -271 93 -415q93 -162 283 -162zM516 830h750q-10 268 -91 408q-93 161 -284 161q-190 0 -283 -163 q-81 -140 -92 -406z" />
<glyph unicode="&#x1a0;" horiz-adv-x="1784" d="M890 92q191 0 284 161t93 492q0 332 -93 493t-284 161q-190 0 -283.5 -162.5t-93.5 -491.5q0 -328 93.5 -490.5t283.5 -162.5zM890 -29q-377 0 -591 206t-214 568t214.5 568.5t590.5 206.5q377 0 591 -206t214 -569q0 -362 -214.5 -568t-590.5 -206zM1383 1248v126 q65 -49 102 -68.5t66 -19.5q41 0 63.5 28t22.5 80q0 39 -8 79.5t-23 78.5h156q11 -54 16.5 -102t5.5 -90q0 -113 -46 -175.5t-130 -62.5q-52 0 -106.5 30.5t-118.5 95.5z" />
<glyph unicode="&#x1a1;" horiz-adv-x="1366" d="M685 84q112 0 157.5 96t45.5 352t-45 351.5t-158 95.5t-159 -96.5t-46 -350.5t46 -351t159 -97zM685 -29q-281 0 -440.5 149.5t-159.5 411.5q0 263 159.5 411.5t440.5 148.5q282 0 441 -148.5t159 -411.5q0 -262 -159.5 -411.5t-440.5 -149.5zM1125 818v126 q65 -49 102 -68.5t66 -19.5q41 0 63.5 28t22.5 80q0 39 -8 79.5t-23 78.5h156q11 -54 16.5 -102t5.5 -90q0 -113 -46 -175.5t-130 -62.5q-52 0 -106.5 30.5t-118.5 95.5z" />
<glyph unicode="&#x1a2;" horiz-adv-x="2458" d="M890 -29q-377 0 -591 206t-214 568t214.5 568.5t590.5 206.5q254 0 434 -94q86 33 168 50q84 17 167 17q267 0 389.5 -112t122.5 -355v-1256h191v-121h-769v121h191v1248q0 205 -38.5 279.5t-135.5 74.5q-76 0 -114 -44q-7 -7 -13 -16q212 -206 212 -567 q0 -362 -214.5 -568t-590.5 -206zM890 92q191 0 284 161t93 492q0 332 -93 493t-284 161q-190 0 -283.5 -162.5t-93.5 -491.5q0 -328 93.5 -490.5t283.5 -162.5z" />
<glyph unicode="&#x1a3;" horiz-adv-x="1932" d="M1365 -305l1 1038q0 123 -29 170t-102 47q-58 0 -88 -27q138 -146 138 -391q0 -262 -159.5 -411.5t-440.5 -149.5t-440.5 149.5t-159.5 411.5q0 263 159.5 411.5t440.5 148.5q187 0 320 -65q68 17 131 26q68 10 128 10q225 0 340.5 -83.5t115.5 -246.5v-1038h164v-121 h-670v121h151zM685 84q112 0 157.5 96t45.5 352t-45 351.5t-158 95.5t-159 -96.5t-46 -350.5t46 -351t159 -97z" />
<glyph unicode="&#x1a4;" horiz-adv-x="1540" d="M287 1493h659q249 0 396 -119q147 -118 147 -317q0 -200 -147 -319q-148 -120 -396 -120h-274v-497h241v-121h-817v121h191v1251q-196 0 -265 -89q-70 -91 -70 -277h-198v358q83 69 320 112q95 17 213 17zM672 739h112q130 0 208 87q77 86 77 231q0 144 -77 229 q-77 86 -208 86h-112v-633z" />
<glyph unicode="&#x1a5;" horiz-adv-x="1432" d="M553 584v-105q0 -186 47 -269q48 -83 154 -83q109 0 154 88q44 88 44 317t-44 316q-45 88 -154 88q-106 0 -154 -83q-47 -83 -47 -269zM199 -305v1428q0 163 115 247q116 83 341 83q60 0 128 -10t141 -29v-225h-113q0 80 -31 115q-30 36 -96 36q-73 0 -102 -47t-29 -170 v-195q45 83 121 124q76 40 188 40q227 0 358 -150q130 -149 130 -410t-130 -411q-131 -150 -358 -150q-112 0 -188 41q-76 40 -121 123v-440h164v-121h-670v121h152z" />
<glyph unicode="&#x1a6;" horiz-adv-x="1702" d="M287 1372h-191v121h764v-121h-188v-170h276q260 0 401.5 -104.5t141.5 -296.5q0 -156 -100.5 -246.5t-303.5 -116.5q89 -13 150 -59q60 -45 106 -133l218 -416h153v-121h-491l-238 451q-77 147 -117 178q-49 39 -135 39h-61l-4 -256h192v-121h-768v121h191zM672 497h131 q140 0 215.5 76t75.5 217t-75.5 216t-215.5 75h-131v-584z" />
<glyph unicode="&#x1a7;" horiz-adv-x="1479" d="M1333 72q-149 -51 -293 -76t-290 -25q-303 0 -459 117q-156 118 -156 344q0 193 93 303q94 110 302 162l224 55q203 52 255 100q52 49 52 142q0 102 -75 154q-76 51 -224 51q-181 0 -279 -71q-98 -72 -127 -226h-127v330q152 44 293 66q142 22 273 22q266 0 413 -124 q148 -123 148 -345q0 -184 -89 -283q-89 -100 -308 -156l-224 -55q-172 -43 -227 -93t-55 -140q0 -114 81 -173t236 -59q191 0 299 83t137 251h127v-354z" />
<glyph unicode="&#x1a8;" horiz-adv-x="1153" d="M1061 31q-124 -30 -235 -45t-210 -15q-271 0 -400 85q-128 86 -128 266q0 139 80 217t289 131l145 37q83 21 115 52t32 85q0 66 -55 100q-56 35 -164 35q-128 0 -196 -55q-69 -55 -78 -164h-113v268q129 33 235 48q107 16 201 16q250 0 370 -84q120 -85 120 -258 q0 -130 -74 -206q-74 -77 -239 -118l-146 -37q-105 -26 -142 -61q-36 -35 -36 -99q0 -70 58 -107q57 -38 165 -38q129 0 204 62q75 63 89 182h113v-297z" />
<glyph unicode="&#x1a9;" horiz-adv-x="1448" d="M83 0l664 748l-664 745h1227v-332h-123v195h-511l398 -470l-548 -608h661v144h123v-422h-1227z" />
<glyph unicode="&#x1aa;" horiz-adv-x="678" d="M753 1523q0 -89 -47 -170q-36 -63 -132 -118q0 -4 -1 -8l-201 -1327q-18 -116 36 -187q43 -57 116 -57q69 0 106.5 38t45.5 116h112v-228q-78 -19 -159 -28.5t-166 -9.5q-207 0 -332 91q-138 102 -113 269l187 1229q-37 -2 -75 -2q-63 0 -111 11q-151 37 -151 189 q0 222 348 225q129 1 242 -83q74 -55 102 -124q25 23 43 51q28 44 40 123h110zM218 1223l1 4q19 124 -29 170q-29 28 -58 30q-132 7 -132 -81q0 -127 184 -125q17 0 34 2z" />
<glyph unicode="&#x1ab;" horiz-adv-x="946" d="M203 942h-154v121h154v330h354v-330h295v-121h-295v-651q0 -139 22 -173t80 -34h277v-209q0 -163 -115.5 -246.5t-340.5 -83.5q-60 0 -128 10t-141 29v225h113q2 -80 31.5 -115.5t95.5 -35.5q72 0 102 47q29 45 29 170v96h-4q-219 0 -297 68.5t-78 251.5v651z" />
<glyph unicode="&#x1ac;" horiz-adv-x="1524" d="M569 1356q-208 0 -265 -73q-70 -91 -70 -277h-198v358q83 69 320 112q95 17 213 17h934v-373h-135v236h-412v-1235h199v-121h-784v121h198v1235z" />
<glyph unicode="&#x1ad;" horiz-adv-x="946" d="M203 942h-154v121h154v163q0 163 115 246q116 84 341 84q60 0 128 -10t141 -29v-225h-113q-2 80 -31 116q-30 35 -96 35q-70 0 -102 -47q-29 -42 -29 -170v-163h295v-121h-295v-651q0 -139 22 -173t80 -34q64 0 95 43t33 133h149q0 -160 -88 -224q-78 -65 -270 -65 q-219 0 -297 69q-78 68 -78 251v651z" />
<glyph unicode="&#x1ae;" horiz-adv-x="1524" d="M569 41v1315h-409v-236h-137v373h1480v-373h-135v236h-412v-1307q0 -205 38 -279q39 -75 136 -75q76 0 114 44q39 44 45 138h130v-235q-87 -34 -171 -51t-167 -17q-267 0 -389 112q-123 112 -123 355z" />
<glyph unicode="&#x1af;" horiz-adv-x="1786" d="M266 1372h-190v121h768v-121h-191v-747q0 -279 87 -390.5t298 -111.5q206 0 292.5 112.5t86.5 389.5v747h-190v121h520v-121h-191v-768q0 -342 -148 -487.5t-497 -145.5q-347 0 -496 147t-149 488v766zM1747 1367v126q65 -49 102 -68.5t66 -19.5q41 0 63.5 28t22.5 80 q0 39 -8 79.5t-23 78.5h156q11 -54 16.5 -102t5.5 -90q0 -113 -46 -175.5t-130 -62.5q-52 0 -106.5 30.5t-118.5 95.5z" />
<glyph unicode="&#x1b0;" horiz-adv-x="1489" d="M1272 1063v-942h151v-121h-506v150q-63 -95 -145 -137t-207 -42q-179 0 -270.5 105.5t-91.5 310.5v555h-152v121h506v-621q0 -198 33 -251.5t121 -53.5q107 0 156.5 79t49.5 251v475h-129v121h484zM1248 818v126q65 -49 102 -68.5t66 -19.5q41 0 63.5 28t22.5 80 q0 39 -8 79.5t-23 78.5h156q11 -54 16.5 -102t5.5 -90q0 -113 -46 -175.5t-130 -62.5q-52 0 -106.5 30.5t-118.5 95.5z" />
<glyph unicode="&#x1b1;" horiz-adv-x="1823" d="M574 1336h-334v-125h-137v309h733v-193q-156 -32 -236 -184t-80 -418q0 -295 100 -449q100 -155 292 -155t292 155q99 154 99 451q0 261 -81 415q-81 153 -235 185v193h734v-309h-136v125h-335q237 -92 359 -252q122 -161 122 -381q0 -316 -225 -509q-224 -194 -594 -194 t-595 194q-225 193 -225 509q0 220 122 381q122 160 360 252z" />
<glyph unicode="&#x1b2;" horiz-adv-x="1823" d="M912 121q192 0 291.5 154.5t99.5 451.5q0 263 -81 415q-70 130 -130 130v100h120q247 -90 397 -288q122 -161 122 -381q0 -316 -224.5 -509.5t-594.5 -193.5h-200q-201 0 -238 24q-121 78 -121 313v1035h-191v121h768v-121h-192v-999q0 -129 39 -191q38 -61 135 -61z" />
<glyph unicode="&#x1b3;" horiz-adv-x="1462" d="M1202 1372q72 123 244 123q49 0 87 -10q68 -10 141 -29v-225h-113q-2 80 -31.5 115.5t-95.5 35.5q-74 0 -102 -47l-392 -665v-549h201v-121h-789v121h201v497l-444 754h-127v121h716v-121h-166l336 -569z" />
<glyph unicode="&#x1b4;" horiz-adv-x="1451" d="M1110 932l-471 -1172q-48 -117 -116 -166t-183 -49q-49 0 -109 11t-131 32v222l113 -1q3 -77 36.5 -114t100.5 -37q65 0 105 35.5t80 134.5l16 37l-463 1077h-115v121h613v-121h-127l270 -629l252 629q61 151 231 150q31 0 99 -10t141 -29v-225h-113q-2 80 -31.5 115.5 t-95.5 35.5q-81 4 -102 -47z" />
<glyph unicode="&#x1b5;" horiz-adv-x="1495" d="M76 0v141l419 572h-263v137h364l371 506h-715v-223h-137v360h1296v-141l-364 -502h257v-137h-356l-418 -576h754v209h137v-346h-1345z" />
<glyph unicode="&#x1b6;" horiz-adv-x="1163" d="M976 600v-121h-226l-267 -360h492v192h119v-311h-1022v121l265 358h-150v121h239l256 346h-459v-182h-119v299h990v-119l-255 -344h137z" />
<glyph unicode="&#x1b7;" horiz-adv-x="1345" d="M730 839q221 -21 332 -105q160 -121 160 -331q0 -209 -165.5 -320.5t-479.5 -111.5q-118 0 -243.5 20t-262.5 60v328h121q11 -142 89 -216.5t216 -74.5q152 0 235 84.5t83 239.5q0 162 -86.5 250t-245.5 88h-66v224l265 382h-430v-223h-137v360h979v-137z" />
<glyph unicode="&#x1b8;" horiz-adv-x="1345" d="M615 839l-364 517v137h979v-360h-137v223h-430l265 -382v-224h-66q-159 0 -245.5 -88t-86.5 -250q0 -155 83 -239.5t235 -84.5q138 0 216 74.5t89 216.5h121v-328q-137 -40 -262.5 -60t-243.5 -20q-314 0 -479.5 111.5t-165.5 320.5q0 210 160 331q111 84 332 105z" />
<glyph unicode="&#x1b9;" horiz-adv-x="1345" d="M615 452l-364 492v119h990v-299h-119v182h-459l265 -358v-225h-66q-159 0 -245.5 -88t-86.5 -250q0 -155 83 -239.5t235 -84.5q138 0 216 74.5t89 216.5h121v-328q-137 -40 -262.5 -60t-243.5 -20q-314 0 -479.5 111.5t-165.5 320.5q0 210 160 331q111 84 332 105z" />
<glyph unicode="&#x1ba;" horiz-adv-x="1345" d="M483 363h-66v225l265 358h-459v-182h-119v299h990v-119l-364 -492q492 -47 492 -236q0 -137 -354 -212t-354 -232q0 -128 243 -128t336 188h113v-184q-234 -98 -666 -98t-432 194q0 160 353.5 254.5t353.5 226.5q0 138 -332 138z" />
<glyph unicode="&#x1bb;" horiz-adv-x="1425" d="M270 1124h-120v322q122 37 241.5 55.5t241.5 18.5q285 0 444.5 -116.5t159.5 -324.5q0 -125 -63 -229h130v-137h-251q-91 -80 -240 -178l-416 -273h707v176h137v-438h-1104v244l221 153q267 185 365 316h-491v137h565q32 92 32 199q0 173 -71.5 263.5t-208.5 90.5 q-118 0 -189 -71.5t-90 -207.5z" />
<glyph unicode="&#x1bc;" horiz-adv-x="1544" d="M1026 840q195 -31 291 -133t96 -304q0 -209 -165.5 -320.5t-479.5 -111.5q-118 0 -243.5 20t-262.5 60v328h121q11 -142 89 -216.5t216 -74.5q152 0 235 84.5t83 239.5q0 162 -86.5 250t-245.5 88h-387v622h-191v121h1331v-352h-137v215h-616v-486q171 -1 352 -30z" />
<glyph unicode="&#x1bd;" horiz-adv-x="1163" d="M730 472q263 -53 332 -105q160 -121 160 -351q0 -209 -165.5 -320.5t-479.5 -111.5q-118 0 -243.5 20t-262.5 60v328h121q11 -142 89 -216.5t216 -74.5q152 0 235 84.5t83 239.5q0 162 -86.5 250t-245.5 88h-263v579h-151v121h1104v-289h-121v168h-478v-459 q113 -2 156 -11z" />
<glyph unicode="&#x1be;" horiz-adv-x="1098" d="M203 1393h354v-344h148v-121h-148v-141q27 -8 116 -85q98 -85 98 -322q0 -224 -98 -317t-358 -93q-72 0 -138 16t-128 50l-3 198h113q4 -82 31 -116q29 -35 119 -35q102 0 127 47q25 48 29 282q4 211 -42 254q-31 30 -104 30h-116v232h-155v121h155v344z" />
<glyph unicode="&#x1bf;" horiz-adv-x="1466" d="M553 15q490 334 490 754q0 113 -64.5 155.5t-190.5 42.5q-102 0 -235 -183v-769zM553 955q150 192 471 192q204 0 288.5 -121.5t84.5 -256.5q0 -420 -844 -901v-173h164v-121h-670v121h152v1247h-152v121h506v-108z" />
<glyph unicode="&#x1c0;" horiz-adv-x="604" d="M410 1493v-1493h-216v1493h216z" />
<glyph unicode="&#x1c1;" horiz-adv-x="1008" d="M410 1493v-1493h-216v1493h216zM814 1493v-1493h-216v1493h216z" />
<glyph unicode="&#x1c2;" horiz-adv-x="940" d="M362 851h-344v162h344v480h216v-480h344v-162h-344v-209h344v-162h-344v-480h-216v480h-344v162h344v209z" />
<glyph unicode="&#x1c3;" horiz-adv-x="604" d="M410 216v-216h-216v216h216zM410 1493v-1061h-216v1061h216z" />
<glyph unicode="&#x1c4;" horiz-adv-x="3271" d="M1852 0v141l891 1215h-715v-223h-137v360h1296v-141l-881 -1215h754v209h137v-346h-1345zM2370 1635l-223 264h164l213 -162l213 162h164l-223 -264h-308zM672 121h139q234 0 342.5 150t108.5 477q0 325 -108 474.5t-343 149.5h-139v-1251zM96 0v121h191v1251h-191v121 h766q402 0 615 -192t213 -553q0 -363 -213.5 -555.5t-614.5 -192.5h-766z" />
<glyph unicode="&#x1c5;" horiz-adv-x="2939" d="M1848 0v121l610 825h-459v-182h-119v299h990v-119l-611 -825h492v192h119v-311h-1022zM2237 1262l-256 376h164l213 -227l213 227h164l-256 -376h-242zM672 121h139q234 0 342.5 150t108.5 477q0 325 -108 474.5t-343 149.5h-139v-1251zM96 0v121h191v1251h-191v121h766 q402 0 615 -192t213 -553q0 -363 -213.5 -555.5t-614.5 -192.5h-766z" />
<glyph unicode="&#x1c6;" horiz-adv-x="2595" d="M1504 0v121l610 825h-459v-182h-119v299h990v-119l-611 -825h492v192h119v-311h-1022zM1893 1262l-256 376h164l213 -227l213 227h164l-256 -376h-242zM879 479v105q0 186 -48 269t-153 83q-110 0 -154.5 -87.5t-44.5 -316.5t45 -317t154 -88q105 0 153 83t48 269z M1233 121h151v-121h-505v135q-45 -83 -121.5 -123.5t-188.5 -40.5q-226 0 -355.5 150t-129.5 411q0 262 129.5 411t355.5 149q112 0 188.5 -40.5t121.5 -123.5v508h-152v120h506v-1435z" />
<glyph unicode="&#x1c7;" horiz-adv-x="2409" d="M1290 -358v235h130q6 -94 44.5 -138t114.5 -44q97 0 135.5 74.5t38.5 279.5v1323h-217v121h795v-121h-191v-1331q0 -243 -122.5 -355t-389.5 -112q-83 0 -167 17t-171 51zM96 0v121h191v1251h-191v121h768v-121h-192v-1235h588v236h135v-373h-1299z" />
<glyph unicode="&#x1c8;" horiz-adv-x="2181" d="M1618 1364q0 81 55.5 136.5t137.5 55.5q78 0 134 -56t56 -136q0 -79 -55.5 -134.5t-134.5 -55.5q-81 0 -137 55t-56 135zM1659 942h-151v121h505v-1188q0 -163 -115.5 -246.5t-340.5 -83.5q-60 0 -128 10t-141 29v226l113 -1q2 -80 31.5 -115.5t95.5 -35.5q73 0 102 47 t29 170v1067zM96 0v121h191v1251h-191v121h768v-121h-192v-1235h588v236h135v-373h-1299z" />
<glyph unicode="&#x1c9;" horiz-adv-x="1519" d="M956 1364q0 81 55.5 136.5t137.5 55.5q78 0 134 -56t56 -136q0 -79 -55.5 -134.5t-134.5 -55.5q-81 0 -137 55t-56 135zM997 942h-151v121h505v-1188q0 -163 -115.5 -246.5t-340.5 -83.5q-60 0 -128 10t-141 29v226l113 -1q2 -80 31.5 -115.5t95.5 -35.5q73 0 102 47 t29 170v1067zM575 121h152v-121h-657v121h151v1315h-151v120h505v-1435z" />
<glyph unicode="&#x1ca;" horiz-adv-x="2841" d="M1722 -358v235h130q6 -94 44.5 -138t114.5 -44q97 0 135.5 74.5t38.5 279.5v1323h-217v121h795v-121h-191v-1331q0 -243 -122.5 -355t-389.5 -112q-83 0 -167 17t-171 51zM90 0v121h191v1251h-191v121h467l901 -1057v936h-190v121h522v-121h-191v-1372h-262l-915 1079 v-958h190v-121h-522z" />
<glyph unicode="&#x1cb;" horiz-adv-x="2613" d="M2050 1364q0 81 55.5 136.5t137.5 55.5q78 0 134 -56t56 -136q0 -79 -55.5 -134.5t-134.5 -55.5q-81 0 -137 55t-56 135zM2091 942h-151v121h505v-1188q0 -163 -115.5 -246.5t-340.5 -83.5q-60 0 -128 10t-141 29v226l113 -1q2 -80 31.5 -115.5t95.5 -35.5q73 0 102 47 t29 170v1067zM90 0v121h191v1251h-191v121h467l901 -1057v936h-190v121h522v-121h-191v-1372h-262l-915 1079v-958h190v-121h-522z" />
<glyph unicode="&#x1cc;" horiz-adv-x="2230" d="M1667 1364q0 81 55.5 136.5t137.5 55.5q78 0 134 -56t56 -136q0 -79 -55.5 -134.5t-134.5 -55.5q-81 0 -137 55t-56 135zM1708 942h-151v121h505v-1188q0 -163 -115.5 -246.5t-340.5 -83.5q-60 0 -128 10t-141 29v226l113 -1q2 -80 31.5 -115.5t95.5 -35.5q73 0 102 47 t29 170v1067zM70 0v121h151v821h-151v121h505v-150q64 95 146 137t207 42q179 0 270.5 -105.5t91.5 -310.5v-555h152v-121h-635v121h129v565q0 135 -34.5 187.5t-119.5 52.5q-107 0 -157 -78.5t-50 -249.5v-477h130v-121h-635z" />
<glyph unicode="&#x1cd;" horiz-adv-x="1589" d="M-16 0v121h122l562 1372h239l563 -1372h142v-121h-699v121h146l-123 305h-561l-125 -305h178v-121h-444zM424 547h463l-230 571zM618 1635l-223 264h164l213 -162l213 162h164l-223 -264h-308z" />
<glyph unicode="&#x1ce;" horiz-adv-x="1327" d="M1128 653v-532h152v-121h-506v135q-70 -84 -156 -124t-196 -40q-163 0 -250.5 87.5t-87.5 250.5q0 179 125.5 268t378.5 89h186v63q0 129 -61 190.5t-189 61.5q-106 0 -163.5 -43.5t-81.5 -142.5h-113v229q95 34 197 51t215 17q285 0 417.5 -106t132.5 -333zM774 334v213 h-133q-99 0 -152 -54t-53 -155t38.5 -151t117.5 -50q82 0 132 54t50 143zM481 1262l-256 376h164l213 -227l213 227h164l-256 -376h-242z" />
<glyph unicode="&#x1cf;" horiz-adv-x="958" d="M96 0v121h191v1251h-191v121h768v-121h-192v-1251h192v-121h-768zM328 1635l-223 264h164l213 -162l213 162h164l-223 -264h-308z" />
<glyph unicode="&#x1d0;" horiz-adv-x="778" d="M575 121h152v-121h-657v121h151v821h-151v121h505v-942zM269 1262l-256 376h164l213 -227l213 227h164l-256 -376h-242z" />
<glyph unicode="&#x1d1;" horiz-adv-x="1784" d="M891 92q191 0 284 161t93 492q0 332 -93 493t-284 161q-190 0 -283.5 -162.5t-93.5 -491.5q0 -328 93.5 -490.5t283.5 -162.5zM891 -29q-377 0 -591 206t-214 568t214.5 568.5t590.5 206.5q377 0 591 -206t214 -569q0 -362 -214.5 -568t-590.5 -206zM740 1635l-223 264 h164l213 -162l213 162h164l-223 -264h-308z" />
<glyph unicode="&#x1d2;" horiz-adv-x="1366" d="M684 84q112 0 157.5 96t45.5 352t-45 351.5t-158 95.5t-159 -96.5t-46 -350.5t46 -351t159 -97zM684 -29q-281 0 -440.5 149.5t-159.5 411.5q0 263 159.5 411.5t440.5 148.5q282 0 441 -148.5t159 -411.5q0 -262 -159.5 -411.5t-440.5 -149.5zM563 1262l-256 376h164 l213 -227l213 227h164l-256 -376h-242z" />
<glyph unicode="&#x1d3;" horiz-adv-x="1786" d="M260 1372h-190v121h768v-121h-191v-747q0 -279 87 -390.5t298 -111.5q206 0 292.5 112.5t86.5 389.5v747h-190v121h520v-121h-191v-768q0 -342 -148 -487.5t-497 -145.5q-347 0 -496 147t-149 488v766zM790 1635l-223 264h164l213 -162l213 162h164l-223 -264h-308z" />
<glyph unicode="&#x1d4;" horiz-adv-x="1489" d="M1268 1063v-942h151v-121h-506v150q-63 -95 -145 -137t-207 -42q-179 0 -270.5 105.5t-91.5 310.5v555h-152v121h506v-621q0 -198 33 -251.5t121 -53.5q107 0 156.5 79t49.5 251v475h-129v121h484zM583 1262l-256 376h164l213 -227l213 227h164l-256 -376h-242z" />
<glyph unicode="&#x1d5;" horiz-adv-x="1786" d="M573 1747q0 60 44 103.5t104 43.5q59 0 102 -43.5t43 -103.5t-42.5 -103t-102.5 -43t-104 43t-44 103zM1020 1747q0 60 43.5 103.5t103.5 43.5t104 -43.5t44 -103.5t-44 -103t-104 -43t-103.5 43t-43.5 103zM629 2122h630v-188h-630v188zM260 1372h-190v121h768v-121 h-191v-747q0 -279 87 -390.5t298 -111.5q206 0 292.5 112.5t86.5 389.5v747h-190v121h520v-121h-191v-768q0 -342 -148 -487.5t-497 -145.5q-347 0 -496 147t-149 488v766z" />
<glyph unicode="&#x1d6;" horiz-adv-x="1489" d="M336 1467q0 60 44 103.5t104 43.5q59 0 102 -43.5t43 -103.5t-42.5 -103t-102.5 -43t-104 43t-44 103zM783 1467q0 60 43.5 103.5t103.5 43.5t104 -43.5t44 -103.5t-44 -103t-104 -43t-103.5 43t-43.5 103zM392 1842h630v-188h-630v188zM1268 1063v-942h151v-121h-506 v150q-63 -95 -145 -137t-207 -42q-179 0 -270.5 105.5t-91.5 310.5v555h-152v121h506v-621q0 -198 33 -251.5t121 -53.5q107 0 156.5 79t49.5 251v475h-129v121h484z" />
<glyph unicode="&#x1d7;" horiz-adv-x="1786" d="M573 1747q0 60 44 103.5t104 43.5q59 0 102 -43.5t43 -103.5t-42.5 -103t-102.5 -43t-104 43t-44 103zM1020 1747q0 60 43.5 103.5t103.5 43.5t104 -43.5t44 -103.5t-44 -103t-104 -43t-103.5 43t-43.5 103zM1004 2165h279l-297 -264h-164zM260 1372h-190v121h768v-121 h-191v-747q0 -279 87 -390.5t298 -111.5q206 0 292.5 112.5t86.5 389.5v747h-190v121h520v-121h-191v-768q0 -342 -148 -487.5t-497 -145.5q-347 0 -496 147t-149 488v766z" />
<glyph unicode="&#x1d8;" horiz-adv-x="1489" d="M336 1467q0 60 44 103.5t104 43.5q59 0 102 -43.5t43 -103.5t-42.5 -103t-102.5 -43t-104 43t-44 103zM783 1467q0 60 43.5 103.5t103.5 43.5t104 -43.5t44 -103.5t-44 -103t-104 -43t-103.5 43t-43.5 103zM767 1885h279l-297 -264h-164zM1268 1063v-942h151v-121h-506 v150q-63 -95 -145 -137t-207 -42q-179 0 -270.5 105.5t-91.5 310.5v555h-152v121h506v-621q0 -198 33 -251.5t121 -53.5q107 0 156.5 79t49.5 251v475h-129v121h484z" />
<glyph unicode="&#x1d9;" horiz-adv-x="1786" d="M573 1747q0 60 44 103.5t104 43.5q59 0 102 -43.5t43 -103.5t-42.5 -103t-102.5 -43t-104 43t-44 103zM1020 1747q0 60 43.5 103.5t103.5 43.5t104 -43.5t44 -103.5t-44 -103t-104 -43t-103.5 43t-43.5 103zM790 1901l-223 264h164l213 -162l213 162h164l-223 -264h-308z M260 1372h-190v121h768v-121h-191v-747q0 -279 87 -390.5t298 -111.5q206 0 292.5 112.5t86.5 389.5v747h-190v121h520v-121h-191v-768q0 -342 -148 -487.5t-497 -145.5q-347 0 -496 147t-149 488v766z" />
<glyph unicode="&#x1da;" horiz-adv-x="1489" d="M336 1467q0 60 44 103.5t104 43.5q59 0 102 -43.5t43 -103.5t-42.5 -103t-102.5 -43t-104 43t-44 103zM783 1467q0 60 43.5 103.5t103.5 43.5t104 -43.5t44 -103.5t-44 -103t-104 -43t-103.5 43t-43.5 103zM553 1621l-223 264h164l213 -162l213 162h164l-223 -264h-308z M1268 1063v-942h151v-121h-506v150q-63 -95 -145 -137t-207 -42q-179 0 -270.5 105.5t-91.5 310.5v555h-152v121h506v-621q0 -198 33 -251.5t121 -53.5q107 0 156.5 79t49.5 251v475h-129v121h484z" />
<glyph unicode="&#x1db;" horiz-adv-x="1786" d="M573 1747q0 60 44 103.5t104 43.5q59 0 102 -43.5t43 -103.5t-42.5 -103t-102.5 -43t-104 43t-44 103zM1020 1747q0 60 43.5 103.5t103.5 43.5t104 -43.5t44 -103.5t-44 -103t-104 -43t-103.5 43t-43.5 103zM870 2165l182 -264h-164l-297 264h279zM260 1372h-190v121h768 v-121h-191v-747q0 -279 87 -390.5t298 -111.5q206 0 292.5 112.5t86.5 389.5v747h-190v121h520v-121h-191v-768q0 -342 -148 -487.5t-497 -145.5q-347 0 -496 147t-149 488v766z" />
<glyph unicode="&#x1dc;" horiz-adv-x="1489" d="M336 1467q0 60 44 103.5t104 43.5q59 0 102 -43.5t43 -103.5t-42.5 -103t-102.5 -43t-104 43t-44 103zM783 1467q0 60 43.5 103.5t103.5 43.5t104 -43.5t44 -103.5t-44 -103t-104 -43t-103.5 43t-43.5 103zM633 1885l182 -264h-164l-297 264h279zM1268 1063v-942h151 v-121h-506v150q-63 -95 -145 -137t-207 -42q-179 0 -270.5 105.5t-91.5 310.5v555h-152v121h506v-621q0 -198 33 -251.5t121 -53.5q107 0 156.5 79t49.5 251v475h-129v121h484z" />
<glyph unicode="&#x1dd;" horiz-adv-x="1303" d="M473 463q0 -210 39 -294.5t133 -84.5q91 0 130.5 83t39.5 278v18h-342zM84 582h731v8q0 206 -62 297.5t-200 91.5q-115 0 -186 -61t-91 -177h-166q43 181 171 266t358 85q276 0 423.5 -145.5t147.5 -415.5q0 -264 -151 -412t-420 -148q-264 0 -405 155.5t-150 455.5z" />
<glyph unicode="&#x1de;" horiz-adv-x="1589" d="M401 1747q0 60 44 103.5t104 43.5q59 0 102 -43.5t43 -103.5t-42.5 -103t-102.5 -43t-104 43t-44 103zM848 1747q0 60 43.5 103.5t103.5 43.5t104 -43.5t44 -103.5t-44 -103t-104 -43t-103.5 43t-43.5 103zM457 2122h630v-188h-630v188zM-16 0v121h122l562 1372h239 l563 -1372h142v-121h-699v121h146l-123 305h-561l-125 -305h178v-121h-444zM424 547h463l-230 571z" />
<glyph unicode="&#x1df;" horiz-adv-x="1327" d="M229 1467q0 60 44 103.5t104 43.5q59 0 102 -43.5t43 -103.5t-42.5 -103t-102.5 -43t-104 43t-44 103zM676 1467q0 60 43.5 103.5t103.5 43.5t104 -43.5t44 -103.5t-44 -103t-104 -43t-103.5 43t-43.5 103zM285 1842h630v-188h-630v188zM1128 653v-532h152v-121h-506v135 q-70 -84 -156 -124t-196 -40q-163 0 -250.5 87.5t-87.5 250.5q0 179 125.5 268t378.5 89h186v63q0 129 -61 190.5t-189 61.5q-106 0 -163.5 -43.5t-81.5 -142.5h-113v229q95 34 197 51t215 17q285 0 417.5 -106t132.5 -333zM774 334v213h-133q-99 0 -152 -54t-53 -155 t38.5 -151t117.5 -50q82 0 132 54t50 143z" />
<glyph unicode="&#x1e0;" horiz-adv-x="1589" d="M457 2122h630v-188h-630v188zM625 1747q0 60 43.5 103.5t103.5 43.5t103.5 -43.5t43.5 -103.5t-43.5 -103t-103.5 -43t-103.5 43t-43.5 103zM-16 0v121h122l562 1372h239l563 -1372h142v-121h-699v121h146l-123 305h-561l-125 -305h178v-121h-444zM424 547h463l-230 571z " />
<glyph unicode="&#x1e1;" horiz-adv-x="1327" d="M285 1842h630v-188h-630v188zM453 1467q0 60 43.5 103.5t103.5 43.5t103.5 -43.5t43.5 -103.5t-43.5 -103t-103.5 -43t-103.5 43t-43.5 103zM1128 653v-532h152v-121h-506v135q-70 -84 -156 -124t-196 -40q-163 0 -250.5 87.5t-87.5 250.5q0 179 125.5 268t378.5 89h186 v63q0 129 -61 190.5t-189 61.5q-106 0 -163.5 -43.5t-81.5 -142.5h-113v229q95 34 197 51t215 17q285 0 417.5 -106t132.5 -333zM774 334v213h-133q-99 0 -152 -54t-53 -155t38.5 -151t117.5 -50q82 0 132 54t50 143z" />
<glyph unicode="&#x1e2;" horiz-adv-x="2118" d="M903 1872h630v-188h-630v188zM401 545h465v827h-75zM676 0v121h190v303h-522l-143 -303h164v-121h-428v121h114l592 1251h-201v121h1551v-352h-138v215h-602v-479h367v190h135v-516h-135v190h-367v-604h623v215h135v-352h-1335z" />
<glyph unicode="&#x1e3;" horiz-adv-x="1997" d="M648 1562h630v-188h-630v188zM1513 600q0 210 -39 294.5t-133 84.5q-91 0 -130.5 -83t-39.5 -278v-18h342zM975 936q77 78 169.5 117t203.5 39q263 0 404 -155t150 -456h-731v-8q0 -206 62 -297.5t201 -91.5q114 0 184 60.5t90 177.5h168q-43 -181 -170.5 -266 t-357.5 -85q-134 0 -238 38.5t-182 117.5q-89 -78 -194.5 -117t-229.5 -39q-206 0 -313 86.5t-107 251.5q0 180 127.5 268.5t386.5 88.5h186v63q0 116 -70.5 183t-193.5 67q-103 0 -160 -43.5t-81 -140.5h-113v229q95 34 197 51t215 17q137 0 235 -38.5t162 -117.5zM784 330 v217h-133q-109 0 -162 -55t-53 -168t39.5 -161t128.5 -48q86 0 133 56t47 159z" />
<glyph unicode="&#x1e4;" horiz-adv-x="1834" d="M1409 1024q-45 198 -150 286.5t-296 88.5q-232 0 -340.5 -157.5t-108.5 -496.5q0 -336 104 -494.5t324 -158.5q84 0 156 19t131 57v143h-369v120h369v147h-180v120h538v-267h199v-120h-199v-186q-168 -78 -335.5 -116t-342.5 -38q-384 0 -603.5 207t-219.5 567 q0 361 219.5 568t603.5 207q160 0 315 -32t312 -97v-367h-127z" />
<glyph unicode="&#x1e5;" horiz-adv-x="1432" d="M879 475h-207v121h207q-2 177 -48 257q-48 83 -153 83q-110 0 -154.5 -87.5t-44.5 -316.5t45 -317t154 -88q105 0 153 83q47 82 48 265zM1233 475v-461q0 -224 -159.5 -346.5t-450.5 -122.5q-106 0 -215 16.5t-224 49.5v254h113q15 -105 84.5 -156t198.5 -51 q164 0 231.5 78.5t67.5 277.5v121q-45 -83 -121.5 -123.5t-188.5 -40.5q-226 0 -355.5 150t-129.5 411q0 262 129.5 411t355.5 149q112 0 188.5 -40.5t121.5 -123.5v135h505v-121h-151v-346h151v-121h-151z" />
<glyph unicode="&#x1e6;" horiz-adv-x="1749" d="M756 1635l-223 264h164l213 -162l213 162h164l-223 -264h-308zM1409 1024q-45 198 -150 286.5t-296 88.5q-232 0 -340.5 -157.5t-108.5 -496.5q0 -336 104 -494.5t324 -158.5q84 0 156 19t131 57v410h-180v120h538v-573q-168 -78 -335.5 -116t-342.5 -38 q-384 0 -603.5 207t-219.5 567q0 361 219.5 568t603.5 207q160 0 315 -32t312 -97v-367h-127z" />
<glyph unicode="&#x1e7;" horiz-adv-x="1432" d="M557 1262l-256 376h164l213 -227l213 227h164l-256 -376h-242zM1233 942v-928q0 -224 -159.5 -346.5t-450.5 -122.5q-106 0 -215 16.5t-224 49.5v254h113q15 -105 84.5 -156t198.5 -51q164 0 231.5 78.5t67.5 277.5v121q-45 -83 -121.5 -123.5t-188.5 -40.5 q-226 0 -355.5 150t-129.5 411q0 262 129.5 411t355.5 149q112 0 188.5 -40.5t121.5 -123.5v135h505v-121h-151zM879 584q0 186 -48 269t-153 83q-110 0 -154.5 -87.5t-44.5 -316.5t45 -317t154 -88q105 0 153 83t48 269v105z" />
<glyph unicode="&#x1e8;" horiz-adv-x="1780" d="M876 1635l-223 264h164l213 -162l213 162h164l-223 -264h-308zM96 0v121h191v1251h-191v121h768v-121h-192v-545l633 545h-160v121h557v-121h-199l-536 -461l729 -790h147v-121h-506l-665 725v-604h192v-121h-768z" />
<glyph unicode="&#x1e9;" horiz-adv-x="1419" d="M174 1635l-223 264h164l213 -162l213 162h164l-223 -264h-308zM709 0h-639v121h151v1315h-151v120h505v-999l429 385h-127v121h485v-121h-197l-274 -246l448 -575h115v-121h-610v121h125l-295 379l-99 -88v-291h134v-121z" />
<glyph unicode="&#x1ea;" horiz-adv-x="1784" d="M828 -16h125q-49 -65 -68.5 -102t-19.5 -66q0 -41 28.5 -63.5t80.5 -22.5q39 0 79.5 8t78.5 23l-1 -156q-54 -11 -102 -16.5t-90 -5.5q-113 0 -175.5 46t-62.5 130q0 52 31 106.5t96 118.5zM891 92q191 0 284 161t93 492q0 332 -93 493t-284 161q-190 0 -283.5 -162.5 t-93.5 -491.5q0 -328 93.5 -490.5t283.5 -162.5zM891 -29q-377 0 -591 206t-214 568t214.5 568.5t590.5 206.5q377 0 591 -206t214 -569q0 -362 -214.5 -568t-590.5 -206z" />
<glyph unicode="&#x1eb;" horiz-adv-x="1366" d="M622 -16h125q-49 -65 -68.5 -102t-19.5 -66q0 -41 28.5 -63.5t80.5 -22.5q39 0 79.5 8t78.5 23l-1 -156q-54 -11 -102 -16.5t-90 -5.5q-113 0 -175.5 46t-62.5 130q0 52 31 106.5t96 118.5zM684 84q112 0 157.5 96t45.5 352t-45 351.5t-158 95.5t-159 -96.5t-46 -350.5 t46 -351t159 -97zM684 -29q-281 0 -440.5 149.5t-159.5 411.5q0 263 159.5 411.5t440.5 148.5q282 0 441 -148.5t159 -411.5q0 -262 -159.5 -411.5t-440.5 -149.5z" />
<glyph unicode="&#x1ec;" horiz-adv-x="1784" d="M576 1872h630v-188h-630v188zM828 -16h125q-49 -65 -68.5 -102t-19.5 -66q0 -41 28.5 -63.5t80.5 -22.5q39 0 79.5 8t78.5 23l-1 -156q-54 -11 -102 -16.5t-90 -5.5q-113 0 -175.5 46t-62.5 130q0 52 31 106.5t96 118.5zM891 92q191 0 284 161t93 492q0 332 -93 493 t-284 161q-190 0 -283.5 -162.5t-93.5 -491.5q0 -328 93.5 -490.5t283.5 -162.5zM891 -29q-377 0 -591 206t-214 568t214.5 568.5t590.5 206.5q377 0 591 -206t214 -569q0 -362 -214.5 -568t-590.5 -206z" />
<glyph unicode="&#x1ed;" horiz-adv-x="1366" d="M369 1562h630v-188h-630v188zM622 -16h125q-49 -65 -68.5 -102t-19.5 -66q0 -41 28.5 -63.5t80.5 -22.5q39 0 79.5 8t78.5 23l-1 -156q-54 -11 -102 -16.5t-90 -5.5q-113 0 -175.5 46t-62.5 130q0 52 31 106.5t96 118.5zM684 84q112 0 157.5 96t45.5 352t-45 351.5 t-158 95.5t-159 -96.5t-46 -350.5t46 -351t159 -97zM684 -29q-281 0 -440.5 149.5t-159.5 411.5q0 263 159.5 411.5t440.5 148.5q282 0 441 -148.5t159 -411.5q0 -262 -159.5 -411.5t-440.5 -149.5z" />
<glyph unicode="&#x1ee;" horiz-adv-x="1345" d="M504 1635l-223 264h164l213 -162l213 162h164l-223 -264h-308zM730 839q221 -21 332 -105q160 -121 160 -331q0 -209 -165.5 -320.5t-479.5 -111.5q-118 0 -243.5 20t-262.5 60v328h121q11 -142 89 -216.5t216 -74.5q152 0 235 84.5t83 239.5q0 162 -86.5 250t-245.5 88 h-66v224l265 382h-430v-223h-137v360h979v-137z" />
<glyph unicode="&#x1ef;" horiz-adv-x="1163" d="M461 1262l-256 376h164l213 -227l213 227h164l-256 -376h-242zM730 452q221 -21 332 -105q160 -121 160 -331q0 -209 -165.5 -320.5t-479.5 -111.5q-118 0 -243.5 20t-262.5 60v328h121q11 -142 89 -216.5t216 -74.5q152 0 235 84.5t83 239.5q0 162 -86.5 250t-245.5 88 h-66v225l265 358h-459v-182h-119v299h990v-119z" />
<glyph unicode="&#x1f0;" horiz-adv-x="778" d="M219 942h-151v121h505v-1188q0 -163 -115.5 -246.5t-340.5 -83.5q-60 0 -128 10t-141 29v226l113 -1q2 -80 31.5 -115.5t95.5 -35.5q73 0 102 47t29 170v1067zM269 1262l-256 376h164l213 -227l213 227h164l-256 -376h-242z" />
<glyph unicode="&#x1f1;" horiz-adv-x="3271" d="M1852 0v141l891 1215h-715v-223h-137v360h1296v-141l-881 -1215h754v209h137v-346h-1345zM672 121h139q234 0 342.5 150t108.5 477q0 325 -108 474.5t-343 149.5h-139v-1251zM96 0v121h191v1251h-191v121h766q402 0 615 -192t213 -553q0 -363 -213.5 -555.5 t-614.5 -192.5h-766z" />
<glyph unicode="&#x1f2;" horiz-adv-x="2939" d="M1848 0v121l610 825h-459v-182h-119v299h990v-119l-611 -825h492v192h119v-311h-1022zM672 121h139q234 0 342.5 150t108.5 477q0 325 -108 474.5t-343 149.5h-139v-1251zM96 0v121h191v1251h-191v121h766q402 0 615 -192t213 -553q0 -363 -213.5 -555.5t-614.5 -192.5 h-766z" />
<glyph unicode="&#x1f3;" horiz-adv-x="2595" d="M1504 0v121l610 825h-459v-182h-119v299h990v-119l-611 -825h492v192h119v-311h-1022zM879 479v105q0 186 -48 269t-153 83q-110 0 -154.5 -87.5t-44.5 -316.5t45 -317t154 -88q105 0 153 83t48 269zM1233 121h151v-121h-505v135q-45 -83 -121.5 -123.5t-188.5 -40.5 q-226 0 -355.5 150t-129.5 411q0 262 129.5 411t355.5 149q112 0 188.5 -40.5t121.5 -123.5v508h-152v120h506v-1435z" />
<glyph unicode="&#x1f4;" horiz-adv-x="1749" d="M926 1900h279l-297 -264h-164zM1409 1024q-45 198 -150 286.5t-296 88.5q-232 0 -340.5 -157.5t-108.5 -496.5q0 -336 104 -494.5t324 -158.5q84 0 156 19t131 57v410h-180v120h538v-573q-168 -78 -335.5 -116t-342.5 -38q-384 0 -603.5 207t-219.5 567q0 361 219.5 568 t603.5 207q160 0 315 -32t312 -97v-367h-127z" />
<glyph unicode="&#x1f5;" horiz-adv-x="1432" d="M770 1638h279l-373 -376h-164zM1233 942v-928q0 -224 -159.5 -346.5t-450.5 -122.5q-106 0 -215 16.5t-224 49.5v254h113q15 -105 84.5 -156t198.5 -51q164 0 231.5 78.5t67.5 277.5v121q-45 -83 -121.5 -123.5t-188.5 -40.5q-226 0 -355.5 150t-129.5 411 q0 262 129.5 411t355.5 149q112 0 188.5 -40.5t121.5 -123.5v135h505v-121h-151zM879 584q0 186 -48 269t-153 83q-110 0 -154.5 -87.5t-44.5 -316.5t45 -317t154 -88q105 0 153 83t48 269v105z" />
<glyph unicode="&#x1f6;" horiz-adv-x="2501" d="M1651 625q0 -329 50 -391q90 -111 242 -111q176 0 262.5 112.5t86.5 389.5v318h-190v120h329v-459q0 -345 -148 -488q-152 -145 -467 -145q-309 0 -440 147q-110 123 -110 486v129h-594v-612h192v-121h-768v121h191v1251h-191v121h768v-121h-192v-502h594v502h-191v121 h768v-121h-192v-747z" />
<glyph unicode="&#x1f7;" horiz-adv-x="1612" d="M672 267q521 368 521 837q0 124 -62 177t-201 53q-118 0 -258 -194v-873zM672 1308q164 212 518 212q224 0 317 -134t93 -282q0 -462 -928 -991v-418h241v-121h-817v121h191v1677h-191v121h576v-185z" />
<glyph unicode="&#x1f8;" horiz-adv-x="1872" d="M907 1899l182 -264h-164l-297 264h279zM90 0v121h191v1251h-191v121h467l901 -1057v936h-190v121h522v-121h-191v-1372h-262l-915 1079v-958h190v-121h-522z" />
<glyph unicode="&#x1f9;" horiz-adv-x="1489" d="M572 1638l258 -376h-164l-373 376h279zM70 0v121h151v821h-151v121h505v-150q64 95 146 137t207 42q179 0 270.5 -105.5t91.5 -310.5v-555h152v-121h-635v121h129v565q0 135 -34.5 187.5t-119.5 52.5q-107 0 -157 -78.5t-50 -249.5v-477h130v-121h-635z" />
<glyph unicode="&#x1fa;" horiz-adv-x="1589" d="M424 547h463l-228 571zM657 1430q0 -54 39 -92.5t92 -38.5q55 0 93.5 38.5t38.5 92.5t-39 92.5t-93 38.5q-53 0 -92 -38.5t-39 -92.5zM874 1900h279l-240 -213q41 -21 77 -56q83 -84 83 -201q0 -74 -31 -133q-14 -27 -34 -50l462 -1126h142v-121h-699v121h146l-123 305 h-561l-125 -305h178v-121h-444v121h122l463 1126q-20 22 -33 49q-32 60 -32 134q0 117 84 201q67 68 156 81z" />
<glyph unicode="&#x1fb;" horiz-adv-x="1327" d="M1128 653v-532h152v-121h-506v135q-70 -84 -156 -124t-196 -40q-163 0 -250.5 87.5t-87.5 250.5q0 179 125.5 268t378.5 89h186v63q0 129 -61 190.5t-189 61.5q-106 0 -163.5 -43.5t-81.5 -142.5h-113v229q95 34 197 51t215 17q285 0 417.5 -106t132.5 -333zM774 334v213 h-133q-99 0 -152 -54t-53 -155t38.5 -151t117.5 -50q82 0 132 54t50 143zM686 1900h279l-240 -213q41 -20 77 -55q83 -84 83 -202t-83.5 -201.5t-201.5 -83.5t-201.5 83.5t-83.5 201.5t83 202q68 67 158 80zM469 1430q0 -55 38.5 -93t92.5 -38q55 0 93 38.5t38 92.5 t-38.5 92.5t-92.5 38.5q-55 0 -93 -38.5t-38 -92.5z" />
<glyph unicode="&#x1fc;" horiz-adv-x="2118" d="M1231 1900h279l-297 -264h-164zM401 545h465v827h-75zM676 0v121h190v303h-522l-143 -303h164v-121h-428v121h114l592 1251h-201v121h1551v-352h-138v215h-602v-479h367v190h135v-516h-135v190h-367v-604h623v215h135v-352h-1335z" />
<glyph unicode="&#x1fd;" horiz-adv-x="1997" d="M1067 1638h279l-373 -376h-164zM1513 600q0 210 -39 294.5t-133 84.5q-91 0 -130.5 -83t-39.5 -278v-18h342zM975 936q77 78 169.5 117t203.5 39q263 0 404 -155t150 -456h-731v-8q0 -206 62 -297.5t201 -91.5q114 0 184 60.5t90 177.5h168q-43 -181 -170.5 -266 t-357.5 -85q-134 0 -238 38.5t-182 117.5q-89 -78 -194.5 -117t-229.5 -39q-206 0 -313 86.5t-107 251.5q0 180 127.5 268.5t386.5 88.5h186v63q0 116 -70.5 183t-193.5 67q-103 0 -160 -43.5t-81 -140.5h-113v229q95 34 197 51t215 17q137 0 235 -38.5t162 -117.5zM784 330 v217h-133q-109 0 -162 -55t-53 -168t39.5 -161t128.5 -48q86 0 133 56t47 159z" />
<glyph unicode="&#x1fe;" horiz-adv-x="1784" d="M902 1900h279l-297 -264h-164zM535 479l677 678q-42 119 -123.5 180.5t-197.5 61.5q-190 0 -283.5 -162.5t-93.5 -491.5q0 -76 5 -142t16 -124zM571 334q45 -122 124.5 -182t195.5 -60q195 0 287 167t92 525q0 65 -6 115.5t-19 93.5zM1516 1280q90 -104 135 -237.5 t45 -297.5q0 -362 -214.5 -568t-590.5 -206q-158 0 -290.5 39t-238.5 117l-204 -205l-90 90l200 201q-91 102 -136.5 235.5t-45.5 296.5q0 362 214.5 568.5t590.5 206.5q160 0 293 -38.5t237 -115.5l203 203l90 -90z" />
<glyph unicode="&#x1ff;" horiz-adv-x="1366" d="M776 1638h279l-373 -376h-164zM481 416l387 385q-17 90 -62 134t-122 44q-110 0 -156.5 -95.5t-46.5 -330.5v-137zM500 262q15 -89 61 -133.5t123 -44.5q109 0 155 94t46 330v141zM1151 913q66 -72 99.5 -167.5t33.5 -213.5q0 -262 -159.5 -411.5t-440.5 -149.5 q-111 0 -204 24.5t-173 74.5l-172 -172l-84 86l164 163q-65 75 -98 171.5t-33 213.5q0 263 159.5 411.5t440.5 148.5q116 0 210.5 -25t166.5 -74l168 168l86 -86z" />
<glyph unicode="&#x200;" horiz-adv-x="1589" d="M566 1904l182 -264h-164l-297 264h279zM898 1904l182 -264h-164l-297 264h279zM-16 0v121h122l562 1372h239l563 -1372h142v-121h-699v121h146l-123 305h-561l-125 -305h178v-121h-444zM424 547h463l-230 571z" />
<glyph unicode="&#x201;" horiz-adv-x="1327" d="M358 1638l225 -376h-164l-297 376h236zM724 1638l189 -376h-162l-244 376h217zM1128 653v-532h152v-121h-506v135q-70 -84 -156 -124t-196 -40q-163 0 -250.5 87.5t-87.5 250.5q0 179 125.5 268t378.5 89h186v63q0 129 -61 190.5t-189 61.5q-106 0 -163.5 -43.5 t-81.5 -142.5h-113v229q95 34 197 51t215 17q285 0 417.5 -106t132.5 -333zM774 334v213h-133q-99 0 -152 -54t-53 -155t38.5 -151t117.5 -50q82 0 132 54t50 143z" />
<glyph unicode="&#x202;" horiz-adv-x="1589" d="M1114 1651h-125q-6 73 -62 112t-155 39t-155 -39t-62 -112h-125q0 146 90.5 228.5t251.5 82.5q163 0 251.5 -81t90.5 -230zM-16 0v121h122l562 1372h239l563 -1372h142v-121h-699v121h146l-123 305h-561l-125 -305h178v-121h-444zM424 547h463l-230 571z" />
<glyph unicode="&#x203;" horiz-adv-x="1327" d="M942 1278h-125q-6 73 -62 112t-155 39t-155 -39t-62 -112h-125q0 146 90.5 228.5t251.5 82.5q163 0 251.5 -81t90.5 -230zM1128 653v-532h152v-121h-506v135q-70 -84 -156 -124t-196 -40q-163 0 -250.5 87.5t-87.5 250.5q0 179 125.5 268t378.5 89h186v63 q0 129 -61 190.5t-189 61.5q-106 0 -163.5 -43.5t-81.5 -142.5h-113v229q95 34 197 51t215 17q285 0 417.5 -106t132.5 -333zM774 334v213h-133q-99 0 -152 -54t-53 -155t38.5 -151t117.5 -50q82 0 132 54t50 143z" />
<glyph unicode="&#x204;" horiz-adv-x="1561" d="M614 1904l182 -264h-164l-297 264h279zM946 1904l182 -264h-164l-297 264h279zM96 0v121h191v1251h-191v121h1342v-352h-138v215h-628v-479h391v190h137v-516h-137v190h-391v-604h647v215h137v-352h-1360z" />
<glyph unicode="&#x205;" horiz-adv-x="1303" d="M409 1638l225 -376h-164l-297 376h236zM775 1638l189 -376h-162l-244 376h217zM821 600q0 210 -39 294.5t-133 84.5q-91 0 -130.5 -83t-39.5 -278v-18h342zM1210 481h-731v-8q0 -206 62 -297.5t200 -91.5q115 0 186 61t91 177h166q-43 -181 -171 -266t-358 -85 q-276 0 -423.5 145.5t-147.5 415.5q0 264 151 412t420 148q264 0 405 -155.5t150 -455.5z" />
<glyph unicode="&#x206;" horiz-adv-x="1561" d="M1157 1651h-125q-6 73 -62 112t-155 39t-155 -39t-62 -112h-125q0 146 90.5 228.5t251.5 82.5q163 0 251.5 -81t90.5 -230zM96 0v121h191v1251h-191v121h1342v-352h-138v215h-628v-479h391v190h137v-516h-137v190h-391v-604h647v215h137v-352h-1360z" />
<glyph unicode="&#x207;" horiz-adv-x="1303" d="M993 1278h-125q-6 73 -62 112t-155 39t-155 -39t-62 -112h-125q0 146 90.5 228.5t251.5 82.5q163 0 251.5 -81t90.5 -230zM821 600q0 210 -39 294.5t-133 84.5q-91 0 -130.5 -83t-39.5 -278v-18h342zM1210 481h-731v-8q0 -206 62 -297.5t200 -91.5q115 0 186 61t91 177 h166q-43 -181 -171 -266t-358 -85q-276 0 -423.5 145.5t-147.5 415.5q0 264 151 412t420 148q264 0 405 -155.5t150 -455.5z" />
<glyph unicode="&#x208;" horiz-adv-x="958" d="M282 1904l182 -264h-164l-297 264h279zM614 1904l182 -264h-164l-297 264h279zM96 0v121h191v1251h-191v121h768v-121h-192v-1251h192v-121h-768z" />
<glyph unicode="&#x209;" horiz-adv-x="778" d="M575 121h152v-121h-657v121h151v821h-151v121h505v-942zM139 1641l225 -376h-164l-297 376h236zM505 1641l189 -376h-162l-244 376h217z" />
<glyph unicode="&#x20a;" horiz-adv-x="958" d="M821 1651h-125q-6 73 -62 112t-155 39t-155 -39t-62 -112h-125q0 146 90.5 228.5t251.5 82.5q163 0 251.5 -81t90.5 -230zM96 0v121h191v1251h-191v121h768v-121h-192v-1251h192v-121h-768z" />
<glyph unicode="&#x20b;" horiz-adv-x="778" d="M575 121h152v-121h-657v121h151v821h-151v121h505v-942zM723 1260h-125q-6 73 -62 112t-155 39t-155 -39t-62 -112h-125q0 146 90.5 228.5t251.5 82.5q163 0 251.5 -81t90.5 -230z" />
<glyph unicode="&#x20c;" horiz-adv-x="1784" d="M694 1904l182 -264h-164l-297 264h279zM1026 1904l182 -264h-164l-297 264h279zM891 92q191 0 284 161t93 492q0 332 -93 493t-284 161q-190 0 -283.5 -162.5t-93.5 -491.5q0 -328 93.5 -490.5t283.5 -162.5zM891 -29q-377 0 -591 206t-214 568t214.5 568.5t590.5 206.5 q377 0 591 -206t214 -569q0 -362 -214.5 -568t-590.5 -206z" />
<glyph unicode="&#x20d;" horiz-adv-x="1366" d="M442 1638l225 -376h-164l-297 376h236zM808 1638l189 -376h-162l-244 376h217zM684 84q112 0 157.5 96t45.5 352t-45 351.5t-158 95.5t-159 -96.5t-46 -350.5t46 -351t159 -97zM684 -29q-281 0 -440.5 149.5t-159.5 411.5q0 263 159.5 411.5t440.5 148.5 q282 0 441 -148.5t159 -411.5q0 -262 -159.5 -411.5t-440.5 -149.5z" />
<glyph unicode="&#x20e;" horiz-adv-x="1784" d="M1235 1651h-125q-6 73 -62 112t-155 39t-155 -39t-62 -112h-125q0 146 90.5 228.5t251.5 82.5q163 0 251.5 -81t90.5 -230zM891 92q191 0 284 161t93 492q0 332 -93 493t-284 161q-190 0 -283.5 -162.5t-93.5 -491.5q0 -328 93.5 -490.5t283.5 -162.5zM891 -29 q-377 0 -591 206t-214 568t214.5 568.5t590.5 206.5q377 0 591 -206t214 -569q0 -362 -214.5 -568t-590.5 -206z" />
<glyph unicode="&#x20f;" horiz-adv-x="1366" d="M1026 1278h-125q-6 73 -62 112t-155 39t-155 -39t-62 -112h-125q0 146 90.5 228.5t251.5 82.5q163 0 251.5 -81t90.5 -230zM684 84q112 0 157.5 96t45.5 352t-45 351.5t-158 95.5t-159 -96.5t-46 -350.5t46 -351t159 -97zM684 -29q-281 0 -440.5 149.5t-159.5 411.5 q0 263 159.5 411.5t440.5 148.5q282 0 441 -148.5t159 -411.5q0 -262 -159.5 -411.5t-440.5 -149.5z" />
<glyph unicode="&#x210;" horiz-adv-x="1702" d="M662 1904l182 -264h-164l-297 264h279zM994 1904l182 -264h-164l-297 264h279zM1087 729q89 -13 150 -59t106 -133l218 -416h153v-121h-491l-238 451q-69 140 -117.5 178.5t-134.5 38.5h-61v-547h192v-121h-768v121h191v1251h-191v121h852q260 0 401.5 -104.5 t141.5 -296.5q0 -156 -100.5 -246.5t-303.5 -116.5zM672 788h131q140 0 215.5 76t75.5 217t-75.5 216t-215.5 75h-131v-584z" />
<glyph unicode="&#x211;" horiz-adv-x="1079" d="M422 1638l225 -376h-164l-297 376h236zM788 1638l189 -376h-162l-244 376h217zM1100 1075v-317h-113q-6 85 -46 126.5t-116 41.5q-116 0 -183 -102t-67 -283v-420h193v-121h-698v121h151v821h-162v121h516v-189q52 111 137.5 164.5t209.5 53.5q31 0 75.5 -4.5 t102.5 -12.5z" />
<glyph unicode="&#x212;" horiz-adv-x="1702" d="M1207 1651h-125q-6 73 -62 112t-155 39t-155 -39t-62 -112h-125q0 146 90.5 228.5t251.5 82.5q163 0 251.5 -81t90.5 -230zM1087 729q89 -13 150 -59t106 -133l218 -416h153v-121h-491l-238 451q-69 140 -117.5 178.5t-134.5 38.5h-61v-547h192v-121h-768v121h191v1251 h-191v121h852q260 0 401.5 -104.5t141.5 -296.5q0 -156 -100.5 -246.5t-303.5 -116.5zM672 788h131q140 0 215.5 76t75.5 217t-75.5 216t-215.5 75h-131v-584z" />
<glyph unicode="&#x213;" horiz-adv-x="1079" d="M1006 1278h-125q-6 73 -62 112t-155 39t-155 -39t-62 -112h-125q0 146 90.5 228.5t251.5 82.5q163 0 251.5 -81t90.5 -230zM1100 1075v-317h-113q-6 85 -46 126.5t-116 41.5q-116 0 -183 -102t-67 -283v-420h193v-121h-698v121h151v821h-162v121h516v-189 q52 111 137.5 164.5t209.5 53.5q31 0 75.5 -4.5t102.5 -12.5z" />
<glyph unicode="&#x214;" horiz-adv-x="1786" d="M742 1904l182 -264h-164l-297 264h279zM1074 1904l182 -264h-164l-297 264h279zM260 1372h-190v121h768v-121h-191v-747q0 -279 87 -390.5t298 -111.5q206 0 292.5 112.5t86.5 389.5v747h-190v121h520v-121h-191v-768q0 -342 -148 -487.5t-497 -145.5q-347 0 -496 147 t-149 488v766z" />
<glyph unicode="&#x215;" horiz-adv-x="1489" d="M465 1638l225 -376h-164l-297 376h236zM831 1638l189 -376h-162l-244 376h217zM1268 1063v-942h151v-121h-506v150q-63 -95 -145 -137t-207 -42q-179 0 -270.5 105.5t-91.5 310.5v555h-152v121h506v-621q0 -198 33 -251.5t121 -53.5q107 0 156.5 79t49.5 251v475h-129 v121h484z" />
<glyph unicode="&#x216;" horiz-adv-x="1786" d="M1286 1651h-125q-6 73 -62 112t-155 39t-155 -39t-62 -112h-125q0 146 90.5 228.5t251.5 82.5q163 0 251.5 -81t90.5 -230zM260 1372h-190v121h768v-121h-191v-747q0 -279 87 -390.5t298 -111.5q206 0 292.5 112.5t86.5 389.5v747h-190v121h520v-121h-191v-768 q0 -342 -148 -487.5t-497 -145.5q-347 0 -496 147t-149 488v766z" />
<glyph unicode="&#x217;" horiz-adv-x="1489" d="M1049 1278h-125q-6 73 -62 112t-155 39t-155 -39t-62 -112h-125q0 146 90.5 228.5t251.5 82.5q163 0 251.5 -81t90.5 -230zM1268 1063v-942h151v-121h-506v150q-63 -95 -145 -137t-207 -42q-179 0 -270.5 105.5t-91.5 310.5v555h-152v121h506v-621q0 -198 33 -251.5 t121 -53.5q107 0 156.5 79t49.5 251v475h-129v121h484z" />
<glyph unicode="&#x218;" horiz-adv-x="1479" d="M158 72v354h127q29 -168 137 -251t299 -83q155 0 236 59t81 173q0 90 -55 140t-227 93l-224 55q-219 56 -308 155.5t-89 283.5q0 222 147.5 345.5t413.5 123.5q131 0 272.5 -22t293.5 -66v-330h-127q-29 154 -127 225.5t-279 71.5q-148 0 -223.5 -51.5t-75.5 -153.5 q0 -93 52 -141.5t255 -100.5l224 -55q208 -52 301.5 -162t93.5 -303q0 -226 -156 -343.5t-459 -117.5q-146 0 -290 25t-293 76zM510 -400q78 42 115 94t37 121v43h214v-4q0 -111 -70 -190q-69 -80 -213 -135z" />
<glyph unicode="&#x219;" horiz-adv-x="1153" d="M96 31v297h113q14 -119 89 -181.5t204 -62.5q108 0 165.5 37.5t57.5 107.5q0 64 -36.5 99t-141.5 61l-146 37q-165 41 -239 117.5t-74 206.5q0 173 120 257.5t370 84.5q94 0 200.5 -15.5t235.5 -48.5v-268h-113q-9 109 -77.5 164t-196.5 55q-108 0 -163.5 -34.5 t-55.5 -100.5q0 -54 32 -85t115 -52l145 -37q209 -53 289 -131t80 -217q0 -180 -128.5 -265.5t-399.5 -85.5q-99 0 -210 15t-235 45zM318 -400q78 42 115 94t37 121v43h214v-4q0 -111 -70 -190q-69 -80 -213 -135z" />
<glyph unicode="&#x21a;" horiz-adv-x="1524" d="M527 -400q78 42 115 94t37 121v43h214v-4q0 -111 -70 -190q-69 -80 -213 -135zM371 0v121h198v1235h-409v-236h-137v373h1480v-373h-135v236h-412v-1235h199v-121h-784z" />
<glyph unicode="&#x21b;" horiz-adv-x="946" d="M318 -400q78 42 115 94t37 121v43h214v-4q0 -111 -70 -190q-69 -80 -213 -135zM203 942h-154v121h154v330h354v-330h295v-121h-295v-651q0 -139 22 -173t80 -34q64 0 95 43t33 133h149q-9 -160 -87.5 -224.5t-270.5 -64.5q-219 0 -297 68.5t-78 251.5v651z" />
<glyph unicode="&#x21c;" horiz-adv-x="1414" d="M264 1024h-127v367q160 65 272.5 96t266.5 33q245 3 398 -109.5t153 -278t-76 -275.5t-207 -183q147 -19 232.5 -133t85.5 -230q0 -179 -239 -357q-160 -119 -419.5 -231t-466.5 -153v129q118 27 355 156q350 191 350 423q0 111 -63 178q-109 117 -261 39l-208 -107v131 l213 138q150 97 209 193q69 111 69 260.5t-69 219.5q-88 87 -166 69q-237 -55 -302 -375z" />
<glyph unicode="&#x21d;" horiz-adv-x="1244" d="M499 973q-114 0 -192 -65.5t-94 -200.5h-112v295q237 85 471.5 85t372 -100t137.5 -214q0 -204 -254 -332q133 -15 209.5 -107.5t76.5 -186.5q0 -229 -637 -473q-191 -73 -376 -107v113q148 34 306 112q321 157 321 312q0 95 -56 150t-128 56q-61 0 -103 -15l-184 -65 v113l187 87q107 50 184 155q63 86 63 173q0 106 -58 158q-62 57 -134 57z" />
<glyph unicode="&#x21e;" horiz-adv-x="1935" d="M813 1635l-223 264h164l213 -162l213 162h164l-223 -264h-308zM96 0v121h191v1251h-191v121h768v-121h-192v-502h594v502h-191v121h768v-121h-192v-1251h192v-121h-768v121h191v612h-594v-612h192v-121h-768z" />
<glyph unicode="&#x21f;" horiz-adv-x="1489" d="M176 1635l-223 264h164l213 -162l213 162h164l-223 -264h-308zM70 0v121h151v1315h-158v120h512v-643q64 95 146 137t207 42q179 0 270.5 -105.5t91.5 -310.5v-555h152v-121h-635v121h129v565q0 135 -34.5 187.5t-119.5 52.5q-107 0 -157 -78.5t-50 -249.5v-477h130v-121 h-635z" />
<glyph unicode="&#x220;" horiz-adv-x="1786" d="M70 0v121h190v1251h-151v121h538v-154q81 97 184 140q102 42 262 42q226 0 341.5 -141t115.5 -415v-1270h191v-121h-766v121h190v1232q0 249 -49.5 346t-171.5 97q-151 0 -225 -127q-72 -122 -72 -402v-720h191v-121h-768z" />
<glyph unicode="&#x221;" horiz-adv-x="1619" d="M805 42q-6 -9 -47 -30q-77 -41 -189 -41q-226 0 -355.5 150t-129.5 411q0 262 129.5 411t355.5 149q112 0 188.5 -40.5t121.5 -123.5v508h-152v120h506v-1163l89 2q46 0 110 -11q151 -26 151 -189q0 -222 -348 -225q-139 -1 -241 82q-22 19 -21 23q-25 -23 -43 -51 q-28 -44 -40 -123h-110q0 78 25 141zM1233 303v-4q0 -124 28 -170q18 -27 58 -30q132 -7 132 81q0 127 -183 125q-17 0 -35 -2zM879 479v105q0 186 -48 269t-153 83q-110 0 -154.5 -87.5t-44.5 -316.5t45 -317t154 -88q105 0 153 83t48 269z" />
<glyph unicode="&#x222;" horiz-adv-x="1439" d="M436 1116q0 -53 307 -175q218 104 218 203q0 269 -210 269v107q435 0 435 -383q0 -157 -231 -295q377 -205 377 -474q0 -397 -677 -397q-573 0 -573 397q0 222 286 397q-202 130 -202 298q0 289 393 289v-108q-123 0 -123 -128zM655 92q319 0 319 269q0 140 -405 303 q-250 -125 -250 -296q0 -276 336 -276z" />
<glyph unicode="&#x223;" horiz-adv-x="1261" d="M880 1232q0 114 -140 265l112 59q217 -158 217 -368q0 -139 -225 -294q314 -190 314 -516q0 -407 -543 -407q-513 0 -513 407q0 221 279 405q-215 142 -215 386q0 209 208 387l88 -46q-116 -95 -116 -242q0 -124 343 -287q191 102 191 251zM615 80q249 0 249 298 q0 169 -332 317q-233 -118 -233 -317q0 -298 316 -298z" />
<glyph unicode="&#x224;" horiz-adv-x="1495" d="M76 0v141l891 1215h-715v-223h-137v360h1296v-141l-881 -1215h606h285v-26q0 -221 -92.5 -380.5t-284.5 -268.5l-110 141q111 90 153 188q43 100 48 209h-1059z" />
<glyph unicode="&#x225;" horiz-adv-x="1163" d="M72 0v121l610 825h-459v-182h-119v299h990v-119l-611 -825h326h285v-8q0 -221 -92.5 -380.5t-284.5 -268.5l-110 141q104 84 153 188q43 91 48 209h-736z" />
<glyph unicode="&#x226;" horiz-adv-x="1589" d="M625 1776q0 60 43.5 103.5t103.5 43.5t103.5 -43.5t43.5 -103.5t-43.5 -103t-103.5 -43t-103.5 43t-43.5 103zM-16 0v121h122l562 1372h239l563 -1372h142v-121h-699v121h146l-123 305h-561l-125 -305h178v-121h-444zM424 547h463l-230 571z" />
<glyph unicode="&#x227;" horiz-adv-x="1327" d="M453 1468q0 60 43.5 103t103.5 43t103.5 -43t43.5 -103q0 -59 -43.5 -103t-103.5 -44t-103.5 44t-43.5 103zM1128 653v-532h152v-121h-506v135q-70 -84 -156 -124t-196 -40q-163 0 -250.5 87.5t-87.5 250.5q0 179 125.5 268t378.5 89h186v63q0 129 -61 190.5t-189 61.5 q-106 0 -163.5 -43.5t-81.5 -142.5h-113v229q95 34 197 51t215 17q285 0 417.5 -106t132.5 -333zM774 334v213h-133q-99 0 -152 -54t-53 -155t38.5 -151t117.5 -50q82 0 132 54t50 143z" />
<glyph unicode="&#x228;" horiz-adv-x="1561" d="M886 0q62 -64 91.5 -118.5t29.5 -106.5q0 -86 -64.5 -131t-185.5 -45q-48 0 -99 6.5t-103 19.5l-1 156q45 -17 87.5 -26t78.5 -9q60 0 91.5 23.5t31.5 68.5q0 28 -16.5 61t-67.5 101h127zM96 0v121h191v1251h-191v121h1342v-352h-138v215h-628v-479h391v190h137v-516 h-137v190h-391v-604h647v215h137v-352h-1360z" />
<glyph unicode="&#x229;" horiz-adv-x="1303" d="M721 0q62 -64 91.5 -118.5t29.5 -106.5q0 -86 -64.5 -131t-185.5 -45q-48 0 -99 6.5t-103 19.5l-1 156q45 -17 87.5 -26t78.5 -9q60 0 91.5 23.5t31.5 68.5q0 28 -16.5 61t-67.5 101h127zM821 600q0 210 -39 294.5t-133 84.5q-91 0 -130.5 -83t-39.5 -278v-18h342z M1210 481h-731v-8q0 -206 62 -297.5t200 -91.5q115 0 186 61t91 177h166q-43 -181 -171 -266t-358 -85q-276 0 -423.5 145.5t-147.5 415.5q0 264 151 412t420 148q264 0 405 -155.5t150 -455.5z" />
<glyph unicode="&#x22a;" horiz-adv-x="1784" d="M522 1747q0 60 44 103.5t104 43.5q59 0 102 -43.5t43 -103.5t-42.5 -103t-102.5 -43t-104 43t-44 103zM969 1747q0 60 43.5 103.5t103.5 43.5t104 -43.5t44 -103.5t-44 -103t-104 -43t-103.5 43t-43.5 103zM578 2122h630v-188h-630v188zM891 92q191 0 284 161t93 492 q0 332 -93 493t-284 161q-190 0 -283.5 -162.5t-93.5 -491.5q0 -328 93.5 -490.5t283.5 -162.5zM891 -29q-377 0 -591 206t-214 568t214.5 568.5t590.5 206.5q377 0 591 -206t214 -569q0 -362 -214.5 -568t-590.5 -206z" />
<glyph unicode="&#x22b;" horiz-adv-x="1366" d="M313 1467q0 60 44 103.5t104 43.5q59 0 102 -43.5t43 -103.5t-42.5 -103t-102.5 -43t-104 43t-44 103zM760 1467q0 60 43.5 103.5t103.5 43.5t104 -43.5t44 -103.5t-44 -103t-104 -43t-103.5 43t-43.5 103zM369 1842h630v-188h-630v188zM684 84q112 0 157.5 96t45.5 352 t-45 351.5t-158 95.5t-159 -96.5t-46 -350.5t46 -351t159 -97zM684 -29q-281 0 -440.5 149.5t-159.5 411.5q0 263 159.5 411.5t440.5 148.5q282 0 441 -148.5t159 -411.5q0 -262 -159.5 -411.5t-440.5 -149.5z" />
<glyph unicode="&#x22c;" horiz-adv-x="1784" d="M576 2122h630v-188h-630v188zM535 1601v12q0 123 54 189.5t154 66.5q61 0 141 -39q9 -4 13 -6l72 -33q28 -13 46 -17.5t36 -4.5q41 0 65.5 25t24.5 69v4h110v-15q0 -122 -53.5 -187.5t-154.5 -65.5q-34 0 -67.5 9t-86.5 36l-57 28q-27 13 -52.5 20t-44.5 7 q-41 0 -65.5 -25.5t-24.5 -68.5v-4h-110zM891 92q191 0 284 161t93 492q0 332 -93 493t-284 161q-190 0 -283.5 -162.5t-93.5 -491.5q0 -328 93.5 -490.5t283.5 -162.5zM891 -29q-377 0 -591 206t-214 568t214.5 568.5t590.5 206.5q377 0 591 -206t214 -569 q0 -362 -214.5 -568t-590.5 -206z" />
<glyph unicode="&#x22d;" horiz-adv-x="1366" d="M368 1830h630v-188h-630v188zM327 1309v12q0 123 54 189.5t154 66.5q61 0 141 -39q9 -4 13 -6l72 -33q28 -13 46 -17.5t36 -4.5q41 0 65.5 25t24.5 69v4h110v-15q0 -122 -53.5 -187.5t-154.5 -65.5q-34 0 -67.5 9t-86.5 36l-57 28q-27 13 -52.5 20t-44.5 7 q-41 0 -65.5 -25.5t-24.5 -68.5v-4h-110zM684 84q112 0 157.5 96t45.5 352t-45 351.5t-158 95.5t-159 -96.5t-46 -350.5t46 -351t159 -97zM684 -29q-281 0 -440.5 149.5t-159.5 411.5q0 263 159.5 411.5t440.5 148.5q282 0 441 -148.5t159 -411.5q0 -262 -159.5 -411.5 t-440.5 -149.5z" />
<glyph unicode="&#x22e;" horiz-adv-x="1784" d="M744 1776q0 60 43.5 103.5t103.5 43.5t103.5 -43.5t43.5 -103.5t-43.5 -103t-103.5 -43t-103.5 43t-43.5 103zM891 92q191 0 284 161t93 492q0 332 -93 493t-284 161q-190 0 -283.5 -162.5t-93.5 -491.5q0 -328 93.5 -490.5t283.5 -162.5zM891 -29q-377 0 -591 206 t-214 568t214.5 568.5t590.5 206.5q377 0 591 -206t214 -569q0 -362 -214.5 -568t-590.5 -206z" />
<glyph unicode="&#x22f;" horiz-adv-x="1366" d="M537 1468q0 60 43.5 103t103.5 43t103.5 -43t43.5 -103q0 -59 -43.5 -103t-103.5 -44t-103.5 44t-43.5 103zM684 84q112 0 157.5 96t45.5 352t-45 351.5t-158 95.5t-159 -96.5t-46 -350.5t46 -351t159 -97zM684 -29q-281 0 -440.5 149.5t-159.5 411.5q0 263 159.5 411.5 t440.5 148.5q282 0 441 -148.5t159 -411.5q0 -262 -159.5 -411.5t-440.5 -149.5z" />
<glyph unicode="&#x230;" horiz-adv-x="1784" d="M578 2122h630v-188h-630v188zM746 1747q0 60 43.5 103.5t103.5 43.5t103.5 -43.5t43.5 -103.5t-43.5 -103t-103.5 -43t-103.5 43t-43.5 103zM891 92q191 0 284 161t93 492q0 332 -93 493t-284 161q-190 0 -283.5 -162.5t-93.5 -491.5q0 -328 93.5 -490.5t283.5 -162.5z M891 -29q-377 0 -591 206t-214 568t214.5 568.5t590.5 206.5q377 0 591 -206t214 -569q0 -362 -214.5 -568t-590.5 -206z" />
<glyph unicode="&#x231;" horiz-adv-x="1366" d="M369 1842h630v-188h-630v188zM537 1467q0 60 43.5 103.5t103.5 43.5t103.5 -43.5t43.5 -103.5t-43.5 -103t-103.5 -43t-103.5 43t-43.5 103zM684 84q112 0 157.5 96t45.5 352t-45 351.5t-158 95.5t-159 -96.5t-46 -350.5t46 -351t159 -97zM684 -29q-281 0 -440.5 149.5 t-159.5 411.5q0 263 159.5 411.5t440.5 148.5q282 0 441 -148.5t159 -411.5q0 -262 -159.5 -411.5t-440.5 -149.5z" />
<glyph unicode="&#x232;" horiz-adv-x="1462" d="M491 1872h630v-188h-630v188zM352 0v121h201v497l-444 754h-127v121h716v-121h-166l336 -569l334 569h-149v121h428v-121h-127l-414 -702v-549h201v-121h-789z" />
<glyph unicode="&#x233;" horiz-adv-x="1190" d="M291 1562h630v-188h-630v188zM639 -240q-48 -117 -116 -166t-183 -49q-49 0 -109 11t-131 32v222l113 -1q3 -77 36.5 -114t100.5 -37q65 0 105 35.5t80 134.5l16 37l-463 1077h-115v121h613v-121h-127l270 -629l252 629h-141v121h399v-121h-129z" />
<glyph unicode="&#x234;" horiz-adv-x="1174" d="M639 222q93 -153 249 -152q138 -1 138 106q0 125 -90 124q-255 -2 -297 -78zM575 524q0 -94 27 -208q148 74 328 74q208 0 208 -218q0 -210 -336 -213q-181 -2 -312 71q-11 -32 -10 -117v-144h-137l1 144q4 101 33 180l-23 19q-133 154 -133 412v912h-151v120h505v-1032z " />
<glyph unicode="&#x235;" horiz-adv-x="1889" d="M1354 222q93 -153 249 -152q138 -1 138 106q0 125 -90 124q-255 -2 -297 -78zM1290 524q0 -94 27 -208q148 74 328 74q208 0 208 -218q0 -210 -336 -213q-181 -2 -312 71q-11 -32 -10 -117v-144h-137l1 144q4 101 33 180l-23 19q-133 154 -133 412v162q0 135 -34.5 187.5 t-119.5 52.5q-107 0 -157 -78.5t-50 -249.5v-477h130v-121h-635v121h151v821h-151v121h505v-150q64 95 146 137t207 42q179 0 270.5 -105.5t91.5 -310.5v-152z" />
<glyph unicode="&#x236;" horiz-adv-x="1156" d="M621 222q93 -153 249 -152q138 -1 138 106q0 125 -90 124q-255 -2 -297 -78zM203 520v422h-154v121h154v330h354v-330h295v-121h-295v-422q0 -90 27 -204q148 74 328 74q208 0 208 -218q0 -210 -336 -213q-181 -2 -312 71q-11 -32 -10 -117v-144h-137l1 144q4 101 33 180 l-23 19q-133 154 -133 408z" />
<glyph unicode="&#x237;" horiz-adv-x="741" d="M219 942h-151v121h505v-1188q0 -163 -115.5 -246.5t-340.5 -83.5q-60 0 -128 10t-141 29v226l113 -1q2 -80 31.5 -115.5t95.5 -35.5q73 0 102 47t29 170v1067z" />
<glyph unicode="&#x238;" horiz-adv-x="2112" d="M1233 479q0 -186 47.5 -269t153.5 -83q109 0 153.5 88t44.5 317t-44.5 316.5t-153.5 87.5q-106 0 -153.5 -83t-47.5 -269v-105zM879 121v14q-45 -83 -121.5 -123.5t-188.5 -40.5q-226 0 -355.5 150t-129.5 411q0 262 129.5 411t355.5 149q112 0 188.5 -40.5t121.5 -123.5 v508h-152v120h506v-628q45 83 121 123.5t188 40.5q227 0 357.5 -149.5t130.5 -410.5t-130.5 -411t-357.5 -150q-112 0 -188 40.5t-121 123.5v-14v-121h-354v121zM879 479v105q0 186 -48 269t-153 83q-110 0 -154.5 -87.5t-44.5 -316.5t45 -317t154 -88q105 0 153 83t48 269z " />
<glyph unicode="&#x239;" horiz-adv-x="2112" d="M1233 942v-14q45 83 121.5 123.5t188.5 40.5q226 0 355.5 -150t129.5 -411q0 -262 -129.5 -411t-355.5 -149q-112 0 -188.5 40.5t-121.5 123.5v-440h152v-120l-658 -1v121h152v440q-45 -83 -121 -123.5t-188 -40.5q-227 0 -357.5 149.5t-130.5 410.5t130.5 411t357.5 150 q112 0 188 -40.5t121 -123.5v14v121h354v-121zM879 584q0 186 -48 269t-153 83q-110 0 -154.5 -87.5t-44.5 -316.5t45 -317t154 -88q105 0 153 83t48 269v105zM1233 584v-105q0 -186 47.5 -269t153.5 -83q109 0 153.5 88t44.5 317t-44.5 316.5t-153.5 87.5 q-106 0 -153.5 -83t-47.5 -269z" />
<glyph unicode="&#x23a;" horiz-adv-x="1589" d="M62 -78l-90 90l12 13v96h96l44 43l544 1329h239l159 -386l462 462l90 -90l-500 -500l352 -858h142v-121h-699v121h146l-123 305h-371l-305 -305h168v-121h-289zM778 819l-121 299l-233 -571h82zM686 547h201l-58 143zM368 409l17 17h-10z" />
<glyph unicode="&#x23b;" horiz-adv-x="1630" d="M82 -78l-90 90l244 244q-150 194 -150 489q0 358 219.5 566.5t597.5 208.5q133 0 277 -32q106 -24 222 -65l146 146l90 -90l-153 -153v-302h-127q-15 74 -41 134l-761 -762q24 -84 64 -144q106 -160 326 -160q149 0 243.5 83t137.5 251h199q-59 -231 -212 -343t-411 -112 q-363 0 -580 192zM525 546l725 724q-16 19 -34 36q-103 93 -272 93q-218 0 -324 -160.5t-106 -493.5q0 -109 11 -199z" />
<glyph unicode="&#x23c;" horiz-adv-x="1247" d="M1155 332q-38 -182 -155.5 -271.5t-319.5 -89.5q-258 0 -410 121l-194 -194l-84 86l194 194q-102 138 -102 354q0 264 154 412t428 148q111 0 224 -21q75 -14 152 -37l128 127l86 -86l-136 -135v-227h-112q-6 53 -20 95l-492 -491q15 -80 44 -129q61 -104 199 -104 q107 0 171.5 64t78.5 184h166zM925 917q-62 62 -173 62q-148 0 -210.5 -100t-62.5 -347q0 -31 1 -60z" />
<glyph unicode="&#x23d;" horiz-adv-x="1440" d="M96 0v121h191v592h-213v137h213v522h-191v121h768v-121h-192v-522h332v-137h-332v-576h588v236h135v-373h-1299z" />
<glyph unicode="&#x23e;" horiz-adv-x="1524" d="M1155 0h-784v121h199v340l-539 -539l-90 90l629 629v715h-412v-236h-135v373h1398l76 76l90 -90l-84 -84v-275h-137v138l-409 -409v-728h198v-121zM1284 1356h-327v-327z" />
<glyph unicode="&#x23f;" horiz-adv-x="1153" d="M1014 -402q-127 -38 -237 -42q-35 -1 -105 -1q-133 0 -228 59q-101 62 -138 156l-82 206q-8 21 -29 33q-32 6 -65 14q-17 3 -34 8v297h113q22 -188 190 -232q47 -10 103 -12q193 0 219 113q4 15 4 32q0 81 -63 118q-37 22 -115 42l-146 37q-166 42 -239 118 q-74 76 -74 206q0 246 245 314q101 28 245 28q186 0 436 -64v-268h-113q-18 219 -274 219q-208 0 -218 -123q-1 -6 -1 -12q0 -73 63 -107q31 -16 84 -30l145 -37q206 -53 287 -130q82 -79 82 -218q0 -210 -176 -292q-116 -54 -312 -59q6 -11 11 -23l44 -110q39 -98 80 -134 q40 -36 106 -36q9 0 42.5 37t36.5 114l113 1v-222z" />
<glyph unicode="&#x240;" horiz-adv-x="1163" d="M274 0h-202v121l610 825h-459v-182h-119v299h990v-119l-611 -825q188 1 248 -153l54 -138q38 -97 80 -134q40 -36 106 -36q9 0 42.5 37t36.5 114l113 1v-222q-71 -21 -131 -32t-211 -11q-133 0 -228 59q-100 62 -138 156l-79 196q-19 44 -102 44z" />
<glyph unicode="&#x241;" horiz-adv-x="1352" d="M365 1372q-103 0 -125 -28q-27 -33 -31 -115h-113v198q62 34 131 50t138 16h393q249 0 396 -118.5t147 -317.5t-147.5 -318.5t-395.5 -119.5h-39v-498h241v-121h-817v121h191l1 619h261q130 0 207.5 86t77.5 231q0 144 -77 229.5t-208 85.5h-231z" />
<glyph unicode="&#x242;" horiz-adv-x="1121" d="M365 339q130 0 207.5 86t77.5 231q0 144 -77 229.5t-208 85.5q-103 0 -125 -27q-27 -34 -31 -116h-113v198q62 34 131 50t138 16h162q249 0 396 -118.5t147 -317.5t-148 -318q-85 -69 -203 -99v-118h241v-121h-787v121h191z" />
<glyph unicode="&#x243;" horiz-adv-x="1731" d="M75 363v137h212v872h-191v121h885q273 0 410 -92t137 -277q0 -133 -94.5 -211t-280.5 -98q225 -21 345 -120t120 -263q0 -222 -167.5 -327t-524.5 -105h-830v121h191v242h-212zM672 870h131q172 0 255 62.5t83 191.5q0 130 -80.5 189t-257.5 59h-131v-502zM672 121h143 q191 0 283 76t92 235q0 160 -93 239t-282 79h-143v-250h333v-137h-333v-242z" />
<glyph unicode="&#x244;" horiz-adv-x="1786" d="M260 1372h-190v121h768v-121h-191v-522h764v522h-190v121h520v-121h-191v-522h201v-137h-201v-109q0 -342 -148 -487.5t-497 -145.5q-347 0 -496 147t-149 488v107h-201v137h201v522zM1411 713h-764v-88q0 -279 87 -390.5t298 -111.5q206 0 292.5 112.5t86.5 389.5v88z " />
<glyph unicode="&#x245;" horiz-adv-x="1589" d="M250 121h178v-121h-444v121h122l562 1372h239l563 -1372h142v-121h-699v121h146l-402 997z" />
<glyph unicode="&#x246;" horiz-adv-x="1561" d="M727 -116l-121 37l24 79h-534v121h191v1251h-191v121h991l35 115l121 -37l-24 -78h219v-352h-138v215h-123l-88 -289h111v-516h-137v190h-74l-185 -604h515v215h137v-352h-694zM672 137l185 604h-185v-604zM1063 983l-32 -106h32v106zM898 877l147 479h-373v-479h226z " />
<glyph unicode="&#x247;" horiz-adv-x="1303" d="M940 600q-7 186 -79 280q-19 25 -43 44l-99 -324h221zM501 -115l-116 35l27 87q-106 35 -180 109q-148 146 -148 416q0 264 151 412t420 148q45 0 86 -4l31 101l116 -35l-28 -91q120 -39 200 -127q141 -156 150 -455h-527l-106 -346q61 -51 164 -51q115 0 186 61t91 177 h166q-43 -181 -171 -266t-358 -85q-66 0 -125 8zM592 600l113 370q-25 9 -56 9q-91 0 -130.5 -83t-39.5 -278v-18h113zM497 286l59 195h-77v-8q0 -110 18 -187z" />
<glyph unicode="&#x248;" horiz-adv-x="969" d="M-150 -358v235h130q6 -94 44.5 -138t114.5 -44q97 0 135.5 74.5t38.5 279.5v664h-238v137h238v522h-217v121h795v-121h-191v-522h212v-137h-212v-672q0 -243 -122.5 -355t-389.5 -112q-83 0 -167 17t-171 51z" />
<glyph unicode="&#x249;" horiz-adv-x="792" d="M188 1364q0 81 56 136.5t137 55.5q79 0 134.5 -55.5t55.5 -136.5q0 -79 -55.5 -134.5t-134.5 -55.5q-81 0 -137 55t-56 135zM219 942h-151v121h505v-463h154v-121h-154v-604q0 -163 -115.5 -246.5t-340.5 -83.5q-60 0 -128 10t-141 29v226l113 -1q2 -80 31.5 -115.5 t95.5 -35.5q73 0 102 47t29 170v604h-149v121h149v342z" />
<glyph unicode="&#x24a;" horiz-adv-x="1737" d="M1066 1490h589v-130h-202v-1311q0 -205 38.5 -279.5t135.5 -74.5q76 0 114.5 44t44.5 138h130v-235q-87 -34 -171 -51t-167 -17q-267 0 -389.5 112t-122.5 355v110q-55 -91 -150 -136q-92 -44 -232 -44q-279 0 -438 207q-160 208 -160 568q0 361 160 568q159 206 438 206 q140 0 232 -44q95 -45 150 -136v150zM1066 824q0 280 -67 404t-213 124q-153 0 -215 -131q-62 -132 -62 -475t63 -475t214 -132q146 0 213 124t67 404v157z" />
<glyph unicode="&#x24b;" horiz-adv-x="1432" d="M879 928v136h505v-121h-151v-1067q0 -123 29 -170t102 -47q66 0 95.5 35.5t31.5 115.5l113 1v-226q-73 -19 -141 -29t-128 -10q-225 0 -340.5 83.5t-115.5 246.5v259q-45 -83 -121.5 -123.5t-188.5 -40.5q-226 0 -355.5 150t-129.5 411q0 262 129.5 411t355.5 149 q112 0 188.5 -40.5t121.5 -123.5zM879 584q0 186 -48 269t-153 83q-110 0 -154.5 -87.5t-44.5 -316.5t45 -317t154 -88q105 0 153 83t48 269v105z" />
<glyph unicode="&#x24c;" horiz-adv-x="1702" d="M672 788h131q140 0 215.5 76t75.5 217t-75.5 216t-215.5 75h-131v-584zM1087 729q89 -13 150 -59q60 -45 106 -133l218 -416h153v-121h-491l-238 451q-69 140 -117.5 178.5t-134.5 38.5h-61v-547h192v-121h-768v121h191v547h-213v120h213v584h-191v121h852 q260 0 401.5 -104.5t141.5 -296.5q0 -156 -100.5 -246.5t-303.5 -116.5z" />
<glyph unicode="&#x24d;" horiz-adv-x="1079" d="M59 479v121h162v342h-162v121h516v-189q52 111 137.5 164.5t209.5 53.5q31 0 75.5 -4.5t102.5 -12.5v-317h-113q-6 85 -46 126.5t-116 41.5q-116 0 -183 -102q-56 -85 -65 -224h258v-121h-260v-358h193v-121h-698v121h151v358h-162z" />
<glyph unicode="&#x24e;" horiz-adv-x="1462" d="M352 0v121h201v497l-256 435h-315v137h234l-107 182h-127v121h716v-121h-166l107 -182h456l107 182h-149v121h428v-121h-127l-107 -182h234v-137h-315l-226 -383v-549h201v-121h-789zM1015 1053h-295l148 -250z" />
<glyph unicode="&#x24f;" horiz-adv-x="1190" d="M-27 629v121h198l-83 192h-115v121h613v-121h-127l82 -192h363l77 192h-141v121h399v-121h-129l-77 -192h206v-121h-254l-346 -869q-48 -117 -116 -166t-183 -49q-49 0 -109 11t-131 32v222l113 -1q3 -77 36.5 -114t100.5 -37q65 0 105 35.5t80 134.5l16 37l-328 764 h-250zM856 629h-263l136 -316z" />
<glyph unicode="&#x250;" horiz-adv-x="1327" d="M236 410v532h-152v121h506v-135q70 84 156 124t196 40q163 0 250.5 -87.5t87.5 -250.5q0 -179 -125.5 -268t-378.5 -89h-186v-63q0 -129 61 -190.5t189 -61.5q106 0 163.5 43.5t81.5 142.5h113v-229q-95 -34 -197 -51t-215 -17q-285 0 -417.5 106t-132.5 333zM590 729 v-213h133q99 0 152 54t53 155t-38.5 151t-117.5 50q-82 0 -132 -54t-50 -143z" />
<glyph unicode="&#x251;" horiz-adv-x="1432" d="M879 479v105q0 186 -48 269t-153 83q-110 0 -154.5 -87.5t-44.5 -316.5t45 -317t154 -88q105 0 153 83t48 269zM879 1064h505v-121h-151v-822h151v-121h-505v135q-45 -83 -121.5 -123.5t-188.5 -40.5q-226 0 -355.5 150t-129.5 411q0 262 129.5 411t355.5 149 q112 0 188.5 -40.5t121.5 -123.5v16v120z" />
<glyph unicode="&#x252;" horiz-adv-x="1432" d="M589 584v-105q0 -186 48 -269t153 -83q110 0 154.5 87.5t44.5 316.5t-45 317t-154 88q-105 0 -153 -83t-48 -269zM589 -1h-505v121h151v822h-151v121h505v-135q45 83 121.5 123.5t188.5 40.5q226 0 355.5 -150t129.5 -411q0 -262 -129.5 -411t-355.5 -149 q-112 0 -188.5 40.5t-121.5 123.5v-16v-120z" />
<glyph unicode="&#x253;" horiz-adv-x="1432" d="M553 479q0 -186 47.5 -269t153.5 -83q109 0 153.5 88t44.5 317t-44.5 316.5t-153.5 87.5q-106 0 -153.5 -83t-47.5 -269v-105zM199 121v1043h1v62q0 163 115.5 246.5t340.5 83.5q60 0 128 -10t141 -29v-225h-113q-2 80 -31.5 115.5t-95.5 35.5q-73 0 -102 -47t-29 -170 v-296q45 81 120 122q76 40 188 40q227 0 357.5 -149.5t130.5 -410.5t-130.5 -411t-357.5 -150q-112 0 -188 40.5t-121 123.5v-135h-506v121h152z" />
<glyph unicode="&#x254;" horiz-adv-x="1247" d="M84 731q38 182 155.5 271.5t319.5 89.5q284 0 440 -147t156 -414q0 -264 -154 -412t-428 -148q-111 0 -224 21t-230 63v295h112q16 -135 79 -200.5t177 -65.5q148 0 210.5 100t62.5 347q0 241 -61 344.5t-199 103.5q-107 0 -171.5 -64t-78.5 -184h-166z" />
<glyph unicode="&#x255;" horiz-adv-x="1247" d="M531 222q92 -151 249 -152q252 -1 252 116q0 116 -204 114q-255 -2 -297 -78zM494 316q144 72 388 74q268 0 263 -232q-4 -199 -451 -199q-184 0 -312 71q-11 -32 -10 -117v-144h-137l1 144q4 101 33 180q-12 10 -23 19q-169 154 -169 408q0 255 169 408q169 152 448 152 q161 0 249 -24q88 -23 177 -71v-272h-95q-18 140 -80 204t-177 64q-149 0 -225 -115q-78 -120 -76 -346q1 -94 27 -204z" />
<glyph unicode="&#x256;" horiz-adv-x="1432" d="M879 479v105q0 186 -48 269t-153 83q-110 0 -154.5 -87.5t-44.5 -316.5t45 -317t154 -88q105 0 153 83t48 269zM878 133q-45 -81 -120 -121q-77 -41 -189 -41q-226 0 -355.5 150t-129.5 411q0 262 129.5 411t355.5 149q112 0 188.5 -40.5t121.5 -123.5v508h-152v120h506 v-1556h-1v-125q0 -123 29 -170t102 -47q66 0 95.5 35.5t31.5 115.5h113v-225q-73 -19 -141 -29t-128 -10q-225 0 -340.5 83.5t-115.5 246.5v258z" />
<glyph unicode="&#x257;" horiz-adv-x="1495" d="M1233 121h151v-121h-505v135q-45 -83 -121.5 -123.5t-188.5 -40.5q-226 0 -355.5 150t-129.5 411q0 262 129.5 411t355.5 149q112 0 188.5 -40.5t121.5 -123.5v188h1v110q0 163 115.5 246.5t340.5 83.5q60 0 128 -10t141 -29v-225h-113q-2 80 -31.5 115.5t-95.5 35.5 q-73 0 -102 -47t-29 -170v-410h-1v-695zM879 479v105q0 186 -48 269t-153 83q-110 0 -154.5 -87.5t-44.5 -316.5t45 -317t154 -88q105 0 153 83t48 269z" />
<glyph unicode="&#x258;" horiz-adv-x="1303" d="M473 600h342v18q0 195 -39.5 278t-130.5 83q-94 0 -133 -84.5t-39 -294.5zM84 481q9 300 150 455.5t405 155.5q269 0 420 -148t151 -412q0 -270 -147.5 -415.5t-423.5 -145.5q-230 0 -358 85t-171 266h166q20 -116 91 -177t186 -61q138 0 200 91.5t62 297.5v8h-731z" />
<glyph unicode="&#x259;" horiz-adv-x="1303" d="M473 463q0 -210 39 -294.5t133 -84.5q91 0 130.5 83t39.5 278v18h-342zM84 582h731v8q0 206 -62 297.5t-200 91.5q-115 0 -186 -61t-91 -177h-166q43 181 171 266t358 85q276 0 423.5 -145.5t147.5 -415.5q0 -264 -151 -412t-420 -148q-264 0 -405 155.5t-150 455.5z" />
<glyph unicode="&#x25a;" horiz-adv-x="1858" d="M815 606l-341 -197q4 -167 38 -241q39 -84 133 -84q91 0 131 83q39 82 39 278v161zM805 738q-15 95 -52 150q-62 91 -200 91q-115 0 -186 -61t-91 -177h-166q43 181 171 266t358 85q276 0 423 -146q19 -18 36 -39l205 118l175 -3v-43q0 -94 47 -136q49 -44 108 -44 q99 0 107 32l118 -152q-77 -48 -80 -49q-47 -17 -142 -17q-116 0 -209 93q-81 81 -92 201l-176 -102q51 -116 51 -274q0 -264 -151 -412t-420 -148q-264 0 -405 155q-77 86 -115 216l178 103z" />
<glyph unicode="&#x25b;" horiz-adv-x="1245" d="M155 826q0 115 109 184q125 80 382 82q254 1 459 -50v-213h-112q-11 69 -85 110q-71 39 -164 40q-123 0 -188 -49q-60 -45 -60 -108q0 -69 57 -115q69 -56 197 -56h66v-151h-61q-149 0 -239 -70q-68 -53 -67 -141q1 -79 63 -133q77 -67 230 -68q151 -1 235 80 q40 38 47 98h111v-234q-267 -57 -466 -57q-224 0 -379 61q-190 75 -191 247q0 130 88 198q103 81 244 95q-138 27 -207 93t-69 157z" />
<glyph unicode="&#x25c;" horiz-adv-x="1150" d="M1064 812q0 -91 -69 -150t-207 -86q141 -14 244 -95q88 -68 88 -198q-1 -172 -191 -247q-155 -61 -379 -61q-199 0 -466 57v234h111q7 -60 47 -98q84 -81 235 -80q153 1 230 68q62 54 63 133q1 88 -67 141q-90 70 -239 70h-61v137h66q128 0 197 56q57 46 57 115 q0 63 -60 108q-65 49 -188 49q-93 -1 -164 -40q-74 -41 -85 -110h-112v213q205 51 459 50q257 -2 382 -82q109 -69 109 -184z" />
<glyph unicode="&#x25d;" horiz-adv-x="1858" d="M995 662q-69 -59 -207 -86q140 -14 244 -95q88 -69 88 -198q-1 -172 -191 -247q-155 -61 -379 -61q-199 0 -466 57v234h111q7 -60 47 -98q85 -81 235 -80q153 1 230 68q62 54 63 133q1 88 -67 141q-90 70 -239 70h-61v137h66q128 0 197 56q57 46 57 115q0 63 -60 108 q-65 49 -188 49q-93 -1 -164 -40q-74 -41 -85 -110h-112v213q205 51 459 50q257 -2 382 -82q91 -58 106 -147l241 176l175 -3v-43q0 -94 47 -136q49 -44 107 -44q99 0 108 32l118 -152q-77 -48 -80 -49q-47 -17 -142 -17q-116 0 -209 93q-81 81 -92 201z" />
<glyph unicode="&#x25e;" horiz-adv-x="1474" d="M791 70q109 1 166 51q57 51 57 147q0 73 -70 137q-69 62 -209 62h-38v120h38q138 0 209 64q70 62 70 138q0 95 -57 146q-58 52 -166 52q-16 0 -90 -18q-37 -9 -101 -46q-216 -123 -216 -398q0 -252 216 -398q38 -26 101 -46q34 -11 90 -11zM819 1092q276 0 419 -77 t143 -218q0 -102 -101 -173q-103 -72 -285 -96q182 -24 285 -95q101 -71 101 -174q0 -141 -143 -218t-450 -77q-21 0 -164 19q-59 8 -172 55q-368 154 -368 490q0 308 368 490q69 34 172 56q84 18 195 18z" />
<glyph unicode="&#x25f;" horiz-adv-x="792" d="M219 942h-151v121h505v-463h154v-121h-154v-604q0 -163 -115.5 -246.5t-340.5 -83.5q-60 0 -128 10t-141 29v226l113 -1q2 -80 31.5 -115.5t95.5 -35.5q73 0 102 47t29 170v604h-149v121h149v342z" />
<glyph unicode="&#x260;" horiz-adv-x="1432" d="M880 936h-202q-110 0 -154.5 -87.5t-44.5 -316.5t45 -317t154 -88q105 0 153 83t48 269v105zM1233 816v-802q0 -224 -159.5 -346.5t-450.5 -122.5q-106 0 -215 16.5t-224 49.5v254h113q15 -105 84.5 -156t198.5 -51q164 0 231.5 78.5t67.5 277.5v121 q-45 -83 -121.5 -123.5t-188.5 -40.5q-226 0 -355.5 150t-129.5 411q0 230 132 382q130 149 356 149h308v163q0 163 115.5 246.5t340.5 83.5q60 0 128 -10t141 -29v-225h-113q-2 80 -31.5 115.5t-95.5 35.5q-73 0 -102 -47t-29 -170v-410h-1z" />
<glyph unicode="&#x261;" horiz-adv-x="1432" d="M572 1063h812v-121h-151v-928q0 -224 -159.5 -346.5t-450.5 -122.5q-106 0 -215 16.5t-224 49.5v254h113q15 -105 84.5 -156t198.5 -51q164 0 231.5 78.5t67.5 277.5v121q-45 -83 -121.5 -123.5t-188.5 -40.5q-226 0 -355.5 150t-129.5 411q0 230 132 382 q130 149 356 149zM879 584l1 352h-202q-110 0 -154.5 -87.5t-44.5 -316.5t45 -317t154 -88q105 0 153 83t48 269v105z" />
<glyph unicode="&#x262;" horiz-adv-x="1283" d="M1006 720q-22 115 -122 199q-72 61 -149 61q-116 0 -191 -109q-76 -109 -76 -344q0 -233 72 -342q73 -110 181 -110q49 0 107 40l1 296h-145v84h484v-397q-117 -54 -233 -81q-116 -26 -237 -26q-266 0 -418 143q-152 144 -152 393q0 250 152 393q152 144 418 144 q111 0 218 -22q107 -23 216 -68v-254h-126z" />
<glyph unicode="&#x263;" horiz-adv-x="1458" d="M701 305q-49 -67 -179 -265q-82 -124 -82 -223q0 -52 37 -87q32 -30 163 -30q124 0 185 33q60 32 59 87q0 102 -56 234q-71 170 -127 251zM1224 -207q0 -121 -120 -183q-113 -58 -435 -58q-215 0 -305 76q-64 53 -64 180q0 98 106 272q102 168 234 324l-395 538h-119v121 h649v-121h-129l189 -264l188 264h-131v121h414v-121h-141l-271 -379q160 -229 246 -443q84 -208 84 -327z" />
<glyph unicode="&#x264;" horiz-adv-x="1285" d="M84 974q0 90 214 90q227 0 486 -372q294 374 384 374q56 0 71 -96l-1 -152h-105v19q0 73 -19 73q-28 0 -266 -322q116 -162 177 -276q71 -130 71 -199q0 -101 -106 -159q-54 -30 -333 -30q-240 0 -303 40t-63 140q0 110 155 256q70 66 120 105q-93 180 -294 415 q-30 35 -48 35q-26 0 -26 -75v-22h-114v156zM476 157q0 -35 22 -54q33 -27 134 -27q62 0 85 41q13 24 13 53q0 37 -34 91q-25 39 -68 87q-6 -9 -72 -68q-80 -70 -80 -123z" />
<glyph unicode="&#x265;" horiz-adv-x="1489" d="M1268 1063v-1369h158v-120h-512v576q-64 -95 -146 -137t-207 -42q-179 0 -270.5 105.5t-91.5 310.5v555h-152v121h635v-121h-129v-565q0 -135 34.5 -187.5t119.5 -52.5q107 0 157 78.5t50 249.5v477h-130v121h484z" />
<glyph unicode="&#x266;" horiz-adv-x="1489" d="M70 0v121h151v965h1v140q0 163 115.5 246.5t340.5 83.5q60 0 128 -10t141 -29v-225h-113q-2 80 -31.5 115.5t-95.5 35.5q-73 0 -102 -47t-29 -170v-312q64 94 145 136q82 42 207 42q179 0 270.5 -105.5t91.5 -310.5v-555h152v-121h-635v121h129v565q0 135 -34.5 187.5 t-119.5 52.5q-107 0 -157 -78.5t-50 -249.5v-477h130v-121h-635z" />
<glyph unicode="&#x267;" horiz-adv-x="1489" d="M70 0v121h151v965h1v140q0 163 115.5 246.5t340.5 83.5q60 0 128 -10t141 -29v-225h-113q-2 80 -31.5 115.5t-95.5 35.5q-73 0 -102 -47t-29 -170v-312q64 94 145 136q82 42 207 42q179 0 270.5 -105.5t91.5 -310.5v-391v-164v-121v-125q0 -163 -115.5 -246.5 t-340.5 -83.5q-60 0 -128 10t-141 29v225h113q2 -80 31.5 -115.5t95.5 -35.5q73 0 102 47t29 170v125v121v164v401q0 135 -34.5 187.5t-119.5 52.5q-107 0 -157 -78.5t-50 -249.5v-477h130v-121h-635z" />
<glyph unicode="&#x268;" horiz-adv-x="778" d="M188 1364q0 81 56 136.5t137 55.5q79 0 134.5 -55.5t55.5 -136.5q0 -79 -55.5 -134.5t-134.5 -55.5q-81 0 -137 55t-56 135zM575 121h152v-121h-657v121h151v358h-151v121h151v342h-151v121h505v-463h152v-121h-152v-358z" />
<glyph unicode="&#x269;" horiz-adv-x="778" d="M221 337v605h-147v121h501v-712q0 -131 42 -191q44 -61 135 -61v-99h-173q-186 0 -261 48q-97 63 -97 289z" />
<glyph unicode="&#x26a;" horiz-adv-x="778" d="M221 942zM70 1063h657v-121h-151l-1 -821h152v-121h-657v121h151v821h-151v121z" />
<glyph unicode="&#x26b;" horiz-adv-x="837" d="M613 121h152v-121h-657v121h151v701q-36 -3 -59 -35q-24 -35 -24 -96h-110v16q0 146 53 221q49 70 140 76v432h-151v120h505v-679q20 8 35 29q24 35 24 96h110v-16q0 -146 -53 -222q-42 -60 -116 -72v-571z" />
<glyph unicode="&#x26c;" horiz-adv-x="1053" d="M826 121h152v-121h-657v121h151v536h-157q-249 3 -249 174q0 251 291 251q66 0 115 -12v366h-151v120h505v-779h172v-120h-172v-536zM472 918q-10 73 -121 60q-138 -16 -138 -111q0 -96 114 -90h145v141z" />
<glyph unicode="&#x26d;" horiz-adv-x="778" d="M221 1436h-151v120h505l1 -1271v-410q0 -123 29 -170t102 -47q66 0 95.5 35.5t31.5 115.5h113v-225q-73 -19 -141 -29t-128 -10q-225 0 -340.5 83.5t-115.5 246.5z" />
<glyph unicode="&#x26e;" horiz-adv-x="1629" d="M1196 452q220 -21 332 -105q160 -121 160 -331q0 -209 -165.5 -320.5t-479.5 -111.5q-118 0 -243.5 20t-262.5 60v328h121q11 -142 89 -216.5t216 -74.5q152 0 235 84.5t83 239.5q0 162 -86.5 250t-245.5 88h-66v225l265 358h-459l-114 -182v-643h152v-121h-657v121h151 v1315h-151v120h505v-493h985v-119z" />
<glyph unicode="&#x26f;" horiz-adv-x="2167" d="M924 174q-74 -106 -160 -154.5t-201 -48.5q-183 0 -273.5 103.5t-90.5 312.5v555h-152v121h633v-121h-127v-502q0 -199 30.5 -251t113.5 -52q94 0 146 72.5t52 206.5v526h-127v121h608v-121h-127v-502q0 -199 31 -251t113 -52q95 0 147 72.5t52 206.5v526h-127v121h632 v-121h-151v-821h151v-121h-505v150q-62 -93 -142 -136t-190 -43q-130 0 -211 49.5t-125 153.5z" />
<glyph unicode="&#x270;" horiz-adv-x="2167" d="M924 174q-74 -106 -160 -154.5t-201 -48.5q-183 0 -273.5 103.5t-90.5 312.5v555h-152v121h633v-121h-127v-502q0 -199 30.5 -251t113.5 -52q94 0 146 72.5t52 206.5v526h-127v121h608v-121h-127v-502q0 -199 31 -251t113 -52q95 0 147 72.5t52 206.5v526h-127v121h632 v-121h-151v-1247h151v-121h-505v576q-62 -93 -142 -136t-190 -43q-130 0 -211 49.5t-125 153.5z" />
<glyph unicode="&#x271;" horiz-adv-x="2167" d="M1243 889q74 106 160 154.5t201 48.5q183 0 273.5 -103.5t90.5 -312.5v-391v-285v-125q0 -163 -115.5 -246.5t-340.5 -83.5q-60 0 -128 10t-141 29v225h113q2 -80 31.5 -115.5t95.5 -35.5q73 0 102 47t29 170v125v285v338q0 199 -30.5 251t-113.5 52q-94 0 -146 -72.5 t-52 -206.5v-526h127v-121h-608v121h127v502q0 199 -31 251t-113 52q-95 0 -147 -72.5t-52 -206.5v-526h127v-121h-632v121h151v821h-151v121h505v-150q62 93 142 136t190 43q130 0 211 -49.5t125 -153.5z" />
<glyph unicode="&#x272;" horiz-adv-x="1489" d="M221 942h-151v121h505v-150q64 95 146 137t207 42q179 0 270.5 -105.5t91.5 -310.5v-555h152v-121h-635v121h129v565q0 135 -34.5 187.5t-119.5 52.5q-107 0 -157 -78.5t-50 -249.5v-598h-1v-125q0 -163 -115.5 -246.5t-340.5 -83.5q-60 0 -128 10t-141 29v225h113 q2 -80 31.5 -115.5t95.5 -35.5q73 0 102 47t29 170v410z" />
<glyph unicode="&#x273;" horiz-adv-x="1489" d="M70 0v121h151v821h-151v121h505v-150q64 95 146 137t207 42q179 0 270.5 -105.5t91.5 -310.5v-676h-2v-125q0 -123 29 -170t102 -47q66 0 95.5 35.5t31.5 115.5h113v-225q-73 -19 -141 -29t-128 -10q-225 0 -340.5 83.5t-115.5 246.5v360q1 26 2 50v401 q0 135 -34.5 187.5t-119.5 52.5q-107 0 -157 -78.5t-50 -249.5v-477h130v-121h-635z" />
<glyph unicode="&#x274;" horiz-adv-x="1459" d="M128 0v122h137v816h-137v125h334l611 -624v499h-103v125h374v-125h-137v-938h-187l-622 635v-513h103v-122h-373z" />
<glyph unicode="&#x275;" horiz-adv-x="1366" d="M684 -29q-281 0 -440.5 149.5t-159.5 411.5q0 263 159.5 411.5t440.5 148.5q282 0 441 -148.5t159 -411.5q0 -262 -159.5 -411.5t-440.5 -149.5zM684 84q112 0 158 96q40 86 44 299h-406q4 -211 45 -298q46 -97 159 -97zM480 600h406q-5 201 -44 284q-45 95 -158 95 t-159 -97q-40 -82 -45 -282z" />
<glyph unicode="&#x276;" horiz-adv-x="2173" d="M1028 87v894h-127q-84 0 -167 -57q-186 -127 -186 -389q0 -245 174 -391q68 -57 179 -57h127zM2058 0h-1025q-207 0 -342.5 18.5t-236.5 59.5q-157 61 -241.5 180t-84.5 277q0 157 84.5 274.5t241.5 180.5q100 41 234 59.5t345 18.5h1007v-252h-137v154h-488v-343h250 v136h137v-369h-137v136h-250v-432h506v154h137v-252z" />
<glyph unicode="&#x277;" horiz-adv-x="1534" d="M886 529v-40q0 -120 39 -226q72 -197 102 -197q91 0 89 364q-1 173 -56 342q-92 197 -299 201q-200 4 -296 -201q-55 -169 -56 -342q0 -364 89 -364q29 0 102 197q39 106 39 226v40h247zM761 272q-29 -142 -114 -222q-85 -79 -209 -79q-169 0 -262 112q-92 111 -92 317 q0 79 23 160q29 106 66 167q218 358 588 358q373 0 591 -358q38 -61 66 -167q23 -81 23 -160q0 -206 -92 -317q-93 -112 -262 -112q-123 0 -209 79q-85 80 -117 222z" />
<glyph unicode="&#x278;" horiz-adv-x="1366" d="M351 1556h657v-121h-195l-1 -349q234 -25 379 -142q183 -149 183 -412q0 -262 -183 -412q-146 -118 -379 -143v-292h196v-121h-657v121h195v293q-226 26 -369 142q-183 150 -183 412q0 263 183 412q143 115 369 141v350h-195v121zM546 113v837q-45 -24 -72 -68 q-61 -96 -61 -350t61 -351q27 -44 72 -68zM812 955v-846q51 24 80 71q61 96 61 352t-60 352q-29 47 -81 71z" />
<glyph unicode="&#x279;" horiz-adv-x="1170" d="M59 -12v317h113q6 -85 46 -126.5t116 -41.5q116 0 183 102t67 283v420h-193v121h698v-121h-151v-821h162v-121h-516v189q-52 -111 -137.5 -164.5t-209.5 -53.5q-31 0 -75.5 4.5t-102.5 12.5z" />
<glyph unicode="&#x27a;" horiz-adv-x="1170" d="M59 -12v317h113q6 -85 46 -126.5t116 -41.5q116 0 183 102q67 104 67 283v914h-193v121h698v-121h-151v-1315h162v-121h-516v189q-52 -111 -137.5 -164.5t-209.5 -53.5q-31 0 -75.5 4.5t-102.5 12.5z" />
<glyph unicode="&#x27b;" horiz-adv-x="1170" d="M59 -12v317h113q0 -85 46 -127q40 -41 116 -41q116 0 183 102t67 283v420h-193v121h698v-121h-151v-1067q0 -123 30 -170q29 -47 102 -47q66 0 96 36q29 35 31 115h113v-225q-73 -19 -141 -29t-128 -10q-225 0 -341 83q-115 84 -115 247v125h-1v189q-52 -111 -138 -165 q-85 -53 -209 -53q-31 0 -75 5q-45 4 -103 12z" />
<glyph unicode="&#x27c;" horiz-adv-x="1079" d="M1100 1075v-317h-113q-6 85 -46 126.5t-116 41.5q-116 0 -183 -102q-67 -104 -67 -283v-844h193v-121h-698v121h151v1245h-162v121h516v-189q52 111 137.5 164.5t209.5 53.5q31 0 75.5 -4.5t102.5 -12.5z" />
<glyph unicode="&#x27d;" horiz-adv-x="1079" d="M1100 1075v-317h-113q-6 85 -46 126.5t-116 41.5q-116 0 -183 -102t-67 -283v-541v-125q0 -123 29 -170t102 -47q66 0 95.5 35.5t31.5 115.5h113v-225q-73 -19 -141 -29t-128 -10q-225 0 -340.5 83.5t-115.5 246.5v125v942h-162v121h516v-189q52 111 137.5 164.5 t209.5 53.5q31 0 75.5 -4.5t102.5 -12.5z" />
<glyph unicode="&#x27e;" horiz-adv-x="925" d="M575 121h193v-121h-698v121h151v641q0 163 115.5 246.5t340.5 83.5q60 0 128 -10t141 -29v-225h-113q-2 80 -31.5 115.5t-95.5 35.5q-73 0 -102 -47q-29 -49 -29 -170v-641z" />
<glyph unicode="&#x27f;" horiz-adv-x="997" d="M441 121v641q0 121 -29 170q-29 47 -102 47q-66 0 -95.5 -35.5t-31.5 -115.5h-113v225q73 19 141 29t128 10q225 0 340.5 -83.5t115.5 -246.5v-641h151v-121h-698v121h193z" />
<glyph unicode="&#x280;" horiz-adv-x="1640" d="M983 519q83 -9 138 -42q56 -33 98 -95l145 -261h161v-121h-453l-183 321q-58 91 -71 105.5t-25 21.5q-34 21 -48 24q-15 4 -42 4h-56v-355h177v-121h-696v121h176v821h-176v121h727q181 0 295 -53q20 -9 40 -21q131 -75 131 -212q0 -111 -93 -175q-79 -55 -171 -73 q-33 -6 -74 -10zM647 597h121q102 0 157 51q64 60 64 122q0 72 -53 114q-39 32 -87 48q-30 10 -81 10h-121v-345z" />
<glyph unicode="&#x281;" horiz-adv-x="1640" d="M983 544q41 -4 74 -10q92 -18 171 -73q93 -65 93 -175q0 -137 -131 -212q-20 -12 -40 -21q-114 -53 -295 -53h-727v121h176v821h-176v121h696v-121h-177v-355h56q27 0 42 4q14 3 48 24q12 7 25 21.5t71 105.5l183 321h453v-121h-161l-145 -261q-42 -62 -98 -95 q-55 -33 -138 -42zM647 466v-345h121q51 0 81 10q48 16 87 48q53 42 53 114q0 62 -64 122q-55 51 -157 51h-121z" />
<glyph unicode="&#x282;" horiz-adv-x="1153" d="M96 328h113q14 -119 89 -181.5t204 -62.5q108 0 165.5 37.5t57.5 107.5q0 64 -36.5 99t-141.5 61l-146 37q-166 42 -239 118q-74 76 -74 206q0 173 120 257.5t370 84.5q94 0 200.5 -15.5t235.5 -48.5v-268h-113q-9 109 -77.5 164t-196.5 55q-108 0 -163.5 -34.5 t-55.5 -100.5q0 -54 32 -85t115 -52l145 -37q209 -53 289 -131t80 -217q0 -180 -128.5 -265.5t-399.5 -85.5q-44 0 -91 3v-99q0 -123 29 -170t102 -47q66 0 95.5 35.5t31.5 115.5h113v-225q-73 -19 -141 -29t-128 -10q-225 0 -340.5 83.5t-115.5 246.5v453z" />
<glyph unicode="&#x283;" horiz-adv-x="678" d="M18 1196q-27 175 113 268q113 92 332 92q85 0 166 -9.5t159 -28.5v-228h-112q-8 78 -45.5 116t-106.5 38q-82 0 -116 -58q-55 -59 -36 -186l201 -1327q22 -146 -115 -247q-116 -83 -341 -83q-60 0 -128 10t-141 29v226l113 -1q2 -80 31.5 -115.5t95.5 -35.5q73 0 102 47 q44 73 29 170z" />
<glyph unicode="&#x284;" horiz-adv-x="881" d="M221 1063v133q0 177 113 268.5t332 91.5q85 0 166 -9.5t159 -28.5v-228h-112q-8 78 -45.5 116t-106.5 38q-81 0 -116 -58q-36 -59 -36 -186v-258h-2v-342h154v-121h-154v-604q0 -163 -115.5 -246.5t-340.5 -83.5q-60 0 -128 10t-141 29v226l113 -1q2 -80 31.5 -115.5 t95.5 -35.5q73 0 102 47t29 170v604h-149v121h149v342h-151h-5v121h5h153z" />
<glyph unicode="&#x285;" horiz-adv-x="1106" d="M854 720l-201 -845q-21 -87 29 -170q29 -47 102 -47q66 0 95.5 35.5t31.5 115.5l113 1v-226q-73 -19 -141 -29t-128 -10q-225 0 -341 83q-148 108 -115 247l201 849q25 106 -36 186q-43 58 -116 58q-69 0 -106.5 -38t-45.5 -116h-112v228q78 19 159 28.5t166 9.5 q207 0 332 -92q151 -110 113 -268z" />
<glyph unicode="&#x286;" horiz-adv-x="678" d="M753 -423h-110q-12 79 -40 123q-18 28 -43 51q-28 -69 -102 -125q-113 -83 -242 -82q-348 3 -348 225q0 152 151 189q48 11 111 11q38 0 75 -2l-187 1229q-25 167 113 268q125 92 332 92q85 0 166 -9.5t159 -28.5v-228h-112q-8 78 -45.5 116t-106.5 38q-73 0 -116 -58 q-54 -70 -36 -186l201 -1327q1 -4 1 -8q96 -55 132 -118q47 -81 47 -170zM218 -123q-17 2 -34 2q-184 2 -184 -125q0 -88 132 -81q29 2 58 30q48 46 29 170z" />
<glyph unicode="&#x287;" horiz-adv-x="1008" d="M803 121h154v-121h-154v-330h-354v330h-295v121h295v651q0 139 -22 173t-80 34q-64 0 -95 -43t-33 -133h-149q9 160 87.5 224.5t270.5 64.5q219 0 297 -68.5t78 -251.5v-651z" />
<glyph unicode="&#x288;" horiz-adv-x="946" d="M203 942h-154v121h154v330h354v-330h295v-121h-295v-1067q0 -123 29 -170t102 -47q66 0 95.5 35.5t31.5 115.5h113v-225q-73 -19 -141 -29t-128 -10q-225 0 -340.5 83.5t-115.5 246.5v1067z" />
<glyph unicode="&#x289;" horiz-adv-x="1489" d="M913 600v342h-129v121h484v-463h140v-121h-140v-358h151v-121h-506v150q-63 -95 -145 -137t-207 -42q-179 0 -270.5 105.5t-91.5 310.5v92h-129v121h129v342h-152v121h506v-463h360zM913 479h-360v-37q0 -198 33 -251.5t121 -53.5q107 0 156.5 79t49.5 251v12z" />
<glyph unicode="&#x28a;" horiz-adv-x="1391" d="M1209 975h-282q176 -64 279 -193q104 -130 104 -272q0 -108 -49.5 -207t-141.5 -172q-83 -67 -191 -102q-109 -36 -231 -36q-123 0 -230 35t-191 103q-94 75 -143 172t-49 207q0 142 104 271q103 130 280 194h-383v121h512v-165q-31 -21 -84 -149q-42 -98 -42 -256 q0 -185 62 -297q63 -112 164 -112t163 112q63 112 63 297q0 161 -42 257q-53 121 -83 148v165h411v-121z" />
<glyph unicode="&#x28b;" horiz-adv-x="1421" d="M727 -3q-506 3 -506 351v594h-151v121h505v-717q0 -226 152 -225q101 0 164 112q62 112 62 297q0 161 -42 257q-53 121 -83 148v44h129q176 -64 279 -193q104 -130 104 -272q0 -108 -50 -207q-49 -99 -141 -172q-83 -67 -191 -102q-109 -36 -231 -36z" />
<glyph unicode="&#x28c;" horiz-adv-x="1313" d="M854 1063l377 -942h117v-121h-610v121h129l-269 672l-268 -672h139v-121h-399v121h123l377 942h284z" />
<glyph unicode="&#x28d;" horiz-adv-x="1857" d="M770 0l-242 709l-200 -588h139v-121h-397v121h125l321 942h244l225 -666l227 666h242l322 -942h116v-121h-602v121h125l-196 575l-238 -696h-211z" />
<glyph unicode="&#x28e;" horiz-adv-x="1301" d="M670 1303q48 117 116 166t183 49q49 0 109 -11t131 -32v-222l-113 1q-3 77 -36.5 114t-100.5 37q-65 0 -105 -35.5t-80 -134.5l-16 -37l463 -1077h115v-121h-613v121h127l-270 629l-252 -629h141v-121h-399v121h129z" />
<glyph unicode="&#x28f;" horiz-adv-x="1488" d="M371 0v121h201v282l-317 541h-127v121h716v-121h-166l209 -356l207 356h-149v121h428v-121h-127l-287 -489v-334h201v-121h-789z" />
<glyph unicode="&#x290;" horiz-adv-x="1163" d="M72 0v121l610 825h-459v-182h-119v299h990v-119l-611 -825h611v-31h2v-213q0 -123 29 -170t102 -47q66 0 95.5 35.5t31.5 115.5h113v-225q-73 -19 -141 -29t-128 -10q-221 0 -340 83q-116 82 -116 247v125h-670z" />
<glyph unicode="&#x291;" horiz-adv-x="1163" d="M654 1v-40v-144h-137l1 144q1 21 3 40l-449 -1v121l610 825h-459v-182h-119v299h990v-119l-611 -825h60q3 12 8 22q57 137 145 193q143 92 284 50q112 -34 112 -184q-1 -195 -438 -199zM676 119h38q253 0 266 85q17 100 -167 66q-89 -17 -137 -151z" />
<glyph unicode="&#x292;" horiz-adv-x="1163" d="M730 452q221 -21 332 -105q160 -121 160 -331q0 -209 -165.5 -320.5t-479.5 -111.5q-118 0 -243.5 20t-262.5 60v328h121q11 -142 89 -216.5t216 -74.5q152 0 235 84.5t83 239.5q0 162 -86.5 250t-245.5 88h-66v225l265 358h-459v-182h-119v299h990v-119z" />
<glyph unicode="&#x293;" horiz-adv-x="1163" d="M577 -416q-348 0 -348 225q0 173 196 196l66 4q185 0 320 -47q4 30 4 63q0 162 -86.5 250t-245.5 88h-66v225l265 358h-459v-182h-119v299h990v-119l-364 -492q221 -21 332 -105q160 -121 160 -331q0 -183 -126 -291q18 -53 18 -108h-110q-4 23 -8 44q-159 -77 -419 -77z M785 -135q-137 53 -240 54q-184 2 -184 -125q0 -93 136 -93q152 0 235 85q33 33 53 79z" />
<glyph unicode="&#x294;" horiz-adv-x="1098" d="M410 121v711h116q73 0 104 30q46 41 42 254q-4 234 -29 282q-25 47 -127 47q-90 0 -118 -35q-28 -34 -32 -116h-113l3 198q62 34 128 50t138 16q260 0 358 -93t98 -317q0 -237 -98 -322q-89 -77 -116 -85v-620h152v-121h-657v121h151z" />
<glyph unicode="&#x295;" horiz-adv-x="1098" d="M821 121h151v-121h-657v121h152v620q-27 8 -116 85q-98 85 -98 322q0 224 98 317t358 93q72 0 138 -16t128 -50l3 -198h-113q-4 82 -31 116q-29 35 -119 35q-102 0 -127 -47q-25 -48 -29 -282q-4 -213 42 -254q31 -30 104 -30h116v-711z" />
<glyph unicode="&#x296;" horiz-adv-x="1098" d="M410 1437h-151v121h657v-121h-152v-620q27 -8 116 -85q98 -85 98 -322q0 -224 -98 -317t-358 -93q-72 0 -138 16t-128 50l-3 198h113q4 -82 32 -116q28 -35 118 -35q102 0 127 47q25 48 29 282q4 213 -42 254q-31 30 -104 30h-116v711z" />
<glyph unicode="&#x297;" horiz-adv-x="1116" d="M559 1116v-1130q0 -289 29 -282q25 -47 127 -47q90 0 119 35q27 34 31 116h113l-3 -198q-62 -34 -128 -50t-138 -16q-260 0 -358 93t-98 317v1194q0 224 98 317t358 93q72 0 138 -16t128 -50l3 -198h-113q-4 82 -31 116q-29 35 -119 35q-102 0 -127 -47q-29 -56 -29 -282 z" />
<glyph unicode="&#x298;" horiz-adv-x="1784" d="M760 745q0 53 39 92q38 39 92 39q53 0 92 -39q38 -39 38 -92q0 -54 -38 -92t-92 -38t-92 38q-39 38 -39 92zM891 92q191 0 284 161t93 492q0 332 -93 493t-284 161q-190 0 -283.5 -162.5t-93.5 -491.5q0 -328 93.5 -490.5t283.5 -162.5zM891 -29q-377 0 -591 206 t-214 568t214.5 568.5t590.5 206.5q377 0 591 -206t214 -569q0 -362 -214.5 -568t-590.5 -206z" />
<glyph unicode="&#x299;" horiz-adv-x="1423" d="M575 121h90q118 0 214.5 44.5t96.5 142.5q0 93 -88 142t-223 49h-90v-378zM575 654h79q111 0 199.5 37t88.5 109q0 68 -84.5 105t-203.5 37h-79v-288zM70 0v121h151v821h-151v121h718q474 0 474 -263q0 -95 -86.5 -151t-233.5 -69q182 -14 290.5 -85t108.5 -187 q0 -158 -150.5 -233t-452.5 -75h-668z" />
<glyph unicode="&#x29a;" horiz-adv-x="1474" d="M674 70q56 0 90 11q63 20 101 46q216 146 216 398q0 275 -216 398q-64 37 -101 46q-74 18 -90 18q-108 0 -166 -52q-57 -51 -57 -146q0 -76 70 -138q71 -64 209 -64h38v-120h-38q-140 0 -209 -62q-70 -64 -70 -137q0 -96 57 -147q57 -50 166 -51zM646 1092q111 0 195 -18 q103 -22 172 -56q368 -182 368 -490q0 -336 -368 -490q-113 -47 -172 -55q-143 -19 -164 -19q-307 0 -450 77t-143 218q0 103 101 174q103 71 285 95q-182 24 -285 96q-101 71 -101 173q0 141 143 218t419 77z" />
<glyph unicode="&#x29b;" horiz-adv-x="1283" d="M1006 720q-22 115 -122 199q-72 61 -149 61q-116 0 -191 -109q-76 -109 -76 -344q0 -233 72 -342q73 -110 181 -110q49 0 107 40l1 296h-145v84h484v-397q-117 -54 -233 -81q-116 -26 -237 -26q-266 0 -418 143q-152 144 -152 393q0 250 152 393q153 144 418 144 q40 0 80 -3v165q0 163 115.5 246.5t340.5 83.5q60 0 128 -10t141 -29v-225h-113q-2 80 -31.5 115.5t-95.5 35.5q-73 0 -102 -47t-29 -170v-252v-158v-96h-126z" />
<glyph unicode="&#x29c;" horiz-adv-x="1499" d="M70 0v121h151v821h-151v121h635v-121h-130v-319h349v319h-131v121h637v-121h-152v-821h152v-121h-637v121h131v381h-349v-381h130v-121h-635z" />
<glyph unicode="&#x29d;" horiz-adv-x="786" d="M223 1364q0 81 56 136.5t137 55.5q79 0 134.5 -55.5t55.5 -136.5q0 -79 -55.5 -134.5t-134.5 -55.5q-81 0 -137 55t-56 135zM599 -244q-28 -78 -97 -128q-115 -84 -241 -84q-348 0 -348 225q0 197 254 200h8q46 0 89 -3v976h-151v121h505v-1197q180 -105 180 -289h-110 q-12 79 -36 116.5t-53 62.5zM264 -123q-18 2 -28 2h-13q-178 0 -178 -125q0 -82 113 -82q9 0 28 1.5t49 29.5q29 28 29 172v2z" />
<glyph unicode="&#x29e;" horiz-adv-x="1516" d="M829 -426v121h134v811l-429 -385h127v-121h-485v121h197l274 246l-448 575h-115v121h610v-121h-125l295 -379l99 88v412h505v-121h-151v-1248h151v-120h-639z" />
<glyph unicode="&#x29f;" horiz-adv-x="1322" d="M128 0v121h191v821h-191v121h768v-121h-192v-805h368v236h135v-373h-1079z" />
<glyph unicode="&#x2a0;" horiz-adv-x="1432" d="M879 584q0 186 -48 269t-153 83q-110 0 -154.5 -87.5t-44.5 -316.5t45 -317t154 -88q105 0 153 83t48 269v105zM1232 -305h152v-121h-669v121h164v440q-45 -83 -121.5 -123.5t-188.5 -40.5q-226 0 -355.5 150t-129.5 411q0 262 129.5 411t355.5 149q112 0 189 -40 q75 -41 120 -122v296q0 163 115.5 246.5t340.5 83.5q60 0 128 -10t141 -29v-225h-113q-2 80 -31.5 115.5t-95.5 35.5q-73 0 -102 -47t-29 -170v-1531z" />
<glyph unicode="&#x2a1;" horiz-adv-x="1098" d="M764 600h148v-121h-148v-358h152v-121h-152h-354h-151v121h151v358h-155v121h155v232h116q73 0 104 30q46 41 42 254q-4 234 -29 282q-25 47 -127 47q-90 0 -118 -35q-28 -34 -32 -116h-113l3 198q62 34 128 50t138 16q260 0 358 -93t98 -317q0 -237 -98 -322 q-89 -77 -116 -85v-141z" />
<glyph unicode="&#x2a2;" horiz-adv-x="1098" d="M821 121h151v-121h-151h-354h-152v121h152v358h-148v121h148v141q-27 8 -116 85q-98 85 -98 322q0 224 98 317t358 93q72 0 138 -16t128 -50l3 -198h-113q-4 82 -31 116q-29 35 -119 35q-102 0 -127 -47q-25 -48 -29 -282q-4 -213 42 -254q31 -30 104 -30h116v-232h155 v-121h-155v-358z" />
<glyph unicode="&#x2a3;" horiz-adv-x="2287" d="M1233 764v-593l573 775h-459zM879 0v135q-45 -83 -121.5 -123.5t-188.5 -40.5q-226 0 -355.5 150t-129.5 411q0 262 129.5 411t355.5 149q112 0 188.5 -40.5t121.5 -123.5v508h-152v120h506v-493h985v-119l-611 -825h492v192h119v-311h-1339zM879 479v105q0 186 -48 269 t-153 83q-110 0 -154.5 -87.5t-44.5 -316.5t45 -317t154 -88q105 0 153 83t48 269z" />
<glyph unicode="&#x2a4;" horiz-adv-x="2415" d="M1233 764v-643h151v-121h-505v135q-45 -83 -121.5 -123.5t-188.5 -40.5q-226 0 -355.5 150t-129.5 411q0 262 129.5 411t355.5 149q112 0 188.5 -40.5t121.5 -123.5v508h-152v120h506v-493h985v-119l-364 -492q220 -21 332 -105q160 -121 160 -331q0 -209 -165.5 -320.5 t-479.5 -111.5q-118 0 -243.5 20t-262.5 60v328h121q11 -142 89 -216.5t216 -74.5q152 0 235 84.5t83 239.5q0 162 -86.5 250t-245.5 88h-66v225l265 358h-459zM879 479v105q0 186 -48 269t-153 83q-110 0 -154.5 -87.5t-44.5 -316.5t45 -317t154 -88q105 0 153 83t48 269z " />
<glyph unicode="&#x2a5;" horiz-adv-x="2287" d="M879 479v105q0 186 -48 269t-153 83q-110 0 -154.5 -87.5t-44.5 -316.5t45 -317t154 -88q105 0 153 83t48 269zM1838 119q258 0 266 85q15 136 -167 66q-96 -37 -137 -151h38zM1233 1063h985v-119l-611 -825h60q4 12 8 22q57 137 145 193q143 92 284 50q112 -34 112 -184 q-1 -195 -438 -199q-1 -19 0 -40v-144h-137l1 144q1 21 3 40l-766 -1v135q-45 -83 -121.5 -123.5t-188.5 -40.5q-226 0 -355.5 150t-129.5 411q0 262 129.5 411t355.5 149q112 0 188.5 -40.5t121.5 -123.5v508h-152v120h506v-493zM1233 764v-593l573 775h-459z" />
<glyph unicode="&#x2a6;" horiz-adv-x="1865" d="M203 942h-154v121h154v330h354v-330h295v-121h-295v-651q0 -139 22 -173t80 -34q64 0 95 43t33 133h36h113q2 -41 89 -114q75 -62 204 -62q108 0 165.5 37.5t57.5 107.5q0 64 -36 99q-36 34 -142 61l-146 37q-166 42 -239 118q-74 76 -74 206q0 173 120 257.5t370 84.5 q94 0 200.5 -15.5t235.5 -48.5v-268h-113q-9 109 -77.5 164t-196.5 55q-108 0 -163.5 -34.5t-55.5 -100.5q0 -54 32 -85t115 -52l145 -37q209 -53 289 -131t80 -217q0 -180 -128.5 -265.5t-399.5 -85.5q-99 0 -210 15q-104 14 -220 41q-80 -56 -260 -56q-219 0 -297 68.5 t-78 251.5v651z" />
<glyph unicode="&#x2a7;" horiz-adv-x="1464" d="M203 942h-154v121h154v330h354v-330h267l-20 133q-27 175 113 268q113 92 332 92q85 0 166 -9.5t159 -28.5v-228h-112q-8 78 -45.5 116t-106.5 38q-82 0 -116 -58q-55 -59 -36 -186l201 -1327q22 -146 -115 -247q-116 -83 -341 -83q-60 0 -128 10t-141 29v226l113 -1 q2 -80 31.5 -115.5t95.5 -35.5q73 0 102 47q44 73 29 170l-162 1069h-286v-651q0 -139 22 -173t80 -34q64 0 95 43t33 133h149q-9 -160 -87.5 -224.5t-270.5 -64.5q-219 0 -297 68.5t-78 251.5v651z" />
<glyph unicode="&#x2a8;" horiz-adv-x="1861" d="M203 942h-154v121h154v330h354v-330h295v-121h-295v-651q0 -139 22 -173t80 -34q64 0 95 43q29 40 33 121q-63 118 -63 272q0 255 169 408q169 152 448 152q161 0 249 -24q88 -23 177 -71v-272h-94q-19 140 -81 204t-177 64q-149 0 -225 -115q-78 -120 -76 -346 q1 -94 27 -204q144 72 388 74q268 0 263 -232q-4 -199 -451 -199q-184 0 -312 71q-11 -32 -10 -117v-144h-137l2 144q3 101 32 180l-15 12q-20 -43 -53 -69q-78 -65 -270 -65q-219 0 -297 68.5t-78 251.5v651zM1178 222q92 -151 249 -152q253 -1 253 106q0 126 -205 124 q-255 -2 -297 -78z" />
<glyph unicode="&#x2a9;" horiz-adv-x="2128" d="M991 1290h-112q-8 78 -45.5 116t-106.5 38q-80 0 -116 -57.5t-36 -186.5v-137h264h3h502v-150q64 95 146 137t207 42q179 0 270.5 -105.5t91.5 -310.5v-801q0 -163 -115.5 -246.5t-340.5 -83.5q-60 0 -128 10t-141 29v225h113q2 -80 31.5 -115.5t95.5 -35.5q73 0 102 47 t29 170v811q0 135 -34.5 187.5t-119.5 52.5q-107 0 -157 -78.5t-50 -249.5v-477h130v-121h-635v121h151v821h-148h-3h-264v-821h205v-121h-710v121h151v821h-158v121h158v133q0 177 113 268.5t332 91.5q85 0 166 -9.5t159 -28.5v-228z" />
<glyph unicode="&#x2aa;" horiz-adv-x="1618" d="M722 0h-652v121h151v1315h-151v120h505v-728q22 115 113 180q120 84 370 84q94 0 200.5 -15.5t235.5 -48.5v-268h-113q-9 109 -77.5 164t-196.5 55q-108 0 -163.5 -34.5t-55.5 -100.5q0 -54 32 -85t115 -52l145 -37q209 -53 289 -131t80 -217q0 -180 -128.5 -265.5 t-399.5 -85.5q-99 0 -210 15q-43 6 -89 14zM575 675v-554h1v139h113q2 -41 89 -114q75 -62 204 -62q108 0 165.5 37.5t57.5 107.5q0 64 -37 99q-35 34 -141 61l-146 37q-166 42 -239 118q-51 52 -67 131z" />
<glyph unicode="&#x2ab;" horiz-adv-x="1629" d="M575 764v-593l573 775h-459zM70 0v121h151v1315h-151v120h505v-493h985v-119l-611 -825h492v192h119v-311h-1490z" />
<glyph unicode="&#x2ac;" horiz-adv-x="1356" d="M819 595l158 -397l130 330h-91v67h258v-67h-81l-209 -528h-158l-146 373l-148 -373h-157l-210 528h-75v67h391v-67h-81l127 -322l155 389h137zM819 1279l158 -397l130 330h-91v67h258v-67h-81l-209 -528h-158l-146 373l-148 -373h-157l-210 528h-75v67h391v-67h-81 l127 -322l155 389h137z" />
</font>
</defs>
</svg>
