<?xml version="1.0" standalone="no"?>
<!DOCTYPE svg PUBLIC "-//W3C//DTD SVG 1.1//EN" "http://www.w3.org/Graphics/SVG/1.1/DTD/svg11.dtd" >
<svg xmlns="http://www.w3.org/2000/svg">
<metadata></metadata>
<defs>
<font id="dejavu_serifcondensed_bold" horiz-adv-x="1544" >
<font-face units-per-em="2048" ascent="1556" descent="-492" />
<missing-glyph horiz-adv-x="641" />
<glyph unicode="&#xfb00;" horiz-adv-x="1512" d="M919 942h-401v-821h185v-121h-639v121h135v821h-142v121h142v133q0 177 101.5 268.5t299.5 91.5q76 0 149 -9.5t143 -28.5v-228h-101q-7 78 -40.5 116t-96.5 38q-72 0 -104 -57.5t-32 -186.5v-137h401v133q0 177 101.5 268.5t299.5 91.5q76 0 149 -9.5t143 -28.5v-228 h-101q-7 78 -40.5 116t-96.5 38q-72 0 -104 -57.5t-32 -186.5v-137h241v-121h-241v-821h185v-121h-639v121h135v821z" />
<glyph unicode="fi" horiz-adv-x="1340" d="M1089 1268h-101q-10 86 -64 131t-148 45q-133 0 -195.5 -71t-62.5 -224v-86h643v-942h137v-121h-572v121h116v821h-324v-821h116v-121h-571v121h136v821h-142v121h142v76q0 206 127 311.5t376 105.5q87 0 184 -12t203 -37v-239z" />
<glyph unicode="fl" horiz-adv-x="1340" d="M199 1139q0 213 131.5 315t406.5 102h420v-1435h137v-121h-571v121h116v1323h-79q-127 0 -184.5 -70t-57.5 -225v-86h217v-121h-217v-821h116v-121h-571v121h136v821h-142v121h142v76z" />
<glyph unicode="&#xfb03;" horiz-adv-x="2063" d="M919 942h-401v-821h185v-121h-639v121h136v821h-142v121h142v133q0 177 101.5 268.5t298.5 91.5q77 0 150 -9.5t143 -28.5v-228h-101q-7 78 -41 116t-96 38q-72 0 -104.5 -57.5t-32.5 -186.5v-137h401v76q0 206 127 311.5t376 105.5q87 0 184 -12t203 -37v-239h-101 q-10 86 -64 131t-148 45q-133 0 -195.5 -71t-62.5 -224v-86h643v-942h137v-121h-572v121h116v821h-324v-821h116v-121h-571v121h136v821z" />
<glyph unicode="&#xfb04;" horiz-adv-x="2058" d="M917 1063v76q0 213 131.5 315t406.5 102h421v-1435h136v-121h-571v121h116v1323h-79q-127 0 -184.5 -70t-57.5 -225v-86h218v-121h-218v-821h117v-121h-572v121h136v821h-399v-821h184v-121h-639v121h136v821h-142v121h142v133q0 177 101.5 268.5t298.5 91.5 q77 0 150 -9.5t143 -28.5v-228h-101q-7 78 -41 116t-96 38q-72 0 -104 -57.5t-32 -186.5v-137h399z" />
<glyph unicode="&#xd;" horiz-adv-x="682" />
<glyph unicode=" "  horiz-adv-x="641" />
<glyph unicode="&#x09;" horiz-adv-x="641" />
<glyph unicode="&#xa0;" horiz-adv-x="641" />
<glyph unicode="!" horiz-adv-x="809" d="M234 162q0 78 50 134t120 56t120.5 -56t50.5 -134q0 -79 -50.5 -135t-120.5 -56t-120 56t-50 135zM236 1493h337l-107 -842v-190h-125v190z" />
<glyph unicode="&#x22;" horiz-adv-x="960" d="M389 1493v-555h-213v555h213zM785 1493v-555h-213v555h213z" />
<glyph unicode="#" d="M922 872h-238l-63 -274h238zM820 1470l-86 -385h237l87 385h199l-87 -385h249v-213h-297l-62 -274h256v-215h-303l-86 -383h-199l86 383h-237l-87 -383h-200l86 383h-251v215h295l63 274h-254v213h304l86 385h201z" />
<glyph unicode="$" horiz-adv-x="1282" d="M176 59v291h108q15 -134 85.5 -200t200.5 -66h12v405q-224 55 -321 150t-97 258q0 180 110 283.5t308 109.5v269h109v-269q101 -6 193 -27.5t180 -60.5v-272h-109q-15 116 -83.5 180.5t-180.5 66.5v-372q242 -59 340.5 -158.5t98.5 -279.5q0 -185 -114 -287.5 t-325 -108.5v-270h-109v270q-99 2 -200.5 24t-205.5 64zM582 1178q-76 -11 -120.5 -53t-44.5 -103q0 -70 38 -113t127 -71v340zM691 84q91 11 138 54.5t47 117.5t-44 122t-141 79v-373z" />
<glyph unicode="%" horiz-adv-x="1751" d="M398 1419q-58 0 -83 -69.5t-25 -235.5q0 -167 25 -237t83 -70t83.5 70t25.5 237q0 166 -25.5 235.5t-83.5 69.5zM398 1520q172 0 263 -104.5t91 -301.5t-91 -302t-263 -105q-171 0 -262.5 105t-91.5 302t91.5 301.5t262.5 104.5zM1219 1520h154l-840 -1549h-155z M1353 784q172 0 262.5 -104.5t90.5 -300.5q0 -197 -90.5 -302.5t-262.5 -105.5q-171 0 -262.5 105.5t-91.5 302.5q0 196 91.5 300.5t262.5 104.5zM1353 684q-59 0 -84 -69.5t-25 -235.5q0 -167 25.5 -237t83.5 -70t83.5 70t25.5 237q0 166 -25.5 235.5t-83.5 69.5z" />
<glyph unicode="&#x26;" horiz-adv-x="1664" d="M1631 0h-431l-115 131q-90 -80 -198.5 -120t-237.5 -40q-270 0 -422.5 128t-152.5 352q0 163 78 278.5t244 198.5q-46 67 -69 128t-23 118q0 164 124 255t348 91q66 0 155 -12t200 -35v-312h-116q-16 124 -68 181t-149 57q-91 0 -143 -48t-52 -130q0 -92 161 -274 q18 -20 27 -29l414 -482q54 68 84.5 157t38.5 202h-163v120h450v-120h-159q-15 -146 -56 -259t-108 -200l186 -215h153v-121zM1001 229l-509 588q-49 -67 -74.5 -142.5t-25.5 -158.5q0 -169 96 -278t244 -109q70 0 136 24.5t133 75.5z" />
<glyph unicode="'" horiz-adv-x="564" d="M389 1493v-555h-213v555h213z" />
<glyph unicode="(" horiz-adv-x="872" d="M776 -319q-304 125 -453 358t-149 579t147.5 576t454.5 362v-120q-142 -96 -205 -284.5t-63 -533.5q0 -344 63 -532.5t205 -284.5v-120z" />
<glyph unicode=")" horiz-adv-x="872" d="M94 -319v120q142 96 204.5 284.5t62.5 532.5q0 345 -62.5 533.5t-204.5 284.5v120q306 -132 454.5 -362t148.5 -576t-150 -579t-453 -358z" />
<glyph unicode="*" horiz-adv-x="963" d="M923 1212l-324 -168l324 -170l-88 -155l-295 239l24 -389h-164l24 389l-295 -239l-89 155l325 170l-325 168l89 158l295 -242l-24 392h164l-24 -392l295 242z" />
<glyph unicode="+" d="M876 1284v-526h473v-230h-473v-526h-207v526h-474v230h474v526h207z" />
<glyph unicode="," horiz-adv-x="641" d="M24 -197q94 84 138 188t44 242v86h257v-8q0 -221 -83.5 -380.5t-256.5 -268.5z" />
<glyph unicode="-" horiz-adv-x="765" d="M100 684h565v-270h-565v270z" />
<glyph unicode="." horiz-adv-x="641" d="M149 162q0 78 50.5 134t120.5 56q72 0 122 -56t50 -134q0 -79 -50 -135t-122 -56q-70 0 -120.5 56t-50.5 135z" />
<glyph unicode="/" horiz-adv-x="673" d="M473 1493h200l-474 -1683h-199z" />
<glyph unicode="0" horiz-adv-x="1282" d="M642 88q108 0 148 109t40 548q0 436 -40 547t-148 111t-148 -109t-40 -549q0 -439 40 -548t148 -109zM642 -29q-269 0 -412.5 199.5t-143.5 574.5t143.5 575t412.5 200q268 0 411 -200t143 -575t-143 -574.5t-411 -199.5z" />
<glyph unicode="1" horiz-adv-x="1282" d="M253 0v121h252v1208l-280 -184v149l337 226h284v-1399h253v-121h-846z" />
<glyph unicode="2" horiz-adv-x="1282" d="M243 1124h-108v322q110 37 217.5 55.5t217.5 18.5q256 0 399.5 -116.5t143.5 -324.5q0 -148 -79 -265.5t-302 -278.5l-375 -273h637v176h123v-438h-994v244l199 153q255 195 339.5 332t84.5 320q0 173 -64.5 263.5t-187.5 90.5q-106 0 -170 -71.5t-81 -207.5z" />
<glyph unicode="3" horiz-adv-x="1282" d="M158 1450q119 35 230.5 52.5t218.5 17.5q243 0 373 -96.5t130 -276.5q0 -135 -75 -219t-219 -113q176 -31 262.5 -133t86.5 -279q0 -209 -149 -320.5t-432 -111.5q-106 0 -219 20t-236 60v328h109q10 -142 80 -216.5t194 -74.5q137 0 211.5 84.5t74.5 239.5 q0 162 -77.5 250t-220.5 88h-60v120h47q132 0 198.5 68t66.5 203q0 127 -62.5 194.5t-179.5 67.5q-106 0 -168 -64.5t-75 -187.5h-109v299z" />
<glyph unicode="4" horiz-adv-x="1282" d="M1176 0h-740v121h200v272h-560v115l562 1012h338v-998h231v-129h-231v-272h200v-121zM636 522v725l-400 -725h400z" />
<glyph unicode="5" horiz-adv-x="1282" d="M1040 1493v-262h-720v-328q60 51 133 77t154 26q248 0 392 -139.5t144 -379.5q0 -244 -144 -380t-403 -136q-110 0 -218.5 20t-226.5 62v326h108q6 -147 69.5 -219t187.5 -72q132 0 196 98.5t64 300.5q0 199 -62.5 297.5t-189.5 98.5q-69 0 -122.5 -31.5t-99.5 -97.5h-90 v739h828z" />
<glyph unicode="6" horiz-adv-x="1282" d="M454 885q58 52 130.5 78t157.5 26q207 0 324.5 -134t117.5 -368q0 -247 -132.5 -381.5t-376.5 -134.5q-275 0 -417 184.5t-142 542.5q0 407 157.5 614.5t467.5 207.5q81 0 173.5 -15t198.5 -45v-264h-109q-22 102 -84.5 154.5t-161.5 52.5q-160 0 -232 -122t-72 -396z M654 88q93 0 132.5 87.5t39.5 303.5t-39.5 303.5t-132.5 87.5q-92 0 -131.5 -87.5t-39.5 -303.5t39.5 -303.5t131.5 -87.5z" />
<glyph unicode="7" horiz-adv-x="1282" d="M1130 1239l-555 -1239h-183l540 1210h-663v-202h-123v485h984v-254z" />
<glyph unicode="8" horiz-adv-x="1282" d="M857 795q160 -29 243.5 -131t83.5 -267q0 -206 -140 -316t-404 -110t-404.5 110t-140.5 316q0 165 84 267t243 131q-141 36 -211.5 120.5t-70.5 214.5q0 190 128 290t372 100q243 0 371 -100t128 -290q0 -130 -70.5 -214.5t-211.5 -120.5zM791 1126q0 158 -34 217.5 t-117 59.5q-84 0 -117.5 -59.5t-33.5 -217.5q0 -157 33.5 -215.5t117.5 -58.5t117.5 58.5t33.5 215.5zM826 414q0 183 -42 252t-144 69q-104 0 -145 -69t-41 -252q0 -185 41.5 -255.5t144.5 -70.5q102 0 144 70.5t42 255.5z" />
<glyph unicode="9" horiz-adv-x="1282" d="M628 1403q-92 0 -131.5 -87.5t-39.5 -303.5t39.5 -303.5t131.5 -87.5q93 0 132.5 87.5t39.5 303.5t-39.5 303.5t-132.5 87.5zM829 608q-59 -53 -131.5 -79.5t-157.5 -26.5q-205 0 -322.5 133.5t-117.5 368.5q0 248 131.5 382t375.5 134q275 0 417 -185t142 -542 q0 -407 -157.5 -614.5t-466.5 -207.5q-81 0 -174 15t-199 45v264h109q23 -102 85.5 -154.5t162.5 -52.5q158 0 230 122.5t73 397.5z" />
<glyph unicode=":" horiz-adv-x="680" d="M169 813q0 79 50 135t120 56q71 0 121 -56.5t50 -134.5t-50 -133t-121 -55t-120.5 55t-49.5 133zM169 162q0 78 50 134t120 56q71 0 121 -56t50 -134q0 -79 -50 -135t-121 -56q-70 0 -120 56t-50 135z" />
<glyph unicode=";" horiz-adv-x="680" d="M169 813q0 79 50 135t120 56q71 0 121 -56.5t50 -134.5t-50 -133t-121 -55t-120.5 55t-49.5 133zM48 -188q94 83 138 186.5t44 241.5v88h257q0 -225 -83.5 -387t-255.5 -271z" />
<glyph unicode="&#x3c;" d="M1349 979l-881 -338l881 -336v-239l-1154 464v226l1154 463v-240z" />
<glyph unicode="=" d="M195 528h1154v-227h-1154v227zM195 983h1154v-227h-1154v227z" />
<glyph unicode="&#x3e;" d="M195 979v240l1154 -463v-226l-1154 -464v239l881 336z" />
<glyph unicode="?" horiz-adv-x="1080" d="M308 162q0 78 50.5 134t120.5 56q71 0 121.5 -56t50.5 -134q0 -79 -50.5 -135t-121.5 -56q-70 0 -120.5 56t-50.5 135zM120 1452q111 34 212 51t195 17q227 0 348.5 -110.5t121.5 -315.5q0 -202 -117.5 -318.5t-337.5 -134.5v-205h-125v299q126 43 184.5 135t58.5 246 q0 144 -55 217.5t-162 73.5q-99 0 -152.5 -66t-61.5 -196h-109v307z" />
<glyph unicode="@" horiz-adv-x="1843" d="M1145 504v76q0 129 -56 207.5t-147 78.5q-89 0 -143.5 -87.5t-54.5 -235.5t54.5 -236t143.5 -88q91 0 147 77.5t56 207.5zM1145 240q-40 -72 -104.5 -110t-144.5 -38q-172 0 -270.5 120t-98.5 331t98.5 330.5t270.5 119.5q80 0 144.5 -38t104.5 -109v125h197v-742 q129 39 199 156t70 293q0 143 -49.5 260t-151.5 213q-82 78 -194 120t-238 42q-117 0 -218.5 -35t-186.5 -104q-127 -106 -196 -270t-69 -361q0 -155 43.5 -292.5t123.5 -238.5q97 -119 222.5 -180t271.5 -61q110 0 212.5 34t195.5 101l51 -94q-115 -84 -239.5 -126 t-254.5 -42q-174 0 -320 63t-260 189q-114 124 -173 289.5t-59 357.5t59 357t173 290q115 126 262 188t332 62q160 0 291.5 -48.5t234.5 -146.5q120 -111 179.5 -253t59.5 -316q0 -276 -142.5 -430t-397.5 -154h-28v148z" />
<glyph unicode="A" horiz-adv-x="1430" d="M-14 0v121h109l506 1372h215l507 -1372h128v-121h-629v121h131l-111 305h-504l-113 -305h160v-121h-399zM382 547h416l-207 571z" />
<glyph unicode="B" horiz-adv-x="1557" d="M86 0v121h172v1251h-172v121h797q246 0 369 -92t123 -277q0 -133 -85 -211t-252 -98q202 -21 310 -120t108 -263q0 -222 -150.5 -327t-472.5 -105h-747zM605 870h118q155 0 229.5 62.5t74.5 191.5q0 130 -72.5 189t-231.5 59h-118v-502zM605 121h129q171 0 254 76t83 235 q0 160 -83.5 239t-253.5 79h-129v-629z" />
<glyph unicode="C" horiz-adv-x="1467" d="M1373 426q-53 -231 -190.5 -343t-369.5 -112q-341 0 -538.5 208.5t-197.5 565.5q0 358 197.5 566.5t538.5 208.5q119 0 249 -32t274 -97v-367h-114q-35 188 -127.5 281.5t-244.5 93.5q-197 0 -292 -160.5t-95 -493.5t95 -493t293 -160q135 0 220 83t123 251h179z" />
<glyph unicode="D" horiz-adv-x="1598" d="M605 121h125q210 0 308 150t98 477q0 325 -97.5 474.5t-308.5 149.5h-125v-1251zM86 0v121h172v1251h-172v121h690q362 0 553.5 -192t191.5 -553q0 -363 -192 -555.5t-553 -192.5h-690z" />
<glyph unicode="E" horiz-adv-x="1404" d="M86 0v121h172v1251h-172v121h1208v-352h-124v215h-565v-479h352v190h123v-516h-123v190h-352v-604h582v215h123v-352h-1224z" />
<glyph unicode="F" horiz-adv-x="1308" d="M86 0v121h172v1251h-172v121h1198v-352h-123v215h-554v-479h341v190h123v-516h-123v190h-341v-620h211v-121h-732z" />
<glyph unicode="G" horiz-adv-x="1574" d="M1268 1024q-40 198 -134.5 286.5t-266.5 88.5q-209 0 -306.5 -157.5t-97.5 -496.5q0 -336 93.5 -494.5t291.5 -158.5q75 0 140 19t118 57v410h-162v120h484v-573q-151 -78 -301.5 -116t-308.5 -38q-346 0 -543.5 207t-197.5 567q0 361 197.5 568t543.5 207 q144 0 283.5 -32t280.5 -97v-367h-114z" />
<glyph unicode="H" horiz-adv-x="1741" d="M86 0v121h172v1251h-172v121h692v-121h-173v-502h534v502h-171v121h691v-121h-173v-1251h173v-121h-691v121h171v612h-534v-612h173v-121h-692z" />
<glyph unicode="I" horiz-adv-x="862" d="M86 0v121h172v1251h-172v121h692v-121h-173v-1251h173v-121h-692z" />
<glyph unicode="J" horiz-adv-x="872" d="M-135 -358v235h117q5 -94 40 -138t103 -44q87 0 122 74.5t35 279.5v1323h-196v121h716v-121h-172v-1331q0 -243 -110 -355t-351 -112q-75 0 -150.5 17t-153.5 51z" />
<glyph unicode="K" horiz-adv-x="1602" d="M86 0v121h172v1251h-172v121h692v-121h-173v-545l569 545h-144v121h502v-121h-179l-483 -461l656 -790h133v-121h-456l-598 725v-604h173v-121h-692z" />
<glyph unicode="L" horiz-adv-x="1296" d="M86 0v121h172v1251h-172v121h692v-121h-173v-1235h529v236h122v-373h-1170z" />
<glyph unicode="M" horiz-adv-x="2040" d="M77 0v121h171v1251h-171v121h555l383 -958l385 958h554v-121h-172v-1251h172v-121h-691v121h171v1139l-417 -1041h-228l-415 1041v-1139h171v-121h-468z" />
<glyph unicode="N" horiz-adv-x="1684" d="M81 0v121h172v1251h-172v121h420l811 -1057v936h-171v121h470v-121h-172v-1372h-236l-823 1079v-958h171v-121h-470z" />
<glyph unicode="O" horiz-adv-x="1605" d="M802 92q172 0 255.5 161t83.5 492q0 332 -83.5 493t-255.5 161q-171 0 -255 -162.5t-84 -491.5q0 -328 84 -490.5t255 -162.5zM802 -29q-339 0 -532 206t-193 568t193.5 568.5t531.5 206.5q339 0 531.5 -206t192.5 -569q0 -362 -193 -568t-531 -206z" />
<glyph unicode="P" horiz-adv-x="1386" d="M86 0v121h172v1251h-172v121h765q225 0 357 -118.5t132 -317.5q0 -200 -132.5 -319.5t-356.5 -119.5h-246v-497h217v-121h-736zM605 739h101q117 0 186.5 86.5t69.5 231.5q0 144 -69 229.5t-187 85.5h-101v-633z" />
<glyph unicode="Q" horiz-adv-x="1605" d="M796 -29q-340 6 -529.5 210t-189.5 564q0 362 193.5 568.5t531.5 206.5q339 0 531.5 -206t192.5 -569q0 -318 -148 -516t-421 -245q47 -57 115.5 -82t177.5 -25h46v-246h-26q-171 0 -285.5 82t-188.5 258zM802 92q172 0 255.5 161t83.5 492q0 332 -83.5 493t-255.5 161 q-171 0 -255 -162.5t-84 -491.5q0 -328 84 -490.5t255 -162.5z" />
<glyph unicode="R" horiz-adv-x="1531" d="M978 729q80 -13 135 -59t96 -133l196 -416h138v-121h-442l-215 451q-62 140 -105.5 178.5t-120.5 38.5h-55v-547h173v-121h-692v121h172v1251h-172v121h767q234 0 361.5 -104.5t127.5 -296.5q0 -156 -90.5 -246.5t-273.5 -116.5zM605 788h118q126 0 194 76t68 217 t-68 216t-194 75h-118v-584z" />
<glyph unicode="S" horiz-adv-x="1331" d="M142 72v354h114q27 -168 124 -251t269 -83q139 0 212 59t73 173q0 90 -49.5 140t-204.5 93l-201 55q-197 56 -277 155.5t-80 283.5q0 222 132.5 345.5t371.5 123.5q118 0 245.5 -22t264.5 -66v-330h-114q-27 154 -115 225.5t-251 71.5q-133 0 -201 -51.5t-68 -153.5 q0 -93 47 -141.5t229 -100.5l202 -55q187 -52 271 -162t84 -303q0 -226 -140 -343.5t-413 -117.5q-131 0 -261 25t-264 76z" />
<glyph unicode="T" horiz-adv-x="1371" d="M334 0v121h178v1235h-368v-236h-123v373h1332v-373h-122v236h-371v-1235h180v-121h-706z" />
<glyph unicode="U" horiz-adv-x="1607" d="M234 1372h-171v121h691v-121h-172v-747q0 -279 78.5 -390.5t268.5 -111.5q185 0 263 112.5t78 389.5v747h-171v121h468v-121h-172v-768q0 -342 -133 -487.5t-448 -145.5q-312 0 -446 147t-134 488v766z" />
<glyph unicode="V" horiz-adv-x="1430" d="M1456 1493v-121h-112l-507 -1372h-214l-507 1372h-127v121h630v-121h-130l362 -989l366 989h-160v121h399z" />
<glyph unicode="W" horiz-adv-x="2070" d="M1570 0h-232l-304 1087l-304 -1087h-232l-384 1372h-130v121h637v-121h-144l257 -917l289 1038h256l295 -1055l262 934h-160v121h416v-121h-138z" />
<glyph unicode="X" horiz-adv-x="1430" d="M625 575l-280 -454h165v-121h-477v121h166l354 571l-421 680h-123v121h668v-121h-148l260 -420l258 420h-157v121h468v-121h-166l-332 -536l441 -715h127v-121h-670v121h149z" />
<glyph unicode="Y" horiz-adv-x="1315" d="M317 0v121h181v497l-400 754h-114v121h644v-121h-149l302 -569l301 569h-134v121h385v-121h-114l-373 -702v-549h181v-121h-710z" />
<glyph unicode="Z" horiz-adv-x="1345" d="M68 0v141l802 1215h-643v-223h-123v360h1166v-141l-793 -1215h679v209h123v-346h-1211z" />
<glyph unicode="[" horiz-adv-x="872" d="M230 1556h511v-120h-192v-1586h192v-120h-511v1826z" />
<glyph unicode="\" horiz-adv-x="673" d="M199 1493l474 -1683h-200l-473 1683h199z" />
<glyph unicode="]" horiz-adv-x="872" d="M642 1556v-1826h-512v120h192v1586h-192v120h512z" />
<glyph unicode="^" d="M876 1493l482 -557h-192l-394 315l-394 -315h-192l489 557h201z" />
<glyph unicode="_" horiz-adv-x="921" d="M922 -293v-190h-922v190h922z" />
<glyph unicode="`" horiz-adv-x="921" d="M378 1638l232 -376h-147l-336 376h251z" />
<glyph unicode="a" horiz-adv-x="1194" d="M1015 653v-532h137v-121h-455v135q-63 -84 -140.5 -124t-176.5 -40q-147 0 -225.5 87.5t-78.5 250.5q0 179 113 268t340 89h168v63q0 129 -55 190.5t-170 61.5q-96 0 -147.5 -43.5t-73.5 -142.5h-102v229q86 34 177.5 51t193.5 17q257 0 376 -106t119 -333zM697 334v213 h-120q-89 0 -137 -54t-48 -155t35 -151t106 -50q74 0 119 54t45 143z" />
<glyph unicode="b" horiz-adv-x="1288" d="M179 121v1315h-137v120h456v-628q40 83 108.5 123.5t169.5 40.5q204 0 321.5 -149.5t117.5 -410.5t-117.5 -411t-321.5 -150q-101 0 -169.5 40.5t-108.5 123.5v-135h-456v121h137zM498 479q0 -186 42.5 -269t138.5 -83q98 0 138 88t40 317t-40 316.5t-138 87.5 q-96 0 -138.5 -83t-42.5 -269v-105z" />
<glyph unicode="c" horiz-adv-x="1122" d="M1040 332q-35 -182 -140.5 -271.5t-287.5 -89.5q-256 0 -396 147t-140 414q0 264 138.5 412t384.5 148q100 0 202 -21t207 -63v-295h-101q-14 135 -71 200.5t-159 65.5q-133 0 -189.5 -100t-56.5 -347q0 -241 55 -344.5t179 -103.5q96 0 154.5 64t70.5 184h150z" />
<glyph unicode="d" horiz-adv-x="1288" d="M791 479v105q0 186 -43 269t-138 83q-99 0 -139 -87.5t-40 -316.5t40.5 -317t138.5 -88q95 0 138 83t43 269zM1110 121h136v-121h-455v135q-40 -83 -109 -123.5t-170 -40.5q-203 0 -319.5 150t-116.5 411q0 262 116.5 411t319.5 149q101 0 170 -40.5t109 -123.5v508h-137 v120h456v-1435z" />
<glyph unicode="e" horiz-adv-x="1172" d="M739 600q0 210 -35 294.5t-120 84.5q-82 0 -117.5 -83t-35.5 -278v-18h308zM1089 481h-658v-8q0 -206 56 -297.5t180 -91.5q103 0 167 61t82 177h150q-39 -181 -154.5 -266t-321.5 -85q-249 0 -381.5 145.5t-132.5 415.5q0 264 135.5 412t378.5 148q237 0 364 -155.5 t135 -455.5z" />
<glyph unicode="f" horiz-adv-x="792" d="M892 1290h-101q-7 78 -41 116t-96 38q-72 0 -104 -57.5t-32 -186.5v-137h240v-121h-240v-821h184v-121h-639v121h136v821h-142v121h142v133q0 177 101.5 268.5t298.5 91.5q77 0 150 -9.5t143 -28.5v-228z" />
<glyph unicode="g" horiz-adv-x="1288" d="M1110 942v-928q0 -224 -143.5 -346.5t-405.5 -122.5q-96 0 -194 16.5t-201 49.5v254h101q14 -105 76.5 -156t178.5 -51q148 0 208.5 78.5t60.5 277.5v121q-40 -83 -109 -123.5t-170 -40.5q-203 0 -319.5 150t-116.5 411q0 262 116.5 411t319.5 149q101 0 170 -40.5 t109 -123.5v135h455v-121h-136zM791 584q0 186 -43 269t-138 83q-99 0 -139 -87.5t-40 -316.5t40.5 -317t138.5 -88q95 0 138 83t43 269v105z" />
<glyph unicode="h" horiz-adv-x="1340" d="M63 0v121h136v1315h-142v120h461v-643q57 95 131 137t186 42q161 0 243.5 -105.5t82.5 -310.5v-555h137v-121h-572v121h116v565q0 135 -31 187.5t-107 52.5q-96 0 -141 -78.5t-45 -249.5v-477h116v-121h-571z" />
<glyph unicode="i" horiz-adv-x="700" d="M169 1364q0 81 50.5 136.5t123.5 55.5q71 0 121 -55.5t50 -136.5q0 -79 -50 -134.5t-121 -55.5q-73 0 -123.5 55t-50.5 135zM518 121h136v-121h-591v121h136v821h-136v121h455v-942z" />
<glyph unicode="j" horiz-adv-x="666" d="M160 1364q0 81 50 136.5t124 55.5q70 0 120.5 -56t50.5 -136q0 -79 -50 -134.5t-121 -55.5q-73 0 -123.5 55t-50.5 135zM197 942h-136v121h455v-1188q0 -163 -104 -246.5t-307 -83.5q-54 0 -115 10t-127 29v226l102 -1q2 -80 28.5 -115.5t85.5 -35.5q66 0 92 47t26 170 v1067z" />
<glyph unicode="k" horiz-adv-x="1277" d="M638 0h-575v121h136v1315h-136v120h455v-999l386 385h-115v121h437v-121h-178l-246 -246l403 -575h104v-121h-549v121h112l-265 379l-89 -88v-291h120v-121z" />
<glyph unicode="l" horiz-adv-x="700" d="M518 121h136v-121h-591v121h136v1315h-136v120h455v-1435z" />
<glyph unicode="m" horiz-adv-x="1950" d="M1119 889q66 106 143.5 154.5t181.5 48.5q164 0 245.5 -103.5t81.5 -312.5v-555h137v-121h-570v121h115v502q0 199 -27.5 251t-102.5 52q-85 0 -131.5 -72.5t-46.5 -206.5v-526h114v-121h-547v121h114v502q0 199 -28 251t-101 52q-86 0 -132.5 -72.5t-46.5 -206.5v-526 h114v-121h-569v121h136v821h-136v121h455v-150q55 93 127 136t171 43q117 0 190 -49.5t113 -153.5z" />
<glyph unicode="n" horiz-adv-x="1340" d="M63 0v121h136v821h-136v121h455v-150q57 95 131 137t186 42q161 0 243.5 -105.5t82.5 -310.5v-555h137v-121h-572v121h116v565q0 135 -31 187.5t-107 52.5q-96 0 -141 -78.5t-45 -249.5v-477h116v-121h-571z" />
<glyph unicode="o" horiz-adv-x="1229" d="M616 84q100 0 141 96t41 352t-40.5 351.5t-141.5 95.5q-102 0 -143.5 -96.5t-41.5 -350.5t41.5 -351t143.5 -97zM616 -29q-253 0 -396.5 149.5t-143.5 411.5q0 263 143.5 411.5t396.5 148.5t396.5 -148.5t143.5 -411.5q0 -262 -144 -411.5t-396 -149.5z" />
<glyph unicode="p" horiz-adv-x="1288" d="M498 584v-105q0 -186 42.5 -269t138.5 -83q98 0 138 88t40 317t-40 316.5t-138 87.5q-96 0 -138.5 -83t-42.5 -269zM179 942h-137v121h456v-135q40 83 108.5 123.5t169.5 40.5q204 0 321.5 -149.5t117.5 -410.5t-117.5 -411t-321.5 -150q-101 0 -169.5 40.5t-108.5 123.5 v-440h147v-121h-603v121h137v1247z" />
<glyph unicode="q" horiz-adv-x="1288" d="M1110 942v-1247h136v-121h-602v121h147v440q-40 -83 -109 -123.5t-170 -40.5q-203 0 -319.5 150t-116.5 411q0 262 116.5 411t319.5 149q101 0 170 -40.5t109 -123.5v135h455v-121h-136zM791 584q0 186 -43 269t-138 83q-99 0 -139 -87.5t-40 -316.5t40.5 -317t138.5 -88 q95 0 138 83t43 269v105z" />
<glyph unicode="r" horiz-adv-x="971" d="M990 1075v-317h-102q-5 85 -41 126.5t-105 41.5q-104 0 -164 -102t-60 -283v-420h173v-121h-628v121h136v821h-146v121h465v-189q46 111 123 164.5t189 53.5q28 0 68 -4.5t92 -12.5z" />
<glyph unicode="s" horiz-adv-x="1037" d="M86 31v297h102q13 -119 80.5 -181.5t183.5 -62.5q97 0 148.5 37.5t51.5 107.5q0 64 -32.5 99t-127.5 61l-131 37q-149 41 -215.5 117.5t-66.5 206.5q0 173 108 257.5t333 84.5q85 0 180.5 -15.5t212.5 -48.5v-268h-102q-8 109 -69.5 164t-177.5 55q-97 0 -147 -34.5 t-50 -100.5q0 -54 29 -85t104 -52l130 -37q188 -53 260 -131t72 -217q0 -180 -115.5 -265.5t-359.5 -85.5q-89 0 -189 15t-212 45z" />
<glyph unicode="t" horiz-adv-x="851" d="M183 942h-139v121h139v330h318v-330h266v-121h-266v-651q0 -139 20 -173t72 -34q58 0 85.5 43t29.5 133h134q-8 -160 -78.5 -224.5t-243.5 -64.5q-197 0 -267 68.5t-70 251.5v651z" />
<glyph unicode="u" horiz-adv-x="1340" d="M1141 1063v-942h136v-121h-455v150q-57 -95 -131 -137t-186 -42q-161 0 -243.5 105.5t-82.5 310.5v555h-137v121h456v-621q0 -198 29.5 -251.5t108.5 -53.5q97 0 141.5 79t44.5 251v475h-116v121h435z" />
<glyph unicode="v" horiz-adv-x="1071" d="M411 0l-339 942h-105v121h549v-121h-116l242 -672l241 672h-125v121h359v-121h-111l-339 -942h-256z" />
<glyph unicode="w" horiz-adv-x="1586" d="M994 1063l217 -709l180 588h-125v121h358v-121h-113l-289 -942h-219l-203 666l-204 -666h-218l-290 942h-104v121h542v-121h-113l177 -575l214 696h190z" />
<glyph unicode="x" horiz-adv-x="1098" d="M647 678l169 264h-118v121h373v-121h-127l-244 -379l285 -442h127v-121h-609v121h123l-180 280l-180 -280h128v-121h-394v121h137l254 397l-275 424h-107v121h584v-121h-116z" />
<glyph unicode="y" horiz-adv-x="1071" d="M575 -240q-43 -117 -104 -166t-165 -49q-44 0 -98 11t-118 32v222l102 -1q2 -77 32.5 -114t90.5 -37q59 0 95 35.5t72 134.5l14 37l-417 1077h-103v121h551v-121h-114l243 -629l227 629h-127v121h359v-121h-116z" />
<glyph unicode="z" horiz-adv-x="1046" d="M65 0v121l549 825h-413v-182h-107v299h891v-119l-550 -825h443v192h107v-311h-920z" />
<glyph unicode="{" horiz-adv-x="1185" d="M1020 -213v-121h-134q-212 0 -286 24.5t-118 86.5q-27 36 -38 91t-11 167v250q0 151 -48 208.5t-175 57.5h-55v121h55q127 0 175 57.5t48 208.5v250q0 112 11 166.5t38 91.5q44 61 118 85.5t286 24.5h134v-120h-93q-101 0 -138 -47t-37 -183v-270q0 -159 -44.5 -226.5 t-160.5 -97.5q118 -34 161.5 -100t43.5 -225v-271q0 -135 37 -182t138 -47h93z" />
<glyph unicode="|" horiz-adv-x="670" d="M431 1565v-2048h-193v2048h193z" />
<glyph unicode="}" horiz-adv-x="1185" d="M167 -213h91q100 0 137.5 47t37.5 182v271q0 157 44 224t163 101q-117 30 -162 98t-45 226v270q0 136 -37.5 183t-137.5 47h-91v120h132q212 0 286 -24.5t119 -85.5q26 -37 37 -91.5t11 -166.5v-250q0 -151 48.5 -208.5t174.5 -57.5h55v-121h-55q-126 0 -174.5 -57.5 t-48.5 -208.5v-250q0 -112 -11 -167t-37 -91q-45 -62 -119 -86.5t-286 -24.5h-132v121z" />
<glyph unicode="~" d="M1349 831v-206q-84 -86 -168 -127t-175 -41q-85 0 -222 58q-15 6 -23 9q-6 3 -18 8q-154 66 -242 66q-69 0 -144 -36t-162 -109v206q87 87 170 127.5t173 40.5q86 0 222 -57q16 -7 23 -10l13 -6q156 -68 247 -68q69 0 144.5 36t161.5 109z" />
<glyph unicode="&#xa1;" horiz-adv-x="809" d="M575 1329q0 -78 -50.5 -133t-120.5 -55q-71 0 -120.5 55t-49.5 133q0 79 50 135t120 56t120.5 -56.5t50.5 -134.5zM573 0h-337l105 842v190h125v-190z" />
<glyph unicode="&#xa2;" horiz-adv-x="1282" d="M665 94v875q-89 -25 -128 -125.5t-39 -311.5t38.5 -311t128.5 -127zM1110 332q-29 -157 -114 -246.5t-222 -108.5v-276h-109v270q-249 6 -385 152.5t-136 408.5t136 407.5t385 152.5v264h109v-269q53 -4 125.5 -23t178.5 -56v-295h-102q-13 126 -62.5 190.5t-139.5 75.5 v-891q82 16 129 77t57 167h150z" />
<glyph unicode="&#xa3;" horiz-adv-x="1282" d="M1122 1202h-108q-5 97 -49.5 151t-120.5 54q-105 0 -151 -74.5t-46 -249.5v-268h317v-121h-317v-557h378v228h123v-365h-1016v121h174v573h-174v121h174v277q0 216 120 322t367 106q58 0 139.5 -9t189.5 -26v-283z" />
<glyph unicode="&#xa4;" horiz-adv-x="1172" d="M588 422q82 0 139.5 63.5t57.5 155.5t-57.5 155.5t-139.5 63.5t-139.5 -63.5t-57.5 -155.5q0 -93 56.5 -156t140.5 -63zM392 268l-188 -207l-136 154l188 209q-27 46 -40.5 99.5t-13.5 117.5q0 63 14 117t40 100l-188 205l138 158l186 -211q44 30 92.5 44.5t103.5 14.5 q49 0 98 -14.5t101 -44.5l184 211l137 -154l-188 -205q27 -56 40 -111.5t13 -109.5q0 -63 -13 -115.5t-40 -99.5l188 -211l-140 -154l-187 211q-41 -30 -89 -44.5t-104 -14.5q-52 0 -101 14t-95 41z" />
<glyph unicode="&#xa5;" horiz-adv-x="1282" d="M293 0v121h171v346h-362v117h362v59l-54 135h-308v117h257l-201 477h-123v121h625v-121h-153l232 -551l230 551h-136v121h393v-121h-122l-199 -477h263v-117h-315l-47 -116v-78h362v-117h-362v-346h170v-121h-683z" />
<glyph unicode="&#xa6;" horiz-adv-x="670" d="M431 1432v-758h-193v758h193zM431 408v-758h-193v758h193z" />
<glyph unicode="&#xa7;" horiz-adv-x="963" d="M807 1475v-240h-107q-5 86 -52 129t-134 43q-73 0 -114 -37t-41 -104q0 -47 24.5 -80t105.5 -80l121 -72q170 -98 233.5 -182t63.5 -199q0 -104 -51 -178t-154 -117q75 -47 109.5 -110.5t34.5 -153.5q0 -137 -98 -213t-278 -76q-75 0 -156.5 11.5t-173.5 33.5v240h107 q7 -90 53.5 -131t142.5 -41q78 0 120 37t42 106q0 47 -24 80t-106 80l-121 72q-170 99 -233.5 183t-63.5 198q0 103 51.5 176t155.5 117q-75 46 -110.5 110.5t-35.5 153.5q0 136 98 212.5t274 76.5q67 0 145.5 -11.5t171.5 -33.5zM356 901q-40 -33 -61 -72t-21 -84 q0 -61 41 -112t140 -109l152 -88q40 35 61 74.5t21 81.5q0 60 -41.5 111t-142.5 110z" />
<glyph unicode="&#xa8;" horiz-adv-x="921" d="M127 1468q0 60 39.5 103t93.5 43t92.5 -43t38.5 -103t-39 -103.5t-92 -43.5q-54 0 -93.5 44t-39.5 103zM529 1468q0 60 39.5 103t93.5 43t93.5 -43t39.5 -103q0 -59 -39.5 -103t-93.5 -44t-93.5 44t-39.5 103z" />
<glyph unicode="&#xa9;" horiz-adv-x="1843" d="M922 1485q136 0 254.5 -55t216.5 -164t146.5 -240t48.5 -285q0 -152 -48.5 -282.5t-146.5 -239.5t-216.5 -164t-254.5 -55q-137 0 -255.5 55t-216.5 164t-146.5 239.5t-48.5 282.5q0 154 48.5 285t146.5 240t216.5 164t255.5 55zM922 1331q-109 0 -202.5 -43.5 t-172.5 -130.5q-77 -86 -116 -189.5t-39 -226.5q0 -122 39 -225.5t116 -189.5q78 -86 172 -129t203 -43q110 0 203 42.5t171 129.5q77 86 116 189.5t39 225.5q0 123 -39 226.5t-116 189.5q-79 88 -172.5 131t-201.5 43zM1252 580q-24 -139 -106.5 -209t-222.5 -70 q-169 0 -273.5 121t-104.5 319q0 202 105.5 322.5t281.5 120.5q72 0 144 -18.5t150 -57.5v-223h-95q-11 94 -58 147t-120 53q-93 0 -147 -91.5t-54 -252.5t53.5 -251.5t147.5 -90.5q66 0 110 46t65 135h124z" />
<glyph unicode="&#xaa;" horiz-adv-x="897" d="M102 639h718v-135h-718v135zM761 1212v-362h104v-94h-341v92q-46 -57 -104 -84t-135 -27q-110 0 -170 61t-60 175q0 128 85 191t258 63h126v28q0 90 -42.5 134.5t-127.5 44.5q-69 0 -108.5 -32.5t-48.5 -94.5h-86v166q65 23 134.5 35t145.5 12q192 0 281 -74t89 -234z M524 1001v132h-91q-65 0 -102.5 -37.5t-37.5 -102.5q0 -62 27.5 -95.5t79.5 -33.5q56 0 90 37t34 100z" />
<glyph unicode="&#xab;" horiz-adv-x="1152" d="M978 1069v-147l-215 -322l215 -321v-148l-422 385v168zM564 1069v-147l-216 -322l216 -321v-148l-422 385v168z" />
<glyph unicode="&#xac;" d="M195 903h1154v-616h-206v389h-948v227z" />
<glyph unicode="&#xad;" horiz-adv-x="765" d="M100 684h565v-270h-565v270z" />
<glyph unicode="&#xae;" horiz-adv-x="1843" d="M1049 754q35 -11 62 -37.5t45 -67.5l90 -215h54v-82h-201l-105 254q-29 68 -55.5 89.5t-76.5 21.5h-23v-283h77v-82h-332v82h78v643h-78v82h408q108 0 170 -55t62 -150q0 -89 -44.5 -140t-130.5 -60zM839 799h60q71 0 109.5 36t38.5 103t-38.5 103t-109.5 36h-60v-278z M922 1485q136 0 254.5 -55t216.5 -164t146.5 -240t48.5 -285q0 -152 -48.5 -282.5t-146.5 -239.5t-216.5 -164t-254.5 -55q-137 0 -255.5 55t-216.5 164t-146.5 239.5t-48.5 282.5q0 154 48.5 285t146.5 240t216.5 164t255.5 55zM922 1331q-109 0 -202.5 -43.5 t-172.5 -130.5q-77 -86 -116 -189.5t-39 -226.5q0 -122 39 -225.5t116 -189.5q78 -86 172 -129t203 -43q110 0 203 42.5t171 129.5q77 86 116 189.5t39 225.5q0 123 -39 226.5t-116 189.5q-79 88 -172.5 131t-201.5 43z" />
<glyph unicode="&#xaf;" horiz-adv-x="921" d="M177 1548h567v-188h-567v188z" />
<glyph unicode="&#xb0;" horiz-adv-x="921" d="M461 1534q59 0 114 -25.5t98 -72.5q43 -48 65 -108t22 -128q0 -67 -22 -127.5t-63 -105.5q-43 -48 -99 -73.5t-117 -25.5q-127 0 -213 95.5t-86 236.5t87 237.5t214 96.5zM461 1372q-65 0 -110 -50t-45 -122t44.5 -121t110.5 -49q65 0 110 49.5t45 120.5q0 72 -45.5 122 t-109.5 50z" />
<glyph unicode="&#xb1;" d="M195 227h1154v-227h-1154v227zM876 1284v-358h473v-228h-473v-358h-207v358h-474v228h474v358h207z" />
<glyph unicode="&#xb2;" horiz-adv-x="807" d="M169 1284h-84v195q64 20 132 30.5t140 10.5q163 0 253 -64t90 -178q0 -82 -49 -146.5t-190 -154.5l-220 -139h373v96h90v-250h-627v133l117 84q168 123 213 193t45 163q0 84 -37.5 131.5t-103.5 47.5q-56 0 -95.5 -41.5t-46.5 -110.5z" />
<glyph unicode="&#xb3;" horiz-adv-x="807" d="M100 1481q79 19 146 29t125 10q162 0 245.5 -52.5t83.5 -152.5q0 -72 -47 -119t-139 -63q108 -16 164 -71.5t56 -148.5q0 -122 -92 -183.5t-273 -61.5q-72 0 -144 10.5t-144 32.5v200h86q7 -80 45.5 -119.5t109.5 -39.5q79 0 121 43t42 125q0 80 -44 123.5t-126 43.5h-37 v84h28q73 0 112 34t39 98q0 63 -35 98t-100 35q-59 0 -95 -36.5t-41 -100.5l-86 -1v183z" />
<glyph unicode="&#xb4;" horiz-adv-x="921" d="M544 1638h251l-336 -376h-148z" />
<glyph unicode="&#xb5;" horiz-adv-x="1349" d="M1150 1063v-942h137v-121h-455v125q-50 -83 -99 -118.5t-116 -35.5q-27 0 -54 10t-56 31v-317h137v-121h-593v121h137v1247h-137v121h456v-596q0 -220 30.5 -275t109.5 -55q95 0 140 79.5t45 250.5v475h-118v121h436z" />
<glyph unicode="&#xb6;" horiz-adv-x="1172" d="M561 1493h499v-125h-102v-1565h-136v1565h-147v-1565h-137v846q-193 17 -299.5 127.5t-106.5 294.5q0 190 117 306t312 116z" />
<glyph unicode="&#xb7;" horiz-adv-x="641" d="M149 711q0 78 50.5 134t120.5 56q72 0 122 -56t50 -134t-50 -133.5t-122 -55.5q-70 0 -120.5 55.5t-50.5 133.5z" />
<glyph unicode="&#xb8;" horiz-adv-x="921" d="M535 0q55 -64 82 -118.5t27 -106.5q0 -86 -58.5 -131t-167.5 -45q-43 0 -88.5 6.5t-92.5 19.5l-1 156q40 -17 78.5 -26t70.5 -9q54 0 82.5 23.5t28.5 68.5q0 28 -15 61t-61 101h115z" />
<glyph unicode="&#xb9;" horiz-adv-x="807" d="M146 684v94h147v613l-164 -101v105l199 125h205v-742h147v-94h-534z" />
<glyph unicode="&#xba;" horiz-adv-x="921" d="M102 639h718v-135h-718v135zM461 823q68 0 98.5 71t30.5 234q0 164 -30.5 235t-98.5 71q-69 0 -99 -70t-30 -236q0 -165 30 -235t99 -70zM461 737q-191 0 -298.5 104t-107.5 287t107.5 287.5t298.5 104.5t298.5 -104.5t107.5 -287.5t-107.5 -287t-298.5 -104z" />
<glyph unicode="&#xbb;" horiz-adv-x="1152" d="M174 1069l422 -385v-168l-422 -385v148l215 321l-215 322v147zM588 1069l422 -385v-168l-422 -385v148l216 321l-216 322v147z" />
<glyph unicode="&#xbc;" horiz-adv-x="1922" d="M1839 16h-466v94h113v121h-327v88l341 533h227v-527h132v-94h-132v-121h112v-94zM1486 325v334l-216 -334h216zM146 684v94h147v613l-164 -101v105l199 125h205v-742h147v-94h-534zM1305 1520h153l-841 -1549h-153z" />
<glyph unicode="&#xbd;" horiz-adv-x="1922" d="M146 684v94h147v613l-164 -101v105l199 125h205v-742h147v-94h-534zM1305 1520h153l-841 -1549h-153zM1284 616h-84v195q64 20 132 30.5t140 10.5q163 0 253 -64t90 -178q0 -82 -49 -146.5t-190 -154.5l-220 -139h373v96h90v-250h-627v133l117 84q168 123 213 193t45 163 q0 84 -37.5 131.5t-103.5 47.5q-56 0 -95.5 -41.5t-46.5 -110.5z" />
<glyph unicode="&#xbe;" horiz-adv-x="1922" d="M1839 16h-466v94h113v121h-327v88l341 533h227v-527h132v-94h-132v-121h112v-94zM1486 325v334l-216 -334h216zM100 1481q79 19 146 29t125 10q162 0 245.5 -52.5t83.5 -152.5q0 -72 -47 -119t-139 -63q108 -16 164 -71.5t56 -148.5q0 -122 -92 -183.5t-273 -61.5 q-72 0 -144 10.5t-144 32.5v200h86q7 -80 45.5 -119.5t109.5 -39.5q79 0 121 43t42 125q0 80 -44 123.5t-126 43.5h-37v84h28q73 0 112 34t39 98q0 63 -35 98t-100 35q-59 0 -95 -36.5t-41 -100.5l-86 -1v183zM1305 1520h153l-841 -1549h-153z" />
<glyph unicode="&#xbf;" horiz-adv-x="1080" d="M772 1329q0 -78 -50.5 -133t-120.5 -55q-71 0 -120.5 55t-49.5 133q0 79 50 135t120 56t120.5 -56.5t50.5 -134.5zM960 39q-111 -34 -212 -51t-195 -17q-227 0 -348.5 110.5t-121.5 315.5q0 202 117.5 318.5t337.5 134.5v205h125v-299q-125 -43 -184 -135.5t-59 -245.5 q0 -145 55 -218t163 -73q98 0 151.5 66t62.5 196h108v-307z" />
<glyph unicode="&#xc0;" horiz-adv-x="1430" d="M-14 0v121h109l506 1372h215l507 -1372h128v-121h-629v121h131l-111 305h-504l-113 -305h160v-121h-399zM382 547h416l-207 571zM681 1899l164 -264h-148l-267 264h251z" />
<glyph unicode="&#xc1;" horiz-adv-x="1430" d="M-14 0v121h109l506 1372h215l507 -1372h128v-121h-629v121h131l-111 305h-504l-113 -305h160v-121h-399zM382 547h416l-207 571zM710 1899h251l-268 -264h-147z" />
<glyph unicode="&#xc2;" horiz-adv-x="1430" d="M-14 0v121h109l506 1372h215l507 -1372h128v-121h-629v121h131l-111 305h-504l-113 -305h160v-121h-399zM382 547h416l-207 571zM557 1899h277l200 -264h-147l-192 161l-191 -161h-148z" />
<glyph unicode="&#xc3;" horiz-adv-x="1430" d="M-14 0v121h109l506 1372h215l507 -1372h128v-121h-629v121h131l-111 305h-504l-113 -305h160v-121h-399zM382 547h416l-207 571zM373 1635v12q0 123 48.5 189.5t138.5 66.5q55 0 127 -39l12 -6l65 -33q25 -13 41 -17.5t32 -4.5q37 0 59 25t22 69v4h99v-15 q0 -122 -48 -187.5t-139 -65.5q-30 0 -60.5 9t-77.5 36l-52 28q-24 13 -47 20t-40 7q-37 0 -59 -25.5t-22 -68.5v-4h-99z" />
<glyph unicode="&#xc4;" horiz-adv-x="1430" d="M-14 0v121h109l506 1372h215l507 -1372h128v-121h-629v121h131l-111 305h-504l-113 -305h160v-121h-399zM382 547h416l-207 571zM361 1776q0 60 39.5 103.5t93.5 43.5t92.5 -43.5t38.5 -103.5t-38.5 -103t-92.5 -43t-93.5 43t-39.5 103zM764 1776q0 60 39 103.5t93 43.5 t93.5 -43.5t39.5 -103.5t-39.5 -103t-93.5 -43t-93 43t-39 103z" />
<glyph unicode="&#xc5;" horiz-adv-x="1430" d="M591 1616q0 -54 35.5 -92.5t82.5 -38.5q50 0 84.5 38.5t34.5 92.5t-35 92.5t-84 38.5q-47 0 -82.5 -38.5t-35.5 -92.5zM-14 0v121h109l467 1263q-52 37 -80 97.5t-28 134.5q0 117 75 201t180 84q106 0 181.5 -84t75.5 -201q0 -74 -27.5 -133t-81.5 -99l466 -1263h128 v-121h-629v121h131l-111 305h-504l-113 -305h160v-121h-399zM382 547h416l-205 571z" />
<glyph unicode="&#xc6;" horiz-adv-x="1906" d="M361 545h418v827h-67zM608 0v121h171v303h-469l-129 -303h147v-121h-385v121h103l533 1251h-181v121h1396v-352h-124v215h-542v-479h330v190h122v-516h-122v190h-330v-604h560v215h122v-352h-1202z" />
<glyph unicode="&#xc7;" horiz-adv-x="1467" d="M1373 426q-53 -231 -190.5 -343t-369.5 -112q-341 0 -538.5 208.5t-197.5 565.5q0 358 197.5 566.5t538.5 208.5q119 0 249 -32t274 -97v-367h-114q-35 188 -127.5 281.5t-244.5 93.5q-197 0 -292 -160.5t-95 -493.5t95 -493t293 -160q135 0 220 83t123 251h179zM865 0 q55 -64 82 -118.5t27 -106.5q0 -86 -58.5 -131t-167.5 -45q-43 0 -88.5 6.5t-92.5 19.5l-1 156q40 -17 78.5 -26t70.5 -9q54 0 82.5 23.5t28.5 68.5q0 28 -15 61t-61 101h115z" />
<glyph unicode="&#xc8;" horiz-adv-x="1404" d="M86 0v121h172v1251h-172v121h1208v-352h-124v215h-565v-479h352v190h123v-516h-123v190h-352v-604h582v215h123v-352h-1224zM719 1899l164 -264h-148l-267 264h251z" />
<glyph unicode="&#xc9;" horiz-adv-x="1404" d="M86 0v121h172v1251h-172v121h1208v-352h-124v215h-565v-479h352v190h123v-516h-123v190h-352v-604h582v215h123v-352h-1224zM748 1899h251l-268 -264h-147z" />
<glyph unicode="&#xca;" horiz-adv-x="1404" d="M86 0v121h172v1251h-172v121h1208v-352h-124v215h-565v-479h352v190h123v-516h-123v190h-352v-604h582v215h123v-352h-1224zM595 1899h277l200 -264h-147l-192 161l-191 -161h-148z" />
<glyph unicode="&#xcb;" horiz-adv-x="1404" d="M86 0v121h172v1251h-172v121h1208v-352h-124v215h-565v-479h352v190h123v-516h-123v190h-352v-604h582v215h123v-352h-1224zM399 1776q0 60 39.5 103.5t93.5 43.5t92.5 -43.5t38.5 -103.5t-38.5 -103t-92.5 -43t-93.5 43t-39.5 103zM802 1776q0 60 39 103.5t93 43.5 t93.5 -43.5t39.5 -103.5t-39.5 -103t-93.5 -43t-93 43t-39 103z" />
<glyph unicode="&#xcc;" horiz-adv-x="862" d="M86 0v121h172v1251h-172v121h692v-121h-173v-1251h173v-121h-692zM417 1899l164 -264h-148l-267 264h251z" />
<glyph unicode="&#xcd;" horiz-adv-x="862" d="M86 0v121h172v1251h-172v121h692v-121h-173v-1251h173v-121h-692zM446 1899h251l-268 -264h-147z" />
<glyph unicode="&#xce;" horiz-adv-x="862" d="M86 0v121h172v1251h-172v121h692v-121h-173v-1251h173v-121h-692zM293 1899h277l200 -264h-147l-192 161l-191 -161h-148z" />
<glyph unicode="&#xcf;" horiz-adv-x="862" d="M86 0v121h172v1251h-172v121h692v-121h-173v-1251h173v-121h-692zM97 1776q0 60 39.5 103.5t93.5 43.5t92.5 -43.5t38.5 -103.5t-38.5 -103t-92.5 -43t-93.5 43t-39.5 103zM500 1776q0 60 39 103.5t93 43.5t93.5 -43.5t39.5 -103.5t-39.5 -103t-93.5 -43t-93 43t-39 103z " />
<glyph unicode="&#xd0;" horiz-adv-x="1611" d="M617 121h125q211 0 308 149.5t97 477.5q0 326 -97 475t-308 149h-125v-522h299v-137h-299v-592zM98 0v121h173v592h-192v137h192v522h-173v121h691q360 0 551.5 -191.5t191.5 -553.5q0 -363 -191.5 -555.5t-551.5 -192.5h-691z" />
<glyph unicode="&#xd1;" horiz-adv-x="1684" d="M81 0v121h172v1251h-172v121h420l811 -1057v936h-171v121h470v-121h-172v-1372h-236l-823 1079v-958h171v-121h-470zM520 1635v12q0 123 48.5 189.5t138.5 66.5q55 0 127 -39l12 -6l65 -33q25 -13 41 -17.5t32 -4.5q37 0 59 25t22 69v4h99v-15q0 -122 -48 -187.5 t-139 -65.5q-30 0 -60.5 9t-77.5 36l-52 28q-24 13 -47 20t-40 7q-37 0 -59 -25.5t-22 -68.5v-4h-99z" />
<glyph unicode="&#xd2;" horiz-adv-x="1605" d="M802 92q172 0 255.5 161t83.5 492q0 332 -83.5 493t-255.5 161q-171 0 -255 -162.5t-84 -491.5q0 -328 84 -490.5t255 -162.5zM802 -29q-339 0 -532 206t-193 568t193.5 568.5t531.5 206.5q339 0 531.5 -206t192.5 -569q0 -362 -193 -568t-531 -206zM789 1899l164 -264 h-148l-267 264h251z" />
<glyph unicode="&#xd3;" horiz-adv-x="1605" d="M802 92q172 0 255.5 161t83.5 492q0 332 -83.5 493t-255.5 161q-171 0 -255 -162.5t-84 -491.5q0 -328 84 -490.5t255 -162.5zM802 -29q-339 0 -532 206t-193 568t193.5 568.5t531.5 206.5q339 0 531.5 -206t192.5 -569q0 -362 -193 -568t-531 -206zM818 1899h251 l-268 -264h-147z" />
<glyph unicode="&#xd4;" horiz-adv-x="1605" d="M802 92q172 0 255.5 161t83.5 492q0 332 -83.5 493t-255.5 161q-171 0 -255 -162.5t-84 -491.5q0 -328 84 -490.5t255 -162.5zM802 -29q-339 0 -532 206t-193 568t193.5 568.5t531.5 206.5q339 0 531.5 -206t192.5 -569q0 -362 -193 -568t-531 -206zM665 1899h277 l200 -264h-147l-192 161l-191 -161h-148z" />
<glyph unicode="&#xd5;" horiz-adv-x="1605" d="M802 92q172 0 255.5 161t83.5 492q0 332 -83.5 493t-255.5 161q-171 0 -255 -162.5t-84 -491.5q0 -328 84 -490.5t255 -162.5zM802 -29q-339 0 -532 206t-193 568t193.5 568.5t531.5 206.5q339 0 531.5 -206t192.5 -569q0 -362 -193 -568t-531 -206zM481 1635v12 q0 123 48.5 189.5t138.5 66.5q55 0 127 -39l12 -6l65 -33q25 -13 41 -17.5t32 -4.5q37 0 59 25t22 69v4h99v-15q0 -122 -48 -187.5t-139 -65.5q-30 0 -60.5 9t-77.5 36l-52 28q-24 13 -47 20t-40 7q-37 0 -59 -25.5t-22 -68.5v-4h-99z" />
<glyph unicode="&#xd6;" horiz-adv-x="1605" d="M802 92q172 0 255.5 161t83.5 492q0 332 -83.5 493t-255.5 161q-171 0 -255 -162.5t-84 -491.5q0 -328 84 -490.5t255 -162.5zM802 -29q-339 0 -532 206t-193 568t193.5 568.5t531.5 206.5q339 0 531.5 -206t192.5 -569q0 -362 -193 -568t-531 -206zM469 1776 q0 60 39.5 103.5t93.5 43.5t92.5 -43.5t38.5 -103.5t-38.5 -103t-92.5 -43t-93.5 43t-39.5 103zM872 1776q0 60 39 103.5t93 43.5t93.5 -43.5t39.5 -103.5t-39.5 -103t-93.5 -43t-93 43t-39 103z" />
<glyph unicode="&#xd7;" d="M1307 1081l-396 -440l396 -440l-139 -154l-396 440l-396 -440l-138 154l396 440l-396 440l138 156l396 -440l396 440z" />
<glyph unicode="&#xd8;" horiz-adv-x="1605" d="M482 479l609 678q-38 119 -111.5 180.5t-177.5 61.5q-171 0 -255 -162.5t-84 -491.5q0 -76 4.5 -142t14.5 -124zM514 334q40 -122 112 -182t176 -60q175 0 258 167t83 525q0 65 -5.5 115.5t-17.5 93.5zM1364 1280q81 -104 121.5 -237.5t40.5 -297.5q0 -362 -193 -568 t-531 -206q-142 0 -261.5 39t-214.5 117l-184 -205l-81 90l180 201q-82 102 -123 235.5t-41 296.5q0 362 193.5 568.5t531.5 206.5q144 0 263.5 -38.5t213.5 -115.5l183 203l81 -90z" />
<glyph unicode="&#xd9;" horiz-adv-x="1607" d="M234 1372h-171v121h691v-121h-172v-747q0 -279 78.5 -390.5t268.5 -111.5q185 0 263 112.5t78 389.5v747h-171v121h468v-121h-172v-768q0 -342 -133 -487.5t-448 -145.5q-312 0 -446 147t-134 488v766zM835 1899l164 -264h-148l-267 264h251z" />
<glyph unicode="&#xda;" horiz-adv-x="1607" d="M234 1372h-171v121h691v-121h-172v-747q0 -279 78.5 -390.5t268.5 -111.5q185 0 263 112.5t78 389.5v747h-171v121h468v-121h-172v-768q0 -342 -133 -487.5t-448 -145.5q-312 0 -446 147t-134 488v766zM864 1899h251l-268 -264h-147z" />
<glyph unicode="&#xdb;" horiz-adv-x="1607" d="M234 1372h-171v121h691v-121h-172v-747q0 -279 78.5 -390.5t268.5 -111.5q185 0 263 112.5t78 389.5v747h-171v121h468v-121h-172v-768q0 -342 -133 -487.5t-448 -145.5q-312 0 -446 147t-134 488v766zM711 1899h277l200 -264h-147l-192 161l-191 -161h-148z" />
<glyph unicode="&#xdc;" horiz-adv-x="1607" d="M234 1372h-171v121h691v-121h-172v-747q0 -279 78.5 -390.5t268.5 -111.5q185 0 263 112.5t78 389.5v747h-171v121h468v-121h-172v-768q0 -342 -133 -487.5t-448 -145.5q-312 0 -446 147t-134 488v766zM515 1776q0 60 39.5 103.5t93.5 43.5t92.5 -43.5t38.5 -103.5 t-38.5 -103t-92.5 -43t-93.5 43t-39.5 103zM918 1776q0 60 39 103.5t93 43.5t93.5 -43.5t39.5 -103.5t-39.5 -103t-93.5 -43t-93 43t-39 103z" />
<glyph unicode="&#xdd;" horiz-adv-x="1315" d="M317 0v121h181v497l-400 754h-114v121h644v-121h-149l302 -569l301 569h-134v121h385v-121h-114l-373 -702v-549h181v-121h-710zM673 1899h251l-268 -264h-147z" />
<glyph unicode="&#xde;" horiz-adv-x="1395" d="M86 0v121h172v1251h-172v121h734v-121h-215v-170h246q225 0 357 -118.5t132 -317.5t-132.5 -318.5t-356.5 -119.5h-246v-207h217v-121h-736zM605 449h101q117 0 186.5 86t69.5 231q0 144 -69 229.5t-187 85.5h-101v-632z" />
<glyph unicode="&#xdf;" horiz-adv-x="1400" d="M897 1221q-6 124 -49 173.5t-144 49.5q-98 0 -142 -59.5t-44 -194.5v-1190h-455v121h136v1026q0 201 126 305t368 104q237 0 358 -105.5t145 -334.5h-20q-139 0 -210.5 -45.5t-71.5 -134.5q0 -40 20.5 -73.5t95.5 -94.5l79 -63q159 -128 203 -207t44 -187 q0 -160 -112 -250t-313 -90q-72 0 -151 15t-169 45v258h109q12 -107 56 -156t129 -49q68 0 110.5 44t42.5 116q0 105 -148 222q-19 15 -29 23l-80 64q-92 74 -132.5 152.5t-40.5 183.5q0 134 72 216.5t217 115.5z" />
<glyph unicode="&#xe0;" horiz-adv-x="1194" d="M1015 653v-532h137v-121h-455v135q-63 -84 -140.5 -124t-176.5 -40q-147 0 -225.5 87.5t-78.5 250.5q0 179 113 268t340 89h168v63q0 129 -55 190.5t-170 61.5q-96 0 -147.5 -43.5t-73.5 -142.5h-102v229q86 34 177.5 51t193.5 17q257 0 376 -106t119 -333zM697 334v213 h-120q-89 0 -137 -54t-48 -155t35 -151t106 -50q74 0 119 54t45 143zM457 1638l232 -376h-147l-336 376h251z" />
<glyph unicode="&#xe1;" horiz-adv-x="1194" d="M1015 653v-532h137v-121h-455v135q-63 -84 -140.5 -124t-176.5 -40q-147 0 -225.5 87.5t-78.5 250.5q0 179 113 268t340 89h168v63q0 129 -55 190.5t-170 61.5q-96 0 -147.5 -43.5t-73.5 -142.5h-102v229q86 34 177.5 51t193.5 17q257 0 376 -106t119 -333zM697 334v213 h-120q-89 0 -137 -54t-48 -155t35 -151t106 -50q74 0 119 54t45 143zM623 1638h251l-336 -376h-148z" />
<glyph unicode="&#xe2;" horiz-adv-x="1194" d="M1015 653v-532h137v-121h-455v135q-63 -84 -140.5 -124t-176.5 -40q-147 0 -225.5 87.5t-78.5 250.5q0 179 113 268t340 89h168v63q0 129 -55 190.5t-170 61.5q-96 0 -147.5 -43.5t-73.5 -142.5h-102v229q86 34 177.5 51t193.5 17q257 0 376 -106t119 -333zM697 334v213 h-120q-89 0 -137 -54t-48 -155t35 -151t106 -50q74 0 119 54t45 143zM431 1638h218l230 -376h-148l-191 225l-192 -225h-147z" />
<glyph unicode="&#xe3;" horiz-adv-x="1194" d="M1015 653v-532h137v-121h-455v135q-63 -84 -140.5 -124t-176.5 -40q-147 0 -225.5 87.5t-78.5 250.5q0 179 113 268t340 89h168v63q0 129 -55 190.5t-170 61.5q-96 0 -147.5 -43.5t-73.5 -142.5h-102v229q86 34 177.5 51t193.5 17q257 0 376 -106t119 -333zM697 334v213 h-120q-89 0 -137 -54t-48 -155t35 -151t106 -50q74 0 119 54t45 143zM218 1309v16q0 146 47.5 221.5t139.5 75.5q33 0 65 -12.5t73 -42.5l64 -47l3 -2q40 -29 72 -29q37 0 59 35t22 96h99v-16q0 -146 -47.5 -221.5t-139.5 -75.5q-34 0 -65.5 12.5t-73.5 42.5l-65 47v1 q-41 30 -73 30q-37 0 -59 -35t-22 -96h-99z" />
<glyph unicode="&#xe4;" horiz-adv-x="1194" d="M1015 653v-532h137v-121h-455v135q-63 -84 -140.5 -124t-176.5 -40q-147 0 -225.5 87.5t-78.5 250.5q0 179 113 268t340 89h168v63q0 129 -55 190.5t-170 61.5q-96 0 -147.5 -43.5t-73.5 -142.5h-102v229q86 34 177.5 51t193.5 17q257 0 376 -106t119 -333zM697 334v213 h-120q-89 0 -137 -54t-48 -155t35 -151t106 -50q74 0 119 54t45 143zM206 1468q0 60 39.5 103t93.5 43t92.5 -43t38.5 -103t-39 -103.5t-92 -43.5q-54 0 -93.5 44t-39.5 103zM608 1468q0 60 39.5 103t93.5 43t93.5 -43t39.5 -103q0 -59 -39.5 -103t-93.5 -44t-93.5 44 t-39.5 103z" />
<glyph unicode="&#xe5;" horiz-adv-x="1194" d="M1015 653v-532h137v-121h-455v135q-63 -84 -140.5 -124t-176.5 -40q-147 0 -225.5 87.5t-78.5 250.5q0 179 113 268t340 89h168v63q0 129 -55 190.5t-170 61.5q-96 0 -147.5 -43.5t-73.5 -142.5h-102v229q86 34 177.5 51t193.5 17q257 0 376 -106t119 -333zM697 334v213 h-120q-89 0 -137 -54t-48 -155t35 -151t106 -50q74 0 119 54t45 143zM283 1534q0 118 75.5 201.5t181.5 83.5t181 -83.5t75 -201.5t-75 -201.5t-181 -83.5t-181.5 83.5t-75.5 201.5zM422 1534q0 -55 34.5 -93t83.5 -38t83.5 38.5t34.5 92.5t-35 92.5t-83 38.5 q-50 0 -84 -38.5t-34 -92.5z" />
<glyph unicode="&#xe6;" horiz-adv-x="1797" d="M1362 600q0 210 -35 294.5t-120 84.5q-82 0 -117.5 -83t-35.5 -278v-18h308zM878 936q69 78 152 117t183 39q237 0 364 -155t135 -456h-658v-8q0 -206 56 -297.5t181 -91.5q102 0 165 60.5t81 177.5h151q-38 -181 -153 -266t-322 -85q-120 0 -214 38.5t-164 117.5 q-80 -78 -175 -117t-206 -39q-186 0 -282 86.5t-96 251.5q0 180 114.5 268.5t347.5 88.5h168v63q0 116 -63.5 183t-174.5 67q-93 0 -144 -43.5t-73 -140.5h-102v229q86 34 177.5 51t193.5 17q124 0 212 -38.5t146 -117.5zM706 330v217h-120q-98 0 -146 -55t-48 -168t36 -161 t116 -48q77 0 119.5 56t42.5 159z" />
<glyph unicode="&#xe7;" horiz-adv-x="1122" d="M1040 332q-35 -182 -140.5 -271.5t-287.5 -89.5q-256 0 -396 147t-140 414q0 264 138.5 412t384.5 148q100 0 202 -21t207 -63v-295h-101q-14 135 -71 200.5t-159 65.5q-133 0 -189.5 -100t-56.5 -347q0 -241 55 -344.5t179 -103.5q96 0 154.5 64t70.5 184h150zM660 0 q55 -64 82 -118.5t27 -106.5q0 -86 -58.5 -131t-167.5 -45q-43 0 -88.5 6.5t-92.5 19.5l-1 156q40 -17 78.5 -26t70.5 -9q54 0 82.5 23.5t28.5 68.5q0 28 -15 61t-61 101h115z" />
<glyph unicode="&#xe8;" horiz-adv-x="1172" d="M739 600q0 210 -35 294.5t-120 84.5q-82 0 -117.5 -83t-35.5 -278v-18h308zM1089 481h-658v-8q0 -206 56 -297.5t180 -91.5q103 0 167 61t82 177h150q-39 -181 -154.5 -266t-321.5 -85q-249 0 -381.5 145.5t-132.5 415.5q0 264 135.5 412t378.5 148q237 0 364 -155.5 t135 -455.5zM503 1638l232 -376h-147l-336 376h251z" />
<glyph unicode="&#xe9;" horiz-adv-x="1172" d="M739 600q0 210 -35 294.5t-120 84.5q-82 0 -117.5 -83t-35.5 -278v-18h308zM1089 481h-658v-8q0 -206 56 -297.5t180 -91.5q103 0 167 61t82 177h150q-39 -181 -154.5 -266t-321.5 -85q-249 0 -381.5 145.5t-132.5 415.5q0 264 135.5 412t378.5 148q237 0 364 -155.5 t135 -455.5zM669 1638h251l-336 -376h-148z" />
<glyph unicode="&#xea;" horiz-adv-x="1172" d="M739 600q0 210 -35 294.5t-120 84.5q-82 0 -117.5 -83t-35.5 -278v-18h308zM1089 481h-658v-8q0 -206 56 -297.5t180 -91.5q103 0 167 61t82 177h150q-39 -181 -154.5 -266t-321.5 -85q-249 0 -381.5 145.5t-132.5 415.5q0 264 135.5 412t378.5 148q237 0 364 -155.5 t135 -455.5zM477 1638h218l230 -376h-148l-191 225l-192 -225h-147z" />
<glyph unicode="&#xeb;" horiz-adv-x="1172" d="M739 600q0 210 -35 294.5t-120 84.5q-82 0 -117.5 -83t-35.5 -278v-18h308zM1089 481h-658v-8q0 -206 56 -297.5t180 -91.5q103 0 167 61t82 177h150q-39 -181 -154.5 -266t-321.5 -85q-249 0 -381.5 145.5t-132.5 415.5q0 264 135.5 412t378.5 148q237 0 364 -155.5 t135 -455.5zM252 1468q0 60 39.5 103t93.5 43t92.5 -43t38.5 -103t-39 -103.5t-92 -43.5q-54 0 -93.5 44t-39.5 103zM654 1468q0 60 39.5 103t93.5 43t93.5 -43t39.5 -103q0 -59 -39.5 -103t-93.5 -44t-93.5 44t-39.5 103z" />
<glyph unicode="&#xec;" horiz-adv-x="700" d="M518 121h136v-121h-591v121h136v821h-136v121h455v-942zM267 1638l232 -376h-147l-336 376h251z" />
<glyph unicode="&#xed;" horiz-adv-x="700" d="M518 121h136v-121h-591v121h136v821h-136v121h455v-942zM433 1638h251l-336 -376h-148z" />
<glyph unicode="&#xee;" horiz-adv-x="700" d="M518 121h136v-121h-591v121h136v821h-136v121h455v-942zM241 1638h218l230 -376h-148l-191 225l-192 -225h-147z" />
<glyph unicode="&#xef;" horiz-adv-x="700" d="M518 121h136v-121h-591v121h136v821h-136v121h455v-942zM16 1468q0 60 39.5 103t93.5 43t92.5 -43t38.5 -103t-39 -103.5t-92 -43.5q-54 0 -93.5 44t-39.5 103zM418 1468q0 60 39.5 103t93.5 43t93.5 -43t39.5 -103q0 -59 -39.5 -103t-93.5 -44t-93.5 44t-39.5 103z" />
<glyph unicode="&#xf0;" horiz-adv-x="1229" d="M806 1337q169 -149 259.5 -350.5t90.5 -429.5q0 -275 -143.5 -430.5t-396.5 -155.5q-248 0 -394 146.5t-146 390.5q0 230 143.5 381t362.5 151q38 0 77 -6t78 -18q-19 63 -48 118t-72 107l-287 -149l-45 100l251 131q-46 38 -115 69t-159 54l25 110q126 -17 231.5 -53.5 t187.5 -91.5l297 154l42 -103zM754 891q-42 19 -76 28t-62 9q-100 0 -142.5 -95.5t-42.5 -324.5q0 -234 42.5 -329t142.5 -95t141 94t41 330q0 107 -11 202.5t-33 180.5z" />
<glyph unicode="&#xf1;" horiz-adv-x="1340" d="M63 0v121h136v821h-136v121h455v-150q57 95 131 137t186 42q161 0 243.5 -105.5t82.5 -310.5v-555h137v-121h-572v121h116v565q0 135 -31 187.5t-107 52.5q-96 0 -141 -78.5t-45 -249.5v-477h116v-121h-571zM333 1309v16q0 146 47.5 221.5t139.5 75.5q33 0 65 -12.5 t73 -42.5l64 -47l3 -2q40 -29 72 -29q37 0 59 35t22 96h99v-16q0 -146 -47.5 -221.5t-139.5 -75.5q-34 0 -65.5 12.5t-73.5 42.5l-65 47v1q-41 30 -73 30q-37 0 -59 -35t-22 -96h-99z" />
<glyph unicode="&#xf2;" horiz-adv-x="1229" d="M616 84q100 0 141 96t41 352t-40.5 351.5t-141.5 95.5q-102 0 -143.5 -96.5t-41.5 -350.5t41.5 -351t143.5 -97zM616 -29q-253 0 -396.5 149.5t-143.5 411.5q0 263 143.5 411.5t396.5 148.5t396.5 -148.5t143.5 -411.5q0 -262 -144 -411.5t-396 -149.5zM533 1638 l232 -376h-147l-336 376h251z" />
<glyph unicode="&#xf3;" horiz-adv-x="1229" d="M616 84q100 0 141 96t41 352t-40.5 351.5t-141.5 95.5q-102 0 -143.5 -96.5t-41.5 -350.5t41.5 -351t143.5 -97zM616 -29q-253 0 -396.5 149.5t-143.5 411.5q0 263 143.5 411.5t396.5 148.5t396.5 -148.5t143.5 -411.5q0 -262 -144 -411.5t-396 -149.5zM699 1638h251 l-336 -376h-148z" />
<glyph unicode="&#xf4;" horiz-adv-x="1229" d="M616 84q100 0 141 96t41 352t-40.5 351.5t-141.5 95.5q-102 0 -143.5 -96.5t-41.5 -350.5t41.5 -351t143.5 -97zM616 -29q-253 0 -396.5 149.5t-143.5 411.5q0 263 143.5 411.5t396.5 148.5t396.5 -148.5t143.5 -411.5q0 -262 -144 -411.5t-396 -149.5zM507 1638h218 l230 -376h-148l-191 225l-192 -225h-147z" />
<glyph unicode="&#xf5;" horiz-adv-x="1229" d="M616 84q100 0 141 96t41 352t-40.5 351.5t-141.5 95.5q-102 0 -143.5 -96.5t-41.5 -350.5t41.5 -351t143.5 -97zM616 -29q-253 0 -396.5 149.5t-143.5 411.5q0 263 143.5 411.5t396.5 148.5t396.5 -148.5t143.5 -411.5q0 -262 -144 -411.5t-396 -149.5zM294 1309v16 q0 146 47.5 221.5t139.5 75.5q33 0 65 -12.5t73 -42.5l64 -47l3 -2q40 -29 72 -29q37 0 59 35t22 96h99v-16q0 -146 -47.5 -221.5t-139.5 -75.5q-34 0 -65.5 12.5t-73.5 42.5l-65 47v1q-41 30 -73 30q-37 0 -59 -35t-22 -96h-99z" />
<glyph unicode="&#xf6;" horiz-adv-x="1229" d="M616 84q100 0 141 96t41 352t-40.5 351.5t-141.5 95.5q-102 0 -143.5 -96.5t-41.5 -350.5t41.5 -351t143.5 -97zM616 -29q-253 0 -396.5 149.5t-143.5 411.5q0 263 143.5 411.5t396.5 148.5t396.5 -148.5t143.5 -411.5q0 -262 -144 -411.5t-396 -149.5zM282 1468 q0 60 39.5 103t93.5 43t92.5 -43t38.5 -103t-39 -103.5t-92 -43.5q-54 0 -93.5 44t-39.5 103zM684 1468q0 60 39.5 103t93.5 43t93.5 -43t39.5 -103q0 -59 -39.5 -103t-93.5 -44t-93.5 44t-39.5 103z" />
<glyph unicode="&#xf7;" d="M638 1012q0 61 39.5 105t94.5 44q56 0 95.5 -44t39.5 -105q0 -62 -39.5 -106t-95.5 -44q-55 0 -94.5 44t-39.5 106zM638 272q0 62 39.5 106t94.5 44q56 0 95.5 -44t39.5 -106q0 -61 -39.5 -105t-95.5 -44q-55 0 -94.5 44t-39.5 105zM195 756h1154v-228h-1154v228z" />
<glyph unicode="&#xf8;" horiz-adv-x="1229" d="M433 416l348 385q-15 90 -55.5 134t-109.5 44q-99 0 -141 -95.5t-42 -330.5v-137zM450 262q14 -89 55 -133.5t111 -44.5q98 0 139 94t41 330v141zM1036 913q59 -72 89.5 -167.5t30.5 -213.5q0 -262 -144 -411.5t-396 -149.5q-100 0 -184 24.5t-156 74.5l-154 -172l-76 86 l148 163q-59 75 -88.5 171.5t-29.5 213.5q0 263 143.5 411.5t396.5 148.5q104 0 189 -25t150 -74l151 168l78 -86z" />
<glyph unicode="&#xf9;" horiz-adv-x="1340" d="M1141 1063v-942h136v-121h-455v150q-57 -95 -131 -137t-186 -42q-161 0 -243.5 105.5t-82.5 310.5v555h-137v121h456v-621q0 -198 29.5 -251.5t108.5 -53.5q97 0 141.5 79t44.5 251v475h-116v121h435zM554 1638l232 -376h-147l-336 376h251z" />
<glyph unicode="&#xfa;" horiz-adv-x="1340" d="M1141 1063v-942h136v-121h-455v150q-57 -95 -131 -137t-186 -42q-161 0 -243.5 105.5t-82.5 310.5v555h-137v121h456v-621q0 -198 29.5 -251.5t108.5 -53.5q97 0 141.5 79t44.5 251v475h-116v121h435zM720 1638h251l-336 -376h-148z" />
<glyph unicode="&#xfb;" horiz-adv-x="1340" d="M1141 1063v-942h136v-121h-455v150q-57 -95 -131 -137t-186 -42q-161 0 -243.5 105.5t-82.5 310.5v555h-137v121h456v-621q0 -198 29.5 -251.5t108.5 -53.5q97 0 141.5 79t44.5 251v475h-116v121h435zM528 1638h218l230 -376h-148l-191 225l-192 -225h-147z" />
<glyph unicode="&#xfc;" horiz-adv-x="1340" d="M1141 1063v-942h136v-121h-455v150q-57 -95 -131 -137t-186 -42q-161 0 -243.5 105.5t-82.5 310.5v555h-137v121h456v-621q0 -198 29.5 -251.5t108.5 -53.5q97 0 141.5 79t44.5 251v475h-116v121h435zM303 1468q0 60 39.5 103t93.5 43t92.5 -43t38.5 -103t-39 -103.5 t-92 -43.5q-54 0 -93.5 44t-39.5 103zM705 1468q0 60 39.5 103t93.5 43t93.5 -43t39.5 -103q0 -59 -39.5 -103t-93.5 -44t-93.5 44t-39.5 103z" />
<glyph unicode="&#xfd;" horiz-adv-x="1071" d="M575 -240q-43 -117 -104 -166t-165 -49q-44 0 -98 11t-118 32v222l102 -1q2 -77 32.5 -114t90.5 -37q59 0 95 35.5t72 134.5l14 37l-417 1077h-103v121h551v-121h-114l243 -629l227 629h-127v121h359v-121h-116zM620 1638h251l-336 -376h-148z" />
<glyph unicode="&#xfe;" horiz-adv-x="1288" d="M498 584v-105q0 -186 42.5 -269t138.5 -83q98 0 138 88t40 317t-40 316.5t-138 87.5q-96 0 -138.5 -83t-42.5 -269zM179 1436h-137v120h456v-628q40 83 108.5 123.5t169.5 40.5q204 0 321.5 -149.5t117.5 -410.5t-117.5 -411t-321.5 -150q-101 0 -169.5 40.5 t-108.5 123.5v-440h147v-121h-603v121h137v1741z" />
<glyph unicode="&#xff;" horiz-adv-x="1071" d="M575 -240q-43 -117 -104 -166t-165 -49q-44 0 -98 11t-118 32v222l102 -1q2 -77 32.5 -114t90.5 -37q59 0 95 35.5t72 134.5l14 37l-417 1077h-103v121h551v-121h-114l243 -629l227 629h-127v121h359v-121h-116zM203 1468q0 60 39.5 103t93.5 43t92.5 -43t38.5 -103 t-39 -103.5t-92 -43.5q-54 0 -93.5 44t-39.5 103zM605 1468q0 60 39.5 103t93.5 43t93.5 -43t39.5 -103q0 -59 -39.5 -103t-93.5 -44t-93.5 44t-39.5 103z" />
<glyph unicode="&#x100;" horiz-adv-x="1430" d="M425 1872h567v-188h-567v188zM-14 0v121h109l506 1372h215l507 -1372h128v-121h-629v121h131l-111 305h-504l-113 -305h160v-121h-399zM382 547h416l-207 571z" />
<glyph unicode="&#x101;" horiz-adv-x="1194" d="M236 1562h567v-188h-567v188zM1015 653v-532h137v-121h-455v135q-63 -84 -140.5 -124t-176.5 -40q-147 0 -225.5 87.5t-78.5 250.5q0 179 113 268t340 89h168v63q0 129 -55 190.5t-170 61.5q-96 0 -147.5 -43.5t-73.5 -142.5h-102v229q86 34 177.5 51t193.5 17 q257 0 376 -106t119 -333zM697 334v213h-120q-89 0 -137 -54t-48 -155t35 -151t106 -50q74 0 119 54t45 143z" />
<glyph unicode="&#x102;" horiz-adv-x="1430" d="M398 1917h113q5 -73 55.5 -112t139.5 -39t139.5 39t55.5 112h113q0 -146 -81.5 -228.5t-226.5 -82.5q-147 0 -226.5 81t-81.5 230zM-14 0v121h109l506 1372h215l507 -1372h128v-121h-629v121h131l-111 305h-504l-113 -305h160v-121h-399zM382 547h416l-207 571z" />
<glyph unicode="&#x103;" horiz-adv-x="1194" d="M260 1589h113q5 -73 55.5 -112t139.5 -39t139.5 39t55.5 112h113q0 -146 -81.5 -228.5t-226.5 -82.5q-147 0 -226.5 81t-81.5 230zM1015 653v-532h137v-121h-455v135q-63 -84 -140.5 -124t-176.5 -40q-147 0 -225.5 87.5t-78.5 250.5q0 179 113 268t340 89h168v63 q0 129 -55 190.5t-170 61.5q-96 0 -147.5 -43.5t-73.5 -142.5h-102v229q86 34 177.5 51t193.5 17q257 0 376 -106t119 -333zM697 334v213h-120q-89 0 -137 -54t-48 -155t35 -151t106 -50q74 0 119 54t45 143z" />
<glyph unicode="&#x104;" horiz-adv-x="1430" d="M828 0h112q-44 -65 -61.5 -102t-17.5 -66q0 -41 25.5 -63.5t72.5 -22.5q35 0 71.5 8t70.5 23l-1 -156q-48 -11 -91.5 -16.5t-80.5 -5.5q-102 0 -158.5 46t-56.5 130q0 52 28 106.5t87 118.5zM-14 0v121h109l506 1372h215l507 -1372h128v-121h-629v121h131l-111 305h-504 l-113 -305h160v-121h-399zM382 547h416l-207 571z" />
<glyph unicode="&#x105;" horiz-adv-x="1194" d="M702 0h112q-44 -65 -61.5 -102t-17.5 -66q0 -41 25.5 -63.5t72.5 -22.5q35 0 71.5 8t70.5 23l-1 -156q-48 -11 -91.5 -16.5t-80.5 -5.5q-102 0 -158.5 46t-56.5 130q0 52 28 106.5t87 118.5zM1015 653v-532h137v-121h-455v135q-63 -84 -140.5 -124t-176.5 -40 q-147 0 -225.5 87.5t-78.5 250.5q0 179 113 268t340 89h168v63q0 129 -55 190.5t-170 61.5q-96 0 -147.5 -43.5t-73.5 -142.5h-102v229q86 34 177.5 51t193.5 17q257 0 376 -106t119 -333zM697 334v213h-120q-89 0 -137 -54t-48 -155t35 -151t106 -50q74 0 119 54t45 143z " />
<glyph unicode="&#x106;" horiz-adv-x="1467" d="M1373 426q-53 -231 -190.5 -343t-369.5 -112q-341 0 -538.5 208.5t-197.5 565.5q0 358 197.5 566.5t538.5 208.5q119 0 249 -32t274 -97v-367h-114q-35 188 -127.5 281.5t-244.5 93.5q-197 0 -292 -160.5t-95 -493.5t95 -493t293 -160q135 0 220 83t123 251h179z M815 1899h251l-268 -264h-147z" />
<glyph unicode="&#x107;" horiz-adv-x="1122" d="M1040 332q-35 -182 -140.5 -271.5t-287.5 -89.5q-256 0 -396 147t-140 414q0 264 138.5 412t384.5 148q100 0 202 -21t207 -63v-295h-101q-14 135 -71 200.5t-159 65.5q-133 0 -189.5 -100t-56.5 -347q0 -241 55 -344.5t179 -103.5q96 0 154.5 64t70.5 184h150zM681 1638 h251l-336 -376h-148z" />
<glyph unicode="&#x108;" horiz-adv-x="1467" d="M662 1899h277l200 -264h-147l-192 161l-191 -161h-148zM1373 426q-53 -231 -190.5 -343t-369.5 -112q-341 0 -538.5 208.5t-197.5 565.5q0 358 197.5 566.5t538.5 208.5q119 0 249 -32t274 -97v-367h-114q-35 188 -127.5 281.5t-244.5 93.5q-197 0 -292 -160.5 t-95 -493.5t95 -493t293 -160q135 0 220 83t123 251h179z" />
<glyph unicode="&#x109;" horiz-adv-x="1122" d="M489 1638h218l230 -376h-148l-191 225l-192 -225h-147zM1040 332q-35 -182 -140.5 -271.5t-287.5 -89.5q-256 0 -396 147t-140 414q0 264 138.5 412t384.5 148q100 0 202 -21t207 -63v-295h-101q-14 135 -71 200.5t-159 65.5q-133 0 -189.5 -100t-56.5 -347 q0 -241 55 -344.5t179 -103.5q96 0 154.5 64t70.5 184h150z" />
<glyph unicode="&#x10a;" horiz-adv-x="1467" d="M668 1776q0 60 39 103.5t93 43.5t93.5 -43.5t39.5 -103.5t-39.5 -103t-93.5 -43t-93 43t-39 103zM1373 426q-53 -231 -190.5 -343t-369.5 -112q-341 0 -538.5 208.5t-197.5 565.5q0 358 197.5 566.5t538.5 208.5q119 0 249 -32t274 -97v-367h-114q-35 188 -127.5 281.5 t-244.5 93.5q-197 0 -292 -160.5t-95 -493.5t95 -493t293 -160q135 0 220 83t123 251h179z" />
<glyph unicode="&#x10b;" horiz-adv-x="1122" d="M465 1468q0 60 39.5 103t93.5 43t93 -43t39 -103q0 -59 -39 -103t-93 -44t-93.5 44t-39.5 103zM1040 332q-35 -182 -140.5 -271.5t-287.5 -89.5q-256 0 -396 147t-140 414q0 264 138.5 412t384.5 148q100 0 202 -21t207 -63v-295h-101q-14 135 -71 200.5t-159 65.5 q-133 0 -189.5 -100t-56.5 -347q0 -241 55 -344.5t179 -103.5q96 0 154.5 64t70.5 184h150z" />
<glyph unicode="&#x10c;" horiz-adv-x="1467" d="M1373 426q-53 -231 -190.5 -343t-369.5 -112q-341 0 -538.5 208.5t-197.5 565.5q0 358 197.5 566.5t538.5 208.5q119 0 249 -32t274 -97v-367h-114q-35 188 -127.5 281.5t-244.5 93.5q-197 0 -292 -160.5t-95 -493.5t95 -493t293 -160q135 0 220 83t123 251h179z M662 1635l-201 264h148l191 -162l192 162h147l-200 -264h-277z" />
<glyph unicode="&#x10d;" horiz-adv-x="1122" d="M1040 332q-35 -182 -140.5 -271.5t-287.5 -89.5q-256 0 -396 147t-140 414q0 264 138.5 412t384.5 148q100 0 202 -21t207 -63v-295h-101q-14 135 -71 200.5t-159 65.5q-133 0 -189.5 -100t-56.5 -347q0 -241 55 -344.5t179 -103.5q96 0 154.5 64t70.5 184h150zM489 1262 l-230 376h147l192 -227l191 227h148l-230 -376h-218z" />
<glyph unicode="&#x10e;" horiz-adv-x="1598" d="M605 121h125q210 0 308 150t98 477q0 325 -97.5 474.5t-308.5 149.5h-125v-1251zM86 0v121h172v1251h-172v121h690q362 0 553.5 -192t191.5 -553q0 -363 -192 -555.5t-553 -192.5h-690zM640 1635l-201 264h148l191 -162l192 162h147l-200 -264h-277z" />
<glyph unicode="&#x10f;" horiz-adv-x="1288" d="M791 479v105q0 186 -43 269t-138 83q-99 0 -139 -87.5t-40 -316.5t40.5 -317t138.5 -88q95 0 138 83t43 269zM1110 121h136v-121h-455v135q-40 -83 -109 -123.5t-170 -40.5q-203 0 -319.5 150t-116.5 411q0 262 116.5 411t319.5 149q101 0 170 -40.5t109 -123.5v508h-137 v120h456v-1435zM1320 1554h251l-166 -376h-147z" />
<glyph unicode="&#x110;" horiz-adv-x="1611" d="M617 121h125q211 0 308 149.5t97 477.5q0 326 -97 475t-308 149h-125v-522h299v-137h-299v-592zM98 0v121h173v592h-192v137h192v522h-173v121h691q360 0 551.5 -191.5t191.5 -553.5q0 -363 -191.5 -555.5t-551.5 -192.5h-691z" />
<glyph unicode="&#x111;" horiz-adv-x="1288" d="M791 479v105q0 186 -43 269t-138 83q-99 0 -139 -87.5t-40 -316.5t40.5 -317t138.5 -88q95 0 138 83t43 269zM1110 121h136v-121h-455v135q-40 -83 -109 -123.5t-170 -40.5q-203 0 -319.5 150t-116.5 411q0 262 116.5 411t319.5 149q101 0 170 -40.5t109 -123.5v295h-291 v120h291v93h-137v120h456v-213h154v-120h-154v-1102z" />
<glyph unicode="&#x112;" horiz-adv-x="1404" d="M407 1872h567v-188h-567v188zM86 0v121h172v1251h-172v121h1208v-352h-124v215h-565v-479h352v190h123v-516h-123v190h-352v-604h582v215h123v-352h-1224z" />
<glyph unicode="&#x113;" horiz-adv-x="1172" d="M306 1562h567v-188h-567v188zM739 600q0 210 -35 294.5t-120 84.5q-82 0 -117.5 -83t-35.5 -278v-18h308zM1089 481h-658v-8q0 -206 56 -297.5t180 -91.5q103 0 167 61t82 177h150q-39 -181 -154.5 -266t-321.5 -85q-249 0 -381.5 145.5t-132.5 415.5q0 264 135.5 412 t378.5 148q237 0 364 -155.5t135 -455.5z" />
<glyph unicode="&#x114;" horiz-adv-x="1404" d="M427 1899h111q20 -55 70 -84t125 -29q76 0 126.5 29.5t68.5 83.5h111q-25 -131 -102 -197.5t-204 -66.5q-129 0 -205 65t-101 199zM86 0v121h172v1251h-172v121h1208v-352h-124v215h-565v-479h352v190h123v-516h-123v190h-352v-604h582v215h123v-352h-1224z" />
<glyph unicode="&#x115;" horiz-adv-x="1172" d="M278 1589h113q5 -73 55.5 -112t139.5 -39t139.5 39t55.5 112h113q0 -146 -81.5 -228.5t-226.5 -82.5q-147 0 -226.5 81t-81.5 230zM739 600q0 210 -35 294.5t-120 84.5q-82 0 -117.5 -83t-35.5 -278v-18h308zM1089 481h-658v-8q0 -206 56 -297.5t180 -91.5q103 0 167 61 t82 177h150q-39 -181 -154.5 -266t-321.5 -85q-249 0 -381.5 145.5t-132.5 415.5q0 264 135.5 412t378.5 148q237 0 364 -155.5t135 -455.5z" />
<glyph unicode="&#x116;" horiz-adv-x="1404" d="M601 1776q0 60 39 103.5t93 43.5t93.5 -43.5t39.5 -103.5t-39.5 -103t-93.5 -43t-93 43t-39 103zM86 0v121h172v1251h-172v121h1208v-352h-124v215h-565v-479h352v190h123v-516h-123v190h-352v-604h582v215h123v-352h-1224z" />
<glyph unicode="&#x117;" horiz-adv-x="1172" d="M453 1468q0 60 39.5 103t93.5 43t93 -43t39 -103q0 -59 -39 -103t-93 -44t-93.5 44t-39.5 103zM739 600q0 210 -35 294.5t-120 84.5q-82 0 -117.5 -83t-35.5 -278v-18h308zM1089 481h-658v-8q0 -206 56 -297.5t180 -91.5q103 0 167 61t82 177h150q-39 -181 -154.5 -266 t-321.5 -85q-249 0 -381.5 145.5t-132.5 415.5q0 264 135.5 412t378.5 148q237 0 364 -155.5t135 -455.5z" />
<glyph unicode="&#x118;" horiz-adv-x="1404" d="M1039 0h112q-44 -65 -61.5 -102t-17.5 -66q0 -41 25.5 -63.5t72.5 -22.5q35 0 71.5 8t70.5 23l-1 -156q-48 -11 -91.5 -16.5t-80.5 -5.5q-102 0 -158.5 46t-56.5 130q0 52 28 106.5t87 118.5zM86 0v121h172v1251h-172v121h1208v-352h-124v215h-565v-479h352v190h123v-516 h-123v190h-352v-604h582v215h123v-352h-1224z" />
<glyph unicode="&#x119;" horiz-adv-x="1172" d="M695 0h112q-44 -65 -61.5 -102t-17.5 -66q0 -41 25.5 -63.5t72.5 -22.5q35 0 71.5 8t70.5 23l-1 -156q-48 -11 -91.5 -16.5t-80.5 -5.5q-102 0 -158.5 46t-56.5 130q0 52 28 106.5t87 118.5zM739 600q0 210 -35 294.5t-120 84.5q-82 0 -117.5 -83t-35.5 -278v-18h308z M1089 481h-658v-8q0 -206 56 -297.5t180 -91.5q103 0 167 61t82 177h150q-39 -181 -154.5 -266t-321.5 -85q-249 0 -381.5 145.5t-132.5 415.5q0 264 135.5 412t378.5 148q237 0 364 -155.5t135 -455.5z" />
<glyph unicode="&#x11a;" horiz-adv-x="1404" d="M86 0v121h172v1251h-172v121h1208v-352h-124v215h-565v-479h352v190h123v-516h-123v190h-352v-604h582v215h123v-352h-1224zM592 1641l-201 264h148l191 -162l192 162h147l-200 -264h-277z" />
<glyph unicode="&#x11b;" horiz-adv-x="1172" d="M739 600q0 210 -35 294.5t-120 84.5q-82 0 -117.5 -83t-35.5 -278v-18h308zM1089 481h-658v-8q0 -206 56 -297.5t180 -91.5q103 0 167 61t82 177h150q-39 -181 -154.5 -266t-321.5 -85q-249 0 -381.5 145.5t-132.5 415.5q0 264 135.5 412t378.5 148q237 0 364 -155.5 t135 -455.5zM489 1262l-230 376h147l192 -227l191 227h148l-230 -376h-218z" />
<glyph unicode="&#x11c;" horiz-adv-x="1574" d="M680 1899h277l200 -264h-147l-192 161l-191 -161h-148zM1268 1024q-40 198 -134.5 286.5t-266.5 88.5q-209 0 -306.5 -157.5t-97.5 -496.5q0 -336 93.5 -494.5t291.5 -158.5q75 0 140 19t118 57v410h-162v120h484v-573q-151 -78 -301.5 -116t-308.5 -38 q-346 0 -543.5 207t-197.5 567q0 361 197.5 568t543.5 207q144 0 283.5 -32t280.5 -97v-367h-114z" />
<glyph unicode="&#x11d;" horiz-adv-x="1288" d="M501 1638h218l230 -376h-148l-191 225l-192 -225h-147zM1110 942v-928q0 -224 -143.5 -346.5t-405.5 -122.5q-96 0 -194 16.5t-201 49.5v254h101q14 -105 76.5 -156t178.5 -51q148 0 208.5 78.5t60.5 277.5v121q-40 -83 -109 -123.5t-170 -40.5q-203 0 -319.5 150 t-116.5 411q0 262 116.5 411t319.5 149q101 0 170 -40.5t109 -123.5v135h455v-121h-136zM791 584q0 186 -43 269t-138 83q-99 0 -139 -87.5t-40 -316.5t40.5 -317t138.5 -88q95 0 138 83t43 269v105z" />
<glyph unicode="&#x11e;" horiz-adv-x="1574" d="M1268 1024q-40 198 -134.5 286.5t-266.5 88.5q-209 0 -306.5 -157.5t-97.5 -496.5q0 -336 93.5 -494.5t291.5 -158.5q75 0 140 19t118 57v410h-162v120h484v-573q-151 -78 -301.5 -116t-308.5 -38q-346 0 -543.5 207t-197.5 567q0 361 197.5 568t543.5 207 q144 0 283.5 -32t280.5 -97v-367h-114zM480 1899h111q20 -55 70 -84t125 -29q76 0 126.5 29.5t68.5 83.5h111q-25 -131 -102 -197.5t-204 -66.5q-129 0 -205 65t-101 199z" />
<glyph unicode="&#x11f;" horiz-adv-x="1288" d="M1110 942v-928q0 -224 -143.5 -346.5t-405.5 -122.5q-96 0 -194 16.5t-201 49.5v254h101q14 -105 76.5 -156t178.5 -51q148 0 208.5 78.5t60.5 277.5v121q-40 -83 -109 -123.5t-170 -40.5q-203 0 -319.5 150t-116.5 411q0 262 116.5 411t319.5 149q101 0 170 -40.5 t109 -123.5v135h455v-121h-136zM791 584q0 186 -43 269t-138 83q-99 0 -139 -87.5t-40 -316.5t40.5 -317t138.5 -88q95 0 138 83t43 269v105zM337 1589h113q5 -73 55.5 -112t139.5 -39t139.5 39t55.5 112h113q0 -146 -81.5 -228.5t-226.5 -82.5q-147 0 -226.5 81t-81.5 230z " />
<glyph unicode="&#x120;" horiz-adv-x="1574" d="M686 1776q0 60 39 103.5t93 43.5t93.5 -43.5t39.5 -103.5t-39.5 -103t-93.5 -43t-93 43t-39 103zM1268 1024q-40 198 -134.5 286.5t-266.5 88.5q-209 0 -306.5 -157.5t-97.5 -496.5q0 -336 93.5 -494.5t291.5 -158.5q75 0 140 19t118 57v410h-162v120h484v-573 q-151 -78 -301.5 -116t-308.5 -38q-346 0 -543.5 207t-197.5 567q0 361 197.5 568t543.5 207q144 0 283.5 -32t280.5 -97v-367h-114z" />
<glyph unicode="&#x121;" horiz-adv-x="1288" d="M477 1468q0 60 39.5 103t93.5 43t93 -43t39 -103q0 -59 -39 -103t-93 -44t-93.5 44t-39.5 103zM1110 942v-928q0 -224 -143.5 -346.5t-405.5 -122.5q-96 0 -194 16.5t-201 49.5v254h101q14 -105 76.5 -156t178.5 -51q148 0 208.5 78.5t60.5 277.5v121 q-40 -83 -109 -123.5t-170 -40.5q-203 0 -319.5 150t-116.5 411q0 262 116.5 411t319.5 149q101 0 170 -40.5t109 -123.5v135h455v-121h-136zM791 584q0 186 -43 269t-138 83q-99 0 -139 -87.5t-40 -316.5t40.5 -317t138.5 -88q95 0 138 83t43 269v105z" />
<glyph unicode="&#x122;" horiz-adv-x="1574" d="M657 -420q70 42 103 94t33 121v43h193v-4q0 -111 -63 -190q-62 -80 -192 -135zM1268 1024q-40 198 -134.5 286.5t-266.5 88.5q-209 0 -306.5 -157.5t-97.5 -496.5q0 -336 93.5 -494.5t291.5 -158.5q75 0 140 19t118 57v410h-162v120h484v-573q-151 -78 -301.5 -116 t-308.5 -38q-346 0 -543.5 207t-197.5 567q0 361 197.5 568t543.5 207q144 0 283.5 -32t280.5 -97v-367h-114z" />
<glyph unicode="&#x123;" horiz-adv-x="1288" d="M833 1472q-70 -42 -103 -94t-33 -121v-43h-193v4q0 111 63 190q62 80 192 135zM1110 942v-928q0 -224 -143.5 -346.5t-405.5 -122.5q-96 0 -194 16.5t-201 49.5v254h101q14 -105 76.5 -156t178.5 -51q148 0 208.5 78.5t60.5 277.5v121q-40 -83 -109 -123.5t-170 -40.5 q-203 0 -319.5 150t-116.5 411q0 262 116.5 411t319.5 149q101 0 170 -40.5t109 -123.5v135h455v-121h-136zM791 584q0 186 -43 269t-138 83q-99 0 -139 -87.5t-40 -316.5t40.5 -317t138.5 -88q95 0 138 83t43 269v105z" />
<glyph unicode="&#x124;" horiz-adv-x="1741" d="M735 1899h277l200 -264h-147l-192 161l-191 -161h-148zM86 0v121h172v1251h-172v121h692v-121h-173v-502h534v502h-171v121h691v-121h-173v-1251h173v-121h-691v121h171v612h-534v-612h173v-121h-692z" />
<glyph unicode="&#x125;" horiz-adv-x="1340" d="M153 1899h277l200 -264h-147l-192 161l-191 -161h-148zM63 0v121h136v1315h-142v120h461v-643q57 95 131 137t186 42q161 0 243.5 -105.5t82.5 -310.5v-555h137v-121h-572v121h116v565q0 135 -31 187.5t-107 52.5q-96 0 -141 -78.5t-45 -249.5v-477h116v-121h-571z" />
<glyph unicode="&#x126;" horiz-adv-x="1741" d="M86 0v121h172v932h-172v137h172v182h-172v121h692v-121h-173v-182h534v182h-171v121h691v-121h-173v-182h173v-137h-173v-932h173v-121h-691v121h171v612h-534v-612h173v-121h-692zM605 870h534v183h-534v-183z" />
<glyph unicode="&#x127;" horiz-adv-x="1340" d="M63 0v121h136v1075h-142v137h142v103h-142v120h461v-223h323v-137h-323v-283q57 95 131 137t186 42q161 0 243.5 -105.5t82.5 -310.5v-555h137v-121h-572v121h116v565q0 135 -31 187.5t-107 52.5q-96 0 -141 -78.5t-45 -249.5v-477h116v-121h-571z" />
<glyph unicode="&#x128;" horiz-adv-x="862" d="M109 1635v12q0 123 48.5 189.5t138.5 66.5q55 0 127 -39l12 -6l65 -33q25 -13 41 -17.5t32 -4.5q37 0 59 25t22 69v4h99v-15q0 -122 -48 -187.5t-139 -65.5q-30 0 -60.5 9t-77.5 36l-52 28q-24 13 -47 20t-40 7q-37 0 -59 -25.5t-22 -68.5v-4h-99zM86 0v121h172v1251 h-172v121h692v-121h-173v-1251h173v-121h-692z" />
<glyph unicode="&#x129;" horiz-adv-x="700" d="M28 1309v16q0 146 47.5 221.5t139.5 75.5q33 0 65 -12.5t73 -42.5l64 -47l3 -2q40 -29 72 -29q37 0 59 35t22 96h99v-16q0 -146 -47.5 -221.5t-139.5 -75.5q-34 0 -65.5 12.5t-73.5 42.5l-65 47v1q-41 30 -73 30q-37 0 -59 -35t-22 -96h-99zM518 121h136v-121h-591v121 h136v821h-136v121h455v-942z" />
<glyph unicode="&#x12a;" horiz-adv-x="862" d="M148 1872h567v-188h-567v188zM86 0v121h172v1251h-172v121h692v-121h-173v-1251h173v-121h-692z" />
<glyph unicode="&#x12b;" horiz-adv-x="700" d="M6 1563h567v-188h-567v188zM518 121h136v-121h-591v121h136v821h-136v121h455v-942z" />
<glyph unicode="&#x12c;" horiz-adv-x="862" d="M125 1899h111q20 -55 70 -84t125 -29q76 0 126.5 29.5t68.5 83.5h111q-25 -131 -102 -197.5t-204 -66.5q-129 0 -205 65t-101 199zM86 0v121h172v1251h-172v121h692v-121h-173v-1251h173v-121h-692z" />
<glyph unicode="&#x12d;" horiz-adv-x="700" d="M42 1589h113q5 -73 55.5 -112t139.5 -39t139.5 39t55.5 112h113q0 -146 -81.5 -228.5t-226.5 -82.5q-147 0 -226.5 81t-81.5 230zM518 121h136v-121h-591v121h136v821h-136v121h455v-942z" />
<glyph unicode="&#x12e;" horiz-adv-x="862" d="M86 0v121h172v1251h-172v121h692v-121h-173v-1251h173v-121h-692zM493 0h112q-44 -65 -61.5 -102t-17.5 -66q0 -41 25.5 -63.5t72.5 -22.5q35 0 71.5 8t70.5 23l-1 -156q-48 -11 -91.5 -16.5t-80.5 -5.5q-102 0 -158.5 46t-56.5 130q0 52 28 106.5t87 118.5z" />
<glyph unicode="&#x12f;" horiz-adv-x="700" d="M169 1364q0 81 50.5 136.5t123.5 55.5q71 0 121 -55.5t50 -136.5q0 -79 -50 -134.5t-121 -55.5q-73 0 -123.5 55t-50.5 135zM518 121h136v-121h-591v121h136v821h-136v121h455v-942zM405 0h112q-44 -65 -61.5 -102t-17.5 -66q0 -41 25.5 -63.5t72.5 -22.5q35 0 71.5 8 t70.5 23l-1 -156q-48 -11 -91.5 -16.5t-80.5 -5.5q-102 0 -158.5 46t-56.5 130q0 52 28 106.5t87 118.5z" />
<glyph unicode="&#x130;" horiz-adv-x="862" d="M86 0v121h172v1251h-172v121h692v-121h-173v-1251h173v-121h-692zM299 1776q0 60 39 103.5t93 43.5t93.5 -43.5t39.5 -103.5t-39.5 -103t-93.5 -43t-93 43t-39 103z" />
<glyph unicode="&#x131;" horiz-adv-x="700" d="M518 121h136v-121h-591v121h136v821h-136v121h455v-942z" />
<glyph unicode="&#x132;" horiz-adv-x="1736" d="M86 0v121h172v1251h-172v121h692v-121h-173v-1251h173v-121h-692zM729 -358v235h117q5 -94 40 -138t103 -44q87 0 122 74.5t35 279.5v1323h-196v121h716v-121h-172v-1331q0 -243 -110 -355t-351 -112q-75 0 -150.5 17t-153.5 51z" />
<glyph unicode="&#x133;" horiz-adv-x="1384" d="M169 1364q0 81 50.5 136.5t123.5 55.5q71 0 121 -55.5t50 -136.5q0 -79 -50 -134.5t-121 -55.5q-73 0 -123.5 55t-50.5 135zM518 121h136v-121h-591v121h136v821h-136v121h455v-942zM876 1364q0 81 50 136.5t124 55.5q70 0 120.5 -56t50.5 -136q0 -79 -50 -134.5 t-121 -55.5q-73 0 -123.5 55t-50.5 135zM913 942h-136v121h455v-1188q0 -163 -104 -246.5t-307 -83.5q-54 0 -115 10t-127 29v226l102 -1q2 -80 28.5 -115.5t85.5 -35.5q66 0 92 47t26 170v1067z" />
<glyph unicode="&#x134;" horiz-adv-x="872" d="M305 1899h277l200 -264h-147l-192 161l-191 -161h-148zM-135 -358v235h117q5 -94 40 -138t103 -44q87 0 122 74.5t35 279.5v1323h-196v121h716v-121h-172v-1331q0 -243 -110 -355t-351 -112q-75 0 -150.5 17t-153.5 51z" />
<glyph unicode="&#x135;" horiz-adv-x="666" d="M178 1638h218l230 -376h-148l-191 225l-192 -225h-147zM197 942h-136v121h455v-1188q0 -163 -104 -246.5t-307 -83.5q-54 0 -115 10t-127 29v226l102 -1q2 -80 28.5 -115.5t85.5 -35.5q66 0 92 47t26 170v1067z" />
<glyph unicode="&#x136;" horiz-adv-x="1602" d="M712 -391q70 42 103 94t33 121v43h193v-4q0 -111 -63 -190q-62 -80 -192 -135zM86 0v121h172v1251h-172v121h692v-121h-173v-545l569 545h-144v121h502v-121h-179l-483 -461l656 -790h133v-121h-456l-598 725v-604h173v-121h-692z" />
<glyph unicode="&#x137;" horiz-adv-x="1277" d="M525 -391q70 42 103 94t33 121v43h193v-4q0 -111 -63 -190q-62 -80 -192 -135zM638 0h-575v121h136v1315h-136v120h455v-999l386 385h-115v121h437v-121h-178l-246 -246l403 -575h104v-121h-549v121h112l-265 379l-89 -88v-291h120v-121z" />
<glyph unicode="&#x138;" horiz-adv-x="1277" d="M638 0h-575v121h136v818h-136v121h455v-504l386 383h-115v121h437v-121h-178l-246 -244l403 -574h104v-121h-549v121h112l-265 378l-89 -88v-290h120v-121z" />
<glyph unicode="&#x139;" horiz-adv-x="1296" d="M524 1900h251l-268 -264h-147zM86 0v121h172v1251h-172v121h692v-121h-173v-1235h529v236h122v-373h-1170z" />
<glyph unicode="&#x13a;" horiz-adv-x="700" d="M416 1900h251l-268 -264h-147zM518 121h136v-121h-591v121h136v1315h-136v120h455v-1435z" />
<glyph unicode="&#x13b;" horiz-adv-x="1296" d="M510 -391q70 42 103 94t33 121v43h193v-4q0 -111 -63 -190q-62 -80 -192 -135zM86 0v121h172v1251h-172v121h692v-121h-173v-1235h529v236h122v-373h-1170z" />
<glyph unicode="&#x13c;" horiz-adv-x="700" d="M198 -391q70 42 103 94t33 121v43h193v-4q0 -111 -63 -190q-62 -80 -192 -135zM518 121h136v-121h-591v121h136v1315h-136v120h455v-1435z" />
<glyph unicode="&#x13d;" horiz-adv-x="1296" d="M1004 1493h251l-166 -376h-147zM86 0v121h172v1251h-172v121h692v-121h-173v-1235h529v236h122v-373h-1170z" />
<glyph unicode="&#x13e;" horiz-adv-x="700" d="M700 1556h251l-166 -376h-147zM518 121h136v-121h-591v121h136v1315h-136v120h455v-1435z" />
<glyph unicode="&#x13f;" horiz-adv-x="1296" d="M935 887q0 78 50.5 134t120.5 56q72 0 122 -56t50 -134t-50 -133.5t-122 -55.5q-70 0 -120.5 55.5t-50.5 133.5zM86 0v121h172v1251h-172v121h692v-121h-173v-1235h529v236h122v-373h-1170z" />
<glyph unicode="&#x140;" horiz-adv-x="700" d="M606 883q0 78 50.5 134t120.5 56q72 0 122 -56t50 -134t-50 -133.5t-122 -55.5q-70 0 -120.5 55.5t-50.5 133.5zM518 121h136v-121h-591v121h136v1315h-136v120h455v-1435z" />
<glyph unicode="&#x141;" horiz-adv-x="1308" d="M98 0v121h173v428l-194 -127l-63 117l257 168v665h-173v121h691v-121h-172v-434l306 201l63 -117l-369 -244v-641h530v236h121v-373h-1170z" />
<glyph unicode="&#x142;" horiz-adv-x="709" d="M522 121h136v-121h-591v121h135v532l-139 -96l-56 105l195 133v641h-135v120h455v-557l140 97l57 -105l-197 -133v-737z" />
<glyph unicode="&#x143;" horiz-adv-x="1684" d="M861 1900h251l-268 -264h-147zM81 0v121h172v1251h-172v121h420l811 -1057v936h-171v121h470v-121h-172v-1372h-236l-823 1079v-958h171v-121h-470z" />
<glyph unicode="&#x144;" horiz-adv-x="1340" d="M680 1590h251l-336 -376h-148zM63 0v121h136v821h-136v121h455v-150q57 95 131 137t186 42q161 0 243.5 -105.5t82.5 -310.5v-555h137v-121h-572v121h116v565q0 135 -31 187.5t-107 52.5q-96 0 -141 -78.5t-45 -249.5v-477h116v-121h-571z" />
<glyph unicode="&#x145;" horiz-adv-x="1684" d="M599 -391q70 42 103 94t33 121v43h193v-4q0 -111 -63 -190q-62 -80 -192 -135zM81 0v121h172v1251h-172v121h420l811 -1057v936h-171v121h470v-121h-172v-1372h-236l-823 1079v-958h171v-121h-470z" />
<glyph unicode="&#x146;" horiz-adv-x="1340" d="M520 -391q70 42 103 94t33 121v43h193v-4q0 -111 -63 -190q-62 -80 -192 -135zM63 0v121h136v821h-136v121h455v-150q57 95 131 137t186 42q161 0 243.5 -105.5t82.5 -310.5v-555h137v-121h-572v121h116v565q0 135 -31 187.5t-107 52.5q-96 0 -141 -78.5t-45 -249.5v-477 h116v-121h-571z" />
<glyph unicode="&#x147;" horiz-adv-x="1684" d="M81 0v121h172v1251h-172v121h420l811 -1057v936h-171v121h470v-121h-172v-1372h-236l-823 1079v-958h171v-121h-470zM689 1635l-201 264h148l191 -162l192 162h147l-200 -264h-277z" />
<glyph unicode="&#x148;" horiz-adv-x="1340" d="M63 0v121h136v821h-136v121h455v-150q57 95 131 137t186 42q161 0 243.5 -105.5t82.5 -310.5v-555h137v-121h-572v121h116v565q0 135 -31 187.5t-107 52.5q-96 0 -141 -78.5t-45 -249.5v-477h116v-121h-571zM489 1262l-230 376h147l192 -227l191 227h148l-230 -376h-218z " />
<glyph unicode="&#x149;" horiz-adv-x="1858" d="M85 1070q86 67 125.5 161.5t39.5 233.5v55h243q-8 -207 -83.5 -348.5t-230.5 -237.5zM539 0v121h136v821h-136v121h455v-150q57 95 131 137t186 42q161 0 243.5 -105.5t82.5 -310.5v-555h137v-121h-572v121h116v565q0 135 -31 187.5t-107 52.5q-96 0 -141 -78.5 t-45 -249.5v-477h116v-121h-571z" />
<glyph unicode="&#x14a;" horiz-adv-x="1607" d="M63 0v121h171v1251h-136v121h484v-154q72 97 166 140q91 42 236 42q203 0 307 -141t104 -415v-924q0 -243 -110.5 -355t-351.5 -112q-74 0 -150 17t-154 51v235h120q0 -94 37.5 -138t105.5 -44q87 0 121.5 74.5t34.5 279.5v878q0 249 -44.5 346t-153.5 97 q-136 0 -203 -127q-65 -122 -65 -402v-720h172v-121h-691z" />
<glyph unicode="&#x14b;" horiz-adv-x="1340" d="M63 0v121h136v821h-136v121h455v-150q57 95 131 137t186 42q161 0 243.5 -105.5t82.5 -310.5v-801q0 -163 -104 -246.5t-306 -83.5q-54 0 -115.5 10t-127.5 29v225h102q2 -80 28.5 -115.5t85.5 -35.5q66 0 92 47t26 170v811q0 135 -31 187.5t-107 52.5q-96 0 -141 -78.5 t-45 -249.5v-477h116v-121h-571z" />
<glyph unicode="&#x14c;" horiz-adv-x="1605" d="M518 1872h567v-188h-567v188zM802 92q172 0 255.5 161t83.5 492q0 332 -83.5 493t-255.5 161q-171 0 -255 -162.5t-84 -491.5q0 -328 84 -490.5t255 -162.5zM802 -29q-339 0 -532 206t-193 568t193.5 568.5t531.5 206.5q339 0 531.5 -206t192.5 -569q0 -362 -193 -568 t-531 -206z" />
<glyph unicode="&#x14d;" horiz-adv-x="1229" d="M332 1562h567v-188h-567v188zM616 84q100 0 141 96t41 352t-40.5 351.5t-141.5 95.5q-102 0 -143.5 -96.5t-41.5 -350.5t41.5 -351t143.5 -97zM616 -29q-253 0 -396.5 149.5t-143.5 411.5q0 263 143.5 411.5t396.5 148.5t396.5 -148.5t143.5 -411.5q0 -262 -144 -411.5 t-396 -149.5z" />
<glyph unicode="&#x14e;" horiz-adv-x="1605" d="M497 1899h111q20 -55 70 -84t125 -29q76 0 126.5 29.5t68.5 83.5h111q-25 -131 -102 -197.5t-204 -66.5q-129 0 -205 65t-101 199zM802 92q172 0 255.5 161t83.5 492q0 332 -83.5 493t-255.5 161q-171 0 -255 -162.5t-84 -491.5q0 -328 84 -490.5t255 -162.5zM802 -29 q-339 0 -532 206t-193 568t193.5 568.5t531.5 206.5q339 0 531.5 -206t192.5 -569q0 -362 -193 -568t-531 -206z" />
<glyph unicode="&#x14f;" horiz-adv-x="1229" d="M308 1589h113q5 -73 55.5 -112t139.5 -39t139.5 39t55.5 112h113q0 -146 -81.5 -228.5t-226.5 -82.5q-147 0 -226.5 81t-81.5 230zM616 84q100 0 141 96t41 352t-40.5 351.5t-141.5 95.5q-102 0 -143.5 -96.5t-41.5 -350.5t41.5 -351t143.5 -97zM616 -29 q-253 0 -396.5 149.5t-143.5 411.5q0 263 143.5 411.5t396.5 148.5t396.5 -148.5t143.5 -411.5q0 -262 -144 -411.5t-396 -149.5z" />
<glyph unicode="&#x150;" horiz-adv-x="1605" d="M1043 1899h251l-268 -264h-147zM744 1899h251l-267 -264h-148zM802 92q172 0 255.5 161t83.5 492q0 332 -83.5 493t-255.5 161q-171 0 -255 -162.5t-84 -491.5q0 -328 84 -490.5t255 -162.5zM802 -29q-339 0 -532 206t-193 568t193.5 568.5t531.5 206.5q339 0 531.5 -206 t192.5 -569q0 -362 -193 -568t-531 -206z" />
<glyph unicode="&#x151;" horiz-adv-x="1229" d="M857 1638h212l-267 -376h-147zM528 1638h195l-220 -376h-146zM616 84q100 0 141 96t41 352t-40.5 351.5t-141.5 95.5q-102 0 -143.5 -96.5t-41.5 -350.5t41.5 -351t143.5 -97zM616 -29q-253 0 -396.5 149.5t-143.5 411.5q0 263 143.5 411.5t396.5 148.5t396.5 -148.5 t143.5 -411.5q0 -262 -144 -411.5t-396 -149.5z" />
<glyph unicode="&#x152;" horiz-adv-x="2175" d="M1048 121v1251h-114q-237 0 -358 -157t-121 -467q0 -314 120 -470.5t359 -156.5h114zM2081 0h-1189q-186 0 -308 26t-213 83q-141 86 -217.5 252t-76.5 387q0 220 76.5 384.5t217.5 251.5q90 58 210.5 83.5t310.5 25.5h1173v-352h-124v215h-544v-479h330v190h123v-516 h-123v190h-330v-604h561v215h123v-352z" />
<glyph unicode="&#x153;" horiz-adv-x="1894" d="M616 84q100 0 141 96t41 352t-40.5 351.5t-141.5 95.5q-102 0 -143.5 -96.5t-41.5 -350.5t41.5 -351t143.5 -97zM1462 600q0 210 -36 294.5t-119 84.5q-81 0 -116 -82t-35 -279v-18h306zM976 936q68 80 151.5 118t190.5 38q234 0 360.5 -157t135.5 -453l-658 -1v-8 q0 -207 54.5 -298t179.5 -91q103 0 167 61t82 177h149q-35 -174 -148.5 -262.5t-301.5 -88.5q-118 0 -207.5 38.5t-154.5 117.5q-62 -77 -157.5 -116.5t-217.5 -39.5q-243 0 -384 151t-141 410q0 263 143.5 411.5t396.5 148.5q114 0 203.5 -38.5t156.5 -117.5z" />
<glyph unicode="&#x154;" horiz-adv-x="1531" d="M812 1900h251l-268 -264h-147zM978 729q80 -13 135 -59t96 -133l196 -416h138v-121h-442l-215 451q-62 140 -105.5 178.5t-120.5 38.5h-55v-547h173v-121h-692v121h172v1251h-172v121h767q234 0 361.5 -104.5t127.5 -296.5q0 -156 -90.5 -246.5t-273.5 -116.5zM605 788 h118q126 0 194 76t68 217t-68 216t-194 75h-118v-584z" />
<glyph unicode="&#x155;" horiz-adv-x="971" d="M680 1590h251l-336 -376h-148zM990 1075v-317h-102q-5 85 -41 126.5t-105 41.5q-104 0 -164 -102t-60 -283v-420h173v-121h-628v121h136v821h-146v121h465v-189q46 111 123 164.5t189 53.5q28 0 68 -4.5t92 -12.5z" />
<glyph unicode="&#x156;" horiz-adv-x="1531" d="M654 -391q70 42 103 94t33 121v43h193v-4q0 -111 -63 -190q-62 -80 -192 -135zM978 729q80 -13 135 -59t96 -133l196 -416h138v-121h-442l-215 451q-62 140 -105.5 178.5t-120.5 38.5h-55v-547h173v-121h-692v121h172v1251h-172v121h767q234 0 361.5 -104.5t127.5 -296.5 q0 -156 -90.5 -246.5t-273.5 -116.5zM605 788h118q126 0 194 76t68 217t-68 216t-194 75h-118v-584z" />
<glyph unicode="&#x157;" horiz-adv-x="971" d="M216 -391q70 42 103 94t33 121v43h193v-4q0 -111 -63 -190q-62 -80 -192 -135zM990 1075v-317h-102q-5 85 -41 126.5t-105 41.5q-104 0 -164 -102t-60 -283v-420h173v-121h-628v121h136v821h-146v121h465v-189q46 111 123 164.5t189 53.5q28 0 68 -4.5t92 -12.5z" />
<glyph unicode="&#x158;" horiz-adv-x="1531" d="M978 729q80 -13 135 -59t96 -133l196 -416h138v-121h-442l-215 451q-62 140 -105.5 178.5t-120.5 38.5h-55v-547h173v-121h-692v121h172v1251h-172v121h767q234 0 361.5 -104.5t127.5 -296.5q0 -156 -90.5 -246.5t-273.5 -116.5zM605 788h118q126 0 194 76t68 217 t-68 216t-194 75h-118v-584zM640 1635l-201 264h148l191 -162l192 162h147l-200 -264h-277z" />
<glyph unicode="&#x159;" horiz-adv-x="971" d="M990 1075v-317h-102q-5 85 -41 126.5t-105 41.5q-104 0 -164 -102t-60 -283v-420h173v-121h-628v121h136v821h-146v121h465v-189q46 111 123 164.5t189 53.5q28 0 68 -4.5t92 -12.5zM489 1262l-230 376h147l192 -227l191 227h148l-230 -376h-218z" />
<glyph unicode="&#x15a;" horiz-adv-x="1331" d="M812 1900h251l-268 -264h-147zM142 72v354h114q27 -168 124 -251t269 -83q139 0 212 59t73 173q0 90 -49.5 140t-204.5 93l-201 55q-197 56 -277 155.5t-80 283.5q0 222 132.5 345.5t371.5 123.5q118 0 245.5 -22t264.5 -66v-330h-114q-27 154 -115 225.5t-251 71.5 q-133 0 -201 -51.5t-68 -153.5q0 -93 47 -141.5t229 -100.5l202 -55q187 -52 271 -162t84 -303q0 -226 -140 -343.5t-413 -117.5q-131 0 -261 25t-264 76z" />
<glyph unicode="&#x15b;" horiz-adv-x="1037" d="M680 1590h251l-336 -376h-148zM86 31v297h102q13 -119 80.5 -181.5t183.5 -62.5q97 0 148.5 37.5t51.5 107.5q0 64 -32.5 99t-127.5 61l-131 37q-149 41 -215.5 117.5t-66.5 206.5q0 173 108 257.5t333 84.5q85 0 180.5 -15.5t212.5 -48.5v-268h-102q-8 109 -69.5 164 t-177.5 55q-97 0 -147 -34.5t-50 -100.5q0 -54 29 -85t104 -52l130 -37q188 -53 260 -131t72 -217q0 -180 -115.5 -265.5t-359.5 -85.5q-89 0 -189 15t-212 45z" />
<glyph unicode="&#x15c;" horiz-adv-x="1331" d="M518 1899h277l200 -264h-147l-192 161l-191 -161h-148zM142 72v354h114q27 -168 124 -251t269 -83q139 0 212 59t73 173q0 90 -49.5 140t-204.5 93l-201 55q-197 56 -277 155.5t-80 283.5q0 222 132.5 345.5t371.5 123.5q118 0 245.5 -22t264.5 -66v-330h-114 q-27 154 -115 225.5t-251 71.5q-133 0 -201 -51.5t-68 -153.5q0 -93 47 -141.5t229 -100.5l202 -55q187 -52 271 -162t84 -303q0 -226 -140 -343.5t-413 -117.5q-131 0 -261 25t-264 76z" />
<glyph unicode="&#x15d;" horiz-adv-x="1037" d="M411 1638h218l230 -376h-148l-191 225l-192 -225h-147zM86 31v297h102q13 -119 80.5 -181.5t183.5 -62.5q97 0 148.5 37.5t51.5 107.5q0 64 -32.5 99t-127.5 61l-131 37q-149 41 -215.5 117.5t-66.5 206.5q0 173 108 257.5t333 84.5q85 0 180.5 -15.5t212.5 -48.5v-268 h-102q-8 109 -69.5 164t-177.5 55q-97 0 -147 -34.5t-50 -100.5q0 -54 29 -85t104 -52l130 -37q188 -53 260 -131t72 -217q0 -180 -115.5 -265.5t-359.5 -85.5q-89 0 -189 15t-212 45z" />
<glyph unicode="&#x15e;" horiz-adv-x="1331" d="M142 72v354h114q27 -168 124 -251t269 -83q139 0 212 59t73 173q0 90 -49.5 140t-204.5 93l-201 55q-197 56 -277 155.5t-80 283.5q0 222 132.5 345.5t371.5 123.5q118 0 245.5 -22t264.5 -66v-330h-114q-27 154 -115 225.5t-251 71.5q-133 0 -201 -51.5t-68 -153.5 q0 -93 47 -141.5t229 -100.5l202 -55q187 -52 271 -162t84 -303q0 -226 -140 -343.5t-413 -117.5q-131 0 -261 25t-264 76zM739 0q55 -64 82 -118.5t27 -106.5q0 -86 -58.5 -131t-167.5 -45q-43 0 -88.5 6.5t-92.5 19.5l-1 156q40 -17 78.5 -26t70.5 -9q54 0 82.5 23.5 t28.5 68.5q0 28 -15 61t-61 101h115z" />
<glyph unicode="&#x15f;" horiz-adv-x="1037" d="M86 31v297h102q13 -119 80.5 -181.5t183.5 -62.5q97 0 148.5 37.5t51.5 107.5q0 64 -32.5 99t-127.5 61l-131 37q-149 41 -215.5 117.5t-66.5 206.5q0 173 108 257.5t333 84.5q85 0 180.5 -15.5t212.5 -48.5v-268h-102q-8 109 -69.5 164t-177.5 55q-97 0 -147 -34.5 t-50 -100.5q0 -54 29 -85t104 -52l130 -37q188 -53 260 -131t72 -217q0 -180 -115.5 -265.5t-359.5 -85.5q-89 0 -189 15t-212 45zM594 0q55 -64 82 -118.5t27 -106.5q0 -86 -58.5 -131t-167.5 -45q-43 0 -88.5 6.5t-92.5 19.5l-1 156q40 -17 78.5 -26t70.5 -9 q54 0 82.5 23.5t28.5 68.5q0 28 -15 61t-61 101h115z" />
<glyph unicode="&#x160;" horiz-adv-x="1331" d="M142 72v354h114q27 -168 124 -251t269 -83q139 0 212 59t73 173q0 90 -49.5 140t-204.5 93l-201 55q-197 56 -277 155.5t-80 283.5q0 222 132.5 345.5t371.5 123.5q118 0 245.5 -22t264.5 -66v-330h-114q-27 154 -115 225.5t-251 71.5q-133 0 -201 -51.5t-68 -153.5 q0 -93 47 -141.5t229 -100.5l202 -55q187 -52 271 -162t84 -303q0 -226 -140 -343.5t-413 -117.5q-131 0 -261 25t-264 76zM527 1635l-201 264h148l191 -162l192 162h147l-200 -264h-277z" />
<glyph unicode="&#x161;" horiz-adv-x="1037" d="M86 31v297h102q13 -119 80.5 -181.5t183.5 -62.5q97 0 148.5 37.5t51.5 107.5q0 64 -32.5 99t-127.5 61l-131 37q-149 41 -215.5 117.5t-66.5 206.5q0 173 108 257.5t333 84.5q85 0 180.5 -15.5t212.5 -48.5v-268h-102q-8 109 -69.5 164t-177.5 55q-97 0 -147 -34.5 t-50 -100.5q0 -54 29 -85t104 -52l130 -37q188 -53 260 -131t72 -217q0 -180 -115.5 -265.5t-359.5 -85.5q-89 0 -189 15t-212 45zM411 1262l-230 376h147l192 -227l191 227h148l-230 -376h-218z" />
<glyph unicode="&#x162;" horiz-adv-x="1371" d="M754 0q55 -64 82 -118.5t27 -106.5q0 -86 -58.5 -131t-167.5 -45q-43 0 -88.5 6.5t-92.5 19.5l-1 156q40 -17 78.5 -26t70.5 -9q54 0 82.5 23.5t28.5 68.5q0 28 -15 61t-61 101h115zM334 0v121h178v1235h-368v-236h-123v373h1332v-373h-122v236h-371v-1235h180v-121h-706 z" />
<glyph unicode="&#x163;" horiz-adv-x="851" d="M535 0q55 -64 82 -118.5t27 -106.5q0 -86 -58.5 -131t-167.5 -45q-43 0 -88.5 6.5t-92.5 19.5l-1 156q40 -17 78.5 -26t70.5 -9q54 0 82.5 23.5t28.5 68.5q0 28 -15 61t-61 101h115zM183 942h-139v121h139v330h318v-330h266v-121h-266v-651q0 -139 20 -173t72 -34 q58 0 85.5 43t29.5 133h134q-8 -160 -78.5 -224.5t-243.5 -64.5q-197 0 -267 68.5t-70 251.5v651z" />
<glyph unicode="&#x164;" horiz-adv-x="1371" d="M334 0v121h178v1235h-368v-236h-123v373h1332v-373h-122v236h-371v-1235h180v-121h-706zM554 1635l-201 264h148l191 -162l192 162h147l-200 -264h-277z" />
<glyph unicode="&#x165;" horiz-adv-x="851" d="M183 942h-139v121h139v330h318v-330h266v-121h-266v-651q0 -139 20 -173t72 -34q58 0 85.5 43t29.5 133h134q-8 -160 -78.5 -224.5t-243.5 -64.5q-197 0 -267 68.5t-70 251.5v651zM662 1598h251l-166 -376h-147z" />
<glyph unicode="&#x166;" horiz-adv-x="1371" d="M213 713v137h299v506h-368v-236h-123v373h1332v-373h-122v236h-371v-506h299v-137h-299v-592h180v-121h-706v121h178v592h-299z" />
<glyph unicode="&#x167;" horiz-adv-x="851" d="M183 942h-139v121h139v330h318v-330h266v-121h-266v-277h266v-121h-266v-253q0 -139 20 -173t72 -34q58 0 85.5 43t29.5 133h134q-8 -160 -78.5 -224.5t-243.5 -64.5q-197 0 -267 68.5t-70 251.5v253h-139v121h139v277z" />
<glyph unicode="&#x168;" horiz-adv-x="1607" d="M527 1635v12q0 123 48.5 189.5t138.5 66.5q55 0 127 -39l12 -6l65 -33q25 -13 41 -17.5t32 -4.5q37 0 59 25t22 69v4h99v-15q0 -122 -48 -187.5t-139 -65.5q-30 0 -60.5 9t-77.5 36l-52 28q-24 13 -47 20t-40 7q-37 0 -59 -25.5t-22 -68.5v-4h-99zM234 1372h-171v121h691 v-121h-172v-747q0 -279 78.5 -390.5t268.5 -111.5q185 0 263 112.5t78 389.5v747h-171v121h468v-121h-172v-768q0 -342 -133 -487.5t-448 -145.5q-312 0 -446 147t-134 488v766z" />
<glyph unicode="&#x169;" horiz-adv-x="1340" d="M315 1309v16q0 146 47.5 221.5t139.5 75.5q33 0 65 -12.5t73 -42.5l64 -47l3 -2q40 -29 72 -29q37 0 59 35t22 96h99v-16q0 -146 -47.5 -221.5t-139.5 -75.5q-34 0 -65.5 12.5t-73.5 42.5l-65 47v1q-41 30 -73 30q-37 0 -59 -35t-22 -96h-99zM1141 1063v-942h136v-121 h-455v150q-57 -95 -131 -137t-186 -42q-161 0 -243.5 105.5t-82.5 310.5v555h-137v121h456v-621q0 -198 29.5 -251.5t108.5 -53.5q97 0 141.5 79t44.5 251v475h-116v121h435z" />
<glyph unicode="&#x16a;" horiz-adv-x="1607" d="M588 1872h567v-188h-567v188zM234 1372h-171v121h691v-121h-172v-747q0 -279 78.5 -390.5t268.5 -111.5q185 0 263 112.5t78 389.5v747h-171v121h468v-121h-172v-768q0 -342 -133 -487.5t-448 -145.5q-312 0 -446 147t-134 488v766z" />
<glyph unicode="&#x16b;" horiz-adv-x="1340" d="M375 1562h567v-188h-567v188zM1141 1063v-942h136v-121h-455v150q-57 -95 -131 -137t-186 -42q-161 0 -243.5 105.5t-82.5 310.5v555h-137v121h456v-621q0 -198 29.5 -251.5t108.5 -53.5q97 0 141.5 79t44.5 251v475h-116v121h435z" />
<glyph unicode="&#x16c;" horiz-adv-x="1607" d="M543 1899h111q20 -55 70 -84t125 -29q76 0 126.5 29.5t68.5 83.5h111q-25 -131 -102 -197.5t-204 -66.5q-129 0 -205 65t-101 199zM234 1372h-171v121h691v-121h-172v-747q0 -279 78.5 -390.5t268.5 -111.5q185 0 263 112.5t78 389.5v747h-171v121h468v-121h-172v-768 q0 -342 -133 -487.5t-448 -145.5q-312 0 -446 147t-134 488v766z" />
<glyph unicode="&#x16d;" horiz-adv-x="1340" d="M329 1589h113q5 -73 55.5 -112t139.5 -39t139.5 39t55.5 112h113q0 -146 -81.5 -228.5t-226.5 -82.5q-147 0 -226.5 81t-81.5 230zM1141 1063v-942h136v-121h-455v150q-57 -95 -131 -137t-186 -42q-161 0 -243.5 105.5t-82.5 310.5v555h-137v121h456v-621 q0 -198 29.5 -251.5t108.5 -53.5q97 0 141.5 79t44.5 251v475h-116v121h435z" />
<glyph unicode="&#x16e;" horiz-adv-x="1607" d="M234 1372h-171v121h691v-121h-172v-747q0 -279 78.5 -390.5t268.5 -111.5q185 0 263 112.5t78 389.5v747h-171v121h468v-121h-172v-768q0 -342 -133 -487.5t-448 -145.5q-312 0 -446 147t-134 488v766zM684 1879q0 118 75.5 201.5t181.5 83.5t181 -83.5t75 -201.5 t-75 -201.5t-181 -83.5t-181.5 83.5t-75.5 201.5zM823 1879q0 -55 34.5 -93t83.5 -38t83.5 38.5t34.5 92.5t-35 92.5t-83 38.5q-50 0 -84 -38.5t-34 -92.5z" />
<glyph unicode="&#x16f;" horiz-adv-x="1340" d="M1141 1063v-942h136v-121h-455v150q-57 -95 -131 -137t-186 -42q-161 0 -243.5 105.5t-82.5 310.5v555h-137v121h456v-621q0 -198 29.5 -251.5t108.5 -53.5q97 0 141.5 79t44.5 251v475h-116v121h435zM370 1464q0 118 75.5 201.5t181.5 83.5t181 -83.5t75 -201.5 t-75 -201.5t-181 -83.5t-181.5 83.5t-75.5 201.5zM509 1464q0 -55 34.5 -93t83.5 -38t83.5 38.5t34.5 92.5t-35 92.5t-83 38.5q-50 0 -84 -38.5t-34 -92.5z" />
<glyph unicode="&#x170;" horiz-adv-x="1607" d="M1089 1899h251l-268 -264h-147zM790 1899h251l-267 -264h-148zM234 1372h-171v121h691v-121h-172v-747q0 -279 78.5 -390.5t268.5 -111.5q185 0 263 112.5t78 389.5v747h-171v121h468v-121h-172v-768q0 -342 -133 -487.5t-448 -145.5q-312 0 -446 147t-134 488v766z" />
<glyph unicode="&#x171;" horiz-adv-x="1340" d="M878 1638h212l-267 -376h-147zM549 1638h195l-220 -376h-146zM1141 1063v-942h136v-121h-455v150q-57 -95 -131 -137t-186 -42q-161 0 -243.5 105.5t-82.5 310.5v555h-137v121h456v-621q0 -198 29.5 -251.5t108.5 -53.5q97 0 141.5 79t44.5 251v475h-116v121h435z" />
<glyph unicode="&#x172;" horiz-adv-x="1607" d="M234 1372h-171v121h691v-121h-172v-747q0 -279 78.5 -390.5t268.5 -111.5q185 0 263 112.5t78 389.5v747h-171v121h468v-121h-172v-768q0 -342 -133 -487.5t-448 -145.5q-312 0 -446 147t-134 488v766zM759 -16h112q-44 -65 -61.5 -102t-17.5 -66q0 -41 25.5 -63.5 t72.5 -22.5q35 0 71.5 8t70.5 23l-1 -156q-48 -11 -91.5 -16.5t-80.5 -5.5q-102 0 -158.5 46t-56.5 130q0 52 28 106.5t87 118.5z" />
<glyph unicode="&#x173;" horiz-adv-x="1340" d="M1141 1063v-942h136v-121h-455v150q-57 -95 -131 -137t-186 -42q-161 0 -243.5 105.5t-82.5 310.5v555h-137v121h456v-621q0 -198 29.5 -251.5t108.5 -53.5q97 0 141.5 79t44.5 251v475h-116v121h435zM1067 0h112q-44 -65 -61.5 -102t-17.5 -66q0 -41 25.5 -63.5 t72.5 -22.5q35 0 71.5 8t70.5 23l-1 -156q-48 -11 -91.5 -16.5t-80.5 -5.5q-102 0 -158.5 46t-56.5 130q0 52 28 106.5t87 118.5z" />
<glyph unicode="&#x174;" horiz-adv-x="2070" d="M899 1906h277l200 -264h-147l-192 161l-191 -161h-148zM1570 0h-232l-304 1087l-304 -1087h-232l-384 1372h-130v121h637v-121h-144l257 -917l289 1038h256l295 -1055l262 934h-160v121h416v-121h-138z" />
<glyph unicode="&#x175;" horiz-adv-x="1586" d="M695 1638h218l230 -376h-148l-191 225l-192 -225h-147zM994 1063l217 -709l180 588h-125v121h358v-121h-113l-289 -942h-219l-203 666l-204 -666h-218l-290 942h-104v121h542v-121h-113l177 -575l214 696h190z" />
<glyph unicode="&#x176;" horiz-adv-x="1315" d="M520 1906h277l200 -264h-147l-192 161l-191 -161h-148zM317 0v121h181v497l-400 754h-114v121h644v-121h-149l302 -569l301 569h-134v121h385v-121h-114l-373 -702v-549h181v-121h-710z" />
<glyph unicode="&#x177;" horiz-adv-x="1071" d="M437 1638h218l230 -376h-148l-191 225l-192 -225h-147zM575 -240q-43 -117 -104 -166t-165 -49q-44 0 -98 11t-118 32v222l102 -1q2 -77 32.5 -114t90.5 -37q59 0 95 35.5t72 134.5l14 37l-417 1077h-103v121h551v-121h-114l243 -629l227 629h-127v121h359v-121h-116z " />
<glyph unicode="&#x178;" horiz-adv-x="1315" d="M317 0v121h181v497l-400 754h-114v121h644v-121h-149l302 -569l301 569h-134v121h385v-121h-114l-373 -702v-549h181v-121h-710zM324 1776q0 60 39.5 103.5t93.5 43.5t92.5 -43.5t38.5 -103.5t-38.5 -103t-92.5 -43t-93.5 43t-39.5 103zM727 1776q0 60 39 103.5t93 43.5 t93.5 -43.5t39.5 -103.5t-39.5 -103t-93.5 -43t-93 43t-39 103z" />
<glyph unicode="&#x179;" horiz-adv-x="1345" d="M812 1900h251l-268 -264h-147zM68 0v141l802 1215h-643v-223h-123v360h1166v-141l-793 -1215h679v209h123v-346h-1211z" />
<glyph unicode="&#x17a;" horiz-adv-x="1046" d="M680 1590h251l-336 -376h-148zM65 0v121l549 825h-413v-182h-107v299h891v-119l-550 -825h443v192h107v-311h-920z" />
<glyph unicode="&#x17b;" horiz-adv-x="1345" d="M545 1802q0 60 39 103.5t93 43.5t93.5 -43.5t39.5 -103.5t-39.5 -103t-93.5 -43t-93 43t-39 103zM68 0v141l802 1215h-643v-223h-123v360h1166v-141l-793 -1215h679v209h123v-346h-1211z" />
<glyph unicode="&#x17c;" horiz-adv-x="1046" d="M396 1408q0 60 39.5 103t93.5 43t93 -43t39 -103q0 -59 -39 -103t-93 -44t-93.5 44t-39.5 103zM65 0v121l549 825h-413v-182h-107v299h891v-119l-550 -825h443v192h107v-311h-920z" />
<glyph unicode="&#x17d;" horiz-adv-x="1345" d="M68 0v141l802 1215h-643v-223h-123v360h1166v-141l-793 -1215h679v209h123v-346h-1211zM535 1635l-201 264h148l191 -162l192 162h147l-200 -264h-277z" />
<glyph unicode="&#x17e;" horiz-adv-x="1046" d="M65 0v121l549 825h-413v-182h-107v299h891v-119l-550 -825h443v192h107v-311h-920zM415 1262l-230 376h147l192 -227l191 227h148l-230 -376h-218z" />
<glyph unicode="&#x17f;" horiz-adv-x="792" d="M518 121h184v-121h-639v121h136v821h-142v121h142v133q0 177 101.5 268.5t298.5 91.5q77 0 150 -9.5t143 -28.5v-228h-101q-7 78 -41 116t-96 38q-72 0 -104 -58q-32 -62 -32 -186v-1079z" />
<glyph unicode="&#x180;" horiz-adv-x="1288" d="M179 121v1075h-142v137h142v103h-137v120h456v-223h323v-137h-323v-268q40 83 108.5 123.5t169.5 40.5q204 0 321.5 -149.5t117.5 -410.5t-117.5 -411t-321.5 -150q-101 0 -169.5 40.5t-108.5 123.5v-135h-456v121h137zM498 479q0 -186 42.5 -269t138.5 -83q98 0 138 88 t40 317t-40 316.5t-138 87.5q-96 0 -138.5 -83t-42.5 -269v-105z" />
<glyph unicode="&#x181;" horiz-adv-x="1557" d="M258 1493h625q249 0 369 -92q123 -95 123 -277q0 -133 -84 -211q-86 -78 -253 -98q202 0 310 -120q108 -99 108 -263q0 -222 -151 -327q-150 -105 -472 -105h-747v121h172v1251q-176 0 -238 -89q-63 -91 -63 -277h-178v358q74 69 288 112q85 17 191 17zM605 870h118 q155 0 229 62q75 63 75 192q0 130 -73 189q-72 59 -231 59h-118v-502zM605 121h129q171 0 254 76t83 235q0 160 -83.5 239t-253.5 79h-129v-629z" />
<glyph unicode="&#x182;" horiz-adv-x="1575" d="M605 121h129q188 0 271 76t83 235q0 160 -83.5 239t-270.5 79h-129v-629zM86 1493h1305v-373h-121v236h-665v-486h119q432 0 590.5 -134t158.5 -304q0 -222 -150.5 -327t-488.5 -105h-748v121h172v1251h-172v121z" />
<glyph unicode="&#x183;" horiz-adv-x="1288" d="M498 479q0 -186 42 -269q43 -83 139 -83q98 0 138 88t40 317t-40 316q-40 88 -138 88q-96 0 -139 -83q-42 -83 -42 -269v-105zM1037 1556v-288h-109v168h-430v-508q40 83 109 124q68 40 169 40q204 0 322 -150q117 -149 117 -410t-117 -411q-118 -150 -322 -150 q-101 0 -169 41q-69 40 -109 123v-135h-456v121h137v1315h-137v120h995z" />
<glyph unicode="&#x184;" horiz-adv-x="1575" d="M605 870h119q183 0 310 -18q12 -1 21 -3q177 -34 307 -151l3 -3q108 -99 108 -263q0 -222 -150.5 -327t-488.5 -105h-748v121h172v713h-258v121l605 538v-623zM605 121h129q182 0 266 72q3 2 5 4q83 76 83 235q0 160 -84 239q-79 75 -255 79h-15h-129v-629z" />
<glyph unicode="&#x185;" horiz-adv-x="1288" d="M498 479q0 -186 42.5 -269t138.5 -83q98 0 138 88t40 317t-40 316.5t-138 87.5q-96 0 -138.5 -83t-42.5 -269v-105zM0 1008v120l498 429v-629q40 83 108.5 123.5t169.5 40.5q204 0 321.5 -149.5t117.5 -410.5t-117.5 -411t-321.5 -150q-101 0 -169.5 40.5t-108.5 123.5 v-135h-456v121h137l-1 887h-178z" />
<glyph unicode="&#x186;" horiz-adv-x="1467" d="M77 1065q53 231 191 343t370 112q340 0 537.5 -208.5t197.5 -565.5q0 -358 -197.5 -566.5t-537.5 -208.5q-120 0 -249.5 32t-274.5 97v367h115q35 -188 127.5 -281.5t244.5 -93.5q196 0 291.5 160.5t95.5 493.5t-95.5 493t-293.5 160q-134 0 -219 -83t-124 -251h-179z " />
<glyph unicode="&#x187;" horiz-adv-x="1467" d="M1373 426q-53 -231 -190.5 -343t-369.5 -112q-341 0 -538 209q-198 208 -198 565q0 358 198 567q197 208 538 208q119 0 249 -32q52 -13 107 -31q15 126 91 195t168 69q54 0 115.5 -10t126.5 -29v-225h-101q0 80 -28 115q-27 36 -87 36q-65 0 -91.5 -47t-26.5 -170v-367 h-114q-35 188 -128 282q-92 93 -244 93q-197 0 -292 -161q-95 -160 -95 -493t95 -493t293 -160q135 0 220 83t123 251h179z" />
<glyph unicode="&#x188;" horiz-adv-x="1122" d="M1040 332q-35 -182 -140 -272q-106 -89 -288 -89q-256 0 -396 147t-140 414q0 264 138.5 412t384.5 148q99 0 200 -21v52q0 163 105 247q103 83 196 83q54 0 115 -10t127 -29v-225h-102q0 80 -29 115q-26 36 -85 36q-66 0 -92 -47t-26 -170v-115v-295h-101 q-14 135 -71 201q-57 65 -159 65q-133 0 -189 -100q-57 -100 -57 -347q0 -241 55 -344q55 -104 179 -104q96 0 154 64q59 64 71 184h150z" />
<glyph unicode="&#x189;" horiz-adv-x="1611" d="M617 121h125q211 0 308 149.5t97 477.5q0 326 -97 475t-308 149h-125v-522h299v-137h-299v-592zM98 0v121h173v592h-192v137h192v522h-173v121h691q360 0 551.5 -191.5t191.5 -553.5q0 -363 -191.5 -555.5t-551.5 -192.5h-691z" />
<glyph unicode="&#x18a;" horiz-adv-x="1598" d="M258 1493h518q362 0 553.5 -192t191.5 -553q0 -363 -193 -556q-191 -192 -552 -192h-690v121h172v1251q-176 0 -238 -89q-63 -91 -63 -277h-178v358q74 69 288 112q85 17 191 17zM605 121h125q210 0 309 150q97 150 97 477q0 325 -97 474q-98 150 -309 150h-125v-1251z " />
<glyph unicode="&#x18b;" horiz-adv-x="1575" d="M955 1356h-665v-236h-122v373h1305v-121h-172v-1251h172v-121h-748q-337 0 -487 105q-152 105 -152 327q0 164 108 263q2 1 4 3q130 117 307 151q9 2 21 3q126 18 310 18h119v486zM955 121v629h-130h-14q-176 0 -256 -79q-83 -79 -83 -239q0 -159 82 -235l6 -4 q84 -72 265 -72h130z" />
<glyph unicode="&#x18c;" horiz-adv-x="1288" d="M760 479v105q0 186 -44 269q-42 83 -137 83q-98 0 -138 -88q-41 -87 -41 -316t41 -317q40 -88 138 -88q95 0 137 83q44 83 44 269zM1214 1436h-136v-1315h137v-121h-455v135q-41 -83 -109 -123q-69 -41 -169 -41q-205 0 -322 150q-118 150 -118 411t118 410 q117 150 322 150q100 0 169 -40q68 -41 109 -124v508h-431v-168h-109v288h994v-120z" />
<glyph unicode="&#x18d;" horiz-adv-x="1229" d="M911 41q147 -94 147 -238q0 -169 -120 -238l-11 -6q-116 -63 -311 -63q-90 0 -201 13q-108 13 -213 37v213h101q5 -36 19 -57q9 -14 50 -47q59 -46 155 -46q108 0 166 48l30 27q35 35 28 123q0 164 -135 164q-255 0 -397 149q-143 149 -143 411t144 411 q143 150 395.5 150t396.5 -150q144 -149 144 -411q0 -263 -144 -411q-86 -89 -101 -79zM616 979q-101 0 -143 -96q-40 -96 -40 -352t40 -351q41 -96 142.5 -96t143.5 96q41 97 41 351t-41.5 351t-142.5 97z" />
<glyph unicode="&#x18e;" horiz-adv-x="1404" d="M1310 0h-1224v352h124v-215h582v604h-352v-190h-123v516h123v-190h352v479h-565v-215h-124v352h1207v-121h-172v-1251h172v-121z" />
<glyph unicode="&#x18f;" horiz-adv-x="1605" d="M1139 830q0 269 -93 408q-96 160 -294 160q-134 0 -219 -83t-123 -252h-180q54 231 191 344q138 112 370 112q340 0 537 -209q198 -208 198 -565q0 -362 -192 -568q-194 -206 -532 -206q-339 0 -532 206t-193 568v85h1062zM1140 669h-676q0 -281 83 -415 q90 -162 255 -162q172 0 256 161q82 142 82 416z" />
<glyph unicode="&#x190;" horiz-adv-x="1329" d="M1174 1450v-299h-109q-13 123 -75 187.5t-214 64.5t-214.5 -67.5t-62.5 -198.5t66.5 -199t306.5 -68h47v-120h-59q-252 0 -329.5 -88t-77.5 -246q0 -159 68.5 -243.5t241.5 -84.5q119 0 200 69t87 126h179q-41 -111 -168.5 -211.5t-340.5 -100.5q-342 0 -488 111.5 t-146 320.5q0 171 91.5 278.5t257.5 133.5q-144 29 -219 113t-75 219q0 180 130 276.5t442 96.5q119 0 230.5 -17.5t230.5 -52.5z" />
<glyph unicode="&#x191;" horiz-adv-x="1308" d="M146 -426q-148 0 -304 68v235h117q0 -143 90 -173q23 -9 53 -9q87 0 121 75q36 75 35 279v1323h-172v121h1198v-352h-123v215h-554v-479h341v190h123v-516h-123v190h-341v-700q0 -263 -131 -373q-112 -94 -330 -94z" />
<glyph unicode="&#x192;" horiz-adv-x="792" d="M892 1290h-101q-2 15 -3 28q-10 57 -37 88q-35 38 -97 38q-72 0 -104 -58q-32 -57 -32 -186v-137h240v-121h-240v-971q0 -177 -102 -269q-102 -91 -299 -91q-77 0 -149 9q-73 10 -144 29v228h101q2 -15 4 -28q10 -57 37 -88q34 -38 96 -38q72 0 104 57q33 58 33 187v975 h-142v121h142v133q0 177 102 268q101 92 298 92q77 0 150 -10q73 -9 143 -28v-228z" />
<glyph unicode="&#x193;" horiz-adv-x="1574" d="M1215 1435q22 155 91 217q76 69 168 69q54 0 115.5 -10t126.5 -29v-225h-101q0 80 -29 115q-26 36 -86 36q-65 0 -91.5 -47t-26.5 -170v-367h-114q-40 198 -135 286q-94 89 -266 89q-209 0 -307 -157q-97 -158 -97 -497q0 -336 93 -495q94 -158 292 -158q75 0 140 19 t118 57v410h-162v120h484v-573q-151 -78 -301 -116q-151 -38 -309 -38q-346 0 -543 207q-198 207 -198 567q0 361 198 568q197 207 543 207q212 0 284 -32z" />
<glyph unicode="&#x194;" horiz-adv-x="1420" d="M607 710l-432 676h-166v107h613v-107h-50l240 -420l280 420h-179v107h506v-107h-174l-364 -531q509 -765 339 -899q-182 -144 -526 -144q-366 0 -430 200q-59 181 343 698zM683 595q-285 -383 -283 -515q2 -150 294 -147q260 2 246 152q-11 117 -257 510z" />
<glyph unicode="&#x195;" horiz-adv-x="1922" d="M1161 346q0 -226 137 -225q91 0 147 112t56 297q0 161 -38 257q-47 121 -74 148v44h116q158 -64 251 -193q94 -130 94 -272q0 -108 -46 -207q-44 -99 -126 -172q-75 -67 -172 -102q-98 -36 -208 -36q-456 0 -456 351v338q0 135 -30 188q-32 52 -108 52q-96 0 -142 -78 q-44 -79 -44 -250v-477h116v-121h-571v121h136v1315h-142v120h461v-643q57 95 131 137t186 42q161 0 243 -106q83 -105 83 -310v-330z" />
<glyph unicode="&#x196;" horiz-adv-x="862" d="M258 337v1035h-172v121h692v-121h-173v-1021q0 -131 35 -191q36 -61 121 -61v-99h-180q-181 0 -214 24q-109 78 -109 313z" />
<glyph unicode="&#x197;" horiz-adv-x="862" d="M86 0v121h172v592h-191v137h191v522h-172v121h692v-121h-173v-522h191v-137h-191v-592h173v-121h-692z" />
<glyph unicode="&#x198;" horiz-adv-x="1602" d="M1312 1332l-442 -421l656 -790h133v-121h-456l-598 725v-604h173v-121h-692v121h172v1251h-172v121h692v-121h-173v-545l569 545q125 119 252 121q46 0 115 -9q61 -10 127 -29v-225h-102q0 80 -29 116q-28 38 -85 35q-94 -4 -140 -49z" />
<glyph unicode="&#x199;" horiz-adv-x="1277" d="M199 1226q0 163 103 246q105 84 307 84q54 0 115.5 -10t126.5 -29v-225h-101q0 80 -28 116q-27 35 -87 35q-65 0 -91 -47q-26 -49 -26 -170v-669l386 385h-115v121h437v-121h-178l-246 -246l403 -575h104v-121h-549v121h112l-265 379l-89 -88v-291h120v-121h-575v121h136 v1105z" />
<glyph unicode="&#x19a;" horiz-adv-x="700" d="M518 121h136v-121h-591v121h136v358h-136v121h136v836h-136v120h455v-956h136v-121h-136v-358z" />
<glyph unicode="&#x19b;" horiz-adv-x="1292" d="M1105 121h111v-121h-359v121h125l-208 579l-275 -579h116v-121h-549v121h105l453 988v1l-379 -251l-56 105l385 256q-63 125 -122 156q-40 22 -119 24q-59 0 -90 -37t-33 -114h-102v221q67 22 118 32q62 12 98 11q203 0 328 -241l191 126l58 -105l-198 -131l1 -2z" />
<glyph unicode="&#x19c;" horiz-adv-x="1950" d="M852 174q-66 -106 -143.5 -154.5t-181.5 -48.5q-164 0 -245.5 103.5t-81.5 312.5v985h-137v121h570v-121h-115v-932q0 -199 27.5 -251t102.5 -52q85 0 131.5 72.5t46.5 206.5v956h-114v121h547v-121h-114v-932q0 -199 28 -251t101 -52q86 0 133 72.5t47 206.5v956h-115 v121h569v-121h-136v-1251h136v-121h-454v150q-56 -93 -128 -136t-171 -43q-117 0 -190 49.5t-113 153.5z" />
<glyph unicode="&#x19d;" horiz-adv-x="1684" d="M-164 -358v235h117q0 -143 90 -173q24 -9 53 -9q88 0 122 75q35 74 35 279v1323h-172v121h420l811 -1057v936h-171v121h470v-121h-172v-1372h-236l-823 1079v-1038q0 -285 -99 -389q-73 -78 -200 -78q-15 0 -91 17t-154 51z" />
<glyph unicode="&#x19e;" horiz-adv-x="1340" d="M63 0v121h136v821h-136v121h455v-150q57 95 131 137t186 42q161 0 243 -106q83 -106 83 -310v-981h136v-121h-572v121h117v991q0 135 -30 188q-32 52 -108 52q-96 0 -142 -78q-44 -79 -44 -250v-477h116v-121h-571z" />
<glyph unicode="&#x19f;" horiz-adv-x="1605" d="M802 -29q-339 0 -532 206t-193 568t193.5 568.5t531.5 206.5q339 0 531.5 -206t192.5 -569q0 -362 -193 -568t-531 -206zM802 92q172 0 256 161q73 142 82 416h-676q9 -271 83 -415q84 -162 255 -162zM464 830h676q-10 268 -82 408q-84 161 -256 161q-171 0 -255 -163 q-73 -140 -83 -406z" />
<glyph unicode="&#x1a0;" horiz-adv-x="1605" d="M801 92q172 0 255.5 161t83.5 492q0 332 -83.5 493t-255.5 161q-171 0 -255 -162.5t-84 -491.5q0 -328 84 -490.5t255 -162.5zM801 -29q-339 0 -532 206t-193 568t193.5 568.5t531.5 206.5q339 0 531.5 -206t192.5 -569q0 -362 -193 -568t-531 -206zM1245 1248v126 q59 -49 92 -68.5t59 -19.5q37 0 57.5 28t20.5 80q0 39 -7.5 79.5t-20.5 78.5h140q10 -54 15 -102t5 -90q0 -113 -41.5 -175.5t-116.5 -62.5q-47 0 -96 30.5t-107 95.5z" />
<glyph unicode="&#x1a1;" horiz-adv-x="1229" d="M617 84q100 0 141 96t41 352t-40.5 351.5t-141.5 95.5q-102 0 -143.5 -96.5t-41.5 -350.5t41.5 -351t143.5 -97zM617 -29q-253 0 -396.5 149.5t-143.5 411.5q0 263 143.5 411.5t396.5 148.5t396.5 -148.5t143.5 -411.5q0 -262 -144 -411.5t-396 -149.5zM1012 818v126 q59 -49 92 -68.5t59 -19.5q37 0 57.5 28t20.5 80q0 39 -7.5 79.5t-20.5 78.5h140q10 -54 15 -102t5 -90q0 -113 -41.5 -175.5t-116.5 -62.5q-47 0 -96 30.5t-107 95.5z" />
<glyph unicode="&#x1a2;" horiz-adv-x="2212" d="M801 -29q-339 0 -532 206t-193 568t193.5 568.5t531.5 206.5q229 0 391 -94q77 33 151 50q75 17 150 17q240 0 350.5 -112t110.5 -355v-1256h172v-121h-692v121h172v1248q0 205 -35 279.5t-122 74.5q-68 0 -103 -44q-6 -7 -11 -16q191 -206 191 -567q0 -362 -193.5 -568 t-531.5 -206zM801 92q172 0 255.5 161t83.5 492q0 332 -83.5 493t-255.5 161q-171 0 -255 -162.5t-84 -491.5q0 -328 84 -490.5t255 -162.5z" />
<glyph unicode="&#x1a3;" horiz-adv-x="1738" d="M1228 -305l1 1038q1 123 -26 170q-26 47 -91 47q-53 0 -80 -27q124 -146 124 -391q0 -262 -143.5 -411.5t-396 -149.5t-396.5 149.5t-144 411.5q0 263 144 411.5t396 148.5q169 0 289 -65q60 17 117 26q62 10 116 10q202 0 306 -83.5t104 -246.5v-1038h148v-121h-603v121 h135zM616 84q101 0 142 96t41 352t-40.5 351.5t-142 95.5t-143 -96.5t-41.5 -350.5t41.5 -351t142.5 -97z" />
<glyph unicode="&#x1a4;" horiz-adv-x="1386" d="M258 1493h593q225 0 357 -119q132 -118 132 -317q0 -200 -132 -319q-133 -120 -357 -120h-246v-497h217v-121h-736v121h172v1251q-176 0 -238 -89q-63 -91 -63 -277h-178v358q74 69 288 112q85 17 191 17zM605 739h101q117 0 187 87q69 86 69 231q0 144 -69 229 q-69 86 -187 86h-101v-633z" />
<glyph unicode="&#x1a5;" horiz-adv-x="1288" d="M498 584v-105q0 -186 42 -269q43 -83 139 -83q98 0 138 88t40 317t-40 316q-40 88 -138 88q-96 0 -139 -83q-42 -83 -42 -269zM179 -305v1428q0 163 104 247q104 83 307 83q54 0 115 -10t127 -29v-225h-102q0 80 -28 115q-27 36 -86 36q-66 0 -92 -47t-26 -170v-195 q40 83 109 124q68 40 169 40q204 0 322 -150q117 -149 117 -410t-117 -411q-118 -150 -322 -150q-101 0 -169 41q-69 40 -109 123v-440h147v-121h-603v121h137z" />
<glyph unicode="&#x1a6;" horiz-adv-x="1531" d="M258 1372h-172v121h688v-121h-169v-170h248q234 0 361.5 -104.5t127.5 -296.5q0 -156 -90.5 -246.5t-273.5 -116.5q80 -13 135 -59q54 -45 96 -133l196 -416h138v-121h-442l-215 451q-69 147 -105 178q-44 39 -121 39h-55l-4 -256h173v-121h-691v121h172zM605 497h118 q126 0 194 76t68 217t-68 216t-194 75h-118v-584z" />
<glyph unicode="&#x1a7;" horiz-adv-x="1331" d="M1200 72q-134 -51 -264 -76t-261 -25q-273 0 -413 117q-140 118 -140 344q0 193 83 303q85 110 272 162l202 55q182 52 229 100q47 49 47 142q0 102 -68 154q-68 51 -201 51q-163 0 -251 -71q-89 -72 -115 -226h-114v330q137 44 264 66q128 22 246 22q239 0 371 -124 q133 -123 133 -345q0 -184 -80 -283q-80 -100 -277 -156l-201 -55q-155 -43 -204.5 -93t-49.5 -140q0 -114 73 -173t212 -59q172 0 269 83t123 251h115v-354z" />
<glyph unicode="&#x1a8;" horiz-adv-x="1037" d="M955 31q-112 -30 -211.5 -45t-189.5 -15q-244 0 -360 85q-115 86 -115 266q0 139 72 217t260 131l131 37q74 21 103 52t29 85q0 66 -49 100q-51 35 -148 35q-115 0 -176 -55q-63 -55 -71 -164h-101v268q116 33 211 48q96 16 181 16q225 0 333 -84q108 -85 108 -258 q0 -130 -66 -206q-67 -77 -216 -118l-131 -37q-95 -26 -128 -61q-32 -35 -32 -99q0 -70 52 -107q51 -38 149 -38q116 0 183 62q68 63 80 182h102v-297z" />
<glyph unicode="&#x1a9;" horiz-adv-x="1303" d="M75 0l597 748l-597 745h1104v-332h-111v195h-460l359 -470l-494 -608h595v144h111v-422h-1104z" />
<glyph unicode="&#x1aa;" horiz-adv-x="610" d="M678 1523q0 -89 -43 -170q-32 -63 -118 -118q-1 -4 -1 -8l-181 -1327q-16 -116 32 -187q39 -57 105 -57q62 0 95.5 38t40.5 116h101v-228q-70 -19 -143 -28.5t-149 -9.5q-187 0 -299 91q-125 102 -102 269l168 1229q-33 -2 -67 -2q-57 0 -100 11q-136 37 -136 189 q0 222 313 225q117 1 218 -83q67 -55 92 -124q23 23 39 51q25 44 36 123h99zM197 1223v4q17 124 -26 170q-26 28 -52 30q-119 7 -119 -81q0 -127 165 -125q15 0 32 2z" />
<glyph unicode="&#x1ab;" horiz-adv-x="851" d="M183 942h-139v121h139v330h318v-330h266v-121h-266v-651q0 -139 20 -173t72 -34h249v-209q0 -163 -104 -246.5t-306 -83.5q-54 0 -115 10t-127 29v225h102q1 -80 27.5 -115.5t86.5 -35.5q64 0 92 47q26 45 26 170v96h-4q-197 0 -267 68.5t-70 251.5v651z" />
<glyph unicode="&#x1ac;" horiz-adv-x="1371" d="M512 1356q-187 0 -238 -73q-63 -91 -63 -277h-179v358q75 69 288 112q86 17 192 17h841v-373h-122v236h-371v-1235h180v-121h-706v121h178v1235z" />
<glyph unicode="&#x1ad;" horiz-adv-x="851" d="M183 942h-139v121h139v163q0 163 103 246q105 84 307 84q54 0 115.5 -10t126.5 -29v-225h-101q-2 80 -28 116q-27 35 -87 35q-63 0 -92 -47q-26 -42 -26 -170v-163h266v-121h-266v-651q0 -139 20 -173t72 -34q58 0 85.5 43t29.5 133h134q0 -160 -79 -224 q-70 -65 -243 -65q-197 0 -267 69q-70 68 -70 251v651z" />
<glyph unicode="&#x1ae;" horiz-adv-x="1371" d="M512 41v1315h-368v-236h-123v373h1332v-373h-122v236h-371v-1307q0 -205 35 -279q35 -75 122 -75q68 0 103 44t40 138h117v-235q-78 -34 -153.5 -51t-150.5 -17q-240 0 -350 112q-111 112 -111 355z" />
<glyph unicode="&#x1af;" horiz-adv-x="1607" d="M239 1372h-171v121h691v-121h-172v-747q0 -279 78.5 -390.5t268.5 -111.5q185 0 263 112.5t78 389.5v747h-171v121h468v-121h-172v-768q0 -342 -133 -487.5t-448 -145.5q-312 0 -446 147t-134 488v766zM1572 1367v126q59 -49 92 -68.5t59 -19.5q37 0 57.5 28t20.5 80 q0 39 -7.5 79.5t-20.5 78.5h140q10 -54 15 -102t5 -90q0 -113 -41.5 -175.5t-116.5 -62.5q-47 0 -96 30.5t-107 95.5z" />
<glyph unicode="&#x1b0;" horiz-adv-x="1340" d="M1145 1063v-942h136v-121h-455v150q-57 -95 -131 -137t-186 -42q-161 0 -243.5 105.5t-82.5 310.5v555h-137v121h456v-621q0 -198 29.5 -251.5t108.5 -53.5q97 0 141.5 79t44.5 251v475h-116v121h435zM1123 818v126q59 -49 92 -68.5t59 -19.5q37 0 57.5 28t20.5 80 q0 39 -7.5 79.5t-20.5 78.5h140q10 -54 15 -102t5 -90q0 -113 -41.5 -175.5t-116.5 -62.5q-47 0 -96 30.5t-107 95.5z" />
<glyph unicode="&#x1b1;" horiz-adv-x="1640" d="M517 1336h-301v-125h-123v309h659v-193q-140 -32 -212 -184t-72 -418q0 -295 90 -449q90 -155 263 -155t263 155q89 154 89 451q0 261 -73 415q-73 153 -212 185v193h661v-309h-123v125h-301q213 -92 323 -252q110 -161 110 -381q0 -316 -203 -509q-201 -194 -534 -194 t-536 194q-202 193 -202 509q0 220 110 381q109 160 324 252z" />
<glyph unicode="&#x1b2;" horiz-adv-x="1640" d="M821 121q173 0 262.5 154.5t89.5 451.5q0 263 -73 415q-63 130 -117 130v100h108q222 -90 357 -288q110 -161 110 -381q0 -316 -202 -509.5t-535 -193.5h-180q-181 0 -214 24q-109 78 -109 313v1035h-172v121h691v-121h-173v-999q0 -129 35 -191q35 -61 122 -61z" />
<glyph unicode="&#x1b3;" horiz-adv-x="1315" d="M1082 1372q65 123 219 123q44 0 79 -10q61 -10 127 -29v-225h-102q-2 80 -28.5 115.5t-85.5 35.5q-67 0 -92 -47l-353 -665v-549h181v-121h-710v121h181v497l-400 754h-114v121h644v-121h-149l302 -569z" />
<glyph unicode="&#x1b4;" horiz-adv-x="1305" d="M999 932l-424 -1172q-43 -117 -104 -166t-165 -49q-44 0 -98 11t-118 32v222l102 -1q2 -77 32.5 -114t90.5 -37q59 0 95 35.5t72 134.5l14 37l-417 1077h-103v121h551v-121h-114l243 -629l227 629q54 151 208 150q28 0 89 -10t127 -29v-225h-102q-2 80 -28.5 115.5 t-85.5 35.5q-73 4 -92 -47z" />
<glyph unicode="&#x1b5;" horiz-adv-x="1345" d="M68 0v141l378 572h-237v137h327l334 506h-643v-223h-123v360h1166v-141l-328 -502h232v-137h-321l-376 -576h679v209h123v-346h-1211z" />
<glyph unicode="&#x1b6;" horiz-adv-x="1046" d="M878 600v-121h-203l-240 -360h443v192h107v-311h-920v121l238 358h-135v121h215l231 346h-413v-182h-107v299h891v-119l-230 -344h123z" />
<glyph unicode="&#x1b7;" horiz-adv-x="1210" d="M657 839q198 -21 299 -105q144 -121 144 -331q0 -209 -149 -320.5t-432 -111.5q-106 0 -219 20t-236 60v328h109q10 -142 80 -216.5t194 -74.5q137 0 212 84.5t75 239.5q0 162 -78 250t-221 88h-60v224l239 382h-387v-223h-123v360h881v-137z" />
<glyph unicode="&#x1b8;" horiz-adv-x="1210" d="M553 839l-327 517v137h881v-360h-123v223h-387l238 -382v-224h-59q-143 0 -221 -88t-78 -250q0 -155 74.5 -239.5t211.5 -84.5q124 0 194.5 74.5t80.5 216.5h109v-328q-124 -40 -237 -60t-219 -20q-282 0 -431 111.5t-149 320.5q0 210 144 331q100 84 298 105z" />
<glyph unicode="&#x1b9;" horiz-adv-x="1210" d="M553 452l-327 492v119h891v-299h-107v182h-413l238 -358v-225h-59q-143 0 -221 -88t-78 -250q0 -155 74.5 -239.5t211.5 -84.5q124 0 194.5 74.5t80.5 216.5h109v-328q-124 -40 -237 -60t-219 -20q-282 0 -431 111.5t-149 320.5q0 210 144 331q100 84 298 105z" />
<glyph unicode="&#x1ba;" horiz-adv-x="1210" d="M435 363h-60v225l239 358h-413v-182h-107v299h891v-119l-328 -492q443 -47 443 -236q0 -137 -318.5 -212t-318.5 -232q0 -128 218.5 -128t302.5 188h101v-184q-210 -98 -599 -98t-389 194q0 160 318.5 254.5t318.5 226.5q0 138 -299 138z" />
<glyph unicode="&#x1bb;" horiz-adv-x="1282" d="M243 1124h-108v322q110 37 217.5 55.5t217.5 18.5q256 0 399.5 -116.5t143.5 -324.5q0 -125 -56 -229h117v-137h-226q-82 -80 -216 -178l-375 -273h637v176h123v-438h-994v244l199 153q240 185 329 316h-442v137h508q29 92 29 199q0 173 -64.5 263.5t-187.5 90.5 q-106 0 -170 -71.5t-81 -207.5z" />
<glyph unicode="&#x1bc;" horiz-adv-x="1389" d="M923 840q176 -31 262.5 -133t86.5 -304q0 -209 -149 -320.5t-432 -111.5q-106 0 -219 20t-236 60v328h109q10 -142 80 -216.5t194 -74.5q137 0 211.5 84.5t74.5 239.5q0 162 -77.5 250t-220.5 88h-349v622h-172v121h1198v-352h-123v215h-554v-486q153 -1 316 -30z" />
<glyph unicode="&#x1bd;" horiz-adv-x="1046" d="M657 472q237 -53 299 -105q144 -121 144 -351q0 -209 -149 -320.5t-432 -111.5q-106 0 -219 20t-236 60v328h109q10 -142 80 -216.5t194 -74.5q137 0 212 84.5t75 239.5q0 162 -78 250t-221 88h-237v579h-136v121h994v-289h-109v168h-430v-459q101 -2 140 -11z" />
<glyph unicode="&#x1be;" horiz-adv-x="988" d="M183 1393h318v-344h133v-121h-133v-141q25 -8 105 -85q88 -85 88 -322q0 -224 -88 -317t-322 -93q-65 0 -124.5 16t-115.5 50l-3 198h102q4 -82 28 -116q26 -35 107 -35q92 0 114 47q23 48 26 282q4 211 -37 254q-29 30 -94 30h-104v232h-140v121h140v344z" />
<glyph unicode="&#x1bf;" horiz-adv-x="1319" d="M498 15q441 334 441 754q0 113 -58 155.5t-172 42.5q-92 0 -211 -183v-769zM498 955q135 192 424 192q183 0 259 -121.5t76 -256.5q0 -420 -759 -901v-173h147v-121h-603v121h137v1247h-137v121h456v-108z" />
<glyph unicode="&#x1c0;" horiz-adv-x="543" d="M369 1493v-1493h-194v1493h194z" />
<glyph unicode="&#x1c1;" horiz-adv-x="907" d="M369 1493v-1493h-194v1493h194zM733 1493v-1493h-194v1493h194z" />
<glyph unicode="&#x1c2;" horiz-adv-x="846" d="M326 851h-310v162h310v480h194v-480h310v-162h-310v-209h310v-162h-310v-480h-194v480h-310v162h310v209z" />
<glyph unicode="&#x1c3;" horiz-adv-x="543" d="M369 216v-216h-194v216h194zM369 1493v-1061h-194v1061h194z" />
<glyph unicode="&#x1c4;" horiz-adv-x="2943" d="M1666 0v141l802 1215h-643v-223h-123v360h1166v-141l-793 -1215h679v209h123v-346h-1211zM2133 1635l-201 264h148l191 -162l192 162h147l-200 -264h-277zM605 121h125q210 0 308 150t98 477q0 325 -97.5 474.5t-308.5 149.5h-125v-1251zM86 0v121h172v1251h-172v121h690 q362 0 553.5 -192t191.5 -553q0 -363 -192 -555.5t-553 -192.5h-690z" />
<glyph unicode="&#x1c5;" horiz-adv-x="2645" d="M1663 0v121l549 825h-413v-182h-107v299h891v-119l-550 -825h443v192h107v-311h-920zM2013 1262l-230 376h147l192 -227l191 227h148l-230 -376h-218zM605 121h125q210 0 308 150t98 477q0 325 -97.5 474.5t-308.5 149.5h-125v-1251zM86 0v121h172v1251h-172v121h690 q362 0 553.5 -192t191.5 -553q0 -363 -192 -555.5t-553 -192.5h-690z" />
<glyph unicode="&#x1c6;" horiz-adv-x="2335" d="M1354 0v121l549 825h-413v-182h-107v299h891v-119l-550 -825h443v192h107v-311h-920zM1704 1262l-230 376h147l192 -227l191 227h148l-230 -376h-218zM791 479v105q0 186 -43 269t-138 83q-99 0 -139 -87.5t-40 -316.5t40.5 -317t138.5 -88q95 0 138 83t43 269zM1110 121 h136v-121h-455v135q-40 -83 -109 -123.5t-170 -40.5q-203 0 -319.5 150t-116.5 411q0 262 116.5 411t319.5 149q101 0 170 -40.5t109 -123.5v508h-137v120h456v-1435z" />
<glyph unicode="&#x1c7;" horiz-adv-x="2168" d="M1161 -358v235h117q5 -94 40 -138t103 -44q87 0 122 74.5t35 279.5v1323h-196v121h716v-121h-172v-1331q0 -243 -110 -355t-351 -112q-75 0 -150.5 17t-153.5 51zM86 0v121h172v1251h-172v121h692v-121h-173v-1235h529v236h122v-373h-1170z" />
<glyph unicode="&#x1c8;" horiz-adv-x="1962" d="M1456 1364q0 81 50 136.5t124 55.5q70 0 120.5 -56t50.5 -136q0 -79 -50 -134.5t-121 -55.5q-73 0 -123.5 55t-50.5 135zM1493 942h-136v121h455v-1188q0 -163 -104 -246.5t-307 -83.5q-54 0 -115 10t-127 29v226l102 -1q2 -80 28.5 -115.5t85.5 -35.5q66 0 92 47t26 170 v1067zM86 0v121h172v1251h-172v121h692v-121h-173v-1235h529v236h122v-373h-1170z" />
<glyph unicode="&#x1c9;" horiz-adv-x="1367" d="M860 1364q0 81 50 136.5t124 55.5q70 0 120.5 -56t50.5 -136q0 -79 -50 -134.5t-121 -55.5q-73 0 -123.5 55t-50.5 135zM897 942h-136v121h455v-1188q0 -163 -104 -246.5t-307 -83.5q-54 0 -115 10t-127 29v226l102 -1q2 -80 28.5 -115.5t85.5 -35.5q66 0 92 47t26 170 v1067zM518 121h136v-121h-591v121h136v1315h-136v120h455v-1435z" />
<glyph unicode="&#x1ca;" horiz-adv-x="2556" d="M1550 -358v235h117q5 -94 40 -138t103 -44q87 0 122 74.5t35 279.5v1323h-196v121h716v-121h-172v-1331q0 -243 -110 -355t-351 -112q-75 0 -150.5 17t-153.5 51zM81 0v121h172v1251h-172v121h420l811 -1057v936h-171v121h470v-121h-172v-1372h-236l-823 1079v-958h171 v-121h-470z" />
<glyph unicode="&#x1cb;" horiz-adv-x="2351" d="M1845 1364q0 81 50 136.5t124 55.5q70 0 120.5 -56t50.5 -136q0 -79 -50 -134.5t-121 -55.5q-73 0 -123.5 55t-50.5 135zM1882 942h-136v121h455v-1188q0 -163 -104 -246.5t-307 -83.5q-54 0 -115 10t-127 29v226l102 -1q2 -80 28.5 -115.5t85.5 -35.5q66 0 92 47t26 170 v1067zM81 0v121h172v1251h-172v121h420l811 -1057v936h-171v121h470v-121h-172v-1372h-236l-823 1079v-958h171v-121h-470z" />
<glyph unicode="&#x1cc;" horiz-adv-x="2007" d="M1500 1364q0 81 50 136.5t124 55.5q70 0 120.5 -56t50.5 -136q0 -79 -50 -134.5t-121 -55.5q-73 0 -123.5 55t-50.5 135zM1537 942h-136v121h455v-1188q0 -163 -104 -246.5t-307 -83.5q-54 0 -115 10t-127 29v226l102 -1q2 -80 28.5 -115.5t85.5 -35.5q66 0 92 47t26 170 v1067zM63 0v121h136v821h-136v121h455v-150q57 95 131 137t186 42q161 0 243.5 -105.5t82.5 -310.5v-555h137v-121h-572v121h116v565q0 135 -31 187.5t-107 52.5q-96 0 -141 -78.5t-45 -249.5v-477h116v-121h-571z" />
<glyph unicode="&#x1cd;" horiz-adv-x="1430" d="M-14 0v121h109l506 1372h215l507 -1372h128v-121h-629v121h131l-111 305h-504l-113 -305h160v-121h-399zM382 547h416l-207 571zM557 1635l-201 264h148l191 -162l192 162h147l-200 -264h-277z" />
<glyph unicode="&#x1ce;" horiz-adv-x="1194" d="M1015 653v-532h137v-121h-455v135q-63 -84 -140.5 -124t-176.5 -40q-147 0 -225.5 87.5t-78.5 250.5q0 179 113 268t340 89h168v63q0 129 -55 190.5t-170 61.5q-96 0 -147.5 -43.5t-73.5 -142.5h-102v229q86 34 177.5 51t193.5 17q257 0 376 -106t119 -333zM697 334v213 h-120q-89 0 -137 -54t-48 -155t35 -151t106 -50q74 0 119 54t45 143zM433 1262l-230 376h147l192 -227l191 227h148l-230 -376h-218z" />
<glyph unicode="&#x1cf;" horiz-adv-x="862" d="M86 0v121h172v1251h-172v121h692v-121h-173v-1251h173v-121h-692zM296 1635l-201 264h148l191 -162l192 162h147l-200 -264h-277z" />
<glyph unicode="&#x1d0;" horiz-adv-x="700" d="M518 121h136v-121h-591v121h136v821h-136v121h455v-942zM242 1262l-230 376h147l192 -227l191 227h148l-230 -376h-218z" />
<glyph unicode="&#x1d1;" horiz-adv-x="1605" d="M802 92q172 0 255.5 161t83.5 492q0 332 -83.5 493t-255.5 161q-171 0 -255 -162.5t-84 -491.5q0 -328 84 -490.5t255 -162.5zM802 -29q-339 0 -532 206t-193 568t193.5 568.5t531.5 206.5q339 0 531.5 -206t192.5 -569q0 -362 -193 -568t-531 -206zM666 1635l-201 264 h148l191 -162l192 162h147l-200 -264h-277z" />
<glyph unicode="&#x1d2;" horiz-adv-x="1229" d="M616 84q100 0 141 96t41 352t-40.5 351.5t-141.5 95.5q-102 0 -143.5 -96.5t-41.5 -350.5t41.5 -351t143.5 -97zM616 -29q-253 0 -396.5 149.5t-143.5 411.5q0 263 143.5 411.5t396.5 148.5t396.5 -148.5t143.5 -411.5q0 -262 -144 -411.5t-396 -149.5zM507 1262 l-230 376h147l192 -227l191 227h148l-230 -376h-218z" />
<glyph unicode="&#x1d3;" horiz-adv-x="1607" d="M234 1372h-171v121h691v-121h-172v-747q0 -279 78.5 -390.5t268.5 -111.5q185 0 263 112.5t78 389.5v747h-171v121h468v-121h-172v-768q0 -342 -133 -487.5t-448 -145.5q-312 0 -446 147t-134 488v766zM711 1635l-201 264h148l191 -162l192 162h147l-200 -264h-277z" />
<glyph unicode="&#x1d4;" horiz-adv-x="1340" d="M1141 1063v-942h136v-121h-455v150q-57 -95 -131 -137t-186 -42q-161 0 -243.5 105.5t-82.5 310.5v555h-137v121h456v-621q0 -198 29.5 -251.5t108.5 -53.5q97 0 141.5 79t44.5 251v475h-116v121h435zM525 1262l-230 376h147l192 -227l191 227h148l-230 -376h-218z" />
<glyph unicode="&#x1d5;" horiz-adv-x="1607" d="M516 1747q0 60 39.5 103.5t93.5 43.5t92.5 -43.5t38.5 -103.5t-38.5 -103t-92.5 -43t-93.5 43t-39.5 103zM919 1747q0 60 39 103.5t93 43.5t93.5 -43.5t39.5 -103.5t-39.5 -103t-93.5 -43t-93 43t-39 103zM566 2122h567v-188h-567v188zM234 1372h-171v121h691v-121h-172 v-747q0 -279 78.5 -390.5t268.5 -111.5q185 0 263 112.5t78 389.5v747h-171v121h468v-121h-172v-768q0 -342 -133 -487.5t-448 -145.5q-312 0 -446 147t-134 488v766z" />
<glyph unicode="&#x1d6;" horiz-adv-x="1340" d="M302 1467q0 60 39.5 103.5t93.5 43.5t92.5 -43.5t38.5 -103.5t-38.5 -103t-92.5 -43t-93.5 43t-39.5 103zM705 1467q0 60 39 103.5t93 43.5t93.5 -43.5t39.5 -103.5t-39.5 -103t-93.5 -43t-93 43t-39 103zM352 1842h567v-188h-567v188zM1141 1063v-942h136v-121h-455v150 q-57 -95 -131 -137t-186 -42q-161 0 -243.5 105.5t-82.5 310.5v555h-137v121h456v-621q0 -198 29.5 -251.5t108.5 -53.5q97 0 141.5 79t44.5 251v475h-116v121h435z" />
<glyph unicode="&#x1d7;" horiz-adv-x="1607" d="M516 1747q0 60 39.5 103.5t93.5 43.5t92.5 -43.5t38.5 -103.5t-38.5 -103t-92.5 -43t-93.5 43t-39.5 103zM919 1747q0 60 39 103.5t93 43.5t93.5 -43.5t39.5 -103.5t-39.5 -103t-93.5 -43t-93 43t-39 103zM904 2165h251l-268 -264h-147zM234 1372h-171v121h691v-121h-172 v-747q0 -279 78.5 -390.5t268.5 -111.5q185 0 263 112.5t78 389.5v747h-171v121h468v-121h-172v-768q0 -342 -133 -487.5t-448 -145.5q-312 0 -446 147t-134 488v766z" />
<glyph unicode="&#x1d8;" horiz-adv-x="1340" d="M302 1467q0 60 39.5 103.5t93.5 43.5t92.5 -43.5t38.5 -103.5t-38.5 -103t-92.5 -43t-93.5 43t-39.5 103zM705 1467q0 60 39 103.5t93 43.5t93.5 -43.5t39.5 -103.5t-39.5 -103t-93.5 -43t-93 43t-39 103zM690 1885h251l-268 -264h-147zM1141 1063v-942h136v-121h-455 v150q-57 -95 -131 -137t-186 -42q-161 0 -243.5 105.5t-82.5 310.5v555h-137v121h456v-621q0 -198 29.5 -251.5t108.5 -53.5q97 0 141.5 79t44.5 251v475h-116v121h435z" />
<glyph unicode="&#x1d9;" horiz-adv-x="1607" d="M516 1747q0 60 39.5 103.5t93.5 43.5t92.5 -43.5t38.5 -103.5t-38.5 -103t-92.5 -43t-93.5 43t-39.5 103zM919 1747q0 60 39 103.5t93 43.5t93.5 -43.5t39.5 -103.5t-39.5 -103t-93.5 -43t-93 43t-39 103zM712 1901l-201 264h148l191 -162l192 162h147l-200 -264h-277z M234 1372h-171v121h691v-121h-172v-747q0 -279 78.5 -390.5t268.5 -111.5q185 0 263 112.5t78 389.5v747h-171v121h468v-121h-172v-768q0 -342 -133 -487.5t-448 -145.5q-312 0 -446 147t-134 488v766z" />
<glyph unicode="&#x1da;" horiz-adv-x="1340" d="M302 1467q0 60 39.5 103.5t93.5 43.5t92.5 -43.5t38.5 -103.5t-38.5 -103t-92.5 -43t-93.5 43t-39.5 103zM705 1467q0 60 39 103.5t93 43.5t93.5 -43.5t39.5 -103.5t-39.5 -103t-93.5 -43t-93 43t-39 103zM498 1621l-201 264h148l191 -162l192 162h147l-200 -264h-277z M1141 1063v-942h136v-121h-455v150q-57 -95 -131 -137t-186 -42q-161 0 -243.5 105.5t-82.5 310.5v555h-137v121h456v-621q0 -198 29.5 -251.5t108.5 -53.5q97 0 141.5 79t44.5 251v475h-116v121h435z" />
<glyph unicode="&#x1db;" horiz-adv-x="1607" d="M516 1747q0 60 39.5 103.5t93.5 43.5t92.5 -43.5t38.5 -103.5t-38.5 -103t-92.5 -43t-93.5 43t-39.5 103zM919 1747q0 60 39 103.5t93 43.5t93.5 -43.5t39.5 -103.5t-39.5 -103t-93.5 -43t-93 43t-39 103zM784 2165l164 -264h-148l-267 264h251zM234 1372h-171v121h691 v-121h-172v-747q0 -279 78.5 -390.5t268.5 -111.5q185 0 263 112.5t78 389.5v747h-171v121h468v-121h-172v-768q0 -342 -133 -487.5t-448 -145.5q-312 0 -446 147t-134 488v766z" />
<glyph unicode="&#x1dc;" horiz-adv-x="1340" d="M302 1467q0 60 39.5 103.5t93.5 43.5t92.5 -43.5t38.5 -103.5t-38.5 -103t-92.5 -43t-93.5 43t-39.5 103zM705 1467q0 60 39 103.5t93 43.5t93.5 -43.5t39.5 -103.5t-39.5 -103t-93.5 -43t-93 43t-39 103zM570 1885l164 -264h-148l-267 264h251zM1141 1063v-942h136v-121 h-455v150q-57 -95 -131 -137t-186 -42q-161 0 -243.5 105.5t-82.5 310.5v555h-137v121h456v-621q0 -198 29.5 -251.5t108.5 -53.5q97 0 141.5 79t44.5 251v475h-116v121h435z" />
<glyph unicode="&#x1dd;" horiz-adv-x="1172" d="M426 463q0 -210 35 -294.5t119 -84.5q82 0 118 83t36 278v18h-308zM76 582h658v8q0 206 -56 297.5t-180 91.5q-104 0 -168 -61t-82 -177h-149q39 181 154 266t322 85q249 0 381.5 -145.5t132.5 -415.5q0 -264 -136 -412t-378 -148q-237 0 -364 155.5t-135 455.5z" />
<glyph unicode="&#x1de;" horiz-adv-x="1430" d="M361 1747q0 60 39.5 103.5t93.5 43.5t92.5 -43.5t38.5 -103.5t-38.5 -103t-92.5 -43t-93.5 43t-39.5 103zM764 1747q0 60 39 103.5t93 43.5t93.5 -43.5t39.5 -103.5t-39.5 -103t-93.5 -43t-93 43t-39 103zM411 2122h567v-188h-567v188zM-14 0v121h109l506 1372h215 l507 -1372h128v-121h-629v121h131l-111 305h-504l-113 -305h160v-121h-399zM382 547h416l-207 571z" />
<glyph unicode="&#x1df;" horiz-adv-x="1194" d="M206 1467q0 60 39.5 103.5t93.5 43.5t92.5 -43.5t38.5 -103.5t-38.5 -103t-92.5 -43t-93.5 43t-39.5 103zM609 1467q0 60 39 103.5t93 43.5t93.5 -43.5t39.5 -103.5t-39.5 -103t-93.5 -43t-93 43t-39 103zM256 1842h567v-188h-567v188zM1015 653v-532h137v-121h-455v135 q-63 -84 -140.5 -124t-176.5 -40q-147 0 -225.5 87.5t-78.5 250.5q0 179 113 268t340 89h168v63q0 129 -55 190.5t-170 61.5q-96 0 -147.5 -43.5t-73.5 -142.5h-102v229q86 34 177.5 51t193.5 17q257 0 376 -106t119 -333zM697 334v213h-120q-89 0 -137 -54t-48 -155 t35 -151t106 -50q74 0 119 54t45 143z" />
<glyph unicode="&#x1e0;" horiz-adv-x="1430" d="M411 2122h567v-188h-567v188zM563 1747q0 60 39 103.5t93 43.5t93.5 -43.5t39.5 -103.5t-39.5 -103t-93.5 -43t-93 43t-39 103zM-14 0v121h109l506 1372h215l507 -1372h128v-121h-629v121h131l-111 305h-504l-113 -305h160v-121h-399zM382 547h416l-207 571z" />
<glyph unicode="&#x1e1;" horiz-adv-x="1194" d="M256 1842h567v-188h-567v188zM408 1467q0 60 39 103.5t93 43.5t93.5 -43.5t39.5 -103.5t-39.5 -103t-93.5 -43t-93 43t-39 103zM1015 653v-532h137v-121h-455v135q-63 -84 -140.5 -124t-176.5 -40q-147 0 -225.5 87.5t-78.5 250.5q0 179 113 268t340 89h168v63 q0 129 -55 190.5t-170 61.5q-96 0 -147.5 -43.5t-73.5 -142.5h-102v229q86 34 177.5 51t193.5 17q257 0 376 -106t119 -333zM697 334v213h-120q-89 0 -137 -54t-48 -155t35 -151t106 -50q74 0 119 54t45 143z" />
<glyph unicode="&#x1e2;" horiz-adv-x="1906" d="M812 1872h567v-188h-567v188zM361 545h418v827h-67zM608 0v121h171v303h-469l-129 -303h147v-121h-385v121h103l533 1251h-181v121h1396v-352h-124v215h-542v-479h330v190h122v-516h-122v190h-330v-604h560v215h122v-352h-1202z" />
<glyph unicode="&#x1e3;" horiz-adv-x="1797" d="M583 1562h567v-188h-567v188zM1362 600q0 210 -35 294.5t-120 84.5q-82 0 -117.5 -83t-35.5 -278v-18h308zM878 936q69 78 152 117t183 39q237 0 364 -155t135 -456h-658v-8q0 -206 56 -297.5t181 -91.5q102 0 165 60.5t81 177.5h151q-38 -181 -153 -266t-322 -85 q-120 0 -214 38.5t-164 117.5q-80 -78 -175 -117t-206 -39q-186 0 -282 86.5t-96 251.5q0 180 114.5 268.5t347.5 88.5h168v63q0 116 -63.5 183t-174.5 67q-93 0 -144 -43.5t-73 -140.5h-102v229q86 34 177.5 51t193.5 17q124 0 212 -38.5t146 -117.5zM706 330v217h-120 q-98 0 -146 -55t-48 -168t36 -161t116 -48q77 0 119.5 56t42.5 159z" />
<glyph unicode="&#x1e4;" horiz-adv-x="1650" d="M1268 1024q-40 198 -134.5 286.5t-266.5 88.5q-209 0 -306.5 -157.5t-97.5 -496.5q0 -336 93.5 -494.5t291.5 -158.5q75 0 140 19t118 57v143h-332v120h332v147h-162v120h484v-267h179v-120h-179v-186q-151 -78 -301.5 -116t-308.5 -38q-346 0 -543.5 207t-197.5 567 q0 361 197.5 568t543.5 207q144 0 283.5 -32t280.5 -97v-367h-114z" />
<glyph unicode="&#x1e5;" horiz-adv-x="1288" d="M791 475h-186v121h186q-1 177 -43 257q-43 83 -138 83q-99 0 -139 -87.5t-40 -316.5t40.5 -317t138.5 -88q95 0 138 83q43 82 43 265zM1110 475v-461q0 -224 -143.5 -346.5t-405.5 -122.5q-96 0 -194 16.5t-201 49.5v254h101q14 -105 76.5 -156t178.5 -51 q148 0 208.5 78.5t60.5 277.5v121q-40 -83 -109 -123.5t-170 -40.5q-203 0 -319.5 150t-116.5 411q0 262 116.5 411t319.5 149q101 0 170 -40.5t109 -123.5v135h455v-121h-136v-346h136v-121h-136z" />
<glyph unicode="&#x1e6;" horiz-adv-x="1574" d="M681 1635l-201 264h148l191 -162l192 162h147l-200 -264h-277zM1268 1024q-40 198 -134.5 286.5t-266.5 88.5q-209 0 -306.5 -157.5t-97.5 -496.5q0 -336 93.5 -494.5t291.5 -158.5q75 0 140 19t118 57v410h-162v120h484v-573q-151 -78 -301.5 -116t-308.5 -38 q-346 0 -543.5 207t-197.5 567q0 361 197.5 568t543.5 207q144 0 283.5 -32t280.5 -97v-367h-114z" />
<glyph unicode="&#x1e7;" horiz-adv-x="1288" d="M502 1262l-230 376h147l192 -227l191 227h148l-230 -376h-218zM1110 942v-928q0 -224 -143.5 -346.5t-405.5 -122.5q-96 0 -194 16.5t-201 49.5v254h101q14 -105 76.5 -156t178.5 -51q148 0 208.5 78.5t60.5 277.5v121q-40 -83 -109 -123.5t-170 -40.5q-203 0 -319.5 150 t-116.5 411q0 262 116.5 411t319.5 149q101 0 170 -40.5t109 -123.5v135h455v-121h-136zM791 584q0 186 -43 269t-138 83q-99 0 -139 -87.5t-40 -316.5t40.5 -317t138.5 -88q95 0 138 83t43 269v105z" />
<glyph unicode="&#x1e8;" horiz-adv-x="1602" d="M789 1635l-201 264h148l191 -162l192 162h147l-200 -264h-277zM86 0v121h172v1251h-172v121h692v-121h-173v-545l569 545h-144v121h502v-121h-179l-483 -461l656 -790h133v-121h-456l-598 725v-604h173v-121h-692z" />
<glyph unicode="&#x1e9;" horiz-adv-x="1277" d="M157 1635l-201 264h148l191 -162l192 162h147l-200 -264h-277zM638 0h-575v121h136v1315h-136v120h455v-999l386 385h-115v121h437v-121h-178l-246 -246l403 -575h104v-121h-549v121h112l-265 379l-89 -88v-291h120v-121z" />
<glyph unicode="&#x1ea;" horiz-adv-x="1605" d="M746 -16h112q-44 -65 -61.5 -102t-17.5 -66q0 -41 25.5 -63.5t72.5 -22.5q35 0 71.5 8t70.5 23l-1 -156q-48 -11 -91.5 -16.5t-80.5 -5.5q-102 0 -158.5 46t-56.5 130q0 52 28 106.5t87 118.5zM802 92q172 0 255.5 161t83.5 492q0 332 -83.5 493t-255.5 161 q-171 0 -255 -162.5t-84 -491.5q0 -328 84 -490.5t255 -162.5zM802 -29q-339 0 -532 206t-193 568t193.5 568.5t531.5 206.5q339 0 531.5 -206t192.5 -569q0 -362 -193 -568t-531 -206z" />
<glyph unicode="&#x1eb;" horiz-adv-x="1229" d="M560 -16h112q-44 -65 -61.5 -102t-17.5 -66q0 -41 25.5 -63.5t72.5 -22.5q35 0 71.5 8t70.5 23l-1 -156q-48 -11 -91.5 -16.5t-80.5 -5.5q-102 0 -158.5 46t-56.5 130q0 52 28 106.5t87 118.5zM616 84q100 0 141 96t41 352t-40.5 351.5t-141.5 95.5q-102 0 -143.5 -96.5 t-41.5 -350.5t41.5 -351t143.5 -97zM616 -29q-253 0 -396.5 149.5t-143.5 411.5q0 263 143.5 411.5t396.5 148.5t396.5 -148.5t143.5 -411.5q0 -262 -144 -411.5t-396 -149.5z" />
<glyph unicode="&#x1ec;" horiz-adv-x="1605" d="M518 1872h567v-188h-567v188zM746 -16h112q-44 -65 -61.5 -102t-17.5 -66q0 -41 25.5 -63.5t72.5 -22.5q35 0 71.5 8t70.5 23l-1 -156q-48 -11 -91.5 -16.5t-80.5 -5.5q-102 0 -158.5 46t-56.5 130q0 52 28 106.5t87 118.5zM802 92q172 0 255.5 161t83.5 492 q0 332 -83.5 493t-255.5 161q-171 0 -255 -162.5t-84 -491.5q0 -328 84 -490.5t255 -162.5zM802 -29q-339 0 -532 206t-193 568t193.5 568.5t531.5 206.5q339 0 531.5 -206t192.5 -569q0 -362 -193 -568t-531 -206z" />
<glyph unicode="&#x1ed;" horiz-adv-x="1229" d="M332 1562h567v-188h-567v188zM560 -16h112q-44 -65 -61.5 -102t-17.5 -66q0 -41 25.5 -63.5t72.5 -22.5q35 0 71.5 8t70.5 23l-1 -156q-48 -11 -91.5 -16.5t-80.5 -5.5q-102 0 -158.5 46t-56.5 130q0 52 28 106.5t87 118.5zM616 84q100 0 141 96t41 352t-40.5 351.5 t-141.5 95.5q-102 0 -143.5 -96.5t-41.5 -350.5t41.5 -351t143.5 -97zM616 -29q-253 0 -396.5 149.5t-143.5 411.5q0 263 143.5 411.5t396.5 148.5t396.5 -148.5t143.5 -411.5q0 -262 -144 -411.5t-396 -149.5z" />
<glyph unicode="&#x1ee;" horiz-adv-x="1210" d="M454 1635l-201 264h148l191 -162l192 162h147l-200 -264h-277zM657 839q198 -21 299 -105q144 -121 144 -331q0 -209 -149 -320.5t-432 -111.5q-106 0 -219 20t-236 60v328h109q10 -142 80 -216.5t194 -74.5q137 0 212 84.5t75 239.5q0 162 -78 250t-221 88h-60v224 l239 382h-387v-223h-123v360h881v-137z" />
<glyph unicode="&#x1ef;" horiz-adv-x="1046" d="M416 1262l-230 376h147l192 -227l191 227h148l-230 -376h-218zM657 452q198 -21 299 -105q144 -121 144 -331q0 -209 -149 -320.5t-432 -111.5q-106 0 -219 20t-236 60v328h109q10 -142 80 -216.5t194 -74.5q137 0 212 84.5t75 239.5q0 162 -78 250t-221 88h-60v225 l239 358h-413v-182h-107v299h891v-119z" />
<glyph unicode="&#x1f0;" horiz-adv-x="700" d="M197 942h-136v121h455v-1188q0 -163 -104 -246.5t-307 -83.5q-54 0 -115 10t-127 29v226l102 -1q2 -80 28.5 -115.5t85.5 -35.5q66 0 92 47t26 170v1067zM242 1262l-230 376h147l192 -227l191 227h148l-230 -376h-218z" />
<glyph unicode="&#x1f1;" horiz-adv-x="2943" d="M1666 0v141l802 1215h-643v-223h-123v360h1166v-141l-793 -1215h679v209h123v-346h-1211zM605 121h125q210 0 308 150t98 477q0 325 -97.5 474.5t-308.5 149.5h-125v-1251zM86 0v121h172v1251h-172v121h690q362 0 553.5 -192t191.5 -553q0 -363 -192 -555.5t-553 -192.5 h-690z" />
<glyph unicode="&#x1f2;" horiz-adv-x="2645" d="M1663 0v121l549 825h-413v-182h-107v299h891v-119l-550 -825h443v192h107v-311h-920zM605 121h125q210 0 308 150t98 477q0 325 -97.5 474.5t-308.5 149.5h-125v-1251zM86 0v121h172v1251h-172v121h690q362 0 553.5 -192t191.5 -553q0 -363 -192 -555.5t-553 -192.5h-690 z" />
<glyph unicode="&#x1f3;" horiz-adv-x="2335" d="M1354 0v121l549 825h-413v-182h-107v299h891v-119l-550 -825h443v192h107v-311h-920zM791 479v105q0 186 -43 269t-138 83q-99 0 -139 -87.5t-40 -316.5t40.5 -317t138.5 -88q95 0 138 83t43 269zM1110 121h136v-121h-455v135q-40 -83 -109 -123.5t-170 -40.5 q-203 0 -319.5 150t-116.5 411q0 262 116.5 411t319.5 149q101 0 170 -40.5t109 -123.5v508h-137v120h456v-1435z" />
<glyph unicode="&#x1f4;" horiz-adv-x="1574" d="M834 1900h251l-268 -264h-147zM1268 1024q-40 198 -134.5 286.5t-266.5 88.5q-209 0 -306.5 -157.5t-97.5 -496.5q0 -336 93.5 -494.5t291.5 -158.5q75 0 140 19t118 57v410h-162v120h484v-573q-151 -78 -301.5 -116t-308.5 -38q-346 0 -543.5 207t-197.5 567 q0 361 197.5 568t543.5 207q144 0 283.5 -32t280.5 -97v-367h-114z" />
<glyph unicode="&#x1f5;" horiz-adv-x="1288" d="M694 1638h251l-336 -376h-148zM1110 942v-928q0 -224 -143.5 -346.5t-405.5 -122.5q-96 0 -194 16.5t-201 49.5v254h101q14 -105 76.5 -156t178.5 -51q148 0 208.5 78.5t60.5 277.5v121q-40 -83 -109 -123.5t-170 -40.5q-203 0 -319.5 150t-116.5 411q0 262 116.5 411 t319.5 149q101 0 170 -40.5t109 -123.5v135h455v-121h-136zM791 584q0 186 -43 269t-138 83q-99 0 -139 -87.5t-40 -316.5t40.5 -317t138.5 -88q95 0 138 83t43 269v105z" />
<glyph unicode="&#x1f6;" horiz-adv-x="2250" d="M1486 625q0 -329 45 -391q81 -111 218 -111q158 0 236 112.5t78 389.5v318h-171v120h296v-459q0 -345 -133 -488q-137 -145 -421 -145q-278 0 -396 147q-99 123 -99 486v129h-534v-612h173v-121h-692v121h172v1251h-172v121h692v-121h-173v-502h534v502h-171v121h691 v-121h-173v-747z" />
<glyph unicode="&#x1f7;" horiz-adv-x="1450" d="M605 267q469 368 469 837q0 124 -56 177t-181 53q-106 0 -232 -194v-873zM605 1308q147 212 466 212q202 0 285.5 -134t83.5 -282q0 -462 -835 -991v-418h217v-121h-736v121h172v1677h-172v121h519v-185z" />
<glyph unicode="&#x1f8;" horiz-adv-x="1684" d="M817 1899l164 -264h-148l-267 264h251zM81 0v121h172v1251h-172v121h420l811 -1057v936h-171v121h470v-121h-172v-1372h-236l-823 1079v-958h171v-121h-470z" />
<glyph unicode="&#x1f9;" horiz-adv-x="1340" d="M515 1638l232 -376h-147l-336 376h251zM63 0v121h136v821h-136v121h455v-150q57 95 131 137t186 42q161 0 243.5 -105.5t82.5 -310.5v-555h137v-121h-572v121h116v565q0 135 -31 187.5t-107 52.5q-96 0 -141 -78.5t-45 -249.5v-477h116v-121h-571z" />
<glyph unicode="&#x1fa;" horiz-adv-x="1430" d="M382 547h416l-205 571zM591 1430q0 -54 35.5 -92.5t82.5 -38.5q50 0 84.5 38.5t34.5 92.5t-35 92.5t-84 38.5q-47 0 -82.5 -38.5t-35.5 -92.5zM787 1900h251l-216 -213q37 -21 69 -56q75 -84 75 -201q0 -74 -28 -133q-12 -27 -31 -50l416 -1126h128v-121h-629v121h131 l-111 305h-504l-113 -305h160v-121h-399v121h109l417 1126q-18 22 -30 49q-28 60 -28 134q0 117 75 201q60 68 141 81z" />
<glyph unicode="&#x1fb;" horiz-adv-x="1194" d="M1015 653v-532h137v-121h-455v135q-63 -84 -140.5 -124t-176.5 -40q-147 0 -225.5 87.5t-78.5 250.5q0 179 113 268t340 89h168v63q0 129 -55 190.5t-170 61.5q-96 0 -147.5 -43.5t-73.5 -142.5h-102v229q86 34 177.5 51t193.5 17q257 0 376 -106t119 -333zM697 334v213 h-120q-89 0 -137 -54t-48 -155t35 -151t106 -50q74 0 119 54t45 143zM617 1900h251l-215 -213q37 -20 68 -55q75 -84 75 -202t-75 -201.5t-181 -83.5t-181 83.5t-75 201.5t75 202q61 67 142 80zM422 1430q0 -55 34.5 -93t83.5 -38q50 0 84 38.5t34 92.5t-34.5 92.5 t-83.5 38.5q-50 0 -84 -38.5t-34 -92.5z" />
<glyph unicode="&#x1fc;" horiz-adv-x="1906" d="M1108 1900h251l-268 -264h-147zM361 545h418v827h-67zM608 0v121h171v303h-469l-129 -303h147v-121h-385v121h103l533 1251h-181v121h1396v-352h-124v215h-542v-479h330v190h122v-516h-122v190h-330v-604h560v215h122v-352h-1202z" />
<glyph unicode="&#x1fd;" horiz-adv-x="1797" d="M961 1638h251l-336 -376h-148zM1362 600q0 210 -35 294.5t-120 84.5q-82 0 -117.5 -83t-35.5 -278v-18h308zM878 936q69 78 152 117t183 39q237 0 364 -155t135 -456h-658v-8q0 -206 56 -297.5t181 -91.5q102 0 165 60.5t81 177.5h151q-38 -181 -153 -266t-322 -85 q-120 0 -214 38.5t-164 117.5q-80 -78 -175 -117t-206 -39q-186 0 -282 86.5t-96 251.5q0 180 114.5 268.5t347.5 88.5h168v63q0 116 -63.5 183t-174.5 67q-93 0 -144 -43.5t-73 -140.5h-102v229q86 34 177.5 51t193.5 17q124 0 212 -38.5t146 -117.5zM706 330v217h-120 q-98 0 -146 -55t-48 -168t36 -161t116 -48q77 0 119.5 56t42.5 159z" />
<glyph unicode="&#x1fe;" horiz-adv-x="1605" d="M812 1900h251l-268 -264h-147zM482 479l609 678q-38 119 -111.5 180.5t-177.5 61.5q-171 0 -255 -162.5t-84 -491.5q0 -76 4.5 -142t14.5 -124zM514 334q40 -122 112 -182t176 -60q175 0 258 167t83 525q0 65 -5.5 115.5t-17.5 93.5zM1364 1280q81 -104 121.5 -237.5 t40.5 -297.5q0 -362 -193 -568t-531 -206q-142 0 -261.5 39t-214.5 117l-184 -205l-81 90l180 201q-82 102 -123 235.5t-41 296.5q0 362 193.5 568.5t531.5 206.5q144 0 263.5 -38.5t213.5 -115.5l183 203l81 -90z" />
<glyph unicode="&#x1ff;" horiz-adv-x="1229" d="M699 1638h251l-336 -376h-148zM433 416l348 385q-15 90 -55.5 134t-109.5 44q-99 0 -141 -95.5t-42 -330.5v-137zM450 262q14 -89 55 -133.5t111 -44.5q98 0 139 94t41 330v141zM1036 913q59 -72 89.5 -167.5t30.5 -213.5q0 -262 -144 -411.5t-396 -149.5 q-100 0 -184 24.5t-156 74.5l-154 -172l-76 86l148 163q-59 75 -88.5 171.5t-29.5 213.5q0 263 143.5 411.5t396.5 148.5q104 0 189 -25t150 -74l151 168l78 -86z" />
<glyph unicode="&#x200;" horiz-adv-x="1430" d="M510 1904l164 -264h-148l-267 264h251zM809 1904l163 -264h-147l-267 264h251zM-14 0v121h109l506 1372h215l507 -1372h128v-121h-629v121h131l-111 305h-504l-113 -305h160v-121h-399zM382 547h416l-207 571z" />
<glyph unicode="&#x201;" horiz-adv-x="1194" d="M322 1638l203 -376h-148l-267 376h212zM652 1638l170 -376h-146l-219 376h195zM1015 653v-532h137v-121h-455v135q-63 -84 -140.5 -124t-176.5 -40q-147 0 -225.5 87.5t-78.5 250.5q0 179 113 268t340 89h168v63q0 129 -55 190.5t-170 61.5q-96 0 -147.5 -43.5 t-73.5 -142.5h-102v229q86 34 177.5 51t193.5 17q257 0 376 -106t119 -333zM697 334v213h-120q-89 0 -137 -54t-48 -155t35 -151t106 -50q74 0 119 54t45 143z" />
<glyph unicode="&#x202;" horiz-adv-x="1430" d="M1002 1651h-112q-6 73 -56.5 112t-139.5 39t-139.5 -39t-55.5 -112h-113q0 146 81.5 228.5t226.5 82.5q147 0 226.5 -81t81.5 -230zM-14 0v121h109l506 1372h215l507 -1372h128v-121h-629v121h131l-111 305h-504l-113 -305h160v-121h-399zM382 547h416l-207 571z" />
<glyph unicode="&#x203;" horiz-adv-x="1194" d="M848 1278h-112q-6 73 -56.5 112t-139.5 39t-139.5 -39t-55.5 -112h-113q0 146 81.5 228.5t226.5 82.5q147 0 226.5 -81t81.5 -230zM1015 653v-532h137v-121h-455v135q-63 -84 -140.5 -124t-176.5 -40q-147 0 -225.5 87.5t-78.5 250.5q0 179 113 268t340 89h168v63 q0 129 -55 190.5t-170 61.5q-96 0 -147.5 -43.5t-73.5 -142.5h-102v229q86 34 177.5 51t193.5 17q257 0 376 -106t119 -333zM697 334v213h-120q-89 0 -137 -54t-48 -155t35 -151t106 -50q74 0 119 54t45 143z" />
<glyph unicode="&#x204;" horiz-adv-x="1404" d="M553 1904l164 -264h-148l-267 264h251zM852 1904l163 -264h-147l-267 264h251zM86 0v121h172v1251h-172v121h1208v-352h-124v215h-565v-479h352v190h123v-516h-123v190h-352v-604h582v215h123v-352h-1224z" />
<glyph unicode="&#x205;" horiz-adv-x="1172" d="M368 1638l203 -376h-148l-267 376h212zM698 1638l170 -376h-146l-219 376h195zM739 600q0 210 -35 294.5t-120 84.5q-82 0 -117.5 -83t-35.5 -278v-18h308zM1089 481h-658v-8q0 -206 56 -297.5t180 -91.5q103 0 167 61t82 177h150q-39 -181 -154.5 -266t-321.5 -85 q-249 0 -381.5 145.5t-132.5 415.5q0 264 135.5 412t378.5 148q237 0 364 -155.5t135 -455.5z" />
<glyph unicode="&#x206;" horiz-adv-x="1404" d="M1041 1651h-112q-6 73 -56.5 112t-139.5 39t-139.5 -39t-55.5 -112h-113q0 146 81.5 228.5t226.5 82.5q147 0 226.5 -81t81.5 -230zM86 0v121h172v1251h-172v121h1208v-352h-124v215h-565v-479h352v190h123v-516h-123v190h-352v-604h582v215h123v-352h-1224z" />
<glyph unicode="&#x207;" horiz-adv-x="1172" d="M894 1278h-112q-6 73 -56.5 112t-139.5 39t-139.5 -39t-55.5 -112h-113q0 146 81.5 228.5t226.5 82.5q147 0 226.5 -81t81.5 -230zM739 600q0 210 -35 294.5t-120 84.5q-82 0 -117.5 -83t-35.5 -278v-18h308zM1089 481h-658v-8q0 -206 56 -297.5t180 -91.5q103 0 167 61 t82 177h150q-39 -181 -154.5 -266t-321.5 -85q-249 0 -381.5 145.5t-132.5 415.5q0 264 135.5 412t378.5 148q237 0 364 -155.5t135 -455.5z" />
<glyph unicode="&#x208;" horiz-adv-x="862" d="M254 1904l164 -264h-148l-267 264h251zM553 1904l163 -264h-147l-267 264h251zM86 0v121h172v1251h-172v121h692v-121h-173v-1251h173v-121h-692z" />
<glyph unicode="&#x209;" horiz-adv-x="700" d="M518 121h136v-121h-591v121h136v821h-136v121h455v-942zM125 1641l203 -376h-148l-267 376h212zM455 1641l170 -376h-146l-219 376h195z" />
<glyph unicode="&#x20a;" horiz-adv-x="862" d="M739 1651h-112q-6 73 -56.5 112t-139.5 39t-139.5 -39t-55.5 -112h-113q0 146 81.5 228.5t226.5 82.5q147 0 226.5 -81t81.5 -230zM86 0v121h172v1251h-172v121h692v-121h-173v-1251h173v-121h-692z" />
<glyph unicode="&#x20b;" horiz-adv-x="700" d="M518 121h136v-121h-591v121h136v821h-136v121h455v-942zM651 1260h-112q-6 73 -56.5 112t-139.5 39t-139.5 -39t-55.5 -112h-113q0 146 81.5 228.5t226.5 82.5q147 0 226.5 -81t81.5 -230z" />
<glyph unicode="&#x20c;" horiz-adv-x="1605" d="M625 1904l164 -264h-148l-267 264h251zM924 1904l163 -264h-147l-267 264h251zM802 92q172 0 255.5 161t83.5 492q0 332 -83.5 493t-255.5 161q-171 0 -255 -162.5t-84 -491.5q0 -328 84 -490.5t255 -162.5zM802 -29q-339 0 -532 206t-193 568t193.5 568.5t531.5 206.5 q339 0 531.5 -206t192.5 -569q0 -362 -193 -568t-531 -206z" />
<glyph unicode="&#x20d;" horiz-adv-x="1229" d="M397 1638l203 -376h-148l-267 376h212zM727 1638l170 -376h-146l-219 376h195zM616 84q100 0 141 96t41 352t-40.5 351.5t-141.5 95.5q-102 0 -143.5 -96.5t-41.5 -350.5t41.5 -351t143.5 -97zM616 -29q-253 0 -396.5 149.5t-143.5 411.5q0 263 143.5 411.5t396.5 148.5 t396.5 -148.5t143.5 -411.5q0 -262 -144 -411.5t-396 -149.5z" />
<glyph unicode="&#x20e;" horiz-adv-x="1605" d="M1111 1651h-112q-6 73 -56.5 112t-139.5 39t-139.5 -39t-55.5 -112h-113q0 146 81.5 228.5t226.5 82.5q147 0 226.5 -81t81.5 -230zM802 92q172 0 255.5 161t83.5 492q0 332 -83.5 493t-255.5 161q-171 0 -255 -162.5t-84 -491.5q0 -328 84 -490.5t255 -162.5zM802 -29 q-339 0 -532 206t-193 568t193.5 568.5t531.5 206.5q339 0 531.5 -206t192.5 -569q0 -362 -193 -568t-531 -206z" />
<glyph unicode="&#x20f;" horiz-adv-x="1229" d="M923 1278h-112q-6 73 -56.5 112t-139.5 39t-139.5 -39t-55.5 -112h-113q0 146 81.5 228.5t226.5 82.5q147 0 226.5 -81t81.5 -230zM616 84q100 0 141 96t41 352t-40.5 351.5t-141.5 95.5q-102 0 -143.5 -96.5t-41.5 -350.5t41.5 -351t143.5 -97zM616 -29 q-253 0 -396.5 149.5t-143.5 411.5q0 263 143.5 411.5t396.5 148.5t396.5 -148.5t143.5 -411.5q0 -262 -144 -411.5t-396 -149.5z" />
<glyph unicode="&#x210;" horiz-adv-x="1531" d="M596 1904l164 -264h-148l-267 264h251zM895 1904l163 -264h-147l-267 264h251zM978 729q80 -13 135 -59t96 -133l196 -416h138v-121h-442l-215 451q-62 140 -105.5 178.5t-120.5 38.5h-55v-547h173v-121h-692v121h172v1251h-172v121h767q234 0 361.5 -104.5t127.5 -296.5 q0 -156 -90.5 -246.5t-273.5 -116.5zM605 788h118q126 0 194 76t68 217t-68 216t-194 75h-118v-584z" />
<glyph unicode="&#x211;" horiz-adv-x="971" d="M379 1638l203 -376h-148l-267 376h212zM709 1638l170 -376h-146l-219 376h195zM990 1075v-317h-102q-5 85 -41 126.5t-105 41.5q-104 0 -164 -102t-60 -283v-420h173v-121h-628v121h136v821h-146v121h465v-189q46 111 123 164.5t189 53.5q28 0 68 -4.5t92 -12.5z" />
<glyph unicode="&#x212;" horiz-adv-x="1531" d="M1086 1651h-112q-6 73 -56.5 112t-139.5 39t-139.5 -39t-55.5 -112h-113q0 146 81.5 228.5t226.5 82.5q147 0 226.5 -81t81.5 -230zM978 729q80 -13 135 -59t96 -133l196 -416h138v-121h-442l-215 451q-62 140 -105.5 178.5t-120.5 38.5h-55v-547h173v-121h-692v121h172 v1251h-172v121h767q234 0 361.5 -104.5t127.5 -296.5q0 -156 -90.5 -246.5t-273.5 -116.5zM605 788h118q126 0 194 76t68 217t-68 216t-194 75h-118v-584z" />
<glyph unicode="&#x213;" horiz-adv-x="971" d="M905 1278h-112q-6 73 -56.5 112t-139.5 39t-139.5 -39t-55.5 -112h-113q0 146 81.5 228.5t226.5 82.5q147 0 226.5 -81t81.5 -230zM990 1075v-317h-102q-5 85 -41 126.5t-105 41.5q-104 0 -164 -102t-60 -283v-420h173v-121h-628v121h136v821h-146v121h465v-189 q46 111 123 164.5t189 53.5q28 0 68 -4.5t92 -12.5z" />
<glyph unicode="&#x214;" horiz-adv-x="1607" d="M668 1904l164 -264h-148l-267 264h251zM967 1904l163 -264h-147l-267 264h251zM234 1372h-171v121h691v-121h-172v-747q0 -279 78.5 -390.5t268.5 -111.5q185 0 263 112.5t78 389.5v747h-171v121h468v-121h-172v-768q0 -342 -133 -487.5t-448 -145.5q-312 0 -446 147 t-134 488v766z" />
<glyph unicode="&#x215;" horiz-adv-x="1340" d="M418 1638l203 -376h-148l-267 376h212zM748 1638l170 -376h-146l-219 376h195zM1141 1063v-942h136v-121h-455v150q-57 -95 -131 -137t-186 -42q-161 0 -243.5 105.5t-82.5 310.5v555h-137v121h456v-621q0 -198 29.5 -251.5t108.5 -53.5q97 0 141.5 79t44.5 251v475h-116 v121h435z" />
<glyph unicode="&#x216;" horiz-adv-x="1607" d="M1157 1651h-112q-6 73 -56.5 112t-139.5 39t-139.5 -39t-55.5 -112h-113q0 146 81.5 228.5t226.5 82.5q147 0 226.5 -81t81.5 -230zM234 1372h-171v121h691v-121h-172v-747q0 -279 78.5 -390.5t268.5 -111.5q185 0 263 112.5t78 389.5v747h-171v121h468v-121h-172v-768 q0 -342 -133 -487.5t-448 -145.5q-312 0 -446 147t-134 488v766z" />
<glyph unicode="&#x217;" horiz-adv-x="1340" d="M944 1278h-112q-6 73 -56.5 112t-139.5 39t-139.5 -39t-55.5 -112h-113q0 146 81.5 228.5t226.5 82.5q147 0 226.5 -81t81.5 -230zM1141 1063v-942h136v-121h-455v150q-57 -95 -131 -137t-186 -42q-161 0 -243.5 105.5t-82.5 310.5v555h-137v121h456v-621 q0 -198 29.5 -251.5t108.5 -53.5q97 0 141.5 79t44.5 251v475h-116v121h435z" />
<glyph unicode="&#x218;" horiz-adv-x="1331" d="M142 72v354h114q27 -168 124 -251t269 -83q139 0 212 59t73 173q0 90 -49.5 140t-204.5 93l-201 55q-197 56 -277 155.5t-80 283.5q0 222 132.5 345.5t371.5 123.5q118 0 245.5 -22t264.5 -66v-330h-114q-27 154 -115 225.5t-251 71.5q-133 0 -201 -51.5t-68 -153.5 q0 -93 47 -141.5t229 -100.5l202 -55q187 -52 271 -162t84 -303q0 -226 -140 -343.5t-413 -117.5q-131 0 -261 25t-264 76zM459 -400q70 42 103 94t33 121v43h193v-4q0 -111 -63 -190q-62 -80 -192 -135z" />
<glyph unicode="&#x219;" horiz-adv-x="1037" d="M86 31v297h102q13 -119 80.5 -181.5t183.5 -62.5q97 0 148.5 37.5t51.5 107.5q0 64 -32.5 99t-127.5 61l-131 37q-149 41 -215.5 117.5t-66.5 206.5q0 173 108 257.5t333 84.5q85 0 180.5 -15.5t212.5 -48.5v-268h-102q-8 109 -69.5 164t-177.5 55q-97 0 -147 -34.5 t-50 -100.5q0 -54 29 -85t104 -52l130 -37q188 -53 260 -131t72 -217q0 -180 -115.5 -265.5t-359.5 -85.5q-89 0 -189 15t-212 45zM287 -400q70 42 103 94t33 121v43h193v-4q0 -111 -63 -190q-62 -80 -192 -135z" />
<glyph unicode="&#x21a;" horiz-adv-x="1371" d="M475 -400q70 42 103 94t33 121v43h193v-4q0 -111 -63 -190q-62 -80 -192 -135zM334 0v121h178v1235h-368v-236h-123v373h1332v-373h-122v236h-371v-1235h180v-121h-706z" />
<glyph unicode="&#x21b;" horiz-adv-x="851" d="M287 -400q70 42 103 94t33 121v43h193v-4q0 -111 -63 -190q-62 -80 -192 -135zM183 942h-139v121h139v330h318v-330h266v-121h-266v-651q0 -139 20 -173t72 -34q58 0 85.5 43t29.5 133h134q-8 -160 -78.5 -224.5t-243.5 -64.5q-197 0 -267 68.5t-70 251.5v651z" />
<glyph unicode="&#x21c;" horiz-adv-x="1272" d="M238 1024h-115v367q144 65 245.5 96t239.5 33q221 3 358.5 -109.5t137.5 -278t-68 -275.5t-186 -183q132 -19 209 -133t77 -230q0 -179 -215 -357q-144 -119 -377.5 -231t-420.5 -153v129q107 27 320 156q315 191 315 423q0 111 -57 178q-98 117 -235 39l-187 -107v131 l192 138q135 97 188 193q62 111 62 260.5t-62 219.5q-79 87 -150 69q-213 -55 -271 -375z" />
<glyph unicode="&#x21d;" horiz-adv-x="1119" d="M449 973q-103 0 -173 -65.5t-84 -200.5h-101v295q213 85 424 85t335 -100t124 -214q0 -204 -229 -332q120 -15 189 -107.5t69 -186.5q0 -229 -574 -473q-172 -73 -338 -107v113q133 34 275 112q289 157 289 312q0 95 -50.5 150t-114.5 56q-55 0 -93 -15l-166 -65v113 l169 87q96 50 165 155q57 86 57 173q0 106 -52 158q-56 57 -121 57z" />
<glyph unicode="&#x21e;" horiz-adv-x="1741" d="M732 1635l-201 264h148l191 -162l192 162h147l-200 -264h-277zM86 0v121h172v1251h-172v121h692v-121h-173v-502h534v502h-171v121h691v-121h-173v-1251h173v-121h-691v121h171v612h-534v-612h173v-121h-692z" />
<glyph unicode="&#x21f;" horiz-adv-x="1340" d="M159 1635l-201 264h148l191 -162l192 162h147l-200 -264h-277zM63 0v121h136v1315h-142v120h461v-643q57 95 131 137t186 42q161 0 243.5 -105.5t82.5 -310.5v-555h137v-121h-572v121h116v565q0 135 -31 187.5t-107 52.5q-96 0 -141 -78.5t-45 -249.5v-477h116v-121h-571 z" />
<glyph unicode="&#x220;" horiz-adv-x="1607" d="M63 0v121h171v1251h-136v121h484v-154q73 97 166 140q92 42 236 42q203 0 307 -141t104 -415v-1270h172v-121h-689v121h170v1232q0 249 -44.5 346t-153.5 97q-136 0 -203 -127q-65 -122 -65 -402v-720h172v-121h-691z" />
<glyph unicode="&#x221;" horiz-adv-x="1457" d="M724 42q-5 -9 -42 -30q-69 -41 -170 -41q-203 0 -319.5 150t-116.5 411q0 262 116.5 411t319.5 149q101 0 170 -40.5t109 -123.5v508h-137v120h456v-1163l80 2q41 0 99 -11q136 -26 136 -189q0 -222 -313 -225q-126 -1 -218 82q-20 19 -18 23q-23 -23 -39 -51 q-25 -44 -36 -123h-99q0 78 22 141zM1110 303v-4q0 -124 25 -170q16 -27 52 -30q119 -7 119 81q0 127 -165 125q-15 0 -31 -2zM791 479v105q0 186 -43 269t-138 83q-99 0 -139 -87.5t-40 -316.5t40.5 -317t138.5 -88q95 0 138 83t43 269z" />
<glyph unicode="&#x222;" horiz-adv-x="1295" d="M392 1116q0 -53 277 -175q196 104 196 203q0 269 -189 269v107q391 0 391 -383q0 -157 -207 -295q339 -205 339 -474q0 -397 -609 -397q-516 0 -516 397q0 222 257 397q-182 130 -182 298q0 289 354 289v-108q-111 0 -111 -128zM590 92q287 0 287 269q0 140 -365 303 q-225 -125 -225 -296q0 -276 303 -276z" />
<glyph unicode="&#x223;" horiz-adv-x="1134" d="M792 1232q0 114 -126 265l101 59q195 -158 195 -368q0 -139 -202 -294q282 -190 282 -516q0 -407 -488 -407q-462 0 -462 407q0 221 251 405q-194 142 -194 386q0 209 188 387l79 -46q-105 -95 -105 -242q0 -124 309 -287q172 102 172 251zM554 80q224 0 224 298 q0 169 -299 317q-210 -118 -210 -317q0 -298 285 -298z" />
<glyph unicode="&#x224;" horiz-adv-x="1345" d="M68 0v141l802 1215h-643v-223h-123v360h1166v-141l-793 -1215h545h257v-26q0 -221 -83.5 -380.5t-255.5 -268.5l-99 141q100 90 137 188q39 100 44 209h-954z" />
<glyph unicode="&#x225;" horiz-adv-x="1046" d="M65 0v121l549 825h-413v-182h-107v299h891v-119l-550 -825h293h257v-8q0 -221 -83.5 -380.5t-256.5 -268.5l-99 141q94 84 138 188q39 91 43 209h-662z" />
<glyph unicode="&#x226;" horiz-adv-x="1430" d="M563 1776q0 60 39 103.5t93 43.5t93.5 -43.5t39.5 -103.5t-39.5 -103t-93.5 -43t-93 43t-39 103zM-14 0v121h109l506 1372h215l507 -1372h128v-121h-629v121h131l-111 305h-504l-113 -305h160v-121h-399zM382 547h416l-207 571z" />
<glyph unicode="&#x227;" horiz-adv-x="1194" d="M408 1468q0 60 39.5 103t93.5 43t93 -43t39 -103q0 -59 -39 -103t-93 -44t-93.5 44t-39.5 103zM1015 653v-532h137v-121h-455v135q-63 -84 -140.5 -124t-176.5 -40q-147 0 -225.5 87.5t-78.5 250.5q0 179 113 268t340 89h168v63q0 129 -55 190.5t-170 61.5 q-96 0 -147.5 -43.5t-73.5 -142.5h-102v229q86 34 177.5 51t193.5 17q257 0 376 -106t119 -333zM697 334v213h-120q-89 0 -137 -54t-48 -155t35 -151t106 -50q74 0 119 54t45 143z" />
<glyph unicode="&#x228;" horiz-adv-x="1404" d="M797 0q55 -64 82 -118.5t27 -106.5q0 -86 -58.5 -131t-167.5 -45q-43 0 -88.5 6.5t-92.5 19.5l-1 156q40 -17 78.5 -26t70.5 -9q54 0 82.5 23.5t28.5 68.5q0 28 -15 61t-61 101h115zM86 0v121h172v1251h-172v121h1208v-352h-124v215h-565v-479h352v190h123v-516h-123v190 h-352v-604h582v215h123v-352h-1224z" />
<glyph unicode="&#x229;" horiz-adv-x="1172" d="M649 0q55 -64 82 -118.5t27 -106.5q0 -86 -58.5 -131t-167.5 -45q-43 0 -88.5 6.5t-92.5 19.5l-1 156q40 -17 78.5 -26t70.5 -9q54 0 82.5 23.5t28.5 68.5q0 28 -15 61t-61 101h115zM739 600q0 210 -35 294.5t-120 84.5q-82 0 -117.5 -83t-35.5 -278v-18h308zM1089 481 h-658v-8q0 -206 56 -297.5t180 -91.5q103 0 167 61t82 177h150q-39 -181 -154.5 -266t-321.5 -85q-249 0 -381.5 145.5t-132.5 415.5q0 264 135.5 412t378.5 148q237 0 364 -155.5t135 -455.5z" />
<glyph unicode="&#x22a;" horiz-adv-x="1605" d="M470 1747q0 60 39.5 103.5t93.5 43.5t92.5 -43.5t38.5 -103.5t-38.5 -103t-92.5 -43t-93.5 43t-39.5 103zM873 1747q0 60 39 103.5t93 43.5t93.5 -43.5t39.5 -103.5t-39.5 -103t-93.5 -43t-93 43t-39 103zM520 2122h567v-188h-567v188zM802 92q172 0 255.5 161t83.5 492 q0 332 -83.5 493t-255.5 161q-171 0 -255 -162.5t-84 -491.5q0 -328 84 -490.5t255 -162.5zM802 -29q-339 0 -532 206t-193 568t193.5 568.5t531.5 206.5q339 0 531.5 -206t192.5 -569q0 -362 -193 -568t-531 -206z" />
<glyph unicode="&#x22b;" horiz-adv-x="1229" d="M282 1467q0 60 39.5 103.5t93.5 43.5t92.5 -43.5t38.5 -103.5t-38.5 -103t-92.5 -43t-93.5 43t-39.5 103zM685 1467q0 60 39 103.5t93 43.5t93.5 -43.5t39.5 -103.5t-39.5 -103t-93.5 -43t-93 43t-39 103zM332 1842h567v-188h-567v188zM616 84q100 0 141 96t41 352 t-40.5 351.5t-141.5 95.5q-102 0 -143.5 -96.5t-41.5 -350.5t41.5 -351t143.5 -97zM616 -29q-253 0 -396.5 149.5t-143.5 411.5q0 263 143.5 411.5t396.5 148.5t396.5 -148.5t143.5 -411.5q0 -262 -144 -411.5t-396 -149.5z" />
<glyph unicode="&#x22c;" horiz-adv-x="1605" d="M518 2122h567v-188h-567v188zM482 1601v12q0 123 48.5 189.5t138.5 66.5q55 0 127 -39l12 -6l65 -33q25 -13 41 -17.5t32 -4.5q37 0 59 25t22 69v4h99v-15q0 -122 -48 -187.5t-139 -65.5q-30 0 -60.5 9t-77.5 36l-52 28q-24 13 -47 20t-40 7q-37 0 -59 -25.5t-22 -68.5 v-4h-99zM802 92q172 0 255.5 161t83.5 492q0 332 -83.5 493t-255.5 161q-171 0 -255 -162.5t-84 -491.5q0 -328 84 -490.5t255 -162.5zM802 -29q-339 0 -532 206t-193 568t193.5 568.5t531.5 206.5q339 0 531.5 -206t192.5 -569q0 -362 -193 -568t-531 -206z" />
<glyph unicode="&#x22d;" horiz-adv-x="1229" d="M331 1830h567v-188h-567v188zM295 1309v12q0 123 48.5 189.5t138.5 66.5q55 0 127 -39l12 -6l65 -33q25 -13 41 -17.5t32 -4.5q37 0 59 25t22 69v4h99v-15q0 -122 -48 -187.5t-139 -65.5q-30 0 -60.5 9t-77.5 36l-52 28q-24 13 -47 20t-40 7q-37 0 -59 -25.5t-22 -68.5 v-4h-99zM616 84q100 0 141 96t41 352t-40.5 351.5t-141.5 95.5q-102 0 -143.5 -96.5t-41.5 -350.5t41.5 -351t143.5 -97zM616 -29q-253 0 -396.5 149.5t-143.5 411.5q0 263 143.5 411.5t396.5 148.5t396.5 -148.5t143.5 -411.5q0 -262 -144 -411.5t-396 -149.5z" />
<glyph unicode="&#x22e;" horiz-adv-x="1605" d="M670 1776q0 60 39 103.5t93 43.5t93.5 -43.5t39.5 -103.5t-39.5 -103t-93.5 -43t-93 43t-39 103zM802 92q172 0 255.5 161t83.5 492q0 332 -83.5 493t-255.5 161q-171 0 -255 -162.5t-84 -491.5q0 -328 84 -490.5t255 -162.5zM802 -29q-339 0 -532 206t-193 568 t193.5 568.5t531.5 206.5q339 0 531.5 -206t192.5 -569q0 -362 -193 -568t-531 -206z" />
<glyph unicode="&#x22f;" horiz-adv-x="1229" d="M483 1468q0 60 39.5 103t93.5 43t93 -43t39 -103q0 -59 -39 -103t-93 -44t-93.5 44t-39.5 103zM616 84q100 0 141 96t41 352t-40.5 351.5t-141.5 95.5q-102 0 -143.5 -96.5t-41.5 -350.5t41.5 -351t143.5 -97zM616 -29q-253 0 -396.5 149.5t-143.5 411.5 q0 263 143.5 411.5t396.5 148.5t396.5 -148.5t143.5 -411.5q0 -262 -144 -411.5t-396 -149.5z" />
<glyph unicode="&#x230;" horiz-adv-x="1605" d="M520 2122h567v-188h-567v188zM672 1747q0 60 39 103.5t93 43.5t93.5 -43.5t39.5 -103.5t-39.5 -103t-93.5 -43t-93 43t-39 103zM802 92q172 0 255.5 161t83.5 492q0 332 -83.5 493t-255.5 161q-171 0 -255 -162.5t-84 -491.5q0 -328 84 -490.5t255 -162.5zM802 -29 q-339 0 -532 206t-193 568t193.5 568.5t531.5 206.5q339 0 531.5 -206t192.5 -569q0 -362 -193 -568t-531 -206z" />
<glyph unicode="&#x231;" horiz-adv-x="1229" d="M332 1842h567v-188h-567v188zM484 1467q0 60 39 103.5t93 43.5t93.5 -43.5t39.5 -103.5t-39.5 -103t-93.5 -43t-93 43t-39 103zM616 84q100 0 141 96t41 352t-40.5 351.5t-141.5 95.5q-102 0 -143.5 -96.5t-41.5 -350.5t41.5 -351t143.5 -97zM616 -29 q-253 0 -396.5 149.5t-143.5 411.5q0 263 143.5 411.5t396.5 148.5t396.5 -148.5t143.5 -411.5q0 -262 -144 -411.5t-396 -149.5z" />
<glyph unicode="&#x232;" horiz-adv-x="1315" d="M442 1872h567v-188h-567v188zM317 0v121h181v497l-400 754h-114v121h644v-121h-149l302 -569l301 569h-134v121h385v-121h-114l-373 -702v-549h181v-121h-710z" />
<glyph unicode="&#x233;" horiz-adv-x="1071" d="M262 1562h567v-188h-567v188zM575 -240q-43 -117 -104 -166t-165 -49q-44 0 -98 11t-118 32v222l102 -1q2 -77 32.5 -114t90.5 -37q59 0 95 35.5t72 134.5l14 37l-417 1077h-103v121h551v-121h-114l243 -629l227 629h-127v121h359v-121h-116z" />
<glyph unicode="&#x234;" horiz-adv-x="1056" d="M575 222q84 -153 224 -152q124 -1 124 106q0 125 -81 124q-229 -2 -267 -78zM518 524q0 -94 24 -208q133 74 295 74q187 0 187 -218q0 -210 -303 -213q-162 -2 -280 71q-10 -32 -9 -117v-144h-123l1 144q3 101 29 180l-20 19q-120 154 -120 412v912h-136v120h455v-1032z " />
<glyph unicode="&#x235;" horiz-adv-x="1700" d="M1219 222q83 -153 224 -152q124 -1 124 106q0 125 -81 124q-230 -2 -267 -78zM1161 524q0 -94 24 -208q133 74 295 74q188 0 188 -218q0 -210 -303 -213q-162 -2 -281 71q-10 -32 -8 -117v-144h-124l1 144q4 101 30 180l-21 19q-120 154 -120 412v162q0 135 -31 187.5 t-107 52.5q-96 0 -141 -78.5t-45 -249.5v-477h116v-121h-571v121h136v821h-136v121h455v-150q57 95 131 137t186 42q161 0 243.5 -105.5t82.5 -310.5v-152z" />
<glyph unicode="&#x236;" horiz-adv-x="1040" d="M559 222q84 -153 224 -152q124 -1 124 106q0 125 -81 124q-230 -2 -267 -78zM183 520v422h-139v121h139v330h318v-330h266v-121h-266v-422q0 -90 25 -204q133 74 295 74q187 0 187 -218q0 -210 -303 -213q-162 -2 -281 71q-9 -32 -8 -117v-144h-123l1 144q3 101 29 180 l-21 19q-119 154 -119 408z" />
<glyph unicode="&#x237;" horiz-adv-x="666" d="M197 942h-136v121h455v-1188q0 -163 -104 -246.5t-307 -83.5q-54 0 -115 10t-127 29v226l102 -1q2 -80 28.5 -115.5t85.5 -35.5q66 0 92 47t26 170v1067z" />
<glyph unicode="&#x238;" horiz-adv-x="1900" d="M1110 479q0 -186 42.5 -269t138.5 -83q98 0 138 88t40 317t-40 316.5t-138 87.5q-96 0 -138.5 -83t-42.5 -269v-105zM791 121v14q-40 -83 -109 -123.5t-170 -40.5q-203 0 -319.5 150t-116.5 411q0 262 116.5 411t319.5 149q101 0 170 -40.5t109 -123.5v508h-137v120h456 v-628q40 83 108.5 123.5t169.5 40.5q204 0 321.5 -149.5t117.5 -410.5t-117.5 -411t-321.5 -150q-101 0 -169.5 40.5t-108.5 123.5v-14v-121h-319v121zM791 479v105q0 186 -43 269t-138 83q-99 0 -139 -87.5t-40 -316.5t40.5 -317t138.5 -88q95 0 138 83t43 269z" />
<glyph unicode="&#x239;" horiz-adv-x="1900" d="M1110 942v-14q40 83 109 123.5t170 40.5q203 0 319.5 -150t116.5 -411q0 -262 -116.5 -411t-319.5 -149q-101 0 -170 40.5t-109 123.5v-440h136v-120l-592 -1v121h137v440q-40 -83 -108.5 -123.5t-169.5 -40.5q-204 0 -321.5 149.5t-117.5 410.5t117.5 411t321.5 150 q101 0 169.5 -40.5t108.5 -123.5v14v121h319v-121zM791 584q0 186 -43 269t-138 83q-99 0 -139 -87.5t-40 -316.5t40.5 -317t138.5 -88q95 0 138 83t43 269v105zM1110 584v-105q0 -186 42.5 -269t138.5 -83q98 0 138 88t40 317t-40 316.5t-138 87.5q-96 0 -138.5 -83 t-42.5 -269z" />
<glyph unicode="&#x23a;" horiz-adv-x="1430" d="M55 -78l-81 90l12 13v96h86l39 43l490 1329h215l143 -386l416 462l81 -90l-450 -500l317 -858h128v-121h-629v121h131l-111 305h-333l-275 -305h151v-121h-259zM700 819l-109 299l-209 -571h74zM617 547h181l-52 143zM331 409l16 17h-9z" />
<glyph unicode="&#x23b;" horiz-adv-x="1467" d="M74 -78l-81 90l219 244q-135 194 -135 489q0 358 197.5 566.5t538.5 208.5q119 0 249 -32q96 -24 200 -65l131 146l81 -90l-138 -153v-302h-114q-14 74 -37 134l-685 -762q22 -84 58 -144q95 -160 293 -160q135 0 220 83t123 251h179q-53 -231 -190.5 -343t-369.5 -112 q-327 0 -522 192zM473 546l652 724q-15 19 -31 36q-92 93 -244 93q-197 0 -292 -160.5t-95 -493.5q0 -109 10 -199z" />
<glyph unicode="&#x23c;" horiz-adv-x="1122" d="M1040 332q-35 -182 -140.5 -271.5t-287.5 -89.5q-232 0 -369 121l-175 -194l-76 86l176 194q-92 138 -92 354q0 264 138.5 412t384.5 148q100 0 202 -21q68 -14 137 -37l115 127l77 -86l-122 -135v-227h-101q-5 53 -18 95l-443 -491q14 -80 40 -129q55 -104 179 -104 q96 0 154.5 64t70.5 184h150zM833 917q-56 62 -156 62q-133 0 -189.5 -100t-56.5 -347q0 -31 1 -60z" />
<glyph unicode="&#x23d;" horiz-adv-x="1296" d="M86 0v121h172v592h-191v137h191v522h-172v121h692v-121h-173v-522h299v-137h-299v-576h529v236h122v-373h-1170z" />
<glyph unicode="&#x23e;" horiz-adv-x="1371" d="M1040 0h-706v121h179v340l-485 -539l-81 90l566 629v715h-371v-236h-121v373h1258l68 76l81 -90l-75 -84v-275h-124v138l-368 -409v-728h179v-121zM1156 1356h-295v-327z" />
<glyph unicode="&#x23f;" horiz-adv-x="1037" d="M913 -402q-115 -38 -213 -42q-32 -1 -95 -1q-120 0 -205 59q-91 62 -125 156l-73 206q-8 21 -26 33q-29 6 -59 14q-15 3 -31 8v297h102q20 -188 171 -232q42 -10 93 -12q174 0 197 113q3 15 3 32q0 81 -56 118q-34 22 -104 42l-131 37q-150 42 -215 118q-67 76 -67 206 q0 246 221 314q91 28 220 28q167 0 393 -64v-268h-102q-16 219 -247 219q-187 0 -196 -123q-1 -6 -1 -12q0 -73 57 -107q28 -16 76 -30l130 -37q186 -53 258 -130q74 -79 74 -218q0 -210 -159 -292q-104 -54 -280 -59q5 -11 10 -23l39 -110q36 -98 72 -134t96 -36q8 0 38 37 t33 114l102 1v-222z" />
<glyph unicode="&#x240;" horiz-adv-x="1046" d="M247 0h-182v121l549 825h-413v-182h-107v299h891v-119l-550 -825q169 1 223 -153l48 -138q35 -97 72 -134q36 -36 96 -36q8 0 38 37t33 114l102 1v-222q-64 -21 -118 -32t-190 -11q-120 0 -205 59q-90 62 -124 156l-72 196q-16 44 -91 44z" />
<glyph unicode="&#x241;" horiz-adv-x="1216" d="M328 1372q-92 0 -112 -28q-24 -33 -28 -115h-102v198q56 34 118 50t124 16h354q224 0 356.5 -118.5t132.5 -317.5t-133 -318.5t-356 -119.5h-35v-498h217v-121h-735v121h172l1 619h234q117 0 187 86t70 231q0 144 -69.5 229.5t-187.5 85.5h-208z" />
<glyph unicode="&#x242;" horiz-adv-x="1008" d="M328 339q118 0 187.5 86t69.5 231q0 144 -69.5 229.5t-187.5 85.5q-92 0 -112 -27q-24 -34 -28 -116h-102v198q56 34 118 50t124 16h146q224 0 356.5 -118.5t132.5 -317.5t-133 -318q-76 -69 -183 -99v-118h217v-121h-708v121h172v218z" />
<glyph unicode="&#x243;" horiz-adv-x="1557" d="M68 363v137h190v872h-172v121h797q246 0 369 -92t123 -277q0 -133 -85 -211t-252 -98q202 -21 310 -120t108 -263q0 -222 -150.5 -327t-472.5 -105h-747v121h172v242h-190zM605 870h118q155 0 229.5 62.5t74.5 191.5q0 130 -72.5 189t-231.5 59h-118v-502zM605 121h129 q171 0 254 76t83 235q0 160 -83.5 239t-253.5 79h-129v-250h299v-137h-299v-242z" />
<glyph unicode="&#x244;" horiz-adv-x="1607" d="M234 1372h-171v121h691v-121h-172v-522h688v522h-171v121h468v-121h-172v-522h181v-137h-181v-109q0 -342 -133 -487.5t-448 -145.5q-312 0 -446 147t-134 488v107h-181v137h181v522zM1270 713h-688v-88q0 -279 78.5 -390.5t268.5 -111.5q185 0 263 112.5t78 389.5v88z " />
<glyph unicode="&#x245;" horiz-adv-x="1430" d="M225 121h160v-121h-399v121h109l506 1372h215l507 -1372h128v-121h-629v121h131l-362 997z" />
<glyph unicode="&#x246;" horiz-adv-x="1404" d="M654 -116l-109 37l22 79h-481v121h172v1251h-172v121h892l32 115l109 -37l-22 -78h197v-352h-124v215h-111l-79 -289h100v-516h-123v190h-67l-166 -604h463v215h123v-352h-624zM605 137l166 604h-166v-604zM957 983l-29 -106h29v106zM808 877l132 479h-335v-479h203z" />
<glyph unicode="&#x247;" horiz-adv-x="1172" d="M846 600q-6 186 -71 280q-17 25 -39 44l-89 -324h199zM451 -115l-105 35l25 87q-96 35 -162 109q-133 146 -133 416q0 264 135.5 412t378.5 148q40 0 77 -4l28 101l104 -35l-25 -91q108 -39 180 -127q127 -156 135 -455h-474l-96 -346q55 -51 148 -51q103 0 167 61 t82 177h150q-39 -181 -154.5 -266t-321.5 -85q-60 0 -113 8zM533 600l101 370q-22 9 -50 9q-82 0 -117.5 -83t-35.5 -278v-18h102zM447 286l53 195h-69v-8q0 -110 16 -187z" />
<glyph unicode="&#x248;" horiz-adv-x="872" d="M-135 -358v235h117q5 -94 40 -138t103 -44q87 0 122 74.5t35 279.5v664h-214v137h214v522h-196v121h716v-121h-172v-522h191v-137h-191v-672q0 -243 -110 -355t-351 -112q-75 0 -150.5 17t-153.5 51z" />
<glyph unicode="&#x249;" horiz-adv-x="712" d="M169 1364q0 81 50.5 136.5t123.5 55.5q71 0 121 -55.5t50 -136.5q0 -79 -50 -134.5t-121 -55.5q-73 0 -123.5 55t-50.5 135zM197 942h-136v121h455v-463h138v-121h-138v-604q0 -163 -104 -246.5t-307 -83.5q-54 0 -115 10t-127 29v226l102 -1q2 -80 28.5 -115.5 t85.5 -35.5q66 0 92 47t26 170v604h-134v121h134v342z" />
<glyph unicode="&#x24a;" horiz-adv-x="1563" d="M959 1490h531v-130h-182v-1311q0 -205 34.5 -279.5t121.5 -74.5q69 0 103.5 44t39.5 138h117v-235q-78 -34 -153.5 -51t-150.5 -17q-240 0 -350.5 112t-110.5 355v110q-49 -91 -135 -136q-82 -44 -208 -44q-252 0 -395 207q-144 208 -144 568q0 361 144 568 q143 206 395 206q126 0 208 -44q86 -45 135 -136v150zM959 824q0 280 -60 404t-192 124q-137 0 -193 -131q-56 -132 -56 -475t57 -475t192 -132q132 0 192 124t60 404v157z" />
<glyph unicode="&#x24b;" horiz-adv-x="1288" d="M791 928v136h455v-121h-136v-1067q0 -123 26 -170t92 -47q59 0 85.5 35.5t28.5 115.5l102 1v-226q-66 -19 -127 -29t-115 -10q-203 0 -307 83.5t-104 246.5v259q-40 -83 -109 -123.5t-170 -40.5q-203 0 -319.5 150t-116.5 411q0 262 116.5 411t319.5 149q101 0 170 -40.5 t109 -123.5zM791 584q0 186 -43 269t-138 83q-99 0 -139 -87.5t-40 -316.5t40.5 -317t138.5 -88q95 0 138 83t43 269v105z" />
<glyph unicode="&#x24c;" horiz-adv-x="1531" d="M605 788h118q126 0 194 76t68 217t-68 216t-194 75h-118v-584zM978 729q80 -13 135 -59q54 -45 96 -133l196 -416h138v-121h-442l-215 451q-62 140 -105.5 178.5t-120.5 38.5h-55v-547h173v-121h-692v121h172v547h-191v120h191v584h-172v121h767q234 0 361.5 -104.5 t127.5 -296.5q0 -156 -90.5 -246.5t-273.5 -116.5z" />
<glyph unicode="&#x24d;" horiz-adv-x="971" d="M53 479v121h146v342h-146v121h465v-189q46 111 123 164.5t189 53.5q28 0 68 -4.5t92 -12.5v-317h-102q-5 85 -41 126.5t-105 41.5q-104 0 -164 -102q-51 -85 -59 -224h233v-121h-234v-358h173v-121h-628v121h136v358h-146z" />
<glyph unicode="&#x24e;" horiz-adv-x="1315" d="M317 0v121h181v497l-231 435h-283v137h210l-96 182h-114v121h644v-121h-149l96 -182h411l96 182h-134v121h385v-121h-114l-97 -182h211v-137h-284l-203 -383v-549h181v-121h-710zM914 1053h-266l133 -250z" />
<glyph unicode="&#x24f;" horiz-adv-x="1071" d="M-24 629v121h178l-75 192h-103v121h551v-121h-114l74 -192h327l69 192h-127v121h359v-121h-116l-69 -192h185v-121h-229l-311 -869q-43 -117 -104 -166t-165 -49q-44 0 -98 11t-118 32v222l102 -1q2 -77 32.5 -114t90.5 -37q59 0 95 35.5t72 134.5l14 37l-295 764h-225z M770 629h-236l122 -316z" />
<glyph unicode="&#x250;" horiz-adv-x="1194" d="M212 410v532h-136v121h455v-135q63 84 140.5 124t176.5 40q146 0 225 -87.5t79 -250.5q0 -179 -113 -268t-341 -89h-167v-63q0 -129 55 -190.5t170 -61.5q95 0 147 43.5t73 142.5h102v-229q-85 -34 -177 -51t-194 -17q-256 0 -375.5 106t-119.5 333zM531 729v-213h120 q89 0 136.5 54t47.5 155t-34.5 151t-105.5 50q-74 0 -119 -54t-45 -143z" />
<glyph unicode="&#x251;" horiz-adv-x="1288" d="M791 479v105q0 186 -43 269t-138 83q-99 0 -139 -87.5t-40 -316.5t40.5 -317t138.5 -88q95 0 138 83t43 269zM791 1064h455v-121h-136v-822h136v-121h-455v135q-40 -83 -109 -123.5t-170 -40.5q-203 0 -319.5 150t-116.5 411q0 262 116.5 411t319.5 149q101 0 170 -40.5 t109 -123.5v16v120z" />
<glyph unicode="&#x252;" horiz-adv-x="1288" d="M530 584v-105q0 -186 43 -269t138 -83q99 0 139 87.5t40 316.5t-40.5 317t-138.5 88q-95 0 -138 -83t-43 -269zM530 -1h-454v121h136v822h-136v121h454v-135q41 83 109.5 123.5t169.5 40.5q203 0 320 -150t117 -411q0 -262 -117 -411t-320 -149q-101 0 -169.5 40.5 t-109.5 123.5v-16v-120z" />
<glyph unicode="&#x253;" horiz-adv-x="1288" d="M498 479q0 -186 42.5 -269t138.5 -83q98 0 138 88t40 317t-40 316.5t-138 87.5q-96 0 -138.5 -83t-42.5 -269v-105zM179 121v1043h1v62q0 163 104 246.5t306 83.5q54 0 115.5 -10t126.5 -29v-225h-101q-2 80 -28.5 115.5t-86.5 35.5q-65 0 -91 -47t-26 -170v-296 q40 81 108 122q68 40 169 40q204 0 321.5 -149.5t117.5 -410.5t-117.5 -411t-321.5 -150q-101 0 -169.5 40.5t-108.5 123.5v-135h-456v121h137z" />
<glyph unicode="&#x254;" horiz-adv-x="1122" d="M76 731q34 182 139.5 271.5t287.5 89.5q256 0 396.5 -147t140.5 -414q0 -264 -139 -412t-385 -148q-100 0 -202 21t-207 63v295h101q14 -135 71 -200.5t159 -65.5q134 0 190 100t56 347q0 241 -55 344.5t-179 103.5q-96 0 -154 -64t-71 -184h-149z" />
<glyph unicode="&#x255;" horiz-adv-x="1122" d="M478 222q83 -151 224 -152q227 -1 227 116q0 116 -184 114q-230 -2 -267 -78zM445 316q129 72 349 74q241 0 236 -232q-3 -199 -406 -199q-165 0 -281 71q-9 -32 -8 -117v-144h-123l1 144q3 101 29 180q-11 10 -21 19q-152 154 -152 408q0 255 152 408q153 152 403 152 q145 0 224 -24q80 -23 160 -71v-272h-85q-17 140 -72 204q-56 64 -160 64q-134 0 -202 -115q-71 -120 -69 -346q1 -94 25 -204z" />
<glyph unicode="&#x256;" horiz-adv-x="1288" d="M791 479v105q0 186 -43 269t-138 83q-99 0 -139 -87.5t-40 -316.5t40.5 -317t138.5 -88q95 0 138 83t43 269zM790 133q-40 -81 -108 -121q-69 -41 -170 -41q-203 0 -319.5 150t-116.5 411q0 262 116.5 411t319.5 149q101 0 170 -40.5t109 -123.5v508h-137v120h456v-1556 h-1v-125q0 -123 26 -170t92 -47q59 0 85.5 35.5t28.5 115.5h102v-225q-66 -19 -127 -29t-115 -10q-203 0 -307 83.5t-104 246.5v258z" />
<glyph unicode="&#x257;" horiz-adv-x="1345" d="M1110 121h136v-121h-455v135q-40 -83 -109 -123.5t-170 -40.5q-203 0 -319.5 150t-116.5 411q0 262 116.5 411t319.5 149q101 0 170 -40.5t109 -123.5v188h1v110q0 163 104 246.5t306 83.5q54 0 115.5 -10t126.5 -29v-225h-101q-2 80 -28.5 115.5t-86.5 35.5 q-65 0 -91 -47t-26 -170v-410h-1v-695zM791 479v105q0 186 -43 269t-138 83q-99 0 -139 -87.5t-40 -316.5t40.5 -317t138.5 -88q95 0 138 83t43 269z" />
<glyph unicode="&#x258;" horiz-adv-x="1172" d="M426 600h308v18q0 195 -36 278t-118 83q-84 0 -119 -84.5t-35 -294.5zM76 481q8 300 135 455.5t364 155.5q242 0 378 -148t136 -412q0 -270 -132.5 -415.5t-381.5 -145.5q-207 0 -322 85t-154 266h149q18 -116 82 -177t168 -61q124 0 180 91.5t56 297.5v8h-658z" />
<glyph unicode="&#x259;" horiz-adv-x="1172" d="M426 463q0 -210 35 -294.5t119 -84.5q82 0 118 83t36 278v18h-308zM76 582h658v8q0 206 -56 297.5t-180 91.5q-104 0 -168 -61t-82 -177h-149q39 181 154 266t322 85q249 0 381.5 -145.5t132.5 -415.5q0 -264 -136 -412t-378 -148q-237 0 -364 155.5t-135 455.5z" />
<glyph unicode="&#x25a;" horiz-adv-x="1672" d="M734 606l-308 -197q4 -167 35 -241q35 -84 119 -84q82 0 118 83q35 82 36 278v161zM724 738q-13 95 -46 150q-56 91 -180 91q-104 0 -168 -61t-82 -177h-149q39 181 154 266t322 85q249 0 381 -146q17 -18 32 -39l185 118l157 -3v-43q0 -94 42 -136q45 -44 97 -44 q89 0 97 32l106 -152q-69 -48 -72 -49q-42 -17 -127 -17q-105 0 -189 93q-73 81 -82 201l-159 -102q46 -116 46 -274q0 -264 -136 -412t-378 -148q-237 0 -364 155q-70 86 -104 216l161 103z" />
<glyph unicode="&#x25b;" horiz-adv-x="1120" d="M140 826q0 115 98 184q112 80 343 82q229 1 413 -50v-213h-100q-10 69 -77 110q-64 39 -147 40q-111 0 -170 -49q-54 -45 -54 -108q0 -69 52 -115q62 -56 177 -56h59v-151h-54q-135 0 -216 -70q-61 -53 -60 -141q1 -79 57 -133q69 -67 207 -68q135 -1 211 80q36 38 43 98 h100v-234q-241 -57 -420 -57q-202 0 -341 61q-171 75 -172 247q0 130 79 198q93 81 220 95q-124 27 -186 93t-62 157z" />
<glyph unicode="&#x25c;" horiz-adv-x="1035" d="M958 812q0 -91 -62.5 -150t-186.5 -86q127 -14 220 -95q79 -68 79 -198q0 -172 -172 -247q-139 -61 -341 -61q-179 0 -419 57v234h100q6 -60 42 -98q76 -81 211 -80q138 1 207 68q56 54 57 133q1 88 -60 141q-81 70 -215 70h-55v137h59q116 0 177 56q52 46 52 115 q0 63 -54 108q-59 49 -169 49q-84 -1 -148 -40q-67 -41 -77 -110h-100v213q184 51 413 50q231 -2 344 -82q98 -69 98 -184z" />
<glyph unicode="&#x25d;" horiz-adv-x="1672" d="M896 662q-63 -59 -187 -86q126 -14 220 -95q79 -69 79 -198q0 -172 -172 -247q-139 -61 -341 -61q-179 0 -419 57v234h100q6 -60 42 -98q76 -81 211 -80q138 1 207 68q56 54 57 133q1 88 -60 141q-81 70 -215 70h-55v137h59q116 0 177 56q52 46 52 115q0 63 -54 108 q-59 49 -169 49q-84 -1 -148 -40q-67 -41 -77 -110h-100v213q184 51 413 50q231 -2 344 -82q81 -58 95 -147l217 176l157 -3v-43q0 -94 43 -136q44 -44 96 -44q89 0 97 32l106 -152q-69 -48 -72 -49q-42 -17 -127 -17q-105 0 -189 93q-73 81 -82 201z" />
<glyph unicode="&#x25e;" horiz-adv-x="1326" d="M712 70q98 1 149 51q52 51 52 147q0 73 -63 137q-62 62 -189 62h-34v120h34q125 0 189 64q63 62 63 138q0 95 -52 146q-52 52 -149 52q-15 0 -81 -18q-33 -9 -91 -46q-194 -123 -194 -398q0 -252 194 -398q34 -26 91 -46q31 -11 81 -11zM737 1092q249 0 377.5 -77 t128.5 -218q0 -102 -91 -173q-92 -72 -256 -96q164 -24 256 -95q91 -71 91 -174q0 -141 -128.5 -218t-405.5 -77q-19 0 -147 19q-53 8 -155 55q-331 154 -331 490q0 308 331 490q62 34 155 56q75 18 175 18z" />
<glyph unicode="&#x25f;" horiz-adv-x="712" d="M197 942h-136v121h455v-463h138v-121h-138v-604q0 -163 -104 -246.5t-307 -83.5q-54 0 -115 10t-127 29v226l102 -1q2 -80 28.5 -115.5t85.5 -35.5q66 0 92 47t26 170v604h-134v121h134v342z" />
<glyph unicode="&#x260;" horiz-adv-x="1288" d="M792 936h-182q-99 0 -139 -87.5t-40 -316.5t40.5 -317t138.5 -88q95 0 138 83t43 269v105zM1110 816v-802q0 -224 -143.5 -346.5t-405.5 -122.5q-96 0 -194 16.5t-201 49.5v254h101q14 -105 76.5 -156t178.5 -51q148 0 208.5 78.5t60.5 277.5v121q-40 -83 -109 -123.5 t-170 -40.5q-203 0 -319.5 150t-116.5 411q0 230 119 382q116 149 320 149h277v163q0 163 104 246.5t306 83.5q54 0 115.5 -10t126.5 -29v-225h-101q-2 80 -28.5 115.5t-86.5 35.5q-65 0 -91 -47t-26 -170v-410h-1z" />
<glyph unicode="&#x261;" horiz-adv-x="1288" d="M515 1063h731v-121h-136v-928q0 -224 -143.5 -346.5t-405.5 -122.5q-96 0 -194 16.5t-201 49.5v254h101q14 -105 76.5 -156t178.5 -51q148 0 208.5 78.5t60.5 277.5v121q-40 -83 -109 -123.5t-170 -40.5q-203 0 -319.5 150t-116.5 411q0 230 119 382q116 149 320 149z M791 584l1 352h-182q-99 0 -139 -87.5t-40 -316.5t40.5 -317t138.5 -88q95 0 138 83t43 269v105z" />
<glyph unicode="&#x262;" horiz-adv-x="1154" d="M905 720q-20 115 -109 199q-65 61 -134 61q-105 0 -172 -109q-69 -109 -69 -344q0 -233 65 -342q66 -110 163 -110q44 0 96 40l1 296h-130v84h435v-397q-105 -54 -209 -81q-105 -26 -214 -26q-239 0 -376 143q-137 144 -137 393q0 250 137 393q137 144 376 144 q100 0 196 -22q97 -23 195 -68v-254h-114z" />
<glyph unicode="&#x263;" horiz-adv-x="1312" d="M631 305q-44 -67 -162 -265q-73 -124 -73 -223q0 -52 33 -87q29 -30 147 -30q111 0 166 33q54 32 54 87q0 102 -51 234q-64 170 -114 251zM1102 -207q0 -121 -108 -183q-102 -58 -392 -58q-194 0 -274 76q-58 53 -58 180q0 98 95 272q92 168 211 324l-356 538h-107v121 h585v-121h-117l171 -264l169 264h-118v121h372v-121h-127l-243 -379q144 -229 221 -443q76 -208 76 -327z" />
<glyph unicode="&#x264;" horiz-adv-x="1156" d="M76 974q0 90 192 90q205 0 438 -372q264 374 345 374q51 0 64 -96l-1 -152h-94v19q0 73 -18 73q-24 0 -239 -322q104 -162 160 -276q63 -130 63 -199q0 -101 -95 -159q-49 -30 -300 -30q-216 0 -272.5 40t-56.5 140q0 110 139 256q63 66 108 105q-83 180 -264 415 q-27 35 -43 35q-24 0 -24 -75v-22h-102v156zM428 157q0 -35 20 -54q30 -27 121 -27q55 0 76 41q12 24 12 53q0 37 -31 91q-22 39 -61 87q-5 -9 -65 -68q-72 -70 -72 -123z" />
<glyph unicode="&#x265;" horiz-adv-x="1340" d="M1141 1063v-1369h142v-120h-460v576q-58 -95 -132 -137t-186 -42q-161 0 -243.5 105.5t-82.5 310.5v555h-137v121h572v-121h-116v-565q0 -135 31 -187.5t107 -52.5q97 0 142 78.5t45 249.5v477h-117v121h435z" />
<glyph unicode="&#x266;" horiz-adv-x="1340" d="M63 0v121h136v965h1v140q0 163 104 246.5t306 83.5q54 0 115.5 -10t126.5 -29v-225h-101q-2 80 -28.5 115.5t-86.5 35.5q-65 0 -91.5 -47t-26.5 -170v-312q58 94 131 136q74 42 186 42q161 0 243.5 -105.5t82.5 -310.5v-555h137v-121h-572v121h116v565q0 135 -31 187.5 t-107 52.5q-96 0 -141 -78.5t-45 -249.5v-477h116v-121h-571z" />
<glyph unicode="&#x267;" horiz-adv-x="1340" d="M63 0v121h136v965h1v140q0 163 104 246.5t306 83.5q54 0 115.5 -10t126.5 -29v-225h-101q-2 80 -28.5 115.5t-86.5 35.5q-65 0 -91.5 -47t-26.5 -170v-312q58 94 131 136q74 42 186 42q161 0 243.5 -105.5t82.5 -310.5v-391v-164v-121v-125q0 -163 -104 -246.5 t-306 -83.5q-54 0 -115.5 10t-127.5 29v225h102q2 -80 28.5 -115.5t85.5 -35.5q66 0 92 47t26 170v125v121v164v401q0 135 -31 187.5t-107 52.5q-96 0 -141 -78.5t-45 -249.5v-477h116v-121h-571z" />
<glyph unicode="&#x268;" horiz-adv-x="700" d="M169 1364q0 81 50.5 136.5t123.5 55.5q71 0 121 -55.5t50 -136.5q0 -79 -50 -134.5t-121 -55.5q-73 0 -123.5 55t-50.5 135zM518 121h136v-121h-591v121h136v358h-136v121h136v342h-136v121h455v-463h136v-121h-136v-358z" />
<glyph unicode="&#x269;" horiz-adv-x="700" d="M199 337v605h-132v121h451v-712q0 -131 37 -191q40 -61 122 -61v-99h-156q-168 0 -235 48q-87 63 -87 289z" />
<glyph unicode="&#x26a;" horiz-adv-x="700" d="M199 942zM63 1063h591v-121h-136v-821h136v-121h-591v121h136v821h-136v121z" />
<glyph unicode="&#x26b;" horiz-adv-x="753" d="M552 121h136v-121h-591v121h136v701q-32 -3 -53 -35q-22 -35 -22 -96h-99v16q0 146 48 221q44 70 126 76v432h-136v120h455v-679q18 8 31 29q22 35 22 96h99v-16q0 -146 -48 -222q-38 -60 -104 -72v-571z" />
<glyph unicode="&#x26c;" horiz-adv-x="947" d="M743 121h137v-121h-591v121h136v536h-141q-225 3 -225 174q0 251 262 251q59 0 104 -12v366h-136v120h454v-779h155v-120h-155v-536zM425 918q-9 73 -109 60q-124 -16 -124 -111q0 -96 102 -90h131v141z" />
<glyph unicode="&#x26d;" horiz-adv-x="700" d="M199 1436h-136v120h455v-1271v-410q0 -123 26.5 -170t91.5 -47q60 0 86.5 35.5t28.5 115.5h101v-225q-65 -19 -126.5 -29t-115.5 -10q-202 0 -306 83.5t-104 246.5z" />
<glyph unicode="&#x26e;" horiz-adv-x="1466" d="M1076 452q198 -21 299 -105q144 -121 144 -331q0 -209 -149 -320.5t-431 -111.5q-107 0 -219.5 20t-236.5 60v328h109q10 -142 80 -216.5t195 -74.5q137 0 211.5 84.5t74.5 239.5q0 162 -78 250t-221 88h-59v225l238 358h-413l-102 -182v-643h136v-121h-591v121h136v1315 h-136v120h455v-493h886v-119z" />
<glyph unicode="&#x26f;" horiz-adv-x="1950" d="M832 174q-67 -106 -144.5 -154.5t-180.5 -48.5q-165 0 -246.5 103.5t-81.5 312.5v555h-137v121h570v-121h-114v-502q0 -199 27.5 -251t101.5 -52q85 0 132 72.5t47 206.5v526h-115v121h547v-121h-114v-502q0 -199 28 -251t102 -52q85 0 132 72.5t47 206.5v526h-115v121 h569v-121h-136v-821h136v-121h-454v150q-56 -93 -128 -136t-171 -43q-117 0 -190 49.5t-112 153.5z" />
<glyph unicode="&#x270;" horiz-adv-x="1950" d="M832 174q-67 -106 -144.5 -154.5t-180.5 -48.5q-165 0 -246.5 103.5t-81.5 312.5v555h-137v121h570v-121h-114v-502q0 -199 27.5 -251t101.5 -52q85 0 132 72.5t47 206.5v526h-115v121h547v-121h-114v-502q0 -199 28 -251t102 -52q85 0 132 72.5t47 206.5v526h-115v121 h569v-121h-136v-1247h136v-121h-454v576q-56 -93 -128 -136t-171 -43q-117 0 -190 49.5t-112 153.5z" />
<glyph unicode="&#x271;" horiz-adv-x="1950" d="M1119 889q66 106 143.5 154.5t181.5 48.5q164 0 245.5 -103.5t81.5 -312.5v-391v-285v-125q0 -163 -104 -246.5t-306 -83.5q-54 0 -115.5 10t-126.5 29v225h101q2 -80 28.5 -115.5t86.5 -35.5q65 0 91.5 47t26.5 170v125v285v338q0 199 -27.5 251t-102.5 52 q-85 0 -131.5 -72.5t-46.5 -206.5v-526h114v-121h-547v121h114v502q0 199 -28 251t-101 52q-86 0 -132.5 -72.5t-46.5 -206.5v-526h114v-121h-569v121h136v821h-136v121h455v-150q55 93 127 136t171 43q117 0 190 -49.5t113 -153.5z" />
<glyph unicode="&#x272;" horiz-adv-x="1340" d="M199 942h-136v121h455v-150q57 95 131 137t186 42q161 0 243.5 -105.5t82.5 -310.5v-555h137v-121h-572v121h116v565q0 135 -31 187.5t-107 52.5q-96 0 -141 -78.5t-45 -249.5v-598h-1v-125q0 -163 -104 -246.5t-307 -83.5q-54 0 -115 10t-127 29v225h102 q2 -80 28.5 -115.5t85.5 -35.5q66 0 92 47t26 170v410z" />
<glyph unicode="&#x273;" horiz-adv-x="1340" d="M63 0v121h136v821h-136v121h455v-150q57 95 131 137t186 42q161 0 243.5 -105.5t82.5 -310.5v-676h-2v-125q0 -123 26 -170t92 -47q59 0 86 35.5t28 115.5h102v-225q-66 -19 -127 -29t-115 -10q-203 0 -306.5 83.5t-103.5 246.5v360q0 26 1 50v401q0 135 -31 187.5 t-107 52.5q-96 0 -141 -78.5t-45 -249.5v-477h116v-121h-571z" />
<glyph unicode="&#x274;" horiz-adv-x="1313" d="M115 0v122h123v816h-123v125h301l550 -624v499h-93v125h337v-125h-124v-938h-168l-560 635v-513h93v-122h-336z" />
<glyph unicode="&#x275;" horiz-adv-x="1229" d="M615.5 -29q-252.5 0 -396 149.5t-143.5 411.5q0 263 143.5 411.5t396.5 148.5t396.5 -148.5t143.5 -411.5q0 -262 -144 -411.5t-396.5 -149.5zM616 84q100 0 141 96q37 86 41 299h-366q4 -211 40 -298q42 -97 144 -97zM432 600h366q-5 201 -40 284q-41 95 -142.5 95 t-143.5 -97q-35 -82 -40 -282z" />
<glyph unicode="&#x276;" horiz-adv-x="1955" d="M925 87v894h-114q-75 0 -150 -57q-168 -127 -168 -389q0 -245 157 -391q61 -57 161 -57h114zM1852 0h-922q-187 0 -308.5 18.5t-212.5 59.5q-142 61 -218 180t-76 277q0 157 76 274.5t218 180.5q90 41 210.5 59.5t310.5 18.5h906v-252h-123v154h-439v-343h224v136h124 v-369h-124v136h-224v-432h455v154h123v-252z" />
<glyph unicode="&#x277;" horiz-adv-x="1380" d="M798 529v-40q0 -120 35 -226q64 -197 91 -197q82 0 80 364q0 173 -50 342q-83 197 -269 201q-180 4 -266 -201q-50 -169 -51 -342q0 -364 80 -364q26 0 92 197q35 106 35 226v40h223zM685 272q-26 -142 -103 -222q-77 -79 -188 -79q-152 0 -235 112q-83 111 -83 317 q0 79 20 160q26 106 60 167q196 358 529 358q336 0 532 -358q34 -61 60 -167q20 -81 20 -160q0 -206 -83 -317q-83 -112 -236 -112q-111 0 -187 79q-77 80 -106 222z" />
<glyph unicode="&#x278;" horiz-adv-x="1229" d="M316 1556h591v-121h-176v-349q211 -25 341 -142q165 -149 165 -412q0 -262 -165 -412q-131 -118 -341 -143v-292h176v-121h-591v121h176v293q-204 26 -332 142q-165 150 -165 412q0 263 165 412q128 115 332 141v350h-176v121zM492 113v837q-41 -24 -65 -68 q-55 -96 -55 -350t55 -351q24 -44 65 -68zM731 955v-846q46 24 72 71q54 96 54 352t-53 352q-27 47 -73 71z" />
<glyph unicode="&#x279;" horiz-adv-x="1053" d="M53 -12v317h102q5 -85 41 -126.5t105 -41.5q104 0 164.5 102t60.5 283v420h-174v121h628v-121h-136v-821h146v-121h-464v189q-47 -111 -124 -164.5t-189 -53.5q-28 0 -68 4.5t-92 12.5z" />
<glyph unicode="&#x27a;" horiz-adv-x="1053" d="M53 -12v317h102q5 -85 41 -126.5t105 -41.5q104 0 164 102q61 104 61 283v914h-174v121h628v-121h-136v-1315h146v-121h-464v189q-47 -111 -124 -164.5t-189 -53.5q-28 0 -68 4.5t-92 12.5z" />
<glyph unicode="&#x27b;" horiz-adv-x="1053" d="M53 -12v317h102q0 -85 41 -127q36 -41 105 -41q104 0 164.5 102t60.5 283v420h-174v121h628v-121h-136v-1067q0 -123 27 -170q26 -47 92 -47q59 0 86 36q27 35 28 115h102v-225q-66 -19 -127 -29t-115 -10q-203 0 -307 83q-104 84 -104 247v125v0v189q-47 -111 -125 -165 q-76 -53 -188 -53q-28 0 -67 5q-41 4 -93 12z" />
<glyph unicode="&#x27c;" horiz-adv-x="971" d="M990 1075v-317h-102q-5 85 -41 126.5t-105 41.5q-104 0 -164 -102q-60 -104 -60 -283v-844h173v-121h-628v121h136v1245h-146v121h465v-189q46 111 123 164.5t189 53.5q28 0 68 -4.5t92 -12.5z" />
<glyph unicode="&#x27d;" horiz-adv-x="971" d="M990 1075v-317h-102q-5 85 -41 126.5t-105 41.5q-104 0 -164 -102t-60 -283v-541v-125q0 -123 26 -170t91 -47q60 0 86.5 35.5t28.5 115.5h101v-225q-65 -19 -126.5 -29t-115.5 -10q-202 0 -306 83.5t-104 246.5v125v942h-146v121h465v-189q46 111 123 164.5t189 53.5 q28 0 68 -4.5t92 -12.5z" />
<glyph unicode="&#x27e;" horiz-adv-x="832" d="M518 121h173v-121h-628v121h136v641q0 163 104 246.5t306 83.5q54 0 115.5 -10t126.5 -29v-225h-101q-2 80 -28.5 115.5t-86.5 35.5q-65 0 -91 -47q-26 -49 -26 -170v-641z" />
<glyph unicode="&#x27f;" horiz-adv-x="897" d="M397 121v641q0 121 -26 170q-26 47 -92 47q-59 0 -86 -35.5t-28 -115.5h-102v225q66 19 127 29t115 10q203 0 307 -83.5t104 -246.5v-641h135v-121h-628v121h174z" />
<glyph unicode="&#x280;" horiz-adv-x="1476" d="M885 519q74 -9 124 -42q51 -33 88 -95l131 -261h144v-121h-407l-165 321q-52 91 -63.5 105.5t-22.5 21.5q-31 21 -43 24q-14 4 -38 4h-51v-355h160v-121h-627v121h159v821h-159v121h655q163 0 265 -53q18 -9 36 -21q118 -75 118 -212q0 -111 -84 -175q-71 -55 -154 -73 q-30 -6 -66 -10zM582 597h109q92 0 141 51q58 60 58 122q0 72 -48 114q-34 32 -78 48q-26 10 -73 10h-109v-345z" />
<glyph unicode="&#x281;" horiz-adv-x="1476" d="M885 544q36 -4 66 -10q83 -18 154 -73q84 -65 84 -175q0 -137 -118 -212q-18 -12 -36 -21q-102 -53 -265 -53h-655v121h159v821h-159v121h627v-121h-160v-355h51q24 0 38 4q12 3 43 24q11 7 22.5 21.5t63.5 105.5l165 321h407v-121h-144l-131 -261q-37 -62 -88 -95 q-50 -33 -124 -42zM582 466v-345h109q47 0 73 10q44 16 78 48q48 42 48 114q0 62 -58 122q-49 51 -141 51h-109z" />
<glyph unicode="&#x282;" horiz-adv-x="1037" d="M86 328h102q13 -119 80.5 -181.5t183.5 -62.5q97 0 148.5 37.5t51.5 107.5q0 64 -32.5 99t-127.5 61l-131 37q-149 42 -215 118q-67 76 -67 206q0 173 108 257.5t333 84.5q85 0 180.5 -15.5t212.5 -48.5v-268h-102q-8 109 -69.5 164t-177.5 55q-97 0 -147 -34.5 t-50 -100.5q0 -54 29 -85t104 -52l130 -37q188 -53 260 -131t72 -217q0 -180 -115.5 -265.5t-359.5 -85.5q-40 0 -82 3v-99q0 -123 26 -170t92 -47q59 0 85.5 35.5t28.5 115.5h102v-225q-66 -19 -127 -29t-115 -10q-203 0 -307 83.5t-104 246.5v453z" />
<glyph unicode="&#x283;" horiz-adv-x="610" d="M16 1196q-24 175 102 268q102 92 299 92q76 0 149 -9.5t143 -28.5v-228h-101q-7 78 -40.5 116t-95.5 38q-75 0 -105 -58q-49 -59 -32 -186l181 -1327q20 -146 -104 -247q-104 -83 -307 -83q-54 0 -115 10t-127 29v226l102 -1q2 -80 28.5 -115.5t85.5 -35.5q66 0 92 47 q39 73 26 170z" />
<glyph unicode="&#x284;" horiz-adv-x="792" d="M199 1063v133q0 177 101.5 268.5t298.5 91.5q77 0 150 -9.5t143 -28.5v-228h-101q-7 78 -41 116t-96 38q-73 0 -104 -58q-32 -59 -32 -186v-258h-2v-342h138v-121h-138v-604q0 -163 -104 -246.5t-307 -83.5q-54 0 -115 10t-127 29v226l102 -1q2 -80 28.5 -115.5 t85.5 -35.5q66 0 92 47t26 170v604h-134v121h134v342h-136h-4v121h4h138z" />
<glyph unicode="&#x285;" horiz-adv-x="995" d="M769 720l-181 -845q-19 -87 26 -170q26 -47 92 -47q59 0 85.5 35.5t28.5 115.5l102 1v-226q-66 -19 -127 -29t-115 -10q-203 0 -307 83q-134 108 -104 247l181 849q23 106 -32 186q-40 58 -105 58q-62 0 -95.5 -38t-41.5 -116h-100v228q70 19 143 28.5t149 9.5 q186 0 299 -92q135 -110 102 -268z" />
<glyph unicode="&#x286;" horiz-adv-x="610" d="M678 -423h-99q-11 79 -36 123q-16 28 -39 51q-25 -69 -92 -125q-101 -83 -218 -82q-313 3 -313 225q0 152 136 189q43 11 100 11q34 0 67 -2l-168 1229q-23 167 102 268q112 92 299 92q76 0 149 -9.5t143 -28.5v-228h-101q-7 78 -40.5 116t-95.5 38q-66 0 -105 -58 q-48 -70 -32 -186l181 -1327q0 -4 1 -8q86 -55 118 -118q43 -81 43 -170zM197 -123q-17 2 -32 2q-165 2 -165 -125q0 -88 119 -81q26 2 52 30q43 46 26 170v4z" />
<glyph unicode="&#x287;" horiz-adv-x="907" d="M723 121h138v-121h-138v-330h-319v330h-265v121h265v651q0 139 -20 173t-72 34q-57 0 -85 -43t-30 -133h-134q8 160 78.5 224.5t243.5 64.5q197 0 267.5 -68.5t70.5 -251.5v-651z" />
<glyph unicode="&#x288;" horiz-adv-x="851" d="M183 942h-139v121h139v330h318v-330h266v-121h-266v-1067q0 -123 26.5 -170t91.5 -47q60 0 86.5 35.5t28.5 115.5h101v-225q-65 -19 -126.5 -29t-115.5 -10q-202 0 -306 83.5t-104 246.5v1067z" />
<glyph unicode="&#x289;" horiz-adv-x="1340" d="M822 600v342h-116v121h435v-463h126v-121h-126v-358h136v-121h-455v150q-57 -95 -131 -137t-186 -42q-161 0 -243.5 105.5t-82.5 310.5v92h-116v121h116v342h-137v121h456v-463h324zM822 479h-324v-37q0 -198 29.5 -251.5t108.5 -53.5q97 0 141.5 79t44.5 251v12z" />
<glyph unicode="&#x28a;" horiz-adv-x="1251" d="M1088 975h-254q159 -64 252 -193q93 -130 93 -272q0 -108 -44.5 -207t-127.5 -172q-74 -67 -172 -102q-98 -36 -208 -36t-206.5 35t-172.5 103q-84 75 -128 172t-44 207q0 142 93 271q93 130 252 194h-344v121h460v-165q-28 -21 -76 -149q-37 -98 -37 -256 q0 -185 55 -297q57 -112 148.5 -112t146.5 112q57 112 57 297q0 161 -38 257q-48 121 -75 148v165h370v-121z" />
<glyph unicode="&#x28b;" horiz-adv-x="1278" d="M654 -3q-455 3 -455 351v594h-136v121h455v-717q0 -226 136 -225q91 0 148 112q56 112 56 297q0 161 -38 257q-48 121 -75 148v44h116q159 -64 251 -193q94 -130 94 -272q0 -108 -45 -207q-44 -99 -127 -172q-75 -67 -172 -102q-98 -36 -208 -36z" />
<glyph unicode="&#x28c;" horiz-adv-x="1181" d="M769 1063l339 -942h105v-121h-549v121h116l-242 672l-241 -672h125v-121h-359v121h111l339 942h256z" />
<glyph unicode="&#x28d;" horiz-adv-x="1671" d="M693 0l-218 709l-180 -588h125v-121h-357v121h113l288 942h220l202 -666l205 666h218l289 -942h105v-121h-542v121h113l-177 575l-214 -696h-190z" />
<glyph unicode="&#x28e;" horiz-adv-x="1170" d="M603 1303q43 117 104.5 166t164.5 49q44 0 98 -11t118 -32v-222l-102 1q-2 77 -32.5 114t-90.5 37q-58 0 -94 -35.5t-72 -134.5l-15 -37l417 -1077h103v-121h-551v121h114l-243 629l-227 -629h127v-121h-359v121h116z" />
<glyph unicode="&#x28f;" horiz-adv-x="1339" d="M334 0v121h181v282l-285 541h-115v121h645v-121h-150l188 -356l187 356h-135v121h386v-121h-115l-258 -489v-334h181v-121h-710z" />
<glyph unicode="&#x290;" horiz-adv-x="1046" d="M65 0v121l549 825h-413v-182h-107v299h891v-119l-550 -825h550v-31h1v-213q0 -123 26.5 -170t91.5 -47q60 0 86.5 35.5t28.5 115.5h101v-225q-65 -19 -126.5 -29t-115.5 -10q-199 0 -306 83q-104 82 -104 247v125h-603z" />
<glyph unicode="&#x291;" horiz-adv-x="1046" d="M589 1q-1 -19 0 -40v-144h-124l2 144q0 21 2 40l-404 -1v121l549 825h-413v-182h-107v299h891v-119l-550 -825h53q4 12 8 22q51 137 130 193q129 92 256 50q101 -34 101 -184q-1 -195 -394 -199zM608 119h35q228 0 239 85q16 100 -150 66q-80 -17 -124 -151z" />
<glyph unicode="&#x292;" horiz-adv-x="1046" d="M657 452q198 -21 299 -105q144 -121 144 -331q0 -209 -149 -320.5t-432 -111.5q-106 0 -219 20t-236 60v328h109q10 -142 80 -216.5t194 -74.5q137 0 212 84.5t75 239.5q0 162 -78 250t-221 88h-60v225l239 358h-413v-182h-107v299h891v-119z" />
<glyph unicode="&#x293;" horiz-adv-x="1046" d="M519 -416q-313 0 -313 225q0 173 177 196l59 4q166 0 288 -47q4 30 4 63q0 162 -78 250t-221 88h-60v225l239 358h-413v-182h-107v299h891v-119l-328 -492q198 -21 299 -105q144 -121 144 -331q0 -183 -114 -291q17 -53 17 -108h-99q-4 23 -8 44q-142 -77 -377 -77z M707 -135q-123 53 -217 54q-165 2 -165 -125q0 -93 122 -93q137 0 212 85q30 33 48 79z" />
<glyph unicode="&#x294;" horiz-adv-x="988" d="M369 121v711h104q66 0 94 30q41 41 38 254q-4 234 -26 282q-23 47 -115 47q-81 0 -106 -35q-25 -34 -29 -116h-101l2 198q56 34 115.5 50t124.5 16q234 0 322 -93t88 -317q0 -237 -88 -322q-80 -77 -104 -85v-620h136v-121h-591v121h136z" />
<glyph unicode="&#x295;" horiz-adv-x="988" d="M739 121h136v-121h-591v121h136v620q-24 8 -104 85q-88 85 -88 322q0 224 88 317t322 93q65 0 124.5 -16t115.5 -50l2 -198h-102q-3 82 -28 116q-25 35 -106 35q-92 0 -115 -47q-22 -48 -26 -282q-3 -213 38 -254q28 -30 93 -30h105v-711z" />
<glyph unicode="&#x296;" horiz-adv-x="988" d="M369 1437h-136v121h591v-121h-136v-620q24 -8 104 -85q88 -85 88 -322q0 -224 -88 -317t-322 -93q-65 0 -124.5 16t-115.5 50l-2 198h101q4 -82 29 -116q25 -35 106 -35q92 0 115 47q22 48 26 282q3 213 -38 254q-28 30 -94 30h-104v711z" />
<glyph unicode="&#x297;" horiz-adv-x="1004" d="M503 1116v-1130q0 -289 26 -282q23 -47 115 -47q81 0 106 35q25 34 28 116h102l-2 -198q-56 -34 -115.5 -50t-124.5 -16q-234 0 -322 93t-88 317v1194q0 224 88 317t322 93q65 0 124.5 -16t115.5 -50l2 -198h-102q-3 82 -28 116q-25 35 -106 35q-92 0 -115 -47 q-26 -56 -26 -282z" />
<glyph unicode="&#x298;" horiz-adv-x="1605" d="M684 745q0 53 35 92q34 39 83 39q48 0 83 -39q34 -39 34 -92q0 -54 -34.5 -92t-83 -38t-82.5 38q-35 38 -35 92zM802 92q172 0 255.5 161t83.5 492q0 332 -83.5 493t-255.5 161q-171 0 -255 -162.5t-84 -491.5q0 -328 84 -490.5t255 -162.5zM802 -29q-339 0 -532 206 t-193 568t193.5 568.5t531.5 206.5q339 0 531.5 -206t192.5 -569q0 -362 -193 -568t-531 -206z" />
<glyph unicode="&#x299;" horiz-adv-x="1280" d="M518 121h80q107 0 193.5 44.5t86.5 142.5q0 93 -79 142t-201 49h-80v-378zM518 654h71q99 0 179 37t80 109q0 68 -76 105t-183 37h-71v-288zM63 0v121h136v821h-136v121h646q427 0 427 -263q0 -95 -78 -151t-210 -69q164 -14 261.5 -85t97.5 -187q0 -158 -135.5 -233 t-407.5 -75h-601z" />
<glyph unicode="&#x29a;" horiz-adv-x="1326" d="M607 70q50 0 81 11q56 20 91 46q194 146 194 398q0 275 -194 398q-58 37 -91 46q-67 18 -81 18q-97 0 -150 -52q-51 -51 -51 -146q0 -76 63 -138q64 -64 188 -64h34v-120h-34q-126 0 -188 -62q-63 -64 -63 -137q0 -96 51 -147q52 -50 150 -51zM582 1092q99 0 175 -18 q93 -22 155 -56q331 -182 331 -490q0 -336 -331 -490q-102 -47 -155 -55q-128 -19 -147 -19q-277 0 -405.5 77t-128.5 218q0 103 91 174q92 71 256 95q-164 24 -256 96q-91 71 -91 173q0 141 128.5 218t377.5 77z" />
<glyph unicode="&#x29b;" horiz-adv-x="1154" d="M905 720q-20 115 -109 199q-65 61 -134 61q-105 0 -172 -109q-69 -109 -69 -344q0 -233 65 -342q66 -110 163 -110q44 0 96 40l1 296h-130v84h435v-397q-105 -54 -209 -81q-105 -26 -214 -26q-239 0 -376 143q-137 144 -137 393q0 250 137 393q137 144 376 144 q36 0 72 -3v165q0 163 104 246.5t307 83.5q54 0 115 -10t127 -29v-225h-102q-2 80 -28.5 115.5t-85.5 35.5q-66 0 -92 -47t-26 -170v-252v-158v-96h-114z" />
<glyph unicode="&#x29c;" horiz-adv-x="1349" d="M63 0v121h136v821h-136v121h571v-121h-116v-319h314v319h-118v121h573v-121h-137v-821h137v-121h-573v121h118v381h-314v-381h116v-121h-571z" />
<glyph unicode="&#x29d;" horiz-adv-x="707" d="M201 1364q0 81 50.5 136.5t123.5 55.5q71 0 121 -55.5t50 -136.5q0 -79 -50 -134.5t-121 -55.5q-73 0 -123.5 55t-50.5 135zM539 -244q-25 -78 -87 -128q-104 -84 -217 -84q-313 0 -313 225q0 197 228 200h8q41 0 80 -3v976h-136v121h454v-1197q162 -105 162 -289h-99 q-11 79 -32.5 116.5t-47.5 62.5zM238 -123q-17 2 -26 2h-11q-161 0 -161 -125q0 -82 102 -82q8 0 25 1.5t45 29.5q26 28 26 172v2z" />
<glyph unicode="&#x29e;" horiz-adv-x="1364" d="M746 -426v121h121v811l-386 -385h114v-121h-437v121h178l246 246l-403 575h-103v121h549v-121h-113l266 -379l89 88v412h454v-121h-136v-1248h136v-120h-575z" />
<glyph unicode="&#x29f;" horiz-adv-x="1189" d="M115 0v121h172v821h-172v121h691v-121h-172v-805h331v236h121v-373h-971z" />
<glyph unicode="&#x2a0;" horiz-adv-x="1288" d="M791 584q0 186 -43 269t-138 83q-99 0 -139 -87.5t-40 -316.5t40.5 -317t138.5 -88q95 0 138 83t43 269v105zM1109 -305h137v-121h-602v121h147v440q-40 -83 -109 -123.5t-170 -40.5q-203 0 -319.5 150t-116.5 411q0 262 116.5 411t319.5 149q101 0 170 -40 q68 -41 108 -122v296q0 163 104 246.5t307 83.5q54 0 115 -10t127 -29v-225h-102q-2 80 -28.5 115.5t-85.5 35.5q-66 0 -92 -47t-26 -170v-1531z" />
<glyph unicode="&#x2a1;" horiz-adv-x="988" d="M688 600h133v-121h-133v-358h136v-121h-136h-319h-136v121h136v358h-139v121h139v232h104q66 0 94 30q41 41 38 254q-4 234 -26 282q-23 47 -115 47q-81 0 -106 -35q-25 -34 -29 -116h-101l2 198q56 34 115.5 50t124.5 16q234 0 322 -93t88 -317q0 -237 -88 -322 q-80 -77 -104 -85v-141z" />
<glyph unicode="&#x2a2;" horiz-adv-x="988" d="M739 121h136v-121h-136h-319h-136v121h136v358h-133v121h133v141q-24 8 -104 85q-88 85 -88 322q0 224 88 317t322 93q65 0 124.5 -16t115.5 -50l2 -198h-102q-3 82 -28 116q-25 35 -106 35q-92 0 -115 -47q-22 -48 -26 -282q-3 -213 38 -254q28 -30 93 -30h105v-232h139 v-121h-139v-358z" />
<glyph unicode="&#x2a3;" horiz-adv-x="2058" d="M1110 764v-593l515 775h-413zM791 0v135q-40 -83 -109 -123.5t-170 -40.5q-203 0 -319.5 150t-116.5 411q0 262 116.5 411t319.5 149q101 0 170 -40.5t109 -123.5v508h-137v120h456v-493h886v-119l-550 -825h443v192h107v-311h-1205zM791 479v105q0 186 -43 269t-138 83 q-99 0 -139 -87.5t-40 -316.5t40.5 -317t138.5 -88q95 0 138 83t43 269z" />
<glyph unicode="&#x2a4;" horiz-adv-x="2173" d="M1110 764v-643h136v-121h-455v135q-40 -83 -109 -123.5t-170 -40.5q-203 0 -319.5 150t-116.5 411q0 262 116.5 411t319.5 149q101 0 170 -40.5t109 -123.5v508h-137v120h456v-493h886v-119l-327 -492q198 -21 298 -105q144 -121 144 -331q0 -209 -148.5 -320.5 t-431.5 -111.5q-106 0 -219 20t-236 60v328h108q10 -142 80.5 -216.5t194.5 -74.5q137 0 211.5 84.5t74.5 239.5q0 162 -78 250t-221 88h-59v225l238 358h-413zM791 479v105q0 186 -43 269t-138 83q-99 0 -139 -87.5t-40 -316.5t40.5 -317t138.5 -88q95 0 138 83t43 269z " />
<glyph unicode="&#x2a5;" horiz-adv-x="2058" d="M791 479v105q0 186 -43 269t-138 83q-99 0 -139 -87.5t-40 -316.5t40.5 -317t138.5 -88q95 0 138 83t43 269zM1654 119q232 0 240 85q13 136 -151 66q-86 -37 -123 -151h34zM1110 1063h886v-119l-550 -825h54q4 12 8 22q51 137 130 193q129 92 256 50q100 -34 100 -184 q0 -195 -394 -199q-1 -19 0 -40v-144h-123l1 144q1 21 2 40l-689 -1v135q-40 -83 -109 -123.5t-170 -40.5q-203 0 -319.5 150t-116.5 411q0 262 116.5 411t319.5 149q101 0 170 -40.5t109 -123.5v508h-137v120h456v-493zM1110 764v-593l515 775h-413z" />
<glyph unicode="&#x2a6;" horiz-adv-x="1678" d="M183 942h-139v121h139v330h318v-330h266v-121h-266v-651q0 -139 20 -173t72 -34q58 0 85.5 43t29.5 133h33h101q2 -41 80 -114q68 -62 184 -62q97 0 149 37.5t52 107.5q0 64 -33 99q-32 34 -127 61l-132 37q-149 42 -215 118t-66 206q0 173 108 257.5t332 84.5 q85 0 181 -15.5t212 -48.5v-268h-102q-8 109 -69.5 164t-176.5 55q-98 0 -147.5 -34.5t-49.5 -100.5q0 -54 28 -85q29 -31 104 -52l130 -37q189 -53 260 -131q72 -78 72 -217q0 -180 -115.5 -265.5t-359.5 -85.5q-89 0 -189 15q-94 14 -198 41q-72 -56 -234 -56 q-197 0 -267 68.5t-70 251.5v651z" />
<glyph unicode="&#x2a7;" horiz-adv-x="1317" d="M183 942h-139v121h139v330h318v-330h241l-18 133q-24 175 101 268q102 92 299 92q77 0 149.5 -9.5t143.5 -28.5v-228h-101q-7 78 -41 116t-96 38q-74 0 -104 -58q-50 -59 -33 -186l181 -1327q20 -146 -104 -247q-104 -83 -306 -83q-54 0 -115.5 10t-126.5 29v226l101 -1 q2 -80 28.5 -115.5t86.5 -35.5q65 0 91 47q40 73 26 170l-146 1069h-257v-651q0 -139 20 -173t72 -34q58 0 85.5 43t29.5 133h134q-8 -160 -78.5 -224.5t-243.5 -64.5q-197 0 -267 68.5t-70 251.5v651z" />
<glyph unicode="&#x2a8;" horiz-adv-x="1674" d="M183 942h-139v121h139v330h318v-330h266v-121h-266v-651q0 -139 20 -173t72 -34q58 0 86 43q26 40 29 121q-56 118 -56 272q0 255 152 408q152 152 403 152q145 0 224 -24q79 -23 159 -71v-272h-85q-16 140 -72 204t-159 64q-134 0 -203 -115q-70 -120 -68 -346 q1 -94 24 -204q130 72 349 74q241 0 237 -232q-4 -199 -406 -199q-166 0 -281 71q-10 -32 -9 -117v-144h-123l1 144q3 101 29 180l-13 12q-18 -43 -47 -69q-71 -65 -244 -65q-197 0 -267 68.5t-70 251.5v651zM1060 222q83 -151 224 -152q228 -1 228 106q0 126 -184 124 q-230 -2 -268 -78z" />
<glyph unicode="&#x2a9;" horiz-adv-x="1915" d="M892 1290h-101q-7 78 -41 116t-96 38q-72 0 -104 -57.5t-32 -186.5v-137h237h3h452v-150q57 95 131 137t186 42q161 0 243.5 -105.5t82.5 -310.5v-801q0 -163 -104 -246.5t-306 -83.5q-54 0 -115.5 10t-126.5 29v225h101q2 -80 28.5 -115.5t86.5 -35.5q65 0 91 47t26 170 v811q0 135 -31 187.5t-107 52.5q-96 0 -141 -78.5t-45 -249.5v-477h117v-121h-572v121h136v821h-133h-3h-237v-821h184v-121h-639v121h136v821h-142v121h142v133q0 177 101.5 268.5t298.5 91.5q77 0 150 -9.5t143 -28.5v-228z" />
<glyph unicode="&#x2aa;" horiz-adv-x="1456" d="M650 0h-587v121h136v1315h-136v120h455v-728q19 115 101 180q108 84 333 84q85 0 180.5 -15.5t212.5 -48.5v-268h-102q-8 109 -69.5 164t-177.5 55q-97 0 -147 -34.5t-50 -100.5q0 -54 29 -85t104 -52l130 -37q189 -53 260 -131q72 -78 72 -217q0 -180 -115.5 -265.5 t-359.5 -85.5q-89 0 -189 15q-39 6 -80 14zM518 675v-554v0v139h102q2 -41 80 -114q68 -62 184 -62q97 0 148.5 37.5t51.5 107.5q0 64 -32 99q-32 34 -128 61l-131 37q-150 42 -215 118q-46 52 -60 131z" />
<glyph unicode="&#x2ab;" horiz-adv-x="1466" d="M518 764v-593l515 775h-413zM63 0v121h136v1315h-136v120h455v-493h886v-119l-550 -825h443v192h107v-311h-1341z" />
<glyph unicode="&#x2ac;" horiz-adv-x="1220" d="M737 595l142 -397l117 330h-81v67h232v-67h-73l-188 -528h-143l-131 373l-133 -373h-142l-188 528h-68v67h352v-67h-73l115 -322l139 389h123zM737 1279l142 -397l117 330h-81v67h232v-67h-73l-188 -528h-143l-131 373l-133 -373h-142l-188 528h-68v67h352v-67h-73 l115 -322l139 389h123z" />
<glyph unicode="&#x2ad;" horiz-adv-x="816" d="M740 595v-349h-154v217h-351v-218h-154v350h659zM740 1279v-349h-154v217h-351v-218h-154v350h659z" />
<glyph unicode="&#x2ae;" horiz-adv-x="1130" d="M1141 1063v-1369h142v-120h-607l1 120h146v456q-58 -95 -132 -137t-186 -42q-163 0 -244 105q-82 106 -82 311v429h-1v410q0 123 -26 170t-92 47q-59 0 -85 -36q-27 -35 -29 -115h-102v225q66 19 127 29t115 10q203 0 306 -83q105 -84 105 -247v-163h1v-121v-565 q0 -132 31 -187q31 -53 107 -53q97 0 142 79q45 78 45 249v477h-117v121h435z" />
</font>
</defs>
</svg>
