<?xml version="1.0" standalone="no"?>
<!DOCTYPE svg PUBLIC "-//W3C//DTD SVG 1.1//EN" "http://www.w3.org/Graphics/SVG/1.1/DTD/svg11.dtd" >
<svg xmlns="http://www.w3.org/2000/svg">
<metadata></metadata>
<defs>
<font id="stixitalic" horiz-adv-x="500" >
<font-face units-per-em="1000" ascent="750" descent="-250" />
<missing-glyph horiz-adv-x="250" />
<glyph unicode="IJ" horiz-adv-x="750" d="M783 653v-16q-43 -6 -56 -17.5t-26 -56.5l-103 -367q-29 -104 -71 -159t-124 -55q-53 0 -85 24t-32 64q0 24 12.5 40t32.5 16t35.5 -13.5t15.5 -32.5q0 -6 -1.5 -14.5t-1.5 -12.5q0 -39 35 -39t53 64l127 454q12 44 12 64t-15 28.5t-62 12.5v16h254zM384 653v-16 q-42 -5 -55.5 -18t-26.5 -59l-120 -429q-15 -53 -15 -76q0 -20 12.5 -27t56.5 -12v-16h-244v16q42 8 57.5 21t26.5 54l120 441q13 46 13 62q0 20 -16 30.5t-56 12.5v16h247z" />
<glyph unicode="ij" d="M500 598q0 -20 -15 -35t-35 -15q-23 0 -38.5 14.5t-15.5 37.5q0 22 16 37t37 15q20 0 35.5 -16.5t15.5 -37.5zM264 599q0 -21 -14.5 -36t-34.5 -15q-22 0 -35 14.5t-13 38.5q0 23 13.5 38t33.5 15t35 -16.5t15 -38.5zM467 438l-104 -410q-31 -121 -76.5 -178t-110.5 -57 q-35 0 -57 17t-22 44q0 18 12 31t29 13q39 0 39 -37q0 -12 -6 -19.5t-6 -14.5q0 -12 18 -12q30 0 50.5 39t46.5 143l72 292q16 65 16 80q0 17 -10.5 24t-37.5 7h-26v16q45 3 169 25zM222 114l13 -11q-42 -65 -71 -89.5t-66 -24.5q-49 0 -49 55q0 29 22 111l48 177q9 32 9 44 q0 15 -11.5 19t-52.5 5v16q46 4 160 25l4 -3l-94 -343q-10 -34 -10 -44q0 -15 14 -15q25 0 84 78z" />
<glyph unicode="ff" horiz-adv-x="527" d="M211 428h172q39 126 72 173q54 77 131 77q37 0 62 -17.5t25 -44.5q0 -17 -12.5 -30t-29.5 -13q-14 0 -25.5 11t-11.5 28q0 10 5 19t5 12q0 13 -22 13q-42 0 -71 -54.5t-51 -173.5h107l-6 -32h-108l-72 -320q-64 -283 -200 -283q-34 0 -56.5 17.5t-22.5 43.5q0 17 11 29.5 t27 12.5q17 0 27.5 -10.5t10.5 -26.5q0 -7 -4.5 -15.5t-4.5 -13.5q0 -16 20 -16q63 0 97 162l88 420h-170l-72 -320q-64 -283 -200 -283q-34 0 -56.5 17.5t-22.5 43.5q0 17 11 29.5t27 12.5q17 0 27.5 -10.5t10.5 -26.5q0 -7 -4.5 -15.5t-4.5 -13.5q0 -16 20 -16 q63 0 97 162l88 420h-91l7 32h93q39 126 72 173q54 77 132 77q37 0 61.5 -17.5t24.5 -44.5q0 -17 -12.5 -30t-29.5 -13q-14 0 -25.5 11t-11.5 28q0 10 5 19t5 12q0 13 -22 13q-42 0 -71 -54.5t-51 -173.5z" />
<glyph unicode="fi" d="M51 428h88q27 92 46 129t59 73q56 51 134 51q45 0 74 -19.5t29 -48.5q0 -19 -12 -32t-30 -13q-19 0 -30 12t-11 31q0 14 9 23q4 5 4 9q0 16 -34 16q-54 0 -86 -42q-25 -32 -39 -67.5t-36 -121.5h150q40 0 81 6q4 0 8 0.5t6 1t4 0.5l5 -3v-3q0 -7 -5 -25l-1 -4 q-2 -10 -8 -29.5t-7 -23.5q-1 -5 -7 -26q-72 -263 -72 -275q0 -10 11 -10q21 0 77 70l16 -9q-43 -58 -73 -82t-60 -24q-46 0 -46 50q0 29 74 296q12 42 12 48q0 10 -16 10h-155l-72 -318q-43 -187 -117 -252q-39 -33 -84 -33q-34 0 -56 16.5t-22 43.5q0 18 11 31t26 13 q16 0 27.5 -12t11.5 -28q0 -7 -5 -16q-4 -7 -4 -11q0 -13 20 -13q37 0 61 47q28 52 58 224q45 253 67 308h-88z" />
<glyph unicode="fl" d="M46 428h92q21 64 31 90t28.5 55.5t47.5 54.5q64 54 138 54q32 0 61 -7q28 -4 31 -4q4 0 28 8q6 3 10 3q5 0 5 -9t-21 -88q-30 -115 -78.5 -320.5t-48.5 -217.5q0 -11 11 -11q18 0 78 69l16 -9q-45 -61 -73 -83t-59 -22q-22 0 -35 13.5t-13 36.5t47 217l33 138h-166 l-69 -310q-65 -290 -205 -290q-34 0 -55 17.5t-21 44.5q0 17 10.5 29.5t25.5 12.5q16 0 28 -12t12 -27q0 -8 -5 -17q-4 -7 -4 -10q0 -13 20 -13q29 0 47 24q13 17 18 31q22 58 91 388l28 132h-90zM383 428l37 148q0 5 -5 15q-5 12 -5 17q0 10 8 21q4 5 4 9q0 9 -13 15.5 t-30 6.5q-55 0 -93 -51q-37 -51 -64 -157l-6 -24h167z" />
<glyph unicode="ffi" horiz-adv-x="744" d="M211 428h172q27 92 46 129t59 73q56 51 134 51q45 0 74 -19.5t29 -48.5q0 -19 -12 -32t-30 -13q-19 0 -30 12t-11 31q0 14 9 23q4 5 4 9q0 13 -34 13q-29 0 -48.5 -7.5t-37.5 -31.5q-25 -32 -39 -67.5t-36 -121.5h150q40 0 81 6q4 0 8 0.5t6 1t4 0.5l5 -3v-3q0 -7 -5 -25 l-1 -4q-2 -10 -8 -29.5t-7 -23.5q-1 -5 -7 -26q-72 -263 -72 -275q0 -10 11 -10q21 0 77 70l16 -9q-43 -58 -73 -82t-60 -24q-46 0 -46 50q0 29 74 296q12 42 12 48q0 10 -16 10h-155l-72 -318q-43 -187 -117 -252q-39 -33 -84 -33q-34 0 -56 16.5t-22 43.5q0 18 11 31 t26 13q16 0 27.5 -12t11.5 -28q0 -7 -5 -16q-4 -7 -4 -11q0 -13 20 -13q37 0 61 47q28 52 58 224q49 276 66 308h-171l-72 -320q-64 -283 -200 -283q-34 0 -56.5 17.5t-22.5 43.5q0 17 11 29.5t27 12.5q17 0 27.5 -10.5t10.5 -26.5q0 -7 -4.5 -15.5t-4.5 -13.5q0 -16 20 -16 q63 0 97 162l88 420h-91l7 32h93q39 126 72 173q54 77 132 77q37 0 61.5 -17.5t24.5 -44.5q0 -17 -12.5 -30t-29.5 -13q-14 0 -25.5 11t-11.5 28q0 10 5 19t5 12q0 13 -22 13q-42 0 -71 -54.5t-51 -173.5z" />
<glyph unicode="ffl" horiz-adv-x="745" d="M211 428h172q21 64 31 90t28.5 55.5t47.5 54.5q64 54 138 54q32 0 61 -7q28 -4 31 -4q4 0 28 8q6 3 10 3q5 0 5 -9t-21 -88q-30 -115 -78.5 -320.5t-48.5 -217.5q0 -11 11 -11q18 0 78 69l16 -9q-45 -61 -73 -83t-59 -22q-22 0 -35 13.5t-13 36.5t47 217l33 138h-166 l-69 -310q-32 -144 -84.5 -218.5t-120.5 -74.5q-34 0 -55 18.5t-21 46.5q0 17 10.5 29.5t25.5 12.5q16 0 28 -12t12 -27q0 -8 -5 -17q-4 -7 -4 -10q0 -20 20 -20q23 0 47 31q13 17 18 31q22 58 91 388l28 132h-171l-72 -320q-64 -283 -200 -283q-34 0 -56.5 17.5t-22.5 43.5 q0 17 11 29.5t27 12.5q17 0 27.5 -10.5t10.5 -26.5q0 -7 -4.5 -15.5t-4.5 -13.5q0 -16 20 -16q63 0 97 162l88 420h-91l7 32h93q39 126 72 173q54 77 132 77q37 0 61.5 -17.5t24.5 -44.5q0 -17 -12.5 -30t-29.5 -13q-14 0 -25.5 11t-11.5 28q0 10 5 19t5 12q0 13 -22 13 q-42 0 -71 -54.5t-51 -173.5zM628 428l37 148q0 5 -5 15q-5 12 -5 17q0 10 8 21q4 5 4 9q0 9 -13 15.5t-30 6.5q-55 0 -93 -51q-37 -51 -64 -157l-6 -24h167z" />
<glyph unicode="fj" d="M51 428h88q27 92 46 129t59 73q56 51 134 51q55 0 85 -28q17 -4 29 -19.5t12 -34.5q0 -21 -14.5 -36t-34.5 -15q-40 0 -50 37q-7 10 -7 26q0 14 9 23q4 5 4 9q0 16 -34 16q-54 0 -86 -42q-25 -32 -39 -67.5t-36 -121.5h150q40 0 81 6q4 0 8 0.5t6 1t4 0.5l5 -3v-3 q0 -7 -5 -25l-1 -4q-2 -10 -8 -29.5t-7 -23.5q-1 -5 -7 -26q-18 -67 -35.5 -137.5t-27 -111.5t-9.5 -45q-31 -121 -76.5 -178t-110.5 -57q-35 0 -57 17t-22 44q0 18 12 31t29 13q39 0 39 -37q0 -12 -6 -19.5t-6 -14.5q0 -12 18 -12q30 0 50.5 39t46.5 143l83 341 q11 46 11 48q0 10 -16 10h-155l-72 -318q-43 -187 -117 -252q-39 -33 -84 -33q-34 0 -56 16.5t-22 43.5q0 18 11 31t26 13q16 0 27.5 -12t11.5 -28q0 -7 -5 -16q-4 -7 -4 -11q0 -13 20 -13q37 0 61 47q28 52 58 224q45 253 67 308h-88z" />
<glyph unicode=" "  horiz-adv-x="250" />
<glyph unicode="&#x09;" horiz-adv-x="250" />
<glyph unicode="&#xa0;" horiz-adv-x="250" />
<glyph unicode="!" horiz-adv-x="333" d="M137 177l-17 5q49 227 71 369q10 64 25.5 90t43.5 26q44 0 44 -51q0 -40 -39 -123q-56 -120 -128 -316zM145 41q0 -21 -16.5 -36.5t-39.5 -15.5q-22 0 -36 15.5t-14 38.5q0 21 16.5 36.5t37.5 15.5q23 0 37.5 -16t14.5 -38z" />
<glyph unicode="&#x22;" horiz-adv-x="420" d="M346 421h-23q13 158 22 203q4 20 19.5 31t34.5 11q13 0 23 -8t10 -20q0 -30 -86 -217zM167 421h-23q13 158 22 203q4 20 19.5 31t35.5 11q13 0 22.5 -8t9.5 -20q0 -32 -86 -217z" />
<glyph unicode="#" horiz-adv-x="501" d="M540 464l-11 -54h-104l-54 -143h94l-11 -54h-104l-79 -213h-62l80 213h-130l-79 -213h-62l80 213h-96l11 54h106l54 143h-97l11 54h106l80 212h61l-80 -212h130l80 212h61l-80 -212h95zM364 410h-130l-54 -143h130z" />
<glyph unicode="$" d="M497 611l-28 -114l-15 2q-2 57 -20.5 87t-64.5 47l-56 -237q88 -65 115 -104t27 -102q0 -92 -67 -143q-40 -30 -72.5 -38.5t-100.5 -8.5l-21 -89h-35l22 91q-95 18 -149 66l26 123l16 3q4 -76 29 -109.5t86 -52.5l69 297q-76 49 -105.5 86.5t-29.5 92.5q0 61 42 106 q30 32 65 43t93 11h18l17 63h34l-16 -68q72 -17 121 -52zM336 641h-16q-53 0 -86 -32.5t-33 -76.5q0 -35 17.5 -61t62.5 -53zM289 306l-68 -281q159 13 159 144q0 42 -15.5 65t-69.5 67z" />
<glyph unicode="%" horiz-adv-x="755" d="M705 213q0 -91 -50 -161.5t-114 -70.5q-51 0 -86 40t-35 98q0 80 58.5 145.5t130.5 65.5q46 0 71 -30.5t25 -86.5zM682 215q0 39 -17.5 63t-45.5 24q-29 0 -49 -23q-33 -35 -55.5 -93.5t-22.5 -109.5q0 -29 16 -48.5t40 -19.5q52 0 93 63.5t41 143.5zM640 706l-430 -724 h-47l394 658q-28 -32 -54.5 -44.5t-66.5 -12.5q-35 0 -76 14q4 -23 4 -44q0 -52 -22 -104t-58 -86q-38 -37 -86 -37q-50 0 -84 39.5t-34 97.5q0 85 58 149t135 64q26 0 60 -28q47 -39 96 -39q46 0 72 15t95 82h44zM340 569q0 22 -4.5 30t-20.5 16q-23 11 -44 34 q-31 -15 -44 -26.5t-28 -36.5q-48 -76 -48 -163q0 -31 15.5 -50.5t41.5 -19.5q53 0 92.5 65t39.5 151z" />
<glyph unicode="&#x26;" horiz-adv-x="778" d="M712 63l11 -11q-42 -70 -132 -70q-74 0 -134 79q-57 -45 -102.5 -62t-96.5 -17q-84 0 -133 40.5t-49 112.5q0 90 75 151q37 30 180 92q-7 42 -7 94q0 88 43 141t116 53q45 0 74 -27t29 -67q0 -55 -56 -103q-34 -30 -116 -72q27 -142 87 -237q46 52 62.5 82t16.5 57 q0 17 -10.5 23.5t-40.5 8.5v19h188v-17q-37 -4 -54.5 -18.5t-56.5 -71.5q-20 -30 -86 -118q30 -50 58.5 -72t63.5 -22q37 0 70 32zM517 572q0 62 -39 62q-32 0 -52.5 -33t-20.5 -97q0 -38 5 -76q61 38 84 71t23 73zM436 93q-49 62 -103 252q-74 -29 -118.5 -78.5 t-44.5 -106.5q0 -56 34.5 -91t93.5 -35q61 0 138 59z" />
<glyph unicode="'" horiz-adv-x="214" d="M155 421h-23q13 168 23 206q9 39 51 39q16 0 25.5 -9t9.5 -22q0 -29 -86 -214z" />
<glyph unicode="(" horiz-adv-x="333" d="M302 669l13 -15q-107 -101 -155.5 -251t-48.5 -318q0 -73 10 -128.5t38 -131.5l-18 -6q-99 159 -99 361q0 169 74 290q27 44 67 85.5t119 113.5z" />
<glyph unicode=")" horiz-adv-x="333" d="M171 664l19 5q35 -63 51 -102.5t29 -94.5q19 -89 19 -168q0 -148 -78 -282q-52 -89 -182 -202l-13 15q62 65 95.5 123t59.5 139q49 152 49 305q0 145 -49 262z" />
<glyph unicode="*" d="M328 459l37 -19q32 -16 63 -20q64 -9 64 -44q0 -37 -38 -37q-20 0 -46 32q-8 10 -14 16.5t-14 13.5t-11 9.5t-16 11.5t-16 11l-18 13q1 -64 20 -117q8 -24 8 -34q0 -40 -37 -40t-37 38q0 11 10 41q18 50 18 112q-3 -2 -16 -10q-25 -15 -38 -26.5t-33 -36.5 q-27 -33 -51 -33q-15 0 -25 8.5t-10 23.5q0 38 62 48q35 6 53 13t51 27l-12 7q-45 26 -93 32q-61 7 -61 44q0 16 9.5 27.5t23.5 11.5q22 0 49 -31q42 -47 91 -76q0 48 -18 107q-8 27 -8 42q0 42 35 42q17 0 26.5 -11.5t9.5 -29.5q0 -10 -11 -48q-16 -51 -16 -104 q33 22 46 33.5t54 54.5q19 21 38 21q17 0 26 -11t9 -28q0 -36 -57 -43q-34 -4 -53.5 -12t-53.5 -29z" />
<glyph unicode="+" horiz-adv-x="675" d="M590 220h-219v-220h-66v220h-219v66h219v220h66v-220h219v-66z" />
<glyph unicode="," horiz-adv-x="250" d="M5 -129l-10 18q76 49 76 90q0 14 -20 29q-25 19 -25 49q0 18 14.5 31t36.5 13q26 0 42 -21.5t16 -52.5q0 -88 -130 -156z" />
<glyph unicode="-" horiz-adv-x="333" d="M282 255l-13 -63h-220l14 63h219z" />
<glyph unicode="." horiz-adv-x="250" d="M138 43q0 -22 -17 -38t-41 -16q-21 0 -37 16t-16 38q0 24 16 40.5t39 16.5t39.5 -17t16.5 -40z" />
<glyph unicode="/" horiz-adv-x="278" d="M386 666l-378 -684h-73l378 684h73z" />
<glyph unicode="0" d="M497 425q0 -110 -52 -222t-129 -167q-61 -43 -126 -43q-76 0 -117 59t-41 164q0 115 43.5 222t114.5 172.5t148 65.5t118 -65t41 -186zM418 518q0 130 -84 130q-67 0 -120 -95q-39 -71 -71 -194t-32 -203q0 -63 22 -99t59 -36q73 0 129 100q43 76 70 187.5t27 209.5z" />
<glyph unicode="1" d="M401 676h3q5 0 5 -7q0 -8 -6 -29l-143 -519q-18 -64 -18 -74q0 -32 66 -32h21v-15h-279v15q59 4 81.5 15t30.5 40l136 488q8 30 8 36q0 31 -35 31h-3q-21 0 -59 -2v15l23 5q48 10 91.5 18t77.5 15z" />
<glyph unicode="2" d="M101 507l-21 7q34 83 82 120q55 42 128 42q71 0 116.5 -48.5t45.5 -120.5q0 -50 -29.5 -96t-119.5 -138l-188 -192v-5h181q43 0 64 13.5t39 51.5l17 -7l-50 -134h-354v17l210 224q98 104 135 187q9 20 9 54q0 54 -31 87.5t-88 33.5q-96 0 -146 -96z" />
<glyph unicode="3" d="M178 567l-16 5q48 104 171 104q58 0 95 -34t37 -88q0 -55 -34.5 -89t-120.5 -64v-3q50 -19 72.5 -53.5t22.5 -90.5q0 -117 -93 -199q-71 -62 -185 -62q-53 0 -82 16t-29 41q0 19 12 31t31 12q30 0 64 -30q36 -32 71 -32q52 0 93 46q38 45 38 126q0 79 -42.5 118.5 t-117.5 39.5h-24v16q119 21 175 60q62 43 62 106q0 41 -24 66t-64 25q-61 0 -112 -67z" />
<glyph unicode="4" d="M479 676l-121 -435h96l-14 -63h-101l-46 -178h-79l49 178h-262l20 67l417 431h41zM373 563h-4l-304 -318v-4h212z" />
<glyph unicode="5" d="M491 666l-23 -71h-230l-39 -88q220 -42 220 -223q0 -123 -87 -207t-211 -84q-47 0 -76.5 14t-29.5 43q0 17 11.5 29.5t28.5 12.5q22 0 56 -28q15 -13 22.5 -17.5t17.5 -8t24 -3.5q68 0 121.5 64t53.5 147q0 82 -53 125q-55 45 -166 61v16l104 218h256z" />
<glyph unicode="6" d="M521 686v-16q-90 -12 -180 -79.5t-142 -162.5l4 -2q34 21 92 21q70 0 118.5 -50t48.5 -126q0 -114 -74.5 -196t-179.5 -82q-88 0 -133 57t-45 158t48.5 196.5t135.5 163.5q70 55 135 80t172 38zM373 289q0 54 -32.5 88t-84.5 34q-62 0 -98 -56q-23 -35 -37.5 -92.5 t-14.5 -112.5q0 -60 27.5 -95.5t70.5 -35.5q64 0 111 69q26 39 42 95t16 106z" />
<glyph unicode="7" d="M537 656l-388 -664h-70l367 598l-2 3h-215q-48 0 -75 -14.5t-64 -58.5l-15 10l82 136h373z" />
<glyph unicode="8" d="M225 360v1q-50 56 -68.5 89.5t-18.5 73.5q0 71 50 111.5t132 40.5q80 0 126.5 -37.5t46.5 -98.5q0 -59 -37 -95t-127 -63v-1q65 -60 90 -103t25 -97q0 -83 -60.5 -135.5t-154.5 -52.5q-84 0 -141.5 42t-57.5 126q0 69 51.5 120.5t143.5 78.5zM425 530q0 54 -29.5 88.5 t-77.5 34.5t-75 -29.5t-27 -78.5q0 -33 19 -63t76 -83q64 30 89 59.5t25 71.5zM369 155q0 43 -19.5 73t-102.5 116q-68 -26 -108.5 -78t-40.5 -117q0 -59 42.5 -96.5t96.5 -37.5q57 0 94.5 43t37.5 97z" />
<glyph unicode="9" d="M352 272l-4 2q-72 -45 -129 -45q-66 0 -108 50t-42 129q0 59 25 115.5t68 95.5q63 57 149 57t133.5 -58.5t47.5 -159.5q0 -104 -50 -199.5t-142 -166.5q-60 -46 -118.5 -69t-158.5 -40v19q59 13 102 35t99 68q46 38 80.5 84.5t47.5 82.5zM417 518q0 62 -26 97t-73 35 q-62 0 -108 -61q-53 -70 -53 -175q0 -67 26 -103t74 -36q67 0 108 46q21 22 36.5 81.5t15.5 115.5z" />
<glyph unicode=":" horiz-adv-x="333" d="M261 384q0 -23 -16.5 -38.5t-40.5 -15.5q-22 0 -38 16t-16 38q0 24 16 40.5t39 16.5t39.5 -16.5t16.5 -40.5zM161 43q0 -23 -16.5 -38.5t-40.5 -15.5q-22 0 -38 16t-16 38q0 23 16.5 40t39.5 17q22 0 38.5 -17t16.5 -40z" />
<glyph unicode=";" horiz-adv-x="333" d="M261 384q0 -23 -16.5 -38.5t-40.5 -15.5q-22 0 -38 16t-16 38q0 24 16 40.5t39 16.5t39.5 -16.5t16.5 -40.5zM36 -129l-10 18q76 49 76 90q0 14 -20 29q-25 19 -25 49q0 18 14.5 31t36.5 13q26 0 42 -21.5t16 -52.5q0 -88 -130 -156z" />
<glyph unicode="&#x3c;" horiz-adv-x="675" d="M592 -10l-508 230v66l508 230v-72l-420 -191l420 -191v-72z" />
<glyph unicode="=" horiz-adv-x="675" d="M590 320h-504v66h504v-66zM590 120h-504v66h504v-66z" />
<glyph unicode="&#x3e;" horiz-adv-x="675" d="M592 220l-508 -230v72l420 191l-420 191v72l508 -230v-66z" />
<glyph unicode="?" d="M216 174l-18 3q14 79 33.5 117.5t82.5 101.5q84 84 84 164q0 35 -21.5 58.5t-58.5 23.5q-33 0 -51.5 -12.5t-18.5 -35.5q0 -10 8 -27q6 -13 6 -25q0 -13 -12.5 -24.5t-29.5 -11.5q-36 0 -36 49q0 48 38 78.5t97 30.5q153 0 153 -124q0 -49 -24 -85.5t-107 -98.5 q-55 -41 -81 -75.5t-37 -78.5zM237 38q0 -21 -16 -35.5t-37 -14.5q-23 0 -37.5 14t-14.5 36q0 24 15 39.5t37 15.5t37.5 -16.5t15.5 -38.5z" />
<glyph unicode="@" horiz-adv-x="920" d="M686 68l12 -29q-122 -57 -224 -57q-150 0 -253 97.5t-103 239.5q0 145 105.5 246t257.5 101q145 0 235 -87t90 -206q0 -96 -55 -165.5t-129 -69.5q-73 0 -89 72q-52 -71 -121 -71q-38 0 -64.5 29.5t-26.5 75.5q0 54 23.5 112.5t70.5 101.5t104 43q50 0 68 -52l10 37h69 l-61 -236q-7 -27 -7 -39q0 -40 40 -40q47 0 87.5 61t40.5 140q0 107 -85 185t-202 78q-123 0 -200.5 -88t-77.5 -229q0 -131 78.5 -214t206.5 -83q97 0 200 47zM570 394q0 62 -40 62q-20 0 -46 -15t-45 -40q-47 -62 -47 -136q0 -39 15.5 -61.5t43.5 -22.5q43 0 81 68t38 145 z" />
<glyph unicode="A" horiz-adv-x="611" d="M564 0h-245v16q45 2 61 14t16 39q0 8 -2 26l-20 131h-220l-59 -111q-22 -41 -22 -66q0 -30 62 -33v-16h-186v16q34 7 55.5 32t78.5 124l285 496h26l92 -553q10 -62 24 -79t54 -20v-16zM369 262l-45 263l-149 -263h194z" />
<glyph unicode="B" horiz-adv-x="611" d="M130 653h250q208 0 208 -150q0 -70 -64 -113q-34 -23 -111 -39v-1q126 -38 126 -150q0 -98 -74.5 -149t-200.5 -51h-272v16q41 6 55.5 20t27.5 60l121 436q11 39 11 64q0 22 -15 29.5t-62 11.5v16zM248 363h38q98 0 149.5 39t51.5 113q0 56 -28 82t-89 26 q-23 0 -31.5 -1.5t-15.5 -9t-12 -25.5zM238 331l-32 -119q-35 -133 -35 -140q0 -42 67 -42q88 0 140.5 44t52.5 126q0 45 -19 77t-48 42q-34 12 -126 12z" />
<glyph unicode="C" horiz-adv-x="667" d="M689 664l-37 -200l-18 3q-18 163 -149 163q-109 0 -199 -97q-53 -56 -80.5 -136t-27.5 -165q0 -205 175 -205q62 0 113.5 26t115.5 93l18 -15q-67 -79 -131.5 -114t-141.5 -35q-117 0 -189 69.5t-72 191.5q0 103 51 196.5t136 153.5q102 73 219 73q69 0 117 -17 q20 -7 41 -7q27 0 38 22h21z" />
<glyph unicode="D" horiz-adv-x="722" d="M131 653h277q134 0 213 -70t79 -199q0 -177 -160 -301q-106 -83 -291 -83h-257v16q43 8 56.5 20t25.5 56l122 445q11 39 11 59q0 21 -16 30.5t-60 10.5v16zM310 584l-118 -422q-22 -80 -22 -95q0 -37 68 -37q148 0 241 90q52 50 81 129.5t29 158.5q0 121 -78 180 q-47 35 -131 35q-32 0 -47.5 -7.5t-22.5 -31.5z" />
<glyph unicode="E" horiz-adv-x="611" d="M634 653l-31 -154l-22 2q3 26 3 46q0 45 -37 59t-155 14q-42 0 -55 -4.5t-18 -21.5l-66 -233h78q66 0 88 16t51 81l18 -4l-68 -232l-20 5q7 31 7 52q0 24 -7 31q-16 15 -78 15h-78l-32 -112q-36 -127 -36 -146q0 -34 79 -34q129 0 203 39q38 20 94 98l16 -8l-62 -162 h-507v16q43 8 56 19.5t25 54.5l123 442q11 37 11 64q0 20 -15.5 28.5t-61.5 12.5v16h497z" />
<glyph unicode="F" horiz-adv-x="611" d="M645 653l-32 -154l-21 2q3 22 3 33q0 39 -14 55.5t-54 23.5t-131 7q-35 0 -49 -6.5t-19 -25.5l-64 -227q49 1 71.5 1t48.5 4.5t34.5 8t22.5 17t20 25t19 38.5l18 -5l-76 -235l-17 5q8 41 8 61q0 28 -17.5 36t-57.5 8q-28 0 -83 3l-59 -213q-14 -50 -14 -60q0 -18 17 -27 t60 -12v-16h-251v16q41 3 56 19t27 59l123 442q10 36 10 61q0 21 -13.5 28.5t-62.5 11.5v16h497z" />
<glyph unicode="G" horiz-adv-x="722" d="M722 319v-16q-49 -3 -67.5 -16.5t-29.5 -55.5l-49 -187q-111 -62 -237 -62q-137 0 -213 76q-35 35 -54.5 88t-19.5 105q0 103 50 194t133 149q104 72 220 72q72 0 134 -24q26 -10 44 -10q36 0 60 34l15 -5l-49 -197l-18 3q-3 64 -37 106q-48 59 -141 59q-117 0 -195 -99 q-50 -63 -78 -143t-28 -162q0 -99 53 -154t149 -55q71 0 105 34q9 9 16 26.5t23 74.5q26 87 26 113q0 29 -47 33l-32 3v16h267z" />
<glyph unicode="H" horiz-adv-x="722" d="M769 653v-16q-44 -8 -58 -20t-26 -54l-132 -481q-3 -12 -3 -24q0 -21 15 -29t64 -13v-16h-274v16q51 4 71.5 21t30.5 56l64 233h-285l-66 -244q-3 -11 -3 -22q0 -22 12.5 -30t57.5 -14v-16h-245v16q41 4 56.5 20t29.5 66l118 430q12 46 12 64q0 21 -14.5 28.5t-62.5 12.5 v16h271v-16q-45 -3 -67.5 -19t-32.5 -52l-54 -198h285l46 164q14 52 14 63q0 19 -16 29t-56 13v16h248z" />
<glyph unicode="I" horiz-adv-x="333" d="M384 653v-16q-42 -5 -55.5 -18t-26.5 -59l-120 -429q-15 -53 -15 -76q0 -20 12.5 -27t56.5 -12v-16h-244v16q42 8 57.5 21t26.5 54l120 441q13 46 13 62q0 20 -16 30.5t-56 12.5v16h247z" />
<glyph unicode="J" horiz-adv-x="444" d="M491 653v-16q-43 -6 -56 -17.5t-26 -56.5l-103 -367q-29 -104 -71 -159t-124 -55q-53 0 -85 24t-32 64q0 24 12.5 40t32.5 16t35.5 -13.5t15.5 -32.5q0 -6 -1.5 -14.5t-1.5 -12.5q0 -39 35 -39t53 64l127 454q12 44 12 64t-15 28.5t-62 12.5v16h254z" />
<glyph unicode="K" horiz-adv-x="667" d="M722 653v-16q-28 0 -77 -37l-298 -225l168 -293q23 -40 40 -50.5t64 -15.5v-16h-275v16l29 3q46 4 46 32q0 6 -1.5 13t-6.5 16.5t-8 15t-11 19.5t-10 18l-123 215l-65 -237q-11 -38 -11 -51q0 -23 14.5 -31.5t56.5 -12.5v-16h-247v16q43 5 56 17t25 54l124 445 q14 50 14 62q0 21 -17 31t-62 12v16h270v-16q-42 -3 -65 -18.5t-34 -55.5l-53 -194l153 109q143 101 143 137q0 15 -36 19l-24 3v16h221z" />
<glyph unicode="L" horiz-adv-x="556" d="M559 180l-58 -180h-509v16q42 4 55 17t27 61l122 438q11 37 11 62q0 22 -15.5 31t-61.5 12v16h273v-16q-46 -3 -67.5 -19t-33.5 -58l-120 -429q-10 -38 -10 -54q0 -23 22 -32t83 -9q77 0 110.5 7t69.5 31q41 27 82 112z" />
<glyph unicode="M" horiz-adv-x="833" d="M872 653v-16q-41 -7 -55.5 -20.5t-25.5 -53.5l-123 -443q-14 -50 -14 -62q0 -20 18 -30.5t63 -11.5l-1 -16h-271v16q49 5 69 22t33 64l126 459l-376 -561h-17l-62 546l-118 -428q-9 -32 -9 -54q0 -43 70 -48v-16h-197v16q40 5 58.5 28.5t41.5 105.5l114 401q12 41 12 52 q0 30 -74 34v16h181l56 -492l335 492h166z" />
<glyph unicode="N" horiz-adv-x="667" d="M727 653v-16q-27 -6 -37.5 -9.5t-23 -21t-19 -38.5t-22.5 -76l-146 -507h-18l-230 550l-114 -422q-9 -32 -9 -54q0 -21 15.5 -30.5t54.5 -12.5v-16h-198v16q43 6 61 31.5t45 120.5l117 415q-23 54 -86 54v16h160l207 -499l106 388q8 28 8 44q0 27 -13.5 37t-55.5 14v16 h198z" />
<glyph unicode="O" horiz-adv-x="722" d="M699 418q0 -107 -57.5 -205t-149.5 -160q-105 -71 -214 -71q-99 0 -158.5 62t-59.5 172q0 91 49 187.5t128 165.5q112 97 237 97q107 1 166 -66t59 -182zM594 481q0 71 -34.5 111.5t-94.5 40.5q-99 0 -186 -117q-53 -72 -83.5 -163t-30.5 -169q0 -82 33.5 -125.5 t96.5 -43.5q92 0 170 95q59 74 94 181t35 190z" />
<glyph unicode="P" horiz-adv-x="611" d="M146 653h241q218 0 218 -148q0 -40 -18.5 -78.5t-49.5 -64.5q-69 -57 -205 -57q-55 0 -90 8l-53 -193q-14 -54 -14 -63q0 -18 15 -27.5t54 -13.5v-16h-244v16q43 6 56.5 19.5t27.5 62.5l116 414q17 61 17 83q0 20 -14 28.5t-57 13.5v16zM320 592l-69 -245q29 -5 52 -5 q87 0 128 24q71 40 71 134q0 123 -130 123q-44 0 -52 -31z" />
<glyph unicode="Q" horiz-adv-x="722" d="M69 -169l-10 16q58 41 83.5 61t93.5 80q-85 17 -130.5 78.5t-45.5 158.5q0 93 46 185t127 162q111 94 241 94q101 0 163 -67t62 -170q0 -117 -71 -229.5t-185 -172.5q-68 -37 -164 -43l-54 -57h25q35 0 123 -20q86 -21 111 -21q54 0 90 16.5t78 60.5l16 -11 q-24 -34 -52 -59q-83 -75 -191 -75q-66 0 -148 26q-55 18 -93 18q-59 0 -115 -31zM594 480q0 71 -34.5 112t-94.5 41q-110 0 -194 -125q-45 -67 -75.5 -159.5t-30.5 -165.5q0 -75 34 -120.5t90 -45.5q114 0 198 124q46 70 76.5 166t30.5 173z" />
<glyph unicode="R" horiz-adv-x="611" d="M132 653h252q97 0 150.5 -38t53.5 -103q0 -78 -66 -128q-39 -30 -131 -51l89 -235q17 -46 35.5 -64t51.5 -18v-16h-147l-123 324l-66 5l-55 -203q-13 -46 -13 -63q0 -23 13 -33t54 -14v-16h-243v16q40 5 56.5 22t28.5 63l119 431q12 46 12 63q0 18 -14 28q-12 8 -57 14 v16zM306 593l-63 -227q31 -5 51 -5q89 0 139 40t50 110q0 52 -31 82t-89 30q-49 0 -57 -30z" />
<glyph unicode="S" d="M508 667l-40 -200l-18 3q0 83 -25 123t-94 40q-52 0 -82 -26.5t-30 -73.5q0 -38 16 -63.5t83 -92.5q67 -68 90 -109t23 -91q0 -85 -57.5 -140t-144.5 -55q-38 0 -104 23q-32 12 -47 12q-33 0 -43 -32h-18l34 224l20 -2q-2 -9 -2 -23q0 -73 40.5 -120t103.5 -47 q58 0 94.5 35.5t36.5 92.5q0 33 -13 59.5t-47 63.5l-39 42q-3 3 -17 18.5t-22 23.5q-45 48 -60 78.5t-15 71.5q0 76 51.5 120t126.5 44q52 0 85 -14q29 -11 46 -11t26 5t19 21h23z" />
<glyph unicode="T" horiz-adv-x="556" d="M633 653l-44 -164l-17 2q3 25 3 46q0 81 -101 81h-58l-137 -490q-14 -49 -14 -66q0 -23 11 -31.5t42 -11.5l35 -3v-16h-288v16q52 5 74 20t33 55l143 527q-119 0 -160.5 -21.5t-77.5 -102.5l-18 4l42 155h532z" />
<glyph unicode="U" horiz-adv-x="722" d="M765 653v-16q-21 -5 -31.5 -9.5t-20.5 -11t-17.5 -24.5t-14.5 -39t-20 -65l-83 -285q-34 -116 -97 -169q-60 -52 -158 -52t-159.5 46t-61.5 118q0 55 44 216l52 189q9 32 9 45q0 20 -17.5 30t-62.5 11v16h272v-16q-51 -5 -70.5 -22t-33.5 -69l-63 -226q-40 -141 -40 -179 q0 -53 39.5 -85.5t98.5 -32.5q84 0 135 54t85 178l64 233q23 85 23 103q0 22 -15 32t-55 14v16h198z" />
<glyph unicode="V" horiz-adv-x="611" d="M688 653v-16q-32 -1 -56 -40l-373 -615h-19l-82 503q-17 105 -28.5 126t-53.5 26v16h240v-16q-47 -5 -61.5 -15t-14.5 -36q0 -10 1 -15l65 -443l210 360q49 84 49 115q0 27 -62 34v16h185z" />
<glyph unicode="W" horiz-adv-x="833" d="M906 653v-16q-29 -9 -42.5 -22t-34.5 -53l-301 -580h-20l-50 453h-5l-222 -453h-19l-61 514q-8 70 -13 92.5t-16 33.5q-10 10 -51 15v16h235v-16q-41 -4 -56.5 -14t-15.5 -37q0 -13 1 -20l44 -404l172 348l-8 65q-4 38 -17.5 49t-57.5 13v16h236v-16q-39 -4 -53.5 -14 t-14.5 -34q0 -3 1 -8.5t1 -6.5l40 -412l188 365q23 44 23 68q0 41 -67 42v16h184z" />
<glyph unicode="X" horiz-adv-x="611" d="M655 653v-16q-33 -11 -60.5 -31.5t-64.5 -63.5l-169 -194l101 -255q18 -45 36 -58t69 -19v-16h-271v16q43 1 60 9.5t17 27.5q0 16 -14 51l-67 165l-151 -172q-23 -26 -23 -48q0 -33 66 -33v-16h-213v16q40 7 76 40.5t144 159.5l83 97l-103 255q-15 37 -33.5 51t-61.5 18 v16h263v-16q-41 -5 -56 -13.5t-15 -27.5q0 -17 16 -56l59 -147l145 167q21 24 21 43q0 31 -61 34v16h207z" />
<glyph unicode="Y" horiz-adv-x="556" d="M633 653v-16q-21 -7 -32 -17.5t-38 -43.5l-219 -270l-36 -123q-30 -103 -30 -127q0 -19 11.5 -27t41.5 -10l36 -3v-16h-289v16q51 3 72.5 18.5t34.5 62.5l59 205l-76 267q-11 40 -23.5 51t-53.5 17v16h239v-16q-44 -4 -58 -11.5t-14 -24.5t36 -144l31 -110l39 46 q149 176 149 213q0 24 -40 28l-29 3v16h189z" />
<glyph unicode="Z" horiz-adv-x="556" d="M606 639l-483 -603h161q71 0 108.5 6t64.5 26q41 30 77 104l19 -3l-54 -169h-505v14l479 603h-171q-102 0 -142 -27q-22 -15 -32.5 -30.5t-33.5 -58.5l-19 5l45 147h486v-14z" />
<glyph unicode="[" horiz-adv-x="389" d="M391 663l-7 -27h-62q-21 0 -31.5 -9t-15.5 -29l-158 -667q-6 -24 -6 -29q0 -28 49 -28h56l-7 -27h-188l197 816h173z" />
<glyph unicode="\" horiz-adv-x="278" d="M319 -18h-71l-289 684h72z" />
<glyph unicode="]" horiz-adv-x="389" d="M382 663l-197 -816h-173l7 27h62q22 0 32 9t15 32l160 670q4 16 4 25q0 26 -49 26h-57l7 27h189z" />
<glyph unicode="^" horiz-adv-x="422" d="M422 301h-68l-143 289h-1l-142 -289h-68l181 365h60z" />
<glyph unicode="_" d="M500 -125h-500v50h500v-50z" />
<glyph unicode="`" horiz-adv-x="333" d="M311 492h-32l-140 106q-19 15 -19 32q0 16 10 25t26 9q22 0 40 -23z" />
<glyph unicode="a" horiz-adv-x="501" d="M463 111l13 -11q-56 -68 -82.5 -89t-56.5 -21q-40 0 -40 41q0 25 23 115q-56 -84 -103 -120.5t-100 -36.5q-44 0 -72 30.5t-28 85.5q0 76 43.5 155t110.5 130t132 51q67 0 80 -58l11 48l3 3l61 7l7 -3q-1 -4 -6 -21q-89 -324 -89 -363q0 -13 14 -13q15 0 52 41zM365 361 q0 26 -15 42t-41 16q-68 0 -131 -92q-33 -49 -55 -109t-22 -106q0 -74 60 -74q59 0 127 98q77 111 77 225z" />
<glyph unicode="b" d="M163 290h1q50 83 94.5 117t98.5 34q52 0 84 -32t32 -88q0 -77 -47 -155t-122.5 -127.5t-150.5 -49.5q-46 0 -88 16t-42 37v6l142 523q9 36 9 47q0 16 -9.5 19.5t-54.5 5.5v17q75 9 153 23l5 -5l-21 -82zM388 306q0 86 -70 86q-69 0 -137 -115q-32 -54 -52 -119.5 t-20 -111.5q0 -34 46 -34q66 0 123 59q46 48 78 114.5t32 120.5z" />
<glyph unicode="c" horiz-adv-x="444" d="M350 107l16 -10q-46 -58 -89.5 -83t-99.5 -25q-71 0 -109 39t-38 115q0 67 34 129.5t89 107.5q77 61 167 61q46 0 75.5 -23t29.5 -58q0 -20 -14 -34t-34 -14t-29.5 11.5t-9.5 28.5q0 9 7.5 23.5t7.5 24.5q0 20 -37 20q-63 0 -109 -48q-91 -96 -91 -233q0 -54 23 -84 t66 -30q39 0 71 19t74 63z" />
<glyph unicode="d" d="M521 683l6 -6l-39 -152l-60 -219q-65 -239 -65 -246q0 -20 18 -20q13 0 27.5 12.5t54.5 58.5l12 -10q-77 -114 -147 -114q-19 0 -30 12t-11 33q0 30 13 89q-43 -73 -84.5 -102.5t-93.5 -29.5q-50 0 -78.5 30.5t-28.5 86.5q0 119 96.5 227t195.5 108q31 0 45.5 -14 t19.5 -44h1l45 163q14 49 14 71q0 16 -11 20t-53 6v17q77 7 153 23zM356 361q0 26 -14.5 41.5t-32.5 15.5q-47 0 -91 -46q-50 -53 -83 -126.5t-33 -135.5q0 -34 15.5 -53.5t42.5 -19.5q45 0 91 49t75.5 125t29.5 150z" />
<glyph unicode="e" horiz-adv-x="444" d="M358 109l12 -12q-88 -108 -204 -108q-61 0 -98 37.5t-37 99.5q0 117 93.5 216t205.5 99q39 0 60.5 -18t21.5 -50q0 -66 -76.5 -118t-207.5 -69q-10 -20 -10 -61t25.5 -66t67.5 -25q33 0 63 15.5t84 59.5zM152 252l-17 -44q112 27 161 74q50 48 50 97q0 39 -35 39 q-42 0 -87.5 -48.5t-71.5 -117.5z" />
<glyph unicode="f" horiz-adv-x="278" d="M41 428h93q39 126 72 173q54 77 132 77q37 0 61.5 -17.5t24.5 -44.5q0 -17 -12.5 -30t-29.5 -13q-14 0 -25.5 11t-11.5 28q0 10 5 19t5 12q0 13 -22 13q-42 0 -71 -54.5t-51 -173.5h107l-6 -32h-108l-72 -320q-64 -283 -200 -283q-34 0 -56.5 17.5t-22.5 43.5 q0 17 11 29.5t27 12.5q17 0 27.5 -10.5t10.5 -26.5q0 -7 -4.5 -15.5t-4.5 -13.5q0 -16 20 -16q63 0 97 162l88 420h-91z" />
<glyph unicode="g" d="M471 366h-49q9 -18 9 -51q0 -63 -57.5 -113.5t-127.5 -50.5q-17 0 -31 3q-3 1 -7 1q-13 0 -24.5 -13t-11.5 -28q0 -24 71 -42q142 -34 142 -127q0 -67 -56 -109t-154 -42q-78 0 -122.5 27.5t-44.5 80.5q0 39 22.5 66.5t94.5 70.5q-27 16 -27 39q0 48 77 84 q-79 28 -79 108q0 74 61 122.5t140 48.5q58 0 98 -28q11 -8 16 -8h60v-39zM352 348q0 39 -13.5 55t-42.5 16q-48 0 -85 -50t-37 -122q0 -35 16 -55t44 -20q50 0 85 59q33 56 33 117zM325 -90q0 35 -31.5 58.5t-111.5 48.5q-24 7 -34 11q-7 0 -30.5 -19t-34.5 -33 q-20 -25 -20 -58q0 -102 127 -102q59 0 97 27.5t38 66.5z" />
<glyph unicode="h" d="M465 118l13 -13q-46 -65 -77 -89.5t-69 -24.5q-20 0 -32 11.5t-12 30.5q0 17 20 92l55 207q7 28 7 33q0 25 -28 25q-27 0 -69.5 -40t-82.5 -100q-31 -48 -49 -93.5t-47 -156.5h-75l146 554q13 50 13 62t-13 18.5t-28 6.5h-27v15q76 9 157 27l7 -6l-121 -447 q130 211 230 211q33 0 49 -18.5t16 -48.5q0 -43 -48 -193q-33 -101 -33 -125q0 -18 16 -18q12 0 26.5 14.5t55.5 65.5z" />
<glyph unicode="i" horiz-adv-x="278" d="M264 599q0 -21 -14.5 -36t-34.5 -15q-22 0 -35 14.5t-13 38.5q0 23 13.5 38t33.5 15t35 -16.5t15 -38.5zM222 114l13 -11q-42 -65 -71 -89.5t-66 -24.5q-49 0 -49 55q0 29 22 111l48 177q9 32 9 44q0 15 -11.5 19t-52.5 5v16q46 4 160 25l4 -3l-94 -343q-10 -34 -10 -44 q0 -15 14 -15q25 0 84 78z" />
<glyph unicode="j" horiz-adv-x="278" d="M279 598q0 -20 -15 -35t-35 -15q-23 0 -38.5 14.5t-15.5 37.5q0 22 16 37t37 15q20 0 35.5 -16.5t15.5 -37.5zM246 438l-104 -410q-31 -121 -76.5 -178t-110.5 -57q-35 0 -57 17t-22 44q0 18 12 31t29 13q39 0 39 -37q0 -12 -6 -19.5t-6 -14.5q0 -12 18 -12q30 0 50.5 39 t46.5 143l72 292q16 65 16 80q0 17 -10.5 24t-37.5 7h-26v16q45 3 169 25z" />
<glyph unicode="k" horiz-adv-x="444" d="M461 428v-16q-36 -2 -76 -29.5t-149 -124.5l37 -88q55 -129 81 -129q21 0 45 42q5 8 15 26l15 -11q-35 -63 -58 -86t-53 -23q-22 0 -39.5 17.5t-41.5 64.5q-30 58 -60 141l-40 -32l-48 -180h-75l141 528q14 50 18 88q-3 24 -51 24h-18v16q75 9 157 27l6 -6l-120 -456 l43 33q143 110 143 140q0 18 -37 18h-14v16h179z" />
<glyph unicode="l" horiz-adv-x="278" d="M279 678l-153 -585q-8 -29 -8 -43q0 -18 17 -18q27 0 67 57l25 35l14 -10q-45 -71 -77.5 -98t-73.5 -27q-49 0 -49 56q0 17 4 30l137 524q3 10 3 19q0 22 -49 22h-18v16q70 8 155 27z" />
<glyph unicode="m" horiz-adv-x="722" d="M704 105l-5 -7q-77 -107 -144 -107q-40 0 -40 46q0 15 13 66l58 227q7 28 7 38q0 9 -6 15t-14 6q-47 0 -131 -117q-37 -52 -58 -104.5t-50 -167.5h-75l27 93q68 235 68 271q0 25 -22 25q-25 0 -66 -39.5t-83 -103.5q-25 -39 -42.5 -83t-53.5 -163h-75l43 144 q55 183 55 228q0 22 -41 22h-25v16l162 31l3 -2l-58 -209q130 211 220 211q29 0 44.5 -16t15.5 -44q0 -38 -40 -152q53 84 88.5 126.5t71.5 65.5q32 20 63 20q27 0 42.5 -17.5t15.5 -45.5q0 -13 -3 -28l-68 -251q-10 -38 -10 -45q0 -16 12 -16q22 0 65 53l21 26z" />
<glyph unicode="n" d="M460 117l14 -13q-51 -70 -78 -91.5t-62 -21.5q-20 0 -33.5 13.5t-13.5 40.5q0 16 16 75l44 162q14 54 14 79q0 29 -24 29q-29 0 -63.5 -34.5t-84.5 -107.5q-33 -49 -48.5 -88t-51.5 -160h-75l96 350q2 10 2 17q0 15 -13.5 20.5t-51.5 6.5v16q39 8 87 16.5t75 14.5l4 -2 l-67 -218q74 118 128 169t103 51q31 0 48 -16.5t17 -44.5q0 -25 -10 -60l-56 -203q-14 -50 -14 -61q0 -18 16 -18q19 0 61 53q7 8 21 26z" />
<glyph unicode="o" d="M468 301q0 -57 -28.5 -118.5t-77.5 -110.5q-83 -83 -188 -83q-70 0 -108.5 36.5t-38.5 102.5q0 83 50.5 162t129.5 121q56 30 120 30q62 0 101.5 -37.5t39.5 -102.5zM384 326q0 45 -19 69.5t-52 24.5q-67 0 -128 -91q-74 -113 -74 -228q0 -44 21 -67.5t57 -23.5 q61 0 121 83q34 46 54 110.5t20 122.5z" />
<glyph unicode="p" horiz-adv-x="504" d="M215 428l-29 -100q75 113 171 113q55 0 85 -33t30 -92q0 -123 -93.5 -225t-203.5 -102q-36 0 -69 17q-40 -165 -40 -166q0 -16 13.5 -22.5t48.5 -6.5v-16h-203v16q32 1 45.5 14t22.5 49l115 432q16 58 16 71q0 27 -44 27h-22l-2 15l156 22q5 0 5 -4q-1 -5 -2 -9zM382 313 q0 44 -14.5 64.5t-47.5 20.5q-39 0 -78 -34t-57 -80q-22 -57 -43.5 -135t-21.5 -103q0 -17 13.5 -27.5t34.5 -10.5q78 0 145 95q69 96 69 210z" />
<glyph unicode="q" d="M484 428l-165 -579q-2 -8 -2 -11q0 -31 57 -31h15v-16h-237v16q46 3 64 15t27 41l90 290q-59 -94 -104 -129t-104 -35q-47 0 -73.5 31t-26.5 85q0 77 44.5 156t113 129.5t135.5 50.5q63 0 77 -62l16 49h73zM380 359q0 25 -17 42.5t-42 17.5q-41 0 -93 -49 q-51 -49 -84 -119t-33 -132q0 -77 53 -77q41 0 82 36q51 44 92.5 131.5t41.5 149.5z" />
<glyph unicode="r" horiz-adv-x="389" d="M176 223l16 35q34 75 94 138q43 45 79 45q21 0 34 -14t13 -37t-12.5 -38.5t-34.5 -15.5q-19 0 -35 26q-8 14 -16 14q-27 0 -82 -94q-34 -58 -54.5 -109.5t-56.5 -172.5h-76l81 292q16 59 16 82q0 26 -38 26q-8 0 -31 -3v17l155 27l3 -2z" />
<glyph unicode="s" horiz-adv-x="389" d="M366 442l-20 -140h-16q-14 116 -89 116q-27 0 -43 -15t-16 -42q0 -38 54 -102q68 -79 68 -136q0 -61 -40.5 -97.5t-103.5 -36.5q-29 0 -55 10q-21 9 -44 9q-20 0 -29 -21h-16l20 159h16q20 -136 100 -136q36 0 56 20t20 57q0 45 -56 115q-63 79 -63 131q0 50 33 79t88 29 q20 0 56 -10q22 -7 36 -7q20 0 30 18h14z" />
<glyph unicode="t" horiz-adv-x="278" d="M296 428l-5 -32h-84l-87 -328q-2 -8 -2 -14q0 -16 15 -16q12 0 28 15.5t53 63.5l13 -7q-46 -70 -75.5 -95.5t-67.5 -25.5q-46 0 -46 37q0 10 16 74l78 296h-75l-1 6q0 18 33 25q25 6 66 38.5t67 71.5q6 9 14 9q9 0 9 -8q0 -5 -1 -7l-28 -103h80z" />
<glyph unicode="u" d="M461 119l14 -9q-48 -73 -75 -96t-63 -23q-48 0 -48 48q0 45 45 197q-89 -146 -137.5 -196.5t-101.5 -50.5t-53 53q0 18 27 128l35 139q14 58 14 67q0 12 -11 18t-50 6v14q69 8 150 27l4 -3l-89 -355q-3 -9 -3 -16q0 -25 20 -25q45 0 142 147q33 50 51.5 91.5t58.5 151.5 h74l-79 -299q-19 -72 -19 -78q0 -17 11 -17q12 0 29 16t54 65z" />
<glyph unicode="v" horiz-adv-x="444" d="M207 70l31 32q54 55 95.5 125.5t41.5 105.5q0 12 -18 29q-25 22 -25 45q0 15 11 24.5t27 9.5q24 0 40 -18.5t16 -40.5q0 -58 -63 -155q-55 -85 -119 -153q-9 -9 -22 -23t-19 -21t-15.5 -16.5l-14 -14t-10.5 -9.5t-10 -6.5t-8 -1.5q-9 0 -9 27v24q0 138 -24 278 q-10 57 -21.5 75t-39.5 18q-20 0 -31 -1v13q55 9 112 21q11 4 20 4q6 0 9.5 -13t20.5 -101q18 -91 25 -257z" />
<glyph unicode="w" horiz-adv-x="667" d="M403 426l32 -352q99 123 132 175.5t33 84.5q0 14 -22 35q-21 20 -21 41q0 12 11.5 21.5t27.5 9.5q22 0 37 -16t15 -40q0 -91 -212 -349l-9 -11q-35 -43 -45 -43q-8 0 -11 35l-29 310l-89 -152q-23 -38 -55 -99q-49 -94 -64 -94q-7 0 -9 9t-4 38l-4 91q-8 164 -27 242 q-7 27 -15.5 34.5t-31.5 7.5h-28v13q79 13 95 17q5 1 11.5 3t10.5 3t7 1q8 0 11 -5t8 -29q25 -120 32 -281l192 304q6 10 13 10q8 0 8 -14z" />
<glyph unicode="x" horiz-adv-x="444" d="M243 355l12 -57q53 81 85.5 112t65.5 31q18 0 29.5 -10.5t11.5 -26.5t-9.5 -26t-24.5 -10q-9 0 -24 8.5t-28 8.5q-29 0 -98 -121q0 -13 8 -45l32 -134q10 -41 30 -41q16 0 47 40q3 4 7 9.5t7 10t7 8.5l15 -9q-43 -67 -68 -90.5t-54 -23.5q-24 0 -37 15t-22 53l-29 119 l-88 -119q-31 -42 -50.5 -55t-44.5 -13q-23 0 -36.5 11t-13.5 31q0 15 9.5 25.5t24.5 10.5q12 0 32 -11q15 -9 26 -9q17 0 51 49l82 116l-28 124q-10 44 -18.5 56t-27.5 12q-12 0 -39 -7l-18 -5l-3 16l11 4q80 29 117 29q19 0 30 -18t21 -68z" />
<glyph unicode="y" horiz-adv-x="444" d="M243 186l21 -110q67 110 94.5 167.5t27.5 89.5q0 16 -26 32q-26 17 -26 39q0 16 11.5 26.5t28.5 10.5q22 0 37 -16t15 -39q0 -87 -131 -305q-78 -129 -151.5 -208t-116.5 -79q-23 0 -37 12t-14 31q0 17 11.5 28.5t27.5 11.5q19 0 34 -14t27 -14q18 0 48 33 q13 13 38.5 46.5t32.5 44.5q10 20 10 35q0 30 -31 155.5t-51 176.5q-14 37 -30.5 50.5t-46.5 13.5q-16 0 -31 -4v17q22 4 32 6q41 8 107 18h4q11 0 41.5 -93t43.5 -162z" />
<glyph unicode="z" horiz-adv-x="389" d="M380 417l-289 -344q46 -10 68.5 -25t51.5 -58q34 -50 70 -50q27 0 27 15q0 5 -5 15q-8 16 -8 28q1 13 11 23.5t22 10.5q16 0 25.5 -10t9.5 -27q0 -31 -26 -53.5t-67 -22.5q-42 0 -113 44q-68 42 -105 42q-23 0 -45 -18l-9 9l310 372h-136q-40 0 -58 -11.5t-33 -48.5 l-16 4l32 116h283v-11z" />
<glyph unicode="{" horiz-adv-x="400" d="M407 687l-3 -11q-47 -12 -70 -38.5t-39 -85.5l-45 -168q-16 -62 -40.5 -89t-73.5 -40q56 -24 56 -63q0 -31 -44 -190q-22 -84 -22 -102q0 -28 12 -43t41 -23l-3 -11q-69 2 -97 19.5t-28 58.5q0 33 32 144q34 116 34 153q0 22 -11.5 34t-41.5 23q48 13 69.5 36t36.5 78 l48 178q22 79 63 109.5t126 30.5z" />
<glyph unicode="|" horiz-adv-x="275" d="M171 -18h-66v684h66v-684z" />
<glyph unicode="}" horiz-adv-x="400" d="M221 676l3 11q69 -2 97 -19.5t28 -58.5q0 -35 -32 -144q-34 -117 -34 -153q0 -22 11.5 -34t41.5 -23q-48 -13 -69.5 -36t-36.5 -78l-48 -178q-22 -79 -63.5 -109.5t-125.5 -30.5l3 11q47 12 70 38.5t39 85.5l45 168q16 62 40 89t74 40q-56 24 -56 63q0 31 44 190 q22 80 22 101q0 52 -53 67z" />
<glyph unicode="~" horiz-adv-x="541" d="M466 323l36 -50q-33 -48 -61.5 -67t-63.5 -19q-46 0 -103 33q-60 35 -113 35q-25 0 -48.5 -18.5t-36.5 -53.5l-36 50q44 86 122 86q47 0 114 -31q4 -2 18.5 -9t26.5 -12.5t27 -10.5t25 -5q29 0 46.5 14.5t46.5 57.5z" />
<glyph unicode="&#xa1;" horiz-adv-x="389" d="M321 419q0 -20 -16 -35.5t-36 -15.5q-22 0 -38 16t-16 38q0 21 16.5 36.5t38.5 15.5t36.5 -15.5t14.5 -39.5zM224 285l17 -4q-46 -204 -72 -370q-10 -62 -26.5 -89t-43.5 -27q-40 0 -40 50q0 41 38 124q50 108 127 316z" />
<glyph unicode="&#xa2;" d="M414 560l-42 -120q45 -4 70 -22q30 -23 30 -58q0 -20 -13.5 -34t-34.5 -14q-18 0 -28.5 11t-10.5 29q0 12 9 29q6 13 6 18q0 20 -35 21l-137 -391q11 -4 24 -4q38 0 70 18.5t75 64.5l16 -10q-45 -58 -89 -83.5t-98 -25.5q-6 0 -11 1l-47 -133h-31l48 136q-37 8 -58 25 q-50 39 -50 122q0 77 40.5 148t111.5 115q42 26 113 37l42 120h30zM202 41l132 376q-47 -10 -85 -48q-41 -42 -63.5 -104t-22.5 -123q0 -68 39 -101z" />
<glyph unicode="&#xa3;" d="M82 361h109q15 87 36.5 141.5t59.5 99.5q57 68 137 68q41 0 67 -21t26 -55q0 -41 -39 -41q-30 0 -36 44t-40 44q-42 0 -64.5 -53t-57.5 -227h124l-7 -42h-127q-19 -81 -30.5 -114t-42.5 -101q90 -38 160 -38q39 0 79 28l10 7l11 -9q-41 -100 -142 -100q-37 0 -65.5 13 t-78.5 52q-28 -37 -48.5 -50t-47.5 -13q-31 0 -48 17t-17 47q0 28 24 48t64 20q34 0 62 -11l25 204h-112zM146 73q-35 25 -61 25q-23 0 -38 -12.5t-15 -32.5q0 -16 12.5 -26.5t30.5 -10.5q20 0 40 16t31 41z" />
<glyph unicode="&#xa4;" d="M522 40l-48 -50l-98 98q-59 -41 -125 -41q-68 0 -127 41l-96 -98l-50 50l98 96q-41 59 -41 126q0 69 41 126l-98 98l50 48l96 -96q60 39 127 39q69 0 125 -39l98 96l48 -48l-96 -98q39 -57 39 -125q0 -67 -39 -127zM397 263q0 62 -42.5 106t-101.5 44q-62 0 -106 -43.5 t-44 -105.5q0 -64 43 -108.5t105 -44.5q61 0 103.5 44t42.5 108z" />
<glyph unicode="&#xa5;" d="M605 653v-16q-25 -11 -38.5 -21.5t-36.5 -39.5l-181 -224h149l-12 -40h-168l-6 -8l-24 -82h178l-12 -40h-178q-31 -94 -31 -118q0 -41 54 -45l36 -3v-16h-283l4 16q54 5 76 21t35 61l25 84h-164l12 40h163l23 80l-3 10h-162l12 40h139l-63 216q-12 40 -26 51.5t-62 17.5 v16h237v-16q-46 -4 -59.5 -11t-13.5 -23q0 -27 39 -156l29 -100q19 21 28 33q93 108 127 154.5t35 71.5q0 24 -42 28l-25 3v16h189z" />
<glyph unicode="&#xa6;" horiz-adv-x="275" d="M171 391h-66v275h66v-275zM171 -18h-66v275h66v-275z" />
<glyph unicode="&#xa7;" d="M249 398l2 3q-38 47 -52.5 77t-14.5 63q0 55 41.5 90t105.5 35q57 0 93.5 -28t36.5 -71q0 -25 -14 -40t-38 -15q-20 0 -33 12.5t-13 32.5t21 38q13 12 13 19q0 13 -17.5 22t-42.5 9q-43 0 -67.5 -22.5t-24.5 -60.5q0 -40 26 -72l123 -150q41 -50 41 -114 q0 -57 -32.5 -91.5t-85.5 -34.5q-19 0 -33 7l-2 -3q39 -50 51 -74.5t12 -54.5q0 -59 -44.5 -98t-111.5 -39q-57 0 -96.5 31t-39.5 77q0 26 15 41t41 15q47 0 47 -43q0 -30 -27 -46q-15 -10 -15 -17q0 -15 21.5 -26t49.5 -11q45 0 73.5 25t28.5 65q0 39 -50 97l-76 87 q-71 82 -71 153q0 51 31 87t75 36q25 0 53 -11zM377 192q0 25 -12.5 51t-44.5 69q-57 76 -107 76q-28 0 -47 -19t-19 -47q0 -53 60.5 -127t104.5 -74q27 0 46 21t19 50z" />
<glyph unicode="&#xa8;" horiz-adv-x="333" d="M405 557q0 -20 -14.5 -34.5t-34.5 -14.5q-21 0 -35 14.5t-14 35.5q0 20 14.5 34t35.5 14q19 0 33.5 -15t14.5 -34zM205 557q0 -20 -14.5 -34.5t-34.5 -14.5q-21 0 -35 14.5t-14 35.5q0 20 14.5 34t35.5 14q19 0 33.5 -15t14.5 -34z" />
<glyph unicode="&#xa9;" horiz-adv-x="760" d="M545 240l-15 -68q-1 -8 -5 -11t-16 -7q-64 -18 -111 -18q-95 0 -151 51t-56 136q0 89 60.5 144.5t157.5 55.5q46 0 99 -18q21 -6 21 -21v-69h-16q-15 88 -107 88q-67 0 -102.5 -44.5t-35.5 -127.5q0 -84 36.5 -129.5t104.5 -45.5q43 0 71 20t49 64h16zM719 318 q0 -139 -98.5 -237.5t-238.5 -98.5q-143 0 -242 99t-99 242t99 243t240 100q144 0 241.5 -100t97.5 -248zM664 319q0 127 -82.5 216t-200.5 89q-116 0 -200.5 -89t-84.5 -212q0 -122 84.5 -210.5t200.5 -88.5q115 0 199 88t84 207z" />
<glyph unicode="&#xaa;" horiz-adv-x="276" d="M299 673l53 2q-48 -168 -54 -203l-3 -15q-1 -3 -1 -7q0 -7 4 -7q7 0 31 24l14 15l7 -10q-37 -41 -53.5 -53.5t-36.5 -12.5q-31 0 -31 25q0 19 17 62q-38 -51 -63.5 -69t-62.5 -18q-36 0 -57 18.5t-21 51.5q0 70 61.5 135t127.5 65q50 0 59 -35l7 30zM269 620q0 36 -19 38 q-40 0 -87.5 -61.5t-47.5 -116.5q0 -16 9 -28t20 -12q39 0 79 60q20 29 33 63.5t13 56.5z" />
<glyph unicode="&#xab;" d="M215 216v9q103 80 127 101q88 77 97 77q6 0 6 -7q0 -29 -91 -112q-31 -28 -65 -67q6 -14 20 -40q62 -116 62 -133q0 -7 -7 -7q-6 0 -20 16.5t-33.5 42.5t-28.5 36q-44 50 -67 84zM53 216v9q103 80 127 101q88 77 97 77q6 0 6 -7q0 -29 -91 -112q-25 -22 -65 -67 q6 -14 20 -40q62 -116 62 -133q0 -7 -7 -7t-21 16.5t-32.5 42t-28.5 36.5q-44 50 -67 84z" />
<glyph unicode="&#xac;" horiz-adv-x="675" d="M590 108h-66v212h-438v66h504v-278z" />
<glyph unicode="&#xad;" horiz-adv-x="333" d="M282 255l-13 -63h-220l14 63h219z" />
<glyph unicode="&#xae;" horiz-adv-x="760" d="M563 146h-63q-13 0 -28 17t-41 62q-21 37 -51 82h-47v-97q0 -32 6 -38.5t42 -10.5v-15h-160v15q36 4 42 10.5t6 38.5v237q0 33 -6 39t-42 10v15h175q53 0 83.5 -24.5t30.5 -66.5q0 -71 -79 -103l57 -78q46 -62 75 -84v-9zM333 325h42q68 0 68 89q0 78 -69 78h-41v-167z M719 318q0 -139 -98.5 -237.5t-238.5 -98.5q-143 0 -242 99t-99 242t99 243t240 100q144 0 241.5 -100t97.5 -248zM664 319q0 127 -82.5 216t-200.5 89q-116 0 -200.5 -89t-84.5 -212q0 -122 84.5 -210.5t200.5 -88.5q115 0 199 88t84 207z" />
<glyph unicode="&#xaf;" horiz-adv-x="333" d="M411 583l-11 -51h-301l11 51h301z" />
<glyph unicode="&#xb0;" horiz-adv-x="400" d="M387 533q0 -61 -41.5 -102t-103.5 -41q-58 0 -99.5 42t-41.5 101q0 60 41.5 101.5t101.5 41.5t101.5 -41.5t41.5 -101.5zM348 533q0 44 -30.5 76.5t-73.5 32.5t-73.5 -32t-30.5 -77q0 -44 30.5 -76.5t72.5 -32.5q43 0 74 32t31 77z" />
<glyph unicode="&#xb1;" horiz-adv-x="675" d="M590 282h-219v-160h-66v160h-219v66h219v220h66v-220h219v-66zM590 0h-504v66h504v-66z" />
<glyph unicode="&#xb2;" horiz-adv-x="300" d="M91 572l-13 8q18 42 43 63q39 33 92 33q46 0 78.5 -29.5t32.5 -71.5q0 -26 -17 -49.5t-82 -86.5l-114 -110l2 -5h108q27 0 40 7t25 27l11 -8l-33 -79h-231v18l133 130q93 91 93 139q0 28 -23 47.5t-55 19.5q-50 0 -90 -53z" />
<glyph unicode="&#xb3;" horiz-adv-x="300" d="M149 608l-10 7q34 61 105 61q40 0 67.5 -22t27.5 -54q0 -29 -21.5 -48t-79.5 -39l4 -2q28 -14 38 -24q21 -24 21 -62q0 -69 -52 -113t-133 -44q-73 0 -73 39q0 12 8.5 20t21.5 8q14 0 38 -17q28 -19 43 -19q36 0 60 26.5t24 66.5q0 46 -26.5 71.5t-73.5 25.5h-13v9 q147 28 147 94q0 22 -14.5 37t-35.5 15q-34 0 -73 -36z" />
<glyph unicode="&#xb4;" horiz-adv-x="333" d="M180 494l162 160q10 10 25 10t25.5 -10.5t10.5 -25.5q0 -18 -17 -28l-171 -106h-35z" />
<glyph unicode="&#xb5;" d="M497 428l-78 -336q-6 -27 -6 -34q0 -28 26 -28q23 0 56 26l-3 -9q-32 -32 -55 -44.5t-52 -12.5q-57 0 -57 59q0 12 4 31q-77 -90 -154 -90q-76 0 -103 76q-2 -21 -2 -48q0 -25 1 -42t1 -43q0 -65 -19.5 -103.5t-51.5 -38.5q-34 0 -34 45t38 118q26 66 34 100l85 374h88 l-67 -284q-3 -10 -3 -30q0 -32 18.5 -50.5t50.5 -18.5q68 0 122 70l73 313h88z" />
<glyph unicode="&#xb6;" horiz-adv-x="559" d="M621 653l-6 -21q-56 -4 -72 -14t-25 -44l-160 -600q-11 -42 -11 -50q0 -20 49 -24l23 -2l-5 -21h-148l200 755h-58l-200 -755h-148l5 21q58 5 74 13q10 6 13 15q18 51 68 245l30 112q-71 3 -108 28q-45 31 -45 92q0 47 16 94.5t43 79.5q34 40 82.5 58t125.5 18h257z M260 304l79 328q-62 -4 -101 -49q-28 -32 -46 -81.5t-18 -95.5q0 -53 33 -83q15 -15 53 -19z" />
<glyph unicode="&#xb7;" horiz-adv-x="250" d="M181 253q0 -22 -17 -38t-40 -16q-22 0 -38 16t-16 38q0 24 16 40.5t39 16.5t39.5 -17t16.5 -40z" />
<glyph unicode="&#xb8;" horiz-adv-x="333" d="M119 0l-44 -66q15 3 25 3q38 0 60 -18.5t22 -49.5q0 -38 -33.5 -62t-85.5 -24q-38 0 -93 21l17 29q41 -15 68 -15q53 0 53 41q0 19 -13 31.5t-33 12.5q-12 0 -32 -7l-9 8l60 96h38z" />
<glyph unicode="&#xb9;" horiz-adv-x="300" d="M270 676h9q5 0 5 -5t-4 -16l-86 -274q-19 -58 -19 -74q0 -11 10 -15t39 -5v-16h-181v16q35 4 48 9t17 16l90 285q5 15 5 21q0 17 -21 17h-34v19q33 5 122 22z" />
<glyph unicode="&#xba;" horiz-adv-x="310" d="M362 592q0 -69 -62.5 -127.5t-135.5 -58.5q-44 0 -70.5 22.5t-26.5 60.5q0 72 61 129.5t137 57.5q43 0 70 -23.5t27 -60.5zM289 607q0 47 -31 47q-41 1 -79.5 -57t-38.5 -121q0 -21 10.5 -33.5t27.5 -12.5q29 0 49 22q27 28 44.5 72t17.5 83z" />
<glyph unicode="&#xbb;" d="M447 215l-36 -27q-47 -35 -91 -74q-87 -77 -97 -77q-6 0 -6 7q0 29 91 112q35 31 65 67q-2 5 -6 13t-7.5 14.5t-6.5 12.5q-62 114 -62 133q0 7 7 7t20.5 -16t33 -42.5t28.5 -36.5q49 -57 67 -84v-9zM285 215l-36 -27q-47 -35 -91 -74q-87 -77 -97 -77q-6 0 -6 7 q0 19 91 112l65 67q-2 5 -6 13t-7.5 14.5t-6.5 12.5q-62 114 -62 133q0 7 7 7q6 0 20 -16.5t33 -42t29 -36.5q49 -57 67 -84v-9z" />
<glyph unicode="&#xbc;" horiz-adv-x="750" d="M736 406l-79 -259h55l-9 -43h-58l-30 -104h-63l32 105h-168l13 42l271 259h36zM653 333l-189 -186h129zM649 676l-455 -686h-51l455 686h51zM138 635v19q9 1 70 12q52 10 60 10q5 0 5 -5q0 -7 -3 -16l-86 -274q-19 -58 -19 -74q0 -11 10 -15t39 -5v-16h-181v16q35 4 48 9 t17 16l90 285q5 15 5 21q0 17 -25 17h-30z" />
<glyph unicode="&#xbd;" horiz-adv-x="750" d="M516 301l-13 8q18 42 43 63q40 34 93 34q45 0 77.5 -30t32.5 -72q0 -26 -17 -49.5t-82 -86.5l-114 -110l2 -5h108q27 0 40 7t25 27l11 -8l-33 -79h-231v18l133 130q93 91 93 139q0 28 -23 47.5t-55 19.5q-50 0 -90 -53zM635 676l-455 -686h-51l455 686h51zM139 635v19 q8 1 70 12q52 10 60 10q5 0 5 -5q0 -7 -3 -16l-86 -274q-19 -60 -19 -74q0 -11 10 -15t39 -5v-16h-181v16q35 4 48 9t17 16l90 285q5 15 5 22q0 16 -24 16h-31z" />
<glyph unicode="&#xbe;" horiz-adv-x="750" d="M736 406l-79 -259h55l-9 -43h-58l-30 -104h-63l32 105h-168l13 42l271 259h36zM653 333l-189 -186h129zM650 676l-455 -686h-51l455 686h51zM129 608l-10 7q15 28 43 44.5t62 16.5q40 0 67.5 -22t27.5 -54q0 -29 -21.5 -48t-79.5 -39v-3q27 -7 42 -23q21 -24 21 -62 q0 -69 -52 -113t-133 -44q-73 0 -73 39q0 12 8.5 20t21.5 8q14 0 38 -17q28 -19 43 -19q36 0 60 26.5t24 66.5q0 46 -26.5 71.5t-73.5 25.5h-13v9q147 28 147 94q0 22 -14.5 37t-35.5 15q-34 0 -73 -36z" />
<glyph unicode="&#xbf;" d="M367 421q0 -22 -15 -37.5t-37 -15.5q-23 0 -38 15.5t-15 37.5q0 21 15.5 36.5t36.5 15.5q22 0 37.5 -15t15.5 -37zM284 285l17 -2q-13 -75 -31 -109.5t-81 -106.5q-49 -57 -68 -92t-19 -74q0 -40 21 -62t59 -22q32 0 51 13t19 35q0 8 -7.5 23t-7.5 28q0 17 11 27.5 t29 10.5t28.5 -13.5t10.5 -36.5q0 -48 -39.5 -78.5t-101.5 -30.5q-69 0 -108 30.5t-39 90.5q0 47 25.5 84t108.5 105q54 43 79.5 76t35.5 75z" />
<glyph unicode="&#xc0;" horiz-adv-x="611" d="M564 0h-245v16q45 2 61 14t16 39q0 8 -2 26l-20 131h-220l-59 -111q-22 -41 -22 -66q0 -30 62 -33v-16h-186v16q34 7 55.5 32t78.5 124l285 496h26l92 -553q10 -62 24 -79t54 -20v-16zM369 262l-45 263l-149 -263h194zM500 742h-32l-140 106q-19 15 -19 32q0 16 10 25 t26 9q22 0 40 -23z" />
<glyph unicode="&#xc1;" horiz-adv-x="611" d="M564 0h-245v16q45 2 61 14t16 39q0 8 -2 26l-20 131h-220l-59 -111q-22 -41 -22 -66q0 -30 62 -33v-16h-186v16q34 7 55.5 32t78.5 124l285 496h26l92 -553q10 -62 24 -79t54 -20v-16zM369 262l-45 263l-149 -263h194zM292 744l162 160q10 10 25 10t25.5 -10.5 t10.5 -25.5q0 -18 -17 -28l-171 -106h-35z" />
<glyph unicode="&#xc2;" horiz-adv-x="611" d="M564 0h-245v16q45 2 61 14t16 39q0 8 -2 26l-20 131h-220l-59 -111q-22 -41 -22 -66q0 -30 62 -33v-16h-186v16q34 7 55.5 32t78.5 124l285 496h26l92 -553q10 -62 24 -79t54 -20v-16zM369 262l-45 263l-149 -263h194zM548 742h-36l-82 104l-137 -104h-39l157 169h49z " />
<glyph unicode="&#xc3;" horiz-adv-x="611" d="M564 0h-245v16q45 2 61 14t16 39q0 8 -2 26l-20 131h-220l-59 -111q-22 -41 -22 -66q0 -30 62 -33v-16h-186v16q34 7 55.5 32t78.5 124l285 496h26l92 -553q10 -62 24 -79t54 -20v-16zM369 262l-45 263l-149 -263h194zM544 874h28q-22 -104 -95 -104q-18 0 -57 15 q-71 29 -95 29q-36 0 -51 -47h-29q15 58 38 82t62 24q32 0 86 -24q41 -19 62 -19q20 0 31.5 9.5t19.5 34.5z" />
<glyph unicode="&#xc4;" horiz-adv-x="611" d="M564 0h-245v16q45 2 61 14t16 39q0 8 -2 26l-20 131h-220l-59 -111q-22 -41 -22 -66q0 -30 62 -33v-16h-186v16q34 7 55.5 32t78.5 124l285 496h26l92 -553q10 -62 24 -79t54 -20v-16zM369 262l-45 263l-149 -263h194zM554 807q0 -20 -14.5 -34.5t-34.5 -14.5 q-21 0 -35 14.5t-14 35.5q0 20 14.5 34t35.5 14q19 0 33.5 -15t14.5 -34zM354 807q0 -20 -14.5 -34.5t-34.5 -14.5q-21 0 -35 14.5t-14 35.5q0 20 14.5 34t35.5 14q19 0 33.5 -15t14.5 -34z" />
<glyph unicode="&#xc5;" horiz-adv-x="611" d="M564 0h-245v16q45 2 61 14t16 39q0 8 -2 26l-20 131h-220l-59 -111q-22 -41 -22 -66q0 -30 62 -33v-16h-186v16q34 7 55.5 32t78.5 124l285 496h26l92 -553q10 -62 24 -79t54 -20v-16zM369 262l-45 263l-149 -263h194zM505 857q0 -41 -29.5 -70t-70.5 -29q-43 0 -71.5 29 t-28.5 71q0 40 29.5 69.5t69.5 29.5q42 0 71.5 -29.5t29.5 -70.5zM471 857q0 28 -19.5 47t-47.5 19q-26 0 -45.5 -19.5t-19.5 -45.5q0 -28 18.5 -47t46.5 -19q29 0 48 18.5t19 46.5z" />
<glyph unicode="&#xc6;" horiz-adv-x="889" d="M911 653l-33 -153l-17 2q1 13 1 36q0 53 -34.5 67.5t-157.5 14.5q-35 0 -46 -6.5t-18 -30.5l-61 -222q54 0 80 2t49.5 6t36 16.5t22 27t23.5 45.5l18 -4l-69 -232l-17 4q6 36 6 52q0 31 -22.5 40.5t-95.5 9.5h-40q-71 -253 -71 -266q0 -29 51 -29h30q112 0 167.5 27 t112.5 109l18 -5l-64 -164h-498v16q44 4 58.5 13.5t21.5 34.5l49 170h-190q-20 -25 -25 -30q-100 -120 -100 -157q0 -15 12 -20.5t52 -10.5v-16h-187v16q19 4 33.5 17.5t50.5 58.5l369 465q23 29 27.5 36.5t4.5 16.5q0 23 -38 26l-26 2v15h517zM517 613l-268 -342h173z" />
<glyph unicode="&#xc7;" horiz-adv-x="667" d="M689 664l-37 -200l-18 3q-12 163 -153 163q-49 0 -100.5 -26.5t-94.5 -71.5q-108 -114 -108 -300q0 -205 175 -205q62 0 112.5 26t117.5 92l17 -14q-67 -79 -131.5 -114t-141.5 -35q-26 0 -50 4l-35 -52q15 3 25 3q38 0 60 -18.5t22 -49.5q0 -38 -33.5 -62t-85.5 -24 q-38 0 -93 21l17 29q41 -15 68 -15q53 0 53 41q0 19 -13 31.5t-33 12.5q-12 0 -32 -7l-9 8l56 90q-81 18 -129.5 86.5t-48.5 162.5q0 109 56.5 207t150.5 157t199 59q49 0 117 -17q29 -7 41 -7q27 0 38 22h21z" />
<glyph unicode="&#xc8;" horiz-adv-x="611" d="M634 653l-31 -154l-22 2q3 26 3 46q0 45 -37 59t-155 14q-42 0 -55 -4.5t-18 -21.5l-66 -233h78q66 0 88 16t51 81l18 -4l-68 -232l-20 5q7 31 7 52q0 24 -7 31q-16 15 -78 15h-78l-32 -112q-36 -127 -36 -146q0 -34 79 -34q129 0 203 39q38 20 94 98l16 -8l-62 -162 h-507v16q43 8 56 19.5t25 54.5l123 442q11 37 11 64q0 20 -15.5 28.5t-61.5 12.5v16h497zM526 742h-32l-140 106q-19 15 -19 32q0 16 10 25t26 9q22 0 40 -23z" />
<glyph unicode="&#xc9;" horiz-adv-x="611" d="M634 653l-31 -154l-22 2q3 26 3 46q0 45 -37 59t-155 14q-42 0 -55 -4.5t-18 -21.5l-66 -233h78q66 0 88 16t51 81l18 -4l-68 -232l-20 5q7 31 7 52q0 24 -7 31q-16 15 -78 15h-78l-32 -112q-36 -127 -36 -146q0 -34 79 -34q129 0 203 39q38 20 94 98l16 -8l-62 -162 h-507v16q43 8 56 19.5t25 54.5l123 442q11 37 11 64q0 20 -15.5 28.5t-61.5 12.5v16h497zM322 744l162 160q10 10 25 10t25.5 -10.5t10.5 -25.5q0 -18 -17 -28l-171 -106h-35z" />
<glyph unicode="&#xca;" horiz-adv-x="611" d="M634 653l-31 -154l-22 2q3 26 3 46q0 45 -37 59t-155 14q-42 0 -55 -4.5t-18 -21.5l-66 -233h78q66 0 88 16t51 81l18 -4l-68 -232l-20 5q7 31 7 52q0 24 -7 31q-16 15 -78 15h-78l-32 -112q-36 -127 -36 -146q0 -34 79 -34q129 0 203 39q38 20 94 98l16 -8l-62 -162 h-507v16q43 8 56 19.5t25 54.5l123 442q11 37 11 64q0 20 -15.5 28.5t-61.5 12.5v16h497zM577 742h-36l-82 104l-137 -104h-39l157 169h49z" />
<glyph unicode="&#xcb;" horiz-adv-x="611" d="M634 653l-31 -154l-22 2q3 26 3 46q0 45 -37 59t-155 14q-42 0 -55 -4.5t-18 -21.5l-66 -233h78q66 0 88 16t51 81l18 -4l-68 -232l-20 5q7 31 7 52q0 24 -7 31q-16 15 -78 15h-78l-32 -112q-36 -127 -36 -146q0 -34 79 -34q129 0 203 39q38 20 94 98l16 -8l-62 -162 h-507v16q43 8 56 19.5t25 54.5l123 442q11 37 11 64q0 20 -15.5 28.5t-61.5 12.5v16h497zM585 807q0 -20 -14.5 -34.5t-34.5 -14.5q-21 0 -35 14.5t-14 35.5q0 20 14.5 34t35.5 14q19 0 33.5 -15t14.5 -34zM385 807q0 -20 -14.5 -34.5t-34.5 -14.5q-21 0 -35 14.5t-14 35.5 q0 20 14.5 34t35.5 14q19 0 33.5 -15t14.5 -34z" />
<glyph unicode="&#xcc;" horiz-adv-x="333" d="M384 653v-16q-42 -5 -55.5 -18t-26.5 -59l-120 -429q-15 -53 -15 -76q0 -20 12.5 -27t56.5 -12v-16h-244v16q42 8 57.5 21t26.5 54l120 441q13 46 13 62q0 20 -16 30.5t-56 12.5v16h247zM398 742h-32l-140 106q-19 15 -19 32q0 16 10 25t26 9q22 0 40 -23z" />
<glyph unicode="&#xcd;" horiz-adv-x="333" d="M384 653v-16q-42 -5 -55.5 -18t-26.5 -59l-120 -429q-15 -53 -15 -76q0 -20 12.5 -27t56.5 -12v-16h-244v16q42 8 57.5 21t26.5 54l120 441q13 46 13 62q0 20 -16 30.5t-56 12.5v16h247zM191 744l162 160q10 10 25 10t25.5 -10.5t10.5 -25.5q0 -18 -17 -28l-171 -106h-35 z" />
<glyph unicode="&#xce;" horiz-adv-x="333" d="M384 653v-16q-42 -5 -55.5 -18t-26.5 -59l-120 -429q-15 -53 -15 -76q0 -20 12.5 -27t56.5 -12v-16h-244v16q42 8 57.5 21t26.5 54l120 441q13 46 13 62q0 20 -16 30.5t-56 12.5v16h247zM450 742h-36l-82 104l-137 -104h-39l157 169h49z" />
<glyph unicode="&#xcf;" horiz-adv-x="333" d="M384 653v-16q-42 -5 -55.5 -18t-26.5 -59l-120 -429q-15 -53 -15 -76q0 -20 12.5 -27t56.5 -12v-16h-244v16q42 8 57.5 21t26.5 54l120 441q13 46 13 62q0 20 -16 30.5t-56 12.5v16h247zM457 807q0 -20 -14.5 -34.5t-34.5 -14.5q-21 0 -35 14.5t-14 35.5q0 20 14.5 34 t35.5 14q19 0 33.5 -15t14.5 -34zM257 807q0 -20 -14.5 -34.5t-34.5 -14.5q-21 0 -35 14.5t-14 35.5q0 20 14.5 34t35.5 14q19 0 33.5 -15t14.5 -34z" />
<glyph unicode="&#xd0;" horiz-adv-x="722" d="M130 653h276q139 0 216.5 -68.5t77.5 -200.5q0 -87 -43 -166t-117 -135q-110 -83 -303 -83h-245v16q43 8 56 19.5t25 54.5l65 236h-90l12 42h90l46 164q11 39 11 64q0 20 -15 28.5t-62 12.5v16zM238 326l-46 -164q-22 -80 -22 -95q0 -37 69 -37q151 0 240 90 q51 51 80.5 127t29.5 157q0 108 -54 163.5t-160 55.5q-32 0 -44.5 -6t-17.5 -23l-63 -226h153l-12 -42h-153z" />
<glyph unicode="&#xd1;" horiz-adv-x="667" d="M727 653v-16q-27 -6 -37.5 -9.5t-23 -21t-19 -38.5t-22.5 -76l-146 -507h-18l-230 550l-114 -422q-9 -32 -9 -54q0 -21 15.5 -30.5t54.5 -12.5v-16h-198v16q43 6 61 31.5t45 120.5l117 415q-23 54 -86 54v16h160l207 -499l106 388q8 28 8 44q0 27 -13.5 37t-55.5 14v16 h198zM609 874h28q-22 -104 -95 -104q-18 0 -57 15q-71 29 -95 29q-36 0 -51 -47h-29q15 58 38 82t62 24q32 0 86 -24q41 -19 62 -19q20 0 31.5 9.5t19.5 34.5z" />
<glyph unicode="&#xd2;" horiz-adv-x="722" d="M699 418q0 -107 -57.5 -205t-149.5 -160q-105 -71 -214 -71q-99 0 -158.5 62t-59.5 172q0 91 49 187.5t128 165.5q112 97 237 97q107 1 166 -66t59 -182zM594 481q0 71 -34.5 111.5t-94.5 40.5q-99 0 -186 -117q-53 -72 -83.5 -163t-30.5 -169q0 -82 33.5 -125.5 t96.5 -43.5q92 0 170 95q59 74 94 181t35 190zM587 742h-32l-140 106q-19 15 -19 32q0 16 10 25t26 9q22 0 40 -23z" />
<glyph unicode="&#xd3;" horiz-adv-x="722" d="M699 418q0 -107 -57.5 -205t-149.5 -160q-105 -71 -214 -71q-99 0 -158.5 62t-59.5 172q0 91 49 187.5t128 165.5q112 97 237 97q107 1 166 -66t59 -182zM594 481q0 71 -34.5 111.5t-94.5 40.5q-99 0 -186 -117q-53 -72 -83.5 -163t-30.5 -169q0 -82 33.5 -125.5 t96.5 -43.5q92 0 170 95q59 74 94 181t35 190zM383 744l162 160q10 10 25 10t25.5 -10.5t10.5 -25.5q0 -18 -17 -28l-171 -106h-35z" />
<glyph unicode="&#xd4;" horiz-adv-x="722" d="M699 418q0 -107 -57.5 -205t-149.5 -160q-105 -71 -214 -71q-99 0 -158.5 62t-59.5 172q0 91 49 187.5t128 165.5q112 97 237 97q107 1 166 -66t59 -182zM594 481q0 71 -34.5 111.5t-94.5 40.5q-99 0 -186 -117q-53 -72 -83.5 -163t-30.5 -169q0 -82 33.5 -125.5 t96.5 -43.5q92 0 170 95q59 74 94 181t35 190zM638 742h-36l-82 104l-137 -104h-39l157 169h49z" />
<glyph unicode="&#xd5;" horiz-adv-x="722" d="M699 418q0 -107 -57.5 -205t-149.5 -160q-105 -71 -214 -71q-99 0 -158.5 62t-59.5 172q0 91 49 187.5t128 165.5q112 97 237 97q107 1 166 -66t59 -182zM594 481q0 71 -34.5 111.5t-94.5 40.5q-99 0 -186 -117q-53 -72 -83.5 -163t-30.5 -169q0 -82 33.5 -125.5 t96.5 -43.5q92 0 170 95q59 74 94 181t35 190zM634 874h28q-22 -104 -95 -104q-18 0 -57 15q-71 29 -95 29q-36 0 -51 -47h-29q15 58 38 82t62 24q32 0 86 -24q41 -19 62 -19q20 0 31.5 9.5t19.5 34.5z" />
<glyph unicode="&#xd6;" horiz-adv-x="722" d="M699 418q0 -107 -57.5 -205t-149.5 -160q-105 -71 -214 -71q-99 0 -158.5 62t-59.5 172q0 91 49 187.5t128 165.5q112 97 237 97q107 1 166 -66t59 -182zM594 481q0 71 -34.5 111.5t-94.5 40.5q-99 0 -186 -117q-53 -72 -83.5 -163t-30.5 -169q0 -82 33.5 -125.5 t96.5 -43.5q92 0 170 95q59 74 94 181t35 190zM643 807q0 -20 -14.5 -34.5t-34.5 -14.5q-21 0 -35 14.5t-14 35.5q0 20 14.5 34t35.5 14q19 0 33.5 -15t14.5 -34zM443 807q0 -20 -14.5 -34.5t-34.5 -14.5q-21 0 -35 14.5t-14 35.5q0 20 14.5 34t35.5 14q19 0 33.5 -15 t14.5 -34z" />
<glyph unicode="&#xd7;" horiz-adv-x="675" d="M582 56l-48 -48l-197 197l-196 -197l-48 48l196 197l-196 196l48 48l196 -197l197 197l48 -48l-197 -196z" />
<glyph unicode="&#xd8;" horiz-adv-x="722" d="M669 722l-64 -96q43 -34 63 -69q31 -56 31 -126q0 -83 -36 -165.5t-94 -144.5t-134.5 -100.5t-153.5 -38.5q-41 0 -94 21l-74 -108h-44l86 127q-95 69 -95 200q0 91 46 182t128 161q120 101 234 101q53 0 105 -22l52 78h44zM190 74l356 533q-34 26 -82 26 q-110 0 -193 -125q-46 -68 -76 -162t-30 -170q0 -55 25 -102zM570 574l-355 -530q32 -29 80 -29q109 0 192 123q46 69 76.5 165t30.5 172q0 58 -24 99z" />
<glyph unicode="&#xd9;" horiz-adv-x="722" d="M765 653v-16q-21 -5 -31.5 -9.5t-20.5 -11t-17.5 -24.5t-14.5 -39t-20 -65l-83 -285q-34 -116 -97 -169q-60 -52 -158 -52t-159.5 46t-61.5 118q0 55 44 216l52 189q9 32 9 45q0 20 -17.5 30t-62.5 11v16h272v-16q-51 -5 -70.5 -22t-33.5 -69l-63 -226q-40 -141 -40 -179 q0 -53 39.5 -85.5t98.5 -32.5q84 0 135 54t85 178l64 233q23 85 23 103q0 22 -15 32t-55 14v16h198zM588 742h-32l-140 106q-19 15 -19 32q0 16 10 25t26 9q22 0 40 -23z" />
<glyph unicode="&#xda;" horiz-adv-x="722" d="M765 653v-16q-21 -5 -31.5 -9.5t-20.5 -11t-17.5 -24.5t-14.5 -39t-20 -65l-83 -285q-34 -116 -97 -169q-60 -52 -158 -52t-159.5 46t-61.5 118q0 55 44 216l52 189q9 32 9 45q0 20 -17.5 30t-62.5 11v16h272v-16q-51 -5 -70.5 -22t-33.5 -69l-63 -226q-40 -141 -40 -179 q0 -53 39.5 -85.5t98.5 -32.5q84 0 135 54t85 178l64 233q23 85 23 103q0 22 -15 32t-55 14v16h198zM383 744l162 160q10 10 25 10t25.5 -10.5t10.5 -25.5q0 -18 -17 -28l-171 -106h-35z" />
<glyph unicode="&#xdb;" horiz-adv-x="722" d="M765 653v-16q-21 -5 -31.5 -9.5t-20.5 -11t-17.5 -24.5t-14.5 -39t-20 -65l-83 -285q-34 -116 -97 -169q-60 -52 -158 -52t-159.5 46t-61.5 118q0 55 44 216l52 189q9 32 9 45q0 20 -17.5 30t-62.5 11v16h272v-16q-51 -5 -70.5 -22t-33.5 -69l-63 -226q-40 -141 -40 -179 q0 -53 39.5 -85.5t98.5 -32.5q84 0 135 54t85 178l64 233q23 85 23 103q0 22 -15 32t-55 14v16h198zM635 742h-36l-82 104l-137 -104h-39l157 169h49z" />
<glyph unicode="&#xdc;" horiz-adv-x="722" d="M765 653v-16q-21 -5 -31.5 -9.5t-20.5 -11t-17.5 -24.5t-14.5 -39t-20 -65l-83 -285q-34 -116 -97 -169q-60 -52 -158 -52t-159.5 46t-61.5 118q0 55 44 216l52 189q9 32 9 45q0 20 -17.5 30t-62.5 11v16h272v-16q-51 -5 -70.5 -22t-33.5 -69l-63 -226q-40 -141 -40 -179 q0 -53 39.5 -85.5t98.5 -32.5q84 0 135 54t85 178l64 233q23 85 23 103q0 22 -15 32t-55 14v16h198zM645 807q0 -20 -14.5 -34.5t-34.5 -14.5q-21 0 -35 14.5t-14 35.5q0 20 14.5 34t35.5 14q19 0 33.5 -15t14.5 -34zM445 807q0 -20 -14.5 -34.5t-34.5 -14.5q-21 0 -35 14.5 t-14 35.5q0 20 14.5 34t35.5 14q19 0 33.5 -15t14.5 -34z" />
<glyph unicode="&#xdd;" horiz-adv-x="556" d="M633 653v-16q-21 -7 -32 -17.5t-38 -43.5l-219 -270l-36 -123q-30 -103 -30 -127q0 -19 11.5 -27t41.5 -10l36 -3v-16h-289v16q51 3 72.5 18.5t34.5 62.5l59 205l-76 267q-11 40 -23.5 51t-53.5 17v16h239v-16q-44 -4 -58 -11.5t-14 -24.5t36 -144l31 -110l39 46 q149 176 149 213q0 24 -40 28l-29 3v16h189zM301 744l162 160q10 10 25 10t25.5 -10.5t10.5 -25.5q0 -18 -17 -28l-171 -106h-35z" />
<glyph unicode="&#xde;" horiz-adv-x="611" d="M302 518h56q211 0 211 -144q0 -46 -22 -88.5t-60 -69.5q-64 -46 -192 -46q-58 0 -89 10l-17 -60q-12 -42 -12 -57q0 -26 9.5 -33t56.5 -14v-16h-243v16q43 6 56 17.5t26 56.5l118 425q17 63 17 80q0 21 -12.5 29t-54.5 13v16h235v-16q-31 -4 -43.5 -12.5t-19.5 -33.5z M286 459l-71 -248q30 -5 52 -5q97 0 148 39t51 129q0 114 -134 114q-38 0 -46 -29z" />
<glyph unicode="&#xdf;" d="M23 -4l72 319q44 192 104.5 278t154.5 86q62 0 100.5 -36t38.5 -95q0 -55 -36 -92.5t-119 -68.5l-8 -3v-3q43 -5 67 -22q26 -18 41.5 -49.5t15.5 -65.5q0 -52 -23 -106t-61 -94q-54 -57 -129 -57q-36 0 -58 18.5t-22 47.5q0 22 12 34.5t32 12.5q17 0 27.5 -11t10.5 -29 q0 -14 -8 -27q-4 -8 -4 -11q0 -13 18 -13q40 0 71 54q47 86 47 199q0 104 -81 107q-26 1 -26 15q0 13 17 13q60 0 98 50.5t38 129.5t-62 79q-87 0 -145 -218l-111 -426q-27 -103 -76 -161t-109 -58q-35 0 -56.5 17t-21.5 45q0 19 10.5 30.5t28.5 11.5q17 0 28.5 -10 t11.5 -26q0 -12 -8 -26q-4 -5 -4 -10q0 -8 17 -8q38 0 61.5 39t45.5 140z" />
<glyph unicode="&#xe0;" horiz-adv-x="501" d="M463 111l13 -11q-56 -68 -82.5 -89t-56.5 -21q-40 0 -40 41q0 25 23 115q-56 -84 -103 -120.5t-100 -36.5q-44 0 -72 30.5t-28 85.5q0 76 43.5 155t110.5 130t132 51q67 0 80 -58l11 48l3 3l61 7l7 -3q-1 -4 -6 -21q-89 -324 -89 -363q0 -13 14 -13q15 0 52 41zM365 361 q0 26 -15 42t-41 16q-68 0 -131 -92q-33 -49 -55 -109t-22 -106q0 -74 60 -74q59 0 127 98q77 111 77 225zM446 492h-32l-140 106q-19 15 -19 32q0 16 10 25t26 9q22 0 40 -23z" />
<glyph unicode="&#xe1;" horiz-adv-x="501" d="M463 111l13 -11q-56 -68 -82.5 -89t-56.5 -21q-40 0 -40 41q0 25 23 115q-56 -84 -103 -120.5t-100 -36.5q-44 0 -72 30.5t-28 85.5q0 76 43.5 155t110.5 130t132 51q67 0 80 -58l11 48l3 3l61 7l7 -3q-1 -4 -6 -21q-89 -324 -89 -363q0 -13 14 -13q15 0 52 41zM365 361 q0 26 -15 42t-41 16q-68 0 -131 -92q-33 -49 -55 -109t-22 -106q0 -74 60 -74q59 0 127 98q77 111 77 225zM243 494l162 160q10 10 25 10t25.5 -10.5t10.5 -25.5q0 -18 -17 -28l-171 -106h-35z" />
<glyph unicode="&#xe2;" horiz-adv-x="501" d="M463 111l13 -11q-56 -68 -82.5 -89t-56.5 -21q-40 0 -40 41q0 25 23 115q-56 -84 -103 -120.5t-100 -36.5q-44 0 -72 30.5t-28 85.5q0 76 43.5 155t110.5 130t132 51q67 0 80 -58l11 48l3 3l61 7l7 -3q-1 -4 -6 -21q-89 -324 -89 -363q0 -13 14 -13q15 0 52 41zM365 361 q0 26 -15 42t-41 16q-68 0 -131 -92q-33 -49 -55 -109t-22 -106q0 -74 60 -74q59 0 127 98q77 111 77 225zM497 492h-36l-82 104l-137 -104h-39l157 169h49z" />
<glyph unicode="&#xe3;" horiz-adv-x="501" d="M463 111l13 -11q-56 -68 -82.5 -89t-56.5 -21q-40 0 -40 41q0 25 23 115q-56 -84 -103 -120.5t-100 -36.5q-44 0 -72 30.5t-28 85.5q0 76 43.5 155t110.5 130t132 51q67 0 80 -58l11 48l3 3l61 7l7 -3q-1 -4 -6 -21q-89 -324 -89 -363q0 -13 14 -13q15 0 52 41zM365 361 q0 26 -15 42t-41 16q-68 0 -131 -92q-33 -49 -55 -109t-22 -106q0 -74 60 -74q59 0 127 98q77 111 77 225zM493 624h28q-22 -104 -95 -104q-18 0 -57 15q-71 29 -95 29q-36 0 -51 -47h-29q15 58 38 82t62 24q32 0 86 -24q41 -19 62 -19q20 0 31.5 9.5t19.5 34.5z" />
<glyph unicode="&#xe4;" horiz-adv-x="501" d="M463 111l13 -11q-56 -68 -82.5 -89t-56.5 -21q-40 0 -40 41q0 25 23 115q-56 -84 -103 -120.5t-100 -36.5q-44 0 -72 30.5t-28 85.5q0 76 43.5 155t110.5 130t132 51q67 0 80 -58l11 48l3 3l61 7l7 -3q-1 -4 -6 -21q-89 -324 -89 -363q0 -13 14 -13q15 0 52 41zM365 361 q0 26 -15 42t-41 16q-68 0 -131 -92q-33 -49 -55 -109t-22 -106q0 -74 60 -74q59 0 127 98q77 111 77 225zM503 557q0 -20 -14.5 -34.5t-34.5 -14.5q-21 0 -35 14.5t-14 35.5q0 20 14.5 34t35.5 14q19 0 33.5 -15t14.5 -34zM303 557q0 -20 -14.5 -34.5t-34.5 -14.5 q-21 0 -35 14.5t-14 35.5q0 20 14.5 34t35.5 14q19 0 33.5 -15t14.5 -34z" />
<glyph unicode="&#xe5;" horiz-adv-x="501" d="M463 111l13 -11q-56 -68 -82.5 -89t-56.5 -21q-40 0 -40 41q0 25 23 115q-56 -84 -103 -120.5t-100 -36.5q-44 0 -72 30.5t-28 85.5q0 76 43.5 155t110.5 130t132 51q67 0 80 -58l11 48l3 3l61 7l7 -3q-1 -4 -6 -21q-89 -324 -89 -363q0 -13 14 -13q15 0 52 41zM365 361 q0 26 -15 42t-41 16q-68 0 -131 -92q-33 -49 -55 -109t-22 -106q0 -74 60 -74q59 0 127 98q77 111 77 225zM453 609q0 -41 -29.5 -70t-70.5 -29q-43 0 -71.5 29t-28.5 71q0 40 29.5 69.5t69.5 29.5q42 0 71.5 -29.5t29.5 -70.5zM419 609q0 28 -19.5 47t-47.5 19 q-26 0 -45.5 -19.5t-19.5 -45.5q0 -28 18.5 -47t46.5 -19q29 0 48 18.5t19 46.5z" />
<glyph unicode="&#xe6;" horiz-adv-x="667" d="M459 439l-22 -62q59 64 122 64q37 0 59 -19t22 -51q0 -58 -66 -101q-52 -33 -190 -72q-8 -34 -8 -60q0 -55 16.5 -78.5t53.5 -23.5q32 0 64.5 17.5t77.5 59.5l10 -12q-42 -51 -96.5 -81.5t-101.5 -30.5t-75.5 33t-28.5 89q0 20 6 40q-59 -92 -102.5 -127t-92.5 -35 q-38 0 -61 25.5t-23 72.5q0 79 44.5 163t110.5 137.5t125 53.5q54 0 66 -47l19 45h71zM574 380q0 36 -35 36q-33 0 -65 -35q-28 -30 -45 -62t-39 -96q68 20 104.5 42t61.5 55q18 24 18 60zM350 370q0 23 -12.5 37t-32.5 14q-53 1 -113 -86q-37 -54 -60 -118t-23 -118 q0 -60 34 -60q42 0 80 41q54 58 90.5 141.5t36.5 148.5z" />
<glyph unicode="&#xe7;" horiz-adv-x="444" d="M77 -96l56 90q-103 25 -103 145q0 117 89 209.5t201 92.5q46 0 75.5 -23t29.5 -58q0 -20 -13.5 -33t-34.5 -13q-39 0 -39 38q0 12 9 29q6 11 6 19q0 20 -37 20q-63 0 -109 -48q-42 -43 -66.5 -106t-24.5 -127q0 -54 24 -84t67 -30q37 0 69.5 18.5t73.5 62.5l16 -10 q-46 -58 -89.5 -82.5t-100.5 -24.5h-8l-37 -55q15 3 25 3q38 0 60 -18.5t22 -49.5q0 -38 -33.5 -62t-85.5 -24q-38 0 -93 21l17 29q41 -15 68 -15q53 0 53 41q0 19 -13 31.5t-33 12.5q-12 0 -32 -7z" />
<glyph unicode="&#xe8;" horiz-adv-x="444" d="M358 109l12 -12q-88 -108 -204 -108q-61 0 -98 37.5t-37 99.5q0 117 93.5 216t205.5 99q39 0 60.5 -18t21.5 -50q0 -66 -76.5 -118t-207.5 -69q-10 -20 -10 -61t25.5 -66t67.5 -25q33 0 63 15.5t84 59.5zM152 252l-17 -44q112 27 161 74q50 48 50 97q0 39 -35 39 q-42 0 -87.5 -48.5t-71.5 -117.5zM414 492h-32l-140 106q-19 15 -19 32q0 16 10 25t26 9q22 0 40 -23z" />
<glyph unicode="&#xe9;" horiz-adv-x="444" d="M358 109l12 -12q-88 -108 -204 -108q-61 0 -98 37.5t-37 99.5q0 117 93.5 216t205.5 99q39 0 60.5 -18t21.5 -50q0 -66 -76.5 -118t-207.5 -69q-10 -20 -10 -61t25.5 -66t67.5 -25q33 0 63 15.5t84 59.5zM152 252l-17 -44q112 27 161 74q50 48 50 97q0 39 -35 39 q-42 0 -87.5 -48.5t-71.5 -117.5zM208 494l162 160q10 10 25 10t25.5 -10.5t10.5 -25.5q0 -18 -17 -28l-171 -106h-35z" />
<glyph unicode="&#xea;" horiz-adv-x="444" d="M358 109l12 -12q-88 -108 -204 -108q-61 0 -98 37.5t-37 99.5q0 117 93.5 216t205.5 99q39 0 60.5 -18t21.5 -50q0 -66 -76.5 -118t-207.5 -69q-10 -20 -10 -61t25.5 -66t67.5 -25q33 0 63 15.5t84 59.5zM152 252l-17 -44q112 27 161 74q50 48 50 97q0 39 -35 39 q-42 0 -87.5 -48.5t-71.5 -117.5zM466 492h-36l-82 104l-137 -104h-39l157 169h49z" />
<glyph unicode="&#xeb;" horiz-adv-x="444" d="M358 109l12 -12q-88 -108 -204 -108q-61 0 -98 37.5t-37 99.5q0 117 93.5 216t205.5 99q39 0 60.5 -18t21.5 -50q0 -66 -76.5 -118t-207.5 -69q-10 -20 -10 -61t25.5 -66t67.5 -25q33 0 63 15.5t84 59.5zM152 252l-17 -44q112 27 161 74q50 48 50 97q0 39 -35 39 q-42 0 -87.5 -48.5t-71.5 -117.5zM475 557q0 -20 -14.5 -34.5t-34.5 -14.5q-21 0 -35 14.5t-14 35.5q0 20 14.5 34t35.5 14q19 0 33.5 -15t14.5 -34zM275 557q0 -20 -14.5 -34.5t-34.5 -14.5q-21 0 -35 14.5t-14 35.5q0 20 14.5 34t35.5 14q19 0 33.5 -15t14.5 -34z" />
<glyph unicode="&#xec;" horiz-adv-x="278" d="M221 115l14 -12q-41 -63 -71 -88.5t-67 -25.5q-50 0 -50 57q0 20 24 110l48 175q9 34 9 45q0 15 -11 19t-52 5v16q44 3 159 25l5 -3l-96 -342q-9 -34 -9 -45q0 -6 5 -10.5t11 -4.5q12 0 30 17.5t51 61.5zM302 492h-32l-140 106q-19 15 -19 32q0 16 10 25t26 9 q22 0 40 -23z" />
<glyph unicode="&#xed;" horiz-adv-x="278" d="M221 115l14 -12q-41 -63 -71 -88.5t-67 -25.5q-50 0 -50 57q0 20 24 110l48 175q9 34 9 45q0 15 -11 19t-52 5v16q44 3 159 25l5 -3l-96 -342q-9 -34 -9 -45q0 -6 5 -10.5t11 -4.5q12 0 30 17.5t51 61.5zM95 494l162 160q10 10 25 10t25.5 -10.5t10.5 -25.5 q0 -18 -17 -28l-171 -106h-35z" />
<glyph unicode="&#xee;" horiz-adv-x="278" d="M221 115l14 -12q-41 -63 -71 -88.5t-67 -25.5q-50 0 -50 57q0 20 24 110l48 175q9 34 9 45q0 15 -11 19t-52 5v16q44 3 159 25l5 -3l-96 -342q-9 -34 -9 -45q0 -6 5 -10.5t11 -4.5q12 0 30 17.5t51 61.5zM351 492h-36l-82 104l-137 -104h-39l157 169h49z" />
<glyph unicode="&#xef;" horiz-adv-x="278" d="M221 115l14 -12q-41 -63 -71 -88.5t-67 -25.5q-50 0 -50 57q0 20 24 110l48 175q9 34 9 45q0 15 -11 19t-52 5v16q44 3 159 25l5 -3l-96 -342q-9 -34 -9 -45q0 -6 5 -10.5t11 -4.5q12 0 30 17.5t51 61.5zM361 557q0 -20 -14.5 -34.5t-34.5 -14.5q-21 0 -35 14.5t-14 35.5 q0 20 14.5 34t35.5 14q19 0 33.5 -15t14.5 -34zM161 557q0 -20 -14.5 -34.5t-34.5 -14.5q-21 0 -35 14.5t-14 35.5q0 20 14.5 34t35.5 14q19 0 33.5 -15t14.5 -34z" />
<glyph unicode="&#xf0;" d="M482 637l-101 -45q86 -98 86 -233q0 -97 -38 -182t-106 -136.5t-149 -51.5q-70 0 -108.5 35.5t-38.5 104.5q0 115 86.5 213.5t193.5 98.5q59 0 87 -49l2 1q-14 99 -72 174l-117 -51l-33 29l123 54q-47 44 -103 67l35 17q66 -15 122 -61l99 43zM384 326q0 43 -19.5 68.5 t-51.5 25.5q-69 0 -132 -89q-70 -97 -70 -224q0 -42 21.5 -69.5t56.5 -27.5q70 0 124 82q32 47 51.5 113t19.5 121z" />
<glyph unicode="&#xf1;" d="M460 117l14 -13q-51 -70 -78 -91.5t-62 -21.5q-20 0 -33.5 13.5t-13.5 40.5q0 16 16 75l44 162q14 54 14 79q0 29 -24 29q-29 0 -63.5 -34.5t-84.5 -107.5q-33 -49 -48.5 -88t-51.5 -160h-75l96 350q2 10 2 17q0 15 -13.5 20.5t-51.5 6.5v16q39 8 87 16.5t75 14.5l4 -2 l-67 -218q74 118 128 169t103 51q31 0 48 -16.5t17 -44.5q0 -25 -10 -60l-56 -203q-14 -50 -14 -61q0 -18 16 -18q19 0 61 53q7 8 21 26zM460 624h28q-22 -104 -95 -104q-18 0 -57 15q-71 29 -95 29q-36 0 -51 -47h-29q15 58 38 82t62 24q32 0 86 -24q41 -19 62 -19 q20 0 31.5 9.5t19.5 34.5z" />
<glyph unicode="&#xf2;" d="M468 301q0 -57 -28.5 -118.5t-77.5 -110.5q-83 -83 -188 -83q-70 0 -108.5 36.5t-38.5 102.5q0 83 50.5 162t129.5 121q56 30 120 30q62 0 101.5 -37.5t39.5 -102.5zM384 326q0 45 -19 69.5t-52 24.5q-67 0 -128 -91q-74 -113 -74 -228q0 -44 21 -67.5t57 -23.5 q61 0 121 83q34 46 54 110.5t20 122.5zM418 492h-32l-140 106q-19 15 -19 32q0 16 10 25t26 9q22 0 40 -23z" />
<glyph unicode="&#xf3;" d="M468 301q0 -57 -28.5 -118.5t-77.5 -110.5q-83 -83 -188 -83q-70 0 -108.5 36.5t-38.5 102.5q0 83 50.5 162t129.5 121q56 30 120 30q62 0 101.5 -37.5t39.5 -102.5zM384 326q0 45 -19 69.5t-52 24.5q-67 0 -128 -91q-74 -113 -74 -228q0 -44 21 -67.5t57 -23.5 q61 0 121 83q34 46 54 110.5t20 122.5zM215 494l162 160q10 10 25 10t25.5 -10.5t10.5 -25.5q0 -18 -17 -28l-171 -106h-35z" />
<glyph unicode="&#xf4;" d="M468 301q0 -57 -28.5 -118.5t-77.5 -110.5q-83 -83 -188 -83q-70 0 -108.5 36.5t-38.5 102.5q0 83 50.5 162t129.5 121q56 30 120 30q62 0 101.5 -37.5t39.5 -102.5zM384 326q0 45 -19 69.5t-52 24.5q-67 0 -128 -91q-74 -113 -74 -228q0 -44 21 -67.5t57 -23.5 q61 0 121 83q34 46 54 110.5t20 122.5zM468 492h-36l-82 104l-137 -104h-39l157 169h49z" />
<glyph unicode="&#xf5;" d="M468 301q0 -57 -28.5 -118.5t-77.5 -110.5q-83 -83 -188 -83q-70 0 -108.5 36.5t-38.5 102.5q0 83 50.5 162t129.5 121q56 30 120 30q62 0 101.5 -37.5t39.5 -102.5zM384 326q0 45 -19 69.5t-52 24.5q-67 0 -128 -91q-74 -113 -74 -228q0 -44 21 -67.5t57 -23.5 q61 0 121 83q34 46 54 110.5t20 122.5zM466 624h28q-22 -104 -95 -104q-18 0 -57 15q-71 29 -95 29q-36 0 -51 -47h-29q15 58 38 82t62 24q32 0 86 -24q41 -19 62 -19q20 0 31.5 9.5t19.5 34.5z" />
<glyph unicode="&#xf6;" d="M468 301q0 -57 -28.5 -118.5t-77.5 -110.5q-83 -83 -188 -83q-70 0 -108.5 36.5t-38.5 102.5q0 83 50.5 162t129.5 121q56 30 120 30q62 0 101.5 -37.5t39.5 -102.5zM384 326q0 45 -19 69.5t-52 24.5q-67 0 -128 -91q-74 -113 -74 -228q0 -44 21 -67.5t57 -23.5 q61 0 121 83q34 46 54 110.5t20 122.5zM474 557q0 -20 -14.5 -34.5t-34.5 -14.5q-21 0 -35 14.5t-14 35.5q0 20 14.5 34t35.5 14q19 0 33.5 -15t14.5 -34zM274 557q0 -20 -14.5 -34.5t-34.5 -14.5q-21 0 -35 14.5t-14 35.5q0 20 14.5 34t35.5 14q19 0 33.5 -15t14.5 -34z " />
<glyph unicode="&#xf7;" horiz-adv-x="675" d="M394 460q0 -22 -17 -38t-40 -16q-22 0 -38 16t-16 38q0 24 16 40.5t39 16.5t39.5 -17t16.5 -40zM590 220h-504v66h504v-66zM394 43q0 -22 -17 -38t-41 -16q-21 0 -37 16t-16 38q0 24 16 40.5t39 16.5t39.5 -17t16.5 -40z" />
<glyph unicode="&#xf8;" d="M428 554l-58 -119q31 -9 48.5 -22t30.5 -37q20 -35 20 -78q0 -60 -34 -125t-90 -113q-83 -71 -169 -71q-8 0 -20 2l-61 -126h-35l64 131q-39 13 -59 34q-37 39 -37 100q0 115 93 213t201 98q11 0 17 -1l55 114h34zM357 406l-190 -392q11 -4 22 -4q66 0 122 82 q32 49 53 114t21 119q0 50 -28 81zM140 29l188 389l-10 2q-52 0 -95 -46q-49 -53 -80 -129.5t-31 -147.5q0 -40 28 -68z" />
<glyph unicode="&#xf9;" d="M461 119l14 -9q-48 -73 -75 -96t-63 -23q-48 0 -48 48q0 45 45 197q-89 -146 -137.5 -196.5t-101.5 -50.5t-53 53q0 18 27 128l35 139q14 58 14 67q0 12 -11 18t-50 6v14q69 8 150 27l4 -3l-89 -355q-3 -9 -3 -16q0 -25 20 -25q45 0 142 147q33 50 51.5 91.5t58.5 151.5 h74l-79 -299q-19 -72 -19 -78q0 -17 11 -17q12 0 29 16t54 65zM415 492h-32l-140 106q-19 15 -19 32q0 16 10 25t26 9q22 0 40 -23z" />
<glyph unicode="&#xfa;" d="M461 119l14 -9q-48 -73 -75 -96t-63 -23q-48 0 -48 48q0 45 45 197q-89 -146 -137.5 -196.5t-101.5 -50.5t-53 53q0 18 27 128l35 139q14 58 14 67q0 12 -11 18t-50 6v14q69 8 150 27l4 -3l-89 -355q-3 -9 -3 -16q0 -25 20 -25q45 0 142 147q33 50 51.5 91.5t58.5 151.5 h74l-79 -299q-19 -72 -19 -78q0 -17 11 -17q12 0 29 16t54 65zM210 494l162 160q10 10 25 10t25.5 -10.5t10.5 -25.5q0 -18 -17 -28l-171 -106h-35z" />
<glyph unicode="&#xfb;" d="M461 119l14 -9q-48 -73 -75 -96t-63 -23q-48 0 -48 48q0 45 45 197q-89 -146 -137.5 -196.5t-101.5 -50.5t-53 53q0 18 27 128l35 139q14 58 14 67q0 12 -11 18t-50 6v14q69 8 150 27l4 -3l-89 -355q-3 -9 -3 -16q0 -25 20 -25q45 0 142 147q33 50 51.5 91.5t58.5 151.5 h74l-79 -299q-19 -72 -19 -78q0 -17 11 -17q12 0 29 16t54 65zM465 492h-36l-82 104l-137 -104h-39l157 169h49z" />
<glyph unicode="&#xfc;" d="M461 119l14 -9q-48 -73 -75 -96t-63 -23q-48 0 -48 48q0 45 45 197q-89 -146 -137.5 -196.5t-101.5 -50.5t-53 53q0 18 27 128l35 139q14 58 14 67q0 12 -11 18t-50 6v14q69 8 150 27l4 -3l-89 -355q-3 -9 -3 -16q0 -25 20 -25q45 0 142 147q33 50 51.5 91.5t58.5 151.5 h74l-79 -299q-19 -72 -19 -78q0 -17 11 -17q12 0 29 16t54 65zM469 557q0 -20 -14.5 -34.5t-34.5 -14.5q-21 0 -35 14.5t-14 35.5q0 20 14.5 34t35.5 14q19 0 33.5 -15t14.5 -34zM269 557q0 -20 -14.5 -34.5t-34.5 -14.5q-21 0 -35 14.5t-14 35.5q0 20 14.5 34t35.5 14 q19 0 33.5 -15t14.5 -34z" />
<glyph unicode="&#xfd;" horiz-adv-x="444" d="M243 186l21 -110q67 110 94.5 167.5t27.5 89.5q0 16 -26 32q-26 17 -26 39q0 16 11.5 26.5t28.5 10.5q22 0 37 -16t15 -39q0 -87 -131 -305q-78 -129 -151.5 -208t-116.5 -79q-23 0 -37 12t-14 31q0 17 11.5 28.5t27.5 11.5q19 0 34 -14t27 -14q18 0 48 33 q13 13 38.5 46.5t32.5 44.5q10 20 10 35q0 30 -31 155.5t-51 176.5q-14 37 -30.5 50.5t-46.5 13.5q-16 0 -31 -4v17q22 4 32 6q41 8 107 18h4q11 0 41.5 -93t43.5 -162zM178 494l162 160q10 10 25 10t25.5 -10.5t10.5 -25.5q0 -18 -17 -28l-171 -106h-35z" />
<glyph unicode="&#xfe;" d="M189 335l2 -2q68 108 162 108q55 0 85.5 -33.5t30.5 -92.5q0 -78 -44 -154t-114.5 -124t-141.5 -48q-33 0 -66 17q-37 -143 -37 -165q0 -17 14.5 -24t49.5 -7v-15h-205v16q32 1 45 13t22 46l114 434l68 250l5 19q9 35 9 43q0 17 -10.5 21.5t-54.5 5.5v17q77 9 152 23 l5 -5q-71 -275 -91 -343zM379 313q0 85 -62 85q-40 0 -77.5 -31.5t-57.5 -82.5q-22 -56 -43.5 -134.5t-21.5 -104.5q0 -16 13.5 -26.5t34.5 -10.5q82 0 145 95q31 46 50 103t19 107z" />
<glyph unicode="&#xff;" horiz-adv-x="444" d="M243 186l21 -110q67 110 94.5 167.5t27.5 89.5q0 16 -26 32q-26 17 -26 39q0 16 11.5 26.5t28.5 10.5q22 0 37 -16t15 -39q0 -87 -131 -305q-78 -129 -151.5 -208t-116.5 -79q-23 0 -37 12t-14 31q0 17 11.5 28.5t27.5 11.5q19 0 34 -14t27 -14q18 0 48 33 q13 13 38.5 46.5t32.5 44.5q10 20 10 35q0 30 -31 155.5t-51 176.5q-14 37 -30.5 50.5t-46.5 13.5q-16 0 -31 -4v17q22 4 32 6q41 8 107 18h4q11 0 41.5 -93t43.5 -162zM442 557q0 -20 -14.5 -34.5t-34.5 -14.5q-21 0 -35 14.5t-14 35.5q0 20 14.5 34t35.5 14q19 0 33.5 -15 t14.5 -34zM242 557q0 -20 -14.5 -34.5t-34.5 -14.5q-21 0 -35 14.5t-14 35.5q0 20 14.5 34t35.5 14q19 0 33.5 -15t14.5 -34z" />
<glyph unicode="&#x100;" horiz-adv-x="611" d="M536 757l-11 -51h-301l11 51h301zM564 0h-245v16q45 2 61 14t16 39q0 8 -2 26l-20 131h-220l-59 -111q-22 -41 -22 -66q0 -30 62 -33v-16h-186v16q34 7 55.5 32t78.5 124l285 496h26l92 -553q10 -62 24 -79t54 -20v-16zM369 262l-45 263l-149 -263h194z" />
<glyph unicode="&#x101;" horiz-adv-x="501" d="M481 543l-11 -51h-301l11 51h301zM463 111l13 -11q-56 -68 -82.5 -89t-56.5 -21q-40 0 -40 41q0 25 23 115q-56 -84 -103 -120.5t-100 -36.5q-44 0 -72 30.5t-28 85.5q0 76 43.5 155t110.5 130t132 51q67 0 80 -58l11 48l3 3l61 7l7 -3q-1 -4 -6 -21q-89 -324 -89 -363 q0 -13 14 -13q15 0 52 41zM365 361q0 26 -15 42t-41 16q-68 0 -131 -92q-33 -49 -55 -109t-22 -106q0 -74 60 -74q59 0 127 98q77 111 77 225z" />
<glyph unicode="&#x102;" horiz-adv-x="611" d="M502 862h29q-11 -67 -60 -112.5t-113 -45.5q-67 0 -97.5 39.5t-30.5 118.5h29q8 -99 107 -99q46 0 83 26.5t53 72.5zM564 0h-245v16q45 2 61 14t16 39q0 8 -2 26l-20 131h-220l-59 -111q-22 -41 -22 -66q0 -30 62 -33v-16h-186v16q34 7 55.5 32t78.5 124l285 496h26 l92 -553q10 -62 24 -79t54 -20v-16zM369 262l-45 263l-149 -263h194z" />
<glyph unicode="&#x103;" horiz-adv-x="501" d="M452 650h29q-11 -67 -60 -112.5t-113 -45.5q-67 0 -97.5 39.5t-30.5 118.5h29q8 -99 107 -99q46 0 83 26.5t53 72.5zM463 111l13 -11q-56 -68 -82.5 -89t-56.5 -21q-40 0 -40 41q0 25 23 115q-56 -84 -103 -120.5t-100 -36.5q-44 0 -72 30.5t-28 85.5q0 76 43.5 155 t110.5 130t132 51q67 0 80 -58l11 48l3 3l61 7l7 -3q-1 -4 -6 -21q-89 -324 -89 -363q0 -13 14 -13q15 0 52 41zM365 361q0 26 -15 42t-41 16q-68 0 -131 -92q-33 -49 -55 -109t-22 -106q0 -74 60 -74q59 0 127 98q77 111 77 225z" />
<glyph unicode="&#x104;" horiz-adv-x="611" d="M433 0h-114v16q45 2 61 14t16 39q0 8 -2 26l-20 131h-220l-59 -111q-22 -41 -22 -66q0 -30 62 -33v-16h-186v16q34 7 55.5 32t78.5 124l285 496h26l92 -553q10 -62 24 -79t54 -20v-16h-87q-10 -26 -10 -53q0 -23 16.5 -38t42.5 -15q47 0 83 32l17 -18q-52 -77 -125 -77 q-40 0 -67.5 26.5t-27.5 68.5q0 41 27 74zM369 262l-45 263l-149 -263h194z" />
<glyph unicode="&#x105;" horiz-adv-x="501" d="M512 -74l17 -18q-52 -77 -125 -77q-40 0 -67.5 26.5t-27.5 68.5q0 37 20 64q-32 4 -32 41q0 25 23 115q-56 -84 -103 -120.5t-100 -36.5q-44 0 -72 30.5t-28 85.5q0 76 43.5 155t110.5 130t132 51q67 0 80 -58l11 48l3 3l61 7l7 -3q-1 -4 -6 -21q-89 -324 -89 -363 q0 -13 14 -13q15 0 52 41l27 29l13 -11q-65 -80 -95 -98q-11 -26 -11 -55q0 -23 16.5 -38t42.5 -15q47 0 83 32zM365 361q0 26 -15 42t-41 16q-68 0 -131 -92q-33 -49 -55 -109t-22 -106q0 -74 60 -74q59 0 127 98q77 111 77 225z" />
<glyph unicode="&#x106;" horiz-adv-x="667" d="M389 706l162 160q10 10 25 10t25.5 -10.5t10.5 -25.5q0 -18 -17 -28l-171 -106h-35zM689 664l-37 -200l-18 3q-18 163 -149 163q-109 0 -199 -97q-53 -56 -80.5 -136t-27.5 -165q0 -205 175 -205q62 0 113.5 26t115.5 93l18 -15q-67 -79 -131.5 -114t-141.5 -35 q-117 0 -189 69.5t-72 191.5q0 103 51 196.5t136 153.5q102 73 219 73q69 0 117 -17q20 -7 41 -7q27 0 38 22h21z" />
<glyph unicode="&#x107;" horiz-adv-x="444" d="M208 494l162 160q10 10 25 10t25.5 -10.5t10.5 -25.5q0 -18 -17 -28l-171 -106h-35zM350 107l16 -10q-46 -58 -89.5 -83t-99.5 -25q-71 0 -109 39t-38 115q0 67 34 129.5t89 107.5q77 61 167 61q46 0 75.5 -23t29.5 -58q0 -20 -14 -34t-34 -14t-29.5 11.5t-9.5 28.5 q0 9 7.5 23.5t7.5 24.5q0 20 -37 20q-63 0 -109 -48q-91 -96 -91 -233q0 -54 23 -84t66 -30q39 0 71 19t74 63z" />
<glyph unicode="&#x108;" horiz-adv-x="667" d="M647 706h-36l-82 104l-137 -104h-39l157 169h49zM689 664l-37 -200l-18 3q-18 163 -149 163q-109 0 -199 -97q-53 -56 -80.5 -136t-27.5 -165q0 -205 175 -205q62 0 113.5 26t115.5 93l18 -15q-67 -79 -131.5 -114t-141.5 -35q-117 0 -189 69.5t-72 191.5q0 103 51 196.5 t136 153.5q102 73 219 73q69 0 117 -17q20 -7 41 -7q27 0 38 22h21z" />
<glyph unicode="&#x109;" horiz-adv-x="444" d="M427 492h-36l-82 104l-137 -104h-39l157 169h49zM350 107l16 -10q-46 -58 -89.5 -83t-99.5 -25q-71 0 -109 39t-38 115q0 67 34 129.5t89 107.5q77 61 167 61q46 0 75.5 -23t29.5 -58q0 -20 -14 -34t-34 -14t-29.5 11.5t-9.5 28.5q0 9 7.5 23.5t7.5 24.5q0 20 -37 20 q-63 0 -109 -48q-91 -96 -91 -233q0 -54 23 -84t66 -30q39 0 71 19t74 63z" />
<glyph unicode="&#x10a;" horiz-adv-x="667" d="M549 769q0 -20 -14.5 -34.5t-34.5 -14.5q-21 0 -35 14.5t-14 35.5q0 20 14.5 34t35.5 14q19 0 33.5 -15t14.5 -34zM689 664l-37 -200l-18 3q-18 163 -149 163q-109 0 -199 -97q-53 -56 -80.5 -136t-27.5 -165q0 -205 175 -205q62 0 113.5 26t115.5 93l18 -15 q-67 -79 -131.5 -114t-141.5 -35q-117 0 -189 69.5t-72 191.5q0 103 51 196.5t136 153.5q102 73 219 73q69 0 117 -17q20 -7 41 -7q27 0 38 22h21z" />
<glyph unicode="&#x10b;" horiz-adv-x="444" d="M369 557q0 -20 -14.5 -34.5t-34.5 -14.5q-21 0 -35 14.5t-14 35.5q0 20 14.5 34t35.5 14q19 0 33.5 -15t14.5 -34zM350 107l16 -10q-46 -58 -89.5 -83t-99.5 -25q-71 0 -109 39t-38 115q0 67 34 129.5t89 107.5q77 61 167 61q46 0 75.5 -23t29.5 -58q0 -20 -14 -34 t-34 -14t-29.5 11.5t-9.5 28.5q0 9 7.5 23.5t7.5 24.5q0 20 -37 20q-63 0 -109 -48q-91 -96 -91 -233q0 -54 23 -84t66 -30q39 0 71 19t74 63z" />
<glyph unicode="&#x10c;" horiz-adv-x="667" d="M647 875l-162 -169h-48l-95 169h38l89 -105l141 105h37zM689 664l-37 -200l-18 3q-18 163 -149 163q-109 0 -199 -97q-53 -56 -80.5 -136t-27.5 -165q0 -205 175 -205q62 0 113.5 26t115.5 93l18 -15q-67 -79 -131.5 -114t-141.5 -35q-117 0 -189 69.5t-72 191.5 q0 103 51 196.5t136 153.5q102 73 219 73q69 0 117 -17q20 -7 41 -7q27 0 38 22h21z" />
<glyph unicode="&#x10d;" horiz-adv-x="444" d="M473 661l-162 -169h-48l-95 169h38l89 -105l141 105h37zM350 107l16 -10q-46 -58 -89.5 -83t-99.5 -25q-71 0 -109 39t-38 115q0 67 34 129.5t89 107.5q77 61 167 61q46 0 75.5 -23t29.5 -58q0 -20 -14 -34t-34 -14t-29.5 11.5t-9.5 28.5q0 9 7.5 23.5t7.5 24.5 q0 20 -37 20q-63 0 -109 -48q-91 -96 -91 -233q0 -54 23 -84t66 -30q39 0 71 19t74 63z" />
<glyph unicode="&#x10e;" horiz-adv-x="722" d="M603 875l-162 -169h-48l-95 169h38l89 -105l141 105h37zM131 653h277q134 0 213 -70t79 -199q0 -177 -160 -301q-106 -83 -291 -83h-257v16q43 8 56.5 20t25.5 56l122 445q11 39 11 59q0 21 -16 30.5t-60 10.5v16zM310 584l-118 -422q-22 -80 -22 -95q0 -37 68 -37 q148 0 241 90q52 50 81 129.5t29 158.5q0 121 -78 180q-47 35 -131 35q-32 0 -47.5 -7.5t-22.5 -31.5z" />
<glyph unicode="&#x10f;" horiz-adv-x="609" d="M567 461l-9 17q75 50 75 88q0 14 -20 33q-25 22 -25 46q0 20 14.5 33t36.5 13q25 0 41.5 -20.5t16.5 -50.5q0 -86 -130 -159zM521 683l6 -6l-39 -152l-60 -219q-65 -239 -65 -246q0 -20 18 -20q13 0 27.5 12.5t54.5 58.5l12 -10q-77 -114 -147 -114q-19 0 -30 12t-11 33 q0 30 13 89q-43 -73 -84.5 -102.5t-93.5 -29.5q-50 0 -78.5 30.5t-28.5 86.5q0 119 96.5 227t195.5 108q31 0 45.5 -14t19.5 -44h1l45 163q14 49 14 71q0 16 -11 20t-53 6v17q77 7 153 23zM356 361q0 26 -14.5 41.5t-32.5 15.5q-47 0 -91 -46q-50 -53 -83 -126.5t-33 -135.5 q0 -34 15.5 -53.5t42.5 -19.5q45 0 91 49t75.5 125t29.5 150z" />
<glyph unicode="&#x110;" horiz-adv-x="722" d="M130 653h276q139 0 216.5 -68.5t77.5 -200.5q0 -87 -43 -166t-117 -135q-110 -83 -303 -83h-245v16q43 8 56 19.5t25 54.5l65 236h-90l12 42h90l46 164q11 39 11 64q0 20 -15 28.5t-62 12.5v16zM238 326l-46 -164q-22 -80 -22 -95q0 -37 69 -37q151 0 240 90 q51 51 80.5 127t29.5 157q0 108 -54 163.5t-160 55.5q-32 0 -44.5 -6t-17.5 -23l-63 -226h153l-12 -42h-153z" />
<glyph unicode="&#x111;" d="M580 560l-10 -39h-84l-58 -215q-65 -239 -65 -246q0 -20 18 -20q13 0 27.5 12.5t54.5 58.5l12 -10q-77 -114 -147 -114q-19 0 -30 12t-11 33q0 30 13 89q-43 -73 -84.5 -102.5t-93.5 -29.5q-50 0 -78.5 30.5t-28.5 86.5q0 119 96.5 227t195.5 108q31 0 45.5 -14t19.5 -44 h1l37 138h-182l7 39h187q10 40 10 57q0 16 -11 20t-53 6v17q77 7 153 23l6 -6l-30 -117h83zM356 361q0 26 -14.5 41.5t-32.5 15.5q-47 0 -91 -46q-50 -53 -83 -126.5t-33 -135.5q0 -34 15.5 -53.5t42.5 -19.5q45 0 91 49t75.5 125t29.5 150z" />
<glyph unicode="&#x112;" horiz-adv-x="611" d="M596 757l-11 -51h-301l11 51h301zM634 653l-31 -154l-22 2q3 26 3 46q0 45 -37 59t-155 14q-42 0 -55 -4.5t-18 -21.5l-66 -233h78q66 0 88 16t51 81l18 -4l-68 -232l-20 5q7 31 7 52q0 24 -7 31q-16 15 -78 15h-78l-32 -112q-36 -127 -36 -146q0 -34 79 -34 q129 0 203 39q38 20 94 98l16 -8l-62 -162h-507v16q43 8 56 19.5t25 54.5l123 442q11 37 11 64q0 20 -15.5 28.5t-61.5 12.5v16h497z" />
<glyph unicode="&#x113;" horiz-adv-x="444" d="M466 542l-11 -51h-301l11 51h301zM358 109l12 -12q-88 -108 -204 -108q-61 0 -98 37.5t-37 99.5q0 117 93.5 216t205.5 99q39 0 60.5 -18t21.5 -50q0 -66 -76.5 -118t-207.5 -69q-10 -20 -10 -61t25.5 -66t67.5 -25q33 0 63 15.5t84 59.5zM152 252l-17 -44q112 27 161 74 q50 48 50 97q0 39 -35 39q-42 0 -87.5 -48.5t-71.5 -117.5z" />
<glyph unicode="&#x114;" horiz-adv-x="611" d="M572 866h29q-11 -67 -60 -112.5t-113 -45.5q-67 0 -97.5 39.5t-30.5 118.5h29q8 -99 107 -99q46 0 83 26.5t53 72.5zM634 653l-31 -154l-22 2q3 26 3 46q0 45 -37 59t-155 14q-42 0 -55 -4.5t-18 -21.5l-66 -233h78q66 0 88 16t51 81l18 -4l-68 -232l-20 5q7 31 7 52 q0 24 -7 31q-16 15 -78 15h-78l-32 -112q-36 -127 -36 -146q0 -34 79 -34q129 0 203 39q38 20 94 98l16 -8l-62 -162h-507v16q43 8 56 19.5t25 54.5l123 442q11 37 11 64q0 20 -15.5 28.5t-61.5 12.5v16h497z" />
<glyph unicode="&#x115;" horiz-adv-x="444" d="M442 650h29q-11 -67 -60 -112.5t-113 -45.5q-67 0 -97.5 39.5t-30.5 118.5h29q8 -99 107 -99q46 0 83 26.5t53 72.5zM358 109l12 -12q-88 -108 -204 -108q-61 0 -98 37.5t-37 99.5q0 117 93.5 216t205.5 99q39 0 60.5 -18t21.5 -50q0 -66 -76.5 -118t-207.5 -69 q-10 -20 -10 -61t25.5 -66t67.5 -25q33 0 63 15.5t84 59.5zM152 252l-17 -44q112 27 161 74q50 48 50 97q0 39 -35 39q-42 0 -87.5 -48.5t-71.5 -117.5z" />
<glyph unicode="&#x116;" horiz-adv-x="611" d="M499 769q0 -20 -14.5 -34.5t-34.5 -14.5q-21 0 -35 14.5t-14 35.5q0 20 14.5 34t35.5 14q19 0 33.5 -15t14.5 -34zM634 653l-31 -154l-22 2q3 26 3 46q0 45 -37 59t-155 14q-42 0 -55 -4.5t-18 -21.5l-66 -233h78q66 0 88 16t51 81l18 -4l-68 -232l-20 5q7 31 7 52 q0 24 -7 31q-16 15 -78 15h-78l-32 -112q-36 -127 -36 -146q0 -34 79 -34q129 0 203 39q38 20 94 98l16 -8l-62 -162h-507v16q43 8 56 19.5t25 54.5l123 442q11 37 11 64q0 20 -15.5 28.5t-61.5 12.5v16h497z" />
<glyph unicode="&#x117;" horiz-adv-x="444" d="M359 557q0 -20 -14.5 -34.5t-34.5 -14.5q-21 0 -35 14.5t-14 35.5q0 20 14.5 34t35.5 14q19 0 33.5 -15t14.5 -34zM358 109l12 -12q-88 -108 -204 -108q-61 0 -98 37.5t-37 99.5q0 117 93.5 216t205.5 99q39 0 60.5 -18t21.5 -50q0 -66 -76.5 -118t-207.5 -69 q-10 -20 -10 -61t25.5 -66t67.5 -25q33 0 63 15.5t84 59.5zM152 252l-17 -44q112 27 161 74q50 48 50 97q0 39 -35 39q-42 0 -87.5 -48.5t-71.5 -117.5z" />
<glyph unicode="&#x118;" horiz-adv-x="611" d="M299 0h-300v16q43 8 56 19.5t25 54.5l123 442q11 37 11 64q0 20 -15.5 28.5t-61.5 12.5v16h497l-31 -154l-22 2q3 26 3 46q0 45 -37 59t-155 14q-42 0 -55 -4.5t-18 -21.5l-66 -233h78q66 0 88 16t51 81l18 -4l-68 -232l-20 5q7 31 7 52q0 24 -7 31q-16 15 -78 15h-78 l-32 -112q-36 -127 -36 -146q0 -34 79 -34q129 0 203 39q38 20 94 98l16 -8l-62 -162h-165q-13 -29 -13 -59q0 -23 16.5 -38t42.5 -15q47 0 83 32l17 -18q-52 -77 -125 -77q-40 0 -67.5 26.5t-27.5 68.5q0 44 32 80z" />
<glyph unicode="&#x119;" horiz-adv-x="444" d="M343 -80l17 -18q-52 -77 -125 -77q-40 0 -67.5 26.5t-27.5 68.5q0 39 23 69q-59 1 -95.5 38.5t-36.5 98.5q0 117 93.5 216t205.5 99q39 0 60.5 -18t21.5 -50q0 -66 -76.5 -118t-207.5 -69q-10 -20 -10 -61t25.5 -66t67.5 -25q33 0 63 15.5t84 59.5l12 -12 q-71 -88 -159 -104q-10 -26 -10 -52q0 -23 16.5 -38t42.5 -15q47 0 83 32zM152 252l-17 -44q112 27 161 74q50 48 50 97q0 39 -35 39q-42 0 -87.5 -48.5t-71.5 -117.5z" />
<glyph unicode="&#x11a;" horiz-adv-x="611" d="M603 875l-162 -169h-48l-95 169h38l89 -105l141 105h37zM634 653l-31 -154l-22 2q3 26 3 46q0 45 -37 59t-155 14q-42 0 -55 -4.5t-18 -21.5l-66 -233h78q66 0 88 16t51 81l18 -4l-68 -232l-20 5q7 31 7 52q0 24 -7 31q-16 15 -78 15h-78l-32 -112q-36 -127 -36 -146 q0 -34 79 -34q129 0 203 39q38 20 94 98l16 -8l-62 -162h-507v16q43 8 56 19.5t25 54.5l123 442q11 37 11 64q0 20 -15.5 28.5t-61.5 12.5v16h497z" />
<glyph unicode="&#x11b;" horiz-adv-x="444" d="M502 661l-162 -169h-48l-95 169h38l89 -105l141 105h37zM358 109l12 -12q-88 -108 -204 -108q-61 0 -98 37.5t-37 99.5q0 117 93.5 216t205.5 99q39 0 60.5 -18t21.5 -50q0 -66 -76.5 -118t-207.5 -69q-10 -20 -10 -61t25.5 -66t67.5 -25q33 0 63 15.5t84 59.5zM152 252 l-17 -44q112 27 161 74q50 48 50 97q0 39 -35 39q-42 0 -87.5 -48.5t-71.5 -117.5z" />
<glyph unicode="&#x11c;" horiz-adv-x="722" d="M653 708h-36l-82 104l-137 -104h-39l157 169h49zM722 319v-16q-49 -3 -67.5 -16.5t-29.5 -55.5l-49 -187q-111 -62 -237 -62q-137 0 -213 76q-35 35 -54.5 88t-19.5 105q0 103 50 194t133 149q104 72 220 72q72 0 134 -24q26 -10 44 -10q36 0 60 34l15 -5l-49 -197l-18 3 q-3 64 -37 106q-48 59 -141 59q-117 0 -195 -99q-50 -63 -78 -143t-28 -162q0 -99 53 -154t149 -55q71 0 105 34q9 9 16 26.5t23 74.5q26 87 26 113q0 29 -47 33l-32 3v16h267z" />
<glyph unicode="&#x11d;" d="M447 492h-36l-82 104l-137 -104h-39l157 169h49zM471 366h-49q9 -18 9 -51q0 -63 -57.5 -113.5t-127.5 -50.5q-17 0 -31 3q-3 1 -7 1q-13 0 -24.5 -13t-11.5 -28q0 -24 71 -42q142 -34 142 -127q0 -67 -56 -109t-154 -42q-78 0 -122.5 27.5t-44.5 80.5q0 39 22.5 66.5 t94.5 70.5q-27 16 -27 39q0 48 77 84q-79 28 -79 108q0 74 61 122.5t140 48.5q58 0 98 -28q11 -8 16 -8h60v-39zM352 348q0 39 -13.5 55t-42.5 16q-48 0 -85 -50t-37 -122q0 -35 16 -55t44 -20q50 0 85 59q33 56 33 117zM325 -90q0 35 -31.5 58.5t-111.5 48.5q-24 7 -34 11 q-7 0 -30.5 -19t-34.5 -33q-20 -25 -20 -58q0 -102 127 -102q59 0 97 27.5t38 66.5z" />
<glyph unicode="&#x11e;" horiz-adv-x="722" d="M632 866h29q-11 -67 -60 -112.5t-113 -45.5q-67 0 -97.5 39.5t-30.5 118.5h29q8 -99 107 -99q46 0 83 26.5t53 72.5zM722 319v-16q-49 -3 -67.5 -16.5t-29.5 -55.5l-49 -187q-111 -62 -237 -62q-137 0 -213 76q-35 35 -54.5 88t-19.5 105q0 103 50 194t133 149 q104 72 220 72q72 0 134 -24q26 -10 44 -10q36 0 60 34l15 -5l-49 -197l-18 3q-3 64 -37 106q-48 59 -141 59q-117 0 -195 -99q-50 -63 -78 -143t-28 -162q0 -99 53 -154t149 -55q71 0 105 34q9 9 16 26.5t23 74.5q26 87 26 113q0 29 -47 33l-32 3v16h267z" />
<glyph unicode="&#x11f;" d="M447 650h29q-11 -67 -60 -112.5t-113 -45.5q-67 0 -97.5 39.5t-30.5 118.5h29q8 -99 107 -99q46 0 83 26.5t53 72.5zM471 366h-49q9 -18 9 -51q0 -63 -57.5 -113.5t-127.5 -50.5q-17 0 -31 3q-3 1 -7 1q-13 0 -24.5 -13t-11.5 -28q0 -24 71 -42q142 -34 142 -127 q0 -67 -56 -109t-154 -42q-78 0 -122.5 27.5t-44.5 80.5q0 39 22.5 66.5t94.5 70.5q-27 16 -27 39q0 48 77 84q-79 28 -79 108q0 74 61 122.5t140 48.5q58 0 98 -28q11 -8 16 -8h60v-39zM352 348q0 39 -13.5 55t-42.5 16q-48 0 -85 -50t-37 -122q0 -35 16 -55t44 -20 q50 0 85 59q33 56 33 117zM325 -90q0 35 -31.5 58.5t-111.5 48.5q-24 7 -34 11q-7 0 -30.5 -19t-34.5 -33q-20 -25 -20 -58q0 -102 127 -102q59 0 97 27.5t38 66.5z" />
<glyph unicode="&#x120;" horiz-adv-x="722" d="M539 769q0 -20 -14.5 -34.5t-34.5 -14.5q-21 0 -35 14.5t-14 35.5q0 20 14.5 34t35.5 14q19 0 33.5 -15t14.5 -34zM722 319v-16q-49 -3 -67.5 -16.5t-29.5 -55.5l-49 -187q-111 -62 -237 -62q-137 0 -213 76q-35 35 -54.5 88t-19.5 105q0 103 50 194t133 149 q104 72 220 72q72 0 134 -24q26 -10 44 -10q36 0 60 34l15 -5l-49 -197l-18 3q-3 64 -37 106q-48 59 -141 59q-117 0 -195 -99q-50 -63 -78 -143t-28 -162q0 -99 53 -154t149 -55q71 0 105 34q9 9 16 26.5t23 74.5q26 87 26 113q0 29 -47 33l-32 3v16h267z" />
<glyph unicode="&#x121;" d="M350 557q0 -20 -14.5 -34.5t-34.5 -14.5q-21 0 -35 14.5t-14 35.5q0 20 14.5 34t35.5 14q19 0 33.5 -15t14.5 -34zM471 366h-49q9 -18 9 -51q0 -63 -57.5 -113.5t-127.5 -50.5q-17 0 -31 3q-3 1 -7 1q-13 0 -24.5 -13t-11.5 -28q0 -24 71 -42q142 -34 142 -127 q0 -67 -56 -109t-154 -42q-78 0 -122.5 27.5t-44.5 80.5q0 39 22.5 66.5t94.5 70.5q-27 16 -27 39q0 48 77 84q-79 28 -79 108q0 74 61 122.5t140 48.5q58 0 98 -28q11 -8 16 -8h60v-39zM352 348q0 39 -13.5 55t-42.5 16q-48 0 -85 -50t-37 -122q0 -35 16 -55t44 -20 q50 0 85 59q33 56 33 117zM325 -90q0 35 -31.5 58.5t-111.5 48.5q-24 7 -34 11q-7 0 -30.5 -19t-34.5 -33q-20 -25 -20 -58q0 -102 127 -102q59 0 97 27.5t38 66.5z" />
<glyph unicode="&#x122;" horiz-adv-x="722" d="M722 319v-16q-49 -3 -67.5 -16.5t-29.5 -55.5l-49 -187q-111 -62 -237 -62q-137 0 -213 76q-35 35 -54.5 88t-19.5 105q0 103 50 194t133 149q104 72 220 72q72 0 134 -24q26 -10 44 -10q36 0 60 34l15 -5l-49 -197l-18 3q-3 64 -37 106q-48 59 -141 59q-117 0 -195 -99 q-50 -63 -78 -143t-28 -162q0 -99 53 -154t149 -55q71 0 105 34q9 9 16 26.5t23 74.5q26 87 26 113q0 29 -47 33l-32 3v16h267zM259 -267l-9 18q75 50 75 88q0 11 -21 31q-24 21 -24 47q0 20 14.5 33t36.5 13q25 0 41.5 -20.5t16.5 -50.5q0 -87 -130 -159z" />
<glyph unicode="&#x123;" d="M386 724l9 -17q-75 -50 -75 -89q0 -13 20 -32q25 -22 25 -45q0 -20 -14.5 -33.5t-36.5 -13.5q-25 0 -41.5 20t-16.5 51q0 87 130 159zM471 366h-49q9 -18 9 -51q0 -63 -57.5 -113.5t-127.5 -50.5q-17 0 -31 3q-3 1 -7 1q-13 0 -24.5 -13t-11.5 -28q0 -24 71 -42 q142 -34 142 -127q0 -67 -56 -109t-154 -42q-78 0 -122.5 27.5t-44.5 80.5q0 39 22.5 66.5t94.5 70.5q-27 16 -27 39q0 48 77 84q-79 28 -79 108q0 74 61 122.5t140 48.5q58 0 98 -28q11 -8 16 -8h60v-39zM352 348q0 39 -13.5 55t-42.5 16q-48 0 -85 -50t-37 -122 q0 -35 16 -55t44 -20q50 0 85 59q33 56 33 117zM325 -90q0 35 -31.5 58.5t-111.5 48.5q-24 7 -34 11q-7 0 -30.5 -19t-34.5 -33q-20 -25 -20 -58q0 -102 127 -102q59 0 97 27.5t38 66.5z" />
<glyph unicode="&#x124;" horiz-adv-x="722" d="M627 706h-36l-82 104l-137 -104h-39l157 169h49zM769 653v-16q-44 -8 -58 -20t-26 -54l-132 -481q-3 -12 -3 -24q0 -21 15 -29t64 -13v-16h-274v16q51 4 71.5 21t30.5 56l64 233h-285l-66 -244q-3 -11 -3 -22q0 -22 12.5 -30t57.5 -14v-16h-245v16q41 4 56.5 20t29.5 66 l118 430q12 46 12 64q0 21 -14.5 28.5t-62.5 12.5v16h271v-16q-45 -3 -67.5 -19t-32.5 -52l-54 -198h285l46 164q14 52 14 63q0 19 -16 29t-56 13v16h248z" />
<glyph unicode="&#x125;" d="M447 706h-36l-82 104l-137 -104h-39l157 169h49zM465 118l13 -13q-46 -65 -77 -89.5t-69 -24.5q-20 0 -32 11.5t-12 30.5q0 17 20 92l55 207q7 28 7 33q0 25 -28 25q-27 0 -69.5 -40t-82.5 -100q-31 -48 -49 -93.5t-47 -156.5h-75l146 554q13 50 13 62t-13 18.5t-28 6.5 h-27v15q76 9 157 27l7 -6l-121 -447q130 211 230 211q33 0 49 -18.5t16 -48.5q0 -43 -48 -193q-33 -101 -33 -125q0 -18 16 -18q12 0 26.5 14.5t55.5 65.5z" />
<glyph unicode="&#x126;" horiz-adv-x="722" d="M769 653v-16q-44 -8 -58 -20t-26 -54l-12 -43h88l-12 -44h-88l-108 -394q-3 -12 -3 -24q0 -21 15 -29t64 -13v-16h-274v16q51 4 71.5 21t30.5 56l64 233h-285l-66 -244q-3 -11 -3 -22q0 -22 12.5 -30t57.5 -14v-16h-245v16q41 4 56.5 20t29.5 66l102 374h-103l12 44h103 q16 57 16 76q0 21 -14.5 28.5t-62.5 12.5v16h271v-16q-45 -3 -67 -19t-33 -52l-13 -46h286q18 62 18 75q0 19 -16 29t-56 13v16h248zM563 476h-286l-29 -108h285z" />
<glyph unicode="&#x127;" d="M465 118l13 -13q-46 -65 -77 -89.5t-69 -24.5q-20 0 -32 11.5t-12 30.5q0 17 20 92l55 207q7 28 7 33q0 25 -28 25q-27 0 -69.5 -40t-82.5 -100q-31 -48 -49 -93.5t-47 -156.5h-75l132 500h-63l15 54h62q13 50 13 62t-13 18.5t-28 6.5h-27v15q76 9 157 27l7 -6l-33 -123 h159l-15 -54h-159l-73 -270q130 211 230 211q33 0 49 -18.5t16 -48.5q0 -43 -48 -193q-33 -101 -33 -125q0 -18 16 -18q12 0 26.5 14.5t55.5 65.5z" />
<glyph unicode="&#x128;" horiz-adv-x="333" d="M416 836h28q-22 -104 -95 -104q-18 0 -57 15q-71 29 -95 29q-36 0 -51 -47h-29q15 58 38 82t62 24q32 0 86 -24q41 -19 62 -19q20 0 31.5 9.5t19.5 34.5zM384 653v-16q-42 -5 -55.5 -18t-26.5 -59l-120 -429q-15 -53 -15 -76q0 -20 12.5 -27t56.5 -12v-16h-244v16 q42 8 57.5 21t26.5 54l120 441q13 46 13 62q0 20 -16 30.5t-56 12.5v16h247z" />
<glyph unicode="&#x129;" horiz-adv-x="278" d="M329 624h28q-22 -104 -95 -104q-18 0 -57 15q-71 29 -95 29q-36 0 -51 -47h-29q15 58 38 82t62 24q32 0 86 -24q41 -19 62 -19q20 0 31.5 9.5t19.5 34.5zM221 115l14 -12q-41 -63 -71 -88.5t-67 -25.5q-50 0 -50 57q0 20 24 110l48 175q9 34 9 45q0 15 -11 19t-52 5v16 q44 3 159 25l5 -3l-96 -342q-9 -34 -9 -45q0 -15 16 -15q12 0 30 17.5t51 61.5z" />
<glyph unicode="&#x12a;" horiz-adv-x="333" d="M439 757l-11 -51h-301l11 51h301zM384 653v-16q-42 -5 -55.5 -18t-26.5 -59l-120 -429q-15 -53 -15 -76q0 -20 12.5 -27t56.5 -12v-16h-244v16q42 8 57.5 21t26.5 54l120 441q13 46 13 62q0 20 -16 30.5t-56 12.5v16h247z" />
<glyph unicode="&#x12b;" horiz-adv-x="278" d="M341 543l-11 -51h-301l11 51h301zM221 115l14 -12q-41 -63 -71 -88.5t-67 -25.5q-50 0 -50 57q0 20 24 110l48 175q9 34 9 45q0 15 -11 19t-52 5v16q44 3 159 25l5 -3l-96 -342q-9 -34 -9 -45q0 -15 16 -15q12 0 30 17.5t51 61.5z" />
<glyph unicode="&#x12c;" horiz-adv-x="333" d="M419 866h29q-11 -67 -60 -112.5t-113 -45.5q-67 0 -97.5 39.5t-30.5 118.5h29q8 -99 107 -99q46 0 83 26.5t53 72.5zM384 653v-16q-42 -5 -55.5 -18t-26.5 -59l-120 -429q-15 -53 -15 -76q0 -20 12.5 -27t56.5 -12v-16h-244v16q42 8 57.5 21t26.5 54l120 441q13 46 13 62 q0 20 -16 30.5t-56 12.5v16h247z" />
<glyph unicode="&#x12d;" horiz-adv-x="278" d="M318 650h29q-11 -67 -60 -112.5t-113 -45.5q-67 0 -97.5 39.5t-30.5 118.5h29q8 -99 107 -99q46 0 83 26.5t53 72.5zM221 115l14 -12q-41 -63 -71 -88.5t-67 -25.5q-50 0 -50 57q0 20 24 110l48 175q9 34 9 45q0 15 -11 19t-52 5v16q44 3 159 25l5 -3l-96 -342 q-9 -34 -9 -45q0 -15 16 -15q12 0 30 17.5t51 61.5z" />
<glyph unicode="&#x12e;" horiz-adv-x="333" d="M94 0h-102v16q42 8 57.5 21t26.5 54l120 441q13 46 13 62q0 20 -16 30.5t-56 12.5v16h247v-16q-42 -5 -55.5 -18t-26.5 -59l-120 -429q-15 -53 -15 -76q0 -20 12.5 -27t56.5 -12v-16h-98q-10 -26 -10 -53q0 -23 16.5 -38t42.5 -15q47 0 83 32l17 -18q-52 -77 -125 -77 q-40 0 -67.5 26.5t-27.5 68.5q0 41 27 74z" />
<glyph unicode="&#x12f;" horiz-adv-x="278" d="M102 -11h-4q-49 0 -49 55q0 29 22 111l48 177q9 32 9 44q0 15 -11.5 19t-52.5 5v16q46 4 160 25l4 -3l-94 -343q-10 -34 -10 -44q0 -15 14 -15q25 0 84 78l13 -11q-46 -71 -76 -93q-15 -30 -15 -63q0 -23 16.5 -38t42.5 -15q47 0 83 32l17 -18q-52 -77 -125 -77 q-40 0 -67.5 26.5t-27.5 68.5q0 35 19 63zM264 599q0 -21 -14.5 -36t-34.5 -15q-22 0 -35 14.5t-13 38.5q0 23 13.5 38t33.5 15t35 -16.5t15 -38.5z" />
<glyph unicode="&#x130;" horiz-adv-x="333" d="M344 769q0 -20 -14.5 -34.5t-34.5 -14.5q-21 0 -35 14.5t-14 35.5q0 20 14.5 34t35.5 14q19 0 33.5 -15t14.5 -34zM384 653v-16q-42 -5 -55.5 -18t-26.5 -59l-120 -429q-15 -53 -15 -76q0 -20 12.5 -27t56.5 -12v-16h-244v16q42 8 57.5 21t26.5 54l120 441q13 46 13 62 q0 20 -16 30.5t-56 12.5v16h247z" />
<glyph unicode="&#x131;" horiz-adv-x="278" d="M221 115l14 -12q-41 -63 -71 -88.5t-67 -25.5q-50 0 -50 57q0 20 24 110l48 175q9 34 9 45q0 15 -11 19t-52 5v16q44 3 159 25l5 -3l-96 -342q-9 -34 -9 -45q0 -15 16 -15q12 0 30 17.5t51 61.5z" />
<glyph unicode="&#x134;" horiz-adv-x="444" d="M536 708h-36l-82 104l-137 -104h-39l157 169h49zM491 653v-16q-43 -6 -56 -17.5t-26 -56.5l-103 -367q-29 -104 -71 -159t-124 -55q-53 0 -85 24t-32 64q0 24 12.5 40t32.5 16t35.5 -13.5t15.5 -32.5q0 -6 -1.5 -14.5t-1.5 -12.5q0 -39 35 -39t53 64l127 454q12 44 12 64 t-15 28.5t-62 12.5v16h254z" />
<glyph unicode="&#x135;" horiz-adv-x="278" d="M353 492h-36l-82 104l-137 -104h-39l157 169h49zM246 438l-104 -410q-31 -121 -76.5 -178t-110.5 -57q-35 0 -57 17t-22 44q0 18 12 31t29 13q39 0 39 -37q0 -12 -6 -19.5t-6 -14.5q0 -12 18 -12q30 0 50.5 39t46.5 143l72 292q16 65 16 80q0 17 -10.5 24t-37.5 7h-26v16 q45 3 169 25z" />
<glyph unicode="&#x136;" horiz-adv-x="667" d="M722 653v-16q-28 0 -77 -37l-298 -225l168 -293q23 -40 40 -50.5t64 -15.5v-16h-275v16l29 3q46 4 46 32q0 6 -1.5 13t-6.5 16.5t-8 15t-11 19.5t-10 18l-123 215l-65 -237q-11 -38 -11 -51q0 -23 14.5 -31.5t56.5 -12.5v-16h-247v16q43 5 56 17t25 54l124 445 q14 50 14 62q0 21 -17 31t-62 12v16h270v-16q-42 -3 -65 -18.5t-34 -55.5l-53 -194l153 109q143 101 143 137q0 15 -36 19l-24 3v16h221zM211 -267l-9 18q75 50 75 88q0 11 -21 31q-24 21 -24 47q0 20 14.5 33t36.5 13q25 0 41.5 -20.5t16.5 -50.5q0 -87 -130 -159z" />
<glyph unicode="&#x137;" horiz-adv-x="444" d="M461 428v-16q-36 -2 -76 -29.5t-149 -124.5l37 -88q55 -129 81 -129q21 0 45 42q5 8 15 26l15 -11q-35 -63 -58 -86t-53 -23q-22 0 -39.5 17.5t-41.5 64.5q-30 58 -60 141l-40 -32l-48 -180h-75l141 528q14 50 18 88q-3 24 -51 24h-18v16q75 9 157 27l6 -6l-120 -456 l43 33q143 110 143 140q0 18 -37 18h-14v16h179zM85 -267l-9 18q75 50 75 88q0 11 -21 31q-24 21 -24 47q0 20 14.5 33t36.5 13q25 0 41.5 -20.5t16.5 -50.5q0 -87 -130 -159z" />
<glyph unicode="&#x138;" horiz-adv-x="542" d="M243 276l42 4q35 3 69 28q37 26 75 88q24 39 42 51t58 12q26 0 49 -14t23 -38q0 -18 -15 -29.5t-34 -11.5t-30.5 10t-18 19.5t-14.5 9.5q-21 0 -37 -30q-42 -74 -98 -109q15 -6 26 -22q10 -15 27.5 -76t21.5 -70q13 -32 43 -53.5t64 -29.5l-4 -15h-130q-38 25 -57 72 q-9 22 -19.5 63t-13.5 53q-15 48 -24 54q-40 -2 -54 -2l-43 -162q-4 -13 -4 -27q0 -20 16.5 -27t47.5 -8l-5 -16h-241l5 16q46 0 63 11q20 11 30 50l80 305q4 15 4 28q0 6 -1.5 10.5t-3 8t-5.5 5.5l-7 3.5t-10 2.5l-10.5 1.5t-13 1t-14.5 0.5l4 16h241l-4 -16 q-46 -2 -62 -11q-19 -11 -30 -51z" />
<glyph unicode="&#x139;" horiz-adv-x="556" d="M260 706l162 160q10 10 25 10t25.5 -10.5t10.5 -25.5q0 -18 -17 -28l-171 -106h-35zM559 180l-58 -180h-509v16q42 4 55 17t27 61l122 438q11 37 11 62q0 22 -15.5 31t-61.5 12v16h273v-16q-46 -3 -67.5 -19t-33.5 -58l-120 -429q-10 -38 -10 -54q0 -23 22 -32t83 -9 q77 0 110.5 7t69.5 31q41 27 82 112z" />
<glyph unicode="&#x13a;" horiz-adv-x="278" d="M125 706l162 160q10 10 25 10t25.5 -10.5t10.5 -25.5q0 -18 -17 -28l-171 -106h-35zM279 678l-153 -585q-8 -29 -8 -43q0 -18 17 -18q27 0 67 57l25 35l14 -10q-45 -71 -77.5 -98t-73.5 -27q-49 0 -49 56q0 17 4 30l137 524q3 10 3 19q0 22 -49 22h-18v16q70 8 155 27z " />
<glyph unicode="&#x13b;" horiz-adv-x="556" d="M559 180l-58 -180h-509v16q42 4 55 17t27 61l122 438q11 37 11 62q0 22 -15.5 31t-61.5 12v16h273v-16q-46 -3 -67.5 -19t-33.5 -58l-120 -429q-10 -38 -10 -54q0 -23 22 -32t83 -9q77 0 110.5 7t69.5 31q41 27 82 112zM160 -267l-9 18q75 50 75 88q0 11 -21 31 q-24 21 -24 47q0 20 14.5 33t36.5 13q25 0 41.5 -20.5t16.5 -50.5q0 -87 -130 -159z" />
<glyph unicode="&#x13c;" horiz-adv-x="278" d="M279 678l-153 -585q-8 -29 -8 -43q0 -18 17 -18q27 0 67 57l25 35l14 -10q-45 -71 -77.5 -98t-73.5 -27q-49 0 -49 56q0 17 4 30l137 524q3 10 3 19q0 22 -49 22h-18v16q70 8 155 27zM16 -267l-9 18q75 50 75 88q0 11 -21 31q-24 21 -24 47q0 20 14.5 33t36.5 13 q25 0 41.5 -20.5t16.5 -50.5q0 -87 -130 -159z" />
<glyph unicode="&#x13d;" horiz-adv-x="556" d="M465 436l-9 17q75 50 75 88q0 14 -20 33q-25 22 -25 46q0 20 14.5 33t36.5 13q25 0 41.5 -20.5t16.5 -50.5q0 -86 -130 -159zM559 180l-58 -180h-509v16q42 4 55 17t27 61l122 438q11 37 11 62q0 22 -15.5 31t-61.5 12v16h273v-16q-46 -3 -67.5 -19t-33.5 -58l-120 -429 q-10 -38 -10 -54q0 -23 22 -32t83 -9q77 0 110.5 7t69.5 31q41 27 82 112z" />
<glyph unicode="&#x13e;" horiz-adv-x="278" d="M318 463l-9 17q75 50 75 88q0 14 -20 33q-25 22 -25 46q0 20 14.5 33t36.5 13q25 0 41.5 -20.5t16.5 -50.5q0 -86 -130 -159zM279 678l-153 -585q-8 -29 -8 -43q0 -18 17 -18q27 0 67 57l25 35l14 -10q-45 -71 -77.5 -98t-73.5 -27q-49 0 -49 56q0 17 4 30l137 524 q3 10 3 19q0 22 -49 22h-18v16q70 8 155 27z" />
<glyph unicode="&#x13f;" horiz-adv-x="556" d="M459 337q0 -22 -17 -38t-40 -16q-22 0 -38 16t-16 38q0 24 16 40.5t39 16.5t39.5 -17t16.5 -40zM559 180l-58 -180h-509v16q42 4 55 17t27 61l122 438q11 37 11 62q0 22 -15.5 31t-61.5 12v16h273v-16q-46 -3 -67.5 -19t-33.5 -58l-120 -429q-10 -38 -10 -54 q0 -23 22 -32t83 -9q77 0 110.5 7t69.5 31q41 27 82 112z" />
<glyph unicode="&#x140;" horiz-adv-x="323" d="M386 337q0 -22 -17 -38t-40 -16q-22 0 -38 16t-16 38q0 24 16 40.5t39 16.5t39.5 -17t16.5 -40zM279 678l-153 -585q-8 -29 -8 -43q0 -18 17 -18q27 0 67 57l25 35l14 -10q-45 -71 -77.5 -98t-73.5 -27q-49 0 -49 56q0 17 4 30l137 524q3 10 3 19q0 22 -49 22h-18v16 q70 8 155 27z" />
<glyph unicode="&#x141;" horiz-adv-x="556" d="M559 180l-59 -180h-508v16q41 5 56 19t27 58l52 191l-99 -59l13 48l99 59l56 200q11 37 11 62q0 22 -15.5 30t-62.5 13v16h273v-16q-44 0 -66 -16.5t-32 -51.5l-51 -181l143 85l-14 -49l-142 -83l-54 -195q-17 -59 -17 -74q0 -19 23 -27.5t75 -8.5q80 0 116.5 6.5 t71.5 29.5q42 27 84 114z" />
<glyph unicode="&#x142;" horiz-adv-x="278" d="M307 460l-12 -46l-98 -50l-72 -275q-7 -24 -7 -38q0 -19 15 -19q26 0 69 57l26 34l13 -9q-49 -73 -80.5 -99t-70.5 -26q-49 0 -49 56q0 16 16 75l52 194l-72 -36l12 46l72 36q65 242 65 256q0 24 -49 24h-20v16q72 9 156 27l6 -6l-70 -267z" />
<glyph unicode="&#x143;" horiz-adv-x="667" d="M361 706l162 160q10 10 25 10t25.5 -10.5t10.5 -25.5q0 -18 -17 -28l-171 -106h-35zM727 653v-16q-27 -6 -37.5 -9.5t-23 -21t-19 -38.5t-22.5 -76l-146 -507h-18l-230 550l-114 -422q-9 -32 -9 -54q0 -21 15.5 -30.5t54.5 -12.5v-16h-198v16q43 6 61 31.5t45 120.5 l117 415q-23 54 -86 54v16h160l207 -499l106 388q8 28 8 44q0 27 -13.5 37t-55.5 14v16h198z" />
<glyph unicode="&#x144;" d="M180 494l162 160q10 10 25 10t25.5 -10.5t10.5 -25.5q0 -18 -17 -28l-171 -106h-35zM460 117l14 -13q-51 -70 -78 -91.5t-62 -21.5q-20 0 -33.5 13.5t-13.5 40.5q0 16 16 75l44 162q14 54 14 79q0 29 -24 29q-29 0 -63.5 -34.5t-84.5 -107.5q-33 -49 -48.5 -88 t-51.5 -160h-75l96 350q2 10 2 17q0 15 -13.5 20.5t-51.5 6.5v16q39 8 87 16.5t75 14.5l4 -2l-67 -218q74 118 128 169t103 51q31 0 48 -16.5t17 -44.5q0 -25 -10 -60l-56 -203q-14 -50 -14 -61q0 -18 16 -18q19 0 61 53q7 8 21 26z" />
<glyph unicode="&#x145;" horiz-adv-x="667" d="M727 653v-16q-27 -6 -37.5 -9.5t-23 -21t-19 -38.5t-22.5 -76l-146 -507h-18l-230 550l-114 -422q-9 -32 -9 -54q0 -21 15.5 -30.5t54.5 -12.5v-16h-198v16q43 6 61 31.5t45 120.5l117 415q-23 54 -86 54v16h160l207 -499l106 388q8 28 8 44q0 27 -13.5 37t-55.5 14v16 h198zM182 -267l-9 18q75 50 75 88q0 11 -21 31q-24 21 -24 47q0 20 14.5 33t36.5 13q25 0 41.5 -20.5t16.5 -50.5q0 -87 -130 -159z" />
<glyph unicode="&#x146;" d="M460 117l14 -13q-51 -70 -78 -91.5t-62 -21.5q-20 0 -33.5 13.5t-13.5 40.5q0 16 16 75l44 162q14 54 14 79q0 29 -24 29q-29 0 -63.5 -34.5t-84.5 -107.5q-33 -49 -48.5 -88t-51.5 -160h-75l96 350q2 10 2 17q0 15 -13.5 20.5t-51.5 6.5v16q39 8 87 16.5t75 14.5l4 -2 l-67 -218q74 118 128 169t103 51q31 0 48 -16.5t17 -44.5q0 -25 -10 -60l-56 -203q-14 -50 -14 -61q0 -18 16 -18q19 0 61 53q7 8 21 26zM107 -267l-9 18q75 50 75 88q0 11 -21 31q-24 21 -24 47q0 20 14.5 33t36.5 13q25 0 41.5 -20.5t16.5 -50.5q0 -87 -130 -159z" />
<glyph unicode="&#x147;" horiz-adv-x="667" d="M635 875l-162 -169h-48l-95 169h38l89 -105l141 105h37zM727 653v-16q-27 -6 -37.5 -9.5t-23 -21t-19 -38.5t-22.5 -76l-146 -507h-18l-230 550l-114 -422q-9 -32 -9 -54q0 -21 15.5 -30.5t54.5 -12.5v-16h-198v16q43 6 61 31.5t45 120.5l117 415q-23 54 -86 54v16h160 l207 -499l106 388q8 28 8 44q0 27 -13.5 37t-55.5 14v16h198z" />
<glyph unicode="&#x148;" d="M475 661l-162 -169h-48l-95 169h38l89 -105l141 105h37zM460 117l14 -13q-51 -70 -78 -91.5t-62 -21.5q-20 0 -33.5 13.5t-13.5 40.5q0 16 16 75l44 162q14 54 14 79q0 29 -24 29q-29 0 -63.5 -34.5t-84.5 -107.5q-33 -49 -48.5 -88t-51.5 -160h-75l96 350q2 10 2 17 q0 15 -13.5 20.5t-51.5 6.5v16q39 8 87 16.5t75 14.5l4 -2l-67 -218q74 118 128 169t103 51q31 0 48 -16.5t17 -44.5q0 -25 -10 -60l-56 -203q-14 -50 -14 -61q0 -18 16 -18q19 0 61 53q7 8 21 26z" />
<glyph unicode="&#x149;" horiz-adv-x="577" d="M67 461l-9 17q75 50 75 88q0 14 -20 33q-25 22 -25 46q0 20 14.5 33t36.5 13q25 0 41.5 -20.5t16.5 -50.5q0 -86 -130 -159zM526 117l14 -13q-51 -70 -78 -91.5t-62 -21.5q-20 0 -33.5 13.5t-13.5 40.5q0 16 16 75l44 162q14 54 14 79q0 29 -24 29q-29 0 -63.5 -34.5 t-84.5 -107.5q-33 -49 -48.5 -88t-51.5 -160h-75l96 350q2 10 2 17q0 15 -13.5 20.5t-51.5 6.5v16q39 8 87 16.5t75 14.5l4 -2l-67 -218q74 118 128 169t103 51q31 0 48 -16.5t17 -44.5q0 -25 -10 -60l-56 -203q-14 -50 -14 -61q0 -18 16 -18q19 0 61 53q7 8 21 26z" />
<glyph unicode="&#x14a;" horiz-adv-x="722" d="M329 653l-34 -120q59 74 114.5 103.5t117.5 29.5q84 0 128.5 -61.5t44.5 -157.5q0 -57 -11 -117.5t-38 -123.5t-65.5 -112t-99.5 -80.5t-135 -31.5q-40 0 -63.5 21t-23.5 53q0 36 22.5 60.5t56.5 24.5q22 0 37.5 -18t15.5 -39q0 -9 -7 -26t-7 -21q0 -18 12 -18t28 5.5 t39 19.5t44.5 43t41 69t31 105.5t11.5 145.5q0 213 -102 213q-101 0 -219 -187l-90 -322q-11 -37 -11 -54q0 -41 55 -41h14v-16h-244v16q43 8 56.5 20t25.5 56l123 446q10 38 10 59q0 20 -15 30t-55 10h-6v16h198z" />
<glyph unicode="&#x14b;" d="M213 439l-67 -218q74 118 128 169t103 51q31 0 48 -16.5t17 -44.5q0 -25 -10 -60l-77 -292q-32 -123 -77 -179.5t-110 -56.5q-34 0 -56.5 17.5t-22.5 44.5q0 18 12 31t29 13q39 0 39 -37q0 -12 -6 -19.5t-6 -14.5q0 -13 18 -13q30 0 50.5 39.5t46.5 143.5l72 293 q17 68 17 71q0 29 -24 29q-29 0 -63.5 -34.5t-84.5 -107.5q-33 -50 -49 -89.5t-51 -158.5h-75l96 350q2 5 2 17q0 15 -13.5 20.5t-51.5 6.5v16q39 8 87 16.5t75 14.5z" />
<glyph unicode="&#x14c;" horiz-adv-x="722" d="M666 757l-11 -51h-301l11 51h301zM699 418q0 -107 -57.5 -205t-149.5 -160q-105 -71 -214 -71q-99 0 -158.5 62t-59.5 172q0 91 49 187.5t128 165.5q112 97 237 97q107 1 166 -66t59 -182zM594 481q0 71 -34.5 111.5t-94.5 40.5q-99 0 -186 -117q-53 -72 -83.5 -163 t-30.5 -169q0 -82 33.5 -125.5t96.5 -43.5q92 0 170 95q59 74 94 181t35 190z" />
<glyph unicode="&#x14d;" d="M511 543l-11 -51h-301l11 51h301zM468 301q0 -57 -28.5 -118.5t-77.5 -110.5q-83 -83 -188 -83q-70 0 -108.5 36.5t-38.5 102.5q0 83 50.5 162t129.5 121q56 30 120 30q62 0 101.5 -37.5t39.5 -102.5zM384 326q0 45 -19 69.5t-52 24.5q-67 0 -128 -91q-74 -113 -74 -228 q0 -44 21 -67.5t57 -23.5q61 0 121 83q34 46 54 110.5t20 122.5z" />
<glyph unicode="&#x14e;" horiz-adv-x="722" d="M680 866h29q-11 -67 -60 -112.5t-113 -45.5q-67 0 -97.5 39.5t-30.5 118.5h29q8 -99 107 -99q46 0 83 26.5t53 72.5zM699 418q0 -107 -57.5 -205t-149.5 -160q-105 -71 -214 -71q-99 0 -158.5 62t-59.5 172q0 91 49 187.5t128 165.5q112 97 237 97q107 1 166 -66t59 -182 zM594 481q0 71 -34.5 111.5t-94.5 40.5q-99 0 -186 -117q-53 -72 -83.5 -163t-30.5 -169q0 -82 33.5 -125.5t96.5 -43.5q92 0 170 95q59 74 94 181t35 190z" />
<glyph unicode="&#x14f;" d="M504 650h29q-11 -67 -60 -112.5t-113 -45.5q-67 0 -97.5 39.5t-30.5 118.5h29q8 -99 107 -99q46 0 83 26.5t53 72.5zM468 301q0 -57 -28.5 -118.5t-77.5 -110.5q-83 -83 -188 -83q-70 0 -108.5 36.5t-38.5 102.5q0 83 50.5 162t129.5 121q56 30 120 30q62 0 101.5 -37.5 t39.5 -102.5zM384 326q0 45 -19 69.5t-52 24.5q-67 0 -128 -91q-74 -113 -74 -228q0 -44 21 -67.5t57 -23.5q61 0 121 83q34 46 54 110.5t20 122.5z" />
<glyph unicode="&#x150;" horiz-adv-x="722" d="M497 706l160 160q10 10 27 10q15 0 25.5 -10.5t10.5 -25.5q0 -20 -17 -30l-171 -104h-35zM327 706l160 160q10 10 27 10q15 0 25.5 -10.5t10.5 -25.5q0 -20 -17 -30l-169 -104h-37zM699 418q0 -107 -57.5 -205t-149.5 -160q-105 -71 -214 -71q-99 0 -158.5 62t-59.5 172 q0 91 49 187.5t128 165.5q112 97 237 97q107 1 166 -66t59 -182zM594 481q0 71 -34.5 111.5t-94.5 40.5q-99 0 -186 -117q-53 -72 -83.5 -163t-30.5 -169q0 -82 33.5 -125.5t96.5 -43.5q92 0 170 95q59 74 94 181t35 190z" />
<glyph unicode="&#x151;" d="M318 494l160 160q10 10 27 10q15 0 25.5 -10.5t10.5 -25.5q0 -20 -17 -30l-171 -104h-35zM148 494l160 160q10 10 27 10q15 0 25.5 -10.5t10.5 -25.5q0 -20 -17 -30l-169 -104h-37zM468 301q0 -57 -28.5 -118.5t-77.5 -110.5q-83 -83 -188 -83q-70 0 -108.5 36.5 t-38.5 102.5q0 83 50.5 162t129.5 121q56 30 120 30q62 0 101.5 -37.5t39.5 -102.5zM384 326q0 45 -19 69.5t-52 24.5q-67 0 -128 -91q-74 -113 -74 -228q0 -44 21 -67.5t57 -23.5q61 0 121 83q34 46 54 110.5t20 122.5z" />
<glyph unicode="&#x152;" horiz-adv-x="944" d="M964 653l-31 -150h-16q0 65 -12 85q-18 32 -108 32h-96q-28 0 -37 -32l-64 -227q83 0 116 5.5t53 23.5t41 66l18 -4l-66 -230l-20 2q1 8 2.5 16t2 13t1.5 13q-1 34 -19.5 45t-75.5 14l-62 3l-56 -204q-11 -43 -11 -55q0 -20 16 -28t59 -8q109 0 166.5 28t117.5 111l16 -6 l-65 -166h-346q-12 0 -45.5 -2.5t-85.5 -2.5q-19 0 -46 -1.5t-35 -1.5q-98 0 -162.5 66.5t-64.5 166.5q0 114 54.5 216.5t146 163.5t193.5 61q36 0 98 -8q37 -5 54 -5h369zM458 199l73 268q21 77 21 88q0 34 -29.5 56.5t-74.5 22.5q-74 0 -136 -54q-68 -59 -111.5 -165.5 t-43.5 -212.5q0 -178 144 -178q68 0 99 39q31 37 58 136z" />
<glyph unicode="&#x153;" horiz-adv-x="667" d="M593 105l11 -11q-107 -106 -197 -106q-69 0 -104 68q-38 -38 -68.5 -52.5t-69.5 -14.5q-63 0 -104 41t-41 105q0 70 41 142t105.5 118t127.5 46q40 0 69.5 -21t42.5 -59q52 47 85 63.5t74 16.5q38 0 59.5 -18t21.5 -50q0 -61 -70 -109q-30 -21 -77.5 -39.5t-79.5 -21.5 q-31 -2 -36 -19q-10 -34 -10 -70q0 -37 21 -60.5t54 -23.5q28 0 57.5 15t87.5 60zM580 378q0 17 -9 27.5t-25 10.5q-34 0 -70 -39q-29 -32 -47 -65.5t-37 -96.5q65 20 88.5 31t46.5 31q53 48 53 101zM343 352q0 30 -16 48t-43 18q-40 0 -73 -35q-48 -52 -78 -130.5 t-30 -152.5q0 -43 18 -67t49 -24q49 0 89 60q29 43 56.5 135.5t27.5 147.5z" />
<glyph unicode="&#x154;" horiz-adv-x="611" d="M289 706l162 160q10 10 25 10t25.5 -10.5t10.5 -25.5q0 -18 -17 -28l-171 -106h-35zM132 653h252q97 0 150.5 -38t53.5 -103q0 -78 -66 -128q-39 -30 -131 -51l89 -235q17 -46 35.5 -64t51.5 -18v-16h-147l-123 324l-66 5l-55 -203q-13 -46 -13 -63q0 -23 13 -33t54 -14 v-16h-243v16q40 5 56.5 22t28.5 63l119 431q12 46 12 63q0 18 -14 28q-12 8 -57 14v16zM306 593l-63 -227q31 -5 51 -5q89 0 139 40t50 110q0 52 -31 82t-89 30q-49 0 -57 -30z" />
<glyph unicode="&#x155;" horiz-adv-x="389" d="M180 494l162 160q10 10 25 10t25.5 -10.5t10.5 -25.5q0 -18 -17 -28l-171 -106h-35zM176 223l16 35q34 75 94 138q43 45 79 45q21 0 34 -14t13 -37t-12.5 -38.5t-34.5 -15.5q-19 0 -35 26q-8 14 -16 14q-27 0 -82 -94q-34 -58 -54.5 -109.5t-56.5 -172.5h-76l81 292 q16 59 16 82q0 26 -38 26q-8 0 -31 -3v17l155 27l3 -2z" />
<glyph unicode="&#x156;" horiz-adv-x="611" d="M132 653h252q97 0 150.5 -38t53.5 -103q0 -78 -66 -128q-39 -30 -131 -51l89 -235q17 -46 35.5 -64t51.5 -18v-16h-147l-123 324l-66 5l-55 -203q-13 -46 -13 -63q0 -23 13 -33t54 -14v-16h-243v16q40 5 56.5 22t28.5 63l119 431q12 46 12 63q0 18 -14 28q-12 8 -57 14 v16zM306 593l-63 -227q31 -5 51 -5q89 0 139 40t50 110q0 52 -31 82t-89 30q-49 0 -57 -30zM177 -267l-9 18q75 50 75 88q0 11 -21 31q-24 21 -24 47q0 20 14.5 33t36.5 13q25 0 41.5 -20.5t16.5 -50.5q0 -87 -130 -159z" />
<glyph unicode="&#x157;" horiz-adv-x="389" d="M176 223l16 35q34 75 94 138q43 45 79 45q21 0 34 -14t13 -37t-12.5 -38.5t-34.5 -15.5q-19 0 -35 26q-8 14 -16 14q-27 0 -82 -94q-34 -58 -54.5 -109.5t-56.5 -172.5h-76l81 292q16 59 16 82q0 26 -38 26q-8 0 -31 -3v17l155 27l3 -2zM7 -267l-9 18q75 50 75 88 q0 11 -21 31q-24 21 -24 47q0 20 14.5 33t36.5 13q25 0 41.5 -20.5t16.5 -50.5q0 -87 -130 -159z" />
<glyph unicode="&#x158;" horiz-adv-x="611" d="M574 875l-162 -169h-48l-95 169h38l89 -105l141 105h37zM132 653h252q97 0 150.5 -38t53.5 -103q0 -78 -66 -128q-39 -30 -131 -51l89 -235q17 -46 35.5 -64t51.5 -18v-16h-147l-123 324l-66 5l-55 -203q-13 -46 -13 -63q0 -23 13 -33t54 -14v-16h-243v16q40 5 56.5 22 t28.5 63l119 431q12 46 12 63q0 18 -14 28q-12 8 -57 14v16zM306 593l-63 -227q31 -5 51 -5q89 0 139 40t50 110q0 52 -31 82t-89 30q-49 0 -57 -30z" />
<glyph unicode="&#x159;" horiz-adv-x="389" d="M426 663l-162 -169h-48l-95 169h38l89 -105l141 105h37zM176 223l16 35q34 75 94 138q43 45 79 45q21 0 34 -14t13 -37t-12.5 -38.5t-34.5 -15.5q-19 0 -35 26q-8 14 -16 14q-27 0 -82 -94q-34 -58 -54.5 -109.5t-56.5 -172.5h-76l81 292q16 59 16 82q0 26 -38 26 q-8 0 -31 -3v17l155 27l3 -2z" />
<glyph unicode="&#x15a;" d="M236 706l162 160q10 10 25 10t25.5 -10.5t10.5 -25.5q0 -18 -17 -28l-171 -106h-35zM508 667l-40 -200l-18 3q0 83 -25 123t-94 40q-52 0 -82 -26.5t-30 -73.5q0 -38 16 -63.5t83 -92.5q67 -68 90 -109t23 -91q0 -85 -57.5 -140t-144.5 -55q-38 0 -104 23q-32 12 -47 12 q-33 0 -43 -32h-18l34 224l20 -2q-2 -9 -2 -23q0 -73 40.5 -120t103.5 -47q58 0 94.5 35.5t36.5 92.5q0 33 -13 59.5t-47 63.5l-39 42q-3 3 -17 18.5t-22 23.5q-45 48 -60 78.5t-15 71.5q0 76 51.5 120t126.5 44q52 0 85 -14q29 -11 46 -11t26 5t19 21h23z" />
<glyph unicode="&#x15b;" horiz-adv-x="389" d="M180 494l162 160q10 10 25 10t25.5 -10.5t10.5 -25.5q0 -18 -17 -28l-171 -106h-35zM366 442l-20 -140h-16q-14 116 -89 116q-27 0 -43 -15t-16 -42q0 -38 54 -102q68 -79 68 -136q0 -61 -40.5 -97.5t-103.5 -36.5q-29 0 -55 10q-21 9 -44 9q-20 0 -29 -21h-16l20 159h16 q20 -136 100 -136q36 0 56 20t20 57q0 45 -56 115q-63 79 -63 131q0 50 33 79t88 29q20 0 56 -10q22 -7 36 -7q20 0 30 18h14z" />
<glyph unicode="&#x15c;" d="M484 708h-36l-82 104l-137 -104h-39l157 169h49zM508 667l-40 -200l-18 3q0 83 -25 123t-94 40q-52 0 -82 -26.5t-30 -73.5q0 -38 16 -63.5t83 -92.5q67 -68 90 -109t23 -91q0 -85 -57.5 -140t-144.5 -55q-38 0 -104 23q-32 12 -47 12q-33 0 -43 -32h-18l34 224l20 -2 q-2 -9 -2 -23q0 -73 40.5 -120t103.5 -47q58 0 94.5 35.5t36.5 92.5q0 33 -13 59.5t-47 63.5l-39 42q-3 3 -17 18.5t-22 23.5q-45 48 -60 78.5t-15 71.5q0 76 51.5 120t126.5 44q52 0 85 -14q29 -11 46 -11t26 5t19 21h23z" />
<glyph unicode="&#x15d;" horiz-adv-x="389" d="M385 492h-36l-82 104l-137 -104h-39l157 169h49zM366 442l-20 -140h-16q-14 116 -89 116q-27 0 -43 -15t-16 -42q0 -38 54 -102q68 -79 68 -136q0 -61 -40.5 -97.5t-103.5 -36.5q-29 0 -55 10q-21 9 -44 9q-20 0 -29 -21h-16l20 159h16q20 -136 100 -136q36 0 56 20 t20 57q0 45 -56 115q-63 79 -63 131q0 50 33 79t88 29q20 0 56 -10q22 -7 36 -7q20 0 30 18h14z" />
<glyph unicode="&#x15e;" d="M157 -96l50 79q-29 4 -82 22q-32 12 -47 12q-33 0 -43 -32h-18l34 224l20 -2q-2 -9 -2 -23q0 -73 40.5 -120t103.5 -47q58 0 94.5 35.5t36.5 92.5q0 33 -13 59.5t-47 63.5l-39 42q-3 3 -17 18.5t-22 23.5q-45 48 -60 78.5t-15 71.5q0 76 51.5 120t126.5 44q52 0 85 -14 q29 -11 46 -11t26 5t19 21h23l-40 -200l-18 3q0 83 -25 123t-94 40q-52 0 -82 -26.5t-30 -73.5q0 -38 16 -63.5t83 -92.5q67 -68 90 -109t23 -91q0 -81 -53 -135t-135 -59l-32 -49q15 3 25 3q38 0 60 -18.5t22 -49.5q0 -38 -33.5 -62t-85.5 -24q-38 0 -93 21l17 29 q41 -15 68 -15q53 0 53 41q0 19 -13 31.5t-33 12.5q-12 0 -32 -7z" />
<glyph unicode="&#x15f;" horiz-adv-x="389" d="M80 -96l54 87q-11 1 -29 8q-21 9 -44 9q-20 0 -29 -21h-16l20 159h16q20 -136 100 -136q36 0 56 20t20 57q0 45 -56 115q-63 79 -63 131q0 50 33 79t88 29q20 0 56 -10q22 -7 36 -7q20 0 30 18h14l-20 -140h-16q-14 116 -89 116q-27 0 -43 -15t-16 -42q0 -38 54 -102 q68 -79 68 -136q0 -58 -37 -94t-96 -40l-37 -55q15 3 25 3q38 0 60 -18.5t22 -49.5q0 -38 -33.5 -62t-85.5 -24q-38 0 -93 21l17 29q41 -15 68 -15q53 0 53 41q0 19 -13 31.5t-33 12.5q-12 0 -32 -7z" />
<glyph unicode="&#x160;" d="M532 875l-162 -169h-48l-95 169h38l89 -105l141 105h37zM508 667l-40 -200l-18 3q0 83 -25 123t-94 40q-52 0 -82 -26.5t-30 -73.5q0 -38 16 -63.5t83 -92.5q67 -68 90 -109t23 -91q0 -85 -57.5 -140t-144.5 -55q-38 0 -104 23q-32 12 -47 12q-33 0 -43 -32h-18l34 224 l20 -2q-2 -9 -2 -23q0 -73 40.5 -120t103.5 -47q58 0 94.5 35.5t36.5 92.5q0 33 -13 59.5t-47 63.5l-39 42q-3 3 -17 18.5t-22 23.5q-45 48 -60 78.5t-15 71.5q0 76 51.5 120t126.5 44q52 0 85 -14q29 -11 46 -11t26 5t19 21h23z" />
<glyph unicode="&#x161;" horiz-adv-x="389" d="M426 663l-162 -169h-48l-95 169h38l89 -105l141 105h37zM366 442l-20 -140h-16q-14 116 -89 116q-27 0 -43 -15t-16 -42q0 -38 54 -102q68 -79 68 -136q0 -61 -40.5 -97.5t-103.5 -36.5q-29 0 -55 10q-21 9 -44 9q-20 0 -29 -21h-16l20 159h16q20 -136 100 -136 q36 0 56 20t20 57q0 45 -56 115q-63 79 -63 131q0 50 33 79t88 29q20 0 56 -10q22 -7 36 -7q20 0 30 18h14z" />
<glyph unicode="&#x162;" horiz-adv-x="556" d="M179 0h-114v16q52 5 74 20t33 55l143 527q-119 0 -160.5 -21.5t-77.5 -102.5l-18 4l42 155h532l-44 -164l-17 2q3 25 3 46q0 81 -101 81h-58l-137 -490q-14 -49 -14 -66q0 -23 11 -31.5t42 -11.5l35 -3v-16h-136l-44 -66q15 3 25 3q38 0 60 -18.5t22 -49.5 q0 -38 -33.5 -62t-85.5 -24q-38 0 -93 21l17 29q41 -15 68 -15q53 0 53 41q0 19 -13 31.5t-33 12.5q-12 0 -32 -7l-9 8z" />
<glyph unicode="&#x163;" horiz-adv-x="278" d="M296 428l-5 -32h-84l-87 -328q-2 -8 -2 -14q0 -16 15 -16q12 0 28 15.5t53 63.5l13 -7q-46 -70 -75.5 -95.5t-67.5 -25.5q-46 0 -46 37q0 10 16 74l78 296h-75l-1 6q0 18 33 25q25 6 66 38.5t67 71.5q6 9 14 9q9 0 9 -8q0 -5 -1 -7l-28 -103h80zM111 0l-44 -66q15 3 25 3 q38 0 60 -18.5t22 -49.5q0 -38 -33.5 -62t-85.5 -24q-38 0 -93 21l17 29q41 -15 68 -15q53 0 53 41q0 19 -13 31.5t-33 12.5q-12 0 -32 -7l-9 8l60 96h38z" />
<glyph unicode="&#x164;" horiz-adv-x="556" d="M565 875l-162 -169h-48l-95 169h38l89 -105l141 105h37zM633 653l-44 -164l-17 2q3 25 3 46q0 81 -101 81h-58l-137 -490q-14 -49 -14 -66q0 -23 11 -31.5t42 -11.5l35 -3v-16h-288v16q52 5 74 20t33 55l143 527q-119 0 -160.5 -21.5t-77.5 -102.5l-18 4l42 155h532z" />
<glyph unicode="&#x165;" horiz-adv-x="278" d="M323 463l-9 17q75 50 75 88q0 14 -20 33q-25 22 -25 46q0 20 14.5 33t36.5 13q25 0 41.5 -20.5t16.5 -50.5q0 -86 -130 -159zM296 428l-5 -32h-84l-87 -328q-2 -8 -2 -14q0 -16 15 -16q12 0 28 15.5t53 63.5l13 -7q-46 -70 -75.5 -95.5t-67.5 -25.5q-46 0 -46 37 q0 10 16 74l78 296h-75l-1 6q0 18 33 25q25 6 66 38.5t67 71.5q6 9 14 9q9 0 9 -8q0 -5 -1 -7l-28 -103h80z" />
<glyph unicode="&#x166;" horiz-adv-x="556" d="M633 653l-44 -164l-17 2q3 25 3 46q0 81 -101 81h-58l-76 -271h130l-12 -44h-130l-49 -175q-14 -49 -14 -66q0 -23 11 -31.5t42 -11.5l35 -3v-16h-288v16q52 5 74 20t33 55l57 212h-115l12 44h115l74 271q-119 0 -160.5 -21.5t-77.5 -102.5l-18 4l42 155h532z" />
<glyph unicode="&#x167;" horiz-adv-x="278" d="M296 428l-5 -32h-84l-36 -134h98l-12 -44h-97l-40 -150q-2 -8 -2 -14q0 -16 15 -16q12 0 28 15.5t53 63.5l13 -7q-46 -70 -75.5 -95.5t-67.5 -25.5q-46 0 -46 37q0 10 16 74l31 118h-57l12 44h56l36 134h-75l-1 6q0 18 33 25q25 6 66 38.5t67 71.5q6 9 14 9q9 0 9 -8 q0 -5 -1 -7l-28 -103h80z" />
<glyph unicode="&#x168;" horiz-adv-x="722" d="M625 836h28q-22 -104 -95 -104q-18 0 -57 15q-71 29 -95 29q-36 0 -51 -47h-29q15 58 38 82t62 24q32 0 86 -24q41 -19 62 -19q20 0 31.5 9.5t19.5 34.5zM765 653v-16q-21 -5 -31.5 -9.5t-20.5 -11t-17.5 -24.5t-14.5 -39t-20 -65l-83 -285q-34 -116 -97 -169 q-60 -52 -158 -52t-159.5 46t-61.5 118q0 55 44 216l52 189q9 32 9 45q0 20 -17.5 30t-62.5 11v16h272v-16q-51 -5 -70.5 -22t-33.5 -69l-63 -226q-40 -141 -40 -179q0 -53 39.5 -85.5t98.5 -32.5q84 0 135 54t85 178l64 233q23 85 23 103q0 22 -15 32t-55 14v16h198z" />
<glyph unicode="&#x169;" d="M444 624h28q-22 -104 -95 -104q-18 0 -57 15q-71 29 -95 29q-36 0 -51 -47h-29q15 58 38 82t62 24q32 0 86 -24q41 -19 62 -19q20 0 31.5 9.5t19.5 34.5zM461 119l14 -9q-48 -73 -75 -96t-63 -23q-48 0 -48 48q0 45 45 197q-89 -146 -137.5 -196.5t-101.5 -50.5t-53 53 q0 18 27 128l35 139q14 58 14 67q0 12 -11 18t-50 6v14q69 8 150 27l4 -3l-89 -355q-3 -9 -3 -16q0 -25 20 -25q45 0 142 147q33 50 51.5 91.5t58.5 151.5h74l-79 -299q-19 -72 -19 -78q0 -17 11 -17q12 0 29 16t54 65z" />
<glyph unicode="&#x16a;" horiz-adv-x="722" d="M651 757l-11 -51h-301l11 51h301zM765 653v-16q-21 -5 -31.5 -9.5t-20.5 -11t-17.5 -24.5t-14.5 -39t-20 -65l-83 -285q-34 -116 -97 -169q-60 -52 -158 -52t-159.5 46t-61.5 118q0 55 44 216l52 189q9 32 9 45q0 20 -17.5 30t-62.5 11v16h272v-16q-51 -5 -70.5 -22 t-33.5 -69l-63 -226q-40 -141 -40 -179q0 -53 39.5 -85.5t98.5 -32.5q84 0 135 54t85 178l64 233q23 85 23 103q0 22 -15 32t-55 14v16h198z" />
<glyph unicode="&#x16b;" d="M456 543l-11 -51h-301l11 51h301zM461 119l14 -9q-48 -73 -75 -96t-63 -23q-48 0 -48 48q0 45 45 197q-89 -146 -137.5 -196.5t-101.5 -50.5t-53 53q0 18 27 128l35 139q14 58 14 67q0 12 -11 18t-50 6v14q69 8 150 27l4 -3l-89 -355q-3 -9 -3 -16q0 -25 20 -25 q45 0 142 147q33 50 51.5 91.5t58.5 151.5h74l-79 -299q-19 -72 -19 -78q0 -17 11 -17q12 0 29 16t54 65z" />
<glyph unicode="&#x16c;" horiz-adv-x="722" d="M641 866h29q-11 -67 -60 -112.5t-113 -45.5q-67 0 -97.5 39.5t-30.5 118.5h29q8 -99 107 -99q46 0 83 26.5t53 72.5zM765 653v-16q-21 -5 -31.5 -9.5t-20.5 -11t-17.5 -24.5t-14.5 -39t-20 -65l-83 -285q-34 -116 -97 -169q-60 -52 -158 -52t-159.5 46t-61.5 118 q0 55 44 216l52 189q9 32 9 45q0 20 -17.5 30t-62.5 11v16h272v-16q-51 -5 -70.5 -22t-33.5 -69l-63 -226q-40 -141 -40 -179q0 -53 39.5 -85.5t98.5 -32.5q84 0 135 54t85 178l64 233q23 85 23 103q0 22 -15 32t-55 14v16h198z" />
<glyph unicode="&#x16d;" d="M451 650h29q-11 -67 -60 -112.5t-113 -45.5q-67 0 -97.5 39.5t-30.5 118.5h29q8 -99 107 -99q46 0 83 26.5t53 72.5zM461 119l14 -9q-48 -73 -75 -96t-63 -23q-48 0 -48 48q0 45 45 197q-89 -146 -137.5 -196.5t-101.5 -50.5t-53 53q0 18 27 128l35 139q14 58 14 67 q0 12 -11 18t-50 6v14q69 8 150 27l4 -3l-89 -355q-3 -9 -3 -16q0 -25 20 -25q45 0 142 147q33 50 51.5 91.5t58.5 151.5h74l-79 -299q-19 -72 -19 -78q0 -17 11 -17q12 0 29 16t54 65z" />
<glyph unicode="&#x16e;" horiz-adv-x="722" d="M590 807q0 -41 -29.5 -70t-70.5 -29q-43 0 -71.5 29t-28.5 71q0 40 29 69.5t70 29.5q42 0 71.5 -29.5t29.5 -70.5zM556 807q0 28 -19.5 47t-47.5 19q-26 0 -45.5 -19.5t-19.5 -45.5q0 -28 18.5 -47t46.5 -19q29 0 48 18.5t19 46.5zM765 653v-16q-21 -5 -31.5 -9.5 t-20.5 -11t-17.5 -24.5t-14.5 -39t-20 -65l-83 -285q-34 -116 -97 -169q-60 -52 -158 -52t-159.5 46t-61.5 118q0 55 44 216l52 189q9 32 9 45q0 20 -17.5 30t-62.5 11v16h272v-16q-51 -5 -70.5 -22t-33.5 -69l-63 -226q-40 -141 -40 -179q0 -53 39.5 -85.5t98.5 -32.5 q84 0 135 54t85 178l64 233q23 85 23 103q0 22 -15 32t-55 14v16h198z" />
<glyph unicode="&#x16f;" d="M410 591q0 -41 -29.5 -70t-70.5 -29q-43 0 -71.5 29t-28.5 71q0 40 29 69.5t70 29.5q42 0 71.5 -29.5t29.5 -70.5zM376 591q0 28 -19.5 47t-47.5 19q-26 0 -45.5 -19.5t-19.5 -45.5q0 -28 18.5 -47t46.5 -19q29 0 48 18.5t19 46.5zM461 119l14 -9q-48 -73 -75 -96 t-63 -23q-48 0 -48 48q0 45 45 197q-89 -146 -137.5 -196.5t-101.5 -50.5t-53 53q0 18 27 128l35 139q14 58 14 67q0 12 -11 18t-50 6v14q69 8 150 27l4 -3l-89 -355q-3 -9 -3 -16q0 -25 20 -25q45 0 142 147q33 50 51.5 91.5t58.5 151.5h74l-79 -299q-19 -72 -19 -78 q0 -17 11 -17q12 0 29 16t54 65z" />
<glyph unicode="&#x170;" horiz-adv-x="722" d="M461 706l160 160q10 10 27 10q15 0 25.5 -10.5t10.5 -25.5q0 -20 -17 -30l-171 -104h-35zM291 706l160 160q10 10 27 10q15 0 25.5 -10.5t10.5 -25.5q0 -20 -17 -30l-169 -104h-37zM765 653v-16q-21 -5 -31.5 -9.5t-20.5 -11t-17.5 -24.5t-14.5 -39t-20 -65l-83 -285 q-34 -116 -97 -169q-60 -52 -158 -52t-159.5 46t-61.5 118q0 55 44 216l52 189q9 32 9 45q0 20 -17.5 30t-62.5 11v16h272v-16q-51 -5 -70.5 -22t-33.5 -69l-63 -226q-40 -141 -40 -179q0 -53 39.5 -85.5t98.5 -32.5q84 0 135 54t85 178l64 233q23 85 23 103q0 22 -15 32 t-55 14v16h198z" />
<glyph unicode="&#x171;" d="M288 494l160 160q10 10 27 10q15 0 25.5 -10.5t10.5 -25.5q0 -20 -17 -30l-171 -104h-35zM118 494l160 160q10 10 27 10q15 0 25.5 -10.5t10.5 -25.5q0 -20 -17 -30l-169 -104h-37zM461 119l14 -9q-48 -73 -75 -96t-63 -23q-48 0 -48 48q0 45 45 197 q-89 -146 -137.5 -196.5t-101.5 -50.5t-53 53q0 18 27 128l35 139q14 58 14 67q0 12 -11 18t-50 6v14q69 8 150 27l4 -3l-89 -355q-3 -9 -3 -16q0 -25 20 -25q45 0 142 147q33 50 51.5 91.5t58.5 151.5h74l-79 -299q-19 -72 -19 -78q0 -17 11 -17q12 0 29 16t54 65z" />
<glyph unicode="&#x172;" horiz-adv-x="722" d="M548 -74l17 -18q-52 -77 -125 -77q-40 0 -67.5 26.5t-27.5 68.5q0 31 15 58q-24 -2 -37 -2q-98 0 -159.5 46t-61.5 118q0 55 44 216l52 189q9 32 9 45q0 20 -17.5 30t-62.5 11v16h272v-16q-51 -5 -70.5 -22t-33.5 -69l-63 -226q-40 -141 -40 -179q0 -53 39.5 -85.5 t98.5 -32.5q84 0 135 54t85 178l64 233q23 85 23 103q0 22 -15 32t-55 14v16h198v-16q-21 -5 -31.5 -9.5t-20.5 -11t-17.5 -24.5t-14.5 -39t-20 -65l-83 -285q-34 -116 -97 -169q-31 -26 -66 -38q-9 -26 -9 -49t16.5 -38t42.5 -15q47 0 83 32z" />
<glyph unicode="&#x173;" d="M338 -9h-1q-48 0 -48 48q0 45 45 197q-89 -146 -137.5 -196.5t-101.5 -50.5t-53 53q0 18 27 128l35 139q14 58 14 67q0 12 -11 18t-50 6v14q69 8 150 27l4 -3l-89 -355q-3 -9 -3 -16q0 -25 20 -25q45 0 142 147q33 50 51.5 91.5t58.5 151.5h74l-79 -299q-19 -72 -19 -78 q0 -17 11 -17q12 0 29 16t54 65l14 -9q-51 -78 -82 -102q-14 -29 -14 -61q0 -23 16.5 -38t42.5 -15q47 0 83 32l17 -18q-52 -77 -125 -77q-40 0 -67.5 26.5t-27.5 68.5q0 36 20 65z" />
<glyph unicode="&#x174;" horiz-adv-x="833" d="M643 708h-36l-82 104l-137 -104h-39l157 169h49zM906 653v-16q-29 -9 -42.5 -22t-34.5 -53l-301 -580h-20l-50 453h-5l-222 -453h-19l-61 514q-8 70 -13 92.5t-16 33.5q-10 10 -51 15v16h235v-16q-41 -4 -56.5 -14t-15.5 -37q0 -13 1 -20l44 -404l172 348l-8 65 q-4 38 -17.5 49t-57.5 13v16h236v-16q-39 -4 -53.5 -14t-14.5 -34q0 -3 1 -8.5t1 -6.5l40 -412l188 365q23 44 23 68q0 41 -67 42v16h184z" />
<glyph unicode="&#x175;" horiz-adv-x="667" d="M537 492h-36l-82 104l-137 -104h-39l157 169h49zM403 426l32 -352q99 123 132 175.5t33 84.5q0 14 -22 35q-21 20 -21 41q0 12 11.5 21.5t27.5 9.5q22 0 37 -16t15 -40q0 -91 -212 -349l-9 -11q-35 -43 -45 -43q-8 0 -11 35l-29 310l-89 -152q-23 -38 -55 -99 q-49 -94 -64 -94q-7 0 -9 9t-4 38l-4 91q-8 164 -27 242q-7 27 -15.5 34.5t-31.5 7.5h-28v13q79 13 95 17q5 1 11.5 3t10.5 3t7 1q8 0 11 -5t8 -29q25 -120 32 -281l192 304q6 10 13 10q8 0 8 -14z" />
<glyph unicode="&#x176;" horiz-adv-x="556" d="M537 708h-36l-82 104l-137 -104h-39l157 169h49zM633 653v-16q-21 -7 -32 -17.5t-38 -43.5l-219 -270l-36 -123q-30 -103 -30 -127q0 -19 11.5 -27t41.5 -10l36 -3v-16h-289v16q51 3 72.5 18.5t34.5 62.5l59 205l-76 267q-11 40 -23.5 51t-53.5 17v16h239v-16 q-44 -4 -58 -11.5t-14 -24.5t36 -144l31 -110l39 46q149 176 149 213q0 24 -40 28l-29 3v16h189z" />
<glyph unicode="&#x177;" horiz-adv-x="444" d="M398 492h-36l-82 104l-137 -104h-39l157 169h49zM243 186l21 -110q67 110 94.5 167.5t27.5 89.5q0 16 -26 32q-26 17 -26 39q0 16 11.5 26.5t28.5 10.5q22 0 37 -16t15 -39q0 -87 -131 -305q-78 -129 -151.5 -208t-116.5 -79q-23 0 -37 12t-14 31q0 17 11.5 28.5 t27.5 11.5q19 0 34 -14t27 -14q18 0 48 33q13 13 38.5 46.5t32.5 44.5q10 20 10 35q0 30 -31 155.5t-51 176.5q-14 37 -30.5 50.5t-46.5 13.5q-16 0 -31 -4v17q22 4 32 6q41 8 107 18h4q11 0 41.5 -93t43.5 -162z" />
<glyph unicode="&#x178;" horiz-adv-x="556" d="M539 769q0 -20 -14.5 -34.5t-34.5 -14.5q-21 0 -35 14.5t-14 35.5q0 20 14.5 34t35.5 14q19 0 33.5 -15t14.5 -34zM339 769q0 -20 -14.5 -34.5t-34.5 -14.5q-21 0 -35 14.5t-14 35.5q0 20 14.5 34t35.5 14q19 0 33.5 -15t14.5 -34zM633 653v-16q-21 -7 -32 -17.5 t-38 -43.5l-219 -270l-36 -123q-30 -103 -30 -127q0 -19 11.5 -27t41.5 -10l36 -3v-16h-289v16q51 3 72.5 18.5t34.5 62.5l59 205l-76 267q-11 40 -23.5 51t-53.5 17v16h239v-16q-44 -4 -58 -11.5t-14 -24.5t36 -144l31 -110l39 46q149 176 149 213q0 24 -40 28l-29 3v16 h189z" />
<glyph unicode="&#x179;" horiz-adv-x="556" d="M297 706l162 160q10 10 25 10t25.5 -10.5t10.5 -25.5q0 -18 -17 -28l-171 -106h-35zM606 639l-483 -603h161q71 0 108.5 6t64.5 26q41 30 77 104l19 -3l-54 -169h-505v14l479 603h-171q-102 0 -142 -27q-22 -15 -32.5 -30.5t-33.5 -58.5l-19 5l45 147h486v-14z" />
<glyph unicode="&#x17a;" horiz-adv-x="389" d="M167 494l162 160q10 10 25 10t25.5 -10.5t10.5 -25.5q0 -18 -17 -28l-171 -106h-35zM380 417l-289 -344q46 -10 68.5 -25t51.5 -58q34 -50 70 -50q27 0 27 15q0 5 -5 15q-8 16 -8 28q1 13 11 23.5t22 10.5q16 0 25.5 -10t9.5 -27q0 -31 -26 -53.5t-67 -22.5 q-42 0 -113 44q-68 42 -105 42q-23 0 -45 -18l-9 9l310 372h-136q-40 0 -58 -11.5t-33 -48.5l-16 4l32 116h283v-11z" />
<glyph unicode="&#x17b;" horiz-adv-x="556" d="M399 769q0 -20 -14.5 -34.5t-34.5 -14.5q-21 0 -35 14.5t-14 35.5q0 20 14.5 34t35.5 14q19 0 33.5 -15t14.5 -34zM606 639l-483 -603h161q71 0 108.5 6t64.5 26q41 30 77 104l19 -3l-54 -169h-505v14l479 603h-171q-102 0 -142 -27q-22 -15 -32.5 -30.5t-33.5 -58.5 l-19 5l45 147h486v-14z" />
<glyph unicode="&#x17c;" horiz-adv-x="389" d="M289 557q0 -20 -14.5 -34.5t-34.5 -14.5q-21 0 -35 14.5t-14 35.5q0 20 14.5 34t35.5 14q19 0 33.5 -15t14.5 -34zM380 417l-289 -344q46 -10 68.5 -25t51.5 -58q34 -50 70 -50q27 0 27 15q0 5 -5 15q-8 16 -8 28q1 13 11 23.5t22 10.5q16 0 25.5 -10t9.5 -27 q0 -31 -26 -53.5t-67 -22.5q-42 0 -113 44q-68 42 -105 42q-23 0 -45 -18l-9 9l310 372h-136q-40 0 -58 -11.5t-33 -48.5l-16 4l32 116h283v-11z" />
<glyph unicode="&#x17d;" horiz-adv-x="556" d="M513 875l-162 -169h-48l-95 169h38l89 -105l141 105h37zM606 639l-483 -603h161q71 0 108.5 6t64.5 26q41 30 77 104l19 -3l-54 -169h-505v14l479 603h-171q-102 0 -142 -27q-22 -15 -32.5 -30.5t-33.5 -58.5l-19 5l45 147h486v-14z" />
<glyph unicode="&#x17e;" horiz-adv-x="389" d="M426 663l-162 -169h-48l-95 169h38l89 -105l141 105h37zM380 417l-289 -344q46 -10 68.5 -25t51.5 -58q34 -50 70 -50q27 0 27 15q0 5 -5 15q-8 16 -8 28q1 13 11 23.5t22 10.5q16 0 25.5 -10t9.5 -27q0 -31 -26 -53.5t-67 -22.5q-42 0 -113 44q-68 42 -105 42 q-23 0 -45 -18l-9 9l310 372h-136q-40 0 -58 -11.5t-33 -48.5l-16 4l32 116h283v-11z" />
<glyph unicode="&#x17f;" horiz-adv-x="383" d="M164 450h27q12 57 28 94q63 139 190 139q40 0 72 -15.5t32 -47.5q0 -15 -12 -27.5t-28 -12.5q-28 0 -45 33q-24 42 -53 42q-57 0 -76 -91l-100 -476q-3 -16 -3 -29q0 -20 9 -29q13 -13 71 -15l-3 -15h-260l3 15q50 3 69 16q21 15 30 59l69 328h-27z" />
<glyph unicode="&#x180;" d="M223 509l-60 -219q51 83 95.5 117t98.5 34q52 0 84 -32t32 -88q0 -77 -47 -155t-122.5 -127.5t-150.5 -49.5q-46 0 -88 16t-42 37v6l125 461h-123l13 31h118l9 31q9 31 9 47t-9.5 19.5t-54.5 5.5v17q75 9 153 23l5 -5q-3 -11 -10 -40t-11 -42l-16 -56h162l-8 -31h-162z M388 306q0 86 -70 86q-69 0 -137 -115q-32 -54 -52 -119.5t-20 -111.5q0 -34 46 -34q66 0 123 59q46 48 78 114.5t32 120.5z" />
<glyph unicode="&#x188;" d="M350 107l16 -10q-46 -58 -89.5 -83t-99.5 -25q-71 0 -109 39t-38 115q0 67 34 129.5t89 107.5q77 61 167 61q28 0 49 -9q15 53 51.5 84.5t86.5 31.5q27 0 48.5 -16t21.5 -42q0 -28 -25 -28q-14 0 -22 9.5t-11 21t-11.5 21t-22.5 9.5q-41 0 -61 -83l-10 -43q11 -16 11 -37 q0 -20 -14 -34t-34 -14t-29.5 11.5t-9.5 28.5q0 9 7.5 23.5t7.5 24.5q0 20 -37 20q-63 0 -109 -48q-91 -96 -91 -233q0 -54 23 -84t66 -30q39 0 71 19t74 63z" />
<glyph unicode="&#x190;" horiz-adv-x="667" d="M563 168l34 -9q-15 -54 -65.5 -93t-110.5 -55.5t-122 -16.5q-59 0 -108.5 12t-87 44.5t-37.5 82.5q0 74 56.5 140t130.5 79q-49 26 -72 48.5t-23 60.5q0 55 30 99t77.5 70t100 40t102.5 14q54 0 106 -16q37 -11 67 -41.5t30 -63.5q0 -23 -13 -41.5t-34 -18.5 q-45 0 -64 81q-7 26 -38 41t-54 15q-84 0 -145 -52.5t-61 -140.5q0 -37 20 -53.5t75 -16.5q9 0 50.5 5.5t52.5 5.5q16 0 31.5 -7.5t15.5 -21.5q0 -18 -26.5 -30t-47.5 -12q-8 0 -41 2.5t-39 2.5q-74 0 -128.5 -49.5t-54.5 -125.5q0 -93 165 -93q89 0 136 21.5t92 92.5z" />
<glyph unicode="&#x192;" horiz-adv-x="472" d="M100 437h107q69 269 210 269q32 0 54.5 -17t22.5 -42q0 -21 -15 -37.5t-35 -16.5q-14 0 -24.5 9t-10.5 21t8.5 24.5t8.5 17.5q0 12 -19 12q-27 0 -44 -18q-35 -39 -58 -146q-2 -9 -7 -35t-8 -41h126l-6 -31h-128q-21 -118 -66.5 -271t-71.5 -197q-55 -97 -132 -97 q-32 0 -53 16.5t-21 42.5q0 24 15 39.5t38 15.5q14 0 23 -11t9 -25q0 -19 -9.5 -30t-9.5 -12q0 -12 18 -12q68 0 101 174l27 158q19 99 47 209h-103z" />
<glyph unicode="&#x195;" horiz-adv-x="672" d="M444 343l-69 -247q-9 -31 -9 -38q0 -20 17 -20q62 0 116.5 43t84 105t29.5 122q0 16 -5 29q-2 5 -25.5 26.5t-23.5 43.5q0 16 11 25t25 9q22 0 37 -13.5t20 -36.5q2 -9 2 -30q0 -63 -21 -128.5t-58 -119.5t-94 -88.5t-122 -34.5q-16 0 -25 1t-21.5 4.5t-18.5 13t-6 24.5 q0 17 20 92l55 207q7 28 7 33q0 25 -28 25q-27 0 -69.5 -40t-82.5 -100q-31 -48 -49 -93.5t-47 -156.5h-75l146 554q13 50 13 62t-13 18.5t-28 6.5h-27v15q76 9 157 27l7 -6l-121 -447q130 211 230 211q33 0 49 -18.5t16 -48.5q0 -15 -4 -31z" />
<glyph unicode="&#x199;" d="M14 0l124 465q24 91 95 154.5t164 63.5q38 0 65.5 -15t27.5 -41q0 -16 -12.5 -27t-27.5 -11q-22 0 -47 30t-42 30q-38 0 -79.5 -37t-55.5 -91l-79 -300l43 33q143 110 143 140q0 18 -37 18h-14v16h179v-16q-36 -2 -76 -29.5t-149 -124.5l37 -88q55 -129 81 -129 q21 0 45 42q5 8 15 26l15 -11q-35 -63 -58 -86t-53 -23q-22 0 -39.5 17.5t-41.5 64.5q-30 58 -60 141l-40 -32l-48 -180h-75z" />
<glyph unicode="&#x19a;" horiz-adv-x="278" d="M279 678l-79 -300h78l-8 -31h-78l-66 -254q-8 -29 -8 -43q0 -18 17 -18q27 0 67 57l25 35l14 -10q-45 -71 -77.5 -98t-73.5 -27q-49 0 -49 56q0 17 4 30l71 272h-74l8 31h74l58 221q3 10 3 19q0 22 -49 22h-18v16q70 8 155 27z" />
<glyph unicode="&#x19b;" horiz-adv-x="490" d="M478 575l-102 -75l58 -500h-44l-34 333l-232 -333h-94l245 341q49 67 61 91q0 28 -1 39l-172 -127v54l165 119q-17 67 -45 67q-10 0 -32.5 -10t-40.5 -10q-20 0 -34 12t-14 34q0 25 19 41.5t51 16.5q105 0 136 -124l110 85v-54z" />
<glyph unicode="&#x19e;" d="M213 439l-67 -218q74 118 128 169t103 51q31 0 48 -16.5t17 -44.5q0 -25 -10 -60l-153 -553h-81l149 515q17 60 17 79q0 13 -7.5 20.5t-19.5 7.5q-29 0 -64 -34t-84 -107q-33 -49 -48.5 -88t-51.5 -160h-75l96 350q2 10 2 17q0 15 -13.5 20.5t-51.5 6.5v16q39 8 87 16.5 t75 14.5z" />
<glyph unicode="&#x1a0;" horiz-adv-x="722" d="M783 635q0 -55 -66 -68q-24 -3 -33 -3q-11 0 -20 2q35 -61 35 -148q0 -107 -57.5 -205t-149.5 -160q-105 -71 -214 -71q-99 0 -158.5 62t-59.5 172q0 91 49 187.5t128 165.5q112 97 239 97q105 0 164 -67q21 -18 47 -18q17 0 26.5 6t9.5 15q0 1 -8.5 6.5t-17.5 16.5 t-9 26t13.5 27.5t32.5 12.5q21 0 35 -15t14 -41zM594 481q0 71 -34.5 111.5t-94.5 40.5q-99 0 -186 -117q-53 -72 -83.5 -163t-30.5 -169q0 -82 33.5 -125.5t96.5 -43.5q92 0 170 95q59 74 94 181t35 190z" />
<glyph unicode="&#x1a1;" horiz-adv-x="534" d="M583 411q0 -55 -66 -68q-24 -3 -34 -3t-20 2q5 -22 5 -41q0 -57 -28.5 -118.5t-77.5 -110.5q-83 -83 -188 -83q-70 0 -108.5 36.5t-38.5 102.5q0 83 50.5 162t129.5 121q56 30 120 30q45 0 78.5 -20t49.5 -57q15 -7 32 -7q36 0 36 22l-9 6q-8 6 -17 17t-9 25 q0 15 13.5 27.5t32.5 12.5q21 0 35 -15t14 -41zM384 326q0 45 -19 69.5t-52 24.5q-67 0 -128 -91q-74 -113 -74 -228q0 -44 21 -67.5t57 -23.5q61 0 121 83q34 46 54 110.5t20 122.5z" />
<glyph unicode="&#x1a5;" horiz-adv-x="504" d="M237 535l-51 -207q75 113 171 113q55 0 85 -33t30 -92q0 -123 -93.5 -225t-203.5 -102q-36 0 -69 17l-36 -135q-4 -16 -4 -31q0 -16 13.5 -22.5t48.5 -6.5v-16h-203v16q32 1 45.5 14t22.5 49l148 558q11 40 21 70.5t27.5 63.5t38 54t51.5 35t68 14q38 0 65.5 -15 t27.5 -41q0 -16 -12.5 -27t-27.5 -11q-22 0 -47 30t-41 30q-50 0 -75 -100zM382 313q0 44 -14.5 64.5t-47.5 20.5q-39 0 -78 -34t-57 -80q-22 -57 -43.5 -135t-21.5 -103q0 -17 13.5 -27.5t34.5 -10.5q78 0 145 95q69 96 69 210z" />
<glyph unicode="&#x1aa;" horiz-adv-x="340" d="M65 45l158 442q-35 -24 -75 -24q-38 0 -61.5 24t-23.5 60q0 52 44.5 94.5t96.5 42.5q57 1 86 -36.5t29 -94.5q0 -37 -8 -59l-184 -531q-28 -82 -28 -121q0 -41 36 -41q19 0 44 30t47 30q16 0 28 -11t12 -27q0 -29 -29.5 -42.5t-62.5 -13.5q-67 0 -105 34.5t-38 91.5 q0 58 34 152zM247 597q0 53 -46 53q-40 0 -72 -27t-32 -69q0 -25 17 -41t43 -16q23 0 46 13.5t37 34.5q7 40 7 52z" />
<glyph unicode="&#x1ab;" horiz-adv-x="278" d="M296 428l-5 -32h-84l-87 -328q-2 -8 -2 -14q0 -16 15 -16q12 0 28 15.5t53 63.5l13 -7q-35 -87 -47 -133l-29 -102q-27 -93 -112 -93q-38 0 -65.5 15t-27.5 41q0 16 12.5 27t27.5 11q22 0 47 -30t42 -30q12 0 25.5 16.5t20.5 39.5l30 99q3 11 10 52q-34 -34 -77 -34 q-46 0 -46 37q0 10 16 74l78 296h-75l-1 6q0 18 33 25q25 6 66 38.5t67 71.5q6 9 14 9q9 0 9 -8q0 -5 -1 -7l-28 -103h80z" />
<glyph unicode="&#x1ad;" horiz-adv-x="310" d="M132 396h-75l-1 6q0 18 33 25q22 5 58 32q27 108 76 166t136 58q34 0 63.5 -13.5t29.5 -42.5q0 -15 -12 -26.5t-27 -11.5q-22 0 -47 30t-42 30q-21 0 -37.5 -18t-23 -35.5t-14.5 -46.5l-33 -121h80l-5 -32h-84l-87 -328q-2 -8 -2 -14q0 -16 15 -16q12 0 28 15.5t53 63.5 l13 -7q-46 -70 -75.5 -95.5t-67.5 -25.5q-46 0 -46 37q0 10 16 74z" />
<glyph unicode="&#x1af;" horiz-adv-x="754" d="M567 653h199q21 0 34 4.5t16.5 9t3.5 9.5q0 2 -8.5 7t-17 16t-8.5 26t13 27.5t32 12.5q21 0 35.5 -15t14.5 -40q0 -27 -18 -45.5t-49 -24.5q-7 -1 -27.5 -3t-32.5 -3q-35 -4 -51 -29t-42 -117l-83 -285q-34 -116 -97 -169q-60 -52 -158 -52t-159.5 46t-61.5 118 q0 55 44 216l52 189q9 32 9 45q0 20 -17.5 30t-62.5 11v16h272v-16q-51 -5 -70.5 -22t-33.5 -69l-63 -226q-40 -141 -40 -179q0 -53 39.5 -85.5t98.5 -32.5q84 0 135 54t85 178l64 233q23 85 23 103q0 22 -15 32t-55 14v16z" />
<glyph unicode="&#x1b0;" horiz-adv-x="573" d="M391 432h74q82 0 82 21q0 2 -8.5 7.5t-17.5 16.5t-9 26t13 27.5t32 12.5q20 0 35 -16t15 -41q0 -27 -18 -45t-48 -23q-33 -6 -74 -6h-7l-74 -279q-19 -72 -19 -78q0 -17 11 -17q12 0 29 16t54 65l14 -9q-48 -73 -75 -96t-63 -23q-48 0 -48 48q0 45 45 197 q-89 -146 -137.5 -196.5t-101.5 -50.5t-53 53q0 18 27 128l35 139q14 58 14 67q0 12 -11 18t-50 6v14q69 8 150 27l4 -3l-89 -355q-3 -9 -3 -16q0 -25 20 -25q45 0 142 147q33 50 51.5 91.5t58.5 151.5z" />
<glyph unicode="&#x1ba;" d="M462 429l-237 -186q41 17 70 17q46 0 72 -24t26 -64q0 -93 -92 -141l-197 -101q-54 -28 -54 -83q0 -54 65 -54q28 0 49.5 15t26.5 40q13 64 52 64q22 0 35 -13t13 -31t-13.5 -41t-41.5 -36q-54 -25 -113 -25q-48 0 -81.5 26.5t-33.5 70.5q0 46 28.5 83t70.5 59l150 76 q56 29 56 73q0 50 -75 50q-38 0 -63 -10t-61 -38q-11 11 -16 18l264 212h-162q-46 0 -64 -19t-37 -67h-18l61 150h320v-21z" />
<glyph unicode="&#x1bb;" d="M500 360l-9 -46h-148q-29 -32 -228 -233v-5h181q43 0 64 13.5t39 51.5l17 -7l-50 -134h-354v17l210 224q56 61 66 73h-248l9 46h274q43 64 43 122q0 56 -31.5 88.5t-87.5 32.5q-96 0 -146 -96l-21 7q27 75 80 118.5t130 43.5q72 0 117 -48.5t45 -120.5q0 -41 -17.5 -74 t-51.5 -73h117z" />
<glyph unicode="&#x1be;" d="M297 447l-12 -62q7 1 23 1q68 0 106.5 -43.5t38.5 -109.5q0 -111 -72.5 -178t-180.5 -67q-50 0 -101.5 28.5t-51.5 74.5q0 19 13.5 31.5t32.5 12.5q23 0 36 -20t18 -44t22 -44t46 -20q51 0 93 69t42 121q0 47 -34.5 74t-86.5 27h-20l37 149h-77l8 31h77l15 61h47l-12 -61 h78l-8 -31h-77z" />
<glyph unicode="&#x1c0;" horiz-adv-x="170" d="M258 736l-192 -736h-51l192 736h51z" />
<glyph unicode="&#x1c1;" horiz-adv-x="290" d="M379 736l-193 -736h-51l193 736h51zM259 736l-193 -736h-51l193 736h51z" />
<glyph unicode="&#x1c2;" horiz-adv-x="340" d="M429 464l-13 -51h-157l-22 -90h157l-13 -51h-157l-74 -272h-51l73 272h-157l13 51h158l22 90h-158l13 51h159l71 272h51l-72 -272h157z" />
<glyph unicode="&#x1c3;" horiz-adv-x="333" d="M137 177l-17 5q49 227 71 369q10 64 25.5 90t43.5 26q44 0 44 -51q0 -40 -39 -123q-56 -120 -128 -316zM145 41q0 -21 -16.5 -36.5t-39.5 -15.5q-22 0 -36 15.5t-14 38.5q0 21 16.5 36.5t37.5 15.5q23 0 37.5 -16t14.5 -38z" />
<glyph unicode="&#x1f0;" horiz-adv-x="278" d="M397 661l-162 -169h-48l-95 169h38l89 -105l141 105h37zM246 438l-104 -410q-31 -121 -76.5 -178t-110.5 -57q-35 0 -57 17t-22 44q0 18 12 31t29 13q39 0 39 -37q0 -12 -6 -19.5t-6 -14.5q0 -12 18 -12q30 0 50.5 39t46.5 143l72 292q16 65 16 80q0 17 -10.5 24t-37.5 7 h-26v16q45 3 169 25z" />
<glyph unicode="&#x1fa;" horiz-adv-x="611" d="M396 656l90 -541q10 -62 24 -79t54 -20v-16h-245v16q45 2 61 14t16 39q0 8 -2 26l-20 131h-220l-59 -111q-22 -41 -22 -66q0 -30 62 -33v-16h-186v16q34 7 55.5 32t78.5 124l279 486q-24 8 -39.5 29t-15.5 48q0 33 23.5 56t57.5 23q32 0 55 -23.5t23 -56.5 q0 -29 -20 -51.5t-50 -26.5zM369 262l-45 263l-149 -263h194zM433 736q0 19 -14 32t-34 13q-17 0 -31 -13.5t-14 -31.5q0 -20 13.5 -34t31.5 -14q21 0 34.5 14t13.5 34zM284 810l141 121q14 12 20.5 15.5t19.5 3.5q25 0 25 -26q0 -16 -32 -35l-141 -79h-33z" />
<glyph unicode="&#x1fb;" horiz-adv-x="501" d="M209 690l162 160q10 10 25 10t25.5 -10.5t10.5 -25.5q0 -18 -17 -28l-171 -106h-35zM420 591q0 -41 -29.5 -70t-70.5 -29q-43 0 -71.5 29t-28.5 71q0 40 29 69.5t70 29.5q42 0 71.5 -29.5t29.5 -70.5zM386 591q0 28 -19.5 47t-47.5 19q-26 0 -45.5 -19.5t-19.5 -45.5 q0 -28 18.5 -47t46.5 -19q29 0 48 18.5t19 46.5zM463 111l13 -11q-56 -68 -82.5 -89t-56.5 -21q-40 0 -40 41q0 25 23 115q-56 -84 -103 -120.5t-100 -36.5q-44 0 -72 30.5t-28 85.5q0 76 43.5 155t110.5 130t132 51q67 0 80 -58l11 48l3 3l61 7l7 -3q-1 -4 -6 -21 q-89 -324 -89 -363q0 -13 14 -13q15 0 52 41zM365 361q0 26 -15 42t-41 16q-68 0 -131 -92q-33 -49 -55 -109t-22 -106q0 -74 60 -74q59 0 127 98q77 111 77 225z" />
<glyph unicode="&#x1fc;" horiz-adv-x="889" d="M559 706l162 160q10 10 25 10t25.5 -10.5t10.5 -25.5q0 -18 -17 -28l-171 -106h-35zM911 653l-33 -153l-17 2q1 13 1 36q0 53 -34.5 67.5t-157.5 14.5q-35 0 -46 -6.5t-18 -30.5l-61 -222q54 0 80 2t49.5 6t36 16.5t22 27t23.5 45.5l18 -4l-69 -232l-17 4q6 36 6 52 q0 31 -22.5 40.5t-95.5 9.5h-40l-62 -217q-9 -32 -9 -49q0 -29 51 -29h30q112 0 167.5 27t112.5 109l18 -5l-64 -164h-498v16q44 4 58.5 13.5t21.5 34.5l49 170h-190l-101 -131q-24 -32 -24 -56q0 -15 12 -20.5t52 -10.5v-16h-187v16q19 4 33.5 17.5t50.5 58.5l369 465 q23 29 27.5 36.5t4.5 16.5q0 25 -38 26l-26 1v16h517zM517 613l-268 -342h173z" />
<glyph unicode="&#x1fd;" horiz-adv-x="667" d="M307 494l162 160q10 10 25 10t25.5 -10.5t10.5 -25.5q0 -18 -17 -28l-171 -106h-35zM459 439l-22 -62q59 64 122 64q37 0 59 -19t22 -51q0 -58 -66 -101q-52 -33 -190 -72q-8 -34 -8 -60q0 -55 16.5 -78.5t53.5 -23.5q32 0 64.5 17.5t77.5 59.5l10 -12 q-42 -51 -96.5 -81.5t-101.5 -30.5t-75.5 33t-28.5 89q0 20 6 40q-59 -92 -102.5 -127t-92.5 -35q-38 0 -61 25.5t-23 72.5q0 79 44.5 163t110.5 137.5t125 53.5q54 0 66 -47l19 45h71zM574 380q0 36 -35 36q-33 0 -65 -35q-28 -30 -45 -62t-39 -96q68 20 104.5 42t61.5 55 q18 24 18 60zM350 370q0 23 -12.5 37t-32.5 14q-53 1 -113 -86q-37 -54 -60 -118t-23 -118q0 -60 34 -60q42 0 80 41q54 58 90.5 141.5t36.5 148.5z" />
<glyph unicode="&#x1fe;" horiz-adv-x="722" d="M355 706l162 160q10 10 25 10t25.5 -10.5t10.5 -25.5q0 -18 -17 -28l-171 -106h-35zM669 722l-61 -94q47 -36 69 -86.5t22 -127.5q0 -109 -63 -210.5t-159 -161.5t-192 -60q-58 0 -104 18l-68 -105h-44l80 124q-89 60 -89 196q0 73 34 153.5t89 146t132 108.5t157 43 q53 0 104 -20l49 76h44zM188 74l357 533q-34 26 -84 26q-78 0 -148.5 -77t-109 -179t-38.5 -187q0 -73 23 -116zM571 575l-358 -531q32 -29 82 -29q67 0 126.5 50.5t95.5 124t56.5 150t20.5 135.5q0 61 -23 100z" />
<glyph unicode="&#x1ff;" d="M180 494l162 160q10 10 25 10t25.5 -10.5t10.5 -25.5q0 -18 -17 -28l-171 -106h-35zM428 554l-58 -119q48 -11 73.5 -48.5t25.5 -88.5q0 -60 -34 -125t-90 -113q-83 -71 -169 -71q-8 0 -20 2l-61 -126h-35l64 131q-39 13 -59 34q-37 39 -37 100q0 115 93 213t201 98 q11 0 17 -1l55 114h34zM357 406l-190 -392q11 -4 22 -4q66 0 122 82q32 49 53 114t21 119q0 50 -28 81zM140 29l188 389l-10 2q-52 0 -95 -46q-49 -53 -80 -129.5t-31 -147.5q0 -40 28 -68z" />
<glyph unicode="&#x237;" horiz-adv-x="278" d="M246 438l-104 -410q-31 -121 -76.5 -178t-110.5 -57q-35 0 -57 17t-22 44q0 18 12 31t29 13q39 0 39 -37q0 -12 -6 -19.5t-6 -14.5q0 -12 18 -12q30 0 50.5 39t46.5 143l72 292q16 65 16 80q0 17 -10.5 24t-37.5 7h-26v16q45 3 169 25z" />
<glyph unicode="&#x250;" horiz-adv-x="444" d="M173 387h1q83 73 164 73q39 0 61 -19t22 -54q0 -88 -103 -148q-56 -32 -201 -81q-18 -74 -18 -87q0 -57 60 -57q33 0 60.5 14t27.5 35q0 9 -3 20t-3 22q0 15 13.5 28t32.5 13q17 0 30 -13t13 -33q0 -46 -65 -81q-53 -29 -124 -29q-56 0 -88 22t-32 66q0 22 12 68l48 191 q5 23 5 36q0 29 -20 29q-21 0 -47 -18l7 28q49 48 102 48q47 0 47 -48q0 -16 -2 -25zM159 323l-36 -141q99 32 145 66q57 42 57 104q0 50 -54 50q-39 0 -71.5 -23t-40.5 -56z" />
<glyph unicode="&#x251;" horiz-adv-x="511" d="M487 460l-87 -346q-6 -26 -6 -33q0 -24 41 -24q11 0 18 1l-4 -16l-159 -52l-4 3l15 61q-62 -64 -146 -64q-17 0 -36 5t-44.5 18t-41.5 44t-16 76q0 119 87.5 223t192.5 104q56 0 95 -43l74 43h21zM313 102l58 230q2 7 2 20q0 38 -23 59t-57 21q-65 0 -127.5 -80 t-62.5 -184q0 -63 31 -94.5t75 -31.5q34 0 66 17t38 43z" />
<glyph unicode="&#x252;" horiz-adv-x="511" d="M218 457l-15 -61q62 64 146 64q17 0 36 -5t44.5 -18t41.5 -44t16 -76q0 -119 -87.5 -223t-192.5 -104q-56 0 -95 43l-74 -43h-21l87 346q6 26 6 33q0 24 -41 24q-11 0 -18 -1l4 16l159 52zM191 348l-58 -230q-2 -7 -2 -20q0 -38 23 -59t57 -21q65 0 127.5 80t62.5 184 q0 63 -31 94.5t-75 31.5q-34 0 -66 -17t-38 -43z" />
<glyph unicode="&#x253;" d="M23 48l114 421q25 93 92.5 153.5t168.5 60.5q35 0 62.5 -15t27.5 -41q0 -16 -12.5 -27t-27.5 -11q-22 0 -47 30t-41 30q-38 0 -79 -38t-56 -93l-62 -228h1q50 83 94.5 117t98.5 34q52 0 84 -32t32 -88q0 -77 -47 -155t-122.5 -127.5t-150.5 -49.5q-46 0 -88 16t-42 37v6z M388 306q0 86 -70 86q-69 0 -137 -115q-32 -54 -52 -119.5t-20 -111.5q0 -34 46 -34q66 0 123 59q46 48 78 114.5t32 120.5z" />
<glyph unicode="&#x254;" horiz-adv-x="444" d="M105 323l-16 10q46 58 89.5 83t99.5 25q71 0 109 -39t38 -115q0 -67 -34 -129.5t-89 -107.5q-77 -61 -167 -61q-46 0 -75.5 23t-29.5 58q0 20 14 34t34 14t29.5 -11.5t9.5 -28.5q0 -9 -7.5 -23.5t-7.5 -24.5q0 -20 37 -20q63 0 109 48q91 96 91 233q0 54 -23 84t-66 30 q-39 0 -71 -19t-74 -63z" />
<glyph unicode="&#x255;" horiz-adv-x="444" d="M-3 -160l119 158q-86 31 -86 145q0 67 34 129.5t89 107.5q77 61 167 61q46 0 75.5 -23t29.5 -58q0 -20 -14 -34t-34 -14t-29.5 11.5t-9.5 28.5q0 9 7.5 23.5t7.5 24.5q0 20 -37 20q-63 0 -109 -48q-91 -96 -91 -233q0 -69 34 -95q35 40 52 57.5t43 32.5t54 15 q34 0 59 -18.5t25 -45.5q0 -49 -36 -75t-103 -26h-22q-42 0 -71 7l-118 -151h-36zM350 80q0 15 -16 25.5t-37 10.5q-12 0 -22.5 -3.5t-18 -7t-19 -14t-17 -16t-20.5 -22t-22 -24.5q34 -12 78 -12q53 0 73.5 19t20.5 44z" />
<glyph unicode="&#x256;" d="M521 683l6 -6l-39 -152l-166 -606q-10 -39 -10 -64q2 -54 44 -54q17 0 42 30t46 30q18 0 29.5 -11.5t11.5 -26.5q0 -30 -30 -43t-64 -13q-67 0 -103 32.5t-36 91.5q0 39 13 91l35 139q-43 -73 -84.5 -102.5t-93.5 -29.5q-50 0 -78.5 30.5t-28.5 86.5q0 119 96.5 227 t195.5 108q31 0 45.5 -14t19.5 -44h1l45 163q14 49 14 71q0 16 -11 20t-53 6v17q77 7 153 23zM356 361q0 26 -14.5 41.5t-32.5 15.5q-47 0 -91 -46q-50 -53 -83 -126.5t-33 -135.5q0 -34 15.5 -53.5t42.5 -19.5q45 0 91 49t75.5 125t29.5 150z" />
<glyph unicode="&#x257;" d="M372 383l29 101q25 87 92.5 143t164.5 56q35 0 62.5 -15t27.5 -41q0 -16 -12.5 -27t-27.5 -11q-22 0 -47 30t-41 30q-37 0 -78 -36.5t-55 -90.5q-124 -455 -124 -462q0 -20 18 -20q13 0 27.5 12.5t54.5 58.5l12 -10q-77 -114 -147 -114q-19 0 -30 12t-11 33q0 30 13 89 q-43 -73 -84.5 -102.5t-93.5 -29.5q-50 0 -78.5 30.5t-28.5 86.5q0 119 96.5 227t195.5 108q31 0 45.5 -14t19.5 -44zM356 361q0 26 -14.5 41.5t-32.5 15.5q-47 0 -91 -46q-50 -53 -83 -126.5t-33 -135.5q0 -34 15.5 -53.5t42.5 -19.5q45 0 91 49t75.5 125t29.5 150z" />
<glyph unicode="&#x258;" horiz-adv-x="444" d="M31 97l18 12q32 -44 54 -59.5t55 -15.5q58 0 105 46t54 107q-98 13 -150 49.5t-52 86.5q0 51 37 84.5t91 33.5q79 0 126 -53t47 -133q0 -101 -69.5 -183.5t-165.5 -82.5q-115 0 -150 108zM329 285q0 57 -21.5 95t-57.5 38q-31 0 -50 -25.5t-19 -59.5q0 -23 16 -51 q15 -27 42 -42.5t83 -31.5q7 64 7 77z" />
<glyph unicode="&#x259;" horiz-adv-x="444" d="M85 321l-12 12q88 108 204 108q61 0 98 -37.5t37 -99.5q0 -117 -93.5 -216t-205.5 -99q-39 0 -60.5 18t-21.5 50q0 66 76.5 118t207.5 69q10 20 10 61t-25.5 66t-67.5 25q-33 0 -63 -15.5t-84 -59.5zM291 178l17 44q-112 -27 -161 -74q-50 -48 -50 -97q0 -39 35 -39 q42 0 87.5 48.5t71.5 117.5z" />
<glyph unicode="&#x25a;" horiz-adv-x="639" d="M612 293l27 -12q-16 -29 -44 -50t-57 -21q-65 0 -65 58q0 14 10 56l16 61l-91 -47q4 -15 4 -34q0 -117 -93.5 -216t-205.5 -99q-39 0 -60.5 18t-21.5 50q0 36 14.5 67.5t40.5 55.5t49 40t53 32l117 64q-17 80 -73 80q-33 0 -63 -15.5t-84 -59.5l-12 12q88 108 204 108 q45 0 77.5 -21t47.5 -58l134 68l5 -4l-32 -119q-6 -24 -6 -26q0 -24 11 -32.5t32 -8.5q36 0 66 53zM306 289l-98 -57q-42 -24 -76.5 -69.5t-34.5 -110.5q0 -21 7.5 -30.5t27.5 -9.5q42 0 86.5 47.5t72.5 118.5q15 38 15 111z" />
<glyph unicode="&#x25b;" horiz-adv-x="444" d="M209 249v2q-93 21 -93 83t58 101.5t138 39.5q59 0 105 -26q22 -12 36 -33.5t14 -40.5q0 -18 -13 -31t-35 -13q-35 0 -49 52q-10 36 -19 47.5t-29 11.5q-46 0 -82 -33.5t-36 -78.5q0 -33 23 -50t61 -17h6v-30h-11q-63 0 -110.5 -38.5t-47.5 -94.5q0 -36 22.5 -57t61.5 -21 q79 0 172 62l9 -12q-92 -86 -200 -86q-76 0 -123 34q-36 25 -36 73q0 40 24.5 76.5t64.5 55.5q33 16 89 24z" />
<glyph unicode="&#x25c;" horiz-adv-x="480" d="M223 233v30q52 1 80 21q56 38 56 91q0 30 -20 48.5t-53 18.5q-18 0 -27 -13.5t-19 -48.5q-5 -19 -17.5 -34t-30.5 -15q-22 0 -35 13t-13 31q0 16 12 38t36 35q46 27 108 27q65 0 106 -26t41 -69q0 -98 -142 -129v-2q113 -14 113 -102q0 -36 -26.5 -71.5t-63.5 -55.5 q-63 -34 -139 -34q-109 0 -158 86l15 12q62 -62 140 -62q54 0 96 40t42 95q0 35 -23 55.5t-67 20.5h-11z" />
<glyph unicode="&#x25d;" horiz-adv-x="666" d="M639 293l27 -12q-18 -30 -45.5 -50.5t-55.5 -20.5q-65 0 -65 59q0 13 11 59l15 57l-85 -44q-23 -66 -136 -90v-2q52 -6 82.5 -32t30.5 -70q0 -36 -26.5 -71.5t-63.5 -55.5q-63 -34 -139 -34q-109 0 -158 86l15 12q62 -62 140 -62q54 0 96 40t42 95q0 35 -23 55.5 t-67 20.5h-11v30q52 1 80 21q56 38 56 91q0 30 -20 48.5t-52 18.5q-19 0 -28 -13t-18 -45q-14 -53 -51 -53q-19 0 -32.5 12.5t-13.5 29.5q0 20 13 41.5t37 34.5q46 26 107 26q64 0 105 -26.5t41 -68.5v-9l116 59l5 -4l-36 -133q-2 -8 -2 -13q0 -24 10.5 -32t32.5 -8 q34 0 66 53z" />
<glyph unicode="&#x25e;" horiz-adv-x="490" d="M316 251v-2q113 -14 113 -103q0 -35 -25 -68.5t-56 -52.5q-65 -39 -145 -39q-87 0 -130 42t-43 117q0 84 34 159t100 123t149 48q57 0 101 -24t44 -73q0 -96 -142 -127zM234 233v30q39 0 63 11q30 14 51.5 41.5t21.5 58.5q0 30 -20 49t-51 19q-59 0 -107 -51t-70.5 -114 t-22.5 -116q0 -58 23 -98.5t70 -40.5q54 0 92 32q51 42 51 101q0 57 -51 73q-18 5 -50 5z" />
<glyph unicode="&#x25f;" horiz-adv-x="357" d="M340 441v-16q-47 -2 -64 -17t-29 -60l-28 -112h65l-7 -31h-66l-45 -177q-31 -121 -76.5 -178t-110.5 -57q-35 0 -57 17t-22 44q0 18 12 31t29 13q39 0 39 -37q0 -12 -6 -19.5t-6 -14.5q0 -12 18 -12q30 0 50.5 39t46.5 143l51 208h-138l7 31h139l30 123q4 18 4 26 q0 23 -15.5 31.5t-51.5 8.5v16h231z" />
<glyph unicode="&#x260;" horiz-adv-x="714" d="M484 434l8 31q56 218 216 218q37 0 64 -15.5t27 -41.5q0 -16 -12.5 -26.5t-27.5 -10.5q-22 0 -47 30t-41 30q-34 0 -50.5 -32t-34.5 -107l-134 -537q-23 -90 -101.5 -137.5t-171.5 -47.5q-51 0 -111 19.5t-60 59.5q0 16 10.5 26.5t26.5 10.5t31 -14t27 -30t37 -30t57 -14 q62 0 108 41t62 103l23 93q-81 -67 -158 -67q-70 0 -109 51t-39 124q0 115 94.5 214.5t208.5 99.5q56 0 97 -41zM399 88l56 225q4 15 4 33q0 41 -24 69t-66 28q-54 0 -100 -42.5t-69.5 -99t-23.5 -106.5q0 -64 30 -107.5t86 -43.5q53 0 107 44z" />
<glyph unicode="&#x261;" horiz-adv-x="595" d="M579 482l-127 -509q-23 -89 -101.5 -137t-171.5 -48q-51 0 -111 19.5t-60 59.5q0 15 10.5 26t26.5 11t31 -14t27 -30t37 -30t57 -14q62 0 108 41t62 103l23 93q-81 -67 -158 -67q-70 0 -109 51t-39 124q0 115 94.5 214.5t208.5 99.5q59 0 107 -51l14 10.5t12 11t8.5 9.5 t10.5 13.5t11 13.5h29zM399 88l56 225q4 15 4 33q0 41 -24 69t-66 28q-80 0 -136.5 -84.5t-56.5 -164.5q0 -62 29 -106t87 -44q53 0 107 44z" />
<glyph unicode="&#x262;" horiz-adv-x="562" d="M562 231v-11q-31 -2 -44.5 -12.5t-20.5 -41.5l-32 -130q-3 -13 -82.5 -30t-112.5 -17q-98 0 -158 41t-60 125q0 70 35 130.5t96 100.5q85 55 189 55q34 0 92 -13q5 -1 14 -3t15 -3.5t8 -1.5q25 0 37 21h16l-29 -139h-16q-14 53 -34 76q-33 37 -99 37q-79 0 -132 -41 q-46 -34 -77 -97t-31 -126t39.5 -99.5t110.5 -36.5q35 0 71 10t40 28l26 104q5 23 5 35q0 16 -12 21.5t-43 6.5v11h189z" />
<glyph unicode="&#x263;" horiz-adv-x="444" d="M243 186l21 -110q67 110 94.5 167.5t27.5 89.5q0 16 -26 32q-26 17 -26 39q0 16 11.5 26.5t28.5 10.5q22 0 37 -16t15 -39q0 -50 -44 -144q-40 -86 -109 -197l13 -73q8 -43 8 -78q0 -61 -31 -94.5t-86 -33.5q-35 0 -52.5 16.5t-17.5 44.5q0 6 1.5 13t6.5 17t10 18 t15 23.5t17.5 26t23.5 33t27 38.5q-5 52 -35.5 174t-49.5 170q-14 37 -30.5 50.5t-46.5 13.5q-16 0 -31 -4v17q15 3 34.5 7.5t39.5 8t49 6.5q8 2 20 2q11 0 41.5 -93t43.5 -162zM225 -84l-9 45q-75 -98 -75 -125q0 -37 30 -37q26 0 42 19.5t16 49.5q0 27 -4 48z" />
<glyph unicode="&#x264;" horiz-adv-x="480" d="M232 263l63 70q7 9 25.5 30.5t32 36.5t27.5 28q24 22 43 22q24 0 38 -17.5t14 -41.5q0 -29 -11 -69q-6 23 -24.5 39t-41.5 16q-8 0 -16.5 -3t-14 -6.5t-14.5 -11.5t-12 -11t-12 -14t-10 -12l-73 -82q3 -8 11.5 -31t12 -34.5t7.5 -30t4 -35.5q0 -47 -42.5 -81.5 t-89.5 -34.5q-78 0 -78 62q0 43 47 92l57 60l-59 136q-7 16 -22 25.5t-32 9.5q-43 0 -58 -53q0 43 28.5 85.5t69.5 42.5q19 0 32.5 -6t24 -20t16 -24.5t13.5 -30.5zM185 175l-46 -50q-33 -37 -33 -63q0 -16 12.5 -24.5t29.5 -8.5q24 0 43 20t19 44q0 10 -3 22t-5.5 19 t-9 22.5t-7.5 18.5z" />
<glyph unicode="&#x265;" d="M478 441l-146 -554q-13 -50 -13 -62t13 -18.5t28 -6.5h27v-15q-76 -9 -157 -27l-7 6l121 447q-130 -211 -230 -211q-33 0 -49 18.5t-16 48.5q0 43 48 193q34 104 34 125q0 7 -5 12.5t-12 5.5q-12 0 -26.5 -14.5t-55.5 -65.5l-13 13q46 65 77 89.5t69 24.5q20 0 32 -11.5 t12 -30.5q0 -17 -20 -92l-55 -207q-7 -28 -7 -33q0 -25 28 -25q27 0 69.5 40t82.5 100q31 48 49 93.5t47 156.5h75z" />
<glyph unicode="&#x266;" d="M19 0l124 470q25 93 92.5 153t168.5 60q35 0 62.5 -15t27.5 -41q0 -16 -12.5 -27t-27.5 -11q-22 0 -47 30t-41 30q-37 0 -78.5 -36.5t-55.5 -90.5l-79 -292q130 211 230 211q33 0 49 -18.5t16 -48.5q0 -43 -48 -193q-34 -104 -34 -125q0 -7 5 -12.5t12 -5.5 q12 0 26.5 14.5t55.5 65.5l13 -13q-46 -65 -77 -89.5t-69 -24.5q-20 0 -32 11.5t-12 30.5q0 17 20 92l55 207q7 28 7 33q0 25 -28 25q-27 0 -69.5 -40t-82.5 -100q-31 -48 -49 -93.5t-47 -156.5h-75z" />
<glyph unicode="&#x267;" d="M19 0l124 470q25 93 92.5 153t168.5 60q35 0 62.5 -15t27.5 -41q0 -16 -12.5 -27t-27.5 -11q-22 0 -47 30t-41 30q-37 0 -78.5 -36.5t-55.5 -90.5l-79 -292q130 211 230 211q33 0 49 -18.5t16 -48.5q0 -15 -9 -48l-94 -346q-25 -93 -92.5 -153t-168.5 -60q-35 0 -62.5 15 t-27.5 41q0 16 12.5 27t27.5 11q22 0 47 -30t41 -30q37 0 78.5 36.5t55.5 90.5l107 404q7 28 7 33q0 25 -28 25q-27 0 -69.5 -40t-82.5 -100q-31 -48 -49 -93.5t-47 -156.5h-75z" />
<glyph unicode="&#x268;" horiz-adv-x="278" d="M264 599q0 -21 -14.5 -36t-34.5 -15q-22 0 -35 14.5t-13 38.5q0 23 13.5 38t33.5 15t35 -16.5t15 -38.5zM253 261l-8 -31h-74l-37 -135q-10 -34 -10 -44q0 -15 14 -15q25 0 84 78l13 -11q-42 -65 -71 -89.5t-66 -24.5q-49 0 -49 55q0 29 22 111l20 75h-75l9 31h75l19 71 q9 32 9 44q0 15 -11.5 19t-52.5 5v16q46 4 160 25l4 -3l-49 -177h74z" />
<glyph unicode="&#x269;" horiz-adv-x="333" d="M253 80l13 -12q-78 -78 -143 -78q-72 0 -72 65q0 23 12 69l56 209q8 26 8 37q0 15 -8 19.5t-24 4.5q-17 0 -31 -4v19l117 36q32 9 42 9q5 0 5 -11q0 -5 -6 -26l-84 -308q-4 -16 -4 -25q0 -40 44 -40q32 0 75 36z" />
<glyph unicode="&#x26a;" horiz-adv-x="247" d="M298 441v-17q-44 -2 -57.5 -16t-24.5 -56l-65 -259q-6 -24 -6 -40q0 -18 11.5 -26.5t40.5 -9.5v-17h-205v17q44 1 58 15.5t24 55.5l66 269q8 32 8 38q0 14 -12 20.5t-42 8.5v17h204z" />
<glyph unicode="&#x26b;" horiz-adv-x="278" d="M303 423h28q-22 -104 -95 -104q-15 0 -48 11l-62 -237q-8 -29 -8 -43q0 -18 17 -18q27 0 67 57l25 35l14 -10q-45 -71 -77.5 -98t-73.5 -27q-49 0 -49 56q0 17 4 30l73 281q-23 6 -34 6q-37 0 -51 -46h-29q15 58 38 82t62 24q9 0 31 -4l47 181q3 10 3 19q0 22 -49 22h-18 v16q70 8 155 27l6 -5l-75 -287q28 -12 48 -12t31.5 9.5t19.5 34.5z" />
<glyph unicode="&#x26c;" horiz-adv-x="375" d="M358 360l8 -13q-58 -58 -153 -90l-9 -3l-42 -161q-8 -29 -8 -43q0 -18 17 -18q27 0 67 57l25 35l14 -10q-45 -71 -77.5 -98t-73.5 -27q-49 0 -49 56q0 17 4 30l43 164q-16 -2 -29 -2q-37 0 -60 22.5t-23 57.5q0 52 43 92.5t93 40.5q10 0 30 -5l40 154q3 10 3 19 q0 22 -49 22h-18v16q70 8 155 27l6 -5l-102 -390l8 2q33 8 74 30t63 40zM133 275l37 142q-8 3 -16 3q-30 0 -59 -28.5t-29 -58.5q0 -24 14 -41.5t36 -17.5q13 0 17 1z" />
<glyph unicode="&#x26d;" horiz-adv-x="252" d="M279 678l-193 -738q-15 -60 -15 -89q0 -50 39 -50q17 0 42 30t47 30q15 0 27.5 -11t12.5 -27q0 -25 -26 -40.5t-63 -15.5q-84 0 -113 33t-29 96q0 36 11 80l163 623q3 10 3 19q0 22 -49 22h-18v16q70 8 155 27z" />
<glyph unicode="&#x26e;" horiz-adv-x="575" d="M537 400l-206 -204q11 3 24 3q54 0 88.5 -35t34.5 -98q0 -133 -87 -216t-203 -83q-57 0 -104 31q-20 13 -31.5 33t-11.5 37q0 18 13 31t36 13q36 0 49 -58q9 -38 22.5 -48t51.5 -10q60 0 121 64t61 169q0 30 -11 52.5t-29 33t-35.5 15.5t-36.5 5q-13 0 -37 -27l-88 -90 q-29 -29 -65 -29q-23 0 -34.5 16t-11.5 37q0 19 7 46l121 462q16 61 16 66q0 24 -55 24h-12v16q72 9 155 27l6 -6l-60 -227h312v-50zM486 386h-202q-47 0 -66.5 -20t-31.5 -66l-49 -187q-13 -52 -13 -57q0 -16 14 -16q8 0 21 13z" />
<glyph unicode="&#x26f;" horiz-adv-x="722" d="M704 432l-88 -318q-10 -38 -10 -54q0 -22 41 -22h25v-16l-162 -31l-3 2l58 209q-130 -211 -220 -211q-29 0 -44.5 16t-15.5 44q0 38 40 152q-53 -84 -88.5 -126.5t-71.5 -65.5q-32 -20 -63 -20q-27 0 -42.5 17.5t-15.5 45.5q0 13 3 28l68 251q10 37 10 45q0 16 -12 16 q-22 0 -65 -53l-21 -26l-15 12l5 7q77 107 144 107q42 0 42 -46q0 -15 -13 -66l-60 -227q-8 -32 -8 -38q0 -9 6.5 -15t14.5 -6q47 0 131 117q37 52 58 104.5t50 167.5h75l-86 -318q-8 -30 -8 -46q0 -25 21 -25q25 0 66 39.5t83 103.5q25 39 42.5 83t53.5 163h75z" />
<glyph unicode="&#x270;" horiz-adv-x="722" d="M704 432l-176 -665h-84l121 435q-130 -211 -220 -211q-29 0 -44.5 16t-15.5 44q0 38 40 152q-53 -84 -88.5 -126.5t-71.5 -65.5q-32 -20 -63 -20q-27 0 -42.5 17.5t-15.5 45.5q0 13 3 28l68 251q10 38 10 45q0 16 -12 16q-22 0 -65 -53l-21 -26l-15 12l5 7 q77 107 144 107q42 0 42 -46q0 -15 -13 -66l-61 -227q-7 -28 -7 -38q0 -9 6.5 -15t14.5 -6q47 0 131 117q37 52 58 104.5t50 167.5h75l-27 -93q-67 -231 -67 -271q0 -25 21 -25q25 0 66 39.5t83 103.5q25 39 42.5 83t53.5 163h75z" />
<glyph unicode="&#x271;" horiz-adv-x="690" d="M209 439l-58 -209q130 211 220 211q29 0 44.5 -16t15.5 -44q0 -38 -40 -152q53 84 88.5 126.5t71.5 65.5q32 20 63 20q27 0 42.5 -17.5t15.5 -45.5q0 -13 -3 -28l-114 -423q-20 -73 -78 -116.5t-139 -43.5q-37 0 -64.5 15t-27.5 41q0 16 12.5 27t27.5 11q22 0 47 -30 t44 -30q35 0 61.5 35t42.5 95l106 399q7 28 7 38q0 9 -6 15t-14 6q-22 0 -58 -32t-74 -85q-37 -52 -58 -104.5t-50 -167.5h-75l27 93q67 231 67 271q0 25 -21 25q-25 0 -66 -39.5t-83 -103.5q-25 -39 -42.5 -83t-53.5 -163h-75l90 325q8 30 8 47q0 22 -41 22h-25v16l162 31z " />
<glyph unicode="&#x272;" horiz-adv-x="606" d="M566 117l14 -13q-51 -70 -78 -91.5t-62 -21.5q-21 0 -35.5 13.5t-14.5 40.5q0 18 16 75l47 162q17 60 17 79q0 13 -7.5 20.5t-19.5 7.5q-30 0 -67 -38t-88 -113q-45 -66 -86 -215l-24 -88q-45 -168 -197 -168q-37 0 -64 15.5t-27 40.5q0 16 12.5 27t27.5 11q22 0 47 -30 t41 -30q12 0 21.5 3.5t17.5 14.5t13 19t12 29t10 31t11 39l113 413q2 10 2 17q0 15 -13.5 20.5t-51.5 6.5v16q39 8 87 16.5t75 14.5l4 -2l-67 -218q74 118 128 169t103 51q31 0 48 -16.5t17 -44.5q0 -25 -10 -60l-56 -203q-14 -50 -14 -61q0 -18 16 -18q19 0 61 53 q7 8 21 26z" />
<glyph unicode="&#x273;" horiz-adv-x="498" d="M432 320l-105 -379q-13 -49 -13 -80q0 -60 44 -60q17 0 42 30t47 30q15 0 27.5 -11t12.5 -27q0 -26 -27.5 -41t-64.5 -15q-69 0 -105 37t-36 97q0 59 10 92l83 289q17 60 17 77q0 30 -25 30q-30 0 -65.5 -34t-84.5 -107q-33 -49 -48.5 -88t-51.5 -160h-75l96 350 q2 10 2 17q0 15 -13.5 20.5t-51.5 6.5v16q39 8 87 16.5t75 14.5l4 -2l-67 -218q74 118 128 169t103 51q31 0 48 -16.5t17 -44.5q0 -25 -10 -60z" />
<glyph unicode="&#x274;" horiz-adv-x="539" d="M599 441v-17q-37 -4 -53 -12q-27 -20 -41 -79l-84 -341h-14l-234 362l-63 -251q-8 -34 -8 -48q0 -20 12 -27.5t43 -10.5v-17h-177v17q50 4 67 19t30 67l71 285q-16 22 -27 29t-39 7v17h134l204 -319l54 218q7 27 7 45q0 11 -5 21q-8 14 -54 18v17h177z" />
<glyph unicode="&#x275;" d="M468 301q0 -57 -28.5 -118.5t-77.5 -110.5q-83 -83 -188 -83q-70 0 -108.5 36.5t-38.5 102.5q0 83 50.5 162t129.5 121q56 30 120 30q62 0 101.5 -37.5t39.5 -102.5zM138 240h235q11 46 11 86q0 45 -19 69.5t-52 24.5q-67 0 -128 -91q-31 -47 -47 -89zM365 207h-238 q-16 -51 -16 -106q0 -44 21 -67.5t57 -23.5q61 0 121 83q35 48 55 114z" />
<glyph unicode="&#x276;" horiz-adv-x="718" d="M738 437l-24 -94h-18q1 6 1 18q0 32 -21.5 41.5t-87.5 9.5h-41q-53 0 -59 -23l-36 -148h76q61 0 84.5 12.5t39.5 52.5h16l-39 -155h-16v18q0 27 -14.5 37t-52.5 10h-101l-39 -157q-2 -5 -2 -14q0 -22 38 -22h89q39 0 71.5 19t70.5 66h18l-60 -110h-265q-25 0 -75.5 -2 t-67.5 -2q-81 0 -127.5 40.5t-46.5 114.5q0 80 43 149.5t111 106.5q67 36 154 36q11 0 47 -2q28 -2 89 -2h245zM336 86l64 260q4 15 4 28q0 42 -58 42q-87 0 -150.5 -83t-63.5 -194q0 -120 111 -120q76 0 93 67z" />
<glyph unicode="&#x277;" horiz-adv-x="668" d="M638 262q0 -101 -70 -183.5t-169 -82.5q-40 0 -64 22.5t-30 61.5q-57 -84 -136 -84q-66 0 -102.5 40t-36.5 103q0 94 60 173.5t145.5 121t168.5 41.5q99 0 166.5 -58.5t67.5 -154.5zM549 299q0 77 -41 116.5t-109 39.5q-103 0 -188 -95.5t-85 -233.5q0 -88 61 -88 q32 0 60 22t35 54q5 26 5 83q0 21 1 35t5 33.5t11 31.5t21.5 20.5t34.5 8.5q23 0 37 -13t14 -31q0 -35 -31.5 -94.5t-35.5 -73.5q-2 -7 -2 -19q0 -25 16.5 -41t42.5 -16q38 0 68 30t46.5 73.5t25 85t8.5 72.5z" />
<glyph unicode="&#x278;" horiz-adv-x="660" d="M472 599l-43 -164q87 -8 144 -49t57 -114q0 -75 -48.5 -138t-120.5 -97.5t-149 -39.5l-39 -146q-6 -21 -6 -34q0 -19 14 -26t49 -9v-15h-236v15q46 3 65.5 17t30.5 55l38 143q-87 5 -142.5 51.5t-55.5 119.5q0 78 50 139.5t120 92t145 35.5l43 161q5 22 5 33 q0 20 -14 28.5t-48 10.5v15h236v-15q-47 -2 -65.5 -14.5t-29.5 -54.5zM421 407l-102 -382q93 14 151 91.5t60 171.5q2 52 -25.5 83.5t-83.5 35.5zM235 25l102 382q-86 -4 -146.5 -79t-60.5 -168q0 -54 26.5 -90.5t78.5 -44.5z" />
<glyph unicode="&#x279;" horiz-adv-x="402" d="M322 441l-81 -292q-16 -59 -16 -82q0 -26 38 -26q9 0 31 3v-17l-155 -27l-3 2l55 216l-16 -35q-34 -75 -94 -138q-43 -45 -79 -45q-21 0 -34 14t-13 37t12.5 38.5t34.5 15.5q19 0 35 -26q8 -14 16 -14q27 0 82 94q34 58 54.5 109.5t56.5 172.5h76z" />
<glyph unicode="&#x27a;" horiz-adv-x="383" d="M384 678l-159 -608q-2 -10 -2 -18q0 -26 35 -33q9 -2 36 -4v-15h-158l55 218l-16 -35q-34 -75 -94 -138q-43 -45 -79 -45q-21 0 -34 14t-13 37t12.5 38.5t34.5 15.5q19 0 35 -26q8 -14 16 -14q27 0 82 94q43 72 65 137q35 103 47 149l30 116q13 48 13 54q0 25 -49 25h-18 v16q68 8 155 27z" />
<glyph unicode="&#x27b;" horiz-adv-x="353" d="M322 441l-123 -443q-30 -106 -30 -140q0 -28 12 -42.5t32 -14.5q17 0 42 30t46 30q17 0 29 -11t12 -28q0 -27 -28 -41t-66 -14q-63 0 -101 31t-38 92q0 28 34 155l48 173l-16 -35q-34 -75 -94 -138q-43 -45 -79 -45q-21 0 -34 14t-13 37t12.5 38.5t34.5 15.5q19 0 35 -26 q8 -14 16 -14q27 0 82 94q34 58 54.5 109.5t56.5 172.5h76z" />
<glyph unicode="&#x27c;" horiz-adv-x="333" d="M176 223l16 35q34 75 94 138q43 45 79 45q21 0 34 -14t13 -37t-12.5 -38.5t-34.5 -15.5q-19 0 -35 26q-8 14 -17 14q-24 0 -69 -73.5t-63 -120.5q-27 -71 -47 -138l-81 -277h-73l146 525q16 59 16 82q0 26 -38 26q-8 0 -31 -3v17l155 27l3 -2z" />
<glyph unicode="&#x27d;" horiz-adv-x="390" d="M176 223l16 35q34 75 94 138q43 45 79 45q21 0 34 -14t13 -37t-12.5 -38.5t-34.5 -15.5q-19 0 -35 26q-8 14 -16 14q-26 0 -82 -94q-37 -62 -66 -140q-82 -221 -82 -284q0 -28 12 -42.5t32 -14.5q17 0 42 30t46 30q17 0 29 -11t12 -28q0 -27 -28 -41t-66 -14 q-63 0 -101 31t-38 92q0 36 21 110l81 292q16 59 16 82q0 26 -38 26q-8 0 -31 -3v17l155 27l3 -2z" />
<glyph unicode="&#x27e;" horiz-adv-x="401" d="M45 0l69 249q30 106 78.5 163.5t138.5 57.5q38 0 65.5 -15t27.5 -41q0 -16 -12.5 -27t-27.5 -11q-22 0 -47 30t-41 30q-34 0 -54 -33.5t-40 -105.5l-81 -297h-76z" />
<glyph unicode="&#x27f;" horiz-adv-x="338" d="M134 0l83 297q13 45 13 94q0 45 -35 45q-17 0 -42 -30t-47 -30q-15 0 -27.5 11t-12.5 27q0 26 27.5 41t65.5 15q68 0 101 -35t33 -97q0 -41 -14 -91l-69 -247h-76z" />
<glyph unicode="&#x280;" horiz-adv-x="475" d="M132 464h227q66 0 104 -26t38 -70q0 -101 -154 -146l72 -170q14 -34 45 -34h10v-18h-124l-92 209h-37l-26 -106q-7 -30 -7 -43q0 -22 12.5 -31.5t40.5 -10.5v-18h-216v18q42 4 59 20t28 60l65 257q8 29 8 46q0 40 -53 45v18zM229 242h17q63 0 112.5 34t49.5 91 q0 30 -21.5 47.5t-61.5 17.5q-21 0 -50 -7z" />
<glyph unicode="&#x281;" horiz-adv-x="475" d="M581 446h-10q-31 0 -62 -34l-157 -170q94 -29 94 -95q0 -64 -60 -105.5t-143 -41.5h-218v18q38 4 59 24q19 17 31 67l64 257q7 27 7 40q0 38 -54 40v18h216v-18q-39 -2 -58.5 -20t-30.5 -65l-26 -106h37l196 209h115v-18zM224 222l-45 -183q25 -7 46 -7q53 0 90.5 31.5 t37.5 80.5q0 41 -32 59.5t-80 18.5h-17z" />
<glyph unicode="&#x282;" horiz-adv-x="389" d="M376 442l-20 -140h-16q-14 116 -89 116q-27 0 -43 -15t-16 -42q0 -38 54 -102q68 -79 68 -136q0 -61 -40.5 -97.5t-103.5 -36.5q-29 0 -55 10q-21 9 -44 9q-3 0 -11 -2l-19 -138q-1 -8 -1 -20q0 -32 26 -32q17 0 42 30t47 30q15 0 27.5 -11t12.5 -27q0 -26 -27.5 -41 t-65.5 -15q-93 0 -93 65q0 10 2 20l35 279h16q20 -136 100 -136q36 0 56 20t20 57q0 45 -56 115q-63 79 -63 131q0 50 33 79t88 29q20 0 56 -10q22 -7 36 -7q20 0 30 18h14z" />
<glyph unicode="&#x283;" horiz-adv-x="415" d="M112 -72l140 537q24 94 85.5 156t150.5 62q37 0 63 -15.5t26 -40.5q0 -16 -12.5 -27t-27.5 -11q-22 0 -47 30t-41 30q-62 0 -98 -140l-136 -524q-24 -94 -85 -156t-150 -62q-36 0 -63 15.5t-27 39.5q0 17 12.5 28t27.5 11q22 0 47 -30t41 -30q60 0 94 127z" />
<glyph unicode="&#x284;" horiz-adv-x="453" d="M137 31l116 465q20 80 89.5 133.5t162.5 53.5q35 0 62.5 -15t27.5 -41q0 -16 -12.5 -27t-27.5 -11q-22 0 -47 30t-41 30q-40 0 -75.5 -26.5t-51.5 -89.5l-127 -502h80l-5 -31h-84q-31 -110 -89.5 -171.5t-133.5 -61.5q-35 0 -63 15t-28 40q0 17 12 28t27 11q23 0 48 -30 t41 -30q27 0 58 54t54 145h-80l7 31h80z" />
<glyph unicode="&#x285;" horiz-adv-x="339" d="M297 252l-78 -312q-23 -92 -23 -108q0 -31 30 -31q17 0 42 30t47 30q15 0 27.5 -11t12.5 -27q0 -26 -27.5 -41t-65.5 -15q-129 0 -129 129q0 39 13 89l78 312q18 72 18 99q0 40 -34 40q-17 0 -42 -30t-47 -30q-15 0 -27.5 11t-12.5 27q0 26 27.5 41t65.5 15 q133 0 133 -134q0 -54 -8 -84z" />
<glyph unicode="&#x286;" horiz-adv-x="439" d="M159 14l116 442q30 117 101 177q59 50 137 50q32 0 60.5 -14t28.5 -43q0 -15 -12 -26t-27 -11q-23 0 -48 30t-41 30q-22 0 -39 -15t-30.5 -45.5t-20 -51.5t-16.5 -59l-131 -505q44 -44 44 -117q0 -59 -23 -99h-26q20 56 20 93q0 54 -26 90q-39 -90 -81.5 -131t-115.5 -41 q-38 0 -64.5 25.5t-26.5 61.5q0 68 57 115.5t121 47.5q26 0 43 -4zM153 -13q-23 6 -47 6q-48 0 -95.5 -41t-47.5 -93q0 -28 21 -47t53 -19q27 0 48.5 18.5t30.5 46.5q13 37 37 129z" />
<glyph unicode="&#x287;" horiz-adv-x="330" d="M120 332l-13 7q46 70 75.5 95.5t67.5 25.5q46 0 46 -37q0 -10 -16 -74l-78 -296h75l1 -6q0 -18 -33 -25q-25 -6 -66 -38.5t-67 -71.5q-6 -9 -14 -9q-9 0 -9 8q0 5 1 7l28 103h-80l5 32h84l87 328q2 8 2 14q0 16 -15 16q-12 0 -28 -15.5t-53 -63.5z" />
<glyph unicode="&#x288;" horiz-adv-x="278" d="M308 428l-5 -32h-84l-138 -520q-7 -26 -7 -42q0 -33 22 -33q18 0 43 30t47 30q16 0 28 -11t12 -28q0 -26 -28 -40.5t-69 -14.5q-56 0 -89.5 24.5t-33.5 58.5q0 21 12 67l126 479h-75l-1 6q0 18 33 25q25 6 66 38.5t67 71.5q6 9 14 9q9 0 9 -8q0 -5 -1 -7l-28 -103h80z " />
<glyph unicode="&#x289;" d="M479 261l-5 -31h-63l-25 -97q-19 -72 -19 -78q0 -17 11 -17q12 0 29 16t54 65l14 -9q-48 -73 -75 -96t-63 -23q-48 0 -48 48q0 45 43 191q-88 -142 -136.5 -191.5t-100.5 -49.5q-53 0 -53 53q0 18 27 128l15 60h-75l7 31h76l12 48q14 58 14 67q0 12 -11 18t-50 6v14 q69 8 150 27l4 -3l-45 -177h157q21 42 68 171h74l-46 -171h60zM307 230h-148l-36 -147q-3 -9 -3 -16q0 -25 19 -25q45 0 142 147z" />
<glyph unicode="&#x28a;" horiz-adv-x="537" d="M552 430h-38q-21 0 -36.5 -16t-15.5 -35q0 -7 19.5 -44t19.5 -81q0 -103 -90 -183.5t-190 -80.5q-77 0 -124.5 48t-47.5 120q0 25 6 51q20 81 105 154q18 16 18 37q0 13 -9.5 21.5t-22.5 8.5h-38v20h145q-84 -139 -111 -246q-13 -52 -13 -90q0 -45 25.5 -74.5t70.5 -29.5 q70 0 115.5 58t65.5 137q17 70 17 143q0 46 -6 102h135v-20z" />
<glyph unicode="&#x28b;" d="M211 438l-75 -311q-6 -24 -6 -32q0 -28 22 -46t54 -18q61 0 115.5 46.5t83.5 110t29 120.5q0 16 -5 29q-2 5 -25.5 26.5t-23.5 43.5q0 16 11 25t25 9q22 0 37 -13.5t20 -36.5q2 -9 2 -30q0 -63 -20.5 -127.5t-57.5 -119.5t-94.5 -89.5t-123.5 -34.5q-127 0 -127 90 q0 22 7 50l53 212q6 24 6 34q0 12 -11 18t-50 6v14q69 8 150 27z" />
<glyph unicode="&#x28c;" horiz-adv-x="444" d="M426 20v-13q-55 -9 -112 -21q-11 -4 -20 -4q-6 0 -9.5 13t-20.5 101q-18 91 -25 257l-31 -32q-54 -55 -95.5 -125.5t-41.5 -105.5q0 -12 18 -29q25 -22 25 -45q0 -15 -11 -24.5t-27 -9.5q-24 0 -40 18.5t-16 40.5q0 58 63 155q55 85 119 153q9 9 22 23t19 21t15.5 16.5 l14 14t10.5 9.5t10 6.5t8 1.5q9 0 9 -27v-24q0 -138 24 -278q10 -57 21.5 -75t39.5 -18q20 0 31 1z" />
<glyph unicode="&#x28d;" horiz-adv-x="667" d="M648 19v-13q-79 -13 -95 -17q-5 -1 -11.5 -3t-10.5 -3t-7 -1q-8 0 -11 5t-8 29q-25 120 -32 281l-192 -305q-6 -10 -13 -10q-8 0 -8 14l-32 353q-99 -123 -132 -175.5t-33 -84.5q0 -14 22 -35q21 -20 21 -41q0 -12 -11.5 -21.5t-27.5 -9.5q-22 0 -37 16t-15 40 q0 91 212 349l9 11q35 43 45 43q8 0 11 -35l29 -310l89 152q23 38 55 99q49 94 64 94q7 0 9 -9t4 -38l4 -91q8 -164 27 -242q7 -27 15.5 -34.5t31.5 -7.5h28z" />
<glyph unicode="&#x28e;" horiz-adv-x="444" d="M193 255l-21 110q-67 -110 -94.5 -167.5t-27.5 -89.5q0 -16 26 -32q26 -17 26 -39q0 -16 -11.5 -26.5t-28.5 -10.5q-22 0 -37 16t-15 39q0 87 131 305q78 129 151.5 208t116.5 79q23 0 37 -12t14 -31q0 -17 -11.5 -28.5t-27.5 -11.5q-19 0 -34 14t-27 14q-18 0 -48 -33 q-13 -13 -38.5 -46.5t-32.5 -44.5q-10 -20 -10 -35q0 -30 31 -155.5t51 -176.5q14 -37 30.5 -50.5t46.5 -13.5q16 0 31 4v-17q-22 -4 -32 -6q-41 -8 -107 -18h-4q-11 0 -41.5 93t-43.5 162z" />
<glyph unicode="&#x28f;" horiz-adv-x="633" d="M603 464v-18q-36 -3 -56 -16t-71 -63l-158 -155l-27 -106q-7 -28 -7 -45q0 -43 53 -43v-18h-216v18q23 0 39.5 7t26 20t13.5 24t8 27l27 110l-70 133q-36 69 -54 87t-49 20v18h210v-18q-34 -1 -44 -6t-10 -16q0 -7 11 -29l78 -151l153 151q22 22 22 40q0 10 -37 11v18 h158z" />
<glyph unicode="&#x290;" horiz-adv-x="405" d="M348 96l-62 -206q-9 -29 -9 -44q0 -16 4.5 -23t18.5 -7q17 0 42 30t47 30q15 0 27.5 -11t12.5 -27q0 -26 -27.5 -41t-65.5 -15q-45 0 -65.5 18.5t-20.5 46.5q0 15 16 69l25 84h-274v18l291 350h-136q-40 0 -58 -11.5t-33 -48.5l-16 4l32 116h283v-11l-300 -357h209 q25 0 43 40z" />
<glyph unicode="&#x291;" horiz-adv-x="393" d="M380 417l-300 -357h116q50 84 105 84q31 0 50 -16t19 -44q0 -84 -119 -84h-66q-18 -32 -25 -47h-24q1 1 10.5 20t14.5 27h-144v18l291 350h-136q-40 0 -58 -11.5t-33 -48.5l-16 4l32 116h283v-11zM221 60h74q22 0 34.5 8t12.5 19q0 15 -13 25.5t-28 10.5q-36 0 -80 -63z " />
<glyph unicode="&#x292;" horiz-adv-x="413" d="M517 400l-215 -204q16 3 33 3q54 0 88.5 -35t34.5 -98q0 -133 -87 -216t-203 -83q-57 0 -104 31q-20 13 -31.5 33t-11.5 37q0 18 13 31t36 13q36 0 49 -58q9 -38 22.5 -48t51.5 -10q60 0 121 64t61 169q0 54 -32 80t-87 26q-11 0 -57 -19l-11 11l278 259h-199 q-35 0 -56 -12t-29 -26.5t-20 -47.5h-18l61 150h312v-50z" />
<glyph unicode="&#x293;" horiz-adv-x="457" d="M544 450l-4 -15l-244 -268q2 0 6 0.5t8 0.5q52 0 95 -32.5t43 -100.5q0 -92 -59.5 -158t-139.5 -93l25 -89h-37l-24 78q-31 -6 -78 -6q-58 0 -93 20.5t-35 56.5q0 41 31 66.5t80 25.5q43 0 68 -27.5t51 -95.5q49 27 83 81t34 122q0 61 -33 90t-87 29q-11 0 -60 -19 l-11 11l264 293h-138q-50 0 -69 -19.5t-37 -68.5h-18l33 118h346zM205 -201q-25 62 -41.5 82.5t-39.5 20.5q-19 0 -33 -16t-14 -37q0 -25 26 -39t55 -14q35 0 47 3z" />
<glyph unicode="&#x294;" d="M152 102l68 254q79 1 136.5 69.5t57.5 150.5q0 90 -59 90q-20 0 -39 -18t-24 -42q-16 -68 -55 -68q-18 0 -32 13t-14 29q0 17 11.5 39t37.5 37q48 27 110 27q85 0 122 -35.5t37 -89.5q0 -90 -68.5 -153.5t-142.5 -68.5l-62 -234q-9 -32 -9 -50q0 -22 14 -28.5t51 -8.5 v-15h-237v15q45 3 62 15q20 14 35 72z" />
<glyph unicode="&#x295;" d="M155 102l62 234q-51 10 -85.5 40t-34.5 85q0 38 13.5 75.5t41 71t76.5 54.5t112 21q31 0 65.5 -10.5t53.5 -25.5q36 -29 36 -65q0 -18 -13 -31t-35 -13q-19 0 -32.5 16.5t-18.5 43.5q-4 23 -22 45.5t-44 22.5q-50 0 -94 -67.5t-44 -124.5q0 -49 33 -83.5t81 -34.5 l-67 -254q-8 -28 -8 -49q0 -19 13 -27.5t48 -10.5v-15h-237v15q49 2 67.5 17t32.5 70z" />
<glyph unicode="&#x296;" horiz-adv-x="393" d="M413 662v-15q-49 -2 -67.5 -17t-32.5 -70l-60 -227q51 -10 85.5 -40t34.5 -85q0 -38 -13.5 -75.5t-41 -71t-76.5 -54.5t-112 -21q-31 0 -65.5 10.5t-53.5 25.5q-36 28 -36 65q0 18 13 31t35 13q19 0 32.5 -16.5t18.5 -43.5q4 -23 22 -45.5t44 -22.5q50 0 94 67.5 t44 124.5q0 49 -33 83.5t-81 34.5l65 247q8 34 8 49q0 19 -13 27.5t-48 10.5v15h237z" />
<glyph unicode="&#x297;" horiz-adv-x="450" d="M28 -84l92 367q18 71 80 114.5t133 43.5q53 0 89.5 -33.5t36.5 -83.5q0 -22 -10.5 -41.5t-29.5 -19.5q-11 0 -20 8.5t-9 19.5q0 9 7 25t7 24q0 29 -19.5 47.5t-45.5 18.5q-38 0 -78.5 -28.5t-49.5 -66.5l-97 -387q-3 -13 -3 -28q0 -38 23.5 -63t61.5 -25q54 0 91.5 34.5 t50.5 86.5q2 8 4 24h25l-9 -38q-16 -65 -71 -109t-132 -44q-55 0 -93 35t-38 87q0 17 4 32z" />
<glyph unicode="&#x298;" horiz-adv-x="723" d="M421 332q0 -27 -17.5 -45.5t-45.5 -18.5q-24 0 -43.5 18t-19.5 45q0 26 18.5 44.5t44.5 18.5t44.5 -18t18.5 -44zM704 432q0 -115 -57 -218.5t-156 -167t-213 -63.5q-115 0 -185.5 67.5t-70.5 181.5q0 118 60 221.5t159.5 164.5t211.5 61q119 0 185 -68t66 -179zM611 445 q0 94 -43.5 150t-127.5 56q-60 0 -119.5 -36.5t-104.5 -96t-73 -140t-28 -163.5q0 -92 42.5 -145.5t127.5 -53.5q80 0 156.5 64.5t123 164.5t46.5 200z" />
<glyph unicode="&#x299;" horiz-adv-x="460" d="M126 464h208q171 0 171 -92q0 -56 -37.5 -87.5t-97.5 -39.5q109 -21 109 -93q0 -70 -64.5 -111t-159.5 -41h-236v18q44 0 64.5 16.5t29.5 54.5l70 281q4 15 4 29q0 21 -13.5 32t-47.5 15v18zM237 260h53q136 0 136 108q0 64 -112 64h-16q-18 0 -24 -22zM228 226l-40 -162 q-2 -8 -2 -12q0 -20 43 -20q68 0 114 30t46 94q0 23 -10.5 37.5t-32 21.5t-43.5 9t-54 2h-21z" />
<glyph unicode="&#x29a;" horiz-adv-x="479" d="M198 249v2q-93 21 -93 83q0 39 24 69.5t63 48.5q52 23 105 23q84 0 128.5 -45.5t44.5 -121.5q0 -131 -85 -226.5t-207 -95.5q-57 0 -107.5 25t-50.5 80q0 45 25 80t66 55q35 17 87 23zM283 233h-13q-58 0 -107 -37.5t-49 -94.5q0 -37 23 -58t62 -21q57 0 106 52.5 t74 117.5t25 115q0 57 -22.5 96t-71.5 39q-45 0 -81 -33.5t-36 -79.5q0 -31 23 -48.5t60 -17.5h7v-30z" />
<glyph unicode="&#x29b;" horiz-adv-x="570" d="M473 167l-32 -131q-3 -14 -84 -30.5t-108 -16.5q-102 0 -161 41t-59 125q0 122 98 204t219 82q17 0 36.5 -2.5t31.5 -4.5t35 -7t31 -7q13 42 43 68.5t70 26.5q22 0 39.5 -13t17.5 -35t-20 -22q-12 0 -19 7.5t-9.5 17t-9 17t-17.5 7.5q-34 0 -49 -67l-26 -124h-16 q-10 57 -42.5 84.5t-92.5 27.5q-99 0 -167.5 -80.5t-68.5 -182.5q0 -64 39 -100.5t110 -36.5q29 0 67.5 9t43.5 30l26 106q5 22 5 29q0 12 -7 18t-16 7.5t-32 3.5v13h189v-13q-31 -2 -44.5 -11.5t-20.5 -39.5z" />
<glyph unicode="&#x29c;" horiz-adv-x="572" d="M671 464v-18q-45 -3 -60 -15t-25 -52l-72 -289q-5 -22 -5 -34q0 -20 12.5 -28.5t42.5 -9.5v-18h-216v18q46 2 60 15.5t26 60.5l32 126h-242l-32 -126q-6 -23 -6 -38q0 -19 12 -28t42 -10v-18h-215v18q46 3 60.5 17t26.5 62l70 282q6 23 6 36q0 17 -12 23t-44 8v18h215 v-18q-43 -3 -58.5 -14.5t-25.5 -52.5l-31 -126h242l31 126q6 24 6 37q0 16 -11.5 21.5t-44.5 8.5v18h216z" />
<glyph unicode="&#x29d;" horiz-adv-x="403" d="M394 598q0 -20 -15 -35t-35 -15q-23 0 -38.5 14.5t-15.5 37.5q0 22 16 37t37 15q20 0 35.5 -16.5t15.5 -37.5zM361 438l-104 -410q-13 -56 -28 -88q54 -67 100 -173h-40q-24 62 -75 137q-69 -137 -190 -137q-44 0 -74 26.5t-30 67.5q0 58 51 98.5t107 40.5q53 0 91 -23 l77 312q16 65 16 80q0 17 -10.5 24t-37.5 7h-26v16q45 3 169 25zM161 -55q-16 8 -45 14t-43 6q-40 0 -79 -30.5t-39 -71.5q0 -31 25.5 -46t63.5 -15q26 0 45 10t32.5 33.5t20.5 42.5t19 57z" />
<glyph unicode="&#x29e;" horiz-adv-x="463" d="M473 428l-141 -528q-18 -66 -18 -88q0 -24 51 -24h18v-16q-75 -9 -157 -27l-6 6l120 456l-43 -33q-143 -110 -143 -140q0 -18 37 -18h14v-16h-179v16q36 2 76 29.5t149 124.5l-37 88q-55 129 -81 129q-21 0 -45 -42q-5 -8 -15 -26l-15 11q35 63 58 86t53 23 q22 0 39.5 -17.5t41.5 -64.5q30 -58 60 -141l40 32l48 180h75z" />
<glyph unicode="&#x29f;" horiz-adv-x="470" d="M473 127l-67 -127h-381v18q38 1 53 14.5t24 50.5l73 294q7 28 7 39q0 15 -10.5 21.5t-39.5 8.5v18h193v-18q-42 -2 -55 -16.5t-22 -53.5l-76 -307q-3 -9 -3 -18q0 -12 12 -15.5t46 -3.5h50q88 0 134 43q15 15 43 52h19z" />
<glyph unicode="&#x2a0;" horiz-adv-x="480" d="M395 379l27 84q18 56 51.5 87.5t73.5 31.5q53 0 85 -18q34 -19 34 -53q0 -12 -8.5 -22.5t-24.5 -10.5q-31 0 -47 30q-16 31 -38 31q-19 0 -30.5 -16t-26.5 -71l-172 -603q-2 -8 -2 -11q0 -31 57 -31h15v-16h-237v16q46 3 64 15t27 41l90 290q-59 -94 -104 -129t-104 -35 q-47 0 -73.5 31t-26.5 85q0 77 44.5 156t113 129.5t135.5 50.5q63 0 77 -62zM380 359q0 25 -17 42.5t-42 17.5q-41 0 -93 -49q-51 -49 -84 -119t-33 -132q0 -77 53 -77q41 0 82 36q51 44 92.5 131.5t41.5 149.5z" />
<glyph unicode="&#x2a1;" d="M176 193l44 163q79 1 136.5 69.5t57.5 150.5q0 90 -59 90q-20 0 -39 -18t-24 -42q-16 -68 -55 -68q-18 0 -32 13t-14 29q0 17 11.5 39t37.5 37q48 27 110 27q85 0 122 -35.5t37 -89.5q0 -90 -68.5 -153.5t-142.5 -68.5l-39 -143h77l-8 -31h-77l-16 -60q-8 -28 -8 -50 t13.5 -28.5t50.5 -8.5v-15h-236v15q44 3 61 15q21 15 36 72l16 60h-78l8 31h78z" />
<glyph unicode="&#x2a2;" d="M179 193l38 143q-51 10 -85.5 40t-34.5 85q0 38 13.5 75.5t41 71t76.5 54.5t112 21q31 0 65.5 -10.5t53.5 -25.5q36 -29 36 -65q0 -18 -13 -31t-35 -13q-19 0 -32.5 16.5t-18.5 43.5q-4 23 -22 45.5t-44 22.5q-50 0 -94 -67.5t-44 -124.5q0 -49 33 -83.5t81 -34.5 l-43 -163h75l-8 -31h-75l-16 -60q-8 -28 -8 -49q0 -19 13 -27.5t48 -10.5v-15h-237v15q49 2 67.5 17t32.5 70l16 60h-79l8 31h79z" />
<glyph unicode="&#x2a3;" horiz-adv-x="743" d="M741 417l-300 -357h209q26 0 43 40l16 -4l-29 -96h-302q-24 -13 -50 -13q-19 0 -30 12t-11 33q0 30 13 89q-43 -73 -84.5 -102.5t-93.5 -29.5q-50 0 -78.5 30.5t-28.5 86.5q0 119 96.5 227t195.5 108q31 0 45 -13t21 -45l45 163q14 49 14 71q0 16 -11 20t-53 6v17 q77 7 153 23l6 -6l-39 -151l-27 -98h280v-11zM669 368h-136q-40 0 -58 -11.5t-33 -48.5l-12 3l-60 -216q-7 -26 -7 -35q0 -20 18 -20q15 0 25 12zM356 361q0 26 -14.5 41.5t-32.5 15.5q-47 0 -91 -46q-50 -53 -83 -126.5t-33 -135.5q0 -34 15.5 -53.5t42.5 -19.5q45 0 91 49 t75.5 125t29.5 150z" />
<glyph unicode="&#x2a4;" horiz-adv-x="743" d="M780 400l-206 -204q11 3 24 3q54 0 88.5 -35t34.5 -98q0 -133 -87 -216t-203 -83q-57 0 -104 31q-20 13 -31.5 33t-11.5 37q0 18 13 31t36 13q36 0 49 -58q9 -38 22.5 -48t51.5 -10q60 0 121 64t61 169q0 57 -34 81.5t-78 24.5q-13 0 -37 -27l-88 -90q-30 -31 -73 -31 q-19 0 -30 12t-11 33q0 30 13 89q-43 -73 -84.5 -102.5t-93.5 -29.5q-50 0 -78.5 30.5t-28.5 86.5q0 119 96.5 227t195.5 108q31 0 45.5 -14t19.5 -44h1l45 163q14 49 14 71q0 16 -11 20t-53 6v17q77 7 153 23l6 -6l-59 -227h312v-50zM729 386h-202q-47 0 -67.5 -21 t-33.5 -67l-54 -195q-9 -36 -9 -43q0 -20 18 -20q8 0 21 13zM356 361q0 26 -14.5 41.5t-32.5 15.5q-47 0 -91 -46q-50 -53 -83 -126.5t-33 -135.5q0 -34 15.5 -53.5t42.5 -19.5q45 0 91 49t75.5 125t29.5 150z" />
<glyph unicode="&#x2a5;" horiz-adv-x="754" d="M741 417l-300 -357h116q50 84 105 84q31 0 50 -16t19 -44q0 -84 -119 -84h-66q-18 -32 -25 -47h-24q1 1 10.5 20t14.5 27h-144q-30 -13 -50 -13q-19 0 -30 12t-11 33q0 30 13 89q-43 -73 -84.5 -102.5t-93.5 -29.5q-50 0 -78.5 30.5t-28.5 86.5q0 119 96.5 227t195.5 108 q31 0 46 -14t20 -44l45 163q14 49 14 71q0 16 -11 20t-53 6v17q77 7 153 23l6 -6l-39 -152l-27 -97h280v-11zM582 60h74q22 0 34.5 8t12.5 19q0 15 -13 25.5t-28 10.5q-36 0 -80 -63zM669 368h-136q-40 0 -58 -11.5t-33 -48.5l-12 3l-60 -215q-7 -24 -7 -36q0 -20 18 -20 q14 0 27 15zM356 361q0 26 -14.5 41.5t-32.5 15.5q-47 0 -91 -46q-50 -53 -83 -126.5t-33 -135.5q0 -34 15.5 -53.5t42.5 -19.5q45 0 91 49t75.5 125t29.5 150z" />
<glyph unicode="&#x2a6;" d="M523 442l-20 -140h-16q-14 116 -89 116q-27 0 -43 -15t-16 -42q0 -38 54 -102q68 -79 68 -136q0 -61 -40.5 -97.5t-103.5 -36.5q-29 0 -55 10q-45 18 -70 53q-19 -29 -50 -46t-58 -17q-46 0 -46 37q0 10 16 74l78 296h-75l-1 6q0 18 33 25q25 6 66 38.5t67 71.5q6 9 14 9 q9 0 9 -8q0 -5 -1 -7l-28 -103h107q29 13 64 13q20 0 56 -10q22 -7 36 -7q20 0 30 18h14zM214 117l13 -7q-6 -10 -9 -14q26 -86 91 -86q35 0 55.5 20t20.5 57q0 45 -56 115q-63 79 -63 131q0 36 19 63h-78l-87 -328q-2 -8 -2 -14q0 -16 15 -16q12 0 28 15.5t53 63.5z" />
<glyph unicode="&#x2a7;" horiz-adv-x="517" d="M320 428l10 37q25 94 86 156t150 62q37 0 63 -15.5t26 -40.5q0 -16 -12.5 -27t-27.5 -11q-22 0 -47 30t-41 30q-62 0 -98 -140l-136 -524q-24 -94 -85 -156t-150 -62q-36 0 -63 15.5t-27 39.5q0 17 12.5 28t27.5 11q22 0 47 -30t41 -30q60 0 94 127l38 146 q-50 -46 -81.5 -65.5t-62.5 -19.5q-46 0 -46 37q0 10 16 74l78 296h-75l-1 6q0 18 33 25q25 6 66 38.5t67 71.5q6 9 14 9q9 0 9 -8q0 -5 -1 -7l-28 -103h104zM312 396h-105l-87 -328q-2 -8 -2 -14q0 -16 15 -16q21 0 106 79z" />
<glyph unicode="&#x2a8;" horiz-adv-x="632" d="M207 396l-87 -328q-2 -8 -2 -17q0 -14 30 -14q32 0 84 25q-15 33 -15 81q0 67 34 129.5t89 107.5q77 61 167 61q46 0 75.5 -23t29.5 -58q0 -20 -14 -34t-34 -14t-29.5 11.5t-9.5 28.5q0 9 7.5 23.5t7.5 24.5q0 20 -37 20q-63 0 -109 -48q-91 -96 -91 -233q0 -26 4 -40 q103 50 178 50q34 0 59.5 -18.5t25.5 -46.5q0 -45 -34 -72.5t-107 -27.5q-88 0 -128 15t-55 39q-96 -49 -163 -49q-17 0 -31 8.5t-14 28.5q0 10 16 74l78 296h-75l-1 6q0 18 33 25q25 6 66 38.5t67 71.5q6 9 14 9q9 0 9 -8q0 -5 -1 -7l-28 -103h80l-5 -32h-84zM537 79 q0 17 -16 27t-41 10q-74 0 -165 -45q9 -23 39.5 -36.5t50.5 -15.5t38 -2q47 0 70.5 17.5t23.5 44.5z" />
<glyph unicode="&#x2b0;" horiz-adv-x="378" d="M380 420l11 -9q-38 -49 -64.5 -67t-58.5 -18q-16 0 -26 8.5t-10 22.5q0 12 17 68l46 154q6 22 6 24q0 19 -25 19q-21 0 -57 -30t-69 -74q-26 -35 -41 -68.5t-39 -116.5h-63l120 404q13 41 13 52q0 8 -11 13t-24 5h-22v11q67 8 132 20l6 -4l-102 -331q108 156 192 156 q27 0 41 -13.5t14 -35.5q0 -11 -4 -23l-60 -188q-5 -18 -5 -25q0 -13 14 -13q10 0 23 11t46 48z" />
<glyph unicode="&#x2b1;" horiz-adv-x="378" d="M7 333l112 377q17 55 63.5 91.5t103.5 36.5q53 0 90.5 -15.5t37.5 -39.5q0 -11 -8 -19t-20 -8q-5 0 -9.5 1.5t-7 2.5t-7 5t-6 6t-6.5 8.5t-7 8.5q-26 31 -54 31q-33 0 -61.5 -27.5t-39.5 -63.5l-69 -225q108 156 192 156q28 0 41.5 -13.5t13.5 -35.5q0 -11 -4 -23 l-60 -188q-5 -15 -5 -25q0 -5 4.5 -9t9.5 -4q10 0 22.5 10.5t46.5 48.5l11 -9q-38 -49 -64 -67t-58 -18q-37 0 -37 31q0 12 17 68l46 154q6 22 6 24q0 19 -24 19q-22 0 -58 -30t-69 -74q-26 -35 -41 -68.5t-39 -116.5h-63z" />
<glyph unicode="&#x2b2;" horiz-adv-x="300" d="M350 810q0 -16 -11 -27t-27 -11q-18 0 -29.5 11t-11.5 29q0 16 11.5 27.5t28.5 11.5q16 0 27.5 -12.5t11.5 -28.5zM325 688l-79 -311q-23 -92 -57.5 -135t-84.5 -43q-26 0 -43 13t-17 33q0 14 9 24t22 10q30 0 30 -28q0 -9 -4.5 -15t-4.5 -11q0 -8 13 -8q23 0 38.5 29 t35.5 108l55 221q12 49 12 61q0 13 -8 18t-29 5h-19v13q31 1 128 18z" />
<glyph unicode="&#x2b3;" horiz-adv-x="320" d="M116 519l13 28q26 55 82 108q37 35 68 35q19 0 30 -11t11 -29t-11 -30t-30 -12q-17 0 -30 20q-7 11 -14 11q-24 0 -71 -73q-29 -45 -46.5 -85t-49.5 -136h-66l70 228q14 44 14 65q0 20 -33 20q-14 0 -27 -2v13q27 4 135 21l2 -2z" />
<glyph unicode="&#x2b4;" horiz-adv-x="320" d="M318 690l-70 -228q-14 -44 -14 -65q0 -20 33 -20q1 0 27 2v-13q-27 -4 -135 -21l-2 2l47 169l-13 -28q-26 -55 -82 -108q-37 -35 -68 -35q-19 0 -30 11t-11 29t11 30t30 12q17 0 30 -20q7 -11 14 -11q24 0 71 73q29 45 46.5 85t49.5 136h66z" />
<glyph unicode="&#x2b5;" horiz-adv-x="320" d="M318 690l-107 -347q-26 -82 -26 -109q0 -22 10.5 -33.5t27.5 -11.5q15 0 36.5 23.5t39.5 23.5q15 0 25.5 -8t10.5 -22q0 -21 -24 -32t-57 -11q-56 0 -88.5 24t-32.5 72q0 22 30 121l41 135l-14 -27q-32 -61 -81 -108q-37 -35 -68 -35q-19 0 -30 11t-11 29t11 30t30 12 q15 0 30 -20q7 -11 14 -11q23 0 71 73q30 45 47.5 85t48.5 136h66z" />
<glyph unicode="&#x2b6;" horiz-adv-x="390" d="M462 671h-9q-25 0 -51 -25l-127 -124q82 -21 82 -72q0 -47 -49.5 -76t-117.5 -29h-184v13q35 4 49 17t24 50l47 187q5 22 5 28q0 28 -47 31v13h182v-13q-33 -2 -48.5 -15t-24.5 -47l-20 -78h31l161 153h97v-13zM167 507l-33 -134q20 -5 40 -5q44 0 74 22.5t30 58.5 q0 30 -32 47q-21 11 -64 11h-15z" />
<glyph unicode="&#x2b7;" d="M321 678l26 -278q78 97 104 138.5t26 66.5q0 11 -17 28q-17 16 -17 32q0 10 9 17.5t22 7.5q17 0 29 -13t12 -32q0 -64 -168 -276q-33 -42 -42 -42q-6 0 -9 27l-23 246l-70 -121q-43 -76 -44 -78q-38 -74 -50 -74q-9 0 -10 37q-10 207 -25 263q-5 22 -12 28t-25 6h-22v9 q45 8 75 15q4 1 9 2t8.5 2t5.5 1q6 0 8 -4t7 -23q19 -78 25 -222l152 240q5 8 10 8q6 0 6 -11z" />
<glyph unicode="&#x2b8;" horiz-adv-x="330" d="M218 499l16 -83q93 155 93 195q0 11 -20 24t-20 30q0 12 8.5 20t21.5 8q17 0 28.5 -12.5t11.5 -29.5q0 -67 -99 -232q-60 -98 -115.5 -157.5t-88.5 -59.5q-17 0 -27.5 9t-10.5 23q0 13 8.5 22t20.5 9q14 0 26 -11t21 -11q14 0 36 25q10 11 29.5 36.5t24.5 33.5q7 16 7 26 q0 23 -23.5 118.5t-38.5 133.5q-11 28 -23.5 38.5t-34.5 10.5q-11 0 -24 -3v12q65 13 94 18q1 0 6 0.5t9 0.5q8 0 31 -70.5t33 -123.5z" />
<glyph unicode="&#x2bb;" horiz-adv-x="333" d="M232 686l4 -19q-51 -28 -76.5 -60.5t-25.5 -49.5q0 -10 10 -10q2 0 10.5 2t14.5 2q21 0 35.5 -12.5t14.5 -37.5q0 -29 -24 -43.5t-48 -14.5q-13 0 -27 4t-27.5 19t-13.5 40q0 20 4 33q15 55 64.5 97t84.5 50z" />
<glyph unicode="&#x2c0;" horiz-adv-x="326" d="M67 446h12q68 0 110.5 45t42.5 111q0 75 -47 75q-17 0 -31.5 -15t-18.5 -32q-12 -55 -42 -55q-17 0 -27.5 10.5t-10.5 24.5q0 13 10 30.5t30 28.5q38 21 88 21q124 0 124 -99q0 -83 -60.5 -149t-135.5 -66q-13 0 -18 1l-26 -82h-37z" />
<glyph unicode="&#x2c1;" horiz-adv-x="326" d="M141 295l14 82q-5 -1 -18 -1q-49 0 -81.5 32t-32.5 82v6q4 83 51 138.5t146 55.5q52 0 89 -25q34 -22 34 -55q0 -14 -10.5 -24.5t-27.5 -10.5q-30 0 -41 52q-4 19 -19 34.5t-32 15.5q-41 0 -78 -52.5t-37 -97.5q0 -35 29.5 -58t75.5 -23h12l-37 -151h-37z" />
<glyph unicode="&#x2c6;" horiz-adv-x="333" d="M385 492h-36l-82 104l-137 -104h-39l157 169h49z" />
<glyph unicode="&#x2c7;" horiz-adv-x="333" d="M426 661l-162 -169h-48l-95 169h38l89 -105l141 105h37z" />
<glyph unicode="&#x2d8;" horiz-adv-x="333" d="M389 650h29q-11 -67 -60 -112.5t-113 -45.5q-67 0 -97.5 39.5t-30.5 118.5h29q8 -99 107 -99q46 0 83 26.5t53 72.5z" />
<glyph unicode="&#x2d9;" horiz-adv-x="333" d="M305 557q0 -20 -14.5 -34.5t-34.5 -14.5q-21 0 -35 14.5t-14 35.5q0 20 14.5 34t35.5 14q19 0 33.5 -15t14.5 -34z" />
<glyph unicode="&#x2da;" horiz-adv-x="333" d="M355 607q0 -41 -29.5 -70t-70.5 -29q-43 0 -71.5 29t-28.5 71q0 40 29.5 69.5t69.5 29.5q42 0 71.5 -29.5t29.5 -70.5zM321 607q0 28 -19.5 47t-47.5 19q-26 0 -45.5 -19.5t-19.5 -45.5q0 -28 18.5 -47t46.5 -19q29 0 48 18.5t19 46.5z" />
<glyph unicode="&#x2db;" horiz-adv-x="333" d="M183 -74l17 -18q-52 -77 -125 -77q-40 0 -67.5 26.5t-27.5 68.5q0 61 70 114h24q-33 -45 -33 -93q0 -23 16.5 -38t42.5 -15q47 0 83 32z" />
<glyph unicode="&#x2dc;" horiz-adv-x="333" d="M399 624h28q-22 -104 -95 -104q-18 0 -57 15q-71 29 -95 29q-36 0 -51 -47h-29q15 58 38 82t62 24q32 0 86 -24q41 -19 62 -19q20 0 31.5 9.5t19.5 34.5z" />
<glyph unicode="&#x2dd;" horiz-adv-x="333" d="M263 494l160 160q10 10 27 10q15 0 25.5 -10.5t10.5 -25.5q0 -20 -17 -30l-171 -104h-35zM93 494l160 160q10 10 27 10q15 0 25.5 -10.5t10.5 -25.5q0 -20 -17 -30l-169 -104h-37z" />
<glyph unicode="&#x2e0;" horiz-adv-x="315" d="M335 684v-11q-7 0 -13.5 -3.5t-10.5 -6t-10 -10l-8 -10t-8 -12.5t-7 -11l-125 -191l14 -75q4 -22 4 -34q0 -44 -23 -73t-63 -29q-26 0 -44 12.5t-18 34.5q0 32 21 60l56 73l-26 157q-8 54 -19 93q-6 25 -31 25v11h133v-11h-11q-26 -3 -26 -29q0 -13 3 -34l24 -155 l104 163q17 28 17 38q0 17 -27 17v11h94zM107 372l-44 -61q-12 -24 -12 -43q0 -12 7 -20t19 -8q18 0 30.5 13.5t12.5 33.5q0 13 -5 38z" />
<glyph unicode="&#x2e1;" horiz-adv-x="220" d="M214 833l-111 -424q-6 -21 -6 -32q0 -13 12 -13q20 0 49 42l18 25l10 -7q-32 -52 -56 -71.5t-54 -19.5q-35 0 -35 41q0 10 3 21l99 381q2 7 2 14q0 16 -35 16h-13v11q44 5 112 20z" />
<glyph unicode="&#x2e2;" horiz-adv-x="300" d="M290 691l-16 -110h-13q-10 91 -69 91q-21 0 -34 -12t-13 -33q0 -29 43 -79q53 -63 53 -107q0 -48 -31.5 -76.5t-81.5 -28.5q-22 0 -43 8q-17 7 -34 7q-15 0 -23 -16h-12l15 124h13q16 -105 78 -105q28 0 43.5 15.5t15.5 43.5q0 36 -43 90q-50 62 -50 103q0 38 26 61 t69 23q17 0 44 -8q19 -5 28 -5q15 0 24 14h11z" />
<glyph unicode="&#x2e3;" horiz-adv-x="380" d="M217 623l10 -45q41 64 67 88.5t52 24.5q14 0 23.5 -8t9.5 -21t-7.5 -21t-19.5 -8q-7 0 -19 7t-22 7q-23 0 -78 -96q0 -13 6 -36l26 -106q7 -32 23 -32q15 0 38 32q3 4 6.5 9t5.5 8t4 5l12 -7q-35 -54 -54.5 -72.5t-41.5 -18.5q-19 0 -29 12t-18 42l-23 94l-70 -94 q-25 -34 -40 -44t-35 -10q-39 0 -39 34q0 12 7.5 20t19.5 8q10 0 25 -9q14 -7 20 -7q13 0 41 39l65 92l-23 98q-8 36 -14.5 45t-21.5 9q-9 0 -45 -10l-2 13q71 26 101 26q15 0 23 -13.5t17 -54.5z" />
<glyph unicode="&#x2e4;" horiz-adv-x="318" d="M87 412l41 166q-93 19 -93 96q0 66 47.5 119.5t141.5 53.5q45 0 82 -21q39 -23 39 -57q0 -14 -10.5 -24.5t-27.5 -10.5q-30 0 -40 50q-5 21 -19.5 35.5t-31.5 14.5q-39 0 -72.5 -52.5t-33.5 -97.5q0 -38 25 -64.5t62 -26.5l-45 -181q-7 -32 -7 -39q0 -15 10 -20.5 t37 -7.5v-12h-184v12q39 2 53.5 13t25.5 54z" />
<glyph unicode="&#x2ec;" horiz-adv-x="320" d="M305 70l-132 -217h-26l-132 217h69l76 -120l76 120h69z" />
<glyph unicode="&#x2ed;" horiz-adv-x="405" d="M395 611h-385v54h385v-54zM395 507h-385v54h385v-54z" />
<glyph unicode="&#x2f7;" horiz-adv-x="333" d="M205 -113h28q-22 -104 -95 -104q-18 0 -57 15q-71 29 -95 29q-36 0 -51 -47h-29q15 58 38 82t62 24q32 0 86 -24q41 -19 62 -19q20 0 31.5 9.5t19.5 34.5z" />
<glyph unicode="&#x384;" horiz-adv-x="289" d="M160 494l94 132q17 23 43 23q9 0 17 -6t8 -16q0 -15 -40 -52l-88 -81h-34z" />
<glyph unicode="&#x385;" horiz-adv-x="333" d="M387 543q0 -20 -14.5 -34.5t-34.5 -14.5q-21 0 -35 14.5t-14 35.5q0 20 14.5 34t35.5 14q19 0 33.5 -15t14.5 -34zM160 494l94 132q17 23 43 23q9 0 17 -6t8 -16q0 -15 -40 -52l-88 -81h-34zM168 543q0 -20 -14.5 -34.5t-34.5 -14.5q-21 0 -35 14.5t-14 35.5 q0 20 14.5 34t35.5 14q19 0 33.5 -15t14.5 -34z" />
<glyph unicode="&#x386;" horiz-adv-x="611" d="M139 523l94 132q17 23 43 23q9 0 17 -6t8 -16q0 -15 -40 -52l-88 -81h-34zM564 0h-245v16q45 2 61 14t16 39q0 8 -2 26l-20 131h-220l-59 -111q-22 -41 -22 -66q0 -30 62 -33v-16h-186v16q34 7 55.5 32t78.5 124l285 496h26l92 -553q10 -62 24 -79t54 -20v-16zM369 262 l-45 263l-149 -263h194z" />
<glyph unicode="&#x387;" horiz-adv-x="333" d="M261 384q0 -23 -16.5 -38.5t-40.5 -15.5q-22 0 -38 16t-16 38q0 24 16 40.5t39 16.5t39.5 -16.5t16.5 -40.5z" />
<glyph unicode="&#x388;" horiz-adv-x="630" d="M7 523l94 132q17 23 43 23q9 0 17 -6t8 -16q0 -15 -40 -52l-88 -81h-34zM679 653l-31 -154l-22 2q3 26 3 46q0 45 -37 59t-155 14q-42 0 -55 -4.5t-18 -21.5l-66 -233h78q66 0 88 16t51 81l18 -4l-68 -232l-20 5q7 31 7 52q0 24 -7 31q-17 15 -78 15h-78l-32 -112 q-36 -127 -36 -146q0 -34 79 -34q129 0 203 39q38 20 94 98l16 -8l-62 -162h-507v16q43 8 56 19.5t25 54.5l123 442q11 37 11 64q0 20 -15.5 28.5t-61.5 12.5v16h497z" />
<glyph unicode="&#x389;" horiz-adv-x="740" d="M821 653v-16q-44 -8 -58 -20t-26 -54l-132 -481q-3 -12 -3 -24q0 -21 15 -29t64 -13v-16h-274v16q51 4 71.5 21t30.5 56l64 233h-285l-66 -244q-3 -11 -3 -22q0 -22 12.5 -30t57.5 -14v-16h-245v16q41 4 56.5 20t29.5 66l118 430q12 46 12 64q0 21 -14.5 28.5t-62.5 12.5 v16h271v-16q-45 -3 -67.5 -19t-32.5 -52l-54 -198h285l46 164q14 52 14 63q0 19 -16 29t-56 13v16h248zM4 523l94 132q17 23 43 23q9 0 17 -6t8 -16q0 -15 -40 -52l-88 -81h-34z" />
<glyph unicode="&#x38a;" horiz-adv-x="350" d="M3 523l94 132q17 23 43 23q9 0 17 -6t8 -16q0 -15 -40 -52l-88 -81h-34zM429 653v-16q-42 -5 -55.5 -18t-26.5 -59l-120 -429q-15 -53 -15 -76q0 -20 12.5 -27t56.5 -12v-16h-244v16q42 8 57.5 21t26.5 54l120 441q13 46 13 62q0 20 -16 30.5t-56 12.5v16h247z" />
<glyph unicode="&#x38c;" horiz-adv-x="722" d="M58 523l94 132q17 23 43 23q9 0 17 -6t8 -16q0 -15 -40 -52l-88 -81h-34zM699 418q0 -107 -57.5 -205t-149.5 -160q-105 -71 -214 -71q-99 0 -158.5 62t-59.5 172q0 91 49 187.5t128 165.5q112 97 237 97q107 1 166 -66t59 -182zM594 481q0 71 -34.5 111.5t-94.5 40.5 q-99 0 -186 -117q-53 -72 -83.5 -163t-30.5 -169q0 -82 33.5 -125.5t96.5 -43.5q92 0 170 95q59 74 94 181t35 190z" />
<glyph unicode="&#x38e;" horiz-adv-x="580" d="M725 604l-16 -7q-17 25 -40 25q-47 0 -92.5 -40.5t-79 -104t-55.5 -119t-37 -107.5l-40 -140q-10 -34 -10 -55q0 -19 11.5 -27t41.5 -10l36 -3v-16h-289v16q51 3 72.5 19t34.5 63l56 197q10 66 10 128q0 105 -24.5 149t-84.5 44q-20 0 -46 -11l-7 14q36 26 61.5 37.5 t57.5 11.5q143 0 143 -207q0 -30 -2 -46h3v1q37 101 100.5 175.5t121.5 74.5q28 0 48 -14q18 -14 26 -48zM8 523l94 132q17 23 43 23q9 0 17 -6t8 -16q0 -15 -40 -52l-88 -81h-34z" />
<glyph unicode="&#x38f;" horiz-adv-x="762" d="M50 523l94 132q17 23 43 23q9 0 17 -6t8 -16q0 -15 -40 -52l-88 -81h-34zM242 94l5 37q-147 48 -147 203q0 65 35.5 129t96.5 114q109 89 273 89q118 0 176 -62t58 -168q0 -107 -76.5 -193t-205.5 -112l-7 -37h128q24 2 34 3.5t27 7t26.5 13.5t21 23.5t19.5 37.5l18 -5 l-56 -174h-280l40 166q87 19 146.5 103.5t59.5 182.5q0 181 -140 181q-108 0 -192 -87q-97 -102 -97 -216q0 -61 21 -105.5t63 -58.5l-24 -166h-271l42 179l17 -5q-4 -20 -4 -36q0 -26 16 -35t46 -9h131z" />
<glyph unicode="&#x390;" horiz-adv-x="278" d="M387 543q0 -20 -14.5 -34.5t-34.5 -14.5q-21 0 -35 14.5t-14 35.5q0 20 14.5 34t35.5 14q19 0 33.5 -15t14.5 -34zM160 494l94 132q17 23 43 23q9 0 17 -6t8 -16q0 -15 -40 -52l-88 -81h-34zM168 543q0 -20 -14.5 -34.5t-34.5 -14.5q-21 0 -35 14.5t-14 35.5 q0 20 14.5 34t35.5 14q19 0 33.5 -15t14.5 -34zM222 114l13 -11q-42 -65 -71 -89.5t-66 -24.5q-49 0 -49 55q0 29 22 111l48 177q9 32 9 44q0 15 -11.5 19t-52.5 5v16q46 4 160 25l4 -3l-94 -343q-10 -34 -10 -44q0 -15 14 -15q25 0 84 78z" />
<glyph unicode="&#x391;" horiz-adv-x="611" d="M564 0h-245v16q45 2 61 14t16 39q0 8 -2 26l-20 131h-220l-59 -111q-22 -41 -22 -66q0 -30 62 -33v-16h-186v16q34 7 55.5 32t78.5 124l285 496h26l92 -553q10 -62 24 -79t54 -20v-16zM369 262l-45 263l-149 -263h194z" />
<glyph unicode="&#x392;" horiz-adv-x="611" d="M130 653h250q208 0 208 -150q0 -70 -64 -113q-34 -23 -111 -39v-1q126 -38 126 -150q0 -98 -74.5 -149t-200.5 -51h-272v16q41 6 55.5 20t27.5 60l121 436q11 39 11 64q0 22 -15 29.5t-62 11.5v16zM248 363h38q98 0 149.5 39t51.5 113q0 56 -28 82t-89 26 q-23 0 -31.5 -1.5t-15.5 -9t-12 -25.5zM238 331l-32 -119q-35 -133 -35 -140q0 -42 67 -42q88 0 140.5 44t52.5 126q0 45 -19 77t-48 42q-34 12 -126 12z" />
<glyph unicode="&#x393;" horiz-adv-x="611" d="M645 653l-32 -154l-21 2q3 22 3 33q0 39 -14 55.5t-54 23.5t-131 7q-35 0 -49 -6.5t-19 -25.5l-132 -473q-14 -50 -14 -60q0 -18 17 -27t60 -12v-16h-251v16q41 3 56 19t27 59l123 442q10 36 10 61q0 21 -13.5 28.5t-62.5 11.5v16h497z" />
<glyph unicode="&#x394;" horiz-adv-x="611" d="M526 0h-558l400 668h26zM411 94l-87 432l-255 -432h342z" />
<glyph unicode="&#x395;" horiz-adv-x="611" d="M634 653l-31 -154l-22 2q3 26 3 46q0 45 -37 59t-155 14q-42 0 -55 -4.5t-18 -21.5l-66 -233h78q66 0 88 16t51 81l18 -4l-68 -232l-20 5q7 31 7 52q0 24 -7 31q-16 15 -78 15h-78l-32 -112q-36 -127 -36 -146q0 -34 79 -34q129 0 203 39q38 20 94 98l16 -8l-62 -162 h-507v16q43 8 56 19.5t25 54.5l123 442q11 37 11 64q0 20 -15.5 28.5t-61.5 12.5v16h497z" />
<glyph unicode="&#x396;" horiz-adv-x="556" d="M606 639l-483 -603h161q71 0 108.5 6t64.5 26q41 30 77 104l19 -3l-54 -169h-505v14l479 603h-171q-102 0 -142 -27q-22 -15 -32.5 -30.5t-33.5 -58.5l-19 5l45 147h486v-14z" />
<glyph unicode="&#x397;" horiz-adv-x="722" d="M769 653v-16q-44 -8 -58 -20t-26 -54l-132 -481q-3 -12 -3 -24q0 -21 15 -29t64 -13v-16h-274v16q51 4 71.5 21t30.5 56l64 233h-285l-66 -244q-3 -11 -3 -22q0 -22 12.5 -30t57.5 -14v-16h-245v16q41 4 56.5 20t29.5 66l118 430q12 46 12 64q0 21 -14.5 28.5t-62.5 12.5 v16h271v-16q-45 -3 -67.5 -19t-32.5 -52l-54 -198h285l46 164q14 52 14 63q0 19 -16 29t-56 13v16h248z" />
<glyph unicode="&#x398;" horiz-adv-x="722" d="M524 429h19q-53 -137 -53 -209h-19q0 32 -10.5 45t-36.5 13h-105q-60 0 -84 -58h-19q53 129 53 209h19q6 -35 16 -46t36 -11h98q29 0 54 15t32 42zM699 418q0 -107 -57.5 -205t-149.5 -160q-105 -71 -218 -71q-99 0 -156.5 61.5t-57.5 172.5q0 91 49 187.5t128 165.5 q112 97 237 97q107 1 166 -66t59 -182zM594 481q0 71 -34.5 111.5t-94.5 40.5q-99 0 -186 -117q-53 -72 -83.5 -163t-30.5 -169q0 -82 33.5 -125.5t96.5 -43.5q92 0 170 95q59 74 94 181t35 190z" />
<glyph unicode="&#x399;" horiz-adv-x="333" d="M384 653v-16q-42 -5 -55.5 -18t-26.5 -59l-120 -429q-15 -53 -15 -76q0 -20 12.5 -27t56.5 -12v-16h-244v16q42 8 57.5 21t26.5 54l120 441q13 46 13 62q0 20 -16 30.5t-56 12.5v16h247z" />
<glyph unicode="&#x39a;" horiz-adv-x="667" d="M722 653v-16q-28 0 -77 -37l-298 -225l168 -293q23 -40 40 -50.5t64 -15.5v-16h-275v16l29 3q46 4 46 32q0 6 -1.5 13t-6.5 16.5t-8 15t-11 19.5t-10 18l-123 215l-65 -237q-11 -38 -11 -51q0 -23 14.5 -31.5t56.5 -12.5v-16h-247v16q43 5 56 17t25 54l124 445 q14 50 14 62q0 21 -17 31t-62 12v16h270v-16q-42 -3 -65 -18.5t-34 -55.5l-53 -194l153 109q143 101 143 137q0 15 -36 19l-24 3v16h221z" />
<glyph unicode="&#x39b;" horiz-adv-x="611" d="M564 0h-245v16q45 2 61 14t16 39q0 8 -2 26l-70 430l-229 -410q-22 -41 -22 -66q0 -30 62 -33v-16h-186v16q34 7 55.5 32t78.5 124l285 496h26l92 -553q10 -62 24 -79t54 -20v-16z" />
<glyph unicode="&#x39c;" horiz-adv-x="833" d="M872 653v-16q-41 -7 -55.5 -20.5t-25.5 -53.5l-123 -443q-14 -50 -14 -62q0 -20 18 -30.5t63 -11.5l-1 -16h-271v16q49 5 69 22t33 64l126 459l-376 -561h-17l-62 546l-118 -428q-9 -32 -9 -54q0 -43 70 -48v-16h-197v16q40 5 58.5 28.5t41.5 105.5l114 401q12 41 12 52 q0 30 -74 34v16h181l56 -492l335 492h166z" />
<glyph unicode="&#x39d;" horiz-adv-x="667" d="M727 653v-16q-27 -6 -37.5 -9.5t-23 -21t-19 -38.5t-22.5 -76l-146 -507h-18l-230 550l-114 -422q-9 -32 -9 -54q0 -21 15.5 -30.5t54.5 -12.5v-16h-198v16q43 6 61 31.5t45 120.5l117 415q-23 54 -86 54v16h160l207 -499l106 388q8 28 8 44q0 27 -13.5 37t-55.5 14v16 h198z" />
<glyph unicode="&#x39e;" horiz-adv-x="651" d="M680 653l-44 -164l-17 2q2 18 2 23q0 28 -14 38.5t-58 10.5h-285q-41 0 -64.5 -14.5t-38.5 -54.5l-18 4l42 155h495zM553 456l-59 -218l-17 2q2 12 2 27q0 21 -10.5 29t-50.5 8h-150q-33 0 -53.5 -12t-35.5 -49l-18 4l56 209l19 -4q-3 -11 -3 -29q0 -22 14.5 -27.5 t47.5 -5.5h143q33 0 51.5 8.5t25.5 19.5t20 41zM587 174l-56 -174h-537l44 179l17 -5q-4 -19 -4 -36q0 -44 62 -44h319q52 0 84 16t53 69z" />
<glyph unicode="&#x39f;" horiz-adv-x="722" d="M699 418q0 -107 -57.5 -205t-149.5 -160q-105 -71 -214 -71q-99 0 -158.5 62t-59.5 172q0 91 49 187.5t128 165.5q112 97 237 97q107 1 166 -66t59 -182zM594 481q0 71 -34.5 111.5t-94.5 40.5q-99 0 -186 -117q-53 -72 -83.5 -163t-30.5 -169q0 -82 33.5 -125.5 t96.5 -43.5q92 0 170 95q59 74 94 181t35 190z" />
<glyph unicode="&#x3a0;" horiz-adv-x="722" d="M769 653v-16q-44 -8 -58 -20t-26 -54l-132 -481q-3 -12 -3 -24q0 -21 15 -29t64 -13v-16h-274v16q50 4 70.5 20.5t31.5 56.5l145 520h-285l-147 -531q-3 -11 -3 -22q0 -22 12.5 -30t57.5 -14v-16h-245v16q41 4 56.5 20t29.5 66l118 430q12 46 12 64q0 21 -14.5 28.5 t-62.5 12.5v16h638z" />
<glyph unicode="&#x3a1;" horiz-adv-x="611" d="M146 653h241q218 0 218 -148q0 -40 -18.5 -78.5t-49.5 -64.5q-69 -57 -205 -57q-55 0 -90 8l-53 -193q-14 -54 -14 -63q0 -18 15 -27.5t54 -13.5v-16h-244v16q43 6 56.5 19.5t27.5 62.5l116 414q17 61 17 83q0 20 -14 28.5t-57 13.5v16zM320 592l-69 -245q29 -5 52 -5 q87 0 128 24q71 40 71 134q0 123 -130 123q-44 0 -52 -31z" />
<glyph unicode="&#x3a3;" horiz-adv-x="620" d="M659 653l-31 -154l-22 2q3 15 3 43q0 45 -32.5 59t-122.5 14h-178l160 -262l-300 -261h305q57 0 90 23.5t60 81.5l19 -3l-66 -196h-550v15l350 310l-193 314v14h508z" />
<glyph unicode="&#x3a4;" horiz-adv-x="556" d="M633 653l-44 -164l-17 2q3 25 3 46q0 81 -101 81h-58l-137 -490q-14 -49 -14 -66q0 -23 11 -31.5t42 -11.5l35 -3v-16h-288v16q52 5 74 20t33 55l143 527q-119 0 -160.5 -21.5t-77.5 -102.5l-18 4l42 155h532z" />
<glyph unicode="&#x3a5;" horiz-adv-x="556" d="M648 604l-16 -7q-17 25 -40 25q-47 0 -92.5 -40.5t-79 -104t-55.5 -119t-37 -107.5l-40 -140q-10 -34 -10 -55q0 -19 11.5 -27t41.5 -10l36 -3v-16h-289v16q51 3 72.5 19t34.5 63l56 197q10 66 10 128q0 105 -24.5 149t-84.5 44q-20 0 -46 -11l-7 14q36 26 61.5 37.5 t57.5 11.5q143 0 143 -207q0 -30 -2 -46h3v1q37 101 100.5 175.5t121.5 74.5q28 0 48 -14q18 -14 26 -48z" />
<glyph unicode="&#x3a6;" horiz-adv-x="741" d="M510 582l-12 -42q101 -4 167 -47t66 -132q0 -96 -91 -173q-85 -72 -260 -75q-11 -29 -11 -56q0 -23 21 -32t72 -9v-16h-297v16h9q46 0 70 20.5t36 76.5q-98 1 -164 45.5t-66 132.5q0 95 88 171q86 74 261 78q14 49 14 64q0 19 -12.5 26t-57.5 7v16h287v-16h-17 q-88 0 -103 -55zM488 510l-99 -361q120 0 179 63q60 64 60 154q0 63 -35.5 100.5t-104.5 43.5zM291 149l99 361q-113 0 -180 -70q-32 -34 -44.5 -68.5t-12.5 -83.5q0 -129 138 -139z" />
<glyph unicode="&#x3a7;" horiz-adv-x="611" d="M655 653v-16q-33 -11 -60.5 -31.5t-64.5 -63.5l-169 -194l101 -255q18 -45 36 -58t69 -19v-16h-271v16q43 1 60 9.5t17 27.5q0 16 -14 51l-67 165l-151 -172q-23 -26 -23 -48q0 -33 66 -33v-16h-213v16q40 7 76 40.5t144 159.5l83 97l-103 255q-15 37 -33.5 51t-61.5 18 v16h263v-16q-41 -5 -56 -13.5t-15 -27.5q0 -17 16 -56l59 -147l145 167q21 24 21 43q0 31 -61 34v16h207z" />
<glyph unicode="&#x3a8;" horiz-adv-x="675" d="M778 667v-16q-17 -4 -29.5 -12t-20 -22t-11 -23.5t-8.5 -30t-7 -28.5q-19 -65 -54 -111.5t-79.5 -72t-90.5 -36.5t-98 -11l-59 -210q-6 -24 -6 -32q0 -24 18.5 -35t71.5 -11v-16h-289v16q49 0 72.5 17t34.5 57l59 214q-197 0 -197 146q0 30 17 81t17 66q0 54 -42 54v16 h29q47 0 73.5 -28t26.5 -82q0 -17 -10.5 -58t-10.5 -60q0 -47 29 -72.5t78 -25.5l59 217q10 37 10 46q0 19 -11 26t-50 7h-11v16h278v-16h-17q-77 0 -93 -55l-67 -241q15 1 39 9t55 23.5t58 46t38 69.5q12 43 22.5 69t31 54t53 41.5t78.5 13.5h13z" />
<glyph unicode="&#x3a9;" horiz-adv-x="762" d="M242 94l5 37q-147 48 -147 203q0 65 35.5 129t96.5 114q109 89 273 89q118 0 176 -62t58 -168q0 -107 -76.5 -193t-205.5 -112l-7 -37h128q24 2 34 3.5t27 7t26.5 13.5t21 23.5t19.5 37.5l18 -5l-56 -174h-280l40 166q87 19 146.5 103.5t59.5 182.5q0 181 -140 181 q-108 0 -192 -87q-97 -102 -97 -216q0 -61 21 -105.5t63 -58.5l-24 -166h-271l42 179l17 -5q-4 -20 -4 -36q0 -26 16 -35t46 -9h131z" />
<glyph unicode="&#x3aa;" horiz-adv-x="333" d="M460 807q0 -20 -14.5 -34.5t-34.5 -14.5q-21 0 -35 14.5t-14 35.5q0 20 14.5 34t35.5 14q19 0 33.5 -15t14.5 -34zM260 807q0 -20 -14.5 -34.5t-34.5 -14.5q-21 0 -35 14.5t-14 35.5q0 20 14.5 34t35.5 14q19 0 33.5 -15t14.5 -34zM384 653v-16q-42 -5 -55.5 -18 t-26.5 -59l-120 -429q-15 -53 -15 -76q0 -20 12.5 -27t56.5 -12v-16h-244v16q42 8 57.5 21t26.5 54l120 441q13 46 13 62q0 20 -16 30.5t-56 12.5v16h247z" />
<glyph unicode="&#x3ab;" horiz-adv-x="556" d="M576 807q0 -20 -14.5 -34.5t-34.5 -14.5q-21 0 -35 14.5t-14 35.5q0 20 14.5 34t35.5 14q19 0 33.5 -15t14.5 -34zM376 807q0 -20 -14.5 -34.5t-34.5 -14.5q-21 0 -35 14.5t-14 35.5q0 20 14.5 34t35.5 14q19 0 33.5 -15t14.5 -34zM648 604l-16 -7q-17 25 -40 25 q-47 0 -92.5 -40.5t-79 -104t-55.5 -119t-37 -107.5l-40 -140q-10 -34 -10 -55q0 -19 11.5 -27t41.5 -10l36 -3v-16h-289v16q51 3 72.5 19t34.5 63l56 197q10 66 10 128q0 105 -24.5 149t-84.5 44q-20 0 -46 -11l-7 14q36 26 61.5 37.5t57.5 11.5q143 0 143 -207 q0 -30 -2 -46h3v1q37 101 100.5 175.5t121.5 74.5q28 0 48 -14q18 -14 26 -48z" />
<glyph unicode="&#x3ac;" horiz-adv-x="552" d="M300 494l94 132q17 23 43 23q9 0 17 -6t8 -16q0 -15 -40 -52l-88 -81h-34zM549 428l-142 -261v-18q0 -39 9 -69t25 -30q23 0 51 74l16 -7q-37 -126 -101 -126q-49 0 -52 105q-88 -107 -194 -107q-69 0 -101.5 42t-32.5 110q0 61 24.5 120.5t66.5 102.5q34 34 80.5 55.5 t92.5 21.5q60 0 93 -35.5t33 -83.5l46 106h86zM359 272q0 148 -77 148q-52 0 -112.5 -92t-60.5 -203q0 -48 17 -81.5t52 -33.5q73 0 165 191q1 6 5.5 19.5t7.5 26.5t3 25z" />
<glyph unicode="&#x3ad;" horiz-adv-x="444" d="M248 494l94 132q17 23 43 23q9 0 17 -6t8 -16q0 -15 -40 -52l-88 -81h-34zM360 98l16 -10q-78 -99 -199 -99q-147 0 -147 111q0 45 33 81t83 49q-25 4 -39 22.5t-14 41.5q1 60 62.5 103.5t161.5 43.5q48 0 78 -23.5t30 -59.5q0 -20 -16 -33t-32 -13q-18 0 -28.5 11 t-10.5 29q0 10 7.5 24.5t7.5 23.5q0 20 -37 20q-53 0 -97 -30t-44 -92q0 -26 20.5 -39.5t53.5 -13.5q3 0 21 3.5t32 3.5t24 -6t10 -15q0 -27 -45 -27q-9 0 -22 4.5t-24 4.5q-44 0 -86.5 -28t-42.5 -79q0 -42 26 -61.5t63 -19.5q87 0 155 73z" />
<glyph unicode="&#x3ae;" horiz-adv-x="474" d="M231 494l94 132q17 23 43 23q9 0 17 -6t8 -16q0 -15 -40 -52l-88 -81h-34zM148 228l2 -1q133 214 221 214q31 0 51 -14.5t20 -42.5q0 -24 -10 -63l-87 -321q-30 -109 -30 -171q0 -15 8 -34h-73q-11 13 -11 44q0 50 33 170l75 274q14 47 14 72q0 35 -25 35 q-40 0 -113 -93.5t-102 -190.5l-32 -106h-75l82 305q14 50 14 62q0 17 -14 17q-4 0 -8.5 -2t-9.5 -6.5t-9.5 -8.5t-10 -10.5t-9 -11t-9 -11t-7.5 -8.5l-12 10q13 22 29 41q49 61 97 61q40 0 40 -45q0 -41 -39 -165z" />
<glyph unicode="&#x3af;" horiz-adv-x="278" d="M126 494l94 132q17 23 43 23q9 0 17 -6t8 -16q0 -15 -40 -52l-88 -81h-34zM222 114l13 -11q-42 -65 -71 -89.5t-66 -24.5q-49 0 -49 55q0 29 22 111l48 177q9 32 9 44q0 15 -11.5 19t-52.5 5v16q46 4 160 25l4 -3l-94 -343q-10 -34 -10 -44q0 -15 14 -15q25 0 84 78z" />
<glyph unicode="&#x3b0;" horiz-adv-x="478" d="M434 543q0 -20 -14.5 -34.5t-34.5 -14.5q-21 0 -35 14.5t-14 35.5q0 20 14.5 34t35.5 14q19 0 33.5 -15t14.5 -34zM207 494l94 132q17 23 43 23q9 0 17 -6t8 -16q0 -15 -40 -52l-88 -81h-34zM215 543q0 -20 -14.5 -34.5t-34.5 -14.5q-21 0 -35 14.5t-14 35.5 q0 20 14.5 34t35.5 14q19 0 33.5 -15t14.5 -34zM276 426v15q85 0 127.5 -29.5t42.5 -108.5q0 -47 -21.5 -101.5t-56.5 -101.5t-85.5 -78.5t-103.5 -31.5q-134 0 -134 104q0 42 32 146l28 93q8 29 8 39q0 14 -12 14q-22 0 -69 -60l-13 9q70 106 131 106q44 0 44 -45 q0 -25 -8 -52l-50 -181q-11 -39 -11 -74q0 -78 57 -78q50 0 93.5 59.5t65 131.5t21.5 125q0 54 -20 74t-66 25z" />
<glyph unicode="&#x3b1;" horiz-adv-x="552" d="M549 428l-142 -261v-18q0 -39 9 -69t25 -30q23 0 51 74l16 -7q-37 -126 -101 -126q-49 0 -52 105q-88 -107 -194 -107q-69 0 -101.5 42t-32.5 110q0 61 24.5 120.5t66.5 102.5q34 34 80.5 55.5t92.5 21.5q60 0 93 -35.5t33 -83.5l46 106h86zM359 272q0 148 -77 148 q-52 0 -112.5 -92t-60.5 -203q0 -48 17 -81.5t52 -33.5q73 0 165 191q1 6 5.5 19.5t7.5 26.5t3 25z" />
</font>
</defs>
</svg>
